ISO-10303-21;
HEADER;
FILE_DESCRIPTION(('FreeCAD Model'),'2;1');
FILE_NAME('Open CASCADE Shape Model','2026-09-04T08:26:10',('FreeCAD'),(
    'FreeCAD'),'Open CASCADE STEP processor 7.8','FreeCAD','Unknown');
FILE_SCHEMA(('AUTOMOTIVE_DESIGN { 1 0 10303 214 1 1 1 1 }'));
ENDSEC;
DATA;
#1 = APPLICATION_PROTOCOL_DEFINITION('international standard',
  'automotive_design',2000,#2);
#2 = APPLICATION_CONTEXT(
  'core data for automotive mechanical design processes');
#3 = SHAPE_DEFINITION_REPRESENTATION(#4,#10);
#4 = PRODUCT_DEFINITION_SHAPE('','',#5);
#5 = PRODUCT_DEFINITION('design','',#6,#9);
#6 = PRODUCT_DEFINITION_FORMATION('','',#7);
#7 = PRODUCT('Open CASCADE STEP translator 7.8 10',
  'Open CASCADE STEP translator 7.8 10','',(#8));
#8 = PRODUCT_CONTEXT('',#2,'mechanical');
#9 = PRODUCT_DEFINITION_CONTEXT('part definition',#2,'design');
#10 = ADVANCED_BREP_SHAPE_REPRESENTATION('',(#11,#15),#1497);
#11 = AXIS2_PLACEMENT_3D('',#12,#13,#14);
#12 = CARTESIAN_POINT('',(0.,0.,0.));
#13 = DIRECTION('',(0.,0.,1.));
#14 = DIRECTION('',(1.,0.,-0.));
#15 = MANIFOLD_SOLID_BREP('',#16);
#16 = CLOSED_SHELL('',(#17,#57,#88,#160,#184,#249,#280,#302,#501,#518,
    #540,#564,#652,#669,#686,#703,#730,#747,#764,#776,#793,#815,#827,
    #858,#882,#906,#923,#955,#979,#1003,#1028,#1053,#1077,#1101,#1119,
    #1136,#1153,#1165,#1196,#1227,#1244,#1256,#1288,#1312,#1336,#1361,
    #1386,#1410,#1434,#1452,#1469,#1481));
#17 = ADVANCED_FACE('',(#18),#52,.F.);
#18 = FACE_BOUND('',#19,.F.);
#19 = EDGE_LOOP('',(#20,#30,#38,#46));
#20 = ORIENTED_EDGE('',*,*,#21,.F.);
#21 = EDGE_CURVE('',#22,#24,#26,.T.);
#22 = VERTEX_POINT('',#23);
#23 = CARTESIAN_POINT('',(0.,0.,0.));
#24 = VERTEX_POINT('',#25);
#25 = CARTESIAN_POINT('',(0.,0.,15.));
#26 = LINE('',#27,#28);
#27 = CARTESIAN_POINT('',(0.,0.,0.));
#28 = VECTOR('',#29,1.);
#29 = DIRECTION('',(0.,0.,1.));
#30 = ORIENTED_EDGE('',*,*,#31,.T.);
#31 = EDGE_CURVE('',#22,#32,#34,.T.);
#32 = VERTEX_POINT('',#33);
#33 = CARTESIAN_POINT('',(0.,51.,0.));
#34 = LINE('',#35,#36);
#35 = CARTESIAN_POINT('',(0.,0.,0.));
#36 = VECTOR('',#37,1.);
#37 = DIRECTION('',(0.,1.,0.));
#38 = ORIENTED_EDGE('',*,*,#39,.T.);
#39 = EDGE_CURVE('',#32,#40,#42,.T.);
#40 = VERTEX_POINT('',#41);
#41 = CARTESIAN_POINT('',(0.,51.,15.));
#42 = LINE('',#43,#44);
#43 = CARTESIAN_POINT('',(0.,51.,0.));
#44 = VECTOR('',#45,1.);
#45 = DIRECTION('',(0.,0.,1.));
#46 = ORIENTED_EDGE('',*,*,#47,.F.);
#47 = EDGE_CURVE('',#24,#40,#48,.T.);
#48 = LINE('',#49,#50);
#49 = CARTESIAN_POINT('',(0.,0.,15.));
#50 = VECTOR('',#51,1.);
#51 = DIRECTION('',(0.,1.,0.));
#52 = PLANE('',#53);
#53 = AXIS2_PLACEMENT_3D('',#54,#55,#56);
#54 = CARTESIAN_POINT('',(0.,0.,0.));
#55 = DIRECTION('',(1.,0.,0.));
#56 = DIRECTION('',(0.,0.,1.));
#57 = ADVANCED_FACE('',(#58),#83,.F.);
#58 = FACE_BOUND('',#59,.F.);
#59 = EDGE_LOOP('',(#60,#68,#69,#77));
#60 = ORIENTED_EDGE('',*,*,#61,.F.);
#61 = EDGE_CURVE('',#22,#62,#64,.T.);
#62 = VERTEX_POINT('',#63);
#63 = CARTESIAN_POINT('',(12.,0.,0.));
#64 = LINE('',#65,#66);
#65 = CARTESIAN_POINT('',(0.,0.,0.));
#66 = VECTOR('',#67,1.);
#67 = DIRECTION('',(1.,0.,0.));
#68 = ORIENTED_EDGE('',*,*,#21,.T.);
#69 = ORIENTED_EDGE('',*,*,#70,.T.);
#70 = EDGE_CURVE('',#24,#71,#73,.T.);
#71 = VERTEX_POINT('',#72);
#72 = CARTESIAN_POINT('',(12.,0.,15.));
#73 = LINE('',#74,#75);
#74 = CARTESIAN_POINT('',(0.,0.,15.));
#75 = VECTOR('',#76,1.);
#76 = DIRECTION('',(1.,0.,0.));
#77 = ORIENTED_EDGE('',*,*,#78,.F.);
#78 = EDGE_CURVE('',#62,#71,#79,.T.);
#79 = LINE('',#80,#81);
#80 = CARTESIAN_POINT('',(12.,0.,0.));
#81 = VECTOR('',#82,1.);
#82 = DIRECTION('',(0.,0.,1.));
#83 = PLANE('',#84);
#84 = AXIS2_PLACEMENT_3D('',#85,#86,#87);
#85 = CARTESIAN_POINT('',(0.,0.,0.));
#86 = DIRECTION('',(0.,1.,0.));
#87 = DIRECTION('',(0.,0.,1.));
#88 = ADVANCED_FACE('',(#89),#155,.T.);
#89 = FACE_BOUND('',#90,.T.);
#90 = EDGE_LOOP('',(#91,#99,#100,#101,#109,#117,#125,#133,#141,#149));
#91 = ORIENTED_EDGE('',*,*,#92,.F.);
#92 = EDGE_CURVE('',#40,#93,#95,.T.);
#93 = VERTEX_POINT('',#94);
#94 = CARTESIAN_POINT('',(12.,51.,15.));
#95 = LINE('',#96,#97);
#96 = CARTESIAN_POINT('',(0.,51.,15.));
#97 = VECTOR('',#98,1.);
#98 = DIRECTION('',(1.,0.,0.));
#99 = ORIENTED_EDGE('',*,*,#47,.F.);
#100 = ORIENTED_EDGE('',*,*,#70,.T.);
#101 = ORIENTED_EDGE('',*,*,#102,.T.);
#102 = EDGE_CURVE('',#71,#103,#105,.T.);
#103 = VERTEX_POINT('',#104);
#104 = CARTESIAN_POINT('',(12.,42.996211251235,15.));
#105 = LINE('',#106,#107);
#106 = CARTESIAN_POINT('',(12.,0.,15.));
#107 = VECTOR('',#108,1.);
#108 = DIRECTION('',(0.,1.,0.));
#109 = ORIENTED_EDGE('',*,*,#110,.T.);
#110 = EDGE_CURVE('',#103,#111,#113,.T.);
#111 = VERTEX_POINT('',#112);
#112 = CARTESIAN_POINT('',(12.,43.121821007333,15.));
#113 = LINE('',#114,#115);
#114 = CARTESIAN_POINT('',(12.,0.,15.));
#115 = VECTOR('',#116,1.);
#116 = DIRECTION('',(0.,1.,0.));
#117 = ORIENTED_EDGE('',*,*,#118,.F.);
#118 = EDGE_CURVE('',#119,#111,#121,.T.);
#119 = VERTEX_POINT('',#120);
#120 = CARTESIAN_POINT('',(11.9,43.146211251235,15.));
#121 = LINE('',#122,#123);
#122 = CARTESIAN_POINT('',(11.9,43.146211251235,15.));
#123 = VECTOR('',#124,1.);
#124 = DIRECTION('',(0.971520338783,-0.236956180191,0.));
#125 = ORIENTED_EDGE('',*,*,#126,.F.);
#126 = EDGE_CURVE('',#127,#119,#129,.T.);
#127 = VERTEX_POINT('',#128);
#128 = CARTESIAN_POINT('',(11.9,47.146211251235,15.));
#129 = LINE('',#130,#131);
#130 = CARTESIAN_POINT('',(11.9,47.146211251235,15.));
#131 = VECTOR('',#132,1.);
#132 = DIRECTION('',(0.,-1.,0.));
#133 = ORIENTED_EDGE('',*,*,#134,.F.);
#134 = EDGE_CURVE('',#135,#127,#137,.T.);
#135 = VERTEX_POINT('',#136);
#136 = CARTESIAN_POINT('',(12.,47.170601495138,15.));
#137 = LINE('',#138,#139);
#138 = CARTESIAN_POINT('',(16.,48.146211251235,15.));
#139 = VECTOR('',#140,1.);
#140 = DIRECTION('',(-0.971520338783,-0.236956180191,0.));
#141 = ORIENTED_EDGE('',*,*,#142,.T.);
#142 = EDGE_CURVE('',#135,#143,#145,.T.);
#143 = VERTEX_POINT('',#144);
#144 = CARTESIAN_POINT('',(12.,47.296211251235,15.));
#145 = LINE('',#146,#147);
#146 = CARTESIAN_POINT('',(12.,0.,15.));
#147 = VECTOR('',#148,1.);
#148 = DIRECTION('',(0.,1.,0.));
#149 = ORIENTED_EDGE('',*,*,#150,.T.);
#150 = EDGE_CURVE('',#143,#93,#151,.T.);
#151 = LINE('',#152,#153);
#152 = CARTESIAN_POINT('',(12.,0.,15.));
#153 = VECTOR('',#154,1.);
#154 = DIRECTION('',(0.,1.,0.));
#155 = PLANE('',#156);
#156 = AXIS2_PLACEMENT_3D('',#157,#158,#159);
#157 = CARTESIAN_POINT('',(0.,0.,15.));
#158 = DIRECTION('',(0.,0.,1.));
#159 = DIRECTION('',(1.,0.,0.));
#160 = ADVANCED_FACE('',(#161),#179,.T.);
#161 = FACE_BOUND('',#162,.T.);
#162 = EDGE_LOOP('',(#163,#171,#172,#173));
#163 = ORIENTED_EDGE('',*,*,#164,.F.);
#164 = EDGE_CURVE('',#32,#165,#167,.T.);
#165 = VERTEX_POINT('',#166);
#166 = CARTESIAN_POINT('',(12.,51.,0.));
#167 = LINE('',#168,#169);
#168 = CARTESIAN_POINT('',(0.,51.,0.));
#169 = VECTOR('',#170,1.);
#170 = DIRECTION('',(1.,0.,0.));
#171 = ORIENTED_EDGE('',*,*,#39,.T.);
#172 = ORIENTED_EDGE('',*,*,#92,.T.);
#173 = ORIENTED_EDGE('',*,*,#174,.F.);
#174 = EDGE_CURVE('',#165,#93,#175,.T.);
#175 = LINE('',#176,#177);
#176 = CARTESIAN_POINT('',(12.,51.,0.));
#177 = VECTOR('',#178,1.);
#178 = DIRECTION('',(0.,0.,1.));
#179 = PLANE('',#180);
#180 = AXIS2_PLACEMENT_3D('',#181,#182,#183);
#181 = CARTESIAN_POINT('',(0.,51.,0.));
#182 = DIRECTION('',(0.,1.,0.));
#183 = DIRECTION('',(0.,0.,1.));
#184 = ADVANCED_FACE('',(#185),#244,.F.);
#185 = FACE_BOUND('',#186,.F.);
#186 = EDGE_LOOP('',(#187,#188,#189,#190,#198,#206,#214,#222,#230,#238)
  );
#187 = ORIENTED_EDGE('',*,*,#164,.F.);
#188 = ORIENTED_EDGE('',*,*,#31,.F.);
#189 = ORIENTED_EDGE('',*,*,#61,.T.);
#190 = ORIENTED_EDGE('',*,*,#191,.T.);
#191 = EDGE_CURVE('',#62,#192,#194,.T.);
#192 = VERTEX_POINT('',#193);
#193 = CARTESIAN_POINT('',(12.,42.996211251235,0.));
#194 = LINE('',#195,#196);
#195 = CARTESIAN_POINT('',(12.,0.,0.));
#196 = VECTOR('',#197,1.);
#197 = DIRECTION('',(0.,1.,0.));
#198 = ORIENTED_EDGE('',*,*,#199,.T.);
#199 = EDGE_CURVE('',#192,#200,#202,.T.);
#200 = VERTEX_POINT('',#201);
#201 = CARTESIAN_POINT('',(12.,43.121821007333,0.));
#202 = LINE('',#203,#204);
#203 = CARTESIAN_POINT('',(12.,0.,0.));
#204 = VECTOR('',#205,1.);
#205 = DIRECTION('',(0.,1.,0.));
#206 = ORIENTED_EDGE('',*,*,#207,.F.);
#207 = EDGE_CURVE('',#208,#200,#210,.T.);
#208 = VERTEX_POINT('',#209);
#209 = CARTESIAN_POINT('',(11.9,43.146211251235,0.));
#210 = LINE('',#211,#212);
#211 = CARTESIAN_POINT('',(11.9,43.146211251235,0.));
#212 = VECTOR('',#213,1.);
#213 = DIRECTION('',(0.971520338783,-0.236956180191,0.));
#214 = ORIENTED_EDGE('',*,*,#215,.F.);
#215 = EDGE_CURVE('',#216,#208,#218,.T.);
#216 = VERTEX_POINT('',#217);
#217 = CARTESIAN_POINT('',(11.9,47.146211251235,0.));
#218 = LINE('',#219,#220);
#219 = CARTESIAN_POINT('',(11.9,47.146211251235,0.));
#220 = VECTOR('',#221,1.);
#221 = DIRECTION('',(0.,-1.,0.));
#222 = ORIENTED_EDGE('',*,*,#223,.F.);
#223 = EDGE_CURVE('',#224,#216,#226,.T.);
#224 = VERTEX_POINT('',#225);
#225 = CARTESIAN_POINT('',(12.,47.170601495138,0.));
#226 = LINE('',#227,#228);
#227 = CARTESIAN_POINT('',(16.,48.146211251235,0.));
#228 = VECTOR('',#229,1.);
#229 = DIRECTION('',(-0.971520338783,-0.236956180191,0.));
#230 = ORIENTED_EDGE('',*,*,#231,.T.);
#231 = EDGE_CURVE('',#224,#232,#234,.T.);
#232 = VERTEX_POINT('',#233);
#233 = CARTESIAN_POINT('',(12.,47.296211251235,0.));
#234 = LINE('',#235,#236);
#235 = CARTESIAN_POINT('',(12.,0.,0.));
#236 = VECTOR('',#237,1.);
#237 = DIRECTION('',(0.,1.,0.));
#238 = ORIENTED_EDGE('',*,*,#239,.T.);
#239 = EDGE_CURVE('',#232,#165,#240,.T.);
#240 = LINE('',#241,#242);
#241 = CARTESIAN_POINT('',(12.,0.,0.));
#242 = VECTOR('',#243,1.);
#243 = DIRECTION('',(0.,1.,0.));
#244 = PLANE('',#245);
#245 = AXIS2_PLACEMENT_3D('',#246,#247,#248);
#246 = CARTESIAN_POINT('',(0.,0.,0.));
#247 = DIRECTION('',(0.,0.,1.));
#248 = DIRECTION('',(1.,0.,0.));
#249 = ADVANCED_FACE('',(#250),#275,.F.);
#250 = FACE_BOUND('',#251,.F.);
#251 = EDGE_LOOP('',(#252,#260,#261,#269));
#252 = ORIENTED_EDGE('',*,*,#253,.F.);
#253 = EDGE_CURVE('',#62,#254,#256,.T.);
#254 = VERTEX_POINT('',#255);
#255 = CARTESIAN_POINT('',(43.,0.,0.));
#256 = LINE('',#257,#258);
#257 = CARTESIAN_POINT('',(12.,0.,0.));
#258 = VECTOR('',#259,1.);
#259 = DIRECTION('',(1.,0.,0.));
#260 = ORIENTED_EDGE('',*,*,#78,.T.);
#261 = ORIENTED_EDGE('',*,*,#262,.T.);
#262 = EDGE_CURVE('',#71,#263,#265,.T.);
#263 = VERTEX_POINT('',#264);
#264 = CARTESIAN_POINT('',(43.,0.,15.));
#265 = LINE('',#266,#267);
#266 = CARTESIAN_POINT('',(12.,0.,15.));
#267 = VECTOR('',#268,1.);
#268 = DIRECTION('',(1.,0.,0.));
#269 = ORIENTED_EDGE('',*,*,#270,.F.);
#270 = EDGE_CURVE('',#254,#263,#271,.T.);
#271 = LINE('',#272,#273);
#272 = CARTESIAN_POINT('',(43.,0.,0.));
#273 = VECTOR('',#274,1.);
#274 = DIRECTION('',(0.,0.,1.));
#275 = PLANE('',#276);
#276 = AXIS2_PLACEMENT_3D('',#277,#278,#279);
#277 = CARTESIAN_POINT('',(12.,0.,0.));
#278 = DIRECTION('',(0.,1.,0.));
#279 = DIRECTION('',(0.,0.,1.));
#280 = ADVANCED_FACE('',(#281),#297,.T.);
#281 = FACE_BOUND('',#282,.T.);
#282 = EDGE_LOOP('',(#283,#284,#290,#291));
#283 = ORIENTED_EDGE('',*,*,#142,.F.);
#284 = ORIENTED_EDGE('',*,*,#285,.T.);
#285 = EDGE_CURVE('',#135,#224,#286,.T.);
#286 = LINE('',#287,#288);
#287 = CARTESIAN_POINT('',(12.,47.170601495138,0.));
#288 = VECTOR('',#289,1.);
#289 = DIRECTION('',(0.,0.,-1.));
#290 = ORIENTED_EDGE('',*,*,#231,.T.);
#291 = ORIENTED_EDGE('',*,*,#292,.T.);
#292 = EDGE_CURVE('',#232,#143,#293,.T.);
#293 = LINE('',#294,#295);
#294 = CARTESIAN_POINT('',(12.,47.296211251235,-1.));
#295 = VECTOR('',#296,1.);
#296 = DIRECTION('',(0.,0.,1.));
#297 = PLANE('',#298);
#298 = AXIS2_PLACEMENT_3D('',#299,#300,#301);
#299 = CARTESIAN_POINT('',(12.,0.,0.));
#300 = DIRECTION('',(1.,0.,0.));
#301 = DIRECTION('',(0.,0.,1.));
#302 = ADVANCED_FACE('',(#303,#392,#426),#496,.T.);
#303 = FACE_BOUND('',#304,.T.);
#304 = EDGE_LOOP('',(#305,#315,#321,#322,#330,#338,#346,#354,#360,#361,
    #362,#370,#378,#386));
#305 = ORIENTED_EDGE('',*,*,#306,.T.);
#306 = EDGE_CURVE('',#307,#309,#311,.T.);
#307 = VERTEX_POINT('',#308);
#308 = CARTESIAN_POINT('',(43.,47.170601495138,15.));
#309 = VERTEX_POINT('',#310);
#310 = CARTESIAN_POINT('',(43.,51.,15.));
#311 = LINE('',#312,#313);
#312 = CARTESIAN_POINT('',(43.,0.,15.));
#313 = VECTOR('',#314,1.);
#314 = DIRECTION('',(0.,1.,0.));
#315 = ORIENTED_EDGE('',*,*,#316,.F.);
#316 = EDGE_CURVE('',#93,#309,#317,.T.);
#317 = LINE('',#318,#319);
#318 = CARTESIAN_POINT('',(12.,51.,15.));
#319 = VECTOR('',#320,1.);
#320 = DIRECTION('',(1.,0.,0.));
#321 = ORIENTED_EDGE('',*,*,#150,.F.);
#322 = ORIENTED_EDGE('',*,*,#323,.T.);
#323 = EDGE_CURVE('',#143,#324,#326,.T.);
#324 = VERTEX_POINT('',#325);
#325 = CARTESIAN_POINT('',(16.,48.296211251235,15.));
#326 = LINE('',#327,#328);
#327 = CARTESIAN_POINT('',(8.435739852796,46.405146214434,15.));
#328 = VECTOR('',#329,1.);
#329 = DIRECTION('',(0.970142500145,0.242535625036,0.));
#330 = ORIENTED_EDGE('',*,*,#331,.T.);
#331 = EDGE_CURVE('',#324,#332,#334,.T.);
#332 = VERTEX_POINT('',#333);
#333 = CARTESIAN_POINT('',(16.,48.146211251235,15.));
#334 = LINE('',#335,#336);
#335 = CARTESIAN_POINT('',(16.,20.998105625618,15.));
#336 = VECTOR('',#337,1.);
#337 = DIRECTION('',(0.,-1.,0.));
#338 = ORIENTED_EDGE('',*,*,#339,.F.);
#339 = EDGE_CURVE('',#340,#332,#342,.T.);
#340 = VERTEX_POINT('',#341);
#341 = CARTESIAN_POINT('',(16.,42.146211251235,15.));
#342 = LINE('',#343,#344);
#343 = CARTESIAN_POINT('',(16.,42.146211251235,15.));
#344 = VECTOR('',#345,1.);
#345 = DIRECTION('',(0.,1.,0.));
#346 = ORIENTED_EDGE('',*,*,#347,.T.);
#347 = EDGE_CURVE('',#340,#348,#350,.T.);
#348 = VERTEX_POINT('',#349);
#349 = CARTESIAN_POINT('',(16.,41.996211251235,15.));
#350 = LINE('',#351,#352);
#351 = CARTESIAN_POINT('',(16.,20.998105625618,15.));
#352 = VECTOR('',#353,1.);
#353 = DIRECTION('',(0.,-1.,0.));
#354 = ORIENTED_EDGE('',*,*,#355,.T.);
#355 = EDGE_CURVE('',#348,#103,#356,.T.);
#356 = LINE('',#357,#358);
#357 = CARTESIAN_POINT('',(17.058377794263,41.73161680267,15.));
#358 = VECTOR('',#359,1.);
#359 = DIRECTION('',(-0.970142500145,0.242535625036,0.));
#360 = ORIENTED_EDGE('',*,*,#102,.F.);
#361 = ORIENTED_EDGE('',*,*,#262,.T.);
#362 = ORIENTED_EDGE('',*,*,#363,.T.);
#363 = EDGE_CURVE('',#263,#364,#366,.T.);
#364 = VERTEX_POINT('',#365);
#365 = CARTESIAN_POINT('',(43.,43.121821007333,15.));
#366 = LINE('',#367,#368);
#367 = CARTESIAN_POINT('',(43.,0.,15.));
#368 = VECTOR('',#369,1.);
#369 = DIRECTION('',(0.,1.,0.));
#370 = ORIENTED_EDGE('',*,*,#371,.F.);
#371 = EDGE_CURVE('',#372,#364,#374,.T.);
#372 = VERTEX_POINT('',#373);
#373 = CARTESIAN_POINT('',(42.9,43.146211251235,15.));
#374 = LINE('',#375,#376);
#375 = CARTESIAN_POINT('',(42.9,43.146211251235,15.));
#376 = VECTOR('',#377,1.);
#377 = DIRECTION('',(0.971520338783,-0.236956180191,0.));
#378 = ORIENTED_EDGE('',*,*,#379,.F.);
#379 = EDGE_CURVE('',#380,#372,#382,.T.);
#380 = VERTEX_POINT('',#381);
#381 = CARTESIAN_POINT('',(42.9,47.146211251235,15.));
#382 = LINE('',#383,#384);
#383 = CARTESIAN_POINT('',(42.9,47.146211251235,15.));
#384 = VECTOR('',#385,1.);
#385 = DIRECTION('',(0.,-1.,0.));
#386 = ORIENTED_EDGE('',*,*,#387,.F.);
#387 = EDGE_CURVE('',#307,#380,#388,.T.);
#388 = LINE('',#389,#390);
#389 = CARTESIAN_POINT('',(47.,48.146211251235,15.));
#390 = VECTOR('',#391,1.);
#391 = DIRECTION('',(-0.971520338783,-0.236956180191,0.));
#392 = FACE_BOUND('',#393,.T.);
#393 = EDGE_LOOP('',(#394,#404,#412,#420));
#394 = ORIENTED_EDGE('',*,*,#395,.T.);
#395 = EDGE_CURVE('',#396,#398,#400,.T.);
#396 = VERTEX_POINT('',#397);
#397 = CARTESIAN_POINT('',(39.625,2.25,15.));
#398 = VERTEX_POINT('',#399);
#399 = CARTESIAN_POINT('',(15.375,2.25,15.));
#400 = LINE('',#401,#402);
#401 = CARTESIAN_POINT('',(13.6875,2.25,15.));
#402 = VECTOR('',#403,1.);
#403 = DIRECTION('',(-1.,0.,0.));
#404 = ORIENTED_EDGE('',*,*,#405,.T.);
#405 = EDGE_CURVE('',#398,#406,#408,.T.);
#406 = VERTEX_POINT('',#407);
#407 = CARTESIAN_POINT('',(15.375,10.5,15.));
#408 = LINE('',#409,#410);
#409 = CARTESIAN_POINT('',(15.375,1.125,15.));
#410 = VECTOR('',#411,1.);
#411 = DIRECTION('',(0.,1.,0.));
#412 = ORIENTED_EDGE('',*,*,#413,.F.);
#413 = EDGE_CURVE('',#414,#406,#416,.T.);
#414 = VERTEX_POINT('',#415);
#415 = CARTESIAN_POINT('',(39.625,10.5,15.));
#416 = LINE('',#417,#418);
#417 = CARTESIAN_POINT('',(13.6875,10.5,15.));
#418 = VECTOR('',#419,1.);
#419 = DIRECTION('',(-1.,0.,0.));
#420 = ORIENTED_EDGE('',*,*,#421,.F.);
#421 = EDGE_CURVE('',#396,#414,#422,.T.);
#422 = LINE('',#423,#424);
#423 = CARTESIAN_POINT('',(39.625,1.125,15.));
#424 = VECTOR('',#425,1.);
#425 = DIRECTION('',(0.,1.,0.));
#426 = FACE_BOUND('',#427,.T.);
#427 = EDGE_LOOP('',(#428,#439,#447,#456,#464,#473,#481,#490));
#428 = ORIENTED_EDGE('',*,*,#429,.F.);
#429 = EDGE_CURVE('',#430,#432,#434,.T.);
#430 = VERTEX_POINT('',#431);
#431 = CARTESIAN_POINT('',(24.185,34.665,15.));
#432 = VERTEX_POINT('',#433);
#433 = CARTESIAN_POINT('',(23.585,34.065,15.));
#434 = CIRCLE('',#435,0.6);
#435 = AXIS2_PLACEMENT_3D('',#436,#437,#438);
#436 = CARTESIAN_POINT('',(24.185,34.065,15.));
#437 = DIRECTION('',(0.,-0.,1.));
#438 = DIRECTION('',(0.,1.,0.));
#439 = ORIENTED_EDGE('',*,*,#440,.T.);
#440 = EDGE_CURVE('',#430,#441,#443,.T.);
#441 = VERTEX_POINT('',#442);
#442 = CARTESIAN_POINT('',(30.815,34.665,15.));
#443 = LINE('',#444,#445);
#444 = CARTESIAN_POINT('',(21.7075,34.665,15.));
#445 = VECTOR('',#446,1.);
#446 = DIRECTION('',(1.,0.,0.));
#447 = ORIENTED_EDGE('',*,*,#448,.F.);
#448 = EDGE_CURVE('',#449,#441,#451,.T.);
#449 = VERTEX_POINT('',#450);
#450 = CARTESIAN_POINT('',(31.415,34.065,15.));
#451 = CIRCLE('',#452,0.6);
#452 = AXIS2_PLACEMENT_3D('',#453,#454,#455);
#453 = CARTESIAN_POINT('',(30.815,34.065,15.));
#454 = DIRECTION('',(0.,-0.,1.));
#455 = DIRECTION('',(0.,1.,0.));
#456 = ORIENTED_EDGE('',*,*,#457,.T.);
#457 = EDGE_CURVE('',#449,#458,#460,.T.);
#458 = VERTEX_POINT('',#459);
#459 = CARTESIAN_POINT('',(31.415,27.435,15.));
#460 = LINE('',#461,#462);
#461 = CARTESIAN_POINT('',(31.415,13.4175,15.));
#462 = VECTOR('',#463,1.);
#463 = DIRECTION('',(0.,-1.,0.));
#464 = ORIENTED_EDGE('',*,*,#465,.F.);
#465 = EDGE_CURVE('',#466,#458,#468,.T.);
#466 = VERTEX_POINT('',#467);
#467 = CARTESIAN_POINT('',(30.815,26.835,15.));
#468 = CIRCLE('',#469,0.6);
#469 = AXIS2_PLACEMENT_3D('',#470,#471,#472);
#470 = CARTESIAN_POINT('',(30.815,27.435,15.));
#471 = DIRECTION('',(-0.,0.,1.));
#472 = DIRECTION('',(0.,-1.,0.));
#473 = ORIENTED_EDGE('',*,*,#474,.T.);
#474 = EDGE_CURVE('',#466,#475,#477,.T.);
#475 = VERTEX_POINT('',#476);
#476 = CARTESIAN_POINT('',(24.185,26.835,15.));
#477 = LINE('',#478,#479);
#478 = CARTESIAN_POINT('',(17.7925,26.835,15.));
#479 = VECTOR('',#480,1.);
#480 = DIRECTION('',(-1.,0.,0.));
#481 = ORIENTED_EDGE('',*,*,#482,.F.);
#482 = EDGE_CURVE('',#483,#475,#485,.T.);
#483 = VERTEX_POINT('',#484);
#484 = CARTESIAN_POINT('',(23.585,27.435,15.));
#485 = CIRCLE('',#486,0.6);
#486 = AXIS2_PLACEMENT_3D('',#487,#488,#489);
#487 = CARTESIAN_POINT('',(24.185,27.435,15.));
#488 = DIRECTION('',(0.,0.,1.));
#489 = DIRECTION('',(-1.,0.,0.));
#490 = ORIENTED_EDGE('',*,*,#491,.T.);
#491 = EDGE_CURVE('',#483,#432,#492,.T.);
#492 = LINE('',#493,#494);
#493 = CARTESIAN_POINT('',(23.585,17.3325,15.));
#494 = VECTOR('',#495,1.);
#495 = DIRECTION('',(0.,1.,0.));
#496 = PLANE('',#497);
#497 = AXIS2_PLACEMENT_3D('',#498,#499,#500);
#498 = CARTESIAN_POINT('',(12.,0.,15.));
#499 = DIRECTION('',(0.,0.,1.));
#500 = DIRECTION('',(1.,0.,0.));
#501 = ADVANCED_FACE('',(#502),#513,.T.);
#502 = FACE_BOUND('',#503,.T.);
#503 = EDGE_LOOP('',(#504,#510,#511,#512));
#504 = ORIENTED_EDGE('',*,*,#505,.T.);
#505 = EDGE_CURVE('',#111,#135,#506,.T.);
#506 = LINE('',#507,#508);
#507 = CARTESIAN_POINT('',(12.,0.,15.));
#508 = VECTOR('',#509,1.);
#509 = DIRECTION('',(0.,1.,0.));
#510 = ORIENTED_EDGE('',*,*,#134,.T.);
#511 = ORIENTED_EDGE('',*,*,#126,.T.);
#512 = ORIENTED_EDGE('',*,*,#118,.T.);
#513 = PLANE('',#514);
#514 = AXIS2_PLACEMENT_3D('',#515,#516,#517);
#515 = CARTESIAN_POINT('',(0.,0.,15.));
#516 = DIRECTION('',(0.,0.,1.));
#517 = DIRECTION('',(1.,0.,0.));
#518 = ADVANCED_FACE('',(#519),#535,.T.);
#519 = FACE_BOUND('',#520,.T.);
#520 = EDGE_LOOP('',(#521,#522,#528,#529));
#521 = ORIENTED_EDGE('',*,*,#110,.F.);
#522 = ORIENTED_EDGE('',*,*,#523,.F.);
#523 = EDGE_CURVE('',#192,#103,#524,.T.);
#524 = LINE('',#525,#526);
#525 = CARTESIAN_POINT('',(12.,42.996211251235,-1.));
#526 = VECTOR('',#527,1.);
#527 = DIRECTION('',(0.,0.,1.));
#528 = ORIENTED_EDGE('',*,*,#199,.T.);
#529 = ORIENTED_EDGE('',*,*,#530,.T.);
#530 = EDGE_CURVE('',#200,#111,#531,.T.);
#531 = LINE('',#532,#533);
#532 = CARTESIAN_POINT('',(12.,43.121821007333,0.));
#533 = VECTOR('',#534,1.);
#534 = DIRECTION('',(0.,0.,1.));
#535 = PLANE('',#536);
#536 = AXIS2_PLACEMENT_3D('',#537,#538,#539);
#537 = CARTESIAN_POINT('',(12.,0.,0.));
#538 = DIRECTION('',(1.,0.,0.));
#539 = DIRECTION('',(0.,0.,1.));
#540 = ADVANCED_FACE('',(#541),#559,.T.);
#541 = FACE_BOUND('',#542,.T.);
#542 = EDGE_LOOP('',(#543,#551,#552,#553));
#543 = ORIENTED_EDGE('',*,*,#544,.F.);
#544 = EDGE_CURVE('',#165,#545,#547,.T.);
#545 = VERTEX_POINT('',#546);
#546 = CARTESIAN_POINT('',(43.,51.,0.));
#547 = LINE('',#548,#549);
#548 = CARTESIAN_POINT('',(12.,51.,0.));
#549 = VECTOR('',#550,1.);
#550 = DIRECTION('',(1.,0.,0.));
#551 = ORIENTED_EDGE('',*,*,#174,.T.);
#552 = ORIENTED_EDGE('',*,*,#316,.T.);
#553 = ORIENTED_EDGE('',*,*,#554,.F.);
#554 = EDGE_CURVE('',#545,#309,#555,.T.);
#555 = LINE('',#556,#557);
#556 = CARTESIAN_POINT('',(43.,51.,0.));
#557 = VECTOR('',#558,1.);
#558 = DIRECTION('',(0.,0.,1.));
#559 = PLANE('',#560);
#560 = AXIS2_PLACEMENT_3D('',#561,#562,#563);
#561 = CARTESIAN_POINT('',(12.,51.,0.));
#562 = DIRECTION('',(0.,1.,0.));
#563 = DIRECTION('',(0.,0.,1.));
#564 = ADVANCED_FACE('',(#565),#647,.F.);
#565 = FACE_BOUND('',#566,.F.);
#566 = EDGE_LOOP('',(#567,#575,#576,#577,#585,#593,#601,#609,#615,#616,
    #617,#625,#633,#641));
#567 = ORIENTED_EDGE('',*,*,#568,.T.);
#568 = EDGE_CURVE('',#569,#545,#571,.T.);
#569 = VERTEX_POINT('',#570);
#570 = CARTESIAN_POINT('',(43.,47.170601495138,0.));
#571 = LINE('',#572,#573);
#572 = CARTESIAN_POINT('',(43.,0.,0.));
#573 = VECTOR('',#574,1.);
#574 = DIRECTION('',(0.,1.,0.));
#575 = ORIENTED_EDGE('',*,*,#544,.F.);
#576 = ORIENTED_EDGE('',*,*,#239,.F.);
#577 = ORIENTED_EDGE('',*,*,#578,.T.);
#578 = EDGE_CURVE('',#232,#579,#581,.T.);
#579 = VERTEX_POINT('',#580);
#580 = CARTESIAN_POINT('',(16.,48.296211251235,0.));
#581 = LINE('',#582,#583);
#582 = CARTESIAN_POINT('',(8.435739852796,46.405146214434,0.));
#583 = VECTOR('',#584,1.);
#584 = DIRECTION('',(0.970142500145,0.242535625036,0.));
#585 = ORIENTED_EDGE('',*,*,#586,.T.);
#586 = EDGE_CURVE('',#579,#587,#589,.T.);
#587 = VERTEX_POINT('',#588);
#588 = CARTESIAN_POINT('',(16.,48.146211251235,0.));
#589 = LINE('',#590,#591);
#590 = CARTESIAN_POINT('',(16.,20.998105625618,0.));
#591 = VECTOR('',#592,1.);
#592 = DIRECTION('',(0.,-1.,0.));
#593 = ORIENTED_EDGE('',*,*,#594,.F.);
#594 = EDGE_CURVE('',#595,#587,#597,.T.);
#595 = VERTEX_POINT('',#596);
#596 = CARTESIAN_POINT('',(16.,42.146211251235,0.));
#597 = LINE('',#598,#599);
#598 = CARTESIAN_POINT('',(16.,42.146211251235,0.));
#599 = VECTOR('',#600,1.);
#600 = DIRECTION('',(0.,1.,0.));
#601 = ORIENTED_EDGE('',*,*,#602,.T.);
#602 = EDGE_CURVE('',#595,#603,#605,.T.);
#603 = VERTEX_POINT('',#604);
#604 = CARTESIAN_POINT('',(16.,41.996211251235,0.));
#605 = LINE('',#606,#607);
#606 = CARTESIAN_POINT('',(16.,20.998105625618,0.));
#607 = VECTOR('',#608,1.);
#608 = DIRECTION('',(0.,-1.,0.));
#609 = ORIENTED_EDGE('',*,*,#610,.T.);
#610 = EDGE_CURVE('',#603,#192,#611,.T.);
#611 = LINE('',#612,#613);
#612 = CARTESIAN_POINT('',(17.058377794263,41.73161680267,0.));
#613 = VECTOR('',#614,1.);
#614 = DIRECTION('',(-0.970142500145,0.242535625036,0.));
#615 = ORIENTED_EDGE('',*,*,#191,.F.);
#616 = ORIENTED_EDGE('',*,*,#253,.T.);
#617 = ORIENTED_EDGE('',*,*,#618,.T.);
#618 = EDGE_CURVE('',#254,#619,#621,.T.);
#619 = VERTEX_POINT('',#620);
#620 = CARTESIAN_POINT('',(43.,43.121821007333,0.));
#621 = LINE('',#622,#623);
#622 = CARTESIAN_POINT('',(43.,0.,0.));
#623 = VECTOR('',#624,1.);
#624 = DIRECTION('',(0.,1.,0.));
#625 = ORIENTED_EDGE('',*,*,#626,.F.);
#626 = EDGE_CURVE('',#627,#619,#629,.T.);
#627 = VERTEX_POINT('',#628);
#628 = CARTESIAN_POINT('',(42.9,43.146211251235,0.));
#629 = LINE('',#630,#631);
#630 = CARTESIAN_POINT('',(42.9,43.146211251235,0.));
#631 = VECTOR('',#632,1.);
#632 = DIRECTION('',(0.971520338783,-0.236956180191,0.));
#633 = ORIENTED_EDGE('',*,*,#634,.F.);
#634 = EDGE_CURVE('',#635,#627,#637,.T.);
#635 = VERTEX_POINT('',#636);
#636 = CARTESIAN_POINT('',(42.9,47.146211251235,0.));
#637 = LINE('',#638,#639);
#638 = CARTESIAN_POINT('',(42.9,47.146211251235,0.));
#639 = VECTOR('',#640,1.);
#640 = DIRECTION('',(0.,-1.,0.));
#641 = ORIENTED_EDGE('',*,*,#642,.F.);
#642 = EDGE_CURVE('',#569,#635,#643,.T.);
#643 = LINE('',#644,#645);
#644 = CARTESIAN_POINT('',(47.,48.146211251235,0.));
#645 = VECTOR('',#646,1.);
#646 = DIRECTION('',(-0.971520338783,-0.236956180191,0.));
#647 = PLANE('',#648);
#648 = AXIS2_PLACEMENT_3D('',#649,#650,#651);
#649 = CARTESIAN_POINT('',(12.,0.,0.));
#650 = DIRECTION('',(0.,0.,1.));
#651 = DIRECTION('',(1.,0.,0.));
#652 = ADVANCED_FACE('',(#653),#664,.F.);
#653 = FACE_BOUND('',#654,.F.);
#654 = EDGE_LOOP('',(#655,#661,#662,#663));
#655 = ORIENTED_EDGE('',*,*,#656,.T.);
#656 = EDGE_CURVE('',#200,#224,#657,.T.);
#657 = LINE('',#658,#659);
#658 = CARTESIAN_POINT('',(12.,0.,0.));
#659 = VECTOR('',#660,1.);
#660 = DIRECTION('',(0.,1.,0.));
#661 = ORIENTED_EDGE('',*,*,#223,.T.);
#662 = ORIENTED_EDGE('',*,*,#215,.T.);
#663 = ORIENTED_EDGE('',*,*,#207,.T.);
#664 = PLANE('',#665);
#665 = AXIS2_PLACEMENT_3D('',#666,#667,#668);
#666 = CARTESIAN_POINT('',(0.,0.,0.));
#667 = DIRECTION('',(0.,0.,1.));
#668 = DIRECTION('',(1.,0.,0.));
#669 = ADVANCED_FACE('',(#670),#681,.T.);
#670 = FACE_BOUND('',#671,.T.);
#671 = EDGE_LOOP('',(#672,#673,#674,#675));
#672 = ORIENTED_EDGE('',*,*,#363,.F.);
#673 = ORIENTED_EDGE('',*,*,#270,.F.);
#674 = ORIENTED_EDGE('',*,*,#618,.T.);
#675 = ORIENTED_EDGE('',*,*,#676,.T.);
#676 = EDGE_CURVE('',#619,#364,#677,.T.);
#677 = LINE('',#678,#679);
#678 = CARTESIAN_POINT('',(43.,43.121821007333,0.));
#679 = VECTOR('',#680,1.);
#680 = DIRECTION('',(0.,0.,1.));
#681 = PLANE('',#682);
#682 = AXIS2_PLACEMENT_3D('',#683,#684,#685);
#683 = CARTESIAN_POINT('',(43.,0.,0.));
#684 = DIRECTION('',(1.,0.,0.));
#685 = DIRECTION('',(0.,0.,1.));
#686 = ADVANCED_FACE('',(#687),#698,.T.);
#687 = FACE_BOUND('',#688,.T.);
#688 = EDGE_LOOP('',(#689,#690,#696,#697));
#689 = ORIENTED_EDGE('',*,*,#578,.T.);
#690 = ORIENTED_EDGE('',*,*,#691,.T.);
#691 = EDGE_CURVE('',#579,#324,#692,.T.);
#692 = LINE('',#693,#694);
#693 = CARTESIAN_POINT('',(16.,48.296211251235,-1.));
#694 = VECTOR('',#695,1.);
#695 = DIRECTION('',(0.,0.,1.));
#696 = ORIENTED_EDGE('',*,*,#323,.F.);
#697 = ORIENTED_EDGE('',*,*,#292,.F.);
#698 = PLANE('',#699);
#699 = AXIS2_PLACEMENT_3D('',#700,#701,#702);
#700 = CARTESIAN_POINT('',(16.,48.296211251235,-1.));
#701 = DIRECTION('',(0.242535625036,-0.970142500145,0.));
#702 = DIRECTION('',(-0.970142500145,-0.242535625036,0.));
#703 = ADVANCED_FACE('',(#704),#725,.F.);
#704 = FACE_BOUND('',#705,.F.);
#705 = EDGE_LOOP('',(#706,#712,#718,#724));
#706 = ORIENTED_EDGE('',*,*,#707,.F.);
#707 = EDGE_CURVE('',#587,#224,#708,.T.);
#708 = LINE('',#709,#710);
#709 = CARTESIAN_POINT('',(16.,48.146211251235,0.));
#710 = VECTOR('',#711,1.);
#711 = DIRECTION('',(-0.971520338783,-0.236956180191,0.));
#712 = ORIENTED_EDGE('',*,*,#713,.T.);
#713 = EDGE_CURVE('',#587,#332,#714,.T.);
#714 = LINE('',#715,#716);
#715 = CARTESIAN_POINT('',(16.,48.146211251235,0.));
#716 = VECTOR('',#717,1.);
#717 = DIRECTION('',(0.,0.,1.));
#718 = ORIENTED_EDGE('',*,*,#719,.T.);
#719 = EDGE_CURVE('',#332,#135,#720,.T.);
#720 = LINE('',#721,#722);
#721 = CARTESIAN_POINT('',(16.,48.146211251235,15.));
#722 = VECTOR('',#723,1.);
#723 = DIRECTION('',(-0.971520338783,-0.236956180191,0.));
#724 = ORIENTED_EDGE('',*,*,#285,.T.);
#725 = PLANE('',#726);
#726 = AXIS2_PLACEMENT_3D('',#727,#728,#729);
#727 = CARTESIAN_POINT('',(16.,48.146211251235,0.));
#728 = DIRECTION('',(0.236956180191,-0.971520338783,0.));
#729 = DIRECTION('',(-0.971520338783,-0.236956180191,0.));
#730 = ADVANCED_FACE('',(#731),#742,.T.);
#731 = FACE_BOUND('',#732,.T.);
#732 = EDGE_LOOP('',(#733,#734,#740,#741));
#733 = ORIENTED_EDGE('',*,*,#306,.F.);
#734 = ORIENTED_EDGE('',*,*,#735,.T.);
#735 = EDGE_CURVE('',#307,#569,#736,.T.);
#736 = LINE('',#737,#738);
#737 = CARTESIAN_POINT('',(43.,47.170601495138,0.));
#738 = VECTOR('',#739,1.);
#739 = DIRECTION('',(0.,0.,-1.));
#740 = ORIENTED_EDGE('',*,*,#568,.T.);
#741 = ORIENTED_EDGE('',*,*,#554,.T.);
#742 = PLANE('',#743);
#743 = AXIS2_PLACEMENT_3D('',#744,#745,#746);
#744 = CARTESIAN_POINT('',(43.,0.,0.));
#745 = DIRECTION('',(1.,0.,0.));
#746 = DIRECTION('',(0.,0.,1.));
#747 = ADVANCED_FACE('',(#748),#759,.T.);
#748 = FACE_BOUND('',#749,.T.);
#749 = EDGE_LOOP('',(#750,#756,#757,#758));
#750 = ORIENTED_EDGE('',*,*,#751,.T.);
#751 = EDGE_CURVE('',#364,#307,#752,.T.);
#752 = LINE('',#753,#754);
#753 = CARTESIAN_POINT('',(43.,0.,15.));
#754 = VECTOR('',#755,1.);
#755 = DIRECTION('',(0.,1.,0.));
#756 = ORIENTED_EDGE('',*,*,#387,.T.);
#757 = ORIENTED_EDGE('',*,*,#379,.T.);
#758 = ORIENTED_EDGE('',*,*,#371,.T.);
#759 = PLANE('',#760);
#760 = AXIS2_PLACEMENT_3D('',#761,#762,#763);
#761 = CARTESIAN_POINT('',(12.,0.,15.));
#762 = DIRECTION('',(0.,0.,1.));
#763 = DIRECTION('',(1.,0.,0.));
#764 = ADVANCED_FACE('',(#765),#771,.T.);
#765 = FACE_BOUND('',#766,.T.);
#766 = EDGE_LOOP('',(#767,#768,#769,#770));
#767 = ORIENTED_EDGE('',*,*,#691,.F.);
#768 = ORIENTED_EDGE('',*,*,#586,.T.);
#769 = ORIENTED_EDGE('',*,*,#713,.T.);
#770 = ORIENTED_EDGE('',*,*,#331,.F.);
#771 = PLANE('',#772);
#772 = AXIS2_PLACEMENT_3D('',#773,#774,#775);
#773 = CARTESIAN_POINT('',(16.,41.996211251235,-1.));
#774 = DIRECTION('',(-1.,0.,0.));
#775 = DIRECTION('',(0.,1.,0.));
#776 = ADVANCED_FACE('',(#777),#788,.T.);
#777 = FACE_BOUND('',#778,.T.);
#778 = EDGE_LOOP('',(#779,#780,#786,#787));
#779 = ORIENTED_EDGE('',*,*,#505,.F.);
#780 = ORIENTED_EDGE('',*,*,#781,.T.);
#781 = EDGE_CURVE('',#111,#340,#782,.T.);
#782 = LINE('',#783,#784);
#783 = CARTESIAN_POINT('',(11.9,43.146211251235,15.));
#784 = VECTOR('',#785,1.);
#785 = DIRECTION('',(0.971520338783,-0.236956180191,0.));
#786 = ORIENTED_EDGE('',*,*,#339,.T.);
#787 = ORIENTED_EDGE('',*,*,#719,.T.);
#788 = PLANE('',#789);
#789 = AXIS2_PLACEMENT_3D('',#790,#791,#792);
#790 = CARTESIAN_POINT('',(14.172338161771,45.146211251235,15.));
#791 = DIRECTION('',(0.,0.,1.));
#792 = DIRECTION('',(1.,0.,0.));
#793 = ADVANCED_FACE('',(#794),#810,.T.);
#794 = FACE_BOUND('',#795,.T.);
#795 = EDGE_LOOP('',(#796,#802,#803,#809));
#796 = ORIENTED_EDGE('',*,*,#797,.F.);
#797 = EDGE_CURVE('',#595,#340,#798,.T.);
#798 = LINE('',#799,#800);
#799 = CARTESIAN_POINT('',(16.,42.146211251235,0.));
#800 = VECTOR('',#801,1.);
#801 = DIRECTION('',(0.,0.,1.));
#802 = ORIENTED_EDGE('',*,*,#602,.T.);
#803 = ORIENTED_EDGE('',*,*,#804,.T.);
#804 = EDGE_CURVE('',#603,#348,#805,.T.);
#805 = LINE('',#806,#807);
#806 = CARTESIAN_POINT('',(16.,41.996211251235,-1.));
#807 = VECTOR('',#808,1.);
#808 = DIRECTION('',(0.,0.,1.));
#809 = ORIENTED_EDGE('',*,*,#347,.F.);
#810 = PLANE('',#811);
#811 = AXIS2_PLACEMENT_3D('',#812,#813,#814);
#812 = CARTESIAN_POINT('',(16.,41.996211251235,-1.));
#813 = DIRECTION('',(-1.,0.,0.));
#814 = DIRECTION('',(0.,1.,0.));
#815 = ADVANCED_FACE('',(#816),#822,.T.);
#816 = FACE_BOUND('',#817,.T.);
#817 = EDGE_LOOP('',(#818,#819,#820,#821));
#818 = ORIENTED_EDGE('',*,*,#610,.T.);
#819 = ORIENTED_EDGE('',*,*,#523,.T.);
#820 = ORIENTED_EDGE('',*,*,#355,.F.);
#821 = ORIENTED_EDGE('',*,*,#804,.F.);
#822 = PLANE('',#823);
#823 = AXIS2_PLACEMENT_3D('',#824,#825,#826);
#824 = CARTESIAN_POINT('',(12.,42.996211251235,-1.));
#825 = DIRECTION('',(0.242535625036,0.970142500145,0.));
#826 = DIRECTION('',(0.970142500145,-0.242535625036,0.));
#827 = ADVANCED_FACE('',(#828),#853,.T.);
#828 = FACE_BOUND('',#829,.T.);
#829 = EDGE_LOOP('',(#830,#838,#846,#852));
#830 = ORIENTED_EDGE('',*,*,#831,.F.);
#831 = EDGE_CURVE('',#832,#396,#834,.T.);
#832 = VERTEX_POINT('',#833);
#833 = CARTESIAN_POINT('',(39.625,2.25,11.));
#834 = LINE('',#835,#836);
#835 = CARTESIAN_POINT('',(39.625,2.25,11.));
#836 = VECTOR('',#837,1.);
#837 = DIRECTION('',(0.,0.,1.));
#838 = ORIENTED_EDGE('',*,*,#839,.F.);
#839 = EDGE_CURVE('',#840,#832,#842,.T.);
#840 = VERTEX_POINT('',#841);
#841 = CARTESIAN_POINT('',(15.375,2.25,11.));
#842 = LINE('',#843,#844);
#843 = CARTESIAN_POINT('',(15.375,2.25,11.));
#844 = VECTOR('',#845,1.);
#845 = DIRECTION('',(1.,0.,0.));
#846 = ORIENTED_EDGE('',*,*,#847,.T.);
#847 = EDGE_CURVE('',#840,#398,#848,.T.);
#848 = LINE('',#849,#850);
#849 = CARTESIAN_POINT('',(15.375,2.25,11.));
#850 = VECTOR('',#851,1.);
#851 = DIRECTION('',(0.,0.,1.));
#852 = ORIENTED_EDGE('',*,*,#395,.F.);
#853 = PLANE('',#854);
#854 = AXIS2_PLACEMENT_3D('',#855,#856,#857);
#855 = CARTESIAN_POINT('',(15.375,2.25,11.));
#856 = DIRECTION('',(0.,1.,0.));
#857 = DIRECTION('',(0.,0.,1.));
#858 = ADVANCED_FACE('',(#859),#877,.F.);
#859 = FACE_BOUND('',#860,.F.);
#860 = EDGE_LOOP('',(#861,#862,#870,#876));
#861 = ORIENTED_EDGE('',*,*,#831,.F.);
#862 = ORIENTED_EDGE('',*,*,#863,.T.);
#863 = EDGE_CURVE('',#832,#864,#866,.T.);
#864 = VERTEX_POINT('',#865);
#865 = CARTESIAN_POINT('',(39.625,10.5,11.));
#866 = LINE('',#867,#868);
#867 = CARTESIAN_POINT('',(39.625,2.25,11.));
#868 = VECTOR('',#869,1.);
#869 = DIRECTION('',(0.,1.,0.));
#870 = ORIENTED_EDGE('',*,*,#871,.T.);
#871 = EDGE_CURVE('',#864,#414,#872,.T.);
#872 = LINE('',#873,#874);
#873 = CARTESIAN_POINT('',(39.625,10.5,11.));
#874 = VECTOR('',#875,1.);
#875 = DIRECTION('',(0.,0.,1.));
#876 = ORIENTED_EDGE('',*,*,#421,.F.);
#877 = PLANE('',#878);
#878 = AXIS2_PLACEMENT_3D('',#879,#880,#881);
#879 = CARTESIAN_POINT('',(39.625,2.25,11.));
#880 = DIRECTION('',(1.,0.,0.));
#881 = DIRECTION('',(0.,0.,1.));
#882 = ADVANCED_FACE('',(#883),#901,.F.);
#883 = FACE_BOUND('',#884,.F.);
#884 = EDGE_LOOP('',(#885,#886,#894,#900));
#885 = ORIENTED_EDGE('',*,*,#871,.F.);
#886 = ORIENTED_EDGE('',*,*,#887,.F.);
#887 = EDGE_CURVE('',#888,#864,#890,.T.);
#888 = VERTEX_POINT('',#889);
#889 = CARTESIAN_POINT('',(15.375,10.5,11.));
#890 = LINE('',#891,#892);
#891 = CARTESIAN_POINT('',(15.375,10.5,11.));
#892 = VECTOR('',#893,1.);
#893 = DIRECTION('',(1.,0.,0.));
#894 = ORIENTED_EDGE('',*,*,#895,.T.);
#895 = EDGE_CURVE('',#888,#406,#896,.T.);
#896 = LINE('',#897,#898);
#897 = CARTESIAN_POINT('',(15.375,10.5,11.));
#898 = VECTOR('',#899,1.);
#899 = DIRECTION('',(0.,0.,1.));
#900 = ORIENTED_EDGE('',*,*,#413,.F.);
#901 = PLANE('',#902);
#902 = AXIS2_PLACEMENT_3D('',#903,#904,#905);
#903 = CARTESIAN_POINT('',(15.375,10.5,11.));
#904 = DIRECTION('',(0.,1.,0.));
#905 = DIRECTION('',(0.,0.,1.));
#906 = ADVANCED_FACE('',(#907),#918,.T.);
#907 = FACE_BOUND('',#908,.T.);
#908 = EDGE_LOOP('',(#909,#910,#916,#917));
#909 = ORIENTED_EDGE('',*,*,#847,.F.);
#910 = ORIENTED_EDGE('',*,*,#911,.T.);
#911 = EDGE_CURVE('',#840,#888,#912,.T.);
#912 = LINE('',#913,#914);
#913 = CARTESIAN_POINT('',(15.375,2.25,11.));
#914 = VECTOR('',#915,1.);
#915 = DIRECTION('',(0.,1.,0.));
#916 = ORIENTED_EDGE('',*,*,#895,.T.);
#917 = ORIENTED_EDGE('',*,*,#405,.F.);
#918 = PLANE('',#919);
#919 = AXIS2_PLACEMENT_3D('',#920,#921,#922);
#920 = CARTESIAN_POINT('',(15.375,2.25,11.));
#921 = DIRECTION('',(1.,0.,0.));
#922 = DIRECTION('',(0.,0.,1.));
#923 = ADVANCED_FACE('',(#924),#950,.T.);
#924 = FACE_BOUND('',#925,.T.);
#925 = EDGE_LOOP('',(#926,#934,#935,#943));
#926 = ORIENTED_EDGE('',*,*,#927,.F.);
#927 = EDGE_CURVE('',#430,#928,#930,.T.);
#928 = VERTEX_POINT('',#929);
#929 = CARTESIAN_POINT('',(24.185,34.665,25.5));
#930 = LINE('',#931,#932);
#931 = CARTESIAN_POINT('',(24.185,34.665,14.9));
#932 = VECTOR('',#933,1.);
#933 = DIRECTION('',(0.,0.,1.));
#934 = ORIENTED_EDGE('',*,*,#429,.T.);
#935 = ORIENTED_EDGE('',*,*,#936,.T.);
#936 = EDGE_CURVE('',#432,#937,#939,.T.);
#937 = VERTEX_POINT('',#938);
#938 = CARTESIAN_POINT('',(23.585,34.065,25.5));
#939 = LINE('',#940,#941);
#940 = CARTESIAN_POINT('',(23.585,34.065,14.9));
#941 = VECTOR('',#942,1.);
#942 = DIRECTION('',(0.,0.,1.));
#943 = ORIENTED_EDGE('',*,*,#944,.F.);
#944 = EDGE_CURVE('',#928,#937,#945,.T.);
#945 = CIRCLE('',#946,0.6);
#946 = AXIS2_PLACEMENT_3D('',#947,#948,#949);
#947 = CARTESIAN_POINT('',(24.185,34.065,25.5));
#948 = DIRECTION('',(0.,-0.,1.));
#949 = DIRECTION('',(0.,1.,0.));
#950 = CYLINDRICAL_SURFACE('',#951,0.6);
#951 = AXIS2_PLACEMENT_3D('',#952,#953,#954);
#952 = CARTESIAN_POINT('',(24.185,34.065,14.9));
#953 = DIRECTION('',(0.,0.,1.));
#954 = DIRECTION('',(0.,1.,0.));
#955 = ADVANCED_FACE('',(#956),#974,.F.);
#956 = FACE_BOUND('',#957,.F.);
#957 = EDGE_LOOP('',(#958,#959,#967,#973));
#958 = ORIENTED_EDGE('',*,*,#440,.T.);
#959 = ORIENTED_EDGE('',*,*,#960,.T.);
#960 = EDGE_CURVE('',#441,#961,#963,.T.);
#961 = VERTEX_POINT('',#962);
#962 = CARTESIAN_POINT('',(30.815,34.665,25.5));
#963 = LINE('',#964,#965);
#964 = CARTESIAN_POINT('',(30.815,34.665,14.9));
#965 = VECTOR('',#966,1.);
#966 = DIRECTION('',(0.,0.,1.));
#967 = ORIENTED_EDGE('',*,*,#968,.T.);
#968 = EDGE_CURVE('',#961,#928,#969,.T.);
#969 = LINE('',#970,#971);
#970 = CARTESIAN_POINT('',(30.815,34.665,25.5));
#971 = VECTOR('',#972,1.);
#972 = DIRECTION('',(-1.,0.,0.));
#973 = ORIENTED_EDGE('',*,*,#927,.F.);
#974 = PLANE('',#975);
#975 = AXIS2_PLACEMENT_3D('',#976,#977,#978);
#976 = CARTESIAN_POINT('',(31.415,34.665,14.9));
#977 = DIRECTION('',(0.,-1.,0.));
#978 = DIRECTION('',(-1.,0.,0.));
#979 = ADVANCED_FACE('',(#980),#998,.F.);
#980 = FACE_BOUND('',#981,.F.);
#981 = EDGE_LOOP('',(#982,#983,#984,#992));
#982 = ORIENTED_EDGE('',*,*,#491,.T.);
#983 = ORIENTED_EDGE('',*,*,#936,.T.);
#984 = ORIENTED_EDGE('',*,*,#985,.T.);
#985 = EDGE_CURVE('',#937,#986,#988,.T.);
#986 = VERTEX_POINT('',#987);
#987 = CARTESIAN_POINT('',(23.585,27.435,25.5));
#988 = LINE('',#989,#990);
#989 = CARTESIAN_POINT('',(23.585,34.065,25.5));
#990 = VECTOR('',#991,1.);
#991 = DIRECTION('',(0.,-1.,0.));
#992 = ORIENTED_EDGE('',*,*,#993,.F.);
#993 = EDGE_CURVE('',#483,#986,#994,.T.);
#994 = LINE('',#995,#996);
#995 = CARTESIAN_POINT('',(23.585,27.435,14.9));
#996 = VECTOR('',#997,1.);
#997 = DIRECTION('',(0.,0.,1.));
#998 = PLANE('',#999);
#999 = AXIS2_PLACEMENT_3D('',#1000,#1001,#1002);
#1000 = CARTESIAN_POINT('',(23.585,34.665,14.9));
#1001 = DIRECTION('',(1.,0.,0.));
#1002 = DIRECTION('',(0.,-1.,0.));
#1003 = ADVANCED_FACE('',(#1004),#1023,.T.);
#1004 = FACE_BOUND('',#1005,.F.);
#1005 = EDGE_LOOP('',(#1006,#1007,#1008,#1016));
#1006 = ORIENTED_EDGE('',*,*,#960,.F.);
#1007 = ORIENTED_EDGE('',*,*,#448,.F.);
#1008 = ORIENTED_EDGE('',*,*,#1009,.T.);
#1009 = EDGE_CURVE('',#449,#1010,#1012,.T.);
#1010 = VERTEX_POINT('',#1011);
#1011 = CARTESIAN_POINT('',(31.415,34.065,25.5));
#1012 = LINE('',#1013,#1014);
#1013 = CARTESIAN_POINT('',(31.415,34.065,14.9));
#1014 = VECTOR('',#1015,1.);
#1015 = DIRECTION('',(0.,0.,1.));
#1016 = ORIENTED_EDGE('',*,*,#1017,.T.);
#1017 = EDGE_CURVE('',#1010,#961,#1018,.T.);
#1018 = CIRCLE('',#1019,0.6);
#1019 = AXIS2_PLACEMENT_3D('',#1020,#1021,#1022);
#1020 = CARTESIAN_POINT('',(30.815,34.065,25.5));
#1021 = DIRECTION('',(0.,0.,1.));
#1022 = DIRECTION('',(1.,0.,0.));
#1023 = CYLINDRICAL_SURFACE('',#1024,0.6);
#1024 = AXIS2_PLACEMENT_3D('',#1025,#1026,#1027);
#1025 = CARTESIAN_POINT('',(30.815,34.065,14.9));
#1026 = DIRECTION('',(0.,0.,1.));
#1027 = DIRECTION('',(0.,1.,0.));
#1028 = ADVANCED_FACE('',(#1029),#1048,.T.);
#1029 = FACE_BOUND('',#1030,.T.);
#1030 = EDGE_LOOP('',(#1031,#1032,#1033,#1041));
#1031 = ORIENTED_EDGE('',*,*,#993,.F.);
#1032 = ORIENTED_EDGE('',*,*,#482,.T.);
#1033 = ORIENTED_EDGE('',*,*,#1034,.T.);
#1034 = EDGE_CURVE('',#475,#1035,#1037,.T.);
#1035 = VERTEX_POINT('',#1036);
#1036 = CARTESIAN_POINT('',(24.185,26.835,25.5));
#1037 = LINE('',#1038,#1039);
#1038 = CARTESIAN_POINT('',(24.185,26.835,14.9));
#1039 = VECTOR('',#1040,1.);
#1040 = DIRECTION('',(0.,0.,1.));
#1041 = ORIENTED_EDGE('',*,*,#1042,.F.);
#1042 = EDGE_CURVE('',#986,#1035,#1043,.T.);
#1043 = CIRCLE('',#1044,0.6);
#1044 = AXIS2_PLACEMENT_3D('',#1045,#1046,#1047);
#1045 = CARTESIAN_POINT('',(24.185,27.435,25.5));
#1046 = DIRECTION('',(0.,0.,1.));
#1047 = DIRECTION('',(-1.,0.,0.));
#1048 = CYLINDRICAL_SURFACE('',#1049,0.6);
#1049 = AXIS2_PLACEMENT_3D('',#1050,#1051,#1052);
#1050 = CARTESIAN_POINT('',(24.185,27.435,14.9));
#1051 = DIRECTION('',(0.,0.,1.));
#1052 = DIRECTION('',(-1.,0.,0.));
#1053 = ADVANCED_FACE('',(#1054),#1072,.F.);
#1054 = FACE_BOUND('',#1055,.F.);
#1055 = EDGE_LOOP('',(#1056,#1057,#1065,#1071));
#1056 = ORIENTED_EDGE('',*,*,#457,.T.);
#1057 = ORIENTED_EDGE('',*,*,#1058,.T.);
#1058 = EDGE_CURVE('',#458,#1059,#1061,.T.);
#1059 = VERTEX_POINT('',#1060);
#1060 = CARTESIAN_POINT('',(31.415,27.435,25.5));
#1061 = LINE('',#1062,#1063);
#1062 = CARTESIAN_POINT('',(31.415,27.435,14.9));
#1063 = VECTOR('',#1064,1.);
#1064 = DIRECTION('',(0.,0.,1.));
#1065 = ORIENTED_EDGE('',*,*,#1066,.T.);
#1066 = EDGE_CURVE('',#1059,#1010,#1067,.T.);
#1067 = LINE('',#1068,#1069);
#1068 = CARTESIAN_POINT('',(31.415,27.435,25.5));
#1069 = VECTOR('',#1070,1.);
#1070 = DIRECTION('',(0.,1.,0.));
#1071 = ORIENTED_EDGE('',*,*,#1009,.F.);
#1072 = PLANE('',#1073);
#1073 = AXIS2_PLACEMENT_3D('',#1074,#1075,#1076);
#1074 = CARTESIAN_POINT('',(31.415,26.835,14.9));
#1075 = DIRECTION('',(-1.,0.,0.));
#1076 = DIRECTION('',(0.,1.,0.));
#1077 = ADVANCED_FACE('',(#1078),#1096,.F.);
#1078 = FACE_BOUND('',#1079,.F.);
#1079 = EDGE_LOOP('',(#1080,#1081,#1082,#1090));
#1080 = ORIENTED_EDGE('',*,*,#474,.T.);
#1081 = ORIENTED_EDGE('',*,*,#1034,.T.);
#1082 = ORIENTED_EDGE('',*,*,#1083,.T.);
#1083 = EDGE_CURVE('',#1035,#1084,#1086,.T.);
#1084 = VERTEX_POINT('',#1085);
#1085 = CARTESIAN_POINT('',(30.815,26.835,25.5));
#1086 = LINE('',#1087,#1088);
#1087 = CARTESIAN_POINT('',(24.185,26.835,25.5));
#1088 = VECTOR('',#1089,1.);
#1089 = DIRECTION('',(1.,0.,0.));
#1090 = ORIENTED_EDGE('',*,*,#1091,.F.);
#1091 = EDGE_CURVE('',#466,#1084,#1092,.T.);
#1092 = LINE('',#1093,#1094);
#1093 = CARTESIAN_POINT('',(30.815,26.835,14.9));
#1094 = VECTOR('',#1095,1.);
#1095 = DIRECTION('',(0.,0.,1.));
#1096 = PLANE('',#1097);
#1097 = AXIS2_PLACEMENT_3D('',#1098,#1099,#1100);
#1098 = CARTESIAN_POINT('',(23.585,26.835,14.9));
#1099 = DIRECTION('',(0.,1.,0.));
#1100 = DIRECTION('',(1.,0.,0.));
#1101 = ADVANCED_FACE('',(#1102),#1114,.T.);
#1102 = FACE_BOUND('',#1103,.T.);
#1103 = EDGE_LOOP('',(#1104,#1105,#1106,#1107));
#1104 = ORIENTED_EDGE('',*,*,#1091,.F.);
#1105 = ORIENTED_EDGE('',*,*,#465,.T.);
#1106 = ORIENTED_EDGE('',*,*,#1058,.T.);
#1107 = ORIENTED_EDGE('',*,*,#1108,.F.);
#1108 = EDGE_CURVE('',#1084,#1059,#1109,.T.);
#1109 = CIRCLE('',#1110,0.6);
#1110 = AXIS2_PLACEMENT_3D('',#1111,#1112,#1113);
#1111 = CARTESIAN_POINT('',(30.815,27.435,25.5));
#1112 = DIRECTION('',(-0.,0.,1.));
#1113 = DIRECTION('',(0.,-1.,0.));
#1114 = CYLINDRICAL_SURFACE('',#1115,0.6);
#1115 = AXIS2_PLACEMENT_3D('',#1116,#1117,#1118);
#1116 = CARTESIAN_POINT('',(30.815,27.435,14.9));
#1117 = DIRECTION('',(0.,0.,1.));
#1118 = DIRECTION('',(0.,-1.,0.));
#1119 = ADVANCED_FACE('',(#1120),#1131,.F.);
#1120 = FACE_BOUND('',#1121,.F.);
#1121 = EDGE_LOOP('',(#1122,#1128,#1129,#1130));
#1122 = ORIENTED_EDGE('',*,*,#1123,.F.);
#1123 = EDGE_CURVE('',#200,#595,#1124,.T.);
#1124 = LINE('',#1125,#1126);
#1125 = CARTESIAN_POINT('',(11.9,43.146211251235,0.));
#1126 = VECTOR('',#1127,1.);
#1127 = DIRECTION('',(0.971520338783,-0.236956180191,0.));
#1128 = ORIENTED_EDGE('',*,*,#530,.T.);
#1129 = ORIENTED_EDGE('',*,*,#781,.T.);
#1130 = ORIENTED_EDGE('',*,*,#797,.F.);
#1131 = PLANE('',#1132);
#1132 = AXIS2_PLACEMENT_3D('',#1133,#1134,#1135);
#1133 = CARTESIAN_POINT('',(11.9,43.146211251235,0.));
#1134 = DIRECTION('',(0.236956180191,0.971520338783,0.));
#1135 = DIRECTION('',(0.971520338783,-0.236956180191,0.));
#1136 = ADVANCED_FACE('',(#1137),#1148,.F.);
#1137 = FACE_BOUND('',#1138,.F.);
#1138 = EDGE_LOOP('',(#1139,#1145,#1146,#1147));
#1139 = ORIENTED_EDGE('',*,*,#1140,.T.);
#1140 = EDGE_CURVE('',#619,#569,#1141,.T.);
#1141 = LINE('',#1142,#1143);
#1142 = CARTESIAN_POINT('',(43.,0.,0.));
#1143 = VECTOR('',#1144,1.);
#1144 = DIRECTION('',(0.,1.,0.));
#1145 = ORIENTED_EDGE('',*,*,#642,.T.);
#1146 = ORIENTED_EDGE('',*,*,#634,.T.);
#1147 = ORIENTED_EDGE('',*,*,#626,.T.);
#1148 = PLANE('',#1149);
#1149 = AXIS2_PLACEMENT_3D('',#1150,#1151,#1152);
#1150 = CARTESIAN_POINT('',(12.,0.,0.));
#1151 = DIRECTION('',(0.,0.,1.));
#1152 = DIRECTION('',(1.,0.,0.));
#1153 = ADVANCED_FACE('',(#1154),#1160,.F.);
#1154 = FACE_BOUND('',#1155,.F.);
#1155 = EDGE_LOOP('',(#1156,#1157,#1158,#1159));
#1156 = ORIENTED_EDGE('',*,*,#656,.F.);
#1157 = ORIENTED_EDGE('',*,*,#1123,.T.);
#1158 = ORIENTED_EDGE('',*,*,#594,.T.);
#1159 = ORIENTED_EDGE('',*,*,#707,.T.);
#1160 = PLANE('',#1161);
#1161 = AXIS2_PLACEMENT_3D('',#1162,#1163,#1164);
#1162 = CARTESIAN_POINT('',(14.172338161771,45.146211251235,0.));
#1163 = DIRECTION('',(0.,0.,1.));
#1164 = DIRECTION('',(1.,0.,0.));
#1165 = ADVANCED_FACE('',(#1166),#1191,.F.);
#1166 = FACE_BOUND('',#1167,.F.);
#1167 = EDGE_LOOP('',(#1168,#1176,#1177,#1185));
#1168 = ORIENTED_EDGE('',*,*,#1169,.F.);
#1169 = EDGE_CURVE('',#619,#1170,#1172,.T.);
#1170 = VERTEX_POINT('',#1171);
#1171 = CARTESIAN_POINT('',(47.,42.146211251235,0.));
#1172 = LINE('',#1173,#1174);
#1173 = CARTESIAN_POINT('',(42.9,43.146211251235,0.));
#1174 = VECTOR('',#1175,1.);
#1175 = DIRECTION('',(0.971520338783,-0.236956180191,0.));
#1176 = ORIENTED_EDGE('',*,*,#676,.T.);
#1177 = ORIENTED_EDGE('',*,*,#1178,.T.);
#1178 = EDGE_CURVE('',#364,#1179,#1181,.T.);
#1179 = VERTEX_POINT('',#1180);
#1180 = CARTESIAN_POINT('',(47.,42.146211251235,15.));
#1181 = LINE('',#1182,#1183);
#1182 = CARTESIAN_POINT('',(42.9,43.146211251235,15.));
#1183 = VECTOR('',#1184,1.);
#1184 = DIRECTION('',(0.971520338783,-0.236956180191,0.));
#1185 = ORIENTED_EDGE('',*,*,#1186,.F.);
#1186 = EDGE_CURVE('',#1170,#1179,#1187,.T.);
#1187 = LINE('',#1188,#1189);
#1188 = CARTESIAN_POINT('',(47.,42.146211251235,0.));
#1189 = VECTOR('',#1190,1.);
#1190 = DIRECTION('',(0.,0.,1.));
#1191 = PLANE('',#1192);
#1192 = AXIS2_PLACEMENT_3D('',#1193,#1194,#1195);
#1193 = CARTESIAN_POINT('',(42.9,43.146211251235,0.));
#1194 = DIRECTION('',(0.236956180191,0.971520338783,0.));
#1195 = DIRECTION('',(0.971520338783,-0.236956180191,0.));
#1196 = ADVANCED_FACE('',(#1197),#1222,.F.);
#1197 = FACE_BOUND('',#1198,.F.);
#1198 = EDGE_LOOP('',(#1199,#1207,#1215,#1221));
#1199 = ORIENTED_EDGE('',*,*,#1200,.F.);
#1200 = EDGE_CURVE('',#1201,#569,#1203,.T.);
#1201 = VERTEX_POINT('',#1202);
#1202 = CARTESIAN_POINT('',(47.,48.146211251235,0.));
#1203 = LINE('',#1204,#1205);
#1204 = CARTESIAN_POINT('',(47.,48.146211251235,0.));
#1205 = VECTOR('',#1206,1.);
#1206 = DIRECTION('',(-0.971520338783,-0.236956180191,0.));
#1207 = ORIENTED_EDGE('',*,*,#1208,.T.);
#1208 = EDGE_CURVE('',#1201,#1209,#1211,.T.);
#1209 = VERTEX_POINT('',#1210);
#1210 = CARTESIAN_POINT('',(47.,48.146211251235,15.));
#1211 = LINE('',#1212,#1213);
#1212 = CARTESIAN_POINT('',(47.,48.146211251235,0.));
#1213 = VECTOR('',#1214,1.);
#1214 = DIRECTION('',(0.,0.,1.));
#1215 = ORIENTED_EDGE('',*,*,#1216,.T.);
#1216 = EDGE_CURVE('',#1209,#307,#1217,.T.);
#1217 = LINE('',#1218,#1219);
#1218 = CARTESIAN_POINT('',(47.,48.146211251235,15.));
#1219 = VECTOR('',#1220,1.);
#1220 = DIRECTION('',(-0.971520338783,-0.236956180191,0.));
#1221 = ORIENTED_EDGE('',*,*,#735,.T.);
#1222 = PLANE('',#1223);
#1223 = AXIS2_PLACEMENT_3D('',#1224,#1225,#1226);
#1224 = CARTESIAN_POINT('',(47.,48.146211251235,0.));
#1225 = DIRECTION('',(0.236956180191,-0.971520338783,0.));
#1226 = DIRECTION('',(-0.971520338783,-0.236956180191,0.));
#1227 = ADVANCED_FACE('',(#1228),#1239,.T.);
#1228 = FACE_BOUND('',#1229,.T.);
#1229 = EDGE_LOOP('',(#1230,#1231,#1232,#1238));
#1230 = ORIENTED_EDGE('',*,*,#751,.F.);
#1231 = ORIENTED_EDGE('',*,*,#1178,.T.);
#1232 = ORIENTED_EDGE('',*,*,#1233,.T.);
#1233 = EDGE_CURVE('',#1179,#1209,#1234,.T.);
#1234 = LINE('',#1235,#1236);
#1235 = CARTESIAN_POINT('',(47.,42.146211251235,15.));
#1236 = VECTOR('',#1237,1.);
#1237 = DIRECTION('',(0.,1.,0.));
#1238 = ORIENTED_EDGE('',*,*,#1216,.T.);
#1239 = PLANE('',#1240);
#1240 = AXIS2_PLACEMENT_3D('',#1241,#1242,#1243);
#1241 = CARTESIAN_POINT('',(45.172338161771,45.146211251235,15.));
#1242 = DIRECTION('',(0.,0.,1.));
#1243 = DIRECTION('',(1.,0.,0.));
#1244 = ADVANCED_FACE('',(#1245),#1251,.T.);
#1245 = FACE_BOUND('',#1246,.T.);
#1246 = EDGE_LOOP('',(#1247,#1248,#1249,#1250));
#1247 = ORIENTED_EDGE('',*,*,#911,.F.);
#1248 = ORIENTED_EDGE('',*,*,#839,.T.);
#1249 = ORIENTED_EDGE('',*,*,#863,.T.);
#1250 = ORIENTED_EDGE('',*,*,#887,.F.);
#1251 = PLANE('',#1252);
#1252 = AXIS2_PLACEMENT_3D('',#1253,#1254,#1255);
#1253 = CARTESIAN_POINT('',(15.375,2.25,11.));
#1254 = DIRECTION('',(0.,0.,1.));
#1255 = DIRECTION('',(1.,0.,0.));
#1256 = ADVANCED_FACE('',(#1257),#1283,.T.);
#1257 = FACE_BOUND('',#1258,.T.);
#1258 = EDGE_LOOP('',(#1259,#1267,#1268,#1276));
#1259 = ORIENTED_EDGE('',*,*,#1260,.F.);
#1260 = EDGE_CURVE('',#928,#1261,#1263,.T.);
#1261 = VERTEX_POINT('',#1262);
#1262 = CARTESIAN_POINT('',(24.185,34.165,26.));
#1263 = LINE('',#1264,#1265);
#1264 = CARTESIAN_POINT('',(24.185,34.415,25.75));
#1265 = VECTOR('',#1266,1.);
#1266 = DIRECTION('',(-2.90882763039E-35,-0.707106781187,0.707106781187)
  );
#1267 = ORIENTED_EDGE('',*,*,#944,.T.);
#1268 = ORIENTED_EDGE('',*,*,#1269,.T.);
#1269 = EDGE_CURVE('',#937,#1270,#1272,.T.);
#1270 = VERTEX_POINT('',#1271);
#1271 = CARTESIAN_POINT('',(24.085,34.065,26.));
#1272 = LINE('',#1273,#1274);
#1273 = CARTESIAN_POINT('',(23.585,34.065,25.5));
#1274 = VECTOR('',#1275,1.);
#1275 = DIRECTION('',(0.707106781187,-4.329780281177E-17,0.707106781187)
  );
#1276 = ORIENTED_EDGE('',*,*,#1277,.F.);
#1277 = EDGE_CURVE('',#1261,#1270,#1278,.T.);
#1278 = CIRCLE('',#1279,1.E-01);
#1279 = AXIS2_PLACEMENT_3D('',#1280,#1281,#1282);
#1280 = CARTESIAN_POINT('',(24.185,34.065,26.));
#1281 = DIRECTION('',(0.,-0.,1.));
#1282 = DIRECTION('',(0.,1.,0.));
#1283 = CONICAL_SURFACE('',#1284,0.6,0.785398163397);
#1284 = AXIS2_PLACEMENT_3D('',#1285,#1286,#1287);
#1285 = CARTESIAN_POINT('',(24.185,34.065,25.5));
#1286 = DIRECTION('',(-0.,-0.,-1.));
#1287 = DIRECTION('',(0.,1.,0.));
#1288 = ADVANCED_FACE('',(#1289),#1307,.F.);
#1289 = FACE_BOUND('',#1290,.T.);
#1290 = EDGE_LOOP('',(#1291,#1299,#1300,#1301));
#1291 = ORIENTED_EDGE('',*,*,#1292,.F.);
#1292 = EDGE_CURVE('',#961,#1293,#1295,.T.);
#1293 = VERTEX_POINT('',#1294);
#1294 = CARTESIAN_POINT('',(30.815,34.165,26.));
#1295 = LINE('',#1296,#1297);
#1296 = CARTESIAN_POINT('',(30.815,34.415,25.75));
#1297 = VECTOR('',#1298,1.);
#1298 = DIRECTION('',(-2.90882763039E-35,-0.707106781187,0.707106781187)
  );
#1299 = ORIENTED_EDGE('',*,*,#968,.T.);
#1300 = ORIENTED_EDGE('',*,*,#1260,.T.);
#1301 = ORIENTED_EDGE('',*,*,#1302,.F.);
#1302 = EDGE_CURVE('',#1293,#1261,#1303,.T.);
#1303 = LINE('',#1304,#1305);
#1304 = CARTESIAN_POINT('',(30.815,34.165,26.));
#1305 = VECTOR('',#1306,1.);
#1306 = DIRECTION('',(-1.,0.,0.));
#1307 = PLANE('',#1308);
#1308 = AXIS2_PLACEMENT_3D('',#1309,#1310,#1311);
#1309 = CARTESIAN_POINT('',(30.815,34.415,25.75));
#1310 = DIRECTION('',(-1.889513820523E-18,-0.707106781187,
    -0.707106781187));
#1311 = DIRECTION('',(1.,-1.336088035637E-18,-1.336088035637E-18));
#1312 = ADVANCED_FACE('',(#1313),#1331,.F.);
#1313 = FACE_BOUND('',#1314,.T.);
#1314 = EDGE_LOOP('',(#1315,#1316,#1317,#1325));
#1315 = ORIENTED_EDGE('',*,*,#1269,.F.);
#1316 = ORIENTED_EDGE('',*,*,#985,.T.);
#1317 = ORIENTED_EDGE('',*,*,#1318,.T.);
#1318 = EDGE_CURVE('',#986,#1319,#1321,.T.);
#1319 = VERTEX_POINT('',#1320);
#1320 = CARTESIAN_POINT('',(24.085,27.435,26.));
#1321 = LINE('',#1322,#1323);
#1322 = CARTESIAN_POINT('',(23.835,27.435,25.75));
#1323 = VECTOR('',#1324,1.);
#1324 = DIRECTION('',(0.707106781187,-2.90882763039E-35,0.707106781187)
  );
#1325 = ORIENTED_EDGE('',*,*,#1326,.F.);
#1326 = EDGE_CURVE('',#1270,#1319,#1327,.T.);
#1327 = LINE('',#1328,#1329);
#1328 = CARTESIAN_POINT('',(24.085,34.065,26.));
#1329 = VECTOR('',#1330,1.);
#1330 = DIRECTION('',(0.,-1.,0.));
#1331 = PLANE('',#1332);
#1332 = AXIS2_PLACEMENT_3D('',#1333,#1334,#1335);
#1333 = CARTESIAN_POINT('',(23.835,34.065,25.75));
#1334 = DIRECTION('',(0.707106781187,1.889513820523E-18,-0.707106781187)
  );
#1335 = DIRECTION('',(-1.336088035637E-18,1.,1.336088035637E-18));
#1336 = ADVANCED_FACE('',(#1337),#1356,.T.);
#1337 = FACE_BOUND('',#1338,.T.);
#1338 = EDGE_LOOP('',(#1339,#1347,#1348,#1349));
#1339 = ORIENTED_EDGE('',*,*,#1340,.F.);
#1340 = EDGE_CURVE('',#1010,#1341,#1343,.T.);
#1341 = VERTEX_POINT('',#1342);
#1342 = CARTESIAN_POINT('',(30.915,34.065,26.));
#1343 = LINE('',#1344,#1345);
#1344 = CARTESIAN_POINT('',(31.165,34.065,25.75));
#1345 = VECTOR('',#1346,1.);
#1346 = DIRECTION('',(-0.707106781187,2.90882763039E-35,0.707106781187)
  );
#1347 = ORIENTED_EDGE('',*,*,#1017,.T.);
#1348 = ORIENTED_EDGE('',*,*,#1292,.T.);
#1349 = ORIENTED_EDGE('',*,*,#1350,.F.);
#1350 = EDGE_CURVE('',#1341,#1293,#1351,.T.);
#1351 = CIRCLE('',#1352,1.E-01);
#1352 = AXIS2_PLACEMENT_3D('',#1353,#1354,#1355);
#1353 = CARTESIAN_POINT('',(30.815,34.065,26.));
#1354 = DIRECTION('',(0.,0.,1.));
#1355 = DIRECTION('',(1.,0.,0.));
#1356 = CONICAL_SURFACE('',#1357,0.6,0.785398163397);
#1357 = AXIS2_PLACEMENT_3D('',#1358,#1359,#1360);
#1358 = CARTESIAN_POINT('',(30.815,34.065,25.5));
#1359 = DIRECTION('',(-0.,-0.,-1.));
#1360 = DIRECTION('',(1.,0.,0.));
#1361 = ADVANCED_FACE('',(#1362),#1381,.T.);
#1362 = FACE_BOUND('',#1363,.T.);
#1363 = EDGE_LOOP('',(#1364,#1365,#1366,#1374));
#1364 = ORIENTED_EDGE('',*,*,#1318,.F.);
#1365 = ORIENTED_EDGE('',*,*,#1042,.T.);
#1366 = ORIENTED_EDGE('',*,*,#1367,.T.);
#1367 = EDGE_CURVE('',#1035,#1368,#1370,.T.);
#1368 = VERTEX_POINT('',#1369);
#1369 = CARTESIAN_POINT('',(24.185,27.335,26.));
#1370 = LINE('',#1371,#1372);
#1371 = CARTESIAN_POINT('',(24.185,26.835,25.5));
#1372 = VECTOR('',#1373,1.);
#1373 = DIRECTION('',(4.329780281177E-17,0.707106781187,0.707106781187)
  );
#1374 = ORIENTED_EDGE('',*,*,#1375,.F.);
#1375 = EDGE_CURVE('',#1319,#1368,#1376,.T.);
#1376 = CIRCLE('',#1377,1.E-01);
#1377 = AXIS2_PLACEMENT_3D('',#1378,#1379,#1380);
#1378 = CARTESIAN_POINT('',(24.185,27.435,26.));
#1379 = DIRECTION('',(0.,0.,1.));
#1380 = DIRECTION('',(-1.,0.,0.));
#1381 = CONICAL_SURFACE('',#1382,0.6,0.785398163397);
#1382 = AXIS2_PLACEMENT_3D('',#1383,#1384,#1385);
#1383 = CARTESIAN_POINT('',(24.185,27.435,25.5));
#1384 = DIRECTION('',(-0.,-0.,-1.));
#1385 = DIRECTION('',(-1.,0.,0.));
#1386 = ADVANCED_FACE('',(#1387),#1405,.F.);
#1387 = FACE_BOUND('',#1388,.T.);
#1388 = EDGE_LOOP('',(#1389,#1397,#1398,#1399));
#1389 = ORIENTED_EDGE('',*,*,#1390,.F.);
#1390 = EDGE_CURVE('',#1059,#1391,#1393,.T.);
#1391 = VERTEX_POINT('',#1392);
#1392 = CARTESIAN_POINT('',(30.915,27.435,26.));
#1393 = LINE('',#1394,#1395);
#1394 = CARTESIAN_POINT('',(31.415,27.435,25.5));
#1395 = VECTOR('',#1396,1.);
#1396 = DIRECTION('',(-0.707106781187,4.329780281177E-17,0.707106781187)
  );
#1397 = ORIENTED_EDGE('',*,*,#1066,.T.);
#1398 = ORIENTED_EDGE('',*,*,#1340,.T.);
#1399 = ORIENTED_EDGE('',*,*,#1400,.F.);
#1400 = EDGE_CURVE('',#1391,#1341,#1401,.T.);
#1401 = LINE('',#1402,#1403);
#1402 = CARTESIAN_POINT('',(30.915,27.435,26.));
#1403 = VECTOR('',#1404,1.);
#1404 = DIRECTION('',(0.,1.,0.));
#1405 = PLANE('',#1406);
#1406 = AXIS2_PLACEMENT_3D('',#1407,#1408,#1409);
#1407 = CARTESIAN_POINT('',(31.165,27.435,25.75));
#1408 = DIRECTION('',(-0.707106781187,-1.889513820523E-18,
    -0.707106781187));
#1409 = DIRECTION('',(1.336088035637E-18,-1.,1.336088035637E-18));
#1410 = ADVANCED_FACE('',(#1411),#1429,.F.);
#1411 = FACE_BOUND('',#1412,.T.);
#1412 = EDGE_LOOP('',(#1413,#1414,#1415,#1423));
#1413 = ORIENTED_EDGE('',*,*,#1367,.F.);
#1414 = ORIENTED_EDGE('',*,*,#1083,.T.);
#1415 = ORIENTED_EDGE('',*,*,#1416,.T.);
#1416 = EDGE_CURVE('',#1084,#1417,#1419,.T.);
#1417 = VERTEX_POINT('',#1418);
#1418 = CARTESIAN_POINT('',(30.815,27.335,26.));
#1419 = LINE('',#1420,#1421);
#1420 = CARTESIAN_POINT('',(30.815,27.085,25.75));
#1421 = VECTOR('',#1422,1.);
#1422 = DIRECTION('',(2.26130160805E-35,0.707106781187,0.707106781187));
#1423 = ORIENTED_EDGE('',*,*,#1424,.F.);
#1424 = EDGE_CURVE('',#1368,#1417,#1425,.T.);
#1425 = LINE('',#1426,#1427);
#1426 = CARTESIAN_POINT('',(24.185,27.335,26.));
#1427 = VECTOR('',#1428,1.);
#1428 = DIRECTION('',(1.,0.,0.));
#1429 = PLANE('',#1430);
#1430 = AXIS2_PLACEMENT_3D('',#1431,#1432,#1433);
#1431 = CARTESIAN_POINT('',(24.185,27.085,25.75));
#1432 = DIRECTION('',(-3.029276165476E-18,0.707106781187,-0.707106781187
    ));
#1433 = DIRECTION('',(-1.,-2.142021718695E-18,2.142021718695E-18));
#1434 = ADVANCED_FACE('',(#1435),#1447,.T.);
#1435 = FACE_BOUND('',#1436,.T.);
#1436 = EDGE_LOOP('',(#1437,#1438,#1439,#1440));
#1437 = ORIENTED_EDGE('',*,*,#1416,.F.);
#1438 = ORIENTED_EDGE('',*,*,#1108,.T.);
#1439 = ORIENTED_EDGE('',*,*,#1390,.T.);
#1440 = ORIENTED_EDGE('',*,*,#1441,.F.);
#1441 = EDGE_CURVE('',#1417,#1391,#1442,.T.);
#1442 = CIRCLE('',#1443,1.E-01);
#1443 = AXIS2_PLACEMENT_3D('',#1444,#1445,#1446);
#1444 = CARTESIAN_POINT('',(30.815,27.435,26.));
#1445 = DIRECTION('',(-0.,0.,1.));
#1446 = DIRECTION('',(0.,-1.,0.));
#1447 = CONICAL_SURFACE('',#1448,0.6,0.785398163397);
#1448 = AXIS2_PLACEMENT_3D('',#1449,#1450,#1451);
#1449 = CARTESIAN_POINT('',(30.815,27.435,25.5));
#1450 = DIRECTION('',(-0.,-0.,-1.));
#1451 = DIRECTION('',(0.,-1.,0.));
#1452 = ADVANCED_FACE('',(#1453),#1464,.F.);
#1453 = FACE_BOUND('',#1454,.F.);
#1454 = EDGE_LOOP('',(#1455,#1456,#1457,#1463));
#1455 = ORIENTED_EDGE('',*,*,#1140,.F.);
#1456 = ORIENTED_EDGE('',*,*,#1169,.T.);
#1457 = ORIENTED_EDGE('',*,*,#1458,.T.);
#1458 = EDGE_CURVE('',#1170,#1201,#1459,.T.);
#1459 = LINE('',#1460,#1461);
#1460 = CARTESIAN_POINT('',(47.,42.146211251235,0.));
#1461 = VECTOR('',#1462,1.);
#1462 = DIRECTION('',(0.,1.,0.));
#1463 = ORIENTED_EDGE('',*,*,#1200,.T.);
#1464 = PLANE('',#1465);
#1465 = AXIS2_PLACEMENT_3D('',#1466,#1467,#1468);
#1466 = CARTESIAN_POINT('',(45.172338161771,45.146211251235,0.));
#1467 = DIRECTION('',(0.,0.,1.));
#1468 = DIRECTION('',(1.,0.,0.));
#1469 = ADVANCED_FACE('',(#1470),#1476,.F.);
#1470 = FACE_BOUND('',#1471,.F.);
#1471 = EDGE_LOOP('',(#1472,#1473,#1474,#1475));
#1472 = ORIENTED_EDGE('',*,*,#1186,.T.);
#1473 = ORIENTED_EDGE('',*,*,#1233,.T.);
#1474 = ORIENTED_EDGE('',*,*,#1208,.F.);
#1475 = ORIENTED_EDGE('',*,*,#1458,.F.);
#1476 = PLANE('',#1477);
#1477 = AXIS2_PLACEMENT_3D('',#1478,#1479,#1480);
#1478 = CARTESIAN_POINT('',(47.,42.146211251235,0.));
#1479 = DIRECTION('',(-1.,0.,0.));
#1480 = DIRECTION('',(0.,1.,0.));
#1481 = ADVANCED_FACE('',(#1482),#1492,.T.);
#1482 = FACE_BOUND('',#1483,.T.);
#1483 = EDGE_LOOP('',(#1484,#1485,#1486,#1487,#1488,#1489,#1490,#1491));
#1484 = ORIENTED_EDGE('',*,*,#1302,.T.);
#1485 = ORIENTED_EDGE('',*,*,#1277,.T.);
#1486 = ORIENTED_EDGE('',*,*,#1326,.T.);
#1487 = ORIENTED_EDGE('',*,*,#1375,.T.);
#1488 = ORIENTED_EDGE('',*,*,#1424,.T.);
#1489 = ORIENTED_EDGE('',*,*,#1441,.T.);
#1490 = ORIENTED_EDGE('',*,*,#1400,.T.);
#1491 = ORIENTED_EDGE('',*,*,#1350,.T.);
#1492 = PLANE('',#1493);
#1493 = AXIS2_PLACEMENT_3D('',#1494,#1495,#1496);
#1494 = CARTESIAN_POINT('',(27.5,30.75,26.));
#1495 = DIRECTION('',(0.,0.,1.));
#1496 = DIRECTION('',(1.,0.,0.));
#1497 = ( GEOMETRIC_REPRESENTATION_CONTEXT(3) 
GLOBAL_UNCERTAINTY_ASSIGNED_CONTEXT((#1501)) 
GLOBAL_UNIT_ASSIGNED_CONTEXT((#1498,#1499,#1500)) REPRESENTATION_CONTEXT
('Context #1','3D Context with UNIT and UNCERTAINTY') );
#1498 = ( LENGTH_UNIT() NAMED_UNIT(*) SI_UNIT(.MILLI.,.METRE.) );
#1499 = ( NAMED_UNIT(*) PLANE_ANGLE_UNIT() SI_UNIT($,.RADIAN.) );
#1500 = ( NAMED_UNIT(*) SI_UNIT($,.STERADIAN.) SOLID_ANGLE_UNIT() );
#1501 = UNCERTAINTY_MEASURE_WITH_UNIT(LENGTH_MEASURE(1.E-07),#1498,
  'distance_accuracy_value','confusion accuracy');
#1502 = PRODUCT_RELATED_PRODUCT_CATEGORY('part',$,(#7));
ENDSEC;
END-ISO-10303-21;
