ISO-10303-21;
HEADER;
FILE_DESCRIPTION(('FreeCAD Model'),'2;1');
FILE_NAME('Open CASCADE Shape Model','2026-09-01T16:33:48',('FreeCAD'),(
    'FreeCAD'),'Open CASCADE STEP processor 7.8','FreeCAD','Unknown');
FILE_SCHEMA(('AUTOMOTIVE_DESIGN { 1 0 10303 214 1 1 1 1 }'));
ENDSEC;
DATA;
#1 = APPLICATION_PROTOCOL_DEFINITION('international standard',
  'automotive_design',2000,#2);
#2 = APPLICATION_CONTEXT(
  'core data for automotive mechanical design processes');
#3 = SHAPE_DEFINITION_REPRESENTATION(#4,#10);
#4 = PRODUCT_DEFINITION_SHAPE('','',#5);
#5 = PRODUCT_DEFINITION('design','',#6,#9);
#6 = PRODUCT_DEFINITION_FORMATION('','',#7);
#7 = PRODUCT('Open CASCADE STEP translator 7.8 6',
  'Open CASCADE STEP translator 7.8 6','',(#8));
#8 = PRODUCT_CONTEXT('',#2,'mechanical');
#9 = PRODUCT_DEFINITION_CONTEXT('part definition',#2,'design');
#10 = ADVANCED_BREP_SHAPE_REPRESENTATION('',(#11,#15),#2229);
#11 = AXIS2_PLACEMENT_3D('',#12,#13,#14);
#12 = CARTESIAN_POINT('',(0.,0.,0.));
#13 = DIRECTION('',(0.,0.,1.));
#14 = DIRECTION('',(1.,0.,-0.));
#15 = MANIFOLD_SOLID_BREP('',#16);
#16 = CLOSED_SHELL('',(#17,#57,#270,#294,#398,#438,#455,#472,#489,#506,
    #528,#732,#749,#771,#795,#819,#836,#868,#892,#916,#941,#966,#990,
    #1014,#1032,#1134,#1151,#1163,#1203,#1220,#1237,#1264,#1281,#1293,
    #1310,#1327,#1344,#1361,#1378,#1402,#1426,#1443,#1475,#1499,#1523,
    #1548,#1573,#1597,#1621,#1639,#1656,#1688,#1712,#1736,#1761,#1786,
    #1810,#1834,#1852,#1864,#1881,#1893,#1924,#1948,#1972,#2004,#2028,
    #2052,#2077,#2102,#2126,#2150,#2168,#2184,#2201,#2213));
#17 = ADVANCED_FACE('',(#18),#52,.F.);
#18 = FACE_BOUND('',#19,.F.);
#19 = EDGE_LOOP('',(#20,#30,#38,#46));
#20 = ORIENTED_EDGE('',*,*,#21,.F.);
#21 = EDGE_CURVE('',#22,#24,#26,.T.);
#22 = VERTEX_POINT('',#23);
#23 = CARTESIAN_POINT('',(0.,3.639702342662,10.));
#24 = VERTEX_POINT('',#25);
#25 = CARTESIAN_POINT('',(0.,13.75,10.));
#26 = LINE('',#27,#28);
#27 = CARTESIAN_POINT('',(0.,0.,10.));
#28 = VECTOR('',#29,1.);
#29 = DIRECTION('',(0.,1.,0.));
#30 = ORIENTED_EDGE('',*,*,#31,.T.);
#31 = EDGE_CURVE('',#22,#32,#34,.T.);
#32 = VERTEX_POINT('',#33);
#33 = CARTESIAN_POINT('',(0.,0.,0.));
#34 = LINE('',#35,#36);
#35 = CARTESIAN_POINT('',(0.,0.,0.));
#36 = VECTOR('',#37,1.);
#37 = DIRECTION('',(0.,-0.342020143326,-0.939692620786));
#38 = ORIENTED_EDGE('',*,*,#39,.T.);
#39 = EDGE_CURVE('',#32,#40,#42,.T.);
#40 = VERTEX_POINT('',#41);
#41 = CARTESIAN_POINT('',(0.,13.75,0.));
#42 = LINE('',#43,#44);
#43 = CARTESIAN_POINT('',(0.,0.,0.));
#44 = VECTOR('',#45,1.);
#45 = DIRECTION('',(0.,1.,0.));
#46 = ORIENTED_EDGE('',*,*,#47,.T.);
#47 = EDGE_CURVE('',#40,#24,#48,.T.);
#48 = LINE('',#49,#50);
#49 = CARTESIAN_POINT('',(0.,13.75,-1.));
#50 = VECTOR('',#51,1.);
#51 = DIRECTION('',(0.,0.,1.));
#52 = PLANE('',#53);
#53 = AXIS2_PLACEMENT_3D('',#54,#55,#56);
#54 = CARTESIAN_POINT('',(0.,0.,0.));
#55 = DIRECTION('',(1.,0.,0.));
#56 = DIRECTION('',(0.,0.,1.));
#57 = ADVANCED_FACE('',(#58,#195),#265,.T.);
#58 = FACE_BOUND('',#59,.T.);
#59 = EDGE_LOOP('',(#60,#61,#69,#77,#85,#93,#101,#109,#117,#125,#133,
    #141,#149,#157,#165,#173,#181,#189));
#60 = ORIENTED_EDGE('',*,*,#21,.F.);
#61 = ORIENTED_EDGE('',*,*,#62,.T.);
#62 = EDGE_CURVE('',#22,#63,#65,.T.);
#63 = VERTEX_POINT('',#64);
#64 = CARTESIAN_POINT('',(19.85,3.639702342662,10.));
#65 = LINE('',#66,#67);
#66 = CARTESIAN_POINT('',(-1.,3.639702342662,10.));
#67 = VECTOR('',#68,1.);
#68 = DIRECTION('',(1.,0.,0.));
#69 = ORIENTED_EDGE('',*,*,#70,.F.);
#70 = EDGE_CURVE('',#71,#63,#73,.T.);
#71 = VERTEX_POINT('',#72);
#72 = CARTESIAN_POINT('',(19.1,5.768057887614,10.));
#73 = LINE('',#74,#75);
#74 = CARTESIAN_POINT('',(19.837555217401,3.67501823873,10.));
#75 = VECTOR('',#76,1.);
#76 = DIRECTION('',(0.33235339747,-0.943154928519,0.));
#77 = ORIENTED_EDGE('',*,*,#78,.F.);
#78 = EDGE_CURVE('',#79,#71,#81,.T.);
#79 = VERTEX_POINT('',#80);
#80 = CARTESIAN_POINT('',(23.9,5.768057887614,10.));
#81 = LINE('',#82,#83);
#82 = CARTESIAN_POINT('',(9.55,5.768057887614,10.));
#83 = VECTOR('',#84,1.);
#84 = DIRECTION('',(-1.,0.,0.));
#85 = ORIENTED_EDGE('',*,*,#86,.F.);
#86 = EDGE_CURVE('',#87,#79,#89,.T.);
#87 = VERTEX_POINT('',#88);
#88 = CARTESIAN_POINT('',(23.15,3.639702342662,10.));
#89 = LINE('',#90,#91);
#90 = CARTESIAN_POINT('',(21.123559786814,-2.110944676334,10.));
#91 = VECTOR('',#92,1.);
#92 = DIRECTION('',(0.33235339747,0.943154928519,0.));
#93 = ORIENTED_EDGE('',*,*,#94,.T.);
#94 = EDGE_CURVE('',#87,#95,#97,.T.);
#95 = VERTEX_POINT('',#96);
#96 = CARTESIAN_POINT('',(43.,3.639702342662,10.));
#97 = LINE('',#98,#99);
#98 = CARTESIAN_POINT('',(-1.,3.639702342662,10.));
#99 = VECTOR('',#100,1.);
#100 = DIRECTION('',(1.,0.,0.));
#101 = ORIENTED_EDGE('',*,*,#102,.T.);
#102 = EDGE_CURVE('',#95,#103,#105,.T.);
#103 = VERTEX_POINT('',#104);
#104 = CARTESIAN_POINT('',(43.,13.75,10.));
#105 = LINE('',#106,#107);
#106 = CARTESIAN_POINT('',(43.,0.,10.));
#107 = VECTOR('',#108,1.);
#108 = DIRECTION('',(0.,1.,0.));
#109 = ORIENTED_EDGE('',*,*,#110,.T.);
#110 = EDGE_CURVE('',#103,#111,#113,.T.);
#111 = VERTEX_POINT('',#112);
#112 = CARTESIAN_POINT('',(43.,13.875609756098,10.));
#113 = LINE('',#114,#115);
#114 = CARTESIAN_POINT('',(43.,0.,10.));
#115 = VECTOR('',#116,1.);
#116 = DIRECTION('',(0.,1.,0.));
#117 = ORIENTED_EDGE('',*,*,#118,.F.);
#118 = EDGE_CURVE('',#119,#111,#121,.T.);
#119 = VERTEX_POINT('',#120);
#120 = CARTESIAN_POINT('',(42.9,13.9,10.));
#121 = LINE('',#122,#123);
#122 = CARTESIAN_POINT('',(42.9,13.9,10.));
#123 = VECTOR('',#124,1.);
#124 = DIRECTION('',(0.971520338783,-0.236956180191,0.));
#125 = ORIENTED_EDGE('',*,*,#126,.F.);
#126 = EDGE_CURVE('',#127,#119,#129,.T.);
#127 = VERTEX_POINT('',#128);
#128 = CARTESIAN_POINT('',(42.9,17.9,10.));
#129 = LINE('',#130,#131);
#130 = CARTESIAN_POINT('',(42.9,17.9,10.));
#131 = VECTOR('',#132,1.);
#132 = DIRECTION('',(0.,-1.,0.));
#133 = ORIENTED_EDGE('',*,*,#134,.F.);
#134 = EDGE_CURVE('',#135,#127,#137,.T.);
#135 = VERTEX_POINT('',#136);
#136 = CARTESIAN_POINT('',(43.,17.924390243902,10.));
#137 = LINE('',#138,#139);
#138 = CARTESIAN_POINT('',(47.,18.9,10.));
#139 = VECTOR('',#140,1.);
#140 = DIRECTION('',(-0.971520338783,-0.236956180191,0.));
#141 = ORIENTED_EDGE('',*,*,#142,.T.);
#142 = EDGE_CURVE('',#135,#143,#145,.T.);
#143 = VERTEX_POINT('',#144);
#144 = CARTESIAN_POINT('',(43.,18.05,10.));
#145 = LINE('',#146,#147);
#146 = CARTESIAN_POINT('',(43.,0.,10.));
#147 = VECTOR('',#148,1.);
#148 = DIRECTION('',(0.,1.,0.));
#149 = ORIENTED_EDGE('',*,*,#150,.T.);
#150 = EDGE_CURVE('',#143,#151,#153,.T.);
#151 = VERTEX_POINT('',#152);
#152 = CARTESIAN_POINT('',(43.,53.,10.));
#153 = LINE('',#154,#155);
#154 = CARTESIAN_POINT('',(43.,0.,10.));
#155 = VECTOR('',#156,1.);
#156 = DIRECTION('',(0.,1.,0.));
#157 = ORIENTED_EDGE('',*,*,#158,.F.);
#158 = EDGE_CURVE('',#159,#151,#161,.T.);
#159 = VERTEX_POINT('',#160);
#160 = CARTESIAN_POINT('',(0.,53.,10.));
#161 = LINE('',#162,#163);
#162 = CARTESIAN_POINT('',(0.,53.,10.));
#163 = VECTOR('',#164,1.);
#164 = DIRECTION('',(1.,0.,0.));
#165 = ORIENTED_EDGE('',*,*,#166,.F.);
#166 = EDGE_CURVE('',#167,#159,#169,.T.);
#167 = VERTEX_POINT('',#168);
#168 = CARTESIAN_POINT('',(0.,18.05,10.));
#169 = LINE('',#170,#171);
#170 = CARTESIAN_POINT('',(0.,0.,10.));
#171 = VECTOR('',#172,1.);
#172 = DIRECTION('',(0.,1.,0.));
#173 = ORIENTED_EDGE('',*,*,#174,.T.);
#174 = EDGE_CURVE('',#167,#175,#177,.T.);
#175 = VERTEX_POINT('',#176);
#176 = CARTESIAN_POINT('',(4.,19.05,10.));
#177 = LINE('',#178,#179);
#178 = CARTESIAN_POINT('',(-0.123529411765,18.019117647059,10.));
#179 = VECTOR('',#180,1.);
#180 = DIRECTION('',(0.970142500145,0.242535625036,0.));
#181 = ORIENTED_EDGE('',*,*,#182,.T.);
#182 = EDGE_CURVE('',#175,#183,#185,.T.);
#183 = VERTEX_POINT('',#184);
#184 = CARTESIAN_POINT('',(4.,12.75,10.));
#185 = LINE('',#186,#187);
#186 = CARTESIAN_POINT('',(4.,6.375,10.));
#187 = VECTOR('',#188,1.);
#188 = DIRECTION('',(0.,-1.,0.));
#189 = ORIENTED_EDGE('',*,*,#190,.T.);
#190 = EDGE_CURVE('',#183,#24,#191,.T.);
#191 = LINE('',#192,#193);
#192 = CARTESIAN_POINT('',(1.617647058824,13.345588235294,10.));
#193 = VECTOR('',#194,1.);
#194 = DIRECTION('',(-0.970142500145,0.242535625036,0.));
#195 = FACE_BOUND('',#196,.T.);
#196 = EDGE_LOOP('',(#197,#208,#216,#225,#233,#242,#250,#259));
#197 = ORIENTED_EDGE('',*,*,#198,.F.);
#198 = EDGE_CURVE('',#199,#201,#203,.T.);
#199 = VERTEX_POINT('',#200);
#200 = CARTESIAN_POINT('',(18.185,36.775,10.));
#201 = VERTEX_POINT('',#202);
#202 = CARTESIAN_POINT('',(17.585,36.175,10.));
#203 = CIRCLE('',#204,0.6);
#204 = AXIS2_PLACEMENT_3D('',#205,#206,#207);
#205 = CARTESIAN_POINT('',(18.185,36.175,10.));
#206 = DIRECTION('',(0.,-0.,1.));
#207 = DIRECTION('',(0.,1.,0.));
#208 = ORIENTED_EDGE('',*,*,#209,.T.);
#209 = EDGE_CURVE('',#199,#210,#212,.T.);
#210 = VERTEX_POINT('',#211);
#211 = CARTESIAN_POINT('',(24.815,36.775,10.));
#212 = LINE('',#213,#214);
#213 = CARTESIAN_POINT('',(12.7075,36.775,10.));
#214 = VECTOR('',#215,1.);
#215 = DIRECTION('',(1.,0.,0.));
#216 = ORIENTED_EDGE('',*,*,#217,.F.);
#217 = EDGE_CURVE('',#218,#210,#220,.T.);
#218 = VERTEX_POINT('',#219);
#219 = CARTESIAN_POINT('',(25.415,36.175,10.));
#220 = CIRCLE('',#221,0.6);
#221 = AXIS2_PLACEMENT_3D('',#222,#223,#224);
#222 = CARTESIAN_POINT('',(24.815,36.175,10.));
#223 = DIRECTION('',(0.,-0.,1.));
#224 = DIRECTION('',(0.,1.,0.));
#225 = ORIENTED_EDGE('',*,*,#226,.T.);
#226 = EDGE_CURVE('',#218,#227,#229,.T.);
#227 = VERTEX_POINT('',#228);
#228 = CARTESIAN_POINT('',(25.415,29.545,10.));
#229 = LINE('',#230,#231);
#230 = CARTESIAN_POINT('',(25.415,14.4725,10.));
#231 = VECTOR('',#232,1.);
#232 = DIRECTION('',(0.,-1.,0.));
#233 = ORIENTED_EDGE('',*,*,#234,.F.);
#234 = EDGE_CURVE('',#235,#227,#237,.T.);
#235 = VERTEX_POINT('',#236);
#236 = CARTESIAN_POINT('',(24.815,28.945,10.));
#237 = CIRCLE('',#238,0.6);
#238 = AXIS2_PLACEMENT_3D('',#239,#240,#241);
#239 = CARTESIAN_POINT('',(24.815,29.545,10.));
#240 = DIRECTION('',(-0.,0.,1.));
#241 = DIRECTION('',(0.,-1.,0.));
#242 = ORIENTED_EDGE('',*,*,#243,.T.);
#243 = EDGE_CURVE('',#235,#244,#246,.T.);
#244 = VERTEX_POINT('',#245);
#245 = CARTESIAN_POINT('',(18.185,28.945,10.));
#246 = LINE('',#247,#248);
#247 = CARTESIAN_POINT('',(8.7925,28.945,10.));
#248 = VECTOR('',#249,1.);
#249 = DIRECTION('',(-1.,0.,0.));
#250 = ORIENTED_EDGE('',*,*,#251,.F.);
#251 = EDGE_CURVE('',#252,#244,#254,.T.);
#252 = VERTEX_POINT('',#253);
#253 = CARTESIAN_POINT('',(17.585,29.545,10.));
#254 = CIRCLE('',#255,0.6);
#255 = AXIS2_PLACEMENT_3D('',#256,#257,#258);
#256 = CARTESIAN_POINT('',(18.185,29.545,10.));
#257 = DIRECTION('',(0.,0.,1.));
#258 = DIRECTION('',(-1.,0.,0.));
#259 = ORIENTED_EDGE('',*,*,#260,.T.);
#260 = EDGE_CURVE('',#252,#201,#261,.T.);
#261 = LINE('',#262,#263);
#262 = CARTESIAN_POINT('',(17.585,18.3875,10.));
#263 = VECTOR('',#264,1.);
#264 = DIRECTION('',(0.,1.,0.));
#265 = PLANE('',#266);
#266 = AXIS2_PLACEMENT_3D('',#267,#268,#269);
#267 = CARTESIAN_POINT('',(0.,0.,10.));
#268 = DIRECTION('',(0.,0.,1.));
#269 = DIRECTION('',(1.,0.,0.));
#270 = ADVANCED_FACE('',(#271),#289,.T.);
#271 = FACE_BOUND('',#272,.T.);
#272 = EDGE_LOOP('',(#273,#281,#282,#283));
#273 = ORIENTED_EDGE('',*,*,#274,.T.);
#274 = EDGE_CURVE('',#275,#40,#277,.T.);
#275 = VERTEX_POINT('',#276);
#276 = CARTESIAN_POINT('',(4.,12.75,0.));
#277 = LINE('',#278,#279);
#278 = CARTESIAN_POINT('',(1.617647058824,13.345588235294,0.));
#279 = VECTOR('',#280,1.);
#280 = DIRECTION('',(-0.970142500145,0.242535625036,0.));
#281 = ORIENTED_EDGE('',*,*,#47,.T.);
#282 = ORIENTED_EDGE('',*,*,#190,.F.);
#283 = ORIENTED_EDGE('',*,*,#284,.F.);
#284 = EDGE_CURVE('',#275,#183,#285,.T.);
#285 = LINE('',#286,#287);
#286 = CARTESIAN_POINT('',(4.,12.75,-1.));
#287 = VECTOR('',#288,1.);
#288 = DIRECTION('',(0.,0.,1.));
#289 = PLANE('',#290);
#290 = AXIS2_PLACEMENT_3D('',#291,#292,#293);
#291 = CARTESIAN_POINT('',(0.,13.75,-1.));
#292 = DIRECTION('',(0.242535625036,0.970142500145,0.));
#293 = DIRECTION('',(0.970142500145,-0.242535625036,0.));
#294 = ADVANCED_FACE('',(#295),#393,.F.);
#295 = FACE_BOUND('',#296,.F.);
#296 = EDGE_LOOP('',(#297,#298,#306,#314,#322,#330,#338,#346,#354,#362,
    #370,#378,#386,#392));
#297 = ORIENTED_EDGE('',*,*,#39,.F.);
#298 = ORIENTED_EDGE('',*,*,#299,.T.);
#299 = EDGE_CURVE('',#32,#300,#302,.T.);
#300 = VERTEX_POINT('',#301);
#301 = CARTESIAN_POINT('',(43.,0.,0.));
#302 = LINE('',#303,#304);
#303 = CARTESIAN_POINT('',(0.,0.,0.));
#304 = VECTOR('',#305,1.);
#305 = DIRECTION('',(1.,0.,0.));
#306 = ORIENTED_EDGE('',*,*,#307,.T.);
#307 = EDGE_CURVE('',#300,#308,#310,.T.);
#308 = VERTEX_POINT('',#309);
#309 = CARTESIAN_POINT('',(43.,13.75,0.));
#310 = LINE('',#311,#312);
#311 = CARTESIAN_POINT('',(43.,0.,0.));
#312 = VECTOR('',#313,1.);
#313 = DIRECTION('',(0.,1.,0.));
#314 = ORIENTED_EDGE('',*,*,#315,.T.);
#315 = EDGE_CURVE('',#308,#316,#318,.T.);
#316 = VERTEX_POINT('',#317);
#317 = CARTESIAN_POINT('',(43.,13.875609756098,0.));
#318 = LINE('',#319,#320);
#319 = CARTESIAN_POINT('',(43.,0.,0.));
#320 = VECTOR('',#321,1.);
#321 = DIRECTION('',(0.,1.,0.));
#322 = ORIENTED_EDGE('',*,*,#323,.F.);
#323 = EDGE_CURVE('',#324,#316,#326,.T.);
#324 = VERTEX_POINT('',#325);
#325 = CARTESIAN_POINT('',(42.9,13.9,0.));
#326 = LINE('',#327,#328);
#327 = CARTESIAN_POINT('',(42.9,13.9,0.));
#328 = VECTOR('',#329,1.);
#329 = DIRECTION('',(0.971520338783,-0.236956180191,0.));
#330 = ORIENTED_EDGE('',*,*,#331,.F.);
#331 = EDGE_CURVE('',#332,#324,#334,.T.);
#332 = VERTEX_POINT('',#333);
#333 = CARTESIAN_POINT('',(42.9,17.9,0.));
#334 = LINE('',#335,#336);
#335 = CARTESIAN_POINT('',(42.9,17.9,0.));
#336 = VECTOR('',#337,1.);
#337 = DIRECTION('',(0.,-1.,0.));
#338 = ORIENTED_EDGE('',*,*,#339,.F.);
#339 = EDGE_CURVE('',#340,#332,#342,.T.);
#340 = VERTEX_POINT('',#341);
#341 = CARTESIAN_POINT('',(43.,17.924390243902,0.));
#342 = LINE('',#343,#344);
#343 = CARTESIAN_POINT('',(47.,18.9,0.));
#344 = VECTOR('',#345,1.);
#345 = DIRECTION('',(-0.971520338783,-0.236956180191,0.));
#346 = ORIENTED_EDGE('',*,*,#347,.T.);
#347 = EDGE_CURVE('',#340,#348,#350,.T.);
#348 = VERTEX_POINT('',#349);
#349 = CARTESIAN_POINT('',(43.,18.05,0.));
#350 = LINE('',#351,#352);
#351 = CARTESIAN_POINT('',(43.,0.,0.));
#352 = VECTOR('',#353,1.);
#353 = DIRECTION('',(0.,1.,0.));
#354 = ORIENTED_EDGE('',*,*,#355,.T.);
#355 = EDGE_CURVE('',#348,#356,#358,.T.);
#356 = VERTEX_POINT('',#357);
#357 = CARTESIAN_POINT('',(43.,53.,0.));
#358 = LINE('',#359,#360);
#359 = CARTESIAN_POINT('',(43.,0.,0.));
#360 = VECTOR('',#361,1.);
#361 = DIRECTION('',(0.,1.,0.));
#362 = ORIENTED_EDGE('',*,*,#363,.F.);
#363 = EDGE_CURVE('',#364,#356,#366,.T.);
#364 = VERTEX_POINT('',#365);
#365 = CARTESIAN_POINT('',(0.,53.,0.));
#366 = LINE('',#367,#368);
#367 = CARTESIAN_POINT('',(0.,53.,0.));
#368 = VECTOR('',#369,1.);
#369 = DIRECTION('',(1.,0.,0.));
#370 = ORIENTED_EDGE('',*,*,#371,.F.);
#371 = EDGE_CURVE('',#372,#364,#374,.T.);
#372 = VERTEX_POINT('',#373);
#373 = CARTESIAN_POINT('',(0.,18.05,0.));
#374 = LINE('',#375,#376);
#375 = CARTESIAN_POINT('',(0.,0.,0.));
#376 = VECTOR('',#377,1.);
#377 = DIRECTION('',(0.,1.,0.));
#378 = ORIENTED_EDGE('',*,*,#379,.T.);
#379 = EDGE_CURVE('',#372,#380,#382,.T.);
#380 = VERTEX_POINT('',#381);
#381 = CARTESIAN_POINT('',(4.,19.05,0.));
#382 = LINE('',#383,#384);
#383 = CARTESIAN_POINT('',(-0.123529411765,18.019117647059,0.));
#384 = VECTOR('',#385,1.);
#385 = DIRECTION('',(0.970142500145,0.242535625036,0.));
#386 = ORIENTED_EDGE('',*,*,#387,.T.);
#387 = EDGE_CURVE('',#380,#275,#388,.T.);
#388 = LINE('',#389,#390);
#389 = CARTESIAN_POINT('',(4.,6.375,0.));
#390 = VECTOR('',#391,1.);
#391 = DIRECTION('',(0.,-1.,0.));
#392 = ORIENTED_EDGE('',*,*,#274,.T.);
#393 = PLANE('',#394);
#394 = AXIS2_PLACEMENT_3D('',#395,#396,#397);
#395 = CARTESIAN_POINT('',(0.,0.,0.));
#396 = DIRECTION('',(0.,0.,1.));
#397 = DIRECTION('',(1.,0.,0.));
#398 = ADVANCED_FACE('',(#399),#433,.T.);
#399 = FACE_BOUND('',#400,.T.);
#400 = EDGE_LOOP('',(#401,#402,#403,#404,#410,#411,#419,#427));
#401 = ORIENTED_EDGE('',*,*,#62,.F.);
#402 = ORIENTED_EDGE('',*,*,#31,.T.);
#403 = ORIENTED_EDGE('',*,*,#299,.T.);
#404 = ORIENTED_EDGE('',*,*,#405,.F.);
#405 = EDGE_CURVE('',#95,#300,#406,.T.);
#406 = LINE('',#407,#408);
#407 = CARTESIAN_POINT('',(43.,0.,0.));
#408 = VECTOR('',#409,1.);
#409 = DIRECTION('',(0.,-0.342020143326,-0.939692620786));
#410 = ORIENTED_EDGE('',*,*,#94,.F.);
#411 = ORIENTED_EDGE('',*,*,#412,.F.);
#412 = EDGE_CURVE('',#413,#87,#415,.T.);
#413 = VERTEX_POINT('',#414);
#414 = CARTESIAN_POINT('',(23.15,0.363970234266,1.));
#415 = LINE('',#416,#417);
#416 = CARTESIAN_POINT('',(23.15,0.363970234266,1.));
#417 = VECTOR('',#418,1.);
#418 = DIRECTION('',(0.,0.342020143326,0.939692620786));
#419 = ORIENTED_EDGE('',*,*,#420,.T.);
#420 = EDGE_CURVE('',#413,#421,#423,.T.);
#421 = VERTEX_POINT('',#422);
#422 = CARTESIAN_POINT('',(19.85,0.363970234266,1.));
#423 = LINE('',#424,#425);
#424 = CARTESIAN_POINT('',(23.15,0.363970234266,1.));
#425 = VECTOR('',#426,1.);
#426 = DIRECTION('',(-1.,0.,0.));
#427 = ORIENTED_EDGE('',*,*,#428,.T.);
#428 = EDGE_CURVE('',#421,#63,#429,.T.);
#429 = LINE('',#430,#431);
#430 = CARTESIAN_POINT('',(19.85,0.363970234266,1.));
#431 = VECTOR('',#432,1.);
#432 = DIRECTION('',(0.,0.342020143326,0.939692620786));
#433 = PLANE('',#434);
#434 = AXIS2_PLACEMENT_3D('',#435,#436,#437);
#435 = CARTESIAN_POINT('',(-1.,0.,0.));
#436 = DIRECTION('',(0.,-0.939692620786,0.342020143326));
#437 = DIRECTION('',(0.,0.342020143326,0.939692620786));
#438 = ADVANCED_FACE('',(#439),#450,.T.);
#439 = FACE_BOUND('',#440,.T.);
#440 = EDGE_LOOP('',(#441,#442,#443,#444));
#441 = ORIENTED_EDGE('',*,*,#387,.T.);
#442 = ORIENTED_EDGE('',*,*,#284,.T.);
#443 = ORIENTED_EDGE('',*,*,#182,.F.);
#444 = ORIENTED_EDGE('',*,*,#445,.F.);
#445 = EDGE_CURVE('',#380,#175,#446,.T.);
#446 = LINE('',#447,#448);
#447 = CARTESIAN_POINT('',(4.,19.05,-1.));
#448 = VECTOR('',#449,1.);
#449 = DIRECTION('',(0.,0.,1.));
#450 = PLANE('',#451);
#451 = AXIS2_PLACEMENT_3D('',#452,#453,#454);
#452 = CARTESIAN_POINT('',(4.,12.75,-1.));
#453 = DIRECTION('',(-1.,0.,0.));
#454 = DIRECTION('',(0.,1.,0.));
#455 = ADVANCED_FACE('',(#456),#467,.T.);
#456 = FACE_BOUND('',#457,.T.);
#457 = EDGE_LOOP('',(#458,#459,#460,#461));
#458 = ORIENTED_EDGE('',*,*,#379,.T.);
#459 = ORIENTED_EDGE('',*,*,#445,.T.);
#460 = ORIENTED_EDGE('',*,*,#174,.F.);
#461 = ORIENTED_EDGE('',*,*,#462,.F.);
#462 = EDGE_CURVE('',#372,#167,#463,.T.);
#463 = LINE('',#464,#465);
#464 = CARTESIAN_POINT('',(0.,18.05,-1.));
#465 = VECTOR('',#466,1.);
#466 = DIRECTION('',(0.,0.,1.));
#467 = PLANE('',#468);
#468 = AXIS2_PLACEMENT_3D('',#469,#470,#471);
#469 = CARTESIAN_POINT('',(4.,19.05,-1.));
#470 = DIRECTION('',(0.242535625036,-0.970142500145,0.));
#471 = DIRECTION('',(-0.970142500145,-0.242535625036,0.));
#472 = ADVANCED_FACE('',(#473),#484,.F.);
#473 = FACE_BOUND('',#474,.F.);
#474 = EDGE_LOOP('',(#475,#476,#477,#478));
#475 = ORIENTED_EDGE('',*,*,#166,.F.);
#476 = ORIENTED_EDGE('',*,*,#462,.F.);
#477 = ORIENTED_EDGE('',*,*,#371,.T.);
#478 = ORIENTED_EDGE('',*,*,#479,.T.);
#479 = EDGE_CURVE('',#364,#159,#480,.T.);
#480 = LINE('',#481,#482);
#481 = CARTESIAN_POINT('',(0.,53.,0.));
#482 = VECTOR('',#483,1.);
#483 = DIRECTION('',(0.,0.,1.));
#484 = PLANE('',#485);
#485 = AXIS2_PLACEMENT_3D('',#486,#487,#488);
#486 = CARTESIAN_POINT('',(0.,0.,0.));
#487 = DIRECTION('',(1.,0.,0.));
#488 = DIRECTION('',(0.,0.,1.));
#489 = ADVANCED_FACE('',(#490),#501,.T.);
#490 = FACE_BOUND('',#491,.T.);
#491 = EDGE_LOOP('',(#492,#493,#494,#495));
#492 = ORIENTED_EDGE('',*,*,#363,.F.);
#493 = ORIENTED_EDGE('',*,*,#479,.T.);
#494 = ORIENTED_EDGE('',*,*,#158,.T.);
#495 = ORIENTED_EDGE('',*,*,#496,.F.);
#496 = EDGE_CURVE('',#356,#151,#497,.T.);
#497 = LINE('',#498,#499);
#498 = CARTESIAN_POINT('',(43.,53.,0.));
#499 = VECTOR('',#500,1.);
#500 = DIRECTION('',(0.,0.,1.));
#501 = PLANE('',#502);
#502 = AXIS2_PLACEMENT_3D('',#503,#504,#505);
#503 = CARTESIAN_POINT('',(0.,53.,0.));
#504 = DIRECTION('',(0.,1.,0.));
#505 = DIRECTION('',(0.,0.,1.));
#506 = ADVANCED_FACE('',(#507),#523,.T.);
#507 = FACE_BOUND('',#508,.T.);
#508 = EDGE_LOOP('',(#509,#510,#516,#517));
#509 = ORIENTED_EDGE('',*,*,#142,.F.);
#510 = ORIENTED_EDGE('',*,*,#511,.T.);
#511 = EDGE_CURVE('',#135,#340,#512,.T.);
#512 = LINE('',#513,#514);
#513 = CARTESIAN_POINT('',(43.,17.924390243902,0.));
#514 = VECTOR('',#515,1.);
#515 = DIRECTION('',(0.,0.,-1.));
#516 = ORIENTED_EDGE('',*,*,#347,.T.);
#517 = ORIENTED_EDGE('',*,*,#518,.T.);
#518 = EDGE_CURVE('',#348,#143,#519,.T.);
#519 = LINE('',#520,#521);
#520 = CARTESIAN_POINT('',(43.,18.05,-1.));
#521 = VECTOR('',#522,1.);
#522 = DIRECTION('',(0.,0.,1.));
#523 = PLANE('',#524);
#524 = AXIS2_PLACEMENT_3D('',#525,#526,#527);
#525 = CARTESIAN_POINT('',(43.,0.,0.));
#526 = DIRECTION('',(1.,0.,0.));
#527 = DIRECTION('',(0.,0.,1.));
#528 = ADVANCED_FACE('',(#529,#657),#727,.T.);
#529 = FACE_BOUND('',#530,.T.);
#530 = EDGE_LOOP('',(#531,#532,#540,#548,#556,#564,#572,#580,#588,#596,
    #604,#612,#618,#619,#627,#635,#643,#651));
#531 = ORIENTED_EDGE('',*,*,#102,.F.);
#532 = ORIENTED_EDGE('',*,*,#533,.T.);
#533 = EDGE_CURVE('',#95,#534,#536,.T.);
#534 = VERTEX_POINT('',#535);
#535 = CARTESIAN_POINT('',(62.85,3.639702342662,10.));
#536 = LINE('',#537,#538);
#537 = CARTESIAN_POINT('',(42.,3.639702342662,10.));
#538 = VECTOR('',#539,1.);
#539 = DIRECTION('',(1.,0.,0.));
#540 = ORIENTED_EDGE('',*,*,#541,.F.);
#541 = EDGE_CURVE('',#542,#534,#544,.T.);
#542 = VERTEX_POINT('',#543);
#543 = CARTESIAN_POINT('',(62.1,5.768057887614,10.));
#544 = LINE('',#545,#546);
#545 = CARTESIAN_POINT('',(62.837555217401,3.67501823873,10.));
#546 = VECTOR('',#547,1.);
#547 = DIRECTION('',(0.33235339747,-0.943154928519,0.));
#548 = ORIENTED_EDGE('',*,*,#549,.F.);
#549 = EDGE_CURVE('',#550,#542,#552,.T.);
#550 = VERTEX_POINT('',#551);
#551 = CARTESIAN_POINT('',(66.9,5.768057887614,10.));
#552 = LINE('',#553,#554);
#553 = CARTESIAN_POINT('',(52.55,5.768057887614,10.));
#554 = VECTOR('',#555,1.);
#555 = DIRECTION('',(-1.,0.,0.));
#556 = ORIENTED_EDGE('',*,*,#557,.F.);
#557 = EDGE_CURVE('',#558,#550,#560,.T.);
#558 = VERTEX_POINT('',#559);
#559 = CARTESIAN_POINT('',(66.15,3.639702342662,10.));
#560 = LINE('',#561,#562);
#561 = CARTESIAN_POINT('',(64.123559786814,-2.110944676334,10.));
#562 = VECTOR('',#563,1.);
#563 = DIRECTION('',(0.33235339747,0.943154928519,0.));
#564 = ORIENTED_EDGE('',*,*,#565,.T.);
#565 = EDGE_CURVE('',#558,#566,#568,.T.);
#566 = VERTEX_POINT('',#567);
#567 = CARTESIAN_POINT('',(86.,3.639702342662,10.));
#568 = LINE('',#569,#570);
#569 = CARTESIAN_POINT('',(42.,3.639702342662,10.));
#570 = VECTOR('',#571,1.);
#571 = DIRECTION('',(1.,0.,0.));
#572 = ORIENTED_EDGE('',*,*,#573,.T.);
#573 = EDGE_CURVE('',#566,#574,#576,.T.);
#574 = VERTEX_POINT('',#575);
#575 = CARTESIAN_POINT('',(86.,13.875609756098,10.));
#576 = LINE('',#577,#578);
#577 = CARTESIAN_POINT('',(86.,0.,10.));
#578 = VECTOR('',#579,1.);
#579 = DIRECTION('',(0.,1.,0.));
#580 = ORIENTED_EDGE('',*,*,#581,.F.);
#581 = EDGE_CURVE('',#582,#574,#584,.T.);
#582 = VERTEX_POINT('',#583);
#583 = CARTESIAN_POINT('',(85.9,13.9,10.));
#584 = LINE('',#585,#586);
#585 = CARTESIAN_POINT('',(85.9,13.9,10.));
#586 = VECTOR('',#587,1.);
#587 = DIRECTION('',(0.971520338783,-0.236956180191,0.));
#588 = ORIENTED_EDGE('',*,*,#589,.F.);
#589 = EDGE_CURVE('',#590,#582,#592,.T.);
#590 = VERTEX_POINT('',#591);
#591 = CARTESIAN_POINT('',(85.9,17.9,10.));
#592 = LINE('',#593,#594);
#593 = CARTESIAN_POINT('',(85.9,17.9,10.));
#594 = VECTOR('',#595,1.);
#595 = DIRECTION('',(0.,-1.,0.));
#596 = ORIENTED_EDGE('',*,*,#597,.F.);
#597 = EDGE_CURVE('',#598,#590,#600,.T.);
#598 = VERTEX_POINT('',#599);
#599 = CARTESIAN_POINT('',(86.,17.924390243902,10.));
#600 = LINE('',#601,#602);
#601 = CARTESIAN_POINT('',(90.,18.9,10.));
#602 = VECTOR('',#603,1.);
#603 = DIRECTION('',(-0.971520338783,-0.236956180191,0.));
#604 = ORIENTED_EDGE('',*,*,#605,.T.);
#605 = EDGE_CURVE('',#598,#606,#608,.T.);
#606 = VERTEX_POINT('',#607);
#607 = CARTESIAN_POINT('',(86.,53.,10.));
#608 = LINE('',#609,#610);
#609 = CARTESIAN_POINT('',(86.,0.,10.));
#610 = VECTOR('',#611,1.);
#611 = DIRECTION('',(0.,1.,0.));
#612 = ORIENTED_EDGE('',*,*,#613,.F.);
#613 = EDGE_CURVE('',#151,#606,#614,.T.);
#614 = LINE('',#615,#616);
#615 = CARTESIAN_POINT('',(43.,53.,10.));
#616 = VECTOR('',#617,1.);
#617 = DIRECTION('',(1.,0.,0.));
#618 = ORIENTED_EDGE('',*,*,#150,.F.);
#619 = ORIENTED_EDGE('',*,*,#620,.T.);
#620 = EDGE_CURVE('',#143,#621,#623,.T.);
#621 = VERTEX_POINT('',#622);
#622 = CARTESIAN_POINT('',(47.,19.05,10.));
#623 = LINE('',#624,#625);
#624 = CARTESIAN_POINT('',(42.876470588235,18.019117647059,10.));
#625 = VECTOR('',#626,1.);
#626 = DIRECTION('',(0.970142500145,0.242535625036,0.));
#627 = ORIENTED_EDGE('',*,*,#628,.T.);
#628 = EDGE_CURVE('',#621,#629,#631,.T.);
#629 = VERTEX_POINT('',#630);
#630 = CARTESIAN_POINT('',(47.,18.9,10.));
#631 = LINE('',#632,#633);
#632 = CARTESIAN_POINT('',(47.,6.375,10.));
#633 = VECTOR('',#634,1.);
#634 = DIRECTION('',(0.,-1.,0.));
#635 = ORIENTED_EDGE('',*,*,#636,.F.);
#636 = EDGE_CURVE('',#637,#629,#639,.T.);
#637 = VERTEX_POINT('',#638);
#638 = CARTESIAN_POINT('',(47.,12.9,10.));
#639 = LINE('',#640,#641);
#640 = CARTESIAN_POINT('',(47.,12.9,10.));
#641 = VECTOR('',#642,1.);
#642 = DIRECTION('',(0.,1.,0.));
#643 = ORIENTED_EDGE('',*,*,#644,.T.);
#644 = EDGE_CURVE('',#637,#645,#647,.T.);
#645 = VERTEX_POINT('',#646);
#646 = CARTESIAN_POINT('',(47.,12.75,10.));
#647 = LINE('',#648,#649);
#648 = CARTESIAN_POINT('',(47.,6.375,10.));
#649 = VECTOR('',#650,1.);
#650 = DIRECTION('',(0.,-1.,0.));
#651 = ORIENTED_EDGE('',*,*,#652,.T.);
#652 = EDGE_CURVE('',#645,#103,#653,.T.);
#653 = LINE('',#654,#655);
#654 = CARTESIAN_POINT('',(44.617647058824,13.345588235294,10.));
#655 = VECTOR('',#656,1.);
#656 = DIRECTION('',(-0.970142500145,0.242535625036,0.));
#657 = FACE_BOUND('',#658,.T.);
#658 = EDGE_LOOP('',(#659,#670,#678,#687,#695,#704,#712,#721));
#659 = ORIENTED_EDGE('',*,*,#660,.F.);
#660 = EDGE_CURVE('',#661,#663,#665,.T.);
#661 = VERTEX_POINT('',#662);
#662 = CARTESIAN_POINT('',(61.185,36.775,10.));
#663 = VERTEX_POINT('',#664);
#664 = CARTESIAN_POINT('',(60.585,36.175,10.));
#665 = CIRCLE('',#666,0.6);
#666 = AXIS2_PLACEMENT_3D('',#667,#668,#669);
#667 = CARTESIAN_POINT('',(61.185,36.175,10.));
#668 = DIRECTION('',(0.,-0.,1.));
#669 = DIRECTION('',(0.,1.,0.));
#670 = ORIENTED_EDGE('',*,*,#671,.T.);
#671 = EDGE_CURVE('',#661,#672,#674,.T.);
#672 = VERTEX_POINT('',#673);
#673 = CARTESIAN_POINT('',(67.815,36.775,10.));
#674 = LINE('',#675,#676);
#675 = CARTESIAN_POINT('',(55.7075,36.775,10.));
#676 = VECTOR('',#677,1.);
#677 = DIRECTION('',(1.,0.,0.));
#678 = ORIENTED_EDGE('',*,*,#679,.F.);
#679 = EDGE_CURVE('',#680,#672,#682,.T.);
#680 = VERTEX_POINT('',#681);
#681 = CARTESIAN_POINT('',(68.415,36.175,10.));
#682 = CIRCLE('',#683,0.6);
#683 = AXIS2_PLACEMENT_3D('',#684,#685,#686);
#684 = CARTESIAN_POINT('',(67.815,36.175,10.));
#685 = DIRECTION('',(0.,-0.,1.));
#686 = DIRECTION('',(0.,1.,0.));
#687 = ORIENTED_EDGE('',*,*,#688,.T.);
#688 = EDGE_CURVE('',#680,#689,#691,.T.);
#689 = VERTEX_POINT('',#690);
#690 = CARTESIAN_POINT('',(68.415,29.545,10.));
#691 = LINE('',#692,#693);
#692 = CARTESIAN_POINT('',(68.415,14.4725,10.));
#693 = VECTOR('',#694,1.);
#694 = DIRECTION('',(0.,-1.,0.));
#695 = ORIENTED_EDGE('',*,*,#696,.F.);
#696 = EDGE_CURVE('',#697,#689,#699,.T.);
#697 = VERTEX_POINT('',#698);
#698 = CARTESIAN_POINT('',(67.815,28.945,10.));
#699 = CIRCLE('',#700,0.6);
#700 = AXIS2_PLACEMENT_3D('',#701,#702,#703);
#701 = CARTESIAN_POINT('',(67.815,29.545,10.));
#702 = DIRECTION('',(-0.,0.,1.));
#703 = DIRECTION('',(0.,-1.,0.));
#704 = ORIENTED_EDGE('',*,*,#705,.T.);
#705 = EDGE_CURVE('',#697,#706,#708,.T.);
#706 = VERTEX_POINT('',#707);
#707 = CARTESIAN_POINT('',(61.185,28.945,10.));
#708 = LINE('',#709,#710);
#709 = CARTESIAN_POINT('',(51.7925,28.945,10.));
#710 = VECTOR('',#711,1.);
#711 = DIRECTION('',(-1.,0.,0.));
#712 = ORIENTED_EDGE('',*,*,#713,.F.);
#713 = EDGE_CURVE('',#714,#706,#716,.T.);
#714 = VERTEX_POINT('',#715);
#715 = CARTESIAN_POINT('',(60.585,29.545,10.));
#716 = CIRCLE('',#717,0.6);
#717 = AXIS2_PLACEMENT_3D('',#718,#719,#720);
#718 = CARTESIAN_POINT('',(61.185,29.545,10.));
#719 = DIRECTION('',(0.,0.,1.));
#720 = DIRECTION('',(-1.,0.,0.));
#721 = ORIENTED_EDGE('',*,*,#722,.T.);
#722 = EDGE_CURVE('',#714,#663,#723,.T.);
#723 = LINE('',#724,#725);
#724 = CARTESIAN_POINT('',(60.585,18.3875,10.));
#725 = VECTOR('',#726,1.);
#726 = DIRECTION('',(0.,1.,0.));
#727 = PLANE('',#728);
#728 = AXIS2_PLACEMENT_3D('',#729,#730,#731);
#729 = CARTESIAN_POINT('',(43.,0.,10.));
#730 = DIRECTION('',(0.,0.,1.));
#731 = DIRECTION('',(1.,0.,0.));
#732 = ADVANCED_FACE('',(#733),#744,.T.);
#733 = FACE_BOUND('',#734,.T.);
#734 = EDGE_LOOP('',(#735,#736,#742,#743));
#735 = ORIENTED_EDGE('',*,*,#118,.T.);
#736 = ORIENTED_EDGE('',*,*,#737,.T.);
#737 = EDGE_CURVE('',#111,#135,#738,.T.);
#738 = LINE('',#739,#740);
#739 = CARTESIAN_POINT('',(43.,0.,10.));
#740 = VECTOR('',#741,1.);
#741 = DIRECTION('',(0.,1.,0.));
#742 = ORIENTED_EDGE('',*,*,#134,.T.);
#743 = ORIENTED_EDGE('',*,*,#126,.T.);
#744 = PLANE('',#745);
#745 = AXIS2_PLACEMENT_3D('',#746,#747,#748);
#746 = CARTESIAN_POINT('',(0.,0.,10.));
#747 = DIRECTION('',(0.,0.,1.));
#748 = DIRECTION('',(1.,0.,0.));
#749 = ADVANCED_FACE('',(#750),#766,.T.);
#750 = FACE_BOUND('',#751,.T.);
#751 = EDGE_LOOP('',(#752,#753,#759,#760));
#752 = ORIENTED_EDGE('',*,*,#110,.F.);
#753 = ORIENTED_EDGE('',*,*,#754,.F.);
#754 = EDGE_CURVE('',#308,#103,#755,.T.);
#755 = LINE('',#756,#757);
#756 = CARTESIAN_POINT('',(43.,13.75,-1.));
#757 = VECTOR('',#758,1.);
#758 = DIRECTION('',(0.,0.,1.));
#759 = ORIENTED_EDGE('',*,*,#315,.T.);
#760 = ORIENTED_EDGE('',*,*,#761,.T.);
#761 = EDGE_CURVE('',#316,#111,#762,.T.);
#762 = LINE('',#763,#764);
#763 = CARTESIAN_POINT('',(43.,13.875609756098,0.));
#764 = VECTOR('',#765,1.);
#765 = DIRECTION('',(0.,0.,1.));
#766 = PLANE('',#767);
#767 = AXIS2_PLACEMENT_3D('',#768,#769,#770);
#768 = CARTESIAN_POINT('',(43.,0.,0.));
#769 = DIRECTION('',(1.,0.,0.));
#770 = DIRECTION('',(0.,0.,1.));
#771 = ADVANCED_FACE('',(#772),#790,.F.);
#772 = FACE_BOUND('',#773,.F.);
#773 = EDGE_LOOP('',(#774,#782,#788,#789));
#774 = ORIENTED_EDGE('',*,*,#775,.F.);
#775 = EDGE_CURVE('',#776,#413,#778,.T.);
#776 = VERTEX_POINT('',#777);
#777 = CARTESIAN_POINT('',(23.9,2.243355475838,0.315959713349));
#778 = LINE('',#779,#780);
#779 = CARTESIAN_POINT('',(23.9,2.243355475838,0.315959713349));
#780 = VECTOR('',#781,1.);
#781 = DIRECTION('',(-0.351123441588,-0.879861618788,0.320243439512));
#782 = ORIENTED_EDGE('',*,*,#783,.T.);
#783 = EDGE_CURVE('',#776,#79,#784,.T.);
#784 = LINE('',#785,#786);
#785 = CARTESIAN_POINT('',(23.9,2.243355475838,0.315959713349));
#786 = VECTOR('',#787,1.);
#787 = DIRECTION('',(0.,0.342020143326,0.939692620786));
#788 = ORIENTED_EDGE('',*,*,#86,.F.);
#789 = ORIENTED_EDGE('',*,*,#412,.F.);
#790 = PLANE('',#791);
#791 = AXIS2_PLACEMENT_3D('',#792,#793,#794);
#792 = CARTESIAN_POINT('',(23.9,2.243355475838,0.315959713349));
#793 = DIRECTION('',(0.936329177569,-0.329948107046,0.120091289817));
#794 = DIRECTION('',(-0.351123441588,-0.879861618788,0.320243439512));
#795 = ADVANCED_FACE('',(#796),#814,.F.);
#796 = FACE_BOUND('',#797,.F.);
#797 = EDGE_LOOP('',(#798,#806,#812,#813));
#798 = ORIENTED_EDGE('',*,*,#799,.F.);
#799 = EDGE_CURVE('',#800,#776,#802,.T.);
#800 = VERTEX_POINT('',#801);
#801 = CARTESIAN_POINT('',(19.1,2.243355475838,0.315959713349));
#802 = LINE('',#803,#804);
#803 = CARTESIAN_POINT('',(19.1,2.243355475838,0.315959713349));
#804 = VECTOR('',#805,1.);
#805 = DIRECTION('',(1.,0.,0.));
#806 = ORIENTED_EDGE('',*,*,#807,.T.);
#807 = EDGE_CURVE('',#800,#71,#808,.T.);
#808 = LINE('',#809,#810);
#809 = CARTESIAN_POINT('',(19.1,2.243355475838,0.315959713349));
#810 = VECTOR('',#811,1.);
#811 = DIRECTION('',(0.,0.342020143326,0.939692620786));
#812 = ORIENTED_EDGE('',*,*,#78,.F.);
#813 = ORIENTED_EDGE('',*,*,#783,.F.);
#814 = PLANE('',#815);
#815 = AXIS2_PLACEMENT_3D('',#816,#817,#818);
#816 = CARTESIAN_POINT('',(19.1,2.243355475838,0.315959713349));
#817 = DIRECTION('',(0.,0.939692620786,-0.342020143326));
#818 = DIRECTION('',(1.,0.,0.));
#819 = ADVANCED_FACE('',(#820),#831,.F.);
#820 = FACE_BOUND('',#821,.F.);
#821 = EDGE_LOOP('',(#822,#828,#829,#830));
#822 = ORIENTED_EDGE('',*,*,#823,.F.);
#823 = EDGE_CURVE('',#421,#800,#824,.T.);
#824 = LINE('',#825,#826);
#825 = CARTESIAN_POINT('',(19.85,0.363970234266,1.));
#826 = VECTOR('',#827,1.);
#827 = DIRECTION('',(-0.351123441588,0.879861618788,-0.320243439512));
#828 = ORIENTED_EDGE('',*,*,#428,.T.);
#829 = ORIENTED_EDGE('',*,*,#70,.F.);
#830 = ORIENTED_EDGE('',*,*,#807,.F.);
#831 = PLANE('',#832);
#832 = AXIS2_PLACEMENT_3D('',#833,#834,#835);
#833 = CARTESIAN_POINT('',(19.85,0.363970234266,1.));
#834 = DIRECTION('',(-0.936329177569,-0.329948107046,0.120091289817));
#835 = DIRECTION('',(-0.351123441588,0.879861618788,-0.320243439512));
#836 = ADVANCED_FACE('',(#837),#863,.T.);
#837 = FACE_BOUND('',#838,.T.);
#838 = EDGE_LOOP('',(#839,#847,#848,#856));
#839 = ORIENTED_EDGE('',*,*,#840,.F.);
#840 = EDGE_CURVE('',#199,#841,#843,.T.);
#841 = VERTEX_POINT('',#842);
#842 = CARTESIAN_POINT('',(18.185,36.775,20.5));
#843 = LINE('',#844,#845);
#844 = CARTESIAN_POINT('',(18.185,36.775,9.9));
#845 = VECTOR('',#846,1.);
#846 = DIRECTION('',(0.,0.,1.));
#847 = ORIENTED_EDGE('',*,*,#198,.T.);
#848 = ORIENTED_EDGE('',*,*,#849,.T.);
#849 = EDGE_CURVE('',#201,#850,#852,.T.);
#850 = VERTEX_POINT('',#851);
#851 = CARTESIAN_POINT('',(17.585,36.175,20.5));
#852 = LINE('',#853,#854);
#853 = CARTESIAN_POINT('',(17.585,36.175,9.9));
#854 = VECTOR('',#855,1.);
#855 = DIRECTION('',(0.,0.,1.));
#856 = ORIENTED_EDGE('',*,*,#857,.F.);
#857 = EDGE_CURVE('',#841,#850,#858,.T.);
#858 = CIRCLE('',#859,0.6);
#859 = AXIS2_PLACEMENT_3D('',#860,#861,#862);
#860 = CARTESIAN_POINT('',(18.185,36.175,20.5));
#861 = DIRECTION('',(0.,-0.,1.));
#862 = DIRECTION('',(0.,1.,0.));
#863 = CYLINDRICAL_SURFACE('',#864,0.6);
#864 = AXIS2_PLACEMENT_3D('',#865,#866,#867);
#865 = CARTESIAN_POINT('',(18.185,36.175,9.9));
#866 = DIRECTION('',(0.,0.,1.));
#867 = DIRECTION('',(0.,1.,0.));
#868 = ADVANCED_FACE('',(#869),#887,.F.);
#869 = FACE_BOUND('',#870,.F.);
#870 = EDGE_LOOP('',(#871,#872,#880,#886));
#871 = ORIENTED_EDGE('',*,*,#209,.T.);
#872 = ORIENTED_EDGE('',*,*,#873,.T.);
#873 = EDGE_CURVE('',#210,#874,#876,.T.);
#874 = VERTEX_POINT('',#875);
#875 = CARTESIAN_POINT('',(24.815,36.775,20.5));
#876 = LINE('',#877,#878);
#877 = CARTESIAN_POINT('',(24.815,36.775,9.9));
#878 = VECTOR('',#879,1.);
#879 = DIRECTION('',(0.,0.,1.));
#880 = ORIENTED_EDGE('',*,*,#881,.T.);
#881 = EDGE_CURVE('',#874,#841,#882,.T.);
#882 = LINE('',#883,#884);
#883 = CARTESIAN_POINT('',(24.815,36.775,20.5));
#884 = VECTOR('',#885,1.);
#885 = DIRECTION('',(-1.,0.,0.));
#886 = ORIENTED_EDGE('',*,*,#840,.F.);
#887 = PLANE('',#888);
#888 = AXIS2_PLACEMENT_3D('',#889,#890,#891);
#889 = CARTESIAN_POINT('',(25.415,36.775,9.9));
#890 = DIRECTION('',(0.,-1.,0.));
#891 = DIRECTION('',(-1.,0.,0.));
#892 = ADVANCED_FACE('',(#893),#911,.F.);
#893 = FACE_BOUND('',#894,.F.);
#894 = EDGE_LOOP('',(#895,#896,#897,#905));
#895 = ORIENTED_EDGE('',*,*,#260,.T.);
#896 = ORIENTED_EDGE('',*,*,#849,.T.);
#897 = ORIENTED_EDGE('',*,*,#898,.T.);
#898 = EDGE_CURVE('',#850,#899,#901,.T.);
#899 = VERTEX_POINT('',#900);
#900 = CARTESIAN_POINT('',(17.585,29.545,20.5));
#901 = LINE('',#902,#903);
#902 = CARTESIAN_POINT('',(17.585,36.175,20.5));
#903 = VECTOR('',#904,1.);
#904 = DIRECTION('',(0.,-1.,0.));
#905 = ORIENTED_EDGE('',*,*,#906,.F.);
#906 = EDGE_CURVE('',#252,#899,#907,.T.);
#907 = LINE('',#908,#909);
#908 = CARTESIAN_POINT('',(17.585,29.545,9.9));
#909 = VECTOR('',#910,1.);
#910 = DIRECTION('',(0.,0.,1.));
#911 = PLANE('',#912);
#912 = AXIS2_PLACEMENT_3D('',#913,#914,#915);
#913 = CARTESIAN_POINT('',(17.585,36.775,9.9));
#914 = DIRECTION('',(1.,0.,0.));
#915 = DIRECTION('',(0.,-1.,0.));
#916 = ADVANCED_FACE('',(#917),#936,.T.);
#917 = FACE_BOUND('',#918,.F.);
#918 = EDGE_LOOP('',(#919,#920,#921,#929));
#919 = ORIENTED_EDGE('',*,*,#873,.F.);
#920 = ORIENTED_EDGE('',*,*,#217,.F.);
#921 = ORIENTED_EDGE('',*,*,#922,.T.);
#922 = EDGE_CURVE('',#218,#923,#925,.T.);
#923 = VERTEX_POINT('',#924);
#924 = CARTESIAN_POINT('',(25.415,36.175,20.5));
#925 = LINE('',#926,#927);
#926 = CARTESIAN_POINT('',(25.415,36.175,9.9));
#927 = VECTOR('',#928,1.);
#928 = DIRECTION('',(0.,0.,1.));
#929 = ORIENTED_EDGE('',*,*,#930,.T.);
#930 = EDGE_CURVE('',#923,#874,#931,.T.);
#931 = CIRCLE('',#932,0.6);
#932 = AXIS2_PLACEMENT_3D('',#933,#934,#935);
#933 = CARTESIAN_POINT('',(24.815,36.175,20.5));
#934 = DIRECTION('',(0.,0.,1.));
#935 = DIRECTION('',(1.,0.,0.));
#936 = CYLINDRICAL_SURFACE('',#937,0.6);
#937 = AXIS2_PLACEMENT_3D('',#938,#939,#940);
#938 = CARTESIAN_POINT('',(24.815,36.175,9.9));
#939 = DIRECTION('',(0.,0.,1.));
#940 = DIRECTION('',(0.,1.,0.));
#941 = ADVANCED_FACE('',(#942),#961,.T.);
#942 = FACE_BOUND('',#943,.T.);
#943 = EDGE_LOOP('',(#944,#945,#946,#954));
#944 = ORIENTED_EDGE('',*,*,#906,.F.);
#945 = ORIENTED_EDGE('',*,*,#251,.T.);
#946 = ORIENTED_EDGE('',*,*,#947,.T.);
#947 = EDGE_CURVE('',#244,#948,#950,.T.);
#948 = VERTEX_POINT('',#949);
#949 = CARTESIAN_POINT('',(18.185,28.945,20.5));
#950 = LINE('',#951,#952);
#951 = CARTESIAN_POINT('',(18.185,28.945,9.9));
#952 = VECTOR('',#953,1.);
#953 = DIRECTION('',(0.,0.,1.));
#954 = ORIENTED_EDGE('',*,*,#955,.F.);
#955 = EDGE_CURVE('',#899,#948,#956,.T.);
#956 = CIRCLE('',#957,0.6);
#957 = AXIS2_PLACEMENT_3D('',#958,#959,#960);
#958 = CARTESIAN_POINT('',(18.185,29.545,20.5));
#959 = DIRECTION('',(0.,0.,1.));
#960 = DIRECTION('',(-1.,0.,0.));
#961 = CYLINDRICAL_SURFACE('',#962,0.6);
#962 = AXIS2_PLACEMENT_3D('',#963,#964,#965);
#963 = CARTESIAN_POINT('',(18.185,29.545,9.9));
#964 = DIRECTION('',(0.,0.,1.));
#965 = DIRECTION('',(-1.,0.,0.));
#966 = ADVANCED_FACE('',(#967),#985,.F.);
#967 = FACE_BOUND('',#968,.F.);
#968 = EDGE_LOOP('',(#969,#970,#978,#984));
#969 = ORIENTED_EDGE('',*,*,#226,.T.);
#970 = ORIENTED_EDGE('',*,*,#971,.T.);
#971 = EDGE_CURVE('',#227,#972,#974,.T.);
#972 = VERTEX_POINT('',#973);
#973 = CARTESIAN_POINT('',(25.415,29.545,20.5));
#974 = LINE('',#975,#976);
#975 = CARTESIAN_POINT('',(25.415,29.545,9.9));
#976 = VECTOR('',#977,1.);
#977 = DIRECTION('',(0.,0.,1.));
#978 = ORIENTED_EDGE('',*,*,#979,.T.);
#979 = EDGE_CURVE('',#972,#923,#980,.T.);
#980 = LINE('',#981,#982);
#981 = CARTESIAN_POINT('',(25.415,29.545,20.5));
#982 = VECTOR('',#983,1.);
#983 = DIRECTION('',(0.,1.,0.));
#984 = ORIENTED_EDGE('',*,*,#922,.F.);
#985 = PLANE('',#986);
#986 = AXIS2_PLACEMENT_3D('',#987,#988,#989);
#987 = CARTESIAN_POINT('',(25.415,28.945,9.9));
#988 = DIRECTION('',(-1.,0.,0.));
#989 = DIRECTION('',(0.,1.,0.));
#990 = ADVANCED_FACE('',(#991),#1009,.F.);
#991 = FACE_BOUND('',#992,.F.);
#992 = EDGE_LOOP('',(#993,#994,#995,#1003));
#993 = ORIENTED_EDGE('',*,*,#243,.T.);
#994 = ORIENTED_EDGE('',*,*,#947,.T.);
#995 = ORIENTED_EDGE('',*,*,#996,.T.);
#996 = EDGE_CURVE('',#948,#997,#999,.T.);
#997 = VERTEX_POINT('',#998);
#998 = CARTESIAN_POINT('',(24.815,28.945,20.5));
#999 = LINE('',#1000,#1001);
#1000 = CARTESIAN_POINT('',(18.185,28.945,20.5));
#1001 = VECTOR('',#1002,1.);
#1002 = DIRECTION('',(1.,0.,0.));
#1003 = ORIENTED_EDGE('',*,*,#1004,.F.);
#1004 = EDGE_CURVE('',#235,#997,#1005,.T.);
#1005 = LINE('',#1006,#1007);
#1006 = CARTESIAN_POINT('',(24.815,28.945,9.9));
#1007 = VECTOR('',#1008,1.);
#1008 = DIRECTION('',(0.,0.,1.));
#1009 = PLANE('',#1010);
#1010 = AXIS2_PLACEMENT_3D('',#1011,#1012,#1013);
#1011 = CARTESIAN_POINT('',(17.585,28.945,9.9));
#1012 = DIRECTION('',(0.,1.,0.));
#1013 = DIRECTION('',(1.,0.,0.));
#1014 = ADVANCED_FACE('',(#1015),#1027,.T.);
#1015 = FACE_BOUND('',#1016,.T.);
#1016 = EDGE_LOOP('',(#1017,#1018,#1019,#1020));
#1017 = ORIENTED_EDGE('',*,*,#1004,.F.);
#1018 = ORIENTED_EDGE('',*,*,#234,.T.);
#1019 = ORIENTED_EDGE('',*,*,#971,.T.);
#1020 = ORIENTED_EDGE('',*,*,#1021,.F.);
#1021 = EDGE_CURVE('',#997,#972,#1022,.T.);
#1022 = CIRCLE('',#1023,0.6);
#1023 = AXIS2_PLACEMENT_3D('',#1024,#1025,#1026);
#1024 = CARTESIAN_POINT('',(24.815,29.545,20.5));
#1025 = DIRECTION('',(-0.,0.,1.));
#1026 = DIRECTION('',(0.,-1.,0.));
#1027 = CYLINDRICAL_SURFACE('',#1028,0.6);
#1028 = AXIS2_PLACEMENT_3D('',#1029,#1030,#1031);
#1029 = CARTESIAN_POINT('',(24.815,29.545,9.9));
#1030 = DIRECTION('',(0.,0.,1.));
#1031 = DIRECTION('',(0.,-1.,0.));
#1032 = ADVANCED_FACE('',(#1033),#1129,.F.);
#1033 = FACE_BOUND('',#1034,.F.);
#1034 = EDGE_LOOP('',(#1035,#1036,#1044,#1052,#1060,#1068,#1076,#1084,
    #1090,#1091,#1099,#1107,#1115,#1123));
#1035 = ORIENTED_EDGE('',*,*,#307,.F.);
#1036 = ORIENTED_EDGE('',*,*,#1037,.T.);
#1037 = EDGE_CURVE('',#300,#1038,#1040,.T.);
#1038 = VERTEX_POINT('',#1039);
#1039 = CARTESIAN_POINT('',(86.,0.,0.));
#1040 = LINE('',#1041,#1042);
#1041 = CARTESIAN_POINT('',(43.,0.,0.));
#1042 = VECTOR('',#1043,1.);
#1043 = DIRECTION('',(1.,0.,0.));
#1044 = ORIENTED_EDGE('',*,*,#1045,.T.);
#1045 = EDGE_CURVE('',#1038,#1046,#1048,.T.);
#1046 = VERTEX_POINT('',#1047);
#1047 = CARTESIAN_POINT('',(86.,13.875609756098,0.));
#1048 = LINE('',#1049,#1050);
#1049 = CARTESIAN_POINT('',(86.,0.,0.));
#1050 = VECTOR('',#1051,1.);
#1051 = DIRECTION('',(0.,1.,0.));
#1052 = ORIENTED_EDGE('',*,*,#1053,.F.);
#1053 = EDGE_CURVE('',#1054,#1046,#1056,.T.);
#1054 = VERTEX_POINT('',#1055);
#1055 = CARTESIAN_POINT('',(85.9,13.9,0.));
#1056 = LINE('',#1057,#1058);
#1057 = CARTESIAN_POINT('',(85.9,13.9,0.));
#1058 = VECTOR('',#1059,1.);
#1059 = DIRECTION('',(0.971520338783,-0.236956180191,0.));
#1060 = ORIENTED_EDGE('',*,*,#1061,.F.);
#1061 = EDGE_CURVE('',#1062,#1054,#1064,.T.);
#1062 = VERTEX_POINT('',#1063);
#1063 = CARTESIAN_POINT('',(85.9,17.9,0.));
#1064 = LINE('',#1065,#1066);
#1065 = CARTESIAN_POINT('',(85.9,17.9,0.));
#1066 = VECTOR('',#1067,1.);
#1067 = DIRECTION('',(0.,-1.,0.));
#1068 = ORIENTED_EDGE('',*,*,#1069,.F.);
#1069 = EDGE_CURVE('',#1070,#1062,#1072,.T.);
#1070 = VERTEX_POINT('',#1071);
#1071 = CARTESIAN_POINT('',(86.,17.924390243902,0.));
#1072 = LINE('',#1073,#1074);
#1073 = CARTESIAN_POINT('',(90.,18.9,0.));
#1074 = VECTOR('',#1075,1.);
#1075 = DIRECTION('',(-0.971520338783,-0.236956180191,0.));
#1076 = ORIENTED_EDGE('',*,*,#1077,.T.);
#1077 = EDGE_CURVE('',#1070,#1078,#1080,.T.);
#1078 = VERTEX_POINT('',#1079);
#1079 = CARTESIAN_POINT('',(86.,53.,0.));
#1080 = LINE('',#1081,#1082);
#1081 = CARTESIAN_POINT('',(86.,0.,0.));
#1082 = VECTOR('',#1083,1.);
#1083 = DIRECTION('',(0.,1.,0.));
#1084 = ORIENTED_EDGE('',*,*,#1085,.F.);
#1085 = EDGE_CURVE('',#356,#1078,#1086,.T.);
#1086 = LINE('',#1087,#1088);
#1087 = CARTESIAN_POINT('',(43.,53.,0.));
#1088 = VECTOR('',#1089,1.);
#1089 = DIRECTION('',(1.,0.,0.));
#1090 = ORIENTED_EDGE('',*,*,#355,.F.);
#1091 = ORIENTED_EDGE('',*,*,#1092,.T.);
#1092 = EDGE_CURVE('',#348,#1093,#1095,.T.);
#1093 = VERTEX_POINT('',#1094);
#1094 = CARTESIAN_POINT('',(47.,19.05,0.));
#1095 = LINE('',#1096,#1097);
#1096 = CARTESIAN_POINT('',(42.876470588235,18.019117647059,0.));
#1097 = VECTOR('',#1098,1.);
#1098 = DIRECTION('',(0.970142500145,0.242535625036,0.));
#1099 = ORIENTED_EDGE('',*,*,#1100,.T.);
#1100 = EDGE_CURVE('',#1093,#1101,#1103,.T.);
#1101 = VERTEX_POINT('',#1102);
#1102 = CARTESIAN_POINT('',(47.,18.9,0.));
#1103 = LINE('',#1104,#1105);
#1104 = CARTESIAN_POINT('',(47.,6.375,0.));
#1105 = VECTOR('',#1106,1.);
#1106 = DIRECTION('',(0.,-1.,0.));
#1107 = ORIENTED_EDGE('',*,*,#1108,.F.);
#1108 = EDGE_CURVE('',#1109,#1101,#1111,.T.);
#1109 = VERTEX_POINT('',#1110);
#1110 = CARTESIAN_POINT('',(47.,12.9,0.));
#1111 = LINE('',#1112,#1113);
#1112 = CARTESIAN_POINT('',(47.,12.9,0.));
#1113 = VECTOR('',#1114,1.);
#1114 = DIRECTION('',(0.,1.,0.));
#1115 = ORIENTED_EDGE('',*,*,#1116,.T.);
#1116 = EDGE_CURVE('',#1109,#1117,#1119,.T.);
#1117 = VERTEX_POINT('',#1118);
#1118 = CARTESIAN_POINT('',(47.,12.75,0.));
#1119 = LINE('',#1120,#1121);
#1120 = CARTESIAN_POINT('',(47.,6.375,0.));
#1121 = VECTOR('',#1122,1.);
#1122 = DIRECTION('',(0.,-1.,0.));
#1123 = ORIENTED_EDGE('',*,*,#1124,.T.);
#1124 = EDGE_CURVE('',#1117,#308,#1125,.T.);
#1125 = LINE('',#1126,#1127);
#1126 = CARTESIAN_POINT('',(44.617647058824,13.345588235294,0.));
#1127 = VECTOR('',#1128,1.);
#1128 = DIRECTION('',(-0.970142500145,0.242535625036,0.));
#1129 = PLANE('',#1130);
#1130 = AXIS2_PLACEMENT_3D('',#1131,#1132,#1133);
#1131 = CARTESIAN_POINT('',(43.,0.,0.));
#1132 = DIRECTION('',(0.,0.,1.));
#1133 = DIRECTION('',(1.,0.,0.));
#1134 = ADVANCED_FACE('',(#1135),#1146,.F.);
#1135 = FACE_BOUND('',#1136,.F.);
#1136 = EDGE_LOOP('',(#1137,#1138,#1144,#1145));
#1137 = ORIENTED_EDGE('',*,*,#323,.T.);
#1138 = ORIENTED_EDGE('',*,*,#1139,.T.);
#1139 = EDGE_CURVE('',#316,#340,#1140,.T.);
#1140 = LINE('',#1141,#1142);
#1141 = CARTESIAN_POINT('',(43.,0.,0.));
#1142 = VECTOR('',#1143,1.);
#1143 = DIRECTION('',(0.,1.,0.));
#1144 = ORIENTED_EDGE('',*,*,#339,.T.);
#1145 = ORIENTED_EDGE('',*,*,#331,.T.);
#1146 = PLANE('',#1147);
#1147 = AXIS2_PLACEMENT_3D('',#1148,#1149,#1150);
#1148 = CARTESIAN_POINT('',(0.,0.,0.));
#1149 = DIRECTION('',(0.,0.,1.));
#1150 = DIRECTION('',(1.,0.,0.));
#1151 = ADVANCED_FACE('',(#1152),#1158,.F.);
#1152 = FACE_BOUND('',#1153,.F.);
#1153 = EDGE_LOOP('',(#1154,#1155,#1156,#1157));
#1154 = ORIENTED_EDGE('',*,*,#823,.T.);
#1155 = ORIENTED_EDGE('',*,*,#799,.T.);
#1156 = ORIENTED_EDGE('',*,*,#775,.T.);
#1157 = ORIENTED_EDGE('',*,*,#420,.T.);
#1158 = PLANE('',#1159);
#1159 = AXIS2_PLACEMENT_3D('',#1160,#1161,#1162);
#1160 = CARTESIAN_POINT('',(21.5,1.417592592995,0.616512823265));
#1161 = DIRECTION('',(-0.,-0.342020143326,-0.939692620786));
#1162 = DIRECTION('',(0.,0.939692620786,-0.342020143326));
#1163 = ADVANCED_FACE('',(#1164),#1198,.T.);
#1164 = FACE_BOUND('',#1165,.T.);
#1165 = EDGE_LOOP('',(#1166,#1167,#1168,#1169,#1175,#1176,#1184,#1192));
#1166 = ORIENTED_EDGE('',*,*,#533,.F.);
#1167 = ORIENTED_EDGE('',*,*,#405,.T.);
#1168 = ORIENTED_EDGE('',*,*,#1037,.T.);
#1169 = ORIENTED_EDGE('',*,*,#1170,.F.);
#1170 = EDGE_CURVE('',#566,#1038,#1171,.T.);
#1171 = LINE('',#1172,#1173);
#1172 = CARTESIAN_POINT('',(86.,0.,0.));
#1173 = VECTOR('',#1174,1.);
#1174 = DIRECTION('',(0.,-0.342020143326,-0.939692620786));
#1175 = ORIENTED_EDGE('',*,*,#565,.F.);
#1176 = ORIENTED_EDGE('',*,*,#1177,.F.);
#1177 = EDGE_CURVE('',#1178,#558,#1180,.T.);
#1178 = VERTEX_POINT('',#1179);
#1179 = CARTESIAN_POINT('',(66.15,0.363970234266,1.));
#1180 = LINE('',#1181,#1182);
#1181 = CARTESIAN_POINT('',(66.15,0.363970234266,1.));
#1182 = VECTOR('',#1183,1.);
#1183 = DIRECTION('',(0.,0.342020143326,0.939692620786));
#1184 = ORIENTED_EDGE('',*,*,#1185,.T.);
#1185 = EDGE_CURVE('',#1178,#1186,#1188,.T.);
#1186 = VERTEX_POINT('',#1187);
#1187 = CARTESIAN_POINT('',(62.85,0.363970234266,1.));
#1188 = LINE('',#1189,#1190);
#1189 = CARTESIAN_POINT('',(66.15,0.363970234266,1.));
#1190 = VECTOR('',#1191,1.);
#1191 = DIRECTION('',(-1.,0.,0.));
#1192 = ORIENTED_EDGE('',*,*,#1193,.T.);
#1193 = EDGE_CURVE('',#1186,#534,#1194,.T.);
#1194 = LINE('',#1195,#1196);
#1195 = CARTESIAN_POINT('',(62.85,0.363970234266,1.));
#1196 = VECTOR('',#1197,1.);
#1197 = DIRECTION('',(0.,0.342020143326,0.939692620786));
#1198 = PLANE('',#1199);
#1199 = AXIS2_PLACEMENT_3D('',#1200,#1201,#1202);
#1200 = CARTESIAN_POINT('',(42.,0.,0.));
#1201 = DIRECTION('',(0.,-0.939692620786,0.342020143326));
#1202 = DIRECTION('',(0.,0.342020143326,0.939692620786));
#1203 = ADVANCED_FACE('',(#1204),#1215,.T.);
#1204 = FACE_BOUND('',#1205,.T.);
#1205 = EDGE_LOOP('',(#1206,#1207,#1208,#1209));
#1206 = ORIENTED_EDGE('',*,*,#1085,.F.);
#1207 = ORIENTED_EDGE('',*,*,#496,.T.);
#1208 = ORIENTED_EDGE('',*,*,#613,.T.);
#1209 = ORIENTED_EDGE('',*,*,#1210,.F.);
#1210 = EDGE_CURVE('',#1078,#606,#1211,.T.);
#1211 = LINE('',#1212,#1213);
#1212 = CARTESIAN_POINT('',(86.,53.,0.));
#1213 = VECTOR('',#1214,1.);
#1214 = DIRECTION('',(0.,0.,1.));
#1215 = PLANE('',#1216);
#1216 = AXIS2_PLACEMENT_3D('',#1217,#1218,#1219);
#1217 = CARTESIAN_POINT('',(43.,53.,0.));
#1218 = DIRECTION('',(0.,1.,0.));
#1219 = DIRECTION('',(0.,0.,1.));
#1220 = ADVANCED_FACE('',(#1221),#1232,.T.);
#1221 = FACE_BOUND('',#1222,.T.);
#1222 = EDGE_LOOP('',(#1223,#1224,#1230,#1231));
#1223 = ORIENTED_EDGE('',*,*,#1092,.T.);
#1224 = ORIENTED_EDGE('',*,*,#1225,.T.);
#1225 = EDGE_CURVE('',#1093,#621,#1226,.T.);
#1226 = LINE('',#1227,#1228);
#1227 = CARTESIAN_POINT('',(47.,19.05,-1.));
#1228 = VECTOR('',#1229,1.);
#1229 = DIRECTION('',(0.,0.,1.));
#1230 = ORIENTED_EDGE('',*,*,#620,.F.);
#1231 = ORIENTED_EDGE('',*,*,#518,.F.);
#1232 = PLANE('',#1233);
#1233 = AXIS2_PLACEMENT_3D('',#1234,#1235,#1236);
#1234 = CARTESIAN_POINT('',(47.,19.05,-1.));
#1235 = DIRECTION('',(0.242535625036,-0.970142500145,0.));
#1236 = DIRECTION('',(-0.970142500145,-0.242535625036,0.));
#1237 = ADVANCED_FACE('',(#1238),#1259,.F.);
#1238 = FACE_BOUND('',#1239,.F.);
#1239 = EDGE_LOOP('',(#1240,#1246,#1252,#1258));
#1240 = ORIENTED_EDGE('',*,*,#1241,.F.);
#1241 = EDGE_CURVE('',#1101,#340,#1242,.T.);
#1242 = LINE('',#1243,#1244);
#1243 = CARTESIAN_POINT('',(47.,18.9,0.));
#1244 = VECTOR('',#1245,1.);
#1245 = DIRECTION('',(-0.971520338783,-0.236956180191,0.));
#1246 = ORIENTED_EDGE('',*,*,#1247,.T.);
#1247 = EDGE_CURVE('',#1101,#629,#1248,.T.);
#1248 = LINE('',#1249,#1250);
#1249 = CARTESIAN_POINT('',(47.,18.9,0.));
#1250 = VECTOR('',#1251,1.);
#1251 = DIRECTION('',(0.,0.,1.));
#1252 = ORIENTED_EDGE('',*,*,#1253,.T.);
#1253 = EDGE_CURVE('',#629,#135,#1254,.T.);
#1254 = LINE('',#1255,#1256);
#1255 = CARTESIAN_POINT('',(47.,18.9,10.));
#1256 = VECTOR('',#1257,1.);
#1257 = DIRECTION('',(-0.971520338783,-0.236956180191,0.));
#1258 = ORIENTED_EDGE('',*,*,#511,.T.);
#1259 = PLANE('',#1260);
#1260 = AXIS2_PLACEMENT_3D('',#1261,#1262,#1263);
#1261 = CARTESIAN_POINT('',(47.,18.9,0.));
#1262 = DIRECTION('',(0.236956180191,-0.971520338783,0.));
#1263 = DIRECTION('',(-0.971520338783,-0.236956180191,0.));
#1264 = ADVANCED_FACE('',(#1265),#1276,.T.);
#1265 = FACE_BOUND('',#1266,.T.);
#1266 = EDGE_LOOP('',(#1267,#1268,#1269,#1270));
#1267 = ORIENTED_EDGE('',*,*,#1124,.T.);
#1268 = ORIENTED_EDGE('',*,*,#754,.T.);
#1269 = ORIENTED_EDGE('',*,*,#652,.F.);
#1270 = ORIENTED_EDGE('',*,*,#1271,.F.);
#1271 = EDGE_CURVE('',#1117,#645,#1272,.T.);
#1272 = LINE('',#1273,#1274);
#1273 = CARTESIAN_POINT('',(47.,12.75,-1.));
#1274 = VECTOR('',#1275,1.);
#1275 = DIRECTION('',(0.,0.,1.));
#1276 = PLANE('',#1277);
#1277 = AXIS2_PLACEMENT_3D('',#1278,#1279,#1280);
#1278 = CARTESIAN_POINT('',(43.,13.75,-1.));
#1279 = DIRECTION('',(0.242535625036,0.970142500145,0.));
#1280 = DIRECTION('',(0.970142500145,-0.242535625036,0.));
#1281 = ADVANCED_FACE('',(#1282),#1288,.T.);
#1282 = FACE_BOUND('',#1283,.T.);
#1283 = EDGE_LOOP('',(#1284,#1285,#1286,#1287));
#1284 = ORIENTED_EDGE('',*,*,#1225,.F.);
#1285 = ORIENTED_EDGE('',*,*,#1100,.T.);
#1286 = ORIENTED_EDGE('',*,*,#1247,.T.);
#1287 = ORIENTED_EDGE('',*,*,#628,.F.);
#1288 = PLANE('',#1289);
#1289 = AXIS2_PLACEMENT_3D('',#1290,#1291,#1292);
#1290 = CARTESIAN_POINT('',(47.,12.75,-1.));
#1291 = DIRECTION('',(-1.,0.,0.));
#1292 = DIRECTION('',(0.,1.,0.));
#1293 = ADVANCED_FACE('',(#1294),#1305,.T.);
#1294 = FACE_BOUND('',#1295,.T.);
#1295 = EDGE_LOOP('',(#1296,#1297,#1303,#1304));
#1296 = ORIENTED_EDGE('',*,*,#737,.F.);
#1297 = ORIENTED_EDGE('',*,*,#1298,.T.);
#1298 = EDGE_CURVE('',#111,#637,#1299,.T.);
#1299 = LINE('',#1300,#1301);
#1300 = CARTESIAN_POINT('',(42.9,13.9,10.));
#1301 = VECTOR('',#1302,1.);
#1302 = DIRECTION('',(0.971520338783,-0.236956180191,0.));
#1303 = ORIENTED_EDGE('',*,*,#636,.T.);
#1304 = ORIENTED_EDGE('',*,*,#1253,.T.);
#1305 = PLANE('',#1306);
#1306 = AXIS2_PLACEMENT_3D('',#1307,#1308,#1309);
#1307 = CARTESIAN_POINT('',(45.172338161771,15.9,10.));
#1308 = DIRECTION('',(0.,0.,1.));
#1309 = DIRECTION('',(1.,0.,0.));
#1310 = ADVANCED_FACE('',(#1311),#1322,.T.);
#1311 = FACE_BOUND('',#1312,.T.);
#1312 = EDGE_LOOP('',(#1313,#1319,#1320,#1321));
#1313 = ORIENTED_EDGE('',*,*,#1314,.F.);
#1314 = EDGE_CURVE('',#1109,#637,#1315,.T.);
#1315 = LINE('',#1316,#1317);
#1316 = CARTESIAN_POINT('',(47.,12.9,0.));
#1317 = VECTOR('',#1318,1.);
#1318 = DIRECTION('',(0.,0.,1.));
#1319 = ORIENTED_EDGE('',*,*,#1116,.T.);
#1320 = ORIENTED_EDGE('',*,*,#1271,.T.);
#1321 = ORIENTED_EDGE('',*,*,#644,.F.);
#1322 = PLANE('',#1323);
#1323 = AXIS2_PLACEMENT_3D('',#1324,#1325,#1326);
#1324 = CARTESIAN_POINT('',(47.,12.75,-1.));
#1325 = DIRECTION('',(-1.,0.,0.));
#1326 = DIRECTION('',(0.,1.,0.));
#1327 = ADVANCED_FACE('',(#1328),#1339,.T.);
#1328 = FACE_BOUND('',#1329,.T.);
#1329 = EDGE_LOOP('',(#1330,#1331,#1337,#1338));
#1330 = ORIENTED_EDGE('',*,*,#605,.F.);
#1331 = ORIENTED_EDGE('',*,*,#1332,.T.);
#1332 = EDGE_CURVE('',#598,#1070,#1333,.T.);
#1333 = LINE('',#1334,#1335);
#1334 = CARTESIAN_POINT('',(86.,17.924390243902,0.));
#1335 = VECTOR('',#1336,1.);
#1336 = DIRECTION('',(0.,0.,-1.));
#1337 = ORIENTED_EDGE('',*,*,#1077,.T.);
#1338 = ORIENTED_EDGE('',*,*,#1210,.T.);
#1339 = PLANE('',#1340);
#1340 = AXIS2_PLACEMENT_3D('',#1341,#1342,#1343);
#1341 = CARTESIAN_POINT('',(86.,0.,0.));
#1342 = DIRECTION('',(1.,0.,0.));
#1343 = DIRECTION('',(0.,0.,1.));
#1344 = ADVANCED_FACE('',(#1345),#1356,.T.);
#1345 = FACE_BOUND('',#1346,.T.);
#1346 = EDGE_LOOP('',(#1347,#1348,#1354,#1355));
#1347 = ORIENTED_EDGE('',*,*,#581,.T.);
#1348 = ORIENTED_EDGE('',*,*,#1349,.T.);
#1349 = EDGE_CURVE('',#574,#598,#1350,.T.);
#1350 = LINE('',#1351,#1352);
#1351 = CARTESIAN_POINT('',(86.,0.,10.));
#1352 = VECTOR('',#1353,1.);
#1353 = DIRECTION('',(0.,1.,0.));
#1354 = ORIENTED_EDGE('',*,*,#597,.T.);
#1355 = ORIENTED_EDGE('',*,*,#589,.T.);
#1356 = PLANE('',#1357);
#1357 = AXIS2_PLACEMENT_3D('',#1358,#1359,#1360);
#1358 = CARTESIAN_POINT('',(43.,0.,10.));
#1359 = DIRECTION('',(0.,0.,1.));
#1360 = DIRECTION('',(1.,0.,0.));
#1361 = ADVANCED_FACE('',(#1362),#1373,.T.);
#1362 = FACE_BOUND('',#1363,.T.);
#1363 = EDGE_LOOP('',(#1364,#1365,#1366,#1367));
#1364 = ORIENTED_EDGE('',*,*,#573,.F.);
#1365 = ORIENTED_EDGE('',*,*,#1170,.T.);
#1366 = ORIENTED_EDGE('',*,*,#1045,.T.);
#1367 = ORIENTED_EDGE('',*,*,#1368,.T.);
#1368 = EDGE_CURVE('',#1046,#574,#1369,.T.);
#1369 = LINE('',#1370,#1371);
#1370 = CARTESIAN_POINT('',(86.,13.875609756098,0.));
#1371 = VECTOR('',#1372,1.);
#1372 = DIRECTION('',(0.,0.,1.));
#1373 = PLANE('',#1374);
#1374 = AXIS2_PLACEMENT_3D('',#1375,#1376,#1377);
#1375 = CARTESIAN_POINT('',(86.,0.,0.));
#1376 = DIRECTION('',(1.,0.,0.));
#1377 = DIRECTION('',(0.,0.,1.));
#1378 = ADVANCED_FACE('',(#1379),#1397,.F.);
#1379 = FACE_BOUND('',#1380,.F.);
#1380 = EDGE_LOOP('',(#1381,#1389,#1395,#1396));
#1381 = ORIENTED_EDGE('',*,*,#1382,.F.);
#1382 = EDGE_CURVE('',#1383,#1178,#1385,.T.);
#1383 = VERTEX_POINT('',#1384);
#1384 = CARTESIAN_POINT('',(66.9,2.243355475838,0.315959713349));
#1385 = LINE('',#1386,#1387);
#1386 = CARTESIAN_POINT('',(66.9,2.243355475838,0.315959713349));
#1387 = VECTOR('',#1388,1.);
#1388 = DIRECTION('',(-0.351123441588,-0.879861618788,0.320243439512));
#1389 = ORIENTED_EDGE('',*,*,#1390,.T.);
#1390 = EDGE_CURVE('',#1383,#550,#1391,.T.);
#1391 = LINE('',#1392,#1393);
#1392 = CARTESIAN_POINT('',(66.9,2.243355475838,0.315959713349));
#1393 = VECTOR('',#1394,1.);
#1394 = DIRECTION('',(0.,0.342020143326,0.939692620786));
#1395 = ORIENTED_EDGE('',*,*,#557,.F.);
#1396 = ORIENTED_EDGE('',*,*,#1177,.F.);
#1397 = PLANE('',#1398);
#1398 = AXIS2_PLACEMENT_3D('',#1399,#1400,#1401);
#1399 = CARTESIAN_POINT('',(66.9,2.243355475838,0.315959713349));
#1400 = DIRECTION('',(0.936329177569,-0.329948107046,0.120091289817));
#1401 = DIRECTION('',(-0.351123441588,-0.879861618788,0.320243439512));
#1402 = ADVANCED_FACE('',(#1403),#1421,.F.);
#1403 = FACE_BOUND('',#1404,.F.);
#1404 = EDGE_LOOP('',(#1405,#1413,#1419,#1420));
#1405 = ORIENTED_EDGE('',*,*,#1406,.F.);
#1406 = EDGE_CURVE('',#1407,#1383,#1409,.T.);
#1407 = VERTEX_POINT('',#1408);
#1408 = CARTESIAN_POINT('',(62.1,2.243355475838,0.315959713349));
#1409 = LINE('',#1410,#1411);
#1410 = CARTESIAN_POINT('',(62.1,2.243355475838,0.315959713349));
#1411 = VECTOR('',#1412,1.);
#1412 = DIRECTION('',(1.,0.,0.));
#1413 = ORIENTED_EDGE('',*,*,#1414,.T.);
#1414 = EDGE_CURVE('',#1407,#542,#1415,.T.);
#1415 = LINE('',#1416,#1417);
#1416 = CARTESIAN_POINT('',(62.1,2.243355475838,0.315959713349));
#1417 = VECTOR('',#1418,1.);
#1418 = DIRECTION('',(0.,0.342020143326,0.939692620786));
#1419 = ORIENTED_EDGE('',*,*,#549,.F.);
#1420 = ORIENTED_EDGE('',*,*,#1390,.F.);
#1421 = PLANE('',#1422);
#1422 = AXIS2_PLACEMENT_3D('',#1423,#1424,#1425);
#1423 = CARTESIAN_POINT('',(62.1,2.243355475838,0.315959713349));
#1424 = DIRECTION('',(0.,0.939692620786,-0.342020143326));
#1425 = DIRECTION('',(1.,0.,0.));
#1426 = ADVANCED_FACE('',(#1427),#1438,.F.);
#1427 = FACE_BOUND('',#1428,.F.);
#1428 = EDGE_LOOP('',(#1429,#1435,#1436,#1437));
#1429 = ORIENTED_EDGE('',*,*,#1430,.F.);
#1430 = EDGE_CURVE('',#1186,#1407,#1431,.T.);
#1431 = LINE('',#1432,#1433);
#1432 = CARTESIAN_POINT('',(62.85,0.363970234266,1.));
#1433 = VECTOR('',#1434,1.);
#1434 = DIRECTION('',(-0.351123441588,0.879861618788,-0.320243439512));
#1435 = ORIENTED_EDGE('',*,*,#1193,.T.);
#1436 = ORIENTED_EDGE('',*,*,#541,.F.);
#1437 = ORIENTED_EDGE('',*,*,#1414,.F.);
#1438 = PLANE('',#1439);
#1439 = AXIS2_PLACEMENT_3D('',#1440,#1441,#1442);
#1440 = CARTESIAN_POINT('',(62.85,0.363970234266,1.));
#1441 = DIRECTION('',(-0.936329177569,-0.329948107046,0.120091289817));
#1442 = DIRECTION('',(-0.351123441588,0.879861618788,-0.320243439512));
#1443 = ADVANCED_FACE('',(#1444),#1470,.T.);
#1444 = FACE_BOUND('',#1445,.T.);
#1445 = EDGE_LOOP('',(#1446,#1454,#1455,#1463));
#1446 = ORIENTED_EDGE('',*,*,#1447,.F.);
#1447 = EDGE_CURVE('',#661,#1448,#1450,.T.);
#1448 = VERTEX_POINT('',#1449);
#1449 = CARTESIAN_POINT('',(61.185,36.775,20.5));
#1450 = LINE('',#1451,#1452);
#1451 = CARTESIAN_POINT('',(61.185,36.775,9.9));
#1452 = VECTOR('',#1453,1.);
#1453 = DIRECTION('',(0.,0.,1.));
#1454 = ORIENTED_EDGE('',*,*,#660,.T.);
#1455 = ORIENTED_EDGE('',*,*,#1456,.T.);
#1456 = EDGE_CURVE('',#663,#1457,#1459,.T.);
#1457 = VERTEX_POINT('',#1458);
#1458 = CARTESIAN_POINT('',(60.585,36.175,20.5));
#1459 = LINE('',#1460,#1461);
#1460 = CARTESIAN_POINT('',(60.585,36.175,9.9));
#1461 = VECTOR('',#1462,1.);
#1462 = DIRECTION('',(0.,0.,1.));
#1463 = ORIENTED_EDGE('',*,*,#1464,.F.);
#1464 = EDGE_CURVE('',#1448,#1457,#1465,.T.);
#1465 = CIRCLE('',#1466,0.6);
#1466 = AXIS2_PLACEMENT_3D('',#1467,#1468,#1469);
#1467 = CARTESIAN_POINT('',(61.185,36.175,20.5));
#1468 = DIRECTION('',(0.,-0.,1.));
#1469 = DIRECTION('',(0.,1.,0.));
#1470 = CYLINDRICAL_SURFACE('',#1471,0.6);
#1471 = AXIS2_PLACEMENT_3D('',#1472,#1473,#1474);
#1472 = CARTESIAN_POINT('',(61.185,36.175,9.9));
#1473 = DIRECTION('',(0.,0.,1.));
#1474 = DIRECTION('',(0.,1.,0.));
#1475 = ADVANCED_FACE('',(#1476),#1494,.F.);
#1476 = FACE_BOUND('',#1477,.F.);
#1477 = EDGE_LOOP('',(#1478,#1479,#1487,#1493));
#1478 = ORIENTED_EDGE('',*,*,#671,.T.);
#1479 = ORIENTED_EDGE('',*,*,#1480,.T.);
#1480 = EDGE_CURVE('',#672,#1481,#1483,.T.);
#1481 = VERTEX_POINT('',#1482);
#1482 = CARTESIAN_POINT('',(67.815,36.775,20.5));
#1483 = LINE('',#1484,#1485);
#1484 = CARTESIAN_POINT('',(67.815,36.775,9.9));
#1485 = VECTOR('',#1486,1.);
#1486 = DIRECTION('',(0.,0.,1.));
#1487 = ORIENTED_EDGE('',*,*,#1488,.T.);
#1488 = EDGE_CURVE('',#1481,#1448,#1489,.T.);
#1489 = LINE('',#1490,#1491);
#1490 = CARTESIAN_POINT('',(67.815,36.775,20.5));
#1491 = VECTOR('',#1492,1.);
#1492 = DIRECTION('',(-1.,0.,0.));
#1493 = ORIENTED_EDGE('',*,*,#1447,.F.);
#1494 = PLANE('',#1495);
#1495 = AXIS2_PLACEMENT_3D('',#1496,#1497,#1498);
#1496 = CARTESIAN_POINT('',(68.415,36.775,9.9));
#1497 = DIRECTION('',(0.,-1.,0.));
#1498 = DIRECTION('',(-1.,0.,0.));
#1499 = ADVANCED_FACE('',(#1500),#1518,.F.);
#1500 = FACE_BOUND('',#1501,.F.);
#1501 = EDGE_LOOP('',(#1502,#1503,#1504,#1512));
#1502 = ORIENTED_EDGE('',*,*,#722,.T.);
#1503 = ORIENTED_EDGE('',*,*,#1456,.T.);
#1504 = ORIENTED_EDGE('',*,*,#1505,.T.);
#1505 = EDGE_CURVE('',#1457,#1506,#1508,.T.);
#1506 = VERTEX_POINT('',#1507);
#1507 = CARTESIAN_POINT('',(60.585,29.545,20.5));
#1508 = LINE('',#1509,#1510);
#1509 = CARTESIAN_POINT('',(60.585,36.175,20.5));
#1510 = VECTOR('',#1511,1.);
#1511 = DIRECTION('',(0.,-1.,0.));
#1512 = ORIENTED_EDGE('',*,*,#1513,.F.);
#1513 = EDGE_CURVE('',#714,#1506,#1514,.T.);
#1514 = LINE('',#1515,#1516);
#1515 = CARTESIAN_POINT('',(60.585,29.545,9.9));
#1516 = VECTOR('',#1517,1.);
#1517 = DIRECTION('',(0.,0.,1.));
#1518 = PLANE('',#1519);
#1519 = AXIS2_PLACEMENT_3D('',#1520,#1521,#1522);
#1520 = CARTESIAN_POINT('',(60.585,36.775,9.9));
#1521 = DIRECTION('',(1.,0.,0.));
#1522 = DIRECTION('',(0.,-1.,0.));
#1523 = ADVANCED_FACE('',(#1524),#1543,.T.);
#1524 = FACE_BOUND('',#1525,.F.);
#1525 = EDGE_LOOP('',(#1526,#1527,#1528,#1536));
#1526 = ORIENTED_EDGE('',*,*,#1480,.F.);
#1527 = ORIENTED_EDGE('',*,*,#679,.F.);
#1528 = ORIENTED_EDGE('',*,*,#1529,.T.);
#1529 = EDGE_CURVE('',#680,#1530,#1532,.T.);
#1530 = VERTEX_POINT('',#1531);
#1531 = CARTESIAN_POINT('',(68.415,36.175,20.5));
#1532 = LINE('',#1533,#1534);
#1533 = CARTESIAN_POINT('',(68.415,36.175,9.9));
#1534 = VECTOR('',#1535,1.);
#1535 = DIRECTION('',(0.,0.,1.));
#1536 = ORIENTED_EDGE('',*,*,#1537,.T.);
#1537 = EDGE_CURVE('',#1530,#1481,#1538,.T.);
#1538 = CIRCLE('',#1539,0.6);
#1539 = AXIS2_PLACEMENT_3D('',#1540,#1541,#1542);
#1540 = CARTESIAN_POINT('',(67.815,36.175,20.5));
#1541 = DIRECTION('',(0.,0.,1.));
#1542 = DIRECTION('',(1.,0.,0.));
#1543 = CYLINDRICAL_SURFACE('',#1544,0.6);
#1544 = AXIS2_PLACEMENT_3D('',#1545,#1546,#1547);
#1545 = CARTESIAN_POINT('',(67.815,36.175,9.9));
#1546 = DIRECTION('',(0.,0.,1.));
#1547 = DIRECTION('',(0.,1.,0.));
#1548 = ADVANCED_FACE('',(#1549),#1568,.T.);
#1549 = FACE_BOUND('',#1550,.T.);
#1550 = EDGE_LOOP('',(#1551,#1552,#1553,#1561));
#1551 = ORIENTED_EDGE('',*,*,#1513,.F.);
#1552 = ORIENTED_EDGE('',*,*,#713,.T.);
#1553 = ORIENTED_EDGE('',*,*,#1554,.T.);
#1554 = EDGE_CURVE('',#706,#1555,#1557,.T.);
#1555 = VERTEX_POINT('',#1556);
#1556 = CARTESIAN_POINT('',(61.185,28.945,20.5));
#1557 = LINE('',#1558,#1559);
#1558 = CARTESIAN_POINT('',(61.185,28.945,9.9));
#1559 = VECTOR('',#1560,1.);
#1560 = DIRECTION('',(0.,0.,1.));
#1561 = ORIENTED_EDGE('',*,*,#1562,.F.);
#1562 = EDGE_CURVE('',#1506,#1555,#1563,.T.);
#1563 = CIRCLE('',#1564,0.6);
#1564 = AXIS2_PLACEMENT_3D('',#1565,#1566,#1567);
#1565 = CARTESIAN_POINT('',(61.185,29.545,20.5));
#1566 = DIRECTION('',(0.,0.,1.));
#1567 = DIRECTION('',(-1.,0.,0.));
#1568 = CYLINDRICAL_SURFACE('',#1569,0.6);
#1569 = AXIS2_PLACEMENT_3D('',#1570,#1571,#1572);
#1570 = CARTESIAN_POINT('',(61.185,29.545,9.9));
#1571 = DIRECTION('',(0.,0.,1.));
#1572 = DIRECTION('',(-1.,0.,0.));
#1573 = ADVANCED_FACE('',(#1574),#1592,.F.);
#1574 = FACE_BOUND('',#1575,.F.);
#1575 = EDGE_LOOP('',(#1576,#1577,#1585,#1591));
#1576 = ORIENTED_EDGE('',*,*,#688,.T.);
#1577 = ORIENTED_EDGE('',*,*,#1578,.T.);
#1578 = EDGE_CURVE('',#689,#1579,#1581,.T.);
#1579 = VERTEX_POINT('',#1580);
#1580 = CARTESIAN_POINT('',(68.415,29.545,20.5));
#1581 = LINE('',#1582,#1583);
#1582 = CARTESIAN_POINT('',(68.415,29.545,9.9));
#1583 = VECTOR('',#1584,1.);
#1584 = DIRECTION('',(0.,0.,1.));
#1585 = ORIENTED_EDGE('',*,*,#1586,.T.);
#1586 = EDGE_CURVE('',#1579,#1530,#1587,.T.);
#1587 = LINE('',#1588,#1589);
#1588 = CARTESIAN_POINT('',(68.415,29.545,20.5));
#1589 = VECTOR('',#1590,1.);
#1590 = DIRECTION('',(0.,1.,0.));
#1591 = ORIENTED_EDGE('',*,*,#1529,.F.);
#1592 = PLANE('',#1593);
#1593 = AXIS2_PLACEMENT_3D('',#1594,#1595,#1596);
#1594 = CARTESIAN_POINT('',(68.415,28.945,9.9));
#1595 = DIRECTION('',(-1.,0.,0.));
#1596 = DIRECTION('',(0.,1.,0.));
#1597 = ADVANCED_FACE('',(#1598),#1616,.F.);
#1598 = FACE_BOUND('',#1599,.F.);
#1599 = EDGE_LOOP('',(#1600,#1601,#1602,#1610));
#1600 = ORIENTED_EDGE('',*,*,#705,.T.);
#1601 = ORIENTED_EDGE('',*,*,#1554,.T.);
#1602 = ORIENTED_EDGE('',*,*,#1603,.T.);
#1603 = EDGE_CURVE('',#1555,#1604,#1606,.T.);
#1604 = VERTEX_POINT('',#1605);
#1605 = CARTESIAN_POINT('',(67.815,28.945,20.5));
#1606 = LINE('',#1607,#1608);
#1607 = CARTESIAN_POINT('',(61.185,28.945,20.5));
#1608 = VECTOR('',#1609,1.);
#1609 = DIRECTION('',(1.,0.,0.));
#1610 = ORIENTED_EDGE('',*,*,#1611,.F.);
#1611 = EDGE_CURVE('',#697,#1604,#1612,.T.);
#1612 = LINE('',#1613,#1614);
#1613 = CARTESIAN_POINT('',(67.815,28.945,9.9));
#1614 = VECTOR('',#1615,1.);
#1615 = DIRECTION('',(0.,0.,1.));
#1616 = PLANE('',#1617);
#1617 = AXIS2_PLACEMENT_3D('',#1618,#1619,#1620);
#1618 = CARTESIAN_POINT('',(60.585,28.945,9.9));
#1619 = DIRECTION('',(0.,1.,0.));
#1620 = DIRECTION('',(1.,0.,0.));
#1621 = ADVANCED_FACE('',(#1622),#1634,.T.);
#1622 = FACE_BOUND('',#1623,.T.);
#1623 = EDGE_LOOP('',(#1624,#1625,#1626,#1627));
#1624 = ORIENTED_EDGE('',*,*,#1611,.F.);
#1625 = ORIENTED_EDGE('',*,*,#696,.T.);
#1626 = ORIENTED_EDGE('',*,*,#1578,.T.);
#1627 = ORIENTED_EDGE('',*,*,#1628,.F.);
#1628 = EDGE_CURVE('',#1604,#1579,#1629,.T.);
#1629 = CIRCLE('',#1630,0.6);
#1630 = AXIS2_PLACEMENT_3D('',#1631,#1632,#1633);
#1631 = CARTESIAN_POINT('',(67.815,29.545,20.5));
#1632 = DIRECTION('',(-0.,0.,1.));
#1633 = DIRECTION('',(0.,-1.,0.));
#1634 = CYLINDRICAL_SURFACE('',#1635,0.6);
#1635 = AXIS2_PLACEMENT_3D('',#1636,#1637,#1638);
#1636 = CARTESIAN_POINT('',(67.815,29.545,9.9));
#1637 = DIRECTION('',(0.,0.,1.));
#1638 = DIRECTION('',(0.,-1.,0.));
#1639 = ADVANCED_FACE('',(#1640),#1651,.F.);
#1640 = FACE_BOUND('',#1641,.F.);
#1641 = EDGE_LOOP('',(#1642,#1648,#1649,#1650));
#1642 = ORIENTED_EDGE('',*,*,#1643,.F.);
#1643 = EDGE_CURVE('',#316,#1109,#1644,.T.);
#1644 = LINE('',#1645,#1646);
#1645 = CARTESIAN_POINT('',(42.9,13.9,0.));
#1646 = VECTOR('',#1647,1.);
#1647 = DIRECTION('',(0.971520338783,-0.236956180191,0.));
#1648 = ORIENTED_EDGE('',*,*,#761,.T.);
#1649 = ORIENTED_EDGE('',*,*,#1298,.T.);
#1650 = ORIENTED_EDGE('',*,*,#1314,.F.);
#1651 = PLANE('',#1652);
#1652 = AXIS2_PLACEMENT_3D('',#1653,#1654,#1655);
#1653 = CARTESIAN_POINT('',(42.9,13.9,0.));
#1654 = DIRECTION('',(0.236956180191,0.971520338783,0.));
#1655 = DIRECTION('',(0.971520338783,-0.236956180191,0.));
#1656 = ADVANCED_FACE('',(#1657),#1683,.T.);
#1657 = FACE_BOUND('',#1658,.T.);
#1658 = EDGE_LOOP('',(#1659,#1667,#1668,#1676));
#1659 = ORIENTED_EDGE('',*,*,#1660,.F.);
#1660 = EDGE_CURVE('',#841,#1661,#1663,.T.);
#1661 = VERTEX_POINT('',#1662);
#1662 = CARTESIAN_POINT('',(18.185,36.275,21.));
#1663 = LINE('',#1664,#1665);
#1664 = CARTESIAN_POINT('',(18.185,36.525,20.75));
#1665 = VECTOR('',#1666,1.);
#1666 = DIRECTION('',(-2.90882763039E-35,-0.707106781187,0.707106781187)
  );
#1667 = ORIENTED_EDGE('',*,*,#857,.T.);
#1668 = ORIENTED_EDGE('',*,*,#1669,.T.);
#1669 = EDGE_CURVE('',#850,#1670,#1672,.T.);
#1670 = VERTEX_POINT('',#1671);
#1671 = CARTESIAN_POINT('',(18.085,36.175,21.));
#1672 = LINE('',#1673,#1674);
#1673 = CARTESIAN_POINT('',(17.585,36.175,20.5));
#1674 = VECTOR('',#1675,1.);
#1675 = DIRECTION('',(0.707106781187,-4.329780281177E-17,0.707106781187)
  );
#1676 = ORIENTED_EDGE('',*,*,#1677,.F.);
#1677 = EDGE_CURVE('',#1661,#1670,#1678,.T.);
#1678 = CIRCLE('',#1679,1.E-01);
#1679 = AXIS2_PLACEMENT_3D('',#1680,#1681,#1682);
#1680 = CARTESIAN_POINT('',(18.185,36.175,21.));
#1681 = DIRECTION('',(0.,-0.,1.));
#1682 = DIRECTION('',(0.,1.,0.));
#1683 = CONICAL_SURFACE('',#1684,0.6,0.785398163397);
#1684 = AXIS2_PLACEMENT_3D('',#1685,#1686,#1687);
#1685 = CARTESIAN_POINT('',(18.185,36.175,20.5));
#1686 = DIRECTION('',(-0.,-0.,-1.));
#1687 = DIRECTION('',(0.,1.,0.));
#1688 = ADVANCED_FACE('',(#1689),#1707,.F.);
#1689 = FACE_BOUND('',#1690,.T.);
#1690 = EDGE_LOOP('',(#1691,#1699,#1700,#1701));
#1691 = ORIENTED_EDGE('',*,*,#1692,.F.);
#1692 = EDGE_CURVE('',#874,#1693,#1695,.T.);
#1693 = VERTEX_POINT('',#1694);
#1694 = CARTESIAN_POINT('',(24.815,36.275,21.));
#1695 = LINE('',#1696,#1697);
#1696 = CARTESIAN_POINT('',(24.815,36.525,20.75));
#1697 = VECTOR('',#1698,1.);
#1698 = DIRECTION('',(-2.90882763039E-35,-0.707106781187,0.707106781187)
  );
#1699 = ORIENTED_EDGE('',*,*,#881,.T.);
#1700 = ORIENTED_EDGE('',*,*,#1660,.T.);
#1701 = ORIENTED_EDGE('',*,*,#1702,.F.);
#1702 = EDGE_CURVE('',#1693,#1661,#1703,.T.);
#1703 = LINE('',#1704,#1705);
#1704 = CARTESIAN_POINT('',(24.815,36.275,21.));
#1705 = VECTOR('',#1706,1.);
#1706 = DIRECTION('',(-1.,0.,0.));
#1707 = PLANE('',#1708);
#1708 = AXIS2_PLACEMENT_3D('',#1709,#1710,#1711);
#1709 = CARTESIAN_POINT('',(24.815,36.525,20.75));
#1710 = DIRECTION('',(-1.889513820523E-18,-0.707106781187,
    -0.707106781187));
#1711 = DIRECTION('',(1.,-1.336088035637E-18,-1.336088035637E-18));
#1712 = ADVANCED_FACE('',(#1713),#1731,.F.);
#1713 = FACE_BOUND('',#1714,.T.);
#1714 = EDGE_LOOP('',(#1715,#1716,#1717,#1725));
#1715 = ORIENTED_EDGE('',*,*,#1669,.F.);
#1716 = ORIENTED_EDGE('',*,*,#898,.T.);
#1717 = ORIENTED_EDGE('',*,*,#1718,.T.);
#1718 = EDGE_CURVE('',#899,#1719,#1721,.T.);
#1719 = VERTEX_POINT('',#1720);
#1720 = CARTESIAN_POINT('',(18.085,29.545,21.));
#1721 = LINE('',#1722,#1723);
#1722 = CARTESIAN_POINT('',(17.835,29.545,20.75));
#1723 = VECTOR('',#1724,1.);
#1724 = DIRECTION('',(0.707106781187,-2.90882763039E-35,0.707106781187)
  );
#1725 = ORIENTED_EDGE('',*,*,#1726,.F.);
#1726 = EDGE_CURVE('',#1670,#1719,#1727,.T.);
#1727 = LINE('',#1728,#1729);
#1728 = CARTESIAN_POINT('',(18.085,36.175,21.));
#1729 = VECTOR('',#1730,1.);
#1730 = DIRECTION('',(0.,-1.,0.));
#1731 = PLANE('',#1732);
#1732 = AXIS2_PLACEMENT_3D('',#1733,#1734,#1735);
#1733 = CARTESIAN_POINT('',(17.835,36.175,20.75));
#1734 = DIRECTION('',(0.707106781187,1.889513820523E-18,-0.707106781187)
  );
#1735 = DIRECTION('',(-1.336088035637E-18,1.,1.336088035637E-18));
#1736 = ADVANCED_FACE('',(#1737),#1756,.T.);
#1737 = FACE_BOUND('',#1738,.T.);
#1738 = EDGE_LOOP('',(#1739,#1747,#1748,#1749));
#1739 = ORIENTED_EDGE('',*,*,#1740,.F.);
#1740 = EDGE_CURVE('',#923,#1741,#1743,.T.);
#1741 = VERTEX_POINT('',#1742);
#1742 = CARTESIAN_POINT('',(24.915,36.175,21.));
#1743 = LINE('',#1744,#1745);
#1744 = CARTESIAN_POINT('',(25.165,36.175,20.75));
#1745 = VECTOR('',#1746,1.);
#1746 = DIRECTION('',(-0.707106781187,2.90882763039E-35,0.707106781187)
  );
#1747 = ORIENTED_EDGE('',*,*,#930,.T.);
#1748 = ORIENTED_EDGE('',*,*,#1692,.T.);
#1749 = ORIENTED_EDGE('',*,*,#1750,.F.);
#1750 = EDGE_CURVE('',#1741,#1693,#1751,.T.);
#1751 = CIRCLE('',#1752,1.E-01);
#1752 = AXIS2_PLACEMENT_3D('',#1753,#1754,#1755);
#1753 = CARTESIAN_POINT('',(24.815,36.175,21.));
#1754 = DIRECTION('',(0.,0.,1.));
#1755 = DIRECTION('',(1.,0.,0.));
#1756 = CONICAL_SURFACE('',#1757,0.6,0.785398163397);
#1757 = AXIS2_PLACEMENT_3D('',#1758,#1759,#1760);
#1758 = CARTESIAN_POINT('',(24.815,36.175,20.5));
#1759 = DIRECTION('',(-0.,-0.,-1.));
#1760 = DIRECTION('',(1.,0.,0.));
#1761 = ADVANCED_FACE('',(#1762),#1781,.T.);
#1762 = FACE_BOUND('',#1763,.T.);
#1763 = EDGE_LOOP('',(#1764,#1765,#1766,#1774));
#1764 = ORIENTED_EDGE('',*,*,#1718,.F.);
#1765 = ORIENTED_EDGE('',*,*,#955,.T.);
#1766 = ORIENTED_EDGE('',*,*,#1767,.T.);
#1767 = EDGE_CURVE('',#948,#1768,#1770,.T.);
#1768 = VERTEX_POINT('',#1769);
#1769 = CARTESIAN_POINT('',(18.185,29.445,21.));
#1770 = LINE('',#1771,#1772);
#1771 = CARTESIAN_POINT('',(18.185,28.945,20.5));
#1772 = VECTOR('',#1773,1.);
#1773 = DIRECTION('',(4.329780281177E-17,0.707106781187,0.707106781187)
  );
#1774 = ORIENTED_EDGE('',*,*,#1775,.F.);
#1775 = EDGE_CURVE('',#1719,#1768,#1776,.T.);
#1776 = CIRCLE('',#1777,1.E-01);
#1777 = AXIS2_PLACEMENT_3D('',#1778,#1779,#1780);
#1778 = CARTESIAN_POINT('',(18.185,29.545,21.));
#1779 = DIRECTION('',(0.,0.,1.));
#1780 = DIRECTION('',(-1.,0.,0.));
#1781 = CONICAL_SURFACE('',#1782,0.6,0.785398163397);
#1782 = AXIS2_PLACEMENT_3D('',#1783,#1784,#1785);
#1783 = CARTESIAN_POINT('',(18.185,29.545,20.5));
#1784 = DIRECTION('',(-0.,-0.,-1.));
#1785 = DIRECTION('',(-1.,0.,0.));
#1786 = ADVANCED_FACE('',(#1787),#1805,.F.);
#1787 = FACE_BOUND('',#1788,.T.);
#1788 = EDGE_LOOP('',(#1789,#1797,#1798,#1799));
#1789 = ORIENTED_EDGE('',*,*,#1790,.F.);
#1790 = EDGE_CURVE('',#972,#1791,#1793,.T.);
#1791 = VERTEX_POINT('',#1792);
#1792 = CARTESIAN_POINT('',(24.915,29.545,21.));
#1793 = LINE('',#1794,#1795);
#1794 = CARTESIAN_POINT('',(25.415,29.545,20.5));
#1795 = VECTOR('',#1796,1.);
#1796 = DIRECTION('',(-0.707106781187,4.329780281177E-17,0.707106781187)
  );
#1797 = ORIENTED_EDGE('',*,*,#979,.T.);
#1798 = ORIENTED_EDGE('',*,*,#1740,.T.);
#1799 = ORIENTED_EDGE('',*,*,#1800,.F.);
#1800 = EDGE_CURVE('',#1791,#1741,#1801,.T.);
#1801 = LINE('',#1802,#1803);
#1802 = CARTESIAN_POINT('',(24.915,29.545,21.));
#1803 = VECTOR('',#1804,1.);
#1804 = DIRECTION('',(0.,1.,0.));
#1805 = PLANE('',#1806);
#1806 = AXIS2_PLACEMENT_3D('',#1807,#1808,#1809);
#1807 = CARTESIAN_POINT('',(25.165,29.545,20.75));
#1808 = DIRECTION('',(-0.707106781187,-1.889513820523E-18,
    -0.707106781187));
#1809 = DIRECTION('',(1.336088035637E-18,-1.,1.336088035637E-18));
#1810 = ADVANCED_FACE('',(#1811),#1829,.F.);
#1811 = FACE_BOUND('',#1812,.T.);
#1812 = EDGE_LOOP('',(#1813,#1814,#1815,#1823));
#1813 = ORIENTED_EDGE('',*,*,#1767,.F.);
#1814 = ORIENTED_EDGE('',*,*,#996,.T.);
#1815 = ORIENTED_EDGE('',*,*,#1816,.T.);
#1816 = EDGE_CURVE('',#997,#1817,#1819,.T.);
#1817 = VERTEX_POINT('',#1818);
#1818 = CARTESIAN_POINT('',(24.815,29.445,21.));
#1819 = LINE('',#1820,#1821);
#1820 = CARTESIAN_POINT('',(24.815,29.195,20.75));
#1821 = VECTOR('',#1822,1.);
#1822 = DIRECTION('',(2.90882763039E-35,0.707106781187,0.707106781187));
#1823 = ORIENTED_EDGE('',*,*,#1824,.F.);
#1824 = EDGE_CURVE('',#1768,#1817,#1825,.T.);
#1825 = LINE('',#1826,#1827);
#1826 = CARTESIAN_POINT('',(18.185,29.445,21.));
#1827 = VECTOR('',#1828,1.);
#1828 = DIRECTION('',(1.,0.,0.));
#1829 = PLANE('',#1830);
#1830 = AXIS2_PLACEMENT_3D('',#1831,#1832,#1833);
#1831 = CARTESIAN_POINT('',(18.185,29.195,20.75));
#1832 = DIRECTION('',(1.889513820523E-18,0.707106781187,-0.707106781187)
  );
#1833 = DIRECTION('',(-1.,1.336088035637E-18,-1.336088035637E-18));
#1834 = ADVANCED_FACE('',(#1835),#1847,.T.);
#1835 = FACE_BOUND('',#1836,.T.);
#1836 = EDGE_LOOP('',(#1837,#1838,#1839,#1840));
#1837 = ORIENTED_EDGE('',*,*,#1816,.F.);
#1838 = ORIENTED_EDGE('',*,*,#1021,.T.);
#1839 = ORIENTED_EDGE('',*,*,#1790,.T.);
#1840 = ORIENTED_EDGE('',*,*,#1841,.F.);
#1841 = EDGE_CURVE('',#1817,#1791,#1842,.T.);
#1842 = CIRCLE('',#1843,1.E-01);
#1843 = AXIS2_PLACEMENT_3D('',#1844,#1845,#1846);
#1844 = CARTESIAN_POINT('',(24.815,29.545,21.));
#1845 = DIRECTION('',(-0.,0.,1.));
#1846 = DIRECTION('',(0.,-1.,0.));
#1847 = CONICAL_SURFACE('',#1848,0.6,0.785398163397);
#1848 = AXIS2_PLACEMENT_3D('',#1849,#1850,#1851);
#1849 = CARTESIAN_POINT('',(24.815,29.545,20.5));
#1850 = DIRECTION('',(-0.,-0.,-1.));
#1851 = DIRECTION('',(0.,-1.,0.));
#1852 = ADVANCED_FACE('',(#1853),#1859,.F.);
#1853 = FACE_BOUND('',#1854,.F.);
#1854 = EDGE_LOOP('',(#1855,#1856,#1857,#1858));
#1855 = ORIENTED_EDGE('',*,*,#1139,.F.);
#1856 = ORIENTED_EDGE('',*,*,#1643,.T.);
#1857 = ORIENTED_EDGE('',*,*,#1108,.T.);
#1858 = ORIENTED_EDGE('',*,*,#1241,.T.);
#1859 = PLANE('',#1860);
#1860 = AXIS2_PLACEMENT_3D('',#1861,#1862,#1863);
#1861 = CARTESIAN_POINT('',(45.172338161771,15.9,0.));
#1862 = DIRECTION('',(0.,0.,1.));
#1863 = DIRECTION('',(1.,0.,0.));
#1864 = ADVANCED_FACE('',(#1865),#1876,.F.);
#1865 = FACE_BOUND('',#1866,.F.);
#1866 = EDGE_LOOP('',(#1867,#1868,#1874,#1875));
#1867 = ORIENTED_EDGE('',*,*,#1053,.T.);
#1868 = ORIENTED_EDGE('',*,*,#1869,.T.);
#1869 = EDGE_CURVE('',#1046,#1070,#1870,.T.);
#1870 = LINE('',#1871,#1872);
#1871 = CARTESIAN_POINT('',(86.,0.,0.));
#1872 = VECTOR('',#1873,1.);
#1873 = DIRECTION('',(0.,1.,0.));
#1874 = ORIENTED_EDGE('',*,*,#1069,.T.);
#1875 = ORIENTED_EDGE('',*,*,#1061,.T.);
#1876 = PLANE('',#1877);
#1877 = AXIS2_PLACEMENT_3D('',#1878,#1879,#1880);
#1878 = CARTESIAN_POINT('',(43.,0.,0.));
#1879 = DIRECTION('',(0.,0.,1.));
#1880 = DIRECTION('',(1.,0.,0.));
#1881 = ADVANCED_FACE('',(#1882),#1888,.F.);
#1882 = FACE_BOUND('',#1883,.F.);
#1883 = EDGE_LOOP('',(#1884,#1885,#1886,#1887));
#1884 = ORIENTED_EDGE('',*,*,#1430,.T.);
#1885 = ORIENTED_EDGE('',*,*,#1406,.T.);
#1886 = ORIENTED_EDGE('',*,*,#1382,.T.);
#1887 = ORIENTED_EDGE('',*,*,#1185,.T.);
#1888 = PLANE('',#1889);
#1889 = AXIS2_PLACEMENT_3D('',#1890,#1891,#1892);
#1890 = CARTESIAN_POINT('',(64.5,1.417592592995,0.616512823265));
#1891 = DIRECTION('',(-0.,-0.342020143326,-0.939692620786));
#1892 = DIRECTION('',(0.,0.939692620786,-0.342020143326));
#1893 = ADVANCED_FACE('',(#1894),#1919,.F.);
#1894 = FACE_BOUND('',#1895,.F.);
#1895 = EDGE_LOOP('',(#1896,#1904,#1912,#1918));
#1896 = ORIENTED_EDGE('',*,*,#1897,.F.);
#1897 = EDGE_CURVE('',#1898,#1070,#1900,.T.);
#1898 = VERTEX_POINT('',#1899);
#1899 = CARTESIAN_POINT('',(90.,18.9,0.));
#1900 = LINE('',#1901,#1902);
#1901 = CARTESIAN_POINT('',(90.,18.9,0.));
#1902 = VECTOR('',#1903,1.);
#1903 = DIRECTION('',(-0.971520338783,-0.236956180191,0.));
#1904 = ORIENTED_EDGE('',*,*,#1905,.T.);
#1905 = EDGE_CURVE('',#1898,#1906,#1908,.T.);
#1906 = VERTEX_POINT('',#1907);
#1907 = CARTESIAN_POINT('',(90.,18.9,10.));
#1908 = LINE('',#1909,#1910);
#1909 = CARTESIAN_POINT('',(90.,18.9,0.));
#1910 = VECTOR('',#1911,1.);
#1911 = DIRECTION('',(0.,0.,1.));
#1912 = ORIENTED_EDGE('',*,*,#1913,.T.);
#1913 = EDGE_CURVE('',#1906,#598,#1914,.T.);
#1914 = LINE('',#1915,#1916);
#1915 = CARTESIAN_POINT('',(90.,18.9,10.));
#1916 = VECTOR('',#1917,1.);
#1917 = DIRECTION('',(-0.971520338783,-0.236956180191,0.));
#1918 = ORIENTED_EDGE('',*,*,#1332,.T.);
#1919 = PLANE('',#1920);
#1920 = AXIS2_PLACEMENT_3D('',#1921,#1922,#1923);
#1921 = CARTESIAN_POINT('',(90.,18.9,0.));
#1922 = DIRECTION('',(0.236956180191,-0.971520338783,0.));
#1923 = DIRECTION('',(-0.971520338783,-0.236956180191,0.));
#1924 = ADVANCED_FACE('',(#1925),#1943,.T.);
#1925 = FACE_BOUND('',#1926,.T.);
#1926 = EDGE_LOOP('',(#1927,#1928,#1936,#1942));
#1927 = ORIENTED_EDGE('',*,*,#1349,.F.);
#1928 = ORIENTED_EDGE('',*,*,#1929,.T.);
#1929 = EDGE_CURVE('',#574,#1930,#1932,.T.);
#1930 = VERTEX_POINT('',#1931);
#1931 = CARTESIAN_POINT('',(90.,12.9,10.));
#1932 = LINE('',#1933,#1934);
#1933 = CARTESIAN_POINT('',(85.9,13.9,10.));
#1934 = VECTOR('',#1935,1.);
#1935 = DIRECTION('',(0.971520338783,-0.236956180191,0.));
#1936 = ORIENTED_EDGE('',*,*,#1937,.T.);
#1937 = EDGE_CURVE('',#1930,#1906,#1938,.T.);
#1938 = LINE('',#1939,#1940);
#1939 = CARTESIAN_POINT('',(90.,12.9,10.));
#1940 = VECTOR('',#1941,1.);
#1941 = DIRECTION('',(0.,1.,0.));
#1942 = ORIENTED_EDGE('',*,*,#1913,.T.);
#1943 = PLANE('',#1944);
#1944 = AXIS2_PLACEMENT_3D('',#1945,#1946,#1947);
#1945 = CARTESIAN_POINT('',(88.172338161771,15.9,10.));
#1946 = DIRECTION('',(0.,0.,1.));
#1947 = DIRECTION('',(1.,0.,0.));
#1948 = ADVANCED_FACE('',(#1949),#1967,.F.);
#1949 = FACE_BOUND('',#1950,.F.);
#1950 = EDGE_LOOP('',(#1951,#1959,#1960,#1961));
#1951 = ORIENTED_EDGE('',*,*,#1952,.F.);
#1952 = EDGE_CURVE('',#1046,#1953,#1955,.T.);
#1953 = VERTEX_POINT('',#1954);
#1954 = CARTESIAN_POINT('',(90.,12.9,0.));
#1955 = LINE('',#1956,#1957);
#1956 = CARTESIAN_POINT('',(85.9,13.9,0.));
#1957 = VECTOR('',#1958,1.);
#1958 = DIRECTION('',(0.971520338783,-0.236956180191,0.));
#1959 = ORIENTED_EDGE('',*,*,#1368,.T.);
#1960 = ORIENTED_EDGE('',*,*,#1929,.T.);
#1961 = ORIENTED_EDGE('',*,*,#1962,.F.);
#1962 = EDGE_CURVE('',#1953,#1930,#1963,.T.);
#1963 = LINE('',#1964,#1965);
#1964 = CARTESIAN_POINT('',(90.,12.9,0.));
#1965 = VECTOR('',#1966,1.);
#1966 = DIRECTION('',(0.,0.,1.));
#1967 = PLANE('',#1968);
#1968 = AXIS2_PLACEMENT_3D('',#1969,#1970,#1971);
#1969 = CARTESIAN_POINT('',(85.9,13.9,0.));
#1970 = DIRECTION('',(0.236956180191,0.971520338783,0.));
#1971 = DIRECTION('',(0.971520338783,-0.236956180191,0.));
#1972 = ADVANCED_FACE('',(#1973),#1999,.T.);
#1973 = FACE_BOUND('',#1974,.T.);
#1974 = EDGE_LOOP('',(#1975,#1983,#1984,#1992));
#1975 = ORIENTED_EDGE('',*,*,#1976,.F.);
#1976 = EDGE_CURVE('',#1448,#1977,#1979,.T.);
#1977 = VERTEX_POINT('',#1978);
#1978 = CARTESIAN_POINT('',(61.185,36.275,21.));
#1979 = LINE('',#1980,#1981);
#1980 = CARTESIAN_POINT('',(61.185,36.525,20.75));
#1981 = VECTOR('',#1982,1.);
#1982 = DIRECTION('',(-2.90882763039E-35,-0.707106781187,0.707106781187)
  );
#1983 = ORIENTED_EDGE('',*,*,#1464,.T.);
#1984 = ORIENTED_EDGE('',*,*,#1985,.T.);
#1985 = EDGE_CURVE('',#1457,#1986,#1988,.T.);
#1986 = VERTEX_POINT('',#1987);
#1987 = CARTESIAN_POINT('',(61.085,36.175,21.));
#1988 = LINE('',#1989,#1990);
#1989 = CARTESIAN_POINT('',(60.585,36.175,20.5));
#1990 = VECTOR('',#1991,1.);
#1991 = DIRECTION('',(0.707106781187,-4.329780281177E-17,0.707106781187)
  );
#1992 = ORIENTED_EDGE('',*,*,#1993,.F.);
#1993 = EDGE_CURVE('',#1977,#1986,#1994,.T.);
#1994 = CIRCLE('',#1995,1.E-01);
#1995 = AXIS2_PLACEMENT_3D('',#1996,#1997,#1998);
#1996 = CARTESIAN_POINT('',(61.185,36.175,21.));
#1997 = DIRECTION('',(0.,-0.,1.));
#1998 = DIRECTION('',(0.,1.,0.));
#1999 = CONICAL_SURFACE('',#2000,0.6,0.785398163397);
#2000 = AXIS2_PLACEMENT_3D('',#2001,#2002,#2003);
#2001 = CARTESIAN_POINT('',(61.185,36.175,20.5));
#2002 = DIRECTION('',(-0.,-0.,-1.));
#2003 = DIRECTION('',(0.,1.,0.));
#2004 = ADVANCED_FACE('',(#2005),#2023,.F.);
#2005 = FACE_BOUND('',#2006,.T.);
#2006 = EDGE_LOOP('',(#2007,#2015,#2016,#2017));
#2007 = ORIENTED_EDGE('',*,*,#2008,.F.);
#2008 = EDGE_CURVE('',#1481,#2009,#2011,.T.);
#2009 = VERTEX_POINT('',#2010);
#2010 = CARTESIAN_POINT('',(67.815,36.275,21.));
#2011 = LINE('',#2012,#2013);
#2012 = CARTESIAN_POINT('',(67.815,36.525,20.75));
#2013 = VECTOR('',#2014,1.);
#2014 = DIRECTION('',(-2.90882763039E-35,-0.707106781187,0.707106781187)
  );
#2015 = ORIENTED_EDGE('',*,*,#1488,.T.);
#2016 = ORIENTED_EDGE('',*,*,#1976,.T.);
#2017 = ORIENTED_EDGE('',*,*,#2018,.F.);
#2018 = EDGE_CURVE('',#2009,#1977,#2019,.T.);
#2019 = LINE('',#2020,#2021);
#2020 = CARTESIAN_POINT('',(67.815,36.275,21.));
#2021 = VECTOR('',#2022,1.);
#2022 = DIRECTION('',(-1.,0.,0.));
#2023 = PLANE('',#2024);
#2024 = AXIS2_PLACEMENT_3D('',#2025,#2026,#2027);
#2025 = CARTESIAN_POINT('',(67.815,36.525,20.75));
#2026 = DIRECTION('',(-1.889513820523E-18,-0.707106781187,
    -0.707106781187));
#2027 = DIRECTION('',(1.,-1.336088035637E-18,-1.336088035637E-18));
#2028 = ADVANCED_FACE('',(#2029),#2047,.F.);
#2029 = FACE_BOUND('',#2030,.T.);
#2030 = EDGE_LOOP('',(#2031,#2032,#2033,#2041));
#2031 = ORIENTED_EDGE('',*,*,#1985,.F.);
#2032 = ORIENTED_EDGE('',*,*,#1505,.T.);
#2033 = ORIENTED_EDGE('',*,*,#2034,.T.);
#2034 = EDGE_CURVE('',#1506,#2035,#2037,.T.);
#2035 = VERTEX_POINT('',#2036);
#2036 = CARTESIAN_POINT('',(61.085,29.545,21.));
#2037 = LINE('',#2038,#2039);
#2038 = CARTESIAN_POINT('',(60.835,29.545,20.75));
#2039 = VECTOR('',#2040,1.);
#2040 = DIRECTION('',(0.707106781187,-2.90882763039E-35,0.707106781187)
  );
#2041 = ORIENTED_EDGE('',*,*,#2042,.F.);
#2042 = EDGE_CURVE('',#1986,#2035,#2043,.T.);
#2043 = LINE('',#2044,#2045);
#2044 = CARTESIAN_POINT('',(61.085,36.175,21.));
#2045 = VECTOR('',#2046,1.);
#2046 = DIRECTION('',(0.,-1.,0.));
#2047 = PLANE('',#2048);
#2048 = AXIS2_PLACEMENT_3D('',#2049,#2050,#2051);
#2049 = CARTESIAN_POINT('',(60.835,36.175,20.75));
#2050 = DIRECTION('',(0.707106781187,1.889513820523E-18,-0.707106781187)
  );
#2051 = DIRECTION('',(-1.336088035637E-18,1.,1.336088035637E-18));
#2052 = ADVANCED_FACE('',(#2053),#2072,.T.);
#2053 = FACE_BOUND('',#2054,.T.);
#2054 = EDGE_LOOP('',(#2055,#2063,#2064,#2065));
#2055 = ORIENTED_EDGE('',*,*,#2056,.F.);
#2056 = EDGE_CURVE('',#1530,#2057,#2059,.T.);
#2057 = VERTEX_POINT('',#2058);
#2058 = CARTESIAN_POINT('',(67.915,36.175,21.));
#2059 = LINE('',#2060,#2061);
#2060 = CARTESIAN_POINT('',(68.165,36.175,20.75));
#2061 = VECTOR('',#2062,1.);
#2062 = DIRECTION('',(-0.707106781187,2.90882763039E-35,0.707106781187)
  );
#2063 = ORIENTED_EDGE('',*,*,#1537,.T.);
#2064 = ORIENTED_EDGE('',*,*,#2008,.T.);
#2065 = ORIENTED_EDGE('',*,*,#2066,.F.);
#2066 = EDGE_CURVE('',#2057,#2009,#2067,.T.);
#2067 = CIRCLE('',#2068,1.E-01);
#2068 = AXIS2_PLACEMENT_3D('',#2069,#2070,#2071);
#2069 = CARTESIAN_POINT('',(67.815,36.175,21.));
#2070 = DIRECTION('',(0.,0.,1.));
#2071 = DIRECTION('',(1.,0.,0.));
#2072 = CONICAL_SURFACE('',#2073,0.6,0.785398163397);
#2073 = AXIS2_PLACEMENT_3D('',#2074,#2075,#2076);
#2074 = CARTESIAN_POINT('',(67.815,36.175,20.5));
#2075 = DIRECTION('',(-0.,-0.,-1.));
#2076 = DIRECTION('',(1.,0.,0.));
#2077 = ADVANCED_FACE('',(#2078),#2097,.T.);
#2078 = FACE_BOUND('',#2079,.T.);
#2079 = EDGE_LOOP('',(#2080,#2081,#2082,#2090));
#2080 = ORIENTED_EDGE('',*,*,#2034,.F.);
#2081 = ORIENTED_EDGE('',*,*,#1562,.T.);
#2082 = ORIENTED_EDGE('',*,*,#2083,.T.);
#2083 = EDGE_CURVE('',#1555,#2084,#2086,.T.);
#2084 = VERTEX_POINT('',#2085);
#2085 = CARTESIAN_POINT('',(61.185,29.445,21.));
#2086 = LINE('',#2087,#2088);
#2087 = CARTESIAN_POINT('',(61.185,28.945,20.5));
#2088 = VECTOR('',#2089,1.);
#2089 = DIRECTION('',(4.329780281177E-17,0.707106781187,0.707106781187)
  );
#2090 = ORIENTED_EDGE('',*,*,#2091,.F.);
#2091 = EDGE_CURVE('',#2035,#2084,#2092,.T.);
#2092 = CIRCLE('',#2093,1.E-01);
#2093 = AXIS2_PLACEMENT_3D('',#2094,#2095,#2096);
#2094 = CARTESIAN_POINT('',(61.185,29.545,21.));
#2095 = DIRECTION('',(0.,0.,1.));
#2096 = DIRECTION('',(-1.,0.,0.));
#2097 = CONICAL_SURFACE('',#2098,0.6,0.785398163397);
#2098 = AXIS2_PLACEMENT_3D('',#2099,#2100,#2101);
#2099 = CARTESIAN_POINT('',(61.185,29.545,20.5));
#2100 = DIRECTION('',(-0.,-0.,-1.));
#2101 = DIRECTION('',(-1.,0.,0.));
#2102 = ADVANCED_FACE('',(#2103),#2121,.F.);
#2103 = FACE_BOUND('',#2104,.T.);
#2104 = EDGE_LOOP('',(#2105,#2113,#2114,#2115));
#2105 = ORIENTED_EDGE('',*,*,#2106,.F.);
#2106 = EDGE_CURVE('',#1579,#2107,#2109,.T.);
#2107 = VERTEX_POINT('',#2108);
#2108 = CARTESIAN_POINT('',(67.915,29.545,21.));
#2109 = LINE('',#2110,#2111);
#2110 = CARTESIAN_POINT('',(68.415,29.545,20.5));
#2111 = VECTOR('',#2112,1.);
#2112 = DIRECTION('',(-0.707106781187,4.329780281177E-17,0.707106781187)
  );
#2113 = ORIENTED_EDGE('',*,*,#1586,.T.);
#2114 = ORIENTED_EDGE('',*,*,#2056,.T.);
#2115 = ORIENTED_EDGE('',*,*,#2116,.F.);
#2116 = EDGE_CURVE('',#2107,#2057,#2117,.T.);
#2117 = LINE('',#2118,#2119);
#2118 = CARTESIAN_POINT('',(67.915,29.545,21.));
#2119 = VECTOR('',#2120,1.);
#2120 = DIRECTION('',(0.,1.,0.));
#2121 = PLANE('',#2122);
#2122 = AXIS2_PLACEMENT_3D('',#2123,#2124,#2125);
#2123 = CARTESIAN_POINT('',(68.165,29.545,20.75));
#2124 = DIRECTION('',(-0.707106781187,-1.889513820523E-18,
    -0.707106781187));
#2125 = DIRECTION('',(1.336088035637E-18,-1.,1.336088035637E-18));
#2126 = ADVANCED_FACE('',(#2127),#2145,.F.);
#2127 = FACE_BOUND('',#2128,.T.);
#2128 = EDGE_LOOP('',(#2129,#2130,#2131,#2139));
#2129 = ORIENTED_EDGE('',*,*,#2083,.F.);
#2130 = ORIENTED_EDGE('',*,*,#1603,.T.);
#2131 = ORIENTED_EDGE('',*,*,#2132,.T.);
#2132 = EDGE_CURVE('',#1604,#2133,#2135,.T.);
#2133 = VERTEX_POINT('',#2134);
#2134 = CARTESIAN_POINT('',(67.815,29.445,21.));
#2135 = LINE('',#2136,#2137);
#2136 = CARTESIAN_POINT('',(67.815,29.195,20.75));
#2137 = VECTOR('',#2138,1.);
#2138 = DIRECTION('',(2.90882763039E-35,0.707106781187,0.707106781187));
#2139 = ORIENTED_EDGE('',*,*,#2140,.F.);
#2140 = EDGE_CURVE('',#2084,#2133,#2141,.T.);
#2141 = LINE('',#2142,#2143);
#2142 = CARTESIAN_POINT('',(61.185,29.445,21.));
#2143 = VECTOR('',#2144,1.);
#2144 = DIRECTION('',(1.,0.,0.));
#2145 = PLANE('',#2146);
#2146 = AXIS2_PLACEMENT_3D('',#2147,#2148,#2149);
#2147 = CARTESIAN_POINT('',(61.185,29.195,20.75));
#2148 = DIRECTION('',(1.889513820523E-18,0.707106781187,-0.707106781187)
  );
#2149 = DIRECTION('',(-1.,1.336088035637E-18,-1.336088035637E-18));
#2150 = ADVANCED_FACE('',(#2151),#2163,.T.);
#2151 = FACE_BOUND('',#2152,.T.);
#2152 = EDGE_LOOP('',(#2153,#2154,#2155,#2156));
#2153 = ORIENTED_EDGE('',*,*,#2132,.F.);
#2154 = ORIENTED_EDGE('',*,*,#1628,.T.);
#2155 = ORIENTED_EDGE('',*,*,#2106,.T.);
#2156 = ORIENTED_EDGE('',*,*,#2157,.F.);
#2157 = EDGE_CURVE('',#2133,#2107,#2158,.T.);
#2158 = CIRCLE('',#2159,1.E-01);
#2159 = AXIS2_PLACEMENT_3D('',#2160,#2161,#2162);
#2160 = CARTESIAN_POINT('',(67.815,29.545,21.));
#2161 = DIRECTION('',(-0.,0.,1.));
#2162 = DIRECTION('',(0.,-1.,0.));
#2163 = CONICAL_SURFACE('',#2164,0.6,0.785398163397);
#2164 = AXIS2_PLACEMENT_3D('',#2165,#2166,#2167);
#2165 = CARTESIAN_POINT('',(67.815,29.545,20.5));
#2166 = DIRECTION('',(-0.,-0.,-1.));
#2167 = DIRECTION('',(0.,-1.,0.));
#2168 = ADVANCED_FACE('',(#2169),#2179,.T.);
#2169 = FACE_BOUND('',#2170,.T.);
#2170 = EDGE_LOOP('',(#2171,#2172,#2173,#2174,#2175,#2176,#2177,#2178));
#2171 = ORIENTED_EDGE('',*,*,#1702,.T.);
#2172 = ORIENTED_EDGE('',*,*,#1677,.T.);
#2173 = ORIENTED_EDGE('',*,*,#1726,.T.);
#2174 = ORIENTED_EDGE('',*,*,#1775,.T.);
#2175 = ORIENTED_EDGE('',*,*,#1824,.T.);
#2176 = ORIENTED_EDGE('',*,*,#1841,.T.);
#2177 = ORIENTED_EDGE('',*,*,#1800,.T.);
#2178 = ORIENTED_EDGE('',*,*,#1750,.T.);
#2179 = PLANE('',#2180);
#2180 = AXIS2_PLACEMENT_3D('',#2181,#2182,#2183);
#2181 = CARTESIAN_POINT('',(21.5,32.86,21.));
#2182 = DIRECTION('',(0.,0.,1.));
#2183 = DIRECTION('',(1.,0.,0.));
#2184 = ADVANCED_FACE('',(#2185),#2196,.F.);
#2185 = FACE_BOUND('',#2186,.F.);
#2186 = EDGE_LOOP('',(#2187,#2188,#2189,#2195));
#2187 = ORIENTED_EDGE('',*,*,#1869,.F.);
#2188 = ORIENTED_EDGE('',*,*,#1952,.T.);
#2189 = ORIENTED_EDGE('',*,*,#2190,.T.);
#2190 = EDGE_CURVE('',#1953,#1898,#2191,.T.);
#2191 = LINE('',#2192,#2193);
#2192 = CARTESIAN_POINT('',(90.,12.9,0.));
#2193 = VECTOR('',#2194,1.);
#2194 = DIRECTION('',(0.,1.,0.));
#2195 = ORIENTED_EDGE('',*,*,#1897,.T.);
#2196 = PLANE('',#2197);
#2197 = AXIS2_PLACEMENT_3D('',#2198,#2199,#2200);
#2198 = CARTESIAN_POINT('',(88.172338161771,15.9,0.));
#2199 = DIRECTION('',(0.,0.,1.));
#2200 = DIRECTION('',(1.,0.,0.));
#2201 = ADVANCED_FACE('',(#2202),#2208,.F.);
#2202 = FACE_BOUND('',#2203,.F.);
#2203 = EDGE_LOOP('',(#2204,#2205,#2206,#2207));
#2204 = ORIENTED_EDGE('',*,*,#1962,.T.);
#2205 = ORIENTED_EDGE('',*,*,#1937,.T.);
#2206 = ORIENTED_EDGE('',*,*,#1905,.F.);
#2207 = ORIENTED_EDGE('',*,*,#2190,.F.);
#2208 = PLANE('',#2209);
#2209 = AXIS2_PLACEMENT_3D('',#2210,#2211,#2212);
#2210 = CARTESIAN_POINT('',(90.,12.9,0.));
#2211 = DIRECTION('',(-1.,0.,0.));
#2212 = DIRECTION('',(0.,1.,0.));
#2213 = ADVANCED_FACE('',(#2214),#2224,.T.);
#2214 = FACE_BOUND('',#2215,.T.);
#2215 = EDGE_LOOP('',(#2216,#2217,#2218,#2219,#2220,#2221,#2222,#2223));
#2216 = ORIENTED_EDGE('',*,*,#2018,.T.);
#2217 = ORIENTED_EDGE('',*,*,#1993,.T.);
#2218 = ORIENTED_EDGE('',*,*,#2042,.T.);
#2219 = ORIENTED_EDGE('',*,*,#2091,.T.);
#2220 = ORIENTED_EDGE('',*,*,#2140,.T.);
#2221 = ORIENTED_EDGE('',*,*,#2157,.T.);
#2222 = ORIENTED_EDGE('',*,*,#2116,.T.);
#2223 = ORIENTED_EDGE('',*,*,#2066,.T.);
#2224 = PLANE('',#2225);
#2225 = AXIS2_PLACEMENT_3D('',#2226,#2227,#2228);
#2226 = CARTESIAN_POINT('',(64.5,32.86,21.));
#2227 = DIRECTION('',(0.,0.,1.));
#2228 = DIRECTION('',(1.,0.,0.));
#2229 = ( GEOMETRIC_REPRESENTATION_CONTEXT(3) 
GLOBAL_UNCERTAINTY_ASSIGNED_CONTEXT((#2233)) 
GLOBAL_UNIT_ASSIGNED_CONTEXT((#2230,#2231,#2232)) REPRESENTATION_CONTEXT
('Context #1','3D Context with UNIT and UNCERTAINTY') );
#2230 = ( LENGTH_UNIT() NAMED_UNIT(*) SI_UNIT(.MILLI.,.METRE.) );
#2231 = ( NAMED_UNIT(*) PLANE_ANGLE_UNIT() SI_UNIT($,.RADIAN.) );
#2232 = ( NAMED_UNIT(*) SI_UNIT($,.STERADIAN.) SOLID_ANGLE_UNIT() );
#2233 = UNCERTAINTY_MEASURE_WITH_UNIT(LENGTH_MEASURE(1.E-07),#2230,
  'distance_accuracy_value','confusion accuracy');
#2234 = PRODUCT_RELATED_PRODUCT_CATEGORY('part',$,(#7));
ENDSEC;
END-ISO-10303-21;
