ISO-10303-21;
HEADER;
FILE_DESCRIPTION(('FreeCAD Model'),'2;1');
FILE_NAME('Open CASCADE Shape Model','2026-08-30T15:43:49',('FreeCAD'),(
    'FreeCAD'),'Open CASCADE STEP processor 7.8','FreeCAD','Unknown');
FILE_SCHEMA(('AUTOMOTIVE_DESIGN { 1 0 10303 214 1 1 1 1 }'));
ENDSEC;
DATA;
#1 = APPLICATION_PROTOCOL_DEFINITION('international standard',
  'automotive_design',2000,#2);
#2 = APPLICATION_CONTEXT(
  'core data for automotive mechanical design processes');
#3 = SHAPE_DEFINITION_REPRESENTATION(#4,#10);
#4 = PRODUCT_DEFINITION_SHAPE('','',#5);
#5 = PRODUCT_DEFINITION('design','',#6,#9);
#6 = PRODUCT_DEFINITION_FORMATION('','',#7);
#7 = PRODUCT('Open CASCADE STEP translator 7.8 103',
  'Open CASCADE STEP translator 7.8 103','',(#8));
#8 = PRODUCT_CONTEXT('',#2,'mechanical');
#9 = PRODUCT_DEFINITION_CONTEXT('part definition',#2,'design');
#10 = SHAPE_REPRESENTATION('',(#11,#15,#760,#1058),#1496);
#11 = AXIS2_PLACEMENT_3D('',#12,#13,#14);
#12 = CARTESIAN_POINT('',(0.,0.,0.));
#13 = DIRECTION('',(0.,0.,1.));
#14 = DIRECTION('',(1.,0.,-0.));
#15 = MANIFOLD_SOLID_BREP('',#16);
#16 = CLOSED_SHELL('',(#17,#57,#88,#121,#154,#187,#220,#253,#286,#319,
    #352,#383,#416,#449,#482,#515,#548,#581,#614,#647,#680,#702,#731));
#17 = ADVANCED_FACE('',(#18),#52,.T.);
#18 = FACE_BOUND('',#19,.T.);
#19 = EDGE_LOOP('',(#20,#30,#38,#46));
#20 = ORIENTED_EDGE('',*,*,#21,.T.);
#21 = EDGE_CURVE('',#22,#24,#26,.T.);
#22 = VERTEX_POINT('',#23);
#23 = CARTESIAN_POINT('',(21.20152866242,1.802024570724,4.366260937334)
  );
#24 = VERTEX_POINT('',#25);
#25 = CARTESIAN_POINT('',(21.20152866242,1.050270474095,4.639877051995)
  );
#26 = LINE('',#27,#28);
#27 = CARTESIAN_POINT('',(21.20152866242,1.802024570724,4.366260937334)
  );
#28 = VECTOR('',#29,1.);
#29 = DIRECTION('',(0.,-0.939692620786,0.342020143326));
#30 = ORIENTED_EDGE('',*,*,#31,.T.);
#31 = EDGE_CURVE('',#24,#32,#34,.T.);
#32 = VERTEX_POINT('',#33);
#33 = CARTESIAN_POINT('',(21.20152866242,0.71008024746,3.705212085995));
#34 = LINE('',#35,#36);
#35 = CARTESIAN_POINT('',(21.20152866242,1.050270474095,4.639877051995)
  );
#36 = VECTOR('',#37,1.);
#37 = DIRECTION('',(0.,-0.342020143326,-0.939692620786));
#38 = ORIENTED_EDGE('',*,*,#39,.F.);
#39 = EDGE_CURVE('',#40,#32,#42,.T.);
#40 = VERTEX_POINT('',#41);
#41 = CARTESIAN_POINT('',(21.20152866242,1.461834344089,3.431595971335)
  );
#42 = LINE('',#43,#44);
#43 = CARTESIAN_POINT('',(21.20152866242,1.461834344089,3.431595971335)
  );
#44 = VECTOR('',#45,1.);
#45 = DIRECTION('',(0.,-0.939692620786,0.342020143326));
#46 = ORIENTED_EDGE('',*,*,#47,.F.);
#47 = EDGE_CURVE('',#22,#40,#48,.T.);
#48 = LINE('',#49,#50);
#49 = CARTESIAN_POINT('',(21.20152866242,1.802024570724,4.366260937334)
  );
#50 = VECTOR('',#51,1.);
#51 = DIRECTION('',(0.,-0.342020143326,-0.939692620786));
#52 = PLANE('',#53);
#53 = AXIS2_PLACEMENT_3D('',#54,#55,#56);
#54 = CARTESIAN_POINT('',(21.20152866242,1.802024570724,4.366260937334)
  );
#55 = DIRECTION('',(1.,0.,0.));
#56 = DIRECTION('',(0.,-0.342020143326,-0.939692620786));
#57 = ADVANCED_FACE('',(#58),#83,.T.);
#58 = FACE_BOUND('',#59,.T.);
#59 = EDGE_LOOP('',(#60,#61,#69,#77));
#60 = ORIENTED_EDGE('',*,*,#39,.T.);
#61 = ORIENTED_EDGE('',*,*,#62,.T.);
#62 = EDGE_CURVE('',#32,#63,#65,.T.);
#63 = VERTEX_POINT('',#64);
#64 = CARTESIAN_POINT('',(17.437197452229,0.71008024746,3.705212085995)
  );
#65 = LINE('',#66,#67);
#66 = CARTESIAN_POINT('',(21.20152866242,0.71008024746,3.705212085995));
#67 = VECTOR('',#68,1.);
#68 = DIRECTION('',(-1.,0.,0.));
#69 = ORIENTED_EDGE('',*,*,#70,.F.);
#70 = EDGE_CURVE('',#71,#63,#73,.T.);
#71 = VERTEX_POINT('',#72);
#72 = CARTESIAN_POINT('',(17.437197452229,1.461834344089,3.431595971335)
  );
#73 = LINE('',#74,#75);
#74 = CARTESIAN_POINT('',(17.437197452229,1.461834344089,3.431595971335)
  );
#75 = VECTOR('',#76,1.);
#76 = DIRECTION('',(0.,-0.939692620786,0.342020143326));
#77 = ORIENTED_EDGE('',*,*,#78,.F.);
#78 = EDGE_CURVE('',#40,#71,#79,.T.);
#79 = LINE('',#80,#81);
#80 = CARTESIAN_POINT('',(21.20152866242,1.461834344089,3.431595971335)
  );
#81 = VECTOR('',#82,1.);
#82 = DIRECTION('',(-1.,0.,0.));
#83 = PLANE('',#84);
#84 = AXIS2_PLACEMENT_3D('',#85,#86,#87);
#85 = CARTESIAN_POINT('',(21.20152866242,1.461834344089,3.431595971335)
  );
#86 = DIRECTION('',(0.,-0.342020143326,-0.939692620786));
#87 = DIRECTION('',(-1.,0.,0.));
#88 = ADVANCED_FACE('',(#89),#114,.T.);
#89 = FACE_BOUND('',#90,.T.);
#90 = EDGE_LOOP('',(#91,#92,#100,#108));
#91 = ORIENTED_EDGE('',*,*,#70,.T.);
#92 = ORIENTED_EDGE('',*,*,#93,.T.);
#93 = EDGE_CURVE('',#63,#94,#96,.T.);
#94 = VERTEX_POINT('',#95);
#95 = CARTESIAN_POINT('',(17.804076433121,1.077457807781,4.714573637392)
  );
#96 = B_SPLINE_CURVE_WITH_KNOTS('',2,(#97,#98,#99),.UNSPECIFIED.,.F.,.F.
  ,(3,3),(0.,1.),.PIECEWISE_BEZIER_KNOTS.);
#97 = CARTESIAN_POINT('',(17.437197452229,0.71008024746,3.705212085995)
  );
#98 = CARTESIAN_POINT('',(17.498343949045,0.903964277753,4.237904081218)
  );
#99 = CARTESIAN_POINT('',(17.804076433121,1.077457807781,4.714573637392)
  );
#100 = ORIENTED_EDGE('',*,*,#101,.F.);
#101 = EDGE_CURVE('',#102,#94,#104,.T.);
#102 = VERTEX_POINT('',#103);
#103 = CARTESIAN_POINT('',(17.804076433121,1.82921190441,4.440957522732)
  );
#104 = LINE('',#105,#106);
#105 = CARTESIAN_POINT('',(17.804076433121,1.82921190441,4.440957522732)
  );
#106 = VECTOR('',#107,1.);
#107 = DIRECTION('',(0.,-0.939692620786,0.342020143326));
#108 = ORIENTED_EDGE('',*,*,#109,.F.);
#109 = EDGE_CURVE('',#71,#102,#110,.T.);
#110 = B_SPLINE_CURVE_WITH_KNOTS('',2,(#111,#112,#113),.UNSPECIFIED.,.F.
  ,.F.,(3,3),(0.,1.),.PIECEWISE_BEZIER_KNOTS.);
#111 = CARTESIAN_POINT('',(17.437197452229,1.461834344089,3.431595971335
    ));
#112 = CARTESIAN_POINT('',(17.498343949045,1.655718374382,3.964287966557
    ));
#113 = CARTESIAN_POINT('',(17.804076433121,1.82921190441,4.440957522732)
  );
#114 = SURFACE_OF_LINEAR_EXTRUSION('',#115,#119);
#115 = B_SPLINE_CURVE_WITH_KNOTS('',2,(#116,#117,#118),.UNSPECIFIED.,.F.
  ,.F.,(3,3),(0.,1.),.PIECEWISE_BEZIER_KNOTS.);
#116 = CARTESIAN_POINT('',(17.437197452229,1.461834344089,3.431595971335
    ));
#117 = CARTESIAN_POINT('',(17.498343949045,1.655718374382,3.964287966557
    ));
#118 = CARTESIAN_POINT('',(17.804076433121,1.82921190441,4.440957522732)
  );
#119 = VECTOR('',#120,1.);
#120 = DIRECTION('',(-0.,0.939692620786,-0.342020143326));
#121 = ADVANCED_FACE('',(#122),#147,.T.);
#122 = FACE_BOUND('',#123,.T.);
#123 = EDGE_LOOP('',(#124,#125,#133,#141));
#124 = ORIENTED_EDGE('',*,*,#101,.T.);
#125 = ORIENTED_EDGE('',*,*,#126,.T.);
#126 = EDGE_CURVE('',#94,#127,#129,.T.);
#127 = VERTEX_POINT('',#128);
#128 = CARTESIAN_POINT('',(19.011719745223,1.537899702643,5.979627346496
    ));
#129 = B_SPLINE_CURVE_WITH_KNOTS('',2,(#130,#131,#132),.UNSPECIFIED.,.F.
  ,.F.,(3,3),(0.,1.),.PIECEWISE_BEZIER_KNOTS.);
#130 = CARTESIAN_POINT('',(17.804076433121,1.077457807781,4.714573637392
    ));
#131 = CARTESIAN_POINT('',(18.109808917197,1.2510384767,5.1914826057));
#132 = CARTESIAN_POINT('',(19.011719745223,1.537899702643,5.979627346496
    ));
#133 = ORIENTED_EDGE('',*,*,#134,.F.);
#134 = EDGE_CURVE('',#135,#127,#137,.T.);
#135 = VERTEX_POINT('',#136);
#136 = CARTESIAN_POINT('',(19.011719745223,2.289653799272,5.706011231836
    ));
#137 = LINE('',#138,#139);
#138 = CARTESIAN_POINT('',(19.011719745223,2.289653799272,5.706011231836
    ));
#139 = VECTOR('',#140,1.);
#140 = DIRECTION('',(0.,-0.939692620786,0.342020143326));
#141 = ORIENTED_EDGE('',*,*,#142,.F.);
#142 = EDGE_CURVE('',#102,#135,#143,.T.);
#143 = B_SPLINE_CURVE_WITH_KNOTS('',2,(#144,#145,#146),.UNSPECIFIED.,.F.
  ,.F.,(3,3),(0.,1.),.PIECEWISE_BEZIER_KNOTS.);
#144 = CARTESIAN_POINT('',(17.804076433121,1.82921190441,4.440957522732)
  );
#145 = CARTESIAN_POINT('',(18.109808917197,2.002792573329,4.917866491039
    ));
#146 = CARTESIAN_POINT('',(19.011719745223,2.289653799272,5.706011231836
    ));
#147 = SURFACE_OF_LINEAR_EXTRUSION('',#148,#152);
#148 = B_SPLINE_CURVE_WITH_KNOTS('',2,(#149,#150,#151),.UNSPECIFIED.,.F.
  ,.F.,(3,3),(0.,1.),.PIECEWISE_BEZIER_KNOTS.);
#149 = CARTESIAN_POINT('',(17.804076433121,1.82921190441,4.440957522732)
  );
#150 = CARTESIAN_POINT('',(18.109808917197,2.002792573329,4.917866491039
    ));
#151 = CARTESIAN_POINT('',(19.011719745223,2.289653799272,5.706011231836
    ));
#152 = VECTOR('',#153,1.);
#153 = DIRECTION('',(-0.,0.939692620786,-0.342020143326));
#154 = ADVANCED_FACE('',(#155),#180,.T.);
#155 = FACE_BOUND('',#156,.T.);
#156 = EDGE_LOOP('',(#157,#158,#166,#174));
#157 = ORIENTED_EDGE('',*,*,#134,.T.);
#158 = ORIENTED_EDGE('',*,*,#159,.T.);
#159 = EDGE_CURVE('',#127,#160,#162,.T.);
#160 = VERTEX_POINT('',#161);
#161 = CARTESIAN_POINT('',(19.902165605096,1.852209678943,6.843186909089
    ));
#162 = B_SPLINE_CURVE_WITH_KNOTS('',2,(#163,#164,#165),.UNSPECIFIED.,.F.
  ,.F.,(3,3),(0.,1.),.PIECEWISE_BEZIER_KNOTS.);
#163 = CARTESIAN_POINT('',(19.011719745223,1.537899702643,5.979627346496
    ));
#164 = CARTESIAN_POINT('',(19.737834394904,1.769689150095,6.616463619437
    ));
#165 = CARTESIAN_POINT('',(19.902165605096,1.852209678943,6.843186909089
    ));
#166 = ORIENTED_EDGE('',*,*,#167,.F.);
#167 = EDGE_CURVE('',#168,#160,#170,.T.);
#168 = VERTEX_POINT('',#169);
#169 = CARTESIAN_POINT('',(19.902165605096,2.603963775572,6.569570794428
    ));
#170 = LINE('',#171,#172);
#171 = CARTESIAN_POINT('',(19.902165605096,2.603963775572,6.569570794428
    ));
#172 = VECTOR('',#173,1.);
#173 = DIRECTION('',(0.,-0.939692620786,0.342020143326));
#174 = ORIENTED_EDGE('',*,*,#175,.F.);
#175 = EDGE_CURVE('',#135,#168,#176,.T.);
#176 = B_SPLINE_CURVE_WITH_KNOTS('',2,(#177,#178,#179),.UNSPECIFIED.,.F.
  ,.F.,(3,3),(0.,1.),.PIECEWISE_BEZIER_KNOTS.);
#177 = CARTESIAN_POINT('',(19.011719745223,2.289653799272,5.706011231836
    ));
#178 = CARTESIAN_POINT('',(19.737834394904,2.521443246723,6.342847504776
    ));
#179 = CARTESIAN_POINT('',(19.902165605096,2.603963775572,6.569570794428
    ));
#180 = SURFACE_OF_LINEAR_EXTRUSION('',#181,#185);
#181 = B_SPLINE_CURVE_WITH_KNOTS('',2,(#182,#183,#184),.UNSPECIFIED.,.F.
  ,.F.,(3,3),(0.,1.),.PIECEWISE_BEZIER_KNOTS.);
#182 = CARTESIAN_POINT('',(19.011719745223,2.289653799272,5.706011231836
    ));
#183 = CARTESIAN_POINT('',(19.737834394904,2.521443246723,6.342847504776
    ));
#184 = CARTESIAN_POINT('',(19.902165605096,2.603963775572,6.569570794428
    ));
#185 = VECTOR('',#186,1.);
#186 = DIRECTION('',(-0.,0.939692620786,-0.342020143326));
#187 = ADVANCED_FACE('',(#188),#213,.T.);
#188 = FACE_BOUND('',#189,.T.);
#189 = EDGE_LOOP('',(#190,#191,#199,#207));
#190 = ORIENTED_EDGE('',*,*,#167,.T.);
#191 = ORIENTED_EDGE('',*,*,#192,.T.);
#192 = EDGE_CURVE('',#160,#193,#195,.T.);
#193 = VERTEX_POINT('',#194);
#194 = CARTESIAN_POINT('',(20.123821656051,2.077550848533,7.46230668421)
  );
#195 = B_SPLINE_CURVE_WITH_KNOTS('',2,(#196,#197,#198),.UNSPECIFIED.,.F.
  ,.F.,(3,3),(0.,1.),.PIECEWISE_BEZIER_KNOTS.);
#196 = CARTESIAN_POINT('',(19.902165605096,1.852209678943,6.843186909089
    ));
#197 = CARTESIAN_POINT('',(20.123821656051,1.966187347088,7.15633797864)
  );
#198 = CARTESIAN_POINT('',(20.123821656051,2.077550848533,7.46230668421)
  );
#199 = ORIENTED_EDGE('',*,*,#200,.F.);
#200 = EDGE_CURVE('',#201,#193,#203,.T.);
#201 = VERTEX_POINT('',#202);
#202 = CARTESIAN_POINT('',(20.123821656051,2.829304945161,7.18869056955)
  );
#203 = LINE('',#204,#205);
#204 = CARTESIAN_POINT('',(20.123821656051,2.829304945161,7.18869056955)
  );
#205 = VECTOR('',#206,1.);
#206 = DIRECTION('',(0.,-0.939692620786,0.342020143326));
#207 = ORIENTED_EDGE('',*,*,#208,.F.);
#208 = EDGE_CURVE('',#168,#201,#209,.T.);
#209 = B_SPLINE_CURVE_WITH_KNOTS('',2,(#210,#211,#212),.UNSPECIFIED.,.F.
  ,.F.,(3,3),(0.,1.),.PIECEWISE_BEZIER_KNOTS.);
#210 = CARTESIAN_POINT('',(19.902165605096,2.603963775572,6.569570794428
    ));
#211 = CARTESIAN_POINT('',(20.123821656051,2.717941443717,6.882721863979
    ));
#212 = CARTESIAN_POINT('',(20.123821656051,2.829304945161,7.18869056955)
  );
#213 = SURFACE_OF_LINEAR_EXTRUSION('',#214,#218);
#214 = B_SPLINE_CURVE_WITH_KNOTS('',2,(#215,#216,#217),.UNSPECIFIED.,.F.
  ,.F.,(3,3),(0.,1.),.PIECEWISE_BEZIER_KNOTS.);
#215 = CARTESIAN_POINT('',(19.902165605096,2.603963775572,6.569570794428
    ));
#216 = CARTESIAN_POINT('',(20.123821656051,2.717941443717,6.882721863979
    ));
#217 = CARTESIAN_POINT('',(20.123821656051,2.829304945161,7.18869056955)
  );
#218 = VECTOR('',#219,1.);
#219 = DIRECTION('',(-0.,0.939692620786,-0.342020143326));
#220 = ADVANCED_FACE('',(#221),#246,.T.);
#221 = FACE_BOUND('',#222,.T.);
#222 = EDGE_LOOP('',(#223,#224,#232,#240));
#223 = ORIENTED_EDGE('',*,*,#200,.T.);
#224 = ORIENTED_EDGE('',*,*,#225,.T.);
#225 = EDGE_CURVE('',#193,#226,#228,.T.);
#226 = VERTEX_POINT('',#227);
#227 = CARTESIAN_POINT('',(19.930700636943,2.266816517655,7.982309836401
    ));
#228 = B_SPLINE_CURVE_WITH_KNOTS('',2,(#229,#230,#231),.UNSPECIFIED.,.F.
  ,.F.,(3,3),(0.,1.),.PIECEWISE_BEZIER_KNOTS.);
#229 = CARTESIAN_POINT('',(20.123821656051,2.077550848533,7.46230668421)
  );
#230 = CARTESIAN_POINT('',(20.123821656051,2.20067810013,7.800596027693)
  );
#231 = CARTESIAN_POINT('',(19.930700636943,2.266816517655,7.982309836401
    ));
#232 = ORIENTED_EDGE('',*,*,#233,.F.);
#233 = EDGE_CURVE('',#234,#226,#236,.T.);
#234 = VERTEX_POINT('',#235);
#235 = CARTESIAN_POINT('',(19.930700636943,3.018570614283,7.70869372174)
  );
#236 = LINE('',#237,#238);
#237 = CARTESIAN_POINT('',(19.930700636943,3.018570614283,7.70869372174)
  );
#238 = VECTOR('',#239,1.);
#239 = DIRECTION('',(0.,-0.939692620786,0.342020143326));
#240 = ORIENTED_EDGE('',*,*,#241,.F.);
#241 = EDGE_CURVE('',#201,#234,#242,.T.);
#242 = B_SPLINE_CURVE_WITH_KNOTS('',2,(#243,#244,#245),.UNSPECIFIED.,.F.
  ,.F.,(3,3),(0.,1.),.PIECEWISE_BEZIER_KNOTS.);
#243 = CARTESIAN_POINT('',(20.123821656051,2.829304945161,7.18869056955)
  );
#244 = CARTESIAN_POINT('',(20.123821656051,2.952432196759,7.526979913033
    ));
#245 = CARTESIAN_POINT('',(19.930700636943,3.018570614283,7.70869372174)
  );
#246 = SURFACE_OF_LINEAR_EXTRUSION('',#247,#251);
#247 = B_SPLINE_CURVE_WITH_KNOTS('',2,(#248,#249,#250),.UNSPECIFIED.,.F.
  ,.F.,(3,3),(0.,1.),.PIECEWISE_BEZIER_KNOTS.);
#248 = CARTESIAN_POINT('',(20.123821656051,2.829304945161,7.18869056955)
  );
#249 = CARTESIAN_POINT('',(20.123821656051,2.952432196759,7.526979913033
    ));
#250 = CARTESIAN_POINT('',(19.930700636943,3.018570614283,7.70869372174)
  );
#251 = VECTOR('',#252,1.);
#252 = DIRECTION('',(-0.,0.939692620786,-0.342020143326));
#253 = ADVANCED_FACE('',(#254),#279,.T.);
#254 = FACE_BOUND('',#255,.T.);
#255 = EDGE_LOOP('',(#256,#257,#265,#273));
#256 = ORIENTED_EDGE('',*,*,#233,.T.);
#257 = ORIENTED_EDGE('',*,*,#258,.T.);
#258 = EDGE_CURVE('',#226,#259,#261,.T.);
#259 = VERTEX_POINT('',#260);
#260 = CARTESIAN_POINT('',(19.397707006369,2.332954935179,8.164023645108
    ));
#261 = B_SPLINE_CURVE_WITH_KNOTS('',2,(#262,#263,#264),.UNSPECIFIED.,.F.
  ,.F.,(3,3),(0.,1.),.PIECEWISE_BEZIER_KNOTS.);
#262 = CARTESIAN_POINT('',(19.930700636943,2.266816517655,7.982309836401
    ));
#263 = CARTESIAN_POINT('',(19.737834394904,2.332954935179,8.164023645108
    ));
#264 = CARTESIAN_POINT('',(19.397707006369,2.332954935179,8.164023645108
    ));
#265 = ORIENTED_EDGE('',*,*,#266,.F.);
#266 = EDGE_CURVE('',#267,#259,#269,.T.);
#267 = VERTEX_POINT('',#268);
#268 = CARTESIAN_POINT('',(19.397707006369,3.084709031808,7.890407530447
    ));
#269 = LINE('',#270,#271);
#270 = CARTESIAN_POINT('',(19.397707006369,3.084709031808,7.890407530447
    ));
#271 = VECTOR('',#272,1.);
#272 = DIRECTION('',(0.,-0.939692620786,0.342020143326));
#273 = ORIENTED_EDGE('',*,*,#274,.F.);
#274 = EDGE_CURVE('',#234,#267,#275,.T.);
#275 = B_SPLINE_CURVE_WITH_KNOTS('',2,(#276,#277,#278),.UNSPECIFIED.,.F.
  ,.F.,(3,3),(0.,1.),.PIECEWISE_BEZIER_KNOTS.);
#276 = CARTESIAN_POINT('',(19.930700636943,3.018570614283,7.70869372174)
  );
#277 = CARTESIAN_POINT('',(19.737834394904,3.084709031808,7.890407530447
    ));
#278 = CARTESIAN_POINT('',(19.397707006369,3.084709031808,7.890407530447
    ));
#279 = SURFACE_OF_LINEAR_EXTRUSION('',#280,#284);
#280 = B_SPLINE_CURVE_WITH_KNOTS('',2,(#281,#282,#283),.UNSPECIFIED.,.F.
  ,.F.,(3,3),(0.,1.),.PIECEWISE_BEZIER_KNOTS.);
#281 = CARTESIAN_POINT('',(19.930700636943,3.018570614283,7.70869372174)
  );
#282 = CARTESIAN_POINT('',(19.737834394904,3.084709031808,7.890407530447
    ));
#283 = CARTESIAN_POINT('',(19.397707006369,3.084709031808,7.890407530447
    ));
#284 = VECTOR('',#285,1.);
#285 = DIRECTION('',(-0.,0.939692620786,-0.342020143326));
#286 = ADVANCED_FACE('',(#287),#312,.T.);
#287 = FACE_BOUND('',#288,.T.);
#288 = EDGE_LOOP('',(#289,#290,#298,#306));
#289 = ORIENTED_EDGE('',*,*,#266,.T.);
#290 = ORIENTED_EDGE('',*,*,#291,.T.);
#291 = EDGE_CURVE('',#259,#292,#294,.T.);
#292 = VERTEX_POINT('',#293);
#293 = CARTESIAN_POINT('',(18.862675159236,2.263243823164,7.972493938961
    ));
#294 = B_SPLINE_CURVE_WITH_KNOTS('',2,(#295,#296,#297),.UNSPECIFIED.,.F.
  ,.F.,(3,3),(0.,1.),.PIECEWISE_BEZIER_KNOTS.);
#295 = CARTESIAN_POINT('',(19.397707006369,2.332954935179,8.164023645108
    ));
#296 = CARTESIAN_POINT('',(19.061401273885,2.332954935179,8.164023645108
    ));
#297 = CARTESIAN_POINT('',(18.862675159236,2.263243823164,7.972493938961
    ));
#298 = ORIENTED_EDGE('',*,*,#299,.F.);
#299 = EDGE_CURVE('',#300,#292,#302,.T.);
#300 = VERTEX_POINT('',#301);
#301 = CARTESIAN_POINT('',(18.862675159236,3.014997919793,7.6988778243)
  );
#302 = LINE('',#303,#304);
#303 = CARTESIAN_POINT('',(18.862675159236,3.014997919793,7.6988778243)
  );
#304 = VECTOR('',#305,1.);
#305 = DIRECTION('',(0.,-0.939692620786,0.342020143326));
#306 = ORIENTED_EDGE('',*,*,#307,.F.);
#307 = EDGE_CURVE('',#267,#300,#308,.T.);
#308 = B_SPLINE_CURVE_WITH_KNOTS('',2,(#309,#310,#311),.UNSPECIFIED.,.F.
  ,.F.,(3,3),(0.,1.),.PIECEWISE_BEZIER_KNOTS.);
#309 = CARTESIAN_POINT('',(19.397707006369,3.084709031808,7.890407530447
    ));
#310 = CARTESIAN_POINT('',(19.061401273885,3.084709031808,7.890407530447
    ));
#311 = CARTESIAN_POINT('',(18.862675159236,3.014997919793,7.6988778243)
  );
#312 = SURFACE_OF_LINEAR_EXTRUSION('',#313,#317);
#313 = B_SPLINE_CURVE_WITH_KNOTS('',2,(#314,#315,#316),.UNSPECIFIED.,.F.
  ,.F.,(3,3),(0.,1.),.PIECEWISE_BEZIER_KNOTS.);
#314 = CARTESIAN_POINT('',(19.397707006369,3.084709031808,7.890407530447
    ));
#315 = CARTESIAN_POINT('',(19.061401273885,3.084709031808,7.890407530447
    ));
#316 = CARTESIAN_POINT('',(18.862675159236,3.014997919793,7.6988778243)
  );
#317 = VECTOR('',#318,1.);
#318 = DIRECTION('',(-0.,0.939692620786,-0.342020143326));
#319 = ADVANCED_FACE('',(#320),#345,.T.);
#320 = FACE_BOUND('',#321,.T.);
#321 = EDGE_LOOP('',(#322,#323,#331,#339));
#322 = ORIENTED_EDGE('',*,*,#299,.T.);
#323 = ORIENTED_EDGE('',*,*,#324,.T.);
#324 = EDGE_CURVE('',#292,#325,#327,.T.);
#325 = VERTEX_POINT('',#326);
#326 = CARTESIAN_POINT('',(18.633375796178,2.031802931273,7.336615314551
    ));
#327 = B_SPLINE_CURVE_WITH_KNOTS('',2,(#328,#329,#330),.UNSPECIFIED.,.F.
  ,.F.,(3,3),(0.,1.),.PIECEWISE_BEZIER_KNOTS.);
#328 = CARTESIAN_POINT('',(18.862675159236,2.263243823164,7.972493938961
    ));
#329 = CARTESIAN_POINT('',(18.663949044586,2.193532711148,7.780964232813
    ));
#330 = CARTESIAN_POINT('',(18.633375796178,2.031802931273,7.336615314551
    ));
#331 = ORIENTED_EDGE('',*,*,#332,.F.);
#332 = EDGE_CURVE('',#333,#325,#335,.T.);
#333 = VERTEX_POINT('',#334);
#334 = CARTESIAN_POINT('',(18.633375796178,2.783557027901,7.06299919989)
  );
#335 = LINE('',#336,#337);
#336 = CARTESIAN_POINT('',(18.633375796178,2.783557027901,7.06299919989)
  );
#337 = VECTOR('',#338,1.);
#338 = DIRECTION('',(0.,-0.939692620786,0.342020143326));
#339 = ORIENTED_EDGE('',*,*,#340,.F.);
#340 = EDGE_CURVE('',#300,#333,#341,.T.);
#341 = B_SPLINE_CURVE_WITH_KNOTS('',2,(#342,#343,#344),.UNSPECIFIED.,.F.
  ,.F.,(3,3),(0.,1.),.PIECEWISE_BEZIER_KNOTS.);
#342 = CARTESIAN_POINT('',(18.862675159236,3.014997919793,7.6988778243)
  );
#343 = CARTESIAN_POINT('',(18.663949044586,2.945286807777,7.507348118153
    ));
#344 = CARTESIAN_POINT('',(18.633375796178,2.783557027901,7.06299919989)
  );
#345 = SURFACE_OF_LINEAR_EXTRUSION('',#346,#350);
#346 = B_SPLINE_CURVE_WITH_KNOTS('',2,(#347,#348,#349),.UNSPECIFIED.,.F.
  ,.F.,(3,3),(0.,1.),.PIECEWISE_BEZIER_KNOTS.);
#347 = CARTESIAN_POINT('',(18.862675159236,3.014997919793,7.6988778243)
  );
#348 = CARTESIAN_POINT('',(18.663949044586,2.945286807777,7.507348118153
    ));
#349 = CARTESIAN_POINT('',(18.633375796178,2.783557027901,7.06299919989)
  );
#350 = VECTOR('',#351,1.);
#351 = DIRECTION('',(-0.,0.939692620786,-0.342020143326));
#352 = ADVANCED_FACE('',(#353),#378,.T.);
#353 = FACE_BOUND('',#354,.T.);
#354 = EDGE_LOOP('',(#355,#356,#364,#372));
#355 = ORIENTED_EDGE('',*,*,#332,.T.);
#356 = ORIENTED_EDGE('',*,*,#357,.T.);
#357 = EDGE_CURVE('',#325,#358,#360,.T.);
#358 = VERTEX_POINT('',#359);
#359 = CARTESIAN_POINT('',(17.563312101911,2.068662681751,7.437886646676
    ));
#360 = LINE('',#361,#362);
#361 = CARTESIAN_POINT('',(18.633375796178,2.031802931273,7.336615314551
    ));
#362 = VECTOR('',#363,1.);
#363 = DIRECTION('',(-0.994966576024,3.427293152997E-02,
    9.416410547709E-02));
#364 = ORIENTED_EDGE('',*,*,#365,.F.);
#365 = EDGE_CURVE('',#366,#358,#368,.T.);
#366 = VERTEX_POINT('',#367);
#367 = CARTESIAN_POINT('',(17.563312101911,2.820416778379,7.164270532016
    ));
#368 = LINE('',#369,#370);
#369 = CARTESIAN_POINT('',(17.563312101911,2.820416778379,7.164270532016
    ));
#370 = VECTOR('',#371,1.);
#371 = DIRECTION('',(0.,-0.939692620786,0.342020143326));
#372 = ORIENTED_EDGE('',*,*,#373,.F.);
#373 = EDGE_CURVE('',#333,#366,#374,.T.);
#374 = LINE('',#375,#376);
#375 = CARTESIAN_POINT('',(18.633375796178,2.783557027901,7.06299919989)
  );
#376 = VECTOR('',#377,1.);
#377 = DIRECTION('',(-0.994966576024,3.427293152997E-02,
    9.416410547709E-02));
#378 = PLANE('',#379);
#379 = AXIS2_PLACEMENT_3D('',#380,#381,#382);
#380 = CARTESIAN_POINT('',(18.633375796178,2.783557027901,7.06299919989)
  );
#381 = DIRECTION('',(-0.100207348014,-0.340298610936,-0.934962749418));
#382 = DIRECTION('',(-0.994966576024,3.427293152997E-02,
    9.416410547709E-02));
#383 = ADVANCED_FACE('',(#384),#409,.T.);
#384 = FACE_BOUND('',#385,.T.);
#385 = EDGE_LOOP('',(#386,#387,#395,#403));
#386 = ORIENTED_EDGE('',*,*,#365,.T.);
#387 = ORIENTED_EDGE('',*,*,#388,.T.);
#388 = EDGE_CURVE('',#358,#389,#391,.T.);
#389 = VERTEX_POINT('',#390);
#390 = CARTESIAN_POINT('',(18.163312101911,2.506797020768,8.641650849813
    ));
#391 = B_SPLINE_CURVE_WITH_KNOTS('',2,(#392,#393,#394),.UNSPECIFIED.,.F.
  ,.F.,(3,3),(0.,1.),.PIECEWISE_BEZIER_KNOTS.);
#392 = CARTESIAN_POINT('',(17.563312101911,2.068662681751,7.437886646676
    ));
#393 = CARTESIAN_POINT('',(17.658853503185,2.373910213488,8.27654734747)
  );
#394 = CARTESIAN_POINT('',(18.163312101911,2.506797020768,8.641650849813
    ));
#395 = ORIENTED_EDGE('',*,*,#396,.F.);
#396 = EDGE_CURVE('',#397,#389,#399,.T.);
#397 = VERTEX_POINT('',#398);
#398 = CARTESIAN_POINT('',(18.163312101911,3.258551117396,8.368034735153
    ));
#399 = LINE('',#400,#401);
#400 = CARTESIAN_POINT('',(18.163312101911,3.258551117396,8.368034735153
    ));
#401 = VECTOR('',#402,1.);
#402 = DIRECTION('',(0.,-0.939692620786,0.342020143326));
#403 = ORIENTED_EDGE('',*,*,#404,.F.);
#404 = EDGE_CURVE('',#366,#397,#405,.T.);
#405 = B_SPLINE_CURVE_WITH_KNOTS('',2,(#406,#407,#408),.UNSPECIFIED.,.F.
  ,.F.,(3,3),(0.,1.),.PIECEWISE_BEZIER_KNOTS.);
#406 = CARTESIAN_POINT('',(17.563312101911,2.820416778379,7.164270532016
    ));
#407 = CARTESIAN_POINT('',(17.658853503185,3.125664310117,8.002931232809
    ));
#408 = CARTESIAN_POINT('',(18.163312101911,3.258551117396,8.368034735153
    ));
#409 = SURFACE_OF_LINEAR_EXTRUSION('',#410,#414);
#410 = B_SPLINE_CURVE_WITH_KNOTS('',2,(#411,#412,#413),.UNSPECIFIED.,.F.
  ,.F.,(3,3),(0.,1.),.PIECEWISE_BEZIER_KNOTS.);
#411 = CARTESIAN_POINT('',(17.563312101911,2.820416778379,7.164270532016
    ));
#412 = CARTESIAN_POINT('',(17.658853503185,3.125664310117,8.002931232809
    ));
#413 = CARTESIAN_POINT('',(18.163312101911,3.258551117396,8.368034735153
    ));
#414 = VECTOR('',#415,1.);
#415 = DIRECTION('',(-0.,0.939692620786,-0.342020143326));
#416 = ADVANCED_FACE('',(#417),#442,.T.);
#417 = FACE_BOUND('',#418,.T.);
#418 = EDGE_LOOP('',(#419,#420,#428,#436));
#419 = ORIENTED_EDGE('',*,*,#396,.T.);
#420 = ORIENTED_EDGE('',*,*,#421,.T.);
#421 = EDGE_CURVE('',#389,#422,#424,.T.);
#422 = VERTEX_POINT('',#423);
#423 = CARTESIAN_POINT('',(19.424458598726,2.639683828047,9.006754352157
    ));
#424 = B_SPLINE_CURVE_WITH_KNOTS('',2,(#425,#426,#427),.UNSPECIFIED.,.F.
  ,.F.,(3,3),(0.,1.),.PIECEWISE_BEZIER_KNOTS.);
#425 = CARTESIAN_POINT('',(18.163312101911,2.506797020768,8.641650849813
    ));
#426 = CARTESIAN_POINT('',(18.667770700637,2.639683828047,9.006754352157
    ));
#427 = CARTESIAN_POINT('',(19.424458598726,2.639683828047,9.006754352157
    ));
#428 = ORIENTED_EDGE('',*,*,#429,.F.);
#429 = EDGE_CURVE('',#430,#422,#432,.T.);
#430 = VERTEX_POINT('',#431);
#431 = CARTESIAN_POINT('',(19.424458598726,3.391437924676,8.733138237496
    ));
#432 = LINE('',#433,#434);
#433 = CARTESIAN_POINT('',(19.424458598726,3.391437924676,8.733138237496
    ));
#434 = VECTOR('',#435,1.);
#435 = DIRECTION('',(0.,-0.939692620786,0.342020143326));
#436 = ORIENTED_EDGE('',*,*,#437,.F.);
#437 = EDGE_CURVE('',#397,#430,#438,.T.);
#438 = B_SPLINE_CURVE_WITH_KNOTS('',2,(#439,#440,#441),.UNSPECIFIED.,.F.
  ,.F.,(3,3),(0.,1.),.PIECEWISE_BEZIER_KNOTS.);
#439 = CARTESIAN_POINT('',(18.163312101911,3.258551117396,8.368034735153
    ));
#440 = CARTESIAN_POINT('',(18.667770700637,3.391437924676,8.733138237496
    ));
#441 = CARTESIAN_POINT('',(19.424458598726,3.391437924676,8.733138237496
    ));
#442 = SURFACE_OF_LINEAR_EXTRUSION('',#443,#447);
#443 = B_SPLINE_CURVE_WITH_KNOTS('',2,(#444,#445,#446),.UNSPECIFIED.,.F.
  ,.F.,(3,3),(0.,1.),.PIECEWISE_BEZIER_KNOTS.);
#444 = CARTESIAN_POINT('',(18.163312101911,3.258551117396,8.368034735153
    ));
#445 = CARTESIAN_POINT('',(18.667770700637,3.391437924676,8.733138237496
    ));
#446 = CARTESIAN_POINT('',(19.424458598726,3.391437924676,8.733138237496
    ));
#447 = VECTOR('',#448,1.);
#448 = DIRECTION('',(-0.,0.939692620786,-0.342020143326));
#449 = ADVANCED_FACE('',(#450),#475,.T.);
#450 = FACE_BOUND('',#451,.T.);
#451 = EDGE_LOOP('',(#452,#453,#461,#469));
#452 = ORIENTED_EDGE('',*,*,#429,.T.);
#453 = ORIENTED_EDGE('',*,*,#454,.T.);
#454 = EDGE_CURVE('',#422,#455,#457,.T.);
#455 = VERTEX_POINT('',#456);
#456 = CARTESIAN_POINT('',(20.727643312102,2.486145103833,8.584910174367
    ));
#457 = B_SPLINE_CURVE_WITH_KNOTS('',2,(#458,#459,#460),.UNSPECIFIED.,.F.
  ,.F.,(3,3),(0.,1.),.PIECEWISE_BEZIER_KNOTS.);
#458 = CARTESIAN_POINT('',(19.424458598726,2.639683828047,9.006754352157
    ));
#459 = CARTESIAN_POINT('',(20.253757961783,2.639683828047,9.006754352157
    ));
#460 = CARTESIAN_POINT('',(20.727643312102,2.486145103833,8.584910174367
    ));
#461 = ORIENTED_EDGE('',*,*,#462,.F.);
#462 = EDGE_CURVE('',#463,#455,#465,.T.);
#463 = VERTEX_POINT('',#464);
#464 = CARTESIAN_POINT('',(20.727643312102,3.237899200462,8.311294059706
    ));
#465 = LINE('',#466,#467);
#466 = CARTESIAN_POINT('',(20.727643312102,3.237899200462,8.311294059706
    ));
#467 = VECTOR('',#468,1.);
#468 = DIRECTION('',(0.,-0.939692620786,0.342020143326));
#469 = ORIENTED_EDGE('',*,*,#470,.F.);
#470 = EDGE_CURVE('',#430,#463,#471,.T.);
#471 = B_SPLINE_CURVE_WITH_KNOTS('',2,(#472,#473,#474),.UNSPECIFIED.,.F.
  ,.F.,(3,3),(0.,1.),.PIECEWISE_BEZIER_KNOTS.);
#472 = CARTESIAN_POINT('',(19.424458598726,3.391437924676,8.733138237496
    ));
#473 = CARTESIAN_POINT('',(20.253757961783,3.391437924676,8.733138237496
    ));
#474 = CARTESIAN_POINT('',(20.727643312102,3.237899200462,8.311294059706
    ));
#475 = SURFACE_OF_LINEAR_EXTRUSION('',#476,#480);
#476 = B_SPLINE_CURVE_WITH_KNOTS('',2,(#477,#478,#479),.UNSPECIFIED.,.F.
  ,.F.,(3,3),(0.,1.),.PIECEWISE_BEZIER_KNOTS.);
#477 = CARTESIAN_POINT('',(19.424458598726,3.391437924676,8.733138237496
    ));
#478 = CARTESIAN_POINT('',(20.253757961783,3.391437924676,8.733138237496
    ));
#479 = CARTESIAN_POINT('',(20.727643312102,3.237899200462,8.311294059706
    ));
#480 = VECTOR('',#481,1.);
#481 = DIRECTION('',(-0.,0.939692620786,-0.342020143326));
#482 = ADVANCED_FACE('',(#483),#508,.T.);
#483 = FACE_BOUND('',#484,.T.);
#484 = EDGE_LOOP('',(#485,#486,#494,#502));
#485 = ORIENTED_EDGE('',*,*,#462,.T.);
#486 = ORIENTED_EDGE('',*,*,#487,.T.);
#487 = EDGE_CURVE('',#455,#488,#490,.T.);
#488 = VERTEX_POINT('',#489);
#489 = CARTESIAN_POINT('',(21.20152866242,2.104215348879,7.535566796812)
  );
#490 = B_SPLINE_CURVE_WITH_KNOTS('',2,(#491,#492,#493),.UNSPECIFIED.,.F.
  ,.F.,(3,3),(0.,1.),.PIECEWISE_BEZIER_KNOTS.);
#491 = CARTESIAN_POINT('',(20.727643312102,2.486145103833,8.584910174367
    ));
#492 = CARTESIAN_POINT('',(21.20152866242,2.332606379619,8.163065996577)
  );
#493 = CARTESIAN_POINT('',(21.20152866242,2.104215348879,7.535566796812)
  );
#494 = ORIENTED_EDGE('',*,*,#495,.F.);
#495 = EDGE_CURVE('',#496,#488,#498,.T.);
#496 = VERTEX_POINT('',#497);
#497 = CARTESIAN_POINT('',(21.20152866242,2.855969445507,7.261950682151)
  );
#498 = LINE('',#499,#500);
#499 = CARTESIAN_POINT('',(21.20152866242,2.855969445507,7.261950682151)
  );
#500 = VECTOR('',#501,1.);
#501 = DIRECTION('',(0.,-0.939692620786,0.342020143326));
#502 = ORIENTED_EDGE('',*,*,#503,.F.);
#503 = EDGE_CURVE('',#463,#496,#504,.T.);
#504 = B_SPLINE_CURVE_WITH_KNOTS('',2,(#505,#506,#507),.UNSPECIFIED.,.F.
  ,.F.,(3,3),(0.,1.),.PIECEWISE_BEZIER_KNOTS.);
#505 = CARTESIAN_POINT('',(20.727643312102,3.237899200462,8.311294059706
    ));
#506 = CARTESIAN_POINT('',(21.20152866242,3.084360476248,7.889449881917)
  );
#507 = CARTESIAN_POINT('',(21.20152866242,2.855969445507,7.261950682151)
  );
#508 = SURFACE_OF_LINEAR_EXTRUSION('',#509,#513);
#509 = B_SPLINE_CURVE_WITH_KNOTS('',2,(#510,#511,#512),.UNSPECIFIED.,.F.
  ,.F.,(3,3),(0.,1.),.PIECEWISE_BEZIER_KNOTS.);
#510 = CARTESIAN_POINT('',(20.727643312102,3.237899200462,8.311294059706
    ));
#511 = CARTESIAN_POINT('',(21.20152866242,3.084360476248,7.889449881917)
  );
#512 = CARTESIAN_POINT('',(21.20152866242,2.855969445507,7.261950682151)
  );
#513 = VECTOR('',#514,1.);
#514 = DIRECTION('',(-0.,0.939692620786,-0.342020143326));
#515 = ADVANCED_FACE('',(#516),#541,.T.);
#516 = FACE_BOUND('',#517,.T.);
#517 = EDGE_LOOP('',(#518,#519,#527,#535));
#518 = ORIENTED_EDGE('',*,*,#495,.T.);
#519 = ORIENTED_EDGE('',*,*,#520,.T.);
#520 = EDGE_CURVE('',#488,#521,#523,.T.);
#521 = VERTEX_POINT('',#522);
#522 = CARTESIAN_POINT('',(21.065732484076,1.856828040114,6.855875752121
    ));
#523 = B_SPLINE_CURVE_WITH_KNOTS('',2,(#524,#525,#526),.UNSPECIFIED.,.F.
  ,.F.,(3,3),(0.,1.),.PIECEWISE_BEZIER_KNOTS.);
#524 = CARTESIAN_POINT('',(21.20152866242,2.104215348879,7.535566796812)
  );
#525 = CARTESIAN_POINT('',(21.20152866242,1.97429126386,7.178603306979)
  );
#526 = CARTESIAN_POINT('',(21.065732484076,1.856828040114,6.855875752121
    ));
#527 = ORIENTED_EDGE('',*,*,#528,.F.);
#528 = EDGE_CURVE('',#529,#521,#531,.T.);
#529 = VERTEX_POINT('',#530);
#530 = CARTESIAN_POINT('',(21.065732484076,2.608582136743,6.58225963746)
  );
#531 = LINE('',#532,#533);
#532 = CARTESIAN_POINT('',(21.065732484076,2.608582136743,6.58225963746)
  );
#533 = VECTOR('',#534,1.);
#534 = DIRECTION('',(0.,-0.939692620786,0.342020143326));
#535 = ORIENTED_EDGE('',*,*,#536,.F.);
#536 = EDGE_CURVE('',#496,#529,#537,.T.);
#537 = B_SPLINE_CURVE_WITH_KNOTS('',2,(#538,#539,#540),.UNSPECIFIED.,.F.
  ,.F.,(3,3),(0.,1.),.PIECEWISE_BEZIER_KNOTS.);
#538 = CARTESIAN_POINT('',(21.20152866242,2.855969445507,7.261950682151)
  );
#539 = CARTESIAN_POINT('',(21.20152866242,2.726045360489,6.904987192319)
  );
#540 = CARTESIAN_POINT('',(21.065732484076,2.608582136743,6.58225963746)
  );
#541 = SURFACE_OF_LINEAR_EXTRUSION('',#542,#546);
#542 = B_SPLINE_CURVE_WITH_KNOTS('',2,(#543,#544,#545),.UNSPECIFIED.,.F.
  ,.F.,(3,3),(0.,1.),.PIECEWISE_BEZIER_KNOTS.);
#543 = CARTESIAN_POINT('',(21.20152866242,2.855969445507,7.261950682151)
  );
#544 = CARTESIAN_POINT('',(21.20152866242,2.726045360489,6.904987192319)
  );
#545 = CARTESIAN_POINT('',(21.065732484076,2.608582136743,6.58225963746)
  );
#546 = VECTOR('',#547,1.);
#547 = DIRECTION('',(-0.,0.939692620786,-0.342020143326));
#548 = ADVANCED_FACE('',(#549),#574,.T.);
#549 = FACE_BOUND('',#550,.T.);
#550 = EDGE_LOOP('',(#551,#552,#560,#568));
#551 = ORIENTED_EDGE('',*,*,#528,.T.);
#552 = ORIENTED_EDGE('',*,*,#553,.T.);
#553 = EDGE_CURVE('',#521,#554,#556,.T.);
#554 = VERTEX_POINT('',#555);
#555 = CARTESIAN_POINT('',(20.635923566879,1.610660675809,6.179536477288
    ));
#556 = B_SPLINE_CURVE_WITH_KNOTS('',2,(#557,#558,#559),.UNSPECIFIED.,.F.
  ,.F.,(3,3),(0.,1.),.PIECEWISE_BEZIER_KNOTS.);
#557 = CARTESIAN_POINT('',(21.065732484076,1.856828040114,6.855875752121
    ));
#558 = CARTESIAN_POINT('',(20.930191082803,1.739364816368,6.533148197262
    ));
#559 = CARTESIAN_POINT('',(20.635923566879,1.610660675809,6.179536477288
    ));
#560 = ORIENTED_EDGE('',*,*,#561,.F.);
#561 = EDGE_CURVE('',#562,#554,#564,.T.);
#562 = VERTEX_POINT('',#563);
#563 = CARTESIAN_POINT('',(20.635923566879,2.362414772438,5.905920362627
    ));
#564 = LINE('',#565,#566);
#565 = CARTESIAN_POINT('',(20.635923566879,2.362414772438,5.905920362627
    ));
#566 = VECTOR('',#567,1.);
#567 = DIRECTION('',(0.,-0.939692620786,0.342020143326));
#568 = ORIENTED_EDGE('',*,*,#569,.F.);
#569 = EDGE_CURVE('',#529,#562,#570,.T.);
#570 = B_SPLINE_CURVE_WITH_KNOTS('',2,(#571,#572,#573),.UNSPECIFIED.,.F.
  ,.F.,(3,3),(0.,1.),.PIECEWISE_BEZIER_KNOTS.);
#571 = CARTESIAN_POINT('',(21.065732484076,2.608582136743,6.58225963746)
  );
#572 = CARTESIAN_POINT('',(20.930191082803,2.491118912997,6.259532082602
    ));
#573 = CARTESIAN_POINT('',(20.635923566879,2.362414772438,5.905920362627
    ));
#574 = SURFACE_OF_LINEAR_EXTRUSION('',#575,#579);
#575 = B_SPLINE_CURVE_WITH_KNOTS('',2,(#576,#577,#578),.UNSPECIFIED.,.F.
  ,.F.,(3,3),(0.,1.),.PIECEWISE_BEZIER_KNOTS.);
#576 = CARTESIAN_POINT('',(21.065732484076,2.608582136743,6.58225963746)
  );
#577 = CARTESIAN_POINT('',(20.930191082803,2.491118912997,6.259532082602
    ));
#578 = CARTESIAN_POINT('',(20.635923566879,2.362414772438,5.905920362627
    ));
#579 = VECTOR('',#580,1.);
#580 = DIRECTION('',(-0.,0.939692620786,-0.342020143326));
#581 = ADVANCED_FACE('',(#582),#607,.T.);
#582 = FACE_BOUND('',#583,.T.);
#583 = EDGE_LOOP('',(#584,#585,#593,#601));
#584 = ORIENTED_EDGE('',*,*,#561,.T.);
#585 = ORIENTED_EDGE('',*,*,#586,.T.);
#586 = EDGE_CURVE('',#554,#587,#589,.T.);
#587 = VERTEX_POINT('',#588);
#588 = CARTESIAN_POINT('',(19.932738853503,1.365190422625,5.505112499516
    ));
#589 = B_SPLINE_CURVE_WITH_KNOTS('',2,(#590,#591,#592),.UNSPECIFIED.,.F.
  ,.F.,(3,3),(0.,1.),.PIECEWISE_BEZIER_KNOTS.);
#590 = CARTESIAN_POINT('',(20.635923566879,1.610660675809,6.179536477288
    ));
#591 = CARTESIAN_POINT('',(20.44101910828,1.525351702481,5.94515199939)
  );
#592 = CARTESIAN_POINT('',(19.932738853503,1.365190422625,5.505112499516
    ));
#593 = ORIENTED_EDGE('',*,*,#594,.F.);
#594 = EDGE_CURVE('',#595,#587,#597,.T.);
#595 = VERTEX_POINT('',#596);
#596 = CARTESIAN_POINT('',(19.932738853503,2.116944519254,5.231496384855
    ));
#597 = LINE('',#598,#599);
#598 = CARTESIAN_POINT('',(19.932738853503,2.116944519254,5.231496384855
    ));
#599 = VECTOR('',#600,1.);
#600 = DIRECTION('',(0.,-0.939692620786,0.342020143326));
#601 = ORIENTED_EDGE('',*,*,#602,.F.);
#602 = EDGE_CURVE('',#562,#595,#603,.T.);
#603 = B_SPLINE_CURVE_WITH_KNOTS('',2,(#604,#605,#606),.UNSPECIFIED.,.F.
  ,.F.,(3,3),(0.,1.),.PIECEWISE_BEZIER_KNOTS.);
#604 = CARTESIAN_POINT('',(20.635923566879,2.362414772438,5.905920362627
    ));
#605 = CARTESIAN_POINT('',(20.44101910828,2.277105799109,5.671535884729)
  );
#606 = CARTESIAN_POINT('',(19.932738853503,2.116944519254,5.231496384855
    ));
#607 = SURFACE_OF_LINEAR_EXTRUSION('',#608,#612);
#608 = B_SPLINE_CURVE_WITH_KNOTS('',2,(#609,#610,#611),.UNSPECIFIED.,.F.
  ,.F.,(3,3),(0.,1.),.PIECEWISE_BEZIER_KNOTS.);
#609 = CARTESIAN_POINT('',(20.635923566879,2.362414772438,5.905920362627
    ));
#610 = CARTESIAN_POINT('',(20.44101910828,2.277105799109,5.671535884729)
  );
#611 = CARTESIAN_POINT('',(19.932738853503,2.116944519254,5.231496384855
    ));
#612 = VECTOR('',#613,1.);
#613 = DIRECTION('',(-0.,0.939692620786,-0.342020143326));
#614 = ADVANCED_FACE('',(#615),#640,.T.);
#615 = FACE_BOUND('',#616,.T.);
#616 = EDGE_LOOP('',(#617,#618,#626,#634));
#617 = ORIENTED_EDGE('',*,*,#594,.T.);
#618 = ORIENTED_EDGE('',*,*,#619,.T.);
#619 = EDGE_CURVE('',#587,#620,#622,.T.);
#620 = VERTEX_POINT('',#621);
#621 = CARTESIAN_POINT('',(19.288662420382,1.152571530978,4.920946895766
    ));
#622 = B_SPLINE_CURVE_WITH_KNOTS('',2,(#623,#624,#625),.UNSPECIFIED.,.F.
  ,.F.,(3,3),(0.,1.),.PIECEWISE_BEZIER_KNOTS.);
#623 = CARTESIAN_POINT('',(19.932738853503,1.365190422625,5.505112499516
    ));
#624 = CARTESIAN_POINT('',(19.424458598726,1.20511628166,5.065312411775)
  );
#625 = CARTESIAN_POINT('',(19.288662420382,1.152571530978,4.920946895766
    ));
#626 = ORIENTED_EDGE('',*,*,#627,.F.);
#627 = EDGE_CURVE('',#628,#620,#630,.T.);
#628 = VERTEX_POINT('',#629);
#629 = CARTESIAN_POINT('',(19.288662420382,1.904325627607,4.647330781106
    ));
#630 = LINE('',#631,#632);
#631 = CARTESIAN_POINT('',(19.288662420382,1.904325627607,4.647330781106
    ));
#632 = VECTOR('',#633,1.);
#633 = DIRECTION('',(0.,-0.939692620786,0.342020143326));
#634 = ORIENTED_EDGE('',*,*,#635,.F.);
#635 = EDGE_CURVE('',#595,#628,#636,.T.);
#636 = B_SPLINE_CURVE_WITH_KNOTS('',2,(#637,#638,#639),.UNSPECIFIED.,.F.
  ,.F.,(3,3),(0.,1.),.PIECEWISE_BEZIER_KNOTS.);
#637 = CARTESIAN_POINT('',(19.932738853503,2.116944519254,5.231496384855
    ));
#638 = CARTESIAN_POINT('',(19.424458598726,1.956870378288,4.791696297114
    ));
#639 = CARTESIAN_POINT('',(19.288662420382,1.904325627607,4.647330781106
    ));
#640 = SURFACE_OF_LINEAR_EXTRUSION('',#641,#645);
#641 = B_SPLINE_CURVE_WITH_KNOTS('',2,(#642,#643,#644),.UNSPECIFIED.,.F.
  ,.F.,(3,3),(0.,1.),.PIECEWISE_BEZIER_KNOTS.);
#642 = CARTESIAN_POINT('',(19.932738853503,2.116944519254,5.231496384855
    ));
#643 = CARTESIAN_POINT('',(19.424458598726,1.956870378288,4.791696297114
    ));
#644 = CARTESIAN_POINT('',(19.288662420382,1.904325627607,4.647330781106
    ));
#645 = VECTOR('',#646,1.);
#646 = DIRECTION('',(-0.,0.939692620786,-0.342020143326));
#647 = ADVANCED_FACE('',(#648),#673,.T.);
#648 = FACE_BOUND('',#649,.T.);
#649 = EDGE_LOOP('',(#650,#651,#659,#667));
#650 = ORIENTED_EDGE('',*,*,#627,.T.);
#651 = ORIENTED_EDGE('',*,*,#652,.T.);
#652 = EDGE_CURVE('',#620,#653,#655,.T.);
#653 = VERTEX_POINT('',#654);
#654 = CARTESIAN_POINT('',(19.069044585987,1.050270474095,4.639877051995
    ));
#655 = B_SPLINE_CURVE_WITH_KNOTS('',2,(#656,#657,#658),.UNSPECIFIED.,.F.
  ,.F.,(3,3),(0.,1.),.PIECEWISE_BEZIER_KNOTS.);
#656 = CARTESIAN_POINT('',(19.288662420382,1.152571530978,4.920946895766
    ));
#657 = CARTESIAN_POINT('',(19.153121019108,1.100113919186,4.77682079189)
  );
#658 = CARTESIAN_POINT('',(19.069044585987,1.050270474095,4.639877051995
    ));
#659 = ORIENTED_EDGE('',*,*,#660,.F.);
#660 = EDGE_CURVE('',#661,#653,#663,.T.);
#661 = VERTEX_POINT('',#662);
#662 = CARTESIAN_POINT('',(19.069044585987,1.802024570724,4.366260937334
    ));
#663 = LINE('',#664,#665);
#664 = CARTESIAN_POINT('',(19.069044585987,1.802024570724,4.366260937334
    ));
#665 = VECTOR('',#666,1.);
#666 = DIRECTION('',(0.,-0.939692620786,0.342020143326));
#667 = ORIENTED_EDGE('',*,*,#668,.F.);
#668 = EDGE_CURVE('',#628,#661,#669,.T.);
#669 = B_SPLINE_CURVE_WITH_KNOTS('',2,(#670,#671,#672),.UNSPECIFIED.,.F.
  ,.F.,(3,3),(0.,1.),.PIECEWISE_BEZIER_KNOTS.);
#670 = CARTESIAN_POINT('',(19.288662420382,1.904325627607,4.647330781106
    ));
#671 = CARTESIAN_POINT('',(19.153121019108,1.851868015815,4.50320467723)
  );
#672 = CARTESIAN_POINT('',(19.069044585987,1.802024570724,4.366260937334
    ));
#673 = SURFACE_OF_LINEAR_EXTRUSION('',#674,#678);
#674 = B_SPLINE_CURVE_WITH_KNOTS('',2,(#675,#676,#677),.UNSPECIFIED.,.F.
  ,.F.,(3,3),(0.,1.),.PIECEWISE_BEZIER_KNOTS.);
#675 = CARTESIAN_POINT('',(19.288662420382,1.904325627607,4.647330781106
    ));
#676 = CARTESIAN_POINT('',(19.153121019108,1.851868015815,4.50320467723)
  );
#677 = CARTESIAN_POINT('',(19.069044585987,1.802024570724,4.366260937334
    ));
#678 = VECTOR('',#679,1.);
#679 = DIRECTION('',(-0.,0.939692620786,-0.342020143326));
#680 = ADVANCED_FACE('',(#681),#697,.T.);
#681 = FACE_BOUND('',#682,.T.);
#682 = EDGE_LOOP('',(#683,#684,#690,#691));
#683 = ORIENTED_EDGE('',*,*,#660,.T.);
#684 = ORIENTED_EDGE('',*,*,#685,.T.);
#685 = EDGE_CURVE('',#653,#24,#686,.T.);
#686 = LINE('',#687,#688);
#687 = CARTESIAN_POINT('',(19.069044585987,1.050270474095,4.639877051995
    ));
#688 = VECTOR('',#689,1.);
#689 = DIRECTION('',(1.,0.,0.));
#690 = ORIENTED_EDGE('',*,*,#21,.F.);
#691 = ORIENTED_EDGE('',*,*,#692,.F.);
#692 = EDGE_CURVE('',#661,#22,#693,.T.);
#693 = LINE('',#694,#695);
#694 = CARTESIAN_POINT('',(19.069044585987,1.802024570724,4.366260937334
    ));
#695 = VECTOR('',#696,1.);
#696 = DIRECTION('',(1.,0.,0.));
#697 = PLANE('',#698);
#698 = AXIS2_PLACEMENT_3D('',#699,#700,#701);
#699 = CARTESIAN_POINT('',(19.069044585987,1.802024570724,4.366260937334
    ));
#700 = DIRECTION('',(0.,0.342020143326,0.939692620786));
#701 = DIRECTION('',(1.,0.,0.));
#702 = ADVANCED_FACE('',(#703),#726,.F.);
#703 = FACE_BOUND('',#704,.T.);
#704 = EDGE_LOOP('',(#705,#706,#707,#708,#709,#710,#711,#712,#713,#714,
    #715,#716,#717,#718,#719,#720,#721,#722,#723,#724,#725));
#705 = ORIENTED_EDGE('',*,*,#47,.T.);
#706 = ORIENTED_EDGE('',*,*,#78,.T.);
#707 = ORIENTED_EDGE('',*,*,#109,.T.);
#708 = ORIENTED_EDGE('',*,*,#142,.T.);
#709 = ORIENTED_EDGE('',*,*,#175,.T.);
#710 = ORIENTED_EDGE('',*,*,#208,.T.);
#711 = ORIENTED_EDGE('',*,*,#241,.T.);
#712 = ORIENTED_EDGE('',*,*,#274,.T.);
#713 = ORIENTED_EDGE('',*,*,#307,.T.);
#714 = ORIENTED_EDGE('',*,*,#340,.T.);
#715 = ORIENTED_EDGE('',*,*,#373,.T.);
#716 = ORIENTED_EDGE('',*,*,#404,.T.);
#717 = ORIENTED_EDGE('',*,*,#437,.T.);
#718 = ORIENTED_EDGE('',*,*,#470,.T.);
#719 = ORIENTED_EDGE('',*,*,#503,.T.);
#720 = ORIENTED_EDGE('',*,*,#536,.T.);
#721 = ORIENTED_EDGE('',*,*,#569,.T.);
#722 = ORIENTED_EDGE('',*,*,#602,.T.);
#723 = ORIENTED_EDGE('',*,*,#635,.T.);
#724 = ORIENTED_EDGE('',*,*,#668,.T.);
#725 = ORIENTED_EDGE('',*,*,#692,.T.);
#726 = PLANE('',#727);
#727 = AXIS2_PLACEMENT_3D('',#728,#729,#730);
#728 = CARTESIAN_POINT('',(19.462907399301,2.361698988263,5.903953761769
    ));
#729 = DIRECTION('',(0.,-0.939692620786,0.342020143326));
#730 = DIRECTION('',(1.,0.,0.));
#731 = ADVANCED_FACE('',(#732),#755,.T.);
#732 = FACE_BOUND('',#733,.F.);
#733 = EDGE_LOOP('',(#734,#735,#736,#737,#738,#739,#740,#741,#742,#743,
    #744,#745,#746,#747,#748,#749,#750,#751,#752,#753,#754));
#734 = ORIENTED_EDGE('',*,*,#31,.T.);
#735 = ORIENTED_EDGE('',*,*,#62,.T.);
#736 = ORIENTED_EDGE('',*,*,#93,.T.);
#737 = ORIENTED_EDGE('',*,*,#126,.T.);
#738 = ORIENTED_EDGE('',*,*,#159,.T.);
#739 = ORIENTED_EDGE('',*,*,#192,.T.);
#740 = ORIENTED_EDGE('',*,*,#225,.T.);
#741 = ORIENTED_EDGE('',*,*,#258,.T.);
#742 = ORIENTED_EDGE('',*,*,#291,.T.);
#743 = ORIENTED_EDGE('',*,*,#324,.T.);
#744 = ORIENTED_EDGE('',*,*,#357,.T.);
#745 = ORIENTED_EDGE('',*,*,#388,.T.);
#746 = ORIENTED_EDGE('',*,*,#421,.T.);
#747 = ORIENTED_EDGE('',*,*,#454,.T.);
#748 = ORIENTED_EDGE('',*,*,#487,.T.);
#749 = ORIENTED_EDGE('',*,*,#520,.T.);
#750 = ORIENTED_EDGE('',*,*,#553,.T.);
#751 = ORIENTED_EDGE('',*,*,#586,.T.);
#752 = ORIENTED_EDGE('',*,*,#619,.T.);
#753 = ORIENTED_EDGE('',*,*,#652,.T.);
#754 = ORIENTED_EDGE('',*,*,#685,.T.);
#755 = PLANE('',#756);
#756 = AXIS2_PLACEMENT_3D('',#757,#758,#759);
#757 = CARTESIAN_POINT('',(19.462907399301,1.609944891634,6.17756987643)
  );
#758 = DIRECTION('',(0.,-0.939692620786,0.342020143326));
#759 = DIRECTION('',(1.,0.,0.));
#760 = MANIFOLD_SOLID_BREP('',#761);
#761 = CLOSED_SHELL('',(#762,#804,#837,#870,#903,#936,#969,#1002,#1026,
    #1042));
#762 = ADVANCED_FACE('',(#763),#797,.T.);
#763 = FACE_BOUND('',#764,.T.);
#764 = EDGE_LOOP('',(#765,#775,#783,#791));
#765 = ORIENTED_EDGE('',*,*,#766,.T.);
#766 = EDGE_CURVE('',#767,#769,#771,.T.);
#767 = VERTEX_POINT('',#768);
#768 = CARTESIAN_POINT('',(23.743694267516,3.391437924676,8.733138237496
    ));
#769 = VERTEX_POINT('',#770);
#770 = CARTESIAN_POINT('',(23.743694267516,2.639683828047,9.006754352157
    ));
#771 = LINE('',#772,#773);
#772 = CARTESIAN_POINT('',(23.743694267516,3.391437924676,8.733138237496
    ));
#773 = VECTOR('',#774,1.);
#774 = DIRECTION('',(0.,-0.939692620786,0.342020143326));
#775 = ORIENTED_EDGE('',*,*,#776,.T.);
#776 = EDGE_CURVE('',#769,#777,#779,.T.);
#777 = VERTEX_POINT('',#778);
#778 = CARTESIAN_POINT('',(25.016305732484,2.440397186573,8.459218804708
    ));
#779 = B_SPLINE_CURVE_WITH_KNOTS('',2,(#780,#781,#782),.UNSPECIFIED.,.F.
  ,.F.,(3,3),(0.,1.),.PIECEWISE_BEZIER_KNOTS.);
#780 = CARTESIAN_POINT('',(23.743694267516,2.639683828047,9.006754352157
    ));
#781 = CARTESIAN_POINT('',(24.557707006369,2.639683828047,9.006754352157
    ));
#782 = CARTESIAN_POINT('',(25.016305732484,2.440397186573,8.459218804708
    ));
#783 = ORIENTED_EDGE('',*,*,#784,.F.);
#784 = EDGE_CURVE('',#785,#777,#787,.T.);
#785 = VERTEX_POINT('',#786);
#786 = CARTESIAN_POINT('',(25.016305732484,3.192151283202,8.185602690047
    ));
#787 = LINE('',#788,#789);
#788 = CARTESIAN_POINT('',(25.016305732484,3.192151283202,8.185602690047
    ));
#789 = VECTOR('',#790,1.);
#790 = DIRECTION('',(0.,-0.939692620786,0.342020143326));
#791 = ORIENTED_EDGE('',*,*,#792,.F.);
#792 = EDGE_CURVE('',#767,#785,#793,.T.);
#793 = B_SPLINE_CURVE_WITH_KNOTS('',2,(#794,#795,#796),.UNSPECIFIED.,.F.
  ,.F.,(3,3),(0.,1.),.PIECEWISE_BEZIER_KNOTS.);
#794 = CARTESIAN_POINT('',(23.743694267516,3.391437924676,8.733138237496
    ));
#795 = CARTESIAN_POINT('',(24.557707006369,3.391437924676,8.733138237496
    ));
#796 = CARTESIAN_POINT('',(25.016305732484,3.192151283202,8.185602690047
    ));
#797 = SURFACE_OF_LINEAR_EXTRUSION('',#798,#802);
#798 = B_SPLINE_CURVE_WITH_KNOTS('',2,(#799,#800,#801),.UNSPECIFIED.,.F.
  ,.F.,(3,3),(0.,1.),.PIECEWISE_BEZIER_KNOTS.);
#799 = CARTESIAN_POINT('',(23.743694267516,3.391437924676,8.733138237496
    ));
#800 = CARTESIAN_POINT('',(24.557707006369,3.391437924676,8.733138237496
    ));
#801 = CARTESIAN_POINT('',(25.016305732484,3.192151283202,8.185602690047
    ));
#802 = VECTOR('',#803,1.);
#803 = DIRECTION('',(-0.,0.939692620786,-0.342020143326));
#804 = ADVANCED_FACE('',(#805),#830,.T.);
#805 = FACE_BOUND('',#806,.T.);
#806 = EDGE_LOOP('',(#807,#808,#816,#824));
#807 = ORIENTED_EDGE('',*,*,#784,.T.);
#808 = ORIENTED_EDGE('',*,*,#809,.T.);
#809 = EDGE_CURVE('',#777,#810,#812,.T.);
#810 = VERTEX_POINT('',#811);
#811 = CARTESIAN_POINT('',(25.562802547771,1.65745425975,6.308100792539)
  );
#812 = B_SPLINE_CURVE_WITH_KNOTS('',2,(#813,#814,#815),.UNSPECIFIED.,.F.
  ,.F.,(3,3),(0.,1.),.PIECEWISE_BEZIER_KNOTS.);
#813 = CARTESIAN_POINT('',(25.016305732484,2.440397186573,8.459218804708
    ));
#814 = CARTESIAN_POINT('',(25.562802547771,2.204337933511,7.810651337266
    ));
#815 = CARTESIAN_POINT('',(25.562802547771,1.65745425975,6.308100792539)
  );
#816 = ORIENTED_EDGE('',*,*,#817,.F.);
#817 = EDGE_CURVE('',#818,#810,#820,.T.);
#818 = VERTEX_POINT('',#819);
#819 = CARTESIAN_POINT('',(25.562802547771,2.409208356378,6.034484677879
    ));
#820 = LINE('',#821,#822);
#821 = CARTESIAN_POINT('',(25.562802547771,2.409208356378,6.034484677879
    ));
#822 = VECTOR('',#823,1.);
#823 = DIRECTION('',(0.,-0.939692620786,0.342020143326));
#824 = ORIENTED_EDGE('',*,*,#825,.F.);
#825 = EDGE_CURVE('',#785,#818,#826,.T.);
#826 = B_SPLINE_CURVE_WITH_KNOTS('',2,(#827,#828,#829),.UNSPECIFIED.,.F.
  ,.F.,(3,3),(0.,1.),.PIECEWISE_BEZIER_KNOTS.);
#827 = CARTESIAN_POINT('',(25.016305732484,3.192151283202,8.185602690047
    ));
#828 = CARTESIAN_POINT('',(25.562802547771,2.956092030139,7.537035222605
    ));
#829 = CARTESIAN_POINT('',(25.562802547771,2.409208356378,6.034484677879
    ));
#830 = SURFACE_OF_LINEAR_EXTRUSION('',#831,#835);
#831 = B_SPLINE_CURVE_WITH_KNOTS('',2,(#832,#833,#834),.UNSPECIFIED.,.F.
  ,.F.,(3,3),(0.,1.),.PIECEWISE_BEZIER_KNOTS.);
#832 = CARTESIAN_POINT('',(25.016305732484,3.192151283202,8.185602690047
    ));
#833 = CARTESIAN_POINT('',(25.562802547771,2.956092030139,7.537035222605
    ));
#834 = CARTESIAN_POINT('',(25.562802547771,2.409208356378,6.034484677879
    ));
#835 = VECTOR('',#836,1.);
#836 = DIRECTION('',(-0.,0.939692620786,-0.342020143326));
#837 = ADVANCED_FACE('',(#838),#863,.T.);
#838 = FACE_BOUND('',#839,.T.);
#839 = EDGE_LOOP('',(#840,#841,#849,#857));
#840 = ORIENTED_EDGE('',*,*,#817,.T.);
#841 = ORIENTED_EDGE('',*,*,#842,.T.);
#842 = EDGE_CURVE('',#810,#843,#845,.T.);
#843 = VERTEX_POINT('',#844);
#844 = CARTESIAN_POINT('',(25.012484076433,0.873291388466,4.153631010513
    ));
#845 = B_SPLINE_CURVE_WITH_KNOTS('',2,(#846,#847,#848),.UNSPECIFIED.,.F.
  ,.F.,(3,3),(0.,1.),.PIECEWISE_BEZIER_KNOTS.);
#846 = CARTESIAN_POINT('',(25.562802547771,1.65745425975,6.308100792539)
  );
#847 = CARTESIAN_POINT('',(25.562802547771,1.111964808229,4.809380841935
    ));
#848 = CARTESIAN_POINT('',(25.012484076433,0.873291388466,4.153631010513
    ));
#849 = ORIENTED_EDGE('',*,*,#850,.F.);
#850 = EDGE_CURVE('',#851,#843,#853,.T.);
#851 = VERTEX_POINT('',#852);
#852 = CARTESIAN_POINT('',(25.012484076433,1.625045485095,3.880014895853
    ));
#853 = LINE('',#854,#855);
#854 = CARTESIAN_POINT('',(25.012484076433,1.625045485095,3.880014895853
    ));
#855 = VECTOR('',#856,1.);
#856 = DIRECTION('',(0.,-0.939692620786,0.342020143326));
#857 = ORIENTED_EDGE('',*,*,#858,.F.);
#858 = EDGE_CURVE('',#818,#851,#859,.T.);
#859 = B_SPLINE_CURVE_WITH_KNOTS('',2,(#860,#861,#862),.UNSPECIFIED.,.F.
  ,.F.,(3,3),(0.,1.),.PIECEWISE_BEZIER_KNOTS.);
#860 = CARTESIAN_POINT('',(25.562802547771,2.409208356378,6.034484677879
    ));
#861 = CARTESIAN_POINT('',(25.562802547771,1.863718904858,4.535764727275
    ));
#862 = CARTESIAN_POINT('',(25.012484076433,1.625045485095,3.880014895853
    ));
#863 = SURFACE_OF_LINEAR_EXTRUSION('',#864,#868);
#864 = B_SPLINE_CURVE_WITH_KNOTS('',2,(#865,#866,#867),.UNSPECIFIED.,.F.
  ,.F.,(3,3),(0.,1.),.PIECEWISE_BEZIER_KNOTS.);
#865 = CARTESIAN_POINT('',(25.562802547771,2.409208356378,6.034484677879
    ));
#866 = CARTESIAN_POINT('',(25.562802547771,1.863718904858,4.535764727275
    ));
#867 = CARTESIAN_POINT('',(25.012484076433,1.625045485095,3.880014895853
    ));
#868 = VECTOR('',#869,1.);
#869 = DIRECTION('',(-0.,0.939692620786,-0.342020143326));
#870 = ADVANCED_FACE('',(#871),#896,.T.);
#871 = FACE_BOUND('',#872,.T.);
#872 = EDGE_LOOP('',(#873,#874,#882,#890));
#873 = ORIENTED_EDGE('',*,*,#850,.T.);
#874 = ORIENTED_EDGE('',*,*,#875,.T.);
#875 = EDGE_CURVE('',#843,#876,#878,.T.);
#876 = VERTEX_POINT('',#877);
#877 = CARTESIAN_POINT('',(23.743694267516,0.676618913693,3.613277827045
    ));
#878 = B_SPLINE_CURVE_WITH_KNOTS('',2,(#879,#880,#881),.UNSPECIFIED.,.F.
  ,.F.,(3,3),(0.,1.),.PIECEWISE_BEZIER_KNOTS.);
#879 = CARTESIAN_POINT('',(25.012484076433,0.873291388466,4.153631010513
    ));
#880 = CARTESIAN_POINT('',(24.557707006369,0.676618913693,3.613277827045
    ));
#881 = CARTESIAN_POINT('',(23.743694267516,0.676618913693,3.613277827045
    ));
#882 = ORIENTED_EDGE('',*,*,#883,.F.);
#883 = EDGE_CURVE('',#884,#876,#886,.T.);
#884 = VERTEX_POINT('',#885);
#885 = CARTESIAN_POINT('',(23.743694267516,1.428373010321,3.339661712384
    ));
#886 = LINE('',#887,#888);
#887 = CARTESIAN_POINT('',(23.743694267516,1.428373010321,3.339661712384
    ));
#888 = VECTOR('',#889,1.);
#889 = DIRECTION('',(0.,-0.939692620786,0.342020143326));
#890 = ORIENTED_EDGE('',*,*,#891,.F.);
#891 = EDGE_CURVE('',#851,#884,#892,.T.);
#892 = B_SPLINE_CURVE_WITH_KNOTS('',2,(#893,#894,#895),.UNSPECIFIED.,.F.
  ,.F.,(3,3),(0.,1.),.PIECEWISE_BEZIER_KNOTS.);
#893 = CARTESIAN_POINT('',(25.012484076433,1.625045485095,3.880014895853
    ));
#894 = CARTESIAN_POINT('',(24.557707006369,1.428373010321,3.339661712384
    ));
#895 = CARTESIAN_POINT('',(23.743694267516,1.428373010321,3.339661712384
    ));
#896 = SURFACE_OF_LINEAR_EXTRUSION('',#897,#901);
#897 = B_SPLINE_CURVE_WITH_KNOTS('',2,(#898,#899,#900),.UNSPECIFIED.,.F.
  ,.F.,(3,3),(0.,1.),.PIECEWISE_BEZIER_KNOTS.);
#898 = CARTESIAN_POINT('',(25.012484076433,1.625045485095,3.880014895853
    ));
#899 = CARTESIAN_POINT('',(24.557707006369,1.428373010321,3.339661712384
    ));
#900 = CARTESIAN_POINT('',(23.743694267516,1.428373010321,3.339661712384
    ));
#901 = VECTOR('',#902,1.);
#902 = DIRECTION('',(-0.,0.939692620786,-0.342020143326));
#903 = ADVANCED_FACE('',(#904),#929,.T.);
#904 = FACE_BOUND('',#905,.T.);
#905 = EDGE_LOOP('',(#906,#907,#915,#923));
#906 = ORIENTED_EDGE('',*,*,#883,.T.);
#907 = ORIENTED_EDGE('',*,*,#908,.T.);
#908 = EDGE_CURVE('',#876,#909,#911,.T.);
#909 = VERTEX_POINT('',#910);
#910 = CARTESIAN_POINT('',(22.425222929936,0.89228766649,4.205822855438)
  );
#911 = B_SPLINE_CURVE_WITH_KNOTS('',2,(#912,#913,#914),.UNSPECIFIED.,.F.
  ,.F.,(3,3),(0.,1.),.PIECEWISE_BEZIER_KNOTS.);
#912 = CARTESIAN_POINT('',(23.743694267516,0.676618913693,3.613277827045
    ));
#913 = CARTESIAN_POINT('',(22.925859872611,0.676618913693,3.613277827045
    ));
#914 = CARTESIAN_POINT('',(22.425222929936,0.89228766649,4.205822855438)
  );
#915 = ORIENTED_EDGE('',*,*,#916,.F.);
#916 = EDGE_CURVE('',#917,#909,#919,.T.);
#917 = VERTEX_POINT('',#918);
#918 = CARTESIAN_POINT('',(22.425222929936,1.644041763119,3.932206740778
    ));
#919 = LINE('',#920,#921);
#920 = CARTESIAN_POINT('',(22.425222929936,1.644041763119,3.932206740778
    ));
#921 = VECTOR('',#922,1.);
#922 = DIRECTION('',(0.,-0.939692620786,0.342020143326));
#923 = ORIENTED_EDGE('',*,*,#924,.F.);
#924 = EDGE_CURVE('',#884,#917,#925,.T.);
#925 = B_SPLINE_CURVE_WITH_KNOTS('',2,(#926,#927,#928),.UNSPECIFIED.,.F.
  ,.F.,(3,3),(0.,1.),.PIECEWISE_BEZIER_KNOTS.);
#926 = CARTESIAN_POINT('',(23.743694267516,1.428373010321,3.339661712384
    ));
#927 = CARTESIAN_POINT('',(22.925859872611,1.428373010321,3.339661712384
    ));
#928 = CARTESIAN_POINT('',(22.425222929936,1.644041763119,3.932206740778
    ));
#929 = SURFACE_OF_LINEAR_EXTRUSION('',#930,#934);
#930 = B_SPLINE_CURVE_WITH_KNOTS('',2,(#931,#932,#933),.UNSPECIFIED.,.F.
  ,.F.,(3,3),(0.,1.),.PIECEWISE_BEZIER_KNOTS.);
#931 = CARTESIAN_POINT('',(23.743694267516,1.428373010321,3.339661712384
    ));
#932 = CARTESIAN_POINT('',(22.925859872611,1.428373010321,3.339661712384
    ));
#933 = CARTESIAN_POINT('',(22.425222929936,1.644041763119,3.932206740778
    ));
#934 = VECTOR('',#935,1.);
#935 = DIRECTION('',(-0.,0.939692620786,-0.342020143326));
#936 = ADVANCED_FACE('',(#937),#962,.T.);
#937 = FACE_BOUND('',#938,.T.);
#938 = EDGE_LOOP('',(#939,#940,#948,#956));
#939 = ORIENTED_EDGE('',*,*,#916,.T.);
#940 = ORIENTED_EDGE('',*,*,#941,.T.);
#941 = EDGE_CURVE('',#909,#942,#944,.T.);
#942 = VERTEX_POINT('',#943);
#943 = CARTESIAN_POINT('',(21.924585987261,1.661462648691,6.319113750643
    ));
#944 = B_SPLINE_CURVE_WITH_KNOTS('',2,(#945,#946,#947),.UNSPECIFIED.,.F.
  ,.F.,(3,3),(0.,1.),.PIECEWISE_BEZIER_KNOTS.);
#945 = CARTESIAN_POINT('',(22.425222929936,0.89228766649,4.205822855438)
  );
#946 = CARTESIAN_POINT('',(21.924585987261,1.108043558178,4.798607295965
    ));
#947 = CARTESIAN_POINT('',(21.924585987261,1.661462648691,6.319113750643
    ));
#948 = ORIENTED_EDGE('',*,*,#949,.F.);
#949 = EDGE_CURVE('',#950,#942,#952,.T.);
#950 = VERTEX_POINT('',#951);
#951 = CARTESIAN_POINT('',(21.924585987261,2.413216745319,6.045497635982
    ));
#952 = LINE('',#953,#954);
#953 = CARTESIAN_POINT('',(21.924585987261,2.413216745319,6.045497635982
    ));
#954 = VECTOR('',#955,1.);
#955 = DIRECTION('',(0.,-0.939692620786,0.342020143326));
#956 = ORIENTED_EDGE('',*,*,#957,.F.);
#957 = EDGE_CURVE('',#917,#950,#958,.T.);
#958 = B_SPLINE_CURVE_WITH_KNOTS('',2,(#959,#960,#961),.UNSPECIFIED.,.F.
  ,.F.,(3,3),(0.,1.),.PIECEWISE_BEZIER_KNOTS.);
#959 = CARTESIAN_POINT('',(22.425222929936,1.644041763119,3.932206740778
    ));
#960 = CARTESIAN_POINT('',(21.924585987261,1.859797654807,4.524991181304
    ));
#961 = CARTESIAN_POINT('',(21.924585987261,2.413216745319,6.045497635982
    ));
#962 = SURFACE_OF_LINEAR_EXTRUSION('',#963,#967);
#963 = B_SPLINE_CURVE_WITH_KNOTS('',2,(#964,#965,#966),.UNSPECIFIED.,.F.
  ,.F.,(3,3),(0.,1.),.PIECEWISE_BEZIER_KNOTS.);
#964 = CARTESIAN_POINT('',(22.425222929936,1.644041763119,3.932206740778
    ));
#965 = CARTESIAN_POINT('',(21.924585987261,1.859797654807,4.524991181304
    ));
#966 = CARTESIAN_POINT('',(21.924585987261,2.413216745319,6.045497635982
    ));
#967 = VECTOR('',#968,1.);
#968 = DIRECTION('',(-0.,0.939692620786,-0.342020143326));
#969 = ADVANCED_FACE('',(#970),#995,.T.);
#970 = FACE_BOUND('',#971,.T.);
#971 = EDGE_LOOP('',(#972,#973,#981,#989));
#972 = ORIENTED_EDGE('',*,*,#949,.T.);
#973 = ORIENTED_EDGE('',*,*,#974,.T.);
#974 = EDGE_CURVE('',#942,#975,#977,.T.);
#975 = VERTEX_POINT('',#976);
#976 = CARTESIAN_POINT('',(22.474904458599,2.443011353274,8.466401168688
    ));
#977 = B_SPLINE_CURVE_WITH_KNOTS('',2,(#978,#979,#980),.UNSPECIFIED.,.F.
  ,.F.,(3,3),(0.,1.),.PIECEWISE_BEZIER_KNOTS.);
#978 = CARTESIAN_POINT('',(21.924585987261,1.661462648691,6.319113750643
    ));
#979 = CARTESIAN_POINT('',(21.924585987261,2.204337933511,7.810651337266
    ));
#980 = CARTESIAN_POINT('',(22.474904458599,2.443011353274,8.466401168688
    ));
#981 = ORIENTED_EDGE('',*,*,#982,.F.);
#982 = EDGE_CURVE('',#983,#975,#985,.T.);
#983 = VERTEX_POINT('',#984);
#984 = CARTESIAN_POINT('',(22.474904458599,3.194765449902,8.192785054028
    ));
#985 = LINE('',#986,#987);
#986 = CARTESIAN_POINT('',(22.474904458599,3.194765449902,8.192785054028
    ));
#987 = VECTOR('',#988,1.);
#988 = DIRECTION('',(0.,-0.939692620786,0.342020143326));
#989 = ORIENTED_EDGE('',*,*,#990,.F.);
#990 = EDGE_CURVE('',#950,#983,#991,.T.);
#991 = B_SPLINE_CURVE_WITH_KNOTS('',2,(#992,#993,#994),.UNSPECIFIED.,.F.
  ,.F.,(3,3),(0.,1.),.PIECEWISE_BEZIER_KNOTS.);
#992 = CARTESIAN_POINT('',(21.924585987261,2.413216745319,6.045497635982
    ));
#993 = CARTESIAN_POINT('',(21.924585987261,2.956092030139,7.537035222605
    ));
#994 = CARTESIAN_POINT('',(22.474904458599,3.194765449902,8.192785054028
    ));
#995 = SURFACE_OF_LINEAR_EXTRUSION('',#996,#1000);
#996 = B_SPLINE_CURVE_WITH_KNOTS('',2,(#997,#998,#999),.UNSPECIFIED.,.F.
  ,.F.,(3,3),(0.,1.),.PIECEWISE_BEZIER_KNOTS.);
#997 = CARTESIAN_POINT('',(21.924585987261,2.413216745319,6.045497635982
    ));
#998 = CARTESIAN_POINT('',(21.924585987261,2.956092030139,7.537035222605
    ));
#999 = CARTESIAN_POINT('',(22.474904458599,3.194765449902,8.192785054028
    ));
#1000 = VECTOR('',#1001,1.);
#1001 = DIRECTION('',(-0.,0.939692620786,-0.342020143326));
#1002 = ADVANCED_FACE('',(#1003),#1019,.T.);
#1003 = FACE_BOUND('',#1004,.T.);
#1004 = EDGE_LOOP('',(#1005,#1006,#1012,#1013));
#1005 = ORIENTED_EDGE('',*,*,#982,.T.);
#1006 = ORIENTED_EDGE('',*,*,#1007,.T.);
#1007 = EDGE_CURVE('',#975,#769,#1008,.T.);
#1008 = B_SPLINE_CURVE_WITH_KNOTS('',2,(#1009,#1010,#1011),
  .UNSPECIFIED.,.F.,.F.,(3,3),(0.,1.),.PIECEWISE_BEZIER_KNOTS.);
#1009 = CARTESIAN_POINT('',(22.474904458599,2.443011353274,
    8.466401168688));
#1010 = CARTESIAN_POINT('',(22.929681528662,2.639683828047,
    9.006754352157));
#1011 = CARTESIAN_POINT('',(23.743694267516,2.639683828047,
    9.006754352157));
#1012 = ORIENTED_EDGE('',*,*,#766,.F.);
#1013 = ORIENTED_EDGE('',*,*,#1014,.F.);
#1014 = EDGE_CURVE('',#983,#767,#1015,.T.);
#1015 = B_SPLINE_CURVE_WITH_KNOTS('',2,(#1016,#1017,#1018),
  .UNSPECIFIED.,.F.,.F.,(3,3),(0.,1.),.PIECEWISE_BEZIER_KNOTS.);
#1016 = CARTESIAN_POINT('',(22.474904458599,3.194765449902,
    8.192785054028));
#1017 = CARTESIAN_POINT('',(22.929681528662,3.391437924676,
    8.733138237496));
#1018 = CARTESIAN_POINT('',(23.743694267516,3.391437924676,
    8.733138237496));
#1019 = SURFACE_OF_LINEAR_EXTRUSION('',#1020,#1024);
#1020 = B_SPLINE_CURVE_WITH_KNOTS('',2,(#1021,#1022,#1023),
  .UNSPECIFIED.,.F.,.F.,(3,3),(0.,1.),.PIECEWISE_BEZIER_KNOTS.);
#1021 = CARTESIAN_POINT('',(22.474904458599,3.194765449902,
    8.192785054028));
#1022 = CARTESIAN_POINT('',(22.929681528662,3.391437924676,
    8.733138237496));
#1023 = CARTESIAN_POINT('',(23.743694267516,3.391437924676,
    8.733138237496));
#1024 = VECTOR('',#1025,1.);
#1025 = DIRECTION('',(-0.,0.939692620786,-0.342020143326));
#1026 = ADVANCED_FACE('',(#1027),#1037,.F.);
#1027 = FACE_BOUND('',#1028,.T.);
#1028 = EDGE_LOOP('',(#1029,#1030,#1031,#1032,#1033,#1034,#1035,#1036));
#1029 = ORIENTED_EDGE('',*,*,#792,.T.);
#1030 = ORIENTED_EDGE('',*,*,#825,.T.);
#1031 = ORIENTED_EDGE('',*,*,#858,.T.);
#1032 = ORIENTED_EDGE('',*,*,#891,.T.);
#1033 = ORIENTED_EDGE('',*,*,#924,.T.);
#1034 = ORIENTED_EDGE('',*,*,#957,.T.);
#1035 = ORIENTED_EDGE('',*,*,#990,.T.);
#1036 = ORIENTED_EDGE('',*,*,#1014,.T.);
#1037 = PLANE('',#1038);
#1038 = AXIS2_PLACEMENT_3D('',#1039,#1040,#1041);
#1039 = CARTESIAN_POINT('',(23.741970270052,2.409783091842,
    6.036063750588));
#1040 = DIRECTION('',(0.,-0.939692620786,0.342020143326));
#1041 = DIRECTION('',(1.,0.,0.));
#1042 = ADVANCED_FACE('',(#1043),#1053,.T.);
#1043 = FACE_BOUND('',#1044,.F.);
#1044 = EDGE_LOOP('',(#1045,#1046,#1047,#1048,#1049,#1050,#1051,#1052));
#1045 = ORIENTED_EDGE('',*,*,#776,.T.);
#1046 = ORIENTED_EDGE('',*,*,#809,.T.);
#1047 = ORIENTED_EDGE('',*,*,#842,.T.);
#1048 = ORIENTED_EDGE('',*,*,#875,.T.);
#1049 = ORIENTED_EDGE('',*,*,#908,.T.);
#1050 = ORIENTED_EDGE('',*,*,#941,.T.);
#1051 = ORIENTED_EDGE('',*,*,#974,.T.);
#1052 = ORIENTED_EDGE('',*,*,#1007,.T.);
#1053 = PLANE('',#1054);
#1054 = AXIS2_PLACEMENT_3D('',#1055,#1056,#1057);
#1055 = CARTESIAN_POINT('',(23.741970270052,1.658028995214,
    6.309679865249));
#1056 = DIRECTION('',(0.,-0.939692620786,0.342020143326));
#1057 = DIRECTION('',(1.,0.,0.));
#1058 = MANIFOLD_SOLID_BREP('',#1059);
#1059 = CLOSED_SHELL('',(#1060,#1102,#1135,#1168,#1201,#1234,#1267,#1300
    ,#1333,#1366,#1399,#1432,#1456,#1476));
#1060 = ADVANCED_FACE('',(#1061),#1095,.F.);
#1061 = FACE_BOUND('',#1062,.F.);
#1062 = EDGE_LOOP('',(#1063,#1073,#1081,#1089));
#1063 = ORIENTED_EDGE('',*,*,#1064,.T.);
#1064 = EDGE_CURVE('',#1065,#1067,#1069,.T.);
#1065 = VERTEX_POINT('',#1066);
#1066 = CARTESIAN_POINT('',(23.743694267516,3.084709031808,
    7.890407530447));
#1067 = VERTEX_POINT('',#1068);
#1068 = CARTESIAN_POINT('',(23.743694267516,2.332954935179,
    8.164023645108));
#1069 = LINE('',#1070,#1071);
#1070 = CARTESIAN_POINT('',(23.743694267516,3.084709031808,
    7.890407530447));
#1071 = VECTOR('',#1072,1.);
#1072 = DIRECTION('',(0.,-0.939692620786,0.342020143326));
#1073 = ORIENTED_EDGE('',*,*,#1074,.T.);
#1074 = EDGE_CURVE('',#1067,#1075,#1077,.T.);
#1075 = VERTEX_POINT('',#1076);
#1076 = CARTESIAN_POINT('',(23.395923566879,2.29043115685,8.047190524358
    ));
#1077 = B_SPLINE_CURVE_WITH_KNOTS('',2,(#1078,#1079,#1080),
  .UNSPECIFIED.,.F.,.F.,(3,3),(0.,1.),.PIECEWISE_BEZIER_KNOTS.);
#1078 = CARTESIAN_POINT('',(23.743694267516,2.332954935179,
    8.164023645108));
#1079 = CARTESIAN_POINT('',(23.548789808917,2.332954935179,
    8.164023645108));
#1080 = CARTESIAN_POINT('',(23.395923566879,2.29043115685,8.047190524358
    ));
#1081 = ORIENTED_EDGE('',*,*,#1082,.F.);
#1082 = EDGE_CURVE('',#1083,#1075,#1085,.T.);
#1083 = VERTEX_POINT('',#1084);
#1084 = CARTESIAN_POINT('',(23.395923566879,3.042185253479,
    7.773574409697));
#1085 = LINE('',#1086,#1087);
#1086 = CARTESIAN_POINT('',(23.395923566879,3.042185253479,
    7.773574409697));
#1087 = VECTOR('',#1088,1.);
#1088 = DIRECTION('',(0.,-0.939692620786,0.342020143326));
#1089 = ORIENTED_EDGE('',*,*,#1090,.F.);
#1090 = EDGE_CURVE('',#1065,#1083,#1091,.T.);
#1091 = B_SPLINE_CURVE_WITH_KNOTS('',2,(#1092,#1093,#1094),
  .UNSPECIFIED.,.F.,.F.,(3,3),(0.,1.),.PIECEWISE_BEZIER_KNOTS.);
#1092 = CARTESIAN_POINT('',(23.743694267516,3.084709031808,
    7.890407530447));
#1093 = CARTESIAN_POINT('',(23.548789808917,3.084709031808,
    7.890407530447));
#1094 = CARTESIAN_POINT('',(23.395923566879,3.042185253479,
    7.773574409697));
#1095 = SURFACE_OF_LINEAR_EXTRUSION('',#1096,#1100);
#1096 = B_SPLINE_CURVE_WITH_KNOTS('',2,(#1097,#1098,#1099),
  .UNSPECIFIED.,.F.,.F.,(3,3),(0.,1.),.PIECEWISE_BEZIER_KNOTS.);
#1097 = CARTESIAN_POINT('',(23.743694267516,3.084709031808,
    7.890407530447));
#1098 = CARTESIAN_POINT('',(23.548789808917,3.084709031808,
    7.890407530447));
#1099 = CARTESIAN_POINT('',(23.395923566879,3.042185253479,
    7.773574409697));
#1100 = VECTOR('',#1101,1.);
#1101 = DIRECTION('',(-0.,0.939692620786,-0.342020143326));
#1102 = ADVANCED_FACE('',(#1103),#1128,.F.);
#1103 = FACE_BOUND('',#1104,.F.);
#1104 = EDGE_LOOP('',(#1105,#1106,#1114,#1122));
#1105 = ORIENTED_EDGE('',*,*,#1082,.T.);
#1106 = ORIENTED_EDGE('',*,*,#1107,.T.);
#1107 = EDGE_CURVE('',#1075,#1108,#1110,.T.);
#1108 = VERTEX_POINT('',#1109);
#1109 = CARTESIAN_POINT('',(23.15898089172,2.137938099316,7.62821929216)
  );
#1110 = B_SPLINE_CURVE_WITH_KNOTS('',2,(#1111,#1112,#1113),
  .UNSPECIFIED.,.F.,.F.,(3,3),(0.,1.),.PIECEWISE_BEZIER_KNOTS.);
#1111 = CARTESIAN_POINT('',(23.395923566879,2.29043115685,8.047190524358
    ));
#1112 = CARTESIAN_POINT('',(23.243057324841,2.24790737852,7.930357403608
    ));
#1113 = CARTESIAN_POINT('',(23.15898089172,2.137938099316,7.62821929216)
  );
#1114 = ORIENTED_EDGE('',*,*,#1115,.F.);
#1115 = EDGE_CURVE('',#1116,#1108,#1118,.T.);
#1116 = VERTEX_POINT('',#1117);
#1117 = CARTESIAN_POINT('',(23.15898089172,2.889692195945,7.3546031775)
  );
#1118 = LINE('',#1119,#1120);
#1119 = CARTESIAN_POINT('',(23.15898089172,2.889692195945,7.3546031775)
  );
#1120 = VECTOR('',#1121,1.);
#1121 = DIRECTION('',(0.,-0.939692620786,0.342020143326));
#1122 = ORIENTED_EDGE('',*,*,#1123,.F.);
#1123 = EDGE_CURVE('',#1083,#1116,#1124,.T.);
#1124 = B_SPLINE_CURVE_WITH_KNOTS('',2,(#1125,#1126,#1127),
  .UNSPECIFIED.,.F.,.F.,(3,3),(0.,1.),.PIECEWISE_BEZIER_KNOTS.);
#1125 = CARTESIAN_POINT('',(23.395923566879,3.042185253479,
    7.773574409697));
#1126 = CARTESIAN_POINT('',(23.243057324841,2.999661475149,
    7.656741288948));
#1127 = CARTESIAN_POINT('',(23.15898089172,2.889692195945,7.3546031775)
  );
#1128 = SURFACE_OF_LINEAR_EXTRUSION('',#1129,#1133);
#1129 = B_SPLINE_CURVE_WITH_KNOTS('',2,(#1130,#1131,#1132),
  .UNSPECIFIED.,.F.,.F.,(3,3),(0.,1.),.PIECEWISE_BEZIER_KNOTS.);
#1130 = CARTESIAN_POINT('',(23.395923566879,3.042185253479,
    7.773574409697));
#1131 = CARTESIAN_POINT('',(23.243057324841,2.999661475149,
    7.656741288948));
#1132 = CARTESIAN_POINT('',(23.15898089172,2.889692195945,7.3546031775)
  );
#1133 = VECTOR('',#1134,1.);
#1134 = DIRECTION('',(-0.,0.939692620786,-0.342020143326));
#1135 = ADVANCED_FACE('',(#1136),#1161,.F.);
#1136 = FACE_BOUND('',#1137,.F.);
#1137 = EDGE_LOOP('',(#1138,#1139,#1147,#1155));
#1138 = ORIENTED_EDGE('',*,*,#1115,.T.);
#1139 = ORIENTED_EDGE('',*,*,#1140,.T.);
#1140 = EDGE_CURVE('',#1108,#1141,#1143,.T.);
#1141 = VERTEX_POINT('',#1142);
#1142 = CARTESIAN_POINT('',(23.048152866242,1.65745425975,6.308100792539
    ));
#1143 = B_SPLINE_CURVE_WITH_KNOTS('',2,(#1144,#1145,#1146),
  .UNSPECIFIED.,.F.,.F.,(3,3),(0.,1.),.PIECEWISE_BEZIER_KNOTS.);
#1144 = CARTESIAN_POINT('',(23.15898089172,2.137938099316,7.62821929216)
  );
#1145 = CARTESIAN_POINT('',(23.048152866242,1.995204597464,
    7.236062218824));
#1146 = CARTESIAN_POINT('',(23.048152866242,1.65745425975,6.308100792539
    ));
#1147 = ORIENTED_EDGE('',*,*,#1148,.F.);
#1148 = EDGE_CURVE('',#1149,#1141,#1151,.T.);
#1149 = VERTEX_POINT('',#1150);
#1150 = CARTESIAN_POINT('',(23.048152866242,2.409208356378,
    6.034484677879));
#1151 = LINE('',#1152,#1153);
#1152 = CARTESIAN_POINT('',(23.048152866242,2.409208356378,
    6.034484677879));
#1153 = VECTOR('',#1154,1.);
#1154 = DIRECTION('',(0.,-0.939692620786,0.342020143326));
#1155 = ORIENTED_EDGE('',*,*,#1156,.F.);
#1156 = EDGE_CURVE('',#1116,#1149,#1157,.T.);
#1157 = B_SPLINE_CURVE_WITH_KNOTS('',2,(#1158,#1159,#1160),
  .UNSPECIFIED.,.F.,.F.,(3,3),(0.,1.),.PIECEWISE_BEZIER_KNOTS.);
#1158 = CARTESIAN_POINT('',(23.15898089172,2.889692195945,7.3546031775)
  );
#1159 = CARTESIAN_POINT('',(23.048152866242,2.746958694093,
    6.962446104163));
#1160 = CARTESIAN_POINT('',(23.048152866242,2.409208356378,
    6.034484677879));
#1161 = SURFACE_OF_LINEAR_EXTRUSION('',#1162,#1166);
#1162 = B_SPLINE_CURVE_WITH_KNOTS('',2,(#1163,#1164,#1165),
  .UNSPECIFIED.,.F.,.F.,(3,3),(0.,1.),.PIECEWISE_BEZIER_KNOTS.);
#1163 = CARTESIAN_POINT('',(23.15898089172,2.889692195945,7.3546031775)
  );
#1164 = CARTESIAN_POINT('',(23.048152866242,2.746958694093,
    6.962446104163));
#1165 = CARTESIAN_POINT('',(23.048152866242,2.409208356378,
    6.034484677879));
#1166 = VECTOR('',#1167,1.);
#1167 = DIRECTION('',(-0.,0.939692620786,-0.342020143326));
#1168 = ADVANCED_FACE('',(#1169),#1194,.F.);
#1169 = FACE_BOUND('',#1170,.F.);
#1170 = EDGE_LOOP('',(#1171,#1172,#1180,#1188));
#1171 = ORIENTED_EDGE('',*,*,#1148,.T.);
#1172 = ORIENTED_EDGE('',*,*,#1173,.T.);
#1173 = EDGE_CURVE('',#1141,#1174,#1176,.T.);
#1174 = VERTEX_POINT('',#1175);
#1175 = CARTESIAN_POINT('',(23.147515923567,1.193439670397,
    5.033231185995));
#1176 = B_SPLINE_CURVE_WITH_KNOTS('',2,(#1177,#1178,#1179),
  .UNSPECIFIED.,.F.,.F.,(3,3),(0.,1.),.PIECEWISE_BEZIER_KNOTS.);
#1177 = CARTESIAN_POINT('',(23.048152866242,1.65745425975,6.308100792539
    ));
#1178 = CARTESIAN_POINT('',(23.048152866242,1.319791060925,
    5.380378778388));
#1179 = CARTESIAN_POINT('',(23.147515923567,1.193439670397,
    5.033231185995));
#1180 = ORIENTED_EDGE('',*,*,#1181,.F.);
#1181 = EDGE_CURVE('',#1182,#1174,#1184,.T.);
#1182 = VERTEX_POINT('',#1183);
#1183 = CARTESIAN_POINT('',(23.147515923567,1.945193767026,
    4.759615071335));
#1184 = LINE('',#1185,#1186);
#1185 = CARTESIAN_POINT('',(23.147515923567,1.945193767026,
    4.759615071335));
#1186 = VECTOR('',#1187,1.);
#1187 = DIRECTION('',(0.,-0.939692620786,0.342020143326));
#1188 = ORIENTED_EDGE('',*,*,#1189,.F.);
#1189 = EDGE_CURVE('',#1149,#1182,#1190,.T.);
#1190 = B_SPLINE_CURVE_WITH_KNOTS('',2,(#1191,#1192,#1193),
  .UNSPECIFIED.,.F.,.F.,(3,3),(0.,1.),.PIECEWISE_BEZIER_KNOTS.);
#1191 = CARTESIAN_POINT('',(23.048152866242,2.409208356378,
    6.034484677879));
#1192 = CARTESIAN_POINT('',(23.048152866242,2.071545157554,
    5.106762663727));
#1193 = CARTESIAN_POINT('',(23.147515923567,1.945193767026,
    4.759615071335));
#1194 = SURFACE_OF_LINEAR_EXTRUSION('',#1195,#1199);
#1195 = B_SPLINE_CURVE_WITH_KNOTS('',2,(#1196,#1197,#1198),
  .UNSPECIFIED.,.F.,.F.,(3,3),(0.,1.),.PIECEWISE_BEZIER_KNOTS.);
#1196 = CARTESIAN_POINT('',(23.048152866242,2.409208356378,
    6.034484677879));
#1197 = CARTESIAN_POINT('',(23.048152866242,2.071545157554,
    5.106762663727));
#1198 = CARTESIAN_POINT('',(23.147515923567,1.945193767026,
    4.759615071335));
#1199 = VECTOR('',#1200,1.);
#1200 = DIRECTION('',(-0.,0.939692620786,-0.342020143326));
#1201 = ADVANCED_FACE('',(#1202),#1227,.F.);
#1202 = FACE_BOUND('',#1203,.F.);
#1203 = EDGE_LOOP('',(#1204,#1205,#1213,#1221));
#1204 = ORIENTED_EDGE('',*,*,#1181,.T.);
#1205 = ORIENTED_EDGE('',*,*,#1206,.T.);
#1206 = EDGE_CURVE('',#1174,#1207,#1209,.T.);
#1207 = VERTEX_POINT('',#1208);
#1208 = CARTESIAN_POINT('',(23.397707006369,1.02517447377,4.570926357782
    ));
#1209 = B_SPLINE_CURVE_WITH_KNOTS('',2,(#1210,#1211,#1212),
  .UNSPECIFIED.,.F.,.F.,(3,3),(0.,1.),.PIECEWISE_BEZIER_KNOTS.);
#1210 = CARTESIAN_POINT('',(23.147515923567,1.193439670397,
    5.033231185995));
#1211 = CARTESIAN_POINT('',(23.246878980892,1.067088279869,
    4.686083593603));
#1212 = CARTESIAN_POINT('',(23.397707006369,1.02517447377,4.570926357782
    ));
#1213 = ORIENTED_EDGE('',*,*,#1214,.F.);
#1214 = EDGE_CURVE('',#1215,#1207,#1217,.T.);
#1215 = VERTEX_POINT('',#1216);
#1216 = CARTESIAN_POINT('',(23.397707006369,1.776928570399,
    4.297310243121));
#1217 = LINE('',#1218,#1219);
#1218 = CARTESIAN_POINT('',(23.397707006369,1.776928570399,
    4.297310243121));
#1219 = VECTOR('',#1220,1.);
#1220 = DIRECTION('',(0.,-0.939692620786,0.342020143326));
#1221 = ORIENTED_EDGE('',*,*,#1222,.F.);
#1222 = EDGE_CURVE('',#1182,#1215,#1223,.T.);
#1223 = B_SPLINE_CURVE_WITH_KNOTS('',2,(#1224,#1225,#1226),
  .UNSPECIFIED.,.F.,.F.,(3,3),(0.,1.),.PIECEWISE_BEZIER_KNOTS.);
#1224 = CARTESIAN_POINT('',(23.147515923567,1.945193767026,
    4.759615071335));
#1225 = CARTESIAN_POINT('',(23.246878980892,1.818842376498,
    4.412467478942));
#1226 = CARTESIAN_POINT('',(23.397707006369,1.776928570399,
    4.297310243121));
#1227 = SURFACE_OF_LINEAR_EXTRUSION('',#1228,#1232);
#1228 = B_SPLINE_CURVE_WITH_KNOTS('',2,(#1229,#1230,#1231),
  .UNSPECIFIED.,.F.,.F.,(3,3),(0.,1.),.PIECEWISE_BEZIER_KNOTS.);
#1229 = CARTESIAN_POINT('',(23.147515923567,1.945193767026,
    4.759615071335));
#1230 = CARTESIAN_POINT('',(23.246878980892,1.818842376498,
    4.412467478942));
#1231 = CARTESIAN_POINT('',(23.397707006369,1.776928570399,
    4.297310243121));
#1232 = VECTOR('',#1233,1.);
#1233 = DIRECTION('',(-0.,0.939692620786,-0.342020143326));
#1234 = ADVANCED_FACE('',(#1235),#1260,.F.);
#1235 = FACE_BOUND('',#1236,.F.);
#1236 = EDGE_LOOP('',(#1237,#1238,#1246,#1254));
#1237 = ORIENTED_EDGE('',*,*,#1214,.T.);
#1238 = ORIENTED_EDGE('',*,*,#1239,.T.);
#1239 = EDGE_CURVE('',#1207,#1240,#1242,.T.);
#1240 = VERTEX_POINT('',#1241);
#1241 = CARTESIAN_POINT('',(23.743694267516,0.983347806561,
    4.456008534093));
#1242 = B_SPLINE_CURVE_WITH_KNOTS('',2,(#1243,#1244,#1245),
  .UNSPECIFIED.,.F.,.F.,(3,3),(0.,1.),.PIECEWISE_BEZIER_KNOTS.);
#1243 = CARTESIAN_POINT('',(23.397707006369,1.02517447377,4.570926357782
    ));
#1244 = CARTESIAN_POINT('',(23.548789808917,0.983347806561,
    4.456008534093));
#1245 = CARTESIAN_POINT('',(23.743694267516,0.983347806561,
    4.456008534093));
#1246 = ORIENTED_EDGE('',*,*,#1247,.F.);
#1247 = EDGE_CURVE('',#1248,#1240,#1250,.T.);
#1248 = VERTEX_POINT('',#1249);
#1249 = CARTESIAN_POINT('',(23.743694267516,1.735101903189,
    4.182392419433));
#1250 = LINE('',#1251,#1252);
#1251 = CARTESIAN_POINT('',(23.743694267516,1.735101903189,
    4.182392419433));
#1252 = VECTOR('',#1253,1.);
#1253 = DIRECTION('',(0.,-0.939692620786,0.342020143326));
#1254 = ORIENTED_EDGE('',*,*,#1255,.F.);
#1255 = EDGE_CURVE('',#1215,#1248,#1256,.T.);
#1256 = B_SPLINE_CURVE_WITH_KNOTS('',2,(#1257,#1258,#1259),
  .UNSPECIFIED.,.F.,.F.,(3,3),(0.,1.),.PIECEWISE_BEZIER_KNOTS.);
#1257 = CARTESIAN_POINT('',(23.397707006369,1.776928570399,
    4.297310243121));
#1258 = CARTESIAN_POINT('',(23.548789808917,1.735101903189,
    4.182392419433));
#1259 = CARTESIAN_POINT('',(23.743694267516,1.735101903189,
    4.182392419433));
#1260 = SURFACE_OF_LINEAR_EXTRUSION('',#1261,#1265);
#1261 = B_SPLINE_CURVE_WITH_KNOTS('',2,(#1262,#1263,#1264),
  .UNSPECIFIED.,.F.,.F.,(3,3),(0.,1.),.PIECEWISE_BEZIER_KNOTS.);
#1262 = CARTESIAN_POINT('',(23.397707006369,1.776928570399,
    4.297310243121));
#1263 = CARTESIAN_POINT('',(23.548789808917,1.735101903189,
    4.182392419433));
#1264 = CARTESIAN_POINT('',(23.743694267516,1.735101903189,
    4.182392419433));
#1265 = VECTOR('',#1266,1.);
#1266 = DIRECTION('',(-0.,0.939692620786,-0.342020143326));
#1267 = ADVANCED_FACE('',(#1268),#1293,.F.);
#1268 = FACE_BOUND('',#1269,.F.);
#1269 = EDGE_LOOP('',(#1270,#1271,#1279,#1287));
#1270 = ORIENTED_EDGE('',*,*,#1247,.T.);
#1271 = ORIENTED_EDGE('',*,*,#1272,.T.);
#1272 = EDGE_CURVE('',#1240,#1273,#1275,.T.);
#1273 = VERTEX_POINT('',#1274);
#1274 = CARTESIAN_POINT('',(24.091464968153,1.02587158489,4.572841654843
    ));
#1275 = B_SPLINE_CURVE_WITH_KNOTS('',2,(#1276,#1277,#1278),
  .UNSPECIFIED.,.F.,.F.,(3,3),(0.,1.),.PIECEWISE_BEZIER_KNOTS.);
#1276 = CARTESIAN_POINT('',(23.743694267516,0.983347806561,
    4.456008534093));
#1277 = CARTESIAN_POINT('',(23.938598726115,0.983347806561,
    4.456008534093));
#1278 = CARTESIAN_POINT('',(24.091464968153,1.02587158489,4.572841654843
    ));
#1279 = ORIENTED_EDGE('',*,*,#1280,.F.);
#1280 = EDGE_CURVE('',#1281,#1273,#1283,.T.);
#1281 = VERTEX_POINT('',#1282);
#1282 = CARTESIAN_POINT('',(24.091464968153,1.777625681519,
    4.299225540183));
#1283 = LINE('',#1284,#1285);
#1284 = CARTESIAN_POINT('',(24.091464968153,1.777625681519,
    4.299225540183));
#1285 = VECTOR('',#1286,1.);
#1286 = DIRECTION('',(0.,-0.939692620786,0.342020143326));
#1287 = ORIENTED_EDGE('',*,*,#1288,.F.);
#1288 = EDGE_CURVE('',#1248,#1281,#1289,.T.);
#1289 = B_SPLINE_CURVE_WITH_KNOTS('',2,(#1290,#1291,#1292),
  .UNSPECIFIED.,.F.,.F.,(3,3),(0.,1.),.PIECEWISE_BEZIER_KNOTS.);
#1290 = CARTESIAN_POINT('',(23.743694267516,1.735101903189,
    4.182392419433));
#1291 = CARTESIAN_POINT('',(23.938598726115,1.735101903189,
    4.182392419433));
#1292 = CARTESIAN_POINT('',(24.091464968153,1.777625681519,
    4.299225540183));
#1293 = SURFACE_OF_LINEAR_EXTRUSION('',#1294,#1298);
#1294 = B_SPLINE_CURVE_WITH_KNOTS('',2,(#1295,#1296,#1297),
  .UNSPECIFIED.,.F.,.F.,(3,3),(0.,1.),.PIECEWISE_BEZIER_KNOTS.);
#1295 = CARTESIAN_POINT('',(23.743694267516,1.735101903189,
    4.182392419433));
#1296 = CARTESIAN_POINT('',(23.938598726115,1.735101903189,
    4.182392419433));
#1297 = CARTESIAN_POINT('',(24.091464968153,1.777625681519,
    4.299225540183));
#1298 = VECTOR('',#1299,1.);
#1299 = DIRECTION('',(-0.,0.939692620786,-0.342020143326));
#1300 = ADVANCED_FACE('',(#1301),#1326,.F.);
#1301 = FACE_BOUND('',#1302,.F.);
#1302 = EDGE_LOOP('',(#1303,#1304,#1312,#1320));
#1303 = ORIENTED_EDGE('',*,*,#1280,.T.);
#1304 = ORIENTED_EDGE('',*,*,#1305,.T.);
#1305 = EDGE_CURVE('',#1273,#1306,#1308,.T.);
#1306 = VERTEX_POINT('',#1307);
#1307 = CARTESIAN_POINT('',(24.328407643312,1.178364642424,
    4.991812887041));
#1308 = B_SPLINE_CURVE_WITH_KNOTS('',2,(#1309,#1310,#1311),
  .UNSPECIFIED.,.F.,.F.,(3,3),(0.,1.),.PIECEWISE_BEZIER_KNOTS.);
#1309 = CARTESIAN_POINT('',(24.091464968153,1.02587158489,4.572841654843
    ));
#1310 = CARTESIAN_POINT('',(24.244331210191,1.068395363219,
    4.689674775593));
#1311 = CARTESIAN_POINT('',(24.328407643312,1.178364642424,
    4.991812887041));
#1312 = ORIENTED_EDGE('',*,*,#1313,.F.);
#1313 = EDGE_CURVE('',#1314,#1306,#1316,.T.);
#1314 = VERTEX_POINT('',#1315);
#1315 = CARTESIAN_POINT('',(24.328407643312,1.930118739052,4.71819677238
    ));
#1316 = LINE('',#1317,#1318);
#1317 = CARTESIAN_POINT('',(24.328407643312,1.930118739052,4.71819677238
    ));
#1318 = VECTOR('',#1319,1.);
#1319 = DIRECTION('',(0.,-0.939692620786,0.342020143326));
#1320 = ORIENTED_EDGE('',*,*,#1321,.F.);
#1321 = EDGE_CURVE('',#1281,#1314,#1322,.T.);
#1322 = B_SPLINE_CURVE_WITH_KNOTS('',2,(#1323,#1324,#1325),
  .UNSPECIFIED.,.F.,.F.,(3,3),(0.,1.),.PIECEWISE_BEZIER_KNOTS.);
#1323 = CARTESIAN_POINT('',(24.091464968153,1.777625681519,
    4.299225540183));
#1324 = CARTESIAN_POINT('',(24.244331210191,1.820149459848,
    4.416058660933));
#1325 = CARTESIAN_POINT('',(24.328407643312,1.930118739052,4.71819677238
    ));
#1326 = SURFACE_OF_LINEAR_EXTRUSION('',#1327,#1331);
#1327 = B_SPLINE_CURVE_WITH_KNOTS('',2,(#1328,#1329,#1330),
  .UNSPECIFIED.,.F.,.F.,(3,3),(0.,1.),.PIECEWISE_BEZIER_KNOTS.);
#1328 = CARTESIAN_POINT('',(24.091464968153,1.777625681519,
    4.299225540183));
#1329 = CARTESIAN_POINT('',(24.244331210191,1.820149459848,
    4.416058660933));
#1330 = CARTESIAN_POINT('',(24.328407643312,1.930118739052,4.71819677238
    ));
#1331 = VECTOR('',#1332,1.);
#1332 = DIRECTION('',(-0.,0.939692620786,-0.342020143326));
#1333 = ADVANCED_FACE('',(#1334),#1359,.F.);
#1334 = FACE_BOUND('',#1335,.F.);
#1335 = EDGE_LOOP('',(#1336,#1337,#1345,#1353));
#1336 = ORIENTED_EDGE('',*,*,#1313,.T.);
#1337 = ORIENTED_EDGE('',*,*,#1338,.T.);
#1338 = EDGE_CURVE('',#1306,#1339,#1341,.T.);
#1339 = VERTEX_POINT('',#1340);
#1340 = CARTESIAN_POINT('',(24.43923566879,1.65745425975,6.308100792539)
  );
#1341 = B_SPLINE_CURVE_WITH_KNOTS('',2,(#1342,#1343,#1344),
  .UNSPECIFIED.,.F.,.F.,(3,3),(0.,1.),.PIECEWISE_BEZIER_KNOTS.);
#1342 = CARTESIAN_POINT('',(24.328407643312,1.178364642424,
    4.991812887041));
#1343 = CARTESIAN_POINT('',(24.43923566879,1.319791060925,5.380378778388
    ));
#1344 = CARTESIAN_POINT('',(24.43923566879,1.65745425975,6.308100792539)
  );
#1345 = ORIENTED_EDGE('',*,*,#1346,.F.);
#1346 = EDGE_CURVE('',#1347,#1339,#1349,.T.);
#1347 = VERTEX_POINT('',#1348);
#1348 = CARTESIAN_POINT('',(24.43923566879,2.409208356378,6.034484677879
    ));
#1349 = LINE('',#1350,#1351);
#1350 = CARTESIAN_POINT('',(24.43923566879,2.409208356378,6.034484677879
    ));
#1351 = VECTOR('',#1352,1.);
#1352 = DIRECTION('',(0.,-0.939692620786,0.342020143326));
#1353 = ORIENTED_EDGE('',*,*,#1354,.F.);
#1354 = EDGE_CURVE('',#1314,#1347,#1355,.T.);
#1355 = B_SPLINE_CURVE_WITH_KNOTS('',2,(#1356,#1357,#1358),
  .UNSPECIFIED.,.F.,.F.,(3,3),(0.,1.),.PIECEWISE_BEZIER_KNOTS.);
#1356 = CARTESIAN_POINT('',(24.328407643312,1.930118739052,4.71819677238
    ));
#1357 = CARTESIAN_POINT('',(24.43923566879,2.071545157554,5.106762663727
    ));
#1358 = CARTESIAN_POINT('',(24.43923566879,2.409208356378,6.034484677879
    ));
#1359 = SURFACE_OF_LINEAR_EXTRUSION('',#1360,#1364);
#1360 = B_SPLINE_CURVE_WITH_KNOTS('',2,(#1361,#1362,#1363),
  .UNSPECIFIED.,.F.,.F.,(3,3),(0.,1.),.PIECEWISE_BEZIER_KNOTS.);
#1361 = CARTESIAN_POINT('',(24.328407643312,1.930118739052,4.71819677238
    ));
#1362 = CARTESIAN_POINT('',(24.43923566879,2.071545157554,5.106762663727
    ));
#1363 = CARTESIAN_POINT('',(24.43923566879,2.409208356378,6.034484677879
    ));
#1364 = VECTOR('',#1365,1.);
#1365 = DIRECTION('',(-0.,0.939692620786,-0.342020143326));
#1366 = ADVANCED_FACE('',(#1367),#1392,.F.);
#1367 = FACE_BOUND('',#1368,.F.);
#1368 = EDGE_LOOP('',(#1369,#1370,#1378,#1386));
#1369 = ORIENTED_EDGE('',*,*,#1346,.T.);
#1370 = ORIENTED_EDGE('',*,*,#1371,.T.);
#1371 = EDGE_CURVE('',#1339,#1372,#1374,.T.);
#1372 = VERTEX_POINT('',#1373);
#1373 = CARTESIAN_POINT('',(24.339872611465,2.121555987992,
    7.583209811216));
#1374 = B_SPLINE_CURVE_WITH_KNOTS('',2,(#1375,#1376,#1377),
  .UNSPECIFIED.,.F.,.F.,(3,3),(0.,1.),.PIECEWISE_BEZIER_KNOTS.);
#1375 = CARTESIAN_POINT('',(24.43923566879,1.65745425975,6.308100792539)
  );
#1376 = CARTESIAN_POINT('',(24.43923566879,1.995204597464,7.236062218824
    ));
#1377 = CARTESIAN_POINT('',(24.339872611465,2.121555987992,
    7.583209811216));
#1378 = ORIENTED_EDGE('',*,*,#1379,.F.);
#1379 = EDGE_CURVE('',#1380,#1372,#1382,.T.);
#1380 = VERTEX_POINT('',#1381);
#1381 = CARTESIAN_POINT('',(24.339872611465,2.873310084621,
    7.309593696555));
#1382 = LINE('',#1383,#1384);
#1383 = CARTESIAN_POINT('',(24.339872611465,2.873310084621,
    7.309593696555));
#1384 = VECTOR('',#1385,1.);
#1385 = DIRECTION('',(0.,-0.939692620786,0.342020143326));
#1386 = ORIENTED_EDGE('',*,*,#1387,.F.);
#1387 = EDGE_CURVE('',#1347,#1380,#1388,.T.);
#1388 = B_SPLINE_CURVE_WITH_KNOTS('',2,(#1389,#1390,#1391),
  .UNSPECIFIED.,.F.,.F.,(3,3),(0.,1.),.PIECEWISE_BEZIER_KNOTS.);
#1389 = CARTESIAN_POINT('',(24.43923566879,2.409208356378,6.034484677879
    ));
#1390 = CARTESIAN_POINT('',(24.43923566879,2.746958694093,6.962446104163
    ));
#1391 = CARTESIAN_POINT('',(24.339872611465,2.873310084621,
    7.309593696555));
#1392 = SURFACE_OF_LINEAR_EXTRUSION('',#1393,#1397);
#1393 = B_SPLINE_CURVE_WITH_KNOTS('',2,(#1394,#1395,#1396),
  .UNSPECIFIED.,.F.,.F.,(3,3),(0.,1.),.PIECEWISE_BEZIER_KNOTS.);
#1394 = CARTESIAN_POINT('',(24.43923566879,2.409208356378,6.034484677879
    ));
#1395 = CARTESIAN_POINT('',(24.43923566879,2.746958694093,6.962446104163
    ));
#1396 = CARTESIAN_POINT('',(24.339872611465,2.873310084621,
    7.309593696555));
#1397 = VECTOR('',#1398,1.);
#1398 = DIRECTION('',(-0.,0.939692620786,-0.342020143326));
#1399 = ADVANCED_FACE('',(#1400),#1425,.F.);
#1400 = FACE_BOUND('',#1401,.F.);
#1401 = EDGE_LOOP('',(#1402,#1403,#1411,#1419));
#1402 = ORIENTED_EDGE('',*,*,#1379,.T.);
#1403 = ORIENTED_EDGE('',*,*,#1404,.T.);
#1404 = EDGE_CURVE('',#1372,#1405,#1407,.T.);
#1405 = VERTEX_POINT('',#1406);
#1406 = CARTESIAN_POINT('',(24.089426751592,2.29043115685,8.047190524358
    ));
#1407 = B_SPLINE_CURVE_WITH_KNOTS('',2,(#1408,#1409,#1410),
  .UNSPECIFIED.,.F.,.F.,(3,3),(0.,1.),.PIECEWISE_BEZIER_KNOTS.);
#1408 = CARTESIAN_POINT('',(24.339872611465,2.121555987992,
    7.583209811216));
#1409 = CARTESIAN_POINT('',(24.24050955414,2.24790737852,7.930357403608)
  );
#1410 = CARTESIAN_POINT('',(24.089426751592,2.29043115685,8.047190524358
    ));
#1411 = ORIENTED_EDGE('',*,*,#1412,.F.);
#1412 = EDGE_CURVE('',#1413,#1405,#1415,.T.);
#1413 = VERTEX_POINT('',#1414);
#1414 = CARTESIAN_POINT('',(24.089426751592,3.042185253479,
    7.773574409697));
#1415 = LINE('',#1416,#1417);
#1416 = CARTESIAN_POINT('',(24.089426751592,3.042185253479,
    7.773574409697));
#1417 = VECTOR('',#1418,1.);
#1418 = DIRECTION('',(0.,-0.939692620786,0.342020143326));
#1419 = ORIENTED_EDGE('',*,*,#1420,.F.);
#1420 = EDGE_CURVE('',#1380,#1413,#1421,.T.);
#1421 = B_SPLINE_CURVE_WITH_KNOTS('',2,(#1422,#1423,#1424),
  .UNSPECIFIED.,.F.,.F.,(3,3),(0.,1.),.PIECEWISE_BEZIER_KNOTS.);
#1422 = CARTESIAN_POINT('',(24.339872611465,2.873310084621,
    7.309593696555));
#1423 = CARTESIAN_POINT('',(24.24050955414,2.999661475149,7.656741288948
    ));
#1424 = CARTESIAN_POINT('',(24.089426751592,3.042185253479,
    7.773574409697));
#1425 = SURFACE_OF_LINEAR_EXTRUSION('',#1426,#1430);
#1426 = B_SPLINE_CURVE_WITH_KNOTS('',2,(#1427,#1428,#1429),
  .UNSPECIFIED.,.F.,.F.,(3,3),(0.,1.),.PIECEWISE_BEZIER_KNOTS.);
#1427 = CARTESIAN_POINT('',(24.339872611465,2.873310084621,
    7.309593696555));
#1428 = CARTESIAN_POINT('',(24.24050955414,2.999661475149,7.656741288948
    ));
#1429 = CARTESIAN_POINT('',(24.089426751592,3.042185253479,
    7.773574409697));
#1430 = VECTOR('',#1431,1.);
#1431 = DIRECTION('',(-0.,0.939692620786,-0.342020143326));
#1432 = ADVANCED_FACE('',(#1433),#1449,.F.);
#1433 = FACE_BOUND('',#1434,.F.);
#1434 = EDGE_LOOP('',(#1435,#1436,#1442,#1443));
#1435 = ORIENTED_EDGE('',*,*,#1412,.T.);
#1436 = ORIENTED_EDGE('',*,*,#1437,.T.);
#1437 = EDGE_CURVE('',#1405,#1067,#1438,.T.);
#1438 = B_SPLINE_CURVE_WITH_KNOTS('',2,(#1439,#1440,#1441),
  .UNSPECIFIED.,.F.,.F.,(3,3),(0.,1.),.PIECEWISE_BEZIER_KNOTS.);
#1439 = CARTESIAN_POINT('',(24.089426751592,2.29043115685,8.047190524358
    ));
#1440 = CARTESIAN_POINT('',(23.938598726115,2.332954935179,
    8.164023645108));
#1441 = CARTESIAN_POINT('',(23.743694267516,2.332954935179,
    8.164023645108));
#1442 = ORIENTED_EDGE('',*,*,#1064,.F.);
#1443 = ORIENTED_EDGE('',*,*,#1444,.F.);
#1444 = EDGE_CURVE('',#1413,#1065,#1445,.T.);
#1445 = B_SPLINE_CURVE_WITH_KNOTS('',2,(#1446,#1447,#1448),
  .UNSPECIFIED.,.F.,.F.,(3,3),(0.,1.),.PIECEWISE_BEZIER_KNOTS.);
#1446 = CARTESIAN_POINT('',(24.089426751592,3.042185253479,
    7.773574409697));
#1447 = CARTESIAN_POINT('',(23.938598726115,3.084709031808,
    7.890407530447));
#1448 = CARTESIAN_POINT('',(23.743694267516,3.084709031808,
    7.890407530447));
#1449 = SURFACE_OF_LINEAR_EXTRUSION('',#1450,#1454);
#1450 = B_SPLINE_CURVE_WITH_KNOTS('',2,(#1451,#1452,#1453),
  .UNSPECIFIED.,.F.,.F.,(3,3),(0.,1.),.PIECEWISE_BEZIER_KNOTS.);
#1451 = CARTESIAN_POINT('',(24.089426751592,3.042185253479,
    7.773574409697));
#1452 = CARTESIAN_POINT('',(23.938598726115,3.084709031808,
    7.890407530447));
#1453 = CARTESIAN_POINT('',(23.743694267516,3.084709031808,
    7.890407530447));
#1454 = VECTOR('',#1455,1.);
#1455 = DIRECTION('',(-0.,0.939692620786,-0.342020143326));
#1456 = ADVANCED_FACE('',(#1457),#1471,.T.);
#1457 = FACE_BOUND('',#1458,.F.);
#1458 = EDGE_LOOP('',(#1459,#1460,#1461,#1462,#1463,#1464,#1465,#1466,
    #1467,#1468,#1469,#1470));
#1459 = ORIENTED_EDGE('',*,*,#1090,.T.);
#1460 = ORIENTED_EDGE('',*,*,#1123,.T.);
#1461 = ORIENTED_EDGE('',*,*,#1156,.T.);
#1462 = ORIENTED_EDGE('',*,*,#1189,.T.);
#1463 = ORIENTED_EDGE('',*,*,#1222,.T.);
#1464 = ORIENTED_EDGE('',*,*,#1255,.T.);
#1465 = ORIENTED_EDGE('',*,*,#1288,.T.);
#1466 = ORIENTED_EDGE('',*,*,#1321,.T.);
#1467 = ORIENTED_EDGE('',*,*,#1354,.T.);
#1468 = ORIENTED_EDGE('',*,*,#1387,.T.);
#1469 = ORIENTED_EDGE('',*,*,#1420,.T.);
#1470 = ORIENTED_EDGE('',*,*,#1444,.T.);
#1471 = PLANE('',#1472);
#1472 = AXIS2_PLACEMENT_3D('',#1473,#1474,#1475);
#1473 = CARTESIAN_POINT('',(23.74351782137,2.409777689514,6.036048907813
    ));
#1474 = DIRECTION('',(-0.,0.939692620786,-0.342020143326));
#1475 = DIRECTION('',(-1.,0.,0.));
#1476 = ADVANCED_FACE('',(#1477),#1491,.F.);
#1477 = FACE_BOUND('',#1478,.T.);
#1478 = EDGE_LOOP('',(#1479,#1480,#1481,#1482,#1483,#1484,#1485,#1486,
    #1487,#1488,#1489,#1490));
#1479 = ORIENTED_EDGE('',*,*,#1074,.T.);
#1480 = ORIENTED_EDGE('',*,*,#1107,.T.);
#1481 = ORIENTED_EDGE('',*,*,#1140,.T.);
#1482 = ORIENTED_EDGE('',*,*,#1173,.T.);
#1483 = ORIENTED_EDGE('',*,*,#1206,.T.);
#1484 = ORIENTED_EDGE('',*,*,#1239,.T.);
#1485 = ORIENTED_EDGE('',*,*,#1272,.T.);
#1486 = ORIENTED_EDGE('',*,*,#1305,.T.);
#1487 = ORIENTED_EDGE('',*,*,#1338,.T.);
#1488 = ORIENTED_EDGE('',*,*,#1371,.T.);
#1489 = ORIENTED_EDGE('',*,*,#1404,.T.);
#1490 = ORIENTED_EDGE('',*,*,#1437,.T.);
#1491 = PLANE('',#1492);
#1492 = AXIS2_PLACEMENT_3D('',#1493,#1494,#1495);
#1493 = CARTESIAN_POINT('',(23.74351782137,1.658023592885,6.309665022473
    ));
#1494 = DIRECTION('',(-0.,0.939692620786,-0.342020143326));
#1495 = DIRECTION('',(-1.,0.,0.));
#1496 = ( GEOMETRIC_REPRESENTATION_CONTEXT(3) 
GLOBAL_UNCERTAINTY_ASSIGNED_CONTEXT((#1500)) 
GLOBAL_UNIT_ASSIGNED_CONTEXT((#1497,#1498,#1499)) REPRESENTATION_CONTEXT
('Context #1','3D Context with UNIT and UNCERTAINTY') );
#1497 = ( LENGTH_UNIT() NAMED_UNIT(*) SI_UNIT(.MILLI.,.METRE.) );
#1498 = ( NAMED_UNIT(*) PLANE_ANGLE_UNIT() SI_UNIT($,.RADIAN.) );
#1499 = ( NAMED_UNIT(*) SI_UNIT($,.STERADIAN.) SOLID_ANGLE_UNIT() );
#1500 = UNCERTAINTY_MEASURE_WITH_UNIT(LENGTH_MEASURE(1.E-07),#1497,
  'distance_accuracy_value','confusion accuracy');
#1501 = PRODUCT_RELATED_PRODUCT_CATEGORY('part',$,(#7));
ENDSEC;
END-ISO-10303-21;
