ISO-10303-21;
HEADER;
FILE_DESCRIPTION(('FreeCAD Model'),'2;1');
FILE_NAME('Open CASCADE Shape Model','2026-08-31T21:38:37',('FreeCAD'),(
    'FreeCAD'),'Open CASCADE STEP processor 7.8','FreeCAD','Unknown');
FILE_SCHEMA(('AUTOMOTIVE_DESIGN { 1 0 10303 214 1 1 1 1 }'));
ENDSEC;
DATA;
#1 = APPLICATION_PROTOCOL_DEFINITION('international standard',
  'automotive_design',2000,#2);
#2 = APPLICATION_CONTEXT(
  'core data for automotive mechanical design processes');
#3 = SHAPE_DEFINITION_REPRESENTATION(#4,#10);
#4 = PRODUCT_DEFINITION_SHAPE('','',#5);
#5 = PRODUCT_DEFINITION('design','',#6,#9);
#6 = PRODUCT_DEFINITION_FORMATION('','',#7);
#7 = PRODUCT('Open CASCADE STEP translator 7.8 79',
  'Open CASCADE STEP translator 7.8 79','',(#8));
#8 = PRODUCT_CONTEXT('',#2,'mechanical');
#9 = PRODUCT_DEFINITION_CONTEXT('part definition',#2,'design');
#10 = SHAPE_REPRESENTATION('',(#11,#15,#303,#684),#801);
#11 = AXIS2_PLACEMENT_3D('',#12,#13,#14);
#12 = CARTESIAN_POINT('',(0.,0.,0.));
#13 = DIRECTION('',(0.,0.,1.));
#14 = DIRECTION('',(1.,0.,-0.));
#15 = MANIFOLD_SOLID_BREP('',#16);
#16 = CLOSED_SHELL('',(#17,#57,#88,#121,#152,#185,#218,#249,#271,#287));
#17 = ADVANCED_FACE('',(#18),#52,.T.);
#18 = FACE_BOUND('',#19,.T.);
#19 = EDGE_LOOP('',(#20,#30,#38,#46));
#20 = ORIENTED_EDGE('',*,*,#21,.T.);
#21 = EDGE_CURVE('',#22,#24,#26,.T.);
#22 = VERTEX_POINT('',#23);
#23 = CARTESIAN_POINT('',(20.007261146497,1.461834344089,3.431595971335)
  );
#24 = VERTEX_POINT('',#25);
#25 = CARTESIAN_POINT('',(20.007261146497,0.71008024746,3.705212085995)
  );
#26 = LINE('',#27,#28);
#27 = CARTESIAN_POINT('',(20.007261146497,1.461834344089,3.431595971335)
  );
#28 = VECTOR('',#29,1.);
#29 = DIRECTION('',(0.,-0.939692620786,0.342020143326));
#30 = ORIENTED_EDGE('',*,*,#31,.T.);
#31 = EDGE_CURVE('',#24,#32,#34,.T.);
#32 = VERTEX_POINT('',#33);
#33 = CARTESIAN_POINT('',(18.933375796178,0.71008024746,3.705212085995)
  );
#34 = LINE('',#35,#36);
#35 = CARTESIAN_POINT('',(20.007261146497,0.71008024746,3.705212085995)
  );
#36 = VECTOR('',#37,1.);
#37 = DIRECTION('',(-1.,0.,0.));
#38 = ORIENTED_EDGE('',*,*,#39,.F.);
#39 = EDGE_CURVE('',#40,#32,#42,.T.);
#40 = VERTEX_POINT('',#41);
#41 = CARTESIAN_POINT('',(18.933375796178,1.461834344089,3.431595971335)
  );
#42 = LINE('',#43,#44);
#43 = CARTESIAN_POINT('',(18.933375796178,1.461834344089,3.431595971335)
  );
#44 = VECTOR('',#45,1.);
#45 = DIRECTION('',(0.,-0.939692620786,0.342020143326));
#46 = ORIENTED_EDGE('',*,*,#47,.F.);
#47 = EDGE_CURVE('',#22,#40,#48,.T.);
#48 = LINE('',#49,#50);
#49 = CARTESIAN_POINT('',(20.007261146497,1.461834344089,3.431595971335)
  );
#50 = VECTOR('',#51,1.);
#51 = DIRECTION('',(-1.,0.,0.));
#52 = PLANE('',#53);
#53 = AXIS2_PLACEMENT_3D('',#54,#55,#56);
#54 = CARTESIAN_POINT('',(20.007261146497,1.461834344089,3.431595971335)
  );
#55 = DIRECTION('',(0.,-0.342020143326,-0.939692620786));
#56 = DIRECTION('',(-1.,0.,0.));
#57 = ADVANCED_FACE('',(#58),#83,.T.);
#58 = FACE_BOUND('',#59,.T.);
#59 = EDGE_LOOP('',(#60,#61,#69,#77));
#60 = ORIENTED_EDGE('',*,*,#39,.T.);
#61 = ORIENTED_EDGE('',*,*,#62,.T.);
#62 = EDGE_CURVE('',#32,#63,#65,.T.);
#63 = VERTEX_POINT('',#64);
#64 = CARTESIAN_POINT('',(18.933375796178,2.099422709928,7.522399129514)
  );
#65 = LINE('',#66,#67);
#66 = CARTESIAN_POINT('',(18.933375796178,0.71008024746,3.705212085995)
  );
#67 = VECTOR('',#68,1.);
#68 = DIRECTION('',(0.,0.342020143326,0.939692620786));
#69 = ORIENTED_EDGE('',*,*,#70,.F.);
#70 = EDGE_CURVE('',#71,#63,#73,.T.);
#71 = VERTEX_POINT('',#72);
#72 = CARTESIAN_POINT('',(18.933375796178,2.851176806556,7.248783014853)
  );
#73 = LINE('',#74,#75);
#74 = CARTESIAN_POINT('',(18.933375796178,2.851176806556,7.248783014853)
  );
#75 = VECTOR('',#76,1.);
#76 = DIRECTION('',(0.,-0.939692620786,0.342020143326));
#77 = ORIENTED_EDGE('',*,*,#78,.F.);
#78 = EDGE_CURVE('',#40,#71,#79,.T.);
#79 = LINE('',#80,#81);
#80 = CARTESIAN_POINT('',(18.933375796178,1.461834344089,3.431595971335)
  );
#81 = VECTOR('',#82,1.);
#82 = DIRECTION('',(0.,0.342020143326,0.939692620786));
#83 = PLANE('',#84);
#84 = AXIS2_PLACEMENT_3D('',#85,#86,#87);
#85 = CARTESIAN_POINT('',(18.933375796178,1.461834344089,3.431595971335)
  );
#86 = DIRECTION('',(-1.,0.,0.));
#87 = DIRECTION('',(0.,0.342020143326,0.939692620786));
#88 = ADVANCED_FACE('',(#89),#114,.T.);
#89 = FACE_BOUND('',#90,.T.);
#90 = EDGE_LOOP('',(#91,#92,#100,#108));
#91 = ORIENTED_EDGE('',*,*,#70,.T.);
#92 = ORIENTED_EDGE('',*,*,#93,.T.);
#93 = EDGE_CURVE('',#63,#94,#96,.T.);
#94 = VERTEX_POINT('',#95);
#95 = CARTESIAN_POINT('',(17.546114649682,1.819881150746,6.754365007863)
  );
#96 = B_SPLINE_CURVE_WITH_KNOTS('',2,(#97,#98,#99),.UNSPECIFIED.,.F.,.F.
  ,(3,3),(0.,1.),.PIECEWISE_BEZIER_KNOTS.);
#97 = CARTESIAN_POINT('',(18.933375796178,2.099422709928,7.522399129514)
  );
#98 = CARTESIAN_POINT('',(18.344840764331,1.910418457476,7.003114213722)
  );
#99 = CARTESIAN_POINT('',(17.546114649682,1.819881150746,6.754365007863)
  );
#100 = ORIENTED_EDGE('',*,*,#101,.F.);
#101 = EDGE_CURVE('',#102,#94,#104,.T.);
#102 = VERTEX_POINT('',#103);
#103 = CARTESIAN_POINT('',(17.546114649682,2.571635247374,6.480748893202
    ));
#104 = LINE('',#105,#106);
#105 = CARTESIAN_POINT('',(17.546114649682,2.571635247374,6.480748893202
    ));
#106 = VECTOR('',#107,1.);
#107 = DIRECTION('',(0.,-0.939692620786,0.342020143326));
#108 = ORIENTED_EDGE('',*,*,#109,.F.);
#109 = EDGE_CURVE('',#71,#102,#110,.T.);
#110 = B_SPLINE_CURVE_WITH_KNOTS('',2,(#111,#112,#113),.UNSPECIFIED.,.F.
  ,.F.,(3,3),(0.,1.),.PIECEWISE_BEZIER_KNOTS.);
#111 = CARTESIAN_POINT('',(18.933375796178,2.851176806556,7.248783014853
    ));
#112 = CARTESIAN_POINT('',(18.344840764331,2.662172554104,6.729498099061
    ));
#113 = CARTESIAN_POINT('',(17.546114649682,2.571635247374,6.480748893202
    ));
#114 = SURFACE_OF_LINEAR_EXTRUSION('',#115,#119);
#115 = B_SPLINE_CURVE_WITH_KNOTS('',2,(#116,#117,#118),.UNSPECIFIED.,.F.
  ,.F.,(3,3),(0.,1.),.PIECEWISE_BEZIER_KNOTS.);
#116 = CARTESIAN_POINT('',(18.933375796178,2.851176806556,7.248783014853
    ));
#117 = CARTESIAN_POINT('',(18.344840764331,2.662172554104,6.729498099061
    ));
#118 = CARTESIAN_POINT('',(17.546114649682,2.571635247374,6.480748893202
    ));
#119 = VECTOR('',#120,1.);
#120 = DIRECTION('',(-0.,0.939692620786,-0.342020143326));
#121 = ADVANCED_FACE('',(#122),#147,.T.);
#122 = FACE_BOUND('',#123,.T.);
#123 = EDGE_LOOP('',(#124,#125,#133,#141));
#124 = ORIENTED_EDGE('',*,*,#101,.T.);
#125 = ORIENTED_EDGE('',*,*,#126,.T.);
#126 = EDGE_CURVE('',#94,#127,#129,.T.);
#127 = VERTEX_POINT('',#128);
#128 = CARTESIAN_POINT('',(17.546114649682,2.15449448842,7.67370759737)
  );
#129 = LINE('',#130,#131);
#130 = CARTESIAN_POINT('',(17.546114649682,1.819881150746,6.754365007863
    ));
#131 = VECTOR('',#132,1.);
#132 = DIRECTION('',(0.,0.342020143326,0.939692620786));
#133 = ORIENTED_EDGE('',*,*,#134,.F.);
#134 = EDGE_CURVE('',#135,#127,#137,.T.);
#135 = VERTEX_POINT('',#136);
#136 = CARTESIAN_POINT('',(17.546114649682,2.906248585048,7.40009148271)
  );
#137 = LINE('',#138,#139);
#138 = CARTESIAN_POINT('',(17.546114649682,2.906248585048,7.40009148271)
  );
#139 = VECTOR('',#140,1.);
#140 = DIRECTION('',(0.,-0.939692620786,0.342020143326));
#141 = ORIENTED_EDGE('',*,*,#142,.F.);
#142 = EDGE_CURVE('',#102,#135,#143,.T.);
#143 = LINE('',#144,#145);
#144 = CARTESIAN_POINT('',(17.546114649682,2.571635247374,6.480748893202
    ));
#145 = VECTOR('',#146,1.);
#146 = DIRECTION('',(0.,0.342020143326,0.939692620786));
#147 = PLANE('',#148);
#148 = AXIS2_PLACEMENT_3D('',#149,#150,#151);
#149 = CARTESIAN_POINT('',(17.546114649682,2.571635247374,6.480748893202
    ));
#150 = DIRECTION('',(-1.,0.,0.));
#151 = DIRECTION('',(0.,0.342020143326,0.939692620786));
#152 = ADVANCED_FACE('',(#153),#178,.T.);
#153 = FACE_BOUND('',#154,.T.);
#154 = EDGE_LOOP('',(#155,#156,#164,#172));
#155 = ORIENTED_EDGE('',*,*,#134,.T.);
#156 = ORIENTED_EDGE('',*,*,#157,.T.);
#157 = EDGE_CURVE('',#127,#158,#160,.T.);
#158 = VERTEX_POINT('',#159);
#159 = CARTESIAN_POINT('',(18.45949044586,2.332954935179,8.164023645108)
  );
#160 = B_SPLINE_CURVE_WITH_KNOTS('',2,(#161,#162,#163),.UNSPECIFIED.,.F.
  ,.F.,(3,3),(0.,1.),.PIECEWISE_BEZIER_KNOTS.);
#161 = CARTESIAN_POINT('',(17.546114649682,2.15449448842,7.67370759737)
  );
#162 = CARTESIAN_POINT('',(17.966496815287,2.20154948903,7.80299014902)
  );
#163 = CARTESIAN_POINT('',(18.45949044586,2.332954935179,8.164023645108)
  );
#164 = ORIENTED_EDGE('',*,*,#165,.F.);
#165 = EDGE_CURVE('',#166,#158,#168,.T.);
#166 = VERTEX_POINT('',#167);
#167 = CARTESIAN_POINT('',(18.45949044586,3.084709031808,7.890407530447)
  );
#168 = LINE('',#169,#170);
#169 = CARTESIAN_POINT('',(18.45949044586,3.084709031808,7.890407530447)
  );
#170 = VECTOR('',#171,1.);
#171 = DIRECTION('',(0.,-0.939692620786,0.342020143326));
#172 = ORIENTED_EDGE('',*,*,#173,.F.);
#173 = EDGE_CURVE('',#135,#166,#174,.T.);
#174 = B_SPLINE_CURVE_WITH_KNOTS('',2,(#175,#176,#177),.UNSPECIFIED.,.F.
  ,.F.,(3,3),(0.,1.),.PIECEWISE_BEZIER_KNOTS.);
#175 = CARTESIAN_POINT('',(17.546114649682,2.906248585048,7.40009148271)
  );
#176 = CARTESIAN_POINT('',(17.966496815287,2.953303585659,7.529374034359
    ));
#177 = CARTESIAN_POINT('',(18.45949044586,3.084709031808,7.890407530447)
  );
#178 = SURFACE_OF_LINEAR_EXTRUSION('',#179,#183);
#179 = B_SPLINE_CURVE_WITH_KNOTS('',2,(#180,#181,#182),.UNSPECIFIED.,.F.
  ,.F.,(3,3),(0.,1.),.PIECEWISE_BEZIER_KNOTS.);
#180 = CARTESIAN_POINT('',(17.546114649682,2.906248585048,7.40009148271)
  );
#181 = CARTESIAN_POINT('',(17.966496815287,2.953303585659,7.529374034359
    ));
#182 = CARTESIAN_POINT('',(18.45949044586,3.084709031808,7.890407530447)
  );
#183 = VECTOR('',#184,1.);
#184 = DIRECTION('',(-0.,0.939692620786,-0.342020143326));
#185 = ADVANCED_FACE('',(#186),#211,.T.);
#186 = FACE_BOUND('',#187,.T.);
#187 = EDGE_LOOP('',(#188,#189,#197,#205));
#188 = ORIENTED_EDGE('',*,*,#165,.T.);
#189 = ORIENTED_EDGE('',*,*,#190,.T.);
#190 = EDGE_CURVE('',#158,#191,#193,.T.);
#191 = VERTEX_POINT('',#192);
#192 = CARTESIAN_POINT('',(19.135923566879,2.639683828047,9.006754352157
    ));
#193 = B_SPLINE_CURVE_WITH_KNOTS('',2,(#194,#195,#196),.UNSPECIFIED.,.F.
  ,.F.,(3,3),(0.,1.),.PIECEWISE_BEZIER_KNOTS.);
#194 = CARTESIAN_POINT('',(18.45949044586,2.332954935179,8.164023645108)
  );
#195 = CARTESIAN_POINT('',(18.952484076433,2.464447520218,8.525296553329
    ));
#196 = CARTESIAN_POINT('',(19.135923566879,2.639683828047,9.006754352157
    ));
#197 = ORIENTED_EDGE('',*,*,#198,.F.);
#198 = EDGE_CURVE('',#199,#191,#201,.T.);
#199 = VERTEX_POINT('',#200);
#200 = CARTESIAN_POINT('',(19.135923566879,3.391437924676,8.733138237496
    ));
#201 = LINE('',#202,#203);
#202 = CARTESIAN_POINT('',(19.135923566879,3.391437924676,8.733138237496
    ));
#203 = VECTOR('',#204,1.);
#204 = DIRECTION('',(0.,-0.939692620786,0.342020143326));
#205 = ORIENTED_EDGE('',*,*,#206,.F.);
#206 = EDGE_CURVE('',#166,#199,#207,.T.);
#207 = B_SPLINE_CURVE_WITH_KNOTS('',2,(#208,#209,#210),.UNSPECIFIED.,.F.
  ,.F.,(3,3),(0.,1.),.PIECEWISE_BEZIER_KNOTS.);
#208 = CARTESIAN_POINT('',(18.45949044586,3.084709031808,7.890407530447)
  );
#209 = CARTESIAN_POINT('',(18.952484076433,3.216201616847,8.251680438668
    ));
#210 = CARTESIAN_POINT('',(19.135923566879,3.391437924676,8.733138237496
    ));
#211 = SURFACE_OF_LINEAR_EXTRUSION('',#212,#216);
#212 = B_SPLINE_CURVE_WITH_KNOTS('',2,(#213,#214,#215),.UNSPECIFIED.,.F.
  ,.F.,(3,3),(0.,1.),.PIECEWISE_BEZIER_KNOTS.);
#213 = CARTESIAN_POINT('',(18.45949044586,3.084709031808,7.890407530447)
  );
#214 = CARTESIAN_POINT('',(18.952484076433,3.216201616847,8.251680438668
    ));
#215 = CARTESIAN_POINT('',(19.135923566879,3.391437924676,8.733138237496
    ));
#216 = VECTOR('',#217,1.);
#217 = DIRECTION('',(-0.,0.939692620786,-0.342020143326));
#218 = ADVANCED_FACE('',(#219),#244,.T.);
#219 = FACE_BOUND('',#220,.T.);
#220 = EDGE_LOOP('',(#221,#222,#230,#238));
#221 = ORIENTED_EDGE('',*,*,#198,.T.);
#222 = ORIENTED_EDGE('',*,*,#223,.T.);
#223 = EDGE_CURVE('',#191,#224,#226,.T.);
#224 = VERTEX_POINT('',#225);
#225 = CARTESIAN_POINT('',(20.007261146497,2.639683828047,9.006754352157
    ));
#226 = LINE('',#227,#228);
#227 = CARTESIAN_POINT('',(19.135923566879,2.639683828047,9.006754352157
    ));
#228 = VECTOR('',#229,1.);
#229 = DIRECTION('',(1.,0.,0.));
#230 = ORIENTED_EDGE('',*,*,#231,.F.);
#231 = EDGE_CURVE('',#232,#224,#234,.T.);
#232 = VERTEX_POINT('',#233);
#233 = CARTESIAN_POINT('',(20.007261146497,3.391437924676,8.733138237496
    ));
#234 = LINE('',#235,#236);
#235 = CARTESIAN_POINT('',(20.007261146497,3.391437924676,8.733138237496
    ));
#236 = VECTOR('',#237,1.);
#237 = DIRECTION('',(0.,-0.939692620786,0.342020143326));
#238 = ORIENTED_EDGE('',*,*,#239,.F.);
#239 = EDGE_CURVE('',#199,#232,#240,.T.);
#240 = LINE('',#241,#242);
#241 = CARTESIAN_POINT('',(19.135923566879,3.391437924676,8.733138237496
    ));
#242 = VECTOR('',#243,1.);
#243 = DIRECTION('',(1.,0.,0.));
#244 = PLANE('',#245);
#245 = AXIS2_PLACEMENT_3D('',#246,#247,#248);
#246 = CARTESIAN_POINT('',(19.135923566879,3.391437924676,8.733138237496
    ));
#247 = DIRECTION('',(0.,0.342020143326,0.939692620786));
#248 = DIRECTION('',(1.,0.,0.));
#249 = ADVANCED_FACE('',(#250),#266,.T.);
#250 = FACE_BOUND('',#251,.T.);
#251 = EDGE_LOOP('',(#252,#253,#259,#260));
#252 = ORIENTED_EDGE('',*,*,#231,.T.);
#253 = ORIENTED_EDGE('',*,*,#254,.T.);
#254 = EDGE_CURVE('',#224,#24,#255,.T.);
#255 = LINE('',#256,#257);
#256 = CARTESIAN_POINT('',(20.007261146497,2.639683828047,9.006754352157
    ));
#257 = VECTOR('',#258,1.);
#258 = DIRECTION('',(0.,-0.342020143326,-0.939692620786));
#259 = ORIENTED_EDGE('',*,*,#21,.F.);
#260 = ORIENTED_EDGE('',*,*,#261,.F.);
#261 = EDGE_CURVE('',#232,#22,#262,.T.);
#262 = LINE('',#263,#264);
#263 = CARTESIAN_POINT('',(20.007261146497,3.391437924676,8.733138237496
    ));
#264 = VECTOR('',#265,1.);
#265 = DIRECTION('',(0.,-0.342020143326,-0.939692620786));
#266 = PLANE('',#267);
#267 = AXIS2_PLACEMENT_3D('',#268,#269,#270);
#268 = CARTESIAN_POINT('',(20.007261146497,3.391437924676,8.733138237496
    ));
#269 = DIRECTION('',(1.,0.,0.));
#270 = DIRECTION('',(0.,-0.342020143326,-0.939692620786));
#271 = ADVANCED_FACE('',(#272),#282,.F.);
#272 = FACE_BOUND('',#273,.T.);
#273 = EDGE_LOOP('',(#274,#275,#276,#277,#278,#279,#280,#281));
#274 = ORIENTED_EDGE('',*,*,#47,.T.);
#275 = ORIENTED_EDGE('',*,*,#78,.T.);
#276 = ORIENTED_EDGE('',*,*,#109,.T.);
#277 = ORIENTED_EDGE('',*,*,#142,.T.);
#278 = ORIENTED_EDGE('',*,*,#173,.T.);
#279 = ORIENTED_EDGE('',*,*,#206,.T.);
#280 = ORIENTED_EDGE('',*,*,#239,.T.);
#281 = ORIENTED_EDGE('',*,*,#261,.T.);
#282 = PLANE('',#283);
#283 = AXIS2_PLACEMENT_3D('',#284,#285,#286);
#284 = CARTESIAN_POINT('',(19.155972298463,2.484916324519,6.242490610816
    ));
#285 = DIRECTION('',(0.,-0.939692620786,0.342020143326));
#286 = DIRECTION('',(1.,0.,0.));
#287 = ADVANCED_FACE('',(#288),#298,.T.);
#288 = FACE_BOUND('',#289,.F.);
#289 = EDGE_LOOP('',(#290,#291,#292,#293,#294,#295,#296,#297));
#290 = ORIENTED_EDGE('',*,*,#31,.T.);
#291 = ORIENTED_EDGE('',*,*,#62,.T.);
#292 = ORIENTED_EDGE('',*,*,#93,.T.);
#293 = ORIENTED_EDGE('',*,*,#126,.T.);
#294 = ORIENTED_EDGE('',*,*,#157,.T.);
#295 = ORIENTED_EDGE('',*,*,#190,.T.);
#296 = ORIENTED_EDGE('',*,*,#223,.T.);
#297 = ORIENTED_EDGE('',*,*,#254,.T.);
#298 = PLANE('',#299);
#299 = AXIS2_PLACEMENT_3D('',#300,#301,#302);
#300 = CARTESIAN_POINT('',(19.155972298463,1.73316222789,6.516106725477)
  );
#301 = DIRECTION('',(0.,-0.939692620786,0.342020143326));
#302 = DIRECTION('',(1.,0.,0.));
#303 = MANIFOLD_SOLID_BREP('',#304);
#304 = CLOSED_SHELL('',(#305,#345,#376,#407,#438,#469,#500,#531,#562,
    #593,#624,#646,#665));
#305 = ADVANCED_FACE('',(#306),#340,.T.);
#306 = FACE_BOUND('',#307,.T.);
#307 = EDGE_LOOP('',(#308,#318,#326,#334));
#308 = ORIENTED_EDGE('',*,*,#309,.T.);
#309 = EDGE_CURVE('',#310,#312,#314,.T.);
#310 = VERTEX_POINT('',#311);
#311 = CARTESIAN_POINT('',(23.718853503185,1.461834344089,3.431595971335
    ));
#312 = VERTEX_POINT('',#313);
#313 = CARTESIAN_POINT('',(23.718853503185,0.71008024746,3.705212085995)
  );
#314 = LINE('',#315,#316);
#315 = CARTESIAN_POINT('',(23.718853503185,1.461834344089,3.431595971335
    ));
#316 = VECTOR('',#317,1.);
#317 = DIRECTION('',(0.,-0.939692620786,0.342020143326));
#318 = ORIENTED_EDGE('',*,*,#319,.T.);
#319 = EDGE_CURVE('',#312,#320,#322,.T.);
#320 = VERTEX_POINT('',#321);
#321 = CARTESIAN_POINT('',(23.718853503185,1.094885585785,4.762456063929
    ));
#322 = LINE('',#323,#324);
#323 = CARTESIAN_POINT('',(23.718853503185,0.71008024746,3.705212085995)
  );
#324 = VECTOR('',#325,1.);
#325 = DIRECTION('',(0.,0.342020143326,0.939692620786));
#326 = ORIENTED_EDGE('',*,*,#327,.F.);
#327 = EDGE_CURVE('',#328,#320,#330,.T.);
#328 = VERTEX_POINT('',#329);
#329 = CARTESIAN_POINT('',(23.718853503185,1.846639682414,4.488839949269
    ));
#330 = LINE('',#331,#332);
#331 = CARTESIAN_POINT('',(23.718853503185,1.846639682414,4.488839949269
    ));
#332 = VECTOR('',#333,1.);
#333 = DIRECTION('',(0.,-0.939692620786,0.342020143326));
#334 = ORIENTED_EDGE('',*,*,#335,.F.);
#335 = EDGE_CURVE('',#310,#328,#336,.T.);
#336 = LINE('',#337,#338);
#337 = CARTESIAN_POINT('',(23.718853503185,1.461834344089,3.431595971335
    ));
#338 = VECTOR('',#339,1.);
#339 = DIRECTION('',(0.,0.342020143326,0.939692620786));
#340 = PLANE('',#341);
#341 = AXIS2_PLACEMENT_3D('',#342,#343,#344);
#342 = CARTESIAN_POINT('',(23.718853503185,1.461834344089,3.431595971335
    ));
#343 = DIRECTION('',(-1.,0.,0.));
#344 = DIRECTION('',(0.,0.342020143326,0.939692620786));
#345 = ADVANCED_FACE('',(#346),#371,.T.);
#346 = FACE_BOUND('',#347,.T.);
#347 = EDGE_LOOP('',(#348,#349,#357,#365));
#348 = ORIENTED_EDGE('',*,*,#327,.T.);
#349 = ORIENTED_EDGE('',*,*,#350,.T.);
#350 = EDGE_CURVE('',#320,#351,#353,.T.);
#351 = VERTEX_POINT('',#352);
#352 = CARTESIAN_POINT('',(21.425859872611,1.094885585785,4.762456063929
    ));
#353 = LINE('',#354,#355);
#354 = CARTESIAN_POINT('',(23.718853503185,1.094885585785,4.762456063929
    ));
#355 = VECTOR('',#356,1.);
#356 = DIRECTION('',(-1.,0.,0.));
#357 = ORIENTED_EDGE('',*,*,#358,.F.);
#358 = EDGE_CURVE('',#359,#351,#361,.T.);
#359 = VERTEX_POINT('',#360);
#360 = CARTESIAN_POINT('',(21.425859872611,1.846639682414,4.488839949269
    ));
#361 = LINE('',#362,#363);
#362 = CARTESIAN_POINT('',(21.425859872611,1.846639682414,4.488839949269
    ));
#363 = VECTOR('',#364,1.);
#364 = DIRECTION('',(0.,-0.939692620786,0.342020143326));
#365 = ORIENTED_EDGE('',*,*,#366,.F.);
#366 = EDGE_CURVE('',#328,#359,#367,.T.);
#367 = LINE('',#368,#369);
#368 = CARTESIAN_POINT('',(23.718853503185,1.846639682414,4.488839949269
    ));
#369 = VECTOR('',#370,1.);
#370 = DIRECTION('',(-1.,0.,0.));
#371 = PLANE('',#372);
#372 = AXIS2_PLACEMENT_3D('',#373,#374,#375);
#373 = CARTESIAN_POINT('',(23.718853503185,1.846639682414,4.488839949269
    ));
#374 = DIRECTION('',(0.,-0.342020143326,-0.939692620786));
#375 = DIRECTION('',(-1.,0.,0.));
#376 = ADVANCED_FACE('',(#377),#402,.T.);
#377 = FACE_BOUND('',#378,.T.);
#378 = EDGE_LOOP('',(#379,#380,#388,#396));
#379 = ORIENTED_EDGE('',*,*,#358,.T.);
#380 = ORIENTED_EDGE('',*,*,#381,.T.);
#381 = EDGE_CURVE('',#351,#382,#384,.T.);
#382 = VERTEX_POINT('',#383);
#383 = CARTESIAN_POINT('',(21.425859872611,1.417038062187,5.647562718463
    ));
#384 = LINE('',#385,#386);
#385 = CARTESIAN_POINT('',(21.425859872611,1.094885585785,4.762456063929
    ));
#386 = VECTOR('',#387,1.);
#387 = DIRECTION('',(0.,0.342020143326,0.939692620786));
#388 = ORIENTED_EDGE('',*,*,#389,.F.);
#389 = EDGE_CURVE('',#390,#382,#392,.T.);
#390 = VERTEX_POINT('',#391);
#391 = CARTESIAN_POINT('',(21.425859872611,2.168792158815,5.373946603803
    ));
#392 = LINE('',#393,#394);
#393 = CARTESIAN_POINT('',(21.425859872611,2.168792158815,5.373946603803
    ));
#394 = VECTOR('',#395,1.);
#395 = DIRECTION('',(0.,-0.939692620786,0.342020143326));
#396 = ORIENTED_EDGE('',*,*,#397,.F.);
#397 = EDGE_CURVE('',#359,#390,#398,.T.);
#398 = LINE('',#399,#400);
#399 = CARTESIAN_POINT('',(21.425859872611,1.846639682414,4.488839949269
    ));
#400 = VECTOR('',#401,1.);
#401 = DIRECTION('',(0.,0.342020143326,0.939692620786));
#402 = PLANE('',#403);
#403 = AXIS2_PLACEMENT_3D('',#404,#405,#406);
#404 = CARTESIAN_POINT('',(21.425859872611,1.846639682414,4.488839949269
    ));
#405 = DIRECTION('',(-1.,0.,0.));
#406 = DIRECTION('',(0.,0.342020143326,0.939692620786));
#407 = ADVANCED_FACE('',(#408),#433,.T.);
#408 = FACE_BOUND('',#409,.T.);
#409 = EDGE_LOOP('',(#410,#411,#419,#427));
#410 = ORIENTED_EDGE('',*,*,#389,.T.);
#411 = ORIENTED_EDGE('',*,*,#412,.T.);
#412 = EDGE_CURVE('',#382,#413,#415,.T.);
#413 = VERTEX_POINT('',#414);
#414 = CARTESIAN_POINT('',(23.856433121019,2.634106939086,8.991431975665
    ));
#415 = LINE('',#416,#417);
#416 = CARTESIAN_POINT('',(21.425859872611,1.417038062187,5.647562718463
    ));
#417 = VECTOR('',#418,1.);
#418 = DIRECTION('',(0.564024580147,0.282425869186,0.77595869826));
#419 = ORIENTED_EDGE('',*,*,#420,.F.);
#420 = EDGE_CURVE('',#421,#413,#423,.T.);
#421 = VERTEX_POINT('',#422);
#422 = CARTESIAN_POINT('',(23.856433121019,3.385861035715,8.717815861004
    ));
#423 = LINE('',#424,#425);
#424 = CARTESIAN_POINT('',(23.856433121019,3.385861035715,8.717815861004
    ));
#425 = VECTOR('',#426,1.);
#426 = DIRECTION('',(0.,-0.939692620786,0.342020143326));
#427 = ORIENTED_EDGE('',*,*,#428,.F.);
#428 = EDGE_CURVE('',#390,#421,#429,.T.);
#429 = LINE('',#430,#431);
#430 = CARTESIAN_POINT('',(21.425859872611,2.168792158815,5.373946603803
    ));
#431 = VECTOR('',#432,1.);
#432 = DIRECTION('',(0.564024580147,0.282425869186,0.77595869826));
#433 = PLANE('',#434);
#434 = AXIS2_PLACEMENT_3D('',#435,#436,#437);
#435 = CARTESIAN_POINT('',(21.425859872611,2.168792158815,5.373946603803
    ));
#436 = DIRECTION('',(-0.825757999047,0.192907767741,0.530009735906));
#437 = DIRECTION('',(0.564024580147,0.282425869186,0.77595869826));
#438 = ADVANCED_FACE('',(#439),#464,.T.);
#439 = FACE_BOUND('',#440,.T.);
#440 = EDGE_LOOP('',(#441,#442,#450,#458));
#441 = ORIENTED_EDGE('',*,*,#420,.T.);
#442 = ORIENTED_EDGE('',*,*,#443,.T.);
#443 = EDGE_CURVE('',#413,#444,#446,.T.);
#444 = VERTEX_POINT('',#445);
#445 = CARTESIAN_POINT('',(24.758343949045,2.634106939086,8.991431975665
    ));
#446 = LINE('',#447,#448);
#447 = CARTESIAN_POINT('',(23.856433121019,2.634106939086,8.991431975665
    ));
#448 = VECTOR('',#449,1.);
#449 = DIRECTION('',(1.,0.,0.));
#450 = ORIENTED_EDGE('',*,*,#451,.F.);
#451 = EDGE_CURVE('',#452,#444,#454,.T.);
#452 = VERTEX_POINT('',#453);
#453 = CARTESIAN_POINT('',(24.758343949045,3.385861035715,8.717815861004
    ));
#454 = LINE('',#455,#456);
#455 = CARTESIAN_POINT('',(24.758343949045,3.385861035715,8.717815861004
    ));
#456 = VECTOR('',#457,1.);
#457 = DIRECTION('',(0.,-0.939692620786,0.342020143326));
#458 = ORIENTED_EDGE('',*,*,#459,.F.);
#459 = EDGE_CURVE('',#421,#452,#460,.T.);
#460 = LINE('',#461,#462);
#461 = CARTESIAN_POINT('',(23.856433121019,3.385861035715,8.717815861004
    ));
#462 = VECTOR('',#463,1.);
#463 = DIRECTION('',(1.,0.,0.));
#464 = PLANE('',#465);
#465 = AXIS2_PLACEMENT_3D('',#466,#467,#468);
#466 = CARTESIAN_POINT('',(23.856433121019,3.385861035715,8.717815861004
    ));
#467 = DIRECTION('',(0.,0.342020143326,0.939692620786));
#468 = DIRECTION('',(1.,0.,0.));
#469 = ADVANCED_FACE('',(#470),#495,.T.);
#470 = FACE_BOUND('',#471,.T.);
#471 = EDGE_LOOP('',(#472,#473,#481,#489));
#472 = ORIENTED_EDGE('',*,*,#451,.T.);
#473 = ORIENTED_EDGE('',*,*,#474,.T.);
#474 = EDGE_CURVE('',#444,#475,#477,.T.);
#475 = VERTEX_POINT('',#476);
#476 = CARTESIAN_POINT('',(24.758343949045,1.418345145537,5.651153900453
    ));
#477 = LINE('',#478,#479);
#478 = CARTESIAN_POINT('',(24.758343949045,2.634106939086,8.991431975665
    ));
#479 = VECTOR('',#480,1.);
#480 = DIRECTION('',(0.,-0.342020143326,-0.939692620786));
#481 = ORIENTED_EDGE('',*,*,#482,.F.);
#482 = EDGE_CURVE('',#483,#475,#485,.T.);
#483 = VERTEX_POINT('',#484);
#484 = CARTESIAN_POINT('',(24.758343949045,2.170099242166,5.377537785793
    ));
#485 = LINE('',#486,#487);
#486 = CARTESIAN_POINT('',(24.758343949045,2.170099242166,5.377537785793
    ));
#487 = VECTOR('',#488,1.);
#488 = DIRECTION('',(0.,-0.939692620786,0.342020143326));
#489 = ORIENTED_EDGE('',*,*,#490,.F.);
#490 = EDGE_CURVE('',#452,#483,#491,.T.);
#491 = LINE('',#492,#493);
#492 = CARTESIAN_POINT('',(24.758343949045,3.385861035715,8.717815861004
    ));
#493 = VECTOR('',#494,1.);
#494 = DIRECTION('',(0.,-0.342020143326,-0.939692620786));
#495 = PLANE('',#496);
#496 = AXIS2_PLACEMENT_3D('',#497,#498,#499);
#497 = CARTESIAN_POINT('',(24.758343949045,3.385861035715,8.717815861004
    ));
#498 = DIRECTION('',(1.,0.,0.));
#499 = DIRECTION('',(0.,-0.342020143326,-0.939692620786));
#500 = ADVANCED_FACE('',(#501),#526,.T.);
#501 = FACE_BOUND('',#502,.T.);
#502 = EDGE_LOOP('',(#503,#504,#512,#520));
#503 = ORIENTED_EDGE('',*,*,#482,.T.);
#504 = ORIENTED_EDGE('',*,*,#505,.T.);
#505 = EDGE_CURVE('',#475,#506,#508,.T.);
#506 = VERTEX_POINT('',#507);
#507 = CARTESIAN_POINT('',(25.453885350318,1.418345145537,5.651153900453
    ));
#508 = LINE('',#509,#510);
#509 = CARTESIAN_POINT('',(24.758343949045,1.418345145537,5.651153900453
    ));
#510 = VECTOR('',#511,1.);
#511 = DIRECTION('',(1.,0.,0.));
#512 = ORIENTED_EDGE('',*,*,#513,.F.);
#513 = EDGE_CURVE('',#514,#506,#516,.T.);
#514 = VERTEX_POINT('',#515);
#515 = CARTESIAN_POINT('',(25.453885350318,2.170099242166,5.377537785793
    ));
#516 = LINE('',#517,#518);
#517 = CARTESIAN_POINT('',(25.453885350318,2.170099242166,5.377537785793
    ));
#518 = VECTOR('',#519,1.);
#519 = DIRECTION('',(0.,-0.939692620786,0.342020143326));
#520 = ORIENTED_EDGE('',*,*,#521,.F.);
#521 = EDGE_CURVE('',#483,#514,#522,.T.);
#522 = LINE('',#523,#524);
#523 = CARTESIAN_POINT('',(24.758343949045,2.170099242166,5.377537785793
    ));
#524 = VECTOR('',#525,1.);
#525 = DIRECTION('',(1.,0.,0.));
#526 = PLANE('',#527);
#527 = AXIS2_PLACEMENT_3D('',#528,#529,#530);
#528 = CARTESIAN_POINT('',(24.758343949045,2.170099242166,5.377537785793
    ));
#529 = DIRECTION('',(0.,0.342020143326,0.939692620786));
#530 = DIRECTION('',(1.,0.,0.));
#531 = ADVANCED_FACE('',(#532),#557,.T.);
#532 = FACE_BOUND('',#533,.T.);
#533 = EDGE_LOOP('',(#534,#535,#543,#551));
#534 = ORIENTED_EDGE('',*,*,#513,.T.);
#535 = ORIENTED_EDGE('',*,*,#536,.T.);
#536 = EDGE_CURVE('',#506,#537,#539,.T.);
#537 = VERTEX_POINT('',#538);
#538 = CARTESIAN_POINT('',(25.453885350318,1.094885585785,4.762456063929
    ));
#539 = LINE('',#540,#541);
#540 = CARTESIAN_POINT('',(25.453885350318,1.418345145537,5.651153900453
    ));
#541 = VECTOR('',#542,1.);
#542 = DIRECTION('',(0.,-0.342020143326,-0.939692620786));
#543 = ORIENTED_EDGE('',*,*,#544,.F.);
#544 = EDGE_CURVE('',#545,#537,#547,.T.);
#545 = VERTEX_POINT('',#546);
#546 = CARTESIAN_POINT('',(25.453885350318,1.846639682414,4.488839949269
    ));
#547 = LINE('',#548,#549);
#548 = CARTESIAN_POINT('',(25.453885350318,1.846639682414,4.488839949269
    ));
#549 = VECTOR('',#550,1.);
#550 = DIRECTION('',(0.,-0.939692620786,0.342020143326));
#551 = ORIENTED_EDGE('',*,*,#552,.F.);
#552 = EDGE_CURVE('',#514,#545,#553,.T.);
#553 = LINE('',#554,#555);
#554 = CARTESIAN_POINT('',(25.453885350318,2.170099242166,5.377537785793
    ));
#555 = VECTOR('',#556,1.);
#556 = DIRECTION('',(0.,-0.342020143326,-0.939692620786));
#557 = PLANE('',#558);
#558 = AXIS2_PLACEMENT_3D('',#559,#560,#561);
#559 = CARTESIAN_POINT('',(25.453885350318,2.170099242166,5.377537785793
    ));
#560 = DIRECTION('',(1.,0.,0.));
#561 = DIRECTION('',(0.,-0.342020143326,-0.939692620786));
#562 = ADVANCED_FACE('',(#563),#588,.T.);
#563 = FACE_BOUND('',#564,.T.);
#564 = EDGE_LOOP('',(#565,#566,#574,#582));
#565 = ORIENTED_EDGE('',*,*,#544,.T.);
#566 = ORIENTED_EDGE('',*,*,#567,.T.);
#567 = EDGE_CURVE('',#537,#568,#570,.T.);
#568 = VERTEX_POINT('',#569);
#569 = CARTESIAN_POINT('',(24.758343949045,1.094885585785,4.762456063929
    ));
#570 = LINE('',#571,#572);
#571 = CARTESIAN_POINT('',(25.453885350318,1.094885585785,4.762456063929
    ));
#572 = VECTOR('',#573,1.);
#573 = DIRECTION('',(-1.,0.,0.));
#574 = ORIENTED_EDGE('',*,*,#575,.F.);
#575 = EDGE_CURVE('',#576,#568,#578,.T.);
#576 = VERTEX_POINT('',#577);
#577 = CARTESIAN_POINT('',(24.758343949045,1.846639682414,4.488839949269
    ));
#578 = LINE('',#579,#580);
#579 = CARTESIAN_POINT('',(24.758343949045,1.846639682414,4.488839949269
    ));
#580 = VECTOR('',#581,1.);
#581 = DIRECTION('',(0.,-0.939692620786,0.342020143326));
#582 = ORIENTED_EDGE('',*,*,#583,.F.);
#583 = EDGE_CURVE('',#545,#576,#584,.T.);
#584 = LINE('',#585,#586);
#585 = CARTESIAN_POINT('',(25.453885350318,1.846639682414,4.488839949269
    ));
#586 = VECTOR('',#587,1.);
#587 = DIRECTION('',(-1.,0.,0.));
#588 = PLANE('',#589);
#589 = AXIS2_PLACEMENT_3D('',#590,#591,#592);
#590 = CARTESIAN_POINT('',(25.453885350318,1.846639682414,4.488839949269
    ));
#591 = DIRECTION('',(0.,-0.342020143326,-0.939692620786));
#592 = DIRECTION('',(-1.,0.,0.));
#593 = ADVANCED_FACE('',(#594),#619,.T.);
#594 = FACE_BOUND('',#595,.T.);
#595 = EDGE_LOOP('',(#596,#597,#605,#613));
#596 = ORIENTED_EDGE('',*,*,#575,.T.);
#597 = ORIENTED_EDGE('',*,*,#598,.T.);
#598 = EDGE_CURVE('',#568,#599,#601,.T.);
#599 = VERTEX_POINT('',#600);
#600 = CARTESIAN_POINT('',(24.758343949045,0.71008024746,3.705212085995)
  );
#601 = LINE('',#602,#603);
#602 = CARTESIAN_POINT('',(24.758343949045,1.094885585785,4.762456063929
    ));
#603 = VECTOR('',#604,1.);
#604 = DIRECTION('',(0.,-0.342020143326,-0.939692620786));
#605 = ORIENTED_EDGE('',*,*,#606,.F.);
#606 = EDGE_CURVE('',#607,#599,#609,.T.);
#607 = VERTEX_POINT('',#608);
#608 = CARTESIAN_POINT('',(24.758343949045,1.461834344089,3.431595971335
    ));
#609 = LINE('',#610,#611);
#610 = CARTESIAN_POINT('',(24.758343949045,1.461834344089,3.431595971335
    ));
#611 = VECTOR('',#612,1.);
#612 = DIRECTION('',(0.,-0.939692620786,0.342020143326));
#613 = ORIENTED_EDGE('',*,*,#614,.F.);
#614 = EDGE_CURVE('',#576,#607,#615,.T.);
#615 = LINE('',#616,#617);
#616 = CARTESIAN_POINT('',(24.758343949045,1.846639682414,4.488839949269
    ));
#617 = VECTOR('',#618,1.);
#618 = DIRECTION('',(0.,-0.342020143326,-0.939692620786));
#619 = PLANE('',#620);
#620 = AXIS2_PLACEMENT_3D('',#621,#622,#623);
#621 = CARTESIAN_POINT('',(24.758343949045,1.846639682414,4.488839949269
    ));
#622 = DIRECTION('',(1.,0.,0.));
#623 = DIRECTION('',(0.,-0.342020143326,-0.939692620786));
#624 = ADVANCED_FACE('',(#625),#641,.T.);
#625 = FACE_BOUND('',#626,.T.);
#626 = EDGE_LOOP('',(#627,#628,#634,#635));
#627 = ORIENTED_EDGE('',*,*,#606,.T.);
#628 = ORIENTED_EDGE('',*,*,#629,.T.);
#629 = EDGE_CURVE('',#599,#312,#630,.T.);
#630 = LINE('',#631,#632);
#631 = CARTESIAN_POINT('',(24.758343949045,0.71008024746,3.705212085995)
  );
#632 = VECTOR('',#633,1.);
#633 = DIRECTION('',(-1.,0.,0.));
#634 = ORIENTED_EDGE('',*,*,#309,.F.);
#635 = ORIENTED_EDGE('',*,*,#636,.F.);
#636 = EDGE_CURVE('',#607,#310,#637,.T.);
#637 = LINE('',#638,#639);
#638 = CARTESIAN_POINT('',(24.758343949045,1.461834344089,3.431595971335
    ));
#639 = VECTOR('',#640,1.);
#640 = DIRECTION('',(-1.,0.,0.));
#641 = PLANE('',#642);
#642 = AXIS2_PLACEMENT_3D('',#643,#644,#645);
#643 = CARTESIAN_POINT('',(24.758343949045,1.461834344089,3.431595971335
    ));
#644 = DIRECTION('',(0.,-0.342020143326,-0.939692620786));
#645 = DIRECTION('',(-1.,0.,0.));
#646 = ADVANCED_FACE('',(#647),#660,.F.);
#647 = FACE_BOUND('',#648,.T.);
#648 = EDGE_LOOP('',(#649,#650,#651,#652,#653,#654,#655,#656,#657,#658,
    #659));
#649 = ORIENTED_EDGE('',*,*,#335,.T.);
#650 = ORIENTED_EDGE('',*,*,#366,.T.);
#651 = ORIENTED_EDGE('',*,*,#397,.T.);
#652 = ORIENTED_EDGE('',*,*,#428,.T.);
#653 = ORIENTED_EDGE('',*,*,#459,.T.);
#654 = ORIENTED_EDGE('',*,*,#490,.T.);
#655 = ORIENTED_EDGE('',*,*,#521,.T.);
#656 = ORIENTED_EDGE('',*,*,#552,.T.);
#657 = ORIENTED_EDGE('',*,*,#583,.T.);
#658 = ORIENTED_EDGE('',*,*,#614,.T.);
#659 = ORIENTED_EDGE('',*,*,#636,.T.);
#660 = PLANE('',#661);
#661 = AXIS2_PLACEMENT_3D('',#662,#663,#664);
#662 = CARTESIAN_POINT('',(23.72301678148,2.323523972272,5.799068767347)
  );
#663 = DIRECTION('',(0.,-0.939692620786,0.342020143326));
#664 = DIRECTION('',(1.,0.,0.));
#665 = ADVANCED_FACE('',(#666),#679,.T.);
#666 = FACE_BOUND('',#667,.F.);
#667 = EDGE_LOOP('',(#668,#669,#670,#671,#672,#673,#674,#675,#676,#677,
    #678));
#668 = ORIENTED_EDGE('',*,*,#319,.T.);
#669 = ORIENTED_EDGE('',*,*,#350,.T.);
#670 = ORIENTED_EDGE('',*,*,#381,.T.);
#671 = ORIENTED_EDGE('',*,*,#412,.T.);
#672 = ORIENTED_EDGE('',*,*,#443,.T.);
#673 = ORIENTED_EDGE('',*,*,#474,.T.);
#674 = ORIENTED_EDGE('',*,*,#505,.T.);
#675 = ORIENTED_EDGE('',*,*,#536,.T.);
#676 = ORIENTED_EDGE('',*,*,#567,.T.);
#677 = ORIENTED_EDGE('',*,*,#598,.T.);
#678 = ORIENTED_EDGE('',*,*,#629,.T.);
#679 = PLANE('',#680);
#680 = AXIS2_PLACEMENT_3D('',#681,#682,#683);
#681 = CARTESIAN_POINT('',(23.72301678148,1.571769875644,6.072684882008)
  );
#682 = DIRECTION('',(0.,-0.939692620786,0.342020143326));
#683 = DIRECTION('',(1.,0.,0.));
#684 = MANIFOLD_SOLID_BREP('',#685);
#685 = CLOSED_SHELL('',(#686,#726,#757,#779,#790));
#686 = ADVANCED_FACE('',(#687),#721,.F.);
#687 = FACE_BOUND('',#688,.F.);
#688 = EDGE_LOOP('',(#689,#699,#707,#715));
#689 = ORIENTED_EDGE('',*,*,#690,.T.);
#690 = EDGE_CURVE('',#691,#693,#695,.T.);
#691 = VERTEX_POINT('',#692);
#692 = CARTESIAN_POINT('',(23.718853503185,2.170099242166,5.377537785793
    ));
#693 = VERTEX_POINT('',#694);
#694 = CARTESIAN_POINT('',(23.718853503185,1.418345145537,5.651153900453
    ));
#695 = LINE('',#696,#697);
#696 = CARTESIAN_POINT('',(23.718853503185,2.170099242166,5.377537785793
    ));
#697 = VECTOR('',#698,1.);
#698 = DIRECTION('',(0.,-0.939692620786,0.342020143326));
#699 = ORIENTED_EDGE('',*,*,#700,.T.);
#700 = EDGE_CURVE('',#693,#701,#703,.T.);
#701 = VERTEX_POINT('',#702);
#702 = CARTESIAN_POINT('',(23.718853503185,2.06326007057,7.42304309445)
  );
#703 = LINE('',#704,#705);
#704 = CARTESIAN_POINT('',(23.718853503185,1.418345145537,5.651153900453
    ));
#705 = VECTOR('',#706,1.);
#706 = DIRECTION('',(0.,0.342020143326,0.939692620786));
#707 = ORIENTED_EDGE('',*,*,#708,.F.);
#708 = EDGE_CURVE('',#709,#701,#711,.T.);
#709 = VERTEX_POINT('',#710);
#710 = CARTESIAN_POINT('',(23.718853503185,2.815014167198,7.149426979789
    ));
#711 = LINE('',#712,#713);
#712 = CARTESIAN_POINT('',(23.718853503185,2.815014167198,7.149426979789
    ));
#713 = VECTOR('',#714,1.);
#714 = DIRECTION('',(0.,-0.939692620786,0.342020143326));
#715 = ORIENTED_EDGE('',*,*,#716,.F.);
#716 = EDGE_CURVE('',#691,#709,#717,.T.);
#717 = LINE('',#718,#719);
#718 = CARTESIAN_POINT('',(23.718853503185,2.170099242166,5.377537785793
    ));
#719 = VECTOR('',#720,1.);
#720 = DIRECTION('',(0.,0.342020143326,0.939692620786));
#721 = PLANE('',#722);
#722 = AXIS2_PLACEMENT_3D('',#723,#724,#725);
#723 = CARTESIAN_POINT('',(23.718853503185,2.170099242166,5.377537785793
    ));
#724 = DIRECTION('',(-1.,0.,0.));
#725 = DIRECTION('',(0.,0.342020143326,0.939692620786));
#726 = ADVANCED_FACE('',(#727),#752,.F.);
#727 = FACE_BOUND('',#728,.F.);
#728 = EDGE_LOOP('',(#729,#730,#738,#746));
#729 = ORIENTED_EDGE('',*,*,#708,.T.);
#730 = ORIENTED_EDGE('',*,*,#731,.T.);
#731 = EDGE_CURVE('',#701,#732,#734,.T.);
#732 = VERTEX_POINT('',#733);
#733 = CARTESIAN_POINT('',(22.430955414013,1.418345145537,5.651153900453
    ));
#734 = LINE('',#735,#736);
#735 = CARTESIAN_POINT('',(23.718853503185,2.06326007057,7.42304309445)
  );
#736 = VECTOR('',#737,1.);
#737 = DIRECTION('',(-0.564011752037,-0.282428865949,-0.775966931797));
#738 = ORIENTED_EDGE('',*,*,#739,.F.);
#739 = EDGE_CURVE('',#740,#732,#742,.T.);
#740 = VERTEX_POINT('',#741);
#741 = CARTESIAN_POINT('',(22.430955414013,2.170099242166,5.377537785793
    ));
#742 = LINE('',#743,#744);
#743 = CARTESIAN_POINT('',(22.430955414013,2.170099242166,5.377537785793
    ));
#744 = VECTOR('',#745,1.);
#745 = DIRECTION('',(0.,-0.939692620786,0.342020143326));
#746 = ORIENTED_EDGE('',*,*,#747,.F.);
#747 = EDGE_CURVE('',#709,#740,#748,.T.);
#748 = LINE('',#749,#750);
#749 = CARTESIAN_POINT('',(23.718853503185,2.815014167198,7.149426979789
    ));
#750 = VECTOR('',#751,1.);
#751 = DIRECTION('',(-0.564011752037,-0.282428865949,-0.775966931797));
#752 = PLANE('',#753);
#753 = AXIS2_PLACEMENT_3D('',#754,#755,#756);
#754 = CARTESIAN_POINT('',(23.718853503185,2.815014167198,7.149426979789
    ));
#755 = DIRECTION('',(0.825766760995,-0.192903380269,-0.529997681426));
#756 = DIRECTION('',(-0.564011752037,-0.282428865949,-0.775966931797));
#757 = ADVANCED_FACE('',(#758),#774,.F.);
#758 = FACE_BOUND('',#759,.F.);
#759 = EDGE_LOOP('',(#760,#761,#767,#768));
#760 = ORIENTED_EDGE('',*,*,#739,.T.);
#761 = ORIENTED_EDGE('',*,*,#762,.T.);
#762 = EDGE_CURVE('',#732,#693,#763,.T.);
#763 = LINE('',#764,#765);
#764 = CARTESIAN_POINT('',(22.430955414013,1.418345145537,5.651153900453
    ));
#765 = VECTOR('',#766,1.);
#766 = DIRECTION('',(1.,0.,0.));
#767 = ORIENTED_EDGE('',*,*,#690,.F.);
#768 = ORIENTED_EDGE('',*,*,#769,.F.);
#769 = EDGE_CURVE('',#740,#691,#770,.T.);
#770 = LINE('',#771,#772);
#771 = CARTESIAN_POINT('',(22.430955414013,2.170099242166,5.377537785793
    ));
#772 = VECTOR('',#773,1.);
#773 = DIRECTION('',(1.,0.,0.));
#774 = PLANE('',#775);
#775 = AXIS2_PLACEMENT_3D('',#776,#777,#778);
#776 = CARTESIAN_POINT('',(22.430955414013,2.170099242166,5.377537785793
    ));
#777 = DIRECTION('',(0.,0.342020143326,0.939692620786));
#778 = DIRECTION('',(1.,0.,0.));
#779 = ADVANCED_FACE('',(#780),#785,.T.);
#780 = FACE_BOUND('',#781,.F.);
#781 = EDGE_LOOP('',(#782,#783,#784));
#782 = ORIENTED_EDGE('',*,*,#716,.T.);
#783 = ORIENTED_EDGE('',*,*,#747,.T.);
#784 = ORIENTED_EDGE('',*,*,#769,.T.);
#785 = PLANE('',#786);
#786 = AXIS2_PLACEMENT_3D('',#787,#788,#789);
#787 = CARTESIAN_POINT('',(23.297415337282,2.416453502063,6.054390552048
    ));
#788 = DIRECTION('',(-0.,0.939692620786,-0.342020143326));
#789 = DIRECTION('',(-1.,0.,0.));
#790 = ADVANCED_FACE('',(#791),#796,.F.);
#791 = FACE_BOUND('',#792,.T.);
#792 = EDGE_LOOP('',(#793,#794,#795));
#793 = ORIENTED_EDGE('',*,*,#700,.T.);
#794 = ORIENTED_EDGE('',*,*,#731,.T.);
#795 = ORIENTED_EDGE('',*,*,#762,.T.);
#796 = PLANE('',#797);
#797 = AXIS2_PLACEMENT_3D('',#798,#799,#800);
#798 = CARTESIAN_POINT('',(23.297415337282,1.664699405434,6.328006666708
    ));
#799 = DIRECTION('',(-0.,0.939692620786,-0.342020143326));
#800 = DIRECTION('',(-1.,0.,0.));
#801 = ( GEOMETRIC_REPRESENTATION_CONTEXT(3) 
GLOBAL_UNCERTAINTY_ASSIGNED_CONTEXT((#805)) GLOBAL_UNIT_ASSIGNED_CONTEXT
((#802,#803,#804)) REPRESENTATION_CONTEXT('Context #1',
  '3D Context with UNIT and UNCERTAINTY') );
#802 = ( LENGTH_UNIT() NAMED_UNIT(*) SI_UNIT(.MILLI.,.METRE.) );
#803 = ( NAMED_UNIT(*) PLANE_ANGLE_UNIT() SI_UNIT($,.RADIAN.) );
#804 = ( NAMED_UNIT(*) SI_UNIT($,.STERADIAN.) SOLID_ANGLE_UNIT() );
#805 = UNCERTAINTY_MEASURE_WITH_UNIT(LENGTH_MEASURE(1.E-07),#802,
  'distance_accuracy_value','confusion accuracy');
#806 = PRODUCT_RELATED_PRODUCT_CATEGORY('part',$,(#7));
ENDSEC;
END-ISO-10303-21;
