ISO-10303-21;
HEADER;
FILE_DESCRIPTION(('FreeCAD Model'),'2;1');
FILE_NAME('Open CASCADE Shape Model','2026-08-29T07:19:25',('FreeCAD'),(
    'FreeCAD'),'Open CASCADE STEP processor 7.8','FreeCAD','Unknown');
FILE_SCHEMA(('AUTOMOTIVE_DESIGN { 1 0 10303 214 1 1 1 1 }'));
ENDSEC;
DATA;
#1 = APPLICATION_PROTOCOL_DEFINITION('international standard',
  'automotive_design',2000,#2);
#2 = APPLICATION_CONTEXT(
  'core data for automotive mechanical design processes');
#3 = SHAPE_DEFINITION_REPRESENTATION(#4,#10);
#4 = PRODUCT_DEFINITION_SHAPE('','',#5);
#5 = PRODUCT_DEFINITION('design','',#6,#9);
#6 = PRODUCT_DEFINITION_FORMATION('','',#7);
#7 = PRODUCT('Open CASCADE STEP translator 7.8 18',
  'Open CASCADE STEP translator 7.8 18','',(#8));
#8 = PRODUCT_CONTEXT('',#2,'mechanical');
#9 = PRODUCT_DEFINITION_CONTEXT('part definition',#2,'design');
#10 = ADVANCED_BREP_SHAPE_REPRESENTATION('',(#11,#15),#1684);
#11 = AXIS2_PLACEMENT_3D('',#12,#13,#14);
#12 = CARTESIAN_POINT('',(0.,0.,0.));
#13 = DIRECTION('',(0.,0.,1.));
#14 = DIRECTION('',(1.,0.,-0.));
#15 = MANIFOLD_SOLID_BREP('',#16);
#16 = CLOSED_SHELL('',(#17,#57,#222,#246,#334,#550,#567,#584,#601,#618,
    #635,#652,#669,#701,#725,#749,#774,#799,#823,#847,#865,#882,#913,
    #937,#963,#989,#1013,#1039,#1065,#1091,#1115,#1132,#1163,#1187,#1211
    ,#1237,#1263,#1287,#1313,#1330,#1361,#1385,#1409,#1441,#1465,#1489,
    #1514,#1539,#1563,#1587,#1605,#1622,#1640,#1656,#1668));
#17 = ADVANCED_FACE('',(#18),#52,.F.);
#18 = FACE_BOUND('',#19,.F.);
#19 = EDGE_LOOP('',(#20,#30,#38,#46));
#20 = ORIENTED_EDGE('',*,*,#21,.F.);
#21 = EDGE_CURVE('',#22,#24,#26,.T.);
#22 = VERTEX_POINT('',#23);
#23 = CARTESIAN_POINT('',(0.,3.639702342662,10.));
#24 = VERTEX_POINT('',#25);
#25 = CARTESIAN_POINT('',(0.,7.45,10.));
#26 = LINE('',#27,#28);
#27 = CARTESIAN_POINT('',(0.,0.,10.));
#28 = VECTOR('',#29,1.);
#29 = DIRECTION('',(0.,1.,0.));
#30 = ORIENTED_EDGE('',*,*,#31,.T.);
#31 = EDGE_CURVE('',#22,#32,#34,.T.);
#32 = VERTEX_POINT('',#33);
#33 = CARTESIAN_POINT('',(0.,0.,0.));
#34 = LINE('',#35,#36);
#35 = CARTESIAN_POINT('',(0.,0.,0.));
#36 = VECTOR('',#37,1.);
#37 = DIRECTION('',(0.,-0.342020143326,-0.939692620786));
#38 = ORIENTED_EDGE('',*,*,#39,.T.);
#39 = EDGE_CURVE('',#32,#40,#42,.T.);
#40 = VERTEX_POINT('',#41);
#41 = CARTESIAN_POINT('',(0.,7.45,0.));
#42 = LINE('',#43,#44);
#43 = CARTESIAN_POINT('',(0.,0.,0.));
#44 = VECTOR('',#45,1.);
#45 = DIRECTION('',(0.,1.,0.));
#46 = ORIENTED_EDGE('',*,*,#47,.T.);
#47 = EDGE_CURVE('',#40,#24,#48,.T.);
#48 = LINE('',#49,#50);
#49 = CARTESIAN_POINT('',(0.,7.45,-1.));
#50 = VECTOR('',#51,1.);
#51 = DIRECTION('',(0.,0.,1.));
#52 = PLANE('',#53);
#53 = AXIS2_PLACEMENT_3D('',#54,#55,#56);
#54 = CARTESIAN_POINT('',(0.,0.,0.));
#55 = DIRECTION('',(1.,0.,0.));
#56 = DIRECTION('',(0.,0.,1.));
#57 = ADVANCED_FACE('',(#58,#147),#217,.T.);
#58 = FACE_BOUND('',#59,.T.);
#59 = EDGE_LOOP('',(#60,#61,#69,#77,#85,#93,#101,#109,#117,#125,#133,
    #141));
#60 = ORIENTED_EDGE('',*,*,#21,.F.);
#61 = ORIENTED_EDGE('',*,*,#62,.T.);
#62 = EDGE_CURVE('',#22,#63,#65,.T.);
#63 = VERTEX_POINT('',#64);
#64 = CARTESIAN_POINT('',(26.,3.639702342662,10.));
#65 = LINE('',#66,#67);
#66 = CARTESIAN_POINT('',(-1.,3.639702342662,10.));
#67 = VECTOR('',#68,1.);
#68 = DIRECTION('',(1.,0.,0.));
#69 = ORIENTED_EDGE('',*,*,#70,.T.);
#70 = EDGE_CURVE('',#63,#71,#73,.T.);
#71 = VERTEX_POINT('',#72);
#72 = CARTESIAN_POINT('',(26.,7.575609756098,10.));
#73 = LINE('',#74,#75);
#74 = CARTESIAN_POINT('',(26.,0.,10.));
#75 = VECTOR('',#76,1.);
#76 = DIRECTION('',(0.,1.,0.));
#77 = ORIENTED_EDGE('',*,*,#78,.F.);
#78 = EDGE_CURVE('',#79,#71,#81,.T.);
#79 = VERTEX_POINT('',#80);
#80 = CARTESIAN_POINT('',(25.9,7.6,10.));
#81 = LINE('',#82,#83);
#82 = CARTESIAN_POINT('',(25.9,7.6,10.));
#83 = VECTOR('',#84,1.);
#84 = DIRECTION('',(0.971520338783,-0.236956180191,0.));
#85 = ORIENTED_EDGE('',*,*,#86,.F.);
#86 = EDGE_CURVE('',#87,#79,#89,.T.);
#87 = VERTEX_POINT('',#88);
#88 = CARTESIAN_POINT('',(25.9,11.6,10.));
#89 = LINE('',#90,#91);
#90 = CARTESIAN_POINT('',(25.9,11.6,10.));
#91 = VECTOR('',#92,1.);
#92 = DIRECTION('',(0.,-1.,0.));
#93 = ORIENTED_EDGE('',*,*,#94,.F.);
#94 = EDGE_CURVE('',#95,#87,#97,.T.);
#95 = VERTEX_POINT('',#96);
#96 = CARTESIAN_POINT('',(26.,11.624390243902,10.));
#97 = LINE('',#98,#99);
#98 = CARTESIAN_POINT('',(30.,12.6,10.));
#99 = VECTOR('',#100,1.);
#100 = DIRECTION('',(-0.971520338783,-0.236956180191,0.));
#101 = ORIENTED_EDGE('',*,*,#102,.T.);
#102 = EDGE_CURVE('',#95,#103,#105,.T.);
#103 = VERTEX_POINT('',#104);
#104 = CARTESIAN_POINT('',(26.,32.,10.));
#105 = LINE('',#106,#107);
#106 = CARTESIAN_POINT('',(26.,0.,10.));
#107 = VECTOR('',#108,1.);
#108 = DIRECTION('',(0.,1.,0.));
#109 = ORIENTED_EDGE('',*,*,#110,.F.);
#110 = EDGE_CURVE('',#111,#103,#113,.T.);
#111 = VERTEX_POINT('',#112);
#112 = CARTESIAN_POINT('',(0.,32.,10.));
#113 = LINE('',#114,#115);
#114 = CARTESIAN_POINT('',(0.,32.,10.));
#115 = VECTOR('',#116,1.);
#116 = DIRECTION('',(1.,0.,0.));
#117 = ORIENTED_EDGE('',*,*,#118,.F.);
#118 = EDGE_CURVE('',#119,#111,#121,.T.);
#119 = VERTEX_POINT('',#120);
#120 = CARTESIAN_POINT('',(0.,11.75,10.));
#121 = LINE('',#122,#123);
#122 = CARTESIAN_POINT('',(0.,0.,10.));
#123 = VECTOR('',#124,1.);
#124 = DIRECTION('',(0.,1.,0.));
#125 = ORIENTED_EDGE('',*,*,#126,.T.);
#126 = EDGE_CURVE('',#119,#127,#129,.T.);
#127 = VERTEX_POINT('',#128);
#128 = CARTESIAN_POINT('',(4.,12.75,10.));
#129 = LINE('',#130,#131);
#130 = CARTESIAN_POINT('',(0.617647058824,11.904411764706,10.));
#131 = VECTOR('',#132,1.);
#132 = DIRECTION('',(0.970142500145,0.242535625036,0.));
#133 = ORIENTED_EDGE('',*,*,#134,.T.);
#134 = EDGE_CURVE('',#127,#135,#137,.T.);
#135 = VERTEX_POINT('',#136);
#136 = CARTESIAN_POINT('',(4.,6.45,10.));
#137 = LINE('',#138,#139);
#138 = CARTESIAN_POINT('',(4.,3.225,10.));
#139 = VECTOR('',#140,1.);
#140 = DIRECTION('',(0.,-1.,0.));
#141 = ORIENTED_EDGE('',*,*,#142,.T.);
#142 = EDGE_CURVE('',#135,#24,#143,.T.);
#143 = LINE('',#144,#145);
#144 = CARTESIAN_POINT('',(0.876470588235,7.230882352941,10.));
#145 = VECTOR('',#146,1.);
#146 = DIRECTION('',(-0.970142500145,0.242535625036,0.));
#147 = FACE_BOUND('',#148,.T.);
#148 = EDGE_LOOP('',(#149,#160,#168,#177,#185,#194,#202,#211));
#149 = ORIENTED_EDGE('',*,*,#150,.F.);
#150 = EDGE_CURVE('',#151,#153,#155,.T.);
#151 = VERTEX_POINT('',#152);
#152 = CARTESIAN_POINT('',(9.685,23.755,10.));
#153 = VERTEX_POINT('',#154);
#154 = CARTESIAN_POINT('',(9.085,23.155,10.));
#155 = CIRCLE('',#156,0.6);
#156 = AXIS2_PLACEMENT_3D('',#157,#158,#159);
#157 = CARTESIAN_POINT('',(9.685,23.155,10.));
#158 = DIRECTION('',(0.,-0.,1.));
#159 = DIRECTION('',(0.,1.,0.));
#160 = ORIENTED_EDGE('',*,*,#161,.T.);
#161 = EDGE_CURVE('',#151,#162,#164,.T.);
#162 = VERTEX_POINT('',#163);
#163 = CARTESIAN_POINT('',(16.315,23.755,10.));
#164 = LINE('',#165,#166);
#165 = CARTESIAN_POINT('',(8.4575,23.755,10.));
#166 = VECTOR('',#167,1.);
#167 = DIRECTION('',(1.,0.,0.));
#168 = ORIENTED_EDGE('',*,*,#169,.F.);
#169 = EDGE_CURVE('',#170,#162,#172,.T.);
#170 = VERTEX_POINT('',#171);
#171 = CARTESIAN_POINT('',(16.915,23.155,10.));
#172 = CIRCLE('',#173,0.6);
#173 = AXIS2_PLACEMENT_3D('',#174,#175,#176);
#174 = CARTESIAN_POINT('',(16.315,23.155,10.));
#175 = DIRECTION('',(0.,-0.,1.));
#176 = DIRECTION('',(0.,1.,0.));
#177 = ORIENTED_EDGE('',*,*,#178,.T.);
#178 = EDGE_CURVE('',#170,#179,#181,.T.);
#179 = VERTEX_POINT('',#180);
#180 = CARTESIAN_POINT('',(16.915,16.525,10.));
#181 = LINE('',#182,#183);
#182 = CARTESIAN_POINT('',(16.915,7.9625,10.));
#183 = VECTOR('',#184,1.);
#184 = DIRECTION('',(0.,-1.,0.));
#185 = ORIENTED_EDGE('',*,*,#186,.F.);
#186 = EDGE_CURVE('',#187,#179,#189,.T.);
#187 = VERTEX_POINT('',#188);
#188 = CARTESIAN_POINT('',(16.315,15.925,10.));
#189 = CIRCLE('',#190,0.6);
#190 = AXIS2_PLACEMENT_3D('',#191,#192,#193);
#191 = CARTESIAN_POINT('',(16.315,16.525,10.));
#192 = DIRECTION('',(-0.,0.,1.));
#193 = DIRECTION('',(0.,-1.,0.));
#194 = ORIENTED_EDGE('',*,*,#195,.T.);
#195 = EDGE_CURVE('',#187,#196,#198,.T.);
#196 = VERTEX_POINT('',#197);
#197 = CARTESIAN_POINT('',(9.685,15.925,10.));
#198 = LINE('',#199,#200);
#199 = CARTESIAN_POINT('',(4.5425,15.925,10.));
#200 = VECTOR('',#201,1.);
#201 = DIRECTION('',(-1.,0.,0.));
#202 = ORIENTED_EDGE('',*,*,#203,.F.);
#203 = EDGE_CURVE('',#204,#196,#206,.T.);
#204 = VERTEX_POINT('',#205);
#205 = CARTESIAN_POINT('',(9.085,16.525,10.));
#206 = CIRCLE('',#207,0.6);
#207 = AXIS2_PLACEMENT_3D('',#208,#209,#210);
#208 = CARTESIAN_POINT('',(9.685,16.525,10.));
#209 = DIRECTION('',(0.,0.,1.));
#210 = DIRECTION('',(-1.,0.,0.));
#211 = ORIENTED_EDGE('',*,*,#212,.T.);
#212 = EDGE_CURVE('',#204,#153,#213,.T.);
#213 = LINE('',#214,#215);
#214 = CARTESIAN_POINT('',(9.085,11.8775,10.));
#215 = VECTOR('',#216,1.);
#216 = DIRECTION('',(0.,1.,0.));
#217 = PLANE('',#218);
#218 = AXIS2_PLACEMENT_3D('',#219,#220,#221);
#219 = CARTESIAN_POINT('',(0.,0.,10.));
#220 = DIRECTION('',(0.,0.,1.));
#221 = DIRECTION('',(1.,0.,0.));
#222 = ADVANCED_FACE('',(#223),#241,.T.);
#223 = FACE_BOUND('',#224,.T.);
#224 = EDGE_LOOP('',(#225,#233,#234,#235));
#225 = ORIENTED_EDGE('',*,*,#226,.T.);
#226 = EDGE_CURVE('',#227,#40,#229,.T.);
#227 = VERTEX_POINT('',#228);
#228 = CARTESIAN_POINT('',(4.,6.45,0.));
#229 = LINE('',#230,#231);
#230 = CARTESIAN_POINT('',(0.876470588235,7.230882352941,0.));
#231 = VECTOR('',#232,1.);
#232 = DIRECTION('',(-0.970142500145,0.242535625036,0.));
#233 = ORIENTED_EDGE('',*,*,#47,.T.);
#234 = ORIENTED_EDGE('',*,*,#142,.F.);
#235 = ORIENTED_EDGE('',*,*,#236,.F.);
#236 = EDGE_CURVE('',#227,#135,#237,.T.);
#237 = LINE('',#238,#239);
#238 = CARTESIAN_POINT('',(4.,6.45,-1.));
#239 = VECTOR('',#240,1.);
#240 = DIRECTION('',(0.,0.,1.));
#241 = PLANE('',#242);
#242 = AXIS2_PLACEMENT_3D('',#243,#244,#245);
#243 = CARTESIAN_POINT('',(0.,7.45,-1.));
#244 = DIRECTION('',(0.242535625036,0.970142500145,0.));
#245 = DIRECTION('',(0.970142500145,-0.242535625036,0.));
#246 = ADVANCED_FACE('',(#247),#329,.F.);
#247 = FACE_BOUND('',#248,.F.);
#248 = EDGE_LOOP('',(#249,#250,#258,#266,#274,#282,#290,#298,#306,#314,
    #322,#328));
#249 = ORIENTED_EDGE('',*,*,#39,.F.);
#250 = ORIENTED_EDGE('',*,*,#251,.T.);
#251 = EDGE_CURVE('',#32,#252,#254,.T.);
#252 = VERTEX_POINT('',#253);
#253 = CARTESIAN_POINT('',(26.,0.,0.));
#254 = LINE('',#255,#256);
#255 = CARTESIAN_POINT('',(0.,0.,0.));
#256 = VECTOR('',#257,1.);
#257 = DIRECTION('',(1.,0.,0.));
#258 = ORIENTED_EDGE('',*,*,#259,.T.);
#259 = EDGE_CURVE('',#252,#260,#262,.T.);
#260 = VERTEX_POINT('',#261);
#261 = CARTESIAN_POINT('',(26.,7.575609756098,0.));
#262 = LINE('',#263,#264);
#263 = CARTESIAN_POINT('',(26.,0.,0.));
#264 = VECTOR('',#265,1.);
#265 = DIRECTION('',(0.,1.,0.));
#266 = ORIENTED_EDGE('',*,*,#267,.F.);
#267 = EDGE_CURVE('',#268,#260,#270,.T.);
#268 = VERTEX_POINT('',#269);
#269 = CARTESIAN_POINT('',(25.9,7.6,0.));
#270 = LINE('',#271,#272);
#271 = CARTESIAN_POINT('',(25.9,7.6,0.));
#272 = VECTOR('',#273,1.);
#273 = DIRECTION('',(0.971520338783,-0.236956180191,0.));
#274 = ORIENTED_EDGE('',*,*,#275,.F.);
#275 = EDGE_CURVE('',#276,#268,#278,.T.);
#276 = VERTEX_POINT('',#277);
#277 = CARTESIAN_POINT('',(25.9,11.6,0.));
#278 = LINE('',#279,#280);
#279 = CARTESIAN_POINT('',(25.9,11.6,0.));
#280 = VECTOR('',#281,1.);
#281 = DIRECTION('',(0.,-1.,0.));
#282 = ORIENTED_EDGE('',*,*,#283,.F.);
#283 = EDGE_CURVE('',#284,#276,#286,.T.);
#284 = VERTEX_POINT('',#285);
#285 = CARTESIAN_POINT('',(26.,11.624390243902,0.));
#286 = LINE('',#287,#288);
#287 = CARTESIAN_POINT('',(30.,12.6,0.));
#288 = VECTOR('',#289,1.);
#289 = DIRECTION('',(-0.971520338783,-0.236956180191,0.));
#290 = ORIENTED_EDGE('',*,*,#291,.T.);
#291 = EDGE_CURVE('',#284,#292,#294,.T.);
#292 = VERTEX_POINT('',#293);
#293 = CARTESIAN_POINT('',(26.,32.,0.));
#294 = LINE('',#295,#296);
#295 = CARTESIAN_POINT('',(26.,0.,0.));
#296 = VECTOR('',#297,1.);
#297 = DIRECTION('',(0.,1.,0.));
#298 = ORIENTED_EDGE('',*,*,#299,.F.);
#299 = EDGE_CURVE('',#300,#292,#302,.T.);
#300 = VERTEX_POINT('',#301);
#301 = CARTESIAN_POINT('',(0.,32.,0.));
#302 = LINE('',#303,#304);
#303 = CARTESIAN_POINT('',(0.,32.,0.));
#304 = VECTOR('',#305,1.);
#305 = DIRECTION('',(1.,0.,0.));
#306 = ORIENTED_EDGE('',*,*,#307,.F.);
#307 = EDGE_CURVE('',#308,#300,#310,.T.);
#308 = VERTEX_POINT('',#309);
#309 = CARTESIAN_POINT('',(0.,11.75,0.));
#310 = LINE('',#311,#312);
#311 = CARTESIAN_POINT('',(0.,0.,0.));
#312 = VECTOR('',#313,1.);
#313 = DIRECTION('',(0.,1.,0.));
#314 = ORIENTED_EDGE('',*,*,#315,.T.);
#315 = EDGE_CURVE('',#308,#316,#318,.T.);
#316 = VERTEX_POINT('',#317);
#317 = CARTESIAN_POINT('',(4.,12.75,0.));
#318 = LINE('',#319,#320);
#319 = CARTESIAN_POINT('',(0.617647058824,11.904411764706,0.));
#320 = VECTOR('',#321,1.);
#321 = DIRECTION('',(0.970142500145,0.242535625036,0.));
#322 = ORIENTED_EDGE('',*,*,#323,.T.);
#323 = EDGE_CURVE('',#316,#227,#324,.T.);
#324 = LINE('',#325,#326);
#325 = CARTESIAN_POINT('',(4.,3.225,0.));
#326 = VECTOR('',#327,1.);
#327 = DIRECTION('',(0.,-1.,0.));
#328 = ORIENTED_EDGE('',*,*,#226,.T.);
#329 = PLANE('',#330);
#330 = AXIS2_PLACEMENT_3D('',#331,#332,#333);
#331 = CARTESIAN_POINT('',(0.,0.,0.));
#332 = DIRECTION('',(0.,0.,1.));
#333 = DIRECTION('',(1.,0.,0.));
#334 = ADVANCED_FACE('',(#335,#346,#457),#545,.T.);
#335 = FACE_BOUND('',#336,.T.);
#336 = EDGE_LOOP('',(#337,#338,#339,#345));
#337 = ORIENTED_EDGE('',*,*,#31,.T.);
#338 = ORIENTED_EDGE('',*,*,#251,.T.);
#339 = ORIENTED_EDGE('',*,*,#340,.F.);
#340 = EDGE_CURVE('',#63,#252,#341,.T.);
#341 = LINE('',#342,#343);
#342 = CARTESIAN_POINT('',(26.,0.,0.));
#343 = VECTOR('',#344,1.);
#344 = DIRECTION('',(0.,-0.342020143326,-0.939692620786));
#345 = ORIENTED_EDGE('',*,*,#62,.F.);
#346 = FACE_BOUND('',#347,.T.);
#347 = EDGE_LOOP('',(#348,#358,#366,#374,#386,#401,#413,#421,#436,#451)
  );
#348 = ORIENTED_EDGE('',*,*,#349,.F.);
#349 = EDGE_CURVE('',#350,#352,#354,.T.);
#350 = VERTEX_POINT('',#351);
#351 = CARTESIAN_POINT('',(13.131464968153,2.719975768278,7.473072004807
    ));
#352 = VERTEX_POINT('',#353);
#353 = CARTESIAN_POINT('',(13.131464968153,2.493182283854,6.849962027474
    ));
#354 = LINE('',#355,#356);
#355 = CARTESIAN_POINT('',(13.131464968153,1.246591141927,3.424981013737
    ));
#356 = VECTOR('',#357,1.);
#357 = DIRECTION('',(-0.,-0.342020143326,-0.939692620786));
#358 = ORIENTED_EDGE('',*,*,#359,.F.);
#359 = EDGE_CURVE('',#360,#350,#362,.T.);
#360 = VERTEX_POINT('',#361);
#361 = CARTESIAN_POINT('',(15.579872611465,2.719975768278,7.473072004807
    ));
#362 = LINE('',#363,#364);
#363 = CARTESIAN_POINT('',(6.065732484076,2.719975768278,7.473072004807)
  );
#364 = VECTOR('',#365,1.);
#365 = DIRECTION('',(-1.,0.,0.));
#366 = ORIENTED_EDGE('',*,*,#367,.F.);
#367 = EDGE_CURVE('',#368,#360,#370,.T.);
#368 = VERTEX_POINT('',#369);
#369 = CARTESIAN_POINT('',(15.579872611465,2.541515321518,6.98275595707)
  );
#370 = LINE('',#371,#372);
#371 = CARTESIAN_POINT('',(15.579872611465,1.359987884139,3.736536002404
    ));
#372 = VECTOR('',#373,1.);
#373 = DIRECTION('',(0.,0.342020143326,0.939692620786));
#374 = ORIENTED_EDGE('',*,*,#375,.F.);
#375 = EDGE_CURVE('',#376,#368,#378,.T.);
#376 = VERTEX_POINT('',#377);
#377 = CARTESIAN_POINT('',(14.963312101911,2.24779916956,6.175777461835)
  );
#378 = B_SPLINE_CURVE_WITH_KNOTS('',6,(#379,#380,#381,#382,#383,#384,
    #385),.UNSPECIFIED.,.F.,.F.,(7,7),(0.,1.),.PIECEWISE_BEZIER_KNOTS.);
#379 = CARTESIAN_POINT('',(14.963312101911,2.24779916956,6.175777461835)
  );
#380 = CARTESIAN_POINT('',(15.057085361794,2.30509480377,6.333195923059)
  );
#381 = CARTESIAN_POINT('',(15.154058277601,2.359886309749,6.483734348516
    ));
#382 = CARTESIAN_POINT('',(15.254628421152,2.411746650359,6.626219463306
    ));
#383 = CARTESIAN_POINT('',(15.359063490775,2.45998032297,6.758740389662)
  );
#384 = CARTESIAN_POINT('',(15.467501566856,2.503620440298,6.878640626605
    ));
#385 = CARTESIAN_POINT('',(15.579872611465,2.541515321518,6.98275595707)
  );
#386 = ORIENTED_EDGE('',*,*,#387,.F.);
#387 = EDGE_CURVE('',#388,#376,#390,.T.);
#388 = VERTEX_POINT('',#389);
#389 = CARTESIAN_POINT('',(14.485520169851,1.840918645763,5.057882410288
    ));
#390 = B_SPLINE_CURVE_WITH_KNOTS('',5,(#391,#392,#393,#394,#395,#396,
    #397,#398,#399,#400),.UNSPECIFIED.,.F.,.F.,(6,4,6),(0.,
    0.729619825337,1.),.UNSPECIFIED.);
#391 = CARTESIAN_POINT('',(14.485520169851,1.840918645763,5.057882410288
    ));
#392 = CARTESIAN_POINT('',(14.533119553897,1.903297083472,5.229265759353
    ));
#393 = CARTESIAN_POINT('',(14.588775987258,1.964748610592,5.398102442506
    ));
#394 = CARTESIAN_POINT('',(14.652577196856,2.025142863708,5.564034289208
    ));
#395 = CARTESIAN_POINT('',(14.724503026314,2.084358406519,5.726727655961
    ));
#396 = CARTESIAN_POINT('',(14.834010934001,2.163752494981,5.94486112125)
  );
#397 = CARTESIAN_POINT('',(14.864714861959,2.185042346121,6.003354506519
    ));
#398 = CARTESIAN_POINT('',(14.896506458079,2.206150026943,6.061347382956
    ));
#399 = CARTESIAN_POINT('',(14.929376113265,2.227070509043,6.11882593513)
  );
#400 = CARTESIAN_POINT('',(14.963312101911,2.24779916956,6.175777461835)
  );
#401 = ORIENTED_EDGE('',*,*,#402,.F.);
#402 = EDGE_CURVE('',#403,#388,#405,.T.);
#403 = VERTEX_POINT('',#404);
#404 = CARTESIAN_POINT('',(14.323821656051,1.455880937065,4.));
#405 = B_SPLINE_CURVE_WITH_KNOTS('',6,(#406,#407,#408,#409,#410,#411,
    #412),.UNSPECIFIED.,.F.,.F.,(7,7),(0.,1.),.PIECEWISE_BEZIER_KNOTS.);
#406 = CARTESIAN_POINT('',(14.323821656051,1.455880937065,4.));
#407 = CARTESIAN_POINT('',(14.322906200195,1.516811042195,4.167404088011
    ));
#408 = CARTESIAN_POINT('',(14.334938175759,1.579531513582,4.339727166883
    ));
#409 = CARTESIAN_POINT('',(14.358513354341,1.643609082209,4.51577883978)
  );
#410 = CARTESIAN_POINT('',(14.392235057304,1.70868805856,4.694581857785)
  );
#411 = CARTESIAN_POINT('',(14.434898073156,1.774510374791,4.875427185327
    ));
#412 = CARTESIAN_POINT('',(14.485520169851,1.840918645763,5.057882410288
    ));
#413 = ORIENTED_EDGE('',*,*,#414,.F.);
#414 = EDGE_CURVE('',#415,#403,#417,.T.);
#415 = VERTEX_POINT('',#416);
#416 = CARTESIAN_POINT('',(13.633375796178,1.455880937065,4.));
#417 = LINE('',#418,#419);
#418 = CARTESIAN_POINT('',(6.661910828025,1.455880937065,4.));
#419 = VECTOR('',#420,1.);
#420 = DIRECTION('',(1.,0.,0.));
#421 = ORIENTED_EDGE('',*,*,#422,.F.);
#422 = EDGE_CURVE('',#423,#415,#425,.T.);
#423 = VERTEX_POINT('',#424);
#424 = CARTESIAN_POINT('',(13.953036093418,1.998581944105,5.491058762358
    ));
#425 = B_SPLINE_CURVE_WITH_KNOTS('',5,(#426,#427,#428,#429,#430,#431,
    #432,#433,#434,#435),.UNSPECIFIED.,.F.,.F.,(6,4,6),(0.,
    0.509537405266,1.),.UNSPECIFIED.);
#426 = CARTESIAN_POINT('',(13.953036093418,1.998581944105,5.491058762358
    ));
#427 = CARTESIAN_POINT('',(13.894163652169,1.944634051623,5.342838145938
    ));
#428 = CARTESIAN_POINT('',(13.841247393862,1.890204559752,5.19329434607)
  );
#429 = CARTESIAN_POINT('',(13.794691080434,1.835342416094,5.042561845185
    ));
#430 = CARTESIAN_POINT('',(13.754897845106,1.780116111685,4.890828820861
    ));
#431 = CARTESIAN_POINT('',(13.690742050403,1.671196065331,4.591573452979
    ));
#432 = CARTESIAN_POINT('',(13.665856967351,1.617521364221,4.444103423683
    ));
#433 = CARTESIAN_POINT('',(13.647857268731,1.563676791211,4.296166675179
    ));
#434 = CARTESIAN_POINT('',(13.636986511256,1.509759486754,4.148030098664
    ));
#435 = CARTESIAN_POINT('',(13.633375796178,1.455880937065,4.));
#436 = ORIENTED_EDGE('',*,*,#437,.F.);
#437 = EDGE_CURVE('',#438,#423,#440,.T.);
#438 = VERTEX_POINT('',#439);
#439 = CARTESIAN_POINT('',(14.75949044586,2.493182283854,6.849962027474)
  );
#440 = B_SPLINE_CURVE_WITH_KNOTS('',5,(#441,#442,#443,#444,#445,#446,
    #447,#448,#449,#450),.UNSPECIFIED.,.F.,.F.,(6,4,6),(0.,
    0.496370005955,1.),.UNSPECIFIED.);
#441 = CARTESIAN_POINT('',(14.75949044586,2.493182283854,6.849962027474)
  );
#442 = CARTESIAN_POINT('',(14.657667812539,2.449187378319,6.729087017944
    ));
#443 = CARTESIAN_POINT('',(14.561100682318,2.403741693385,6.604226024778
    ));
#444 = CARTESIAN_POINT('',(14.469939479357,2.356924837213,6.475597769595
    ));
#445 = CARTESIAN_POINT('',(14.384250990909,2.308830252381,6.343458983771
    ));
#446 = CARTESIAN_POINT('',(14.222646682805,2.209571245261,6.070747103032
    ));
#447 = CARTESIAN_POINT('',(14.146890451246,2.158371155449,5.930076012398
    ));
#448 = CARTESIAN_POINT('',(14.07676582215,2.106067489419,5.786372871027)
  );
#449 = CARTESIAN_POINT('',(14.012190788886,2.052769372634,5.639937498661
    ));
#450 = CARTESIAN_POINT('',(13.953036093418,1.998581944105,5.491058762358
    ));
#451 = ORIENTED_EDGE('',*,*,#452,.F.);
#452 = EDGE_CURVE('',#352,#438,#453,.T.);
#453 = LINE('',#454,#455);
#454 = CARTESIAN_POINT('',(6.87974522293,2.493182283854,6.849962027474)
  );
#455 = VECTOR('',#456,1.);
#456 = DIRECTION('',(1.,0.,0.));
#457 = FACE_BOUND('',#458,.T.);
#458 = EDGE_LOOP('',(#459,#469,#477,#492,#500,#512,#531,#539));
#459 = ORIENTED_EDGE('',*,*,#460,.F.);
#460 = EDGE_CURVE('',#461,#463,#465,.T.);
#461 = VERTEX_POINT('',#462);
#462 = CARTESIAN_POINT('',(11.344968152866,1.455880937065,4.));
#463 = VERTEX_POINT('',#464);
#464 = CARTESIAN_POINT('',(12.060891719745,1.455880937065,4.));
#465 = LINE('',#466,#467);
#466 = CARTESIAN_POINT('',(5.530445859873,1.455880937065,4.));
#467 = VECTOR('',#468,1.);
#468 = DIRECTION('',(1.,0.,0.));
#469 = ORIENTED_EDGE('',*,*,#470,.F.);
#470 = EDGE_CURVE('',#471,#461,#473,.T.);
#471 = VERTEX_POINT('',#472);
#472 = CARTESIAN_POINT('',(11.344968152866,2.382109245376,6.544791362346
    ));
#473 = LINE('',#474,#475);
#474 = CARTESIAN_POINT('',(11.344968152866,0.727940468532,2.));
#475 = VECTOR('',#476,1.);
#476 = DIRECTION('',(-0.,-0.342020143326,-0.939692620786));
#477 = ORIENTED_EDGE('',*,*,#478,.F.);
#478 = EDGE_CURVE('',#479,#471,#481,.T.);
#479 = VERTEX_POINT('',#480);
#480 = CARTESIAN_POINT('',(10.420127388535,2.195748205922,6.032768614578
    ));
#481 = B_SPLINE_CURVE_WITH_KNOTS('',5,(#482,#483,#484,#485,#486,#487,
    #488,#489,#490,#491),.UNSPECIFIED.,.F.,.F.,(6,4,6),(0.,
    0.723532752039,1.),.UNSPECIFIED.);
#482 = CARTESIAN_POINT('',(10.420127388535,2.195748205922,6.032768614578
    ));
#483 = CARTESIAN_POINT('',(10.571206625262,2.212873359269,6.079819586705
    ));
#484 = CARTESIAN_POINT('',(10.717185995254,2.233522330948,6.136552170127
    ));
#485 = CARTESIAN_POINT('',(10.857156176755,2.257803848753,6.203265092008
    ));
#486 = CARTESIAN_POINT('',(10.990297544563,2.28572395818,6.279974962205)
  );
#487 = CARTESIAN_POINT('',(11.164015575132,2.329123500893,6.399214225825
    ));
#488 = CARTESIAN_POINT('',(11.210956916635,2.341630760276,6.433577638559
    ));
#489 = CARTESIAN_POINT('',(11.256779266616,2.354638420102,6.469315890211
    ));
#490 = CARTESIAN_POINT('',(11.301456259806,2.368135679869,6.506399306646
    ));
#491 = CARTESIAN_POINT('',(11.344968152866,2.382109245376,6.544791362346
    ));
#492 = ORIENTED_EDGE('',*,*,#493,.F.);
#493 = EDGE_CURVE('',#494,#479,#496,.T.);
#494 = VERTEX_POINT('',#495);
#495 = CARTESIAN_POINT('',(10.420127388535,2.418823764371,6.64566367425)
  );
#496 = LINE('',#497,#498);
#497 = CARTESIAN_POINT('',(10.420127388535,1.097874102961,3.016384307289
    ));
#498 = VECTOR('',#499,1.);
#499 = DIRECTION('',(-0.,-0.342020143326,-0.939692620786));
#500 = ORIENTED_EDGE('',*,*,#501,.F.);
#501 = EDGE_CURVE('',#502,#494,#504,.T.);
#502 = VERTEX_POINT('',#503);
#503 = CARTESIAN_POINT('',(11.029044585987,2.537797395544,6.972541039408
    ));
#504 = B_SPLINE_CURVE_WITH_KNOTS('',6,(#505,#506,#507,#508,#509,#510,
    #511),.UNSPECIFIED.,.F.,.F.,(7,7),(0.,1.),.PIECEWISE_BEZIER_KNOTS.);
#505 = CARTESIAN_POINT('',(11.029044585987,2.537797395544,6.972541039408
    ));
#506 = CARTESIAN_POINT('',(10.925973727018,2.5103242775,6.89705926794));
#507 = CARTESIAN_POINT('',(10.823103737975,2.485461594455,6.828749607688
    ));
#508 = CARTESIAN_POINT('',(10.720675499914,2.463520866936,6.768467954263
    ));
#509 = CARTESIAN_POINT('',(10.619045571503,2.444859708824,6.717196843729
    ));
#510 = CARTESIAN_POINT('',(10.518679080178,2.429855036128,6.675971844309
    ));
#511 = CARTESIAN_POINT('',(10.420127388535,2.418823764371,6.64566367425)
  );
#512 = ORIENTED_EDGE('',*,*,#513,.F.);
#513 = EDGE_CURVE('',#514,#502,#516,.T.);
#514 = VERTEX_POINT('',#515);
#515 = CARTESIAN_POINT('',(11.48,2.742283324123,7.534361510774));
#516 = B_SPLINE_CURVE_WITH_KNOTS('',5,(#517,#518,#519,#520,#521,#522,
    #523,#524,#525,#526,#527,#528,#529,#530),.UNSPECIFIED.,.F.,.F.,(6,4,
    4,6),(0.,7.672019752048E-02,0.533182313786,1.),.UNSPECIFIED.);
#517 = CARTESIAN_POINT('',(11.48,2.742283324123,7.534361510774));
#518 = CARTESIAN_POINT('',(11.476185468822,2.738639373968,7.524349840005
    ));
#519 = CARTESIAN_POINT('',(11.472244691535,2.735012433289,7.514384902388
    ));
#520 = CARTESIAN_POINT('',(11.468177820377,2.731402756931,7.504467398103
    ));
#521 = CARTESIAN_POINT('',(11.463985074786,2.727810590957,7.494598003202
    ));
#522 = CARTESIAN_POINT('',(11.433973955677,2.702969458038,7.426347551436
    ));
#523 = CARTESIAN_POINT('',(11.403834789972,2.682330394408,7.369642190152
    ));
#524 = CARTESIAN_POINT('',(11.369311177997,2.662370786818,7.314803618997
    ));
#525 = CARTESIAN_POINT('',(11.330546583621,2.643125759746,7.261928341682
    ));
#526 = CARTESIAN_POINT('',(11.243974906554,2.605688263102,7.15906966501)
  );
#527 = CARTESIAN_POINT('',(11.195980725147,2.587528785844,7.109176911294
    ));
#528 = CARTESIAN_POINT('',(11.143980736278,2.570160917499,7.061459085194
    ));
#529 = CARTESIAN_POINT('',(11.088242905908,2.553586930406,7.015922429904
    ));
#530 = CARTESIAN_POINT('',(11.029044585987,2.537797395544,6.972541039408
    ));
#531 = ORIENTED_EDGE('',*,*,#532,.F.);
#532 = EDGE_CURVE('',#533,#514,#535,.T.);
#533 = VERTEX_POINT('',#534);
#534 = CARTESIAN_POINT('',(12.060891719745,2.742283324123,7.534361510774
    ));
#535 = LINE('',#536,#537);
#536 = CARTESIAN_POINT('',(5.24,2.742283324123,7.534361510774));
#537 = VECTOR('',#538,1.);
#538 = DIRECTION('',(-1.,0.,0.));
#539 = ORIENTED_EDGE('',*,*,#540,.F.);
#540 = EDGE_CURVE('',#463,#533,#541,.T.);
#541 = LINE('',#542,#543);
#542 = CARTESIAN_POINT('',(12.060891719745,1.371141662061,3.767180755387
    ));
#543 = VECTOR('',#544,1.);
#544 = DIRECTION('',(0.,0.342020143326,0.939692620786));
#545 = PLANE('',#546);
#546 = AXIS2_PLACEMENT_3D('',#547,#548,#549);
#547 = CARTESIAN_POINT('',(-1.,0.,0.));
#548 = DIRECTION('',(0.,-0.939692620786,0.342020143326));
#549 = DIRECTION('',(0.,0.342020143326,0.939692620786));
#550 = ADVANCED_FACE('',(#551),#562,.T.);
#551 = FACE_BOUND('',#552,.T.);
#552 = EDGE_LOOP('',(#553,#554,#555,#556));
#553 = ORIENTED_EDGE('',*,*,#323,.T.);
#554 = ORIENTED_EDGE('',*,*,#236,.T.);
#555 = ORIENTED_EDGE('',*,*,#134,.F.);
#556 = ORIENTED_EDGE('',*,*,#557,.F.);
#557 = EDGE_CURVE('',#316,#127,#558,.T.);
#558 = LINE('',#559,#560);
#559 = CARTESIAN_POINT('',(4.,12.75,-1.));
#560 = VECTOR('',#561,1.);
#561 = DIRECTION('',(0.,0.,1.));
#562 = PLANE('',#563);
#563 = AXIS2_PLACEMENT_3D('',#564,#565,#566);
#564 = CARTESIAN_POINT('',(4.,6.45,-1.));
#565 = DIRECTION('',(-1.,0.,0.));
#566 = DIRECTION('',(0.,1.,0.));
#567 = ADVANCED_FACE('',(#568),#579,.T.);
#568 = FACE_BOUND('',#569,.T.);
#569 = EDGE_LOOP('',(#570,#571,#572,#573));
#570 = ORIENTED_EDGE('',*,*,#315,.T.);
#571 = ORIENTED_EDGE('',*,*,#557,.T.);
#572 = ORIENTED_EDGE('',*,*,#126,.F.);
#573 = ORIENTED_EDGE('',*,*,#574,.F.);
#574 = EDGE_CURVE('',#308,#119,#575,.T.);
#575 = LINE('',#576,#577);
#576 = CARTESIAN_POINT('',(0.,11.75,-1.));
#577 = VECTOR('',#578,1.);
#578 = DIRECTION('',(0.,0.,1.));
#579 = PLANE('',#580);
#580 = AXIS2_PLACEMENT_3D('',#581,#582,#583);
#581 = CARTESIAN_POINT('',(4.,12.75,-1.));
#582 = DIRECTION('',(0.242535625036,-0.970142500145,0.));
#583 = DIRECTION('',(-0.970142500145,-0.242535625036,0.));
#584 = ADVANCED_FACE('',(#585),#596,.F.);
#585 = FACE_BOUND('',#586,.F.);
#586 = EDGE_LOOP('',(#587,#588,#589,#590));
#587 = ORIENTED_EDGE('',*,*,#118,.F.);
#588 = ORIENTED_EDGE('',*,*,#574,.F.);
#589 = ORIENTED_EDGE('',*,*,#307,.T.);
#590 = ORIENTED_EDGE('',*,*,#591,.T.);
#591 = EDGE_CURVE('',#300,#111,#592,.T.);
#592 = LINE('',#593,#594);
#593 = CARTESIAN_POINT('',(0.,32.,0.));
#594 = VECTOR('',#595,1.);
#595 = DIRECTION('',(0.,0.,1.));
#596 = PLANE('',#597);
#597 = AXIS2_PLACEMENT_3D('',#598,#599,#600);
#598 = CARTESIAN_POINT('',(0.,0.,0.));
#599 = DIRECTION('',(1.,0.,0.));
#600 = DIRECTION('',(0.,0.,1.));
#601 = ADVANCED_FACE('',(#602),#613,.T.);
#602 = FACE_BOUND('',#603,.T.);
#603 = EDGE_LOOP('',(#604,#605,#606,#607));
#604 = ORIENTED_EDGE('',*,*,#299,.F.);
#605 = ORIENTED_EDGE('',*,*,#591,.T.);
#606 = ORIENTED_EDGE('',*,*,#110,.T.);
#607 = ORIENTED_EDGE('',*,*,#608,.F.);
#608 = EDGE_CURVE('',#292,#103,#609,.T.);
#609 = LINE('',#610,#611);
#610 = CARTESIAN_POINT('',(26.,32.,0.));
#611 = VECTOR('',#612,1.);
#612 = DIRECTION('',(0.,0.,1.));
#613 = PLANE('',#614);
#614 = AXIS2_PLACEMENT_3D('',#615,#616,#617);
#615 = CARTESIAN_POINT('',(0.,32.,0.));
#616 = DIRECTION('',(0.,1.,0.));
#617 = DIRECTION('',(0.,0.,1.));
#618 = ADVANCED_FACE('',(#619),#630,.T.);
#619 = FACE_BOUND('',#620,.T.);
#620 = EDGE_LOOP('',(#621,#622,#628,#629));
#621 = ORIENTED_EDGE('',*,*,#102,.F.);
#622 = ORIENTED_EDGE('',*,*,#623,.T.);
#623 = EDGE_CURVE('',#95,#284,#624,.T.);
#624 = LINE('',#625,#626);
#625 = CARTESIAN_POINT('',(26.,11.624390243902,0.));
#626 = VECTOR('',#627,1.);
#627 = DIRECTION('',(0.,0.,-1.));
#628 = ORIENTED_EDGE('',*,*,#291,.T.);
#629 = ORIENTED_EDGE('',*,*,#608,.T.);
#630 = PLANE('',#631);
#631 = AXIS2_PLACEMENT_3D('',#632,#633,#634);
#632 = CARTESIAN_POINT('',(26.,0.,0.));
#633 = DIRECTION('',(1.,0.,0.));
#634 = DIRECTION('',(0.,0.,1.));
#635 = ADVANCED_FACE('',(#636),#647,.T.);
#636 = FACE_BOUND('',#637,.T.);
#637 = EDGE_LOOP('',(#638,#639,#645,#646));
#638 = ORIENTED_EDGE('',*,*,#78,.T.);
#639 = ORIENTED_EDGE('',*,*,#640,.T.);
#640 = EDGE_CURVE('',#71,#95,#641,.T.);
#641 = LINE('',#642,#643);
#642 = CARTESIAN_POINT('',(26.,0.,10.));
#643 = VECTOR('',#644,1.);
#644 = DIRECTION('',(0.,1.,0.));
#645 = ORIENTED_EDGE('',*,*,#94,.T.);
#646 = ORIENTED_EDGE('',*,*,#86,.T.);
#647 = PLANE('',#648);
#648 = AXIS2_PLACEMENT_3D('',#649,#650,#651);
#649 = CARTESIAN_POINT('',(0.,0.,10.));
#650 = DIRECTION('',(0.,0.,1.));
#651 = DIRECTION('',(1.,0.,0.));
#652 = ADVANCED_FACE('',(#653),#664,.T.);
#653 = FACE_BOUND('',#654,.T.);
#654 = EDGE_LOOP('',(#655,#656,#657,#658));
#655 = ORIENTED_EDGE('',*,*,#70,.F.);
#656 = ORIENTED_EDGE('',*,*,#340,.T.);
#657 = ORIENTED_EDGE('',*,*,#259,.T.);
#658 = ORIENTED_EDGE('',*,*,#659,.T.);
#659 = EDGE_CURVE('',#260,#71,#660,.T.);
#660 = LINE('',#661,#662);
#661 = CARTESIAN_POINT('',(26.,7.575609756098,0.));
#662 = VECTOR('',#663,1.);
#663 = DIRECTION('',(0.,0.,1.));
#664 = PLANE('',#665);
#665 = AXIS2_PLACEMENT_3D('',#666,#667,#668);
#666 = CARTESIAN_POINT('',(26.,0.,0.));
#667 = DIRECTION('',(1.,0.,0.));
#668 = DIRECTION('',(0.,0.,1.));
#669 = ADVANCED_FACE('',(#670),#696,.T.);
#670 = FACE_BOUND('',#671,.T.);
#671 = EDGE_LOOP('',(#672,#680,#681,#689));
#672 = ORIENTED_EDGE('',*,*,#673,.F.);
#673 = EDGE_CURVE('',#151,#674,#676,.T.);
#674 = VERTEX_POINT('',#675);
#675 = CARTESIAN_POINT('',(9.685,23.755,20.5));
#676 = LINE('',#677,#678);
#677 = CARTESIAN_POINT('',(9.685,23.755,9.9));
#678 = VECTOR('',#679,1.);
#679 = DIRECTION('',(0.,0.,1.));
#680 = ORIENTED_EDGE('',*,*,#150,.T.);
#681 = ORIENTED_EDGE('',*,*,#682,.T.);
#682 = EDGE_CURVE('',#153,#683,#685,.T.);
#683 = VERTEX_POINT('',#684);
#684 = CARTESIAN_POINT('',(9.085,23.155,20.5));
#685 = LINE('',#686,#687);
#686 = CARTESIAN_POINT('',(9.085,23.155,9.9));
#687 = VECTOR('',#688,1.);
#688 = DIRECTION('',(0.,0.,1.));
#689 = ORIENTED_EDGE('',*,*,#690,.F.);
#690 = EDGE_CURVE('',#674,#683,#691,.T.);
#691 = CIRCLE('',#692,0.6);
#692 = AXIS2_PLACEMENT_3D('',#693,#694,#695);
#693 = CARTESIAN_POINT('',(9.685,23.155,20.5));
#694 = DIRECTION('',(0.,-0.,1.));
#695 = DIRECTION('',(0.,1.,0.));
#696 = CYLINDRICAL_SURFACE('',#697,0.6);
#697 = AXIS2_PLACEMENT_3D('',#698,#699,#700);
#698 = CARTESIAN_POINT('',(9.685,23.155,9.9));
#699 = DIRECTION('',(0.,0.,1.));
#700 = DIRECTION('',(0.,1.,0.));
#701 = ADVANCED_FACE('',(#702),#720,.F.);
#702 = FACE_BOUND('',#703,.F.);
#703 = EDGE_LOOP('',(#704,#705,#713,#719));
#704 = ORIENTED_EDGE('',*,*,#161,.T.);
#705 = ORIENTED_EDGE('',*,*,#706,.T.);
#706 = EDGE_CURVE('',#162,#707,#709,.T.);
#707 = VERTEX_POINT('',#708);
#708 = CARTESIAN_POINT('',(16.315,23.755,20.5));
#709 = LINE('',#710,#711);
#710 = CARTESIAN_POINT('',(16.315,23.755,9.9));
#711 = VECTOR('',#712,1.);
#712 = DIRECTION('',(0.,0.,1.));
#713 = ORIENTED_EDGE('',*,*,#714,.T.);
#714 = EDGE_CURVE('',#707,#674,#715,.T.);
#715 = LINE('',#716,#717);
#716 = CARTESIAN_POINT('',(16.315,23.755,20.5));
#717 = VECTOR('',#718,1.);
#718 = DIRECTION('',(-1.,0.,0.));
#719 = ORIENTED_EDGE('',*,*,#673,.F.);
#720 = PLANE('',#721);
#721 = AXIS2_PLACEMENT_3D('',#722,#723,#724);
#722 = CARTESIAN_POINT('',(16.915,23.755,9.9));
#723 = DIRECTION('',(0.,-1.,0.));
#724 = DIRECTION('',(-1.,0.,0.));
#725 = ADVANCED_FACE('',(#726),#744,.F.);
#726 = FACE_BOUND('',#727,.F.);
#727 = EDGE_LOOP('',(#728,#729,#730,#738));
#728 = ORIENTED_EDGE('',*,*,#212,.T.);
#729 = ORIENTED_EDGE('',*,*,#682,.T.);
#730 = ORIENTED_EDGE('',*,*,#731,.T.);
#731 = EDGE_CURVE('',#683,#732,#734,.T.);
#732 = VERTEX_POINT('',#733);
#733 = CARTESIAN_POINT('',(9.085,16.525,20.5));
#734 = LINE('',#735,#736);
#735 = CARTESIAN_POINT('',(9.085,23.155,20.5));
#736 = VECTOR('',#737,1.);
#737 = DIRECTION('',(0.,-1.,0.));
#738 = ORIENTED_EDGE('',*,*,#739,.F.);
#739 = EDGE_CURVE('',#204,#732,#740,.T.);
#740 = LINE('',#741,#742);
#741 = CARTESIAN_POINT('',(9.085,16.525,9.9));
#742 = VECTOR('',#743,1.);
#743 = DIRECTION('',(0.,0.,1.));
#744 = PLANE('',#745);
#745 = AXIS2_PLACEMENT_3D('',#746,#747,#748);
#746 = CARTESIAN_POINT('',(9.085,23.755,9.9));
#747 = DIRECTION('',(1.,0.,0.));
#748 = DIRECTION('',(0.,-1.,0.));
#749 = ADVANCED_FACE('',(#750),#769,.T.);
#750 = FACE_BOUND('',#751,.F.);
#751 = EDGE_LOOP('',(#752,#753,#754,#762));
#752 = ORIENTED_EDGE('',*,*,#706,.F.);
#753 = ORIENTED_EDGE('',*,*,#169,.F.);
#754 = ORIENTED_EDGE('',*,*,#755,.T.);
#755 = EDGE_CURVE('',#170,#756,#758,.T.);
#756 = VERTEX_POINT('',#757);
#757 = CARTESIAN_POINT('',(16.915,23.155,20.5));
#758 = LINE('',#759,#760);
#759 = CARTESIAN_POINT('',(16.915,23.155,9.9));
#760 = VECTOR('',#761,1.);
#761 = DIRECTION('',(0.,0.,1.));
#762 = ORIENTED_EDGE('',*,*,#763,.T.);
#763 = EDGE_CURVE('',#756,#707,#764,.T.);
#764 = CIRCLE('',#765,0.6);
#765 = AXIS2_PLACEMENT_3D('',#766,#767,#768);
#766 = CARTESIAN_POINT('',(16.315,23.155,20.5));
#767 = DIRECTION('',(0.,0.,1.));
#768 = DIRECTION('',(1.,0.,0.));
#769 = CYLINDRICAL_SURFACE('',#770,0.6);
#770 = AXIS2_PLACEMENT_3D('',#771,#772,#773);
#771 = CARTESIAN_POINT('',(16.315,23.155,9.9));
#772 = DIRECTION('',(0.,0.,1.));
#773 = DIRECTION('',(0.,1.,0.));
#774 = ADVANCED_FACE('',(#775),#794,.T.);
#775 = FACE_BOUND('',#776,.T.);
#776 = EDGE_LOOP('',(#777,#778,#779,#787));
#777 = ORIENTED_EDGE('',*,*,#739,.F.);
#778 = ORIENTED_EDGE('',*,*,#203,.T.);
#779 = ORIENTED_EDGE('',*,*,#780,.T.);
#780 = EDGE_CURVE('',#196,#781,#783,.T.);
#781 = VERTEX_POINT('',#782);
#782 = CARTESIAN_POINT('',(9.685,15.925,20.5));
#783 = LINE('',#784,#785);
#784 = CARTESIAN_POINT('',(9.685,15.925,9.9));
#785 = VECTOR('',#786,1.);
#786 = DIRECTION('',(0.,0.,1.));
#787 = ORIENTED_EDGE('',*,*,#788,.F.);
#788 = EDGE_CURVE('',#732,#781,#789,.T.);
#789 = CIRCLE('',#790,0.6);
#790 = AXIS2_PLACEMENT_3D('',#791,#792,#793);
#791 = CARTESIAN_POINT('',(9.685,16.525,20.5));
#792 = DIRECTION('',(0.,0.,1.));
#793 = DIRECTION('',(-1.,0.,0.));
#794 = CYLINDRICAL_SURFACE('',#795,0.6);
#795 = AXIS2_PLACEMENT_3D('',#796,#797,#798);
#796 = CARTESIAN_POINT('',(9.685,16.525,9.9));
#797 = DIRECTION('',(0.,0.,1.));
#798 = DIRECTION('',(-1.,0.,0.));
#799 = ADVANCED_FACE('',(#800),#818,.F.);
#800 = FACE_BOUND('',#801,.F.);
#801 = EDGE_LOOP('',(#802,#803,#811,#817));
#802 = ORIENTED_EDGE('',*,*,#178,.T.);
#803 = ORIENTED_EDGE('',*,*,#804,.T.);
#804 = EDGE_CURVE('',#179,#805,#807,.T.);
#805 = VERTEX_POINT('',#806);
#806 = CARTESIAN_POINT('',(16.915,16.525,20.5));
#807 = LINE('',#808,#809);
#808 = CARTESIAN_POINT('',(16.915,16.525,9.9));
#809 = VECTOR('',#810,1.);
#810 = DIRECTION('',(0.,0.,1.));
#811 = ORIENTED_EDGE('',*,*,#812,.T.);
#812 = EDGE_CURVE('',#805,#756,#813,.T.);
#813 = LINE('',#814,#815);
#814 = CARTESIAN_POINT('',(16.915,16.525,20.5));
#815 = VECTOR('',#816,1.);
#816 = DIRECTION('',(0.,1.,0.));
#817 = ORIENTED_EDGE('',*,*,#755,.F.);
#818 = PLANE('',#819);
#819 = AXIS2_PLACEMENT_3D('',#820,#821,#822);
#820 = CARTESIAN_POINT('',(16.915,15.925,9.9));
#821 = DIRECTION('',(-1.,0.,0.));
#822 = DIRECTION('',(0.,1.,0.));
#823 = ADVANCED_FACE('',(#824),#842,.F.);
#824 = FACE_BOUND('',#825,.F.);
#825 = EDGE_LOOP('',(#826,#827,#828,#836));
#826 = ORIENTED_EDGE('',*,*,#195,.T.);
#827 = ORIENTED_EDGE('',*,*,#780,.T.);
#828 = ORIENTED_EDGE('',*,*,#829,.T.);
#829 = EDGE_CURVE('',#781,#830,#832,.T.);
#830 = VERTEX_POINT('',#831);
#831 = CARTESIAN_POINT('',(16.315,15.925,20.5));
#832 = LINE('',#833,#834);
#833 = CARTESIAN_POINT('',(9.685,15.925,20.5));
#834 = VECTOR('',#835,1.);
#835 = DIRECTION('',(1.,0.,0.));
#836 = ORIENTED_EDGE('',*,*,#837,.F.);
#837 = EDGE_CURVE('',#187,#830,#838,.T.);
#838 = LINE('',#839,#840);
#839 = CARTESIAN_POINT('',(16.315,15.925,9.9));
#840 = VECTOR('',#841,1.);
#841 = DIRECTION('',(0.,0.,1.));
#842 = PLANE('',#843);
#843 = AXIS2_PLACEMENT_3D('',#844,#845,#846);
#844 = CARTESIAN_POINT('',(9.085,15.925,9.9));
#845 = DIRECTION('',(0.,1.,0.));
#846 = DIRECTION('',(1.,0.,0.));
#847 = ADVANCED_FACE('',(#848),#860,.T.);
#848 = FACE_BOUND('',#849,.T.);
#849 = EDGE_LOOP('',(#850,#851,#852,#853));
#850 = ORIENTED_EDGE('',*,*,#837,.F.);
#851 = ORIENTED_EDGE('',*,*,#186,.T.);
#852 = ORIENTED_EDGE('',*,*,#804,.T.);
#853 = ORIENTED_EDGE('',*,*,#854,.F.);
#854 = EDGE_CURVE('',#830,#805,#855,.T.);
#855 = CIRCLE('',#856,0.6);
#856 = AXIS2_PLACEMENT_3D('',#857,#858,#859);
#857 = CARTESIAN_POINT('',(16.315,16.525,20.5));
#858 = DIRECTION('',(-0.,0.,1.));
#859 = DIRECTION('',(0.,-1.,0.));
#860 = CYLINDRICAL_SURFACE('',#861,0.6);
#861 = AXIS2_PLACEMENT_3D('',#862,#863,#864);
#862 = CARTESIAN_POINT('',(16.315,16.525,9.9));
#863 = DIRECTION('',(0.,0.,1.));
#864 = DIRECTION('',(0.,-1.,0.));
#865 = ADVANCED_FACE('',(#866),#877,.F.);
#866 = FACE_BOUND('',#867,.F.);
#867 = EDGE_LOOP('',(#868,#869,#875,#876));
#868 = ORIENTED_EDGE('',*,*,#267,.T.);
#869 = ORIENTED_EDGE('',*,*,#870,.T.);
#870 = EDGE_CURVE('',#260,#284,#871,.T.);
#871 = LINE('',#872,#873);
#872 = CARTESIAN_POINT('',(26.,0.,0.));
#873 = VECTOR('',#874,1.);
#874 = DIRECTION('',(0.,1.,0.));
#875 = ORIENTED_EDGE('',*,*,#283,.T.);
#876 = ORIENTED_EDGE('',*,*,#275,.T.);
#877 = PLANE('',#878);
#878 = AXIS2_PLACEMENT_3D('',#879,#880,#881);
#879 = CARTESIAN_POINT('',(0.,0.,0.));
#880 = DIRECTION('',(0.,0.,1.));
#881 = DIRECTION('',(1.,0.,0.));
#882 = ADVANCED_FACE('',(#883),#908,.T.);
#883 = FACE_BOUND('',#884,.T.);
#884 = EDGE_LOOP('',(#885,#886,#894,#902));
#885 = ORIENTED_EDGE('',*,*,#349,.T.);
#886 = ORIENTED_EDGE('',*,*,#887,.T.);
#887 = EDGE_CURVE('',#352,#888,#890,.T.);
#888 = VERTEX_POINT('',#889);
#889 = CARTESIAN_POINT('',(13.131464968153,1.929366711383,7.055174113469
    ));
#890 = LINE('',#891,#892);
#891 = CARTESIAN_POINT('',(13.131464968153,2.681120808011,6.781557998809
    ));
#892 = VECTOR('',#893,1.);
#893 = DIRECTION('',(0.,-0.939692620786,0.342020143326));
#894 = ORIENTED_EDGE('',*,*,#895,.T.);
#895 = EDGE_CURVE('',#888,#896,#898,.T.);
#896 = VERTEX_POINT('',#897);
#897 = CARTESIAN_POINT('',(13.131464968153,2.156160195806,7.678284090802
    ));
#898 = LINE('',#899,#900);
#899 = CARTESIAN_POINT('',(13.131464968153,1.929366711383,7.055174113469
    ));
#900 = VECTOR('',#901,1.);
#901 = DIRECTION('',(0.,0.342020143326,0.939692620786));
#902 = ORIENTED_EDGE('',*,*,#903,.F.);
#903 = EDGE_CURVE('',#350,#896,#904,.T.);
#904 = LINE('',#905,#906);
#905 = CARTESIAN_POINT('',(13.131464968153,2.907914292435,7.404667976142
    ));
#906 = VECTOR('',#907,1.);
#907 = DIRECTION('',(0.,-0.939692620786,0.342020143326));
#908 = PLANE('',#909);
#909 = AXIS2_PLACEMENT_3D('',#910,#911,#912);
#910 = CARTESIAN_POINT('',(13.131464968153,2.681120808011,6.781557998809
    ));
#911 = DIRECTION('',(-1.,0.,0.));
#912 = DIRECTION('',(0.,0.342020143326,0.939692620786));
#913 = ADVANCED_FACE('',(#914),#932,.T.);
#914 = FACE_BOUND('',#915,.T.);
#915 = EDGE_LOOP('',(#916,#917,#925,#931));
#916 = ORIENTED_EDGE('',*,*,#452,.T.);
#917 = ORIENTED_EDGE('',*,*,#918,.T.);
#918 = EDGE_CURVE('',#438,#919,#921,.T.);
#919 = VERTEX_POINT('',#920);
#920 = CARTESIAN_POINT('',(14.75949044586,1.929366711383,7.055174113469)
  );
#921 = LINE('',#922,#923);
#922 = CARTESIAN_POINT('',(14.75949044586,2.681120808011,6.781557998809)
  );
#923 = VECTOR('',#924,1.);
#924 = DIRECTION('',(0.,-0.939692620786,0.342020143326));
#925 = ORIENTED_EDGE('',*,*,#926,.T.);
#926 = EDGE_CURVE('',#919,#888,#927,.T.);
#927 = LINE('',#928,#929);
#928 = CARTESIAN_POINT('',(14.75949044586,1.929366711383,7.055174113469)
  );
#929 = VECTOR('',#930,1.);
#930 = DIRECTION('',(-1.,0.,0.));
#931 = ORIENTED_EDGE('',*,*,#887,.F.);
#932 = PLANE('',#933);
#933 = AXIS2_PLACEMENT_3D('',#934,#935,#936);
#934 = CARTESIAN_POINT('',(14.75949044586,2.681120808011,6.781557998809)
  );
#935 = DIRECTION('',(0.,-0.342020143326,-0.939692620786));
#936 = DIRECTION('',(-1.,0.,0.));
#937 = ADVANCED_FACE('',(#938),#956,.T.);
#938 = FACE_BOUND('',#939,.T.);
#939 = EDGE_LOOP('',(#940,#941,#949,#955));
#940 = ORIENTED_EDGE('',*,*,#437,.T.);
#941 = ORIENTED_EDGE('',*,*,#942,.T.);
#942 = EDGE_CURVE('',#423,#943,#945,.T.);
#943 = VERTEX_POINT('',#944);
#944 = CARTESIAN_POINT('',(13.953036093418,1.434766371633,5.696270848353
    ));
#945 = LINE('',#946,#947);
#946 = CARTESIAN_POINT('',(13.953036093418,2.186520468262,5.422654733693
    ));
#947 = VECTOR('',#948,1.);
#948 = DIRECTION('',(0.,-0.939692620786,0.342020143326));
#949 = ORIENTED_EDGE('',*,*,#950,.T.);
#950 = EDGE_CURVE('',#943,#919,#951,.T.);
#951 = B_SPLINE_CURVE_WITH_KNOTS('',2,(#952,#953,#954),.UNSPECIFIED.,.F.
  ,.F.,(3,3),(0.,1.),.PIECEWISE_BEZIER_KNOTS.);
#952 = CARTESIAN_POINT('',(13.953036093418,1.434766371633,5.696270848353
    ));
#953 = CARTESIAN_POINT('',(14.255031847134,1.711403301148,6.456324565582
    ));
#954 = CARTESIAN_POINT('',(14.75949044586,1.929366711383,7.055174113469)
  );
#955 = ORIENTED_EDGE('',*,*,#918,.F.);
#956 = SURFACE_OF_LINEAR_EXTRUSION('',#957,#961);
#957 = B_SPLINE_CURVE_WITH_KNOTS('',2,(#958,#959,#960),.UNSPECIFIED.,.F.
  ,.F.,(3,3),(0.,1.),.PIECEWISE_BEZIER_KNOTS.);
#958 = CARTESIAN_POINT('',(13.953036093418,2.186520468262,5.422654733693
    ));
#959 = CARTESIAN_POINT('',(14.255031847134,2.463157397777,6.182708450921
    ));
#960 = CARTESIAN_POINT('',(14.75949044586,2.681120808011,6.781557998809)
  );
#961 = VECTOR('',#962,1.);
#962 = DIRECTION('',(-0.,0.939692620786,-0.342020143326));
#963 = ADVANCED_FACE('',(#964),#982,.T.);
#964 = FACE_BOUND('',#965,.T.);
#965 = EDGE_LOOP('',(#966,#967,#975,#981));
#966 = ORIENTED_EDGE('',*,*,#422,.T.);
#967 = ORIENTED_EDGE('',*,*,#968,.T.);
#968 = EDGE_CURVE('',#415,#969,#971,.T.);
#969 = VERTEX_POINT('',#970);
#970 = CARTESIAN_POINT('',(13.633375796178,0.892065364593,4.205212085995
    ));
#971 = LINE('',#972,#973);
#972 = CARTESIAN_POINT('',(13.633375796178,1.643819461222,3.931595971335
    ));
#973 = VECTOR('',#974,1.);
#974 = DIRECTION('',(0.,-0.939692620786,0.342020143326));
#975 = ORIENTED_EDGE('',*,*,#976,.T.);
#976 = EDGE_CURVE('',#969,#943,#977,.T.);
#977 = B_SPLINE_CURVE_WITH_KNOTS('',2,(#978,#979,#980),.UNSPECIFIED.,.F.
  ,.F.,(3,3),(0.,1.),.PIECEWISE_BEZIER_KNOTS.);
#978 = CARTESIAN_POINT('',(13.633375796178,0.892065364593,4.205212085995
    ));
#979 = CARTESIAN_POINT('',(13.651210191083,1.158187534712,4.936376739213
    ));
#980 = CARTESIAN_POINT('',(13.953036093418,1.434766371633,5.696270848353
    ));
#981 = ORIENTED_EDGE('',*,*,#942,.F.);
#982 = SURFACE_OF_LINEAR_EXTRUSION('',#983,#987);
#983 = B_SPLINE_CURVE_WITH_KNOTS('',2,(#984,#985,#986),.UNSPECIFIED.,.F.
  ,.F.,(3,3),(0.,1.),.PIECEWISE_BEZIER_KNOTS.);
#984 = CARTESIAN_POINT('',(13.633375796178,1.643819461222,3.931595971335
    ));
#985 = CARTESIAN_POINT('',(13.651210191083,1.909941631341,4.662760624553
    ));
#986 = CARTESIAN_POINT('',(13.953036093418,2.186520468262,5.422654733693
    ));
#987 = VECTOR('',#988,1.);
#988 = DIRECTION('',(-0.,0.939692620786,-0.342020143326));
#989 = ADVANCED_FACE('',(#990),#1008,.T.);
#990 = FACE_BOUND('',#991,.T.);
#991 = EDGE_LOOP('',(#992,#993,#1001,#1007));
#992 = ORIENTED_EDGE('',*,*,#414,.T.);
#993 = ORIENTED_EDGE('',*,*,#994,.T.);
#994 = EDGE_CURVE('',#403,#995,#997,.T.);
#995 = VERTEX_POINT('',#996);
#996 = CARTESIAN_POINT('',(14.323821656051,0.892065364593,4.205212085995
    ));
#997 = LINE('',#998,#999);
#998 = CARTESIAN_POINT('',(14.323821656051,1.643819461222,3.931595971335
    ));
#999 = VECTOR('',#1000,1.);
#1000 = DIRECTION('',(0.,-0.939692620786,0.342020143326));
#1001 = ORIENTED_EDGE('',*,*,#1002,.T.);
#1002 = EDGE_CURVE('',#995,#969,#1003,.T.);
#1003 = LINE('',#1004,#1005);
#1004 = CARTESIAN_POINT('',(14.323821656051,0.892065364593,
    4.205212085995));
#1005 = VECTOR('',#1006,1.);
#1006 = DIRECTION('',(-1.,0.,0.));
#1007 = ORIENTED_EDGE('',*,*,#968,.F.);
#1008 = PLANE('',#1009);
#1009 = AXIS2_PLACEMENT_3D('',#1010,#1011,#1012);
#1010 = CARTESIAN_POINT('',(14.323821656051,1.643819461222,
    3.931595971335));
#1011 = DIRECTION('',(0.,-0.342020143326,-0.939692620786));
#1012 = DIRECTION('',(-1.,0.,0.));
#1013 = ADVANCED_FACE('',(#1014),#1032,.T.);
#1014 = FACE_BOUND('',#1015,.T.);
#1015 = EDGE_LOOP('',(#1016,#1017,#1025,#1031));
#1016 = ORIENTED_EDGE('',*,*,#402,.T.);
#1017 = ORIENTED_EDGE('',*,*,#1018,.T.);
#1018 = EDGE_CURVE('',#388,#1019,#1021,.T.);
#1019 = VERTEX_POINT('',#1020);
#1020 = CARTESIAN_POINT('',(14.485520169851,1.277103073292,
    5.263094496283));
#1021 = LINE('',#1022,#1023);
#1022 = CARTESIAN_POINT('',(14.485520169851,2.028857169921,
    4.989478381623));
#1023 = VECTOR('',#1024,1.);
#1024 = DIRECTION('',(0.,-0.939692620786,0.342020143326));
#1025 = ORIENTED_EDGE('',*,*,#1026,.T.);
#1026 = EDGE_CURVE('',#1019,#995,#1027,.T.);
#1027 = B_SPLINE_CURVE_WITH_KNOTS('',2,(#1028,#1029,#1030),
  .UNSPECIFIED.,.F.,.F.,(3,3),(0.,1.),.PIECEWISE_BEZIER_KNOTS.);
#1028 = CARTESIAN_POINT('',(14.485520169851,1.277103073292,
    5.263094496283));
#1029 = CARTESIAN_POINT('',(14.32127388535,1.061637644571,4.671108096199
    ));
#1030 = CARTESIAN_POINT('',(14.323821656051,0.892065364593,
    4.205212085995));
#1031 = ORIENTED_EDGE('',*,*,#994,.F.);
#1032 = SURFACE_OF_LINEAR_EXTRUSION('',#1033,#1037);
#1033 = B_SPLINE_CURVE_WITH_KNOTS('',2,(#1034,#1035,#1036),
  .UNSPECIFIED.,.F.,.F.,(3,3),(0.,1.),.PIECEWISE_BEZIER_KNOTS.);
#1034 = CARTESIAN_POINT('',(14.485520169851,2.028857169921,
    4.989478381623));
#1035 = CARTESIAN_POINT('',(14.32127388535,1.8133917412,4.397491981539)
  );
#1036 = CARTESIAN_POINT('',(14.323821656051,1.643819461222,
    3.931595971335));
#1037 = VECTOR('',#1038,1.);
#1038 = DIRECTION('',(-0.,0.939692620786,-0.342020143326));
#1039 = ADVANCED_FACE('',(#1040),#1058,.T.);
#1040 = FACE_BOUND('',#1041,.T.);
#1041 = EDGE_LOOP('',(#1042,#1043,#1051,#1057));
#1042 = ORIENTED_EDGE('',*,*,#387,.T.);
#1043 = ORIENTED_EDGE('',*,*,#1044,.T.);
#1044 = EDGE_CURVE('',#376,#1045,#1047,.T.);
#1045 = VERTEX_POINT('',#1046);
#1046 = CARTESIAN_POINT('',(14.963312101911,1.683983597088,6.38098954783
    ));
#1047 = LINE('',#1048,#1049);
#1048 = CARTESIAN_POINT('',(14.963312101911,2.435737693717,6.10737343317
    ));
#1049 = VECTOR('',#1050,1.);
#1050 = DIRECTION('',(0.,-0.939692620786,0.342020143326));
#1051 = ORIENTED_EDGE('',*,*,#1052,.T.);
#1052 = EDGE_CURVE('',#1045,#1019,#1053,.T.);
#1053 = B_SPLINE_CURVE_WITH_KNOTS('',2,(#1054,#1055,#1056),
  .UNSPECIFIED.,.F.,.F.,(3,3),(0.,1.),.PIECEWISE_BEZIER_KNOTS.);
#1054 = CARTESIAN_POINT('',(14.963312101911,1.683983597088,6.38098954783
    ));
#1055 = CARTESIAN_POINT('',(14.649936305732,1.492568502013,
    5.855080896367));
#1056 = CARTESIAN_POINT('',(14.485520169851,1.277103073292,
    5.263094496283));
#1057 = ORIENTED_EDGE('',*,*,#1018,.F.);
#1058 = SURFACE_OF_LINEAR_EXTRUSION('',#1059,#1063);
#1059 = B_SPLINE_CURVE_WITH_KNOTS('',2,(#1060,#1061,#1062),
  .UNSPECIFIED.,.F.,.F.,(3,3),(0.,1.),.PIECEWISE_BEZIER_KNOTS.);
#1060 = CARTESIAN_POINT('',(14.963312101911,2.435737693717,6.10737343317
    ));
#1061 = CARTESIAN_POINT('',(14.649936305732,2.244322598642,
    5.581464781707));
#1062 = CARTESIAN_POINT('',(14.485520169851,2.028857169921,
    4.989478381623));
#1063 = VECTOR('',#1064,1.);
#1064 = DIRECTION('',(-0.,0.939692620786,-0.342020143326));
#1065 = ADVANCED_FACE('',(#1066),#1084,.T.);
#1066 = FACE_BOUND('',#1067,.T.);
#1067 = EDGE_LOOP('',(#1068,#1069,#1077,#1083));
#1068 = ORIENTED_EDGE('',*,*,#375,.T.);
#1069 = ORIENTED_EDGE('',*,*,#1070,.T.);
#1070 = EDGE_CURVE('',#368,#1071,#1073,.T.);
#1071 = VERTEX_POINT('',#1072);
#1072 = CARTESIAN_POINT('',(15.579872611465,1.977699749047,
    7.187968043065));
#1073 = LINE('',#1074,#1075);
#1074 = CARTESIAN_POINT('',(15.579872611465,2.729453845676,
    6.914351928404));
#1075 = VECTOR('',#1076,1.);
#1076 = DIRECTION('',(0.,-0.939692620786,0.342020143326));
#1077 = ORIENTED_EDGE('',*,*,#1078,.T.);
#1078 = EDGE_CURVE('',#1071,#1045,#1079,.T.);
#1079 = B_SPLINE_CURVE_WITH_KNOTS('',2,(#1080,#1081,#1082),
  .UNSPECIFIED.,.F.,.F.,(3,3),(0.,1.),.PIECEWISE_BEZIER_KNOTS.);
#1080 = CARTESIAN_POINT('',(15.579872611465,1.977699749047,
    7.187968043065));
#1081 = CARTESIAN_POINT('',(15.276687898089,1.875456784757,
    6.907057807382));
#1082 = CARTESIAN_POINT('',(14.963312101911,1.683983597088,6.38098954783
    ));
#1083 = ORIENTED_EDGE('',*,*,#1044,.F.);
#1084 = SURFACE_OF_LINEAR_EXTRUSION('',#1085,#1089);
#1085 = B_SPLINE_CURVE_WITH_KNOTS('',2,(#1086,#1087,#1088),
  .UNSPECIFIED.,.F.,.F.,(3,3),(0.,1.),.PIECEWISE_BEZIER_KNOTS.);
#1086 = CARTESIAN_POINT('',(15.579872611465,2.729453845676,
    6.914351928404));
#1087 = CARTESIAN_POINT('',(15.276687898089,2.627210881386,
    6.633441692722));
#1088 = CARTESIAN_POINT('',(14.963312101911,2.435737693717,6.10737343317
    ));
#1089 = VECTOR('',#1090,1.);
#1090 = DIRECTION('',(-0.,0.939692620786,-0.342020143326));
#1091 = ADVANCED_FACE('',(#1092),#1110,.T.);
#1092 = FACE_BOUND('',#1093,.T.);
#1093 = EDGE_LOOP('',(#1094,#1095,#1103,#1109));
#1094 = ORIENTED_EDGE('',*,*,#367,.T.);
#1095 = ORIENTED_EDGE('',*,*,#1096,.T.);
#1096 = EDGE_CURVE('',#360,#1097,#1099,.T.);
#1097 = VERTEX_POINT('',#1098);
#1098 = CARTESIAN_POINT('',(15.579872611465,2.156160195806,
    7.678284090802));
#1099 = LINE('',#1100,#1101);
#1100 = CARTESIAN_POINT('',(15.579872611465,2.907914292435,
    7.404667976142));
#1101 = VECTOR('',#1102,1.);
#1102 = DIRECTION('',(0.,-0.939692620786,0.342020143326));
#1103 = ORIENTED_EDGE('',*,*,#1104,.T.);
#1104 = EDGE_CURVE('',#1097,#1071,#1105,.T.);
#1105 = LINE('',#1106,#1107);
#1106 = CARTESIAN_POINT('',(15.579872611465,2.156160195806,
    7.678284090802));
#1107 = VECTOR('',#1108,1.);
#1108 = DIRECTION('',(0.,-0.342020143326,-0.939692620786));
#1109 = ORIENTED_EDGE('',*,*,#1070,.F.);
#1110 = PLANE('',#1111);
#1111 = AXIS2_PLACEMENT_3D('',#1112,#1113,#1114);
#1112 = CARTESIAN_POINT('',(15.579872611465,2.907914292435,
    7.404667976142));
#1113 = DIRECTION('',(1.,0.,0.));
#1114 = DIRECTION('',(0.,-0.342020143326,-0.939692620786));
#1115 = ADVANCED_FACE('',(#1116),#1127,.T.);
#1116 = FACE_BOUND('',#1117,.T.);
#1117 = EDGE_LOOP('',(#1118,#1119,#1120,#1126));
#1118 = ORIENTED_EDGE('',*,*,#359,.T.);
#1119 = ORIENTED_EDGE('',*,*,#903,.T.);
#1120 = ORIENTED_EDGE('',*,*,#1121,.T.);
#1121 = EDGE_CURVE('',#896,#1097,#1122,.T.);
#1122 = LINE('',#1123,#1124);
#1123 = CARTESIAN_POINT('',(13.131464968153,2.156160195806,
    7.678284090802));
#1124 = VECTOR('',#1125,1.);
#1125 = DIRECTION('',(1.,0.,0.));
#1126 = ORIENTED_EDGE('',*,*,#1096,.F.);
#1127 = PLANE('',#1128);
#1128 = AXIS2_PLACEMENT_3D('',#1129,#1130,#1131);
#1129 = CARTESIAN_POINT('',(13.131464968153,2.907914292435,
    7.404667976142));
#1130 = DIRECTION('',(0.,0.342020143326,0.939692620786));
#1131 = DIRECTION('',(1.,0.,0.));
#1132 = ADVANCED_FACE('',(#1133),#1158,.T.);
#1133 = FACE_BOUND('',#1134,.T.);
#1134 = EDGE_LOOP('',(#1135,#1136,#1144,#1152));
#1135 = ORIENTED_EDGE('',*,*,#460,.T.);
#1136 = ORIENTED_EDGE('',*,*,#1137,.T.);
#1137 = EDGE_CURVE('',#463,#1138,#1140,.T.);
#1138 = VERTEX_POINT('',#1139);
#1139 = CARTESIAN_POINT('',(12.060891719745,0.892065364593,
    4.205212085995));
#1140 = LINE('',#1141,#1142);
#1141 = CARTESIAN_POINT('',(12.060891719745,1.643819461222,
    3.931595971335));
#1142 = VECTOR('',#1143,1.);
#1143 = DIRECTION('',(0.,-0.939692620786,0.342020143326));
#1144 = ORIENTED_EDGE('',*,*,#1145,.T.);
#1145 = EDGE_CURVE('',#1138,#1146,#1148,.T.);
#1146 = VERTEX_POINT('',#1147);
#1147 = CARTESIAN_POINT('',(11.344968152866,0.892065364593,
    4.205212085995));
#1148 = LINE('',#1149,#1150);
#1149 = CARTESIAN_POINT('',(12.060891719745,0.892065364593,
    4.205212085995));
#1150 = VECTOR('',#1151,1.);
#1151 = DIRECTION('',(-1.,0.,0.));
#1152 = ORIENTED_EDGE('',*,*,#1153,.F.);
#1153 = EDGE_CURVE('',#461,#1146,#1154,.T.);
#1154 = LINE('',#1155,#1156);
#1155 = CARTESIAN_POINT('',(11.344968152866,1.643819461222,
    3.931595971335));
#1156 = VECTOR('',#1157,1.);
#1157 = DIRECTION('',(0.,-0.939692620786,0.342020143326));
#1158 = PLANE('',#1159);
#1159 = AXIS2_PLACEMENT_3D('',#1160,#1161,#1162);
#1160 = CARTESIAN_POINT('',(12.060891719745,1.643819461222,
    3.931595971335));
#1161 = DIRECTION('',(0.,-0.342020143326,-0.939692620786));
#1162 = DIRECTION('',(-1.,0.,0.));
#1163 = ADVANCED_FACE('',(#1164),#1182,.T.);
#1164 = FACE_BOUND('',#1165,.T.);
#1165 = EDGE_LOOP('',(#1166,#1167,#1175,#1181));
#1166 = ORIENTED_EDGE('',*,*,#540,.T.);
#1167 = ORIENTED_EDGE('',*,*,#1168,.T.);
#1168 = EDGE_CURVE('',#533,#1169,#1171,.T.);
#1169 = VERTEX_POINT('',#1170);
#1170 = CARTESIAN_POINT('',(12.060891719745,2.178467751651,7.73957359677
    ));
#1171 = LINE('',#1172,#1173);
#1172 = CARTESIAN_POINT('',(12.060891719745,2.93022184828,7.465957482109
    ));
#1173 = VECTOR('',#1174,1.);
#1174 = DIRECTION('',(0.,-0.939692620786,0.342020143326));
#1175 = ORIENTED_EDGE('',*,*,#1176,.T.);
#1176 = EDGE_CURVE('',#1169,#1138,#1177,.T.);
#1177 = LINE('',#1178,#1179);
#1178 = CARTESIAN_POINT('',(12.060891719745,2.178467751651,7.73957359677
    ));
#1179 = VECTOR('',#1180,1.);
#1180 = DIRECTION('',(0.,-0.342020143326,-0.939692620786));
#1181 = ORIENTED_EDGE('',*,*,#1137,.F.);
#1182 = PLANE('',#1183);
#1183 = AXIS2_PLACEMENT_3D('',#1184,#1185,#1186);
#1184 = CARTESIAN_POINT('',(12.060891719745,2.93022184828,7.465957482109
    ));
#1185 = DIRECTION('',(1.,0.,0.));
#1186 = DIRECTION('',(0.,-0.342020143326,-0.939692620786));
#1187 = ADVANCED_FACE('',(#1188),#1206,.T.);
#1188 = FACE_BOUND('',#1189,.T.);
#1189 = EDGE_LOOP('',(#1190,#1191,#1199,#1205));
#1190 = ORIENTED_EDGE('',*,*,#532,.T.);
#1191 = ORIENTED_EDGE('',*,*,#1192,.T.);
#1192 = EDGE_CURVE('',#514,#1193,#1195,.T.);
#1193 = VERTEX_POINT('',#1194);
#1194 = CARTESIAN_POINT('',(11.48,2.178467751651,7.73957359677));
#1195 = LINE('',#1196,#1197);
#1196 = CARTESIAN_POINT('',(11.48,2.93022184828,7.465957482109));
#1197 = VECTOR('',#1198,1.);
#1198 = DIRECTION('',(0.,-0.939692620786,0.342020143326));
#1199 = ORIENTED_EDGE('',*,*,#1200,.T.);
#1200 = EDGE_CURVE('',#1193,#1169,#1201,.T.);
#1201 = LINE('',#1202,#1203);
#1202 = CARTESIAN_POINT('',(11.48,2.178467751651,7.73957359677));
#1203 = VECTOR('',#1204,1.);
#1204 = DIRECTION('',(1.,0.,0.));
#1205 = ORIENTED_EDGE('',*,*,#1168,.F.);
#1206 = PLANE('',#1207);
#1207 = AXIS2_PLACEMENT_3D('',#1208,#1209,#1210);
#1208 = CARTESIAN_POINT('',(11.48,2.93022184828,7.465957482109));
#1209 = DIRECTION('',(0.,0.342020143326,0.939692620786));
#1210 = DIRECTION('',(1.,0.,0.));
#1211 = ADVANCED_FACE('',(#1212),#1230,.T.);
#1212 = FACE_BOUND('',#1213,.T.);
#1213 = EDGE_LOOP('',(#1214,#1215,#1223,#1229));
#1214 = ORIENTED_EDGE('',*,*,#513,.T.);
#1215 = ORIENTED_EDGE('',*,*,#1216,.T.);
#1216 = EDGE_CURVE('',#502,#1217,#1219,.T.);
#1217 = VERTEX_POINT('',#1218);
#1218 = CARTESIAN_POINT('',(11.029044585987,1.973981823073,
    7.177753125404));
#1219 = LINE('',#1220,#1221);
#1220 = CARTESIAN_POINT('',(11.029044585987,2.725735919701,
    6.904137010743));
#1221 = VECTOR('',#1222,1.);
#1222 = DIRECTION('',(0.,-0.939692620786,0.342020143326));
#1223 = ORIENTED_EDGE('',*,*,#1224,.T.);
#1224 = EDGE_CURVE('',#1217,#1193,#1225,.T.);
#1225 = B_SPLINE_CURVE_WITH_KNOTS('',2,(#1226,#1227,#1228),
  .UNSPECIFIED.,.F.,.F.,(3,3),(0.,1.),.PIECEWISE_BEZIER_KNOTS.);
#1226 = CARTESIAN_POINT('',(11.029044585987,1.973981823073,
    7.177753125404));
#1227 = CARTESIAN_POINT('',(11.357707006369,2.061643546432,
    7.418601730884));
#1228 = CARTESIAN_POINT('',(11.48,2.178467751651,7.73957359677));
#1229 = ORIENTED_EDGE('',*,*,#1192,.F.);
#1230 = SURFACE_OF_LINEAR_EXTRUSION('',#1231,#1235);
#1231 = B_SPLINE_CURVE_WITH_KNOTS('',2,(#1232,#1233,#1234),
  .UNSPECIFIED.,.F.,.F.,(3,3),(0.,1.),.PIECEWISE_BEZIER_KNOTS.);
#1232 = CARTESIAN_POINT('',(11.029044585987,2.725735919701,
    6.904137010743));
#1233 = CARTESIAN_POINT('',(11.357707006369,2.813397643061,
    7.144985616224));
#1234 = CARTESIAN_POINT('',(11.48,2.93022184828,7.465957482109));
#1235 = VECTOR('',#1236,1.);
#1236 = DIRECTION('',(-0.,0.939692620786,-0.342020143326));
#1237 = ADVANCED_FACE('',(#1238),#1256,.T.);
#1238 = FACE_BOUND('',#1239,.T.);
#1239 = EDGE_LOOP('',(#1240,#1241,#1249,#1255));
#1240 = ORIENTED_EDGE('',*,*,#501,.T.);
#1241 = ORIENTED_EDGE('',*,*,#1242,.T.);
#1242 = EDGE_CURVE('',#494,#1243,#1245,.T.);
#1243 = VERTEX_POINT('',#1244);
#1244 = CARTESIAN_POINT('',(10.420127388535,1.8550081919,6.850875760245)
  );
#1245 = LINE('',#1246,#1247);
#1246 = CARTESIAN_POINT('',(10.420127388535,2.606762288528,
    6.577259645585));
#1247 = VECTOR('',#1248,1.);
#1248 = DIRECTION('',(0.,-0.939692620786,0.342020143326));
#1249 = ORIENTED_EDGE('',*,*,#1250,.T.);
#1250 = EDGE_CURVE('',#1243,#1217,#1251,.T.);
#1251 = B_SPLINE_CURVE_WITH_KNOTS('',2,(#1252,#1253,#1254),
  .UNSPECIFIED.,.F.,.F.,(3,3),(0.,1.),.PIECEWISE_BEZIER_KNOTS.);
#1252 = CARTESIAN_POINT('',(10.420127388535,1.8550081919,6.850875760245)
  );
#1253 = CARTESIAN_POINT('',(10.700382165605,1.886378192307,
    6.937064128012));
#1254 = CARTESIAN_POINT('',(11.029044585987,1.973981823073,
    7.177753125404));
#1255 = ORIENTED_EDGE('',*,*,#1216,.F.);
#1256 = SURFACE_OF_LINEAR_EXTRUSION('',#1257,#1261);
#1257 = B_SPLINE_CURVE_WITH_KNOTS('',2,(#1258,#1259,#1260),
  .UNSPECIFIED.,.F.,.F.,(3,3),(0.,1.),.PIECEWISE_BEZIER_KNOTS.);
#1258 = CARTESIAN_POINT('',(10.420127388535,2.606762288528,
    6.577259645585));
#1259 = CARTESIAN_POINT('',(10.700382165605,2.638132288935,
    6.663448013351));
#1260 = CARTESIAN_POINT('',(11.029044585987,2.725735919701,
    6.904137010743));
#1261 = VECTOR('',#1262,1.);
#1262 = DIRECTION('',(-0.,0.939692620786,-0.342020143326));
#1263 = ADVANCED_FACE('',(#1264),#1282,.T.);
#1264 = FACE_BOUND('',#1265,.T.);
#1265 = EDGE_LOOP('',(#1266,#1267,#1275,#1281));
#1266 = ORIENTED_EDGE('',*,*,#493,.T.);
#1267 = ORIENTED_EDGE('',*,*,#1268,.T.);
#1268 = EDGE_CURVE('',#479,#1269,#1271,.T.);
#1269 = VERTEX_POINT('',#1270);
#1270 = CARTESIAN_POINT('',(10.420127388535,1.63193263345,6.237980700574
    ));
#1271 = LINE('',#1272,#1273);
#1272 = CARTESIAN_POINT('',(10.420127388535,2.383686730079,
    5.964364585913));
#1273 = VECTOR('',#1274,1.);
#1274 = DIRECTION('',(0.,-0.939692620786,0.342020143326));
#1275 = ORIENTED_EDGE('',*,*,#1276,.T.);
#1276 = EDGE_CURVE('',#1269,#1243,#1277,.T.);
#1277 = LINE('',#1278,#1279);
#1278 = CARTESIAN_POINT('',(10.420127388535,1.63193263345,6.237980700574
    ));
#1279 = VECTOR('',#1280,1.);
#1280 = DIRECTION('',(0.,0.342020143326,0.939692620786));
#1281 = ORIENTED_EDGE('',*,*,#1242,.F.);
#1282 = PLANE('',#1283);
#1283 = AXIS2_PLACEMENT_3D('',#1284,#1285,#1286);
#1284 = CARTESIAN_POINT('',(10.420127388535,2.383686730079,
    5.964364585913));
#1285 = DIRECTION('',(-1.,0.,0.));
#1286 = DIRECTION('',(0.,0.342020143326,0.939692620786));
#1287 = ADVANCED_FACE('',(#1288),#1306,.T.);
#1288 = FACE_BOUND('',#1289,.T.);
#1289 = EDGE_LOOP('',(#1290,#1291,#1299,#1305));
#1290 = ORIENTED_EDGE('',*,*,#478,.T.);
#1291 = ORIENTED_EDGE('',*,*,#1292,.T.);
#1292 = EDGE_CURVE('',#471,#1293,#1295,.T.);
#1293 = VERTEX_POINT('',#1294);
#1294 = CARTESIAN_POINT('',(11.344968152866,1.818293672905,
    6.750003448341));
#1295 = LINE('',#1296,#1297);
#1296 = CARTESIAN_POINT('',(11.344968152866,2.570047769534,
    6.476387333681));
#1297 = VECTOR('',#1298,1.);
#1298 = DIRECTION('',(0.,-0.939692620786,0.342020143326));
#1299 = ORIENTED_EDGE('',*,*,#1300,.T.);
#1300 = EDGE_CURVE('',#1293,#1269,#1301,.T.);
#1301 = B_SPLINE_CURVE_WITH_KNOTS('',2,(#1302,#1303,#1304),
  .UNSPECIFIED.,.F.,.F.,(3,3),(0.,1.),.PIECEWISE_BEZIER_KNOTS.);
#1302 = CARTESIAN_POINT('',(11.344968152866,1.818293672905,
    6.750003448341));
#1303 = CARTESIAN_POINT('',(10.952611464968,1.692290837937,6.40381350448
    ));
#1304 = CARTESIAN_POINT('',(10.420127388535,1.63193263345,6.237980700574
    ));
#1305 = ORIENTED_EDGE('',*,*,#1268,.F.);
#1306 = SURFACE_OF_LINEAR_EXTRUSION('',#1307,#1311);
#1307 = B_SPLINE_CURVE_WITH_KNOTS('',2,(#1308,#1309,#1310),
  .UNSPECIFIED.,.F.,.F.,(3,3),(0.,1.),.PIECEWISE_BEZIER_KNOTS.);
#1308 = CARTESIAN_POINT('',(11.344968152866,2.570047769534,
    6.476387333681));
#1309 = CARTESIAN_POINT('',(10.952611464968,2.444044934566,
    6.130197389819));
#1310 = CARTESIAN_POINT('',(10.420127388535,2.383686730079,
    5.964364585913));
#1311 = VECTOR('',#1312,1.);
#1312 = DIRECTION('',(-0.,0.939692620786,-0.342020143326));
#1313 = ADVANCED_FACE('',(#1314),#1325,.T.);
#1314 = FACE_BOUND('',#1315,.T.);
#1315 = EDGE_LOOP('',(#1316,#1317,#1318,#1324));
#1316 = ORIENTED_EDGE('',*,*,#470,.T.);
#1317 = ORIENTED_EDGE('',*,*,#1153,.T.);
#1318 = ORIENTED_EDGE('',*,*,#1319,.T.);
#1319 = EDGE_CURVE('',#1146,#1293,#1320,.T.);
#1320 = LINE('',#1321,#1322);
#1321 = CARTESIAN_POINT('',(11.344968152866,0.892065364593,
    4.205212085995));
#1322 = VECTOR('',#1323,1.);
#1323 = DIRECTION('',(0.,0.342020143326,0.939692620786));
#1324 = ORIENTED_EDGE('',*,*,#1292,.F.);
#1325 = PLANE('',#1326);
#1326 = AXIS2_PLACEMENT_3D('',#1327,#1328,#1329);
#1327 = CARTESIAN_POINT('',(11.344968152866,1.643819461222,
    3.931595971335));
#1328 = DIRECTION('',(-1.,0.,0.));
#1329 = DIRECTION('',(0.,0.342020143326,0.939692620786));
#1330 = ADVANCED_FACE('',(#1331),#1356,.F.);
#1331 = FACE_BOUND('',#1332,.F.);
#1332 = EDGE_LOOP('',(#1333,#1341,#1349,#1355));
#1333 = ORIENTED_EDGE('',*,*,#1334,.F.);
#1334 = EDGE_CURVE('',#1335,#284,#1337,.T.);
#1335 = VERTEX_POINT('',#1336);
#1336 = CARTESIAN_POINT('',(30.,12.6,0.));
#1337 = LINE('',#1338,#1339);
#1338 = CARTESIAN_POINT('',(30.,12.6,0.));
#1339 = VECTOR('',#1340,1.);
#1340 = DIRECTION('',(-0.971520338783,-0.236956180191,0.));
#1341 = ORIENTED_EDGE('',*,*,#1342,.T.);
#1342 = EDGE_CURVE('',#1335,#1343,#1345,.T.);
#1343 = VERTEX_POINT('',#1344);
#1344 = CARTESIAN_POINT('',(30.,12.6,10.));
#1345 = LINE('',#1346,#1347);
#1346 = CARTESIAN_POINT('',(30.,12.6,0.));
#1347 = VECTOR('',#1348,1.);
#1348 = DIRECTION('',(0.,0.,1.));
#1349 = ORIENTED_EDGE('',*,*,#1350,.T.);
#1350 = EDGE_CURVE('',#1343,#95,#1351,.T.);
#1351 = LINE('',#1352,#1353);
#1352 = CARTESIAN_POINT('',(30.,12.6,10.));
#1353 = VECTOR('',#1354,1.);
#1354 = DIRECTION('',(-0.971520338783,-0.236956180191,0.));
#1355 = ORIENTED_EDGE('',*,*,#623,.T.);
#1356 = PLANE('',#1357);
#1357 = AXIS2_PLACEMENT_3D('',#1358,#1359,#1360);
#1358 = CARTESIAN_POINT('',(30.,12.6,0.));
#1359 = DIRECTION('',(0.236956180191,-0.971520338783,0.));
#1360 = DIRECTION('',(-0.971520338783,-0.236956180191,0.));
#1361 = ADVANCED_FACE('',(#1362),#1380,.T.);
#1362 = FACE_BOUND('',#1363,.T.);
#1363 = EDGE_LOOP('',(#1364,#1365,#1373,#1379));
#1364 = ORIENTED_EDGE('',*,*,#640,.F.);
#1365 = ORIENTED_EDGE('',*,*,#1366,.T.);
#1366 = EDGE_CURVE('',#71,#1367,#1369,.T.);
#1367 = VERTEX_POINT('',#1368);
#1368 = CARTESIAN_POINT('',(30.,6.6,10.));
#1369 = LINE('',#1370,#1371);
#1370 = CARTESIAN_POINT('',(25.9,7.6,10.));
#1371 = VECTOR('',#1372,1.);
#1372 = DIRECTION('',(0.971520338783,-0.236956180191,0.));
#1373 = ORIENTED_EDGE('',*,*,#1374,.T.);
#1374 = EDGE_CURVE('',#1367,#1343,#1375,.T.);
#1375 = LINE('',#1376,#1377);
#1376 = CARTESIAN_POINT('',(30.,6.6,10.));
#1377 = VECTOR('',#1378,1.);
#1378 = DIRECTION('',(0.,1.,0.));
#1379 = ORIENTED_EDGE('',*,*,#1350,.T.);
#1380 = PLANE('',#1381);
#1381 = AXIS2_PLACEMENT_3D('',#1382,#1383,#1384);
#1382 = CARTESIAN_POINT('',(28.172338161771,9.6,10.));
#1383 = DIRECTION('',(0.,0.,1.));
#1384 = DIRECTION('',(1.,0.,0.));
#1385 = ADVANCED_FACE('',(#1386),#1404,.F.);
#1386 = FACE_BOUND('',#1387,.F.);
#1387 = EDGE_LOOP('',(#1388,#1396,#1397,#1398));
#1388 = ORIENTED_EDGE('',*,*,#1389,.F.);
#1389 = EDGE_CURVE('',#260,#1390,#1392,.T.);
#1390 = VERTEX_POINT('',#1391);
#1391 = CARTESIAN_POINT('',(30.,6.6,0.));
#1392 = LINE('',#1393,#1394);
#1393 = CARTESIAN_POINT('',(25.9,7.6,0.));
#1394 = VECTOR('',#1395,1.);
#1395 = DIRECTION('',(0.971520338783,-0.236956180191,0.));
#1396 = ORIENTED_EDGE('',*,*,#659,.T.);
#1397 = ORIENTED_EDGE('',*,*,#1366,.T.);
#1398 = ORIENTED_EDGE('',*,*,#1399,.F.);
#1399 = EDGE_CURVE('',#1390,#1367,#1400,.T.);
#1400 = LINE('',#1401,#1402);
#1401 = CARTESIAN_POINT('',(30.,6.6,0.));
#1402 = VECTOR('',#1403,1.);
#1403 = DIRECTION('',(0.,0.,1.));
#1404 = PLANE('',#1405);
#1405 = AXIS2_PLACEMENT_3D('',#1406,#1407,#1408);
#1406 = CARTESIAN_POINT('',(25.9,7.6,0.));
#1407 = DIRECTION('',(0.236956180191,0.971520338783,0.));
#1408 = DIRECTION('',(0.971520338783,-0.236956180191,0.));
#1409 = ADVANCED_FACE('',(#1410),#1436,.T.);
#1410 = FACE_BOUND('',#1411,.T.);
#1411 = EDGE_LOOP('',(#1412,#1420,#1421,#1429));
#1412 = ORIENTED_EDGE('',*,*,#1413,.F.);
#1413 = EDGE_CURVE('',#674,#1414,#1416,.T.);
#1414 = VERTEX_POINT('',#1415);
#1415 = CARTESIAN_POINT('',(9.685,23.255,21.));
#1416 = LINE('',#1417,#1418);
#1417 = CARTESIAN_POINT('',(9.685,23.505,20.75));
#1418 = VECTOR('',#1419,1.);
#1419 = DIRECTION('',(-2.90882763039E-35,-0.707106781187,0.707106781187)
  );
#1420 = ORIENTED_EDGE('',*,*,#690,.T.);
#1421 = ORIENTED_EDGE('',*,*,#1422,.T.);
#1422 = EDGE_CURVE('',#683,#1423,#1425,.T.);
#1423 = VERTEX_POINT('',#1424);
#1424 = CARTESIAN_POINT('',(9.585,23.155,21.));
#1425 = LINE('',#1426,#1427);
#1426 = CARTESIAN_POINT('',(9.085,23.155,20.5));
#1427 = VECTOR('',#1428,1.);
#1428 = DIRECTION('',(0.707106781187,-4.329780281177E-17,0.707106781187)
  );
#1429 = ORIENTED_EDGE('',*,*,#1430,.F.);
#1430 = EDGE_CURVE('',#1414,#1423,#1431,.T.);
#1431 = CIRCLE('',#1432,1.E-01);
#1432 = AXIS2_PLACEMENT_3D('',#1433,#1434,#1435);
#1433 = CARTESIAN_POINT('',(9.685,23.155,21.));
#1434 = DIRECTION('',(0.,-0.,1.));
#1435 = DIRECTION('',(0.,1.,0.));
#1436 = CONICAL_SURFACE('',#1437,0.6,0.785398163397);
#1437 = AXIS2_PLACEMENT_3D('',#1438,#1439,#1440);
#1438 = CARTESIAN_POINT('',(9.685,23.155,20.5));
#1439 = DIRECTION('',(-0.,-0.,-1.));
#1440 = DIRECTION('',(0.,1.,0.));
#1441 = ADVANCED_FACE('',(#1442),#1460,.F.);
#1442 = FACE_BOUND('',#1443,.T.);
#1443 = EDGE_LOOP('',(#1444,#1452,#1453,#1454));
#1444 = ORIENTED_EDGE('',*,*,#1445,.F.);
#1445 = EDGE_CURVE('',#707,#1446,#1448,.T.);
#1446 = VERTEX_POINT('',#1447);
#1447 = CARTESIAN_POINT('',(16.315,23.255,21.));
#1448 = LINE('',#1449,#1450);
#1449 = CARTESIAN_POINT('',(16.315,23.505,20.75));
#1450 = VECTOR('',#1451,1.);
#1451 = DIRECTION('',(-2.90882763039E-35,-0.707106781187,0.707106781187)
  );
#1452 = ORIENTED_EDGE('',*,*,#714,.T.);
#1453 = ORIENTED_EDGE('',*,*,#1413,.T.);
#1454 = ORIENTED_EDGE('',*,*,#1455,.F.);
#1455 = EDGE_CURVE('',#1446,#1414,#1456,.T.);
#1456 = LINE('',#1457,#1458);
#1457 = CARTESIAN_POINT('',(16.315,23.255,21.));
#1458 = VECTOR('',#1459,1.);
#1459 = DIRECTION('',(-1.,0.,0.));
#1460 = PLANE('',#1461);
#1461 = AXIS2_PLACEMENT_3D('',#1462,#1463,#1464);
#1462 = CARTESIAN_POINT('',(16.315,23.505,20.75));
#1463 = DIRECTION('',(-1.889513820523E-18,-0.707106781187,
    -0.707106781187));
#1464 = DIRECTION('',(1.,-1.336088035637E-18,-1.336088035637E-18));
#1465 = ADVANCED_FACE('',(#1466),#1484,.F.);
#1466 = FACE_BOUND('',#1467,.T.);
#1467 = EDGE_LOOP('',(#1468,#1469,#1470,#1478));
#1468 = ORIENTED_EDGE('',*,*,#1422,.F.);
#1469 = ORIENTED_EDGE('',*,*,#731,.T.);
#1470 = ORIENTED_EDGE('',*,*,#1471,.T.);
#1471 = EDGE_CURVE('',#732,#1472,#1474,.T.);
#1472 = VERTEX_POINT('',#1473);
#1473 = CARTESIAN_POINT('',(9.585,16.525,21.));
#1474 = LINE('',#1475,#1476);
#1475 = CARTESIAN_POINT('',(9.335,16.525,20.75));
#1476 = VECTOR('',#1477,1.);
#1477 = DIRECTION('',(0.707106781187,-2.90882763039E-35,0.707106781187)
  );
#1478 = ORIENTED_EDGE('',*,*,#1479,.F.);
#1479 = EDGE_CURVE('',#1423,#1472,#1480,.T.);
#1480 = LINE('',#1481,#1482);
#1481 = CARTESIAN_POINT('',(9.585,23.155,21.));
#1482 = VECTOR('',#1483,1.);
#1483 = DIRECTION('',(0.,-1.,0.));
#1484 = PLANE('',#1485);
#1485 = AXIS2_PLACEMENT_3D('',#1486,#1487,#1488);
#1486 = CARTESIAN_POINT('',(9.335,23.155,20.75));
#1487 = DIRECTION('',(0.707106781187,1.889513820523E-18,-0.707106781187)
  );
#1488 = DIRECTION('',(-1.336088035637E-18,1.,1.336088035637E-18));
#1489 = ADVANCED_FACE('',(#1490),#1509,.T.);
#1490 = FACE_BOUND('',#1491,.T.);
#1491 = EDGE_LOOP('',(#1492,#1500,#1501,#1502));
#1492 = ORIENTED_EDGE('',*,*,#1493,.F.);
#1493 = EDGE_CURVE('',#756,#1494,#1496,.T.);
#1494 = VERTEX_POINT('',#1495);
#1495 = CARTESIAN_POINT('',(16.415,23.155,21.));
#1496 = LINE('',#1497,#1498);
#1497 = CARTESIAN_POINT('',(16.665,23.155,20.75));
#1498 = VECTOR('',#1499,1.);
#1499 = DIRECTION('',(-0.707106781187,2.90882763039E-35,0.707106781187)
  );
#1500 = ORIENTED_EDGE('',*,*,#763,.T.);
#1501 = ORIENTED_EDGE('',*,*,#1445,.T.);
#1502 = ORIENTED_EDGE('',*,*,#1503,.F.);
#1503 = EDGE_CURVE('',#1494,#1446,#1504,.T.);
#1504 = CIRCLE('',#1505,1.E-01);
#1505 = AXIS2_PLACEMENT_3D('',#1506,#1507,#1508);
#1506 = CARTESIAN_POINT('',(16.315,23.155,21.));
#1507 = DIRECTION('',(0.,0.,1.));
#1508 = DIRECTION('',(1.,0.,0.));
#1509 = CONICAL_SURFACE('',#1510,0.6,0.785398163397);
#1510 = AXIS2_PLACEMENT_3D('',#1511,#1512,#1513);
#1511 = CARTESIAN_POINT('',(16.315,23.155,20.5));
#1512 = DIRECTION('',(-0.,-0.,-1.));
#1513 = DIRECTION('',(1.,0.,0.));
#1514 = ADVANCED_FACE('',(#1515),#1534,.T.);
#1515 = FACE_BOUND('',#1516,.T.);
#1516 = EDGE_LOOP('',(#1517,#1518,#1519,#1527));
#1517 = ORIENTED_EDGE('',*,*,#1471,.F.);
#1518 = ORIENTED_EDGE('',*,*,#788,.T.);
#1519 = ORIENTED_EDGE('',*,*,#1520,.T.);
#1520 = EDGE_CURVE('',#781,#1521,#1523,.T.);
#1521 = VERTEX_POINT('',#1522);
#1522 = CARTESIAN_POINT('',(9.685,16.425,21.));
#1523 = LINE('',#1524,#1525);
#1524 = CARTESIAN_POINT('',(9.685,15.925,20.5));
#1525 = VECTOR('',#1526,1.);
#1526 = DIRECTION('',(4.329780281177E-17,0.707106781187,0.707106781187)
  );
#1527 = ORIENTED_EDGE('',*,*,#1528,.F.);
#1528 = EDGE_CURVE('',#1472,#1521,#1529,.T.);
#1529 = CIRCLE('',#1530,1.E-01);
#1530 = AXIS2_PLACEMENT_3D('',#1531,#1532,#1533);
#1531 = CARTESIAN_POINT('',(9.685,16.525,21.));
#1532 = DIRECTION('',(0.,0.,1.));
#1533 = DIRECTION('',(-1.,0.,0.));
#1534 = CONICAL_SURFACE('',#1535,0.6,0.785398163397);
#1535 = AXIS2_PLACEMENT_3D('',#1536,#1537,#1538);
#1536 = CARTESIAN_POINT('',(9.685,16.525,20.5));
#1537 = DIRECTION('',(-0.,-0.,-1.));
#1538 = DIRECTION('',(-1.,0.,0.));
#1539 = ADVANCED_FACE('',(#1540),#1558,.F.);
#1540 = FACE_BOUND('',#1541,.T.);
#1541 = EDGE_LOOP('',(#1542,#1550,#1551,#1552));
#1542 = ORIENTED_EDGE('',*,*,#1543,.F.);
#1543 = EDGE_CURVE('',#805,#1544,#1546,.T.);
#1544 = VERTEX_POINT('',#1545);
#1545 = CARTESIAN_POINT('',(16.415,16.525,21.));
#1546 = LINE('',#1547,#1548);
#1547 = CARTESIAN_POINT('',(16.915,16.525,20.5));
#1548 = VECTOR('',#1549,1.);
#1549 = DIRECTION('',(-0.707106781187,4.329780281177E-17,0.707106781187)
  );
#1550 = ORIENTED_EDGE('',*,*,#812,.T.);
#1551 = ORIENTED_EDGE('',*,*,#1493,.T.);
#1552 = ORIENTED_EDGE('',*,*,#1553,.F.);
#1553 = EDGE_CURVE('',#1544,#1494,#1554,.T.);
#1554 = LINE('',#1555,#1556);
#1555 = CARTESIAN_POINT('',(16.415,16.525,21.));
#1556 = VECTOR('',#1557,1.);
#1557 = DIRECTION('',(0.,1.,0.));
#1558 = PLANE('',#1559);
#1559 = AXIS2_PLACEMENT_3D('',#1560,#1561,#1562);
#1560 = CARTESIAN_POINT('',(16.665,16.525,20.75));
#1561 = DIRECTION('',(-0.707106781187,-1.889513820523E-18,
    -0.707106781187));
#1562 = DIRECTION('',(1.336088035637E-18,-1.,1.336088035637E-18));
#1563 = ADVANCED_FACE('',(#1564),#1582,.F.);
#1564 = FACE_BOUND('',#1565,.T.);
#1565 = EDGE_LOOP('',(#1566,#1567,#1568,#1576));
#1566 = ORIENTED_EDGE('',*,*,#1520,.F.);
#1567 = ORIENTED_EDGE('',*,*,#829,.T.);
#1568 = ORIENTED_EDGE('',*,*,#1569,.T.);
#1569 = EDGE_CURVE('',#830,#1570,#1572,.T.);
#1570 = VERTEX_POINT('',#1571);
#1571 = CARTESIAN_POINT('',(16.315,16.425,21.));
#1572 = LINE('',#1573,#1574);
#1573 = CARTESIAN_POINT('',(16.315,16.175,20.75));
#1574 = VECTOR('',#1575,1.);
#1575 = DIRECTION('',(2.26130160805E-35,0.707106781187,0.707106781187));
#1576 = ORIENTED_EDGE('',*,*,#1577,.F.);
#1577 = EDGE_CURVE('',#1521,#1570,#1578,.T.);
#1578 = LINE('',#1579,#1580);
#1579 = CARTESIAN_POINT('',(9.685,16.425,21.));
#1580 = VECTOR('',#1581,1.);
#1581 = DIRECTION('',(1.,0.,0.));
#1582 = PLANE('',#1583);
#1583 = AXIS2_PLACEMENT_3D('',#1584,#1585,#1586);
#1584 = CARTESIAN_POINT('',(9.685,16.175,20.75));
#1585 = DIRECTION('',(-3.029276165476E-18,0.707106781187,-0.707106781187
    ));
#1586 = DIRECTION('',(-1.,-2.142021718695E-18,2.142021718695E-18));
#1587 = ADVANCED_FACE('',(#1588),#1600,.T.);
#1588 = FACE_BOUND('',#1589,.T.);
#1589 = EDGE_LOOP('',(#1590,#1591,#1592,#1593));
#1590 = ORIENTED_EDGE('',*,*,#1569,.F.);
#1591 = ORIENTED_EDGE('',*,*,#854,.T.);
#1592 = ORIENTED_EDGE('',*,*,#1543,.T.);
#1593 = ORIENTED_EDGE('',*,*,#1594,.F.);
#1594 = EDGE_CURVE('',#1570,#1544,#1595,.T.);
#1595 = CIRCLE('',#1596,1.E-01);
#1596 = AXIS2_PLACEMENT_3D('',#1597,#1598,#1599);
#1597 = CARTESIAN_POINT('',(16.315,16.525,21.));
#1598 = DIRECTION('',(-0.,0.,1.));
#1599 = DIRECTION('',(0.,-1.,0.));
#1600 = CONICAL_SURFACE('',#1601,0.6,0.785398163397);
#1601 = AXIS2_PLACEMENT_3D('',#1602,#1603,#1604);
#1602 = CARTESIAN_POINT('',(16.315,16.525,20.5));
#1603 = DIRECTION('',(-0.,-0.,-1.));
#1604 = DIRECTION('',(0.,-1.,0.));
#1605 = ADVANCED_FACE('',(#1606),#1617,.F.);
#1606 = FACE_BOUND('',#1607,.F.);
#1607 = EDGE_LOOP('',(#1608,#1609,#1610,#1616));
#1608 = ORIENTED_EDGE('',*,*,#870,.F.);
#1609 = ORIENTED_EDGE('',*,*,#1389,.T.);
#1610 = ORIENTED_EDGE('',*,*,#1611,.T.);
#1611 = EDGE_CURVE('',#1390,#1335,#1612,.T.);
#1612 = LINE('',#1613,#1614);
#1613 = CARTESIAN_POINT('',(30.,6.6,0.));
#1614 = VECTOR('',#1615,1.);
#1615 = DIRECTION('',(0.,1.,0.));
#1616 = ORIENTED_EDGE('',*,*,#1334,.T.);
#1617 = PLANE('',#1618);
#1618 = AXIS2_PLACEMENT_3D('',#1619,#1620,#1621);
#1619 = CARTESIAN_POINT('',(28.172338161771,9.6,0.));
#1620 = DIRECTION('',(0.,0.,1.));
#1621 = DIRECTION('',(1.,0.,0.));
#1622 = ADVANCED_FACE('',(#1623),#1635,.T.);
#1623 = FACE_BOUND('',#1624,.F.);
#1624 = EDGE_LOOP('',(#1625,#1626,#1627,#1628,#1629,#1630,#1631,#1632,
    #1633,#1634));
#1625 = ORIENTED_EDGE('',*,*,#895,.T.);
#1626 = ORIENTED_EDGE('',*,*,#1121,.T.);
#1627 = ORIENTED_EDGE('',*,*,#1104,.T.);
#1628 = ORIENTED_EDGE('',*,*,#1078,.T.);
#1629 = ORIENTED_EDGE('',*,*,#1052,.T.);
#1630 = ORIENTED_EDGE('',*,*,#1026,.T.);
#1631 = ORIENTED_EDGE('',*,*,#1002,.T.);
#1632 = ORIENTED_EDGE('',*,*,#976,.T.);
#1633 = ORIENTED_EDGE('',*,*,#950,.T.);
#1634 = ORIENTED_EDGE('',*,*,#926,.T.);
#1635 = PLANE('',#1636);
#1636 = AXIS2_PLACEMENT_3D('',#1637,#1638,#1639);
#1637 = CARTESIAN_POINT('',(14.302558837369,1.670604141787,
    6.344229796506));
#1638 = DIRECTION('',(0.,-0.939692620786,0.342020143326));
#1639 = DIRECTION('',(1.,0.,0.));
#1640 = ADVANCED_FACE('',(#1641),#1651,.T.);
#1641 = FACE_BOUND('',#1642,.F.);
#1642 = EDGE_LOOP('',(#1643,#1644,#1645,#1646,#1647,#1648,#1649,#1650));
#1643 = ORIENTED_EDGE('',*,*,#1145,.T.);
#1644 = ORIENTED_EDGE('',*,*,#1319,.T.);
#1645 = ORIENTED_EDGE('',*,*,#1300,.T.);
#1646 = ORIENTED_EDGE('',*,*,#1276,.T.);
#1647 = ORIENTED_EDGE('',*,*,#1250,.T.);
#1648 = ORIENTED_EDGE('',*,*,#1224,.T.);
#1649 = ORIENTED_EDGE('',*,*,#1200,.T.);
#1650 = ORIENTED_EDGE('',*,*,#1176,.T.);
#1651 = PLANE('',#1652);
#1652 = AXIS2_PLACEMENT_3D('',#1653,#1654,#1655);
#1653 = CARTESIAN_POINT('',(11.493365821056,1.574120018213,6.07914184565
    ));
#1654 = DIRECTION('',(0.,-0.939692620786,0.342020143326));
#1655 = DIRECTION('',(1.,0.,0.));
#1656 = ADVANCED_FACE('',(#1657),#1663,.F.);
#1657 = FACE_BOUND('',#1658,.F.);
#1658 = EDGE_LOOP('',(#1659,#1660,#1661,#1662));
#1659 = ORIENTED_EDGE('',*,*,#1399,.T.);
#1660 = ORIENTED_EDGE('',*,*,#1374,.T.);
#1661 = ORIENTED_EDGE('',*,*,#1342,.F.);
#1662 = ORIENTED_EDGE('',*,*,#1611,.F.);
#1663 = PLANE('',#1664);
#1664 = AXIS2_PLACEMENT_3D('',#1665,#1666,#1667);
#1665 = CARTESIAN_POINT('',(30.,6.6,0.));
#1666 = DIRECTION('',(-1.,0.,0.));
#1667 = DIRECTION('',(0.,1.,0.));
#1668 = ADVANCED_FACE('',(#1669),#1679,.T.);
#1669 = FACE_BOUND('',#1670,.T.);
#1670 = EDGE_LOOP('',(#1671,#1672,#1673,#1674,#1675,#1676,#1677,#1678));
#1671 = ORIENTED_EDGE('',*,*,#1455,.T.);
#1672 = ORIENTED_EDGE('',*,*,#1430,.T.);
#1673 = ORIENTED_EDGE('',*,*,#1479,.T.);
#1674 = ORIENTED_EDGE('',*,*,#1528,.T.);
#1675 = ORIENTED_EDGE('',*,*,#1577,.T.);
#1676 = ORIENTED_EDGE('',*,*,#1594,.T.);
#1677 = ORIENTED_EDGE('',*,*,#1553,.T.);
#1678 = ORIENTED_EDGE('',*,*,#1503,.T.);
#1679 = PLANE('',#1680);
#1680 = AXIS2_PLACEMENT_3D('',#1681,#1682,#1683);
#1681 = CARTESIAN_POINT('',(13.,19.84,21.));
#1682 = DIRECTION('',(0.,0.,1.));
#1683 = DIRECTION('',(1.,0.,0.));
#1684 = ( GEOMETRIC_REPRESENTATION_CONTEXT(3) 
GLOBAL_UNCERTAINTY_ASSIGNED_CONTEXT((#1688)) 
GLOBAL_UNIT_ASSIGNED_CONTEXT((#1685,#1686,#1687)) REPRESENTATION_CONTEXT
('Context #1','3D Context with UNIT and UNCERTAINTY') );
#1685 = ( LENGTH_UNIT() NAMED_UNIT(*) SI_UNIT(.MILLI.,.METRE.) );
#1686 = ( NAMED_UNIT(*) PLANE_ANGLE_UNIT() SI_UNIT($,.RADIAN.) );
#1687 = ( NAMED_UNIT(*) SI_UNIT($,.STERADIAN.) SOLID_ANGLE_UNIT() );
#1688 = UNCERTAINTY_MEASURE_WITH_UNIT(LENGTH_MEASURE(5.E-07),#1685,
  'distance_accuracy_value','confusion accuracy');
#1689 = PRODUCT_RELATED_PRODUCT_CATEGORY('part',$,(#7));
ENDSEC;
END-ISO-10303-21;
