ISO-10303-21;
HEADER;
FILE_DESCRIPTION(('FreeCAD Model'),'2;1');
FILE_NAME('Open CASCADE Shape Model','2026-08-30T15:30:45',('FreeCAD'),(
    'FreeCAD'),'Open CASCADE STEP processor 7.8','FreeCAD','Unknown');
FILE_SCHEMA(('AUTOMOTIVE_DESIGN { 1 0 10303 214 1 1 1 1 }'));
ENDSEC;
DATA;
#1 = APPLICATION_PROTOCOL_DEFINITION('international standard',
  'automotive_design',2000,#2);
#2 = APPLICATION_CONTEXT(
  'core data for automotive mechanical design processes');
#3 = SHAPE_DEFINITION_REPRESENTATION(#4,#10);
#4 = PRODUCT_DEFINITION_SHAPE('','',#5);
#5 = PRODUCT_DEFINITION('design','',#6,#9);
#6 = PRODUCT_DEFINITION_FORMATION('','',#7);
#7 = PRODUCT('Open CASCADE STEP translator 7.8 117',
  'Open CASCADE STEP translator 7.8 117','',(#8));
#8 = PRODUCT_CONTEXT('',#2,'mechanical');
#9 = PRODUCT_DEFINITION_CONTEXT('part definition',#2,'design');
#10 = SHAPE_REPRESENTATION('',(#11,#15,#760,#1141),#1258);
#11 = AXIS2_PLACEMENT_3D('',#12,#13,#14);
#12 = CARTESIAN_POINT('',(0.,0.,0.));
#13 = DIRECTION('',(0.,0.,1.));
#14 = DIRECTION('',(1.,0.,-0.));
#15 = MANIFOLD_SOLID_BREP('',#16);
#16 = CLOSED_SHELL('',(#17,#57,#88,#121,#154,#187,#220,#253,#286,#319,
    #352,#383,#416,#449,#482,#515,#548,#581,#614,#647,#680,#702,#731));
#17 = ADVANCED_FACE('',(#18),#52,.T.);
#18 = FACE_BOUND('',#19,.T.);
#19 = EDGE_LOOP('',(#20,#30,#38,#46));
#20 = ORIENTED_EDGE('',*,*,#21,.T.);
#21 = EDGE_CURVE('',#22,#24,#26,.T.);
#22 = VERTEX_POINT('',#23);
#23 = CARTESIAN_POINT('',(21.098343949045,1.802024570724,4.366260937334)
  );
#24 = VERTEX_POINT('',#25);
#25 = CARTESIAN_POINT('',(21.098343949045,1.050270474095,4.639877051995)
  );
#26 = LINE('',#27,#28);
#27 = CARTESIAN_POINT('',(21.098343949045,1.802024570724,4.366260937334)
  );
#28 = VECTOR('',#29,1.);
#29 = DIRECTION('',(0.,-0.939692620786,0.342020143326));
#30 = ORIENTED_EDGE('',*,*,#31,.T.);
#31 = EDGE_CURVE('',#24,#32,#34,.T.);
#32 = VERTEX_POINT('',#33);
#33 = CARTESIAN_POINT('',(21.098343949045,0.71008024746,3.705212085995)
  );
#34 = LINE('',#35,#36);
#35 = CARTESIAN_POINT('',(21.098343949045,1.050270474095,4.639877051995)
  );
#36 = VECTOR('',#37,1.);
#37 = DIRECTION('',(0.,-0.342020143326,-0.939692620786));
#38 = ORIENTED_EDGE('',*,*,#39,.F.);
#39 = EDGE_CURVE('',#40,#32,#42,.T.);
#40 = VERTEX_POINT('',#41);
#41 = CARTESIAN_POINT('',(21.098343949045,1.461834344089,3.431595971335)
  );
#42 = LINE('',#43,#44);
#43 = CARTESIAN_POINT('',(21.098343949045,1.461834344089,3.431595971335)
  );
#44 = VECTOR('',#45,1.);
#45 = DIRECTION('',(0.,-0.939692620786,0.342020143326));
#46 = ORIENTED_EDGE('',*,*,#47,.F.);
#47 = EDGE_CURVE('',#22,#40,#48,.T.);
#48 = LINE('',#49,#50);
#49 = CARTESIAN_POINT('',(21.098343949045,1.802024570724,4.366260937334)
  );
#50 = VECTOR('',#51,1.);
#51 = DIRECTION('',(0.,-0.342020143326,-0.939692620786));
#52 = PLANE('',#53);
#53 = AXIS2_PLACEMENT_3D('',#54,#55,#56);
#54 = CARTESIAN_POINT('',(21.098343949045,1.802024570724,4.366260937334)
  );
#55 = DIRECTION('',(1.,0.,0.));
#56 = DIRECTION('',(0.,-0.342020143326,-0.939692620786));
#57 = ADVANCED_FACE('',(#58),#83,.T.);
#58 = FACE_BOUND('',#59,.T.);
#59 = EDGE_LOOP('',(#60,#61,#69,#77));
#60 = ORIENTED_EDGE('',*,*,#39,.T.);
#61 = ORIENTED_EDGE('',*,*,#62,.T.);
#62 = EDGE_CURVE('',#32,#63,#65,.T.);
#63 = VERTEX_POINT('',#64);
#64 = CARTESIAN_POINT('',(17.334012738854,0.71008024746,3.705212085995)
  );
#65 = LINE('',#66,#67);
#66 = CARTESIAN_POINT('',(21.098343949045,0.71008024746,3.705212085995)
  );
#67 = VECTOR('',#68,1.);
#68 = DIRECTION('',(-1.,0.,0.));
#69 = ORIENTED_EDGE('',*,*,#70,.F.);
#70 = EDGE_CURVE('',#71,#63,#73,.T.);
#71 = VERTEX_POINT('',#72);
#72 = CARTESIAN_POINT('',(17.334012738854,1.461834344089,3.431595971335)
  );
#73 = LINE('',#74,#75);
#74 = CARTESIAN_POINT('',(17.334012738854,1.461834344089,3.431595971335)
  );
#75 = VECTOR('',#76,1.);
#76 = DIRECTION('',(0.,-0.939692620786,0.342020143326));
#77 = ORIENTED_EDGE('',*,*,#78,.F.);
#78 = EDGE_CURVE('',#40,#71,#79,.T.);
#79 = LINE('',#80,#81);
#80 = CARTESIAN_POINT('',(21.098343949045,1.461834344089,3.431595971335)
  );
#81 = VECTOR('',#82,1.);
#82 = DIRECTION('',(-1.,0.,0.));
#83 = PLANE('',#84);
#84 = AXIS2_PLACEMENT_3D('',#85,#86,#87);
#85 = CARTESIAN_POINT('',(21.098343949045,1.461834344089,3.431595971335)
  );
#86 = DIRECTION('',(0.,-0.342020143326,-0.939692620786));
#87 = DIRECTION('',(-1.,0.,0.));
#88 = ADVANCED_FACE('',(#89),#114,.T.);
#89 = FACE_BOUND('',#90,.T.);
#90 = EDGE_LOOP('',(#91,#92,#100,#108));
#91 = ORIENTED_EDGE('',*,*,#70,.T.);
#92 = ORIENTED_EDGE('',*,*,#93,.T.);
#93 = EDGE_CURVE('',#63,#94,#96,.T.);
#94 = VERTEX_POINT('',#95);
#95 = CARTESIAN_POINT('',(17.700891719745,1.077457807781,4.714573637392)
  );
#96 = B_SPLINE_CURVE_WITH_KNOTS('',2,(#97,#98,#99),.UNSPECIFIED.,.F.,.F.
  ,(3,3),(0.,1.),.PIECEWISE_BEZIER_KNOTS.);
#97 = CARTESIAN_POINT('',(17.334012738854,0.71008024746,3.705212085995)
  );
#98 = CARTESIAN_POINT('',(17.395159235669,0.903964277753,4.237904081218)
  );
#99 = CARTESIAN_POINT('',(17.700891719745,1.077457807781,4.714573637392)
  );
#100 = ORIENTED_EDGE('',*,*,#101,.F.);
#101 = EDGE_CURVE('',#102,#94,#104,.T.);
#102 = VERTEX_POINT('',#103);
#103 = CARTESIAN_POINT('',(17.700891719745,1.82921190441,4.440957522732)
  );
#104 = LINE('',#105,#106);
#105 = CARTESIAN_POINT('',(17.700891719745,1.82921190441,4.440957522732)
  );
#106 = VECTOR('',#107,1.);
#107 = DIRECTION('',(0.,-0.939692620786,0.342020143326));
#108 = ORIENTED_EDGE('',*,*,#109,.F.);
#109 = EDGE_CURVE('',#71,#102,#110,.T.);
#110 = B_SPLINE_CURVE_WITH_KNOTS('',2,(#111,#112,#113),.UNSPECIFIED.,.F.
  ,.F.,(3,3),(0.,1.),.PIECEWISE_BEZIER_KNOTS.);
#111 = CARTESIAN_POINT('',(17.334012738854,1.461834344089,3.431595971335
    ));
#112 = CARTESIAN_POINT('',(17.395159235669,1.655718374382,3.964287966557
    ));
#113 = CARTESIAN_POINT('',(17.700891719745,1.82921190441,4.440957522732)
  );
#114 = SURFACE_OF_LINEAR_EXTRUSION('',#115,#119);
#115 = B_SPLINE_CURVE_WITH_KNOTS('',2,(#116,#117,#118),.UNSPECIFIED.,.F.
  ,.F.,(3,3),(0.,1.),.PIECEWISE_BEZIER_KNOTS.);
#116 = CARTESIAN_POINT('',(17.334012738854,1.461834344089,3.431595971335
    ));
#117 = CARTESIAN_POINT('',(17.395159235669,1.655718374382,3.964287966557
    ));
#118 = CARTESIAN_POINT('',(17.700891719745,1.82921190441,4.440957522732)
  );
#119 = VECTOR('',#120,1.);
#120 = DIRECTION('',(-0.,0.939692620786,-0.342020143326));
#121 = ADVANCED_FACE('',(#122),#147,.T.);
#122 = FACE_BOUND('',#123,.T.);
#123 = EDGE_LOOP('',(#124,#125,#133,#141));
#124 = ORIENTED_EDGE('',*,*,#101,.T.);
#125 = ORIENTED_EDGE('',*,*,#126,.T.);
#126 = EDGE_CURVE('',#94,#127,#129,.T.);
#127 = VERTEX_POINT('',#128);
#128 = CARTESIAN_POINT('',(18.908535031847,1.537899702643,5.979627346496
    ));
#129 = B_SPLINE_CURVE_WITH_KNOTS('',2,(#130,#131,#132),.UNSPECIFIED.,.F.
  ,.F.,(3,3),(0.,1.),.PIECEWISE_BEZIER_KNOTS.);
#130 = CARTESIAN_POINT('',(17.700891719745,1.077457807781,4.714573637392
    ));
#131 = CARTESIAN_POINT('',(18.006624203822,1.2510384767,5.1914826057));
#132 = CARTESIAN_POINT('',(18.908535031847,1.537899702643,5.979627346496
    ));
#133 = ORIENTED_EDGE('',*,*,#134,.F.);
#134 = EDGE_CURVE('',#135,#127,#137,.T.);
#135 = VERTEX_POINT('',#136);
#136 = CARTESIAN_POINT('',(18.908535031847,2.289653799272,5.706011231836
    ));
#137 = LINE('',#138,#139);
#138 = CARTESIAN_POINT('',(18.908535031847,2.289653799272,5.706011231836
    ));
#139 = VECTOR('',#140,1.);
#140 = DIRECTION('',(0.,-0.939692620786,0.342020143326));
#141 = ORIENTED_EDGE('',*,*,#142,.F.);
#142 = EDGE_CURVE('',#102,#135,#143,.T.);
#143 = B_SPLINE_CURVE_WITH_KNOTS('',2,(#144,#145,#146),.UNSPECIFIED.,.F.
  ,.F.,(3,3),(0.,1.),.PIECEWISE_BEZIER_KNOTS.);
#144 = CARTESIAN_POINT('',(17.700891719745,1.82921190441,4.440957522732)
  );
#145 = CARTESIAN_POINT('',(18.006624203822,2.002792573329,4.917866491039
    ));
#146 = CARTESIAN_POINT('',(18.908535031847,2.289653799272,5.706011231836
    ));
#147 = SURFACE_OF_LINEAR_EXTRUSION('',#148,#152);
#148 = B_SPLINE_CURVE_WITH_KNOTS('',2,(#149,#150,#151),.UNSPECIFIED.,.F.
  ,.F.,(3,3),(0.,1.),.PIECEWISE_BEZIER_KNOTS.);
#149 = CARTESIAN_POINT('',(17.700891719745,1.82921190441,4.440957522732)
  );
#150 = CARTESIAN_POINT('',(18.006624203822,2.002792573329,4.917866491039
    ));
#151 = CARTESIAN_POINT('',(18.908535031847,2.289653799272,5.706011231836
    ));
#152 = VECTOR('',#153,1.);
#153 = DIRECTION('',(-0.,0.939692620786,-0.342020143326));
#154 = ADVANCED_FACE('',(#155),#180,.T.);
#155 = FACE_BOUND('',#156,.T.);
#156 = EDGE_LOOP('',(#157,#158,#166,#174));
#157 = ORIENTED_EDGE('',*,*,#134,.T.);
#158 = ORIENTED_EDGE('',*,*,#159,.T.);
#159 = EDGE_CURVE('',#127,#160,#162,.T.);
#160 = VERTEX_POINT('',#161);
#161 = CARTESIAN_POINT('',(19.79898089172,1.852209678943,6.843186909089)
  );
#162 = B_SPLINE_CURVE_WITH_KNOTS('',2,(#163,#164,#165),.UNSPECIFIED.,.F.
  ,.F.,(3,3),(0.,1.),.PIECEWISE_BEZIER_KNOTS.);
#163 = CARTESIAN_POINT('',(18.908535031847,1.537899702643,5.979627346496
    ));
#164 = CARTESIAN_POINT('',(19.634649681529,1.769689150095,6.616463619437
    ));
#165 = CARTESIAN_POINT('',(19.79898089172,1.852209678943,6.843186909089)
  );
#166 = ORIENTED_EDGE('',*,*,#167,.F.);
#167 = EDGE_CURVE('',#168,#160,#170,.T.);
#168 = VERTEX_POINT('',#169);
#169 = CARTESIAN_POINT('',(19.79898089172,2.603963775572,6.569570794428)
  );
#170 = LINE('',#171,#172);
#171 = CARTESIAN_POINT('',(19.79898089172,2.603963775572,6.569570794428)
  );
#172 = VECTOR('',#173,1.);
#173 = DIRECTION('',(0.,-0.939692620786,0.342020143326));
#174 = ORIENTED_EDGE('',*,*,#175,.F.);
#175 = EDGE_CURVE('',#135,#168,#176,.T.);
#176 = B_SPLINE_CURVE_WITH_KNOTS('',2,(#177,#178,#179),.UNSPECIFIED.,.F.
  ,.F.,(3,3),(0.,1.),.PIECEWISE_BEZIER_KNOTS.);
#177 = CARTESIAN_POINT('',(18.908535031847,2.289653799272,5.706011231836
    ));
#178 = CARTESIAN_POINT('',(19.634649681529,2.521443246723,6.342847504776
    ));
#179 = CARTESIAN_POINT('',(19.79898089172,2.603963775572,6.569570794428)
  );
#180 = SURFACE_OF_LINEAR_EXTRUSION('',#181,#185);
#181 = B_SPLINE_CURVE_WITH_KNOTS('',2,(#182,#183,#184),.UNSPECIFIED.,.F.
  ,.F.,(3,3),(0.,1.),.PIECEWISE_BEZIER_KNOTS.);
#182 = CARTESIAN_POINT('',(18.908535031847,2.289653799272,5.706011231836
    ));
#183 = CARTESIAN_POINT('',(19.634649681529,2.521443246723,6.342847504776
    ));
#184 = CARTESIAN_POINT('',(19.79898089172,2.603963775572,6.569570794428)
  );
#185 = VECTOR('',#186,1.);
#186 = DIRECTION('',(-0.,0.939692620786,-0.342020143326));
#187 = ADVANCED_FACE('',(#188),#213,.T.);
#188 = FACE_BOUND('',#189,.T.);
#189 = EDGE_LOOP('',(#190,#191,#199,#207));
#190 = ORIENTED_EDGE('',*,*,#167,.T.);
#191 = ORIENTED_EDGE('',*,*,#192,.T.);
#192 = EDGE_CURVE('',#160,#193,#195,.T.);
#193 = VERTEX_POINT('',#194);
#194 = CARTESIAN_POINT('',(20.020636942675,2.077550848533,7.46230668421)
  );
#195 = B_SPLINE_CURVE_WITH_KNOTS('',2,(#196,#197,#198),.UNSPECIFIED.,.F.
  ,.F.,(3,3),(0.,1.),.PIECEWISE_BEZIER_KNOTS.);
#196 = CARTESIAN_POINT('',(19.79898089172,1.852209678943,6.843186909089)
  );
#197 = CARTESIAN_POINT('',(20.020636942675,1.966187347088,7.15633797864)
  );
#198 = CARTESIAN_POINT('',(20.020636942675,2.077550848533,7.46230668421)
  );
#199 = ORIENTED_EDGE('',*,*,#200,.F.);
#200 = EDGE_CURVE('',#201,#193,#203,.T.);
#201 = VERTEX_POINT('',#202);
#202 = CARTESIAN_POINT('',(20.020636942675,2.829304945161,7.18869056955)
  );
#203 = LINE('',#204,#205);
#204 = CARTESIAN_POINT('',(20.020636942675,2.829304945161,7.18869056955)
  );
#205 = VECTOR('',#206,1.);
#206 = DIRECTION('',(0.,-0.939692620786,0.342020143326));
#207 = ORIENTED_EDGE('',*,*,#208,.F.);
#208 = EDGE_CURVE('',#168,#201,#209,.T.);
#209 = B_SPLINE_CURVE_WITH_KNOTS('',2,(#210,#211,#212),.UNSPECIFIED.,.F.
  ,.F.,(3,3),(0.,1.),.PIECEWISE_BEZIER_KNOTS.);
#210 = CARTESIAN_POINT('',(19.79898089172,2.603963775572,6.569570794428)
  );
#211 = CARTESIAN_POINT('',(20.020636942675,2.717941443717,6.882721863979
    ));
#212 = CARTESIAN_POINT('',(20.020636942675,2.829304945161,7.18869056955)
  );
#213 = SURFACE_OF_LINEAR_EXTRUSION('',#214,#218);
#214 = B_SPLINE_CURVE_WITH_KNOTS('',2,(#215,#216,#217),.UNSPECIFIED.,.F.
  ,.F.,(3,3),(0.,1.),.PIECEWISE_BEZIER_KNOTS.);
#215 = CARTESIAN_POINT('',(19.79898089172,2.603963775572,6.569570794428)
  );
#216 = CARTESIAN_POINT('',(20.020636942675,2.717941443717,6.882721863979
    ));
#217 = CARTESIAN_POINT('',(20.020636942675,2.829304945161,7.18869056955)
  );
#218 = VECTOR('',#219,1.);
#219 = DIRECTION('',(-0.,0.939692620786,-0.342020143326));
#220 = ADVANCED_FACE('',(#221),#246,.T.);
#221 = FACE_BOUND('',#222,.T.);
#222 = EDGE_LOOP('',(#223,#224,#232,#240));
#223 = ORIENTED_EDGE('',*,*,#200,.T.);
#224 = ORIENTED_EDGE('',*,*,#225,.T.);
#225 = EDGE_CURVE('',#193,#226,#228,.T.);
#226 = VERTEX_POINT('',#227);
#227 = CARTESIAN_POINT('',(19.827515923567,2.266816517655,7.982309836401
    ));
#228 = B_SPLINE_CURVE_WITH_KNOTS('',2,(#229,#230,#231),.UNSPECIFIED.,.F.
  ,.F.,(3,3),(0.,1.),.PIECEWISE_BEZIER_KNOTS.);
#229 = CARTESIAN_POINT('',(20.020636942675,2.077550848533,7.46230668421)
  );
#230 = CARTESIAN_POINT('',(20.020636942675,2.20067810013,7.800596027693)
  );
#231 = CARTESIAN_POINT('',(19.827515923567,2.266816517655,7.982309836401
    ));
#232 = ORIENTED_EDGE('',*,*,#233,.F.);
#233 = EDGE_CURVE('',#234,#226,#236,.T.);
#234 = VERTEX_POINT('',#235);
#235 = CARTESIAN_POINT('',(19.827515923567,3.018570614283,7.70869372174)
  );
#236 = LINE('',#237,#238);
#237 = CARTESIAN_POINT('',(19.827515923567,3.018570614283,7.70869372174)
  );
#238 = VECTOR('',#239,1.);
#239 = DIRECTION('',(0.,-0.939692620786,0.342020143326));
#240 = ORIENTED_EDGE('',*,*,#241,.F.);
#241 = EDGE_CURVE('',#201,#234,#242,.T.);
#242 = B_SPLINE_CURVE_WITH_KNOTS('',2,(#243,#244,#245),.UNSPECIFIED.,.F.
  ,.F.,(3,3),(0.,1.),.PIECEWISE_BEZIER_KNOTS.);
#243 = CARTESIAN_POINT('',(20.020636942675,2.829304945161,7.18869056955)
  );
#244 = CARTESIAN_POINT('',(20.020636942675,2.952432196759,7.526979913033
    ));
#245 = CARTESIAN_POINT('',(19.827515923567,3.018570614283,7.70869372174)
  );
#246 = SURFACE_OF_LINEAR_EXTRUSION('',#247,#251);
#247 = B_SPLINE_CURVE_WITH_KNOTS('',2,(#248,#249,#250),.UNSPECIFIED.,.F.
  ,.F.,(3,3),(0.,1.),.PIECEWISE_BEZIER_KNOTS.);
#248 = CARTESIAN_POINT('',(20.020636942675,2.829304945161,7.18869056955)
  );
#249 = CARTESIAN_POINT('',(20.020636942675,2.952432196759,7.526979913033
    ));
#250 = CARTESIAN_POINT('',(19.827515923567,3.018570614283,7.70869372174)
  );
#251 = VECTOR('',#252,1.);
#252 = DIRECTION('',(-0.,0.939692620786,-0.342020143326));
#253 = ADVANCED_FACE('',(#254),#279,.T.);
#254 = FACE_BOUND('',#255,.T.);
#255 = EDGE_LOOP('',(#256,#257,#265,#273));
#256 = ORIENTED_EDGE('',*,*,#233,.T.);
#257 = ORIENTED_EDGE('',*,*,#258,.T.);
#258 = EDGE_CURVE('',#226,#259,#261,.T.);
#259 = VERTEX_POINT('',#260);
#260 = CARTESIAN_POINT('',(19.294522292994,2.332954935179,8.164023645108
    ));
#261 = B_SPLINE_CURVE_WITH_KNOTS('',2,(#262,#263,#264),.UNSPECIFIED.,.F.
  ,.F.,(3,3),(0.,1.),.PIECEWISE_BEZIER_KNOTS.);
#262 = CARTESIAN_POINT('',(19.827515923567,2.266816517655,7.982309836401
    ));
#263 = CARTESIAN_POINT('',(19.634649681529,2.332954935179,8.164023645108
    ));
#264 = CARTESIAN_POINT('',(19.294522292994,2.332954935179,8.164023645108
    ));
#265 = ORIENTED_EDGE('',*,*,#266,.F.);
#266 = EDGE_CURVE('',#267,#259,#269,.T.);
#267 = VERTEX_POINT('',#268);
#268 = CARTESIAN_POINT('',(19.294522292994,3.084709031808,7.890407530447
    ));
#269 = LINE('',#270,#271);
#270 = CARTESIAN_POINT('',(19.294522292994,3.084709031808,7.890407530447
    ));
#271 = VECTOR('',#272,1.);
#272 = DIRECTION('',(0.,-0.939692620786,0.342020143326));
#273 = ORIENTED_EDGE('',*,*,#274,.F.);
#274 = EDGE_CURVE('',#234,#267,#275,.T.);
#275 = B_SPLINE_CURVE_WITH_KNOTS('',2,(#276,#277,#278),.UNSPECIFIED.,.F.
  ,.F.,(3,3),(0.,1.),.PIECEWISE_BEZIER_KNOTS.);
#276 = CARTESIAN_POINT('',(19.827515923567,3.018570614283,7.70869372174)
  );
#277 = CARTESIAN_POINT('',(19.634649681529,3.084709031808,7.890407530447
    ));
#278 = CARTESIAN_POINT('',(19.294522292994,3.084709031808,7.890407530447
    ));
#279 = SURFACE_OF_LINEAR_EXTRUSION('',#280,#284);
#280 = B_SPLINE_CURVE_WITH_KNOTS('',2,(#281,#282,#283),.UNSPECIFIED.,.F.
  ,.F.,(3,3),(0.,1.),.PIECEWISE_BEZIER_KNOTS.);
#281 = CARTESIAN_POINT('',(19.827515923567,3.018570614283,7.70869372174)
  );
#282 = CARTESIAN_POINT('',(19.634649681529,3.084709031808,7.890407530447
    ));
#283 = CARTESIAN_POINT('',(19.294522292994,3.084709031808,7.890407530447
    ));
#284 = VECTOR('',#285,1.);
#285 = DIRECTION('',(-0.,0.939692620786,-0.342020143326));
#286 = ADVANCED_FACE('',(#287),#312,.T.);
#287 = FACE_BOUND('',#288,.T.);
#288 = EDGE_LOOP('',(#289,#290,#298,#306));
#289 = ORIENTED_EDGE('',*,*,#266,.T.);
#290 = ORIENTED_EDGE('',*,*,#291,.T.);
#291 = EDGE_CURVE('',#259,#292,#294,.T.);
#292 = VERTEX_POINT('',#293);
#293 = CARTESIAN_POINT('',(18.75949044586,2.263243823164,7.972493938961)
  );
#294 = B_SPLINE_CURVE_WITH_KNOTS('',2,(#295,#296,#297),.UNSPECIFIED.,.F.
  ,.F.,(3,3),(0.,1.),.PIECEWISE_BEZIER_KNOTS.);
#295 = CARTESIAN_POINT('',(19.294522292994,2.332954935179,8.164023645108
    ));
#296 = CARTESIAN_POINT('',(18.95821656051,2.332954935179,8.164023645108)
  );
#297 = CARTESIAN_POINT('',(18.75949044586,2.263243823164,7.972493938961)
  );
#298 = ORIENTED_EDGE('',*,*,#299,.F.);
#299 = EDGE_CURVE('',#300,#292,#302,.T.);
#300 = VERTEX_POINT('',#301);
#301 = CARTESIAN_POINT('',(18.75949044586,3.014997919793,7.6988778243));
#302 = LINE('',#303,#304);
#303 = CARTESIAN_POINT('',(18.75949044586,3.014997919793,7.6988778243));
#304 = VECTOR('',#305,1.);
#305 = DIRECTION('',(0.,-0.939692620786,0.342020143326));
#306 = ORIENTED_EDGE('',*,*,#307,.F.);
#307 = EDGE_CURVE('',#267,#300,#308,.T.);
#308 = B_SPLINE_CURVE_WITH_KNOTS('',2,(#309,#310,#311),.UNSPECIFIED.,.F.
  ,.F.,(3,3),(0.,1.),.PIECEWISE_BEZIER_KNOTS.);
#309 = CARTESIAN_POINT('',(19.294522292994,3.084709031808,7.890407530447
    ));
#310 = CARTESIAN_POINT('',(18.95821656051,3.084709031808,7.890407530447)
  );
#311 = CARTESIAN_POINT('',(18.75949044586,3.014997919793,7.6988778243));
#312 = SURFACE_OF_LINEAR_EXTRUSION('',#313,#317);
#313 = B_SPLINE_CURVE_WITH_KNOTS('',2,(#314,#315,#316),.UNSPECIFIED.,.F.
  ,.F.,(3,3),(0.,1.),.PIECEWISE_BEZIER_KNOTS.);
#314 = CARTESIAN_POINT('',(19.294522292994,3.084709031808,7.890407530447
    ));
#315 = CARTESIAN_POINT('',(18.95821656051,3.084709031808,7.890407530447)
  );
#316 = CARTESIAN_POINT('',(18.75949044586,3.014997919793,7.6988778243));
#317 = VECTOR('',#318,1.);
#318 = DIRECTION('',(-0.,0.939692620786,-0.342020143326));
#319 = ADVANCED_FACE('',(#320),#345,.T.);
#320 = FACE_BOUND('',#321,.T.);
#321 = EDGE_LOOP('',(#322,#323,#331,#339));
#322 = ORIENTED_EDGE('',*,*,#299,.T.);
#323 = ORIENTED_EDGE('',*,*,#324,.T.);
#324 = EDGE_CURVE('',#292,#325,#327,.T.);
#325 = VERTEX_POINT('',#326);
#326 = CARTESIAN_POINT('',(18.530191082803,2.031802931273,7.336615314551
    ));
#327 = B_SPLINE_CURVE_WITH_KNOTS('',2,(#328,#329,#330),.UNSPECIFIED.,.F.
  ,.F.,(3,3),(0.,1.),.PIECEWISE_BEZIER_KNOTS.);
#328 = CARTESIAN_POINT('',(18.75949044586,2.263243823164,7.972493938961)
  );
#329 = CARTESIAN_POINT('',(18.56076433121,2.193532711148,7.780964232813)
  );
#330 = CARTESIAN_POINT('',(18.530191082803,2.031802931273,7.336615314551
    ));
#331 = ORIENTED_EDGE('',*,*,#332,.F.);
#332 = EDGE_CURVE('',#333,#325,#335,.T.);
#333 = VERTEX_POINT('',#334);
#334 = CARTESIAN_POINT('',(18.530191082803,2.783557027901,7.06299919989)
  );
#335 = LINE('',#336,#337);
#336 = CARTESIAN_POINT('',(18.530191082803,2.783557027901,7.06299919989)
  );
#337 = VECTOR('',#338,1.);
#338 = DIRECTION('',(0.,-0.939692620786,0.342020143326));
#339 = ORIENTED_EDGE('',*,*,#340,.F.);
#340 = EDGE_CURVE('',#300,#333,#341,.T.);
#341 = B_SPLINE_CURVE_WITH_KNOTS('',2,(#342,#343,#344),.UNSPECIFIED.,.F.
  ,.F.,(3,3),(0.,1.),.PIECEWISE_BEZIER_KNOTS.);
#342 = CARTESIAN_POINT('',(18.75949044586,3.014997919793,7.6988778243));
#343 = CARTESIAN_POINT('',(18.56076433121,2.945286807777,7.507348118153)
  );
#344 = CARTESIAN_POINT('',(18.530191082803,2.783557027901,7.06299919989)
  );
#345 = SURFACE_OF_LINEAR_EXTRUSION('',#346,#350);
#346 = B_SPLINE_CURVE_WITH_KNOTS('',2,(#347,#348,#349),.UNSPECIFIED.,.F.
  ,.F.,(3,3),(0.,1.),.PIECEWISE_BEZIER_KNOTS.);
#347 = CARTESIAN_POINT('',(18.75949044586,3.014997919793,7.6988778243));
#348 = CARTESIAN_POINT('',(18.56076433121,2.945286807777,7.507348118153)
  );
#349 = CARTESIAN_POINT('',(18.530191082803,2.783557027901,7.06299919989)
  );
#350 = VECTOR('',#351,1.);
#351 = DIRECTION('',(-0.,0.939692620786,-0.342020143326));
#352 = ADVANCED_FACE('',(#353),#378,.T.);
#353 = FACE_BOUND('',#354,.T.);
#354 = EDGE_LOOP('',(#355,#356,#364,#372));
#355 = ORIENTED_EDGE('',*,*,#332,.T.);
#356 = ORIENTED_EDGE('',*,*,#357,.T.);
#357 = EDGE_CURVE('',#325,#358,#360,.T.);
#358 = VERTEX_POINT('',#359);
#359 = CARTESIAN_POINT('',(17.460127388535,2.068662681751,7.437886646676
    ));
#360 = LINE('',#361,#362);
#361 = CARTESIAN_POINT('',(18.530191082803,2.031802931273,7.336615314551
    ));
#362 = VECTOR('',#363,1.);
#363 = DIRECTION('',(-0.994966576024,3.427293152997E-02,
    9.416410547709E-02));
#364 = ORIENTED_EDGE('',*,*,#365,.F.);
#365 = EDGE_CURVE('',#366,#358,#368,.T.);
#366 = VERTEX_POINT('',#367);
#367 = CARTESIAN_POINT('',(17.460127388535,2.820416778379,7.164270532016
    ));
#368 = LINE('',#369,#370);
#369 = CARTESIAN_POINT('',(17.460127388535,2.820416778379,7.164270532016
    ));
#370 = VECTOR('',#371,1.);
#371 = DIRECTION('',(0.,-0.939692620786,0.342020143326));
#372 = ORIENTED_EDGE('',*,*,#373,.F.);
#373 = EDGE_CURVE('',#333,#366,#374,.T.);
#374 = LINE('',#375,#376);
#375 = CARTESIAN_POINT('',(18.530191082803,2.783557027901,7.06299919989)
  );
#376 = VECTOR('',#377,1.);
#377 = DIRECTION('',(-0.994966576024,3.427293152997E-02,
    9.416410547709E-02));
#378 = PLANE('',#379);
#379 = AXIS2_PLACEMENT_3D('',#380,#381,#382);
#380 = CARTESIAN_POINT('',(18.530191082803,2.783557027901,7.06299919989)
  );
#381 = DIRECTION('',(-0.100207348014,-0.340298610936,-0.934962749418));
#382 = DIRECTION('',(-0.994966576024,3.427293152997E-02,
    9.416410547709E-02));
#383 = ADVANCED_FACE('',(#384),#409,.T.);
#384 = FACE_BOUND('',#385,.T.);
#385 = EDGE_LOOP('',(#386,#387,#395,#403));
#386 = ORIENTED_EDGE('',*,*,#365,.T.);
#387 = ORIENTED_EDGE('',*,*,#388,.T.);
#388 = EDGE_CURVE('',#358,#389,#391,.T.);
#389 = VERTEX_POINT('',#390);
#390 = CARTESIAN_POINT('',(18.060127388535,2.506797020768,8.641650849813
    ));
#391 = B_SPLINE_CURVE_WITH_KNOTS('',2,(#392,#393,#394),.UNSPECIFIED.,.F.
  ,.F.,(3,3),(0.,1.),.PIECEWISE_BEZIER_KNOTS.);
#392 = CARTESIAN_POINT('',(17.460127388535,2.068662681751,7.437886646676
    ));
#393 = CARTESIAN_POINT('',(17.555668789809,2.373910213488,8.27654734747)
  );
#394 = CARTESIAN_POINT('',(18.060127388535,2.506797020768,8.641650849813
    ));
#395 = ORIENTED_EDGE('',*,*,#396,.F.);
#396 = EDGE_CURVE('',#397,#389,#399,.T.);
#397 = VERTEX_POINT('',#398);
#398 = CARTESIAN_POINT('',(18.060127388535,3.258551117396,8.368034735153
    ));
#399 = LINE('',#400,#401);
#400 = CARTESIAN_POINT('',(18.060127388535,3.258551117396,8.368034735153
    ));
#401 = VECTOR('',#402,1.);
#402 = DIRECTION('',(0.,-0.939692620786,0.342020143326));
#403 = ORIENTED_EDGE('',*,*,#404,.F.);
#404 = EDGE_CURVE('',#366,#397,#405,.T.);
#405 = B_SPLINE_CURVE_WITH_KNOTS('',2,(#406,#407,#408),.UNSPECIFIED.,.F.
  ,.F.,(3,3),(0.,1.),.PIECEWISE_BEZIER_KNOTS.);
#406 = CARTESIAN_POINT('',(17.460127388535,2.820416778379,7.164270532016
    ));
#407 = CARTESIAN_POINT('',(17.555668789809,3.125664310117,8.002931232809
    ));
#408 = CARTESIAN_POINT('',(18.060127388535,3.258551117396,8.368034735153
    ));
#409 = SURFACE_OF_LINEAR_EXTRUSION('',#410,#414);
#410 = B_SPLINE_CURVE_WITH_KNOTS('',2,(#411,#412,#413),.UNSPECIFIED.,.F.
  ,.F.,(3,3),(0.,1.),.PIECEWISE_BEZIER_KNOTS.);
#411 = CARTESIAN_POINT('',(17.460127388535,2.820416778379,7.164270532016
    ));
#412 = CARTESIAN_POINT('',(17.555668789809,3.125664310117,8.002931232809
    ));
#413 = CARTESIAN_POINT('',(18.060127388535,3.258551117396,8.368034735153
    ));
#414 = VECTOR('',#415,1.);
#415 = DIRECTION('',(-0.,0.939692620786,-0.342020143326));
#416 = ADVANCED_FACE('',(#417),#442,.T.);
#417 = FACE_BOUND('',#418,.T.);
#418 = EDGE_LOOP('',(#419,#420,#428,#436));
#419 = ORIENTED_EDGE('',*,*,#396,.T.);
#420 = ORIENTED_EDGE('',*,*,#421,.T.);
#421 = EDGE_CURVE('',#389,#422,#424,.T.);
#422 = VERTEX_POINT('',#423);
#423 = CARTESIAN_POINT('',(19.32127388535,2.639683828047,9.006754352157)
  );
#424 = B_SPLINE_CURVE_WITH_KNOTS('',2,(#425,#426,#427),.UNSPECIFIED.,.F.
  ,.F.,(3,3),(0.,1.),.PIECEWISE_BEZIER_KNOTS.);
#425 = CARTESIAN_POINT('',(18.060127388535,2.506797020768,8.641650849813
    ));
#426 = CARTESIAN_POINT('',(18.564585987261,2.639683828047,9.006754352157
    ));
#427 = CARTESIAN_POINT('',(19.32127388535,2.639683828047,9.006754352157)
  );
#428 = ORIENTED_EDGE('',*,*,#429,.F.);
#429 = EDGE_CURVE('',#430,#422,#432,.T.);
#430 = VERTEX_POINT('',#431);
#431 = CARTESIAN_POINT('',(19.32127388535,3.391437924676,8.733138237496)
  );
#432 = LINE('',#433,#434);
#433 = CARTESIAN_POINT('',(19.32127388535,3.391437924676,8.733138237496)
  );
#434 = VECTOR('',#435,1.);
#435 = DIRECTION('',(0.,-0.939692620786,0.342020143326));
#436 = ORIENTED_EDGE('',*,*,#437,.F.);
#437 = EDGE_CURVE('',#397,#430,#438,.T.);
#438 = B_SPLINE_CURVE_WITH_KNOTS('',2,(#439,#440,#441),.UNSPECIFIED.,.F.
  ,.F.,(3,3),(0.,1.),.PIECEWISE_BEZIER_KNOTS.);
#439 = CARTESIAN_POINT('',(18.060127388535,3.258551117396,8.368034735153
    ));
#440 = CARTESIAN_POINT('',(18.564585987261,3.391437924676,8.733138237496
    ));
#441 = CARTESIAN_POINT('',(19.32127388535,3.391437924676,8.733138237496)
  );
#442 = SURFACE_OF_LINEAR_EXTRUSION('',#443,#447);
#443 = B_SPLINE_CURVE_WITH_KNOTS('',2,(#444,#445,#446),.UNSPECIFIED.,.F.
  ,.F.,(3,3),(0.,1.),.PIECEWISE_BEZIER_KNOTS.);
#444 = CARTESIAN_POINT('',(18.060127388535,3.258551117396,8.368034735153
    ));
#445 = CARTESIAN_POINT('',(18.564585987261,3.391437924676,8.733138237496
    ));
#446 = CARTESIAN_POINT('',(19.32127388535,3.391437924676,8.733138237496)
  );
#447 = VECTOR('',#448,1.);
#448 = DIRECTION('',(-0.,0.939692620786,-0.342020143326));
#449 = ADVANCED_FACE('',(#450),#475,.T.);
#450 = FACE_BOUND('',#451,.T.);
#451 = EDGE_LOOP('',(#452,#453,#461,#469));
#452 = ORIENTED_EDGE('',*,*,#429,.T.);
#453 = ORIENTED_EDGE('',*,*,#454,.T.);
#454 = EDGE_CURVE('',#422,#455,#457,.T.);
#455 = VERTEX_POINT('',#456);
#456 = CARTESIAN_POINT('',(20.624458598726,2.486145103833,8.584910174367
    ));
#457 = B_SPLINE_CURVE_WITH_KNOTS('',2,(#458,#459,#460),.UNSPECIFIED.,.F.
  ,.F.,(3,3),(0.,1.),.PIECEWISE_BEZIER_KNOTS.);
#458 = CARTESIAN_POINT('',(19.32127388535,2.639683828047,9.006754352157)
  );
#459 = CARTESIAN_POINT('',(20.150573248408,2.639683828047,9.006754352157
    ));
#460 = CARTESIAN_POINT('',(20.624458598726,2.486145103833,8.584910174367
    ));
#461 = ORIENTED_EDGE('',*,*,#462,.F.);
#462 = EDGE_CURVE('',#463,#455,#465,.T.);
#463 = VERTEX_POINT('',#464);
#464 = CARTESIAN_POINT('',(20.624458598726,3.237899200462,8.311294059706
    ));
#465 = LINE('',#466,#467);
#466 = CARTESIAN_POINT('',(20.624458598726,3.237899200462,8.311294059706
    ));
#467 = VECTOR('',#468,1.);
#468 = DIRECTION('',(0.,-0.939692620786,0.342020143326));
#469 = ORIENTED_EDGE('',*,*,#470,.F.);
#470 = EDGE_CURVE('',#430,#463,#471,.T.);
#471 = B_SPLINE_CURVE_WITH_KNOTS('',2,(#472,#473,#474),.UNSPECIFIED.,.F.
  ,.F.,(3,3),(0.,1.),.PIECEWISE_BEZIER_KNOTS.);
#472 = CARTESIAN_POINT('',(19.32127388535,3.391437924676,8.733138237496)
  );
#473 = CARTESIAN_POINT('',(20.150573248408,3.391437924676,8.733138237496
    ));
#474 = CARTESIAN_POINT('',(20.624458598726,3.237899200462,8.311294059706
    ));
#475 = SURFACE_OF_LINEAR_EXTRUSION('',#476,#480);
#476 = B_SPLINE_CURVE_WITH_KNOTS('',2,(#477,#478,#479),.UNSPECIFIED.,.F.
  ,.F.,(3,3),(0.,1.),.PIECEWISE_BEZIER_KNOTS.);
#477 = CARTESIAN_POINT('',(19.32127388535,3.391437924676,8.733138237496)
  );
#478 = CARTESIAN_POINT('',(20.150573248408,3.391437924676,8.733138237496
    ));
#479 = CARTESIAN_POINT('',(20.624458598726,3.237899200462,8.311294059706
    ));
#480 = VECTOR('',#481,1.);
#481 = DIRECTION('',(-0.,0.939692620786,-0.342020143326));
#482 = ADVANCED_FACE('',(#483),#508,.T.);
#483 = FACE_BOUND('',#484,.T.);
#484 = EDGE_LOOP('',(#485,#486,#494,#502));
#485 = ORIENTED_EDGE('',*,*,#462,.T.);
#486 = ORIENTED_EDGE('',*,*,#487,.T.);
#487 = EDGE_CURVE('',#455,#488,#490,.T.);
#488 = VERTEX_POINT('',#489);
#489 = CARTESIAN_POINT('',(21.098343949045,2.104215348879,7.535566796812
    ));
#490 = B_SPLINE_CURVE_WITH_KNOTS('',2,(#491,#492,#493),.UNSPECIFIED.,.F.
  ,.F.,(3,3),(0.,1.),.PIECEWISE_BEZIER_KNOTS.);
#491 = CARTESIAN_POINT('',(20.624458598726,2.486145103833,8.584910174367
    ));
#492 = CARTESIAN_POINT('',(21.098343949045,2.332606379619,8.163065996577
    ));
#493 = CARTESIAN_POINT('',(21.098343949045,2.104215348879,7.535566796812
    ));
#494 = ORIENTED_EDGE('',*,*,#495,.F.);
#495 = EDGE_CURVE('',#496,#488,#498,.T.);
#496 = VERTEX_POINT('',#497);
#497 = CARTESIAN_POINT('',(21.098343949045,2.855969445507,7.261950682151
    ));
#498 = LINE('',#499,#500);
#499 = CARTESIAN_POINT('',(21.098343949045,2.855969445507,7.261950682151
    ));
#500 = VECTOR('',#501,1.);
#501 = DIRECTION('',(0.,-0.939692620786,0.342020143326));
#502 = ORIENTED_EDGE('',*,*,#503,.F.);
#503 = EDGE_CURVE('',#463,#496,#504,.T.);
#504 = B_SPLINE_CURVE_WITH_KNOTS('',2,(#505,#506,#507),.UNSPECIFIED.,.F.
  ,.F.,(3,3),(0.,1.),.PIECEWISE_BEZIER_KNOTS.);
#505 = CARTESIAN_POINT('',(20.624458598726,3.237899200462,8.311294059706
    ));
#506 = CARTESIAN_POINT('',(21.098343949045,3.084360476248,7.889449881917
    ));
#507 = CARTESIAN_POINT('',(21.098343949045,2.855969445507,7.261950682151
    ));
#508 = SURFACE_OF_LINEAR_EXTRUSION('',#509,#513);
#509 = B_SPLINE_CURVE_WITH_KNOTS('',2,(#510,#511,#512),.UNSPECIFIED.,.F.
  ,.F.,(3,3),(0.,1.),.PIECEWISE_BEZIER_KNOTS.);
#510 = CARTESIAN_POINT('',(20.624458598726,3.237899200462,8.311294059706
    ));
#511 = CARTESIAN_POINT('',(21.098343949045,3.084360476248,7.889449881917
    ));
#512 = CARTESIAN_POINT('',(21.098343949045,2.855969445507,7.261950682151
    ));
#513 = VECTOR('',#514,1.);
#514 = DIRECTION('',(-0.,0.939692620786,-0.342020143326));
#515 = ADVANCED_FACE('',(#516),#541,.T.);
#516 = FACE_BOUND('',#517,.T.);
#517 = EDGE_LOOP('',(#518,#519,#527,#535));
#518 = ORIENTED_EDGE('',*,*,#495,.T.);
#519 = ORIENTED_EDGE('',*,*,#520,.T.);
#520 = EDGE_CURVE('',#488,#521,#523,.T.);
#521 = VERTEX_POINT('',#522);
#522 = CARTESIAN_POINT('',(20.962547770701,1.856828040114,6.855875752121
    ));
#523 = B_SPLINE_CURVE_WITH_KNOTS('',2,(#524,#525,#526),.UNSPECIFIED.,.F.
  ,.F.,(3,3),(0.,1.),.PIECEWISE_BEZIER_KNOTS.);
#524 = CARTESIAN_POINT('',(21.098343949045,2.104215348879,7.535566796812
    ));
#525 = CARTESIAN_POINT('',(21.098343949045,1.97429126386,7.178603306979)
  );
#526 = CARTESIAN_POINT('',(20.962547770701,1.856828040114,6.855875752121
    ));
#527 = ORIENTED_EDGE('',*,*,#528,.F.);
#528 = EDGE_CURVE('',#529,#521,#531,.T.);
#529 = VERTEX_POINT('',#530);
#530 = CARTESIAN_POINT('',(20.962547770701,2.608582136743,6.58225963746)
  );
#531 = LINE('',#532,#533);
#532 = CARTESIAN_POINT('',(20.962547770701,2.608582136743,6.58225963746)
  );
#533 = VECTOR('',#534,1.);
#534 = DIRECTION('',(0.,-0.939692620786,0.342020143326));
#535 = ORIENTED_EDGE('',*,*,#536,.F.);
#536 = EDGE_CURVE('',#496,#529,#537,.T.);
#537 = B_SPLINE_CURVE_WITH_KNOTS('',2,(#538,#539,#540),.UNSPECIFIED.,.F.
  ,.F.,(3,3),(0.,1.),.PIECEWISE_BEZIER_KNOTS.);
#538 = CARTESIAN_POINT('',(21.098343949045,2.855969445507,7.261950682151
    ));
#539 = CARTESIAN_POINT('',(21.098343949045,2.726045360489,6.904987192319
    ));
#540 = CARTESIAN_POINT('',(20.962547770701,2.608582136743,6.58225963746)
  );
#541 = SURFACE_OF_LINEAR_EXTRUSION('',#542,#546);
#542 = B_SPLINE_CURVE_WITH_KNOTS('',2,(#543,#544,#545),.UNSPECIFIED.,.F.
  ,.F.,(3,3),(0.,1.),.PIECEWISE_BEZIER_KNOTS.);
#543 = CARTESIAN_POINT('',(21.098343949045,2.855969445507,7.261950682151
    ));
#544 = CARTESIAN_POINT('',(21.098343949045,2.726045360489,6.904987192319
    ));
#545 = CARTESIAN_POINT('',(20.962547770701,2.608582136743,6.58225963746)
  );
#546 = VECTOR('',#547,1.);
#547 = DIRECTION('',(-0.,0.939692620786,-0.342020143326));
#548 = ADVANCED_FACE('',(#549),#574,.T.);
#549 = FACE_BOUND('',#550,.T.);
#550 = EDGE_LOOP('',(#551,#552,#560,#568));
#551 = ORIENTED_EDGE('',*,*,#528,.T.);
#552 = ORIENTED_EDGE('',*,*,#553,.T.);
#553 = EDGE_CURVE('',#521,#554,#556,.T.);
#554 = VERTEX_POINT('',#555);
#555 = CARTESIAN_POINT('',(20.532738853503,1.610660675809,6.179536477288
    ));
#556 = B_SPLINE_CURVE_WITH_KNOTS('',2,(#557,#558,#559),.UNSPECIFIED.,.F.
  ,.F.,(3,3),(0.,1.),.PIECEWISE_BEZIER_KNOTS.);
#557 = CARTESIAN_POINT('',(20.962547770701,1.856828040114,6.855875752121
    ));
#558 = CARTESIAN_POINT('',(20.827006369427,1.739364816368,6.533148197262
    ));
#559 = CARTESIAN_POINT('',(20.532738853503,1.610660675809,6.179536477288
    ));
#560 = ORIENTED_EDGE('',*,*,#561,.F.);
#561 = EDGE_CURVE('',#562,#554,#564,.T.);
#562 = VERTEX_POINT('',#563);
#563 = CARTESIAN_POINT('',(20.532738853503,2.362414772438,5.905920362627
    ));
#564 = LINE('',#565,#566);
#565 = CARTESIAN_POINT('',(20.532738853503,2.362414772438,5.905920362627
    ));
#566 = VECTOR('',#567,1.);
#567 = DIRECTION('',(0.,-0.939692620786,0.342020143326));
#568 = ORIENTED_EDGE('',*,*,#569,.F.);
#569 = EDGE_CURVE('',#529,#562,#570,.T.);
#570 = B_SPLINE_CURVE_WITH_KNOTS('',2,(#571,#572,#573),.UNSPECIFIED.,.F.
  ,.F.,(3,3),(0.,1.),.PIECEWISE_BEZIER_KNOTS.);
#571 = CARTESIAN_POINT('',(20.962547770701,2.608582136743,6.58225963746)
  );
#572 = CARTESIAN_POINT('',(20.827006369427,2.491118912997,6.259532082602
    ));
#573 = CARTESIAN_POINT('',(20.532738853503,2.362414772438,5.905920362627
    ));
#574 = SURFACE_OF_LINEAR_EXTRUSION('',#575,#579);
#575 = B_SPLINE_CURVE_WITH_KNOTS('',2,(#576,#577,#578),.UNSPECIFIED.,.F.
  ,.F.,(3,3),(0.,1.),.PIECEWISE_BEZIER_KNOTS.);
#576 = CARTESIAN_POINT('',(20.962547770701,2.608582136743,6.58225963746)
  );
#577 = CARTESIAN_POINT('',(20.827006369427,2.491118912997,6.259532082602
    ));
#578 = CARTESIAN_POINT('',(20.532738853503,2.362414772438,5.905920362627
    ));
#579 = VECTOR('',#580,1.);
#580 = DIRECTION('',(-0.,0.939692620786,-0.342020143326));
#581 = ADVANCED_FACE('',(#582),#607,.T.);
#582 = FACE_BOUND('',#583,.T.);
#583 = EDGE_LOOP('',(#584,#585,#593,#601));
#584 = ORIENTED_EDGE('',*,*,#561,.T.);
#585 = ORIENTED_EDGE('',*,*,#586,.T.);
#586 = EDGE_CURVE('',#554,#587,#589,.T.);
#587 = VERTEX_POINT('',#588);
#588 = CARTESIAN_POINT('',(19.829554140127,1.365190422625,5.505112499516
    ));
#589 = B_SPLINE_CURVE_WITH_KNOTS('',2,(#590,#591,#592),.UNSPECIFIED.,.F.
  ,.F.,(3,3),(0.,1.),.PIECEWISE_BEZIER_KNOTS.);
#590 = CARTESIAN_POINT('',(20.532738853503,1.610660675809,6.179536477288
    ));
#591 = CARTESIAN_POINT('',(20.337834394904,1.525351702481,5.94515199939)
  );
#592 = CARTESIAN_POINT('',(19.829554140127,1.365190422625,5.505112499516
    ));
#593 = ORIENTED_EDGE('',*,*,#594,.F.);
#594 = EDGE_CURVE('',#595,#587,#597,.T.);
#595 = VERTEX_POINT('',#596);
#596 = CARTESIAN_POINT('',(19.829554140127,2.116944519254,5.231496384855
    ));
#597 = LINE('',#598,#599);
#598 = CARTESIAN_POINT('',(19.829554140127,2.116944519254,5.231496384855
    ));
#599 = VECTOR('',#600,1.);
#600 = DIRECTION('',(0.,-0.939692620786,0.342020143326));
#601 = ORIENTED_EDGE('',*,*,#602,.F.);
#602 = EDGE_CURVE('',#562,#595,#603,.T.);
#603 = B_SPLINE_CURVE_WITH_KNOTS('',2,(#604,#605,#606),.UNSPECIFIED.,.F.
  ,.F.,(3,3),(0.,1.),.PIECEWISE_BEZIER_KNOTS.);
#604 = CARTESIAN_POINT('',(20.532738853503,2.362414772438,5.905920362627
    ));
#605 = CARTESIAN_POINT('',(20.337834394904,2.277105799109,5.671535884729
    ));
#606 = CARTESIAN_POINT('',(19.829554140127,2.116944519254,5.231496384855
    ));
#607 = SURFACE_OF_LINEAR_EXTRUSION('',#608,#612);
#608 = B_SPLINE_CURVE_WITH_KNOTS('',2,(#609,#610,#611),.UNSPECIFIED.,.F.
  ,.F.,(3,3),(0.,1.),.PIECEWISE_BEZIER_KNOTS.);
#609 = CARTESIAN_POINT('',(20.532738853503,2.362414772438,5.905920362627
    ));
#610 = CARTESIAN_POINT('',(20.337834394904,2.277105799109,5.671535884729
    ));
#611 = CARTESIAN_POINT('',(19.829554140127,2.116944519254,5.231496384855
    ));
#612 = VECTOR('',#613,1.);
#613 = DIRECTION('',(-0.,0.939692620786,-0.342020143326));
#614 = ADVANCED_FACE('',(#615),#640,.T.);
#615 = FACE_BOUND('',#616,.T.);
#616 = EDGE_LOOP('',(#617,#618,#626,#634));
#617 = ORIENTED_EDGE('',*,*,#594,.T.);
#618 = ORIENTED_EDGE('',*,*,#619,.T.);
#619 = EDGE_CURVE('',#587,#620,#622,.T.);
#620 = VERTEX_POINT('',#621);
#621 = CARTESIAN_POINT('',(19.185477707006,1.152571530978,4.920946895766
    ));
#622 = B_SPLINE_CURVE_WITH_KNOTS('',2,(#623,#624,#625),.UNSPECIFIED.,.F.
  ,.F.,(3,3),(0.,1.),.PIECEWISE_BEZIER_KNOTS.);
#623 = CARTESIAN_POINT('',(19.829554140127,1.365190422625,5.505112499516
    ));
#624 = CARTESIAN_POINT('',(19.32127388535,1.20511628166,5.065312411775)
  );
#625 = CARTESIAN_POINT('',(19.185477707006,1.152571530978,4.920946895766
    ));
#626 = ORIENTED_EDGE('',*,*,#627,.F.);
#627 = EDGE_CURVE('',#628,#620,#630,.T.);
#628 = VERTEX_POINT('',#629);
#629 = CARTESIAN_POINT('',(19.185477707006,1.904325627607,4.647330781106
    ));
#630 = LINE('',#631,#632);
#631 = CARTESIAN_POINT('',(19.185477707006,1.904325627607,4.647330781106
    ));
#632 = VECTOR('',#633,1.);
#633 = DIRECTION('',(0.,-0.939692620786,0.342020143326));
#634 = ORIENTED_EDGE('',*,*,#635,.F.);
#635 = EDGE_CURVE('',#595,#628,#636,.T.);
#636 = B_SPLINE_CURVE_WITH_KNOTS('',2,(#637,#638,#639),.UNSPECIFIED.,.F.
  ,.F.,(3,3),(0.,1.),.PIECEWISE_BEZIER_KNOTS.);
#637 = CARTESIAN_POINT('',(19.829554140127,2.116944519254,5.231496384855
    ));
#638 = CARTESIAN_POINT('',(19.32127388535,1.956870378288,4.791696297114)
  );
#639 = CARTESIAN_POINT('',(19.185477707006,1.904325627607,4.647330781106
    ));
#640 = SURFACE_OF_LINEAR_EXTRUSION('',#641,#645);
#641 = B_SPLINE_CURVE_WITH_KNOTS('',2,(#642,#643,#644),.UNSPECIFIED.,.F.
  ,.F.,(3,3),(0.,1.),.PIECEWISE_BEZIER_KNOTS.);
#642 = CARTESIAN_POINT('',(19.829554140127,2.116944519254,5.231496384855
    ));
#643 = CARTESIAN_POINT('',(19.32127388535,1.956870378288,4.791696297114)
  );
#644 = CARTESIAN_POINT('',(19.185477707006,1.904325627607,4.647330781106
    ));
#645 = VECTOR('',#646,1.);
#646 = DIRECTION('',(-0.,0.939692620786,-0.342020143326));
#647 = ADVANCED_FACE('',(#648),#673,.T.);
#648 = FACE_BOUND('',#649,.T.);
#649 = EDGE_LOOP('',(#650,#651,#659,#667));
#650 = ORIENTED_EDGE('',*,*,#627,.T.);
#651 = ORIENTED_EDGE('',*,*,#652,.T.);
#652 = EDGE_CURVE('',#620,#653,#655,.T.);
#653 = VERTEX_POINT('',#654);
#654 = CARTESIAN_POINT('',(18.965859872611,1.050270474095,4.639877051995
    ));
#655 = B_SPLINE_CURVE_WITH_KNOTS('',2,(#656,#657,#658),.UNSPECIFIED.,.F.
  ,.F.,(3,3),(0.,1.),.PIECEWISE_BEZIER_KNOTS.);
#656 = CARTESIAN_POINT('',(19.185477707006,1.152571530978,4.920946895766
    ));
#657 = CARTESIAN_POINT('',(19.049936305732,1.100113919186,4.77682079189)
  );
#658 = CARTESIAN_POINT('',(18.965859872611,1.050270474095,4.639877051995
    ));
#659 = ORIENTED_EDGE('',*,*,#660,.F.);
#660 = EDGE_CURVE('',#661,#653,#663,.T.);
#661 = VERTEX_POINT('',#662);
#662 = CARTESIAN_POINT('',(18.965859872611,1.802024570724,4.366260937334
    ));
#663 = LINE('',#664,#665);
#664 = CARTESIAN_POINT('',(18.965859872611,1.802024570724,4.366260937334
    ));
#665 = VECTOR('',#666,1.);
#666 = DIRECTION('',(0.,-0.939692620786,0.342020143326));
#667 = ORIENTED_EDGE('',*,*,#668,.F.);
#668 = EDGE_CURVE('',#628,#661,#669,.T.);
#669 = B_SPLINE_CURVE_WITH_KNOTS('',2,(#670,#671,#672),.UNSPECIFIED.,.F.
  ,.F.,(3,3),(0.,1.),.PIECEWISE_BEZIER_KNOTS.);
#670 = CARTESIAN_POINT('',(19.185477707006,1.904325627607,4.647330781106
    ));
#671 = CARTESIAN_POINT('',(19.049936305732,1.851868015815,4.50320467723)
  );
#672 = CARTESIAN_POINT('',(18.965859872611,1.802024570724,4.366260937334
    ));
#673 = SURFACE_OF_LINEAR_EXTRUSION('',#674,#678);
#674 = B_SPLINE_CURVE_WITH_KNOTS('',2,(#675,#676,#677),.UNSPECIFIED.,.F.
  ,.F.,(3,3),(0.,1.),.PIECEWISE_BEZIER_KNOTS.);
#675 = CARTESIAN_POINT('',(19.185477707006,1.904325627607,4.647330781106
    ));
#676 = CARTESIAN_POINT('',(19.049936305732,1.851868015815,4.50320467723)
  );
#677 = CARTESIAN_POINT('',(18.965859872611,1.802024570724,4.366260937334
    ));
#678 = VECTOR('',#679,1.);
#679 = DIRECTION('',(-0.,0.939692620786,-0.342020143326));
#680 = ADVANCED_FACE('',(#681),#697,.T.);
#681 = FACE_BOUND('',#682,.T.);
#682 = EDGE_LOOP('',(#683,#684,#690,#691));
#683 = ORIENTED_EDGE('',*,*,#660,.T.);
#684 = ORIENTED_EDGE('',*,*,#685,.T.);
#685 = EDGE_CURVE('',#653,#24,#686,.T.);
#686 = LINE('',#687,#688);
#687 = CARTESIAN_POINT('',(18.965859872611,1.050270474095,4.639877051995
    ));
#688 = VECTOR('',#689,1.);
#689 = DIRECTION('',(1.,0.,0.));
#690 = ORIENTED_EDGE('',*,*,#21,.F.);
#691 = ORIENTED_EDGE('',*,*,#692,.F.);
#692 = EDGE_CURVE('',#661,#22,#693,.T.);
#693 = LINE('',#694,#695);
#694 = CARTESIAN_POINT('',(18.965859872611,1.802024570724,4.366260937334
    ));
#695 = VECTOR('',#696,1.);
#696 = DIRECTION('',(1.,0.,0.));
#697 = PLANE('',#698);
#698 = AXIS2_PLACEMENT_3D('',#699,#700,#701);
#699 = CARTESIAN_POINT('',(18.965859872611,1.802024570724,4.366260937334
    ));
#700 = DIRECTION('',(0.,0.342020143326,0.939692620786));
#701 = DIRECTION('',(1.,0.,0.));
#702 = ADVANCED_FACE('',(#703),#726,.F.);
#703 = FACE_BOUND('',#704,.T.);
#704 = EDGE_LOOP('',(#705,#706,#707,#708,#709,#710,#711,#712,#713,#714,
    #715,#716,#717,#718,#719,#720,#721,#722,#723,#724,#725));
#705 = ORIENTED_EDGE('',*,*,#47,.T.);
#706 = ORIENTED_EDGE('',*,*,#78,.T.);
#707 = ORIENTED_EDGE('',*,*,#109,.T.);
#708 = ORIENTED_EDGE('',*,*,#142,.T.);
#709 = ORIENTED_EDGE('',*,*,#175,.T.);
#710 = ORIENTED_EDGE('',*,*,#208,.T.);
#711 = ORIENTED_EDGE('',*,*,#241,.T.);
#712 = ORIENTED_EDGE('',*,*,#274,.T.);
#713 = ORIENTED_EDGE('',*,*,#307,.T.);
#714 = ORIENTED_EDGE('',*,*,#340,.T.);
#715 = ORIENTED_EDGE('',*,*,#373,.T.);
#716 = ORIENTED_EDGE('',*,*,#404,.T.);
#717 = ORIENTED_EDGE('',*,*,#437,.T.);
#718 = ORIENTED_EDGE('',*,*,#470,.T.);
#719 = ORIENTED_EDGE('',*,*,#503,.T.);
#720 = ORIENTED_EDGE('',*,*,#536,.T.);
#721 = ORIENTED_EDGE('',*,*,#569,.T.);
#722 = ORIENTED_EDGE('',*,*,#602,.T.);
#723 = ORIENTED_EDGE('',*,*,#635,.T.);
#724 = ORIENTED_EDGE('',*,*,#668,.T.);
#725 = ORIENTED_EDGE('',*,*,#692,.T.);
#726 = PLANE('',#727);
#727 = AXIS2_PLACEMENT_3D('',#728,#729,#730);
#728 = CARTESIAN_POINT('',(19.359722685925,2.361698988263,5.903953761769
    ));
#729 = DIRECTION('',(0.,-0.939692620786,0.342020143326));
#730 = DIRECTION('',(1.,0.,0.));
#731 = ADVANCED_FACE('',(#732),#755,.T.);
#732 = FACE_BOUND('',#733,.F.);
#733 = EDGE_LOOP('',(#734,#735,#736,#737,#738,#739,#740,#741,#742,#743,
    #744,#745,#746,#747,#748,#749,#750,#751,#752,#753,#754));
#734 = ORIENTED_EDGE('',*,*,#31,.T.);
#735 = ORIENTED_EDGE('',*,*,#62,.T.);
#736 = ORIENTED_EDGE('',*,*,#93,.T.);
#737 = ORIENTED_EDGE('',*,*,#126,.T.);
#738 = ORIENTED_EDGE('',*,*,#159,.T.);
#739 = ORIENTED_EDGE('',*,*,#192,.T.);
#740 = ORIENTED_EDGE('',*,*,#225,.T.);
#741 = ORIENTED_EDGE('',*,*,#258,.T.);
#742 = ORIENTED_EDGE('',*,*,#291,.T.);
#743 = ORIENTED_EDGE('',*,*,#324,.T.);
#744 = ORIENTED_EDGE('',*,*,#357,.T.);
#745 = ORIENTED_EDGE('',*,*,#388,.T.);
#746 = ORIENTED_EDGE('',*,*,#421,.T.);
#747 = ORIENTED_EDGE('',*,*,#454,.T.);
#748 = ORIENTED_EDGE('',*,*,#487,.T.);
#749 = ORIENTED_EDGE('',*,*,#520,.T.);
#750 = ORIENTED_EDGE('',*,*,#553,.T.);
#751 = ORIENTED_EDGE('',*,*,#586,.T.);
#752 = ORIENTED_EDGE('',*,*,#619,.T.);
#753 = ORIENTED_EDGE('',*,*,#652,.T.);
#754 = ORIENTED_EDGE('',*,*,#685,.T.);
#755 = PLANE('',#756);
#756 = AXIS2_PLACEMENT_3D('',#757,#758,#759);
#757 = CARTESIAN_POINT('',(19.359722685925,1.609944891634,6.17756987643)
  );
#758 = DIRECTION('',(0.,-0.939692620786,0.342020143326));
#759 = DIRECTION('',(1.,0.,0.));
#760 = MANIFOLD_SOLID_BREP('',#761);
#761 = CLOSED_SHELL('',(#762,#802,#833,#864,#895,#926,#957,#988,#1019,
    #1050,#1081,#1103,#1122));
#762 = ADVANCED_FACE('',(#763),#797,.T.);
#763 = FACE_BOUND('',#764,.T.);
#764 = EDGE_LOOP('',(#765,#775,#783,#791));
#765 = ORIENTED_EDGE('',*,*,#766,.T.);
#766 = EDGE_CURVE('',#767,#769,#771,.T.);
#767 = VERTEX_POINT('',#768);
#768 = CARTESIAN_POINT('',(23.930955414013,1.461834344089,3.431595971335
    ));
#769 = VERTEX_POINT('',#770);
#770 = CARTESIAN_POINT('',(23.930955414013,0.71008024746,3.705212085995)
  );
#771 = LINE('',#772,#773);
#772 = CARTESIAN_POINT('',(23.930955414013,1.461834344089,3.431595971335
    ));
#773 = VECTOR('',#774,1.);
#774 = DIRECTION('',(0.,-0.939692620786,0.342020143326));
#775 = ORIENTED_EDGE('',*,*,#776,.T.);
#776 = EDGE_CURVE('',#769,#777,#779,.T.);
#777 = VERTEX_POINT('',#778);
#778 = CARTESIAN_POINT('',(23.930955414013,1.094885585785,4.762456063929
    ));
#779 = LINE('',#780,#781);
#780 = CARTESIAN_POINT('',(23.930955414013,0.71008024746,3.705212085995)
  );
#781 = VECTOR('',#782,1.);
#782 = DIRECTION('',(0.,0.342020143326,0.939692620786));
#783 = ORIENTED_EDGE('',*,*,#784,.F.);
#784 = EDGE_CURVE('',#785,#777,#787,.T.);
#785 = VERTEX_POINT('',#786);
#786 = CARTESIAN_POINT('',(23.930955414013,1.846639682414,4.488839949269
    ));
#787 = LINE('',#788,#789);
#788 = CARTESIAN_POINT('',(23.930955414013,1.846639682414,4.488839949269
    ));
#789 = VECTOR('',#790,1.);
#790 = DIRECTION('',(0.,-0.939692620786,0.342020143326));
#791 = ORIENTED_EDGE('',*,*,#792,.F.);
#792 = EDGE_CURVE('',#767,#785,#793,.T.);
#793 = LINE('',#794,#795);
#794 = CARTESIAN_POINT('',(23.930955414013,1.461834344089,3.431595971335
    ));
#795 = VECTOR('',#796,1.);
#796 = DIRECTION('',(0.,0.342020143326,0.939692620786));
#797 = PLANE('',#798);
#798 = AXIS2_PLACEMENT_3D('',#799,#800,#801);
#799 = CARTESIAN_POINT('',(23.930955414013,1.461834344089,3.431595971335
    ));
#800 = DIRECTION('',(-1.,0.,0.));
#801 = DIRECTION('',(0.,0.342020143326,0.939692620786));
#802 = ADVANCED_FACE('',(#803),#828,.T.);
#803 = FACE_BOUND('',#804,.T.);
#804 = EDGE_LOOP('',(#805,#806,#814,#822));
#805 = ORIENTED_EDGE('',*,*,#784,.T.);
#806 = ORIENTED_EDGE('',*,*,#807,.T.);
#807 = EDGE_CURVE('',#777,#808,#810,.T.);
#808 = VERTEX_POINT('',#809);
#809 = CARTESIAN_POINT('',(21.637961783439,1.094885585785,4.762456063929
    ));
#810 = LINE('',#811,#812);
#811 = CARTESIAN_POINT('',(23.930955414013,1.094885585785,4.762456063929
    ));
#812 = VECTOR('',#813,1.);
#813 = DIRECTION('',(-1.,0.,0.));
#814 = ORIENTED_EDGE('',*,*,#815,.F.);
#815 = EDGE_CURVE('',#816,#808,#818,.T.);
#816 = VERTEX_POINT('',#817);
#817 = CARTESIAN_POINT('',(21.637961783439,1.846639682414,4.488839949269
    ));
#818 = LINE('',#819,#820);
#819 = CARTESIAN_POINT('',(21.637961783439,1.846639682414,4.488839949269
    ));
#820 = VECTOR('',#821,1.);
#821 = DIRECTION('',(0.,-0.939692620786,0.342020143326));
#822 = ORIENTED_EDGE('',*,*,#823,.F.);
#823 = EDGE_CURVE('',#785,#816,#824,.T.);
#824 = LINE('',#825,#826);
#825 = CARTESIAN_POINT('',(23.930955414013,1.846639682414,4.488839949269
    ));
#826 = VECTOR('',#827,1.);
#827 = DIRECTION('',(-1.,0.,0.));
#828 = PLANE('',#829);
#829 = AXIS2_PLACEMENT_3D('',#830,#831,#832);
#830 = CARTESIAN_POINT('',(23.930955414013,1.846639682414,4.488839949269
    ));
#831 = DIRECTION('',(0.,-0.342020143326,-0.939692620786));
#832 = DIRECTION('',(-1.,0.,0.));
#833 = ADVANCED_FACE('',(#834),#859,.T.);
#834 = FACE_BOUND('',#835,.T.);
#835 = EDGE_LOOP('',(#836,#837,#845,#853));
#836 = ORIENTED_EDGE('',*,*,#815,.T.);
#837 = ORIENTED_EDGE('',*,*,#838,.T.);
#838 = EDGE_CURVE('',#808,#839,#841,.T.);
#839 = VERTEX_POINT('',#840);
#840 = CARTESIAN_POINT('',(21.637961783439,1.417038062187,5.647562718463
    ));
#841 = LINE('',#842,#843);
#842 = CARTESIAN_POINT('',(21.637961783439,1.094885585785,4.762456063929
    ));
#843 = VECTOR('',#844,1.);
#844 = DIRECTION('',(0.,0.342020143326,0.939692620786));
#845 = ORIENTED_EDGE('',*,*,#846,.F.);
#846 = EDGE_CURVE('',#847,#839,#849,.T.);
#847 = VERTEX_POINT('',#848);
#848 = CARTESIAN_POINT('',(21.637961783439,2.168792158815,5.373946603803
    ));
#849 = LINE('',#850,#851);
#850 = CARTESIAN_POINT('',(21.637961783439,2.168792158815,5.373946603803
    ));
#851 = VECTOR('',#852,1.);
#852 = DIRECTION('',(0.,-0.939692620786,0.342020143326));
#853 = ORIENTED_EDGE('',*,*,#854,.F.);
#854 = EDGE_CURVE('',#816,#847,#855,.T.);
#855 = LINE('',#856,#857);
#856 = CARTESIAN_POINT('',(21.637961783439,1.846639682414,4.488839949269
    ));
#857 = VECTOR('',#858,1.);
#858 = DIRECTION('',(0.,0.342020143326,0.939692620786));
#859 = PLANE('',#860);
#860 = AXIS2_PLACEMENT_3D('',#861,#862,#863);
#861 = CARTESIAN_POINT('',(21.637961783439,1.846639682414,4.488839949269
    ));
#862 = DIRECTION('',(-1.,0.,0.));
#863 = DIRECTION('',(0.,0.342020143326,0.939692620786));
#864 = ADVANCED_FACE('',(#865),#890,.T.);
#865 = FACE_BOUND('',#866,.T.);
#866 = EDGE_LOOP('',(#867,#868,#876,#884));
#867 = ORIENTED_EDGE('',*,*,#846,.T.);
#868 = ORIENTED_EDGE('',*,*,#869,.T.);
#869 = EDGE_CURVE('',#839,#870,#872,.T.);
#870 = VERTEX_POINT('',#871);
#871 = CARTESIAN_POINT('',(24.068535031847,2.634106939086,8.991431975665
    ));
#872 = LINE('',#873,#874);
#873 = CARTESIAN_POINT('',(21.637961783439,1.417038062187,5.647562718463
    ));
#874 = VECTOR('',#875,1.);
#875 = DIRECTION('',(0.564024580147,0.282425869186,0.77595869826));
#876 = ORIENTED_EDGE('',*,*,#877,.F.);
#877 = EDGE_CURVE('',#878,#870,#880,.T.);
#878 = VERTEX_POINT('',#879);
#879 = CARTESIAN_POINT('',(24.068535031847,3.385861035715,8.717815861004
    ));
#880 = LINE('',#881,#882);
#881 = CARTESIAN_POINT('',(24.068535031847,3.385861035715,8.717815861004
    ));
#882 = VECTOR('',#883,1.);
#883 = DIRECTION('',(0.,-0.939692620786,0.342020143326));
#884 = ORIENTED_EDGE('',*,*,#885,.F.);
#885 = EDGE_CURVE('',#847,#878,#886,.T.);
#886 = LINE('',#887,#888);
#887 = CARTESIAN_POINT('',(21.637961783439,2.168792158815,5.373946603803
    ));
#888 = VECTOR('',#889,1.);
#889 = DIRECTION('',(0.564024580147,0.282425869186,0.77595869826));
#890 = PLANE('',#891);
#891 = AXIS2_PLACEMENT_3D('',#892,#893,#894);
#892 = CARTESIAN_POINT('',(21.637961783439,2.168792158815,5.373946603803
    ));
#893 = DIRECTION('',(-0.825757999047,0.192907767741,0.530009735906));
#894 = DIRECTION('',(0.564024580147,0.282425869186,0.77595869826));
#895 = ADVANCED_FACE('',(#896),#921,.T.);
#896 = FACE_BOUND('',#897,.T.);
#897 = EDGE_LOOP('',(#898,#899,#907,#915));
#898 = ORIENTED_EDGE('',*,*,#877,.T.);
#899 = ORIENTED_EDGE('',*,*,#900,.T.);
#900 = EDGE_CURVE('',#870,#901,#903,.T.);
#901 = VERTEX_POINT('',#902);
#902 = CARTESIAN_POINT('',(24.970445859873,2.634106939086,8.991431975665
    ));
#903 = LINE('',#904,#905);
#904 = CARTESIAN_POINT('',(24.068535031847,2.634106939086,8.991431975665
    ));
#905 = VECTOR('',#906,1.);
#906 = DIRECTION('',(1.,0.,0.));
#907 = ORIENTED_EDGE('',*,*,#908,.F.);
#908 = EDGE_CURVE('',#909,#901,#911,.T.);
#909 = VERTEX_POINT('',#910);
#910 = CARTESIAN_POINT('',(24.970445859873,3.385861035715,8.717815861004
    ));
#911 = LINE('',#912,#913);
#912 = CARTESIAN_POINT('',(24.970445859873,3.385861035715,8.717815861004
    ));
#913 = VECTOR('',#914,1.);
#914 = DIRECTION('',(0.,-0.939692620786,0.342020143326));
#915 = ORIENTED_EDGE('',*,*,#916,.F.);
#916 = EDGE_CURVE('',#878,#909,#917,.T.);
#917 = LINE('',#918,#919);
#918 = CARTESIAN_POINT('',(24.068535031847,3.385861035715,8.717815861004
    ));
#919 = VECTOR('',#920,1.);
#920 = DIRECTION('',(1.,0.,0.));
#921 = PLANE('',#922);
#922 = AXIS2_PLACEMENT_3D('',#923,#924,#925);
#923 = CARTESIAN_POINT('',(24.068535031847,3.385861035715,8.717815861004
    ));
#924 = DIRECTION('',(0.,0.342020143326,0.939692620786));
#925 = DIRECTION('',(1.,0.,0.));
#926 = ADVANCED_FACE('',(#927),#952,.T.);
#927 = FACE_BOUND('',#928,.T.);
#928 = EDGE_LOOP('',(#929,#930,#938,#946));
#929 = ORIENTED_EDGE('',*,*,#908,.T.);
#930 = ORIENTED_EDGE('',*,*,#931,.T.);
#931 = EDGE_CURVE('',#901,#932,#934,.T.);
#932 = VERTEX_POINT('',#933);
#933 = CARTESIAN_POINT('',(24.970445859873,1.418345145537,5.651153900453
    ));
#934 = LINE('',#935,#936);
#935 = CARTESIAN_POINT('',(24.970445859873,2.634106939086,8.991431975665
    ));
#936 = VECTOR('',#937,1.);
#937 = DIRECTION('',(0.,-0.342020143326,-0.939692620786));
#938 = ORIENTED_EDGE('',*,*,#939,.F.);
#939 = EDGE_CURVE('',#940,#932,#942,.T.);
#940 = VERTEX_POINT('',#941);
#941 = CARTESIAN_POINT('',(24.970445859873,2.170099242166,5.377537785793
    ));
#942 = LINE('',#943,#944);
#943 = CARTESIAN_POINT('',(24.970445859873,2.170099242166,5.377537785793
    ));
#944 = VECTOR('',#945,1.);
#945 = DIRECTION('',(0.,-0.939692620786,0.342020143326));
#946 = ORIENTED_EDGE('',*,*,#947,.F.);
#947 = EDGE_CURVE('',#909,#940,#948,.T.);
#948 = LINE('',#949,#950);
#949 = CARTESIAN_POINT('',(24.970445859873,3.385861035715,8.717815861004
    ));
#950 = VECTOR('',#951,1.);
#951 = DIRECTION('',(0.,-0.342020143326,-0.939692620786));
#952 = PLANE('',#953);
#953 = AXIS2_PLACEMENT_3D('',#954,#955,#956);
#954 = CARTESIAN_POINT('',(24.970445859873,3.385861035715,8.717815861004
    ));
#955 = DIRECTION('',(1.,0.,0.));
#956 = DIRECTION('',(0.,-0.342020143326,-0.939692620786));
#957 = ADVANCED_FACE('',(#958),#983,.T.);
#958 = FACE_BOUND('',#959,.T.);
#959 = EDGE_LOOP('',(#960,#961,#969,#977));
#960 = ORIENTED_EDGE('',*,*,#939,.T.);
#961 = ORIENTED_EDGE('',*,*,#962,.T.);
#962 = EDGE_CURVE('',#932,#963,#965,.T.);
#963 = VERTEX_POINT('',#964);
#964 = CARTESIAN_POINT('',(25.665987261146,1.418345145537,5.651153900453
    ));
#965 = LINE('',#966,#967);
#966 = CARTESIAN_POINT('',(24.970445859873,1.418345145537,5.651153900453
    ));
#967 = VECTOR('',#968,1.);
#968 = DIRECTION('',(1.,0.,0.));
#969 = ORIENTED_EDGE('',*,*,#970,.F.);
#970 = EDGE_CURVE('',#971,#963,#973,.T.);
#971 = VERTEX_POINT('',#972);
#972 = CARTESIAN_POINT('',(25.665987261146,2.170099242166,5.377537785793
    ));
#973 = LINE('',#974,#975);
#974 = CARTESIAN_POINT('',(25.665987261146,2.170099242166,5.377537785793
    ));
#975 = VECTOR('',#976,1.);
#976 = DIRECTION('',(0.,-0.939692620786,0.342020143326));
#977 = ORIENTED_EDGE('',*,*,#978,.F.);
#978 = EDGE_CURVE('',#940,#971,#979,.T.);
#979 = LINE('',#980,#981);
#980 = CARTESIAN_POINT('',(24.970445859873,2.170099242166,5.377537785793
    ));
#981 = VECTOR('',#982,1.);
#982 = DIRECTION('',(1.,0.,0.));
#983 = PLANE('',#984);
#984 = AXIS2_PLACEMENT_3D('',#985,#986,#987);
#985 = CARTESIAN_POINT('',(24.970445859873,2.170099242166,5.377537785793
    ));
#986 = DIRECTION('',(0.,0.342020143326,0.939692620786));
#987 = DIRECTION('',(1.,0.,0.));
#988 = ADVANCED_FACE('',(#989),#1014,.T.);
#989 = FACE_BOUND('',#990,.T.);
#990 = EDGE_LOOP('',(#991,#992,#1000,#1008));
#991 = ORIENTED_EDGE('',*,*,#970,.T.);
#992 = ORIENTED_EDGE('',*,*,#993,.T.);
#993 = EDGE_CURVE('',#963,#994,#996,.T.);
#994 = VERTEX_POINT('',#995);
#995 = CARTESIAN_POINT('',(25.665987261146,1.094885585785,4.762456063929
    ));
#996 = LINE('',#997,#998);
#997 = CARTESIAN_POINT('',(25.665987261146,1.418345145537,5.651153900453
    ));
#998 = VECTOR('',#999,1.);
#999 = DIRECTION('',(0.,-0.342020143326,-0.939692620786));
#1000 = ORIENTED_EDGE('',*,*,#1001,.F.);
#1001 = EDGE_CURVE('',#1002,#994,#1004,.T.);
#1002 = VERTEX_POINT('',#1003);
#1003 = CARTESIAN_POINT('',(25.665987261146,1.846639682414,
    4.488839949269));
#1004 = LINE('',#1005,#1006);
#1005 = CARTESIAN_POINT('',(25.665987261146,1.846639682414,
    4.488839949269));
#1006 = VECTOR('',#1007,1.);
#1007 = DIRECTION('',(0.,-0.939692620786,0.342020143326));
#1008 = ORIENTED_EDGE('',*,*,#1009,.F.);
#1009 = EDGE_CURVE('',#971,#1002,#1010,.T.);
#1010 = LINE('',#1011,#1012);
#1011 = CARTESIAN_POINT('',(25.665987261146,2.170099242166,
    5.377537785793));
#1012 = VECTOR('',#1013,1.);
#1013 = DIRECTION('',(0.,-0.342020143326,-0.939692620786));
#1014 = PLANE('',#1015);
#1015 = AXIS2_PLACEMENT_3D('',#1016,#1017,#1018);
#1016 = CARTESIAN_POINT('',(25.665987261146,2.170099242166,
    5.377537785793));
#1017 = DIRECTION('',(1.,0.,0.));
#1018 = DIRECTION('',(0.,-0.342020143326,-0.939692620786));
#1019 = ADVANCED_FACE('',(#1020),#1045,.T.);
#1020 = FACE_BOUND('',#1021,.T.);
#1021 = EDGE_LOOP('',(#1022,#1023,#1031,#1039));
#1022 = ORIENTED_EDGE('',*,*,#1001,.T.);
#1023 = ORIENTED_EDGE('',*,*,#1024,.T.);
#1024 = EDGE_CURVE('',#994,#1025,#1027,.T.);
#1025 = VERTEX_POINT('',#1026);
#1026 = CARTESIAN_POINT('',(24.970445859873,1.094885585785,
    4.762456063929));
#1027 = LINE('',#1028,#1029);
#1028 = CARTESIAN_POINT('',(25.665987261146,1.094885585785,
    4.762456063929));
#1029 = VECTOR('',#1030,1.);
#1030 = DIRECTION('',(-1.,0.,0.));
#1031 = ORIENTED_EDGE('',*,*,#1032,.F.);
#1032 = EDGE_CURVE('',#1033,#1025,#1035,.T.);
#1033 = VERTEX_POINT('',#1034);
#1034 = CARTESIAN_POINT('',(24.970445859873,1.846639682414,
    4.488839949269));
#1035 = LINE('',#1036,#1037);
#1036 = CARTESIAN_POINT('',(24.970445859873,1.846639682414,
    4.488839949269));
#1037 = VECTOR('',#1038,1.);
#1038 = DIRECTION('',(0.,-0.939692620786,0.342020143326));
#1039 = ORIENTED_EDGE('',*,*,#1040,.F.);
#1040 = EDGE_CURVE('',#1002,#1033,#1041,.T.);
#1041 = LINE('',#1042,#1043);
#1042 = CARTESIAN_POINT('',(25.665987261146,1.846639682414,
    4.488839949269));
#1043 = VECTOR('',#1044,1.);
#1044 = DIRECTION('',(-1.,0.,0.));
#1045 = PLANE('',#1046);
#1046 = AXIS2_PLACEMENT_3D('',#1047,#1048,#1049);
#1047 = CARTESIAN_POINT('',(25.665987261146,1.846639682414,
    4.488839949269));
#1048 = DIRECTION('',(0.,-0.342020143326,-0.939692620786));
#1049 = DIRECTION('',(-1.,0.,0.));
#1050 = ADVANCED_FACE('',(#1051),#1076,.T.);
#1051 = FACE_BOUND('',#1052,.T.);
#1052 = EDGE_LOOP('',(#1053,#1054,#1062,#1070));
#1053 = ORIENTED_EDGE('',*,*,#1032,.T.);
#1054 = ORIENTED_EDGE('',*,*,#1055,.T.);
#1055 = EDGE_CURVE('',#1025,#1056,#1058,.T.);
#1056 = VERTEX_POINT('',#1057);
#1057 = CARTESIAN_POINT('',(24.970445859873,0.71008024746,3.705212085995
    ));
#1058 = LINE('',#1059,#1060);
#1059 = CARTESIAN_POINT('',(24.970445859873,1.094885585785,
    4.762456063929));
#1060 = VECTOR('',#1061,1.);
#1061 = DIRECTION('',(0.,-0.342020143326,-0.939692620786));
#1062 = ORIENTED_EDGE('',*,*,#1063,.F.);
#1063 = EDGE_CURVE('',#1064,#1056,#1066,.T.);
#1064 = VERTEX_POINT('',#1065);
#1065 = CARTESIAN_POINT('',(24.970445859873,1.461834344089,
    3.431595971335));
#1066 = LINE('',#1067,#1068);
#1067 = CARTESIAN_POINT('',(24.970445859873,1.461834344089,
    3.431595971335));
#1068 = VECTOR('',#1069,1.);
#1069 = DIRECTION('',(0.,-0.939692620786,0.342020143326));
#1070 = ORIENTED_EDGE('',*,*,#1071,.F.);
#1071 = EDGE_CURVE('',#1033,#1064,#1072,.T.);
#1072 = LINE('',#1073,#1074);
#1073 = CARTESIAN_POINT('',(24.970445859873,1.846639682414,
    4.488839949269));
#1074 = VECTOR('',#1075,1.);
#1075 = DIRECTION('',(0.,-0.342020143326,-0.939692620786));
#1076 = PLANE('',#1077);
#1077 = AXIS2_PLACEMENT_3D('',#1078,#1079,#1080);
#1078 = CARTESIAN_POINT('',(24.970445859873,1.846639682414,
    4.488839949269));
#1079 = DIRECTION('',(1.,0.,0.));
#1080 = DIRECTION('',(0.,-0.342020143326,-0.939692620786));
#1081 = ADVANCED_FACE('',(#1082),#1098,.T.);
#1082 = FACE_BOUND('',#1083,.T.);
#1083 = EDGE_LOOP('',(#1084,#1085,#1091,#1092));
#1084 = ORIENTED_EDGE('',*,*,#1063,.T.);
#1085 = ORIENTED_EDGE('',*,*,#1086,.T.);
#1086 = EDGE_CURVE('',#1056,#769,#1087,.T.);
#1087 = LINE('',#1088,#1089);
#1088 = CARTESIAN_POINT('',(24.970445859873,0.71008024746,3.705212085995
    ));
#1089 = VECTOR('',#1090,1.);
#1090 = DIRECTION('',(-1.,0.,0.));
#1091 = ORIENTED_EDGE('',*,*,#766,.F.);
#1092 = ORIENTED_EDGE('',*,*,#1093,.F.);
#1093 = EDGE_CURVE('',#1064,#767,#1094,.T.);
#1094 = LINE('',#1095,#1096);
#1095 = CARTESIAN_POINT('',(24.970445859873,1.461834344089,
    3.431595971335));
#1096 = VECTOR('',#1097,1.);
#1097 = DIRECTION('',(-1.,0.,0.));
#1098 = PLANE('',#1099);
#1099 = AXIS2_PLACEMENT_3D('',#1100,#1101,#1102);
#1100 = CARTESIAN_POINT('',(24.970445859873,1.461834344089,
    3.431595971335));
#1101 = DIRECTION('',(0.,-0.342020143326,-0.939692620786));
#1102 = DIRECTION('',(-1.,0.,0.));
#1103 = ADVANCED_FACE('',(#1104),#1117,.F.);
#1104 = FACE_BOUND('',#1105,.T.);
#1105 = EDGE_LOOP('',(#1106,#1107,#1108,#1109,#1110,#1111,#1112,#1113,
    #1114,#1115,#1116));
#1106 = ORIENTED_EDGE('',*,*,#792,.T.);
#1107 = ORIENTED_EDGE('',*,*,#823,.T.);
#1108 = ORIENTED_EDGE('',*,*,#854,.T.);
#1109 = ORIENTED_EDGE('',*,*,#885,.T.);
#1110 = ORIENTED_EDGE('',*,*,#916,.T.);
#1111 = ORIENTED_EDGE('',*,*,#947,.T.);
#1112 = ORIENTED_EDGE('',*,*,#978,.T.);
#1113 = ORIENTED_EDGE('',*,*,#1009,.T.);
#1114 = ORIENTED_EDGE('',*,*,#1040,.T.);
#1115 = ORIENTED_EDGE('',*,*,#1071,.T.);
#1116 = ORIENTED_EDGE('',*,*,#1093,.T.);
#1117 = PLANE('',#1118);
#1118 = AXIS2_PLACEMENT_3D('',#1119,#1120,#1121);
#1119 = CARTESIAN_POINT('',(23.935118692308,2.323523972272,
    5.799068767347));
#1120 = DIRECTION('',(0.,-0.939692620786,0.342020143326));
#1121 = DIRECTION('',(1.,0.,0.));
#1122 = ADVANCED_FACE('',(#1123),#1136,.T.);
#1123 = FACE_BOUND('',#1124,.F.);
#1124 = EDGE_LOOP('',(#1125,#1126,#1127,#1128,#1129,#1130,#1131,#1132,
    #1133,#1134,#1135));
#1125 = ORIENTED_EDGE('',*,*,#776,.T.);
#1126 = ORIENTED_EDGE('',*,*,#807,.T.);
#1127 = ORIENTED_EDGE('',*,*,#838,.T.);
#1128 = ORIENTED_EDGE('',*,*,#869,.T.);
#1129 = ORIENTED_EDGE('',*,*,#900,.T.);
#1130 = ORIENTED_EDGE('',*,*,#931,.T.);
#1131 = ORIENTED_EDGE('',*,*,#962,.T.);
#1132 = ORIENTED_EDGE('',*,*,#993,.T.);
#1133 = ORIENTED_EDGE('',*,*,#1024,.T.);
#1134 = ORIENTED_EDGE('',*,*,#1055,.T.);
#1135 = ORIENTED_EDGE('',*,*,#1086,.T.);
#1136 = PLANE('',#1137);
#1137 = AXIS2_PLACEMENT_3D('',#1138,#1139,#1140);
#1138 = CARTESIAN_POINT('',(23.935118692308,1.571769875644,
    6.072684882008));
#1139 = DIRECTION('',(0.,-0.939692620786,0.342020143326));
#1140 = DIRECTION('',(1.,0.,0.));
#1141 = MANIFOLD_SOLID_BREP('',#1142);
#1142 = CLOSED_SHELL('',(#1143,#1183,#1214,#1236,#1247));
#1143 = ADVANCED_FACE('',(#1144),#1178,.F.);
#1144 = FACE_BOUND('',#1145,.F.);
#1145 = EDGE_LOOP('',(#1146,#1156,#1164,#1172));
#1146 = ORIENTED_EDGE('',*,*,#1147,.T.);
#1147 = EDGE_CURVE('',#1148,#1150,#1152,.T.);
#1148 = VERTEX_POINT('',#1149);
#1149 = CARTESIAN_POINT('',(23.930955414013,2.170099242166,
    5.377537785793));
#1150 = VERTEX_POINT('',#1151);
#1151 = CARTESIAN_POINT('',(23.930955414013,1.418345145537,
    5.651153900453));
#1152 = LINE('',#1153,#1154);
#1153 = CARTESIAN_POINT('',(23.930955414013,2.170099242166,
    5.377537785793));
#1154 = VECTOR('',#1155,1.);
#1155 = DIRECTION('',(0.,-0.939692620786,0.342020143326));
#1156 = ORIENTED_EDGE('',*,*,#1157,.T.);
#1157 = EDGE_CURVE('',#1150,#1158,#1160,.T.);
#1158 = VERTEX_POINT('',#1159);
#1159 = CARTESIAN_POINT('',(23.930955414013,2.06326007057,7.42304309445)
  );
#1160 = LINE('',#1161,#1162);
#1161 = CARTESIAN_POINT('',(23.930955414013,1.418345145537,
    5.651153900453));
#1162 = VECTOR('',#1163,1.);
#1163 = DIRECTION('',(0.,0.342020143326,0.939692620786));
#1164 = ORIENTED_EDGE('',*,*,#1165,.F.);
#1165 = EDGE_CURVE('',#1166,#1158,#1168,.T.);
#1166 = VERTEX_POINT('',#1167);
#1167 = CARTESIAN_POINT('',(23.930955414013,2.815014167198,
    7.149426979789));
#1168 = LINE('',#1169,#1170);
#1169 = CARTESIAN_POINT('',(23.930955414013,2.815014167198,
    7.149426979789));
#1170 = VECTOR('',#1171,1.);
#1171 = DIRECTION('',(0.,-0.939692620786,0.342020143326));
#1172 = ORIENTED_EDGE('',*,*,#1173,.F.);
#1173 = EDGE_CURVE('',#1148,#1166,#1174,.T.);
#1174 = LINE('',#1175,#1176);
#1175 = CARTESIAN_POINT('',(23.930955414013,2.170099242166,
    5.377537785793));
#1176 = VECTOR('',#1177,1.);
#1177 = DIRECTION('',(0.,0.342020143326,0.939692620786));
#1178 = PLANE('',#1179);
#1179 = AXIS2_PLACEMENT_3D('',#1180,#1181,#1182);
#1180 = CARTESIAN_POINT('',(23.930955414013,2.170099242166,
    5.377537785793));
#1181 = DIRECTION('',(-1.,0.,0.));
#1182 = DIRECTION('',(0.,0.342020143326,0.939692620786));
#1183 = ADVANCED_FACE('',(#1184),#1209,.F.);
#1184 = FACE_BOUND('',#1185,.F.);
#1185 = EDGE_LOOP('',(#1186,#1187,#1195,#1203));
#1186 = ORIENTED_EDGE('',*,*,#1165,.T.);
#1187 = ORIENTED_EDGE('',*,*,#1188,.T.);
#1188 = EDGE_CURVE('',#1158,#1189,#1191,.T.);
#1189 = VERTEX_POINT('',#1190);
#1190 = CARTESIAN_POINT('',(22.643057324841,1.418345145537,
    5.651153900453));
#1191 = LINE('',#1192,#1193);
#1192 = CARTESIAN_POINT('',(23.930955414013,2.06326007057,7.42304309445)
  );
#1193 = VECTOR('',#1194,1.);
#1194 = DIRECTION('',(-0.564011752037,-0.282428865949,-0.775966931797));
#1195 = ORIENTED_EDGE('',*,*,#1196,.F.);
#1196 = EDGE_CURVE('',#1197,#1189,#1199,.T.);
#1197 = VERTEX_POINT('',#1198);
#1198 = CARTESIAN_POINT('',(22.643057324841,2.170099242166,
    5.377537785793));
#1199 = LINE('',#1200,#1201);
#1200 = CARTESIAN_POINT('',(22.643057324841,2.170099242166,
    5.377537785793));
#1201 = VECTOR('',#1202,1.);
#1202 = DIRECTION('',(0.,-0.939692620786,0.342020143326));
#1203 = ORIENTED_EDGE('',*,*,#1204,.F.);
#1204 = EDGE_CURVE('',#1166,#1197,#1205,.T.);
#1205 = LINE('',#1206,#1207);
#1206 = CARTESIAN_POINT('',(23.930955414013,2.815014167198,
    7.149426979789));
#1207 = VECTOR('',#1208,1.);
#1208 = DIRECTION('',(-0.564011752037,-0.282428865949,-0.775966931797));
#1209 = PLANE('',#1210);
#1210 = AXIS2_PLACEMENT_3D('',#1211,#1212,#1213);
#1211 = CARTESIAN_POINT('',(23.930955414013,2.815014167198,
    7.149426979789));
#1212 = DIRECTION('',(0.825766760995,-0.192903380269,-0.529997681426));
#1213 = DIRECTION('',(-0.564011752037,-0.282428865949,-0.775966931797));
#1214 = ADVANCED_FACE('',(#1215),#1231,.F.);
#1215 = FACE_BOUND('',#1216,.F.);
#1216 = EDGE_LOOP('',(#1217,#1218,#1224,#1225));
#1217 = ORIENTED_EDGE('',*,*,#1196,.T.);
#1218 = ORIENTED_EDGE('',*,*,#1219,.T.);
#1219 = EDGE_CURVE('',#1189,#1150,#1220,.T.);
#1220 = LINE('',#1221,#1222);
#1221 = CARTESIAN_POINT('',(22.643057324841,1.418345145537,
    5.651153900453));
#1222 = VECTOR('',#1223,1.);
#1223 = DIRECTION('',(1.,0.,0.));
#1224 = ORIENTED_EDGE('',*,*,#1147,.F.);
#1225 = ORIENTED_EDGE('',*,*,#1226,.F.);
#1226 = EDGE_CURVE('',#1197,#1148,#1227,.T.);
#1227 = LINE('',#1228,#1229);
#1228 = CARTESIAN_POINT('',(22.643057324841,2.170099242166,
    5.377537785793));
#1229 = VECTOR('',#1230,1.);
#1230 = DIRECTION('',(1.,0.,0.));
#1231 = PLANE('',#1232);
#1232 = AXIS2_PLACEMENT_3D('',#1233,#1234,#1235);
#1233 = CARTESIAN_POINT('',(22.643057324841,2.170099242166,
    5.377537785793));
#1234 = DIRECTION('',(0.,0.342020143326,0.939692620786));
#1235 = DIRECTION('',(1.,0.,0.));
#1236 = ADVANCED_FACE('',(#1237),#1242,.T.);
#1237 = FACE_BOUND('',#1238,.F.);
#1238 = EDGE_LOOP('',(#1239,#1240,#1241));
#1239 = ORIENTED_EDGE('',*,*,#1173,.T.);
#1240 = ORIENTED_EDGE('',*,*,#1204,.T.);
#1241 = ORIENTED_EDGE('',*,*,#1226,.T.);
#1242 = PLANE('',#1243);
#1243 = AXIS2_PLACEMENT_3D('',#1244,#1245,#1246);
#1244 = CARTESIAN_POINT('',(23.50951724811,2.416453502063,6.054390552048
    ));
#1245 = DIRECTION('',(-0.,0.939692620786,-0.342020143326));
#1246 = DIRECTION('',(-1.,0.,0.));
#1247 = ADVANCED_FACE('',(#1248),#1253,.F.);
#1248 = FACE_BOUND('',#1249,.T.);
#1249 = EDGE_LOOP('',(#1250,#1251,#1252));
#1250 = ORIENTED_EDGE('',*,*,#1157,.T.);
#1251 = ORIENTED_EDGE('',*,*,#1188,.T.);
#1252 = ORIENTED_EDGE('',*,*,#1219,.T.);
#1253 = PLANE('',#1254);
#1254 = AXIS2_PLACEMENT_3D('',#1255,#1256,#1257);
#1255 = CARTESIAN_POINT('',(23.50951724811,1.664699405434,6.328006666708
    ));
#1256 = DIRECTION('',(-0.,0.939692620786,-0.342020143326));
#1257 = DIRECTION('',(-1.,0.,0.));
#1258 = ( GEOMETRIC_REPRESENTATION_CONTEXT(3) 
GLOBAL_UNCERTAINTY_ASSIGNED_CONTEXT((#1262)) 
GLOBAL_UNIT_ASSIGNED_CONTEXT((#1259,#1260,#1261)) REPRESENTATION_CONTEXT
('Context #1','3D Context with UNIT and UNCERTAINTY') );
#1259 = ( LENGTH_UNIT() NAMED_UNIT(*) SI_UNIT(.MILLI.,.METRE.) );
#1260 = ( NAMED_UNIT(*) PLANE_ANGLE_UNIT() SI_UNIT($,.RADIAN.) );
#1261 = ( NAMED_UNIT(*) SI_UNIT($,.STERADIAN.) SOLID_ANGLE_UNIT() );
#1262 = UNCERTAINTY_MEASURE_WITH_UNIT(LENGTH_MEASURE(1.E-07),#1259,
  'distance_accuracy_value','confusion accuracy');
#1263 = PRODUCT_RELATED_PRODUCT_CATEGORY('part',$,(#7));
ENDSEC;
END-ISO-10303-21;
