ISO-10303-21;
HEADER;
FILE_DESCRIPTION(('FreeCAD Model'),'2;1');
FILE_NAME('Open CASCADE Shape Model','2026-08-29T16:16:44',('FreeCAD'),(
    'FreeCAD'),'Open CASCADE STEP processor 7.8','FreeCAD','Unknown');
FILE_SCHEMA(('AUTOMOTIVE_DESIGN { 1 0 10303 214 1 1 1 1 }'));
ENDSEC;
DATA;
#1 = APPLICATION_PROTOCOL_DEFINITION('international standard',
  'automotive_design',2000,#2);
#2 = APPLICATION_CONTEXT(
  'core data for automotive mechanical design processes');
#3 = SHAPE_DEFINITION_REPRESENTATION(#4,#10);
#4 = PRODUCT_DEFINITION_SHAPE('','',#5);
#5 = PRODUCT_DEFINITION('design','',#6,#9);
#6 = PRODUCT_DEFINITION_FORMATION('','',#7);
#7 = PRODUCT('Open CASCADE STEP translator 7.8 25',
  'Open CASCADE STEP translator 7.8 25','',(#8));
#8 = PRODUCT_CONTEXT('',#2,'mechanical');
#9 = PRODUCT_DEFINITION_CONTEXT('part definition',#2,'design');
#10 = ADVANCED_BREP_SHAPE_REPRESENTATION('',(#11,#15),#1781);
#11 = AXIS2_PLACEMENT_3D('',#12,#13,#14);
#12 = CARTESIAN_POINT('',(0.,0.,0.));
#13 = DIRECTION('',(0.,0.,1.));
#14 = DIRECTION('',(1.,0.,-0.));
#15 = MANIFOLD_SOLID_BREP('',#16);
#16 = CLOSED_SHELL('',(#17,#57,#222,#246,#334,#609,#626,#643,#660,#677,
    #694,#711,#728,#760,#784,#808,#833,#858,#882,#906,#924,#941,#972,
    #998,#1024,#1050,#1076,#1102,#1128,#1154,#1180,#1206,#1232,#1258,
    #1284,#1310,#1336,#1355,#1386,#1410,#1434,#1466,#1490,#1514,#1539,
    #1564,#1588,#1612,#1630,#1647,#1737,#1749,#1765));
#17 = ADVANCED_FACE('',(#18),#52,.F.);
#18 = FACE_BOUND('',#19,.F.);
#19 = EDGE_LOOP('',(#20,#30,#38,#46));
#20 = ORIENTED_EDGE('',*,*,#21,.F.);
#21 = EDGE_CURVE('',#22,#24,#26,.T.);
#22 = VERTEX_POINT('',#23);
#23 = CARTESIAN_POINT('',(0.,3.639702342662,10.));
#24 = VERTEX_POINT('',#25);
#25 = CARTESIAN_POINT('',(0.,7.45,10.));
#26 = LINE('',#27,#28);
#27 = CARTESIAN_POINT('',(0.,0.,10.));
#28 = VECTOR('',#29,1.);
#29 = DIRECTION('',(0.,1.,0.));
#30 = ORIENTED_EDGE('',*,*,#31,.T.);
#31 = EDGE_CURVE('',#22,#32,#34,.T.);
#32 = VERTEX_POINT('',#33);
#33 = CARTESIAN_POINT('',(0.,0.,0.));
#34 = LINE('',#35,#36);
#35 = CARTESIAN_POINT('',(0.,0.,0.));
#36 = VECTOR('',#37,1.);
#37 = DIRECTION('',(0.,-0.342020143326,-0.939692620786));
#38 = ORIENTED_EDGE('',*,*,#39,.T.);
#39 = EDGE_CURVE('',#32,#40,#42,.T.);
#40 = VERTEX_POINT('',#41);
#41 = CARTESIAN_POINT('',(0.,7.45,0.));
#42 = LINE('',#43,#44);
#43 = CARTESIAN_POINT('',(0.,0.,0.));
#44 = VECTOR('',#45,1.);
#45 = DIRECTION('',(0.,1.,0.));
#46 = ORIENTED_EDGE('',*,*,#47,.T.);
#47 = EDGE_CURVE('',#40,#24,#48,.T.);
#48 = LINE('',#49,#50);
#49 = CARTESIAN_POINT('',(0.,7.45,-1.));
#50 = VECTOR('',#51,1.);
#51 = DIRECTION('',(0.,0.,1.));
#52 = PLANE('',#53);
#53 = AXIS2_PLACEMENT_3D('',#54,#55,#56);
#54 = CARTESIAN_POINT('',(0.,0.,0.));
#55 = DIRECTION('',(1.,0.,0.));
#56 = DIRECTION('',(0.,0.,1.));
#57 = ADVANCED_FACE('',(#58,#147),#217,.T.);
#58 = FACE_BOUND('',#59,.T.);
#59 = EDGE_LOOP('',(#60,#61,#69,#77,#85,#93,#101,#109,#117,#125,#133,
    #141));
#60 = ORIENTED_EDGE('',*,*,#21,.F.);
#61 = ORIENTED_EDGE('',*,*,#62,.T.);
#62 = EDGE_CURVE('',#22,#63,#65,.T.);
#63 = VERTEX_POINT('',#64);
#64 = CARTESIAN_POINT('',(26.,3.639702342662,10.));
#65 = LINE('',#66,#67);
#66 = CARTESIAN_POINT('',(-1.,3.639702342662,10.));
#67 = VECTOR('',#68,1.);
#68 = DIRECTION('',(1.,0.,0.));
#69 = ORIENTED_EDGE('',*,*,#70,.T.);
#70 = EDGE_CURVE('',#63,#71,#73,.T.);
#71 = VERTEX_POINT('',#72);
#72 = CARTESIAN_POINT('',(26.,7.575609756098,10.));
#73 = LINE('',#74,#75);
#74 = CARTESIAN_POINT('',(26.,0.,10.));
#75 = VECTOR('',#76,1.);
#76 = DIRECTION('',(0.,1.,0.));
#77 = ORIENTED_EDGE('',*,*,#78,.F.);
#78 = EDGE_CURVE('',#79,#71,#81,.T.);
#79 = VERTEX_POINT('',#80);
#80 = CARTESIAN_POINT('',(25.9,7.6,10.));
#81 = LINE('',#82,#83);
#82 = CARTESIAN_POINT('',(25.9,7.6,10.));
#83 = VECTOR('',#84,1.);
#84 = DIRECTION('',(0.971520338783,-0.236956180191,0.));
#85 = ORIENTED_EDGE('',*,*,#86,.F.);
#86 = EDGE_CURVE('',#87,#79,#89,.T.);
#87 = VERTEX_POINT('',#88);
#88 = CARTESIAN_POINT('',(25.9,11.6,10.));
#89 = LINE('',#90,#91);
#90 = CARTESIAN_POINT('',(25.9,11.6,10.));
#91 = VECTOR('',#92,1.);
#92 = DIRECTION('',(0.,-1.,0.));
#93 = ORIENTED_EDGE('',*,*,#94,.F.);
#94 = EDGE_CURVE('',#95,#87,#97,.T.);
#95 = VERTEX_POINT('',#96);
#96 = CARTESIAN_POINT('',(26.,11.624390243902,10.));
#97 = LINE('',#98,#99);
#98 = CARTESIAN_POINT('',(30.,12.6,10.));
#99 = VECTOR('',#100,1.);
#100 = DIRECTION('',(-0.971520338783,-0.236956180191,0.));
#101 = ORIENTED_EDGE('',*,*,#102,.T.);
#102 = EDGE_CURVE('',#95,#103,#105,.T.);
#103 = VERTEX_POINT('',#104);
#104 = CARTESIAN_POINT('',(26.,32.,10.));
#105 = LINE('',#106,#107);
#106 = CARTESIAN_POINT('',(26.,0.,10.));
#107 = VECTOR('',#108,1.);
#108 = DIRECTION('',(0.,1.,0.));
#109 = ORIENTED_EDGE('',*,*,#110,.F.);
#110 = EDGE_CURVE('',#111,#103,#113,.T.);
#111 = VERTEX_POINT('',#112);
#112 = CARTESIAN_POINT('',(0.,32.,10.));
#113 = LINE('',#114,#115);
#114 = CARTESIAN_POINT('',(0.,32.,10.));
#115 = VECTOR('',#116,1.);
#116 = DIRECTION('',(1.,0.,0.));
#117 = ORIENTED_EDGE('',*,*,#118,.F.);
#118 = EDGE_CURVE('',#119,#111,#121,.T.);
#119 = VERTEX_POINT('',#120);
#120 = CARTESIAN_POINT('',(0.,11.75,10.));
#121 = LINE('',#122,#123);
#122 = CARTESIAN_POINT('',(0.,0.,10.));
#123 = VECTOR('',#124,1.);
#124 = DIRECTION('',(0.,1.,0.));
#125 = ORIENTED_EDGE('',*,*,#126,.T.);
#126 = EDGE_CURVE('',#119,#127,#129,.T.);
#127 = VERTEX_POINT('',#128);
#128 = CARTESIAN_POINT('',(4.,12.75,10.));
#129 = LINE('',#130,#131);
#130 = CARTESIAN_POINT('',(0.617647058824,11.904411764706,10.));
#131 = VECTOR('',#132,1.);
#132 = DIRECTION('',(0.970142500145,0.242535625036,0.));
#133 = ORIENTED_EDGE('',*,*,#134,.T.);
#134 = EDGE_CURVE('',#127,#135,#137,.T.);
#135 = VERTEX_POINT('',#136);
#136 = CARTESIAN_POINT('',(4.,6.45,10.));
#137 = LINE('',#138,#139);
#138 = CARTESIAN_POINT('',(4.,3.225,10.));
#139 = VECTOR('',#140,1.);
#140 = DIRECTION('',(0.,-1.,0.));
#141 = ORIENTED_EDGE('',*,*,#142,.T.);
#142 = EDGE_CURVE('',#135,#24,#143,.T.);
#143 = LINE('',#144,#145);
#144 = CARTESIAN_POINT('',(0.876470588235,7.230882352941,10.));
#145 = VECTOR('',#146,1.);
#146 = DIRECTION('',(-0.970142500145,0.242535625036,0.));
#147 = FACE_BOUND('',#148,.T.);
#148 = EDGE_LOOP('',(#149,#160,#168,#177,#185,#194,#202,#211));
#149 = ORIENTED_EDGE('',*,*,#150,.F.);
#150 = EDGE_CURVE('',#151,#153,#155,.T.);
#151 = VERTEX_POINT('',#152);
#152 = CARTESIAN_POINT('',(8.1,25.34,10.));
#153 = VERTEX_POINT('',#154);
#154 = CARTESIAN_POINT('',(7.5,24.74,10.));
#155 = CIRCLE('',#156,0.6);
#156 = AXIS2_PLACEMENT_3D('',#157,#158,#159);
#157 = CARTESIAN_POINT('',(8.1,24.74,10.));
#158 = DIRECTION('',(0.,-0.,1.));
#159 = DIRECTION('',(0.,1.,0.));
#160 = ORIENTED_EDGE('',*,*,#161,.T.);
#161 = EDGE_CURVE('',#151,#162,#164,.T.);
#162 = VERTEX_POINT('',#163);
#163 = CARTESIAN_POINT('',(17.9,25.34,10.));
#164 = LINE('',#165,#166);
#165 = CARTESIAN_POINT('',(9.25,25.34,10.));
#166 = VECTOR('',#167,1.);
#167 = DIRECTION('',(1.,0.,0.));
#168 = ORIENTED_EDGE('',*,*,#169,.F.);
#169 = EDGE_CURVE('',#170,#162,#172,.T.);
#170 = VERTEX_POINT('',#171);
#171 = CARTESIAN_POINT('',(18.5,24.74,10.));
#172 = CIRCLE('',#173,0.6);
#173 = AXIS2_PLACEMENT_3D('',#174,#175,#176);
#174 = CARTESIAN_POINT('',(17.9,24.74,10.));
#175 = DIRECTION('',(0.,-0.,1.));
#176 = DIRECTION('',(0.,1.,0.));
#177 = ORIENTED_EDGE('',*,*,#178,.T.);
#178 = EDGE_CURVE('',#170,#179,#181,.T.);
#179 = VERTEX_POINT('',#180);
#180 = CARTESIAN_POINT('',(18.5,14.94,10.));
#181 = LINE('',#182,#183);
#182 = CARTESIAN_POINT('',(18.5,7.17,10.));
#183 = VECTOR('',#184,1.);
#184 = DIRECTION('',(0.,-1.,0.));
#185 = ORIENTED_EDGE('',*,*,#186,.F.);
#186 = EDGE_CURVE('',#187,#179,#189,.T.);
#187 = VERTEX_POINT('',#188);
#188 = CARTESIAN_POINT('',(17.9,14.34,10.));
#189 = CIRCLE('',#190,0.6);
#190 = AXIS2_PLACEMENT_3D('',#191,#192,#193);
#191 = CARTESIAN_POINT('',(17.9,14.94,10.));
#192 = DIRECTION('',(-0.,0.,1.));
#193 = DIRECTION('',(0.,-1.,0.));
#194 = ORIENTED_EDGE('',*,*,#195,.T.);
#195 = EDGE_CURVE('',#187,#196,#198,.T.);
#196 = VERTEX_POINT('',#197);
#197 = CARTESIAN_POINT('',(8.1,14.34,10.));
#198 = LINE('',#199,#200);
#199 = CARTESIAN_POINT('',(3.75,14.34,10.));
#200 = VECTOR('',#201,1.);
#201 = DIRECTION('',(-1.,0.,0.));
#202 = ORIENTED_EDGE('',*,*,#203,.F.);
#203 = EDGE_CURVE('',#204,#196,#206,.T.);
#204 = VERTEX_POINT('',#205);
#205 = CARTESIAN_POINT('',(7.5,14.94,10.));
#206 = CIRCLE('',#207,0.6);
#207 = AXIS2_PLACEMENT_3D('',#208,#209,#210);
#208 = CARTESIAN_POINT('',(8.1,14.94,10.));
#209 = DIRECTION('',(0.,0.,1.));
#210 = DIRECTION('',(-1.,0.,0.));
#211 = ORIENTED_EDGE('',*,*,#212,.T.);
#212 = EDGE_CURVE('',#204,#153,#213,.T.);
#213 = LINE('',#214,#215);
#214 = CARTESIAN_POINT('',(7.5,12.67,10.));
#215 = VECTOR('',#216,1.);
#216 = DIRECTION('',(0.,1.,0.));
#217 = PLANE('',#218);
#218 = AXIS2_PLACEMENT_3D('',#219,#220,#221);
#219 = CARTESIAN_POINT('',(0.,0.,10.));
#220 = DIRECTION('',(0.,0.,1.));
#221 = DIRECTION('',(1.,0.,0.));
#222 = ADVANCED_FACE('',(#223),#241,.T.);
#223 = FACE_BOUND('',#224,.T.);
#224 = EDGE_LOOP('',(#225,#233,#234,#235));
#225 = ORIENTED_EDGE('',*,*,#226,.T.);
#226 = EDGE_CURVE('',#227,#40,#229,.T.);
#227 = VERTEX_POINT('',#228);
#228 = CARTESIAN_POINT('',(4.,6.45,0.));
#229 = LINE('',#230,#231);
#230 = CARTESIAN_POINT('',(0.876470588235,7.230882352941,0.));
#231 = VECTOR('',#232,1.);
#232 = DIRECTION('',(-0.970142500145,0.242535625036,0.));
#233 = ORIENTED_EDGE('',*,*,#47,.T.);
#234 = ORIENTED_EDGE('',*,*,#142,.F.);
#235 = ORIENTED_EDGE('',*,*,#236,.F.);
#236 = EDGE_CURVE('',#227,#135,#237,.T.);
#237 = LINE('',#238,#239);
#238 = CARTESIAN_POINT('',(4.,6.45,-1.));
#239 = VECTOR('',#240,1.);
#240 = DIRECTION('',(0.,0.,1.));
#241 = PLANE('',#242);
#242 = AXIS2_PLACEMENT_3D('',#243,#244,#245);
#243 = CARTESIAN_POINT('',(0.,7.45,-1.));
#244 = DIRECTION('',(0.242535625036,0.970142500145,0.));
#245 = DIRECTION('',(0.970142500145,-0.242535625036,0.));
#246 = ADVANCED_FACE('',(#247),#329,.F.);
#247 = FACE_BOUND('',#248,.F.);
#248 = EDGE_LOOP('',(#249,#250,#258,#266,#274,#282,#290,#298,#306,#314,
    #322,#328));
#249 = ORIENTED_EDGE('',*,*,#39,.F.);
#250 = ORIENTED_EDGE('',*,*,#251,.T.);
#251 = EDGE_CURVE('',#32,#252,#254,.T.);
#252 = VERTEX_POINT('',#253);
#253 = CARTESIAN_POINT('',(26.,0.,0.));
#254 = LINE('',#255,#256);
#255 = CARTESIAN_POINT('',(0.,0.,0.));
#256 = VECTOR('',#257,1.);
#257 = DIRECTION('',(1.,0.,0.));
#258 = ORIENTED_EDGE('',*,*,#259,.T.);
#259 = EDGE_CURVE('',#252,#260,#262,.T.);
#260 = VERTEX_POINT('',#261);
#261 = CARTESIAN_POINT('',(26.,7.575609756098,0.));
#262 = LINE('',#263,#264);
#263 = CARTESIAN_POINT('',(26.,0.,0.));
#264 = VECTOR('',#265,1.);
#265 = DIRECTION('',(0.,1.,0.));
#266 = ORIENTED_EDGE('',*,*,#267,.F.);
#267 = EDGE_CURVE('',#268,#260,#270,.T.);
#268 = VERTEX_POINT('',#269);
#269 = CARTESIAN_POINT('',(25.9,7.6,0.));
#270 = LINE('',#271,#272);
#271 = CARTESIAN_POINT('',(25.9,7.6,0.));
#272 = VECTOR('',#273,1.);
#273 = DIRECTION('',(0.971520338783,-0.236956180191,0.));
#274 = ORIENTED_EDGE('',*,*,#275,.F.);
#275 = EDGE_CURVE('',#276,#268,#278,.T.);
#276 = VERTEX_POINT('',#277);
#277 = CARTESIAN_POINT('',(25.9,11.6,0.));
#278 = LINE('',#279,#280);
#279 = CARTESIAN_POINT('',(25.9,11.6,0.));
#280 = VECTOR('',#281,1.);
#281 = DIRECTION('',(0.,-1.,0.));
#282 = ORIENTED_EDGE('',*,*,#283,.F.);
#283 = EDGE_CURVE('',#284,#276,#286,.T.);
#284 = VERTEX_POINT('',#285);
#285 = CARTESIAN_POINT('',(26.,11.624390243902,0.));
#286 = LINE('',#287,#288);
#287 = CARTESIAN_POINT('',(30.,12.6,0.));
#288 = VECTOR('',#289,1.);
#289 = DIRECTION('',(-0.971520338783,-0.236956180191,0.));
#290 = ORIENTED_EDGE('',*,*,#291,.T.);
#291 = EDGE_CURVE('',#284,#292,#294,.T.);
#292 = VERTEX_POINT('',#293);
#293 = CARTESIAN_POINT('',(26.,32.,0.));
#294 = LINE('',#295,#296);
#295 = CARTESIAN_POINT('',(26.,0.,0.));
#296 = VECTOR('',#297,1.);
#297 = DIRECTION('',(0.,1.,0.));
#298 = ORIENTED_EDGE('',*,*,#299,.F.);
#299 = EDGE_CURVE('',#300,#292,#302,.T.);
#300 = VERTEX_POINT('',#301);
#301 = CARTESIAN_POINT('',(0.,32.,0.));
#302 = LINE('',#303,#304);
#303 = CARTESIAN_POINT('',(0.,32.,0.));
#304 = VECTOR('',#305,1.);
#305 = DIRECTION('',(1.,0.,0.));
#306 = ORIENTED_EDGE('',*,*,#307,.F.);
#307 = EDGE_CURVE('',#308,#300,#310,.T.);
#308 = VERTEX_POINT('',#309);
#309 = CARTESIAN_POINT('',(0.,11.75,0.));
#310 = LINE('',#311,#312);
#311 = CARTESIAN_POINT('',(0.,0.,0.));
#312 = VECTOR('',#313,1.);
#313 = DIRECTION('',(0.,1.,0.));
#314 = ORIENTED_EDGE('',*,*,#315,.T.);
#315 = EDGE_CURVE('',#308,#316,#318,.T.);
#316 = VERTEX_POINT('',#317);
#317 = CARTESIAN_POINT('',(4.,12.75,0.));
#318 = LINE('',#319,#320);
#319 = CARTESIAN_POINT('',(0.617647058824,11.904411764706,0.));
#320 = VECTOR('',#321,1.);
#321 = DIRECTION('',(0.970142500145,0.242535625036,0.));
#322 = ORIENTED_EDGE('',*,*,#323,.T.);
#323 = EDGE_CURVE('',#316,#227,#324,.T.);
#324 = LINE('',#325,#326);
#325 = CARTESIAN_POINT('',(4.,3.225,0.));
#326 = VECTOR('',#327,1.);
#327 = DIRECTION('',(0.,-1.,0.));
#328 = ORIENTED_EDGE('',*,*,#226,.T.);
#329 = PLANE('',#330);
#330 = AXIS2_PLACEMENT_3D('',#331,#332,#333);
#331 = CARTESIAN_POINT('',(0.,0.,0.));
#332 = DIRECTION('',(0.,0.,1.));
#333 = DIRECTION('',(1.,0.,0.));
#334 = ADVANCED_FACE('',(#335,#346),#604,.T.);
#335 = FACE_BOUND('',#336,.T.);
#336 = EDGE_LOOP('',(#337,#338,#339,#345));
#337 = ORIENTED_EDGE('',*,*,#31,.T.);
#338 = ORIENTED_EDGE('',*,*,#251,.T.);
#339 = ORIENTED_EDGE('',*,*,#340,.F.);
#340 = EDGE_CURVE('',#63,#252,#341,.T.);
#341 = LINE('',#342,#343);
#342 = CARTESIAN_POINT('',(26.,0.,0.));
#343 = VECTOR('',#344,1.);
#344 = DIRECTION('',(0.,-0.342020143326,-0.939692620786));
#345 = ORIENTED_EDGE('',*,*,#62,.F.);
#346 = FACE_BOUND('',#347,.T.);
#347 = EDGE_LOOP('',(#348,#358,#369,#384,#399,#421,#436,#451,#468,#485,
    #502,#521,#538,#555,#574,#591));
#348 = ORIENTED_EDGE('',*,*,#349,.F.);
#349 = EDGE_CURVE('',#350,#352,#354,.T.);
#350 = VERTEX_POINT('',#351);
#351 = CARTESIAN_POINT('',(12.517197452229,1.779340496816,4.888697836524
    ));
#352 = VERTEX_POINT('',#353);
#353 = CARTESIAN_POINT('',(11.824203821656,1.753315014997,4.817193412896
    ));
#354 = LINE('',#355,#356);
#355 = CARTESIAN_POINT('',(5.210397247973,1.504932497259,4.134768054023)
  );
#356 = VECTOR('',#357,1.);
#357 = DIRECTION('',(-0.994025520727,-3.733078050948E-02,-0.1025654765)
  );
#358 = ORIENTED_EDGE('',*,*,#359,.F.);
#359 = EDGE_CURVE('',#360,#350,#362,.T.);
#360 = VERTEX_POINT('',#361);
#361 = CARTESIAN_POINT('',(12.649681528662,1.672740588026,4.595816994207
    ));
#362 = B_SPLINE_CURVE_WITH_KNOTS('',5,(#363,#364,#365,#366,#367,#368),
  .UNSPECIFIED.,.F.,.F.,(6,6),(0.,1.),.PIECEWISE_BEZIER_KNOTS.);
#363 = CARTESIAN_POINT('',(12.649681528662,1.672740588026,4.595816994207
    ));
#364 = CARTESIAN_POINT('',(12.606220078818,1.686826652644,4.634518138673
    ));
#365 = CARTESIAN_POINT('',(12.571253527472,1.704723208911,4.683688522904
    ));
#366 = CARTESIAN_POINT('',(12.544983228802,1.726310647545,4.742999523094
    ));
#367 = CARTESIAN_POINT('',(12.527131008204,1.751299992931,4.811657185268
    ));
#368 = CARTESIAN_POINT('',(12.517197452229,1.779340496816,4.888697836524
    ));
#369 = ORIENTED_EDGE('',*,*,#370,.F.);
#370 = EDGE_CURVE('',#371,#360,#373,.T.);
#371 = VERTEX_POINT('',#372);
#372 = CARTESIAN_POINT('',(12.932484076433,1.638059309798,4.500530965399
    ));
#373 = B_SPLINE_CURVE_WITH_KNOTS('',5,(#374,#375,#376,#377,#378,#379,
    #380,#381,#382,#383),.UNSPECIFIED.,.F.,.F.,(6,4,6),(0.,0.80487972317
    ,1.),.UNSPECIFIED.);
#374 = CARTESIAN_POINT('',(12.932484076433,1.638059309798,4.500530965399
    ));
#375 = CARTESIAN_POINT('',(12.876606144375,1.638059309798,4.500530965399
    ));
#376 = CARTESIAN_POINT('',(12.824591299584,1.640249267679,4.506547825225
    ));
#377 = CARTESIAN_POINT('',(12.776731784115,1.6447045705,4.518788669123)
  );
#378 = CARTESIAN_POINT('',(12.733250773721,1.651457017389,4.537340864477
    ));
#379 = CARTESIAN_POINT('',(12.684821029721,1.662664686431,4.568133682095
    ));
#380 = CARTESIAN_POINT('',(12.675635812702,1.664984862966,4.574508314732
    ));
#381 = CARTESIAN_POINT('',(12.66671668772,1.667437984962,4.581248212024)
  );
#382 = CARTESIAN_POINT('',(12.658064954534,1.67002347944,4.58835179972)
  );
#383 = CARTESIAN_POINT('',(12.649681528662,1.672740588026,4.595816994207
    ));
#384 = ORIENTED_EDGE('',*,*,#385,.F.);
#385 = EDGE_CURVE('',#386,#371,#388,.T.);
#386 = VERTEX_POINT('',#387);
#387 = CARTESIAN_POINT('',(13.309554140127,1.708002792187,4.6926991039)
  );
#388 = B_SPLINE_CURVE_WITH_KNOTS('',5,(#389,#390,#391,#392,#393,#394,
    #395,#396,#397,#398),.UNSPECIFIED.,.F.,.F.,(6,4,6),(0.,
    0.684018105596,1.),.UNSPECIFIED.);
#389 = CARTESIAN_POINT('',(13.309554140127,1.708002792187,4.6926991039)
  );
#390 = CARTESIAN_POINT('',(13.268134560486,1.689362068689,4.641484137006
    ));
#391 = CARTESIAN_POINT('',(13.223077839262,1.673512912052,4.597938937028
    ));
#392 = CARTESIAN_POINT('',(13.174369151294,1.660746216027,4.562862727979
    ));
#393 = CARTESIAN_POINT('',(13.122137659351,1.651272832174,4.536834819756
    ));
#394 = CARTESIAN_POINT('',(13.04117636033,1.642295646319,4.512170204329)
  );
#395 = CARTESIAN_POINT('',(13.014920306724,1.640170059087,4.506330201406
    ));
#396 = CARTESIAN_POINT('',(12.988025362641,1.638759187298,4.502453863025
    ));
#397 = CARTESIAN_POINT('',(12.960531554457,1.638059309798,4.500530965399
    ));
#398 = CARTESIAN_POINT('',(12.932484076433,1.638059309798,4.500530965399
    ));
#399 = ORIENTED_EDGE('',*,*,#400,.F.);
#400 = EDGE_CURVE('',#401,#386,#403,.T.);
#401 = VERTEX_POINT('',#402);
#402 = CARTESIAN_POINT('',(13.508280254777,1.998059110765,5.489622289562
    ));
#403 = B_SPLINE_CURVE_WITH_KNOTS('',6,(#404,#405,#406,#407,#408,#409,
    #410,#411,#412,#413,#414,#415,#416,#417,#418,#419,#420),
  .UNSPECIFIED.,.F.,.F.,(7,5,5,7),(0.,0.576649814445,0.950275945132,1.),
  .UNSPECIFIED.);
#404 = CARTESIAN_POINT('',(13.508280254777,1.998059110765,5.489622289562
    ));
#405 = CARTESIAN_POINT('',(13.501426516094,1.9632374872,5.39395066511));
#406 = CARTESIAN_POINT('',(13.492620805372,1.929310193918,5.300736192913
    ));
#407 = CARTESIAN_POINT('',(13.481580721519,1.896424453541,5.210383363805
    ));
#408 = CARTESIAN_POINT('',(13.46795040621,1.864842239441,5.123611943709)
  );
#409 = CARTESIAN_POINT('',(13.45129751513,1.834941695692,5.04146087493)
  );
#410 = CARTESIAN_POINT('',(13.417989356135,1.789278544879,4.916002399169
    ));
#411 = CARTESIAN_POINT('',(13.403404560315,1.772252047915,4.869222483229
    ));
#412 = CARTESIAN_POINT('',(13.387190518676,1.756295139557,4.825381237831
    ));
#413 = CARTESIAN_POINT('',(13.36920764948,1.741590723656,4.784981187176)
  );
#414 = CARTESIAN_POINT('',(13.3493305327,1.728352666515,4.748609924103)
  );
#415 = CARTESIAN_POINT('',(13.324597817422,1.71524587123,4.712599300016)
  );
#416 = CARTESIAN_POINT('',(13.321658397384,1.713736060065,4.708451127933
    ));
#417 = CARTESIAN_POINT('',(13.31868439269,1.712256367775,4.70438570678)
  );
#418 = CARTESIAN_POINT('',(13.315675716615,1.710807276281,4.70040436062)
  );
#419 = CARTESIAN_POINT('',(13.312632309774,1.709389261268,4.696508396391
    ));
#420 = CARTESIAN_POINT('',(13.309554140127,1.708002792187,4.6926991039)
  );
#421 = ORIENTED_EDGE('',*,*,#422,.F.);
#422 = EDGE_CURVE('',#423,#401,#425,.T.);
#423 = VERTEX_POINT('',#424);
#424 = CARTESIAN_POINT('',(12.833121019108,1.890878276041,5.19514536636)
  );
#425 = B_SPLINE_CURVE_WITH_KNOTS('',5,(#426,#427,#428,#429,#430,#431,
    #432,#433,#434,#435),.UNSPECIFIED.,.F.,.F.,(6,4,6),(0.,
    0.469272920612,1.),.UNSPECIFIED.);
#426 = CARTESIAN_POINT('',(12.833121019108,1.890878276041,5.19514536636)
  );
#427 = CARTESIAN_POINT('',(12.907680108745,1.890878276041,5.19514536636)
  );
#428 = CARTESIAN_POINT('',(12.980525338481,1.893147541817,5.201380122839
    ));
#429 = CARTESIAN_POINT('',(13.051173127476,1.897825401402,5.214232436419
    ));
#430 = CARTESIAN_POINT('',(13.119156280863,1.904980884653,5.233891965076
    ));
#431 = CARTESIAN_POINT('',(13.257510763466,1.925381886625,5.289943257329
    ));
#432 = CARTESIAN_POINT('',(13.327053856291,1.939305927091,5.328199244097
    ));
#433 = CARTESIAN_POINT('',(13.392130489967,1.956243449125,5.374734703426
    ));
#434 = CARTESIAN_POINT('',(13.452537384547,1.975936302376,5.428840373058
    ));
#435 = CARTESIAN_POINT('',(13.508280254777,1.998059110765,5.489622289562
    ));
#436 = ORIENTED_EDGE('',*,*,#437,.F.);
#437 = EDGE_CURVE('',#438,#423,#440,.T.);
#438 = VERTEX_POINT('',#439);
#439 = CARTESIAN_POINT('',(12.072526539278,2.00717964792,5.514680759449)
  );
#440 = B_SPLINE_CURVE_WITH_KNOTS('',5,(#441,#442,#443,#444,#445,#446,
    #447,#448,#449,#450),.UNSPECIFIED.,.F.,.F.,(6,4,6),(0.,
    0.592177850075,1.),.UNSPECIFIED.);
#441 = CARTESIAN_POINT('',(12.072526539278,2.00717964792,5.514680759449)
  );
#442 = CARTESIAN_POINT('',(12.14550632577,1.980641657912,5.441768231144)
  );
#443 = CARTESIAN_POINT('',(12.22416255787,1.957255564506,5.377515467581)
  );
#444 = CARTESIAN_POINT('',(12.308466747443,1.937527478764,5.323312997476
    ));
#445 = CARTESIAN_POINT('',(12.398076440691,1.921880313412,5.280322763995
    ));
#446 = CARTESIAN_POINT('',(12.556722804966,1.902541905606,5.22719092522)
  );
#447 = CARTESIAN_POINT('',(12.623497086444,1.896642828362,5.210983343696
    ));
#448 = CARTESIAN_POINT('',(12.692045071684,1.89276904424,5.200340209292)
  );
#449 = CARTESIAN_POINT('',(12.762033491671,1.890878276041,5.19514536636)
  );
#450 = CARTESIAN_POINT('',(12.833121019108,1.890878276041,5.19514536636)
  );
#451 = ORIENTED_EDGE('',*,*,#452,.F.);
#452 = EDGE_CURVE('',#453,#438,#455,.T.);
#453 = VERTEX_POINT('',#454);
#454 = CARTESIAN_POINT('',(11.752866242038,2.310016337034,6.346717724572
    ));
#455 = B_SPLINE_CURVE_WITH_KNOTS('',6,(#456,#457,#458,#459,#460,#461,
    #462,#463,#464,#465,#466,#467),.UNSPECIFIED.,.F.,.F.,(7,5,7),(0.,
    0.780718102499,1.),.UNSPECIFIED.);
#456 = CARTESIAN_POINT('',(11.752866242038,2.310016337034,6.346717724572
    ));
#457 = CARTESIAN_POINT('',(11.752866242038,2.264429026044,6.221467617013
    ));
#458 = CARTESIAN_POINT('',(11.764328794016,2.219950852584,6.099264839772
    ));
#459 = CARTESIAN_POINT('',(11.788578009051,2.177046248316,5.981385408357
    ));
#460 = CARTESIAN_POINT('',(11.826717622632,2.136234590819,5.869256300934
    ));
#461 = CARTESIAN_POINT('',(11.879240775308,2.09802789315,5.764284261815)
  );
#462 = CARTESIAN_POINT('',(11.963928482266,2.05293994617,5.640406145598)
  );
#463 = CARTESIAN_POINT('',(11.983573873602,2.043288841412,5.613889953203
    ));
#464 = CARTESIAN_POINT('',(12.004278963217,2.03388150907,5.588043520016)
  );
#465 = CARTESIAN_POINT('',(12.026023621618,2.024724418104,5.56288461936)
  );
#466 = CARTESIAN_POINT('',(12.048782801807,2.01582259983,5.538427074661)
  );
#467 = CARTESIAN_POINT('',(12.072526539278,2.00717964792,5.514680759449)
  );
#468 = ORIENTED_EDGE('',*,*,#469,.F.);
#469 = EDGE_CURVE('',#470,#453,#472,.T.);
#470 = VERTEX_POINT('',#471);
#471 = CARTESIAN_POINT('',(12.090360934183,2.62330969295,7.207484145616)
  );
#472 = B_SPLINE_CURVE_WITH_KNOTS('',6,(#473,#474,#475,#476,#477,#478,
    #479,#480,#481,#482,#483,#484),.UNSPECIFIED.,.F.,.F.,(7,5,7),(0.,
    0.222880120598,1.),.UNSPECIFIED.);
#473 = CARTESIAN_POINT('',(12.090360934183,2.62330969295,7.207484145616)
  );
#474 = CARTESIAN_POINT('',(12.064861736354,2.614325104707,7.182799192295
    ));
#475 = CARTESIAN_POINT('',(12.04042942753,2.605050738288,7.157318079979)
  );
#476 = CARTESIAN_POINT('',(12.017100428825,2.595490521837,7.131051601156
    ));
#477 = CARTESIAN_POINT('',(11.994905172958,2.585650205,7.104015552845));
#478 = CARTESIAN_POINT('',(11.973868104254,2.575537358924,7.076230736605
    ));
#479 = CARTESIAN_POINT('',(11.884759997352,2.52898326232,6.948324407404)
  );
#480 = CARTESIAN_POINT('',(11.829781643305,2.489588825412,6.840089081546
    ));
#481 = CARTESIAN_POINT('',(11.789971722826,2.447426583238,6.724249273219
    ));
#482 = CARTESIAN_POINT('',(11.764748039972,2.403072029977,6.602386139686
    ));
#483 = CARTESIAN_POINT('',(11.752866242038,2.357100655489,6.476080826337
    ));
#484 = CARTESIAN_POINT('',(11.752866242038,2.310016337034,6.346717724572
    ));
#485 = ORIENTED_EDGE('',*,*,#486,.F.);
#486 = EDGE_CURVE('',#487,#470,#489,.T.);
#487 = VERTEX_POINT('',#488);
#488 = CARTESIAN_POINT('',(12.950318471338,2.742283324123,7.534361510774
    ));
#489 = B_SPLINE_CURVE_WITH_KNOTS('',6,(#490,#491,#492,#493,#494,#495,
    #496,#497,#498,#499,#500,#501),.UNSPECIFIED.,.F.,.F.,(7,5,7),(0.,
    0.625055930977,1.),.UNSPECIFIED.);
#490 = CARTESIAN_POINT('',(12.950318471338,2.742283324123,7.534361510774
    ));
#491 = CARTESIAN_POINT('',(12.846286449173,2.742283324123,7.534361510774
    ));
#492 = CARTESIAN_POINT('',(12.744309167834,2.739451207972,7.5265803356)
  );
#493 = CARTESIAN_POINT('',(12.645130787751,2.73354821219,7.510361987981)
  );
#494 = CARTESIAN_POINT('',(12.549534734665,2.724393802953,7.485210455315
    ));
#495 = CARTESIAN_POINT('',(12.458279700662,2.71192153753,7.450943187698)
  );
#496 = CARTESIAN_POINT('',(12.320269778934,2.686856248244,7.38207687137)
  );
#497 = CARTESIAN_POINT('',(12.270307675297,2.67630634104,7.353091239549)
  );
#498 = CARTESIAN_POINT('',(12.222263073254,2.664628551159,7.321006775543
    ));
#499 = CARTESIAN_POINT('',(12.176226349855,2.651864387797,7.285937524927
    ));
#500 = CARTESIAN_POINT('',(12.13225115889,2.638069407109,7.248036126986)
  );
#501 = CARTESIAN_POINT('',(12.090360934183,2.62330969295,7.207484145616)
  );
#502 = ORIENTED_EDGE('',*,*,#503,.F.);
#503 = EDGE_CURVE('',#504,#487,#506,.T.);
#504 = VERTEX_POINT('',#505);
#505 = CARTESIAN_POINT('',(13.882802547771,2.591591136983,7.120338129319
    ));
#506 = B_SPLINE_CURVE_WITH_KNOTS('',5,(#507,#508,#509,#510,#511,#512,
    #513,#514,#515,#516,#517,#518,#519,#520),.UNSPECIFIED.,.F.,.F.,(6,4,
    4,6),(0.,0.165605389874,0.508331823504,1.),.UNSPECIFIED.);
#507 = CARTESIAN_POINT('',(13.882802547771,2.591591136983,7.120338129319
    ));
#508 = CARTESIAN_POINT('',(13.859552611391,2.601207616894,7.14675919073)
  );
#509 = CARTESIAN_POINT('',(13.835591256363,2.610520325941,7.172345648549
    ));
#510 = CARTESIAN_POINT('',(13.810912607789,2.619511463985,7.197048597302
    ));
#511 = CARTESIAN_POINT('',(13.785516832715,2.628163793558,7.22082067743)
  );
#512 = CARTESIAN_POINT('',(13.705381381455,2.653631267844,7.29079198796)
  );
#513 = CARTESIAN_POINT('',(13.648302105337,2.669281562563,7.333790819309
    ));
#514 = CARTESIAN_POINT('',(13.58824493865,2.68326028381,7.372197040288)
  );
#515 = CARTESIAN_POINT('',(13.525383978872,2.695452035847,7.405693603714
    ));
#516 = CARTESIAN_POINT('',(13.366306213264,2.720659995689,7.47495190417)
  );
#517 = CARTESIAN_POINT('',(13.267425642385,2.731738103462,7.505388755126
    ));
#518 = CARTESIAN_POINT('',(13.164390876936,2.738878761876,7.525007552879
    ));
#519 = CARTESIAN_POINT('',(13.058336831244,2.742283324123,7.534361510774
    ));
#520 = CARTESIAN_POINT('',(12.950318471338,2.742283324123,7.534361510774
    ));
#521 = ORIENTED_EDGE('',*,*,#522,.F.);
#522 = EDGE_CURVE('',#523,#504,#525,.T.);
#523 = VERTEX_POINT('',#524);
#524 = CARTESIAN_POINT('',(14.247133757962,2.095770852773,5.758083094345
    ));
#525 = B_SPLINE_CURVE_WITH_KNOTS('',6,(#526,#527,#528,#529,#530,#531,
    #532,#533,#534,#535,#536,#537),.UNSPECIFIED.,.F.,.F.,(7,5,7),(0.,
    0.613584810489,1.),.UNSPECIFIED.);
#526 = CARTESIAN_POINT('',(14.247133757962,2.095770852773,5.758083094345
    ));
#527 = CARTESIAN_POINT('',(14.247133757962,2.153046954822,5.915447891399
    ));
#528 = CARTESIAN_POINT('',(14.24111311363,2.209639800483,6.070935456956)
  );
#529 = CARTESIAN_POINT('',(14.228075454168,2.265432655553,6.224225066426
    ));
#530 = CARTESIAN_POINT('',(14.206656623488,2.320068957627,6.374337072657
    ));
#531 = CARTESIAN_POINT('',(14.175114566436,2.372951117948,6.519629614031
    ));
#532 = CARTESIAN_POINT('',(14.103611640742,2.454887538562,6.744748079501
    ));
#533 = CARTESIAN_POINT('',(14.071107263047,2.485496878794,6.828846550611
    ));
#534 = CARTESIAN_POINT('',(14.03320801916,2.514816955003,6.909402797933)
  );
#535 = CARTESIAN_POINT('',(13.989403163032,2.542524970799,6.985529945671
    ));
#536 = CARTESIAN_POINT('',(13.939271387771,2.568234881008,7.056167343425
    ));
#537 = CARTESIAN_POINT('',(13.882802547771,2.591591136983,7.120338129319
    ));
#538 = ORIENTED_EDGE('',*,*,#539,.F.);
#539 = EDGE_CURVE('',#540,#523,#542,.T.);
#540 = VERTEX_POINT('',#541);
#541 = CARTESIAN_POINT('',(13.867515923567,1.589087253608,4.36598134683)
  );
#542 = B_SPLINE_CURVE_WITH_KNOTS('',6,(#543,#544,#545,#546,#547,#548,
    #549,#550,#551,#552,#553,#554),.UNSPECIFIED.,.F.,.F.,(7,5,7),(0.,
    0.392954247955,1.),.UNSPECIFIED.);
#543 = CARTESIAN_POINT('',(13.867515923567,1.589087253608,4.36598134683)
  );
#544 = CARTESIAN_POINT('',(13.927095448743,1.613494543876,4.433039825713
    ));
#545 = CARTESIAN_POINT('',(13.979967491927,1.640344244607,4.50680877219)
  );
#546 = CARTESIAN_POINT('',(14.026109437749,1.66926763507,4.586275134382)
  );
#547 = CARTESIAN_POINT('',(14.06595592028,1.699860593467,4.670328596772)
  );
#548 = CARTESIAN_POINT('',(14.100046305082,1.731783439946,4.758035896636
    ));
#549 = CARTESIAN_POINT('',(14.173561544176,1.815768248257,4.98878226105)
  );
#550 = CARTESIAN_POINT('',(14.205738974212,1.869287485912,5.135825158013
    ));
#551 = CARTESIAN_POINT('',(14.22762467574,1.924515209892,5.287562082577)
  );
#552 = CARTESIAN_POINT('',(14.240967501727,1.980865179314,5.442382351149
    ));
#553 = CARTESIAN_POINT('',(14.247133757962,2.037988795152,5.59932819578)
  );
#554 = CARTESIAN_POINT('',(14.247133757962,2.095770852773,5.758083094345
    ));
#555 = ORIENTED_EDGE('',*,*,#556,.F.);
#556 = EDGE_CURVE('',#557,#540,#559,.T.);
#557 = VERTEX_POINT('',#558);
#558 = CARTESIAN_POINT('',(12.87898089172,1.43357338122,3.938710494033)
  );
#559 = B_SPLINE_CURVE_WITH_KNOTS('',5,(#560,#561,#562,#563,#564,#565,
    #566,#567,#568,#569,#570,#571,#572,#573),.UNSPECIFIED.,.F.,.F.,(6,4,
    4,6),(0.,0.178790459044,0.539448579199,1.),.UNSPECIFIED.);
#560 = CARTESIAN_POINT('',(12.87898089172,1.43357338122,3.938710494033)
  );
#561 = CARTESIAN_POINT('',(12.920612933684,1.43357338122,3.938710494033)
  );
#562 = CARTESIAN_POINT('',(12.961975420073,1.434027627179,3.93995852455)
  );
#563 = CARTESIAN_POINT('',(13.003020146676,1.434953993917,3.942503696242
    ));
#564 = CARTESIAN_POINT('',(13.04369457033,1.436367782294,3.946388047885)
  );
#565 = CARTESIAN_POINT('',(13.165128990202,1.442142534264,3.962254048525
    ));
#566 = CARTESIAN_POINT('',(13.244591054976,1.448038711099,3.97845366124)
  );
#567 = CARTESIAN_POINT('',(13.321832239346,1.456071023823,4.000522259076
    ));
#568 = CARTESIAN_POINT('',(13.396373575019,1.466277243531,4.028563617262
    ));
#569 = CARTESIAN_POINT('',(13.559024497642,1.494303834864,4.105566044094
    ));
#570 = CARTESIAN_POINT('',(13.645207833185,1.513456148443,4.158186593181
    ));
#571 = CARTESIAN_POINT('',(13.72547520858,1.535894853129,4.219836427628)
  );
#572 = CARTESIAN_POINT('',(13.799562389671,1.561249475081,4.289497678921
    ));
#573 = CARTESIAN_POINT('',(13.867515923567,1.589087253608,4.36598134683)
  );
#574 = ORIENTED_EDGE('',*,*,#575,.F.);
#575 = EDGE_CURVE('',#576,#557,#578,.T.);
#576 = VERTEX_POINT('',#577);
#577 = CARTESIAN_POINT('',(12.170700636943,1.513741160038,4.158969656102
    ));
#578 = B_SPLINE_CURVE_WITH_KNOTS('',6,(#579,#580,#581,#582,#583,#584,
    #585,#586,#587,#588,#589,#590),.UNSPECIFIED.,.F.,.F.,(7,5,7),(0.,
    0.11127926769,1.),.UNSPECIFIED.);
#579 = CARTESIAN_POINT('',(12.170700636943,1.513741160038,4.158969656102
    ));
#580 = CARTESIAN_POINT('',(12.180953194988,1.510697712054,4.150607851491
    ));
#581 = CARTESIAN_POINT('',(12.191357052251,1.507721838839,4.142431707027
    ));
#582 = CARTESIAN_POINT('',(12.201911069945,1.504814121748,4.134442819979
    ));
#583 = CARTESIAN_POINT('',(12.212613961026,1.501975078548,4.126642612894
    ));
#584 = CARTESIAN_POINT('',(12.223464290193,1.499205163412,4.119032333604
    ));
#585 = CARTESIAN_POINT('',(12.32228039422,1.474938320654,4.052359731086)
  );
#586 = CARTESIAN_POINT('',(12.419438657756,1.457797161756,4.00526478407)
  );
#587 = CARTESIAN_POINT('',(12.525027608693,1.445315498909,3.97097169724)
  );
#588 = CARTESIAN_POINT('',(12.637739763116,1.437351579231,3.949091007754
    ));
#589 = CARTESIAN_POINT('',(12.756165399292,1.43357338122,3.938710494033)
  );
#590 = CARTESIAN_POINT('',(12.87898089172,1.43357338122,3.938710494033)
  );
#591 = ORIENTED_EDGE('',*,*,#592,.F.);
#592 = EDGE_CURVE('',#352,#576,#593,.T.);
#593 = B_SPLINE_CURVE_WITH_KNOTS('',5,(#594,#595,#596,#597,#598,#599,
    #600,#601,#602,#603),.UNSPECIFIED.,.F.,.F.,(6,4,6),(0.,
    0.514466379414,1.),.UNSPECIFIED.);
#594 = CARTESIAN_POINT('',(11.824203821656,1.753315014997,4.817193412896
    ));
#595 = CARTESIAN_POINT('',(11.838842741016,1.722784628917,4.733311866532
    ));
#596 = CARTESIAN_POINT('',(11.858266847147,1.693350497626,4.65244225545)
  );
#597 = CARTESIAN_POINT('',(11.882881643372,1.665205464982,4.575114413789
    ));
#598 = CARTESIAN_POINT('',(11.913079084777,1.638585679032,4.501977152981
    ));
#599 = CARTESIAN_POINT('',(11.982987445458,1.590249836613,4.369175517385
    ));
#600 = CARTESIAN_POINT('',(12.022071394143,1.568339342873,4.308976930585
    ));
#601 = CARTESIAN_POINT('',(12.066440746317,1.548185761985,4.253605422176
    ));
#602 = CARTESIAN_POINT('',(12.116080054748,1.529955152682,4.203517234771
    ));
#603 = CARTESIAN_POINT('',(12.170700636943,1.513741160038,4.158969656102
    ));
#604 = PLANE('',#605);
#605 = AXIS2_PLACEMENT_3D('',#606,#607,#608);
#606 = CARTESIAN_POINT('',(-1.,0.,0.));
#607 = DIRECTION('',(0.,-0.939692620786,0.342020143326));
#608 = DIRECTION('',(0.,0.342020143326,0.939692620786));
#609 = ADVANCED_FACE('',(#610),#621,.T.);
#610 = FACE_BOUND('',#611,.T.);
#611 = EDGE_LOOP('',(#612,#613,#614,#615));
#612 = ORIENTED_EDGE('',*,*,#323,.T.);
#613 = ORIENTED_EDGE('',*,*,#236,.T.);
#614 = ORIENTED_EDGE('',*,*,#134,.F.);
#615 = ORIENTED_EDGE('',*,*,#616,.F.);
#616 = EDGE_CURVE('',#316,#127,#617,.T.);
#617 = LINE('',#618,#619);
#618 = CARTESIAN_POINT('',(4.,12.75,-1.));
#619 = VECTOR('',#620,1.);
#620 = DIRECTION('',(0.,0.,1.));
#621 = PLANE('',#622);
#622 = AXIS2_PLACEMENT_3D('',#623,#624,#625);
#623 = CARTESIAN_POINT('',(4.,6.45,-1.));
#624 = DIRECTION('',(-1.,0.,0.));
#625 = DIRECTION('',(0.,1.,0.));
#626 = ADVANCED_FACE('',(#627),#638,.T.);
#627 = FACE_BOUND('',#628,.T.);
#628 = EDGE_LOOP('',(#629,#630,#631,#632));
#629 = ORIENTED_EDGE('',*,*,#315,.T.);
#630 = ORIENTED_EDGE('',*,*,#616,.T.);
#631 = ORIENTED_EDGE('',*,*,#126,.F.);
#632 = ORIENTED_EDGE('',*,*,#633,.F.);
#633 = EDGE_CURVE('',#308,#119,#634,.T.);
#634 = LINE('',#635,#636);
#635 = CARTESIAN_POINT('',(0.,11.75,-1.));
#636 = VECTOR('',#637,1.);
#637 = DIRECTION('',(0.,0.,1.));
#638 = PLANE('',#639);
#639 = AXIS2_PLACEMENT_3D('',#640,#641,#642);
#640 = CARTESIAN_POINT('',(4.,12.75,-1.));
#641 = DIRECTION('',(0.242535625036,-0.970142500145,0.));
#642 = DIRECTION('',(-0.970142500145,-0.242535625036,0.));
#643 = ADVANCED_FACE('',(#644),#655,.F.);
#644 = FACE_BOUND('',#645,.F.);
#645 = EDGE_LOOP('',(#646,#647,#648,#649));
#646 = ORIENTED_EDGE('',*,*,#118,.F.);
#647 = ORIENTED_EDGE('',*,*,#633,.F.);
#648 = ORIENTED_EDGE('',*,*,#307,.T.);
#649 = ORIENTED_EDGE('',*,*,#650,.T.);
#650 = EDGE_CURVE('',#300,#111,#651,.T.);
#651 = LINE('',#652,#653);
#652 = CARTESIAN_POINT('',(0.,32.,0.));
#653 = VECTOR('',#654,1.);
#654 = DIRECTION('',(0.,0.,1.));
#655 = PLANE('',#656);
#656 = AXIS2_PLACEMENT_3D('',#657,#658,#659);
#657 = CARTESIAN_POINT('',(0.,0.,0.));
#658 = DIRECTION('',(1.,0.,0.));
#659 = DIRECTION('',(0.,0.,1.));
#660 = ADVANCED_FACE('',(#661),#672,.T.);
#661 = FACE_BOUND('',#662,.T.);
#662 = EDGE_LOOP('',(#663,#664,#665,#666));
#663 = ORIENTED_EDGE('',*,*,#299,.F.);
#664 = ORIENTED_EDGE('',*,*,#650,.T.);
#665 = ORIENTED_EDGE('',*,*,#110,.T.);
#666 = ORIENTED_EDGE('',*,*,#667,.F.);
#667 = EDGE_CURVE('',#292,#103,#668,.T.);
#668 = LINE('',#669,#670);
#669 = CARTESIAN_POINT('',(26.,32.,0.));
#670 = VECTOR('',#671,1.);
#671 = DIRECTION('',(0.,0.,1.));
#672 = PLANE('',#673);
#673 = AXIS2_PLACEMENT_3D('',#674,#675,#676);
#674 = CARTESIAN_POINT('',(0.,32.,0.));
#675 = DIRECTION('',(0.,1.,0.));
#676 = DIRECTION('',(0.,0.,1.));
#677 = ADVANCED_FACE('',(#678),#689,.T.);
#678 = FACE_BOUND('',#679,.T.);
#679 = EDGE_LOOP('',(#680,#681,#687,#688));
#680 = ORIENTED_EDGE('',*,*,#102,.F.);
#681 = ORIENTED_EDGE('',*,*,#682,.T.);
#682 = EDGE_CURVE('',#95,#284,#683,.T.);
#683 = LINE('',#684,#685);
#684 = CARTESIAN_POINT('',(26.,11.624390243902,0.));
#685 = VECTOR('',#686,1.);
#686 = DIRECTION('',(0.,0.,-1.));
#687 = ORIENTED_EDGE('',*,*,#291,.T.);
#688 = ORIENTED_EDGE('',*,*,#667,.T.);
#689 = PLANE('',#690);
#690 = AXIS2_PLACEMENT_3D('',#691,#692,#693);
#691 = CARTESIAN_POINT('',(26.,0.,0.));
#692 = DIRECTION('',(1.,0.,0.));
#693 = DIRECTION('',(0.,0.,1.));
#694 = ADVANCED_FACE('',(#695),#706,.T.);
#695 = FACE_BOUND('',#696,.T.);
#696 = EDGE_LOOP('',(#697,#698,#704,#705));
#697 = ORIENTED_EDGE('',*,*,#78,.T.);
#698 = ORIENTED_EDGE('',*,*,#699,.T.);
#699 = EDGE_CURVE('',#71,#95,#700,.T.);
#700 = LINE('',#701,#702);
#701 = CARTESIAN_POINT('',(26.,0.,10.));
#702 = VECTOR('',#703,1.);
#703 = DIRECTION('',(0.,1.,0.));
#704 = ORIENTED_EDGE('',*,*,#94,.T.);
#705 = ORIENTED_EDGE('',*,*,#86,.T.);
#706 = PLANE('',#707);
#707 = AXIS2_PLACEMENT_3D('',#708,#709,#710);
#708 = CARTESIAN_POINT('',(0.,0.,10.));
#709 = DIRECTION('',(0.,0.,1.));
#710 = DIRECTION('',(1.,0.,0.));
#711 = ADVANCED_FACE('',(#712),#723,.T.);
#712 = FACE_BOUND('',#713,.T.);
#713 = EDGE_LOOP('',(#714,#715,#716,#717));
#714 = ORIENTED_EDGE('',*,*,#70,.F.);
#715 = ORIENTED_EDGE('',*,*,#340,.T.);
#716 = ORIENTED_EDGE('',*,*,#259,.T.);
#717 = ORIENTED_EDGE('',*,*,#718,.T.);
#718 = EDGE_CURVE('',#260,#71,#719,.T.);
#719 = LINE('',#720,#721);
#720 = CARTESIAN_POINT('',(26.,7.575609756098,0.));
#721 = VECTOR('',#722,1.);
#722 = DIRECTION('',(0.,0.,1.));
#723 = PLANE('',#724);
#724 = AXIS2_PLACEMENT_3D('',#725,#726,#727);
#725 = CARTESIAN_POINT('',(26.,0.,0.));
#726 = DIRECTION('',(1.,0.,0.));
#727 = DIRECTION('',(0.,0.,1.));
#728 = ADVANCED_FACE('',(#729),#755,.T.);
#729 = FACE_BOUND('',#730,.T.);
#730 = EDGE_LOOP('',(#731,#739,#740,#748));
#731 = ORIENTED_EDGE('',*,*,#732,.F.);
#732 = EDGE_CURVE('',#151,#733,#735,.T.);
#733 = VERTEX_POINT('',#734);
#734 = CARTESIAN_POINT('',(8.1,25.34,20.5));
#735 = LINE('',#736,#737);
#736 = CARTESIAN_POINT('',(8.1,25.34,9.9));
#737 = VECTOR('',#738,1.);
#738 = DIRECTION('',(0.,0.,1.));
#739 = ORIENTED_EDGE('',*,*,#150,.T.);
#740 = ORIENTED_EDGE('',*,*,#741,.T.);
#741 = EDGE_CURVE('',#153,#742,#744,.T.);
#742 = VERTEX_POINT('',#743);
#743 = CARTESIAN_POINT('',(7.5,24.74,20.5));
#744 = LINE('',#745,#746);
#745 = CARTESIAN_POINT('',(7.5,24.74,9.9));
#746 = VECTOR('',#747,1.);
#747 = DIRECTION('',(0.,0.,1.));
#748 = ORIENTED_EDGE('',*,*,#749,.F.);
#749 = EDGE_CURVE('',#733,#742,#750,.T.);
#750 = CIRCLE('',#751,0.6);
#751 = AXIS2_PLACEMENT_3D('',#752,#753,#754);
#752 = CARTESIAN_POINT('',(8.1,24.74,20.5));
#753 = DIRECTION('',(0.,-0.,1.));
#754 = DIRECTION('',(0.,1.,0.));
#755 = CYLINDRICAL_SURFACE('',#756,0.6);
#756 = AXIS2_PLACEMENT_3D('',#757,#758,#759);
#757 = CARTESIAN_POINT('',(8.1,24.74,9.9));
#758 = DIRECTION('',(0.,0.,1.));
#759 = DIRECTION('',(0.,1.,0.));
#760 = ADVANCED_FACE('',(#761),#779,.F.);
#761 = FACE_BOUND('',#762,.F.);
#762 = EDGE_LOOP('',(#763,#764,#772,#778));
#763 = ORIENTED_EDGE('',*,*,#161,.T.);
#764 = ORIENTED_EDGE('',*,*,#765,.T.);
#765 = EDGE_CURVE('',#162,#766,#768,.T.);
#766 = VERTEX_POINT('',#767);
#767 = CARTESIAN_POINT('',(17.9,25.34,20.5));
#768 = LINE('',#769,#770);
#769 = CARTESIAN_POINT('',(17.9,25.34,9.9));
#770 = VECTOR('',#771,1.);
#771 = DIRECTION('',(0.,0.,1.));
#772 = ORIENTED_EDGE('',*,*,#773,.T.);
#773 = EDGE_CURVE('',#766,#733,#774,.T.);
#774 = LINE('',#775,#776);
#775 = CARTESIAN_POINT('',(17.9,25.34,20.5));
#776 = VECTOR('',#777,1.);
#777 = DIRECTION('',(-1.,0.,0.));
#778 = ORIENTED_EDGE('',*,*,#732,.F.);
#779 = PLANE('',#780);
#780 = AXIS2_PLACEMENT_3D('',#781,#782,#783);
#781 = CARTESIAN_POINT('',(18.5,25.34,9.9));
#782 = DIRECTION('',(0.,-1.,0.));
#783 = DIRECTION('',(-1.,0.,0.));
#784 = ADVANCED_FACE('',(#785),#803,.F.);
#785 = FACE_BOUND('',#786,.F.);
#786 = EDGE_LOOP('',(#787,#788,#789,#797));
#787 = ORIENTED_EDGE('',*,*,#212,.T.);
#788 = ORIENTED_EDGE('',*,*,#741,.T.);
#789 = ORIENTED_EDGE('',*,*,#790,.T.);
#790 = EDGE_CURVE('',#742,#791,#793,.T.);
#791 = VERTEX_POINT('',#792);
#792 = CARTESIAN_POINT('',(7.5,14.94,20.5));
#793 = LINE('',#794,#795);
#794 = CARTESIAN_POINT('',(7.5,24.74,20.5));
#795 = VECTOR('',#796,1.);
#796 = DIRECTION('',(0.,-1.,0.));
#797 = ORIENTED_EDGE('',*,*,#798,.F.);
#798 = EDGE_CURVE('',#204,#791,#799,.T.);
#799 = LINE('',#800,#801);
#800 = CARTESIAN_POINT('',(7.5,14.94,9.9));
#801 = VECTOR('',#802,1.);
#802 = DIRECTION('',(0.,0.,1.));
#803 = PLANE('',#804);
#804 = AXIS2_PLACEMENT_3D('',#805,#806,#807);
#805 = CARTESIAN_POINT('',(7.5,25.34,9.9));
#806 = DIRECTION('',(1.,0.,0.));
#807 = DIRECTION('',(0.,-1.,0.));
#808 = ADVANCED_FACE('',(#809),#828,.T.);
#809 = FACE_BOUND('',#810,.F.);
#810 = EDGE_LOOP('',(#811,#812,#813,#821));
#811 = ORIENTED_EDGE('',*,*,#765,.F.);
#812 = ORIENTED_EDGE('',*,*,#169,.F.);
#813 = ORIENTED_EDGE('',*,*,#814,.T.);
#814 = EDGE_CURVE('',#170,#815,#817,.T.);
#815 = VERTEX_POINT('',#816);
#816 = CARTESIAN_POINT('',(18.5,24.74,20.5));
#817 = LINE('',#818,#819);
#818 = CARTESIAN_POINT('',(18.5,24.74,9.9));
#819 = VECTOR('',#820,1.);
#820 = DIRECTION('',(0.,0.,1.));
#821 = ORIENTED_EDGE('',*,*,#822,.T.);
#822 = EDGE_CURVE('',#815,#766,#823,.T.);
#823 = CIRCLE('',#824,0.6);
#824 = AXIS2_PLACEMENT_3D('',#825,#826,#827);
#825 = CARTESIAN_POINT('',(17.9,24.74,20.5));
#826 = DIRECTION('',(0.,0.,1.));
#827 = DIRECTION('',(1.,0.,0.));
#828 = CYLINDRICAL_SURFACE('',#829,0.6);
#829 = AXIS2_PLACEMENT_3D('',#830,#831,#832);
#830 = CARTESIAN_POINT('',(17.9,24.74,9.9));
#831 = DIRECTION('',(0.,0.,1.));
#832 = DIRECTION('',(0.,1.,0.));
#833 = ADVANCED_FACE('',(#834),#853,.T.);
#834 = FACE_BOUND('',#835,.T.);
#835 = EDGE_LOOP('',(#836,#837,#838,#846));
#836 = ORIENTED_EDGE('',*,*,#798,.F.);
#837 = ORIENTED_EDGE('',*,*,#203,.T.);
#838 = ORIENTED_EDGE('',*,*,#839,.T.);
#839 = EDGE_CURVE('',#196,#840,#842,.T.);
#840 = VERTEX_POINT('',#841);
#841 = CARTESIAN_POINT('',(8.1,14.34,20.5));
#842 = LINE('',#843,#844);
#843 = CARTESIAN_POINT('',(8.1,14.34,9.9));
#844 = VECTOR('',#845,1.);
#845 = DIRECTION('',(0.,0.,1.));
#846 = ORIENTED_EDGE('',*,*,#847,.F.);
#847 = EDGE_CURVE('',#791,#840,#848,.T.);
#848 = CIRCLE('',#849,0.6);
#849 = AXIS2_PLACEMENT_3D('',#850,#851,#852);
#850 = CARTESIAN_POINT('',(8.1,14.94,20.5));
#851 = DIRECTION('',(0.,0.,1.));
#852 = DIRECTION('',(-1.,0.,0.));
#853 = CYLINDRICAL_SURFACE('',#854,0.6);
#854 = AXIS2_PLACEMENT_3D('',#855,#856,#857);
#855 = CARTESIAN_POINT('',(8.1,14.94,9.9));
#856 = DIRECTION('',(0.,0.,1.));
#857 = DIRECTION('',(-1.,0.,0.));
#858 = ADVANCED_FACE('',(#859),#877,.F.);
#859 = FACE_BOUND('',#860,.F.);
#860 = EDGE_LOOP('',(#861,#862,#870,#876));
#861 = ORIENTED_EDGE('',*,*,#178,.T.);
#862 = ORIENTED_EDGE('',*,*,#863,.T.);
#863 = EDGE_CURVE('',#179,#864,#866,.T.);
#864 = VERTEX_POINT('',#865);
#865 = CARTESIAN_POINT('',(18.5,14.94,20.5));
#866 = LINE('',#867,#868);
#867 = CARTESIAN_POINT('',(18.5,14.94,9.9));
#868 = VECTOR('',#869,1.);
#869 = DIRECTION('',(0.,0.,1.));
#870 = ORIENTED_EDGE('',*,*,#871,.T.);
#871 = EDGE_CURVE('',#864,#815,#872,.T.);
#872 = LINE('',#873,#874);
#873 = CARTESIAN_POINT('',(18.5,14.94,20.5));
#874 = VECTOR('',#875,1.);
#875 = DIRECTION('',(0.,1.,0.));
#876 = ORIENTED_EDGE('',*,*,#814,.F.);
#877 = PLANE('',#878);
#878 = AXIS2_PLACEMENT_3D('',#879,#880,#881);
#879 = CARTESIAN_POINT('',(18.5,14.34,9.9));
#880 = DIRECTION('',(-1.,0.,0.));
#881 = DIRECTION('',(0.,1.,0.));
#882 = ADVANCED_FACE('',(#883),#901,.F.);
#883 = FACE_BOUND('',#884,.F.);
#884 = EDGE_LOOP('',(#885,#886,#887,#895));
#885 = ORIENTED_EDGE('',*,*,#195,.T.);
#886 = ORIENTED_EDGE('',*,*,#839,.T.);
#887 = ORIENTED_EDGE('',*,*,#888,.T.);
#888 = EDGE_CURVE('',#840,#889,#891,.T.);
#889 = VERTEX_POINT('',#890);
#890 = CARTESIAN_POINT('',(17.9,14.34,20.5));
#891 = LINE('',#892,#893);
#892 = CARTESIAN_POINT('',(8.1,14.34,20.5));
#893 = VECTOR('',#894,1.);
#894 = DIRECTION('',(1.,0.,0.));
#895 = ORIENTED_EDGE('',*,*,#896,.F.);
#896 = EDGE_CURVE('',#187,#889,#897,.T.);
#897 = LINE('',#898,#899);
#898 = CARTESIAN_POINT('',(17.9,14.34,9.9));
#899 = VECTOR('',#900,1.);
#900 = DIRECTION('',(0.,0.,1.));
#901 = PLANE('',#902);
#902 = AXIS2_PLACEMENT_3D('',#903,#904,#905);
#903 = CARTESIAN_POINT('',(7.5,14.34,9.9));
#904 = DIRECTION('',(0.,1.,0.));
#905 = DIRECTION('',(1.,0.,0.));
#906 = ADVANCED_FACE('',(#907),#919,.T.);
#907 = FACE_BOUND('',#908,.T.);
#908 = EDGE_LOOP('',(#909,#910,#911,#912));
#909 = ORIENTED_EDGE('',*,*,#896,.F.);
#910 = ORIENTED_EDGE('',*,*,#186,.T.);
#911 = ORIENTED_EDGE('',*,*,#863,.T.);
#912 = ORIENTED_EDGE('',*,*,#913,.F.);
#913 = EDGE_CURVE('',#889,#864,#914,.T.);
#914 = CIRCLE('',#915,0.6);
#915 = AXIS2_PLACEMENT_3D('',#916,#917,#918);
#916 = CARTESIAN_POINT('',(17.9,14.94,20.5));
#917 = DIRECTION('',(-0.,0.,1.));
#918 = DIRECTION('',(0.,-1.,0.));
#919 = CYLINDRICAL_SURFACE('',#920,0.6);
#920 = AXIS2_PLACEMENT_3D('',#921,#922,#923);
#921 = CARTESIAN_POINT('',(17.9,14.94,9.9));
#922 = DIRECTION('',(0.,0.,1.));
#923 = DIRECTION('',(0.,-1.,0.));
#924 = ADVANCED_FACE('',(#925),#936,.F.);
#925 = FACE_BOUND('',#926,.F.);
#926 = EDGE_LOOP('',(#927,#928,#934,#935));
#927 = ORIENTED_EDGE('',*,*,#267,.T.);
#928 = ORIENTED_EDGE('',*,*,#929,.T.);
#929 = EDGE_CURVE('',#260,#284,#930,.T.);
#930 = LINE('',#931,#932);
#931 = CARTESIAN_POINT('',(26.,0.,0.));
#932 = VECTOR('',#933,1.);
#933 = DIRECTION('',(0.,1.,0.));
#934 = ORIENTED_EDGE('',*,*,#283,.T.);
#935 = ORIENTED_EDGE('',*,*,#275,.T.);
#936 = PLANE('',#937);
#937 = AXIS2_PLACEMENT_3D('',#938,#939,#940);
#938 = CARTESIAN_POINT('',(0.,0.,0.));
#939 = DIRECTION('',(0.,0.,1.));
#940 = DIRECTION('',(1.,0.,0.));
#941 = ADVANCED_FACE('',(#942),#967,.T.);
#942 = FACE_BOUND('',#943,.T.);
#943 = EDGE_LOOP('',(#944,#945,#953,#961));
#944 = ORIENTED_EDGE('',*,*,#349,.T.);
#945 = ORIENTED_EDGE('',*,*,#946,.T.);
#946 = EDGE_CURVE('',#352,#947,#949,.T.);
#947 = VERTEX_POINT('',#948);
#948 = CARTESIAN_POINT('',(11.824203821656,1.189499442526,5.022405498891
    ));
#949 = LINE('',#950,#951);
#950 = CARTESIAN_POINT('',(11.824203821656,1.941253539154,4.748789384231
    ));
#951 = VECTOR('',#952,1.);
#952 = DIRECTION('',(0.,-0.939692620786,0.342020143326));
#953 = ORIENTED_EDGE('',*,*,#954,.T.);
#954 = EDGE_CURVE('',#947,#955,#957,.T.);
#955 = VERTEX_POINT('',#956);
#956 = CARTESIAN_POINT('',(12.517197452229,1.215524924345,5.09390992252)
  );
#957 = LINE('',#958,#959);
#958 = CARTESIAN_POINT('',(11.824203821656,1.189499442526,5.022405498891
    ));
#959 = VECTOR('',#960,1.);
#960 = DIRECTION('',(0.994025520727,3.733078050948E-02,0.1025654765));
#961 = ORIENTED_EDGE('',*,*,#962,.F.);
#962 = EDGE_CURVE('',#350,#955,#963,.T.);
#963 = LINE('',#964,#965);
#964 = CARTESIAN_POINT('',(12.517197452229,1.967279020974,4.820293807859
    ));
#965 = VECTOR('',#966,1.);
#966 = DIRECTION('',(0.,-0.939692620786,0.342020143326));
#967 = PLANE('',#968);
#968 = AXIS2_PLACEMENT_3D('',#969,#970,#971);
#969 = CARTESIAN_POINT('',(11.824203821656,1.941253539154,4.748789384231
    ));
#970 = DIRECTION('',(-0.109147900315,0.339976751068,0.9340784467));
#971 = DIRECTION('',(0.994025520727,3.733078050948E-02,0.1025654765));
#972 = ADVANCED_FACE('',(#973),#991,.T.);
#973 = FACE_BOUND('',#974,.T.);
#974 = EDGE_LOOP('',(#975,#976,#984,#990));
#975 = ORIENTED_EDGE('',*,*,#592,.T.);
#976 = ORIENTED_EDGE('',*,*,#977,.T.);
#977 = EDGE_CURVE('',#576,#978,#980,.T.);
#978 = VERTEX_POINT('',#979);
#979 = CARTESIAN_POINT('',(12.170700636943,0.949925587566,4.364181742098
    ));
#980 = LINE('',#981,#982);
#981 = CARTESIAN_POINT('',(12.170700636943,1.701679684195,4.090565627437
    ));
#982 = VECTOR('',#983,1.);
#983 = DIRECTION('',(0.,-0.939692620786,0.342020143326));
#984 = ORIENTED_EDGE('',*,*,#985,.T.);
#985 = EDGE_CURVE('',#978,#947,#986,.T.);
#986 = B_SPLINE_CURVE_WITH_KNOTS('',2,(#987,#988,#989),.UNSPECIFIED.,.F.
  ,.F.,(3,3),(0.,1.),.PIECEWISE_BEZIER_KNOTS.);
#987 = CARTESIAN_POINT('',(12.170700636943,0.949925587566,4.364181742098
    ));
#988 = CARTESIAN_POINT('',(11.900636942675,1.030093366384,4.584440904167
    ));
#989 = CARTESIAN_POINT('',(11.824203821656,1.189499442526,5.022405498891
    ));
#990 = ORIENTED_EDGE('',*,*,#946,.F.);
#991 = SURFACE_OF_LINEAR_EXTRUSION('',#992,#996);
#992 = B_SPLINE_CURVE_WITH_KNOTS('',2,(#993,#994,#995),.UNSPECIFIED.,.F.
  ,.F.,(3,3),(0.,1.),.PIECEWISE_BEZIER_KNOTS.);
#993 = CARTESIAN_POINT('',(12.170700636943,1.701679684195,4.090565627437
    ));
#994 = CARTESIAN_POINT('',(11.900636942675,1.781847463013,4.310824789507
    ));
#995 = CARTESIAN_POINT('',(11.824203821656,1.941253539154,4.748789384231
    ));
#996 = VECTOR('',#997,1.);
#997 = DIRECTION('',(-0.,0.939692620786,-0.342020143326));
#998 = ADVANCED_FACE('',(#999),#1017,.T.);
#999 = FACE_BOUND('',#1000,.T.);
#1000 = EDGE_LOOP('',(#1001,#1002,#1010,#1016));
#1001 = ORIENTED_EDGE('',*,*,#575,.T.);
#1002 = ORIENTED_EDGE('',*,*,#1003,.T.);
#1003 = EDGE_CURVE('',#557,#1004,#1006,.T.);
#1004 = VERTEX_POINT('',#1005);
#1005 = CARTESIAN_POINT('',(12.87898089172,0.869757808748,4.143922580028
    ));
#1006 = LINE('',#1007,#1008);
#1007 = CARTESIAN_POINT('',(12.87898089172,1.621511905377,3.870306465368
    ));
#1008 = VECTOR('',#1009,1.);
#1009 = DIRECTION('',(0.,-0.939692620786,0.342020143326));
#1010 = ORIENTED_EDGE('',*,*,#1011,.T.);
#1011 = EDGE_CURVE('',#1004,#978,#1012,.T.);
#1012 = B_SPLINE_CURVE_WITH_KNOTS('',2,(#1013,#1014,#1015),
  .UNSPECIFIED.,.F.,.F.,(3,3),(0.,1.),.PIECEWISE_BEZIER_KNOTS.);
#1013 = CARTESIAN_POINT('',(12.87898089172,0.869757808748,4.143922580028
    ));
#1014 = CARTESIAN_POINT('',(12.44076433121,0.869757808748,4.143922580028
    ));
#1015 = CARTESIAN_POINT('',(12.170700636943,0.949925587566,
    4.364181742098));
#1016 = ORIENTED_EDGE('',*,*,#977,.F.);
#1017 = SURFACE_OF_LINEAR_EXTRUSION('',#1018,#1022);
#1018 = B_SPLINE_CURVE_WITH_KNOTS('',2,(#1019,#1020,#1021),
  .UNSPECIFIED.,.F.,.F.,(3,3),(0.,1.),.PIECEWISE_BEZIER_KNOTS.);
#1019 = CARTESIAN_POINT('',(12.87898089172,1.621511905377,3.870306465368
    ));
#1020 = CARTESIAN_POINT('',(12.44076433121,1.621511905377,3.870306465368
    ));
#1021 = CARTESIAN_POINT('',(12.170700636943,1.701679684195,
    4.090565627437));
#1022 = VECTOR('',#1023,1.);
#1023 = DIRECTION('',(-0.,0.939692620786,-0.342020143326));
#1024 = ADVANCED_FACE('',(#1025),#1043,.T.);
#1025 = FACE_BOUND('',#1026,.T.);
#1026 = EDGE_LOOP('',(#1027,#1028,#1036,#1042));
#1027 = ORIENTED_EDGE('',*,*,#556,.T.);
#1028 = ORIENTED_EDGE('',*,*,#1029,.T.);
#1029 = EDGE_CURVE('',#540,#1030,#1032,.T.);
#1030 = VERTEX_POINT('',#1031);
#1031 = CARTESIAN_POINT('',(13.867515923567,1.025271681136,
    4.571193432825));
#1032 = LINE('',#1033,#1034);
#1033 = CARTESIAN_POINT('',(13.867515923567,1.777025777765,
    4.297577318165));
#1034 = VECTOR('',#1035,1.);
#1035 = DIRECTION('',(0.,-0.939692620786,0.342020143326));
#1036 = ORIENTED_EDGE('',*,*,#1037,.T.);
#1037 = EDGE_CURVE('',#1030,#1004,#1038,.T.);
#1038 = B_SPLINE_CURVE_WITH_KNOTS('',2,(#1039,#1040,#1041),
  .UNSPECIFIED.,.F.,.F.,(3,3),(0.,1.),.PIECEWISE_BEZIER_KNOTS.);
#1039 = CARTESIAN_POINT('',(13.867515923567,1.025271681136,
    4.571193432825));
#1040 = CARTESIAN_POINT('',(13.487898089172,0.869757808748,
    4.143922580028));
#1041 = CARTESIAN_POINT('',(12.87898089172,0.869757808748,4.143922580028
    ));
#1042 = ORIENTED_EDGE('',*,*,#1003,.F.);
#1043 = SURFACE_OF_LINEAR_EXTRUSION('',#1044,#1048);
#1044 = B_SPLINE_CURVE_WITH_KNOTS('',2,(#1045,#1046,#1047),
  .UNSPECIFIED.,.F.,.F.,(3,3),(0.,1.),.PIECEWISE_BEZIER_KNOTS.);
#1045 = CARTESIAN_POINT('',(13.867515923567,1.777025777765,
    4.297577318165));
#1046 = CARTESIAN_POINT('',(13.487898089172,1.621511905377,
    3.870306465368));
#1047 = CARTESIAN_POINT('',(12.87898089172,1.621511905377,3.870306465368
    ));
#1048 = VECTOR('',#1049,1.);
#1049 = DIRECTION('',(-0.,0.939692620786,-0.342020143326));
#1050 = ADVANCED_FACE('',(#1051),#1069,.T.);
#1051 = FACE_BOUND('',#1052,.T.);
#1052 = EDGE_LOOP('',(#1053,#1054,#1062,#1068));
#1053 = ORIENTED_EDGE('',*,*,#539,.T.);
#1054 = ORIENTED_EDGE('',*,*,#1055,.T.);
#1055 = EDGE_CURVE('',#523,#1056,#1058,.T.);
#1056 = VERTEX_POINT('',#1057);
#1057 = CARTESIAN_POINT('',(14.247133757962,1.531955280302,
    5.963295180341));
#1058 = LINE('',#1059,#1060);
#1059 = CARTESIAN_POINT('',(14.247133757962,2.28370937693,5.68967906568)
  );
#1060 = VECTOR('',#1061,1.);
#1061 = DIRECTION('',(0.,-0.939692620786,0.342020143326));
#1062 = ORIENTED_EDGE('',*,*,#1063,.T.);
#1063 = EDGE_CURVE('',#1056,#1030,#1064,.T.);
#1064 = B_SPLINE_CURVE_WITH_KNOTS('',2,(#1065,#1066,#1067),
  .UNSPECIFIED.,.F.,.F.,(3,3),(0.,1.),.PIECEWISE_BEZIER_KNOTS.);
#1065 = CARTESIAN_POINT('',(14.247133757962,1.531955280302,
    5.963295180341));
#1066 = CARTESIAN_POINT('',(14.247133757962,1.180785553524,
    4.998464285623));
#1067 = CARTESIAN_POINT('',(13.867515923567,1.025271681136,
    4.571193432825));
#1068 = ORIENTED_EDGE('',*,*,#1029,.F.);
#1069 = SURFACE_OF_LINEAR_EXTRUSION('',#1070,#1074);
#1070 = B_SPLINE_CURVE_WITH_KNOTS('',2,(#1071,#1072,#1073),
  .UNSPECIFIED.,.F.,.F.,(3,3),(0.,1.),.PIECEWISE_BEZIER_KNOTS.);
#1071 = CARTESIAN_POINT('',(14.247133757962,2.28370937693,5.68967906568)
  );
#1072 = CARTESIAN_POINT('',(14.247133757962,1.932539650153,
    4.724848170962));
#1073 = CARTESIAN_POINT('',(13.867515923567,1.777025777765,
    4.297577318165));
#1074 = VECTOR('',#1075,1.);
#1075 = DIRECTION('',(-0.,0.939692620786,-0.342020143326));
#1076 = ADVANCED_FACE('',(#1077),#1095,.T.);
#1077 = FACE_BOUND('',#1078,.T.);
#1078 = EDGE_LOOP('',(#1079,#1080,#1088,#1094));
#1079 = ORIENTED_EDGE('',*,*,#522,.T.);
#1080 = ORIENTED_EDGE('',*,*,#1081,.T.);
#1081 = EDGE_CURVE('',#504,#1082,#1084,.T.);
#1082 = VERTEX_POINT('',#1083);
#1083 = CARTESIAN_POINT('',(13.882802547771,2.027775564511,
    7.325550215314));
#1084 = LINE('',#1085,#1086);
#1085 = CARTESIAN_POINT('',(13.882802547771,2.77952966114,7.051934100654
    ));
#1086 = VECTOR('',#1087,1.);
#1087 = DIRECTION('',(0.,-0.939692620786,0.342020143326));
#1088 = ORIENTED_EDGE('',*,*,#1089,.T.);
#1089 = EDGE_CURVE('',#1082,#1056,#1090,.T.);
#1090 = B_SPLINE_CURVE_WITH_KNOTS('',2,(#1091,#1092,#1093),
  .UNSPECIFIED.,.F.,.F.,(3,3),(0.,1.),.PIECEWISE_BEZIER_KNOTS.);
#1091 = CARTESIAN_POINT('',(13.882802547771,2.027775564511,
    7.325550215314));
#1092 = CARTESIAN_POINT('',(14.247133757962,1.877083377371,
    6.911526833859));
#1093 = CARTESIAN_POINT('',(14.247133757962,1.531955280302,
    5.963295180341));
#1094 = ORIENTED_EDGE('',*,*,#1055,.F.);
#1095 = SURFACE_OF_LINEAR_EXTRUSION('',#1096,#1100);
#1096 = B_SPLINE_CURVE_WITH_KNOTS('',2,(#1097,#1098,#1099),
  .UNSPECIFIED.,.F.,.F.,(3,3),(0.,1.),.PIECEWISE_BEZIER_KNOTS.);
#1097 = CARTESIAN_POINT('',(13.882802547771,2.77952966114,7.051934100654
    ));
#1098 = CARTESIAN_POINT('',(14.247133757962,2.628837474,6.637910719198)
  );
#1099 = CARTESIAN_POINT('',(14.247133757962,2.28370937693,5.68967906568)
  );
#1100 = VECTOR('',#1101,1.);
#1101 = DIRECTION('',(-0.,0.939692620786,-0.342020143326));
#1102 = ADVANCED_FACE('',(#1103),#1121,.T.);
#1103 = FACE_BOUND('',#1104,.T.);
#1104 = EDGE_LOOP('',(#1105,#1106,#1114,#1120));
#1105 = ORIENTED_EDGE('',*,*,#503,.T.);
#1106 = ORIENTED_EDGE('',*,*,#1107,.T.);
#1107 = EDGE_CURVE('',#487,#1108,#1110,.T.);
#1108 = VERTEX_POINT('',#1109);
#1109 = CARTESIAN_POINT('',(12.950318471338,2.178467751651,7.73957359677
    ));
#1110 = LINE('',#1111,#1112);
#1111 = CARTESIAN_POINT('',(12.950318471338,2.93022184828,7.465957482109
    ));
#1112 = VECTOR('',#1113,1.);
#1113 = DIRECTION('',(0.,-0.939692620786,0.342020143326));
#1114 = ORIENTED_EDGE('',*,*,#1115,.T.);
#1115 = EDGE_CURVE('',#1108,#1082,#1116,.T.);
#1116 = B_SPLINE_CURVE_WITH_KNOTS('',2,(#1117,#1118,#1119),
  .UNSPECIFIED.,.F.,.F.,(3,3),(0.,1.),.PIECEWISE_BEZIER_KNOTS.);
#1117 = CARTESIAN_POINT('',(12.950318471338,2.178467751651,7.73957359677
    ));
#1118 = CARTESIAN_POINT('',(13.51847133758,2.178467751651,7.73957359677)
  );
#1119 = CARTESIAN_POINT('',(13.882802547771,2.027775564511,
    7.325550215314));
#1120 = ORIENTED_EDGE('',*,*,#1081,.F.);
#1121 = SURFACE_OF_LINEAR_EXTRUSION('',#1122,#1126);
#1122 = B_SPLINE_CURVE_WITH_KNOTS('',2,(#1123,#1124,#1125),
  .UNSPECIFIED.,.F.,.F.,(3,3),(0.,1.),.PIECEWISE_BEZIER_KNOTS.);
#1123 = CARTESIAN_POINT('',(12.950318471338,2.93022184828,7.465957482109
    ));
#1124 = CARTESIAN_POINT('',(13.51847133758,2.93022184828,7.465957482109)
  );
#1125 = CARTESIAN_POINT('',(13.882802547771,2.77952966114,7.051934100654
    ));
#1126 = VECTOR('',#1127,1.);
#1127 = DIRECTION('',(-0.,0.939692620786,-0.342020143326));
#1128 = ADVANCED_FACE('',(#1129),#1147,.T.);
#1129 = FACE_BOUND('',#1130,.T.);
#1130 = EDGE_LOOP('',(#1131,#1132,#1140,#1146));
#1131 = ORIENTED_EDGE('',*,*,#486,.T.);
#1132 = ORIENTED_EDGE('',*,*,#1133,.T.);
#1133 = EDGE_CURVE('',#470,#1134,#1136,.T.);
#1134 = VERTEX_POINT('',#1135);
#1135 = CARTESIAN_POINT('',(12.090360934183,2.059494120478,
    7.412696231611));
#1136 = LINE('',#1137,#1138);
#1137 = CARTESIAN_POINT('',(12.090360934183,2.811248217107,
    7.139080116951));
#1138 = VECTOR('',#1139,1.);
#1139 = DIRECTION('',(0.,-0.939692620786,0.342020143326));
#1140 = ORIENTED_EDGE('',*,*,#1141,.T.);
#1141 = EDGE_CURVE('',#1134,#1108,#1142,.T.);
#1142 = B_SPLINE_CURVE_WITH_KNOTS('',2,(#1143,#1144,#1145),
  .UNSPECIFIED.,.F.,.F.,(3,3),(0.,1.),.PIECEWISE_BEZIER_KNOTS.);
#1143 = CARTESIAN_POINT('',(12.090360934183,2.059494120478,
    7.412696231611));
#1144 = CARTESIAN_POINT('',(12.428025477707,2.178467751651,7.73957359677
    ));
#1145 = CARTESIAN_POINT('',(12.950318471338,2.178467751651,7.73957359677
    ));
#1146 = ORIENTED_EDGE('',*,*,#1107,.F.);
#1147 = SURFACE_OF_LINEAR_EXTRUSION('',#1148,#1152);
#1148 = B_SPLINE_CURVE_WITH_KNOTS('',2,(#1149,#1150,#1151),
  .UNSPECIFIED.,.F.,.F.,(3,3),(0.,1.),.PIECEWISE_BEZIER_KNOTS.);
#1149 = CARTESIAN_POINT('',(12.090360934183,2.811248217107,
    7.139080116951));
#1150 = CARTESIAN_POINT('',(12.428025477707,2.93022184828,7.465957482109
    ));
#1151 = CARTESIAN_POINT('',(12.950318471338,2.93022184828,7.465957482109
    ));
#1152 = VECTOR('',#1153,1.);
#1153 = DIRECTION('',(-0.,0.939692620786,-0.342020143326));
#1154 = ADVANCED_FACE('',(#1155),#1173,.T.);
#1155 = FACE_BOUND('',#1156,.T.);
#1156 = EDGE_LOOP('',(#1157,#1158,#1166,#1172));
#1157 = ORIENTED_EDGE('',*,*,#469,.T.);
#1158 = ORIENTED_EDGE('',*,*,#1159,.T.);
#1159 = EDGE_CURVE('',#453,#1160,#1162,.T.);
#1160 = VERTEX_POINT('',#1161);
#1161 = CARTESIAN_POINT('',(11.752866242038,1.746200764562,
    6.551929810567));
#1162 = LINE('',#1163,#1164);
#1163 = CARTESIAN_POINT('',(11.752866242038,2.497954861191,
    6.278313695906));
#1164 = VECTOR('',#1165,1.);
#1165 = DIRECTION('',(0.,-0.939692620786,0.342020143326));
#1166 = ORIENTED_EDGE('',*,*,#1167,.T.);
#1167 = EDGE_CURVE('',#1160,#1134,#1168,.T.);
#1168 = B_SPLINE_CURVE_WITH_KNOTS('',2,(#1169,#1170,#1171),
  .UNSPECIFIED.,.F.,.F.,(3,3),(0.,1.),.PIECEWISE_BEZIER_KNOTS.);
#1169 = CARTESIAN_POINT('',(11.752866242038,1.746200764562,
    6.551929810567));
#1170 = CARTESIAN_POINT('',(11.752866242038,1.940578581899,
    7.085978474541));
#1171 = CARTESIAN_POINT('',(12.090360934183,2.059494120478,
    7.412696231611));
#1172 = ORIENTED_EDGE('',*,*,#1133,.F.);
#1173 = SURFACE_OF_LINEAR_EXTRUSION('',#1174,#1178);
#1174 = B_SPLINE_CURVE_WITH_KNOTS('',2,(#1175,#1176,#1177),
  .UNSPECIFIED.,.F.,.F.,(3,3),(0.,1.),.PIECEWISE_BEZIER_KNOTS.);
#1175 = CARTESIAN_POINT('',(11.752866242038,2.497954861191,
    6.278313695906));
#1176 = CARTESIAN_POINT('',(11.752866242038,2.692332678527,
    6.812362359881));
#1177 = CARTESIAN_POINT('',(12.090360934183,2.811248217107,
    7.139080116951));
#1178 = VECTOR('',#1179,1.);
#1179 = DIRECTION('',(-0.,0.939692620786,-0.342020143326));
#1180 = ADVANCED_FACE('',(#1181),#1199,.T.);
#1181 = FACE_BOUND('',#1182,.T.);
#1182 = EDGE_LOOP('',(#1183,#1184,#1192,#1198));
#1183 = ORIENTED_EDGE('',*,*,#452,.T.);
#1184 = ORIENTED_EDGE('',*,*,#1185,.T.);
#1185 = EDGE_CURVE('',#438,#1186,#1188,.T.);
#1186 = VERTEX_POINT('',#1187);
#1187 = CARTESIAN_POINT('',(12.072526539278,1.443364075449,
    5.719892845445));
#1188 = LINE('',#1189,#1190);
#1189 = CARTESIAN_POINT('',(12.072526539278,2.195118172077,
    5.446276730784));
#1190 = VECTOR('',#1191,1.);
#1191 = DIRECTION('',(0.,-0.939692620786,0.342020143326));
#1192 = ORIENTED_EDGE('',*,*,#1193,.T.);
#1193 = EDGE_CURVE('',#1186,#1160,#1194,.T.);
#1194 = B_SPLINE_CURVE_WITH_KNOTS('',2,(#1195,#1196,#1197),
  .UNSPECIFIED.,.F.,.F.,(3,3),(0.,1.),.PIECEWISE_BEZIER_KNOTS.);
#1195 = CARTESIAN_POINT('',(12.072526539278,1.443364075449,
    5.719892845445));
#1196 = CARTESIAN_POINT('',(11.752866242038,1.559723539921,
    6.039587846623));
#1197 = CARTESIAN_POINT('',(11.752866242038,1.746200764562,
    6.551929810567));
#1198 = ORIENTED_EDGE('',*,*,#1159,.F.);
#1199 = SURFACE_OF_LINEAR_EXTRUSION('',#1200,#1204);
#1200 = B_SPLINE_CURVE_WITH_KNOTS('',2,(#1201,#1202,#1203),
  .UNSPECIFIED.,.F.,.F.,(3,3),(0.,1.),.PIECEWISE_BEZIER_KNOTS.);
#1201 = CARTESIAN_POINT('',(12.072526539278,2.195118172077,
    5.446276730784));
#1202 = CARTESIAN_POINT('',(11.752866242038,2.31147763655,5.765971731962
    ));
#1203 = CARTESIAN_POINT('',(11.752866242038,2.497954861191,
    6.278313695906));
#1204 = VECTOR('',#1205,1.);
#1205 = DIRECTION('',(-0.,0.939692620786,-0.342020143326));
#1206 = ADVANCED_FACE('',(#1207),#1225,.T.);
#1207 = FACE_BOUND('',#1208,.T.);
#1208 = EDGE_LOOP('',(#1209,#1210,#1218,#1224));
#1209 = ORIENTED_EDGE('',*,*,#437,.T.);
#1210 = ORIENTED_EDGE('',*,*,#1211,.T.);
#1211 = EDGE_CURVE('',#423,#1212,#1214,.T.);
#1212 = VERTEX_POINT('',#1213);
#1213 = CARTESIAN_POINT('',(12.833121019108,1.32706270357,5.400357452355
    ));
#1214 = LINE('',#1215,#1216);
#1215 = CARTESIAN_POINT('',(12.833121019108,2.078816800198,
    5.126741337695));
#1216 = VECTOR('',#1217,1.);
#1217 = DIRECTION('',(0.,-0.939692620786,0.342020143326));
#1218 = ORIENTED_EDGE('',*,*,#1219,.T.);
#1219 = EDGE_CURVE('',#1212,#1186,#1220,.T.);
#1220 = B_SPLINE_CURVE_WITH_KNOTS('',2,(#1221,#1222,#1223),
  .UNSPECIFIED.,.F.,.F.,(3,3),(0.,1.),.PIECEWISE_BEZIER_KNOTS.);
#1221 = CARTESIAN_POINT('',(12.833121019108,1.32706270357,5.400357452355
    ));
#1222 = CARTESIAN_POINT('',(12.392356687898,1.32706270357,5.400357452355
    ));
#1223 = CARTESIAN_POINT('',(12.072526539278,1.443364075449,
    5.719892845445));
#1224 = ORIENTED_EDGE('',*,*,#1185,.F.);
#1225 = SURFACE_OF_LINEAR_EXTRUSION('',#1226,#1230);
#1226 = B_SPLINE_CURVE_WITH_KNOTS('',2,(#1227,#1228,#1229),
  .UNSPECIFIED.,.F.,.F.,(3,3),(0.,1.),.PIECEWISE_BEZIER_KNOTS.);
#1227 = CARTESIAN_POINT('',(12.833121019108,2.078816800198,
    5.126741337695));
#1228 = CARTESIAN_POINT('',(12.392356687898,2.078816800198,
    5.126741337695));
#1229 = CARTESIAN_POINT('',(12.072526539278,2.195118172077,
    5.446276730784));
#1230 = VECTOR('',#1231,1.);
#1231 = DIRECTION('',(-0.,0.939692620786,-0.342020143326));
#1232 = ADVANCED_FACE('',(#1233),#1251,.T.);
#1233 = FACE_BOUND('',#1234,.T.);
#1234 = EDGE_LOOP('',(#1235,#1236,#1244,#1250));
#1235 = ORIENTED_EDGE('',*,*,#422,.T.);
#1236 = ORIENTED_EDGE('',*,*,#1237,.T.);
#1237 = EDGE_CURVE('',#401,#1238,#1240,.T.);
#1238 = VERTEX_POINT('',#1239);
#1239 = CARTESIAN_POINT('',(13.508280254777,1.434243538293,
    5.694834375557));
#1240 = LINE('',#1241,#1242);
#1241 = CARTESIAN_POINT('',(13.508280254777,2.185997634922,
    5.421218260897));
#1242 = VECTOR('',#1243,1.);
#1243 = DIRECTION('',(0.,-0.939692620786,0.342020143326));
#1244 = ORIENTED_EDGE('',*,*,#1245,.T.);
#1245 = EDGE_CURVE('',#1238,#1212,#1246,.T.);
#1246 = B_SPLINE_CURVE_WITH_KNOTS('',2,(#1247,#1248,#1249),
  .UNSPECIFIED.,.F.,.F.,(3,3),(0.,1.),.PIECEWISE_BEZIER_KNOTS.);
#1247 = CARTESIAN_POINT('',(13.508280254777,1.434243538293,
    5.694834375557));
#1248 = CARTESIAN_POINT('',(13.23821656051,1.32706270357,5.400357452355)
  );
#1249 = CARTESIAN_POINT('',(12.833121019108,1.32706270357,5.400357452355
    ));
#1250 = ORIENTED_EDGE('',*,*,#1211,.F.);
#1251 = SURFACE_OF_LINEAR_EXTRUSION('',#1252,#1256);
#1252 = B_SPLINE_CURVE_WITH_KNOTS('',2,(#1253,#1254,#1255),
  .UNSPECIFIED.,.F.,.F.,(3,3),(0.,1.),.PIECEWISE_BEZIER_KNOTS.);
#1253 = CARTESIAN_POINT('',(13.508280254777,2.185997634922,
    5.421218260897));
#1254 = CARTESIAN_POINT('',(13.23821656051,2.078816800198,5.126741337695
    ));
#1255 = CARTESIAN_POINT('',(12.833121019108,2.078816800198,
    5.126741337695));
#1256 = VECTOR('',#1257,1.);
#1257 = DIRECTION('',(-0.,0.939692620786,-0.342020143326));
#1258 = ADVANCED_FACE('',(#1259),#1277,.T.);
#1259 = FACE_BOUND('',#1260,.T.);
#1260 = EDGE_LOOP('',(#1261,#1262,#1270,#1276));
#1261 = ORIENTED_EDGE('',*,*,#400,.T.);
#1262 = ORIENTED_EDGE('',*,*,#1263,.T.);
#1263 = EDGE_CURVE('',#386,#1264,#1266,.T.);
#1264 = VERTEX_POINT('',#1265);
#1265 = CARTESIAN_POINT('',(13.309554140127,1.144187219716,
    4.897911189895));
#1266 = LINE('',#1267,#1268);
#1267 = CARTESIAN_POINT('',(13.309554140127,1.895941316344,
    4.624295075235));
#1268 = VECTOR('',#1269,1.);
#1269 = DIRECTION('',(0.,-0.939692620786,0.342020143326));
#1270 = ORIENTED_EDGE('',*,*,#1271,.T.);
#1271 = EDGE_CURVE('',#1264,#1238,#1272,.T.);
#1272 = B_SPLINE_CURVE_WITH_KNOTS('',2,(#1273,#1274,#1275),
  .UNSPECIFIED.,.F.,.F.,(3,3),(0.,1.),.PIECEWISE_BEZIER_KNOTS.);
#1273 = CARTESIAN_POINT('',(13.309554140127,1.144187219716,
    4.897911189895));
#1274 = CARTESIAN_POINT('',(13.464968152866,1.214188794698,
    5.090238936485));
#1275 = CARTESIAN_POINT('',(13.508280254777,1.434243538293,
    5.694834375557));
#1276 = ORIENTED_EDGE('',*,*,#1237,.F.);
#1277 = SURFACE_OF_LINEAR_EXTRUSION('',#1278,#1282);
#1278 = B_SPLINE_CURVE_WITH_KNOTS('',2,(#1279,#1280,#1281),
  .UNSPECIFIED.,.F.,.F.,(3,3),(0.,1.),.PIECEWISE_BEZIER_KNOTS.);
#1279 = CARTESIAN_POINT('',(13.309554140127,1.895941316344,
    4.624295075235));
#1280 = CARTESIAN_POINT('',(13.464968152866,1.965942891327,
    4.816622821825));
#1281 = CARTESIAN_POINT('',(13.508280254777,2.185997634922,
    5.421218260897));
#1282 = VECTOR('',#1283,1.);
#1283 = DIRECTION('',(-0.,0.939692620786,-0.342020143326));
#1284 = ADVANCED_FACE('',(#1285),#1303,.T.);
#1285 = FACE_BOUND('',#1286,.T.);
#1286 = EDGE_LOOP('',(#1287,#1288,#1296,#1302));
#1287 = ORIENTED_EDGE('',*,*,#385,.T.);
#1288 = ORIENTED_EDGE('',*,*,#1289,.T.);
#1289 = EDGE_CURVE('',#371,#1290,#1292,.T.);
#1290 = VERTEX_POINT('',#1291);
#1291 = CARTESIAN_POINT('',(12.932484076433,1.074243737327,
    4.705743051394));
#1292 = LINE('',#1293,#1294);
#1293 = CARTESIAN_POINT('',(12.932484076433,1.825997833956,
    4.432126936734));
#1294 = VECTOR('',#1295,1.);
#1295 = DIRECTION('',(0.,-0.939692620786,0.342020143326));
#1296 = ORIENTED_EDGE('',*,*,#1297,.T.);
#1297 = EDGE_CURVE('',#1290,#1264,#1298,.T.);
#1298 = B_SPLINE_CURVE_WITH_KNOTS('',2,(#1299,#1300,#1301),
  .UNSPECIFIED.,.F.,.F.,(3,3),(0.,1.),.PIECEWISE_BEZIER_KNOTS.);
#1299 = CARTESIAN_POINT('',(12.932484076433,1.074243737327,
    4.705743051394));
#1300 = CARTESIAN_POINT('',(13.154140127389,1.074243737327,
    4.705743051394));
#1301 = CARTESIAN_POINT('',(13.309554140127,1.144187219716,
    4.897911189895));
#1302 = ORIENTED_EDGE('',*,*,#1263,.F.);
#1303 = SURFACE_OF_LINEAR_EXTRUSION('',#1304,#1308);
#1304 = B_SPLINE_CURVE_WITH_KNOTS('',2,(#1305,#1306,#1307),
  .UNSPECIFIED.,.F.,.F.,(3,3),(0.,1.),.PIECEWISE_BEZIER_KNOTS.);
#1305 = CARTESIAN_POINT('',(12.932484076433,1.825997833956,
    4.432126936734));
#1306 = CARTESIAN_POINT('',(13.154140127389,1.825997833956,
    4.432126936734));
#1307 = CARTESIAN_POINT('',(13.309554140127,1.895941316344,
    4.624295075235));
#1308 = VECTOR('',#1309,1.);
#1309 = DIRECTION('',(-0.,0.939692620786,-0.342020143326));
#1310 = ADVANCED_FACE('',(#1311),#1329,.T.);
#1311 = FACE_BOUND('',#1312,.T.);
#1312 = EDGE_LOOP('',(#1313,#1314,#1322,#1328));
#1313 = ORIENTED_EDGE('',*,*,#370,.T.);
#1314 = ORIENTED_EDGE('',*,*,#1315,.T.);
#1315 = EDGE_CURVE('',#360,#1316,#1318,.T.);
#1316 = VERTEX_POINT('',#1317);
#1317 = CARTESIAN_POINT('',(12.649681528662,1.108925015555,
    4.801029080202));
#1318 = LINE('',#1319,#1320);
#1319 = CARTESIAN_POINT('',(12.649681528662,1.860679112183,
    4.527412965542));
#1320 = VECTOR('',#1321,1.);
#1321 = DIRECTION('',(0.,-0.939692620786,0.342020143326));
#1322 = ORIENTED_EDGE('',*,*,#1323,.T.);
#1323 = EDGE_CURVE('',#1316,#1290,#1324,.T.);
#1324 = B_SPLINE_CURVE_WITH_KNOTS('',2,(#1325,#1326,#1327),
  .UNSPECIFIED.,.F.,.F.,(3,3),(0.,1.),.PIECEWISE_BEZIER_KNOTS.);
#1325 = CARTESIAN_POINT('',(12.649681528662,1.108925015555,
    4.801029080202));
#1326 = CARTESIAN_POINT('',(12.756687898089,1.074243737327,
    4.705743051394));
#1327 = CARTESIAN_POINT('',(12.932484076433,1.074243737327,
    4.705743051394));
#1328 = ORIENTED_EDGE('',*,*,#1289,.F.);
#1329 = SURFACE_OF_LINEAR_EXTRUSION('',#1330,#1334);
#1330 = B_SPLINE_CURVE_WITH_KNOTS('',2,(#1331,#1332,#1333),
  .UNSPECIFIED.,.F.,.F.,(3,3),(0.,1.),.PIECEWISE_BEZIER_KNOTS.);
#1331 = CARTESIAN_POINT('',(12.649681528662,1.860679112183,
    4.527412965542));
#1332 = CARTESIAN_POINT('',(12.756687898089,1.825997833956,
    4.432126936734));
#1333 = CARTESIAN_POINT('',(12.932484076433,1.825997833956,
    4.432126936734));
#1334 = VECTOR('',#1335,1.);
#1335 = DIRECTION('',(-0.,0.939692620786,-0.342020143326));
#1336 = ADVANCED_FACE('',(#1337),#1348,.T.);
#1337 = FACE_BOUND('',#1338,.T.);
#1338 = EDGE_LOOP('',(#1339,#1340,#1341,#1347));
#1339 = ORIENTED_EDGE('',*,*,#359,.T.);
#1340 = ORIENTED_EDGE('',*,*,#962,.T.);
#1341 = ORIENTED_EDGE('',*,*,#1342,.T.);
#1342 = EDGE_CURVE('',#955,#1316,#1343,.T.);
#1343 = B_SPLINE_CURVE_WITH_KNOTS('',2,(#1344,#1345,#1346),
  .UNSPECIFIED.,.F.,.F.,(3,3),(0.,1.),.PIECEWISE_BEZIER_KNOTS.);
#1344 = CARTESIAN_POINT('',(12.517197452229,1.215524924345,5.09390992252
    ));
#1345 = CARTESIAN_POINT('',(12.542675159236,1.143606293782,
    4.896315109011));
#1346 = CARTESIAN_POINT('',(12.649681528662,1.108925015555,
    4.801029080202));
#1347 = ORIENTED_EDGE('',*,*,#1315,.F.);
#1348 = SURFACE_OF_LINEAR_EXTRUSION('',#1349,#1353);
#1349 = B_SPLINE_CURVE_WITH_KNOTS('',2,(#1350,#1351,#1352),
  .UNSPECIFIED.,.F.,.F.,(3,3),(0.,1.),.PIECEWISE_BEZIER_KNOTS.);
#1350 = CARTESIAN_POINT('',(12.517197452229,1.967279020974,
    4.820293807859));
#1351 = CARTESIAN_POINT('',(12.542675159236,1.895360390411,4.62269899435
    ));
#1352 = CARTESIAN_POINT('',(12.649681528662,1.860679112183,
    4.527412965542));
#1353 = VECTOR('',#1354,1.);
#1354 = DIRECTION('',(-0.,0.939692620786,-0.342020143326));
#1355 = ADVANCED_FACE('',(#1356),#1381,.F.);
#1356 = FACE_BOUND('',#1357,.F.);
#1357 = EDGE_LOOP('',(#1358,#1366,#1374,#1380));
#1358 = ORIENTED_EDGE('',*,*,#1359,.F.);
#1359 = EDGE_CURVE('',#1360,#284,#1362,.T.);
#1360 = VERTEX_POINT('',#1361);
#1361 = CARTESIAN_POINT('',(30.,12.6,0.));
#1362 = LINE('',#1363,#1364);
#1363 = CARTESIAN_POINT('',(30.,12.6,0.));
#1364 = VECTOR('',#1365,1.);
#1365 = DIRECTION('',(-0.971520338783,-0.236956180191,0.));
#1366 = ORIENTED_EDGE('',*,*,#1367,.T.);
#1367 = EDGE_CURVE('',#1360,#1368,#1370,.T.);
#1368 = VERTEX_POINT('',#1369);
#1369 = CARTESIAN_POINT('',(30.,12.6,10.));
#1370 = LINE('',#1371,#1372);
#1371 = CARTESIAN_POINT('',(30.,12.6,0.));
#1372 = VECTOR('',#1373,1.);
#1373 = DIRECTION('',(0.,0.,1.));
#1374 = ORIENTED_EDGE('',*,*,#1375,.T.);
#1375 = EDGE_CURVE('',#1368,#95,#1376,.T.);
#1376 = LINE('',#1377,#1378);
#1377 = CARTESIAN_POINT('',(30.,12.6,10.));
#1378 = VECTOR('',#1379,1.);
#1379 = DIRECTION('',(-0.971520338783,-0.236956180191,0.));
#1380 = ORIENTED_EDGE('',*,*,#682,.T.);
#1381 = PLANE('',#1382);
#1382 = AXIS2_PLACEMENT_3D('',#1383,#1384,#1385);
#1383 = CARTESIAN_POINT('',(30.,12.6,0.));
#1384 = DIRECTION('',(0.236956180191,-0.971520338783,0.));
#1385 = DIRECTION('',(-0.971520338783,-0.236956180191,0.));
#1386 = ADVANCED_FACE('',(#1387),#1405,.T.);
#1387 = FACE_BOUND('',#1388,.T.);
#1388 = EDGE_LOOP('',(#1389,#1390,#1398,#1404));
#1389 = ORIENTED_EDGE('',*,*,#699,.F.);
#1390 = ORIENTED_EDGE('',*,*,#1391,.T.);
#1391 = EDGE_CURVE('',#71,#1392,#1394,.T.);
#1392 = VERTEX_POINT('',#1393);
#1393 = CARTESIAN_POINT('',(30.,6.6,10.));
#1394 = LINE('',#1395,#1396);
#1395 = CARTESIAN_POINT('',(25.9,7.6,10.));
#1396 = VECTOR('',#1397,1.);
#1397 = DIRECTION('',(0.971520338783,-0.236956180191,0.));
#1398 = ORIENTED_EDGE('',*,*,#1399,.T.);
#1399 = EDGE_CURVE('',#1392,#1368,#1400,.T.);
#1400 = LINE('',#1401,#1402);
#1401 = CARTESIAN_POINT('',(30.,6.6,10.));
#1402 = VECTOR('',#1403,1.);
#1403 = DIRECTION('',(0.,1.,0.));
#1404 = ORIENTED_EDGE('',*,*,#1375,.T.);
#1405 = PLANE('',#1406);
#1406 = AXIS2_PLACEMENT_3D('',#1407,#1408,#1409);
#1407 = CARTESIAN_POINT('',(28.172338161771,9.6,10.));
#1408 = DIRECTION('',(0.,0.,1.));
#1409 = DIRECTION('',(1.,0.,0.));
#1410 = ADVANCED_FACE('',(#1411),#1429,.F.);
#1411 = FACE_BOUND('',#1412,.F.);
#1412 = EDGE_LOOP('',(#1413,#1421,#1422,#1423));
#1413 = ORIENTED_EDGE('',*,*,#1414,.F.);
#1414 = EDGE_CURVE('',#260,#1415,#1417,.T.);
#1415 = VERTEX_POINT('',#1416);
#1416 = CARTESIAN_POINT('',(30.,6.6,0.));
#1417 = LINE('',#1418,#1419);
#1418 = CARTESIAN_POINT('',(25.9,7.6,0.));
#1419 = VECTOR('',#1420,1.);
#1420 = DIRECTION('',(0.971520338783,-0.236956180191,0.));
#1421 = ORIENTED_EDGE('',*,*,#718,.T.);
#1422 = ORIENTED_EDGE('',*,*,#1391,.T.);
#1423 = ORIENTED_EDGE('',*,*,#1424,.F.);
#1424 = EDGE_CURVE('',#1415,#1392,#1425,.T.);
#1425 = LINE('',#1426,#1427);
#1426 = CARTESIAN_POINT('',(30.,6.6,0.));
#1427 = VECTOR('',#1428,1.);
#1428 = DIRECTION('',(0.,0.,1.));
#1429 = PLANE('',#1430);
#1430 = AXIS2_PLACEMENT_3D('',#1431,#1432,#1433);
#1431 = CARTESIAN_POINT('',(25.9,7.6,0.));
#1432 = DIRECTION('',(0.236956180191,0.971520338783,0.));
#1433 = DIRECTION('',(0.971520338783,-0.236956180191,0.));
#1434 = ADVANCED_FACE('',(#1435),#1461,.T.);
#1435 = FACE_BOUND('',#1436,.T.);
#1436 = EDGE_LOOP('',(#1437,#1445,#1446,#1454));
#1437 = ORIENTED_EDGE('',*,*,#1438,.F.);
#1438 = EDGE_CURVE('',#733,#1439,#1441,.T.);
#1439 = VERTEX_POINT('',#1440);
#1440 = CARTESIAN_POINT('',(8.1,24.84,21.));
#1441 = LINE('',#1442,#1443);
#1442 = CARTESIAN_POINT('',(8.1,25.09,20.75));
#1443 = VECTOR('',#1444,1.);
#1444 = DIRECTION('',(-2.90882763039E-35,-0.707106781187,0.707106781187)
  );
#1445 = ORIENTED_EDGE('',*,*,#749,.T.);
#1446 = ORIENTED_EDGE('',*,*,#1447,.T.);
#1447 = EDGE_CURVE('',#742,#1448,#1450,.T.);
#1448 = VERTEX_POINT('',#1449);
#1449 = CARTESIAN_POINT('',(8.,24.74,21.));
#1450 = LINE('',#1451,#1452);
#1451 = CARTESIAN_POINT('',(7.5,24.74,20.5));
#1452 = VECTOR('',#1453,1.);
#1453 = DIRECTION('',(0.707106781187,-4.329780281177E-17,0.707106781187)
  );
#1454 = ORIENTED_EDGE('',*,*,#1455,.F.);
#1455 = EDGE_CURVE('',#1439,#1448,#1456,.T.);
#1456 = CIRCLE('',#1457,1.E-01);
#1457 = AXIS2_PLACEMENT_3D('',#1458,#1459,#1460);
#1458 = CARTESIAN_POINT('',(8.1,24.74,21.));
#1459 = DIRECTION('',(0.,-0.,1.));
#1460 = DIRECTION('',(0.,1.,0.));
#1461 = CONICAL_SURFACE('',#1462,0.6,0.785398163397);
#1462 = AXIS2_PLACEMENT_3D('',#1463,#1464,#1465);
#1463 = CARTESIAN_POINT('',(8.1,24.74,20.5));
#1464 = DIRECTION('',(-0.,-0.,-1.));
#1465 = DIRECTION('',(0.,1.,0.));
#1466 = ADVANCED_FACE('',(#1467),#1485,.F.);
#1467 = FACE_BOUND('',#1468,.T.);
#1468 = EDGE_LOOP('',(#1469,#1477,#1478,#1479));
#1469 = ORIENTED_EDGE('',*,*,#1470,.F.);
#1470 = EDGE_CURVE('',#766,#1471,#1473,.T.);
#1471 = VERTEX_POINT('',#1472);
#1472 = CARTESIAN_POINT('',(17.9,24.84,21.));
#1473 = LINE('',#1474,#1475);
#1474 = CARTESIAN_POINT('',(17.9,25.09,20.75));
#1475 = VECTOR('',#1476,1.);
#1476 = DIRECTION('',(-2.90882763039E-35,-0.707106781187,0.707106781187)
  );
#1477 = ORIENTED_EDGE('',*,*,#773,.T.);
#1478 = ORIENTED_EDGE('',*,*,#1438,.T.);
#1479 = ORIENTED_EDGE('',*,*,#1480,.F.);
#1480 = EDGE_CURVE('',#1471,#1439,#1481,.T.);
#1481 = LINE('',#1482,#1483);
#1482 = CARTESIAN_POINT('',(17.9,24.84,21.));
#1483 = VECTOR('',#1484,1.);
#1484 = DIRECTION('',(-1.,0.,0.));
#1485 = PLANE('',#1486);
#1486 = AXIS2_PLACEMENT_3D('',#1487,#1488,#1489);
#1487 = CARTESIAN_POINT('',(17.9,25.09,20.75));
#1488 = DIRECTION('',(-1.889513820523E-18,-0.707106781187,
    -0.707106781187));
#1489 = DIRECTION('',(1.,-1.336088035637E-18,-1.336088035637E-18));
#1490 = ADVANCED_FACE('',(#1491),#1509,.F.);
#1491 = FACE_BOUND('',#1492,.T.);
#1492 = EDGE_LOOP('',(#1493,#1494,#1495,#1503));
#1493 = ORIENTED_EDGE('',*,*,#1447,.F.);
#1494 = ORIENTED_EDGE('',*,*,#790,.T.);
#1495 = ORIENTED_EDGE('',*,*,#1496,.T.);
#1496 = EDGE_CURVE('',#791,#1497,#1499,.T.);
#1497 = VERTEX_POINT('',#1498);
#1498 = CARTESIAN_POINT('',(8.,14.94,21.));
#1499 = LINE('',#1500,#1501);
#1500 = CARTESIAN_POINT('',(7.75,14.94,20.75));
#1501 = VECTOR('',#1502,1.);
#1502 = DIRECTION('',(0.707106781187,-2.90882763039E-35,0.707106781187)
  );
#1503 = ORIENTED_EDGE('',*,*,#1504,.F.);
#1504 = EDGE_CURVE('',#1448,#1497,#1505,.T.);
#1505 = LINE('',#1506,#1507);
#1506 = CARTESIAN_POINT('',(8.,24.74,21.));
#1507 = VECTOR('',#1508,1.);
#1508 = DIRECTION('',(0.,-1.,0.));
#1509 = PLANE('',#1510);
#1510 = AXIS2_PLACEMENT_3D('',#1511,#1512,#1513);
#1511 = CARTESIAN_POINT('',(7.75,24.74,20.75));
#1512 = DIRECTION('',(0.707106781187,1.889513820523E-18,-0.707106781187)
  );
#1513 = DIRECTION('',(-1.336088035637E-18,1.,1.336088035637E-18));
#1514 = ADVANCED_FACE('',(#1515),#1534,.T.);
#1515 = FACE_BOUND('',#1516,.T.);
#1516 = EDGE_LOOP('',(#1517,#1525,#1526,#1527));
#1517 = ORIENTED_EDGE('',*,*,#1518,.F.);
#1518 = EDGE_CURVE('',#815,#1519,#1521,.T.);
#1519 = VERTEX_POINT('',#1520);
#1520 = CARTESIAN_POINT('',(18.,24.74,21.));
#1521 = LINE('',#1522,#1523);
#1522 = CARTESIAN_POINT('',(18.25,24.74,20.75));
#1523 = VECTOR('',#1524,1.);
#1524 = DIRECTION('',(-0.707106781187,5.615430530155E-36,0.707106781187)
  );
#1525 = ORIENTED_EDGE('',*,*,#822,.T.);
#1526 = ORIENTED_EDGE('',*,*,#1470,.T.);
#1527 = ORIENTED_EDGE('',*,*,#1528,.F.);
#1528 = EDGE_CURVE('',#1519,#1471,#1529,.T.);
#1529 = CIRCLE('',#1530,1.E-01);
#1530 = AXIS2_PLACEMENT_3D('',#1531,#1532,#1533);
#1531 = CARTESIAN_POINT('',(17.9,24.74,21.));
#1532 = DIRECTION('',(0.,0.,1.));
#1533 = DIRECTION('',(1.,0.,0.));
#1534 = CONICAL_SURFACE('',#1535,0.6,0.785398163397);
#1535 = AXIS2_PLACEMENT_3D('',#1536,#1537,#1538);
#1536 = CARTESIAN_POINT('',(17.9,24.74,20.5));
#1537 = DIRECTION('',(-0.,-0.,-1.));
#1538 = DIRECTION('',(1.,0.,0.));
#1539 = ADVANCED_FACE('',(#1540),#1559,.T.);
#1540 = FACE_BOUND('',#1541,.T.);
#1541 = EDGE_LOOP('',(#1542,#1543,#1544,#1552));
#1542 = ORIENTED_EDGE('',*,*,#1496,.F.);
#1543 = ORIENTED_EDGE('',*,*,#847,.T.);
#1544 = ORIENTED_EDGE('',*,*,#1545,.T.);
#1545 = EDGE_CURVE('',#840,#1546,#1548,.T.);
#1546 = VERTEX_POINT('',#1547);
#1547 = CARTESIAN_POINT('',(8.1,14.84,21.));
#1548 = LINE('',#1549,#1550);
#1549 = CARTESIAN_POINT('',(8.1,14.34,20.5));
#1550 = VECTOR('',#1551,1.);
#1551 = DIRECTION('',(4.329780281177E-17,0.707106781187,0.707106781187)
  );
#1552 = ORIENTED_EDGE('',*,*,#1553,.F.);
#1553 = EDGE_CURVE('',#1497,#1546,#1554,.T.);
#1554 = CIRCLE('',#1555,1.E-01);
#1555 = AXIS2_PLACEMENT_3D('',#1556,#1557,#1558);
#1556 = CARTESIAN_POINT('',(8.1,14.94,21.));
#1557 = DIRECTION('',(0.,0.,1.));
#1558 = DIRECTION('',(-1.,0.,0.));
#1559 = CONICAL_SURFACE('',#1560,0.6,0.785398163397);
#1560 = AXIS2_PLACEMENT_3D('',#1561,#1562,#1563);
#1561 = CARTESIAN_POINT('',(8.1,14.94,20.5));
#1562 = DIRECTION('',(-0.,-0.,-1.));
#1563 = DIRECTION('',(-1.,0.,0.));
#1564 = ADVANCED_FACE('',(#1565),#1583,.F.);
#1565 = FACE_BOUND('',#1566,.T.);
#1566 = EDGE_LOOP('',(#1567,#1575,#1576,#1577));
#1567 = ORIENTED_EDGE('',*,*,#1568,.F.);
#1568 = EDGE_CURVE('',#864,#1569,#1571,.T.);
#1569 = VERTEX_POINT('',#1570);
#1570 = CARTESIAN_POINT('',(18.,14.94,21.));
#1571 = LINE('',#1572,#1573);
#1572 = CARTESIAN_POINT('',(18.5,14.94,20.5));
#1573 = VECTOR('',#1574,1.);
#1574 = DIRECTION('',(-0.707106781187,4.329780281177E-17,0.707106781187)
  );
#1575 = ORIENTED_EDGE('',*,*,#871,.T.);
#1576 = ORIENTED_EDGE('',*,*,#1518,.T.);
#1577 = ORIENTED_EDGE('',*,*,#1578,.F.);
#1578 = EDGE_CURVE('',#1569,#1519,#1579,.T.);
#1579 = LINE('',#1580,#1581);
#1580 = CARTESIAN_POINT('',(18.,14.94,21.));
#1581 = VECTOR('',#1582,1.);
#1582 = DIRECTION('',(0.,1.,0.));
#1583 = PLANE('',#1584);
#1584 = AXIS2_PLACEMENT_3D('',#1585,#1586,#1587);
#1585 = CARTESIAN_POINT('',(18.25,14.94,20.75));
#1586 = DIRECTION('',(-0.707106781187,1.479157021432E-19,-0.707106781187
    ));
#1587 = DIRECTION('',(-1.045921960294E-19,-1.,-1.045921960294E-19));
#1588 = ADVANCED_FACE('',(#1589),#1607,.F.);
#1589 = FACE_BOUND('',#1590,.T.);
#1590 = EDGE_LOOP('',(#1591,#1592,#1593,#1601));
#1591 = ORIENTED_EDGE('',*,*,#1545,.F.);
#1592 = ORIENTED_EDGE('',*,*,#888,.T.);
#1593 = ORIENTED_EDGE('',*,*,#1594,.T.);
#1594 = EDGE_CURVE('',#889,#1595,#1597,.T.);
#1595 = VERTEX_POINT('',#1596);
#1596 = CARTESIAN_POINT('',(17.9,14.84,21.));
#1597 = LINE('',#1598,#1599);
#1598 = CARTESIAN_POINT('',(17.9,14.59,20.75));
#1599 = VECTOR('',#1600,1.);
#1600 = DIRECTION('',(2.26130160805E-35,0.707106781187,0.707106781187));
#1601 = ORIENTED_EDGE('',*,*,#1602,.F.);
#1602 = EDGE_CURVE('',#1546,#1595,#1603,.T.);
#1603 = LINE('',#1604,#1605);
#1604 = CARTESIAN_POINT('',(8.1,14.84,21.));
#1605 = VECTOR('',#1606,1.);
#1606 = DIRECTION('',(1.,0.,0.));
#1607 = PLANE('',#1608);
#1608 = AXIS2_PLACEMENT_3D('',#1609,#1610,#1611);
#1609 = CARTESIAN_POINT('',(8.1,14.59,20.75));
#1610 = DIRECTION('',(-3.029276165476E-18,0.707106781187,-0.707106781187
    ));
#1611 = DIRECTION('',(-1.,-2.142021718695E-18,2.142021718695E-18));
#1612 = ADVANCED_FACE('',(#1613),#1625,.T.);
#1613 = FACE_BOUND('',#1614,.T.);
#1614 = EDGE_LOOP('',(#1615,#1616,#1617,#1618));
#1615 = ORIENTED_EDGE('',*,*,#1594,.F.);
#1616 = ORIENTED_EDGE('',*,*,#913,.T.);
#1617 = ORIENTED_EDGE('',*,*,#1568,.T.);
#1618 = ORIENTED_EDGE('',*,*,#1619,.F.);
#1619 = EDGE_CURVE('',#1595,#1569,#1620,.T.);
#1620 = CIRCLE('',#1621,1.E-01);
#1621 = AXIS2_PLACEMENT_3D('',#1622,#1623,#1624);
#1622 = CARTESIAN_POINT('',(17.9,14.94,21.));
#1623 = DIRECTION('',(-0.,0.,1.));
#1624 = DIRECTION('',(0.,-1.,0.));
#1625 = CONICAL_SURFACE('',#1626,0.6,0.785398163397);
#1626 = AXIS2_PLACEMENT_3D('',#1627,#1628,#1629);
#1627 = CARTESIAN_POINT('',(17.9,14.94,20.5));
#1628 = DIRECTION('',(-0.,-0.,-1.));
#1629 = DIRECTION('',(0.,-1.,0.));
#1630 = ADVANCED_FACE('',(#1631),#1642,.F.);
#1631 = FACE_BOUND('',#1632,.F.);
#1632 = EDGE_LOOP('',(#1633,#1634,#1635,#1641));
#1633 = ORIENTED_EDGE('',*,*,#929,.F.);
#1634 = ORIENTED_EDGE('',*,*,#1414,.T.);
#1635 = ORIENTED_EDGE('',*,*,#1636,.T.);
#1636 = EDGE_CURVE('',#1415,#1360,#1637,.T.);
#1637 = LINE('',#1638,#1639);
#1638 = CARTESIAN_POINT('',(30.,6.6,0.));
#1639 = VECTOR('',#1640,1.);
#1640 = DIRECTION('',(0.,1.,0.));
#1641 = ORIENTED_EDGE('',*,*,#1359,.T.);
#1642 = PLANE('',#1643);
#1643 = AXIS2_PLACEMENT_3D('',#1644,#1645,#1646);
#1644 = CARTESIAN_POINT('',(28.172338161771,9.6,0.));
#1645 = DIRECTION('',(0.,0.,1.));
#1646 = DIRECTION('',(1.,0.,0.));
#1647 = ADVANCED_FACE('',(#1648,#1666),#1732,.T.);
#1648 = FACE_BOUND('',#1649,.T.);
#1649 = EDGE_LOOP('',(#1650,#1651,#1652,#1653,#1654,#1655,#1656,#1657,
    #1658,#1659,#1660,#1661,#1662,#1663,#1664,#1665));
#1650 = ORIENTED_EDGE('',*,*,#954,.F.);
#1651 = ORIENTED_EDGE('',*,*,#985,.F.);
#1652 = ORIENTED_EDGE('',*,*,#1011,.F.);
#1653 = ORIENTED_EDGE('',*,*,#1037,.F.);
#1654 = ORIENTED_EDGE('',*,*,#1063,.F.);
#1655 = ORIENTED_EDGE('',*,*,#1089,.F.);
#1656 = ORIENTED_EDGE('',*,*,#1115,.F.);
#1657 = ORIENTED_EDGE('',*,*,#1141,.F.);
#1658 = ORIENTED_EDGE('',*,*,#1167,.F.);
#1659 = ORIENTED_EDGE('',*,*,#1193,.F.);
#1660 = ORIENTED_EDGE('',*,*,#1219,.F.);
#1661 = ORIENTED_EDGE('',*,*,#1245,.F.);
#1662 = ORIENTED_EDGE('',*,*,#1271,.F.);
#1663 = ORIENTED_EDGE('',*,*,#1297,.F.);
#1664 = ORIENTED_EDGE('',*,*,#1323,.F.);
#1665 = ORIENTED_EDGE('',*,*,#1342,.F.);
#1666 = FACE_BOUND('',#1667,.T.);
#1667 = EDGE_LOOP('',(#1668,#1678,#1686,#1694,#1702,#1710,#1718,#1726));
#1668 = ORIENTED_EDGE('',*,*,#1669,.F.);
#1669 = EDGE_CURVE('',#1670,#1672,#1674,.T.);
#1670 = VERTEX_POINT('',#1671);
#1671 = CARTESIAN_POINT('',(13.444585987261,1.724938875398,
    6.493513250192));
#1672 = VERTEX_POINT('',#1673);
#1673 = CARTESIAN_POINT('',(13.285265392781,1.908685748152,
    6.998353633979));
#1674 = B_SPLINE_CURVE_WITH_KNOTS('',2,(#1675,#1676,#1677),
  .UNSPECIFIED.,.F.,.F.,(3,3),(0.,1.),.PIECEWISE_BEZIER_KNOTS.);
#1675 = CARTESIAN_POINT('',(13.444585987261,1.724938875398,
    6.493513250192));
#1676 = CARTESIAN_POINT('',(13.444585987261,1.84338967323,6.818954142554
    ));
#1677 = CARTESIAN_POINT('',(13.285265392781,1.908685748152,
    6.998353633979));
#1678 = ORIENTED_EDGE('',*,*,#1679,.F.);
#1679 = EDGE_CURVE('',#1680,#1670,#1682,.T.);
#1680 = VERTEX_POINT('',#1681);
#1681 = CARTESIAN_POINT('',(13.303099787686,1.561233947348,
    6.043737656922));
#1682 = B_SPLINE_CURVE_WITH_KNOTS('',2,(#1683,#1684,#1685),
  .UNSPECIFIED.,.F.,.F.,(3,3),(0.,1.),.PIECEWISE_BEZIER_KNOTS.);
#1683 = CARTESIAN_POINT('',(13.303099787686,1.561233947348,
    6.043737656922));
#1684 = CARTESIAN_POINT('',(13.444585987261,1.61700283696,6.19696142184)
  );
#1685 = CARTESIAN_POINT('',(13.444585987261,1.724938875398,
    6.493513250192));
#1686 = ORIENTED_EDGE('',*,*,#1687,.F.);
#1687 = EDGE_CURVE('',#1688,#1680,#1690,.T.);
#1688 = VERTEX_POINT('',#1689);
#1689 = CARTESIAN_POINT('',(12.955414012739,1.505523150329,
    5.890673500093));
#1690 = B_SPLINE_CURVE_WITH_KNOTS('',2,(#1691,#1692,#1693),
  .UNSPECIFIED.,.F.,.F.,(3,3),(0.,1.),.PIECEWISE_BEZIER_KNOTS.);
#1691 = CARTESIAN_POINT('',(12.955414012739,1.505523150329,
    5.890673500093));
#1692 = CARTESIAN_POINT('',(13.16178343949,1.505523150329,5.890673500093
    ));
#1693 = CARTESIAN_POINT('',(13.303099787686,1.561233947348,
    6.043737656922));
#1694 = ORIENTED_EDGE('',*,*,#1695,.F.);
#1695 = EDGE_CURVE('',#1696,#1688,#1698,.T.);
#1696 = VERTEX_POINT('',#1697);
#1697 = CARTESIAN_POINT('',(12.59872611465,1.563441465895,6.049802764284
    ));
#1698 = B_SPLINE_CURVE_WITH_KNOTS('',2,(#1699,#1700,#1701),
  .UNSPECIFIED.,.F.,.F.,(3,3),(0.,1.),.PIECEWISE_BEZIER_KNOTS.);
#1699 = CARTESIAN_POINT('',(12.59872611465,1.563441465895,6.049802764284
    ));
#1700 = CARTESIAN_POINT('',(12.741401273885,1.505523150329,
    5.890673500093));
#1701 = CARTESIAN_POINT('',(12.955414012739,1.505523150329,
    5.890673500093));
#1702 = ORIENTED_EDGE('',*,*,#1703,.F.);
#1703 = EDGE_CURVE('',#1704,#1696,#1706,.T.);
#1704 = VERTEX_POINT('',#1705);
#1705 = CARTESIAN_POINT('',(12.456050955414,1.744980820102,
    6.548578040709));
#1706 = B_SPLINE_CURVE_WITH_KNOTS('',2,(#1707,#1708,#1709),
  .UNSPECIFIED.,.F.,.F.,(3,3),(0.,1.),.PIECEWISE_BEZIER_KNOTS.);
#1707 = CARTESIAN_POINT('',(12.456050955414,1.744980820102,
    6.548578040709));
#1708 = CARTESIAN_POINT('',(12.456050955414,1.621359781461,
    6.208932028475));
#1709 = CARTESIAN_POINT('',(12.59872611465,1.563441465895,6.049802764284
    ));
#1710 = ORIENTED_EDGE('',*,*,#1711,.F.);
#1711 = EDGE_CURVE('',#1712,#1704,#1714,.T.);
#1712 = VERTEX_POINT('',#1713);
#1713 = CARTESIAN_POINT('',(12.587176220807,1.920420452007,
    7.030594467847));
#1714 = B_SPLINE_CURVE_WITH_KNOTS('',2,(#1715,#1716,#1717),
  .UNSPECIFIED.,.F.,.F.,(3,3),(0.,1.),.PIECEWISE_BEZIER_KNOTS.);
#1715 = CARTESIAN_POINT('',(12.587176220807,1.920420452007,
    7.030594467847));
#1716 = CARTESIAN_POINT('',(12.456050955414,1.866859080942,
    6.883435810291));
#1717 = CARTESIAN_POINT('',(12.456050955414,1.744980820102,
    6.548578040709));
#1718 = ORIENTED_EDGE('',*,*,#1719,.F.);
#1719 = EDGE_CURVE('',#1720,#1712,#1722,.T.);
#1720 = VERTEX_POINT('',#1721);
#1721 = CARTESIAN_POINT('',(12.917197452229,1.973981823073,
    7.177753125404));
#1722 = B_SPLINE_CURVE_WITH_KNOTS('',2,(#1723,#1724,#1725),
  .UNSPECIFIED.,.F.,.F.,(3,3),(0.,1.),.PIECEWISE_BEZIER_KNOTS.);
#1723 = CARTESIAN_POINT('',(12.917197452229,1.973981823073,
    7.177753125404));
#1724 = CARTESIAN_POINT('',(12.71847133758,1.973981823073,7.177753125404
    ));
#1725 = CARTESIAN_POINT('',(12.587176220807,1.920420452007,
    7.030594467847));
#1726 = ORIENTED_EDGE('',*,*,#1727,.F.);
#1727 = EDGE_CURVE('',#1672,#1720,#1728,.T.);
#1728 = B_SPLINE_CURVE_WITH_KNOTS('',2,(#1729,#1730,#1731),
  .UNSPECIFIED.,.F.,.F.,(3,3),(0.,1.),.PIECEWISE_BEZIER_KNOTS.);
#1729 = CARTESIAN_POINT('',(13.285265392781,1.908685748152,
    6.998353633979));
#1730 = CARTESIAN_POINT('',(13.126114649682,1.973981823073,
    7.177753125404));
#1731 = CARTESIAN_POINT('',(12.917197452229,1.973981823073,
    7.177753125404));
#1732 = PLANE('',#1733);
#1733 = AXIS2_PLACEMENT_3D('',#1734,#1735,#1736);
#1734 = CARTESIAN_POINT('',(12.985613679542,1.45471607553,5.751082209333
    ));
#1735 = DIRECTION('',(0.,-0.939692620786,0.342020143326));
#1736 = DIRECTION('',(1.,0.,0.));
#1737 = ADVANCED_FACE('',(#1738),#1744,.F.);
#1738 = FACE_BOUND('',#1739,.F.);
#1739 = EDGE_LOOP('',(#1740,#1741,#1742,#1743));
#1740 = ORIENTED_EDGE('',*,*,#1424,.T.);
#1741 = ORIENTED_EDGE('',*,*,#1399,.T.);
#1742 = ORIENTED_EDGE('',*,*,#1367,.F.);
#1743 = ORIENTED_EDGE('',*,*,#1636,.F.);
#1744 = PLANE('',#1745);
#1745 = AXIS2_PLACEMENT_3D('',#1746,#1747,#1748);
#1746 = CARTESIAN_POINT('',(30.,6.6,0.));
#1747 = DIRECTION('',(-1.,0.,0.));
#1748 = DIRECTION('',(0.,1.,0.));
#1749 = ADVANCED_FACE('',(#1750),#1760,.T.);
#1750 = FACE_BOUND('',#1751,.T.);
#1751 = EDGE_LOOP('',(#1752,#1753,#1754,#1755,#1756,#1757,#1758,#1759));
#1752 = ORIENTED_EDGE('',*,*,#1480,.T.);
#1753 = ORIENTED_EDGE('',*,*,#1455,.T.);
#1754 = ORIENTED_EDGE('',*,*,#1504,.T.);
#1755 = ORIENTED_EDGE('',*,*,#1553,.T.);
#1756 = ORIENTED_EDGE('',*,*,#1602,.T.);
#1757 = ORIENTED_EDGE('',*,*,#1619,.T.);
#1758 = ORIENTED_EDGE('',*,*,#1578,.T.);
#1759 = ORIENTED_EDGE('',*,*,#1528,.T.);
#1760 = PLANE('',#1761);
#1761 = AXIS2_PLACEMENT_3D('',#1762,#1763,#1764);
#1762 = CARTESIAN_POINT('',(13.,19.84,21.));
#1763 = DIRECTION('',(0.,0.,1.));
#1764 = DIRECTION('',(1.,0.,0.));
#1765 = ADVANCED_FACE('',(#1766),#1776,.T.);
#1766 = FACE_BOUND('',#1767,.T.);
#1767 = EDGE_LOOP('',(#1768,#1769,#1770,#1771,#1772,#1773,#1774,#1775));
#1768 = ORIENTED_EDGE('',*,*,#1679,.T.);
#1769 = ORIENTED_EDGE('',*,*,#1669,.T.);
#1770 = ORIENTED_EDGE('',*,*,#1727,.T.);
#1771 = ORIENTED_EDGE('',*,*,#1719,.T.);
#1772 = ORIENTED_EDGE('',*,*,#1711,.T.);
#1773 = ORIENTED_EDGE('',*,*,#1703,.T.);
#1774 = ORIENTED_EDGE('',*,*,#1695,.T.);
#1775 = ORIENTED_EDGE('',*,*,#1687,.T.);
#1776 = PLANE('',#1777);
#1777 = AXIS2_PLACEMENT_3D('',#1778,#1779,#1780);
#1778 = CARTESIAN_POINT('',(12.985613679542,1.45471607553,5.751082209333
    ));
#1779 = DIRECTION('',(0.,-0.939692620786,0.342020143326));
#1780 = DIRECTION('',(1.,0.,0.));
#1781 = ( GEOMETRIC_REPRESENTATION_CONTEXT(3) 
GLOBAL_UNCERTAINTY_ASSIGNED_CONTEXT((#1785)) 
GLOBAL_UNIT_ASSIGNED_CONTEXT((#1782,#1783,#1784)) REPRESENTATION_CONTEXT
('Context #1','3D Context with UNIT and UNCERTAINTY') );
#1782 = ( LENGTH_UNIT() NAMED_UNIT(*) SI_UNIT(.MILLI.,.METRE.) );
#1783 = ( NAMED_UNIT(*) PLANE_ANGLE_UNIT() SI_UNIT($,.RADIAN.) );
#1784 = ( NAMED_UNIT(*) SI_UNIT($,.STERADIAN.) SOLID_ANGLE_UNIT() );
#1785 = UNCERTAINTY_MEASURE_WITH_UNIT(LENGTH_MEASURE(1.E-06),#1782,
  'distance_accuracy_value','confusion accuracy');
#1786 = PRODUCT_RELATED_PRODUCT_CATEGORY('part',$,(#7));
ENDSEC;
END-ISO-10303-21;
