ISO-10303-21;
HEADER;
FILE_DESCRIPTION(('FreeCAD Model'),'2;1');
FILE_NAME('Open CASCADE Shape Model','2026-08-30T15:43:48',('FreeCAD'),(
    'FreeCAD'),'Open CASCADE STEP processor 7.8','FreeCAD','Unknown');
FILE_SCHEMA(('AUTOMOTIVE_DESIGN { 1 0 10303 214 1 1 1 1 }'));
ENDSEC;
DATA;
#1 = APPLICATION_PROTOCOL_DEFINITION('international standard',
  'automotive_design',2000,#2);
#2 = APPLICATION_CONTEXT(
  'core data for automotive mechanical design processes');
#3 = SHAPE_DEFINITION_REPRESENTATION(#4,#10);
#4 = PRODUCT_DEFINITION_SHAPE('','',#5);
#5 = PRODUCT_DEFINITION('design','',#6,#9);
#6 = PRODUCT_DEFINITION_FORMATION('','',#7);
#7 = PRODUCT('Open CASCADE STEP translator 7.8 73',
  'Open CASCADE STEP translator 7.8 73','',(#8));
#8 = PRODUCT_CONTEXT('',#2,'mechanical');
#9 = PRODUCT_DEFINITION_CONTEXT('part definition',#2,'design');
#10 = SHAPE_REPRESENTATION('',(#11,#15,#303),#1048);
#11 = AXIS2_PLACEMENT_3D('',#12,#13,#14);
#12 = CARTESIAN_POINT('',(0.,0.,0.));
#13 = DIRECTION('',(0.,0.,1.));
#14 = DIRECTION('',(1.,0.,-0.));
#15 = MANIFOLD_SOLID_BREP('',#16);
#16 = CLOSED_SHELL('',(#17,#57,#88,#121,#152,#185,#218,#249,#271,#287));
#17 = ADVANCED_FACE('',(#18),#52,.T.);
#18 = FACE_BOUND('',#19,.T.);
#19 = EDGE_LOOP('',(#20,#30,#38,#46));
#20 = ORIENTED_EDGE('',*,*,#21,.T.);
#21 = EDGE_CURVE('',#22,#24,#26,.T.);
#22 = VERTEX_POINT('',#23);
#23 = CARTESIAN_POINT('',(20.114267515924,1.461834344089,3.431595971335)
  );
#24 = VERTEX_POINT('',#25);
#25 = CARTESIAN_POINT('',(20.114267515924,0.71008024746,3.705212085995)
  );
#26 = LINE('',#27,#28);
#27 = CARTESIAN_POINT('',(20.114267515924,1.461834344089,3.431595971335)
  );
#28 = VECTOR('',#29,1.);
#29 = DIRECTION('',(0.,-0.939692620786,0.342020143326));
#30 = ORIENTED_EDGE('',*,*,#31,.T.);
#31 = EDGE_CURVE('',#24,#32,#34,.T.);
#32 = VERTEX_POINT('',#33);
#33 = CARTESIAN_POINT('',(19.040382165605,0.71008024746,3.705212085995)
  );
#34 = LINE('',#35,#36);
#35 = CARTESIAN_POINT('',(20.114267515924,0.71008024746,3.705212085995)
  );
#36 = VECTOR('',#37,1.);
#37 = DIRECTION('',(-1.,0.,0.));
#38 = ORIENTED_EDGE('',*,*,#39,.F.);
#39 = EDGE_CURVE('',#40,#32,#42,.T.);
#40 = VERTEX_POINT('',#41);
#41 = CARTESIAN_POINT('',(19.040382165605,1.461834344089,3.431595971335)
  );
#42 = LINE('',#43,#44);
#43 = CARTESIAN_POINT('',(19.040382165605,1.461834344089,3.431595971335)
  );
#44 = VECTOR('',#45,1.);
#45 = DIRECTION('',(0.,-0.939692620786,0.342020143326));
#46 = ORIENTED_EDGE('',*,*,#47,.F.);
#47 = EDGE_CURVE('',#22,#40,#48,.T.);
#48 = LINE('',#49,#50);
#49 = CARTESIAN_POINT('',(20.114267515924,1.461834344089,3.431595971335)
  );
#50 = VECTOR('',#51,1.);
#51 = DIRECTION('',(-1.,0.,0.));
#52 = PLANE('',#53);
#53 = AXIS2_PLACEMENT_3D('',#54,#55,#56);
#54 = CARTESIAN_POINT('',(20.114267515924,1.461834344089,3.431595971335)
  );
#55 = DIRECTION('',(0.,-0.342020143326,-0.939692620786));
#56 = DIRECTION('',(-1.,0.,0.));
#57 = ADVANCED_FACE('',(#58),#83,.T.);
#58 = FACE_BOUND('',#59,.T.);
#59 = EDGE_LOOP('',(#60,#61,#69,#77));
#60 = ORIENTED_EDGE('',*,*,#39,.T.);
#61 = ORIENTED_EDGE('',*,*,#62,.T.);
#62 = EDGE_CURVE('',#32,#63,#65,.T.);
#63 = VERTEX_POINT('',#64);
#64 = CARTESIAN_POINT('',(19.040382165605,2.099422709928,7.522399129514)
  );
#65 = LINE('',#66,#67);
#66 = CARTESIAN_POINT('',(19.040382165605,0.71008024746,3.705212085995)
  );
#67 = VECTOR('',#68,1.);
#68 = DIRECTION('',(0.,0.342020143326,0.939692620786));
#69 = ORIENTED_EDGE('',*,*,#70,.F.);
#70 = EDGE_CURVE('',#71,#63,#73,.T.);
#71 = VERTEX_POINT('',#72);
#72 = CARTESIAN_POINT('',(19.040382165605,2.851176806556,7.248783014853)
  );
#73 = LINE('',#74,#75);
#74 = CARTESIAN_POINT('',(19.040382165605,2.851176806556,7.248783014853)
  );
#75 = VECTOR('',#76,1.);
#76 = DIRECTION('',(0.,-0.939692620786,0.342020143326));
#77 = ORIENTED_EDGE('',*,*,#78,.F.);
#78 = EDGE_CURVE('',#40,#71,#79,.T.);
#79 = LINE('',#80,#81);
#80 = CARTESIAN_POINT('',(19.040382165605,1.461834344089,3.431595971335)
  );
#81 = VECTOR('',#82,1.);
#82 = DIRECTION('',(0.,0.342020143326,0.939692620786));
#83 = PLANE('',#84);
#84 = AXIS2_PLACEMENT_3D('',#85,#86,#87);
#85 = CARTESIAN_POINT('',(19.040382165605,1.461834344089,3.431595971335)
  );
#86 = DIRECTION('',(-1.,0.,0.));
#87 = DIRECTION('',(0.,0.342020143326,0.939692620786));
#88 = ADVANCED_FACE('',(#89),#114,.T.);
#89 = FACE_BOUND('',#90,.T.);
#90 = EDGE_LOOP('',(#91,#92,#100,#108));
#91 = ORIENTED_EDGE('',*,*,#70,.T.);
#92 = ORIENTED_EDGE('',*,*,#93,.T.);
#93 = EDGE_CURVE('',#63,#94,#96,.T.);
#94 = VERTEX_POINT('',#95);
#95 = CARTESIAN_POINT('',(17.653121019108,1.819881150746,6.754365007863)
  );
#96 = B_SPLINE_CURVE_WITH_KNOTS('',2,(#97,#98,#99),.UNSPECIFIED.,.F.,.F.
  ,(3,3),(0.,1.),.PIECEWISE_BEZIER_KNOTS.);
#97 = CARTESIAN_POINT('',(19.040382165605,2.099422709928,7.522399129514)
  );
#98 = CARTESIAN_POINT('',(18.451847133758,1.910418457476,7.003114213722)
  );
#99 = CARTESIAN_POINT('',(17.653121019108,1.819881150746,6.754365007863)
  );
#100 = ORIENTED_EDGE('',*,*,#101,.F.);
#101 = EDGE_CURVE('',#102,#94,#104,.T.);
#102 = VERTEX_POINT('',#103);
#103 = CARTESIAN_POINT('',(17.653121019108,2.571635247374,6.480748893202
    ));
#104 = LINE('',#105,#106);
#105 = CARTESIAN_POINT('',(17.653121019108,2.571635247374,6.480748893202
    ));
#106 = VECTOR('',#107,1.);
#107 = DIRECTION('',(0.,-0.939692620786,0.342020143326));
#108 = ORIENTED_EDGE('',*,*,#109,.F.);
#109 = EDGE_CURVE('',#71,#102,#110,.T.);
#110 = B_SPLINE_CURVE_WITH_KNOTS('',2,(#111,#112,#113),.UNSPECIFIED.,.F.
  ,.F.,(3,3),(0.,1.),.PIECEWISE_BEZIER_KNOTS.);
#111 = CARTESIAN_POINT('',(19.040382165605,2.851176806556,7.248783014853
    ));
#112 = CARTESIAN_POINT('',(18.451847133758,2.662172554104,6.729498099061
    ));
#113 = CARTESIAN_POINT('',(17.653121019108,2.571635247374,6.480748893202
    ));
#114 = SURFACE_OF_LINEAR_EXTRUSION('',#115,#119);
#115 = B_SPLINE_CURVE_WITH_KNOTS('',2,(#116,#117,#118),.UNSPECIFIED.,.F.
  ,.F.,(3,3),(0.,1.),.PIECEWISE_BEZIER_KNOTS.);
#116 = CARTESIAN_POINT('',(19.040382165605,2.851176806556,7.248783014853
    ));
#117 = CARTESIAN_POINT('',(18.451847133758,2.662172554104,6.729498099061
    ));
#118 = CARTESIAN_POINT('',(17.653121019108,2.571635247374,6.480748893202
    ));
#119 = VECTOR('',#120,1.);
#120 = DIRECTION('',(-0.,0.939692620786,-0.342020143326));
#121 = ADVANCED_FACE('',(#122),#147,.T.);
#122 = FACE_BOUND('',#123,.T.);
#123 = EDGE_LOOP('',(#124,#125,#133,#141));
#124 = ORIENTED_EDGE('',*,*,#101,.T.);
#125 = ORIENTED_EDGE('',*,*,#126,.T.);
#126 = EDGE_CURVE('',#94,#127,#129,.T.);
#127 = VERTEX_POINT('',#128);
#128 = CARTESIAN_POINT('',(17.653121019108,2.15449448842,7.67370759737)
  );
#129 = LINE('',#130,#131);
#130 = CARTESIAN_POINT('',(17.653121019108,1.819881150746,6.754365007863
    ));
#131 = VECTOR('',#132,1.);
#132 = DIRECTION('',(0.,0.342020143326,0.939692620786));
#133 = ORIENTED_EDGE('',*,*,#134,.F.);
#134 = EDGE_CURVE('',#135,#127,#137,.T.);
#135 = VERTEX_POINT('',#136);
#136 = CARTESIAN_POINT('',(17.653121019108,2.906248585048,7.40009148271)
  );
#137 = LINE('',#138,#139);
#138 = CARTESIAN_POINT('',(17.653121019108,2.906248585048,7.40009148271)
  );
#139 = VECTOR('',#140,1.);
#140 = DIRECTION('',(0.,-0.939692620786,0.342020143326));
#141 = ORIENTED_EDGE('',*,*,#142,.F.);
#142 = EDGE_CURVE('',#102,#135,#143,.T.);
#143 = LINE('',#144,#145);
#144 = CARTESIAN_POINT('',(17.653121019108,2.571635247374,6.480748893202
    ));
#145 = VECTOR('',#146,1.);
#146 = DIRECTION('',(0.,0.342020143326,0.939692620786));
#147 = PLANE('',#148);
#148 = AXIS2_PLACEMENT_3D('',#149,#150,#151);
#149 = CARTESIAN_POINT('',(17.653121019108,2.571635247374,6.480748893202
    ));
#150 = DIRECTION('',(-1.,0.,0.));
#151 = DIRECTION('',(0.,0.342020143326,0.939692620786));
#152 = ADVANCED_FACE('',(#153),#178,.T.);
#153 = FACE_BOUND('',#154,.T.);
#154 = EDGE_LOOP('',(#155,#156,#164,#172));
#155 = ORIENTED_EDGE('',*,*,#134,.T.);
#156 = ORIENTED_EDGE('',*,*,#157,.T.);
#157 = EDGE_CURVE('',#127,#158,#160,.T.);
#158 = VERTEX_POINT('',#159);
#159 = CARTESIAN_POINT('',(18.566496815287,2.332954935179,8.164023645108
    ));
#160 = B_SPLINE_CURVE_WITH_KNOTS('',2,(#161,#162,#163),.UNSPECIFIED.,.F.
  ,.F.,(3,3),(0.,1.),.PIECEWISE_BEZIER_KNOTS.);
#161 = CARTESIAN_POINT('',(17.653121019108,2.15449448842,7.67370759737)
  );
#162 = CARTESIAN_POINT('',(18.073503184713,2.20154948903,7.80299014902)
  );
#163 = CARTESIAN_POINT('',(18.566496815287,2.332954935179,8.164023645108
    ));
#164 = ORIENTED_EDGE('',*,*,#165,.F.);
#165 = EDGE_CURVE('',#166,#158,#168,.T.);
#166 = VERTEX_POINT('',#167);
#167 = CARTESIAN_POINT('',(18.566496815287,3.084709031808,7.890407530447
    ));
#168 = LINE('',#169,#170);
#169 = CARTESIAN_POINT('',(18.566496815287,3.084709031808,7.890407530447
    ));
#170 = VECTOR('',#171,1.);
#171 = DIRECTION('',(0.,-0.939692620786,0.342020143326));
#172 = ORIENTED_EDGE('',*,*,#173,.F.);
#173 = EDGE_CURVE('',#135,#166,#174,.T.);
#174 = B_SPLINE_CURVE_WITH_KNOTS('',2,(#175,#176,#177),.UNSPECIFIED.,.F.
  ,.F.,(3,3),(0.,1.),.PIECEWISE_BEZIER_KNOTS.);
#175 = CARTESIAN_POINT('',(17.653121019108,2.906248585048,7.40009148271)
  );
#176 = CARTESIAN_POINT('',(18.073503184713,2.953303585659,7.529374034359
    ));
#177 = CARTESIAN_POINT('',(18.566496815287,3.084709031808,7.890407530447
    ));
#178 = SURFACE_OF_LINEAR_EXTRUSION('',#179,#183);
#179 = B_SPLINE_CURVE_WITH_KNOTS('',2,(#180,#181,#182),.UNSPECIFIED.,.F.
  ,.F.,(3,3),(0.,1.),.PIECEWISE_BEZIER_KNOTS.);
#180 = CARTESIAN_POINT('',(17.653121019108,2.906248585048,7.40009148271)
  );
#181 = CARTESIAN_POINT('',(18.073503184713,2.953303585659,7.529374034359
    ));
#182 = CARTESIAN_POINT('',(18.566496815287,3.084709031808,7.890407530447
    ));
#183 = VECTOR('',#184,1.);
#184 = DIRECTION('',(-0.,0.939692620786,-0.342020143326));
#185 = ADVANCED_FACE('',(#186),#211,.T.);
#186 = FACE_BOUND('',#187,.T.);
#187 = EDGE_LOOP('',(#188,#189,#197,#205));
#188 = ORIENTED_EDGE('',*,*,#165,.T.);
#189 = ORIENTED_EDGE('',*,*,#190,.T.);
#190 = EDGE_CURVE('',#158,#191,#193,.T.);
#191 = VERTEX_POINT('',#192);
#192 = CARTESIAN_POINT('',(19.242929936306,2.639683828047,9.006754352157
    ));
#193 = B_SPLINE_CURVE_WITH_KNOTS('',2,(#194,#195,#196),.UNSPECIFIED.,.F.
  ,.F.,(3,3),(0.,1.),.PIECEWISE_BEZIER_KNOTS.);
#194 = CARTESIAN_POINT('',(18.566496815287,2.332954935179,8.164023645108
    ));
#195 = CARTESIAN_POINT('',(19.05949044586,2.464447520218,8.525296553329)
  );
#196 = CARTESIAN_POINT('',(19.242929936306,2.639683828047,9.006754352157
    ));
#197 = ORIENTED_EDGE('',*,*,#198,.F.);
#198 = EDGE_CURVE('',#199,#191,#201,.T.);
#199 = VERTEX_POINT('',#200);
#200 = CARTESIAN_POINT('',(19.242929936306,3.391437924676,8.733138237496
    ));
#201 = LINE('',#202,#203);
#202 = CARTESIAN_POINT('',(19.242929936306,3.391437924676,8.733138237496
    ));
#203 = VECTOR('',#204,1.);
#204 = DIRECTION('',(0.,-0.939692620786,0.342020143326));
#205 = ORIENTED_EDGE('',*,*,#206,.F.);
#206 = EDGE_CURVE('',#166,#199,#207,.T.);
#207 = B_SPLINE_CURVE_WITH_KNOTS('',2,(#208,#209,#210),.UNSPECIFIED.,.F.
  ,.F.,(3,3),(0.,1.),.PIECEWISE_BEZIER_KNOTS.);
#208 = CARTESIAN_POINT('',(18.566496815287,3.084709031808,7.890407530447
    ));
#209 = CARTESIAN_POINT('',(19.05949044586,3.216201616847,8.251680438668)
  );
#210 = CARTESIAN_POINT('',(19.242929936306,3.391437924676,8.733138237496
    ));
#211 = SURFACE_OF_LINEAR_EXTRUSION('',#212,#216);
#212 = B_SPLINE_CURVE_WITH_KNOTS('',2,(#213,#214,#215),.UNSPECIFIED.,.F.
  ,.F.,(3,3),(0.,1.),.PIECEWISE_BEZIER_KNOTS.);
#213 = CARTESIAN_POINT('',(18.566496815287,3.084709031808,7.890407530447
    ));
#214 = CARTESIAN_POINT('',(19.05949044586,3.216201616847,8.251680438668)
  );
#215 = CARTESIAN_POINT('',(19.242929936306,3.391437924676,8.733138237496
    ));
#216 = VECTOR('',#217,1.);
#217 = DIRECTION('',(-0.,0.939692620786,-0.342020143326));
#218 = ADVANCED_FACE('',(#219),#244,.T.);
#219 = FACE_BOUND('',#220,.T.);
#220 = EDGE_LOOP('',(#221,#222,#230,#238));
#221 = ORIENTED_EDGE('',*,*,#198,.T.);
#222 = ORIENTED_EDGE('',*,*,#223,.T.);
#223 = EDGE_CURVE('',#191,#224,#226,.T.);
#224 = VERTEX_POINT('',#225);
#225 = CARTESIAN_POINT('',(20.114267515924,2.639683828047,9.006754352157
    ));
#226 = LINE('',#227,#228);
#227 = CARTESIAN_POINT('',(19.242929936306,2.639683828047,9.006754352157
    ));
#228 = VECTOR('',#229,1.);
#229 = DIRECTION('',(1.,0.,0.));
#230 = ORIENTED_EDGE('',*,*,#231,.F.);
#231 = EDGE_CURVE('',#232,#224,#234,.T.);
#232 = VERTEX_POINT('',#233);
#233 = CARTESIAN_POINT('',(20.114267515924,3.391437924676,8.733138237496
    ));
#234 = LINE('',#235,#236);
#235 = CARTESIAN_POINT('',(20.114267515924,3.391437924676,8.733138237496
    ));
#236 = VECTOR('',#237,1.);
#237 = DIRECTION('',(0.,-0.939692620786,0.342020143326));
#238 = ORIENTED_EDGE('',*,*,#239,.F.);
#239 = EDGE_CURVE('',#199,#232,#240,.T.);
#240 = LINE('',#241,#242);
#241 = CARTESIAN_POINT('',(19.242929936306,3.391437924676,8.733138237496
    ));
#242 = VECTOR('',#243,1.);
#243 = DIRECTION('',(1.,0.,0.));
#244 = PLANE('',#245);
#245 = AXIS2_PLACEMENT_3D('',#246,#247,#248);
#246 = CARTESIAN_POINT('',(19.242929936306,3.391437924676,8.733138237496
    ));
#247 = DIRECTION('',(0.,0.342020143326,0.939692620786));
#248 = DIRECTION('',(1.,0.,0.));
#249 = ADVANCED_FACE('',(#250),#266,.T.);
#250 = FACE_BOUND('',#251,.T.);
#251 = EDGE_LOOP('',(#252,#253,#259,#260));
#252 = ORIENTED_EDGE('',*,*,#231,.T.);
#253 = ORIENTED_EDGE('',*,*,#254,.T.);
#254 = EDGE_CURVE('',#224,#24,#255,.T.);
#255 = LINE('',#256,#257);
#256 = CARTESIAN_POINT('',(20.114267515924,2.639683828047,9.006754352157
    ));
#257 = VECTOR('',#258,1.);
#258 = DIRECTION('',(0.,-0.342020143326,-0.939692620786));
#259 = ORIENTED_EDGE('',*,*,#21,.F.);
#260 = ORIENTED_EDGE('',*,*,#261,.F.);
#261 = EDGE_CURVE('',#232,#22,#262,.T.);
#262 = LINE('',#263,#264);
#263 = CARTESIAN_POINT('',(20.114267515924,3.391437924676,8.733138237496
    ));
#264 = VECTOR('',#265,1.);
#265 = DIRECTION('',(0.,-0.342020143326,-0.939692620786));
#266 = PLANE('',#267);
#267 = AXIS2_PLACEMENT_3D('',#268,#269,#270);
#268 = CARTESIAN_POINT('',(20.114267515924,3.391437924676,8.733138237496
    ));
#269 = DIRECTION('',(1.,0.,0.));
#270 = DIRECTION('',(0.,-0.342020143326,-0.939692620786));
#271 = ADVANCED_FACE('',(#272),#282,.F.);
#272 = FACE_BOUND('',#273,.T.);
#273 = EDGE_LOOP('',(#274,#275,#276,#277,#278,#279,#280,#281));
#274 = ORIENTED_EDGE('',*,*,#47,.T.);
#275 = ORIENTED_EDGE('',*,*,#78,.T.);
#276 = ORIENTED_EDGE('',*,*,#109,.T.);
#277 = ORIENTED_EDGE('',*,*,#142,.T.);
#278 = ORIENTED_EDGE('',*,*,#173,.T.);
#279 = ORIENTED_EDGE('',*,*,#206,.T.);
#280 = ORIENTED_EDGE('',*,*,#239,.T.);
#281 = ORIENTED_EDGE('',*,*,#261,.T.);
#282 = PLANE('',#283);
#283 = AXIS2_PLACEMENT_3D('',#284,#285,#286);
#284 = CARTESIAN_POINT('',(19.26297866789,2.484916324519,6.242490610816)
  );
#285 = DIRECTION('',(0.,-0.939692620786,0.342020143326));
#286 = DIRECTION('',(1.,0.,0.));
#287 = ADVANCED_FACE('',(#288),#298,.T.);
#288 = FACE_BOUND('',#289,.F.);
#289 = EDGE_LOOP('',(#290,#291,#292,#293,#294,#295,#296,#297));
#290 = ORIENTED_EDGE('',*,*,#31,.T.);
#291 = ORIENTED_EDGE('',*,*,#62,.T.);
#292 = ORIENTED_EDGE('',*,*,#93,.T.);
#293 = ORIENTED_EDGE('',*,*,#126,.T.);
#294 = ORIENTED_EDGE('',*,*,#157,.T.);
#295 = ORIENTED_EDGE('',*,*,#190,.T.);
#296 = ORIENTED_EDGE('',*,*,#223,.T.);
#297 = ORIENTED_EDGE('',*,*,#254,.T.);
#298 = PLANE('',#299);
#299 = AXIS2_PLACEMENT_3D('',#300,#301,#302);
#300 = CARTESIAN_POINT('',(19.26297866789,1.73316222789,6.516106725477)
  );
#301 = DIRECTION('',(0.,-0.939692620786,0.342020143326));
#302 = DIRECTION('',(1.,0.,0.));
#303 = MANIFOLD_SOLID_BREP('',#304);
#304 = CLOSED_SHELL('',(#305,#345,#376,#409,#442,#475,#508,#541,#574,
    #607,#640,#671,#704,#737,#770,#803,#836,#869,#902,#935,#968,#990,
    #1019));
#305 = ADVANCED_FACE('',(#306),#340,.T.);
#306 = FACE_BOUND('',#307,.T.);
#307 = EDGE_LOOP('',(#308,#318,#326,#334));
#308 = ORIENTED_EDGE('',*,*,#309,.T.);
#309 = EDGE_CURVE('',#310,#312,#314,.T.);
#310 = VERTEX_POINT('',#311);
#311 = CARTESIAN_POINT('',(25.346878980892,1.802024570724,4.366260937334
    ));
#312 = VERTEX_POINT('',#313);
#313 = CARTESIAN_POINT('',(25.346878980892,1.050270474095,4.639877051995
    ));
#314 = LINE('',#315,#316);
#315 = CARTESIAN_POINT('',(25.346878980892,1.802024570724,4.366260937334
    ));
#316 = VECTOR('',#317,1.);
#317 = DIRECTION('',(0.,-0.939692620786,0.342020143326));
#318 = ORIENTED_EDGE('',*,*,#319,.T.);
#319 = EDGE_CURVE('',#312,#320,#322,.T.);
#320 = VERTEX_POINT('',#321);
#321 = CARTESIAN_POINT('',(25.346878980892,0.71008024746,3.705212085995)
  );
#322 = LINE('',#323,#324);
#323 = CARTESIAN_POINT('',(25.346878980892,1.050270474095,4.639877051995
    ));
#324 = VECTOR('',#325,1.);
#325 = DIRECTION('',(0.,-0.342020143326,-0.939692620786));
#326 = ORIENTED_EDGE('',*,*,#327,.F.);
#327 = EDGE_CURVE('',#328,#320,#330,.T.);
#328 = VERTEX_POINT('',#329);
#329 = CARTESIAN_POINT('',(25.346878980892,1.461834344089,3.431595971335
    ));
#330 = LINE('',#331,#332);
#331 = CARTESIAN_POINT('',(25.346878980892,1.461834344089,3.431595971335
    ));
#332 = VECTOR('',#333,1.);
#333 = DIRECTION('',(0.,-0.939692620786,0.342020143326));
#334 = ORIENTED_EDGE('',*,*,#335,.F.);
#335 = EDGE_CURVE('',#310,#328,#336,.T.);
#336 = LINE('',#337,#338);
#337 = CARTESIAN_POINT('',(25.346878980892,1.802024570724,4.366260937334
    ));
#338 = VECTOR('',#339,1.);
#339 = DIRECTION('',(0.,-0.342020143326,-0.939692620786));
#340 = PLANE('',#341);
#341 = AXIS2_PLACEMENT_3D('',#342,#343,#344);
#342 = CARTESIAN_POINT('',(25.346878980892,1.802024570724,4.366260937334
    ));
#343 = DIRECTION('',(1.,0.,0.));
#344 = DIRECTION('',(0.,-0.342020143326,-0.939692620786));
#345 = ADVANCED_FACE('',(#346),#371,.T.);
#346 = FACE_BOUND('',#347,.T.);
#347 = EDGE_LOOP('',(#348,#349,#357,#365));
#348 = ORIENTED_EDGE('',*,*,#327,.T.);
#349 = ORIENTED_EDGE('',*,*,#350,.T.);
#350 = EDGE_CURVE('',#320,#351,#353,.T.);
#351 = VERTEX_POINT('',#352);
#352 = CARTESIAN_POINT('',(21.582547770701,0.71008024746,3.705212085995)
  );
#353 = LINE('',#354,#355);
#354 = CARTESIAN_POINT('',(25.346878980892,0.71008024746,3.705212085995)
  );
#355 = VECTOR('',#356,1.);
#356 = DIRECTION('',(-1.,0.,0.));
#357 = ORIENTED_EDGE('',*,*,#358,.F.);
#358 = EDGE_CURVE('',#359,#351,#361,.T.);
#359 = VERTEX_POINT('',#360);
#360 = CARTESIAN_POINT('',(21.582547770701,1.461834344089,3.431595971335
    ));
#361 = LINE('',#362,#363);
#362 = CARTESIAN_POINT('',(21.582547770701,1.461834344089,3.431595971335
    ));
#363 = VECTOR('',#364,1.);
#364 = DIRECTION('',(0.,-0.939692620786,0.342020143326));
#365 = ORIENTED_EDGE('',*,*,#366,.F.);
#366 = EDGE_CURVE('',#328,#359,#367,.T.);
#367 = LINE('',#368,#369);
#368 = CARTESIAN_POINT('',(25.346878980892,1.461834344089,3.431595971335
    ));
#369 = VECTOR('',#370,1.);
#370 = DIRECTION('',(-1.,0.,0.));
#371 = PLANE('',#372);
#372 = AXIS2_PLACEMENT_3D('',#373,#374,#375);
#373 = CARTESIAN_POINT('',(25.346878980892,1.461834344089,3.431595971335
    ));
#374 = DIRECTION('',(0.,-0.342020143326,-0.939692620786));
#375 = DIRECTION('',(-1.,0.,0.));
#376 = ADVANCED_FACE('',(#377),#402,.T.);
#377 = FACE_BOUND('',#378,.T.);
#378 = EDGE_LOOP('',(#379,#380,#388,#396));
#379 = ORIENTED_EDGE('',*,*,#358,.T.);
#380 = ORIENTED_EDGE('',*,*,#381,.T.);
#381 = EDGE_CURVE('',#351,#382,#384,.T.);
#382 = VERTEX_POINT('',#383);
#383 = CARTESIAN_POINT('',(21.949426751592,1.077457807781,4.714573637392
    ));
#384 = B_SPLINE_CURVE_WITH_KNOTS('',2,(#385,#386,#387),.UNSPECIFIED.,.F.
  ,.F.,(3,3),(0.,1.),.PIECEWISE_BEZIER_KNOTS.);
#385 = CARTESIAN_POINT('',(21.582547770701,0.71008024746,3.705212085995)
  );
#386 = CARTESIAN_POINT('',(21.643694267516,0.903964277753,4.237904081218
    ));
#387 = CARTESIAN_POINT('',(21.949426751592,1.077457807781,4.714573637392
    ));
#388 = ORIENTED_EDGE('',*,*,#389,.F.);
#389 = EDGE_CURVE('',#390,#382,#392,.T.);
#390 = VERTEX_POINT('',#391);
#391 = CARTESIAN_POINT('',(21.949426751592,1.82921190441,4.440957522732)
  );
#392 = LINE('',#393,#394);
#393 = CARTESIAN_POINT('',(21.949426751592,1.82921190441,4.440957522732)
  );
#394 = VECTOR('',#395,1.);
#395 = DIRECTION('',(0.,-0.939692620786,0.342020143326));
#396 = ORIENTED_EDGE('',*,*,#397,.F.);
#397 = EDGE_CURVE('',#359,#390,#398,.T.);
#398 = B_SPLINE_CURVE_WITH_KNOTS('',2,(#399,#400,#401),.UNSPECIFIED.,.F.
  ,.F.,(3,3),(0.,1.),.PIECEWISE_BEZIER_KNOTS.);
#399 = CARTESIAN_POINT('',(21.582547770701,1.461834344089,3.431595971335
    ));
#400 = CARTESIAN_POINT('',(21.643694267516,1.655718374382,3.964287966557
    ));
#401 = CARTESIAN_POINT('',(21.949426751592,1.82921190441,4.440957522732)
  );
#402 = SURFACE_OF_LINEAR_EXTRUSION('',#403,#407);
#403 = B_SPLINE_CURVE_WITH_KNOTS('',2,(#404,#405,#406),.UNSPECIFIED.,.F.
  ,.F.,(3,3),(0.,1.),.PIECEWISE_BEZIER_KNOTS.);
#404 = CARTESIAN_POINT('',(21.582547770701,1.461834344089,3.431595971335
    ));
#405 = CARTESIAN_POINT('',(21.643694267516,1.655718374382,3.964287966557
    ));
#406 = CARTESIAN_POINT('',(21.949426751592,1.82921190441,4.440957522732)
  );
#407 = VECTOR('',#408,1.);
#408 = DIRECTION('',(-0.,0.939692620786,-0.342020143326));
#409 = ADVANCED_FACE('',(#410),#435,.T.);
#410 = FACE_BOUND('',#411,.T.);
#411 = EDGE_LOOP('',(#412,#413,#421,#429));
#412 = ORIENTED_EDGE('',*,*,#389,.T.);
#413 = ORIENTED_EDGE('',*,*,#414,.T.);
#414 = EDGE_CURVE('',#382,#415,#417,.T.);
#415 = VERTEX_POINT('',#416);
#416 = CARTESIAN_POINT('',(23.157070063694,1.537899702643,5.979627346496
    ));
#417 = B_SPLINE_CURVE_WITH_KNOTS('',2,(#418,#419,#420),.UNSPECIFIED.,.F.
  ,.F.,(3,3),(0.,1.),.PIECEWISE_BEZIER_KNOTS.);
#418 = CARTESIAN_POINT('',(21.949426751592,1.077457807781,4.714573637392
    ));
#419 = CARTESIAN_POINT('',(22.255159235669,1.2510384767,5.1914826057));
#420 = CARTESIAN_POINT('',(23.157070063694,1.537899702643,5.979627346496
    ));
#421 = ORIENTED_EDGE('',*,*,#422,.F.);
#422 = EDGE_CURVE('',#423,#415,#425,.T.);
#423 = VERTEX_POINT('',#424);
#424 = CARTESIAN_POINT('',(23.157070063694,2.289653799272,5.706011231836
    ));
#425 = LINE('',#426,#427);
#426 = CARTESIAN_POINT('',(23.157070063694,2.289653799272,5.706011231836
    ));
#427 = VECTOR('',#428,1.);
#428 = DIRECTION('',(0.,-0.939692620786,0.342020143326));
#429 = ORIENTED_EDGE('',*,*,#430,.F.);
#430 = EDGE_CURVE('',#390,#423,#431,.T.);
#431 = B_SPLINE_CURVE_WITH_KNOTS('',2,(#432,#433,#434),.UNSPECIFIED.,.F.
  ,.F.,(3,3),(0.,1.),.PIECEWISE_BEZIER_KNOTS.);
#432 = CARTESIAN_POINT('',(21.949426751592,1.82921190441,4.440957522732)
  );
#433 = CARTESIAN_POINT('',(22.255159235669,2.002792573329,4.917866491039
    ));
#434 = CARTESIAN_POINT('',(23.157070063694,2.289653799272,5.706011231836
    ));
#435 = SURFACE_OF_LINEAR_EXTRUSION('',#436,#440);
#436 = B_SPLINE_CURVE_WITH_KNOTS('',2,(#437,#438,#439),.UNSPECIFIED.,.F.
  ,.F.,(3,3),(0.,1.),.PIECEWISE_BEZIER_KNOTS.);
#437 = CARTESIAN_POINT('',(21.949426751592,1.82921190441,4.440957522732)
  );
#438 = CARTESIAN_POINT('',(22.255159235669,2.002792573329,4.917866491039
    ));
#439 = CARTESIAN_POINT('',(23.157070063694,2.289653799272,5.706011231836
    ));
#440 = VECTOR('',#441,1.);
#441 = DIRECTION('',(-0.,0.939692620786,-0.342020143326));
#442 = ADVANCED_FACE('',(#443),#468,.T.);
#443 = FACE_BOUND('',#444,.T.);
#444 = EDGE_LOOP('',(#445,#446,#454,#462));
#445 = ORIENTED_EDGE('',*,*,#422,.T.);
#446 = ORIENTED_EDGE('',*,*,#447,.T.);
#447 = EDGE_CURVE('',#415,#448,#450,.T.);
#448 = VERTEX_POINT('',#449);
#449 = CARTESIAN_POINT('',(24.047515923567,1.852209678943,6.843186909089
    ));
#450 = B_SPLINE_CURVE_WITH_KNOTS('',2,(#451,#452,#453),.UNSPECIFIED.,.F.
  ,.F.,(3,3),(0.,1.),.PIECEWISE_BEZIER_KNOTS.);
#451 = CARTESIAN_POINT('',(23.157070063694,1.537899702643,5.979627346496
    ));
#452 = CARTESIAN_POINT('',(23.883184713376,1.769689150095,6.616463619437
    ));
#453 = CARTESIAN_POINT('',(24.047515923567,1.852209678943,6.843186909089
    ));
#454 = ORIENTED_EDGE('',*,*,#455,.F.);
#455 = EDGE_CURVE('',#456,#448,#458,.T.);
#456 = VERTEX_POINT('',#457);
#457 = CARTESIAN_POINT('',(24.047515923567,2.603963775572,6.569570794428
    ));
#458 = LINE('',#459,#460);
#459 = CARTESIAN_POINT('',(24.047515923567,2.603963775572,6.569570794428
    ));
#460 = VECTOR('',#461,1.);
#461 = DIRECTION('',(0.,-0.939692620786,0.342020143326));
#462 = ORIENTED_EDGE('',*,*,#463,.F.);
#463 = EDGE_CURVE('',#423,#456,#464,.T.);
#464 = B_SPLINE_CURVE_WITH_KNOTS('',2,(#465,#466,#467),.UNSPECIFIED.,.F.
  ,.F.,(3,3),(0.,1.),.PIECEWISE_BEZIER_KNOTS.);
#465 = CARTESIAN_POINT('',(23.157070063694,2.289653799272,5.706011231836
    ));
#466 = CARTESIAN_POINT('',(23.883184713376,2.521443246723,6.342847504776
    ));
#467 = CARTESIAN_POINT('',(24.047515923567,2.603963775572,6.569570794428
    ));
#468 = SURFACE_OF_LINEAR_EXTRUSION('',#469,#473);
#469 = B_SPLINE_CURVE_WITH_KNOTS('',2,(#470,#471,#472),.UNSPECIFIED.,.F.
  ,.F.,(3,3),(0.,1.),.PIECEWISE_BEZIER_KNOTS.);
#470 = CARTESIAN_POINT('',(23.157070063694,2.289653799272,5.706011231836
    ));
#471 = CARTESIAN_POINT('',(23.883184713376,2.521443246723,6.342847504776
    ));
#472 = CARTESIAN_POINT('',(24.047515923567,2.603963775572,6.569570794428
    ));
#473 = VECTOR('',#474,1.);
#474 = DIRECTION('',(-0.,0.939692620786,-0.342020143326));
#475 = ADVANCED_FACE('',(#476),#501,.T.);
#476 = FACE_BOUND('',#477,.T.);
#477 = EDGE_LOOP('',(#478,#479,#487,#495));
#478 = ORIENTED_EDGE('',*,*,#455,.T.);
#479 = ORIENTED_EDGE('',*,*,#480,.T.);
#480 = EDGE_CURVE('',#448,#481,#483,.T.);
#481 = VERTEX_POINT('',#482);
#482 = CARTESIAN_POINT('',(24.269171974522,2.077550848533,7.46230668421)
  );
#483 = B_SPLINE_CURVE_WITH_KNOTS('',2,(#484,#485,#486),.UNSPECIFIED.,.F.
  ,.F.,(3,3),(0.,1.),.PIECEWISE_BEZIER_KNOTS.);
#484 = CARTESIAN_POINT('',(24.047515923567,1.852209678943,6.843186909089
    ));
#485 = CARTESIAN_POINT('',(24.269171974522,1.966187347088,7.15633797864)
  );
#486 = CARTESIAN_POINT('',(24.269171974522,2.077550848533,7.46230668421)
  );
#487 = ORIENTED_EDGE('',*,*,#488,.F.);
#488 = EDGE_CURVE('',#489,#481,#491,.T.);
#489 = VERTEX_POINT('',#490);
#490 = CARTESIAN_POINT('',(24.269171974522,2.829304945161,7.18869056955)
  );
#491 = LINE('',#492,#493);
#492 = CARTESIAN_POINT('',(24.269171974522,2.829304945161,7.18869056955)
  );
#493 = VECTOR('',#494,1.);
#494 = DIRECTION('',(0.,-0.939692620786,0.342020143326));
#495 = ORIENTED_EDGE('',*,*,#496,.F.);
#496 = EDGE_CURVE('',#456,#489,#497,.T.);
#497 = B_SPLINE_CURVE_WITH_KNOTS('',2,(#498,#499,#500),.UNSPECIFIED.,.F.
  ,.F.,(3,3),(0.,1.),.PIECEWISE_BEZIER_KNOTS.);
#498 = CARTESIAN_POINT('',(24.047515923567,2.603963775572,6.569570794428
    ));
#499 = CARTESIAN_POINT('',(24.269171974522,2.717941443717,6.882721863979
    ));
#500 = CARTESIAN_POINT('',(24.269171974522,2.829304945161,7.18869056955)
  );
#501 = SURFACE_OF_LINEAR_EXTRUSION('',#502,#506);
#502 = B_SPLINE_CURVE_WITH_KNOTS('',2,(#503,#504,#505),.UNSPECIFIED.,.F.
  ,.F.,(3,3),(0.,1.),.PIECEWISE_BEZIER_KNOTS.);
#503 = CARTESIAN_POINT('',(24.047515923567,2.603963775572,6.569570794428
    ));
#504 = CARTESIAN_POINT('',(24.269171974522,2.717941443717,6.882721863979
    ));
#505 = CARTESIAN_POINT('',(24.269171974522,2.829304945161,7.18869056955)
  );
#506 = VECTOR('',#507,1.);
#507 = DIRECTION('',(-0.,0.939692620786,-0.342020143326));
#508 = ADVANCED_FACE('',(#509),#534,.T.);
#509 = FACE_BOUND('',#510,.T.);
#510 = EDGE_LOOP('',(#511,#512,#520,#528));
#511 = ORIENTED_EDGE('',*,*,#488,.T.);
#512 = ORIENTED_EDGE('',*,*,#513,.T.);
#513 = EDGE_CURVE('',#481,#514,#516,.T.);
#514 = VERTEX_POINT('',#515);
#515 = CARTESIAN_POINT('',(24.076050955414,2.266816517655,7.982309836401
    ));
#516 = B_SPLINE_CURVE_WITH_KNOTS('',2,(#517,#518,#519),.UNSPECIFIED.,.F.
  ,.F.,(3,3),(0.,1.),.PIECEWISE_BEZIER_KNOTS.);
#517 = CARTESIAN_POINT('',(24.269171974522,2.077550848533,7.46230668421)
  );
#518 = CARTESIAN_POINT('',(24.269171974522,2.20067810013,7.800596027693)
  );
#519 = CARTESIAN_POINT('',(24.076050955414,2.266816517655,7.982309836401
    ));
#520 = ORIENTED_EDGE('',*,*,#521,.F.);
#521 = EDGE_CURVE('',#522,#514,#524,.T.);
#522 = VERTEX_POINT('',#523);
#523 = CARTESIAN_POINT('',(24.076050955414,3.018570614283,7.70869372174)
  );
#524 = LINE('',#525,#526);
#525 = CARTESIAN_POINT('',(24.076050955414,3.018570614283,7.70869372174)
  );
#526 = VECTOR('',#527,1.);
#527 = DIRECTION('',(0.,-0.939692620786,0.342020143326));
#528 = ORIENTED_EDGE('',*,*,#529,.F.);
#529 = EDGE_CURVE('',#489,#522,#530,.T.);
#530 = B_SPLINE_CURVE_WITH_KNOTS('',2,(#531,#532,#533),.UNSPECIFIED.,.F.
  ,.F.,(3,3),(0.,1.),.PIECEWISE_BEZIER_KNOTS.);
#531 = CARTESIAN_POINT('',(24.269171974522,2.829304945161,7.18869056955)
  );
#532 = CARTESIAN_POINT('',(24.269171974522,2.952432196759,7.526979913033
    ));
#533 = CARTESIAN_POINT('',(24.076050955414,3.018570614283,7.70869372174)
  );
#534 = SURFACE_OF_LINEAR_EXTRUSION('',#535,#539);
#535 = B_SPLINE_CURVE_WITH_KNOTS('',2,(#536,#537,#538),.UNSPECIFIED.,.F.
  ,.F.,(3,3),(0.,1.),.PIECEWISE_BEZIER_KNOTS.);
#536 = CARTESIAN_POINT('',(24.269171974522,2.829304945161,7.18869056955)
  );
#537 = CARTESIAN_POINT('',(24.269171974522,2.952432196759,7.526979913033
    ));
#538 = CARTESIAN_POINT('',(24.076050955414,3.018570614283,7.70869372174)
  );
#539 = VECTOR('',#540,1.);
#540 = DIRECTION('',(-0.,0.939692620786,-0.342020143326));
#541 = ADVANCED_FACE('',(#542),#567,.T.);
#542 = FACE_BOUND('',#543,.T.);
#543 = EDGE_LOOP('',(#544,#545,#553,#561));
#544 = ORIENTED_EDGE('',*,*,#521,.T.);
#545 = ORIENTED_EDGE('',*,*,#546,.T.);
#546 = EDGE_CURVE('',#514,#547,#549,.T.);
#547 = VERTEX_POINT('',#548);
#548 = CARTESIAN_POINT('',(23.543057324841,2.332954935179,8.164023645108
    ));
#549 = B_SPLINE_CURVE_WITH_KNOTS('',2,(#550,#551,#552),.UNSPECIFIED.,.F.
  ,.F.,(3,3),(0.,1.),.PIECEWISE_BEZIER_KNOTS.);
#550 = CARTESIAN_POINT('',(24.076050955414,2.266816517655,7.982309836401
    ));
#551 = CARTESIAN_POINT('',(23.883184713376,2.332954935179,8.164023645108
    ));
#552 = CARTESIAN_POINT('',(23.543057324841,2.332954935179,8.164023645108
    ));
#553 = ORIENTED_EDGE('',*,*,#554,.F.);
#554 = EDGE_CURVE('',#555,#547,#557,.T.);
#555 = VERTEX_POINT('',#556);
#556 = CARTESIAN_POINT('',(23.543057324841,3.084709031808,7.890407530447
    ));
#557 = LINE('',#558,#559);
#558 = CARTESIAN_POINT('',(23.543057324841,3.084709031808,7.890407530447
    ));
#559 = VECTOR('',#560,1.);
#560 = DIRECTION('',(0.,-0.939692620786,0.342020143326));
#561 = ORIENTED_EDGE('',*,*,#562,.F.);
#562 = EDGE_CURVE('',#522,#555,#563,.T.);
#563 = B_SPLINE_CURVE_WITH_KNOTS('',2,(#564,#565,#566),.UNSPECIFIED.,.F.
  ,.F.,(3,3),(0.,1.),.PIECEWISE_BEZIER_KNOTS.);
#564 = CARTESIAN_POINT('',(24.076050955414,3.018570614283,7.70869372174)
  );
#565 = CARTESIAN_POINT('',(23.883184713376,3.084709031808,7.890407530447
    ));
#566 = CARTESIAN_POINT('',(23.543057324841,3.084709031808,7.890407530447
    ));
#567 = SURFACE_OF_LINEAR_EXTRUSION('',#568,#572);
#568 = B_SPLINE_CURVE_WITH_KNOTS('',2,(#569,#570,#571),.UNSPECIFIED.,.F.
  ,.F.,(3,3),(0.,1.),.PIECEWISE_BEZIER_KNOTS.);
#569 = CARTESIAN_POINT('',(24.076050955414,3.018570614283,7.70869372174)
  );
#570 = CARTESIAN_POINT('',(23.883184713376,3.084709031808,7.890407530447
    ));
#571 = CARTESIAN_POINT('',(23.543057324841,3.084709031808,7.890407530447
    ));
#572 = VECTOR('',#573,1.);
#573 = DIRECTION('',(-0.,0.939692620786,-0.342020143326));
#574 = ADVANCED_FACE('',(#575),#600,.T.);
#575 = FACE_BOUND('',#576,.T.);
#576 = EDGE_LOOP('',(#577,#578,#586,#594));
#577 = ORIENTED_EDGE('',*,*,#554,.T.);
#578 = ORIENTED_EDGE('',*,*,#579,.T.);
#579 = EDGE_CURVE('',#547,#580,#582,.T.);
#580 = VERTEX_POINT('',#581);
#581 = CARTESIAN_POINT('',(23.008025477707,2.263243823164,7.972493938961
    ));
#582 = B_SPLINE_CURVE_WITH_KNOTS('',2,(#583,#584,#585),.UNSPECIFIED.,.F.
  ,.F.,(3,3),(0.,1.),.PIECEWISE_BEZIER_KNOTS.);
#583 = CARTESIAN_POINT('',(23.543057324841,2.332954935179,8.164023645108
    ));
#584 = CARTESIAN_POINT('',(23.206751592357,2.332954935179,8.164023645108
    ));
#585 = CARTESIAN_POINT('',(23.008025477707,2.263243823164,7.972493938961
    ));
#586 = ORIENTED_EDGE('',*,*,#587,.F.);
#587 = EDGE_CURVE('',#588,#580,#590,.T.);
#588 = VERTEX_POINT('',#589);
#589 = CARTESIAN_POINT('',(23.008025477707,3.014997919793,7.6988778243)
  );
#590 = LINE('',#591,#592);
#591 = CARTESIAN_POINT('',(23.008025477707,3.014997919793,7.6988778243)
  );
#592 = VECTOR('',#593,1.);
#593 = DIRECTION('',(0.,-0.939692620786,0.342020143326));
#594 = ORIENTED_EDGE('',*,*,#595,.F.);
#595 = EDGE_CURVE('',#555,#588,#596,.T.);
#596 = B_SPLINE_CURVE_WITH_KNOTS('',2,(#597,#598,#599),.UNSPECIFIED.,.F.
  ,.F.,(3,3),(0.,1.),.PIECEWISE_BEZIER_KNOTS.);
#597 = CARTESIAN_POINT('',(23.543057324841,3.084709031808,7.890407530447
    ));
#598 = CARTESIAN_POINT('',(23.206751592357,3.084709031808,7.890407530447
    ));
#599 = CARTESIAN_POINT('',(23.008025477707,3.014997919793,7.6988778243)
  );
#600 = SURFACE_OF_LINEAR_EXTRUSION('',#601,#605);
#601 = B_SPLINE_CURVE_WITH_KNOTS('',2,(#602,#603,#604),.UNSPECIFIED.,.F.
  ,.F.,(3,3),(0.,1.),.PIECEWISE_BEZIER_KNOTS.);
#602 = CARTESIAN_POINT('',(23.543057324841,3.084709031808,7.890407530447
    ));
#603 = CARTESIAN_POINT('',(23.206751592357,3.084709031808,7.890407530447
    ));
#604 = CARTESIAN_POINT('',(23.008025477707,3.014997919793,7.6988778243)
  );
#605 = VECTOR('',#606,1.);
#606 = DIRECTION('',(-0.,0.939692620786,-0.342020143326));
#607 = ADVANCED_FACE('',(#608),#633,.T.);
#608 = FACE_BOUND('',#609,.T.);
#609 = EDGE_LOOP('',(#610,#611,#619,#627));
#610 = ORIENTED_EDGE('',*,*,#587,.T.);
#611 = ORIENTED_EDGE('',*,*,#612,.T.);
#612 = EDGE_CURVE('',#580,#613,#615,.T.);
#613 = VERTEX_POINT('',#614);
#614 = CARTESIAN_POINT('',(22.77872611465,2.031802931273,7.336615314551)
  );
#615 = B_SPLINE_CURVE_WITH_KNOTS('',2,(#616,#617,#618),.UNSPECIFIED.,.F.
  ,.F.,(3,3),(0.,1.),.PIECEWISE_BEZIER_KNOTS.);
#616 = CARTESIAN_POINT('',(23.008025477707,2.263243823164,7.972493938961
    ));
#617 = CARTESIAN_POINT('',(22.809299363057,2.193532711148,7.780964232813
    ));
#618 = CARTESIAN_POINT('',(22.77872611465,2.031802931273,7.336615314551)
  );
#619 = ORIENTED_EDGE('',*,*,#620,.F.);
#620 = EDGE_CURVE('',#621,#613,#623,.T.);
#621 = VERTEX_POINT('',#622);
#622 = CARTESIAN_POINT('',(22.77872611465,2.783557027901,7.06299919989)
  );
#623 = LINE('',#624,#625);
#624 = CARTESIAN_POINT('',(22.77872611465,2.783557027901,7.06299919989)
  );
#625 = VECTOR('',#626,1.);
#626 = DIRECTION('',(0.,-0.939692620786,0.342020143326));
#627 = ORIENTED_EDGE('',*,*,#628,.F.);
#628 = EDGE_CURVE('',#588,#621,#629,.T.);
#629 = B_SPLINE_CURVE_WITH_KNOTS('',2,(#630,#631,#632),.UNSPECIFIED.,.F.
  ,.F.,(3,3),(0.,1.),.PIECEWISE_BEZIER_KNOTS.);
#630 = CARTESIAN_POINT('',(23.008025477707,3.014997919793,7.6988778243)
  );
#631 = CARTESIAN_POINT('',(22.809299363057,2.945286807777,7.507348118153
    ));
#632 = CARTESIAN_POINT('',(22.77872611465,2.783557027901,7.06299919989)
  );
#633 = SURFACE_OF_LINEAR_EXTRUSION('',#634,#638);
#634 = B_SPLINE_CURVE_WITH_KNOTS('',2,(#635,#636,#637),.UNSPECIFIED.,.F.
  ,.F.,(3,3),(0.,1.),.PIECEWISE_BEZIER_KNOTS.);
#635 = CARTESIAN_POINT('',(23.008025477707,3.014997919793,7.6988778243)
  );
#636 = CARTESIAN_POINT('',(22.809299363057,2.945286807777,7.507348118153
    ));
#637 = CARTESIAN_POINT('',(22.77872611465,2.783557027901,7.06299919989)
  );
#638 = VECTOR('',#639,1.);
#639 = DIRECTION('',(-0.,0.939692620786,-0.342020143326));
#640 = ADVANCED_FACE('',(#641),#666,.T.);
#641 = FACE_BOUND('',#642,.T.);
#642 = EDGE_LOOP('',(#643,#644,#652,#660));
#643 = ORIENTED_EDGE('',*,*,#620,.T.);
#644 = ORIENTED_EDGE('',*,*,#645,.T.);
#645 = EDGE_CURVE('',#613,#646,#648,.T.);
#646 = VERTEX_POINT('',#647);
#647 = CARTESIAN_POINT('',(21.708662420382,2.068662681751,7.437886646676
    ));
#648 = LINE('',#649,#650);
#649 = CARTESIAN_POINT('',(22.77872611465,2.031802931273,7.336615314551)
  );
#650 = VECTOR('',#651,1.);
#651 = DIRECTION('',(-0.994966576024,3.427293152997E-02,
    9.416410547709E-02));
#652 = ORIENTED_EDGE('',*,*,#653,.F.);
#653 = EDGE_CURVE('',#654,#646,#656,.T.);
#654 = VERTEX_POINT('',#655);
#655 = CARTESIAN_POINT('',(21.708662420382,2.820416778379,7.164270532016
    ));
#656 = LINE('',#657,#658);
#657 = CARTESIAN_POINT('',(21.708662420382,2.820416778379,7.164270532016
    ));
#658 = VECTOR('',#659,1.);
#659 = DIRECTION('',(0.,-0.939692620786,0.342020143326));
#660 = ORIENTED_EDGE('',*,*,#661,.F.);
#661 = EDGE_CURVE('',#621,#654,#662,.T.);
#662 = LINE('',#663,#664);
#663 = CARTESIAN_POINT('',(22.77872611465,2.783557027901,7.06299919989)
  );
#664 = VECTOR('',#665,1.);
#665 = DIRECTION('',(-0.994966576024,3.427293152997E-02,
    9.416410547709E-02));
#666 = PLANE('',#667);
#667 = AXIS2_PLACEMENT_3D('',#668,#669,#670);
#668 = CARTESIAN_POINT('',(22.77872611465,2.783557027901,7.06299919989)
  );
#669 = DIRECTION('',(-0.100207348014,-0.340298610936,-0.934962749418));
#670 = DIRECTION('',(-0.994966576024,3.427293152997E-02,
    9.416410547709E-02));
#671 = ADVANCED_FACE('',(#672),#697,.T.);
#672 = FACE_BOUND('',#673,.T.);
#673 = EDGE_LOOP('',(#674,#675,#683,#691));
#674 = ORIENTED_EDGE('',*,*,#653,.T.);
#675 = ORIENTED_EDGE('',*,*,#676,.T.);
#676 = EDGE_CURVE('',#646,#677,#679,.T.);
#677 = VERTEX_POINT('',#678);
#678 = CARTESIAN_POINT('',(22.308662420382,2.506797020768,8.641650849813
    ));
#679 = B_SPLINE_CURVE_WITH_KNOTS('',2,(#680,#681,#682),.UNSPECIFIED.,.F.
  ,.F.,(3,3),(0.,1.),.PIECEWISE_BEZIER_KNOTS.);
#680 = CARTESIAN_POINT('',(21.708662420382,2.068662681751,7.437886646676
    ));
#681 = CARTESIAN_POINT('',(21.804203821656,2.373910213488,8.27654734747)
  );
#682 = CARTESIAN_POINT('',(22.308662420382,2.506797020768,8.641650849813
    ));
#683 = ORIENTED_EDGE('',*,*,#684,.F.);
#684 = EDGE_CURVE('',#685,#677,#687,.T.);
#685 = VERTEX_POINT('',#686);
#686 = CARTESIAN_POINT('',(22.308662420382,3.258551117396,8.368034735153
    ));
#687 = LINE('',#688,#689);
#688 = CARTESIAN_POINT('',(22.308662420382,3.258551117396,8.368034735153
    ));
#689 = VECTOR('',#690,1.);
#690 = DIRECTION('',(0.,-0.939692620786,0.342020143326));
#691 = ORIENTED_EDGE('',*,*,#692,.F.);
#692 = EDGE_CURVE('',#654,#685,#693,.T.);
#693 = B_SPLINE_CURVE_WITH_KNOTS('',2,(#694,#695,#696),.UNSPECIFIED.,.F.
  ,.F.,(3,3),(0.,1.),.PIECEWISE_BEZIER_KNOTS.);
#694 = CARTESIAN_POINT('',(21.708662420382,2.820416778379,7.164270532016
    ));
#695 = CARTESIAN_POINT('',(21.804203821656,3.125664310117,8.002931232809
    ));
#696 = CARTESIAN_POINT('',(22.308662420382,3.258551117396,8.368034735153
    ));
#697 = SURFACE_OF_LINEAR_EXTRUSION('',#698,#702);
#698 = B_SPLINE_CURVE_WITH_KNOTS('',2,(#699,#700,#701),.UNSPECIFIED.,.F.
  ,.F.,(3,3),(0.,1.),.PIECEWISE_BEZIER_KNOTS.);
#699 = CARTESIAN_POINT('',(21.708662420382,2.820416778379,7.164270532016
    ));
#700 = CARTESIAN_POINT('',(21.804203821656,3.125664310117,8.002931232809
    ));
#701 = CARTESIAN_POINT('',(22.308662420382,3.258551117396,8.368034735153
    ));
#702 = VECTOR('',#703,1.);
#703 = DIRECTION('',(-0.,0.939692620786,-0.342020143326));
#704 = ADVANCED_FACE('',(#705),#730,.T.);
#705 = FACE_BOUND('',#706,.T.);
#706 = EDGE_LOOP('',(#707,#708,#716,#724));
#707 = ORIENTED_EDGE('',*,*,#684,.T.);
#708 = ORIENTED_EDGE('',*,*,#709,.T.);
#709 = EDGE_CURVE('',#677,#710,#712,.T.);
#710 = VERTEX_POINT('',#711);
#711 = CARTESIAN_POINT('',(23.569808917197,2.639683828047,9.006754352157
    ));
#712 = B_SPLINE_CURVE_WITH_KNOTS('',2,(#713,#714,#715),.UNSPECIFIED.,.F.
  ,.F.,(3,3),(0.,1.),.PIECEWISE_BEZIER_KNOTS.);
#713 = CARTESIAN_POINT('',(22.308662420382,2.506797020768,8.641650849813
    ));
#714 = CARTESIAN_POINT('',(22.813121019108,2.639683828047,9.006754352157
    ));
#715 = CARTESIAN_POINT('',(23.569808917197,2.639683828047,9.006754352157
    ));
#716 = ORIENTED_EDGE('',*,*,#717,.F.);
#717 = EDGE_CURVE('',#718,#710,#720,.T.);
#718 = VERTEX_POINT('',#719);
#719 = CARTESIAN_POINT('',(23.569808917197,3.391437924676,8.733138237496
    ));
#720 = LINE('',#721,#722);
#721 = CARTESIAN_POINT('',(23.569808917197,3.391437924676,8.733138237496
    ));
#722 = VECTOR('',#723,1.);
#723 = DIRECTION('',(0.,-0.939692620786,0.342020143326));
#724 = ORIENTED_EDGE('',*,*,#725,.F.);
#725 = EDGE_CURVE('',#685,#718,#726,.T.);
#726 = B_SPLINE_CURVE_WITH_KNOTS('',2,(#727,#728,#729),.UNSPECIFIED.,.F.
  ,.F.,(3,3),(0.,1.),.PIECEWISE_BEZIER_KNOTS.);
#727 = CARTESIAN_POINT('',(22.308662420382,3.258551117396,8.368034735153
    ));
#728 = CARTESIAN_POINT('',(22.813121019108,3.391437924676,8.733138237496
    ));
#729 = CARTESIAN_POINT('',(23.569808917197,3.391437924676,8.733138237496
    ));
#730 = SURFACE_OF_LINEAR_EXTRUSION('',#731,#735);
#731 = B_SPLINE_CURVE_WITH_KNOTS('',2,(#732,#733,#734),.UNSPECIFIED.,.F.
  ,.F.,(3,3),(0.,1.),.PIECEWISE_BEZIER_KNOTS.);
#732 = CARTESIAN_POINT('',(22.308662420382,3.258551117396,8.368034735153
    ));
#733 = CARTESIAN_POINT('',(22.813121019108,3.391437924676,8.733138237496
    ));
#734 = CARTESIAN_POINT('',(23.569808917197,3.391437924676,8.733138237496
    ));
#735 = VECTOR('',#736,1.);
#736 = DIRECTION('',(-0.,0.939692620786,-0.342020143326));
#737 = ADVANCED_FACE('',(#738),#763,.T.);
#738 = FACE_BOUND('',#739,.T.);
#739 = EDGE_LOOP('',(#740,#741,#749,#757));
#740 = ORIENTED_EDGE('',*,*,#717,.T.);
#741 = ORIENTED_EDGE('',*,*,#742,.T.);
#742 = EDGE_CURVE('',#710,#743,#745,.T.);
#743 = VERTEX_POINT('',#744);
#744 = CARTESIAN_POINT('',(24.872993630573,2.486145103833,8.584910174367
    ));
#745 = B_SPLINE_CURVE_WITH_KNOTS('',2,(#746,#747,#748),.UNSPECIFIED.,.F.
  ,.F.,(3,3),(0.,1.),.PIECEWISE_BEZIER_KNOTS.);
#746 = CARTESIAN_POINT('',(23.569808917197,2.639683828047,9.006754352157
    ));
#747 = CARTESIAN_POINT('',(24.399108280255,2.639683828047,9.006754352157
    ));
#748 = CARTESIAN_POINT('',(24.872993630573,2.486145103833,8.584910174367
    ));
#749 = ORIENTED_EDGE('',*,*,#750,.F.);
#750 = EDGE_CURVE('',#751,#743,#753,.T.);
#751 = VERTEX_POINT('',#752);
#752 = CARTESIAN_POINT('',(24.872993630573,3.237899200462,8.311294059706
    ));
#753 = LINE('',#754,#755);
#754 = CARTESIAN_POINT('',(24.872993630573,3.237899200462,8.311294059706
    ));
#755 = VECTOR('',#756,1.);
#756 = DIRECTION('',(0.,-0.939692620786,0.342020143326));
#757 = ORIENTED_EDGE('',*,*,#758,.F.);
#758 = EDGE_CURVE('',#718,#751,#759,.T.);
#759 = B_SPLINE_CURVE_WITH_KNOTS('',2,(#760,#761,#762),.UNSPECIFIED.,.F.
  ,.F.,(3,3),(0.,1.),.PIECEWISE_BEZIER_KNOTS.);
#760 = CARTESIAN_POINT('',(23.569808917197,3.391437924676,8.733138237496
    ));
#761 = CARTESIAN_POINT('',(24.399108280255,3.391437924676,8.733138237496
    ));
#762 = CARTESIAN_POINT('',(24.872993630573,3.237899200462,8.311294059706
    ));
#763 = SURFACE_OF_LINEAR_EXTRUSION('',#764,#768);
#764 = B_SPLINE_CURVE_WITH_KNOTS('',2,(#765,#766,#767),.UNSPECIFIED.,.F.
  ,.F.,(3,3),(0.,1.),.PIECEWISE_BEZIER_KNOTS.);
#765 = CARTESIAN_POINT('',(23.569808917197,3.391437924676,8.733138237496
    ));
#766 = CARTESIAN_POINT('',(24.399108280255,3.391437924676,8.733138237496
    ));
#767 = CARTESIAN_POINT('',(24.872993630573,3.237899200462,8.311294059706
    ));
#768 = VECTOR('',#769,1.);
#769 = DIRECTION('',(-0.,0.939692620786,-0.342020143326));
#770 = ADVANCED_FACE('',(#771),#796,.T.);
#771 = FACE_BOUND('',#772,.T.);
#772 = EDGE_LOOP('',(#773,#774,#782,#790));
#773 = ORIENTED_EDGE('',*,*,#750,.T.);
#774 = ORIENTED_EDGE('',*,*,#775,.T.);
#775 = EDGE_CURVE('',#743,#776,#778,.T.);
#776 = VERTEX_POINT('',#777);
#777 = CARTESIAN_POINT('',(25.346878980892,2.104215348879,7.535566796812
    ));
#778 = B_SPLINE_CURVE_WITH_KNOTS('',2,(#779,#780,#781),.UNSPECIFIED.,.F.
  ,.F.,(3,3),(0.,1.),.PIECEWISE_BEZIER_KNOTS.);
#779 = CARTESIAN_POINT('',(24.872993630573,2.486145103833,8.584910174367
    ));
#780 = CARTESIAN_POINT('',(25.346878980892,2.332606379619,8.163065996577
    ));
#781 = CARTESIAN_POINT('',(25.346878980892,2.104215348879,7.535566796812
    ));
#782 = ORIENTED_EDGE('',*,*,#783,.F.);
#783 = EDGE_CURVE('',#784,#776,#786,.T.);
#784 = VERTEX_POINT('',#785);
#785 = CARTESIAN_POINT('',(25.346878980892,2.855969445507,7.261950682151
    ));
#786 = LINE('',#787,#788);
#787 = CARTESIAN_POINT('',(25.346878980892,2.855969445507,7.261950682151
    ));
#788 = VECTOR('',#789,1.);
#789 = DIRECTION('',(0.,-0.939692620786,0.342020143326));
#790 = ORIENTED_EDGE('',*,*,#791,.F.);
#791 = EDGE_CURVE('',#751,#784,#792,.T.);
#792 = B_SPLINE_CURVE_WITH_KNOTS('',2,(#793,#794,#795),.UNSPECIFIED.,.F.
  ,.F.,(3,3),(0.,1.),.PIECEWISE_BEZIER_KNOTS.);
#793 = CARTESIAN_POINT('',(24.872993630573,3.237899200462,8.311294059706
    ));
#794 = CARTESIAN_POINT('',(25.346878980892,3.084360476248,7.889449881917
    ));
#795 = CARTESIAN_POINT('',(25.346878980892,2.855969445507,7.261950682151
    ));
#796 = SURFACE_OF_LINEAR_EXTRUSION('',#797,#801);
#797 = B_SPLINE_CURVE_WITH_KNOTS('',2,(#798,#799,#800),.UNSPECIFIED.,.F.
  ,.F.,(3,3),(0.,1.),.PIECEWISE_BEZIER_KNOTS.);
#798 = CARTESIAN_POINT('',(24.872993630573,3.237899200462,8.311294059706
    ));
#799 = CARTESIAN_POINT('',(25.346878980892,3.084360476248,7.889449881917
    ));
#800 = CARTESIAN_POINT('',(25.346878980892,2.855969445507,7.261950682151
    ));
#801 = VECTOR('',#802,1.);
#802 = DIRECTION('',(-0.,0.939692620786,-0.342020143326));
#803 = ADVANCED_FACE('',(#804),#829,.T.);
#804 = FACE_BOUND('',#805,.T.);
#805 = EDGE_LOOP('',(#806,#807,#815,#823));
#806 = ORIENTED_EDGE('',*,*,#783,.T.);
#807 = ORIENTED_EDGE('',*,*,#808,.T.);
#808 = EDGE_CURVE('',#776,#809,#811,.T.);
#809 = VERTEX_POINT('',#810);
#810 = CARTESIAN_POINT('',(25.211082802548,1.856828040114,6.855875752121
    ));
#811 = B_SPLINE_CURVE_WITH_KNOTS('',2,(#812,#813,#814),.UNSPECIFIED.,.F.
  ,.F.,(3,3),(0.,1.),.PIECEWISE_BEZIER_KNOTS.);
#812 = CARTESIAN_POINT('',(25.346878980892,2.104215348879,7.535566796812
    ));
#813 = CARTESIAN_POINT('',(25.346878980892,1.97429126386,7.178603306979)
  );
#814 = CARTESIAN_POINT('',(25.211082802548,1.856828040114,6.855875752121
    ));
#815 = ORIENTED_EDGE('',*,*,#816,.F.);
#816 = EDGE_CURVE('',#817,#809,#819,.T.);
#817 = VERTEX_POINT('',#818);
#818 = CARTESIAN_POINT('',(25.211082802548,2.608582136743,6.58225963746)
  );
#819 = LINE('',#820,#821);
#820 = CARTESIAN_POINT('',(25.211082802548,2.608582136743,6.58225963746)
  );
#821 = VECTOR('',#822,1.);
#822 = DIRECTION('',(0.,-0.939692620786,0.342020143326));
#823 = ORIENTED_EDGE('',*,*,#824,.F.);
#824 = EDGE_CURVE('',#784,#817,#825,.T.);
#825 = B_SPLINE_CURVE_WITH_KNOTS('',2,(#826,#827,#828),.UNSPECIFIED.,.F.
  ,.F.,(3,3),(0.,1.),.PIECEWISE_BEZIER_KNOTS.);
#826 = CARTESIAN_POINT('',(25.346878980892,2.855969445507,7.261950682151
    ));
#827 = CARTESIAN_POINT('',(25.346878980892,2.726045360489,6.904987192319
    ));
#828 = CARTESIAN_POINT('',(25.211082802548,2.608582136743,6.58225963746)
  );
#829 = SURFACE_OF_LINEAR_EXTRUSION('',#830,#834);
#830 = B_SPLINE_CURVE_WITH_KNOTS('',2,(#831,#832,#833),.UNSPECIFIED.,.F.
  ,.F.,(3,3),(0.,1.),.PIECEWISE_BEZIER_KNOTS.);
#831 = CARTESIAN_POINT('',(25.346878980892,2.855969445507,7.261950682151
    ));
#832 = CARTESIAN_POINT('',(25.346878980892,2.726045360489,6.904987192319
    ));
#833 = CARTESIAN_POINT('',(25.211082802548,2.608582136743,6.58225963746)
  );
#834 = VECTOR('',#835,1.);
#835 = DIRECTION('',(-0.,0.939692620786,-0.342020143326));
#836 = ADVANCED_FACE('',(#837),#862,.T.);
#837 = FACE_BOUND('',#838,.T.);
#838 = EDGE_LOOP('',(#839,#840,#848,#856));
#839 = ORIENTED_EDGE('',*,*,#816,.T.);
#840 = ORIENTED_EDGE('',*,*,#841,.T.);
#841 = EDGE_CURVE('',#809,#842,#844,.T.);
#842 = VERTEX_POINT('',#843);
#843 = CARTESIAN_POINT('',(24.78127388535,1.610660675809,6.179536477288)
  );
#844 = B_SPLINE_CURVE_WITH_KNOTS('',2,(#845,#846,#847),.UNSPECIFIED.,.F.
  ,.F.,(3,3),(0.,1.),.PIECEWISE_BEZIER_KNOTS.);
#845 = CARTESIAN_POINT('',(25.211082802548,1.856828040114,6.855875752121
    ));
#846 = CARTESIAN_POINT('',(25.075541401274,1.739364816368,6.533148197262
    ));
#847 = CARTESIAN_POINT('',(24.78127388535,1.610660675809,6.179536477288)
  );
#848 = ORIENTED_EDGE('',*,*,#849,.F.);
#849 = EDGE_CURVE('',#850,#842,#852,.T.);
#850 = VERTEX_POINT('',#851);
#851 = CARTESIAN_POINT('',(24.78127388535,2.362414772438,5.905920362627)
  );
#852 = LINE('',#853,#854);
#853 = CARTESIAN_POINT('',(24.78127388535,2.362414772438,5.905920362627)
  );
#854 = VECTOR('',#855,1.);
#855 = DIRECTION('',(0.,-0.939692620786,0.342020143326));
#856 = ORIENTED_EDGE('',*,*,#857,.F.);
#857 = EDGE_CURVE('',#817,#850,#858,.T.);
#858 = B_SPLINE_CURVE_WITH_KNOTS('',2,(#859,#860,#861),.UNSPECIFIED.,.F.
  ,.F.,(3,3),(0.,1.),.PIECEWISE_BEZIER_KNOTS.);
#859 = CARTESIAN_POINT('',(25.211082802548,2.608582136743,6.58225963746)
  );
#860 = CARTESIAN_POINT('',(25.075541401274,2.491118912997,6.259532082602
    ));
#861 = CARTESIAN_POINT('',(24.78127388535,2.362414772438,5.905920362627)
  );
#862 = SURFACE_OF_LINEAR_EXTRUSION('',#863,#867);
#863 = B_SPLINE_CURVE_WITH_KNOTS('',2,(#864,#865,#866),.UNSPECIFIED.,.F.
  ,.F.,(3,3),(0.,1.),.PIECEWISE_BEZIER_KNOTS.);
#864 = CARTESIAN_POINT('',(25.211082802548,2.608582136743,6.58225963746)
  );
#865 = CARTESIAN_POINT('',(25.075541401274,2.491118912997,6.259532082602
    ));
#866 = CARTESIAN_POINT('',(24.78127388535,2.362414772438,5.905920362627)
  );
#867 = VECTOR('',#868,1.);
#868 = DIRECTION('',(-0.,0.939692620786,-0.342020143326));
#869 = ADVANCED_FACE('',(#870),#895,.T.);
#870 = FACE_BOUND('',#871,.T.);
#871 = EDGE_LOOP('',(#872,#873,#881,#889));
#872 = ORIENTED_EDGE('',*,*,#849,.T.);
#873 = ORIENTED_EDGE('',*,*,#874,.T.);
#874 = EDGE_CURVE('',#842,#875,#877,.T.);
#875 = VERTEX_POINT('',#876);
#876 = CARTESIAN_POINT('',(24.078089171975,1.365190422625,5.505112499516
    ));
#877 = B_SPLINE_CURVE_WITH_KNOTS('',2,(#878,#879,#880),.UNSPECIFIED.,.F.
  ,.F.,(3,3),(0.,1.),.PIECEWISE_BEZIER_KNOTS.);
#878 = CARTESIAN_POINT('',(24.78127388535,1.610660675809,6.179536477288)
  );
#879 = CARTESIAN_POINT('',(24.586369426752,1.525351702481,5.94515199939)
  );
#880 = CARTESIAN_POINT('',(24.078089171975,1.365190422625,5.505112499516
    ));
#881 = ORIENTED_EDGE('',*,*,#882,.F.);
#882 = EDGE_CURVE('',#883,#875,#885,.T.);
#883 = VERTEX_POINT('',#884);
#884 = CARTESIAN_POINT('',(24.078089171975,2.116944519254,5.231496384855
    ));
#885 = LINE('',#886,#887);
#886 = CARTESIAN_POINT('',(24.078089171975,2.116944519254,5.231496384855
    ));
#887 = VECTOR('',#888,1.);
#888 = DIRECTION('',(0.,-0.939692620786,0.342020143326));
#889 = ORIENTED_EDGE('',*,*,#890,.F.);
#890 = EDGE_CURVE('',#850,#883,#891,.T.);
#891 = B_SPLINE_CURVE_WITH_KNOTS('',2,(#892,#893,#894),.UNSPECIFIED.,.F.
  ,.F.,(3,3),(0.,1.),.PIECEWISE_BEZIER_KNOTS.);
#892 = CARTESIAN_POINT('',(24.78127388535,2.362414772438,5.905920362627)
  );
#893 = CARTESIAN_POINT('',(24.586369426752,2.277105799109,5.671535884729
    ));
#894 = CARTESIAN_POINT('',(24.078089171975,2.116944519254,5.231496384855
    ));
#895 = SURFACE_OF_LINEAR_EXTRUSION('',#896,#900);
#896 = B_SPLINE_CURVE_WITH_KNOTS('',2,(#897,#898,#899),.UNSPECIFIED.,.F.
  ,.F.,(3,3),(0.,1.),.PIECEWISE_BEZIER_KNOTS.);
#897 = CARTESIAN_POINT('',(24.78127388535,2.362414772438,5.905920362627)
  );
#898 = CARTESIAN_POINT('',(24.586369426752,2.277105799109,5.671535884729
    ));
#899 = CARTESIAN_POINT('',(24.078089171975,2.116944519254,5.231496384855
    ));
#900 = VECTOR('',#901,1.);
#901 = DIRECTION('',(-0.,0.939692620786,-0.342020143326));
#902 = ADVANCED_FACE('',(#903),#928,.T.);
#903 = FACE_BOUND('',#904,.T.);
#904 = EDGE_LOOP('',(#905,#906,#914,#922));
#905 = ORIENTED_EDGE('',*,*,#882,.T.);
#906 = ORIENTED_EDGE('',*,*,#907,.T.);
#907 = EDGE_CURVE('',#875,#908,#910,.T.);
#908 = VERTEX_POINT('',#909);
#909 = CARTESIAN_POINT('',(23.434012738854,1.152571530978,4.920946895766
    ));
#910 = B_SPLINE_CURVE_WITH_KNOTS('',2,(#911,#912,#913),.UNSPECIFIED.,.F.
  ,.F.,(3,3),(0.,1.),.PIECEWISE_BEZIER_KNOTS.);
#911 = CARTESIAN_POINT('',(24.078089171975,1.365190422625,5.505112499516
    ));
#912 = CARTESIAN_POINT('',(23.569808917197,1.20511628166,5.065312411775)
  );
#913 = CARTESIAN_POINT('',(23.434012738854,1.152571530978,4.920946895766
    ));
#914 = ORIENTED_EDGE('',*,*,#915,.F.);
#915 = EDGE_CURVE('',#916,#908,#918,.T.);
#916 = VERTEX_POINT('',#917);
#917 = CARTESIAN_POINT('',(23.434012738854,1.904325627607,4.647330781106
    ));
#918 = LINE('',#919,#920);
#919 = CARTESIAN_POINT('',(23.434012738854,1.904325627607,4.647330781106
    ));
#920 = VECTOR('',#921,1.);
#921 = DIRECTION('',(0.,-0.939692620786,0.342020143326));
#922 = ORIENTED_EDGE('',*,*,#923,.F.);
#923 = EDGE_CURVE('',#883,#916,#924,.T.);
#924 = B_SPLINE_CURVE_WITH_KNOTS('',2,(#925,#926,#927),.UNSPECIFIED.,.F.
  ,.F.,(3,3),(0.,1.),.PIECEWISE_BEZIER_KNOTS.);
#925 = CARTESIAN_POINT('',(24.078089171975,2.116944519254,5.231496384855
    ));
#926 = CARTESIAN_POINT('',(23.569808917197,1.956870378288,4.791696297114
    ));
#927 = CARTESIAN_POINT('',(23.434012738854,1.904325627607,4.647330781106
    ));
#928 = SURFACE_OF_LINEAR_EXTRUSION('',#929,#933);
#929 = B_SPLINE_CURVE_WITH_KNOTS('',2,(#930,#931,#932),.UNSPECIFIED.,.F.
  ,.F.,(3,3),(0.,1.),.PIECEWISE_BEZIER_KNOTS.);
#930 = CARTESIAN_POINT('',(24.078089171975,2.116944519254,5.231496384855
    ));
#931 = CARTESIAN_POINT('',(23.569808917197,1.956870378288,4.791696297114
    ));
#932 = CARTESIAN_POINT('',(23.434012738854,1.904325627607,4.647330781106
    ));
#933 = VECTOR('',#934,1.);
#934 = DIRECTION('',(-0.,0.939692620786,-0.342020143326));
#935 = ADVANCED_FACE('',(#936),#961,.T.);
#936 = FACE_BOUND('',#937,.T.);
#937 = EDGE_LOOP('',(#938,#939,#947,#955));
#938 = ORIENTED_EDGE('',*,*,#915,.T.);
#939 = ORIENTED_EDGE('',*,*,#940,.T.);
#940 = EDGE_CURVE('',#908,#941,#943,.T.);
#941 = VERTEX_POINT('',#942);
#942 = CARTESIAN_POINT('',(23.214394904459,1.050270474095,4.639877051995
    ));
#943 = B_SPLINE_CURVE_WITH_KNOTS('',2,(#944,#945,#946),.UNSPECIFIED.,.F.
  ,.F.,(3,3),(0.,1.),.PIECEWISE_BEZIER_KNOTS.);
#944 = CARTESIAN_POINT('',(23.434012738854,1.152571530978,4.920946895766
    ));
#945 = CARTESIAN_POINT('',(23.29847133758,1.100113919186,4.77682079189)
  );
#946 = CARTESIAN_POINT('',(23.214394904459,1.050270474095,4.639877051995
    ));
#947 = ORIENTED_EDGE('',*,*,#948,.F.);
#948 = EDGE_CURVE('',#949,#941,#951,.T.);
#949 = VERTEX_POINT('',#950);
#950 = CARTESIAN_POINT('',(23.214394904459,1.802024570724,4.366260937334
    ));
#951 = LINE('',#952,#953);
#952 = CARTESIAN_POINT('',(23.214394904459,1.802024570724,4.366260937334
    ));
#953 = VECTOR('',#954,1.);
#954 = DIRECTION('',(0.,-0.939692620786,0.342020143326));
#955 = ORIENTED_EDGE('',*,*,#956,.F.);
#956 = EDGE_CURVE('',#916,#949,#957,.T.);
#957 = B_SPLINE_CURVE_WITH_KNOTS('',2,(#958,#959,#960),.UNSPECIFIED.,.F.
  ,.F.,(3,3),(0.,1.),.PIECEWISE_BEZIER_KNOTS.);
#958 = CARTESIAN_POINT('',(23.434012738854,1.904325627607,4.647330781106
    ));
#959 = CARTESIAN_POINT('',(23.29847133758,1.851868015815,4.50320467723)
  );
#960 = CARTESIAN_POINT('',(23.214394904459,1.802024570724,4.366260937334
    ));
#961 = SURFACE_OF_LINEAR_EXTRUSION('',#962,#966);
#962 = B_SPLINE_CURVE_WITH_KNOTS('',2,(#963,#964,#965),.UNSPECIFIED.,.F.
  ,.F.,(3,3),(0.,1.),.PIECEWISE_BEZIER_KNOTS.);
#963 = CARTESIAN_POINT('',(23.434012738854,1.904325627607,4.647330781106
    ));
#964 = CARTESIAN_POINT('',(23.29847133758,1.851868015815,4.50320467723)
  );
#965 = CARTESIAN_POINT('',(23.214394904459,1.802024570724,4.366260937334
    ));
#966 = VECTOR('',#967,1.);
#967 = DIRECTION('',(-0.,0.939692620786,-0.342020143326));
#968 = ADVANCED_FACE('',(#969),#985,.T.);
#969 = FACE_BOUND('',#970,.T.);
#970 = EDGE_LOOP('',(#971,#972,#978,#979));
#971 = ORIENTED_EDGE('',*,*,#948,.T.);
#972 = ORIENTED_EDGE('',*,*,#973,.T.);
#973 = EDGE_CURVE('',#941,#312,#974,.T.);
#974 = LINE('',#975,#976);
#975 = CARTESIAN_POINT('',(23.214394904459,1.050270474095,4.639877051995
    ));
#976 = VECTOR('',#977,1.);
#977 = DIRECTION('',(1.,0.,0.));
#978 = ORIENTED_EDGE('',*,*,#309,.F.);
#979 = ORIENTED_EDGE('',*,*,#980,.F.);
#980 = EDGE_CURVE('',#949,#310,#981,.T.);
#981 = LINE('',#982,#983);
#982 = CARTESIAN_POINT('',(23.214394904459,1.802024570724,4.366260937334
    ));
#983 = VECTOR('',#984,1.);
#984 = DIRECTION('',(1.,0.,0.));
#985 = PLANE('',#986);
#986 = AXIS2_PLACEMENT_3D('',#987,#988,#989);
#987 = CARTESIAN_POINT('',(23.214394904459,1.802024570724,4.366260937334
    ));
#988 = DIRECTION('',(0.,0.342020143326,0.939692620786));
#989 = DIRECTION('',(1.,0.,0.));
#990 = ADVANCED_FACE('',(#991),#1014,.F.);
#991 = FACE_BOUND('',#992,.T.);
#992 = EDGE_LOOP('',(#993,#994,#995,#996,#997,#998,#999,#1000,#1001,
    #1002,#1003,#1004,#1005,#1006,#1007,#1008,#1009,#1010,#1011,#1012,
    #1013));
#993 = ORIENTED_EDGE('',*,*,#335,.T.);
#994 = ORIENTED_EDGE('',*,*,#366,.T.);
#995 = ORIENTED_EDGE('',*,*,#397,.T.);
#996 = ORIENTED_EDGE('',*,*,#430,.T.);
#997 = ORIENTED_EDGE('',*,*,#463,.T.);
#998 = ORIENTED_EDGE('',*,*,#496,.T.);
#999 = ORIENTED_EDGE('',*,*,#529,.T.);
#1000 = ORIENTED_EDGE('',*,*,#562,.T.);
#1001 = ORIENTED_EDGE('',*,*,#595,.T.);
#1002 = ORIENTED_EDGE('',*,*,#628,.T.);
#1003 = ORIENTED_EDGE('',*,*,#661,.T.);
#1004 = ORIENTED_EDGE('',*,*,#692,.T.);
#1005 = ORIENTED_EDGE('',*,*,#725,.T.);
#1006 = ORIENTED_EDGE('',*,*,#758,.T.);
#1007 = ORIENTED_EDGE('',*,*,#791,.T.);
#1008 = ORIENTED_EDGE('',*,*,#824,.T.);
#1009 = ORIENTED_EDGE('',*,*,#857,.T.);
#1010 = ORIENTED_EDGE('',*,*,#890,.T.);
#1011 = ORIENTED_EDGE('',*,*,#923,.T.);
#1012 = ORIENTED_EDGE('',*,*,#956,.T.);
#1013 = ORIENTED_EDGE('',*,*,#980,.T.);
#1014 = PLANE('',#1015);
#1015 = AXIS2_PLACEMENT_3D('',#1016,#1017,#1018);
#1016 = CARTESIAN_POINT('',(23.608257717772,2.361698988263,
    5.903953761769));
#1017 = DIRECTION('',(0.,-0.939692620786,0.342020143326));
#1018 = DIRECTION('',(1.,0.,0.));
#1019 = ADVANCED_FACE('',(#1020),#1043,.T.);
#1020 = FACE_BOUND('',#1021,.F.);
#1021 = EDGE_LOOP('',(#1022,#1023,#1024,#1025,#1026,#1027,#1028,#1029,
    #1030,#1031,#1032,#1033,#1034,#1035,#1036,#1037,#1038,#1039,#1040,
    #1041,#1042));
#1022 = ORIENTED_EDGE('',*,*,#319,.T.);
#1023 = ORIENTED_EDGE('',*,*,#350,.T.);
#1024 = ORIENTED_EDGE('',*,*,#381,.T.);
#1025 = ORIENTED_EDGE('',*,*,#414,.T.);
#1026 = ORIENTED_EDGE('',*,*,#447,.T.);
#1027 = ORIENTED_EDGE('',*,*,#480,.T.);
#1028 = ORIENTED_EDGE('',*,*,#513,.T.);
#1029 = ORIENTED_EDGE('',*,*,#546,.T.);
#1030 = ORIENTED_EDGE('',*,*,#579,.T.);
#1031 = ORIENTED_EDGE('',*,*,#612,.T.);
#1032 = ORIENTED_EDGE('',*,*,#645,.T.);
#1033 = ORIENTED_EDGE('',*,*,#676,.T.);
#1034 = ORIENTED_EDGE('',*,*,#709,.T.);
#1035 = ORIENTED_EDGE('',*,*,#742,.T.);
#1036 = ORIENTED_EDGE('',*,*,#775,.T.);
#1037 = ORIENTED_EDGE('',*,*,#808,.T.);
#1038 = ORIENTED_EDGE('',*,*,#841,.T.);
#1039 = ORIENTED_EDGE('',*,*,#874,.T.);
#1040 = ORIENTED_EDGE('',*,*,#907,.T.);
#1041 = ORIENTED_EDGE('',*,*,#940,.T.);
#1042 = ORIENTED_EDGE('',*,*,#973,.T.);
#1043 = PLANE('',#1044);
#1044 = AXIS2_PLACEMENT_3D('',#1045,#1046,#1047);
#1045 = CARTESIAN_POINT('',(23.608257717772,1.609944891634,6.17756987643
    ));
#1046 = DIRECTION('',(0.,-0.939692620786,0.342020143326));
#1047 = DIRECTION('',(1.,0.,0.));
#1048 = ( GEOMETRIC_REPRESENTATION_CONTEXT(3) 
GLOBAL_UNCERTAINTY_ASSIGNED_CONTEXT((#1052)) 
GLOBAL_UNIT_ASSIGNED_CONTEXT((#1049,#1050,#1051)) REPRESENTATION_CONTEXT
('Context #1','3D Context with UNIT and UNCERTAINTY') );
#1049 = ( LENGTH_UNIT() NAMED_UNIT(*) SI_UNIT(.MILLI.,.METRE.) );
#1050 = ( NAMED_UNIT(*) PLANE_ANGLE_UNIT() SI_UNIT($,.RADIAN.) );
#1051 = ( NAMED_UNIT(*) SI_UNIT($,.STERADIAN.) SOLID_ANGLE_UNIT() );
#1052 = UNCERTAINTY_MEASURE_WITH_UNIT(LENGTH_MEASURE(1.E-07),#1049,
  'distance_accuracy_value','confusion accuracy');
#1053 = PRODUCT_RELATED_PRODUCT_CATEGORY('part',$,(#7));
ENDSEC;
END-ISO-10303-21;
