ISO-10303-21;
HEADER;
FILE_DESCRIPTION(('FreeCAD Model'),'2;1');
FILE_NAME('Open CASCADE Shape Model','2026-08-29T16:16:46',('FreeCAD'),(
    'FreeCAD'),'Open CASCADE STEP processor 7.8','FreeCAD','Unknown');
FILE_SCHEMA(('AUTOMOTIVE_DESIGN { 1 0 10303 214 1 1 1 1 }'));
ENDSEC;
DATA;
#1 = APPLICATION_PROTOCOL_DEFINITION('international standard',
  'automotive_design',2000,#2);
#2 = APPLICATION_CONTEXT(
  'core data for automotive mechanical design processes');
#3 = SHAPE_DEFINITION_REPRESENTATION(#4,#10);
#4 = PRODUCT_DEFINITION_SHAPE('','',#5);
#5 = PRODUCT_DEFINITION('design','',#6,#9);
#6 = PRODUCT_DEFINITION_FORMATION('','',#7);
#7 = PRODUCT('Open CASCADE STEP translator 7.8 88',
  'Open CASCADE STEP translator 7.8 88','',(#8));
#8 = PRODUCT_CONTEXT('',#2,'mechanical');
#9 = PRODUCT_DEFINITION_CONTEXT('part definition',#2,'design');
#10 = SHAPE_REPRESENTATION('',(#11,#15,#591),#889);
#11 = AXIS2_PLACEMENT_3D('',#12,#13,#14);
#12 = CARTESIAN_POINT('',(0.,0.,0.));
#13 = DIRECTION('',(0.,0.,1.));
#14 = DIRECTION('',(1.,0.,-0.));
#15 = MANIFOLD_SOLID_BREP('',#16);
#16 = CLOSED_SHELL('',(#17,#57,#90,#123,#156,#189,#222,#255,#288,#321,
    #354,#387,#420,#453,#486,#519,#543,#567));
#17 = ADVANCED_FACE('',(#18),#52,.T.);
#18 = FACE_BOUND('',#19,.T.);
#19 = EDGE_LOOP('',(#20,#30,#38,#46));
#20 = ORIENTED_EDGE('',*,*,#21,.T.);
#21 = EDGE_CURVE('',#22,#24,#26,.T.);
#22 = VERTEX_POINT('',#23);
#23 = CARTESIAN_POINT('',(11.824203821656,1.941253539154,4.748789384231)
  );
#24 = VERTEX_POINT('',#25);
#25 = CARTESIAN_POINT('',(11.824203821656,1.189499442526,5.022405498891)
  );
#26 = LINE('',#27,#28);
#27 = CARTESIAN_POINT('',(11.824203821656,1.941253539154,4.748789384231)
  );
#28 = VECTOR('',#29,1.);
#29 = DIRECTION('',(0.,-0.939692620786,0.342020143326));
#30 = ORIENTED_EDGE('',*,*,#31,.T.);
#31 = EDGE_CURVE('',#24,#32,#34,.T.);
#32 = VERTEX_POINT('',#33);
#33 = CARTESIAN_POINT('',(12.517197452229,1.215524924345,5.09390992252)
  );
#34 = LINE('',#35,#36);
#35 = CARTESIAN_POINT('',(11.824203821656,1.189499442526,5.022405498891)
  );
#36 = VECTOR('',#37,1.);
#37 = DIRECTION('',(0.994025520727,3.733078050948E-02,0.1025654765));
#38 = ORIENTED_EDGE('',*,*,#39,.F.);
#39 = EDGE_CURVE('',#40,#32,#42,.T.);
#40 = VERTEX_POINT('',#41);
#41 = CARTESIAN_POINT('',(12.517197452229,1.967279020974,4.820293807859)
  );
#42 = LINE('',#43,#44);
#43 = CARTESIAN_POINT('',(12.517197452229,1.967279020974,4.820293807859)
  );
#44 = VECTOR('',#45,1.);
#45 = DIRECTION('',(0.,-0.939692620786,0.342020143326));
#46 = ORIENTED_EDGE('',*,*,#47,.F.);
#47 = EDGE_CURVE('',#22,#40,#48,.T.);
#48 = LINE('',#49,#50);
#49 = CARTESIAN_POINT('',(11.824203821656,1.941253539154,4.748789384231)
  );
#50 = VECTOR('',#51,1.);
#51 = DIRECTION('',(0.994025520727,3.733078050948E-02,0.1025654765));
#52 = PLANE('',#53);
#53 = AXIS2_PLACEMENT_3D('',#54,#55,#56);
#54 = CARTESIAN_POINT('',(11.824203821656,1.941253539154,4.748789384231)
  );
#55 = DIRECTION('',(-0.109147900315,0.339976751068,0.9340784467));
#56 = DIRECTION('',(0.994025520727,3.733078050948E-02,0.1025654765));
#57 = ADVANCED_FACE('',(#58),#83,.T.);
#58 = FACE_BOUND('',#59,.T.);
#59 = EDGE_LOOP('',(#60,#61,#69,#77));
#60 = ORIENTED_EDGE('',*,*,#39,.T.);
#61 = ORIENTED_EDGE('',*,*,#62,.T.);
#62 = EDGE_CURVE('',#32,#63,#65,.T.);
#63 = VERTEX_POINT('',#64);
#64 = CARTESIAN_POINT('',(12.649681528662,1.108925015555,4.801029080202)
  );
#65 = B_SPLINE_CURVE_WITH_KNOTS('',2,(#66,#67,#68),.UNSPECIFIED.,.F.,.F.
  ,(3,3),(0.,1.),.PIECEWISE_BEZIER_KNOTS.);
#66 = CARTESIAN_POINT('',(12.517197452229,1.215524924345,5.09390992252)
  );
#67 = CARTESIAN_POINT('',(12.542675159236,1.143606293782,4.896315109011)
  );
#68 = CARTESIAN_POINT('',(12.649681528662,1.108925015555,4.801029080202)
  );
#69 = ORIENTED_EDGE('',*,*,#70,.F.);
#70 = EDGE_CURVE('',#71,#63,#73,.T.);
#71 = VERTEX_POINT('',#72);
#72 = CARTESIAN_POINT('',(12.649681528662,1.860679112183,4.527412965542)
  );
#73 = LINE('',#74,#75);
#74 = CARTESIAN_POINT('',(12.649681528662,1.860679112183,4.527412965542)
  );
#75 = VECTOR('',#76,1.);
#76 = DIRECTION('',(0.,-0.939692620786,0.342020143326));
#77 = ORIENTED_EDGE('',*,*,#78,.F.);
#78 = EDGE_CURVE('',#40,#71,#79,.T.);
#79 = B_SPLINE_CURVE_WITH_KNOTS('',2,(#80,#81,#82),.UNSPECIFIED.,.F.,.F.
  ,(3,3),(0.,1.),.PIECEWISE_BEZIER_KNOTS.);
#80 = CARTESIAN_POINT('',(12.517197452229,1.967279020974,4.820293807859)
  );
#81 = CARTESIAN_POINT('',(12.542675159236,1.895360390411,4.62269899435)
  );
#82 = CARTESIAN_POINT('',(12.649681528662,1.860679112183,4.527412965542)
  );
#83 = SURFACE_OF_LINEAR_EXTRUSION('',#84,#88);
#84 = B_SPLINE_CURVE_WITH_KNOTS('',2,(#85,#86,#87),.UNSPECIFIED.,.F.,.F.
  ,(3,3),(0.,1.),.PIECEWISE_BEZIER_KNOTS.);
#85 = CARTESIAN_POINT('',(12.517197452229,1.967279020974,4.820293807859)
  );
#86 = CARTESIAN_POINT('',(12.542675159236,1.895360390411,4.62269899435)
  );
#87 = CARTESIAN_POINT('',(12.649681528662,1.860679112183,4.527412965542)
  );
#88 = VECTOR('',#89,1.);
#89 = DIRECTION('',(-0.,0.939692620786,-0.342020143326));
#90 = ADVANCED_FACE('',(#91),#116,.T.);
#91 = FACE_BOUND('',#92,.T.);
#92 = EDGE_LOOP('',(#93,#94,#102,#110));
#93 = ORIENTED_EDGE('',*,*,#70,.T.);
#94 = ORIENTED_EDGE('',*,*,#95,.T.);
#95 = EDGE_CURVE('',#63,#96,#98,.T.);
#96 = VERTEX_POINT('',#97);
#97 = CARTESIAN_POINT('',(12.932484076433,1.074243737327,4.705743051394)
  );
#98 = B_SPLINE_CURVE_WITH_KNOTS('',2,(#99,#100,#101),.UNSPECIFIED.,.F.,
  .F.,(3,3),(0.,1.),.PIECEWISE_BEZIER_KNOTS.);
#99 = CARTESIAN_POINT('',(12.649681528662,1.108925015555,4.801029080202)
  );
#100 = CARTESIAN_POINT('',(12.756687898089,1.074243737327,4.705743051394
    ));
#101 = CARTESIAN_POINT('',(12.932484076433,1.074243737327,4.705743051394
    ));
#102 = ORIENTED_EDGE('',*,*,#103,.F.);
#103 = EDGE_CURVE('',#104,#96,#106,.T.);
#104 = VERTEX_POINT('',#105);
#105 = CARTESIAN_POINT('',(12.932484076433,1.825997833956,4.432126936734
    ));
#106 = LINE('',#107,#108);
#107 = CARTESIAN_POINT('',(12.932484076433,1.825997833956,4.432126936734
    ));
#108 = VECTOR('',#109,1.);
#109 = DIRECTION('',(0.,-0.939692620786,0.342020143326));
#110 = ORIENTED_EDGE('',*,*,#111,.F.);
#111 = EDGE_CURVE('',#71,#104,#112,.T.);
#112 = B_SPLINE_CURVE_WITH_KNOTS('',2,(#113,#114,#115),.UNSPECIFIED.,.F.
  ,.F.,(3,3),(0.,1.),.PIECEWISE_BEZIER_KNOTS.);
#113 = CARTESIAN_POINT('',(12.649681528662,1.860679112183,4.527412965542
    ));
#114 = CARTESIAN_POINT('',(12.756687898089,1.825997833956,4.432126936734
    ));
#115 = CARTESIAN_POINT('',(12.932484076433,1.825997833956,4.432126936734
    ));
#116 = SURFACE_OF_LINEAR_EXTRUSION('',#117,#121);
#117 = B_SPLINE_CURVE_WITH_KNOTS('',2,(#118,#119,#120),.UNSPECIFIED.,.F.
  ,.F.,(3,3),(0.,1.),.PIECEWISE_BEZIER_KNOTS.);
#118 = CARTESIAN_POINT('',(12.649681528662,1.860679112183,4.527412965542
    ));
#119 = CARTESIAN_POINT('',(12.756687898089,1.825997833956,4.432126936734
    ));
#120 = CARTESIAN_POINT('',(12.932484076433,1.825997833956,4.432126936734
    ));
#121 = VECTOR('',#122,1.);
#122 = DIRECTION('',(-0.,0.939692620786,-0.342020143326));
#123 = ADVANCED_FACE('',(#124),#149,.T.);
#124 = FACE_BOUND('',#125,.T.);
#125 = EDGE_LOOP('',(#126,#127,#135,#143));
#126 = ORIENTED_EDGE('',*,*,#103,.T.);
#127 = ORIENTED_EDGE('',*,*,#128,.T.);
#128 = EDGE_CURVE('',#96,#129,#131,.T.);
#129 = VERTEX_POINT('',#130);
#130 = CARTESIAN_POINT('',(13.309554140127,1.144187219716,4.897911189895
    ));
#131 = B_SPLINE_CURVE_WITH_KNOTS('',2,(#132,#133,#134),.UNSPECIFIED.,.F.
  ,.F.,(3,3),(0.,1.),.PIECEWISE_BEZIER_KNOTS.);
#132 = CARTESIAN_POINT('',(12.932484076433,1.074243737327,4.705743051394
    ));
#133 = CARTESIAN_POINT('',(13.154140127389,1.074243737327,4.705743051394
    ));
#134 = CARTESIAN_POINT('',(13.309554140127,1.144187219716,4.897911189895
    ));
#135 = ORIENTED_EDGE('',*,*,#136,.F.);
#136 = EDGE_CURVE('',#137,#129,#139,.T.);
#137 = VERTEX_POINT('',#138);
#138 = CARTESIAN_POINT('',(13.309554140127,1.895941316344,4.624295075235
    ));
#139 = LINE('',#140,#141);
#140 = CARTESIAN_POINT('',(13.309554140127,1.895941316344,4.624295075235
    ));
#141 = VECTOR('',#142,1.);
#142 = DIRECTION('',(0.,-0.939692620786,0.342020143326));
#143 = ORIENTED_EDGE('',*,*,#144,.F.);
#144 = EDGE_CURVE('',#104,#137,#145,.T.);
#145 = B_SPLINE_CURVE_WITH_KNOTS('',2,(#146,#147,#148),.UNSPECIFIED.,.F.
  ,.F.,(3,3),(0.,1.),.PIECEWISE_BEZIER_KNOTS.);
#146 = CARTESIAN_POINT('',(12.932484076433,1.825997833956,4.432126936734
    ));
#147 = CARTESIAN_POINT('',(13.154140127389,1.825997833956,4.432126936734
    ));
#148 = CARTESIAN_POINT('',(13.309554140127,1.895941316344,4.624295075235
    ));
#149 = SURFACE_OF_LINEAR_EXTRUSION('',#150,#154);
#150 = B_SPLINE_CURVE_WITH_KNOTS('',2,(#151,#152,#153),.UNSPECIFIED.,.F.
  ,.F.,(3,3),(0.,1.),.PIECEWISE_BEZIER_KNOTS.);
#151 = CARTESIAN_POINT('',(12.932484076433,1.825997833956,4.432126936734
    ));
#152 = CARTESIAN_POINT('',(13.154140127389,1.825997833956,4.432126936734
    ));
#153 = CARTESIAN_POINT('',(13.309554140127,1.895941316344,4.624295075235
    ));
#154 = VECTOR('',#155,1.);
#155 = DIRECTION('',(-0.,0.939692620786,-0.342020143326));
#156 = ADVANCED_FACE('',(#157),#182,.T.);
#157 = FACE_BOUND('',#158,.T.);
#158 = EDGE_LOOP('',(#159,#160,#168,#176));
#159 = ORIENTED_EDGE('',*,*,#136,.T.);
#160 = ORIENTED_EDGE('',*,*,#161,.T.);
#161 = EDGE_CURVE('',#129,#162,#164,.T.);
#162 = VERTEX_POINT('',#163);
#163 = CARTESIAN_POINT('',(13.508280254777,1.434243538293,5.694834375557
    ));
#164 = B_SPLINE_CURVE_WITH_KNOTS('',2,(#165,#166,#167),.UNSPECIFIED.,.F.
  ,.F.,(3,3),(0.,1.),.PIECEWISE_BEZIER_KNOTS.);
#165 = CARTESIAN_POINT('',(13.309554140127,1.144187219716,4.897911189895
    ));
#166 = CARTESIAN_POINT('',(13.464968152866,1.214188794698,5.090238936485
    ));
#167 = CARTESIAN_POINT('',(13.508280254777,1.434243538293,5.694834375557
    ));
#168 = ORIENTED_EDGE('',*,*,#169,.F.);
#169 = EDGE_CURVE('',#170,#162,#172,.T.);
#170 = VERTEX_POINT('',#171);
#171 = CARTESIAN_POINT('',(13.508280254777,2.185997634922,5.421218260897
    ));
#172 = LINE('',#173,#174);
#173 = CARTESIAN_POINT('',(13.508280254777,2.185997634922,5.421218260897
    ));
#174 = VECTOR('',#175,1.);
#175 = DIRECTION('',(0.,-0.939692620786,0.342020143326));
#176 = ORIENTED_EDGE('',*,*,#177,.F.);
#177 = EDGE_CURVE('',#137,#170,#178,.T.);
#178 = B_SPLINE_CURVE_WITH_KNOTS('',2,(#179,#180,#181),.UNSPECIFIED.,.F.
  ,.F.,(3,3),(0.,1.),.PIECEWISE_BEZIER_KNOTS.);
#179 = CARTESIAN_POINT('',(13.309554140127,1.895941316344,4.624295075235
    ));
#180 = CARTESIAN_POINT('',(13.464968152866,1.965942891327,4.816622821825
    ));
#181 = CARTESIAN_POINT('',(13.508280254777,2.185997634922,5.421218260897
    ));
#182 = SURFACE_OF_LINEAR_EXTRUSION('',#183,#187);
#183 = B_SPLINE_CURVE_WITH_KNOTS('',2,(#184,#185,#186),.UNSPECIFIED.,.F.
  ,.F.,(3,3),(0.,1.),.PIECEWISE_BEZIER_KNOTS.);
#184 = CARTESIAN_POINT('',(13.309554140127,1.895941316344,4.624295075235
    ));
#185 = CARTESIAN_POINT('',(13.464968152866,1.965942891327,4.816622821825
    ));
#186 = CARTESIAN_POINT('',(13.508280254777,2.185997634922,5.421218260897
    ));
#187 = VECTOR('',#188,1.);
#188 = DIRECTION('',(-0.,0.939692620786,-0.342020143326));
#189 = ADVANCED_FACE('',(#190),#215,.T.);
#190 = FACE_BOUND('',#191,.T.);
#191 = EDGE_LOOP('',(#192,#193,#201,#209));
#192 = ORIENTED_EDGE('',*,*,#169,.T.);
#193 = ORIENTED_EDGE('',*,*,#194,.T.);
#194 = EDGE_CURVE('',#162,#195,#197,.T.);
#195 = VERTEX_POINT('',#196);
#196 = CARTESIAN_POINT('',(12.833121019108,1.32706270357,5.400357452355)
  );
#197 = B_SPLINE_CURVE_WITH_KNOTS('',2,(#198,#199,#200),.UNSPECIFIED.,.F.
  ,.F.,(3,3),(0.,1.),.PIECEWISE_BEZIER_KNOTS.);
#198 = CARTESIAN_POINT('',(13.508280254777,1.434243538293,5.694834375557
    ));
#199 = CARTESIAN_POINT('',(13.23821656051,1.32706270357,5.400357452355)
  );
#200 = CARTESIAN_POINT('',(12.833121019108,1.32706270357,5.400357452355)
  );
#201 = ORIENTED_EDGE('',*,*,#202,.F.);
#202 = EDGE_CURVE('',#203,#195,#205,.T.);
#203 = VERTEX_POINT('',#204);
#204 = CARTESIAN_POINT('',(12.833121019108,2.078816800198,5.126741337695
    ));
#205 = LINE('',#206,#207);
#206 = CARTESIAN_POINT('',(12.833121019108,2.078816800198,5.126741337695
    ));
#207 = VECTOR('',#208,1.);
#208 = DIRECTION('',(0.,-0.939692620786,0.342020143326));
#209 = ORIENTED_EDGE('',*,*,#210,.F.);
#210 = EDGE_CURVE('',#170,#203,#211,.T.);
#211 = B_SPLINE_CURVE_WITH_KNOTS('',2,(#212,#213,#214),.UNSPECIFIED.,.F.
  ,.F.,(3,3),(0.,1.),.PIECEWISE_BEZIER_KNOTS.);
#212 = CARTESIAN_POINT('',(13.508280254777,2.185997634922,5.421218260897
    ));
#213 = CARTESIAN_POINT('',(13.23821656051,2.078816800198,5.126741337695)
  );
#214 = CARTESIAN_POINT('',(12.833121019108,2.078816800198,5.126741337695
    ));
#215 = SURFACE_OF_LINEAR_EXTRUSION('',#216,#220);
#216 = B_SPLINE_CURVE_WITH_KNOTS('',2,(#217,#218,#219),.UNSPECIFIED.,.F.
  ,.F.,(3,3),(0.,1.),.PIECEWISE_BEZIER_KNOTS.);
#217 = CARTESIAN_POINT('',(13.508280254777,2.185997634922,5.421218260897
    ));
#218 = CARTESIAN_POINT('',(13.23821656051,2.078816800198,5.126741337695)
  );
#219 = CARTESIAN_POINT('',(12.833121019108,2.078816800198,5.126741337695
    ));
#220 = VECTOR('',#221,1.);
#221 = DIRECTION('',(-0.,0.939692620786,-0.342020143326));
#222 = ADVANCED_FACE('',(#223),#248,.T.);
#223 = FACE_BOUND('',#224,.T.);
#224 = EDGE_LOOP('',(#225,#226,#234,#242));
#225 = ORIENTED_EDGE('',*,*,#202,.T.);
#226 = ORIENTED_EDGE('',*,*,#227,.T.);
#227 = EDGE_CURVE('',#195,#228,#230,.T.);
#228 = VERTEX_POINT('',#229);
#229 = CARTESIAN_POINT('',(12.072526539278,1.443364075449,5.719892845445
    ));
#230 = B_SPLINE_CURVE_WITH_KNOTS('',2,(#231,#232,#233),.UNSPECIFIED.,.F.
  ,.F.,(3,3),(0.,1.),.PIECEWISE_BEZIER_KNOTS.);
#231 = CARTESIAN_POINT('',(12.833121019108,1.32706270357,5.400357452355)
  );
#232 = CARTESIAN_POINT('',(12.392356687898,1.32706270357,5.400357452355)
  );
#233 = CARTESIAN_POINT('',(12.072526539278,1.443364075449,5.719892845445
    ));
#234 = ORIENTED_EDGE('',*,*,#235,.F.);
#235 = EDGE_CURVE('',#236,#228,#238,.T.);
#236 = VERTEX_POINT('',#237);
#237 = CARTESIAN_POINT('',(12.072526539278,2.195118172077,5.446276730784
    ));
#238 = LINE('',#239,#240);
#239 = CARTESIAN_POINT('',(12.072526539278,2.195118172077,5.446276730784
    ));
#240 = VECTOR('',#241,1.);
#241 = DIRECTION('',(0.,-0.939692620786,0.342020143326));
#242 = ORIENTED_EDGE('',*,*,#243,.F.);
#243 = EDGE_CURVE('',#203,#236,#244,.T.);
#244 = B_SPLINE_CURVE_WITH_KNOTS('',2,(#245,#246,#247),.UNSPECIFIED.,.F.
  ,.F.,(3,3),(0.,1.),.PIECEWISE_BEZIER_KNOTS.);
#245 = CARTESIAN_POINT('',(12.833121019108,2.078816800198,5.126741337695
    ));
#246 = CARTESIAN_POINT('',(12.392356687898,2.078816800198,5.126741337695
    ));
#247 = CARTESIAN_POINT('',(12.072526539278,2.195118172077,5.446276730784
    ));
#248 = SURFACE_OF_LINEAR_EXTRUSION('',#249,#253);
#249 = B_SPLINE_CURVE_WITH_KNOTS('',2,(#250,#251,#252),.UNSPECIFIED.,.F.
  ,.F.,(3,3),(0.,1.),.PIECEWISE_BEZIER_KNOTS.);
#250 = CARTESIAN_POINT('',(12.833121019108,2.078816800198,5.126741337695
    ));
#251 = CARTESIAN_POINT('',(12.392356687898,2.078816800198,5.126741337695
    ));
#252 = CARTESIAN_POINT('',(12.072526539278,2.195118172077,5.446276730784
    ));
#253 = VECTOR('',#254,1.);
#254 = DIRECTION('',(-0.,0.939692620786,-0.342020143326));
#255 = ADVANCED_FACE('',(#256),#281,.T.);
#256 = FACE_BOUND('',#257,.T.);
#257 = EDGE_LOOP('',(#258,#259,#267,#275));
#258 = ORIENTED_EDGE('',*,*,#235,.T.);
#259 = ORIENTED_EDGE('',*,*,#260,.T.);
#260 = EDGE_CURVE('',#228,#261,#263,.T.);
#261 = VERTEX_POINT('',#262);
#262 = CARTESIAN_POINT('',(11.752866242038,1.746200764562,6.551929810567
    ));
#263 = B_SPLINE_CURVE_WITH_KNOTS('',2,(#264,#265,#266),.UNSPECIFIED.,.F.
  ,.F.,(3,3),(0.,1.),.PIECEWISE_BEZIER_KNOTS.);
#264 = CARTESIAN_POINT('',(12.072526539278,1.443364075449,5.719892845445
    ));
#265 = CARTESIAN_POINT('',(11.752866242038,1.559723539921,6.039587846623
    ));
#266 = CARTESIAN_POINT('',(11.752866242038,1.746200764562,6.551929810567
    ));
#267 = ORIENTED_EDGE('',*,*,#268,.F.);
#268 = EDGE_CURVE('',#269,#261,#271,.T.);
#269 = VERTEX_POINT('',#270);
#270 = CARTESIAN_POINT('',(11.752866242038,2.497954861191,6.278313695906
    ));
#271 = LINE('',#272,#273);
#272 = CARTESIAN_POINT('',(11.752866242038,2.497954861191,6.278313695906
    ));
#273 = VECTOR('',#274,1.);
#274 = DIRECTION('',(0.,-0.939692620786,0.342020143326));
#275 = ORIENTED_EDGE('',*,*,#276,.F.);
#276 = EDGE_CURVE('',#236,#269,#277,.T.);
#277 = B_SPLINE_CURVE_WITH_KNOTS('',2,(#278,#279,#280),.UNSPECIFIED.,.F.
  ,.F.,(3,3),(0.,1.),.PIECEWISE_BEZIER_KNOTS.);
#278 = CARTESIAN_POINT('',(12.072526539278,2.195118172077,5.446276730784
    ));
#279 = CARTESIAN_POINT('',(11.752866242038,2.31147763655,5.765971731962)
  );
#280 = CARTESIAN_POINT('',(11.752866242038,2.497954861191,6.278313695906
    ));
#281 = SURFACE_OF_LINEAR_EXTRUSION('',#282,#286);
#282 = B_SPLINE_CURVE_WITH_KNOTS('',2,(#283,#284,#285),.UNSPECIFIED.,.F.
  ,.F.,(3,3),(0.,1.),.PIECEWISE_BEZIER_KNOTS.);
#283 = CARTESIAN_POINT('',(12.072526539278,2.195118172077,5.446276730784
    ));
#284 = CARTESIAN_POINT('',(11.752866242038,2.31147763655,5.765971731962)
  );
#285 = CARTESIAN_POINT('',(11.752866242038,2.497954861191,6.278313695906
    ));
#286 = VECTOR('',#287,1.);
#287 = DIRECTION('',(-0.,0.939692620786,-0.342020143326));
#288 = ADVANCED_FACE('',(#289),#314,.T.);
#289 = FACE_BOUND('',#290,.T.);
#290 = EDGE_LOOP('',(#291,#292,#300,#308));
#291 = ORIENTED_EDGE('',*,*,#268,.T.);
#292 = ORIENTED_EDGE('',*,*,#293,.T.);
#293 = EDGE_CURVE('',#261,#294,#296,.T.);
#294 = VERTEX_POINT('',#295);
#295 = CARTESIAN_POINT('',(12.090360934183,2.059494120478,7.412696231611
    ));
#296 = B_SPLINE_CURVE_WITH_KNOTS('',2,(#297,#298,#299),.UNSPECIFIED.,.F.
  ,.F.,(3,3),(0.,1.),.PIECEWISE_BEZIER_KNOTS.);
#297 = CARTESIAN_POINT('',(11.752866242038,1.746200764562,6.551929810567
    ));
#298 = CARTESIAN_POINT('',(11.752866242038,1.940578581899,7.085978474541
    ));
#299 = CARTESIAN_POINT('',(12.090360934183,2.059494120478,7.412696231611
    ));
#300 = ORIENTED_EDGE('',*,*,#301,.F.);
#301 = EDGE_CURVE('',#302,#294,#304,.T.);
#302 = VERTEX_POINT('',#303);
#303 = CARTESIAN_POINT('',(12.090360934183,2.811248217107,7.139080116951
    ));
#304 = LINE('',#305,#306);
#305 = CARTESIAN_POINT('',(12.090360934183,2.811248217107,7.139080116951
    ));
#306 = VECTOR('',#307,1.);
#307 = DIRECTION('',(0.,-0.939692620786,0.342020143326));
#308 = ORIENTED_EDGE('',*,*,#309,.F.);
#309 = EDGE_CURVE('',#269,#302,#310,.T.);
#310 = B_SPLINE_CURVE_WITH_KNOTS('',2,(#311,#312,#313),.UNSPECIFIED.,.F.
  ,.F.,(3,3),(0.,1.),.PIECEWISE_BEZIER_KNOTS.);
#311 = CARTESIAN_POINT('',(11.752866242038,2.497954861191,6.278313695906
    ));
#312 = CARTESIAN_POINT('',(11.752866242038,2.692332678527,6.812362359881
    ));
#313 = CARTESIAN_POINT('',(12.090360934183,2.811248217107,7.139080116951
    ));
#314 = SURFACE_OF_LINEAR_EXTRUSION('',#315,#319);
#315 = B_SPLINE_CURVE_WITH_KNOTS('',2,(#316,#317,#318),.UNSPECIFIED.,.F.
  ,.F.,(3,3),(0.,1.),.PIECEWISE_BEZIER_KNOTS.);
#316 = CARTESIAN_POINT('',(11.752866242038,2.497954861191,6.278313695906
    ));
#317 = CARTESIAN_POINT('',(11.752866242038,2.692332678527,6.812362359881
    ));
#318 = CARTESIAN_POINT('',(12.090360934183,2.811248217107,7.139080116951
    ));
#319 = VECTOR('',#320,1.);
#320 = DIRECTION('',(-0.,0.939692620786,-0.342020143326));
#321 = ADVANCED_FACE('',(#322),#347,.T.);
#322 = FACE_BOUND('',#323,.T.);
#323 = EDGE_LOOP('',(#324,#325,#333,#341));
#324 = ORIENTED_EDGE('',*,*,#301,.T.);
#325 = ORIENTED_EDGE('',*,*,#326,.T.);
#326 = EDGE_CURVE('',#294,#327,#329,.T.);
#327 = VERTEX_POINT('',#328);
#328 = CARTESIAN_POINT('',(12.950318471338,2.178467751651,7.73957359677)
  );
#329 = B_SPLINE_CURVE_WITH_KNOTS('',2,(#330,#331,#332),.UNSPECIFIED.,.F.
  ,.F.,(3,3),(0.,1.),.PIECEWISE_BEZIER_KNOTS.);
#330 = CARTESIAN_POINT('',(12.090360934183,2.059494120478,7.412696231611
    ));
#331 = CARTESIAN_POINT('',(12.428025477707,2.178467751651,7.73957359677)
  );
#332 = CARTESIAN_POINT('',(12.950318471338,2.178467751651,7.73957359677)
  );
#333 = ORIENTED_EDGE('',*,*,#334,.F.);
#334 = EDGE_CURVE('',#335,#327,#337,.T.);
#335 = VERTEX_POINT('',#336);
#336 = CARTESIAN_POINT('',(12.950318471338,2.93022184828,7.465957482109)
  );
#337 = LINE('',#338,#339);
#338 = CARTESIAN_POINT('',(12.950318471338,2.93022184828,7.465957482109)
  );
#339 = VECTOR('',#340,1.);
#340 = DIRECTION('',(0.,-0.939692620786,0.342020143326));
#341 = ORIENTED_EDGE('',*,*,#342,.F.);
#342 = EDGE_CURVE('',#302,#335,#343,.T.);
#343 = B_SPLINE_CURVE_WITH_KNOTS('',2,(#344,#345,#346),.UNSPECIFIED.,.F.
  ,.F.,(3,3),(0.,1.),.PIECEWISE_BEZIER_KNOTS.);
#344 = CARTESIAN_POINT('',(12.090360934183,2.811248217107,7.139080116951
    ));
#345 = CARTESIAN_POINT('',(12.428025477707,2.93022184828,7.465957482109)
  );
#346 = CARTESIAN_POINT('',(12.950318471338,2.93022184828,7.465957482109)
  );
#347 = SURFACE_OF_LINEAR_EXTRUSION('',#348,#352);
#348 = B_SPLINE_CURVE_WITH_KNOTS('',2,(#349,#350,#351),.UNSPECIFIED.,.F.
  ,.F.,(3,3),(0.,1.),.PIECEWISE_BEZIER_KNOTS.);
#349 = CARTESIAN_POINT('',(12.090360934183,2.811248217107,7.139080116951
    ));
#350 = CARTESIAN_POINT('',(12.428025477707,2.93022184828,7.465957482109)
  );
#351 = CARTESIAN_POINT('',(12.950318471338,2.93022184828,7.465957482109)
  );
#352 = VECTOR('',#353,1.);
#353 = DIRECTION('',(-0.,0.939692620786,-0.342020143326));
#354 = ADVANCED_FACE('',(#355),#380,.T.);
#355 = FACE_BOUND('',#356,.T.);
#356 = EDGE_LOOP('',(#357,#358,#366,#374));
#357 = ORIENTED_EDGE('',*,*,#334,.T.);
#358 = ORIENTED_EDGE('',*,*,#359,.T.);
#359 = EDGE_CURVE('',#327,#360,#362,.T.);
#360 = VERTEX_POINT('',#361);
#361 = CARTESIAN_POINT('',(13.882802547771,2.027775564511,7.325550215314
    ));
#362 = B_SPLINE_CURVE_WITH_KNOTS('',2,(#363,#364,#365),.UNSPECIFIED.,.F.
  ,.F.,(3,3),(0.,1.),.PIECEWISE_BEZIER_KNOTS.);
#363 = CARTESIAN_POINT('',(12.950318471338,2.178467751651,7.73957359677)
  );
#364 = CARTESIAN_POINT('',(13.51847133758,2.178467751651,7.73957359677)
  );
#365 = CARTESIAN_POINT('',(13.882802547771,2.027775564511,7.325550215314
    ));
#366 = ORIENTED_EDGE('',*,*,#367,.F.);
#367 = EDGE_CURVE('',#368,#360,#370,.T.);
#368 = VERTEX_POINT('',#369);
#369 = CARTESIAN_POINT('',(13.882802547771,2.77952966114,7.051934100654)
  );
#370 = LINE('',#371,#372);
#371 = CARTESIAN_POINT('',(13.882802547771,2.77952966114,7.051934100654)
  );
#372 = VECTOR('',#373,1.);
#373 = DIRECTION('',(0.,-0.939692620786,0.342020143326));
#374 = ORIENTED_EDGE('',*,*,#375,.F.);
#375 = EDGE_CURVE('',#335,#368,#376,.T.);
#376 = B_SPLINE_CURVE_WITH_KNOTS('',2,(#377,#378,#379),.UNSPECIFIED.,.F.
  ,.F.,(3,3),(0.,1.),.PIECEWISE_BEZIER_KNOTS.);
#377 = CARTESIAN_POINT('',(12.950318471338,2.93022184828,7.465957482109)
  );
#378 = CARTESIAN_POINT('',(13.51847133758,2.93022184828,7.465957482109)
  );
#379 = CARTESIAN_POINT('',(13.882802547771,2.77952966114,7.051934100654)
  );
#380 = SURFACE_OF_LINEAR_EXTRUSION('',#381,#385);
#381 = B_SPLINE_CURVE_WITH_KNOTS('',2,(#382,#383,#384),.UNSPECIFIED.,.F.
  ,.F.,(3,3),(0.,1.),.PIECEWISE_BEZIER_KNOTS.);
#382 = CARTESIAN_POINT('',(12.950318471338,2.93022184828,7.465957482109)
  );
#383 = CARTESIAN_POINT('',(13.51847133758,2.93022184828,7.465957482109)
  );
#384 = CARTESIAN_POINT('',(13.882802547771,2.77952966114,7.051934100654)
  );
#385 = VECTOR('',#386,1.);
#386 = DIRECTION('',(-0.,0.939692620786,-0.342020143326));
#387 = ADVANCED_FACE('',(#388),#413,.T.);
#388 = FACE_BOUND('',#389,.T.);
#389 = EDGE_LOOP('',(#390,#391,#399,#407));
#390 = ORIENTED_EDGE('',*,*,#367,.T.);
#391 = ORIENTED_EDGE('',*,*,#392,.T.);
#392 = EDGE_CURVE('',#360,#393,#395,.T.);
#393 = VERTEX_POINT('',#394);
#394 = CARTESIAN_POINT('',(14.247133757962,1.531955280302,5.963295180341
    ));
#395 = B_SPLINE_CURVE_WITH_KNOTS('',2,(#396,#397,#398),.UNSPECIFIED.,.F.
  ,.F.,(3,3),(0.,1.),.PIECEWISE_BEZIER_KNOTS.);
#396 = CARTESIAN_POINT('',(13.882802547771,2.027775564511,7.325550215314
    ));
#397 = CARTESIAN_POINT('',(14.247133757962,1.877083377371,6.911526833859
    ));
#398 = CARTESIAN_POINT('',(14.247133757962,1.531955280302,5.963295180341
    ));
#399 = ORIENTED_EDGE('',*,*,#400,.F.);
#400 = EDGE_CURVE('',#401,#393,#403,.T.);
#401 = VERTEX_POINT('',#402);
#402 = CARTESIAN_POINT('',(14.247133757962,2.28370937693,5.68967906568)
  );
#403 = LINE('',#404,#405);
#404 = CARTESIAN_POINT('',(14.247133757962,2.28370937693,5.68967906568)
  );
#405 = VECTOR('',#406,1.);
#406 = DIRECTION('',(0.,-0.939692620786,0.342020143326));
#407 = ORIENTED_EDGE('',*,*,#408,.F.);
#408 = EDGE_CURVE('',#368,#401,#409,.T.);
#409 = B_SPLINE_CURVE_WITH_KNOTS('',2,(#410,#411,#412),.UNSPECIFIED.,.F.
  ,.F.,(3,3),(0.,1.),.PIECEWISE_BEZIER_KNOTS.);
#410 = CARTESIAN_POINT('',(13.882802547771,2.77952966114,7.051934100654)
  );
#411 = CARTESIAN_POINT('',(14.247133757962,2.628837474,6.637910719198));
#412 = CARTESIAN_POINT('',(14.247133757962,2.28370937693,5.68967906568)
  );
#413 = SURFACE_OF_LINEAR_EXTRUSION('',#414,#418);
#414 = B_SPLINE_CURVE_WITH_KNOTS('',2,(#415,#416,#417),.UNSPECIFIED.,.F.
  ,.F.,(3,3),(0.,1.),.PIECEWISE_BEZIER_KNOTS.);
#415 = CARTESIAN_POINT('',(13.882802547771,2.77952966114,7.051934100654)
  );
#416 = CARTESIAN_POINT('',(14.247133757962,2.628837474,6.637910719198));
#417 = CARTESIAN_POINT('',(14.247133757962,2.28370937693,5.68967906568)
  );
#418 = VECTOR('',#419,1.);
#419 = DIRECTION('',(-0.,0.939692620786,-0.342020143326));
#420 = ADVANCED_FACE('',(#421),#446,.T.);
#421 = FACE_BOUND('',#422,.T.);
#422 = EDGE_LOOP('',(#423,#424,#432,#440));
#423 = ORIENTED_EDGE('',*,*,#400,.T.);
#424 = ORIENTED_EDGE('',*,*,#425,.T.);
#425 = EDGE_CURVE('',#393,#426,#428,.T.);
#426 = VERTEX_POINT('',#427);
#427 = CARTESIAN_POINT('',(13.867515923567,1.025271681136,4.571193432825
    ));
#428 = B_SPLINE_CURVE_WITH_KNOTS('',2,(#429,#430,#431),.UNSPECIFIED.,.F.
  ,.F.,(3,3),(0.,1.),.PIECEWISE_BEZIER_KNOTS.);
#429 = CARTESIAN_POINT('',(14.247133757962,1.531955280302,5.963295180341
    ));
#430 = CARTESIAN_POINT('',(14.247133757962,1.180785553524,4.998464285623
    ));
#431 = CARTESIAN_POINT('',(13.867515923567,1.025271681136,4.571193432825
    ));
#432 = ORIENTED_EDGE('',*,*,#433,.F.);
#433 = EDGE_CURVE('',#434,#426,#436,.T.);
#434 = VERTEX_POINT('',#435);
#435 = CARTESIAN_POINT('',(13.867515923567,1.777025777765,4.297577318165
    ));
#436 = LINE('',#437,#438);
#437 = CARTESIAN_POINT('',(13.867515923567,1.777025777765,4.297577318165
    ));
#438 = VECTOR('',#439,1.);
#439 = DIRECTION('',(0.,-0.939692620786,0.342020143326));
#440 = ORIENTED_EDGE('',*,*,#441,.F.);
#441 = EDGE_CURVE('',#401,#434,#442,.T.);
#442 = B_SPLINE_CURVE_WITH_KNOTS('',2,(#443,#444,#445),.UNSPECIFIED.,.F.
  ,.F.,(3,3),(0.,1.),.PIECEWISE_BEZIER_KNOTS.);
#443 = CARTESIAN_POINT('',(14.247133757962,2.28370937693,5.68967906568)
  );
#444 = CARTESIAN_POINT('',(14.247133757962,1.932539650153,4.724848170962
    ));
#445 = CARTESIAN_POINT('',(13.867515923567,1.777025777765,4.297577318165
    ));
#446 = SURFACE_OF_LINEAR_EXTRUSION('',#447,#451);
#447 = B_SPLINE_CURVE_WITH_KNOTS('',2,(#448,#449,#450),.UNSPECIFIED.,.F.
  ,.F.,(3,3),(0.,1.),.PIECEWISE_BEZIER_KNOTS.);
#448 = CARTESIAN_POINT('',(14.247133757962,2.28370937693,5.68967906568)
  );
#449 = CARTESIAN_POINT('',(14.247133757962,1.932539650153,4.724848170962
    ));
#450 = CARTESIAN_POINT('',(13.867515923567,1.777025777765,4.297577318165
    ));
#451 = VECTOR('',#452,1.);
#452 = DIRECTION('',(-0.,0.939692620786,-0.342020143326));
#453 = ADVANCED_FACE('',(#454),#479,.T.);
#454 = FACE_BOUND('',#455,.T.);
#455 = EDGE_LOOP('',(#456,#457,#465,#473));
#456 = ORIENTED_EDGE('',*,*,#433,.T.);
#457 = ORIENTED_EDGE('',*,*,#458,.T.);
#458 = EDGE_CURVE('',#426,#459,#461,.T.);
#459 = VERTEX_POINT('',#460);
#460 = CARTESIAN_POINT('',(12.87898089172,0.869757808748,4.143922580028)
  );
#461 = B_SPLINE_CURVE_WITH_KNOTS('',2,(#462,#463,#464),.UNSPECIFIED.,.F.
  ,.F.,(3,3),(0.,1.),.PIECEWISE_BEZIER_KNOTS.);
#462 = CARTESIAN_POINT('',(13.867515923567,1.025271681136,4.571193432825
    ));
#463 = CARTESIAN_POINT('',(13.487898089172,0.869757808748,4.143922580028
    ));
#464 = CARTESIAN_POINT('',(12.87898089172,0.869757808748,4.143922580028)
  );
#465 = ORIENTED_EDGE('',*,*,#466,.F.);
#466 = EDGE_CURVE('',#467,#459,#469,.T.);
#467 = VERTEX_POINT('',#468);
#468 = CARTESIAN_POINT('',(12.87898089172,1.621511905377,3.870306465368)
  );
#469 = LINE('',#470,#471);
#470 = CARTESIAN_POINT('',(12.87898089172,1.621511905377,3.870306465368)
  );
#471 = VECTOR('',#472,1.);
#472 = DIRECTION('',(0.,-0.939692620786,0.342020143326));
#473 = ORIENTED_EDGE('',*,*,#474,.F.);
#474 = EDGE_CURVE('',#434,#467,#475,.T.);
#475 = B_SPLINE_CURVE_WITH_KNOTS('',2,(#476,#477,#478),.UNSPECIFIED.,.F.
  ,.F.,(3,3),(0.,1.),.PIECEWISE_BEZIER_KNOTS.);
#476 = CARTESIAN_POINT('',(13.867515923567,1.777025777765,4.297577318165
    ));
#477 = CARTESIAN_POINT('',(13.487898089172,1.621511905377,3.870306465368
    ));
#478 = CARTESIAN_POINT('',(12.87898089172,1.621511905377,3.870306465368)
  );
#479 = SURFACE_OF_LINEAR_EXTRUSION('',#480,#484);
#480 = B_SPLINE_CURVE_WITH_KNOTS('',2,(#481,#482,#483),.UNSPECIFIED.,.F.
  ,.F.,(3,3),(0.,1.),.PIECEWISE_BEZIER_KNOTS.);
#481 = CARTESIAN_POINT('',(13.867515923567,1.777025777765,4.297577318165
    ));
#482 = CARTESIAN_POINT('',(13.487898089172,1.621511905377,3.870306465368
    ));
#483 = CARTESIAN_POINT('',(12.87898089172,1.621511905377,3.870306465368)
  );
#484 = VECTOR('',#485,1.);
#485 = DIRECTION('',(-0.,0.939692620786,-0.342020143326));
#486 = ADVANCED_FACE('',(#487),#512,.T.);
#487 = FACE_BOUND('',#488,.T.);
#488 = EDGE_LOOP('',(#489,#490,#498,#506));
#489 = ORIENTED_EDGE('',*,*,#466,.T.);
#490 = ORIENTED_EDGE('',*,*,#491,.T.);
#491 = EDGE_CURVE('',#459,#492,#494,.T.);
#492 = VERTEX_POINT('',#493);
#493 = CARTESIAN_POINT('',(12.170700636943,0.949925587566,4.364181742098
    ));
#494 = B_SPLINE_CURVE_WITH_KNOTS('',2,(#495,#496,#497),.UNSPECIFIED.,.F.
  ,.F.,(3,3),(0.,1.),.PIECEWISE_BEZIER_KNOTS.);
#495 = CARTESIAN_POINT('',(12.87898089172,0.869757808748,4.143922580028)
  );
#496 = CARTESIAN_POINT('',(12.44076433121,0.869757808748,4.143922580028)
  );
#497 = CARTESIAN_POINT('',(12.170700636943,0.949925587566,4.364181742098
    ));
#498 = ORIENTED_EDGE('',*,*,#499,.F.);
#499 = EDGE_CURVE('',#500,#492,#502,.T.);
#500 = VERTEX_POINT('',#501);
#501 = CARTESIAN_POINT('',(12.170700636943,1.701679684195,4.090565627437
    ));
#502 = LINE('',#503,#504);
#503 = CARTESIAN_POINT('',(12.170700636943,1.701679684195,4.090565627437
    ));
#504 = VECTOR('',#505,1.);
#505 = DIRECTION('',(0.,-0.939692620786,0.342020143326));
#506 = ORIENTED_EDGE('',*,*,#507,.F.);
#507 = EDGE_CURVE('',#467,#500,#508,.T.);
#508 = B_SPLINE_CURVE_WITH_KNOTS('',2,(#509,#510,#511),.UNSPECIFIED.,.F.
  ,.F.,(3,3),(0.,1.),.PIECEWISE_BEZIER_KNOTS.);
#509 = CARTESIAN_POINT('',(12.87898089172,1.621511905377,3.870306465368)
  );
#510 = CARTESIAN_POINT('',(12.44076433121,1.621511905377,3.870306465368)
  );
#511 = CARTESIAN_POINT('',(12.170700636943,1.701679684195,4.090565627437
    ));
#512 = SURFACE_OF_LINEAR_EXTRUSION('',#513,#517);
#513 = B_SPLINE_CURVE_WITH_KNOTS('',2,(#514,#515,#516),.UNSPECIFIED.,.F.
  ,.F.,(3,3),(0.,1.),.PIECEWISE_BEZIER_KNOTS.);
#514 = CARTESIAN_POINT('',(12.87898089172,1.621511905377,3.870306465368)
  );
#515 = CARTESIAN_POINT('',(12.44076433121,1.621511905377,3.870306465368)
  );
#516 = CARTESIAN_POINT('',(12.170700636943,1.701679684195,4.090565627437
    ));
#517 = VECTOR('',#518,1.);
#518 = DIRECTION('',(-0.,0.939692620786,-0.342020143326));
#519 = ADVANCED_FACE('',(#520),#536,.T.);
#520 = FACE_BOUND('',#521,.T.);
#521 = EDGE_LOOP('',(#522,#523,#529,#530));
#522 = ORIENTED_EDGE('',*,*,#499,.T.);
#523 = ORIENTED_EDGE('',*,*,#524,.T.);
#524 = EDGE_CURVE('',#492,#24,#525,.T.);
#525 = B_SPLINE_CURVE_WITH_KNOTS('',2,(#526,#527,#528),.UNSPECIFIED.,.F.
  ,.F.,(3,3),(0.,1.),.PIECEWISE_BEZIER_KNOTS.);
#526 = CARTESIAN_POINT('',(12.170700636943,0.949925587566,4.364181742098
    ));
#527 = CARTESIAN_POINT('',(11.900636942675,1.030093366384,4.584440904167
    ));
#528 = CARTESIAN_POINT('',(11.824203821656,1.189499442526,5.022405498891
    ));
#529 = ORIENTED_EDGE('',*,*,#21,.F.);
#530 = ORIENTED_EDGE('',*,*,#531,.F.);
#531 = EDGE_CURVE('',#500,#22,#532,.T.);
#532 = B_SPLINE_CURVE_WITH_KNOTS('',2,(#533,#534,#535),.UNSPECIFIED.,.F.
  ,.F.,(3,3),(0.,1.),.PIECEWISE_BEZIER_KNOTS.);
#533 = CARTESIAN_POINT('',(12.170700636943,1.701679684195,4.090565627437
    ));
#534 = CARTESIAN_POINT('',(11.900636942675,1.781847463013,4.310824789507
    ));
#535 = CARTESIAN_POINT('',(11.824203821656,1.941253539154,4.748789384231
    ));
#536 = SURFACE_OF_LINEAR_EXTRUSION('',#537,#541);
#537 = B_SPLINE_CURVE_WITH_KNOTS('',2,(#538,#539,#540),.UNSPECIFIED.,.F.
  ,.F.,(3,3),(0.,1.),.PIECEWISE_BEZIER_KNOTS.);
#538 = CARTESIAN_POINT('',(12.170700636943,1.701679684195,4.090565627437
    ));
#539 = CARTESIAN_POINT('',(11.900636942675,1.781847463013,4.310824789507
    ));
#540 = CARTESIAN_POINT('',(11.824203821656,1.941253539154,4.748789384231
    ));
#541 = VECTOR('',#542,1.);
#542 = DIRECTION('',(-0.,0.939692620786,-0.342020143326));
#543 = ADVANCED_FACE('',(#544),#562,.F.);
#544 = FACE_BOUND('',#545,.T.);
#545 = EDGE_LOOP('',(#546,#547,#548,#549,#550,#551,#552,#553,#554,#555,
    #556,#557,#558,#559,#560,#561));
#546 = ORIENTED_EDGE('',*,*,#47,.T.);
#547 = ORIENTED_EDGE('',*,*,#78,.T.);
#548 = ORIENTED_EDGE('',*,*,#111,.T.);
#549 = ORIENTED_EDGE('',*,*,#144,.T.);
#550 = ORIENTED_EDGE('',*,*,#177,.T.);
#551 = ORIENTED_EDGE('',*,*,#210,.T.);
#552 = ORIENTED_EDGE('',*,*,#243,.T.);
#553 = ORIENTED_EDGE('',*,*,#276,.T.);
#554 = ORIENTED_EDGE('',*,*,#309,.T.);
#555 = ORIENTED_EDGE('',*,*,#342,.T.);
#556 = ORIENTED_EDGE('',*,*,#375,.T.);
#557 = ORIENTED_EDGE('',*,*,#408,.T.);
#558 = ORIENTED_EDGE('',*,*,#441,.T.);
#559 = ORIENTED_EDGE('',*,*,#474,.T.);
#560 = ORIENTED_EDGE('',*,*,#507,.T.);
#561 = ORIENTED_EDGE('',*,*,#531,.T.);
#562 = PLANE('',#563);
#563 = AXIS2_PLACEMENT_3D('',#564,#565,#566);
#564 = CARTESIAN_POINT('',(12.985613679542,2.206470172158,5.477466094672
    ));
#565 = DIRECTION('',(0.,-0.939692620786,0.342020143326));
#566 = DIRECTION('',(1.,0.,0.));
#567 = ADVANCED_FACE('',(#568),#586,.T.);
#568 = FACE_BOUND('',#569,.F.);
#569 = EDGE_LOOP('',(#570,#571,#572,#573,#574,#575,#576,#577,#578,#579,
    #580,#581,#582,#583,#584,#585));
#570 = ORIENTED_EDGE('',*,*,#31,.T.);
#571 = ORIENTED_EDGE('',*,*,#62,.T.);
#572 = ORIENTED_EDGE('',*,*,#95,.T.);
#573 = ORIENTED_EDGE('',*,*,#128,.T.);
#574 = ORIENTED_EDGE('',*,*,#161,.T.);
#575 = ORIENTED_EDGE('',*,*,#194,.T.);
#576 = ORIENTED_EDGE('',*,*,#227,.T.);
#577 = ORIENTED_EDGE('',*,*,#260,.T.);
#578 = ORIENTED_EDGE('',*,*,#293,.T.);
#579 = ORIENTED_EDGE('',*,*,#326,.T.);
#580 = ORIENTED_EDGE('',*,*,#359,.T.);
#581 = ORIENTED_EDGE('',*,*,#392,.T.);
#582 = ORIENTED_EDGE('',*,*,#425,.T.);
#583 = ORIENTED_EDGE('',*,*,#458,.T.);
#584 = ORIENTED_EDGE('',*,*,#491,.T.);
#585 = ORIENTED_EDGE('',*,*,#524,.T.);
#586 = PLANE('',#587);
#587 = AXIS2_PLACEMENT_3D('',#588,#589,#590);
#588 = CARTESIAN_POINT('',(12.985613679542,1.45471607553,5.751082209333)
  );
#589 = DIRECTION('',(0.,-0.939692620786,0.342020143326));
#590 = DIRECTION('',(1.,0.,0.));
#591 = MANIFOLD_SOLID_BREP('',#592);
#592 = CLOSED_SHELL('',(#593,#635,#668,#701,#734,#767,#800,#833,#857,
    #873));
#593 = ADVANCED_FACE('',(#594),#628,.F.);
#594 = FACE_BOUND('',#595,.F.);
#595 = EDGE_LOOP('',(#596,#606,#614,#622));
#596 = ORIENTED_EDGE('',*,*,#597,.T.);
#597 = EDGE_CURVE('',#598,#600,#602,.T.);
#598 = VERTEX_POINT('',#599);
#599 = CARTESIAN_POINT('',(13.444585987261,2.476692972026,6.219897135531
    ));
#600 = VERTEX_POINT('',#601);
#601 = CARTESIAN_POINT('',(13.444585987261,1.724938875398,6.493513250192
    ));
#602 = LINE('',#603,#604);
#603 = CARTESIAN_POINT('',(13.444585987261,2.476692972026,6.219897135531
    ));
#604 = VECTOR('',#605,1.);
#605 = DIRECTION('',(0.,-0.939692620786,0.342020143326));
#606 = ORIENTED_EDGE('',*,*,#607,.T.);
#607 = EDGE_CURVE('',#600,#608,#610,.T.);
#608 = VERTEX_POINT('',#609);
#609 = CARTESIAN_POINT('',(13.285265392781,1.908685748152,6.998353633979
    ));
#610 = B_SPLINE_CURVE_WITH_KNOTS('',2,(#611,#612,#613),.UNSPECIFIED.,.F.
  ,.F.,(3,3),(0.,1.),.PIECEWISE_BEZIER_KNOTS.);
#611 = CARTESIAN_POINT('',(13.444585987261,1.724938875398,6.493513250192
    ));
#612 = CARTESIAN_POINT('',(13.444585987261,1.84338967323,6.818954142554)
  );
#613 = CARTESIAN_POINT('',(13.285265392781,1.908685748152,6.998353633979
    ));
#614 = ORIENTED_EDGE('',*,*,#615,.F.);
#615 = EDGE_CURVE('',#616,#608,#618,.T.);
#616 = VERTEX_POINT('',#617);
#617 = CARTESIAN_POINT('',(13.285265392781,2.66043984478,6.724737519318)
  );
#618 = LINE('',#619,#620);
#619 = CARTESIAN_POINT('',(13.285265392781,2.66043984478,6.724737519318)
  );
#620 = VECTOR('',#621,1.);
#621 = DIRECTION('',(0.,-0.939692620786,0.342020143326));
#622 = ORIENTED_EDGE('',*,*,#623,.F.);
#623 = EDGE_CURVE('',#598,#616,#624,.T.);
#624 = B_SPLINE_CURVE_WITH_KNOTS('',2,(#625,#626,#627),.UNSPECIFIED.,.F.
  ,.F.,(3,3),(0.,1.),.PIECEWISE_BEZIER_KNOTS.);
#625 = CARTESIAN_POINT('',(13.444585987261,2.476692972026,6.219897135531
    ));
#626 = CARTESIAN_POINT('',(13.444585987261,2.595143769859,6.545338027894
    ));
#627 = CARTESIAN_POINT('',(13.285265392781,2.66043984478,6.724737519318)
  );
#628 = SURFACE_OF_LINEAR_EXTRUSION('',#629,#633);
#629 = B_SPLINE_CURVE_WITH_KNOTS('',2,(#630,#631,#632),.UNSPECIFIED.,.F.
  ,.F.,(3,3),(0.,1.),.PIECEWISE_BEZIER_KNOTS.);
#630 = CARTESIAN_POINT('',(13.444585987261,2.476692972026,6.219897135531
    ));
#631 = CARTESIAN_POINT('',(13.444585987261,2.595143769859,6.545338027894
    ));
#632 = CARTESIAN_POINT('',(13.285265392781,2.66043984478,6.724737519318)
  );
#633 = VECTOR('',#634,1.);
#634 = DIRECTION('',(-0.,0.939692620786,-0.342020143326));
#635 = ADVANCED_FACE('',(#636),#661,.F.);
#636 = FACE_BOUND('',#637,.F.);
#637 = EDGE_LOOP('',(#638,#639,#647,#655));
#638 = ORIENTED_EDGE('',*,*,#615,.T.);
#639 = ORIENTED_EDGE('',*,*,#640,.T.);
#640 = EDGE_CURVE('',#608,#641,#643,.T.);
#641 = VERTEX_POINT('',#642);
#642 = CARTESIAN_POINT('',(12.917197452229,1.973981823073,7.177753125404
    ));
#643 = B_SPLINE_CURVE_WITH_KNOTS('',2,(#644,#645,#646),.UNSPECIFIED.,.F.
  ,.F.,(3,3),(0.,1.),.PIECEWISE_BEZIER_KNOTS.);
#644 = CARTESIAN_POINT('',(13.285265392781,1.908685748152,6.998353633979
    ));
#645 = CARTESIAN_POINT('',(13.126114649682,1.973981823073,7.177753125404
    ));
#646 = CARTESIAN_POINT('',(12.917197452229,1.973981823073,7.177753125404
    ));
#647 = ORIENTED_EDGE('',*,*,#648,.F.);
#648 = EDGE_CURVE('',#649,#641,#651,.T.);
#649 = VERTEX_POINT('',#650);
#650 = CARTESIAN_POINT('',(12.917197452229,2.725735919701,6.904137010743
    ));
#651 = LINE('',#652,#653);
#652 = CARTESIAN_POINT('',(12.917197452229,2.725735919701,6.904137010743
    ));
#653 = VECTOR('',#654,1.);
#654 = DIRECTION('',(0.,-0.939692620786,0.342020143326));
#655 = ORIENTED_EDGE('',*,*,#656,.F.);
#656 = EDGE_CURVE('',#616,#649,#657,.T.);
#657 = B_SPLINE_CURVE_WITH_KNOTS('',2,(#658,#659,#660),.UNSPECIFIED.,.F.
  ,.F.,(3,3),(0.,1.),.PIECEWISE_BEZIER_KNOTS.);
#658 = CARTESIAN_POINT('',(13.285265392781,2.66043984478,6.724737519318)
  );
#659 = CARTESIAN_POINT('',(13.126114649682,2.725735919701,6.904137010743
    ));
#660 = CARTESIAN_POINT('',(12.917197452229,2.725735919701,6.904137010743
    ));
#661 = SURFACE_OF_LINEAR_EXTRUSION('',#662,#666);
#662 = B_SPLINE_CURVE_WITH_KNOTS('',2,(#663,#664,#665),.UNSPECIFIED.,.F.
  ,.F.,(3,3),(0.,1.),.PIECEWISE_BEZIER_KNOTS.);
#663 = CARTESIAN_POINT('',(13.285265392781,2.66043984478,6.724737519318)
  );
#664 = CARTESIAN_POINT('',(13.126114649682,2.725735919701,6.904137010743
    ));
#665 = CARTESIAN_POINT('',(12.917197452229,2.725735919701,6.904137010743
    ));
#666 = VECTOR('',#667,1.);
#667 = DIRECTION('',(-0.,0.939692620786,-0.342020143326));
#668 = ADVANCED_FACE('',(#669),#694,.F.);
#669 = FACE_BOUND('',#670,.F.);
#670 = EDGE_LOOP('',(#671,#672,#680,#688));
#671 = ORIENTED_EDGE('',*,*,#648,.T.);
#672 = ORIENTED_EDGE('',*,*,#673,.T.);
#673 = EDGE_CURVE('',#641,#674,#676,.T.);
#674 = VERTEX_POINT('',#675);
#675 = CARTESIAN_POINT('',(12.587176220807,1.920420452007,7.030594467847
    ));
#676 = B_SPLINE_CURVE_WITH_KNOTS('',2,(#677,#678,#679),.UNSPECIFIED.,.F.
  ,.F.,(3,3),(0.,1.),.PIECEWISE_BEZIER_KNOTS.);
#677 = CARTESIAN_POINT('',(12.917197452229,1.973981823073,7.177753125404
    ));
#678 = CARTESIAN_POINT('',(12.71847133758,1.973981823073,7.177753125404)
  );
#679 = CARTESIAN_POINT('',(12.587176220807,1.920420452007,7.030594467847
    ));
#680 = ORIENTED_EDGE('',*,*,#681,.F.);
#681 = EDGE_CURVE('',#682,#674,#684,.T.);
#682 = VERTEX_POINT('',#683);
#683 = CARTESIAN_POINT('',(12.587176220807,2.672174548636,6.756978353187
    ));
#684 = LINE('',#685,#686);
#685 = CARTESIAN_POINT('',(12.587176220807,2.672174548636,6.756978353187
    ));
#686 = VECTOR('',#687,1.);
#687 = DIRECTION('',(0.,-0.939692620786,0.342020143326));
#688 = ORIENTED_EDGE('',*,*,#689,.F.);
#689 = EDGE_CURVE('',#649,#682,#690,.T.);
#690 = B_SPLINE_CURVE_WITH_KNOTS('',2,(#691,#692,#693),.UNSPECIFIED.,.F.
  ,.F.,(3,3),(0.,1.),.PIECEWISE_BEZIER_KNOTS.);
#691 = CARTESIAN_POINT('',(12.917197452229,2.725735919701,6.904137010743
    ));
#692 = CARTESIAN_POINT('',(12.71847133758,2.725735919701,6.904137010743)
  );
#693 = CARTESIAN_POINT('',(12.587176220807,2.672174548636,6.756978353187
    ));
#694 = SURFACE_OF_LINEAR_EXTRUSION('',#695,#699);
#695 = B_SPLINE_CURVE_WITH_KNOTS('',2,(#696,#697,#698),.UNSPECIFIED.,.F.
  ,.F.,(3,3),(0.,1.),.PIECEWISE_BEZIER_KNOTS.);
#696 = CARTESIAN_POINT('',(12.917197452229,2.725735919701,6.904137010743
    ));
#697 = CARTESIAN_POINT('',(12.71847133758,2.725735919701,6.904137010743)
  );
#698 = CARTESIAN_POINT('',(12.587176220807,2.672174548636,6.756978353187
    ));
#699 = VECTOR('',#700,1.);
#700 = DIRECTION('',(-0.,0.939692620786,-0.342020143326));
#701 = ADVANCED_FACE('',(#702),#727,.F.);
#702 = FACE_BOUND('',#703,.F.);
#703 = EDGE_LOOP('',(#704,#705,#713,#721));
#704 = ORIENTED_EDGE('',*,*,#681,.T.);
#705 = ORIENTED_EDGE('',*,*,#706,.T.);
#706 = EDGE_CURVE('',#674,#707,#709,.T.);
#707 = VERTEX_POINT('',#708);
#708 = CARTESIAN_POINT('',(12.456050955414,1.744980820102,6.548578040709
    ));
#709 = B_SPLINE_CURVE_WITH_KNOTS('',2,(#710,#711,#712),.UNSPECIFIED.,.F.
  ,.F.,(3,3),(0.,1.),.PIECEWISE_BEZIER_KNOTS.);
#710 = CARTESIAN_POINT('',(12.587176220807,1.920420452007,7.030594467847
    ));
#711 = CARTESIAN_POINT('',(12.456050955414,1.866859080942,6.883435810291
    ));
#712 = CARTESIAN_POINT('',(12.456050955414,1.744980820102,6.548578040709
    ));
#713 = ORIENTED_EDGE('',*,*,#714,.F.);
#714 = EDGE_CURVE('',#715,#707,#717,.T.);
#715 = VERTEX_POINT('',#716);
#716 = CARTESIAN_POINT('',(12.456050955414,2.496734916731,6.274961926049
    ));
#717 = LINE('',#718,#719);
#718 = CARTESIAN_POINT('',(12.456050955414,2.496734916731,6.274961926049
    ));
#719 = VECTOR('',#720,1.);
#720 = DIRECTION('',(0.,-0.939692620786,0.342020143326));
#721 = ORIENTED_EDGE('',*,*,#722,.F.);
#722 = EDGE_CURVE('',#682,#715,#723,.T.);
#723 = B_SPLINE_CURVE_WITH_KNOTS('',2,(#724,#725,#726),.UNSPECIFIED.,.F.
  ,.F.,(3,3),(0.,1.),.PIECEWISE_BEZIER_KNOTS.);
#724 = CARTESIAN_POINT('',(12.587176220807,2.672174548636,6.756978353187
    ));
#725 = CARTESIAN_POINT('',(12.456050955414,2.618613177571,6.60981969563)
  );
#726 = CARTESIAN_POINT('',(12.456050955414,2.496734916731,6.274961926049
    ));
#727 = SURFACE_OF_LINEAR_EXTRUSION('',#728,#732);
#728 = B_SPLINE_CURVE_WITH_KNOTS('',2,(#729,#730,#731),.UNSPECIFIED.,.F.
  ,.F.,(3,3),(0.,1.),.PIECEWISE_BEZIER_KNOTS.);
#729 = CARTESIAN_POINT('',(12.587176220807,2.672174548636,6.756978353187
    ));
#730 = CARTESIAN_POINT('',(12.456050955414,2.618613177571,6.60981969563)
  );
#731 = CARTESIAN_POINT('',(12.456050955414,2.496734916731,6.274961926049
    ));
#732 = VECTOR('',#733,1.);
#733 = DIRECTION('',(-0.,0.939692620786,-0.342020143326));
#734 = ADVANCED_FACE('',(#735),#760,.F.);
#735 = FACE_BOUND('',#736,.F.);
#736 = EDGE_LOOP('',(#737,#738,#746,#754));
#737 = ORIENTED_EDGE('',*,*,#714,.T.);
#738 = ORIENTED_EDGE('',*,*,#739,.T.);
#739 = EDGE_CURVE('',#707,#740,#742,.T.);
#740 = VERTEX_POINT('',#741);
#741 = CARTESIAN_POINT('',(12.59872611465,1.563441465895,6.049802764284)
  );
#742 = B_SPLINE_CURVE_WITH_KNOTS('',2,(#743,#744,#745),.UNSPECIFIED.,.F.
  ,.F.,(3,3),(0.,1.),.PIECEWISE_BEZIER_KNOTS.);
#743 = CARTESIAN_POINT('',(12.456050955414,1.744980820102,6.548578040709
    ));
#744 = CARTESIAN_POINT('',(12.456050955414,1.621359781461,6.208932028475
    ));
#745 = CARTESIAN_POINT('',(12.59872611465,1.563441465895,6.049802764284)
  );
#746 = ORIENTED_EDGE('',*,*,#747,.F.);
#747 = EDGE_CURVE('',#748,#740,#750,.T.);
#748 = VERTEX_POINT('',#749);
#749 = CARTESIAN_POINT('',(12.59872611465,2.315195562524,5.776186649623)
  );
#750 = LINE('',#751,#752);
#751 = CARTESIAN_POINT('',(12.59872611465,2.315195562524,5.776186649623)
  );
#752 = VECTOR('',#753,1.);
#753 = DIRECTION('',(0.,-0.939692620786,0.342020143326));
#754 = ORIENTED_EDGE('',*,*,#755,.F.);
#755 = EDGE_CURVE('',#715,#748,#756,.T.);
#756 = B_SPLINE_CURVE_WITH_KNOTS('',2,(#757,#758,#759),.UNSPECIFIED.,.F.
  ,.F.,(3,3),(0.,1.),.PIECEWISE_BEZIER_KNOTS.);
#757 = CARTESIAN_POINT('',(12.456050955414,2.496734916731,6.274961926049
    ));
#758 = CARTESIAN_POINT('',(12.456050955414,2.37311387809,5.935315913814)
  );
#759 = CARTESIAN_POINT('',(12.59872611465,2.315195562524,5.776186649623)
  );
#760 = SURFACE_OF_LINEAR_EXTRUSION('',#761,#765);
#761 = B_SPLINE_CURVE_WITH_KNOTS('',2,(#762,#763,#764),.UNSPECIFIED.,.F.
  ,.F.,(3,3),(0.,1.),.PIECEWISE_BEZIER_KNOTS.);
#762 = CARTESIAN_POINT('',(12.456050955414,2.496734916731,6.274961926049
    ));
#763 = CARTESIAN_POINT('',(12.456050955414,2.37311387809,5.935315913814)
  );
#764 = CARTESIAN_POINT('',(12.59872611465,2.315195562524,5.776186649623)
  );
#765 = VECTOR('',#766,1.);
#766 = DIRECTION('',(-0.,0.939692620786,-0.342020143326));
#767 = ADVANCED_FACE('',(#768),#793,.F.);
#768 = FACE_BOUND('',#769,.F.);
#769 = EDGE_LOOP('',(#770,#771,#779,#787));
#770 = ORIENTED_EDGE('',*,*,#747,.T.);
#771 = ORIENTED_EDGE('',*,*,#772,.T.);
#772 = EDGE_CURVE('',#740,#773,#775,.T.);
#773 = VERTEX_POINT('',#774);
#774 = CARTESIAN_POINT('',(12.955414012739,1.505523150329,5.890673500093
    ));
#775 = B_SPLINE_CURVE_WITH_KNOTS('',2,(#776,#777,#778),.UNSPECIFIED.,.F.
  ,.F.,(3,3),(0.,1.),.PIECEWISE_BEZIER_KNOTS.);
#776 = CARTESIAN_POINT('',(12.59872611465,1.563441465895,6.049802764284)
  );
#777 = CARTESIAN_POINT('',(12.741401273885,1.505523150329,5.890673500093
    ));
#778 = CARTESIAN_POINT('',(12.955414012739,1.505523150329,5.890673500093
    ));
#779 = ORIENTED_EDGE('',*,*,#780,.F.);
#780 = EDGE_CURVE('',#781,#773,#783,.T.);
#781 = VERTEX_POINT('',#782);
#782 = CARTESIAN_POINT('',(12.955414012739,2.257277246958,5.617057385432
    ));
#783 = LINE('',#784,#785);
#784 = CARTESIAN_POINT('',(12.955414012739,2.257277246958,5.617057385432
    ));
#785 = VECTOR('',#786,1.);
#786 = DIRECTION('',(0.,-0.939692620786,0.342020143326));
#787 = ORIENTED_EDGE('',*,*,#788,.F.);
#788 = EDGE_CURVE('',#748,#781,#789,.T.);
#789 = B_SPLINE_CURVE_WITH_KNOTS('',2,(#790,#791,#792),.UNSPECIFIED.,.F.
  ,.F.,(3,3),(0.,1.),.PIECEWISE_BEZIER_KNOTS.);
#790 = CARTESIAN_POINT('',(12.59872611465,2.315195562524,5.776186649623)
  );
#791 = CARTESIAN_POINT('',(12.741401273885,2.257277246958,5.617057385432
    ));
#792 = CARTESIAN_POINT('',(12.955414012739,2.257277246958,5.617057385432
    ));
#793 = SURFACE_OF_LINEAR_EXTRUSION('',#794,#798);
#794 = B_SPLINE_CURVE_WITH_KNOTS('',2,(#795,#796,#797),.UNSPECIFIED.,.F.
  ,.F.,(3,3),(0.,1.),.PIECEWISE_BEZIER_KNOTS.);
#795 = CARTESIAN_POINT('',(12.59872611465,2.315195562524,5.776186649623)
  );
#796 = CARTESIAN_POINT('',(12.741401273885,2.257277246958,5.617057385432
    ));
#797 = CARTESIAN_POINT('',(12.955414012739,2.257277246958,5.617057385432
    ));
#798 = VECTOR('',#799,1.);
#799 = DIRECTION('',(-0.,0.939692620786,-0.342020143326));
#800 = ADVANCED_FACE('',(#801),#826,.F.);
#801 = FACE_BOUND('',#802,.F.);
#802 = EDGE_LOOP('',(#803,#804,#812,#820));
#803 = ORIENTED_EDGE('',*,*,#780,.T.);
#804 = ORIENTED_EDGE('',*,*,#805,.T.);
#805 = EDGE_CURVE('',#773,#806,#808,.T.);
#806 = VERTEX_POINT('',#807);
#807 = CARTESIAN_POINT('',(13.303099787686,1.561233947348,6.043737656922
    ));
#808 = B_SPLINE_CURVE_WITH_KNOTS('',2,(#809,#810,#811),.UNSPECIFIED.,.F.
  ,.F.,(3,3),(0.,1.),.PIECEWISE_BEZIER_KNOTS.);
#809 = CARTESIAN_POINT('',(12.955414012739,1.505523150329,5.890673500093
    ));
#810 = CARTESIAN_POINT('',(13.16178343949,1.505523150329,5.890673500093)
  );
#811 = CARTESIAN_POINT('',(13.303099787686,1.561233947348,6.043737656922
    ));
#812 = ORIENTED_EDGE('',*,*,#813,.F.);
#813 = EDGE_CURVE('',#814,#806,#816,.T.);
#814 = VERTEX_POINT('',#815);
#815 = CARTESIAN_POINT('',(13.303099787686,2.312988043977,5.770121542262
    ));
#816 = LINE('',#817,#818);
#817 = CARTESIAN_POINT('',(13.303099787686,2.312988043977,5.770121542262
    ));
#818 = VECTOR('',#819,1.);
#819 = DIRECTION('',(0.,-0.939692620786,0.342020143326));
#820 = ORIENTED_EDGE('',*,*,#821,.F.);
#821 = EDGE_CURVE('',#781,#814,#822,.T.);
#822 = B_SPLINE_CURVE_WITH_KNOTS('',2,(#823,#824,#825),.UNSPECIFIED.,.F.
  ,.F.,(3,3),(0.,1.),.PIECEWISE_BEZIER_KNOTS.);
#823 = CARTESIAN_POINT('',(12.955414012739,2.257277246958,5.617057385432
    ));
#824 = CARTESIAN_POINT('',(13.16178343949,2.257277246958,5.617057385432)
  );
#825 = CARTESIAN_POINT('',(13.303099787686,2.312988043977,5.770121542262
    ));
#826 = SURFACE_OF_LINEAR_EXTRUSION('',#827,#831);
#827 = B_SPLINE_CURVE_WITH_KNOTS('',2,(#828,#829,#830),.UNSPECIFIED.,.F.
  ,.F.,(3,3),(0.,1.),.PIECEWISE_BEZIER_KNOTS.);
#828 = CARTESIAN_POINT('',(12.955414012739,2.257277246958,5.617057385432
    ));
#829 = CARTESIAN_POINT('',(13.16178343949,2.257277246958,5.617057385432)
  );
#830 = CARTESIAN_POINT('',(13.303099787686,2.312988043977,5.770121542262
    ));
#831 = VECTOR('',#832,1.);
#832 = DIRECTION('',(-0.,0.939692620786,-0.342020143326));
#833 = ADVANCED_FACE('',(#834),#850,.F.);
#834 = FACE_BOUND('',#835,.F.);
#835 = EDGE_LOOP('',(#836,#837,#843,#844));
#836 = ORIENTED_EDGE('',*,*,#813,.T.);
#837 = ORIENTED_EDGE('',*,*,#838,.T.);
#838 = EDGE_CURVE('',#806,#600,#839,.T.);
#839 = B_SPLINE_CURVE_WITH_KNOTS('',2,(#840,#841,#842),.UNSPECIFIED.,.F.
  ,.F.,(3,3),(0.,1.),.PIECEWISE_BEZIER_KNOTS.);
#840 = CARTESIAN_POINT('',(13.303099787686,1.561233947348,6.043737656922
    ));
#841 = CARTESIAN_POINT('',(13.444585987261,1.61700283696,6.19696142184)
  );
#842 = CARTESIAN_POINT('',(13.444585987261,1.724938875398,6.493513250192
    ));
#843 = ORIENTED_EDGE('',*,*,#597,.F.);
#844 = ORIENTED_EDGE('',*,*,#845,.F.);
#845 = EDGE_CURVE('',#814,#598,#846,.T.);
#846 = B_SPLINE_CURVE_WITH_KNOTS('',2,(#847,#848,#849),.UNSPECIFIED.,.F.
  ,.F.,(3,3),(0.,1.),.PIECEWISE_BEZIER_KNOTS.);
#847 = CARTESIAN_POINT('',(13.303099787686,2.312988043977,5.770121542262
    ));
#848 = CARTESIAN_POINT('',(13.444585987261,2.368756933589,5.92334530718)
  );
#849 = CARTESIAN_POINT('',(13.444585987261,2.476692972026,6.219897135531
    ));
#850 = SURFACE_OF_LINEAR_EXTRUSION('',#851,#855);
#851 = B_SPLINE_CURVE_WITH_KNOTS('',2,(#852,#853,#854),.UNSPECIFIED.,.F.
  ,.F.,(3,3),(0.,1.),.PIECEWISE_BEZIER_KNOTS.);
#852 = CARTESIAN_POINT('',(13.303099787686,2.312988043977,5.770121542262
    ));
#853 = CARTESIAN_POINT('',(13.444585987261,2.368756933589,5.92334530718)
  );
#854 = CARTESIAN_POINT('',(13.444585987261,2.476692972026,6.219897135531
    ));
#855 = VECTOR('',#856,1.);
#856 = DIRECTION('',(-0.,0.939692620786,-0.342020143326));
#857 = ADVANCED_FACE('',(#858),#868,.T.);
#858 = FACE_BOUND('',#859,.F.);
#859 = EDGE_LOOP('',(#860,#861,#862,#863,#864,#865,#866,#867));
#860 = ORIENTED_EDGE('',*,*,#623,.T.);
#861 = ORIENTED_EDGE('',*,*,#656,.T.);
#862 = ORIENTED_EDGE('',*,*,#689,.T.);
#863 = ORIENTED_EDGE('',*,*,#722,.T.);
#864 = ORIENTED_EDGE('',*,*,#755,.T.);
#865 = ORIENTED_EDGE('',*,*,#788,.T.);
#866 = ORIENTED_EDGE('',*,*,#821,.T.);
#867 = ORIENTED_EDGE('',*,*,#845,.T.);
#868 = PLANE('',#869);
#869 = AXIS2_PLACEMENT_3D('',#870,#871,#872);
#870 = CARTESIAN_POINT('',(12.9439272467,2.490529491861,6.257912661342)
  );
#871 = DIRECTION('',(-0.,0.939692620786,-0.342020143326));
#872 = DIRECTION('',(-1.,0.,0.));
#873 = ADVANCED_FACE('',(#874),#884,.F.);
#874 = FACE_BOUND('',#875,.T.);
#875 = EDGE_LOOP('',(#876,#877,#878,#879,#880,#881,#882,#883));
#876 = ORIENTED_EDGE('',*,*,#607,.T.);
#877 = ORIENTED_EDGE('',*,*,#640,.T.);
#878 = ORIENTED_EDGE('',*,*,#673,.T.);
#879 = ORIENTED_EDGE('',*,*,#706,.T.);
#880 = ORIENTED_EDGE('',*,*,#739,.T.);
#881 = ORIENTED_EDGE('',*,*,#772,.T.);
#882 = ORIENTED_EDGE('',*,*,#805,.T.);
#883 = ORIENTED_EDGE('',*,*,#838,.T.);
#884 = PLANE('',#885);
#885 = AXIS2_PLACEMENT_3D('',#886,#887,#888);
#886 = CARTESIAN_POINT('',(12.9439272467,1.738775395233,6.531528776003)
  );
#887 = DIRECTION('',(-0.,0.939692620786,-0.342020143326));
#888 = DIRECTION('',(-1.,0.,0.));
#889 = ( GEOMETRIC_REPRESENTATION_CONTEXT(3) 
GLOBAL_UNCERTAINTY_ASSIGNED_CONTEXT((#893)) GLOBAL_UNIT_ASSIGNED_CONTEXT
((#890,#891,#892)) REPRESENTATION_CONTEXT('Context #1',
  '3D Context with UNIT and UNCERTAINTY') );
#890 = ( LENGTH_UNIT() NAMED_UNIT(*) SI_UNIT(.MILLI.,.METRE.) );
#891 = ( NAMED_UNIT(*) PLANE_ANGLE_UNIT() SI_UNIT($,.RADIAN.) );
#892 = ( NAMED_UNIT(*) SI_UNIT($,.STERADIAN.) SOLID_ANGLE_UNIT() );
#893 = UNCERTAINTY_MEASURE_WITH_UNIT(LENGTH_MEASURE(1.E-07),#890,
  'distance_accuracy_value','confusion accuracy');
#894 = PRODUCT_RELATED_PRODUCT_CATEGORY('part',$,(#7));
ENDSEC;
END-ISO-10303-21;
