ISO-10303-21;
HEADER;
FILE_DESCRIPTION(('FreeCAD Model'),'2;1');
FILE_NAME('Open CASCADE Shape Model','2026-08-29T16:16:43',('FreeCAD'),(
    'FreeCAD'),'Open CASCADE STEP processor 7.8','FreeCAD','Unknown');
FILE_SCHEMA(('AUTOMOTIVE_DESIGN { 1 0 10303 214 1 1 1 1 }'));
ENDSEC;
DATA;
#1 = APPLICATION_PROTOCOL_DEFINITION('international standard',
  'automotive_design',2000,#2);
#2 = APPLICATION_CONTEXT(
  'core data for automotive mechanical design processes');
#3 = SHAPE_DEFINITION_REPRESENTATION(#4,#10);
#4 = PRODUCT_DEFINITION_SHAPE('','',#5);
#5 = PRODUCT_DEFINITION('design','',#6,#9);
#6 = PRODUCT_DEFINITION_FORMATION('','',#7);
#7 = PRODUCT('Open CASCADE STEP translator 7.8 5',
  'Open CASCADE STEP translator 7.8 5','',(#8));
#8 = PRODUCT_CONTEXT('',#2,'mechanical');
#9 = PRODUCT_DEFINITION_CONTEXT('part definition',#2,'design');
#10 = ADVANCED_BREP_SHAPE_REPRESENTATION('',(#11,#15),#1607);
#11 = AXIS2_PLACEMENT_3D('',#12,#13,#14);
#12 = CARTESIAN_POINT('',(0.,0.,0.));
#13 = DIRECTION('',(0.,0.,1.));
#14 = DIRECTION('',(1.,0.,-0.));
#15 = MANIFOLD_SOLID_BREP('',#16);
#16 = CLOSED_SHELL('',(#17,#57,#222,#246,#334,#527,#544,#561,#578,#595,
    #612,#629,#646,#678,#702,#726,#751,#776,#800,#824,#842,#859,#890,
    #914,#938,#964,#990,#1014,#1040,#1057,#1088,#1112,#1136,#1162,#1188,
    #1212,#1238,#1255,#1286,#1310,#1334,#1366,#1390,#1414,#1439,#1464,
    #1488,#1512,#1530,#1547,#1563,#1579,#1591));
#17 = ADVANCED_FACE('',(#18),#52,.F.);
#18 = FACE_BOUND('',#19,.F.);
#19 = EDGE_LOOP('',(#20,#30,#38,#46));
#20 = ORIENTED_EDGE('',*,*,#21,.F.);
#21 = EDGE_CURVE('',#22,#24,#26,.T.);
#22 = VERTEX_POINT('',#23);
#23 = CARTESIAN_POINT('',(0.,3.639702342662,10.));
#24 = VERTEX_POINT('',#25);
#25 = CARTESIAN_POINT('',(0.,7.45,10.));
#26 = LINE('',#27,#28);
#27 = CARTESIAN_POINT('',(0.,0.,10.));
#28 = VECTOR('',#29,1.);
#29 = DIRECTION('',(0.,1.,0.));
#30 = ORIENTED_EDGE('',*,*,#31,.T.);
#31 = EDGE_CURVE('',#22,#32,#34,.T.);
#32 = VERTEX_POINT('',#33);
#33 = CARTESIAN_POINT('',(0.,0.,0.));
#34 = LINE('',#35,#36);
#35 = CARTESIAN_POINT('',(0.,0.,0.));
#36 = VECTOR('',#37,1.);
#37 = DIRECTION('',(0.,-0.342020143326,-0.939692620786));
#38 = ORIENTED_EDGE('',*,*,#39,.T.);
#39 = EDGE_CURVE('',#32,#40,#42,.T.);
#40 = VERTEX_POINT('',#41);
#41 = CARTESIAN_POINT('',(0.,7.45,0.));
#42 = LINE('',#43,#44);
#43 = CARTESIAN_POINT('',(0.,0.,0.));
#44 = VECTOR('',#45,1.);
#45 = DIRECTION('',(0.,1.,0.));
#46 = ORIENTED_EDGE('',*,*,#47,.T.);
#47 = EDGE_CURVE('',#40,#24,#48,.T.);
#48 = LINE('',#49,#50);
#49 = CARTESIAN_POINT('',(0.,7.45,-1.));
#50 = VECTOR('',#51,1.);
#51 = DIRECTION('',(0.,0.,1.));
#52 = PLANE('',#53);
#53 = AXIS2_PLACEMENT_3D('',#54,#55,#56);
#54 = CARTESIAN_POINT('',(0.,0.,0.));
#55 = DIRECTION('',(1.,0.,0.));
#56 = DIRECTION('',(0.,0.,1.));
#57 = ADVANCED_FACE('',(#58,#147),#217,.T.);
#58 = FACE_BOUND('',#59,.T.);
#59 = EDGE_LOOP('',(#60,#61,#69,#77,#85,#93,#101,#109,#117,#125,#133,
    #141));
#60 = ORIENTED_EDGE('',*,*,#21,.F.);
#61 = ORIENTED_EDGE('',*,*,#62,.T.);
#62 = EDGE_CURVE('',#22,#63,#65,.T.);
#63 = VERTEX_POINT('',#64);
#64 = CARTESIAN_POINT('',(26.,3.639702342662,10.));
#65 = LINE('',#66,#67);
#66 = CARTESIAN_POINT('',(-1.,3.639702342662,10.));
#67 = VECTOR('',#68,1.);
#68 = DIRECTION('',(1.,0.,0.));
#69 = ORIENTED_EDGE('',*,*,#70,.T.);
#70 = EDGE_CURVE('',#63,#71,#73,.T.);
#71 = VERTEX_POINT('',#72);
#72 = CARTESIAN_POINT('',(26.,7.575609756098,10.));
#73 = LINE('',#74,#75);
#74 = CARTESIAN_POINT('',(26.,0.,10.));
#75 = VECTOR('',#76,1.);
#76 = DIRECTION('',(0.,1.,0.));
#77 = ORIENTED_EDGE('',*,*,#78,.F.);
#78 = EDGE_CURVE('',#79,#71,#81,.T.);
#79 = VERTEX_POINT('',#80);
#80 = CARTESIAN_POINT('',(25.9,7.6,10.));
#81 = LINE('',#82,#83);
#82 = CARTESIAN_POINT('',(25.9,7.6,10.));
#83 = VECTOR('',#84,1.);
#84 = DIRECTION('',(0.971520338783,-0.236956180191,0.));
#85 = ORIENTED_EDGE('',*,*,#86,.F.);
#86 = EDGE_CURVE('',#87,#79,#89,.T.);
#87 = VERTEX_POINT('',#88);
#88 = CARTESIAN_POINT('',(25.9,11.6,10.));
#89 = LINE('',#90,#91);
#90 = CARTESIAN_POINT('',(25.9,11.6,10.));
#91 = VECTOR('',#92,1.);
#92 = DIRECTION('',(0.,-1.,0.));
#93 = ORIENTED_EDGE('',*,*,#94,.F.);
#94 = EDGE_CURVE('',#95,#87,#97,.T.);
#95 = VERTEX_POINT('',#96);
#96 = CARTESIAN_POINT('',(26.,11.624390243902,10.));
#97 = LINE('',#98,#99);
#98 = CARTESIAN_POINT('',(30.,12.6,10.));
#99 = VECTOR('',#100,1.);
#100 = DIRECTION('',(-0.971520338783,-0.236956180191,0.));
#101 = ORIENTED_EDGE('',*,*,#102,.T.);
#102 = EDGE_CURVE('',#95,#103,#105,.T.);
#103 = VERTEX_POINT('',#104);
#104 = CARTESIAN_POINT('',(26.,32.,10.));
#105 = LINE('',#106,#107);
#106 = CARTESIAN_POINT('',(26.,0.,10.));
#107 = VECTOR('',#108,1.);
#108 = DIRECTION('',(0.,1.,0.));
#109 = ORIENTED_EDGE('',*,*,#110,.F.);
#110 = EDGE_CURVE('',#111,#103,#113,.T.);
#111 = VERTEX_POINT('',#112);
#112 = CARTESIAN_POINT('',(0.,32.,10.));
#113 = LINE('',#114,#115);
#114 = CARTESIAN_POINT('',(0.,32.,10.));
#115 = VECTOR('',#116,1.);
#116 = DIRECTION('',(1.,0.,0.));
#117 = ORIENTED_EDGE('',*,*,#118,.F.);
#118 = EDGE_CURVE('',#119,#111,#121,.T.);
#119 = VERTEX_POINT('',#120);
#120 = CARTESIAN_POINT('',(0.,11.75,10.));
#121 = LINE('',#122,#123);
#122 = CARTESIAN_POINT('',(0.,0.,10.));
#123 = VECTOR('',#124,1.);
#124 = DIRECTION('',(0.,1.,0.));
#125 = ORIENTED_EDGE('',*,*,#126,.T.);
#126 = EDGE_CURVE('',#119,#127,#129,.T.);
#127 = VERTEX_POINT('',#128);
#128 = CARTESIAN_POINT('',(4.,12.75,10.));
#129 = LINE('',#130,#131);
#130 = CARTESIAN_POINT('',(0.617647058824,11.904411764706,10.));
#131 = VECTOR('',#132,1.);
#132 = DIRECTION('',(0.970142500145,0.242535625036,0.));
#133 = ORIENTED_EDGE('',*,*,#134,.T.);
#134 = EDGE_CURVE('',#127,#135,#137,.T.);
#135 = VERTEX_POINT('',#136);
#136 = CARTESIAN_POINT('',(4.,6.45,10.));
#137 = LINE('',#138,#139);
#138 = CARTESIAN_POINT('',(4.,3.225,10.));
#139 = VECTOR('',#140,1.);
#140 = DIRECTION('',(0.,-1.,0.));
#141 = ORIENTED_EDGE('',*,*,#142,.T.);
#142 = EDGE_CURVE('',#135,#24,#143,.T.);
#143 = LINE('',#144,#145);
#144 = CARTESIAN_POINT('',(0.876470588235,7.230882352941,10.));
#145 = VECTOR('',#146,1.);
#146 = DIRECTION('',(-0.970142500145,0.242535625036,0.));
#147 = FACE_BOUND('',#148,.T.);
#148 = EDGE_LOOP('',(#149,#160,#168,#177,#185,#194,#202,#211));
#149 = ORIENTED_EDGE('',*,*,#150,.F.);
#150 = EDGE_CURVE('',#151,#153,#155,.T.);
#151 = VERTEX_POINT('',#152);
#152 = CARTESIAN_POINT('',(8.1,25.34,10.));
#153 = VERTEX_POINT('',#154);
#154 = CARTESIAN_POINT('',(7.5,24.74,10.));
#155 = CIRCLE('',#156,0.6);
#156 = AXIS2_PLACEMENT_3D('',#157,#158,#159);
#157 = CARTESIAN_POINT('',(8.1,24.74,10.));
#158 = DIRECTION('',(0.,-0.,1.));
#159 = DIRECTION('',(0.,1.,0.));
#160 = ORIENTED_EDGE('',*,*,#161,.T.);
#161 = EDGE_CURVE('',#151,#162,#164,.T.);
#162 = VERTEX_POINT('',#163);
#163 = CARTESIAN_POINT('',(17.9,25.34,10.));
#164 = LINE('',#165,#166);
#165 = CARTESIAN_POINT('',(9.25,25.34,10.));
#166 = VECTOR('',#167,1.);
#167 = DIRECTION('',(1.,0.,0.));
#168 = ORIENTED_EDGE('',*,*,#169,.F.);
#169 = EDGE_CURVE('',#170,#162,#172,.T.);
#170 = VERTEX_POINT('',#171);
#171 = CARTESIAN_POINT('',(18.5,24.74,10.));
#172 = CIRCLE('',#173,0.6);
#173 = AXIS2_PLACEMENT_3D('',#174,#175,#176);
#174 = CARTESIAN_POINT('',(17.9,24.74,10.));
#175 = DIRECTION('',(0.,-0.,1.));
#176 = DIRECTION('',(0.,1.,0.));
#177 = ORIENTED_EDGE('',*,*,#178,.T.);
#178 = EDGE_CURVE('',#170,#179,#181,.T.);
#179 = VERTEX_POINT('',#180);
#180 = CARTESIAN_POINT('',(18.5,14.94,10.));
#181 = LINE('',#182,#183);
#182 = CARTESIAN_POINT('',(18.5,7.17,10.));
#183 = VECTOR('',#184,1.);
#184 = DIRECTION('',(0.,-1.,0.));
#185 = ORIENTED_EDGE('',*,*,#186,.F.);
#186 = EDGE_CURVE('',#187,#179,#189,.T.);
#187 = VERTEX_POINT('',#188);
#188 = CARTESIAN_POINT('',(17.9,14.34,10.));
#189 = CIRCLE('',#190,0.6);
#190 = AXIS2_PLACEMENT_3D('',#191,#192,#193);
#191 = CARTESIAN_POINT('',(17.9,14.94,10.));
#192 = DIRECTION('',(-0.,0.,1.));
#193 = DIRECTION('',(0.,-1.,0.));
#194 = ORIENTED_EDGE('',*,*,#195,.T.);
#195 = EDGE_CURVE('',#187,#196,#198,.T.);
#196 = VERTEX_POINT('',#197);
#197 = CARTESIAN_POINT('',(8.1,14.34,10.));
#198 = LINE('',#199,#200);
#199 = CARTESIAN_POINT('',(3.75,14.34,10.));
#200 = VECTOR('',#201,1.);
#201 = DIRECTION('',(-1.,0.,0.));
#202 = ORIENTED_EDGE('',*,*,#203,.F.);
#203 = EDGE_CURVE('',#204,#196,#206,.T.);
#204 = VERTEX_POINT('',#205);
#205 = CARTESIAN_POINT('',(7.5,14.94,10.));
#206 = CIRCLE('',#207,0.6);
#207 = AXIS2_PLACEMENT_3D('',#208,#209,#210);
#208 = CARTESIAN_POINT('',(8.1,14.94,10.));
#209 = DIRECTION('',(0.,0.,1.));
#210 = DIRECTION('',(-1.,0.,0.));
#211 = ORIENTED_EDGE('',*,*,#212,.T.);
#212 = EDGE_CURVE('',#204,#153,#213,.T.);
#213 = LINE('',#214,#215);
#214 = CARTESIAN_POINT('',(7.5,12.67,10.));
#215 = VECTOR('',#216,1.);
#216 = DIRECTION('',(0.,1.,0.));
#217 = PLANE('',#218);
#218 = AXIS2_PLACEMENT_3D('',#219,#220,#221);
#219 = CARTESIAN_POINT('',(0.,0.,10.));
#220 = DIRECTION('',(0.,0.,1.));
#221 = DIRECTION('',(1.,0.,0.));
#222 = ADVANCED_FACE('',(#223),#241,.T.);
#223 = FACE_BOUND('',#224,.T.);
#224 = EDGE_LOOP('',(#225,#233,#234,#235));
#225 = ORIENTED_EDGE('',*,*,#226,.T.);
#226 = EDGE_CURVE('',#227,#40,#229,.T.);
#227 = VERTEX_POINT('',#228);
#228 = CARTESIAN_POINT('',(4.,6.45,0.));
#229 = LINE('',#230,#231);
#230 = CARTESIAN_POINT('',(0.876470588235,7.230882352941,0.));
#231 = VECTOR('',#232,1.);
#232 = DIRECTION('',(-0.970142500145,0.242535625036,0.));
#233 = ORIENTED_EDGE('',*,*,#47,.T.);
#234 = ORIENTED_EDGE('',*,*,#142,.F.);
#235 = ORIENTED_EDGE('',*,*,#236,.F.);
#236 = EDGE_CURVE('',#227,#135,#237,.T.);
#237 = LINE('',#238,#239);
#238 = CARTESIAN_POINT('',(4.,6.45,-1.));
#239 = VECTOR('',#240,1.);
#240 = DIRECTION('',(0.,0.,1.));
#241 = PLANE('',#242);
#242 = AXIS2_PLACEMENT_3D('',#243,#244,#245);
#243 = CARTESIAN_POINT('',(0.,7.45,-1.));
#244 = DIRECTION('',(0.242535625036,0.970142500145,0.));
#245 = DIRECTION('',(0.970142500145,-0.242535625036,0.));
#246 = ADVANCED_FACE('',(#247),#329,.F.);
#247 = FACE_BOUND('',#248,.F.);
#248 = EDGE_LOOP('',(#249,#250,#258,#266,#274,#282,#290,#298,#306,#314,
    #322,#328));
#249 = ORIENTED_EDGE('',*,*,#39,.F.);
#250 = ORIENTED_EDGE('',*,*,#251,.T.);
#251 = EDGE_CURVE('',#32,#252,#254,.T.);
#252 = VERTEX_POINT('',#253);
#253 = CARTESIAN_POINT('',(26.,0.,0.));
#254 = LINE('',#255,#256);
#255 = CARTESIAN_POINT('',(0.,0.,0.));
#256 = VECTOR('',#257,1.);
#257 = DIRECTION('',(1.,0.,0.));
#258 = ORIENTED_EDGE('',*,*,#259,.T.);
#259 = EDGE_CURVE('',#252,#260,#262,.T.);
#260 = VERTEX_POINT('',#261);
#261 = CARTESIAN_POINT('',(26.,7.575609756098,0.));
#262 = LINE('',#263,#264);
#263 = CARTESIAN_POINT('',(26.,0.,0.));
#264 = VECTOR('',#265,1.);
#265 = DIRECTION('',(0.,1.,0.));
#266 = ORIENTED_EDGE('',*,*,#267,.F.);
#267 = EDGE_CURVE('',#268,#260,#270,.T.);
#268 = VERTEX_POINT('',#269);
#269 = CARTESIAN_POINT('',(25.9,7.6,0.));
#270 = LINE('',#271,#272);
#271 = CARTESIAN_POINT('',(25.9,7.6,0.));
#272 = VECTOR('',#273,1.);
#273 = DIRECTION('',(0.971520338783,-0.236956180191,0.));
#274 = ORIENTED_EDGE('',*,*,#275,.F.);
#275 = EDGE_CURVE('',#276,#268,#278,.T.);
#276 = VERTEX_POINT('',#277);
#277 = CARTESIAN_POINT('',(25.9,11.6,0.));
#278 = LINE('',#279,#280);
#279 = CARTESIAN_POINT('',(25.9,11.6,0.));
#280 = VECTOR('',#281,1.);
#281 = DIRECTION('',(0.,-1.,0.));
#282 = ORIENTED_EDGE('',*,*,#283,.F.);
#283 = EDGE_CURVE('',#284,#276,#286,.T.);
#284 = VERTEX_POINT('',#285);
#285 = CARTESIAN_POINT('',(26.,11.624390243902,0.));
#286 = LINE('',#287,#288);
#287 = CARTESIAN_POINT('',(30.,12.6,0.));
#288 = VECTOR('',#289,1.);
#289 = DIRECTION('',(-0.971520338783,-0.236956180191,0.));
#290 = ORIENTED_EDGE('',*,*,#291,.T.);
#291 = EDGE_CURVE('',#284,#292,#294,.T.);
#292 = VERTEX_POINT('',#293);
#293 = CARTESIAN_POINT('',(26.,32.,0.));
#294 = LINE('',#295,#296);
#295 = CARTESIAN_POINT('',(26.,0.,0.));
#296 = VECTOR('',#297,1.);
#297 = DIRECTION('',(0.,1.,0.));
#298 = ORIENTED_EDGE('',*,*,#299,.F.);
#299 = EDGE_CURVE('',#300,#292,#302,.T.);
#300 = VERTEX_POINT('',#301);
#301 = CARTESIAN_POINT('',(0.,32.,0.));
#302 = LINE('',#303,#304);
#303 = CARTESIAN_POINT('',(0.,32.,0.));
#304 = VECTOR('',#305,1.);
#305 = DIRECTION('',(1.,0.,0.));
#306 = ORIENTED_EDGE('',*,*,#307,.F.);
#307 = EDGE_CURVE('',#308,#300,#310,.T.);
#308 = VERTEX_POINT('',#309);
#309 = CARTESIAN_POINT('',(0.,11.75,0.));
#310 = LINE('',#311,#312);
#311 = CARTESIAN_POINT('',(0.,0.,0.));
#312 = VECTOR('',#313,1.);
#313 = DIRECTION('',(0.,1.,0.));
#314 = ORIENTED_EDGE('',*,*,#315,.T.);
#315 = EDGE_CURVE('',#308,#316,#318,.T.);
#316 = VERTEX_POINT('',#317);
#317 = CARTESIAN_POINT('',(4.,12.75,0.));
#318 = LINE('',#319,#320);
#319 = CARTESIAN_POINT('',(0.617647058824,11.904411764706,0.));
#320 = VECTOR('',#321,1.);
#321 = DIRECTION('',(0.970142500145,0.242535625036,0.));
#322 = ORIENTED_EDGE('',*,*,#323,.T.);
#323 = EDGE_CURVE('',#316,#227,#324,.T.);
#324 = LINE('',#325,#326);
#325 = CARTESIAN_POINT('',(4.,3.225,0.));
#326 = VECTOR('',#327,1.);
#327 = DIRECTION('',(0.,-1.,0.));
#328 = ORIENTED_EDGE('',*,*,#226,.T.);
#329 = PLANE('',#330);
#330 = AXIS2_PLACEMENT_3D('',#331,#332,#333);
#331 = CARTESIAN_POINT('',(0.,0.,0.));
#332 = DIRECTION('',(0.,0.,1.));
#333 = DIRECTION('',(1.,0.,0.));
#334 = ADVANCED_FACE('',(#335,#346,#434),#522,.T.);
#335 = FACE_BOUND('',#336,.T.);
#336 = EDGE_LOOP('',(#337,#338,#339,#345));
#337 = ORIENTED_EDGE('',*,*,#31,.T.);
#338 = ORIENTED_EDGE('',*,*,#251,.T.);
#339 = ORIENTED_EDGE('',*,*,#340,.F.);
#340 = EDGE_CURVE('',#63,#252,#341,.T.);
#341 = LINE('',#342,#343);
#342 = CARTESIAN_POINT('',(26.,0.,0.));
#343 = VECTOR('',#344,1.);
#344 = DIRECTION('',(0.,-0.342020143326,-0.939692620786));
#345 = ORIENTED_EDGE('',*,*,#62,.F.);
#346 = FACE_BOUND('',#347,.T.);
#347 = EDGE_LOOP('',(#348,#358,#366,#381,#389,#401,#420,#428));
#348 = ORIENTED_EDGE('',*,*,#349,.F.);
#349 = EDGE_CURVE('',#350,#352,#354,.T.);
#350 = VERTEX_POINT('',#351);
#351 = CARTESIAN_POINT('',(14.414352441614,1.455880937065,4.));
#352 = VERTEX_POINT('',#353);
#353 = CARTESIAN_POINT('',(15.130276008493,1.455880937065,4.));
#354 = LINE('',#355,#356);
#355 = CARTESIAN_POINT('',(7.065138004246,1.455880937065,4.));
#356 = VECTOR('',#357,1.);
#357 = DIRECTION('',(1.,0.,0.));
#358 = ORIENTED_EDGE('',*,*,#359,.F.);
#359 = EDGE_CURVE('',#360,#350,#362,.T.);
#360 = VERTEX_POINT('',#361);
#361 = CARTESIAN_POINT('',(14.414352441614,2.382109245376,6.544791362346
    ));
#362 = LINE('',#363,#364);
#363 = CARTESIAN_POINT('',(14.414352441614,0.727940468532,2.));
#364 = VECTOR('',#365,1.);
#365 = DIRECTION('',(-0.,-0.342020143326,-0.939692620786));
#366 = ORIENTED_EDGE('',*,*,#367,.F.);
#367 = EDGE_CURVE('',#368,#360,#370,.T.);
#368 = VERTEX_POINT('',#369);
#369 = CARTESIAN_POINT('',(13.489511677282,2.195748205922,6.032768614578
    ));
#370 = B_SPLINE_CURVE_WITH_KNOTS('',5,(#371,#372,#373,#374,#375,#376,
    #377,#378,#379,#380),.UNSPECIFIED.,.F.,.F.,(6,4,6),(0.,
    0.723532752039,1.),.UNSPECIFIED.);
#371 = CARTESIAN_POINT('',(13.489511677282,2.195748205922,6.032768614578
    ));
#372 = CARTESIAN_POINT('',(13.640590914009,2.212873359269,6.079819586705
    ));
#373 = CARTESIAN_POINT('',(13.786570284001,2.233522330948,6.136552170127
    ));
#374 = CARTESIAN_POINT('',(13.926540465502,2.257803848753,6.203265092008
    ));
#375 = CARTESIAN_POINT('',(14.059681833311,2.28572395818,6.279974962205)
  );
#376 = CARTESIAN_POINT('',(14.233399863879,2.329123500893,6.399214225825
    ));
#377 = CARTESIAN_POINT('',(14.280341205383,2.341630760276,6.433577638559
    ));
#378 = CARTESIAN_POINT('',(14.326163555363,2.354638420102,6.469315890211
    ));
#379 = CARTESIAN_POINT('',(14.370840548553,2.368135679869,6.506399306646
    ));
#380 = CARTESIAN_POINT('',(14.414352441614,2.382109245376,6.544791362346
    ));
#381 = ORIENTED_EDGE('',*,*,#382,.F.);
#382 = EDGE_CURVE('',#383,#368,#385,.T.);
#383 = VERTEX_POINT('',#384);
#384 = CARTESIAN_POINT('',(13.489511677282,2.418823764371,6.64566367425)
  );
#385 = LINE('',#386,#387);
#386 = CARTESIAN_POINT('',(13.489511677282,1.097874102961,3.016384307289
    ));
#387 = VECTOR('',#388,1.);
#388 = DIRECTION('',(-0.,-0.342020143326,-0.939692620786));
#389 = ORIENTED_EDGE('',*,*,#390,.F.);
#390 = EDGE_CURVE('',#391,#383,#393,.T.);
#391 = VERTEX_POINT('',#392);
#392 = CARTESIAN_POINT('',(14.098428874735,2.537797395544,6.972541039408
    ));
#393 = B_SPLINE_CURVE_WITH_KNOTS('',6,(#394,#395,#396,#397,#398,#399,
    #400),.UNSPECIFIED.,.F.,.F.,(7,7),(0.,1.),.PIECEWISE_BEZIER_KNOTS.);
#394 = CARTESIAN_POINT('',(14.098428874735,2.537797395544,6.972541039408
    ));
#395 = CARTESIAN_POINT('',(13.995358015766,2.5103242775,6.89705926794));
#396 = CARTESIAN_POINT('',(13.892488026722,2.485461594455,6.828749607688
    ));
#397 = CARTESIAN_POINT('',(13.790059788662,2.463520866936,6.768467954263
    ));
#398 = CARTESIAN_POINT('',(13.68842986025,2.444859708824,6.717196843729)
  );
#399 = CARTESIAN_POINT('',(13.588063368926,2.429855036128,6.675971844309
    ));
#400 = CARTESIAN_POINT('',(13.489511677282,2.418823764371,6.64566367425)
  );
#401 = ORIENTED_EDGE('',*,*,#402,.F.);
#402 = EDGE_CURVE('',#403,#391,#405,.T.);
#403 = VERTEX_POINT('',#404);
#404 = CARTESIAN_POINT('',(14.549384288747,2.742283324123,7.534361510774
    ));
#405 = B_SPLINE_CURVE_WITH_KNOTS('',5,(#406,#407,#408,#409,#410,#411,
    #412,#413,#414,#415,#416,#417,#418,#419),.UNSPECIFIED.,.F.,.F.,(6,4,
    4,6),(0.,7.672019752048E-02,0.533182313786,1.),.UNSPECIFIED.);
#406 = CARTESIAN_POINT('',(14.549384288747,2.742283324123,7.534361510774
    ));
#407 = CARTESIAN_POINT('',(14.54556975757,2.738639373968,7.524349840005)
  );
#408 = CARTESIAN_POINT('',(14.541628980282,2.735012433289,7.514384902388
    ));
#409 = CARTESIAN_POINT('',(14.537562109124,2.731402756931,7.504467398103
    ));
#410 = CARTESIAN_POINT('',(14.533369363534,2.727810590957,7.494598003202
    ));
#411 = CARTESIAN_POINT('',(14.503358244424,2.702969458038,7.426347551436
    ));
#412 = CARTESIAN_POINT('',(14.47321907872,2.682330394408,7.369642190152)
  );
#413 = CARTESIAN_POINT('',(14.438695466745,2.662370786818,7.314803618997
    ));
#414 = CARTESIAN_POINT('',(14.399930872369,2.643125759746,7.261928341682
    ));
#415 = CARTESIAN_POINT('',(14.313359195301,2.605688263102,7.15906966501)
  );
#416 = CARTESIAN_POINT('',(14.265365013895,2.587528785844,7.109176911294
    ));
#417 = CARTESIAN_POINT('',(14.213365025025,2.570160917499,7.061459085194
    ));
#418 = CARTESIAN_POINT('',(14.157627194655,2.553586930406,7.015922429904
    ));
#419 = CARTESIAN_POINT('',(14.098428874735,2.537797395544,6.972541039408
    ));
#420 = ORIENTED_EDGE('',*,*,#421,.F.);
#421 = EDGE_CURVE('',#422,#403,#424,.T.);
#422 = VERTEX_POINT('',#423);
#423 = CARTESIAN_POINT('',(15.130276008493,2.742283324123,7.534361510774
    ));
#424 = LINE('',#425,#426);
#425 = CARTESIAN_POINT('',(6.774692144374,2.742283324123,7.534361510774)
  );
#426 = VECTOR('',#427,1.);
#427 = DIRECTION('',(-1.,0.,0.));
#428 = ORIENTED_EDGE('',*,*,#429,.F.);
#429 = EDGE_CURVE('',#352,#422,#430,.T.);
#430 = LINE('',#431,#432);
#431 = CARTESIAN_POINT('',(15.130276008493,1.371141662061,3.767180755387
    ));
#432 = VECTOR('',#433,1.);
#433 = DIRECTION('',(0.,0.342020143326,0.939692620786));
#434 = FACE_BOUND('',#435,.T.);
#435 = EDGE_LOOP('',(#436,#446,#454,#469,#477,#489,#508,#516));
#436 = ORIENTED_EDGE('',*,*,#437,.F.);
#437 = EDGE_CURVE('',#438,#440,#442,.T.);
#438 = VERTEX_POINT('',#439);
#439 = CARTESIAN_POINT('',(11.794564755839,1.455880937065,4.));
#440 = VERTEX_POINT('',#441);
#441 = CARTESIAN_POINT('',(12.510488322718,1.455880937065,4.));
#442 = LINE('',#443,#444);
#443 = CARTESIAN_POINT('',(5.755244161359,1.455880937065,4.));
#444 = VECTOR('',#445,1.);
#445 = DIRECTION('',(1.,0.,0.));
#446 = ORIENTED_EDGE('',*,*,#447,.F.);
#447 = EDGE_CURVE('',#448,#438,#450,.T.);
#448 = VERTEX_POINT('',#449);
#449 = CARTESIAN_POINT('',(11.794564755839,2.382109245376,6.544791362346
    ));
#450 = LINE('',#451,#452);
#451 = CARTESIAN_POINT('',(11.794564755839,0.727940468532,2.));
#452 = VECTOR('',#453,1.);
#453 = DIRECTION('',(-0.,-0.342020143326,-0.939692620786));
#454 = ORIENTED_EDGE('',*,*,#455,.F.);
#455 = EDGE_CURVE('',#456,#448,#458,.T.);
#456 = VERTEX_POINT('',#457);
#457 = CARTESIAN_POINT('',(10.869723991507,2.195748205922,6.032768614578
    ));
#458 = B_SPLINE_CURVE_WITH_KNOTS('',5,(#459,#460,#461,#462,#463,#464,
    #465,#466,#467,#468),.UNSPECIFIED.,.F.,.F.,(6,4,6),(0.,
    0.723532752039,1.),.UNSPECIFIED.);
#459 = CARTESIAN_POINT('',(10.869723991507,2.195748205922,6.032768614578
    ));
#460 = CARTESIAN_POINT('',(11.020803228234,2.212873359269,6.079819586705
    ));
#461 = CARTESIAN_POINT('',(11.166782598226,2.233522330948,6.136552170127
    ));
#462 = CARTESIAN_POINT('',(11.306752779727,2.257803848753,6.203265092008
    ));
#463 = CARTESIAN_POINT('',(11.439894147536,2.28572395818,6.279974962205)
  );
#464 = CARTESIAN_POINT('',(11.613612178104,2.329123500893,6.399214225825
    ));
#465 = CARTESIAN_POINT('',(11.660553519608,2.341630760276,6.433577638559
    ));
#466 = CARTESIAN_POINT('',(11.706375869588,2.354638420102,6.469315890211
    ));
#467 = CARTESIAN_POINT('',(11.751052862778,2.368135679869,6.506399306646
    ));
#468 = CARTESIAN_POINT('',(11.794564755839,2.382109245376,6.544791362346
    ));
#469 = ORIENTED_EDGE('',*,*,#470,.F.);
#470 = EDGE_CURVE('',#471,#456,#473,.T.);
#471 = VERTEX_POINT('',#472);
#472 = CARTESIAN_POINT('',(10.869723991507,2.418823764371,6.64566367425)
  );
#473 = LINE('',#474,#475);
#474 = CARTESIAN_POINT('',(10.869723991507,1.097874102961,3.016384307289
    ));
#475 = VECTOR('',#476,1.);
#476 = DIRECTION('',(-0.,-0.342020143326,-0.939692620786));
#477 = ORIENTED_EDGE('',*,*,#478,.F.);
#478 = EDGE_CURVE('',#479,#471,#481,.T.);
#479 = VERTEX_POINT('',#480);
#480 = CARTESIAN_POINT('',(11.47864118896,2.537797395544,6.972541039408)
  );
#481 = B_SPLINE_CURVE_WITH_KNOTS('',6,(#482,#483,#484,#485,#486,#487,
    #488),.UNSPECIFIED.,.F.,.F.,(7,7),(0.,1.),.PIECEWISE_BEZIER_KNOTS.);
#482 = CARTESIAN_POINT('',(11.47864118896,2.537797395544,6.972541039408)
  );
#483 = CARTESIAN_POINT('',(11.375570329991,2.5103242775,6.89705926794));
#484 = CARTESIAN_POINT('',(11.272700340947,2.485461594455,6.828749607688
    ));
#485 = CARTESIAN_POINT('',(11.170272102887,2.463520866936,6.768467954263
    ));
#486 = CARTESIAN_POINT('',(11.068642174475,2.444859708824,6.717196843729
    ));
#487 = CARTESIAN_POINT('',(10.968275683151,2.429855036128,6.675971844309
    ));
#488 = CARTESIAN_POINT('',(10.869723991507,2.418823764371,6.64566367425)
  );
#489 = ORIENTED_EDGE('',*,*,#490,.F.);
#490 = EDGE_CURVE('',#491,#479,#493,.T.);
#491 = VERTEX_POINT('',#492);
#492 = CARTESIAN_POINT('',(11.929596602972,2.742283324123,7.534361510774
    ));
#493 = B_SPLINE_CURVE_WITH_KNOTS('',5,(#494,#495,#496,#497,#498,#499,
    #500,#501,#502,#503,#504,#505,#506,#507),.UNSPECIFIED.,.F.,.F.,(6,4,
    4,6),(0.,7.672019752048E-02,0.533182313786,1.),.UNSPECIFIED.);
#494 = CARTESIAN_POINT('',(11.929596602972,2.742283324123,7.534361510774
    ));
#495 = CARTESIAN_POINT('',(11.925782071795,2.738639373968,7.524349840005
    ));
#496 = CARTESIAN_POINT('',(11.921841294507,2.735012433289,7.514384902388
    ));
#497 = CARTESIAN_POINT('',(11.917774423349,2.731402756931,7.504467398103
    ));
#498 = CARTESIAN_POINT('',(11.913581677759,2.727810590957,7.494598003202
    ));
#499 = CARTESIAN_POINT('',(11.883570558649,2.702969458038,7.426347551436
    ));
#500 = CARTESIAN_POINT('',(11.853431392945,2.682330394408,7.369642190152
    ));
#501 = CARTESIAN_POINT('',(11.81890778097,2.662370786818,7.314803618997)
  );
#502 = CARTESIAN_POINT('',(11.780143186594,2.643125759746,7.261928341682
    ));
#503 = CARTESIAN_POINT('',(11.693571509526,2.605688263102,7.15906966501)
  );
#504 = CARTESIAN_POINT('',(11.64557732812,2.587528785844,7.109176911294)
  );
#505 = CARTESIAN_POINT('',(11.59357733925,2.570160917499,7.061459085194)
  );
#506 = CARTESIAN_POINT('',(11.537839508881,2.553586930406,7.015922429904
    ));
#507 = CARTESIAN_POINT('',(11.47864118896,2.537797395544,6.972541039408)
  );
#508 = ORIENTED_EDGE('',*,*,#509,.F.);
#509 = EDGE_CURVE('',#510,#491,#512,.T.);
#510 = VERTEX_POINT('',#511);
#511 = CARTESIAN_POINT('',(12.510488322718,2.742283324123,7.534361510774
    ));
#512 = LINE('',#513,#514);
#513 = CARTESIAN_POINT('',(5.464798301486,2.742283324123,7.534361510774)
  );
#514 = VECTOR('',#515,1.);
#515 = DIRECTION('',(-1.,0.,0.));
#516 = ORIENTED_EDGE('',*,*,#517,.F.);
#517 = EDGE_CURVE('',#440,#510,#518,.T.);
#518 = LINE('',#519,#520);
#519 = CARTESIAN_POINT('',(12.510488322718,1.371141662061,3.767180755387
    ));
#520 = VECTOR('',#521,1.);
#521 = DIRECTION('',(0.,0.342020143326,0.939692620786));
#522 = PLANE('',#523);
#523 = AXIS2_PLACEMENT_3D('',#524,#525,#526);
#524 = CARTESIAN_POINT('',(-1.,0.,0.));
#525 = DIRECTION('',(0.,-0.939692620786,0.342020143326));
#526 = DIRECTION('',(0.,0.342020143326,0.939692620786));
#527 = ADVANCED_FACE('',(#528),#539,.T.);
#528 = FACE_BOUND('',#529,.T.);
#529 = EDGE_LOOP('',(#530,#531,#532,#533));
#530 = ORIENTED_EDGE('',*,*,#323,.T.);
#531 = ORIENTED_EDGE('',*,*,#236,.T.);
#532 = ORIENTED_EDGE('',*,*,#134,.F.);
#533 = ORIENTED_EDGE('',*,*,#534,.F.);
#534 = EDGE_CURVE('',#316,#127,#535,.T.);
#535 = LINE('',#536,#537);
#536 = CARTESIAN_POINT('',(4.,12.75,-1.));
#537 = VECTOR('',#538,1.);
#538 = DIRECTION('',(0.,0.,1.));
#539 = PLANE('',#540);
#540 = AXIS2_PLACEMENT_3D('',#541,#542,#543);
#541 = CARTESIAN_POINT('',(4.,6.45,-1.));
#542 = DIRECTION('',(-1.,0.,0.));
#543 = DIRECTION('',(0.,1.,0.));
#544 = ADVANCED_FACE('',(#545),#556,.T.);
#545 = FACE_BOUND('',#546,.T.);
#546 = EDGE_LOOP('',(#547,#548,#549,#550));
#547 = ORIENTED_EDGE('',*,*,#315,.T.);
#548 = ORIENTED_EDGE('',*,*,#534,.T.);
#549 = ORIENTED_EDGE('',*,*,#126,.F.);
#550 = ORIENTED_EDGE('',*,*,#551,.F.);
#551 = EDGE_CURVE('',#308,#119,#552,.T.);
#552 = LINE('',#553,#554);
#553 = CARTESIAN_POINT('',(0.,11.75,-1.));
#554 = VECTOR('',#555,1.);
#555 = DIRECTION('',(0.,0.,1.));
#556 = PLANE('',#557);
#557 = AXIS2_PLACEMENT_3D('',#558,#559,#560);
#558 = CARTESIAN_POINT('',(4.,12.75,-1.));
#559 = DIRECTION('',(0.242535625036,-0.970142500145,0.));
#560 = DIRECTION('',(-0.970142500145,-0.242535625036,0.));
#561 = ADVANCED_FACE('',(#562),#573,.F.);
#562 = FACE_BOUND('',#563,.F.);
#563 = EDGE_LOOP('',(#564,#565,#566,#567));
#564 = ORIENTED_EDGE('',*,*,#118,.F.);
#565 = ORIENTED_EDGE('',*,*,#551,.F.);
#566 = ORIENTED_EDGE('',*,*,#307,.T.);
#567 = ORIENTED_EDGE('',*,*,#568,.T.);
#568 = EDGE_CURVE('',#300,#111,#569,.T.);
#569 = LINE('',#570,#571);
#570 = CARTESIAN_POINT('',(0.,32.,0.));
#571 = VECTOR('',#572,1.);
#572 = DIRECTION('',(0.,0.,1.));
#573 = PLANE('',#574);
#574 = AXIS2_PLACEMENT_3D('',#575,#576,#577);
#575 = CARTESIAN_POINT('',(0.,0.,0.));
#576 = DIRECTION('',(1.,0.,0.));
#577 = DIRECTION('',(0.,0.,1.));
#578 = ADVANCED_FACE('',(#579),#590,.T.);
#579 = FACE_BOUND('',#580,.T.);
#580 = EDGE_LOOP('',(#581,#582,#583,#584));
#581 = ORIENTED_EDGE('',*,*,#299,.F.);
#582 = ORIENTED_EDGE('',*,*,#568,.T.);
#583 = ORIENTED_EDGE('',*,*,#110,.T.);
#584 = ORIENTED_EDGE('',*,*,#585,.F.);
#585 = EDGE_CURVE('',#292,#103,#586,.T.);
#586 = LINE('',#587,#588);
#587 = CARTESIAN_POINT('',(26.,32.,0.));
#588 = VECTOR('',#589,1.);
#589 = DIRECTION('',(0.,0.,1.));
#590 = PLANE('',#591);
#591 = AXIS2_PLACEMENT_3D('',#592,#593,#594);
#592 = CARTESIAN_POINT('',(0.,32.,0.));
#593 = DIRECTION('',(0.,1.,0.));
#594 = DIRECTION('',(0.,0.,1.));
#595 = ADVANCED_FACE('',(#596),#607,.T.);
#596 = FACE_BOUND('',#597,.T.);
#597 = EDGE_LOOP('',(#598,#599,#605,#606));
#598 = ORIENTED_EDGE('',*,*,#102,.F.);
#599 = ORIENTED_EDGE('',*,*,#600,.T.);
#600 = EDGE_CURVE('',#95,#284,#601,.T.);
#601 = LINE('',#602,#603);
#602 = CARTESIAN_POINT('',(26.,11.624390243902,0.));
#603 = VECTOR('',#604,1.);
#604 = DIRECTION('',(0.,0.,-1.));
#605 = ORIENTED_EDGE('',*,*,#291,.T.);
#606 = ORIENTED_EDGE('',*,*,#585,.T.);
#607 = PLANE('',#608);
#608 = AXIS2_PLACEMENT_3D('',#609,#610,#611);
#609 = CARTESIAN_POINT('',(26.,0.,0.));
#610 = DIRECTION('',(1.,0.,0.));
#611 = DIRECTION('',(0.,0.,1.));
#612 = ADVANCED_FACE('',(#613),#624,.T.);
#613 = FACE_BOUND('',#614,.T.);
#614 = EDGE_LOOP('',(#615,#616,#622,#623));
#615 = ORIENTED_EDGE('',*,*,#78,.T.);
#616 = ORIENTED_EDGE('',*,*,#617,.T.);
#617 = EDGE_CURVE('',#71,#95,#618,.T.);
#618 = LINE('',#619,#620);
#619 = CARTESIAN_POINT('',(26.,0.,10.));
#620 = VECTOR('',#621,1.);
#621 = DIRECTION('',(0.,1.,0.));
#622 = ORIENTED_EDGE('',*,*,#94,.T.);
#623 = ORIENTED_EDGE('',*,*,#86,.T.);
#624 = PLANE('',#625);
#625 = AXIS2_PLACEMENT_3D('',#626,#627,#628);
#626 = CARTESIAN_POINT('',(0.,0.,10.));
#627 = DIRECTION('',(0.,0.,1.));
#628 = DIRECTION('',(1.,0.,0.));
#629 = ADVANCED_FACE('',(#630),#641,.T.);
#630 = FACE_BOUND('',#631,.T.);
#631 = EDGE_LOOP('',(#632,#633,#634,#635));
#632 = ORIENTED_EDGE('',*,*,#70,.F.);
#633 = ORIENTED_EDGE('',*,*,#340,.T.);
#634 = ORIENTED_EDGE('',*,*,#259,.T.);
#635 = ORIENTED_EDGE('',*,*,#636,.T.);
#636 = EDGE_CURVE('',#260,#71,#637,.T.);
#637 = LINE('',#638,#639);
#638 = CARTESIAN_POINT('',(26.,7.575609756098,0.));
#639 = VECTOR('',#640,1.);
#640 = DIRECTION('',(0.,0.,1.));
#641 = PLANE('',#642);
#642 = AXIS2_PLACEMENT_3D('',#643,#644,#645);
#643 = CARTESIAN_POINT('',(26.,0.,0.));
#644 = DIRECTION('',(1.,0.,0.));
#645 = DIRECTION('',(0.,0.,1.));
#646 = ADVANCED_FACE('',(#647),#673,.T.);
#647 = FACE_BOUND('',#648,.T.);
#648 = EDGE_LOOP('',(#649,#657,#658,#666));
#649 = ORIENTED_EDGE('',*,*,#650,.F.);
#650 = EDGE_CURVE('',#151,#651,#653,.T.);
#651 = VERTEX_POINT('',#652);
#652 = CARTESIAN_POINT('',(8.1,25.34,20.5));
#653 = LINE('',#654,#655);
#654 = CARTESIAN_POINT('',(8.1,25.34,9.9));
#655 = VECTOR('',#656,1.);
#656 = DIRECTION('',(0.,0.,1.));
#657 = ORIENTED_EDGE('',*,*,#150,.T.);
#658 = ORIENTED_EDGE('',*,*,#659,.T.);
#659 = EDGE_CURVE('',#153,#660,#662,.T.);
#660 = VERTEX_POINT('',#661);
#661 = CARTESIAN_POINT('',(7.5,24.74,20.5));
#662 = LINE('',#663,#664);
#663 = CARTESIAN_POINT('',(7.5,24.74,9.9));
#664 = VECTOR('',#665,1.);
#665 = DIRECTION('',(0.,0.,1.));
#666 = ORIENTED_EDGE('',*,*,#667,.F.);
#667 = EDGE_CURVE('',#651,#660,#668,.T.);
#668 = CIRCLE('',#669,0.6);
#669 = AXIS2_PLACEMENT_3D('',#670,#671,#672);
#670 = CARTESIAN_POINT('',(8.1,24.74,20.5));
#671 = DIRECTION('',(0.,-0.,1.));
#672 = DIRECTION('',(0.,1.,0.));
#673 = CYLINDRICAL_SURFACE('',#674,0.6);
#674 = AXIS2_PLACEMENT_3D('',#675,#676,#677);
#675 = CARTESIAN_POINT('',(8.1,24.74,9.9));
#676 = DIRECTION('',(0.,0.,1.));
#677 = DIRECTION('',(0.,1.,0.));
#678 = ADVANCED_FACE('',(#679),#697,.F.);
#679 = FACE_BOUND('',#680,.F.);
#680 = EDGE_LOOP('',(#681,#682,#690,#696));
#681 = ORIENTED_EDGE('',*,*,#161,.T.);
#682 = ORIENTED_EDGE('',*,*,#683,.T.);
#683 = EDGE_CURVE('',#162,#684,#686,.T.);
#684 = VERTEX_POINT('',#685);
#685 = CARTESIAN_POINT('',(17.9,25.34,20.5));
#686 = LINE('',#687,#688);
#687 = CARTESIAN_POINT('',(17.9,25.34,9.9));
#688 = VECTOR('',#689,1.);
#689 = DIRECTION('',(0.,0.,1.));
#690 = ORIENTED_EDGE('',*,*,#691,.T.);
#691 = EDGE_CURVE('',#684,#651,#692,.T.);
#692 = LINE('',#693,#694);
#693 = CARTESIAN_POINT('',(17.9,25.34,20.5));
#694 = VECTOR('',#695,1.);
#695 = DIRECTION('',(-1.,0.,0.));
#696 = ORIENTED_EDGE('',*,*,#650,.F.);
#697 = PLANE('',#698);
#698 = AXIS2_PLACEMENT_3D('',#699,#700,#701);
#699 = CARTESIAN_POINT('',(18.5,25.34,9.9));
#700 = DIRECTION('',(0.,-1.,0.));
#701 = DIRECTION('',(-1.,0.,0.));
#702 = ADVANCED_FACE('',(#703),#721,.F.);
#703 = FACE_BOUND('',#704,.F.);
#704 = EDGE_LOOP('',(#705,#706,#707,#715));
#705 = ORIENTED_EDGE('',*,*,#212,.T.);
#706 = ORIENTED_EDGE('',*,*,#659,.T.);
#707 = ORIENTED_EDGE('',*,*,#708,.T.);
#708 = EDGE_CURVE('',#660,#709,#711,.T.);
#709 = VERTEX_POINT('',#710);
#710 = CARTESIAN_POINT('',(7.5,14.94,20.5));
#711 = LINE('',#712,#713);
#712 = CARTESIAN_POINT('',(7.5,24.74,20.5));
#713 = VECTOR('',#714,1.);
#714 = DIRECTION('',(0.,-1.,0.));
#715 = ORIENTED_EDGE('',*,*,#716,.F.);
#716 = EDGE_CURVE('',#204,#709,#717,.T.);
#717 = LINE('',#718,#719);
#718 = CARTESIAN_POINT('',(7.5,14.94,9.9));
#719 = VECTOR('',#720,1.);
#720 = DIRECTION('',(0.,0.,1.));
#721 = PLANE('',#722);
#722 = AXIS2_PLACEMENT_3D('',#723,#724,#725);
#723 = CARTESIAN_POINT('',(7.5,25.34,9.9));
#724 = DIRECTION('',(1.,0.,0.));
#725 = DIRECTION('',(0.,-1.,0.));
#726 = ADVANCED_FACE('',(#727),#746,.T.);
#727 = FACE_BOUND('',#728,.F.);
#728 = EDGE_LOOP('',(#729,#730,#731,#739));
#729 = ORIENTED_EDGE('',*,*,#683,.F.);
#730 = ORIENTED_EDGE('',*,*,#169,.F.);
#731 = ORIENTED_EDGE('',*,*,#732,.T.);
#732 = EDGE_CURVE('',#170,#733,#735,.T.);
#733 = VERTEX_POINT('',#734);
#734 = CARTESIAN_POINT('',(18.5,24.74,20.5));
#735 = LINE('',#736,#737);
#736 = CARTESIAN_POINT('',(18.5,24.74,9.9));
#737 = VECTOR('',#738,1.);
#738 = DIRECTION('',(0.,0.,1.));
#739 = ORIENTED_EDGE('',*,*,#740,.T.);
#740 = EDGE_CURVE('',#733,#684,#741,.T.);
#741 = CIRCLE('',#742,0.6);
#742 = AXIS2_PLACEMENT_3D('',#743,#744,#745);
#743 = CARTESIAN_POINT('',(17.9,24.74,20.5));
#744 = DIRECTION('',(0.,0.,1.));
#745 = DIRECTION('',(1.,0.,0.));
#746 = CYLINDRICAL_SURFACE('',#747,0.6);
#747 = AXIS2_PLACEMENT_3D('',#748,#749,#750);
#748 = CARTESIAN_POINT('',(17.9,24.74,9.9));
#749 = DIRECTION('',(0.,0.,1.));
#750 = DIRECTION('',(0.,1.,0.));
#751 = ADVANCED_FACE('',(#752),#771,.T.);
#752 = FACE_BOUND('',#753,.T.);
#753 = EDGE_LOOP('',(#754,#755,#756,#764));
#754 = ORIENTED_EDGE('',*,*,#716,.F.);
#755 = ORIENTED_EDGE('',*,*,#203,.T.);
#756 = ORIENTED_EDGE('',*,*,#757,.T.);
#757 = EDGE_CURVE('',#196,#758,#760,.T.);
#758 = VERTEX_POINT('',#759);
#759 = CARTESIAN_POINT('',(8.1,14.34,20.5));
#760 = LINE('',#761,#762);
#761 = CARTESIAN_POINT('',(8.1,14.34,9.9));
#762 = VECTOR('',#763,1.);
#763 = DIRECTION('',(0.,0.,1.));
#764 = ORIENTED_EDGE('',*,*,#765,.F.);
#765 = EDGE_CURVE('',#709,#758,#766,.T.);
#766 = CIRCLE('',#767,0.6);
#767 = AXIS2_PLACEMENT_3D('',#768,#769,#770);
#768 = CARTESIAN_POINT('',(8.1,14.94,20.5));
#769 = DIRECTION('',(0.,0.,1.));
#770 = DIRECTION('',(-1.,0.,0.));
#771 = CYLINDRICAL_SURFACE('',#772,0.6);
#772 = AXIS2_PLACEMENT_3D('',#773,#774,#775);
#773 = CARTESIAN_POINT('',(8.1,14.94,9.9));
#774 = DIRECTION('',(0.,0.,1.));
#775 = DIRECTION('',(-1.,0.,0.));
#776 = ADVANCED_FACE('',(#777),#795,.F.);
#777 = FACE_BOUND('',#778,.F.);
#778 = EDGE_LOOP('',(#779,#780,#788,#794));
#779 = ORIENTED_EDGE('',*,*,#178,.T.);
#780 = ORIENTED_EDGE('',*,*,#781,.T.);
#781 = EDGE_CURVE('',#179,#782,#784,.T.);
#782 = VERTEX_POINT('',#783);
#783 = CARTESIAN_POINT('',(18.5,14.94,20.5));
#784 = LINE('',#785,#786);
#785 = CARTESIAN_POINT('',(18.5,14.94,9.9));
#786 = VECTOR('',#787,1.);
#787 = DIRECTION('',(0.,0.,1.));
#788 = ORIENTED_EDGE('',*,*,#789,.T.);
#789 = EDGE_CURVE('',#782,#733,#790,.T.);
#790 = LINE('',#791,#792);
#791 = CARTESIAN_POINT('',(18.5,14.94,20.5));
#792 = VECTOR('',#793,1.);
#793 = DIRECTION('',(0.,1.,0.));
#794 = ORIENTED_EDGE('',*,*,#732,.F.);
#795 = PLANE('',#796);
#796 = AXIS2_PLACEMENT_3D('',#797,#798,#799);
#797 = CARTESIAN_POINT('',(18.5,14.34,9.9));
#798 = DIRECTION('',(-1.,0.,0.));
#799 = DIRECTION('',(0.,1.,0.));
#800 = ADVANCED_FACE('',(#801),#819,.F.);
#801 = FACE_BOUND('',#802,.F.);
#802 = EDGE_LOOP('',(#803,#804,#805,#813));
#803 = ORIENTED_EDGE('',*,*,#195,.T.);
#804 = ORIENTED_EDGE('',*,*,#757,.T.);
#805 = ORIENTED_EDGE('',*,*,#806,.T.);
#806 = EDGE_CURVE('',#758,#807,#809,.T.);
#807 = VERTEX_POINT('',#808);
#808 = CARTESIAN_POINT('',(17.9,14.34,20.5));
#809 = LINE('',#810,#811);
#810 = CARTESIAN_POINT('',(8.1,14.34,20.5));
#811 = VECTOR('',#812,1.);
#812 = DIRECTION('',(1.,0.,0.));
#813 = ORIENTED_EDGE('',*,*,#814,.F.);
#814 = EDGE_CURVE('',#187,#807,#815,.T.);
#815 = LINE('',#816,#817);
#816 = CARTESIAN_POINT('',(17.9,14.34,9.9));
#817 = VECTOR('',#818,1.);
#818 = DIRECTION('',(0.,0.,1.));
#819 = PLANE('',#820);
#820 = AXIS2_PLACEMENT_3D('',#821,#822,#823);
#821 = CARTESIAN_POINT('',(7.5,14.34,9.9));
#822 = DIRECTION('',(0.,1.,0.));
#823 = DIRECTION('',(1.,0.,0.));
#824 = ADVANCED_FACE('',(#825),#837,.T.);
#825 = FACE_BOUND('',#826,.T.);
#826 = EDGE_LOOP('',(#827,#828,#829,#830));
#827 = ORIENTED_EDGE('',*,*,#814,.F.);
#828 = ORIENTED_EDGE('',*,*,#186,.T.);
#829 = ORIENTED_EDGE('',*,*,#781,.T.);
#830 = ORIENTED_EDGE('',*,*,#831,.F.);
#831 = EDGE_CURVE('',#807,#782,#832,.T.);
#832 = CIRCLE('',#833,0.6);
#833 = AXIS2_PLACEMENT_3D('',#834,#835,#836);
#834 = CARTESIAN_POINT('',(17.9,14.94,20.5));
#835 = DIRECTION('',(-0.,0.,1.));
#836 = DIRECTION('',(0.,-1.,0.));
#837 = CYLINDRICAL_SURFACE('',#838,0.6);
#838 = AXIS2_PLACEMENT_3D('',#839,#840,#841);
#839 = CARTESIAN_POINT('',(17.9,14.94,9.9));
#840 = DIRECTION('',(0.,0.,1.));
#841 = DIRECTION('',(0.,-1.,0.));
#842 = ADVANCED_FACE('',(#843),#854,.F.);
#843 = FACE_BOUND('',#844,.F.);
#844 = EDGE_LOOP('',(#845,#846,#852,#853));
#845 = ORIENTED_EDGE('',*,*,#267,.T.);
#846 = ORIENTED_EDGE('',*,*,#847,.T.);
#847 = EDGE_CURVE('',#260,#284,#848,.T.);
#848 = LINE('',#849,#850);
#849 = CARTESIAN_POINT('',(26.,0.,0.));
#850 = VECTOR('',#851,1.);
#851 = DIRECTION('',(0.,1.,0.));
#852 = ORIENTED_EDGE('',*,*,#283,.T.);
#853 = ORIENTED_EDGE('',*,*,#275,.T.);
#854 = PLANE('',#855);
#855 = AXIS2_PLACEMENT_3D('',#856,#857,#858);
#856 = CARTESIAN_POINT('',(0.,0.,0.));
#857 = DIRECTION('',(0.,0.,1.));
#858 = DIRECTION('',(1.,0.,0.));
#859 = ADVANCED_FACE('',(#860),#885,.T.);
#860 = FACE_BOUND('',#861,.T.);
#861 = EDGE_LOOP('',(#862,#863,#871,#879));
#862 = ORIENTED_EDGE('',*,*,#349,.T.);
#863 = ORIENTED_EDGE('',*,*,#864,.T.);
#864 = EDGE_CURVE('',#352,#865,#867,.T.);
#865 = VERTEX_POINT('',#866);
#866 = CARTESIAN_POINT('',(15.130276008493,0.892065364593,4.205212085995
    ));
#867 = LINE('',#868,#869);
#868 = CARTESIAN_POINT('',(15.130276008493,1.643819461222,3.931595971335
    ));
#869 = VECTOR('',#870,1.);
#870 = DIRECTION('',(0.,-0.939692620786,0.342020143326));
#871 = ORIENTED_EDGE('',*,*,#872,.T.);
#872 = EDGE_CURVE('',#865,#873,#875,.T.);
#873 = VERTEX_POINT('',#874);
#874 = CARTESIAN_POINT('',(14.414352441614,0.892065364593,4.205212085995
    ));
#875 = LINE('',#876,#877);
#876 = CARTESIAN_POINT('',(15.130276008493,0.892065364593,4.205212085995
    ));
#877 = VECTOR('',#878,1.);
#878 = DIRECTION('',(-1.,0.,0.));
#879 = ORIENTED_EDGE('',*,*,#880,.F.);
#880 = EDGE_CURVE('',#350,#873,#881,.T.);
#881 = LINE('',#882,#883);
#882 = CARTESIAN_POINT('',(14.414352441614,1.643819461222,3.931595971335
    ));
#883 = VECTOR('',#884,1.);
#884 = DIRECTION('',(0.,-0.939692620786,0.342020143326));
#885 = PLANE('',#886);
#886 = AXIS2_PLACEMENT_3D('',#887,#888,#889);
#887 = CARTESIAN_POINT('',(15.130276008493,1.643819461222,3.931595971335
    ));
#888 = DIRECTION('',(0.,-0.342020143326,-0.939692620786));
#889 = DIRECTION('',(-1.,0.,0.));
#890 = ADVANCED_FACE('',(#891),#909,.T.);
#891 = FACE_BOUND('',#892,.T.);
#892 = EDGE_LOOP('',(#893,#894,#902,#908));
#893 = ORIENTED_EDGE('',*,*,#429,.T.);
#894 = ORIENTED_EDGE('',*,*,#895,.T.);
#895 = EDGE_CURVE('',#422,#896,#898,.T.);
#896 = VERTEX_POINT('',#897);
#897 = CARTESIAN_POINT('',(15.130276008493,2.178467751651,7.73957359677)
  );
#898 = LINE('',#899,#900);
#899 = CARTESIAN_POINT('',(15.130276008493,2.93022184828,7.465957482109)
  );
#900 = VECTOR('',#901,1.);
#901 = DIRECTION('',(0.,-0.939692620786,0.342020143326));
#902 = ORIENTED_EDGE('',*,*,#903,.T.);
#903 = EDGE_CURVE('',#896,#865,#904,.T.);
#904 = LINE('',#905,#906);
#905 = CARTESIAN_POINT('',(15.130276008493,2.178467751651,7.73957359677)
  );
#906 = VECTOR('',#907,1.);
#907 = DIRECTION('',(0.,-0.342020143326,-0.939692620786));
#908 = ORIENTED_EDGE('',*,*,#864,.F.);
#909 = PLANE('',#910);
#910 = AXIS2_PLACEMENT_3D('',#911,#912,#913);
#911 = CARTESIAN_POINT('',(15.130276008493,2.93022184828,7.465957482109)
  );
#912 = DIRECTION('',(1.,0.,0.));
#913 = DIRECTION('',(0.,-0.342020143326,-0.939692620786));
#914 = ADVANCED_FACE('',(#915),#933,.T.);
#915 = FACE_BOUND('',#916,.T.);
#916 = EDGE_LOOP('',(#917,#918,#926,#932));
#917 = ORIENTED_EDGE('',*,*,#421,.T.);
#918 = ORIENTED_EDGE('',*,*,#919,.T.);
#919 = EDGE_CURVE('',#403,#920,#922,.T.);
#920 = VERTEX_POINT('',#921);
#921 = CARTESIAN_POINT('',(14.549384288747,2.178467751651,7.73957359677)
  );
#922 = LINE('',#923,#924);
#923 = CARTESIAN_POINT('',(14.549384288747,2.93022184828,7.465957482109)
  );
#924 = VECTOR('',#925,1.);
#925 = DIRECTION('',(0.,-0.939692620786,0.342020143326));
#926 = ORIENTED_EDGE('',*,*,#927,.T.);
#927 = EDGE_CURVE('',#920,#896,#928,.T.);
#928 = LINE('',#929,#930);
#929 = CARTESIAN_POINT('',(14.549384288747,2.178467751651,7.73957359677)
  );
#930 = VECTOR('',#931,1.);
#931 = DIRECTION('',(1.,0.,0.));
#932 = ORIENTED_EDGE('',*,*,#895,.F.);
#933 = PLANE('',#934);
#934 = AXIS2_PLACEMENT_3D('',#935,#936,#937);
#935 = CARTESIAN_POINT('',(14.549384288747,2.93022184828,7.465957482109)
  );
#936 = DIRECTION('',(0.,0.342020143326,0.939692620786));
#937 = DIRECTION('',(1.,0.,0.));
#938 = ADVANCED_FACE('',(#939),#957,.T.);
#939 = FACE_BOUND('',#940,.T.);
#940 = EDGE_LOOP('',(#941,#942,#950,#956));
#941 = ORIENTED_EDGE('',*,*,#402,.T.);
#942 = ORIENTED_EDGE('',*,*,#943,.T.);
#943 = EDGE_CURVE('',#391,#944,#946,.T.);
#944 = VERTEX_POINT('',#945);
#945 = CARTESIAN_POINT('',(14.098428874735,1.973981823073,7.177753125404
    ));
#946 = LINE('',#947,#948);
#947 = CARTESIAN_POINT('',(14.098428874735,2.725735919701,6.904137010743
    ));
#948 = VECTOR('',#949,1.);
#949 = DIRECTION('',(0.,-0.939692620786,0.342020143326));
#950 = ORIENTED_EDGE('',*,*,#951,.T.);
#951 = EDGE_CURVE('',#944,#920,#952,.T.);
#952 = B_SPLINE_CURVE_WITH_KNOTS('',2,(#953,#954,#955),.UNSPECIFIED.,.F.
  ,.F.,(3,3),(0.,1.),.PIECEWISE_BEZIER_KNOTS.);
#953 = CARTESIAN_POINT('',(14.098428874735,1.973981823073,7.177753125404
    ));
#954 = CARTESIAN_POINT('',(14.427091295117,2.061643546432,7.418601730884
    ));
#955 = CARTESIAN_POINT('',(14.549384288747,2.178467751651,7.73957359677)
  );
#956 = ORIENTED_EDGE('',*,*,#919,.F.);
#957 = SURFACE_OF_LINEAR_EXTRUSION('',#958,#962);
#958 = B_SPLINE_CURVE_WITH_KNOTS('',2,(#959,#960,#961),.UNSPECIFIED.,.F.
  ,.F.,(3,3),(0.,1.),.PIECEWISE_BEZIER_KNOTS.);
#959 = CARTESIAN_POINT('',(14.098428874735,2.725735919701,6.904137010743
    ));
#960 = CARTESIAN_POINT('',(14.427091295117,2.813397643061,7.144985616224
    ));
#961 = CARTESIAN_POINT('',(14.549384288747,2.93022184828,7.465957482109)
  );
#962 = VECTOR('',#963,1.);
#963 = DIRECTION('',(-0.,0.939692620786,-0.342020143326));
#964 = ADVANCED_FACE('',(#965),#983,.T.);
#965 = FACE_BOUND('',#966,.T.);
#966 = EDGE_LOOP('',(#967,#968,#976,#982));
#967 = ORIENTED_EDGE('',*,*,#390,.T.);
#968 = ORIENTED_EDGE('',*,*,#969,.T.);
#969 = EDGE_CURVE('',#383,#970,#972,.T.);
#970 = VERTEX_POINT('',#971);
#971 = CARTESIAN_POINT('',(13.489511677282,1.8550081919,6.850875760245)
  );
#972 = LINE('',#973,#974);
#973 = CARTESIAN_POINT('',(13.489511677282,2.606762288528,6.577259645585
    ));
#974 = VECTOR('',#975,1.);
#975 = DIRECTION('',(0.,-0.939692620786,0.342020143326));
#976 = ORIENTED_EDGE('',*,*,#977,.T.);
#977 = EDGE_CURVE('',#970,#944,#978,.T.);
#978 = B_SPLINE_CURVE_WITH_KNOTS('',2,(#979,#980,#981),.UNSPECIFIED.,.F.
  ,.F.,(3,3),(0.,1.),.PIECEWISE_BEZIER_KNOTS.);
#979 = CARTESIAN_POINT('',(13.489511677282,1.8550081919,6.850875760245)
  );
#980 = CARTESIAN_POINT('',(13.769766454352,1.886378192307,6.937064128012
    ));
#981 = CARTESIAN_POINT('',(14.098428874735,1.973981823073,7.177753125404
    ));
#982 = ORIENTED_EDGE('',*,*,#943,.F.);
#983 = SURFACE_OF_LINEAR_EXTRUSION('',#984,#988);
#984 = B_SPLINE_CURVE_WITH_KNOTS('',2,(#985,#986,#987),.UNSPECIFIED.,.F.
  ,.F.,(3,3),(0.,1.),.PIECEWISE_BEZIER_KNOTS.);
#985 = CARTESIAN_POINT('',(13.489511677282,2.606762288528,6.577259645585
    ));
#986 = CARTESIAN_POINT('',(13.769766454352,2.638132288935,6.663448013351
    ));
#987 = CARTESIAN_POINT('',(14.098428874735,2.725735919701,6.904137010743
    ));
#988 = VECTOR('',#989,1.);
#989 = DIRECTION('',(-0.,0.939692620786,-0.342020143326));
#990 = ADVANCED_FACE('',(#991),#1009,.T.);
#991 = FACE_BOUND('',#992,.T.);
#992 = EDGE_LOOP('',(#993,#994,#1002,#1008));
#993 = ORIENTED_EDGE('',*,*,#382,.T.);
#994 = ORIENTED_EDGE('',*,*,#995,.T.);
#995 = EDGE_CURVE('',#368,#996,#998,.T.);
#996 = VERTEX_POINT('',#997);
#997 = CARTESIAN_POINT('',(13.489511677282,1.63193263345,6.237980700574)
  );
#998 = LINE('',#999,#1000);
#999 = CARTESIAN_POINT('',(13.489511677282,2.383686730079,5.964364585913
    ));
#1000 = VECTOR('',#1001,1.);
#1001 = DIRECTION('',(0.,-0.939692620786,0.342020143326));
#1002 = ORIENTED_EDGE('',*,*,#1003,.T.);
#1003 = EDGE_CURVE('',#996,#970,#1004,.T.);
#1004 = LINE('',#1005,#1006);
#1005 = CARTESIAN_POINT('',(13.489511677282,1.63193263345,6.237980700574
    ));
#1006 = VECTOR('',#1007,1.);
#1007 = DIRECTION('',(0.,0.342020143326,0.939692620786));
#1008 = ORIENTED_EDGE('',*,*,#969,.F.);
#1009 = PLANE('',#1010);
#1010 = AXIS2_PLACEMENT_3D('',#1011,#1012,#1013);
#1011 = CARTESIAN_POINT('',(13.489511677282,2.383686730079,
    5.964364585913));
#1012 = DIRECTION('',(-1.,0.,0.));
#1013 = DIRECTION('',(0.,0.342020143326,0.939692620786));
#1014 = ADVANCED_FACE('',(#1015),#1033,.T.);
#1015 = FACE_BOUND('',#1016,.T.);
#1016 = EDGE_LOOP('',(#1017,#1018,#1026,#1032));
#1017 = ORIENTED_EDGE('',*,*,#367,.T.);
#1018 = ORIENTED_EDGE('',*,*,#1019,.T.);
#1019 = EDGE_CURVE('',#360,#1020,#1022,.T.);
#1020 = VERTEX_POINT('',#1021);
#1021 = CARTESIAN_POINT('',(14.414352441614,1.818293672905,
    6.750003448341));
#1022 = LINE('',#1023,#1024);
#1023 = CARTESIAN_POINT('',(14.414352441614,2.570047769534,
    6.476387333681));
#1024 = VECTOR('',#1025,1.);
#1025 = DIRECTION('',(0.,-0.939692620786,0.342020143326));
#1026 = ORIENTED_EDGE('',*,*,#1027,.T.);
#1027 = EDGE_CURVE('',#1020,#996,#1028,.T.);
#1028 = B_SPLINE_CURVE_WITH_KNOTS('',2,(#1029,#1030,#1031),
  .UNSPECIFIED.,.F.,.F.,(3,3),(0.,1.),.PIECEWISE_BEZIER_KNOTS.);
#1029 = CARTESIAN_POINT('',(14.414352441614,1.818293672905,
    6.750003448341));
#1030 = CARTESIAN_POINT('',(14.021995753715,1.692290837937,6.40381350448
    ));
#1031 = CARTESIAN_POINT('',(13.489511677282,1.63193263345,6.237980700574
    ));
#1032 = ORIENTED_EDGE('',*,*,#995,.F.);
#1033 = SURFACE_OF_LINEAR_EXTRUSION('',#1034,#1038);
#1034 = B_SPLINE_CURVE_WITH_KNOTS('',2,(#1035,#1036,#1037),
  .UNSPECIFIED.,.F.,.F.,(3,3),(0.,1.),.PIECEWISE_BEZIER_KNOTS.);
#1035 = CARTESIAN_POINT('',(14.414352441614,2.570047769534,
    6.476387333681));
#1036 = CARTESIAN_POINT('',(14.021995753715,2.444044934566,
    6.130197389819));
#1037 = CARTESIAN_POINT('',(13.489511677282,2.383686730079,
    5.964364585913));
#1038 = VECTOR('',#1039,1.);
#1039 = DIRECTION('',(-0.,0.939692620786,-0.342020143326));
#1040 = ADVANCED_FACE('',(#1041),#1052,.T.);
#1041 = FACE_BOUND('',#1042,.T.);
#1042 = EDGE_LOOP('',(#1043,#1044,#1045,#1051));
#1043 = ORIENTED_EDGE('',*,*,#359,.T.);
#1044 = ORIENTED_EDGE('',*,*,#880,.T.);
#1045 = ORIENTED_EDGE('',*,*,#1046,.T.);
#1046 = EDGE_CURVE('',#873,#1020,#1047,.T.);
#1047 = LINE('',#1048,#1049);
#1048 = CARTESIAN_POINT('',(14.414352441614,0.892065364593,
    4.205212085995));
#1049 = VECTOR('',#1050,1.);
#1050 = DIRECTION('',(0.,0.342020143326,0.939692620786));
#1051 = ORIENTED_EDGE('',*,*,#1019,.F.);
#1052 = PLANE('',#1053);
#1053 = AXIS2_PLACEMENT_3D('',#1054,#1055,#1056);
#1054 = CARTESIAN_POINT('',(14.414352441614,1.643819461222,
    3.931595971335));
#1055 = DIRECTION('',(-1.,0.,0.));
#1056 = DIRECTION('',(0.,0.342020143326,0.939692620786));
#1057 = ADVANCED_FACE('',(#1058),#1083,.T.);
#1058 = FACE_BOUND('',#1059,.T.);
#1059 = EDGE_LOOP('',(#1060,#1061,#1069,#1077));
#1060 = ORIENTED_EDGE('',*,*,#437,.T.);
#1061 = ORIENTED_EDGE('',*,*,#1062,.T.);
#1062 = EDGE_CURVE('',#440,#1063,#1065,.T.);
#1063 = VERTEX_POINT('',#1064);
#1064 = CARTESIAN_POINT('',(12.510488322718,0.892065364593,
    4.205212085995));
#1065 = LINE('',#1066,#1067);
#1066 = CARTESIAN_POINT('',(12.510488322718,1.643819461222,
    3.931595971335));
#1067 = VECTOR('',#1068,1.);
#1068 = DIRECTION('',(0.,-0.939692620786,0.342020143326));
#1069 = ORIENTED_EDGE('',*,*,#1070,.T.);
#1070 = EDGE_CURVE('',#1063,#1071,#1073,.T.);
#1071 = VERTEX_POINT('',#1072);
#1072 = CARTESIAN_POINT('',(11.794564755839,0.892065364593,
    4.205212085995));
#1073 = LINE('',#1074,#1075);
#1074 = CARTESIAN_POINT('',(12.510488322718,0.892065364593,
    4.205212085995));
#1075 = VECTOR('',#1076,1.);
#1076 = DIRECTION('',(-1.,0.,0.));
#1077 = ORIENTED_EDGE('',*,*,#1078,.F.);
#1078 = EDGE_CURVE('',#438,#1071,#1079,.T.);
#1079 = LINE('',#1080,#1081);
#1080 = CARTESIAN_POINT('',(11.794564755839,1.643819461222,
    3.931595971335));
#1081 = VECTOR('',#1082,1.);
#1082 = DIRECTION('',(0.,-0.939692620786,0.342020143326));
#1083 = PLANE('',#1084);
#1084 = AXIS2_PLACEMENT_3D('',#1085,#1086,#1087);
#1085 = CARTESIAN_POINT('',(12.510488322718,1.643819461222,
    3.931595971335));
#1086 = DIRECTION('',(0.,-0.342020143326,-0.939692620786));
#1087 = DIRECTION('',(-1.,0.,0.));
#1088 = ADVANCED_FACE('',(#1089),#1107,.T.);
#1089 = FACE_BOUND('',#1090,.T.);
#1090 = EDGE_LOOP('',(#1091,#1092,#1100,#1106));
#1091 = ORIENTED_EDGE('',*,*,#517,.T.);
#1092 = ORIENTED_EDGE('',*,*,#1093,.T.);
#1093 = EDGE_CURVE('',#510,#1094,#1096,.T.);
#1094 = VERTEX_POINT('',#1095);
#1095 = CARTESIAN_POINT('',(12.510488322718,2.178467751651,7.73957359677
    ));
#1096 = LINE('',#1097,#1098);
#1097 = CARTESIAN_POINT('',(12.510488322718,2.93022184828,7.465957482109
    ));
#1098 = VECTOR('',#1099,1.);
#1099 = DIRECTION('',(0.,-0.939692620786,0.342020143326));
#1100 = ORIENTED_EDGE('',*,*,#1101,.T.);
#1101 = EDGE_CURVE('',#1094,#1063,#1102,.T.);
#1102 = LINE('',#1103,#1104);
#1103 = CARTESIAN_POINT('',(12.510488322718,2.178467751651,7.73957359677
    ));
#1104 = VECTOR('',#1105,1.);
#1105 = DIRECTION('',(0.,-0.342020143326,-0.939692620786));
#1106 = ORIENTED_EDGE('',*,*,#1062,.F.);
#1107 = PLANE('',#1108);
#1108 = AXIS2_PLACEMENT_3D('',#1109,#1110,#1111);
#1109 = CARTESIAN_POINT('',(12.510488322718,2.93022184828,7.465957482109
    ));
#1110 = DIRECTION('',(1.,0.,0.));
#1111 = DIRECTION('',(0.,-0.342020143326,-0.939692620786));
#1112 = ADVANCED_FACE('',(#1113),#1131,.T.);
#1113 = FACE_BOUND('',#1114,.T.);
#1114 = EDGE_LOOP('',(#1115,#1116,#1124,#1130));
#1115 = ORIENTED_EDGE('',*,*,#509,.T.);
#1116 = ORIENTED_EDGE('',*,*,#1117,.T.);
#1117 = EDGE_CURVE('',#491,#1118,#1120,.T.);
#1118 = VERTEX_POINT('',#1119);
#1119 = CARTESIAN_POINT('',(11.929596602972,2.178467751651,7.73957359677
    ));
#1120 = LINE('',#1121,#1122);
#1121 = CARTESIAN_POINT('',(11.929596602972,2.93022184828,7.465957482109
    ));
#1122 = VECTOR('',#1123,1.);
#1123 = DIRECTION('',(0.,-0.939692620786,0.342020143326));
#1124 = ORIENTED_EDGE('',*,*,#1125,.T.);
#1125 = EDGE_CURVE('',#1118,#1094,#1126,.T.);
#1126 = LINE('',#1127,#1128);
#1127 = CARTESIAN_POINT('',(11.929596602972,2.178467751651,7.73957359677
    ));
#1128 = VECTOR('',#1129,1.);
#1129 = DIRECTION('',(1.,0.,0.));
#1130 = ORIENTED_EDGE('',*,*,#1093,.F.);
#1131 = PLANE('',#1132);
#1132 = AXIS2_PLACEMENT_3D('',#1133,#1134,#1135);
#1133 = CARTESIAN_POINT('',(11.929596602972,2.93022184828,7.465957482109
    ));
#1134 = DIRECTION('',(0.,0.342020143326,0.939692620786));
#1135 = DIRECTION('',(1.,0.,0.));
#1136 = ADVANCED_FACE('',(#1137),#1155,.T.);
#1137 = FACE_BOUND('',#1138,.T.);
#1138 = EDGE_LOOP('',(#1139,#1140,#1148,#1154));
#1139 = ORIENTED_EDGE('',*,*,#490,.T.);
#1140 = ORIENTED_EDGE('',*,*,#1141,.T.);
#1141 = EDGE_CURVE('',#479,#1142,#1144,.T.);
#1142 = VERTEX_POINT('',#1143);
#1143 = CARTESIAN_POINT('',(11.47864118896,1.973981823073,7.177753125404
    ));
#1144 = LINE('',#1145,#1146);
#1145 = CARTESIAN_POINT('',(11.47864118896,2.725735919701,6.904137010743
    ));
#1146 = VECTOR('',#1147,1.);
#1147 = DIRECTION('',(0.,-0.939692620786,0.342020143326));
#1148 = ORIENTED_EDGE('',*,*,#1149,.T.);
#1149 = EDGE_CURVE('',#1142,#1118,#1150,.T.);
#1150 = B_SPLINE_CURVE_WITH_KNOTS('',2,(#1151,#1152,#1153),
  .UNSPECIFIED.,.F.,.F.,(3,3),(0.,1.),.PIECEWISE_BEZIER_KNOTS.);
#1151 = CARTESIAN_POINT('',(11.47864118896,1.973981823073,7.177753125404
    ));
#1152 = CARTESIAN_POINT('',(11.807303609342,2.061643546432,
    7.418601730884));
#1153 = CARTESIAN_POINT('',(11.929596602972,2.178467751651,7.73957359677
    ));
#1154 = ORIENTED_EDGE('',*,*,#1117,.F.);
#1155 = SURFACE_OF_LINEAR_EXTRUSION('',#1156,#1160);
#1156 = B_SPLINE_CURVE_WITH_KNOTS('',2,(#1157,#1158,#1159),
  .UNSPECIFIED.,.F.,.F.,(3,3),(0.,1.),.PIECEWISE_BEZIER_KNOTS.);
#1157 = CARTESIAN_POINT('',(11.47864118896,2.725735919701,6.904137010743
    ));
#1158 = CARTESIAN_POINT('',(11.807303609342,2.813397643061,
    7.144985616224));
#1159 = CARTESIAN_POINT('',(11.929596602972,2.93022184828,7.465957482109
    ));
#1160 = VECTOR('',#1161,1.);
#1161 = DIRECTION('',(-0.,0.939692620786,-0.342020143326));
#1162 = ADVANCED_FACE('',(#1163),#1181,.T.);
#1163 = FACE_BOUND('',#1164,.T.);
#1164 = EDGE_LOOP('',(#1165,#1166,#1174,#1180));
#1165 = ORIENTED_EDGE('',*,*,#478,.T.);
#1166 = ORIENTED_EDGE('',*,*,#1167,.T.);
#1167 = EDGE_CURVE('',#471,#1168,#1170,.T.);
#1168 = VERTEX_POINT('',#1169);
#1169 = CARTESIAN_POINT('',(10.869723991507,1.8550081919,6.850875760245)
  );
#1170 = LINE('',#1171,#1172);
#1171 = CARTESIAN_POINT('',(10.869723991507,2.606762288528,
    6.577259645585));
#1172 = VECTOR('',#1173,1.);
#1173 = DIRECTION('',(0.,-0.939692620786,0.342020143326));
#1174 = ORIENTED_EDGE('',*,*,#1175,.T.);
#1175 = EDGE_CURVE('',#1168,#1142,#1176,.T.);
#1176 = B_SPLINE_CURVE_WITH_KNOTS('',2,(#1177,#1178,#1179),
  .UNSPECIFIED.,.F.,.F.,(3,3),(0.,1.),.PIECEWISE_BEZIER_KNOTS.);
#1177 = CARTESIAN_POINT('',(10.869723991507,1.8550081919,6.850875760245)
  );
#1178 = CARTESIAN_POINT('',(11.149978768577,1.886378192307,
    6.937064128012));
#1179 = CARTESIAN_POINT('',(11.47864118896,1.973981823073,7.177753125404
    ));
#1180 = ORIENTED_EDGE('',*,*,#1141,.F.);
#1181 = SURFACE_OF_LINEAR_EXTRUSION('',#1182,#1186);
#1182 = B_SPLINE_CURVE_WITH_KNOTS('',2,(#1183,#1184,#1185),
  .UNSPECIFIED.,.F.,.F.,(3,3),(0.,1.),.PIECEWISE_BEZIER_KNOTS.);
#1183 = CARTESIAN_POINT('',(10.869723991507,2.606762288528,
    6.577259645585));
#1184 = CARTESIAN_POINT('',(11.149978768577,2.638132288935,
    6.663448013351));
#1185 = CARTESIAN_POINT('',(11.47864118896,2.725735919701,6.904137010743
    ));
#1186 = VECTOR('',#1187,1.);
#1187 = DIRECTION('',(-0.,0.939692620786,-0.342020143326));
#1188 = ADVANCED_FACE('',(#1189),#1207,.T.);
#1189 = FACE_BOUND('',#1190,.T.);
#1190 = EDGE_LOOP('',(#1191,#1192,#1200,#1206));
#1191 = ORIENTED_EDGE('',*,*,#470,.T.);
#1192 = ORIENTED_EDGE('',*,*,#1193,.T.);
#1193 = EDGE_CURVE('',#456,#1194,#1196,.T.);
#1194 = VERTEX_POINT('',#1195);
#1195 = CARTESIAN_POINT('',(10.869723991507,1.63193263345,6.237980700574
    ));
#1196 = LINE('',#1197,#1198);
#1197 = CARTESIAN_POINT('',(10.869723991507,2.383686730079,
    5.964364585913));
#1198 = VECTOR('',#1199,1.);
#1199 = DIRECTION('',(0.,-0.939692620786,0.342020143326));
#1200 = ORIENTED_EDGE('',*,*,#1201,.T.);
#1201 = EDGE_CURVE('',#1194,#1168,#1202,.T.);
#1202 = LINE('',#1203,#1204);
#1203 = CARTESIAN_POINT('',(10.869723991507,1.63193263345,6.237980700574
    ));
#1204 = VECTOR('',#1205,1.);
#1205 = DIRECTION('',(0.,0.342020143326,0.939692620786));
#1206 = ORIENTED_EDGE('',*,*,#1167,.F.);
#1207 = PLANE('',#1208);
#1208 = AXIS2_PLACEMENT_3D('',#1209,#1210,#1211);
#1209 = CARTESIAN_POINT('',(10.869723991507,2.383686730079,
    5.964364585913));
#1210 = DIRECTION('',(-1.,0.,0.));
#1211 = DIRECTION('',(0.,0.342020143326,0.939692620786));
#1212 = ADVANCED_FACE('',(#1213),#1231,.T.);
#1213 = FACE_BOUND('',#1214,.T.);
#1214 = EDGE_LOOP('',(#1215,#1216,#1224,#1230));
#1215 = ORIENTED_EDGE('',*,*,#455,.T.);
#1216 = ORIENTED_EDGE('',*,*,#1217,.T.);
#1217 = EDGE_CURVE('',#448,#1218,#1220,.T.);
#1218 = VERTEX_POINT('',#1219);
#1219 = CARTESIAN_POINT('',(11.794564755839,1.818293672905,
    6.750003448341));
#1220 = LINE('',#1221,#1222);
#1221 = CARTESIAN_POINT('',(11.794564755839,2.570047769534,
    6.476387333681));
#1222 = VECTOR('',#1223,1.);
#1223 = DIRECTION('',(0.,-0.939692620786,0.342020143326));
#1224 = ORIENTED_EDGE('',*,*,#1225,.T.);
#1225 = EDGE_CURVE('',#1218,#1194,#1226,.T.);
#1226 = B_SPLINE_CURVE_WITH_KNOTS('',2,(#1227,#1228,#1229),
  .UNSPECIFIED.,.F.,.F.,(3,3),(0.,1.),.PIECEWISE_BEZIER_KNOTS.);
#1227 = CARTESIAN_POINT('',(11.794564755839,1.818293672905,
    6.750003448341));
#1228 = CARTESIAN_POINT('',(11.402208067941,1.692290837937,6.40381350448
    ));
#1229 = CARTESIAN_POINT('',(10.869723991507,1.63193263345,6.237980700574
    ));
#1230 = ORIENTED_EDGE('',*,*,#1193,.F.);
#1231 = SURFACE_OF_LINEAR_EXTRUSION('',#1232,#1236);
#1232 = B_SPLINE_CURVE_WITH_KNOTS('',2,(#1233,#1234,#1235),
  .UNSPECIFIED.,.F.,.F.,(3,3),(0.,1.),.PIECEWISE_BEZIER_KNOTS.);
#1233 = CARTESIAN_POINT('',(11.794564755839,2.570047769534,
    6.476387333681));
#1234 = CARTESIAN_POINT('',(11.402208067941,2.444044934566,
    6.130197389819));
#1235 = CARTESIAN_POINT('',(10.869723991507,2.383686730079,
    5.964364585913));
#1236 = VECTOR('',#1237,1.);
#1237 = DIRECTION('',(-0.,0.939692620786,-0.342020143326));
#1238 = ADVANCED_FACE('',(#1239),#1250,.T.);
#1239 = FACE_BOUND('',#1240,.T.);
#1240 = EDGE_LOOP('',(#1241,#1242,#1243,#1249));
#1241 = ORIENTED_EDGE('',*,*,#447,.T.);
#1242 = ORIENTED_EDGE('',*,*,#1078,.T.);
#1243 = ORIENTED_EDGE('',*,*,#1244,.T.);
#1244 = EDGE_CURVE('',#1071,#1218,#1245,.T.);
#1245 = LINE('',#1246,#1247);
#1246 = CARTESIAN_POINT('',(11.794564755839,0.892065364593,
    4.205212085995));
#1247 = VECTOR('',#1248,1.);
#1248 = DIRECTION('',(0.,0.342020143326,0.939692620786));
#1249 = ORIENTED_EDGE('',*,*,#1217,.F.);
#1250 = PLANE('',#1251);
#1251 = AXIS2_PLACEMENT_3D('',#1252,#1253,#1254);
#1252 = CARTESIAN_POINT('',(11.794564755839,1.643819461222,
    3.931595971335));
#1253 = DIRECTION('',(-1.,0.,0.));
#1254 = DIRECTION('',(0.,0.342020143326,0.939692620786));
#1255 = ADVANCED_FACE('',(#1256),#1281,.F.);
#1256 = FACE_BOUND('',#1257,.F.);
#1257 = EDGE_LOOP('',(#1258,#1266,#1274,#1280));
#1258 = ORIENTED_EDGE('',*,*,#1259,.F.);
#1259 = EDGE_CURVE('',#1260,#284,#1262,.T.);
#1260 = VERTEX_POINT('',#1261);
#1261 = CARTESIAN_POINT('',(30.,12.6,0.));
#1262 = LINE('',#1263,#1264);
#1263 = CARTESIAN_POINT('',(30.,12.6,0.));
#1264 = VECTOR('',#1265,1.);
#1265 = DIRECTION('',(-0.971520338783,-0.236956180191,0.));
#1266 = ORIENTED_EDGE('',*,*,#1267,.T.);
#1267 = EDGE_CURVE('',#1260,#1268,#1270,.T.);
#1268 = VERTEX_POINT('',#1269);
#1269 = CARTESIAN_POINT('',(30.,12.6,10.));
#1270 = LINE('',#1271,#1272);
#1271 = CARTESIAN_POINT('',(30.,12.6,0.));
#1272 = VECTOR('',#1273,1.);
#1273 = DIRECTION('',(0.,0.,1.));
#1274 = ORIENTED_EDGE('',*,*,#1275,.T.);
#1275 = EDGE_CURVE('',#1268,#95,#1276,.T.);
#1276 = LINE('',#1277,#1278);
#1277 = CARTESIAN_POINT('',(30.,12.6,10.));
#1278 = VECTOR('',#1279,1.);
#1279 = DIRECTION('',(-0.971520338783,-0.236956180191,0.));
#1280 = ORIENTED_EDGE('',*,*,#600,.T.);
#1281 = PLANE('',#1282);
#1282 = AXIS2_PLACEMENT_3D('',#1283,#1284,#1285);
#1283 = CARTESIAN_POINT('',(30.,12.6,0.));
#1284 = DIRECTION('',(0.236956180191,-0.971520338783,0.));
#1285 = DIRECTION('',(-0.971520338783,-0.236956180191,0.));
#1286 = ADVANCED_FACE('',(#1287),#1305,.T.);
#1287 = FACE_BOUND('',#1288,.T.);
#1288 = EDGE_LOOP('',(#1289,#1290,#1298,#1304));
#1289 = ORIENTED_EDGE('',*,*,#617,.F.);
#1290 = ORIENTED_EDGE('',*,*,#1291,.T.);
#1291 = EDGE_CURVE('',#71,#1292,#1294,.T.);
#1292 = VERTEX_POINT('',#1293);
#1293 = CARTESIAN_POINT('',(30.,6.6,10.));
#1294 = LINE('',#1295,#1296);
#1295 = CARTESIAN_POINT('',(25.9,7.6,10.));
#1296 = VECTOR('',#1297,1.);
#1297 = DIRECTION('',(0.971520338783,-0.236956180191,0.));
#1298 = ORIENTED_EDGE('',*,*,#1299,.T.);
#1299 = EDGE_CURVE('',#1292,#1268,#1300,.T.);
#1300 = LINE('',#1301,#1302);
#1301 = CARTESIAN_POINT('',(30.,6.6,10.));
#1302 = VECTOR('',#1303,1.);
#1303 = DIRECTION('',(0.,1.,0.));
#1304 = ORIENTED_EDGE('',*,*,#1275,.T.);
#1305 = PLANE('',#1306);
#1306 = AXIS2_PLACEMENT_3D('',#1307,#1308,#1309);
#1307 = CARTESIAN_POINT('',(28.172338161771,9.6,10.));
#1308 = DIRECTION('',(0.,0.,1.));
#1309 = DIRECTION('',(1.,0.,0.));
#1310 = ADVANCED_FACE('',(#1311),#1329,.F.);
#1311 = FACE_BOUND('',#1312,.F.);
#1312 = EDGE_LOOP('',(#1313,#1321,#1322,#1323));
#1313 = ORIENTED_EDGE('',*,*,#1314,.F.);
#1314 = EDGE_CURVE('',#260,#1315,#1317,.T.);
#1315 = VERTEX_POINT('',#1316);
#1316 = CARTESIAN_POINT('',(30.,6.6,0.));
#1317 = LINE('',#1318,#1319);
#1318 = CARTESIAN_POINT('',(25.9,7.6,0.));
#1319 = VECTOR('',#1320,1.);
#1320 = DIRECTION('',(0.971520338783,-0.236956180191,0.));
#1321 = ORIENTED_EDGE('',*,*,#636,.T.);
#1322 = ORIENTED_EDGE('',*,*,#1291,.T.);
#1323 = ORIENTED_EDGE('',*,*,#1324,.F.);
#1324 = EDGE_CURVE('',#1315,#1292,#1325,.T.);
#1325 = LINE('',#1326,#1327);
#1326 = CARTESIAN_POINT('',(30.,6.6,0.));
#1327 = VECTOR('',#1328,1.);
#1328 = DIRECTION('',(0.,0.,1.));
#1329 = PLANE('',#1330);
#1330 = AXIS2_PLACEMENT_3D('',#1331,#1332,#1333);
#1331 = CARTESIAN_POINT('',(25.9,7.6,0.));
#1332 = DIRECTION('',(0.236956180191,0.971520338783,0.));
#1333 = DIRECTION('',(0.971520338783,-0.236956180191,0.));
#1334 = ADVANCED_FACE('',(#1335),#1361,.T.);
#1335 = FACE_BOUND('',#1336,.T.);
#1336 = EDGE_LOOP('',(#1337,#1345,#1346,#1354));
#1337 = ORIENTED_EDGE('',*,*,#1338,.F.);
#1338 = EDGE_CURVE('',#651,#1339,#1341,.T.);
#1339 = VERTEX_POINT('',#1340);
#1340 = CARTESIAN_POINT('',(8.1,24.84,21.));
#1341 = LINE('',#1342,#1343);
#1342 = CARTESIAN_POINT('',(8.1,25.09,20.75));
#1343 = VECTOR('',#1344,1.);
#1344 = DIRECTION('',(-2.90882763039E-35,-0.707106781187,0.707106781187)
  );
#1345 = ORIENTED_EDGE('',*,*,#667,.T.);
#1346 = ORIENTED_EDGE('',*,*,#1347,.T.);
#1347 = EDGE_CURVE('',#660,#1348,#1350,.T.);
#1348 = VERTEX_POINT('',#1349);
#1349 = CARTESIAN_POINT('',(8.,24.74,21.));
#1350 = LINE('',#1351,#1352);
#1351 = CARTESIAN_POINT('',(7.5,24.74,20.5));
#1352 = VECTOR('',#1353,1.);
#1353 = DIRECTION('',(0.707106781187,-4.329780281177E-17,0.707106781187)
  );
#1354 = ORIENTED_EDGE('',*,*,#1355,.F.);
#1355 = EDGE_CURVE('',#1339,#1348,#1356,.T.);
#1356 = CIRCLE('',#1357,1.E-01);
#1357 = AXIS2_PLACEMENT_3D('',#1358,#1359,#1360);
#1358 = CARTESIAN_POINT('',(8.1,24.74,21.));
#1359 = DIRECTION('',(0.,-0.,1.));
#1360 = DIRECTION('',(0.,1.,0.));
#1361 = CONICAL_SURFACE('',#1362,0.6,0.785398163397);
#1362 = AXIS2_PLACEMENT_3D('',#1363,#1364,#1365);
#1363 = CARTESIAN_POINT('',(8.1,24.74,20.5));
#1364 = DIRECTION('',(-0.,-0.,-1.));
#1365 = DIRECTION('',(0.,1.,0.));
#1366 = ADVANCED_FACE('',(#1367),#1385,.F.);
#1367 = FACE_BOUND('',#1368,.T.);
#1368 = EDGE_LOOP('',(#1369,#1377,#1378,#1379));
#1369 = ORIENTED_EDGE('',*,*,#1370,.F.);
#1370 = EDGE_CURVE('',#684,#1371,#1373,.T.);
#1371 = VERTEX_POINT('',#1372);
#1372 = CARTESIAN_POINT('',(17.9,24.84,21.));
#1373 = LINE('',#1374,#1375);
#1374 = CARTESIAN_POINT('',(17.9,25.09,20.75));
#1375 = VECTOR('',#1376,1.);
#1376 = DIRECTION('',(-2.90882763039E-35,-0.707106781187,0.707106781187)
  );
#1377 = ORIENTED_EDGE('',*,*,#691,.T.);
#1378 = ORIENTED_EDGE('',*,*,#1338,.T.);
#1379 = ORIENTED_EDGE('',*,*,#1380,.F.);
#1380 = EDGE_CURVE('',#1371,#1339,#1381,.T.);
#1381 = LINE('',#1382,#1383);
#1382 = CARTESIAN_POINT('',(17.9,24.84,21.));
#1383 = VECTOR('',#1384,1.);
#1384 = DIRECTION('',(-1.,0.,0.));
#1385 = PLANE('',#1386);
#1386 = AXIS2_PLACEMENT_3D('',#1387,#1388,#1389);
#1387 = CARTESIAN_POINT('',(17.9,25.09,20.75));
#1388 = DIRECTION('',(-1.889513820523E-18,-0.707106781187,
    -0.707106781187));
#1389 = DIRECTION('',(1.,-1.336088035637E-18,-1.336088035637E-18));
#1390 = ADVANCED_FACE('',(#1391),#1409,.F.);
#1391 = FACE_BOUND('',#1392,.T.);
#1392 = EDGE_LOOP('',(#1393,#1394,#1395,#1403));
#1393 = ORIENTED_EDGE('',*,*,#1347,.F.);
#1394 = ORIENTED_EDGE('',*,*,#708,.T.);
#1395 = ORIENTED_EDGE('',*,*,#1396,.T.);
#1396 = EDGE_CURVE('',#709,#1397,#1399,.T.);
#1397 = VERTEX_POINT('',#1398);
#1398 = CARTESIAN_POINT('',(8.,14.94,21.));
#1399 = LINE('',#1400,#1401);
#1400 = CARTESIAN_POINT('',(7.75,14.94,20.75));
#1401 = VECTOR('',#1402,1.);
#1402 = DIRECTION('',(0.707106781187,-2.90882763039E-35,0.707106781187)
  );
#1403 = ORIENTED_EDGE('',*,*,#1404,.F.);
#1404 = EDGE_CURVE('',#1348,#1397,#1405,.T.);
#1405 = LINE('',#1406,#1407);
#1406 = CARTESIAN_POINT('',(8.,24.74,21.));
#1407 = VECTOR('',#1408,1.);
#1408 = DIRECTION('',(0.,-1.,0.));
#1409 = PLANE('',#1410);
#1410 = AXIS2_PLACEMENT_3D('',#1411,#1412,#1413);
#1411 = CARTESIAN_POINT('',(7.75,24.74,20.75));
#1412 = DIRECTION('',(0.707106781187,1.889513820523E-18,-0.707106781187)
  );
#1413 = DIRECTION('',(-1.336088035637E-18,1.,1.336088035637E-18));
#1414 = ADVANCED_FACE('',(#1415),#1434,.T.);
#1415 = FACE_BOUND('',#1416,.T.);
#1416 = EDGE_LOOP('',(#1417,#1425,#1426,#1427));
#1417 = ORIENTED_EDGE('',*,*,#1418,.F.);
#1418 = EDGE_CURVE('',#733,#1419,#1421,.T.);
#1419 = VERTEX_POINT('',#1420);
#1420 = CARTESIAN_POINT('',(18.,24.74,21.));
#1421 = LINE('',#1422,#1423);
#1422 = CARTESIAN_POINT('',(18.25,24.74,20.75));
#1423 = VECTOR('',#1424,1.);
#1424 = DIRECTION('',(-0.707106781187,5.615430530155E-36,0.707106781187)
  );
#1425 = ORIENTED_EDGE('',*,*,#740,.T.);
#1426 = ORIENTED_EDGE('',*,*,#1370,.T.);
#1427 = ORIENTED_EDGE('',*,*,#1428,.F.);
#1428 = EDGE_CURVE('',#1419,#1371,#1429,.T.);
#1429 = CIRCLE('',#1430,1.E-01);
#1430 = AXIS2_PLACEMENT_3D('',#1431,#1432,#1433);
#1431 = CARTESIAN_POINT('',(17.9,24.74,21.));
#1432 = DIRECTION('',(0.,0.,1.));
#1433 = DIRECTION('',(1.,0.,0.));
#1434 = CONICAL_SURFACE('',#1435,0.6,0.785398163397);
#1435 = AXIS2_PLACEMENT_3D('',#1436,#1437,#1438);
#1436 = CARTESIAN_POINT('',(17.9,24.74,20.5));
#1437 = DIRECTION('',(-0.,-0.,-1.));
#1438 = DIRECTION('',(1.,0.,0.));
#1439 = ADVANCED_FACE('',(#1440),#1459,.T.);
#1440 = FACE_BOUND('',#1441,.T.);
#1441 = EDGE_LOOP('',(#1442,#1443,#1444,#1452));
#1442 = ORIENTED_EDGE('',*,*,#1396,.F.);
#1443 = ORIENTED_EDGE('',*,*,#765,.T.);
#1444 = ORIENTED_EDGE('',*,*,#1445,.T.);
#1445 = EDGE_CURVE('',#758,#1446,#1448,.T.);
#1446 = VERTEX_POINT('',#1447);
#1447 = CARTESIAN_POINT('',(8.1,14.84,21.));
#1448 = LINE('',#1449,#1450);
#1449 = CARTESIAN_POINT('',(8.1,14.34,20.5));
#1450 = VECTOR('',#1451,1.);
#1451 = DIRECTION('',(4.329780281177E-17,0.707106781187,0.707106781187)
  );
#1452 = ORIENTED_EDGE('',*,*,#1453,.F.);
#1453 = EDGE_CURVE('',#1397,#1446,#1454,.T.);
#1454 = CIRCLE('',#1455,1.E-01);
#1455 = AXIS2_PLACEMENT_3D('',#1456,#1457,#1458);
#1456 = CARTESIAN_POINT('',(8.1,14.94,21.));
#1457 = DIRECTION('',(0.,0.,1.));
#1458 = DIRECTION('',(-1.,0.,0.));
#1459 = CONICAL_SURFACE('',#1460,0.6,0.785398163397);
#1460 = AXIS2_PLACEMENT_3D('',#1461,#1462,#1463);
#1461 = CARTESIAN_POINT('',(8.1,14.94,20.5));
#1462 = DIRECTION('',(-0.,-0.,-1.));
#1463 = DIRECTION('',(-1.,0.,0.));
#1464 = ADVANCED_FACE('',(#1465),#1483,.F.);
#1465 = FACE_BOUND('',#1466,.T.);
#1466 = EDGE_LOOP('',(#1467,#1475,#1476,#1477));
#1467 = ORIENTED_EDGE('',*,*,#1468,.F.);
#1468 = EDGE_CURVE('',#782,#1469,#1471,.T.);
#1469 = VERTEX_POINT('',#1470);
#1470 = CARTESIAN_POINT('',(18.,14.94,21.));
#1471 = LINE('',#1472,#1473);
#1472 = CARTESIAN_POINT('',(18.5,14.94,20.5));
#1473 = VECTOR('',#1474,1.);
#1474 = DIRECTION('',(-0.707106781187,4.329780281177E-17,0.707106781187)
  );
#1475 = ORIENTED_EDGE('',*,*,#789,.T.);
#1476 = ORIENTED_EDGE('',*,*,#1418,.T.);
#1477 = ORIENTED_EDGE('',*,*,#1478,.F.);
#1478 = EDGE_CURVE('',#1469,#1419,#1479,.T.);
#1479 = LINE('',#1480,#1481);
#1480 = CARTESIAN_POINT('',(18.,14.94,21.));
#1481 = VECTOR('',#1482,1.);
#1482 = DIRECTION('',(0.,1.,0.));
#1483 = PLANE('',#1484);
#1484 = AXIS2_PLACEMENT_3D('',#1485,#1486,#1487);
#1485 = CARTESIAN_POINT('',(18.25,14.94,20.75));
#1486 = DIRECTION('',(-0.707106781187,1.479157021432E-19,-0.707106781187
    ));
#1487 = DIRECTION('',(-1.045921960294E-19,-1.,-1.045921960294E-19));
#1488 = ADVANCED_FACE('',(#1489),#1507,.F.);
#1489 = FACE_BOUND('',#1490,.T.);
#1490 = EDGE_LOOP('',(#1491,#1492,#1493,#1501));
#1491 = ORIENTED_EDGE('',*,*,#1445,.F.);
#1492 = ORIENTED_EDGE('',*,*,#806,.T.);
#1493 = ORIENTED_EDGE('',*,*,#1494,.T.);
#1494 = EDGE_CURVE('',#807,#1495,#1497,.T.);
#1495 = VERTEX_POINT('',#1496);
#1496 = CARTESIAN_POINT('',(17.9,14.84,21.));
#1497 = LINE('',#1498,#1499);
#1498 = CARTESIAN_POINT('',(17.9,14.59,20.75));
#1499 = VECTOR('',#1500,1.);
#1500 = DIRECTION('',(2.26130160805E-35,0.707106781187,0.707106781187));
#1501 = ORIENTED_EDGE('',*,*,#1502,.F.);
#1502 = EDGE_CURVE('',#1446,#1495,#1503,.T.);
#1503 = LINE('',#1504,#1505);
#1504 = CARTESIAN_POINT('',(8.1,14.84,21.));
#1505 = VECTOR('',#1506,1.);
#1506 = DIRECTION('',(1.,0.,0.));
#1507 = PLANE('',#1508);
#1508 = AXIS2_PLACEMENT_3D('',#1509,#1510,#1511);
#1509 = CARTESIAN_POINT('',(8.1,14.59,20.75));
#1510 = DIRECTION('',(-3.029276165476E-18,0.707106781187,-0.707106781187
    ));
#1511 = DIRECTION('',(-1.,-2.142021718695E-18,2.142021718695E-18));
#1512 = ADVANCED_FACE('',(#1513),#1525,.T.);
#1513 = FACE_BOUND('',#1514,.T.);
#1514 = EDGE_LOOP('',(#1515,#1516,#1517,#1518));
#1515 = ORIENTED_EDGE('',*,*,#1494,.F.);
#1516 = ORIENTED_EDGE('',*,*,#831,.T.);
#1517 = ORIENTED_EDGE('',*,*,#1468,.T.);
#1518 = ORIENTED_EDGE('',*,*,#1519,.F.);
#1519 = EDGE_CURVE('',#1495,#1469,#1520,.T.);
#1520 = CIRCLE('',#1521,1.E-01);
#1521 = AXIS2_PLACEMENT_3D('',#1522,#1523,#1524);
#1522 = CARTESIAN_POINT('',(17.9,14.94,21.));
#1523 = DIRECTION('',(-0.,0.,1.));
#1524 = DIRECTION('',(0.,-1.,0.));
#1525 = CONICAL_SURFACE('',#1526,0.6,0.785398163397);
#1526 = AXIS2_PLACEMENT_3D('',#1527,#1528,#1529);
#1527 = CARTESIAN_POINT('',(17.9,14.94,20.5));
#1528 = DIRECTION('',(-0.,-0.,-1.));
#1529 = DIRECTION('',(0.,-1.,0.));
#1530 = ADVANCED_FACE('',(#1531),#1542,.F.);
#1531 = FACE_BOUND('',#1532,.F.);
#1532 = EDGE_LOOP('',(#1533,#1534,#1535,#1541));
#1533 = ORIENTED_EDGE('',*,*,#847,.F.);
#1534 = ORIENTED_EDGE('',*,*,#1314,.T.);
#1535 = ORIENTED_EDGE('',*,*,#1536,.T.);
#1536 = EDGE_CURVE('',#1315,#1260,#1537,.T.);
#1537 = LINE('',#1538,#1539);
#1538 = CARTESIAN_POINT('',(30.,6.6,0.));
#1539 = VECTOR('',#1540,1.);
#1540 = DIRECTION('',(0.,1.,0.));
#1541 = ORIENTED_EDGE('',*,*,#1259,.T.);
#1542 = PLANE('',#1543);
#1543 = AXIS2_PLACEMENT_3D('',#1544,#1545,#1546);
#1544 = CARTESIAN_POINT('',(28.172338161771,9.6,0.));
#1545 = DIRECTION('',(0.,0.,1.));
#1546 = DIRECTION('',(1.,0.,0.));
#1547 = ADVANCED_FACE('',(#1548),#1558,.T.);
#1548 = FACE_BOUND('',#1549,.F.);
#1549 = EDGE_LOOP('',(#1550,#1551,#1552,#1553,#1554,#1555,#1556,#1557));
#1550 = ORIENTED_EDGE('',*,*,#872,.T.);
#1551 = ORIENTED_EDGE('',*,*,#1046,.T.);
#1552 = ORIENTED_EDGE('',*,*,#1027,.T.);
#1553 = ORIENTED_EDGE('',*,*,#1003,.T.);
#1554 = ORIENTED_EDGE('',*,*,#977,.T.);
#1555 = ORIENTED_EDGE('',*,*,#951,.T.);
#1556 = ORIENTED_EDGE('',*,*,#927,.T.);
#1557 = ORIENTED_EDGE('',*,*,#903,.T.);
#1558 = PLANE('',#1559);
#1559 = AXIS2_PLACEMENT_3D('',#1560,#1561,#1562);
#1560 = CARTESIAN_POINT('',(14.562750109803,1.574120018213,6.07914184565
    ));
#1561 = DIRECTION('',(0.,-0.939692620786,0.342020143326));
#1562 = DIRECTION('',(1.,0.,0.));
#1563 = ADVANCED_FACE('',(#1564),#1574,.T.);
#1564 = FACE_BOUND('',#1565,.F.);
#1565 = EDGE_LOOP('',(#1566,#1567,#1568,#1569,#1570,#1571,#1572,#1573));
#1566 = ORIENTED_EDGE('',*,*,#1070,.T.);
#1567 = ORIENTED_EDGE('',*,*,#1244,.T.);
#1568 = ORIENTED_EDGE('',*,*,#1225,.T.);
#1569 = ORIENTED_EDGE('',*,*,#1201,.T.);
#1570 = ORIENTED_EDGE('',*,*,#1175,.T.);
#1571 = ORIENTED_EDGE('',*,*,#1149,.T.);
#1572 = ORIENTED_EDGE('',*,*,#1125,.T.);
#1573 = ORIENTED_EDGE('',*,*,#1101,.T.);
#1574 = PLANE('',#1575);
#1575 = AXIS2_PLACEMENT_3D('',#1576,#1577,#1578);
#1576 = CARTESIAN_POINT('',(11.942962424028,1.574120018213,6.07914184565
    ));
#1577 = DIRECTION('',(0.,-0.939692620786,0.342020143326));
#1578 = DIRECTION('',(1.,0.,0.));
#1579 = ADVANCED_FACE('',(#1580),#1586,.F.);
#1580 = FACE_BOUND('',#1581,.F.);
#1581 = EDGE_LOOP('',(#1582,#1583,#1584,#1585));
#1582 = ORIENTED_EDGE('',*,*,#1324,.T.);
#1583 = ORIENTED_EDGE('',*,*,#1299,.T.);
#1584 = ORIENTED_EDGE('',*,*,#1267,.F.);
#1585 = ORIENTED_EDGE('',*,*,#1536,.F.);
#1586 = PLANE('',#1587);
#1587 = AXIS2_PLACEMENT_3D('',#1588,#1589,#1590);
#1588 = CARTESIAN_POINT('',(30.,6.6,0.));
#1589 = DIRECTION('',(-1.,0.,0.));
#1590 = DIRECTION('',(0.,1.,0.));
#1591 = ADVANCED_FACE('',(#1592),#1602,.T.);
#1592 = FACE_BOUND('',#1593,.T.);
#1593 = EDGE_LOOP('',(#1594,#1595,#1596,#1597,#1598,#1599,#1600,#1601));
#1594 = ORIENTED_EDGE('',*,*,#1380,.T.);
#1595 = ORIENTED_EDGE('',*,*,#1355,.T.);
#1596 = ORIENTED_EDGE('',*,*,#1404,.T.);
#1597 = ORIENTED_EDGE('',*,*,#1453,.T.);
#1598 = ORIENTED_EDGE('',*,*,#1502,.T.);
#1599 = ORIENTED_EDGE('',*,*,#1519,.T.);
#1600 = ORIENTED_EDGE('',*,*,#1478,.T.);
#1601 = ORIENTED_EDGE('',*,*,#1428,.T.);
#1602 = PLANE('',#1603);
#1603 = AXIS2_PLACEMENT_3D('',#1604,#1605,#1606);
#1604 = CARTESIAN_POINT('',(13.,19.84,21.));
#1605 = DIRECTION('',(0.,0.,1.));
#1606 = DIRECTION('',(1.,0.,0.));
#1607 = ( GEOMETRIC_REPRESENTATION_CONTEXT(3) 
GLOBAL_UNCERTAINTY_ASSIGNED_CONTEXT((#1611)) 
GLOBAL_UNIT_ASSIGNED_CONTEXT((#1608,#1609,#1610)) REPRESENTATION_CONTEXT
('Context #1','3D Context with UNIT and UNCERTAINTY') );
#1608 = ( LENGTH_UNIT() NAMED_UNIT(*) SI_UNIT(.MILLI.,.METRE.) );
#1609 = ( NAMED_UNIT(*) PLANE_ANGLE_UNIT() SI_UNIT($,.RADIAN.) );
#1610 = ( NAMED_UNIT(*) SI_UNIT($,.STERADIAN.) SOLID_ANGLE_UNIT() );
#1611 = UNCERTAINTY_MEASURE_WITH_UNIT(LENGTH_MEASURE(5.E-07),#1608,
  'distance_accuracy_value','confusion accuracy');
#1612 = PRODUCT_RELATED_PRODUCT_CATEGORY('part',$,(#7));
ENDSEC;
END-ISO-10303-21;
