ISO-10303-21;
HEADER;
FILE_DESCRIPTION(('FreeCAD Model'),'2;1');
FILE_NAME('Open CASCADE Shape Model','2026-08-30T15:30:44',('FreeCAD'),(
    'FreeCAD'),'Open CASCADE STEP processor 7.8','FreeCAD','Unknown');
FILE_SCHEMA(('AUTOMOTIVE_DESIGN { 1 0 10303 214 1 1 1 1 }'));
ENDSEC;
DATA;
#1 = APPLICATION_PROTOCOL_DEFINITION('international standard',
  'automotive_design',2000,#2);
#2 = APPLICATION_CONTEXT(
  'core data for automotive mechanical design processes');
#3 = SHAPE_DEFINITION_REPRESENTATION(#4,#10);
#4 = PRODUCT_DEFINITION_SHAPE('','',#5);
#5 = PRODUCT_DEFINITION('design','',#6,#9);
#6 = PRODUCT_DEFINITION_FORMATION('','',#7);
#7 = PRODUCT('Open CASCADE STEP translator 7.8 83',
  'Open CASCADE STEP translator 7.8 83','',(#8));
#8 = PRODUCT_CONTEXT('',#2,'mechanical');
#9 = PRODUCT_DEFINITION_CONTEXT('part definition',#2,'design');
#10 = SHAPE_REPRESENTATION('',(#11,#15,#303),#1042);
#11 = AXIS2_PLACEMENT_3D('',#12,#13,#14);
#12 = CARTESIAN_POINT('',(0.,0.,0.));
#13 = DIRECTION('',(0.,0.,1.));
#14 = DIRECTION('',(1.,0.,-0.));
#15 = MANIFOLD_SOLID_BREP('',#16);
#16 = CLOSED_SHELL('',(#17,#57,#88,#121,#152,#185,#218,#249,#271,#287));
#17 = ADVANCED_FACE('',(#18),#52,.T.);
#18 = FACE_BOUND('',#19,.T.);
#19 = EDGE_LOOP('',(#20,#30,#38,#46));
#20 = ORIENTED_EDGE('',*,*,#21,.T.);
#21 = EDGE_CURVE('',#22,#24,#26,.T.);
#22 = VERTEX_POINT('',#23);
#23 = CARTESIAN_POINT('',(20.035923566879,1.461834344089,3.431595971335)
  );
#24 = VERTEX_POINT('',#25);
#25 = CARTESIAN_POINT('',(20.035923566879,0.71008024746,3.705212085995)
  );
#26 = LINE('',#27,#28);
#27 = CARTESIAN_POINT('',(20.035923566879,1.461834344089,3.431595971335)
  );
#28 = VECTOR('',#29,1.);
#29 = DIRECTION('',(0.,-0.939692620786,0.342020143326));
#30 = ORIENTED_EDGE('',*,*,#31,.T.);
#31 = EDGE_CURVE('',#24,#32,#34,.T.);
#32 = VERTEX_POINT('',#33);
#33 = CARTESIAN_POINT('',(18.962038216561,0.71008024746,3.705212085995)
  );
#34 = LINE('',#35,#36);
#35 = CARTESIAN_POINT('',(20.035923566879,0.71008024746,3.705212085995)
  );
#36 = VECTOR('',#37,1.);
#37 = DIRECTION('',(-1.,0.,0.));
#38 = ORIENTED_EDGE('',*,*,#39,.F.);
#39 = EDGE_CURVE('',#40,#32,#42,.T.);
#40 = VERTEX_POINT('',#41);
#41 = CARTESIAN_POINT('',(18.962038216561,1.461834344089,3.431595971335)
  );
#42 = LINE('',#43,#44);
#43 = CARTESIAN_POINT('',(18.962038216561,1.461834344089,3.431595971335)
  );
#44 = VECTOR('',#45,1.);
#45 = DIRECTION('',(0.,-0.939692620786,0.342020143326));
#46 = ORIENTED_EDGE('',*,*,#47,.F.);
#47 = EDGE_CURVE('',#22,#40,#48,.T.);
#48 = LINE('',#49,#50);
#49 = CARTESIAN_POINT('',(20.035923566879,1.461834344089,3.431595971335)
  );
#50 = VECTOR('',#51,1.);
#51 = DIRECTION('',(-1.,0.,0.));
#52 = PLANE('',#53);
#53 = AXIS2_PLACEMENT_3D('',#54,#55,#56);
#54 = CARTESIAN_POINT('',(20.035923566879,1.461834344089,3.431595971335)
  );
#55 = DIRECTION('',(0.,-0.342020143326,-0.939692620786));
#56 = DIRECTION('',(-1.,0.,0.));
#57 = ADVANCED_FACE('',(#58),#83,.T.);
#58 = FACE_BOUND('',#59,.T.);
#59 = EDGE_LOOP('',(#60,#61,#69,#77));
#60 = ORIENTED_EDGE('',*,*,#39,.T.);
#61 = ORIENTED_EDGE('',*,*,#62,.T.);
#62 = EDGE_CURVE('',#32,#63,#65,.T.);
#63 = VERTEX_POINT('',#64);
#64 = CARTESIAN_POINT('',(18.962038216561,2.099422709928,7.522399129514)
  );
#65 = LINE('',#66,#67);
#66 = CARTESIAN_POINT('',(18.962038216561,0.71008024746,3.705212085995)
  );
#67 = VECTOR('',#68,1.);
#68 = DIRECTION('',(0.,0.342020143326,0.939692620786));
#69 = ORIENTED_EDGE('',*,*,#70,.F.);
#70 = EDGE_CURVE('',#71,#63,#73,.T.);
#71 = VERTEX_POINT('',#72);
#72 = CARTESIAN_POINT('',(18.962038216561,2.851176806556,7.248783014853)
  );
#73 = LINE('',#74,#75);
#74 = CARTESIAN_POINT('',(18.962038216561,2.851176806556,7.248783014853)
  );
#75 = VECTOR('',#76,1.);
#76 = DIRECTION('',(0.,-0.939692620786,0.342020143326));
#77 = ORIENTED_EDGE('',*,*,#78,.F.);
#78 = EDGE_CURVE('',#40,#71,#79,.T.);
#79 = LINE('',#80,#81);
#80 = CARTESIAN_POINT('',(18.962038216561,1.461834344089,3.431595971335)
  );
#81 = VECTOR('',#82,1.);
#82 = DIRECTION('',(0.,0.342020143326,0.939692620786));
#83 = PLANE('',#84);
#84 = AXIS2_PLACEMENT_3D('',#85,#86,#87);
#85 = CARTESIAN_POINT('',(18.962038216561,1.461834344089,3.431595971335)
  );
#86 = DIRECTION('',(-1.,0.,0.));
#87 = DIRECTION('',(0.,0.342020143326,0.939692620786));
#88 = ADVANCED_FACE('',(#89),#114,.T.);
#89 = FACE_BOUND('',#90,.T.);
#90 = EDGE_LOOP('',(#91,#92,#100,#108));
#91 = ORIENTED_EDGE('',*,*,#70,.T.);
#92 = ORIENTED_EDGE('',*,*,#93,.T.);
#93 = EDGE_CURVE('',#63,#94,#96,.T.);
#94 = VERTEX_POINT('',#95);
#95 = CARTESIAN_POINT('',(17.574777070064,1.819881150746,6.754365007863)
  );
#96 = B_SPLINE_CURVE_WITH_KNOTS('',2,(#97,#98,#99),.UNSPECIFIED.,.F.,.F.
  ,(3,3),(0.,1.),.PIECEWISE_BEZIER_KNOTS.);
#97 = CARTESIAN_POINT('',(18.962038216561,2.099422709928,7.522399129514)
  );
#98 = CARTESIAN_POINT('',(18.373503184713,1.910418457476,7.003114213722)
  );
#99 = CARTESIAN_POINT('',(17.574777070064,1.819881150746,6.754365007863)
  );
#100 = ORIENTED_EDGE('',*,*,#101,.F.);
#101 = EDGE_CURVE('',#102,#94,#104,.T.);
#102 = VERTEX_POINT('',#103);
#103 = CARTESIAN_POINT('',(17.574777070064,2.571635247374,6.480748893202
    ));
#104 = LINE('',#105,#106);
#105 = CARTESIAN_POINT('',(17.574777070064,2.571635247374,6.480748893202
    ));
#106 = VECTOR('',#107,1.);
#107 = DIRECTION('',(0.,-0.939692620786,0.342020143326));
#108 = ORIENTED_EDGE('',*,*,#109,.F.);
#109 = EDGE_CURVE('',#71,#102,#110,.T.);
#110 = B_SPLINE_CURVE_WITH_KNOTS('',2,(#111,#112,#113),.UNSPECIFIED.,.F.
  ,.F.,(3,3),(0.,1.),.PIECEWISE_BEZIER_KNOTS.);
#111 = CARTESIAN_POINT('',(18.962038216561,2.851176806556,7.248783014853
    ));
#112 = CARTESIAN_POINT('',(18.373503184713,2.662172554104,6.729498099061
    ));
#113 = CARTESIAN_POINT('',(17.574777070064,2.571635247374,6.480748893202
    ));
#114 = SURFACE_OF_LINEAR_EXTRUSION('',#115,#119);
#115 = B_SPLINE_CURVE_WITH_KNOTS('',2,(#116,#117,#118),.UNSPECIFIED.,.F.
  ,.F.,(3,3),(0.,1.),.PIECEWISE_BEZIER_KNOTS.);
#116 = CARTESIAN_POINT('',(18.962038216561,2.851176806556,7.248783014853
    ));
#117 = CARTESIAN_POINT('',(18.373503184713,2.662172554104,6.729498099061
    ));
#118 = CARTESIAN_POINT('',(17.574777070064,2.571635247374,6.480748893202
    ));
#119 = VECTOR('',#120,1.);
#120 = DIRECTION('',(-0.,0.939692620786,-0.342020143326));
#121 = ADVANCED_FACE('',(#122),#147,.T.);
#122 = FACE_BOUND('',#123,.T.);
#123 = EDGE_LOOP('',(#124,#125,#133,#141));
#124 = ORIENTED_EDGE('',*,*,#101,.T.);
#125 = ORIENTED_EDGE('',*,*,#126,.T.);
#126 = EDGE_CURVE('',#94,#127,#129,.T.);
#127 = VERTEX_POINT('',#128);
#128 = CARTESIAN_POINT('',(17.574777070064,2.15449448842,7.67370759737)
  );
#129 = LINE('',#130,#131);
#130 = CARTESIAN_POINT('',(17.574777070064,1.819881150746,6.754365007863
    ));
#131 = VECTOR('',#132,1.);
#132 = DIRECTION('',(0.,0.342020143326,0.939692620786));
#133 = ORIENTED_EDGE('',*,*,#134,.F.);
#134 = EDGE_CURVE('',#135,#127,#137,.T.);
#135 = VERTEX_POINT('',#136);
#136 = CARTESIAN_POINT('',(17.574777070064,2.906248585048,7.40009148271)
  );
#137 = LINE('',#138,#139);
#138 = CARTESIAN_POINT('',(17.574777070064,2.906248585048,7.40009148271)
  );
#139 = VECTOR('',#140,1.);
#140 = DIRECTION('',(0.,-0.939692620786,0.342020143326));
#141 = ORIENTED_EDGE('',*,*,#142,.F.);
#142 = EDGE_CURVE('',#102,#135,#143,.T.);
#143 = LINE('',#144,#145);
#144 = CARTESIAN_POINT('',(17.574777070064,2.571635247374,6.480748893202
    ));
#145 = VECTOR('',#146,1.);
#146 = DIRECTION('',(0.,0.342020143326,0.939692620786));
#147 = PLANE('',#148);
#148 = AXIS2_PLACEMENT_3D('',#149,#150,#151);
#149 = CARTESIAN_POINT('',(17.574777070064,2.571635247374,6.480748893202
    ));
#150 = DIRECTION('',(-1.,0.,0.));
#151 = DIRECTION('',(0.,0.342020143326,0.939692620786));
#152 = ADVANCED_FACE('',(#153),#178,.T.);
#153 = FACE_BOUND('',#154,.T.);
#154 = EDGE_LOOP('',(#155,#156,#164,#172));
#155 = ORIENTED_EDGE('',*,*,#134,.T.);
#156 = ORIENTED_EDGE('',*,*,#157,.T.);
#157 = EDGE_CURVE('',#127,#158,#160,.T.);
#158 = VERTEX_POINT('',#159);
#159 = CARTESIAN_POINT('',(18.488152866242,2.332954935179,8.164023645108
    ));
#160 = B_SPLINE_CURVE_WITH_KNOTS('',2,(#161,#162,#163),.UNSPECIFIED.,.F.
  ,.F.,(3,3),(0.,1.),.PIECEWISE_BEZIER_KNOTS.);
#161 = CARTESIAN_POINT('',(17.574777070064,2.15449448842,7.67370759737)
  );
#162 = CARTESIAN_POINT('',(17.995159235669,2.20154948903,7.80299014902)
  );
#163 = CARTESIAN_POINT('',(18.488152866242,2.332954935179,8.164023645108
    ));
#164 = ORIENTED_EDGE('',*,*,#165,.F.);
#165 = EDGE_CURVE('',#166,#158,#168,.T.);
#166 = VERTEX_POINT('',#167);
#167 = CARTESIAN_POINT('',(18.488152866242,3.084709031808,7.890407530447
    ));
#168 = LINE('',#169,#170);
#169 = CARTESIAN_POINT('',(18.488152866242,3.084709031808,7.890407530447
    ));
#170 = VECTOR('',#171,1.);
#171 = DIRECTION('',(0.,-0.939692620786,0.342020143326));
#172 = ORIENTED_EDGE('',*,*,#173,.F.);
#173 = EDGE_CURVE('',#135,#166,#174,.T.);
#174 = B_SPLINE_CURVE_WITH_KNOTS('',2,(#175,#176,#177),.UNSPECIFIED.,.F.
  ,.F.,(3,3),(0.,1.),.PIECEWISE_BEZIER_KNOTS.);
#175 = CARTESIAN_POINT('',(17.574777070064,2.906248585048,7.40009148271)
  );
#176 = CARTESIAN_POINT('',(17.995159235669,2.953303585659,7.529374034359
    ));
#177 = CARTESIAN_POINT('',(18.488152866242,3.084709031808,7.890407530447
    ));
#178 = SURFACE_OF_LINEAR_EXTRUSION('',#179,#183);
#179 = B_SPLINE_CURVE_WITH_KNOTS('',2,(#180,#181,#182),.UNSPECIFIED.,.F.
  ,.F.,(3,3),(0.,1.),.PIECEWISE_BEZIER_KNOTS.);
#180 = CARTESIAN_POINT('',(17.574777070064,2.906248585048,7.40009148271)
  );
#181 = CARTESIAN_POINT('',(17.995159235669,2.953303585659,7.529374034359
    ));
#182 = CARTESIAN_POINT('',(18.488152866242,3.084709031808,7.890407530447
    ));
#183 = VECTOR('',#184,1.);
#184 = DIRECTION('',(-0.,0.939692620786,-0.342020143326));
#185 = ADVANCED_FACE('',(#186),#211,.T.);
#186 = FACE_BOUND('',#187,.T.);
#187 = EDGE_LOOP('',(#188,#189,#197,#205));
#188 = ORIENTED_EDGE('',*,*,#165,.T.);
#189 = ORIENTED_EDGE('',*,*,#190,.T.);
#190 = EDGE_CURVE('',#158,#191,#193,.T.);
#191 = VERTEX_POINT('',#192);
#192 = CARTESIAN_POINT('',(19.164585987261,2.639683828047,9.006754352157
    ));
#193 = B_SPLINE_CURVE_WITH_KNOTS('',2,(#194,#195,#196),.UNSPECIFIED.,.F.
  ,.F.,(3,3),(0.,1.),.PIECEWISE_BEZIER_KNOTS.);
#194 = CARTESIAN_POINT('',(18.488152866242,2.332954935179,8.164023645108
    ));
#195 = CARTESIAN_POINT('',(18.981146496815,2.464447520218,8.525296553329
    ));
#196 = CARTESIAN_POINT('',(19.164585987261,2.639683828047,9.006754352157
    ));
#197 = ORIENTED_EDGE('',*,*,#198,.F.);
#198 = EDGE_CURVE('',#199,#191,#201,.T.);
#199 = VERTEX_POINT('',#200);
#200 = CARTESIAN_POINT('',(19.164585987261,3.391437924676,8.733138237496
    ));
#201 = LINE('',#202,#203);
#202 = CARTESIAN_POINT('',(19.164585987261,3.391437924676,8.733138237496
    ));
#203 = VECTOR('',#204,1.);
#204 = DIRECTION('',(0.,-0.939692620786,0.342020143326));
#205 = ORIENTED_EDGE('',*,*,#206,.F.);
#206 = EDGE_CURVE('',#166,#199,#207,.T.);
#207 = B_SPLINE_CURVE_WITH_KNOTS('',2,(#208,#209,#210),.UNSPECIFIED.,.F.
  ,.F.,(3,3),(0.,1.),.PIECEWISE_BEZIER_KNOTS.);
#208 = CARTESIAN_POINT('',(18.488152866242,3.084709031808,7.890407530447
    ));
#209 = CARTESIAN_POINT('',(18.981146496815,3.216201616847,8.251680438668
    ));
#210 = CARTESIAN_POINT('',(19.164585987261,3.391437924676,8.733138237496
    ));
#211 = SURFACE_OF_LINEAR_EXTRUSION('',#212,#216);
#212 = B_SPLINE_CURVE_WITH_KNOTS('',2,(#213,#214,#215),.UNSPECIFIED.,.F.
  ,.F.,(3,3),(0.,1.),.PIECEWISE_BEZIER_KNOTS.);
#213 = CARTESIAN_POINT('',(18.488152866242,3.084709031808,7.890407530447
    ));
#214 = CARTESIAN_POINT('',(18.981146496815,3.216201616847,8.251680438668
    ));
#215 = CARTESIAN_POINT('',(19.164585987261,3.391437924676,8.733138237496
    ));
#216 = VECTOR('',#217,1.);
#217 = DIRECTION('',(-0.,0.939692620786,-0.342020143326));
#218 = ADVANCED_FACE('',(#219),#244,.T.);
#219 = FACE_BOUND('',#220,.T.);
#220 = EDGE_LOOP('',(#221,#222,#230,#238));
#221 = ORIENTED_EDGE('',*,*,#198,.T.);
#222 = ORIENTED_EDGE('',*,*,#223,.T.);
#223 = EDGE_CURVE('',#191,#224,#226,.T.);
#224 = VERTEX_POINT('',#225);
#225 = CARTESIAN_POINT('',(20.035923566879,2.639683828047,9.006754352157
    ));
#226 = LINE('',#227,#228);
#227 = CARTESIAN_POINT('',(19.164585987261,2.639683828047,9.006754352157
    ));
#228 = VECTOR('',#229,1.);
#229 = DIRECTION('',(1.,0.,0.));
#230 = ORIENTED_EDGE('',*,*,#231,.F.);
#231 = EDGE_CURVE('',#232,#224,#234,.T.);
#232 = VERTEX_POINT('',#233);
#233 = CARTESIAN_POINT('',(20.035923566879,3.391437924676,8.733138237496
    ));
#234 = LINE('',#235,#236);
#235 = CARTESIAN_POINT('',(20.035923566879,3.391437924676,8.733138237496
    ));
#236 = VECTOR('',#237,1.);
#237 = DIRECTION('',(0.,-0.939692620786,0.342020143326));
#238 = ORIENTED_EDGE('',*,*,#239,.F.);
#239 = EDGE_CURVE('',#199,#232,#240,.T.);
#240 = LINE('',#241,#242);
#241 = CARTESIAN_POINT('',(19.164585987261,3.391437924676,8.733138237496
    ));
#242 = VECTOR('',#243,1.);
#243 = DIRECTION('',(1.,0.,0.));
#244 = PLANE('',#245);
#245 = AXIS2_PLACEMENT_3D('',#246,#247,#248);
#246 = CARTESIAN_POINT('',(19.164585987261,3.391437924676,8.733138237496
    ));
#247 = DIRECTION('',(0.,0.342020143326,0.939692620786));
#248 = DIRECTION('',(1.,0.,0.));
#249 = ADVANCED_FACE('',(#250),#266,.T.);
#250 = FACE_BOUND('',#251,.T.);
#251 = EDGE_LOOP('',(#252,#253,#259,#260));
#252 = ORIENTED_EDGE('',*,*,#231,.T.);
#253 = ORIENTED_EDGE('',*,*,#254,.T.);
#254 = EDGE_CURVE('',#224,#24,#255,.T.);
#255 = LINE('',#256,#257);
#256 = CARTESIAN_POINT('',(20.035923566879,2.639683828047,9.006754352157
    ));
#257 = VECTOR('',#258,1.);
#258 = DIRECTION('',(0.,-0.342020143326,-0.939692620786));
#259 = ORIENTED_EDGE('',*,*,#21,.F.);
#260 = ORIENTED_EDGE('',*,*,#261,.F.);
#261 = EDGE_CURVE('',#232,#22,#262,.T.);
#262 = LINE('',#263,#264);
#263 = CARTESIAN_POINT('',(20.035923566879,3.391437924676,8.733138237496
    ));
#264 = VECTOR('',#265,1.);
#265 = DIRECTION('',(0.,-0.342020143326,-0.939692620786));
#266 = PLANE('',#267);
#267 = AXIS2_PLACEMENT_3D('',#268,#269,#270);
#268 = CARTESIAN_POINT('',(20.035923566879,3.391437924676,8.733138237496
    ));
#269 = DIRECTION('',(1.,0.,0.));
#270 = DIRECTION('',(0.,-0.342020143326,-0.939692620786));
#271 = ADVANCED_FACE('',(#272),#282,.F.);
#272 = FACE_BOUND('',#273,.T.);
#273 = EDGE_LOOP('',(#274,#275,#276,#277,#278,#279,#280,#281));
#274 = ORIENTED_EDGE('',*,*,#47,.T.);
#275 = ORIENTED_EDGE('',*,*,#78,.T.);
#276 = ORIENTED_EDGE('',*,*,#109,.T.);
#277 = ORIENTED_EDGE('',*,*,#142,.T.);
#278 = ORIENTED_EDGE('',*,*,#173,.T.);
#279 = ORIENTED_EDGE('',*,*,#206,.T.);
#280 = ORIENTED_EDGE('',*,*,#239,.T.);
#281 = ORIENTED_EDGE('',*,*,#261,.T.);
#282 = PLANE('',#283);
#283 = AXIS2_PLACEMENT_3D('',#284,#285,#286);
#284 = CARTESIAN_POINT('',(19.184634718845,2.484916324519,6.242490610816
    ));
#285 = DIRECTION('',(0.,-0.939692620786,0.342020143326));
#286 = DIRECTION('',(1.,0.,0.));
#287 = ADVANCED_FACE('',(#288),#298,.T.);
#288 = FACE_BOUND('',#289,.F.);
#289 = EDGE_LOOP('',(#290,#291,#292,#293,#294,#295,#296,#297));
#290 = ORIENTED_EDGE('',*,*,#31,.T.);
#291 = ORIENTED_EDGE('',*,*,#62,.T.);
#292 = ORIENTED_EDGE('',*,*,#93,.T.);
#293 = ORIENTED_EDGE('',*,*,#126,.T.);
#294 = ORIENTED_EDGE('',*,*,#157,.T.);
#295 = ORIENTED_EDGE('',*,*,#190,.T.);
#296 = ORIENTED_EDGE('',*,*,#223,.T.);
#297 = ORIENTED_EDGE('',*,*,#254,.T.);
#298 = PLANE('',#299);
#299 = AXIS2_PLACEMENT_3D('',#300,#301,#302);
#300 = CARTESIAN_POINT('',(19.184634718845,1.73316222789,6.516106725477)
  );
#301 = DIRECTION('',(0.,-0.939692620786,0.342020143326));
#302 = DIRECTION('',(1.,0.,0.));
#303 = MANIFOLD_SOLID_BREP('',#304);
#304 = CLOSED_SHELL('',(#305,#345,#378,#411,#444,#477,#510,#543,#576,
    #607,#638,#669,#700,#731,#762,#795,#828,#861,#894,#927,#960,#984,
    #1013));
#305 = ADVANCED_FACE('',(#306),#340,.T.);
#306 = FACE_BOUND('',#307,.T.);
#307 = EDGE_LOOP('',(#308,#318,#326,#334));
#308 = ORIENTED_EDGE('',*,*,#309,.T.);
#309 = EDGE_CURVE('',#310,#312,#314,.T.);
#310 = VERTEX_POINT('',#311);
#311 = CARTESIAN_POINT('',(21.657070063694,1.953994794918,4.783795696736
    ));
#312 = VERTEX_POINT('',#313);
#313 = CARTESIAN_POINT('',(21.657070063694,1.202240698289,5.057411811396
    ));
#314 = LINE('',#315,#316);
#315 = CARTESIAN_POINT('',(21.657070063694,1.953994794918,4.783795696736
    ));
#316 = VECTOR('',#317,1.);
#317 = DIRECTION('',(0.,-0.939692620786,0.342020143326));
#318 = ORIENTED_EDGE('',*,*,#319,.T.);
#319 = EDGE_CURVE('',#312,#320,#322,.T.);
#320 = VERTEX_POINT('',#321);
#321 = CARTESIAN_POINT('',(22.727133757962,1.239884698777,5.160837852716
    ));
#322 = LINE('',#323,#324);
#323 = CARTESIAN_POINT('',(21.657070063694,1.202240698289,5.057411811396
    ));
#324 = VECTOR('',#325,1.);
#325 = DIRECTION('',(0.994751810339,3.499458755099E-02,
    9.614683909947E-02));
#326 = ORIENTED_EDGE('',*,*,#327,.F.);
#327 = EDGE_CURVE('',#328,#320,#330,.T.);
#328 = VERTEX_POINT('',#329);
#329 = CARTESIAN_POINT('',(22.727133757962,1.991638795406,4.887221738055
    ));
#330 = LINE('',#331,#332);
#331 = CARTESIAN_POINT('',(22.727133757962,1.991638795406,4.887221738055
    ));
#332 = VECTOR('',#333,1.);
#333 = DIRECTION('',(0.,-0.939692620786,0.342020143326));
#334 = ORIENTED_EDGE('',*,*,#335,.F.);
#335 = EDGE_CURVE('',#310,#328,#336,.T.);
#336 = LINE('',#337,#338);
#337 = CARTESIAN_POINT('',(21.657070063694,1.953994794918,4.783795696736
    ));
#338 = VECTOR('',#339,1.);
#339 = DIRECTION('',(0.994751810339,3.499458755099E-02,
    9.614683909947E-02));
#340 = PLANE('',#341);
#341 = AXIS2_PLACEMENT_3D('',#342,#343,#344);
#342 = CARTESIAN_POINT('',(21.657070063694,1.953994794918,4.783795696736
    ));
#343 = DIRECTION('',(-0.102317329063,0.340225156746,0.934760935689));
#344 = DIRECTION('',(0.994751810339,3.499458755099E-02,
    9.614683909947E-02));
#345 = ADVANCED_FACE('',(#346),#371,.T.);
#346 = FACE_BOUND('',#347,.T.);
#347 = EDGE_LOOP('',(#348,#349,#357,#365));
#348 = ORIENTED_EDGE('',*,*,#327,.T.);
#349 = ORIENTED_EDGE('',*,*,#350,.T.);
#350 = EDGE_CURVE('',#320,#351,#353,.T.);
#351 = VERTEX_POINT('',#352);
#352 = CARTESIAN_POINT('',(22.99847133758,1.044257890684,4.62335761484)
  );
#353 = B_SPLINE_CURVE_WITH_KNOTS('',2,(#354,#355,#356),.UNSPECIFIED.,.F.
  ,.F.,(3,3),(0.,1.),.PIECEWISE_BEZIER_KNOTS.);
#354 = CARTESIAN_POINT('',(22.727133757962,1.239884698777,5.160837852716
    ));
#355 = CARTESIAN_POINT('',(22.772993630573,1.11640889162,4.821590860702)
  );
#356 = CARTESIAN_POINT('',(22.99847133758,1.044257890684,4.62335761484)
  );
#357 = ORIENTED_EDGE('',*,*,#358,.F.);
#358 = EDGE_CURVE('',#359,#351,#361,.T.);
#359 = VERTEX_POINT('',#360);
#360 = CARTESIAN_POINT('',(22.99847133758,1.796011987313,4.349741500179)
  );
#361 = LINE('',#362,#363);
#362 = CARTESIAN_POINT('',(22.99847133758,1.796011987313,4.349741500179)
  );
#363 = VECTOR('',#364,1.);
#364 = DIRECTION('',(0.,-0.939692620786,0.342020143326));
#365 = ORIENTED_EDGE('',*,*,#366,.F.);
#366 = EDGE_CURVE('',#328,#359,#367,.T.);
#367 = B_SPLINE_CURVE_WITH_KNOTS('',2,(#368,#369,#370),.UNSPECIFIED.,.F.
  ,.F.,(3,3),(0.,1.),.PIECEWISE_BEZIER_KNOTS.);
#368 = CARTESIAN_POINT('',(22.727133757962,1.991638795406,4.887221738055
    ));
#369 = CARTESIAN_POINT('',(22.772993630573,1.868162988249,4.547974746042
    ));
#370 = CARTESIAN_POINT('',(22.99847133758,1.796011987313,4.349741500179)
  );
#371 = SURFACE_OF_LINEAR_EXTRUSION('',#372,#376);
#372 = B_SPLINE_CURVE_WITH_KNOTS('',2,(#373,#374,#375),.UNSPECIFIED.,.F.
  ,.F.,(3,3),(0.,1.),.PIECEWISE_BEZIER_KNOTS.);
#373 = CARTESIAN_POINT('',(22.727133757962,1.991638795406,4.887221738055
    ));
#374 = CARTESIAN_POINT('',(22.772993630573,1.868162988249,4.547974746042
    ));
#375 = CARTESIAN_POINT('',(22.99847133758,1.796011987313,4.349741500179)
  );
#376 = VECTOR('',#377,1.);
#377 = DIRECTION('',(-0.,0.939692620786,-0.342020143326));
#378 = ADVANCED_FACE('',(#379),#404,.T.);
#379 = FACE_BOUND('',#380,.T.);
#380 = EDGE_LOOP('',(#381,#382,#390,#398));
#381 = ORIENTED_EDGE('',*,*,#358,.T.);
#382 = ORIENTED_EDGE('',*,*,#383,.T.);
#383 = EDGE_CURVE('',#351,#384,#386,.T.);
#384 = VERTEX_POINT('',#385);
#385 = CARTESIAN_POINT('',(23.51821656051,0.972194028638,4.42536378111)
  );
#386 = B_SPLINE_CURVE_WITH_KNOTS('',2,(#387,#388,#389),.UNSPECIFIED.,.F.
  ,.F.,(3,3),(0.,1.),.PIECEWISE_BEZIER_KNOTS.);
#387 = CARTESIAN_POINT('',(22.99847133758,1.044257890684,4.62335761484)
  );
#388 = CARTESIAN_POINT('',(23.223949044586,0.972194028638,4.42536378111)
  );
#389 = CARTESIAN_POINT('',(23.51821656051,0.972194028638,4.42536378111)
  );
#390 = ORIENTED_EDGE('',*,*,#391,.F.);
#391 = EDGE_CURVE('',#392,#384,#394,.T.);
#392 = VERTEX_POINT('',#393);
#393 = CARTESIAN_POINT('',(23.51821656051,1.723948125267,4.151747666449)
  );
#394 = LINE('',#395,#396);
#395 = CARTESIAN_POINT('',(23.51821656051,1.723948125267,4.151747666449)
  );
#396 = VECTOR('',#397,1.);
#397 = DIRECTION('',(0.,-0.939692620786,0.342020143326));
#398 = ORIENTED_EDGE('',*,*,#399,.F.);
#399 = EDGE_CURVE('',#359,#392,#400,.T.);
#400 = B_SPLINE_CURVE_WITH_KNOTS('',2,(#401,#402,#403),.UNSPECIFIED.,.F.
  ,.F.,(3,3),(0.,1.),.PIECEWISE_BEZIER_KNOTS.);
#401 = CARTESIAN_POINT('',(22.99847133758,1.796011987313,4.349741500179)
  );
#402 = CARTESIAN_POINT('',(23.223949044586,1.723948125267,4.151747666449
    ));
#403 = CARTESIAN_POINT('',(23.51821656051,1.723948125267,4.151747666449)
  );
#404 = SURFACE_OF_LINEAR_EXTRUSION('',#405,#409);
#405 = B_SPLINE_CURVE_WITH_KNOTS('',2,(#406,#407,#408),.UNSPECIFIED.,.F.
  ,.F.,(3,3),(0.,1.),.PIECEWISE_BEZIER_KNOTS.);
#406 = CARTESIAN_POINT('',(22.99847133758,1.796011987313,4.349741500179)
  );
#407 = CARTESIAN_POINT('',(23.223949044586,1.723948125267,4.151747666449
    ));
#408 = CARTESIAN_POINT('',(23.51821656051,1.723948125267,4.151747666449)
  );
#409 = VECTOR('',#410,1.);
#410 = DIRECTION('',(-0.,0.939692620786,-0.342020143326));
#411 = ADVANCED_FACE('',(#412),#437,.T.);
#412 = FACE_BOUND('',#413,.T.);
#413 = EDGE_LOOP('',(#414,#415,#423,#431));
#414 = ORIENTED_EDGE('',*,*,#391,.T.);
#415 = ORIENTED_EDGE('',*,*,#416,.T.);
#416 = EDGE_CURVE('',#384,#417,#419,.T.);
#417 = VERTEX_POINT('',#418);
#418 = CARTESIAN_POINT('',(24.087643312102,1.065955474299,4.682971235878
    ));
#419 = B_SPLINE_CURVE_WITH_KNOTS('',2,(#420,#421,#422),.UNSPECIFIED.,.F.
  ,.F.,(3,3),(0.,1.),.PIECEWISE_BEZIER_KNOTS.);
#420 = CARTESIAN_POINT('',(23.51821656051,0.972194028638,4.42536378111)
  );
#421 = CARTESIAN_POINT('',(23.854522292994,0.972194028638,4.42536378111)
  );
#422 = CARTESIAN_POINT('',(24.087643312102,1.065955474299,4.682971235878
    ));
#423 = ORIENTED_EDGE('',*,*,#424,.F.);
#424 = EDGE_CURVE('',#425,#417,#427,.T.);
#425 = VERTEX_POINT('',#426);
#426 = CARTESIAN_POINT('',(24.087643312102,1.817709570928,4.409355121218
    ));
#427 = LINE('',#428,#429);
#428 = CARTESIAN_POINT('',(24.087643312102,1.817709570928,4.409355121218
    ));
#429 = VECTOR('',#430,1.);
#430 = DIRECTION('',(0.,-0.939692620786,0.342020143326));
#431 = ORIENTED_EDGE('',*,*,#432,.F.);
#432 = EDGE_CURVE('',#392,#425,#433,.T.);
#433 = B_SPLINE_CURVE_WITH_KNOTS('',2,(#434,#435,#436),.UNSPECIFIED.,.F.
  ,.F.,(3,3),(0.,1.),.PIECEWISE_BEZIER_KNOTS.);
#434 = CARTESIAN_POINT('',(23.51821656051,1.723948125267,4.151747666449)
  );
#435 = CARTESIAN_POINT('',(23.854522292994,1.723948125267,4.151747666449
    ));
#436 = CARTESIAN_POINT('',(24.087643312102,1.817709570928,4.409355121218
    ));
#437 = SURFACE_OF_LINEAR_EXTRUSION('',#438,#442);
#438 = B_SPLINE_CURVE_WITH_KNOTS('',2,(#439,#440,#441),.UNSPECIFIED.,.F.
  ,.F.,(3,3),(0.,1.),.PIECEWISE_BEZIER_KNOTS.);
#439 = CARTESIAN_POINT('',(23.51821656051,1.723948125267,4.151747666449)
  );
#440 = CARTESIAN_POINT('',(23.854522292994,1.723948125267,4.151747666449
    ));
#441 = CARTESIAN_POINT('',(24.087643312102,1.817709570928,4.409355121218
    ));
#442 = VECTOR('',#443,1.);
#443 = DIRECTION('',(-0.,0.939692620786,-0.342020143326));
#444 = ADVANCED_FACE('',(#445),#470,.T.);
#445 = FACE_BOUND('',#446,.T.);
#446 = EDGE_LOOP('',(#447,#448,#456,#464));
#447 = ORIENTED_EDGE('',*,*,#424,.T.);
#448 = ORIENTED_EDGE('',*,*,#449,.T.);
#449 = EDGE_CURVE('',#417,#450,#452,.T.);
#450 = VERTEX_POINT('',#451);
#451 = CARTESIAN_POINT('',(24.32076433121,1.348634033521,5.459624194306)
  );
#452 = B_SPLINE_CURVE_WITH_KNOTS('',2,(#453,#454,#455),.UNSPECIFIED.,.F.
  ,.F.,(3,3),(0.,1.),.PIECEWISE_BEZIER_KNOTS.);
#453 = CARTESIAN_POINT('',(24.087643312102,1.065955474299,4.682971235878
    ));
#454 = CARTESIAN_POINT('',(24.32076433121,1.15971691996,4.940578690646)
  );
#455 = CARTESIAN_POINT('',(24.32076433121,1.348634033521,5.459624194306)
  );
#456 = ORIENTED_EDGE('',*,*,#457,.F.);
#457 = EDGE_CURVE('',#458,#450,#460,.T.);
#458 = VERTEX_POINT('',#459);
#459 = CARTESIAN_POINT('',(24.32076433121,2.10038813015,5.186008079645)
  );
#460 = LINE('',#461,#462);
#461 = CARTESIAN_POINT('',(24.32076433121,2.10038813015,5.186008079645)
  );
#462 = VECTOR('',#463,1.);
#463 = DIRECTION('',(0.,-0.939692620786,0.342020143326));
#464 = ORIENTED_EDGE('',*,*,#465,.F.);
#465 = EDGE_CURVE('',#425,#458,#466,.T.);
#466 = B_SPLINE_CURVE_WITH_KNOTS('',2,(#467,#468,#469),.UNSPECIFIED.,.F.
  ,.F.,(3,3),(0.,1.),.PIECEWISE_BEZIER_KNOTS.);
#467 = CARTESIAN_POINT('',(24.087643312102,1.817709570928,4.409355121218
    ));
#468 = CARTESIAN_POINT('',(24.32076433121,1.911471016588,4.666962575986)
  );
#469 = CARTESIAN_POINT('',(24.32076433121,2.10038813015,5.186008079645)
  );
#470 = SURFACE_OF_LINEAR_EXTRUSION('',#471,#475);
#471 = B_SPLINE_CURVE_WITH_KNOTS('',2,(#472,#473,#474),.UNSPECIFIED.,.F.
  ,.F.,(3,3),(0.,1.),.PIECEWISE_BEZIER_KNOTS.);
#472 = CARTESIAN_POINT('',(24.087643312102,1.817709570928,4.409355121218
    ));
#473 = CARTESIAN_POINT('',(24.32076433121,1.911471016588,4.666962575986)
  );
#474 = CARTESIAN_POINT('',(24.32076433121,2.10038813015,5.186008079645)
  );
#475 = VECTOR('',#476,1.);
#476 = DIRECTION('',(-0.,0.939692620786,-0.342020143326));
#477 = ADVANCED_FACE('',(#478),#503,.T.);
#478 = FACE_BOUND('',#479,.T.);
#479 = EDGE_LOOP('',(#480,#481,#489,#497));
#480 = ORIENTED_EDGE('',*,*,#457,.T.);
#481 = ORIENTED_EDGE('',*,*,#482,.T.);
#482 = EDGE_CURVE('',#450,#483,#485,.T.);
#483 = VERTEX_POINT('',#484);
#484 = CARTESIAN_POINT('',(24.089426751592,1.6142333703,6.189352374728)
  );
#485 = B_SPLINE_CURVE_WITH_KNOTS('',2,(#486,#487,#488),.UNSPECIFIED.,.F.
  ,.F.,(3,3),(0.,1.),.PIECEWISE_BEZIER_KNOTS.);
#486 = CARTESIAN_POINT('',(24.32076433121,1.348634033521,5.459624194306)
  );
#487 = CARTESIAN_POINT('',(24.32076433121,1.525700258041,5.946109647921)
  );
#488 = CARTESIAN_POINT('',(24.089426751592,1.6142333703,6.189352374728)
  );
#489 = ORIENTED_EDGE('',*,*,#490,.F.);
#490 = EDGE_CURVE('',#491,#483,#493,.T.);
#491 = VERTEX_POINT('',#492);
#492 = CARTESIAN_POINT('',(24.089426751592,2.365987466929,5.915736260067
    ));
#493 = LINE('',#494,#495);
#494 = CARTESIAN_POINT('',(24.089426751592,2.365987466929,5.915736260067
    ));
#495 = VECTOR('',#496,1.);
#496 = DIRECTION('',(0.,-0.939692620786,0.342020143326));
#497 = ORIENTED_EDGE('',*,*,#498,.F.);
#498 = EDGE_CURVE('',#458,#491,#499,.T.);
#499 = B_SPLINE_CURVE_WITH_KNOTS('',2,(#500,#501,#502),.UNSPECIFIED.,.F.
  ,.F.,(3,3),(0.,1.),.PIECEWISE_BEZIER_KNOTS.);
#500 = CARTESIAN_POINT('',(24.32076433121,2.10038813015,5.186008079645)
  );
#501 = CARTESIAN_POINT('',(24.32076433121,2.277454354669,5.67249353326)
  );
#502 = CARTESIAN_POINT('',(24.089426751592,2.365987466929,5.915736260067
    ));
#503 = SURFACE_OF_LINEAR_EXTRUSION('',#504,#508);
#504 = B_SPLINE_CURVE_WITH_KNOTS('',2,(#505,#506,#507),.UNSPECIFIED.,.F.
  ,.F.,(3,3),(0.,1.),.PIECEWISE_BEZIER_KNOTS.);
#505 = CARTESIAN_POINT('',(24.32076433121,2.10038813015,5.186008079645)
  );
#506 = CARTESIAN_POINT('',(24.32076433121,2.277454354669,5.67249353326)
  );
#507 = CARTESIAN_POINT('',(24.089426751592,2.365987466929,5.915736260067
    ));
#508 = VECTOR('',#509,1.);
#509 = DIRECTION('',(-0.,0.939692620786,-0.342020143326));
#510 = ADVANCED_FACE('',(#511),#536,.T.);
#511 = FACE_BOUND('',#512,.T.);
#512 = EDGE_LOOP('',(#513,#514,#522,#530));
#513 = ORIENTED_EDGE('',*,*,#490,.T.);
#514 = ORIENTED_EDGE('',*,*,#515,.T.);
#515 = EDGE_CURVE('',#483,#516,#518,.T.);
#516 = VERTEX_POINT('',#517);
#517 = CARTESIAN_POINT('',(23.487643312102,1.70276648256,6.432595101535)
  );
#518 = B_SPLINE_CURVE_WITH_KNOTS('',2,(#519,#520,#521),.UNSPECIFIED.,.F.
  ,.F.,(3,3),(0.,1.),.PIECEWISE_BEZIER_KNOTS.);
#519 = CARTESIAN_POINT('',(24.089426751592,1.6142333703,6.189352374728)
  );
#520 = CARTESIAN_POINT('',(23.858343949045,1.70276648256,6.432595101535)
  );
#521 = CARTESIAN_POINT('',(23.487643312102,1.70276648256,6.432595101535)
  );
#522 = ORIENTED_EDGE('',*,*,#523,.F.);
#523 = EDGE_CURVE('',#524,#516,#526,.T.);
#524 = VERTEX_POINT('',#525);
#525 = CARTESIAN_POINT('',(23.487643312102,2.454520579189,6.158978986875
    ));
#526 = LINE('',#527,#528);
#527 = CARTESIAN_POINT('',(23.487643312102,2.454520579189,6.158978986875
    ));
#528 = VECTOR('',#529,1.);
#529 = DIRECTION('',(0.,-0.939692620786,0.342020143326));
#530 = ORIENTED_EDGE('',*,*,#531,.F.);
#531 = EDGE_CURVE('',#491,#524,#532,.T.);
#532 = B_SPLINE_CURVE_WITH_KNOTS('',2,(#533,#534,#535),.UNSPECIFIED.,.F.
  ,.F.,(3,3),(0.,1.),.PIECEWISE_BEZIER_KNOTS.);
#533 = CARTESIAN_POINT('',(24.089426751592,2.365987466929,5.915736260067
    ));
#534 = CARTESIAN_POINT('',(23.858343949045,2.454520579189,6.158978986875
    ));
#535 = CARTESIAN_POINT('',(23.487643312102,2.454520579189,6.158978986875
    ));
#536 = SURFACE_OF_LINEAR_EXTRUSION('',#537,#541);
#537 = B_SPLINE_CURVE_WITH_KNOTS('',2,(#538,#539,#540),.UNSPECIFIED.,.F.
  ,.F.,(3,3),(0.,1.),.PIECEWISE_BEZIER_KNOTS.);
#538 = CARTESIAN_POINT('',(24.089426751592,2.365987466929,5.915736260067
    ));
#539 = CARTESIAN_POINT('',(23.858343949045,2.454520579189,6.158978986875
    ));
#540 = CARTESIAN_POINT('',(23.487643312102,2.454520579189,6.158978986875
    ));
#541 = VECTOR('',#542,1.);
#542 = DIRECTION('',(-0.,0.939692620786,-0.342020143326));
#543 = ADVANCED_FACE('',(#544),#569,.T.);
#544 = FACE_BOUND('',#545,.T.);
#545 = EDGE_LOOP('',(#546,#547,#555,#563));
#546 = ORIENTED_EDGE('',*,*,#523,.T.);
#547 = ORIENTED_EDGE('',*,*,#548,.T.);
#548 = EDGE_CURVE('',#516,#549,#551,.T.);
#549 = VERTEX_POINT('',#550);
#550 = CARTESIAN_POINT('',(22.658343949045,1.563344258529,6.04953568924)
  );
#551 = B_SPLINE_CURVE_WITH_KNOTS('',2,(#552,#553,#554),.UNSPECIFIED.,.F.
  ,.F.,(3,3),(0.,1.),.PIECEWISE_BEZIER_KNOTS.);
#552 = CARTESIAN_POINT('',(23.487643312102,1.70276648256,6.432595101535)
  );
#553 = CARTESIAN_POINT('',(23.025222929936,1.70276648256,6.432595101535)
  );
#554 = CARTESIAN_POINT('',(22.658343949045,1.563344258529,6.04953568924)
  );
#555 = ORIENTED_EDGE('',*,*,#556,.F.);
#556 = EDGE_CURVE('',#557,#549,#559,.T.);
#557 = VERTEX_POINT('',#558);
#558 = CARTESIAN_POINT('',(22.658343949045,2.315098355158,5.77591957458)
  );
#559 = LINE('',#560,#561);
#560 = CARTESIAN_POINT('',(22.658343949045,2.315098355158,5.77591957458)
  );
#561 = VECTOR('',#562,1.);
#562 = DIRECTION('',(0.,-0.939692620786,0.342020143326));
#563 = ORIENTED_EDGE('',*,*,#564,.F.);
#564 = EDGE_CURVE('',#524,#557,#565,.T.);
#565 = B_SPLINE_CURVE_WITH_KNOTS('',2,(#566,#567,#568),.UNSPECIFIED.,.F.
  ,.F.,(3,3),(0.,1.),.PIECEWISE_BEZIER_KNOTS.);
#566 = CARTESIAN_POINT('',(23.487643312102,2.454520579189,6.158978986875
    ));
#567 = CARTESIAN_POINT('',(23.025222929936,2.454520579189,6.158978986875
    ));
#568 = CARTESIAN_POINT('',(22.658343949045,2.315098355158,5.77591957458)
  );
#569 = SURFACE_OF_LINEAR_EXTRUSION('',#570,#574);
#570 = B_SPLINE_CURVE_WITH_KNOTS('',2,(#571,#572,#573),.UNSPECIFIED.,.F.
  ,.F.,(3,3),(0.,1.),.PIECEWISE_BEZIER_KNOTS.);
#571 = CARTESIAN_POINT('',(23.487643312102,2.454520579189,6.158978986875
    ));
#572 = CARTESIAN_POINT('',(23.025222929936,2.454520579189,6.158978986875
    ));
#573 = CARTESIAN_POINT('',(22.658343949045,2.315098355158,5.77591957458)
  );
#574 = VECTOR('',#575,1.);
#575 = DIRECTION('',(-0.,0.939692620786,-0.342020143326));
#576 = ADVANCED_FACE('',(#577),#602,.T.);
#577 = FACE_BOUND('',#578,.T.);
#578 = EDGE_LOOP('',(#579,#580,#588,#596));
#579 = ORIENTED_EDGE('',*,*,#556,.T.);
#580 = ORIENTED_EDGE('',*,*,#581,.T.);
#581 = EDGE_CURVE('',#549,#582,#584,.T.);
#582 = VERTEX_POINT('',#583);
#583 = CARTESIAN_POINT('',(21.787006369427,1.606303731308,6.167565870654
    ));
#584 = LINE('',#585,#586);
#585 = CARTESIAN_POINT('',(22.658343949045,1.563344258529,6.04953568924)
  );
#586 = VECTOR('',#587,1.);
#587 = DIRECTION('',(-0.989769265001,4.879849875915E-02,0.134072773444)
  );
#588 = ORIENTED_EDGE('',*,*,#589,.F.);
#589 = EDGE_CURVE('',#590,#582,#592,.T.);
#590 = VERTEX_POINT('',#591);
#591 = CARTESIAN_POINT('',(21.787006369427,2.358057827937,5.893949755993
    ));
#592 = LINE('',#593,#594);
#593 = CARTESIAN_POINT('',(21.787006369427,2.358057827937,5.893949755993
    ));
#594 = VECTOR('',#595,1.);
#595 = DIRECTION('',(0.,-0.939692620786,0.342020143326));
#596 = ORIENTED_EDGE('',*,*,#597,.F.);
#597 = EDGE_CURVE('',#557,#590,#598,.T.);
#598 = LINE('',#599,#600);
#599 = CARTESIAN_POINT('',(22.658343949045,2.315098355158,5.77591957458)
  );
#600 = VECTOR('',#601,1.);
#601 = DIRECTION('',(-0.989769265001,4.879849875915E-02,0.134072773444)
  );
#602 = PLANE('',#603);
#603 = AXIS2_PLACEMENT_3D('',#604,#605,#606);
#604 = CARTESIAN_POINT('',(22.658343949045,2.315098355158,5.77591957458)
  );
#605 = DIRECTION('',(-0.142677265393,-0.338521025875,-0.930078874602));
#606 = DIRECTION('',(-0.989769265001,4.879849875915E-02,0.134072773444)
  );
#607 = ADVANCED_FACE('',(#608),#633,.T.);
#608 = FACE_BOUND('',#609,.T.);
#609 = EDGE_LOOP('',(#610,#611,#619,#627));
#610 = ORIENTED_EDGE('',*,*,#589,.T.);
#611 = ORIENTED_EDGE('',*,*,#612,.T.);
#612 = EDGE_CURVE('',#582,#613,#615,.T.);
#613 = VERTEX_POINT('',#614);
#614 = CARTESIAN_POINT('',(22.337324840764,2.60622249428,8.914820093206)
  );
#615 = LINE('',#616,#617);
#616 = CARTESIAN_POINT('',(21.787006369427,1.606303731308,6.167565870654
    ));
#617 = VECTOR('',#618,1.);
#618 = DIRECTION('',(0.184986551027,0.336117235571,0.92347451502));
#619 = ORIENTED_EDGE('',*,*,#620,.F.);
#620 = EDGE_CURVE('',#621,#613,#623,.T.);
#621 = VERTEX_POINT('',#622);
#622 = CARTESIAN_POINT('',(22.337324840764,3.357976590908,8.641203978545
    ));
#623 = LINE('',#624,#625);
#624 = CARTESIAN_POINT('',(22.337324840764,3.357976590908,8.641203978545
    ));
#625 = VECTOR('',#626,1.);
#626 = DIRECTION('',(0.,-0.939692620786,0.342020143326));
#627 = ORIENTED_EDGE('',*,*,#628,.F.);
#628 = EDGE_CURVE('',#590,#621,#629,.T.);
#629 = LINE('',#630,#631);
#630 = CARTESIAN_POINT('',(21.787006369427,2.358057827937,5.893949755993
    ));
#631 = VECTOR('',#632,1.);
#632 = DIRECTION('',(0.184986551027,0.336117235571,0.92347451502));
#633 = PLANE('',#634);
#634 = AXIS2_PLACEMENT_3D('',#635,#636,#637);
#635 = CARTESIAN_POINT('',(21.787006369427,2.358057827937,5.893949755993
    ));
#636 = DIRECTION('',(-0.982741052332,6.326912669566E-02,0.173830496945)
  );
#637 = DIRECTION('',(0.184986551027,0.336117235571,0.92347451502));
#638 = ADVANCED_FACE('',(#639),#664,.T.);
#639 = FACE_BOUND('',#640,.T.);
#640 = EDGE_LOOP('',(#641,#642,#650,#658));
#641 = ORIENTED_EDGE('',*,*,#620,.T.);
#642 = ORIENTED_EDGE('',*,*,#643,.T.);
#643 = EDGE_CURVE('',#613,#644,#646,.T.);
#644 = VERTEX_POINT('',#645);
#645 = CARTESIAN_POINT('',(25.176815286624,2.60622249428,8.914820093206)
  );
#646 = LINE('',#647,#648);
#647 = CARTESIAN_POINT('',(22.337324840764,2.60622249428,8.914820093206)
  );
#648 = VECTOR('',#649,1.);
#649 = DIRECTION('',(1.,0.,0.));
#650 = ORIENTED_EDGE('',*,*,#651,.F.);
#651 = EDGE_CURVE('',#652,#644,#654,.T.);
#652 = VERTEX_POINT('',#653);
#653 = CARTESIAN_POINT('',(25.176815286624,3.357976590908,8.641203978545
    ));
#654 = LINE('',#655,#656);
#655 = CARTESIAN_POINT('',(25.176815286624,3.357976590908,8.641203978545
    ));
#656 = VECTOR('',#657,1.);
#657 = DIRECTION('',(0.,-0.939692620786,0.342020143326));
#658 = ORIENTED_EDGE('',*,*,#659,.F.);
#659 = EDGE_CURVE('',#621,#652,#660,.T.);
#660 = LINE('',#661,#662);
#661 = CARTESIAN_POINT('',(22.337324840764,3.357976590908,8.641203978545
    ));
#662 = VECTOR('',#663,1.);
#663 = DIRECTION('',(1.,0.,0.));
#664 = PLANE('',#665);
#665 = AXIS2_PLACEMENT_3D('',#666,#667,#668);
#666 = CARTESIAN_POINT('',(22.337324840764,3.357976590908,8.641203978545
    ));
#667 = DIRECTION('',(0.,0.342020143326,0.939692620786));
#668 = DIRECTION('',(1.,0.,0.));
#669 = ADVANCED_FACE('',(#670),#695,.T.);
#670 = FACE_BOUND('',#671,.T.);
#671 = EDGE_LOOP('',(#672,#673,#681,#689));
#672 = ORIENTED_EDGE('',*,*,#651,.T.);
#673 = ORIENTED_EDGE('',*,*,#674,.T.);
#674 = EDGE_CURVE('',#644,#675,#677,.T.);
#675 = VERTEX_POINT('',#676);
#676 = CARTESIAN_POINT('',(25.176815286624,2.260455378683,7.964832750715
    ));
#677 = LINE('',#678,#679);
#678 = CARTESIAN_POINT('',(25.176815286624,2.60622249428,8.914820093206)
  );
#679 = VECTOR('',#680,1.);
#680 = DIRECTION('',(0.,-0.342020143326,-0.939692620786));
#681 = ORIENTED_EDGE('',*,*,#682,.F.);
#682 = EDGE_CURVE('',#683,#675,#685,.T.);
#683 = VERTEX_POINT('',#684);
#684 = CARTESIAN_POINT('',(25.176815286624,3.012209475312,7.691216636054
    ));
#685 = LINE('',#686,#687);
#686 = CARTESIAN_POINT('',(25.176815286624,3.012209475312,7.691216636054
    ));
#687 = VECTOR('',#688,1.);
#688 = DIRECTION('',(0.,-0.939692620786,0.342020143326));
#689 = ORIENTED_EDGE('',*,*,#690,.F.);
#690 = EDGE_CURVE('',#652,#683,#691,.T.);
#691 = LINE('',#692,#693);
#692 = CARTESIAN_POINT('',(25.176815286624,3.357976590908,8.641203978545
    ));
#693 = VECTOR('',#694,1.);
#694 = DIRECTION('',(0.,-0.342020143326,-0.939692620786));
#695 = PLANE('',#696);
#696 = AXIS2_PLACEMENT_3D('',#697,#698,#699);
#697 = CARTESIAN_POINT('',(25.176815286624,3.357976590908,8.641203978545
    ));
#698 = DIRECTION('',(1.,0.,0.));
#699 = DIRECTION('',(0.,-0.342020143326,-0.939692620786));
#700 = ADVANCED_FACE('',(#701),#726,.T.);
#701 = FACE_BOUND('',#702,.T.);
#702 = EDGE_LOOP('',(#703,#704,#712,#720));
#703 = ORIENTED_EDGE('',*,*,#682,.T.);
#704 = ORIENTED_EDGE('',*,*,#705,.T.);
#705 = EDGE_CURVE('',#675,#706,#708,.T.);
#706 = VERTEX_POINT('',#707);
#707 = CARTESIAN_POINT('',(23.151337579618,2.260455378683,7.964832750715
    ));
#708 = LINE('',#709,#710);
#709 = CARTESIAN_POINT('',(25.176815286624,2.260455378683,7.964832750715
    ));
#710 = VECTOR('',#711,1.);
#711 = DIRECTION('',(-1.,0.,0.));
#712 = ORIENTED_EDGE('',*,*,#713,.F.);
#713 = EDGE_CURVE('',#714,#706,#716,.T.);
#714 = VERTEX_POINT('',#715);
#715 = CARTESIAN_POINT('',(23.151337579618,3.012209475312,7.691216636054
    ));
#716 = LINE('',#717,#718);
#717 = CARTESIAN_POINT('',(23.151337579618,3.012209475312,7.691216636054
    ));
#718 = VECTOR('',#719,1.);
#719 = DIRECTION('',(0.,-0.939692620786,0.342020143326));
#720 = ORIENTED_EDGE('',*,*,#721,.F.);
#721 = EDGE_CURVE('',#683,#714,#722,.T.);
#722 = LINE('',#723,#724);
#723 = CARTESIAN_POINT('',(25.176815286624,3.012209475312,7.691216636054
    ));
#724 = VECTOR('',#725,1.);
#725 = DIRECTION('',(-1.,0.,0.));
#726 = PLANE('',#727);
#727 = AXIS2_PLACEMENT_3D('',#728,#729,#730);
#728 = CARTESIAN_POINT('',(25.176815286624,3.012209475312,7.691216636054
    ));
#729 = DIRECTION('',(0.,-0.342020143326,-0.939692620786));
#730 = DIRECTION('',(-1.,0.,0.));
#731 = ADVANCED_FACE('',(#732),#757,.T.);
#732 = FACE_BOUND('',#733,.T.);
#733 = EDGE_LOOP('',(#734,#735,#743,#751));
#734 = ORIENTED_EDGE('',*,*,#713,.T.);
#735 = ORIENTED_EDGE('',*,*,#736,.T.);
#736 = EDGE_CURVE('',#706,#737,#739,.T.);
#737 = VERTEX_POINT('',#738);
#738 = CARTESIAN_POINT('',(22.983184713376,1.936908680042,7.075895502058
    ));
#739 = LINE('',#740,#741);
#740 = CARTESIAN_POINT('',(23.151337579618,2.260455378683,7.964832750715
    ));
#741 = VECTOR('',#742,1.);
#742 = DIRECTION('',(-0.175010486354,-0.336741599195,-0.925189939979));
#743 = ORIENTED_EDGE('',*,*,#744,.F.);
#744 = EDGE_CURVE('',#745,#737,#747,.T.);
#745 = VERTEX_POINT('',#746);
#746 = CARTESIAN_POINT('',(22.983184713376,2.68866277667,6.802279387397)
  );
#747 = LINE('',#748,#749);
#748 = CARTESIAN_POINT('',(22.983184713376,2.68866277667,6.802279387397)
  );
#749 = VECTOR('',#750,1.);
#750 = DIRECTION('',(0.,-0.939692620786,0.342020143326));
#751 = ORIENTED_EDGE('',*,*,#752,.F.);
#752 = EDGE_CURVE('',#714,#745,#753,.T.);
#753 = LINE('',#754,#755);
#754 = CARTESIAN_POINT('',(23.151337579618,3.012209475312,7.691216636054
    ));
#755 = VECTOR('',#756,1.);
#756 = DIRECTION('',(-0.175010486354,-0.336741599195,-0.925189939979));
#757 = PLANE('',#758);
#758 = AXIS2_PLACEMENT_3D('',#759,#760,#761);
#759 = CARTESIAN_POINT('',(23.151337579618,3.012209475312,7.691216636054
    ));
#760 = DIRECTION('',(0.984566569444,-5.985711162633E-02,-0.164456062587)
  );
#761 = DIRECTION('',(-0.175010486354,-0.336741599195,-0.925189939979));
#762 = ADVANCED_FACE('',(#763),#788,.T.);
#763 = FACE_BOUND('',#764,.T.);
#764 = EDGE_LOOP('',(#765,#766,#774,#782));
#765 = ORIENTED_EDGE('',*,*,#744,.T.);
#766 = ORIENTED_EDGE('',*,*,#767,.T.);
#767 = EDGE_CURVE('',#737,#768,#770,.T.);
#768 = VERTEX_POINT('',#769);
#769 = CARTESIAN_POINT('',(23.716942675159,1.998341597505,7.2446810556)
  );
#770 = B_SPLINE_CURVE_WITH_KNOTS('',2,(#771,#772,#773),.UNSPECIFIED.,.F.
  ,.F.,(3,3),(0.,1.),.PIECEWISE_BEZIER_KNOTS.);
#771 = CARTESIAN_POINT('',(22.983184713376,1.936908680042,7.075895502058
    ));
#772 = CARTESIAN_POINT('',(23.342420382166,1.998341597505,7.2446810556)
  );
#773 = CARTESIAN_POINT('',(23.716942675159,1.998341597505,7.2446810556)
  );
#774 = ORIENTED_EDGE('',*,*,#775,.F.);
#775 = EDGE_CURVE('',#776,#768,#778,.T.);
#776 = VERTEX_POINT('',#777);
#777 = CARTESIAN_POINT('',(23.716942675159,2.750095694134,6.97106494094)
  );
#778 = LINE('',#779,#780);
#779 = CARTESIAN_POINT('',(23.716942675159,2.750095694134,6.97106494094)
  );
#780 = VECTOR('',#781,1.);
#781 = DIRECTION('',(0.,-0.939692620786,0.342020143326));
#782 = ORIENTED_EDGE('',*,*,#783,.F.);
#783 = EDGE_CURVE('',#745,#776,#784,.T.);
#784 = B_SPLINE_CURVE_WITH_KNOTS('',2,(#785,#786,#787),.UNSPECIFIED.,.F.
  ,.F.,(3,3),(0.,1.),.PIECEWISE_BEZIER_KNOTS.);
#785 = CARTESIAN_POINT('',(22.983184713376,2.68866277667,6.802279387397)
  );
#786 = CARTESIAN_POINT('',(23.342420382166,2.750095694134,6.97106494094)
  );
#787 = CARTESIAN_POINT('',(23.716942675159,2.750095694134,6.97106494094)
  );
#788 = SURFACE_OF_LINEAR_EXTRUSION('',#789,#793);
#789 = B_SPLINE_CURVE_WITH_KNOTS('',2,(#790,#791,#792),.UNSPECIFIED.,.F.
  ,.F.,(3,3),(0.,1.),.PIECEWISE_BEZIER_KNOTS.);
#790 = CARTESIAN_POINT('',(22.983184713376,2.68866277667,6.802279387397)
  );
#791 = CARTESIAN_POINT('',(23.342420382166,2.750095694134,6.97106494094)
  );
#792 = CARTESIAN_POINT('',(23.716942675159,2.750095694134,6.97106494094)
  );
#793 = VECTOR('',#794,1.);
#794 = DIRECTION('',(-0.,0.939692620786,-0.342020143326));
#795 = ADVANCED_FACE('',(#796),#821,.T.);
#796 = FACE_BOUND('',#797,.T.);
#797 = EDGE_LOOP('',(#798,#799,#807,#815));
#798 = ORIENTED_EDGE('',*,*,#775,.T.);
#799 = ORIENTED_EDGE('',*,*,#800,.T.);
#800 = EDGE_CURVE('',#768,#801,#803,.T.);
#801 = VERTEX_POINT('',#802);
#802 = CARTESIAN_POINT('',(24.928407643312,1.819619734076,6.753646771465
    ));
#803 = B_SPLINE_CURVE_WITH_KNOTS('',2,(#804,#805,#806),.UNSPECIFIED.,.F.
  ,.F.,(3,3),(0.,1.),.PIECEWISE_BEZIER_KNOTS.);
#804 = CARTESIAN_POINT('',(23.716942675159,1.998341597505,7.2446810556)
  );
#805 = CARTESIAN_POINT('',(24.431592356688,1.998341597505,7.2446810556)
  );
#806 = CARTESIAN_POINT('',(24.928407643312,1.819619734076,6.753646771465
    ));
#807 = ORIENTED_EDGE('',*,*,#808,.F.);
#808 = EDGE_CURVE('',#809,#801,#811,.T.);
#809 = VERTEX_POINT('',#810);
#810 = CARTESIAN_POINT('',(24.928407643312,2.571373830704,6.480030656804
    ));
#811 = LINE('',#812,#813);
#812 = CARTESIAN_POINT('',(24.928407643312,2.571373830704,6.480030656804
    ));
#813 = VECTOR('',#814,1.);
#814 = DIRECTION('',(0.,-0.939692620786,0.342020143326));
#815 = ORIENTED_EDGE('',*,*,#816,.F.);
#816 = EDGE_CURVE('',#776,#809,#817,.T.);
#817 = B_SPLINE_CURVE_WITH_KNOTS('',2,(#818,#819,#820),.UNSPECIFIED.,.F.
  ,.F.,(3,3),(0.,1.),.PIECEWISE_BEZIER_KNOTS.);
#818 = CARTESIAN_POINT('',(23.716942675159,2.750095694134,6.97106494094)
  );
#819 = CARTESIAN_POINT('',(24.431592356688,2.750095694134,6.97106494094)
  );
#820 = CARTESIAN_POINT('',(24.928407643312,2.571373830704,6.480030656804
    ));
#821 = SURFACE_OF_LINEAR_EXTRUSION('',#822,#826);
#822 = B_SPLINE_CURVE_WITH_KNOTS('',2,(#823,#824,#825),.UNSPECIFIED.,.F.
  ,.F.,(3,3),(0.,1.),.PIECEWISE_BEZIER_KNOTS.);
#823 = CARTESIAN_POINT('',(23.716942675159,2.750095694134,6.97106494094)
  );
#824 = CARTESIAN_POINT('',(24.431592356688,2.750095694134,6.97106494094)
  );
#825 = CARTESIAN_POINT('',(24.928407643312,2.571373830704,6.480030656804
    ));
#826 = VECTOR('',#827,1.);
#827 = DIRECTION('',(-0.,0.939692620786,-0.342020143326));
#828 = ADVANCED_FACE('',(#829),#854,.T.);
#829 = FACE_BOUND('',#830,.T.);
#830 = EDGE_LOOP('',(#831,#832,#840,#848));
#831 = ORIENTED_EDGE('',*,*,#808,.T.);
#832 = ORIENTED_EDGE('',*,*,#833,.T.);
#833 = EDGE_CURVE('',#801,#834,#836,.T.);
#834 = VERTEX_POINT('',#835);
#835 = CARTESIAN_POINT('',(25.425222929936,1.355866561393,5.479495401319
    ));
#836 = B_SPLINE_CURVE_WITH_KNOTS('',2,(#837,#838,#839),.UNSPECIFIED.,.F.
  ,.F.,(3,3),(0.,1.),.PIECEWISE_BEZIER_KNOTS.);
#837 = CARTESIAN_POINT('',(24.928407643312,1.819619734076,6.753646771465
    ));
#838 = CARTESIAN_POINT('',(25.425222929936,1.640985009536,6.262851899462
    ));
#839 = CARTESIAN_POINT('',(25.425222929936,1.355866561393,5.479495401319
    ));
#840 = ORIENTED_EDGE('',*,*,#841,.F.);
#841 = EDGE_CURVE('',#842,#834,#844,.T.);
#842 = VERTEX_POINT('',#843);
#843 = CARTESIAN_POINT('',(25.425222929936,2.107620658022,5.205879286658
    ));
#844 = LINE('',#845,#846);
#845 = CARTESIAN_POINT('',(25.425222929936,2.107620658022,5.205879286658
    ));
#846 = VECTOR('',#847,1.);
#847 = DIRECTION('',(0.,-0.939692620786,0.342020143326));
#848 = ORIENTED_EDGE('',*,*,#849,.F.);
#849 = EDGE_CURVE('',#809,#842,#850,.T.);
#850 = B_SPLINE_CURVE_WITH_KNOTS('',2,(#851,#852,#853),.UNSPECIFIED.,.F.
  ,.F.,(3,3),(0.,1.),.PIECEWISE_BEZIER_KNOTS.);
#851 = CARTESIAN_POINT('',(24.928407643312,2.571373830704,6.480030656804
    ));
#852 = CARTESIAN_POINT('',(25.425222929936,2.392739106165,5.989235784801
    ));
#853 = CARTESIAN_POINT('',(25.425222929936,2.107620658022,5.205879286658
    ));
#854 = SURFACE_OF_LINEAR_EXTRUSION('',#855,#859);
#855 = B_SPLINE_CURVE_WITH_KNOTS('',2,(#856,#857,#858),.UNSPECIFIED.,.F.
  ,.F.,(3,3),(0.,1.),.PIECEWISE_BEZIER_KNOTS.);
#856 = CARTESIAN_POINT('',(24.928407643312,2.571373830704,6.480030656804
    ));
#857 = CARTESIAN_POINT('',(25.425222929936,2.392739106165,5.989235784801
    ));
#858 = CARTESIAN_POINT('',(25.425222929936,2.107620658022,5.205879286658
    ));
#859 = VECTOR('',#860,1.);
#860 = DIRECTION('',(-0.,0.939692620786,-0.342020143326));
#861 = ADVANCED_FACE('',(#862),#887,.T.);
#862 = FACE_BOUND('',#863,.T.);
#863 = EDGE_LOOP('',(#864,#865,#873,#881));
#864 = ORIENTED_EDGE('',*,*,#841,.T.);
#865 = ORIENTED_EDGE('',*,*,#866,.T.);
#866 = EDGE_CURVE('',#834,#867,#869,.T.);
#867 = VERTEX_POINT('',#868);
#868 = CARTESIAN_POINT('',(25.023949044586,0.931500166999,4.313558315146
    ));
#869 = B_SPLINE_CURVE_WITH_KNOTS('',2,(#870,#871,#872),.UNSPECIFIED.,.F.
  ,.F.,(3,3),(0.,1.),.PIECEWISE_BEZIER_KNOTS.);
#870 = CARTESIAN_POINT('',(25.425222929936,1.355866561393,5.479495401319
    ));
#871 = CARTESIAN_POINT('',(25.425222929936,1.11806453053,4.826139691223)
  );
#872 = CARTESIAN_POINT('',(25.023949044586,0.931500166999,4.313558315146
    ));
#873 = ORIENTED_EDGE('',*,*,#874,.F.);
#874 = EDGE_CURVE('',#875,#867,#877,.T.);
#875 = VERTEX_POINT('',#876);
#876 = CARTESIAN_POINT('',(25.023949044586,1.683254263628,4.039942200486
    ));
#877 = LINE('',#878,#879);
#878 = CARTESIAN_POINT('',(25.023949044586,1.683254263628,4.039942200486
    ));
#879 = VECTOR('',#880,1.);
#880 = DIRECTION('',(0.,-0.939692620786,0.342020143326));
#881 = ORIENTED_EDGE('',*,*,#882,.F.);
#882 = EDGE_CURVE('',#842,#875,#883,.T.);
#883 = B_SPLINE_CURVE_WITH_KNOTS('',2,(#884,#885,#886),.UNSPECIFIED.,.F.
  ,.F.,(3,3),(0.,1.),.PIECEWISE_BEZIER_KNOTS.);
#884 = CARTESIAN_POINT('',(25.425222929936,2.107620658022,5.205879286658
    ));
#885 = CARTESIAN_POINT('',(25.425222929936,1.869818627159,4.552523576563
    ));
#886 = CARTESIAN_POINT('',(25.023949044586,1.683254263628,4.039942200486
    ));
#887 = SURFACE_OF_LINEAR_EXTRUSION('',#888,#892);
#888 = B_SPLINE_CURVE_WITH_KNOTS('',2,(#889,#890,#891),.UNSPECIFIED.,.F.
  ,.F.,(3,3),(0.,1.),.PIECEWISE_BEZIER_KNOTS.);
#889 = CARTESIAN_POINT('',(25.425222929936,2.107620658022,5.205879286658
    ));
#890 = CARTESIAN_POINT('',(25.425222929936,1.869818627159,4.552523576563
    ));
#891 = CARTESIAN_POINT('',(25.023949044586,1.683254263628,4.039942200486
    ));
#892 = VECTOR('',#893,1.);
#893 = DIRECTION('',(-0.,0.939692620786,-0.342020143326));
#894 = ADVANCED_FACE('',(#895),#920,.T.);
#895 = FACE_BOUND('',#896,.T.);
#896 = EDGE_LOOP('',(#897,#898,#906,#914));
#897 = ORIENTED_EDGE('',*,*,#874,.T.);
#898 = ORIENTED_EDGE('',*,*,#899,.T.);
#899 = EDGE_CURVE('',#867,#900,#902,.T.);
#900 = VERTEX_POINT('',#901);
#901 = CARTESIAN_POINT('',(23.506751592357,0.676618913693,3.613277827045
    ));
#902 = B_SPLINE_CURVE_WITH_KNOTS('',2,(#903,#904,#905),.UNSPECIFIED.,.F.
  ,.F.,(3,3),(0.,1.),.PIECEWISE_BEZIER_KNOTS.);
#903 = CARTESIAN_POINT('',(25.023949044586,0.931500166999,4.313558315146
    ));
#904 = CARTESIAN_POINT('',(24.477452229299,0.676618913693,3.613277827045
    ));
#905 = CARTESIAN_POINT('',(23.506751592357,0.676618913693,3.613277827045
    ));
#906 = ORIENTED_EDGE('',*,*,#907,.F.);
#907 = EDGE_CURVE('',#908,#900,#910,.T.);
#908 = VERTEX_POINT('',#909);
#909 = CARTESIAN_POINT('',(23.506751592357,1.428373010321,3.339661712384
    ));
#910 = LINE('',#911,#912);
#911 = CARTESIAN_POINT('',(23.506751592357,1.428373010321,3.339661712384
    ));
#912 = VECTOR('',#913,1.);
#913 = DIRECTION('',(0.,-0.939692620786,0.342020143326));
#914 = ORIENTED_EDGE('',*,*,#915,.F.);
#915 = EDGE_CURVE('',#875,#908,#916,.T.);
#916 = B_SPLINE_CURVE_WITH_KNOTS('',2,(#917,#918,#919),.UNSPECIFIED.,.F.
  ,.F.,(3,3),(0.,1.),.PIECEWISE_BEZIER_KNOTS.);
#917 = CARTESIAN_POINT('',(25.023949044586,1.683254263628,4.039942200486
    ));
#918 = CARTESIAN_POINT('',(24.477452229299,1.428373010321,3.339661712384
    ));
#919 = CARTESIAN_POINT('',(23.506751592357,1.428373010321,3.339661712384
    ));
#920 = SURFACE_OF_LINEAR_EXTRUSION('',#921,#925);
#921 = B_SPLINE_CURVE_WITH_KNOTS('',2,(#922,#923,#924),.UNSPECIFIED.,.F.
  ,.F.,(3,3),(0.,1.),.PIECEWISE_BEZIER_KNOTS.);
#922 = CARTESIAN_POINT('',(25.023949044586,1.683254263628,4.039942200486
    ));
#923 = CARTESIAN_POINT('',(24.477452229299,1.428373010321,3.339661712384
    ));
#924 = CARTESIAN_POINT('',(23.506751592357,1.428373010321,3.339661712384
    ));
#925 = VECTOR('',#926,1.);
#926 = DIRECTION('',(-0.,0.939692620786,-0.342020143326));
#927 = ADVANCED_FACE('',(#928),#953,.T.);
#928 = FACE_BOUND('',#929,.T.);
#929 = EDGE_LOOP('',(#930,#931,#939,#947));
#930 = ORIENTED_EDGE('',*,*,#907,.T.);
#931 = ORIENTED_EDGE('',*,*,#932,.T.);
#932 = EDGE_CURVE('',#900,#933,#935,.T.);
#933 = VERTEX_POINT('',#934);
#934 = CARTESIAN_POINT('',(22.24178343949,0.819090998874,4.004716663983)
  );
#935 = B_SPLINE_CURVE_WITH_KNOTS('',2,(#936,#937,#938),.UNSPECIFIED.,.F.
  ,.F.,(3,3),(0.,1.),.PIECEWISE_BEZIER_KNOTS.);
#936 = CARTESIAN_POINT('',(23.506751592357,0.676618913693,3.613277827045
    ));
#937 = CARTESIAN_POINT('',(22.730955414013,0.676618913693,3.613277827045
    ));
#938 = CARTESIAN_POINT('',(22.24178343949,0.819090998874,4.004716663983)
  );
#939 = ORIENTED_EDGE('',*,*,#940,.F.);
#940 = EDGE_CURVE('',#941,#933,#943,.T.);
#941 = VERTEX_POINT('',#942);
#942 = CARTESIAN_POINT('',(22.24178343949,1.570845095503,3.731100549323)
  );
#943 = LINE('',#944,#945);
#944 = CARTESIAN_POINT('',(22.24178343949,1.570845095503,3.731100549323)
  );
#945 = VECTOR('',#946,1.);
#946 = DIRECTION('',(0.,-0.939692620786,0.342020143326));
#947 = ORIENTED_EDGE('',*,*,#948,.F.);
#948 = EDGE_CURVE('',#908,#941,#949,.T.);
#949 = B_SPLINE_CURVE_WITH_KNOTS('',2,(#950,#951,#952),.UNSPECIFIED.,.F.
  ,.F.,(3,3),(0.,1.),.PIECEWISE_BEZIER_KNOTS.);
#950 = CARTESIAN_POINT('',(23.506751592357,1.428373010321,3.339661712384
    ));
#951 = CARTESIAN_POINT('',(22.730955414013,1.428373010321,3.339661712384
    ));
#952 = CARTESIAN_POINT('',(22.24178343949,1.570845095503,3.731100549323)
  );
#953 = SURFACE_OF_LINEAR_EXTRUSION('',#954,#958);
#954 = B_SPLINE_CURVE_WITH_KNOTS('',2,(#955,#956,#957),.UNSPECIFIED.,.F.
  ,.F.,(3,3),(0.,1.),.PIECEWISE_BEZIER_KNOTS.);
#955 = CARTESIAN_POINT('',(23.506751592357,1.428373010321,3.339661712384
    ));
#956 = CARTESIAN_POINT('',(22.730955414013,1.428373010321,3.339661712384
    ));
#957 = CARTESIAN_POINT('',(22.24178343949,1.570845095503,3.731100549323)
  );
#958 = VECTOR('',#959,1.);
#959 = DIRECTION('',(-0.,0.939692620786,-0.342020143326));
#960 = ADVANCED_FACE('',(#961),#977,.T.);
#961 = FACE_BOUND('',#962,.T.);
#962 = EDGE_LOOP('',(#963,#964,#970,#971));
#963 = ORIENTED_EDGE('',*,*,#940,.T.);
#964 = ORIENTED_EDGE('',*,*,#965,.T.);
#965 = EDGE_CURVE('',#933,#312,#966,.T.);
#966 = B_SPLINE_CURVE_WITH_KNOTS('',2,(#967,#968,#969),.UNSPECIFIED.,.F.
  ,.F.,(3,3),(0.,1.),.PIECEWISE_BEZIER_KNOTS.);
#967 = CARTESIAN_POINT('',(22.24178343949,0.819090998874,4.004716663983)
  );
#968 = CARTESIAN_POINT('',(21.752611464968,0.961650222946,4.396394913055
    ));
#969 = CARTESIAN_POINT('',(21.657070063694,1.202240698289,5.057411811396
    ));
#970 = ORIENTED_EDGE('',*,*,#309,.F.);
#971 = ORIENTED_EDGE('',*,*,#972,.F.);
#972 = EDGE_CURVE('',#941,#310,#973,.T.);
#973 = B_SPLINE_CURVE_WITH_KNOTS('',2,(#974,#975,#976),.UNSPECIFIED.,.F.
  ,.F.,(3,3),(0.,1.),.PIECEWISE_BEZIER_KNOTS.);
#974 = CARTESIAN_POINT('',(22.24178343949,1.570845095503,3.731100549323)
  );
#975 = CARTESIAN_POINT('',(21.752611464968,1.713404319575,4.122778798394
    ));
#976 = CARTESIAN_POINT('',(21.657070063694,1.953994794918,4.783795696736
    ));
#977 = SURFACE_OF_LINEAR_EXTRUSION('',#978,#982);
#978 = B_SPLINE_CURVE_WITH_KNOTS('',2,(#979,#980,#981),.UNSPECIFIED.,.F.
  ,.F.,(3,3),(0.,1.),.PIECEWISE_BEZIER_KNOTS.);
#979 = CARTESIAN_POINT('',(22.24178343949,1.570845095503,3.731100549323)
  );
#980 = CARTESIAN_POINT('',(21.752611464968,1.713404319575,4.122778798394
    ));
#981 = CARTESIAN_POINT('',(21.657070063694,1.953994794918,4.783795696736
    ));
#982 = VECTOR('',#983,1.);
#983 = DIRECTION('',(-0.,0.939692620786,-0.342020143326));
#984 = ADVANCED_FACE('',(#985),#1008,.F.);
#985 = FACE_BOUND('',#986,.T.);
#986 = EDGE_LOOP('',(#987,#988,#989,#990,#991,#992,#993,#994,#995,#996,
    #997,#998,#999,#1000,#1001,#1002,#1003,#1004,#1005,#1006,#1007));
#987 = ORIENTED_EDGE('',*,*,#335,.T.);
#988 = ORIENTED_EDGE('',*,*,#366,.T.);
#989 = ORIENTED_EDGE('',*,*,#399,.T.);
#990 = ORIENTED_EDGE('',*,*,#432,.T.);
#991 = ORIENTED_EDGE('',*,*,#465,.T.);
#992 = ORIENTED_EDGE('',*,*,#498,.T.);
#993 = ORIENTED_EDGE('',*,*,#531,.T.);
#994 = ORIENTED_EDGE('',*,*,#564,.T.);
#995 = ORIENTED_EDGE('',*,*,#597,.T.);
#996 = ORIENTED_EDGE('',*,*,#628,.T.);
#997 = ORIENTED_EDGE('',*,*,#659,.T.);
#998 = ORIENTED_EDGE('',*,*,#690,.T.);
#999 = ORIENTED_EDGE('',*,*,#721,.T.);
#1000 = ORIENTED_EDGE('',*,*,#752,.T.);
#1001 = ORIENTED_EDGE('',*,*,#783,.T.);
#1002 = ORIENTED_EDGE('',*,*,#816,.T.);
#1003 = ORIENTED_EDGE('',*,*,#849,.T.);
#1004 = ORIENTED_EDGE('',*,*,#882,.T.);
#1005 = ORIENTED_EDGE('',*,*,#915,.T.);
#1006 = ORIENTED_EDGE('',*,*,#948,.T.);
#1007 = ORIENTED_EDGE('',*,*,#972,.T.);
#1008 = PLANE('',#1009);
#1009 = AXIS2_PLACEMENT_3D('',#1010,#1011,#1012);
#1010 = CARTESIAN_POINT('',(23.56252329636,2.426112564577,6.080928608198
    ));
#1011 = DIRECTION('',(0.,-0.939692620786,0.342020143326));
#1012 = DIRECTION('',(1.,0.,0.));
#1013 = ADVANCED_FACE('',(#1014),#1037,.T.);
#1014 = FACE_BOUND('',#1015,.F.);
#1015 = EDGE_LOOP('',(#1016,#1017,#1018,#1019,#1020,#1021,#1022,#1023,
    #1024,#1025,#1026,#1027,#1028,#1029,#1030,#1031,#1032,#1033,#1034,
    #1035,#1036));
#1016 = ORIENTED_EDGE('',*,*,#319,.T.);
#1017 = ORIENTED_EDGE('',*,*,#350,.T.);
#1018 = ORIENTED_EDGE('',*,*,#383,.T.);
#1019 = ORIENTED_EDGE('',*,*,#416,.T.);
#1020 = ORIENTED_EDGE('',*,*,#449,.T.);
#1021 = ORIENTED_EDGE('',*,*,#482,.T.);
#1022 = ORIENTED_EDGE('',*,*,#515,.T.);
#1023 = ORIENTED_EDGE('',*,*,#548,.T.);
#1024 = ORIENTED_EDGE('',*,*,#581,.T.);
#1025 = ORIENTED_EDGE('',*,*,#612,.T.);
#1026 = ORIENTED_EDGE('',*,*,#643,.T.);
#1027 = ORIENTED_EDGE('',*,*,#674,.T.);
#1028 = ORIENTED_EDGE('',*,*,#705,.T.);
#1029 = ORIENTED_EDGE('',*,*,#736,.T.);
#1030 = ORIENTED_EDGE('',*,*,#767,.T.);
#1031 = ORIENTED_EDGE('',*,*,#800,.T.);
#1032 = ORIENTED_EDGE('',*,*,#833,.T.);
#1033 = ORIENTED_EDGE('',*,*,#866,.T.);
#1034 = ORIENTED_EDGE('',*,*,#899,.T.);
#1035 = ORIENTED_EDGE('',*,*,#932,.T.);
#1036 = ORIENTED_EDGE('',*,*,#965,.T.);
#1037 = PLANE('',#1038);
#1038 = AXIS2_PLACEMENT_3D('',#1039,#1040,#1041);
#1039 = CARTESIAN_POINT('',(23.56252329636,1.674358467948,6.354544722858
    ));
#1040 = DIRECTION('',(0.,-0.939692620786,0.342020143326));
#1041 = DIRECTION('',(1.,0.,0.));
#1042 = ( GEOMETRIC_REPRESENTATION_CONTEXT(3) 
GLOBAL_UNCERTAINTY_ASSIGNED_CONTEXT((#1046)) 
GLOBAL_UNIT_ASSIGNED_CONTEXT((#1043,#1044,#1045)) REPRESENTATION_CONTEXT
('Context #1','3D Context with UNIT and UNCERTAINTY') );
#1043 = ( LENGTH_UNIT() NAMED_UNIT(*) SI_UNIT(.MILLI.,.METRE.) );
#1044 = ( NAMED_UNIT(*) PLANE_ANGLE_UNIT() SI_UNIT($,.RADIAN.) );
#1045 = ( NAMED_UNIT(*) SI_UNIT($,.STERADIAN.) SOLID_ANGLE_UNIT() );
#1046 = UNCERTAINTY_MEASURE_WITH_UNIT(LENGTH_MEASURE(1.E-07),#1043,
  'distance_accuracy_value','confusion accuracy');
#1047 = PRODUCT_RELATED_PRODUCT_CATEGORY('part',$,(#7));
ENDSEC;
END-ISO-10303-21;
