ISO-10303-21;
HEADER;
FILE_DESCRIPTION(('FreeCAD Model'),'2;1');
FILE_NAME('Open CASCADE Shape Model','2026-08-29T16:41:03',('FreeCAD'),(
    'FreeCAD'),'Open CASCADE STEP processor 7.8','FreeCAD','Unknown');
FILE_SCHEMA(('AUTOMOTIVE_DESIGN { 1 0 10303 214 1 1 1 1 }'));
ENDSEC;
DATA;
#1 = APPLICATION_PROTOCOL_DEFINITION('international standard',
  'automotive_design',2000,#2);
#2 = APPLICATION_CONTEXT(
  'core data for automotive mechanical design processes');
#3 = SHAPE_DEFINITION_REPRESENTATION(#4,#10);
#4 = PRODUCT_DEFINITION_SHAPE('','',#5);
#5 = PRODUCT_DEFINITION('design','',#6,#9);
#6 = PRODUCT_DEFINITION_FORMATION('','',#7);
#7 = PRODUCT('Open CASCADE STEP translator 7.8 78',
  'Open CASCADE STEP translator 7.8 78','',(#8));
#8 = PRODUCT_CONTEXT('',#2,'mechanical');
#9 = PRODUCT_DEFINITION_CONTEXT('part definition',#2,'design');
#10 = SHAPE_REPRESENTATION('',(#11,#15,#303,#881,#1179),#1477);
#11 = AXIS2_PLACEMENT_3D('',#12,#13,#14);
#12 = CARTESIAN_POINT('',(0.,0.,0.));
#13 = DIRECTION('',(0.,0.,1.));
#14 = DIRECTION('',(1.,0.,-0.));
#15 = MANIFOLD_SOLID_BREP('',#16);
#16 = CLOSED_SHELL('',(#17,#57,#88,#121,#152,#185,#218,#249,#271,#287));
#17 = ADVANCED_FACE('',(#18),#52,.T.);
#18 = FACE_BOUND('',#19,.T.);
#19 = EDGE_LOOP('',(#20,#30,#38,#46));
#20 = ORIENTED_EDGE('',*,*,#21,.T.);
#21 = EDGE_CURVE('',#22,#24,#26,.T.);
#22 = VERTEX_POINT('',#23);
#23 = CARTESIAN_POINT('',(12.062165605096,1.643819461222,3.931595971335)
  );
#24 = VERTEX_POINT('',#25);
#25 = CARTESIAN_POINT('',(12.062165605096,0.892065364593,4.205212085995)
  );
#26 = LINE('',#27,#28);
#27 = CARTESIAN_POINT('',(12.062165605096,1.643819461222,3.931595971335)
  );
#28 = VECTOR('',#29,1.);
#29 = DIRECTION('',(0.,-0.939692620786,0.342020143326));
#30 = ORIENTED_EDGE('',*,*,#31,.T.);
#31 = EDGE_CURVE('',#24,#32,#34,.T.);
#32 = VERTEX_POINT('',#33);
#33 = CARTESIAN_POINT('',(11.346242038217,0.892065364593,4.205212085995)
  );
#34 = LINE('',#35,#36);
#35 = CARTESIAN_POINT('',(12.062165605096,0.892065364593,4.205212085995)
  );
#36 = VECTOR('',#37,1.);
#37 = DIRECTION('',(-1.,0.,0.));
#38 = ORIENTED_EDGE('',*,*,#39,.F.);
#39 = EDGE_CURVE('',#40,#32,#42,.T.);
#40 = VERTEX_POINT('',#41);
#41 = CARTESIAN_POINT('',(11.346242038217,1.643819461222,3.931595971335)
  );
#42 = LINE('',#43,#44);
#43 = CARTESIAN_POINT('',(11.346242038217,1.643819461222,3.931595971335)
  );
#44 = VECTOR('',#45,1.);
#45 = DIRECTION('',(0.,-0.939692620786,0.342020143326));
#46 = ORIENTED_EDGE('',*,*,#47,.F.);
#47 = EDGE_CURVE('',#22,#40,#48,.T.);
#48 = LINE('',#49,#50);
#49 = CARTESIAN_POINT('',(12.062165605096,1.643819461222,3.931595971335)
  );
#50 = VECTOR('',#51,1.);
#51 = DIRECTION('',(-1.,0.,0.));
#52 = PLANE('',#53);
#53 = AXIS2_PLACEMENT_3D('',#54,#55,#56);
#54 = CARTESIAN_POINT('',(12.062165605096,1.643819461222,3.931595971335)
  );
#55 = DIRECTION('',(0.,-0.342020143326,-0.939692620786));
#56 = DIRECTION('',(-1.,0.,0.));
#57 = ADVANCED_FACE('',(#58),#83,.T.);
#58 = FACE_BOUND('',#59,.T.);
#59 = EDGE_LOOP('',(#60,#61,#69,#77));
#60 = ORIENTED_EDGE('',*,*,#39,.T.);
#61 = ORIENTED_EDGE('',*,*,#62,.T.);
#62 = EDGE_CURVE('',#32,#63,#65,.T.);
#63 = VERTEX_POINT('',#64);
#64 = CARTESIAN_POINT('',(11.346242038217,1.818293672905,6.750003448341)
  );
#65 = LINE('',#66,#67);
#66 = CARTESIAN_POINT('',(11.346242038217,0.892065364593,4.205212085995)
  );
#67 = VECTOR('',#68,1.);
#68 = DIRECTION('',(0.,0.342020143326,0.939692620786));
#69 = ORIENTED_EDGE('',*,*,#70,.F.);
#70 = EDGE_CURVE('',#71,#63,#73,.T.);
#71 = VERTEX_POINT('',#72);
#72 = CARTESIAN_POINT('',(11.346242038217,2.570047769534,6.476387333681)
  );
#73 = LINE('',#74,#75);
#74 = CARTESIAN_POINT('',(11.346242038217,2.570047769534,6.476387333681)
  );
#75 = VECTOR('',#76,1.);
#76 = DIRECTION('',(0.,-0.939692620786,0.342020143326));
#77 = ORIENTED_EDGE('',*,*,#78,.F.);
#78 = EDGE_CURVE('',#40,#71,#79,.T.);
#79 = LINE('',#80,#81);
#80 = CARTESIAN_POINT('',(11.346242038217,1.643819461222,3.931595971335)
  );
#81 = VECTOR('',#82,1.);
#82 = DIRECTION('',(0.,0.342020143326,0.939692620786));
#83 = PLANE('',#84);
#84 = AXIS2_PLACEMENT_3D('',#85,#86,#87);
#85 = CARTESIAN_POINT('',(11.346242038217,1.643819461222,3.931595971335)
  );
#86 = DIRECTION('',(-1.,0.,0.));
#87 = DIRECTION('',(0.,0.342020143326,0.939692620786));
#88 = ADVANCED_FACE('',(#89),#114,.T.);
#89 = FACE_BOUND('',#90,.T.);
#90 = EDGE_LOOP('',(#91,#92,#100,#108));
#91 = ORIENTED_EDGE('',*,*,#70,.T.);
#92 = ORIENTED_EDGE('',*,*,#93,.T.);
#93 = EDGE_CURVE('',#63,#94,#96,.T.);
#94 = VERTEX_POINT('',#95);
#95 = CARTESIAN_POINT('',(10.421401273885,1.63193263345,6.237980700574)
  );
#96 = B_SPLINE_CURVE_WITH_KNOTS('',2,(#97,#98,#99),.UNSPECIFIED.,.F.,.F.
  ,(3,3),(0.,1.),.PIECEWISE_BEZIER_KNOTS.);
#97 = CARTESIAN_POINT('',(11.346242038217,1.818293672905,6.750003448341)
  );
#98 = CARTESIAN_POINT('',(10.953885350318,1.692290837937,6.40381350448)
  );
#99 = CARTESIAN_POINT('',(10.421401273885,1.63193263345,6.237980700574)
  );
#100 = ORIENTED_EDGE('',*,*,#101,.F.);
#101 = EDGE_CURVE('',#102,#94,#104,.T.);
#102 = VERTEX_POINT('',#103);
#103 = CARTESIAN_POINT('',(10.421401273885,2.383686730079,5.964364585913
    ));
#104 = LINE('',#105,#106);
#105 = CARTESIAN_POINT('',(10.421401273885,2.383686730079,5.964364585913
    ));
#106 = VECTOR('',#107,1.);
#107 = DIRECTION('',(0.,-0.939692620786,0.342020143326));
#108 = ORIENTED_EDGE('',*,*,#109,.F.);
#109 = EDGE_CURVE('',#71,#102,#110,.T.);
#110 = B_SPLINE_CURVE_WITH_KNOTS('',2,(#111,#112,#113),.UNSPECIFIED.,.F.
  ,.F.,(3,3),(0.,1.),.PIECEWISE_BEZIER_KNOTS.);
#111 = CARTESIAN_POINT('',(11.346242038217,2.570047769534,6.476387333681
    ));
#112 = CARTESIAN_POINT('',(10.953885350318,2.444044934566,6.130197389819
    ));
#113 = CARTESIAN_POINT('',(10.421401273885,2.383686730079,5.964364585913
    ));
#114 = SURFACE_OF_LINEAR_EXTRUSION('',#115,#119);
#115 = B_SPLINE_CURVE_WITH_KNOTS('',2,(#116,#117,#118),.UNSPECIFIED.,.F.
  ,.F.,(3,3),(0.,1.),.PIECEWISE_BEZIER_KNOTS.);
#116 = CARTESIAN_POINT('',(11.346242038217,2.570047769534,6.476387333681
    ));
#117 = CARTESIAN_POINT('',(10.953885350318,2.444044934566,6.130197389819
    ));
#118 = CARTESIAN_POINT('',(10.421401273885,2.383686730079,5.964364585913
    ));
#119 = VECTOR('',#120,1.);
#120 = DIRECTION('',(-0.,0.939692620786,-0.342020143326));
#121 = ADVANCED_FACE('',(#122),#147,.T.);
#122 = FACE_BOUND('',#123,.T.);
#123 = EDGE_LOOP('',(#124,#125,#133,#141));
#124 = ORIENTED_EDGE('',*,*,#101,.T.);
#125 = ORIENTED_EDGE('',*,*,#126,.T.);
#126 = EDGE_CURVE('',#94,#127,#129,.T.);
#127 = VERTEX_POINT('',#128);
#128 = CARTESIAN_POINT('',(10.421401273885,1.8550081919,6.850875760245)
  );
#129 = LINE('',#130,#131);
#130 = CARTESIAN_POINT('',(10.421401273885,1.63193263345,6.237980700574)
  );
#131 = VECTOR('',#132,1.);
#132 = DIRECTION('',(0.,0.342020143326,0.939692620786));
#133 = ORIENTED_EDGE('',*,*,#134,.F.);
#134 = EDGE_CURVE('',#135,#127,#137,.T.);
#135 = VERTEX_POINT('',#136);
#136 = CARTESIAN_POINT('',(10.421401273885,2.606762288528,6.577259645585
    ));
#137 = LINE('',#138,#139);
#138 = CARTESIAN_POINT('',(10.421401273885,2.606762288528,6.577259645585
    ));
#139 = VECTOR('',#140,1.);
#140 = DIRECTION('',(0.,-0.939692620786,0.342020143326));
#141 = ORIENTED_EDGE('',*,*,#142,.F.);
#142 = EDGE_CURVE('',#102,#135,#143,.T.);
#143 = LINE('',#144,#145);
#144 = CARTESIAN_POINT('',(10.421401273885,2.383686730079,5.964364585913
    ));
#145 = VECTOR('',#146,1.);
#146 = DIRECTION('',(0.,0.342020143326,0.939692620786));
#147 = PLANE('',#148);
#148 = AXIS2_PLACEMENT_3D('',#149,#150,#151);
#149 = CARTESIAN_POINT('',(10.421401273885,2.383686730079,5.964364585913
    ));
#150 = DIRECTION('',(-1.,0.,0.));
#151 = DIRECTION('',(0.,0.342020143326,0.939692620786));
#152 = ADVANCED_FACE('',(#153),#178,.T.);
#153 = FACE_BOUND('',#154,.T.);
#154 = EDGE_LOOP('',(#155,#156,#164,#172));
#155 = ORIENTED_EDGE('',*,*,#134,.T.);
#156 = ORIENTED_EDGE('',*,*,#157,.T.);
#157 = EDGE_CURVE('',#127,#158,#160,.T.);
#158 = VERTEX_POINT('',#159);
#159 = CARTESIAN_POINT('',(11.030318471338,1.973981823073,7.177753125404
    ));
#160 = B_SPLINE_CURVE_WITH_KNOTS('',2,(#161,#162,#163),.UNSPECIFIED.,.F.
  ,.F.,(3,3),(0.,1.),.PIECEWISE_BEZIER_KNOTS.);
#161 = CARTESIAN_POINT('',(10.421401273885,1.8550081919,6.850875760245)
  );
#162 = CARTESIAN_POINT('',(10.701656050955,1.886378192307,6.937064128012
    ));
#163 = CARTESIAN_POINT('',(11.030318471338,1.973981823073,7.177753125404
    ));
#164 = ORIENTED_EDGE('',*,*,#165,.F.);
#165 = EDGE_CURVE('',#166,#158,#168,.T.);
#166 = VERTEX_POINT('',#167);
#167 = CARTESIAN_POINT('',(11.030318471338,2.725735919701,6.904137010743
    ));
#168 = LINE('',#169,#170);
#169 = CARTESIAN_POINT('',(11.030318471338,2.725735919701,6.904137010743
    ));
#170 = VECTOR('',#171,1.);
#171 = DIRECTION('',(0.,-0.939692620786,0.342020143326));
#172 = ORIENTED_EDGE('',*,*,#173,.F.);
#173 = EDGE_CURVE('',#135,#166,#174,.T.);
#174 = B_SPLINE_CURVE_WITH_KNOTS('',2,(#175,#176,#177),.UNSPECIFIED.,.F.
  ,.F.,(3,3),(0.,1.),.PIECEWISE_BEZIER_KNOTS.);
#175 = CARTESIAN_POINT('',(10.421401273885,2.606762288528,6.577259645585
    ));
#176 = CARTESIAN_POINT('',(10.701656050955,2.638132288935,6.663448013351
    ));
#177 = CARTESIAN_POINT('',(11.030318471338,2.725735919701,6.904137010743
    ));
#178 = SURFACE_OF_LINEAR_EXTRUSION('',#179,#183);
#179 = B_SPLINE_CURVE_WITH_KNOTS('',2,(#180,#181,#182),.UNSPECIFIED.,.F.
  ,.F.,(3,3),(0.,1.),.PIECEWISE_BEZIER_KNOTS.);
#180 = CARTESIAN_POINT('',(10.421401273885,2.606762288528,6.577259645585
    ));
#181 = CARTESIAN_POINT('',(10.701656050955,2.638132288935,6.663448013351
    ));
#182 = CARTESIAN_POINT('',(11.030318471338,2.725735919701,6.904137010743
    ));
#183 = VECTOR('',#184,1.);
#184 = DIRECTION('',(-0.,0.939692620786,-0.342020143326));
#185 = ADVANCED_FACE('',(#186),#211,.T.);
#186 = FACE_BOUND('',#187,.T.);
#187 = EDGE_LOOP('',(#188,#189,#197,#205));
#188 = ORIENTED_EDGE('',*,*,#165,.T.);
#189 = ORIENTED_EDGE('',*,*,#190,.T.);
#190 = EDGE_CURVE('',#158,#191,#193,.T.);
#191 = VERTEX_POINT('',#192);
#192 = CARTESIAN_POINT('',(11.48127388535,2.178467751651,7.73957359677)
  );
#193 = B_SPLINE_CURVE_WITH_KNOTS('',2,(#194,#195,#196),.UNSPECIFIED.,.F.
  ,.F.,(3,3),(0.,1.),.PIECEWISE_BEZIER_KNOTS.);
#194 = CARTESIAN_POINT('',(11.030318471338,1.973981823073,7.177753125404
    ));
#195 = CARTESIAN_POINT('',(11.35898089172,2.061643546432,7.418601730884)
  );
#196 = CARTESIAN_POINT('',(11.48127388535,2.178467751651,7.73957359677)
  );
#197 = ORIENTED_EDGE('',*,*,#198,.F.);
#198 = EDGE_CURVE('',#199,#191,#201,.T.);
#199 = VERTEX_POINT('',#200);
#200 = CARTESIAN_POINT('',(11.48127388535,2.93022184828,7.465957482109)
  );
#201 = LINE('',#202,#203);
#202 = CARTESIAN_POINT('',(11.48127388535,2.93022184828,7.465957482109)
  );
#203 = VECTOR('',#204,1.);
#204 = DIRECTION('',(0.,-0.939692620786,0.342020143326));
#205 = ORIENTED_EDGE('',*,*,#206,.F.);
#206 = EDGE_CURVE('',#166,#199,#207,.T.);
#207 = B_SPLINE_CURVE_WITH_KNOTS('',2,(#208,#209,#210),.UNSPECIFIED.,.F.
  ,.F.,(3,3),(0.,1.),.PIECEWISE_BEZIER_KNOTS.);
#208 = CARTESIAN_POINT('',(11.030318471338,2.725735919701,6.904137010743
    ));
#209 = CARTESIAN_POINT('',(11.35898089172,2.813397643061,7.144985616224)
  );
#210 = CARTESIAN_POINT('',(11.48127388535,2.93022184828,7.465957482109)
  );
#211 = SURFACE_OF_LINEAR_EXTRUSION('',#212,#216);
#212 = B_SPLINE_CURVE_WITH_KNOTS('',2,(#213,#214,#215),.UNSPECIFIED.,.F.
  ,.F.,(3,3),(0.,1.),.PIECEWISE_BEZIER_KNOTS.);
#213 = CARTESIAN_POINT('',(11.030318471338,2.725735919701,6.904137010743
    ));
#214 = CARTESIAN_POINT('',(11.35898089172,2.813397643061,7.144985616224)
  );
#215 = CARTESIAN_POINT('',(11.48127388535,2.93022184828,7.465957482109)
  );
#216 = VECTOR('',#217,1.);
#217 = DIRECTION('',(-0.,0.939692620786,-0.342020143326));
#218 = ADVANCED_FACE('',(#219),#244,.T.);
#219 = FACE_BOUND('',#220,.T.);
#220 = EDGE_LOOP('',(#221,#222,#230,#238));
#221 = ORIENTED_EDGE('',*,*,#198,.T.);
#222 = ORIENTED_EDGE('',*,*,#223,.T.);
#223 = EDGE_CURVE('',#191,#224,#226,.T.);
#224 = VERTEX_POINT('',#225);
#225 = CARTESIAN_POINT('',(12.062165605096,2.178467751651,7.73957359677)
  );
#226 = LINE('',#227,#228);
#227 = CARTESIAN_POINT('',(11.48127388535,2.178467751651,7.73957359677)
  );
#228 = VECTOR('',#229,1.);
#229 = DIRECTION('',(1.,0.,0.));
#230 = ORIENTED_EDGE('',*,*,#231,.F.);
#231 = EDGE_CURVE('',#232,#224,#234,.T.);
#232 = VERTEX_POINT('',#233);
#233 = CARTESIAN_POINT('',(12.062165605096,2.93022184828,7.465957482109)
  );
#234 = LINE('',#235,#236);
#235 = CARTESIAN_POINT('',(12.062165605096,2.93022184828,7.465957482109)
  );
#236 = VECTOR('',#237,1.);
#237 = DIRECTION('',(0.,-0.939692620786,0.342020143326));
#238 = ORIENTED_EDGE('',*,*,#239,.F.);
#239 = EDGE_CURVE('',#199,#232,#240,.T.);
#240 = LINE('',#241,#242);
#241 = CARTESIAN_POINT('',(11.48127388535,2.93022184828,7.465957482109)
  );
#242 = VECTOR('',#243,1.);
#243 = DIRECTION('',(1.,0.,0.));
#244 = PLANE('',#245);
#245 = AXIS2_PLACEMENT_3D('',#246,#247,#248);
#246 = CARTESIAN_POINT('',(11.48127388535,2.93022184828,7.465957482109)
  );
#247 = DIRECTION('',(0.,0.342020143326,0.939692620786));
#248 = DIRECTION('',(1.,0.,0.));
#249 = ADVANCED_FACE('',(#250),#266,.T.);
#250 = FACE_BOUND('',#251,.T.);
#251 = EDGE_LOOP('',(#252,#253,#259,#260));
#252 = ORIENTED_EDGE('',*,*,#231,.T.);
#253 = ORIENTED_EDGE('',*,*,#254,.T.);
#254 = EDGE_CURVE('',#224,#24,#255,.T.);
#255 = LINE('',#256,#257);
#256 = CARTESIAN_POINT('',(12.062165605096,2.178467751651,7.73957359677)
  );
#257 = VECTOR('',#258,1.);
#258 = DIRECTION('',(0.,-0.342020143326,-0.939692620786));
#259 = ORIENTED_EDGE('',*,*,#21,.F.);
#260 = ORIENTED_EDGE('',*,*,#261,.F.);
#261 = EDGE_CURVE('',#232,#22,#262,.T.);
#262 = LINE('',#263,#264);
#263 = CARTESIAN_POINT('',(12.062165605096,2.93022184828,7.465957482109)
  );
#264 = VECTOR('',#265,1.);
#265 = DIRECTION('',(0.,-0.342020143326,-0.939692620786));
#266 = PLANE('',#267);
#267 = AXIS2_PLACEMENT_3D('',#268,#269,#270);
#268 = CARTESIAN_POINT('',(12.062165605096,2.93022184828,7.465957482109)
  );
#269 = DIRECTION('',(1.,0.,0.));
#270 = DIRECTION('',(0.,-0.342020143326,-0.939692620786));
#271 = ADVANCED_FACE('',(#272),#282,.F.);
#272 = FACE_BOUND('',#273,.T.);
#273 = EDGE_LOOP('',(#274,#275,#276,#277,#278,#279,#280,#281));
#274 = ORIENTED_EDGE('',*,*,#47,.T.);
#275 = ORIENTED_EDGE('',*,*,#78,.T.);
#276 = ORIENTED_EDGE('',*,*,#109,.T.);
#277 = ORIENTED_EDGE('',*,*,#142,.T.);
#278 = ORIENTED_EDGE('',*,*,#173,.T.);
#279 = ORIENTED_EDGE('',*,*,#206,.T.);
#280 = ORIENTED_EDGE('',*,*,#239,.T.);
#281 = ORIENTED_EDGE('',*,*,#261,.T.);
#282 = PLANE('',#283);
#283 = AXIS2_PLACEMENT_3D('',#284,#285,#286);
#284 = CARTESIAN_POINT('',(11.494639706406,2.325874114842,5.805525730989
    ));
#285 = DIRECTION('',(0.,-0.939692620786,0.342020143326));
#286 = DIRECTION('',(1.,0.,0.));
#287 = ADVANCED_FACE('',(#288),#298,.T.);
#288 = FACE_BOUND('',#289,.F.);
#289 = EDGE_LOOP('',(#290,#291,#292,#293,#294,#295,#296,#297));
#290 = ORIENTED_EDGE('',*,*,#31,.T.);
#291 = ORIENTED_EDGE('',*,*,#62,.T.);
#292 = ORIENTED_EDGE('',*,*,#93,.T.);
#293 = ORIENTED_EDGE('',*,*,#126,.T.);
#294 = ORIENTED_EDGE('',*,*,#157,.T.);
#295 = ORIENTED_EDGE('',*,*,#190,.T.);
#296 = ORIENTED_EDGE('',*,*,#223,.T.);
#297 = ORIENTED_EDGE('',*,*,#254,.T.);
#298 = PLANE('',#299);
#299 = AXIS2_PLACEMENT_3D('',#300,#301,#302);
#300 = CARTESIAN_POINT('',(11.494639706406,1.574120018213,6.07914184565)
  );
#301 = DIRECTION('',(0.,-0.939692620786,0.342020143326));
#302 = DIRECTION('',(1.,0.,0.));
#303 = MANIFOLD_SOLID_BREP('',#304);
#304 = CLOSED_SHELL('',(#305,#347,#380,#413,#446,#479,#512,#545,#578,
    #611,#644,#677,#710,#743,#776,#809,#833,#857));
#305 = ADVANCED_FACE('',(#306),#340,.T.);
#306 = FACE_BOUND('',#307,.T.);
#307 = EDGE_LOOP('',(#308,#318,#326,#334));
#308 = ORIENTED_EDGE('',*,*,#309,.T.);
#309 = EDGE_CURVE('',#310,#312,#314,.T.);
#310 = VERTEX_POINT('',#311);
#311 = CARTESIAN_POINT('',(13.746751592357,2.334366118328,5.828857318814
    ));
#312 = VERTEX_POINT('',#313);
#313 = CARTESIAN_POINT('',(13.746751592357,1.582612021699,6.102473433474
    ));
#314 = LINE('',#315,#316);
#315 = CARTESIAN_POINT('',(13.746751592357,2.334366118328,5.828857318814
    ));
#316 = VECTOR('',#317,1.);
#317 = DIRECTION('',(0.,-0.939692620786,0.342020143326));
#318 = ORIENTED_EDGE('',*,*,#319,.T.);
#319 = EDGE_CURVE('',#312,#320,#322,.T.);
#320 = VERTEX_POINT('',#321);
#321 = CARTESIAN_POINT('',(13.342845010616,1.693278412024,6.406526841983
    ));
#322 = B_SPLINE_CURVE_WITH_KNOTS('',2,(#323,#324,#325),.UNSPECIFIED.,.F.
  ,.F.,(3,3),(0.,1.),.PIECEWISE_BEZIER_KNOTS.);
#323 = CARTESIAN_POINT('',(13.746751592357,1.582612021699,6.102473433474
    ));
#324 = CARTESIAN_POINT('',(13.469044585987,1.622870188888,6.213081838774
    ));
#325 = CARTESIAN_POINT('',(13.342845010616,1.693278412024,6.406526841983
    ));
#326 = ORIENTED_EDGE('',*,*,#327,.F.);
#327 = EDGE_CURVE('',#328,#320,#330,.T.);
#328 = VERTEX_POINT('',#329);
#329 = CARTESIAN_POINT('',(13.342845010616,2.445032508653,6.132910727323
    ));
#330 = LINE('',#331,#332);
#331 = CARTESIAN_POINT('',(13.342845010616,2.445032508653,6.132910727323
    ));
#332 = VECTOR('',#333,1.);
#333 = DIRECTION('',(0.,-0.939692620786,0.342020143326));
#334 = ORIENTED_EDGE('',*,*,#335,.F.);
#335 = EDGE_CURVE('',#310,#328,#336,.T.);
#336 = B_SPLINE_CURVE_WITH_KNOTS('',2,(#337,#338,#339),.UNSPECIFIED.,.F.
  ,.F.,(3,3),(0.,1.),.PIECEWISE_BEZIER_KNOTS.);
#337 = CARTESIAN_POINT('',(13.746751592357,2.334366118328,5.828857318814
    ));
#338 = CARTESIAN_POINT('',(13.469044585987,2.374624285517,5.939465724114
    ));
#339 = CARTESIAN_POINT('',(13.342845010616,2.445032508653,6.132910727323
    ));
#340 = SURFACE_OF_LINEAR_EXTRUSION('',#341,#345);
#341 = B_SPLINE_CURVE_WITH_KNOTS('',2,(#342,#343,#344),.UNSPECIFIED.,.F.
  ,.F.,(3,3),(0.,1.),.PIECEWISE_BEZIER_KNOTS.);
#342 = CARTESIAN_POINT('',(13.746751592357,2.334366118328,5.828857318814
    ));
#343 = CARTESIAN_POINT('',(13.469044585987,2.374624285517,5.939465724114
    ));
#344 = CARTESIAN_POINT('',(13.342845010616,2.445032508653,6.132910727323
    ));
#345 = VECTOR('',#346,1.);
#346 = DIRECTION('',(-0.,0.939692620786,-0.342020143326));
#347 = ADVANCED_FACE('',(#348),#373,.T.);
#348 = FACE_BOUND('',#349,.T.);
#349 = EDGE_LOOP('',(#350,#351,#359,#367));
#350 = ORIENTED_EDGE('',*,*,#327,.T.);
#351 = ORIENTED_EDGE('',*,*,#352,.T.);
#352 = EDGE_CURVE('',#320,#353,#355,.T.);
#353 = VERTEX_POINT('',#354);
#354 = CARTESIAN_POINT('',(13.216815286624,1.847746617731,6.830924749188
    ));
#355 = B_SPLINE_CURVE_WITH_KNOTS('',2,(#356,#357,#358),.UNSPECIFIED.,.F.
  ,.F.,(3,3),(0.,1.),.PIECEWISE_BEZIER_KNOTS.);
#356 = CARTESIAN_POINT('',(13.342845010616,1.693278412024,6.406526841983
    ));
#357 = CARTESIAN_POINT('',(13.216815286624,1.763744727753,6.600131453281
    ));
#358 = CARTESIAN_POINT('',(13.216815286624,1.847746617731,6.830924749188
    ));
#359 = ORIENTED_EDGE('',*,*,#360,.F.);
#360 = EDGE_CURVE('',#361,#353,#363,.T.);
#361 = VERTEX_POINT('',#362);
#362 = CARTESIAN_POINT('',(13.216815286624,2.59950071436,6.557308634528)
  );
#363 = LINE('',#364,#365);
#364 = CARTESIAN_POINT('',(13.216815286624,2.59950071436,6.557308634528)
  );
#365 = VECTOR('',#366,1.);
#366 = DIRECTION('',(0.,-0.939692620786,0.342020143326));
#367 = ORIENTED_EDGE('',*,*,#368,.F.);
#368 = EDGE_CURVE('',#328,#361,#369,.T.);
#369 = B_SPLINE_CURVE_WITH_KNOTS('',2,(#370,#371,#372),.UNSPECIFIED.,.F.
  ,.F.,(3,3),(0.,1.),.PIECEWISE_BEZIER_KNOTS.);
#370 = CARTESIAN_POINT('',(13.342845010616,2.445032508653,6.132910727323
    ));
#371 = CARTESIAN_POINT('',(13.216815286624,2.515498824382,6.32651533862)
  );
#372 = CARTESIAN_POINT('',(13.216815286624,2.59950071436,6.557308634528)
  );
#373 = SURFACE_OF_LINEAR_EXTRUSION('',#374,#378);
#374 = B_SPLINE_CURVE_WITH_KNOTS('',2,(#375,#376,#377),.UNSPECIFIED.,.F.
  ,.F.,(3,3),(0.,1.),.PIECEWISE_BEZIER_KNOTS.);
#375 = CARTESIAN_POINT('',(13.342845010616,2.445032508653,6.132910727323
    ));
#376 = CARTESIAN_POINT('',(13.216815286624,2.515498824382,6.32651533862)
  );
#377 = CARTESIAN_POINT('',(13.216815286624,2.59950071436,6.557308634528)
  );
#378 = VECTOR('',#379,1.);
#379 = DIRECTION('',(-0.,0.939692620786,-0.342020143326));
#380 = ADVANCED_FACE('',(#381),#406,.T.);
#381 = FACE_BOUND('',#382,.T.);
#382 = EDGE_LOOP('',(#383,#384,#392,#400));
#383 = ORIENTED_EDGE('',*,*,#360,.T.);
#384 = ORIENTED_EDGE('',*,*,#385,.T.);
#385 = EDGE_CURVE('',#353,#386,#388,.T.);
#386 = VERTEX_POINT('',#387);
#387 = CARTESIAN_POINT('',(13.508450106157,2.084822491177,7.482285358178
    ));
#388 = B_SPLINE_CURVE_WITH_KNOTS('',2,(#389,#390,#391),.UNSPECIFIED.,.F.
  ,.F.,(3,3),(0.,1.),.PIECEWISE_BEZIER_KNOTS.);
#389 = CARTESIAN_POINT('',(13.216815286624,1.847746617731,6.830924749188
    ));
#390 = CARTESIAN_POINT('',(13.216815286624,1.991235323296,7.225156727675
    ));
#391 = CARTESIAN_POINT('',(13.508450106157,2.084822491177,7.482285358178
    ));
#392 = ORIENTED_EDGE('',*,*,#393,.F.);
#393 = EDGE_CURVE('',#394,#386,#396,.T.);
#394 = VERTEX_POINT('',#395);
#395 = CARTESIAN_POINT('',(13.508450106157,2.836576587806,7.208669243518
    ));
#396 = LINE('',#397,#398);
#397 = CARTESIAN_POINT('',(13.508450106157,2.836576587806,7.208669243518
    ));
#398 = VECTOR('',#399,1.);
#399 = DIRECTION('',(0.,-0.939692620786,0.342020143326));
#400 = ORIENTED_EDGE('',*,*,#401,.F.);
#401 = EDGE_CURVE('',#361,#394,#402,.T.);
#402 = B_SPLINE_CURVE_WITH_KNOTS('',2,(#403,#404,#405),.UNSPECIFIED.,.F.
  ,.F.,(3,3),(0.,1.),.PIECEWISE_BEZIER_KNOTS.);
#403 = CARTESIAN_POINT('',(13.216815286624,2.59950071436,6.557308634528)
  );
#404 = CARTESIAN_POINT('',(13.216815286624,2.742989419925,6.951540613015
    ));
#405 = CARTESIAN_POINT('',(13.508450106157,2.836576587806,7.208669243518
    ));
#406 = SURFACE_OF_LINEAR_EXTRUSION('',#407,#411);
#407 = B_SPLINE_CURVE_WITH_KNOTS('',2,(#408,#409,#410),.UNSPECIFIED.,.F.
  ,.F.,(3,3),(0.,1.),.PIECEWISE_BEZIER_KNOTS.);
#408 = CARTESIAN_POINT('',(13.216815286624,2.59950071436,6.557308634528)
  );
#409 = CARTESIAN_POINT('',(13.216815286624,2.742989419925,6.951540613015
    ));
#410 = CARTESIAN_POINT('',(13.508450106157,2.836576587806,7.208669243518
    ));
#411 = VECTOR('',#412,1.);
#412 = DIRECTION('',(-0.,0.939692620786,-0.342020143326));
#413 = ADVANCED_FACE('',(#414),#439,.T.);
#414 = FACE_BOUND('',#415,.T.);
#415 = EDGE_LOOP('',(#416,#417,#425,#433));
#416 = ORIENTED_EDGE('',*,*,#393,.T.);
#417 = ORIENTED_EDGE('',*,*,#418,.T.);
#418 = EDGE_CURVE('',#386,#419,#421,.T.);
#419 = VERTEX_POINT('',#420);
#420 = CARTESIAN_POINT('',(14.337834394904,2.178467751651,7.73957359677)
  );
#421 = B_SPLINE_CURVE_WITH_KNOTS('',2,(#422,#423,#424),.UNSPECIFIED.,.F.
  ,.F.,(3,3),(0.,1.),.PIECEWISE_BEZIER_KNOTS.);
#422 = CARTESIAN_POINT('',(13.508450106157,2.084822491177,7.482285358178
    ));
#423 = CARTESIAN_POINT('',(13.80025477707,2.178467751651,7.73957359677)
  );
#424 = CARTESIAN_POINT('',(14.337834394904,2.178467751651,7.73957359677)
  );
#425 = ORIENTED_EDGE('',*,*,#426,.F.);
#426 = EDGE_CURVE('',#427,#419,#429,.T.);
#427 = VERTEX_POINT('',#428);
#428 = CARTESIAN_POINT('',(14.337834394904,2.93022184828,7.465957482109)
  );
#429 = LINE('',#430,#431);
#430 = CARTESIAN_POINT('',(14.337834394904,2.93022184828,7.465957482109)
  );
#431 = VECTOR('',#432,1.);
#432 = DIRECTION('',(0.,-0.939692620786,0.342020143326));
#433 = ORIENTED_EDGE('',*,*,#434,.F.);
#434 = EDGE_CURVE('',#394,#427,#435,.T.);
#435 = B_SPLINE_CURVE_WITH_KNOTS('',2,(#436,#437,#438),.UNSPECIFIED.,.F.
  ,.F.,(3,3),(0.,1.),.PIECEWISE_BEZIER_KNOTS.);
#436 = CARTESIAN_POINT('',(13.508450106157,2.836576587806,7.208669243518
    ));
#437 = CARTESIAN_POINT('',(13.80025477707,2.93022184828,7.465957482109)
  );
#438 = CARTESIAN_POINT('',(14.337834394904,2.93022184828,7.465957482109)
  );
#439 = SURFACE_OF_LINEAR_EXTRUSION('',#440,#444);
#440 = B_SPLINE_CURVE_WITH_KNOTS('',2,(#441,#442,#443),.UNSPECIFIED.,.F.
  ,.F.,(3,3),(0.,1.),.PIECEWISE_BEZIER_KNOTS.);
#441 = CARTESIAN_POINT('',(13.508450106157,2.836576587806,7.208669243518
    ));
#442 = CARTESIAN_POINT('',(13.80025477707,2.93022184828,7.465957482109)
  );
#443 = CARTESIAN_POINT('',(14.337834394904,2.93022184828,7.465957482109)
  );
#444 = VECTOR('',#445,1.);
#445 = DIRECTION('',(-0.,0.939692620786,-0.342020143326));
#446 = ADVANCED_FACE('',(#447),#472,.T.);
#447 = FACE_BOUND('',#448,.T.);
#448 = EDGE_LOOP('',(#449,#450,#458,#466));
#449 = ORIENTED_EDGE('',*,*,#426,.T.);
#450 = ORIENTED_EDGE('',*,*,#451,.T.);
#451 = EDGE_CURVE('',#419,#452,#454,.T.);
#452 = VERTEX_POINT('',#453);
#453 = CARTESIAN_POINT('',(15.164501061571,2.084822491177,7.482285358178
    ));
#454 = B_SPLINE_CURVE_WITH_KNOTS('',2,(#455,#456,#457),.UNSPECIFIED.,.F.
  ,.F.,(3,3),(0.,1.),.PIECEWISE_BEZIER_KNOTS.);
#455 = CARTESIAN_POINT('',(14.337834394904,2.178467751651,7.73957359677)
  );
#456 = CARTESIAN_POINT('',(14.870318471338,2.178467751651,7.73957359677)
  );
#457 = CARTESIAN_POINT('',(15.164501061571,2.084822491177,7.482285358178
    ));
#458 = ORIENTED_EDGE('',*,*,#459,.F.);
#459 = EDGE_CURVE('',#460,#452,#462,.T.);
#460 = VERTEX_POINT('',#461);
#461 = CARTESIAN_POINT('',(15.164501061571,2.836576587806,7.208669243518
    ));
#462 = LINE('',#463,#464);
#463 = CARTESIAN_POINT('',(15.164501061571,2.836576587806,7.208669243518
    ));
#464 = VECTOR('',#465,1.);
#465 = DIRECTION('',(0.,-0.939692620786,0.342020143326));
#466 = ORIENTED_EDGE('',*,*,#467,.F.);
#467 = EDGE_CURVE('',#427,#460,#468,.T.);
#468 = B_SPLINE_CURVE_WITH_KNOTS('',2,(#469,#470,#471),.UNSPECIFIED.,.F.
  ,.F.,(3,3),(0.,1.),.PIECEWISE_BEZIER_KNOTS.);
#469 = CARTESIAN_POINT('',(14.337834394904,2.93022184828,7.465957482109)
  );
#470 = CARTESIAN_POINT('',(14.870318471338,2.93022184828,7.465957482109)
  );
#471 = CARTESIAN_POINT('',(15.164501061571,2.836576587806,7.208669243518
    ));
#472 = SURFACE_OF_LINEAR_EXTRUSION('',#473,#477);
#473 = B_SPLINE_CURVE_WITH_KNOTS('',2,(#474,#475,#476),.UNSPECIFIED.,.F.
  ,.F.,(3,3),(0.,1.),.PIECEWISE_BEZIER_KNOTS.);
#474 = CARTESIAN_POINT('',(14.337834394904,2.93022184828,7.465957482109)
  );
#475 = CARTESIAN_POINT('',(14.870318471338,2.93022184828,7.465957482109)
  );
#476 = CARTESIAN_POINT('',(15.164501061571,2.836576587806,7.208669243518
    ));
#477 = VECTOR('',#478,1.);
#478 = DIRECTION('',(-0.,0.939692620786,-0.342020143326));
#479 = ADVANCED_FACE('',(#480),#505,.T.);
#480 = FACE_BOUND('',#481,.T.);
#481 = EDGE_LOOP('',(#482,#483,#491,#499));
#482 = ORIENTED_EDGE('',*,*,#459,.T.);
#483 = ORIENTED_EDGE('',*,*,#484,.T.);
#484 = EDGE_CURVE('',#452,#485,#487,.T.);
#485 = VERTEX_POINT('',#486);
#486 = CARTESIAN_POINT('',(15.458853503185,1.847746617731,6.830924749188
    ));
#487 = B_SPLINE_CURVE_WITH_KNOTS('',2,(#488,#489,#490),.UNSPECIFIED.,.F.
  ,.F.,(3,3),(0.,1.),.PIECEWISE_BEZIER_KNOTS.);
#488 = CARTESIAN_POINT('',(15.164501061571,2.084822491177,7.482285358178
    ));
#489 = CARTESIAN_POINT('',(15.458853503185,1.991235323296,7.225156727675
    ));
#490 = CARTESIAN_POINT('',(15.458853503185,1.847746617731,6.830924749188
    ));
#491 = ORIENTED_EDGE('',*,*,#492,.F.);
#492 = EDGE_CURVE('',#493,#485,#495,.T.);
#493 = VERTEX_POINT('',#494);
#494 = CARTESIAN_POINT('',(15.458853503185,2.59950071436,6.557308634528)
  );
#495 = LINE('',#496,#497);
#496 = CARTESIAN_POINT('',(15.458853503185,2.59950071436,6.557308634528)
  );
#497 = VECTOR('',#498,1.);
#498 = DIRECTION('',(0.,-0.939692620786,0.342020143326));
#499 = ORIENTED_EDGE('',*,*,#500,.F.);
#500 = EDGE_CURVE('',#460,#493,#501,.T.);
#501 = B_SPLINE_CURVE_WITH_KNOTS('',2,(#502,#503,#504),.UNSPECIFIED.,.F.
  ,.F.,(3,3),(0.,1.),.PIECEWISE_BEZIER_KNOTS.);
#502 = CARTESIAN_POINT('',(15.164501061571,2.836576587806,7.208669243518
    ));
#503 = CARTESIAN_POINT('',(15.458853503185,2.742989419925,6.951540613015
    ));
#504 = CARTESIAN_POINT('',(15.458853503185,2.59950071436,6.557308634528)
  );
#505 = SURFACE_OF_LINEAR_EXTRUSION('',#506,#510);
#506 = B_SPLINE_CURVE_WITH_KNOTS('',2,(#507,#508,#509),.UNSPECIFIED.,.F.
  ,.F.,(3,3),(0.,1.),.PIECEWISE_BEZIER_KNOTS.);
#507 = CARTESIAN_POINT('',(15.164501061571,2.836576587806,7.208669243518
    ));
#508 = CARTESIAN_POINT('',(15.458853503185,2.742989419925,6.951540613015
    ));
#509 = CARTESIAN_POINT('',(15.458853503185,2.59950071436,6.557308634528)
  );
#510 = VECTOR('',#511,1.);
#511 = DIRECTION('',(-0.,0.939692620786,-0.342020143326));
#512 = ADVANCED_FACE('',(#513),#538,.T.);
#513 = FACE_BOUND('',#514,.T.);
#514 = EDGE_LOOP('',(#515,#516,#524,#532));
#515 = ORIENTED_EDGE('',*,*,#492,.T.);
#516 = ORIENTED_EDGE('',*,*,#517,.T.);
#517 = EDGE_CURVE('',#485,#518,#520,.T.);
#518 = VERTEX_POINT('',#519);
#519 = CARTESIAN_POINT('',(15.323821656051,1.688921467523,6.394556235349
    ));
#520 = B_SPLINE_CURVE_WITH_KNOTS('',2,(#521,#522,#523),.UNSPECIFIED.,.F.
  ,.F.,(3,3),(0.,1.),.PIECEWISE_BEZIER_KNOTS.);
#521 = CARTESIAN_POINT('',(15.458853503185,1.847746617731,6.830924749188
    ));
#522 = CARTESIAN_POINT('',(15.458853503185,1.758458301758,6.585607117231
    ));
#523 = CARTESIAN_POINT('',(15.323821656051,1.688921467523,6.394556235349
    ));
#524 = ORIENTED_EDGE('',*,*,#525,.F.);
#525 = EDGE_CURVE('',#526,#518,#528,.T.);
#526 = VERTEX_POINT('',#527);
#527 = CARTESIAN_POINT('',(15.323821656051,2.440675564152,6.120940120689
    ));
#528 = LINE('',#529,#530);
#529 = CARTESIAN_POINT('',(15.323821656051,2.440675564152,6.120940120689
    ));
#530 = VECTOR('',#531,1.);
#531 = DIRECTION('',(0.,-0.939692620786,0.342020143326));
#532 = ORIENTED_EDGE('',*,*,#533,.F.);
#533 = EDGE_CURVE('',#493,#526,#534,.T.);
#534 = B_SPLINE_CURVE_WITH_KNOTS('',2,(#535,#536,#537),.UNSPECIFIED.,.F.
  ,.F.,(3,3),(0.,1.),.PIECEWISE_BEZIER_KNOTS.);
#535 = CARTESIAN_POINT('',(15.458853503185,2.59950071436,6.557308634528)
  );
#536 = CARTESIAN_POINT('',(15.458853503185,2.510212398387,6.311991002571
    ));
#537 = CARTESIAN_POINT('',(15.323821656051,2.440675564152,6.120940120689
    ));
#538 = SURFACE_OF_LINEAR_EXTRUSION('',#539,#543);
#539 = B_SPLINE_CURVE_WITH_KNOTS('',2,(#540,#541,#542),.UNSPECIFIED.,.F.
  ,.F.,(3,3),(0.,1.),.PIECEWISE_BEZIER_KNOTS.);
#540 = CARTESIAN_POINT('',(15.458853503185,2.59950071436,6.557308634528)
  );
#541 = CARTESIAN_POINT('',(15.458853503185,2.510212398387,6.311991002571
    ));
#542 = CARTESIAN_POINT('',(15.323821656051,2.440675564152,6.120940120689
    ));
#543 = VECTOR('',#544,1.);
#544 = DIRECTION('',(-0.,0.939692620786,-0.342020143326));
#545 = ADVANCED_FACE('',(#546),#571,.T.);
#546 = FACE_BOUND('',#547,.T.);
#547 = EDGE_LOOP('',(#548,#549,#557,#565));
#548 = ORIENTED_EDGE('',*,*,#525,.T.);
#549 = ORIENTED_EDGE('',*,*,#550,.T.);
#550 = EDGE_CURVE('',#518,#551,#553,.T.);
#551 = VERTEX_POINT('',#552);
#552 = CARTESIAN_POINT('',(14.944203821656,1.582612021699,6.102473433474
    ));
#553 = B_SPLINE_CURVE_WITH_KNOTS('',2,(#554,#555,#556),.UNSPECIFIED.,.F.
  ,.F.,(3,3),(0.,1.),.PIECEWISE_BEZIER_KNOTS.);
#554 = CARTESIAN_POINT('',(15.323821656051,1.688921467523,6.394556235349
    ));
#555 = CARTESIAN_POINT('',(15.188789808917,1.619384633288,6.203505353467
    ));
#556 = CARTESIAN_POINT('',(14.944203821656,1.582612021699,6.102473433474
    ));
#557 = ORIENTED_EDGE('',*,*,#558,.F.);
#558 = EDGE_CURVE('',#559,#551,#561,.T.);
#559 = VERTEX_POINT('',#560);
#560 = CARTESIAN_POINT('',(14.944203821656,2.334366118328,5.828857318814
    ));
#561 = LINE('',#562,#563);
#562 = CARTESIAN_POINT('',(14.944203821656,2.334366118328,5.828857318814
    ));
#563 = VECTOR('',#564,1.);
#564 = DIRECTION('',(0.,-0.939692620786,0.342020143326));
#565 = ORIENTED_EDGE('',*,*,#566,.F.);
#566 = EDGE_CURVE('',#526,#559,#567,.T.);
#567 = B_SPLINE_CURVE_WITH_KNOTS('',2,(#568,#569,#570),.UNSPECIFIED.,.F.
  ,.F.,(3,3),(0.,1.),.PIECEWISE_BEZIER_KNOTS.);
#568 = CARTESIAN_POINT('',(15.323821656051,2.440675564152,6.120940120689
    ));
#569 = CARTESIAN_POINT('',(15.188789808917,2.371138729916,5.929889238807
    ));
#570 = CARTESIAN_POINT('',(14.944203821656,2.334366118328,5.828857318814
    ));
#571 = SURFACE_OF_LINEAR_EXTRUSION('',#572,#576);
#572 = B_SPLINE_CURVE_WITH_KNOTS('',2,(#573,#574,#575),.UNSPECIFIED.,.F.
  ,.F.,(3,3),(0.,1.),.PIECEWISE_BEZIER_KNOTS.);
#573 = CARTESIAN_POINT('',(15.323821656051,2.440675564152,6.120940120689
    ));
#574 = CARTESIAN_POINT('',(15.188789808917,2.371138729916,5.929889238807
    ));
#575 = CARTESIAN_POINT('',(14.944203821656,2.334366118328,5.828857318814
    ));
#576 = VECTOR('',#577,1.);
#577 = DIRECTION('',(-0.,0.939692620786,-0.342020143326));
#578 = ADVANCED_FACE('',(#579),#604,.T.);
#579 = FACE_BOUND('',#580,.T.);
#580 = EDGE_LOOP('',(#581,#582,#590,#598));
#581 = ORIENTED_EDGE('',*,*,#558,.T.);
#582 = ORIENTED_EDGE('',*,*,#583,.T.);
#583 = EDGE_CURVE('',#551,#584,#586,.T.);
#584 = VERTEX_POINT('',#585);
#585 = CARTESIAN_POINT('',(15.416730360934,1.457829131192,5.75963525947)
  );
#586 = B_SPLINE_CURVE_WITH_KNOTS('',2,(#587,#588,#589),.UNSPECIFIED.,.F.
  ,.F.,(3,3),(0.,1.),.PIECEWISE_BEZIER_KNOTS.);
#587 = CARTESIAN_POINT('',(14.944203821656,1.582612021699,6.102473433474
    ));
#588 = CARTESIAN_POINT('',(15.255031847134,1.539855872997,5.985001880371
    ));
#589 = CARTESIAN_POINT('',(15.416730360934,1.457829131192,5.75963525947)
  );
#590 = ORIENTED_EDGE('',*,*,#591,.F.);
#591 = EDGE_CURVE('',#592,#584,#594,.T.);
#592 = VERTEX_POINT('',#593);
#593 = CARTESIAN_POINT('',(15.416730360934,2.20958322782,5.48601914481)
  );
#594 = LINE('',#595,#596);
#595 = CARTESIAN_POINT('',(15.416730360934,2.20958322782,5.48601914481)
  );
#596 = VECTOR('',#597,1.);
#597 = DIRECTION('',(0.,-0.939692620786,0.342020143326));
#598 = ORIENTED_EDGE('',*,*,#599,.F.);
#599 = EDGE_CURVE('',#559,#592,#600,.T.);
#600 = B_SPLINE_CURVE_WITH_KNOTS('',2,(#601,#602,#603),.UNSPECIFIED.,.F.
  ,.F.,(3,3),(0.,1.),.PIECEWISE_BEZIER_KNOTS.);
#601 = CARTESIAN_POINT('',(14.944203821656,2.334366118328,5.828857318814
    ));
#602 = CARTESIAN_POINT('',(15.255031847134,2.291609969625,5.71138576571)
  );
#603 = CARTESIAN_POINT('',(15.416730360934,2.20958322782,5.48601914481)
  );
#604 = SURFACE_OF_LINEAR_EXTRUSION('',#605,#609);
#605 = B_SPLINE_CURVE_WITH_KNOTS('',2,(#606,#607,#608),.UNSPECIFIED.,.F.
  ,.F.,(3,3),(0.,1.),.PIECEWISE_BEZIER_KNOTS.);
#606 = CARTESIAN_POINT('',(14.944203821656,2.334366118328,5.828857318814
    ));
#607 = CARTESIAN_POINT('',(15.255031847134,2.291609969625,5.71138576571)
  );
#608 = CARTESIAN_POINT('',(15.416730360934,2.20958322782,5.48601914481)
  );
#609 = VECTOR('',#610,1.);
#610 = DIRECTION('',(-0.,0.939692620786,-0.342020143326));
#611 = ADVANCED_FACE('',(#612),#637,.T.);
#612 = FACE_BOUND('',#613,.T.);
#613 = EDGE_LOOP('',(#614,#615,#623,#631));
#614 = ORIENTED_EDGE('',*,*,#591,.T.);
#615 = ORIENTED_EDGE('',*,*,#616,.T.);
#616 = EDGE_CURVE('',#584,#617,#619,.T.);
#617 = VERTEX_POINT('',#618);
#618 = CARTESIAN_POINT('',(15.578598726115,1.268505369477,5.239472499192
    ));
#619 = B_SPLINE_CURVE_WITH_KNOTS('',2,(#620,#621,#622),.UNSPECIFIED.,.F.
  ,.F.,(3,3),(0.,1.),.PIECEWISE_BEZIER_KNOTS.);
#620 = CARTESIAN_POINT('',(15.416730360934,1.457829131192,5.75963525947)
  );
#621 = CARTESIAN_POINT('',(15.578598726115,1.375802389387,5.53426863857)
  );
#622 = CARTESIAN_POINT('',(15.578598726115,1.268505369477,5.239472499192
    ));
#623 = ORIENTED_EDGE('',*,*,#624,.F.);
#624 = EDGE_CURVE('',#625,#617,#627,.T.);
#625 = VERTEX_POINT('',#626);
#626 = CARTESIAN_POINT('',(15.578598726115,2.020259466105,4.965856384531
    ));
#627 = LINE('',#628,#629);
#628 = CARTESIAN_POINT('',(15.578598726115,2.020259466105,4.965856384531
    ));
#629 = VECTOR('',#630,1.);
#630 = DIRECTION('',(0.,-0.939692620786,0.342020143326));
#631 = ORIENTED_EDGE('',*,*,#632,.F.);
#632 = EDGE_CURVE('',#592,#625,#633,.T.);
#633 = B_SPLINE_CURVE_WITH_KNOTS('',2,(#634,#635,#636),.UNSPECIFIED.,.F.
  ,.F.,(3,3),(0.,1.),.PIECEWISE_BEZIER_KNOTS.);
#634 = CARTESIAN_POINT('',(15.416730360934,2.20958322782,5.48601914481)
  );
#635 = CARTESIAN_POINT('',(15.578598726115,2.127556486016,5.26065252391)
  );
#636 = CARTESIAN_POINT('',(15.578598726115,2.020259466105,4.965856384531
    ));
#637 = SURFACE_OF_LINEAR_EXTRUSION('',#638,#642);
#638 = B_SPLINE_CURVE_WITH_KNOTS('',2,(#639,#640,#641),.UNSPECIFIED.,.F.
  ,.F.,(3,3),(0.,1.),.PIECEWISE_BEZIER_KNOTS.);
#639 = CARTESIAN_POINT('',(15.416730360934,2.20958322782,5.48601914481)
  );
#640 = CARTESIAN_POINT('',(15.578598726115,2.127556486016,5.26065252391)
  );
#641 = CARTESIAN_POINT('',(15.578598726115,2.020259466105,4.965856384531
    ));
#642 = VECTOR('',#643,1.);
#643 = DIRECTION('',(-0.,0.939692620786,-0.342020143326));
#644 = ADVANCED_FACE('',(#645),#670,.T.);
#645 = FACE_BOUND('',#646,.T.);
#646 = EDGE_LOOP('',(#647,#648,#656,#664));
#647 = ORIENTED_EDGE('',*,*,#624,.T.);
#648 = ORIENTED_EDGE('',*,*,#649,.T.);
#649 = EDGE_CURVE('',#617,#650,#652,.T.);
#650 = VERTEX_POINT('',#651);
#651 = CARTESIAN_POINT('',(15.248577494692,0.98054038426,4.448295204714)
  );
#652 = B_SPLINE_CURVE_WITH_KNOTS('',2,(#653,#654,#655),.UNSPECIFIED.,.F.
  ,.F.,(3,3),(0.,1.),.PIECEWISE_BEZIER_KNOTS.);
#653 = CARTESIAN_POINT('',(15.578598726115,1.268505369477,5.239472499192
    ));
#654 = CARTESIAN_POINT('',(15.578598726115,1.091381052364,4.752827437489
    ));
#655 = CARTESIAN_POINT('',(15.248577494692,0.98054038426,4.448295204714)
  );
#656 = ORIENTED_EDGE('',*,*,#657,.F.);
#657 = EDGE_CURVE('',#658,#650,#660,.T.);
#658 = VERTEX_POINT('',#659);
#659 = CARTESIAN_POINT('',(15.248577494692,1.732294480888,4.174679090054
    ));
#660 = LINE('',#661,#662);
#661 = CARTESIAN_POINT('',(15.248577494692,1.732294480888,4.174679090054
    ));
#662 = VECTOR('',#663,1.);
#663 = DIRECTION('',(0.,-0.939692620786,0.342020143326));
#664 = ORIENTED_EDGE('',*,*,#665,.F.);
#665 = EDGE_CURVE('',#625,#658,#666,.T.);
#666 = B_SPLINE_CURVE_WITH_KNOTS('',2,(#667,#668,#669),.UNSPECIFIED.,.F.
  ,.F.,(3,3),(0.,1.),.PIECEWISE_BEZIER_KNOTS.);
#667 = CARTESIAN_POINT('',(15.578598726115,2.020259466105,4.965856384531
    ));
#668 = CARTESIAN_POINT('',(15.578598726115,1.843135148993,4.479211322828
    ));
#669 = CARTESIAN_POINT('',(15.248577494692,1.732294480888,4.174679090054
    ));
#670 = SURFACE_OF_LINEAR_EXTRUSION('',#671,#675);
#671 = B_SPLINE_CURVE_WITH_KNOTS('',2,(#672,#673,#674),.UNSPECIFIED.,.F.
  ,.F.,(3,3),(0.,1.),.PIECEWISE_BEZIER_KNOTS.);
#672 = CARTESIAN_POINT('',(15.578598726115,2.020259466105,4.965856384531
    ));
#673 = CARTESIAN_POINT('',(15.578598726115,1.843135148993,4.479211322828
    ));
#674 = CARTESIAN_POINT('',(15.248577494692,1.732294480888,4.174679090054
    ));
#675 = VECTOR('',#676,1.);
#676 = DIRECTION('',(-0.,0.939692620786,-0.342020143326));
#677 = ADVANCED_FACE('',(#678),#703,.T.);
#678 = FACE_BOUND('',#679,.T.);
#679 = EDGE_LOOP('',(#680,#681,#689,#697));
#680 = ORIENTED_EDGE('',*,*,#657,.T.);
#681 = ORIENTED_EDGE('',*,*,#682,.T.);
#682 = EDGE_CURVE('',#650,#683,#685,.T.);
#683 = VERTEX_POINT('',#684);
#684 = CARTESIAN_POINT('',(14.370955414013,0.869757808748,4.143922580028
    ));
#685 = B_SPLINE_CURVE_WITH_KNOTS('',2,(#686,#687,#688),.UNSPECIFIED.,.F.
  ,.F.,(3,3),(0.,1.),.PIECEWISE_BEZIER_KNOTS.);
#686 = CARTESIAN_POINT('',(15.248577494692,0.98054038426,4.448295204714)
  );
#687 = CARTESIAN_POINT('',(14.91872611465,0.869757808748,4.143922580028)
  );
#688 = CARTESIAN_POINT('',(14.370955414013,0.869757808748,4.143922580028
    ));
#689 = ORIENTED_EDGE('',*,*,#690,.F.);
#690 = EDGE_CURVE('',#691,#683,#693,.T.);
#691 = VERTEX_POINT('',#692);
#692 = CARTESIAN_POINT('',(14.370955414013,1.621511905377,3.870306465368
    ));
#693 = LINE('',#694,#695);
#694 = CARTESIAN_POINT('',(14.370955414013,1.621511905377,3.870306465368
    ));
#695 = VECTOR('',#696,1.);
#696 = DIRECTION('',(0.,-0.939692620786,0.342020143326));
#697 = ORIENTED_EDGE('',*,*,#698,.F.);
#698 = EDGE_CURVE('',#658,#691,#699,.T.);
#699 = B_SPLINE_CURVE_WITH_KNOTS('',2,(#700,#701,#702),.UNSPECIFIED.,.F.
  ,.F.,(3,3),(0.,1.),.PIECEWISE_BEZIER_KNOTS.);
#700 = CARTESIAN_POINT('',(15.248577494692,1.732294480888,4.174679090054
    ));
#701 = CARTESIAN_POINT('',(14.91872611465,1.621511905377,3.870306465368)
  );
#702 = CARTESIAN_POINT('',(14.370955414013,1.621511905377,3.870306465368
    ));
#703 = SURFACE_OF_LINEAR_EXTRUSION('',#704,#708);
#704 = B_SPLINE_CURVE_WITH_KNOTS('',2,(#705,#706,#707),.UNSPECIFIED.,.F.
  ,.F.,(3,3),(0.,1.),.PIECEWISE_BEZIER_KNOTS.);
#705 = CARTESIAN_POINT('',(15.248577494692,1.732294480888,4.174679090054
    ));
#706 = CARTESIAN_POINT('',(14.91872611465,1.621511905377,3.870306465368)
  );
#707 = CARTESIAN_POINT('',(14.370955414013,1.621511905377,3.870306465368
    ));
#708 = VECTOR('',#709,1.);
#709 = DIRECTION('',(-0.,0.939692620786,-0.342020143326));
#710 = ADVANCED_FACE('',(#711),#736,.T.);
#711 = FACE_BOUND('',#712,.T.);
#712 = EDGE_LOOP('',(#713,#714,#722,#730));
#713 = ORIENTED_EDGE('',*,*,#690,.T.);
#714 = ORIENTED_EDGE('',*,*,#715,.T.);
#715 = EDGE_CURVE('',#683,#716,#718,.T.);
#716 = VERTEX_POINT('',#717);
#717 = CARTESIAN_POINT('',(13.522547770701,0.961369828455,4.395624535524
    ));
#718 = B_SPLINE_CURVE_WITH_KNOTS('',2,(#719,#720,#721),.UNSPECIFIED.,.F.
  ,.F.,(3,3),(0.,1.),.PIECEWISE_BEZIER_KNOTS.);
#719 = CARTESIAN_POINT('',(14.370955414013,0.869757808748,4.143922580028
    ));
#720 = CARTESIAN_POINT('',(13.861401273885,0.869757808748,4.143922580028
    ));
#721 = CARTESIAN_POINT('',(13.522547770701,0.961369828455,4.395624535524
    ));
#722 = ORIENTED_EDGE('',*,*,#723,.F.);
#723 = EDGE_CURVE('',#724,#716,#726,.T.);
#724 = VERTEX_POINT('',#725);
#725 = CARTESIAN_POINT('',(13.522547770701,1.713123925084,4.122008420863
    ));
#726 = LINE('',#727,#728);
#727 = CARTESIAN_POINT('',(13.522547770701,1.713123925084,4.122008420863
    ));
#728 = VECTOR('',#729,1.);
#729 = DIRECTION('',(0.,-0.939692620786,0.342020143326));
#730 = ORIENTED_EDGE('',*,*,#731,.F.);
#731 = EDGE_CURVE('',#691,#724,#732,.T.);
#732 = B_SPLINE_CURVE_WITH_KNOTS('',2,(#733,#734,#735),.UNSPECIFIED.,.F.
  ,.F.,(3,3),(0.,1.),.PIECEWISE_BEZIER_KNOTS.);
#733 = CARTESIAN_POINT('',(14.370955414013,1.621511905377,3.870306465368
    ));
#734 = CARTESIAN_POINT('',(13.861401273885,1.621511905377,3.870306465368
    ));
#735 = CARTESIAN_POINT('',(13.522547770701,1.713123925084,4.122008420863
    ));
#736 = SURFACE_OF_LINEAR_EXTRUSION('',#737,#741);
#737 = B_SPLINE_CURVE_WITH_KNOTS('',2,(#738,#739,#740),.UNSPECIFIED.,.F.
  ,.F.,(3,3),(0.,1.),.PIECEWISE_BEZIER_KNOTS.);
#738 = CARTESIAN_POINT('',(14.370955414013,1.621511905377,3.870306465368
    ));
#739 = CARTESIAN_POINT('',(13.861401273885,1.621511905377,3.870306465368
    ));
#740 = CARTESIAN_POINT('',(13.522547770701,1.713123925084,4.122008420863
    ));
#741 = VECTOR('',#742,1.);
#742 = DIRECTION('',(-0.,0.939692620786,-0.342020143326));
#743 = ADVANCED_FACE('',(#744),#769,.T.);
#744 = FACE_BOUND('',#745,.T.);
#745 = EDGE_LOOP('',(#746,#747,#755,#763));
#746 = ORIENTED_EDGE('',*,*,#723,.T.);
#747 = ORIENTED_EDGE('',*,*,#748,.T.);
#748 = EDGE_CURVE('',#716,#749,#751,.T.);
#749 = VERTEX_POINT('',#750);
#750 = CARTESIAN_POINT('',(13.122547770701,1.258048702674,5.210743043269
    ));
#751 = B_SPLINE_CURVE_WITH_KNOTS('',2,(#752,#753,#754),.UNSPECIFIED.,.F.
  ,.F.,(3,3),(0.,1.),.PIECEWISE_BEZIER_KNOTS.);
#752 = CARTESIAN_POINT('',(13.522547770701,0.961369828455,4.395624535524
    ));
#753 = CARTESIAN_POINT('',(13.122547770701,1.069538237266,4.692814796229
    ));
#754 = CARTESIAN_POINT('',(13.122547770701,1.258048702674,5.210743043269
    ));
#755 = ORIENTED_EDGE('',*,*,#756,.F.);
#756 = EDGE_CURVE('',#757,#749,#759,.T.);
#757 = VERTEX_POINT('',#758);
#758 = CARTESIAN_POINT('',(13.122547770701,2.009802799303,4.937126928609
    ));
#759 = LINE('',#760,#761);
#760 = CARTESIAN_POINT('',(13.122547770701,2.009802799303,4.937126928609
    ));
#761 = VECTOR('',#762,1.);
#762 = DIRECTION('',(0.,-0.939692620786,0.342020143326));
#763 = ORIENTED_EDGE('',*,*,#764,.F.);
#764 = EDGE_CURVE('',#724,#757,#765,.T.);
#765 = B_SPLINE_CURVE_WITH_KNOTS('',2,(#766,#767,#768),.UNSPECIFIED.,.F.
  ,.F.,(3,3),(0.,1.),.PIECEWISE_BEZIER_KNOTS.);
#766 = CARTESIAN_POINT('',(13.522547770701,1.713123925084,4.122008420863
    ));
#767 = CARTESIAN_POINT('',(13.122547770701,1.821292333895,4.419198681569
    ));
#768 = CARTESIAN_POINT('',(13.122547770701,2.009802799303,4.937126928609
    ));
#769 = SURFACE_OF_LINEAR_EXTRUSION('',#770,#774);
#770 = B_SPLINE_CURVE_WITH_KNOTS('',2,(#771,#772,#773),.UNSPECIFIED.,.F.
  ,.F.,(3,3),(0.,1.),.PIECEWISE_BEZIER_KNOTS.);
#771 = CARTESIAN_POINT('',(13.522547770701,1.713123925084,4.122008420863
    ));
#772 = CARTESIAN_POINT('',(13.122547770701,1.821292333895,4.419198681569
    ));
#773 = CARTESIAN_POINT('',(13.122547770701,2.009802799303,4.937126928609
    ));
#774 = VECTOR('',#775,1.);
#775 = DIRECTION('',(-0.,0.939692620786,-0.342020143326));
#776 = ADVANCED_FACE('',(#777),#802,.T.);
#777 = FACE_BOUND('',#778,.T.);
#778 = EDGE_LOOP('',(#779,#780,#788,#796));
#779 = ORIENTED_EDGE('',*,*,#756,.T.);
#780 = ORIENTED_EDGE('',*,*,#781,.T.);
#781 = EDGE_CURVE('',#749,#782,#784,.T.);
#782 = VERTEX_POINT('',#783);
#783 = CARTESIAN_POINT('',(13.272866242038,1.448650501443,5.734417181494
    ));
#784 = B_SPLINE_CURVE_WITH_KNOTS('',2,(#785,#786,#787),.UNSPECIFIED.,.F.
  ,.F.,(3,3),(0.,1.),.PIECEWISE_BEZIER_KNOTS.);
#785 = CARTESIAN_POINT('',(13.122547770701,1.258048702674,5.210743043269
    ));
#786 = CARTESIAN_POINT('',(13.122547770701,1.361860166984,5.495962697341
    ));
#787 = CARTESIAN_POINT('',(13.272866242038,1.448650501443,5.734417181494
    ));
#788 = ORIENTED_EDGE('',*,*,#789,.F.);
#789 = EDGE_CURVE('',#790,#782,#792,.T.);
#790 = VERTEX_POINT('',#791);
#791 = CARTESIAN_POINT('',(13.272866242038,2.200404598072,5.460801066834
    ));
#792 = LINE('',#793,#794);
#793 = CARTESIAN_POINT('',(13.272866242038,2.200404598072,5.460801066834
    ));
#794 = VECTOR('',#795,1.);
#795 = DIRECTION('',(0.,-0.939692620786,0.342020143326));
#796 = ORIENTED_EDGE('',*,*,#797,.F.);
#797 = EDGE_CURVE('',#757,#790,#798,.T.);
#798 = B_SPLINE_CURVE_WITH_KNOTS('',2,(#799,#800,#801),.UNSPECIFIED.,.F.
  ,.F.,(3,3),(0.,1.),.PIECEWISE_BEZIER_KNOTS.);
#799 = CARTESIAN_POINT('',(13.122547770701,2.009802799303,4.937126928609
    ));
#800 = CARTESIAN_POINT('',(13.122547770701,2.113614263613,5.22234658268)
  );
#801 = CARTESIAN_POINT('',(13.272866242038,2.200404598072,5.460801066834
    ));
#802 = SURFACE_OF_LINEAR_EXTRUSION('',#803,#807);
#803 = B_SPLINE_CURVE_WITH_KNOTS('',2,(#804,#805,#806),.UNSPECIFIED.,.F.
  ,.F.,(3,3),(0.,1.),.PIECEWISE_BEZIER_KNOTS.);
#804 = CARTESIAN_POINT('',(13.122547770701,2.009802799303,4.937126928609
    ));
#805 = CARTESIAN_POINT('',(13.122547770701,2.113614263613,5.22234658268)
  );
#806 = CARTESIAN_POINT('',(13.272866242038,2.200404598072,5.460801066834
    ));
#807 = VECTOR('',#808,1.);
#808 = DIRECTION('',(-0.,0.939692620786,-0.342020143326));
#809 = ADVANCED_FACE('',(#810),#826,.T.);
#810 = FACE_BOUND('',#811,.T.);
#811 = EDGE_LOOP('',(#812,#813,#819,#820));
#812 = ORIENTED_EDGE('',*,*,#789,.T.);
#813 = ORIENTED_EDGE('',*,*,#814,.T.);
#814 = EDGE_CURVE('',#782,#312,#815,.T.);
#815 = B_SPLINE_CURVE_WITH_KNOTS('',2,(#816,#817,#818),.UNSPECIFIED.,.F.
  ,.F.,(3,3),(0.,1.),.PIECEWISE_BEZIER_KNOTS.);
#816 = CARTESIAN_POINT('',(13.272866242038,1.448650501443,5.734417181494
    ));
#817 = CARTESIAN_POINT('',(13.423184713376,1.535498928496,5.973031273736
    ));
#818 = CARTESIAN_POINT('',(13.746751592357,1.582612021699,6.102473433474
    ));
#819 = ORIENTED_EDGE('',*,*,#309,.F.);
#820 = ORIENTED_EDGE('',*,*,#821,.F.);
#821 = EDGE_CURVE('',#790,#310,#822,.T.);
#822 = B_SPLINE_CURVE_WITH_KNOTS('',2,(#823,#824,#825),.UNSPECIFIED.,.F.
  ,.F.,(3,3),(0.,1.),.PIECEWISE_BEZIER_KNOTS.);
#823 = CARTESIAN_POINT('',(13.272866242038,2.200404598072,5.460801066834
    ));
#824 = CARTESIAN_POINT('',(13.423184713376,2.287253025124,5.699415159076
    ));
#825 = CARTESIAN_POINT('',(13.746751592357,2.334366118328,5.828857318814
    ));
#826 = SURFACE_OF_LINEAR_EXTRUSION('',#827,#831);
#827 = B_SPLINE_CURVE_WITH_KNOTS('',2,(#828,#829,#830),.UNSPECIFIED.,.F.
  ,.F.,(3,3),(0.,1.),.PIECEWISE_BEZIER_KNOTS.);
#828 = CARTESIAN_POINT('',(13.272866242038,2.200404598072,5.460801066834
    ));
#829 = CARTESIAN_POINT('',(13.423184713376,2.287253025124,5.699415159076
    ));
#830 = CARTESIAN_POINT('',(13.746751592357,2.334366118328,5.828857318814
    ));
#831 = VECTOR('',#832,1.);
#832 = DIRECTION('',(-0.,0.939692620786,-0.342020143326));
#833 = ADVANCED_FACE('',(#834),#852,.F.);
#834 = FACE_BOUND('',#835,.T.);
#835 = EDGE_LOOP('',(#836,#837,#838,#839,#840,#841,#842,#843,#844,#845,
    #846,#847,#848,#849,#850,#851));
#836 = ORIENTED_EDGE('',*,*,#335,.T.);
#837 = ORIENTED_EDGE('',*,*,#368,.T.);
#838 = ORIENTED_EDGE('',*,*,#401,.T.);
#839 = ORIENTED_EDGE('',*,*,#434,.T.);
#840 = ORIENTED_EDGE('',*,*,#467,.T.);
#841 = ORIENTED_EDGE('',*,*,#500,.T.);
#842 = ORIENTED_EDGE('',*,*,#533,.T.);
#843 = ORIENTED_EDGE('',*,*,#566,.T.);
#844 = ORIENTED_EDGE('',*,*,#599,.T.);
#845 = ORIENTED_EDGE('',*,*,#632,.T.);
#846 = ORIENTED_EDGE('',*,*,#665,.T.);
#847 = ORIENTED_EDGE('',*,*,#698,.T.);
#848 = ORIENTED_EDGE('',*,*,#731,.T.);
#849 = ORIENTED_EDGE('',*,*,#764,.T.);
#850 = ORIENTED_EDGE('',*,*,#797,.T.);
#851 = ORIENTED_EDGE('',*,*,#821,.T.);
#852 = PLANE('',#853);
#853 = AXIS2_PLACEMENT_3D('',#854,#855,#856);
#854 = CARTESIAN_POINT('',(14.34523000764,2.276664805122,5.670324263707)
  );
#855 = DIRECTION('',(0.,-0.939692620786,0.342020143326));
#856 = DIRECTION('',(1.,0.,0.));
#857 = ADVANCED_FACE('',(#858),#876,.T.);
#858 = FACE_BOUND('',#859,.F.);
#859 = EDGE_LOOP('',(#860,#861,#862,#863,#864,#865,#866,#867,#868,#869,
    #870,#871,#872,#873,#874,#875));
#860 = ORIENTED_EDGE('',*,*,#319,.T.);
#861 = ORIENTED_EDGE('',*,*,#352,.T.);
#862 = ORIENTED_EDGE('',*,*,#385,.T.);
#863 = ORIENTED_EDGE('',*,*,#418,.T.);
#864 = ORIENTED_EDGE('',*,*,#451,.T.);
#865 = ORIENTED_EDGE('',*,*,#484,.T.);
#866 = ORIENTED_EDGE('',*,*,#517,.T.);
#867 = ORIENTED_EDGE('',*,*,#550,.T.);
#868 = ORIENTED_EDGE('',*,*,#583,.T.);
#869 = ORIENTED_EDGE('',*,*,#616,.T.);
#870 = ORIENTED_EDGE('',*,*,#649,.T.);
#871 = ORIENTED_EDGE('',*,*,#682,.T.);
#872 = ORIENTED_EDGE('',*,*,#715,.T.);
#873 = ORIENTED_EDGE('',*,*,#748,.T.);
#874 = ORIENTED_EDGE('',*,*,#781,.T.);
#875 = ORIENTED_EDGE('',*,*,#814,.T.);
#876 = PLANE('',#877);
#877 = AXIS2_PLACEMENT_3D('',#878,#879,#880);
#878 = CARTESIAN_POINT('',(14.34523000764,1.524910708493,5.943940378368)
  );
#879 = DIRECTION('',(0.,-0.939692620786,0.342020143326));
#880 = DIRECTION('',(1.,0.,0.));
#881 = MANIFOLD_SOLID_BREP('',#882);
#882 = CLOSED_SHELL('',(#883,#925,#958,#991,#1024,#1057,#1090,#1123,
    #1147,#1163));
#883 = ADVANCED_FACE('',(#884),#918,.F.);
#884 = FACE_BOUND('',#885,.F.);
#885 = EDGE_LOOP('',(#886,#896,#904,#912));
#886 = ORIENTED_EDGE('',*,*,#887,.T.);
#887 = EDGE_CURVE('',#888,#890,#892,.T.);
#888 = VERTEX_POINT('',#889);
#889 = CARTESIAN_POINT('',(13.894522292994,2.582072936356,6.509426207991
    ));
#890 = VERTEX_POINT('',#891);
#891 = CARTESIAN_POINT('',(13.894522292994,1.830318839728,6.783042322652
    ));
#892 = LINE('',#893,#894);
#893 = CARTESIAN_POINT('',(13.894522292994,2.582072936356,6.509426207991
    ));
#894 = VECTOR('',#895,1.);
#895 = DIRECTION('',(0.,-0.939692620786,0.342020143326));
#896 = ORIENTED_EDGE('',*,*,#897,.T.);
#897 = EDGE_CURVE('',#890,#898,#900,.T.);
#898 = VERTEX_POINT('',#899);
#899 = CARTESIAN_POINT('',(14.015456475584,1.714424116002,6.464624186181
    ));
#900 = B_SPLINE_CURVE_WITH_KNOTS('',2,(#901,#902,#903),.UNSPECIFIED.,.F.
  ,.F.,(3,3),(0.,1.),.PIECEWISE_BEZIER_KNOTS.);
#901 = CARTESIAN_POINT('',(13.894522292994,1.830318839728,6.783042322652
    ));
#902 = CARTESIAN_POINT('',(13.894522292994,1.756018412838,6.578903577516
    ));
#903 = CARTESIAN_POINT('',(14.015456475584,1.714424116002,6.464624186181
    ));
#904 = ORIENTED_EDGE('',*,*,#905,.F.);
#905 = EDGE_CURVE('',#906,#898,#908,.T.);
#906 = VERTEX_POINT('',#907);
#907 = CARTESIAN_POINT('',(14.015456475584,2.466178212631,6.191008071521
    ));
#908 = LINE('',#909,#910);
#909 = CARTESIAN_POINT('',(14.015456475584,2.466178212631,6.191008071521
    ));
#910 = VECTOR('',#911,1.);
#911 = DIRECTION('',(0.,-0.939692620786,0.342020143326));
#912 = ORIENTED_EDGE('',*,*,#913,.F.);
#913 = EDGE_CURVE('',#888,#906,#914,.T.);
#914 = B_SPLINE_CURVE_WITH_KNOTS('',2,(#915,#916,#917),.UNSPECIFIED.,.F.
  ,.F.,(3,3),(0.,1.),.PIECEWISE_BEZIER_KNOTS.);
#915 = CARTESIAN_POINT('',(13.894522292994,2.582072936356,6.509426207991
    ));
#916 = CARTESIAN_POINT('',(13.894522292994,2.507772509466,6.305287462856
    ));
#917 = CARTESIAN_POINT('',(14.015456475584,2.466178212631,6.191008071521
    ));
#918 = SURFACE_OF_LINEAR_EXTRUSION('',#919,#923);
#919 = B_SPLINE_CURVE_WITH_KNOTS('',2,(#920,#921,#922),.UNSPECIFIED.,.F.
  ,.F.,(3,3),(0.,1.),.PIECEWISE_BEZIER_KNOTS.);
#920 = CARTESIAN_POINT('',(13.894522292994,2.582072936356,6.509426207991
    ));
#921 = CARTESIAN_POINT('',(13.894522292994,2.507772509466,6.305287462856
    ));
#922 = CARTESIAN_POINT('',(14.015456475584,2.466178212631,6.191008071521
    ));
#923 = VECTOR('',#924,1.);
#924 = DIRECTION('',(-0.,0.939692620786,-0.342020143326));
#925 = ADVANCED_FACE('',(#926),#951,.F.);
#926 = FACE_BOUND('',#927,.F.);
#927 = EDGE_LOOP('',(#928,#929,#937,#945));
#928 = ORIENTED_EDGE('',*,*,#905,.T.);
#929 = ORIENTED_EDGE('',*,*,#930,.T.);
#930 = EDGE_CURVE('',#898,#931,#933,.T.);
#931 = VERTEX_POINT('',#932);
#932 = CARTESIAN_POINT('',(14.337834394904,1.672829819166,6.350344794847
    ));
#933 = B_SPLINE_CURVE_WITH_KNOTS('',2,(#934,#935,#936),.UNSPECIFIED.,.F.
  ,.F.,(3,3),(0.,1.),.PIECEWISE_BEZIER_KNOTS.);
#934 = CARTESIAN_POINT('',(14.015456475584,1.714424116002,6.464624186181
    ));
#935 = CARTESIAN_POINT('',(14.136560509554,1.672829819166,6.350344794847
    ));
#936 = CARTESIAN_POINT('',(14.337834394904,1.672829819166,6.350344794847
    ));
#937 = ORIENTED_EDGE('',*,*,#938,.F.);
#938 = EDGE_CURVE('',#939,#931,#941,.T.);
#939 = VERTEX_POINT('',#940);
#940 = CARTESIAN_POINT('',(14.337834394904,2.424583915795,6.076728680186
    ));
#941 = LINE('',#942,#943);
#942 = CARTESIAN_POINT('',(14.337834394904,2.424583915795,6.076728680186
    ));
#943 = VECTOR('',#944,1.);
#944 = DIRECTION('',(0.,-0.939692620786,0.342020143326));
#945 = ORIENTED_EDGE('',*,*,#946,.F.);
#946 = EDGE_CURVE('',#906,#939,#947,.T.);
#947 = B_SPLINE_CURVE_WITH_KNOTS('',2,(#948,#949,#950),.UNSPECIFIED.,.F.
  ,.F.,(3,3),(0.,1.),.PIECEWISE_BEZIER_KNOTS.);
#948 = CARTESIAN_POINT('',(14.015456475584,2.466178212631,6.191008071521
    ));
#949 = CARTESIAN_POINT('',(14.136560509554,2.424583915795,6.076728680186
    ));
#950 = CARTESIAN_POINT('',(14.337834394904,2.424583915795,6.076728680186
    ));
#951 = SURFACE_OF_LINEAR_EXTRUSION('',#952,#956);
#952 = B_SPLINE_CURVE_WITH_KNOTS('',2,(#953,#954,#955),.UNSPECIFIED.,.F.
  ,.F.,(3,3),(0.,1.),.PIECEWISE_BEZIER_KNOTS.);
#953 = CARTESIAN_POINT('',(14.015456475584,2.466178212631,6.191008071521
    ));
#954 = CARTESIAN_POINT('',(14.136560509554,2.424583915795,6.076728680186
    ));
#955 = CARTESIAN_POINT('',(14.337834394904,2.424583915795,6.076728680186
    ));
#956 = VECTOR('',#957,1.);
#957 = DIRECTION('',(-0.,0.939692620786,-0.342020143326));
#958 = ADVANCED_FACE('',(#959),#984,.F.);
#959 = FACE_BOUND('',#960,.F.);
#960 = EDGE_LOOP('',(#961,#962,#970,#978));
#961 = ORIENTED_EDGE('',*,*,#938,.T.);
#962 = ORIENTED_EDGE('',*,*,#963,.T.);
#963 = EDGE_CURVE('',#931,#964,#966,.T.);
#964 = VERTEX_POINT('',#965);
#965 = CARTESIAN_POINT('',(14.663949044586,1.714830764155,6.465741442801
    ));
#966 = B_SPLINE_CURVE_WITH_KNOTS('',2,(#967,#968,#969),.UNSPECIFIED.,.F.
  ,.F.,(3,3),(0.,1.),.PIECEWISE_BEZIER_KNOTS.);
#967 = CARTESIAN_POINT('',(14.337834394904,1.672829819166,6.350344794847
    ));
#968 = CARTESIAN_POINT('',(14.541656050955,1.672829819166,6.350344794847
    ));
#969 = CARTESIAN_POINT('',(14.663949044586,1.714830764155,6.465741442801
    ));
#970 = ORIENTED_EDGE('',*,*,#971,.F.);
#971 = EDGE_CURVE('',#972,#964,#974,.T.);
#972 = VERTEX_POINT('',#973);
#973 = CARTESIAN_POINT('',(14.663949044586,2.466584860784,6.19212532814)
  );
#974 = LINE('',#975,#976);
#975 = CARTESIAN_POINT('',(14.663949044586,2.466584860784,6.19212532814)
  );
#976 = VECTOR('',#977,1.);
#977 = DIRECTION('',(0.,-0.939692620786,0.342020143326));
#978 = ORIENTED_EDGE('',*,*,#979,.F.);
#979 = EDGE_CURVE('',#939,#972,#980,.T.);
#980 = B_SPLINE_CURVE_WITH_KNOTS('',2,(#981,#982,#983),.UNSPECIFIED.,.F.
  ,.F.,(3,3),(0.,1.),.PIECEWISE_BEZIER_KNOTS.);
#981 = CARTESIAN_POINT('',(14.337834394904,2.424583915795,6.076728680186
    ));
#982 = CARTESIAN_POINT('',(14.541656050955,2.424583915795,6.076728680186
    ));
#983 = CARTESIAN_POINT('',(14.663949044586,2.466584860784,6.19212532814)
  );
#984 = SURFACE_OF_LINEAR_EXTRUSION('',#985,#989);
#985 = B_SPLINE_CURVE_WITH_KNOTS('',2,(#986,#987,#988),.UNSPECIFIED.,.F.
  ,.F.,(3,3),(0.,1.),.PIECEWISE_BEZIER_KNOTS.);
#986 = CARTESIAN_POINT('',(14.337834394904,2.424583915795,6.076728680186
    ));
#987 = CARTESIAN_POINT('',(14.541656050955,2.424583915795,6.076728680186
    ));
#988 = CARTESIAN_POINT('',(14.663949044586,2.466584860784,6.19212532814)
  );
#989 = VECTOR('',#990,1.);
#990 = DIRECTION('',(-0.,0.939692620786,-0.342020143326));
#991 = ADVANCED_FACE('',(#992),#1017,.F.);
#992 = FACE_BOUND('',#993,.F.);
#993 = EDGE_LOOP('',(#994,#995,#1003,#1011));
#994 = ORIENTED_EDGE('',*,*,#971,.T.);
#995 = ORIENTED_EDGE('',*,*,#996,.T.);
#996 = EDGE_CURVE('',#964,#997,#999,.T.);
#997 = VERTEX_POINT('',#998);
#998 = CARTESIAN_POINT('',(14.786242038217,1.831190228628,6.785436443978
    ));
#999 = B_SPLINE_CURVE_WITH_KNOTS('',2,(#1000,#1001,#1002),
  .UNSPECIFIED.,.F.,.F.,(3,3),(0.,1.),.PIECEWISE_BEZIER_KNOTS.);
#1000 = CARTESIAN_POINT('',(14.663949044586,1.714830764155,
    6.465741442801));
#1001 = CARTESIAN_POINT('',(14.786242038217,1.756889801738,
    6.581297698843));
#1002 = CARTESIAN_POINT('',(14.786242038217,1.831190228628,
    6.785436443978));
#1003 = ORIENTED_EDGE('',*,*,#1004,.F.);
#1004 = EDGE_CURVE('',#1005,#997,#1007,.T.);
#1005 = VERTEX_POINT('',#1006);
#1006 = CARTESIAN_POINT('',(14.786242038217,2.582944325256,
    6.511820329318));
#1007 = LINE('',#1008,#1009);
#1008 = CARTESIAN_POINT('',(14.786242038217,2.582944325256,
    6.511820329318));
#1009 = VECTOR('',#1010,1.);
#1010 = DIRECTION('',(0.,-0.939692620786,0.342020143326));
#1011 = ORIENTED_EDGE('',*,*,#1012,.F.);
#1012 = EDGE_CURVE('',#972,#1005,#1013,.T.);
#1013 = B_SPLINE_CURVE_WITH_KNOTS('',2,(#1014,#1015,#1016),
  .UNSPECIFIED.,.F.,.F.,(3,3),(0.,1.),.PIECEWISE_BEZIER_KNOTS.);
#1014 = CARTESIAN_POINT('',(14.663949044586,2.466584860784,6.19212532814
    ));
#1015 = CARTESIAN_POINT('',(14.786242038217,2.508643898367,
    6.307681584182));
#1016 = CARTESIAN_POINT('',(14.786242038217,2.582944325256,
    6.511820329318));
#1017 = SURFACE_OF_LINEAR_EXTRUSION('',#1018,#1022);
#1018 = B_SPLINE_CURVE_WITH_KNOTS('',2,(#1019,#1020,#1021),
  .UNSPECIFIED.,.F.,.F.,(3,3),(0.,1.),.PIECEWISE_BEZIER_KNOTS.);
#1019 = CARTESIAN_POINT('',(14.663949044586,2.466584860784,6.19212532814
    ));
#1020 = CARTESIAN_POINT('',(14.786242038217,2.508643898367,
    6.307681584182));
#1021 = CARTESIAN_POINT('',(14.786242038217,2.582944325256,
    6.511820329318));
#1022 = VECTOR('',#1023,1.);
#1023 = DIRECTION('',(-0.,0.939692620786,-0.342020143326));
#1024 = ADVANCED_FACE('',(#1025),#1050,.F.);
#1025 = FACE_BOUND('',#1026,.F.);
#1026 = EDGE_LOOP('',(#1027,#1028,#1036,#1044));
#1027 = ORIENTED_EDGE('',*,*,#1004,.T.);
#1028 = ORIENTED_EDGE('',*,*,#1029,.T.);
#1029 = EDGE_CURVE('',#997,#1030,#1032,.T.);
#1030 = VERTEX_POINT('',#1031);
#1031 = CARTESIAN_POINT('',(14.665138004246,1.943076563412,
    7.092841622345));
#1032 = B_SPLINE_CURVE_WITH_KNOTS('',2,(#1033,#1034,#1035),
  .UNSPECIFIED.,.F.,.F.,(3,3),(0.,1.),.PIECEWISE_BEZIER_KNOTS.);
#1033 = CARTESIAN_POINT('',(14.786242038217,1.831190228628,
    6.785436443978));
#1034 = CARTESIAN_POINT('',(14.786242038217,1.901075618423,
    6.977444974391));
#1035 = CARTESIAN_POINT('',(14.665138004246,1.943076563412,
    7.092841622345));
#1036 = ORIENTED_EDGE('',*,*,#1037,.F.);
#1037 = EDGE_CURVE('',#1038,#1030,#1040,.T.);
#1038 = VERTEX_POINT('',#1039);
#1039 = CARTESIAN_POINT('',(14.665138004246,2.694830660041,
    6.819225507685));
#1040 = LINE('',#1041,#1042);
#1041 = CARTESIAN_POINT('',(14.665138004246,2.694830660041,
    6.819225507685));
#1042 = VECTOR('',#1043,1.);
#1043 = DIRECTION('',(0.,-0.939692620786,0.342020143326));
#1044 = ORIENTED_EDGE('',*,*,#1045,.F.);
#1045 = EDGE_CURVE('',#1005,#1038,#1046,.T.);
#1046 = B_SPLINE_CURVE_WITH_KNOTS('',2,(#1047,#1048,#1049),
  .UNSPECIFIED.,.F.,.F.,(3,3),(0.,1.),.PIECEWISE_BEZIER_KNOTS.);
#1047 = CARTESIAN_POINT('',(14.786242038217,2.582944325256,
    6.511820329318));
#1048 = CARTESIAN_POINT('',(14.786242038217,2.652829715052,
    6.703828859731));
#1049 = CARTESIAN_POINT('',(14.665138004246,2.694830660041,
    6.819225507685));
#1050 = SURFACE_OF_LINEAR_EXTRUSION('',#1051,#1055);
#1051 = B_SPLINE_CURVE_WITH_KNOTS('',2,(#1052,#1053,#1054),
  .UNSPECIFIED.,.F.,.F.,(3,3),(0.,1.),.PIECEWISE_BEZIER_KNOTS.);
#1052 = CARTESIAN_POINT('',(14.786242038217,2.582944325256,
    6.511820329318));
#1053 = CARTESIAN_POINT('',(14.786242038217,2.652829715052,
    6.703828859731));
#1054 = CARTESIAN_POINT('',(14.665138004246,2.694830660041,
    6.819225507685));
#1055 = VECTOR('',#1056,1.);
#1056 = DIRECTION('',(-0.,0.939692620786,-0.342020143326));
#1057 = ADVANCED_FACE('',(#1058),#1083,.F.);
#1058 = FACE_BOUND('',#1059,.F.);
#1059 = EDGE_LOOP('',(#1060,#1061,#1069,#1077));
#1060 = ORIENTED_EDGE('',*,*,#1037,.T.);
#1061 = ORIENTED_EDGE('',*,*,#1062,.T.);
#1062 = EDGE_CURVE('',#1030,#1063,#1065,.T.);
#1063 = VERTEX_POINT('',#1064);
#1064 = CARTESIAN_POINT('',(14.345477707006,1.985135600995,
    7.208397878387));
#1065 = B_SPLINE_CURVE_WITH_KNOTS('',2,(#1066,#1067,#1068),
  .UNSPECIFIED.,.F.,.F.,(3,3),(0.,1.),.PIECEWISE_BEZIER_KNOTS.);
#1066 = CARTESIAN_POINT('',(14.665138004246,1.943076563412,
    7.092841622345));
#1067 = CARTESIAN_POINT('',(14.544203821656,1.985135600995,
    7.208397878387));
#1068 = CARTESIAN_POINT('',(14.345477707006,1.985135600995,
    7.208397878387));
#1069 = ORIENTED_EDGE('',*,*,#1070,.F.);
#1070 = EDGE_CURVE('',#1071,#1063,#1073,.T.);
#1071 = VERTEX_POINT('',#1072);
#1072 = CARTESIAN_POINT('',(14.345477707006,2.736889697624,
    6.934781763727));
#1073 = LINE('',#1074,#1075);
#1074 = CARTESIAN_POINT('',(14.345477707006,2.736889697624,
    6.934781763727));
#1075 = VECTOR('',#1076,1.);
#1076 = DIRECTION('',(0.,-0.939692620786,0.342020143326));
#1077 = ORIENTED_EDGE('',*,*,#1078,.F.);
#1078 = EDGE_CURVE('',#1038,#1071,#1079,.T.);
#1079 = B_SPLINE_CURVE_WITH_KNOTS('',2,(#1080,#1081,#1082),
  .UNSPECIFIED.,.F.,.F.,(3,3),(0.,1.),.PIECEWISE_BEZIER_KNOTS.);
#1080 = CARTESIAN_POINT('',(14.665138004246,2.694830660041,
    6.819225507685));
#1081 = CARTESIAN_POINT('',(14.544203821656,2.736889697624,
    6.934781763727));
#1082 = CARTESIAN_POINT('',(14.345477707006,2.736889697624,
    6.934781763727));
#1083 = SURFACE_OF_LINEAR_EXTRUSION('',#1084,#1088);
#1084 = B_SPLINE_CURVE_WITH_KNOTS('',2,(#1085,#1086,#1087),
  .UNSPECIFIED.,.F.,.F.,(3,3),(0.,1.),.PIECEWISE_BEZIER_KNOTS.);
#1085 = CARTESIAN_POINT('',(14.665138004246,2.694830660041,
    6.819225507685));
#1086 = CARTESIAN_POINT('',(14.544203821656,2.736889697624,
    6.934781763727));
#1087 = CARTESIAN_POINT('',(14.345477707006,2.736889697624,
    6.934781763727));
#1088 = VECTOR('',#1089,1.);
#1089 = DIRECTION('',(-0.,0.939692620786,-0.342020143326));
#1090 = ADVANCED_FACE('',(#1091),#1116,.F.);
#1091 = FACE_BOUND('',#1092,.F.);
#1092 = EDGE_LOOP('',(#1093,#1094,#1102,#1110));
#1093 = ORIENTED_EDGE('',*,*,#1070,.T.);
#1094 = ORIENTED_EDGE('',*,*,#1095,.T.);
#1095 = EDGE_CURVE('',#1063,#1096,#1098,.T.);
#1096 = VERTEX_POINT('',#1097);
#1097 = CARTESIAN_POINT('',(14.016815286624,1.942669915259,
    7.091724365726));
#1098 = B_SPLINE_CURVE_WITH_KNOTS('',2,(#1099,#1100,#1101),
  .UNSPECIFIED.,.F.,.F.,(3,3),(0.,1.),.PIECEWISE_BEZIER_KNOTS.);
#1099 = CARTESIAN_POINT('',(14.345477707006,1.985135600995,
    7.208397878387));
#1100 = CARTESIAN_POINT('',(14.139108280255,1.985135600995,
    7.208397878387));
#1101 = CARTESIAN_POINT('',(14.016815286624,1.942669915259,
    7.091724365726));
#1102 = ORIENTED_EDGE('',*,*,#1103,.F.);
#1103 = EDGE_CURVE('',#1104,#1096,#1106,.T.);
#1104 = VERTEX_POINT('',#1105);
#1105 = CARTESIAN_POINT('',(14.016815286624,2.694424011888,
    6.818108251065));
#1106 = LINE('',#1107,#1108);
#1107 = CARTESIAN_POINT('',(14.016815286624,2.694424011888,
    6.818108251065));
#1108 = VECTOR('',#1109,1.);
#1109 = DIRECTION('',(0.,-0.939692620786,0.342020143326));
#1110 = ORIENTED_EDGE('',*,*,#1111,.F.);
#1111 = EDGE_CURVE('',#1071,#1104,#1112,.T.);
#1112 = B_SPLINE_CURVE_WITH_KNOTS('',2,(#1113,#1114,#1115),
  .UNSPECIFIED.,.F.,.F.,(3,3),(0.,1.),.PIECEWISE_BEZIER_KNOTS.);
#1113 = CARTESIAN_POINT('',(14.345477707006,2.736889697624,
    6.934781763727));
#1114 = CARTESIAN_POINT('',(14.139108280255,2.736889697624,
    6.934781763727));
#1115 = CARTESIAN_POINT('',(14.016815286624,2.694424011888,
    6.818108251065));
#1116 = SURFACE_OF_LINEAR_EXTRUSION('',#1117,#1121);
#1117 = B_SPLINE_CURVE_WITH_KNOTS('',2,(#1118,#1119,#1120),
  .UNSPECIFIED.,.F.,.F.,(3,3),(0.,1.),.PIECEWISE_BEZIER_KNOTS.);
#1118 = CARTESIAN_POINT('',(14.345477707006,2.736889697624,
    6.934781763727));
#1119 = CARTESIAN_POINT('',(14.139108280255,2.736889697624,
    6.934781763727));
#1120 = CARTESIAN_POINT('',(14.016815286624,2.694424011888,
    6.818108251065));
#1121 = VECTOR('',#1122,1.);
#1122 = DIRECTION('',(-0.,0.939692620786,-0.342020143326));
#1123 = ADVANCED_FACE('',(#1124),#1140,.F.);
#1124 = FACE_BOUND('',#1125,.F.);
#1125 = EDGE_LOOP('',(#1126,#1127,#1133,#1134));
#1126 = ORIENTED_EDGE('',*,*,#1103,.T.);
#1127 = ORIENTED_EDGE('',*,*,#1128,.T.);
#1128 = EDGE_CURVE('',#1096,#890,#1129,.T.);
#1129 = B_SPLINE_CURVE_WITH_KNOTS('',2,(#1130,#1131,#1132),
  .UNSPECIFIED.,.F.,.F.,(3,3),(0.,1.),.PIECEWISE_BEZIER_KNOTS.);
#1130 = CARTESIAN_POINT('',(14.016815286624,1.942669915259,
    7.091724365726));
#1131 = CARTESIAN_POINT('',(13.894522292994,1.900204229523,
    6.975050853064));
#1132 = CARTESIAN_POINT('',(13.894522292994,1.830318839728,
    6.783042322652));
#1133 = ORIENTED_EDGE('',*,*,#887,.F.);
#1134 = ORIENTED_EDGE('',*,*,#1135,.F.);
#1135 = EDGE_CURVE('',#1104,#888,#1136,.T.);
#1136 = B_SPLINE_CURVE_WITH_KNOTS('',2,(#1137,#1138,#1139),
  .UNSPECIFIED.,.F.,.F.,(3,3),(0.,1.),.PIECEWISE_BEZIER_KNOTS.);
#1137 = CARTESIAN_POINT('',(14.016815286624,2.694424011888,
    6.818108251065));
#1138 = CARTESIAN_POINT('',(13.894522292994,2.651958326152,
    6.701434738404));
#1139 = CARTESIAN_POINT('',(13.894522292994,2.582072936356,
    6.509426207991));
#1140 = SURFACE_OF_LINEAR_EXTRUSION('',#1141,#1145);
#1141 = B_SPLINE_CURVE_WITH_KNOTS('',2,(#1142,#1143,#1144),
  .UNSPECIFIED.,.F.,.F.,(3,3),(0.,1.),.PIECEWISE_BEZIER_KNOTS.);
#1142 = CARTESIAN_POINT('',(14.016815286624,2.694424011888,
    6.818108251065));
#1143 = CARTESIAN_POINT('',(13.894522292994,2.651958326152,
    6.701434738404));
#1144 = CARTESIAN_POINT('',(13.894522292994,2.582072936356,
    6.509426207991));
#1145 = VECTOR('',#1146,1.);
#1146 = DIRECTION('',(-0.,0.939692620786,-0.342020143326));
#1147 = ADVANCED_FACE('',(#1148),#1158,.T.);
#1148 = FACE_BOUND('',#1149,.F.);
#1149 = EDGE_LOOP('',(#1150,#1151,#1152,#1153,#1154,#1155,#1156,#1157));
#1150 = ORIENTED_EDGE('',*,*,#913,.T.);
#1151 = ORIENTED_EDGE('',*,*,#946,.T.);
#1152 = ORIENTED_EDGE('',*,*,#979,.T.);
#1153 = ORIENTED_EDGE('',*,*,#1012,.T.);
#1154 = ORIENTED_EDGE('',*,*,#1045,.T.);
#1155 = ORIENTED_EDGE('',*,*,#1078,.T.);
#1156 = ORIENTED_EDGE('',*,*,#1111,.T.);
#1157 = ORIENTED_EDGE('',*,*,#1135,.T.);
#1158 = PLANE('',#1159);
#1159 = AXIS2_PLACEMENT_3D('',#1160,#1161,#1162);
#1160 = CARTESIAN_POINT('',(14.340393751081,2.580665410785,
    6.505559063268));
#1161 = DIRECTION('',(-0.,0.939692620786,-0.342020143326));
#1162 = DIRECTION('',(-1.,0.,0.));
#1163 = ADVANCED_FACE('',(#1164),#1174,.F.);
#1164 = FACE_BOUND('',#1165,.T.);
#1165 = EDGE_LOOP('',(#1166,#1167,#1168,#1169,#1170,#1171,#1172,#1173));
#1166 = ORIENTED_EDGE('',*,*,#897,.T.);
#1167 = ORIENTED_EDGE('',*,*,#930,.T.);
#1168 = ORIENTED_EDGE('',*,*,#963,.T.);
#1169 = ORIENTED_EDGE('',*,*,#996,.T.);
#1170 = ORIENTED_EDGE('',*,*,#1029,.T.);
#1171 = ORIENTED_EDGE('',*,*,#1062,.T.);
#1172 = ORIENTED_EDGE('',*,*,#1095,.T.);
#1173 = ORIENTED_EDGE('',*,*,#1128,.T.);
#1174 = PLANE('',#1175);
#1175 = AXIS2_PLACEMENT_3D('',#1176,#1177,#1178);
#1176 = CARTESIAN_POINT('',(14.340393751081,1.828911314157,
    6.779175177929));
#1177 = DIRECTION('',(-0.,0.939692620786,-0.342020143326));
#1178 = DIRECTION('',(-1.,0.,0.));
#1179 = MANIFOLD_SOLID_BREP('',#1180);
#1180 = CLOSED_SHELL('',(#1181,#1223,#1256,#1289,#1322,#1355,#1388,#1421
    ,#1445,#1461));
#1181 = ADVANCED_FACE('',(#1182),#1216,.F.);
#1182 = FACE_BOUND('',#1183,.F.);
#1183 = EDGE_LOOP('',(#1184,#1194,#1202,#1210));
#1184 = ORIENTED_EDGE('',*,*,#1185,.T.);
#1185 = EDGE_CURVE('',#1186,#1188,#1190,.T.);
#1186 = VERTEX_POINT('',#1187);
#1187 = CARTESIAN_POINT('',(13.828280254777,2.032342725521,4.99905486693
    ));
#1188 = VERTEX_POINT('',#1189);
#1189 = CARTESIAN_POINT('',(13.828280254777,1.280588628893,
    5.272670981591));
#1190 = LINE('',#1191,#1192);
#1191 = CARTESIAN_POINT('',(13.828280254777,2.032342725521,4.99905486693
    ));
#1192 = VECTOR('',#1193,1.);
#1193 = DIRECTION('',(0.,-0.939692620786,0.342020143326));
#1194 = ORIENTED_EDGE('',*,*,#1195,.T.);
#1195 = EDGE_CURVE('',#1188,#1196,#1198,.T.);
#1196 = VERTEX_POINT('',#1197);
#1197 = CARTESIAN_POINT('',(13.979787685775,1.120543534224,
    4.832950697894));
#1198 = B_SPLINE_CURVE_WITH_KNOTS('',2,(#1199,#1200,#1201),
  .UNSPECIFIED.,.F.,.F.,(3,3),(0.,1.),.PIECEWISE_BEZIER_KNOTS.);
#1199 = CARTESIAN_POINT('',(13.828280254777,1.280588628893,
    5.272670981591));
#1200 = CARTESIAN_POINT('',(13.828280254777,1.177997109043,
    4.990803097377));
#1201 = CARTESIAN_POINT('',(13.979787685775,1.120543534224,
    4.832950697894));
#1202 = ORIENTED_EDGE('',*,*,#1203,.F.);
#1203 = EDGE_CURVE('',#1204,#1196,#1206,.T.);
#1204 = VERTEX_POINT('',#1205);
#1205 = CARTESIAN_POINT('',(13.979787685775,1.872297630853,
    4.559334583233));
#1206 = LINE('',#1207,#1208);
#1207 = CARTESIAN_POINT('',(13.979787685775,1.872297630853,
    4.559334583233));
#1208 = VECTOR('',#1209,1.);
#1209 = DIRECTION('',(0.,-0.939692620786,0.342020143326));
#1210 = ORIENTED_EDGE('',*,*,#1211,.F.);
#1211 = EDGE_CURVE('',#1186,#1204,#1212,.T.);
#1212 = B_SPLINE_CURVE_WITH_KNOTS('',2,(#1213,#1214,#1215),
  .UNSPECIFIED.,.F.,.F.,(3,3),(0.,1.),.PIECEWISE_BEZIER_KNOTS.);
#1213 = CARTESIAN_POINT('',(13.828280254777,2.032342725521,4.99905486693
    ));
#1214 = CARTESIAN_POINT('',(13.828280254777,1.929751205672,
    4.717186982716));
#1215 = CARTESIAN_POINT('',(13.979787685775,1.872297630853,
    4.559334583233));
#1216 = SURFACE_OF_LINEAR_EXTRUSION('',#1217,#1221);
#1217 = B_SPLINE_CURVE_WITH_KNOTS('',2,(#1218,#1219,#1220),
  .UNSPECIFIED.,.F.,.F.,(3,3),(0.,1.),.PIECEWISE_BEZIER_KNOTS.);
#1218 = CARTESIAN_POINT('',(13.828280254777,2.032342725521,4.99905486693
    ));
#1219 = CARTESIAN_POINT('',(13.828280254777,1.929751205672,
    4.717186982716));
#1220 = CARTESIAN_POINT('',(13.979787685775,1.872297630853,
    4.559334583233));
#1221 = VECTOR('',#1222,1.);
#1222 = DIRECTION('',(-0.,0.939692620786,-0.342020143326));
#1223 = ADVANCED_FACE('',(#1224),#1249,.F.);
#1224 = FACE_BOUND('',#1225,.F.);
#1225 = EDGE_LOOP('',(#1226,#1227,#1235,#1243));
#1226 = ORIENTED_EDGE('',*,*,#1203,.T.);
#1227 = ORIENTED_EDGE('',*,*,#1228,.T.);
#1228 = EDGE_CURVE('',#1196,#1229,#1231,.T.);
#1229 = VERTEX_POINT('',#1230);
#1230 = CARTESIAN_POINT('',(14.35821656051,1.063089959404,4.67509829841)
  );
#1231 = B_SPLINE_CURVE_WITH_KNOTS('',2,(#1232,#1233,#1234),
  .UNSPECIFIED.,.F.,.F.,(3,3),(0.,1.),.PIECEWISE_BEZIER_KNOTS.);
#1232 = CARTESIAN_POINT('',(13.979787685775,1.120543534224,
    4.832950697894));
#1233 = CARTESIAN_POINT('',(14.131464968153,1.063089959404,4.67509829841
    ));
#1234 = CARTESIAN_POINT('',(14.35821656051,1.063089959404,4.67509829841)
  );
#1235 = ORIENTED_EDGE('',*,*,#1236,.F.);
#1236 = EDGE_CURVE('',#1237,#1229,#1239,.T.);
#1237 = VERTEX_POINT('',#1238);
#1238 = CARTESIAN_POINT('',(14.35821656051,1.814844056033,4.40148218375)
  );
#1239 = LINE('',#1240,#1241);
#1240 = CARTESIAN_POINT('',(14.35821656051,1.814844056033,4.40148218375)
  );
#1241 = VECTOR('',#1242,1.);
#1242 = DIRECTION('',(0.,-0.939692620786,0.342020143326));
#1243 = ORIENTED_EDGE('',*,*,#1244,.F.);
#1244 = EDGE_CURVE('',#1204,#1237,#1245,.T.);
#1245 = B_SPLINE_CURVE_WITH_KNOTS('',2,(#1246,#1247,#1248),
  .UNSPECIFIED.,.F.,.F.,(3,3),(0.,1.),.PIECEWISE_BEZIER_KNOTS.);
#1246 = CARTESIAN_POINT('',(13.979787685775,1.872297630853,
    4.559334583233));
#1247 = CARTESIAN_POINT('',(14.131464968153,1.814844056033,4.40148218375
    ));
#1248 = CARTESIAN_POINT('',(14.35821656051,1.814844056033,4.40148218375)
  );
#1249 = SURFACE_OF_LINEAR_EXTRUSION('',#1250,#1254);
#1250 = B_SPLINE_CURVE_WITH_KNOTS('',2,(#1251,#1252,#1253),
  .UNSPECIFIED.,.F.,.F.,(3,3),(0.,1.),.PIECEWISE_BEZIER_KNOTS.);
#1251 = CARTESIAN_POINT('',(13.979787685775,1.872297630853,
    4.559334583233));
#1252 = CARTESIAN_POINT('',(14.131464968153,1.814844056033,4.40148218375
    ));
#1253 = CARTESIAN_POINT('',(14.35821656051,1.814844056033,4.40148218375)
  );
#1254 = VECTOR('',#1255,1.);
#1255 = DIRECTION('',(-0.,0.939692620786,-0.342020143326));
#1256 = ADVANCED_FACE('',(#1257),#1282,.F.);
#1257 = FACE_BOUND('',#1258,.F.);
#1258 = EDGE_LOOP('',(#1259,#1260,#1268,#1276));
#1259 = ORIENTED_EDGE('',*,*,#1236,.T.);
#1260 = ORIENTED_EDGE('',*,*,#1261,.T.);
#1261 = EDGE_CURVE('',#1229,#1262,#1264,.T.);
#1262 = VERTEX_POINT('',#1263);
#1263 = CARTESIAN_POINT('',(14.725095541401,1.118336015677,
    4.826885590532));
#1264 = B_SPLINE_CURVE_WITH_KNOTS('',2,(#1265,#1266,#1267),
  .UNSPECIFIED.,.F.,.F.,(3,3),(0.,1.),.PIECEWISE_BEZIER_KNOTS.);
#1265 = CARTESIAN_POINT('',(14.35821656051,1.063089959404,4.67509829841)
  );
#1266 = CARTESIAN_POINT('',(14.579872611465,1.063089959404,4.67509829841
    ));
#1267 = CARTESIAN_POINT('',(14.725095541401,1.118336015677,
    4.826885590532));
#1268 = ORIENTED_EDGE('',*,*,#1269,.F.);
#1269 = EDGE_CURVE('',#1270,#1262,#1272,.T.);
#1270 = VERTEX_POINT('',#1271);
#1271 = CARTESIAN_POINT('',(14.725095541401,1.870090112305,
    4.553269475872));
#1272 = LINE('',#1273,#1274);
#1273 = CARTESIAN_POINT('',(14.725095541401,1.870090112305,
    4.553269475872));
#1274 = VECTOR('',#1275,1.);
#1275 = DIRECTION('',(0.,-0.939692620786,0.342020143326));
#1276 = ORIENTED_EDGE('',*,*,#1277,.F.);
#1277 = EDGE_CURVE('',#1237,#1270,#1278,.T.);
#1278 = B_SPLINE_CURVE_WITH_KNOTS('',2,(#1279,#1280,#1281),
  .UNSPECIFIED.,.F.,.F.,(3,3),(0.,1.),.PIECEWISE_BEZIER_KNOTS.);
#1279 = CARTESIAN_POINT('',(14.35821656051,1.814844056033,4.40148218375)
  );
#1280 = CARTESIAN_POINT('',(14.579872611465,1.814844056033,4.40148218375
    ));
#1281 = CARTESIAN_POINT('',(14.725095541401,1.870090112305,
    4.553269475872));
#1282 = SURFACE_OF_LINEAR_EXTRUSION('',#1283,#1287);
#1283 = B_SPLINE_CURVE_WITH_KNOTS('',2,(#1284,#1285,#1286),
  .UNSPECIFIED.,.F.,.F.,(3,3),(0.,1.),.PIECEWISE_BEZIER_KNOTS.);
#1284 = CARTESIAN_POINT('',(14.35821656051,1.814844056033,4.40148218375)
  );
#1285 = CARTESIAN_POINT('',(14.579872611465,1.814844056033,4.40148218375
    ));
#1286 = CARTESIAN_POINT('',(14.725095541401,1.870090112305,
    4.553269475872));
#1287 = VECTOR('',#1288,1.);
#1288 = DIRECTION('',(-0.,0.939692620786,-0.342020143326));
#1289 = ADVANCED_FACE('',(#1290),#1315,.F.);
#1290 = FACE_BOUND('',#1291,.F.);
#1291 = EDGE_LOOP('',(#1292,#1293,#1301,#1309));
#1292 = ORIENTED_EDGE('',*,*,#1269,.T.);
#1293 = ORIENTED_EDGE('',*,*,#1294,.T.);
#1294 = EDGE_CURVE('',#1262,#1295,#1297,.T.);
#1295 = VERTEX_POINT('',#1296);
#1296 = CARTESIAN_POINT('',(14.870318471338,1.277916369599,
    5.265329009522));
#1297 = B_SPLINE_CURVE_WITH_KNOTS('',2,(#1298,#1299,#1300),
  .UNSPECIFIED.,.F.,.F.,(3,3),(0.,1.),.PIECEWISE_BEZIER_KNOTS.);
#1298 = CARTESIAN_POINT('',(14.725095541401,1.118336015677,
    4.826885590532));
#1299 = CARTESIAN_POINT('',(14.870318471338,1.173582071949,
    4.978672882654));
#1300 = CARTESIAN_POINT('',(14.870318471338,1.277916369599,
    5.265329009522));
#1301 = ORIENTED_EDGE('',*,*,#1302,.F.);
#1302 = EDGE_CURVE('',#1303,#1295,#1305,.T.);
#1303 = VERTEX_POINT('',#1304);
#1304 = CARTESIAN_POINT('',(14.870318471338,2.029670466227,
    4.991712894861));
#1305 = LINE('',#1306,#1307);
#1306 = CARTESIAN_POINT('',(14.870318471338,2.029670466227,
    4.991712894861));
#1307 = VECTOR('',#1308,1.);
#1308 = DIRECTION('',(0.,-0.939692620786,0.342020143326));
#1309 = ORIENTED_EDGE('',*,*,#1310,.F.);
#1310 = EDGE_CURVE('',#1270,#1303,#1311,.T.);
#1311 = B_SPLINE_CURVE_WITH_KNOTS('',2,(#1312,#1313,#1314),
  .UNSPECIFIED.,.F.,.F.,(3,3),(0.,1.),.PIECEWISE_BEZIER_KNOTS.);
#1312 = CARTESIAN_POINT('',(14.725095541401,1.870090112305,
    4.553269475872));
#1313 = CARTESIAN_POINT('',(14.870318471338,1.925336168578,
    4.705056767994));
#1314 = CARTESIAN_POINT('',(14.870318471338,2.029670466227,
    4.991712894861));
#1315 = SURFACE_OF_LINEAR_EXTRUSION('',#1316,#1320);
#1316 = B_SPLINE_CURVE_WITH_KNOTS('',2,(#1317,#1318,#1319),
  .UNSPECIFIED.,.F.,.F.,(3,3),(0.,1.),.PIECEWISE_BEZIER_KNOTS.);
#1317 = CARTESIAN_POINT('',(14.725095541401,1.870090112305,
    4.553269475872));
#1318 = CARTESIAN_POINT('',(14.870318471338,1.925336168578,
    4.705056767994));
#1319 = CARTESIAN_POINT('',(14.870318471338,2.029670466227,
    4.991712894861));
#1320 = VECTOR('',#1321,1.);
#1321 = DIRECTION('',(-0.,0.939692620786,-0.342020143326));
#1322 = ADVANCED_FACE('',(#1323),#1348,.F.);
#1323 = FACE_BOUND('',#1324,.F.);
#1324 = EDGE_LOOP('',(#1325,#1326,#1334,#1342));
#1325 = ORIENTED_EDGE('',*,*,#1302,.T.);
#1326 = ORIENTED_EDGE('',*,*,#1327,.T.);
#1327 = EDGE_CURVE('',#1295,#1328,#1330,.T.);
#1328 = VERTEX_POINT('',#1329);
#1329 = CARTESIAN_POINT('',(14.722547770701,1.424251612238,
    5.667381784343));
#1330 = B_SPLINE_CURVE_WITH_KNOTS('',2,(#1331,#1332,#1333),
  .UNSPECIFIED.,.F.,.F.,(3,3),(0.,1.),.PIECEWISE_BEZIER_KNOTS.);
#1331 = CARTESIAN_POINT('',(14.870318471338,1.277916369599,
    5.265329009522));
#1332 = CARTESIAN_POINT('',(14.870318471338,1.369005555965,
    5.515594492221));
#1333 = CARTESIAN_POINT('',(14.722547770701,1.424251612238,
    5.667381784343));
#1334 = ORIENTED_EDGE('',*,*,#1335,.F.);
#1335 = EDGE_CURVE('',#1336,#1328,#1338,.T.);
#1336 = VERTEX_POINT('',#1337);
#1337 = CARTESIAN_POINT('',(14.722547770701,2.176005708866,
    5.393765669682));
#1338 = LINE('',#1339,#1340);
#1339 = CARTESIAN_POINT('',(14.722547770701,2.176005708866,
    5.393765669682));
#1340 = VECTOR('',#1341,1.);
#1341 = DIRECTION('',(0.,-0.939692620786,0.342020143326));
#1342 = ORIENTED_EDGE('',*,*,#1343,.F.);
#1343 = EDGE_CURVE('',#1303,#1336,#1344,.T.);
#1344 = B_SPLINE_CURVE_WITH_KNOTS('',2,(#1345,#1346,#1347),
  .UNSPECIFIED.,.F.,.F.,(3,3),(0.,1.),.PIECEWISE_BEZIER_KNOTS.);
#1345 = CARTESIAN_POINT('',(14.870318471338,2.029670466227,
    4.991712894861));
#1346 = CARTESIAN_POINT('',(14.870318471338,2.120759652594,5.24197837756
    ));
#1347 = CARTESIAN_POINT('',(14.722547770701,2.176005708866,
    5.393765669682));
#1348 = SURFACE_OF_LINEAR_EXTRUSION('',#1349,#1353);
#1349 = B_SPLINE_CURVE_WITH_KNOTS('',2,(#1350,#1351,#1352),
  .UNSPECIFIED.,.F.,.F.,(3,3),(0.,1.),.PIECEWISE_BEZIER_KNOTS.);
#1350 = CARTESIAN_POINT('',(14.870318471338,2.029670466227,
    4.991712894861));
#1351 = CARTESIAN_POINT('',(14.870318471338,2.120759652594,5.24197837756
    ));
#1352 = CARTESIAN_POINT('',(14.722547770701,2.176005708866,
    5.393765669682));
#1353 = VECTOR('',#1354,1.);
#1354 = DIRECTION('',(-0.,0.939692620786,-0.342020143326));
#1355 = ADVANCED_FACE('',(#1356),#1381,.F.);
#1356 = FACE_BOUND('',#1357,.F.);
#1357 = EDGE_LOOP('',(#1358,#1359,#1367,#1375));
#1358 = ORIENTED_EDGE('',*,*,#1335,.T.);
#1359 = ORIENTED_EDGE('',*,*,#1360,.T.);
#1360 = EDGE_CURVE('',#1328,#1361,#1363,.T.);
#1361 = VERTEX_POINT('',#1362);
#1362 = CARTESIAN_POINT('',(14.348025477707,1.47949766851,5.819169076465
    ));
#1363 = B_SPLINE_CURVE_WITH_KNOTS('',2,(#1364,#1365,#1366),
  .UNSPECIFIED.,.F.,.F.,(3,3),(0.,1.),.PIECEWISE_BEZIER_KNOTS.);
#1364 = CARTESIAN_POINT('',(14.722547770701,1.424251612238,
    5.667381784343));
#1365 = CARTESIAN_POINT('',(14.574777070064,1.47949766851,5.819169076465
    ));
#1366 = CARTESIAN_POINT('',(14.348025477707,1.47949766851,5.819169076465
    ));
#1367 = ORIENTED_EDGE('',*,*,#1368,.F.);
#1368 = EDGE_CURVE('',#1369,#1361,#1371,.T.);
#1369 = VERTEX_POINT('',#1370);
#1370 = CARTESIAN_POINT('',(14.348025477707,2.231251765139,
    5.545552961804));
#1371 = LINE('',#1372,#1373);
#1372 = CARTESIAN_POINT('',(14.348025477707,2.231251765139,
    5.545552961804));
#1373 = VECTOR('',#1374,1.);
#1374 = DIRECTION('',(0.,-0.939692620786,0.342020143326));
#1375 = ORIENTED_EDGE('',*,*,#1376,.F.);
#1376 = EDGE_CURVE('',#1336,#1369,#1377,.T.);
#1377 = B_SPLINE_CURVE_WITH_KNOTS('',2,(#1378,#1379,#1380),
  .UNSPECIFIED.,.F.,.F.,(3,3),(0.,1.),.PIECEWISE_BEZIER_KNOTS.);
#1378 = CARTESIAN_POINT('',(14.722547770701,2.176005708866,
    5.393765669682));
#1379 = CARTESIAN_POINT('',(14.574777070064,2.231251765139,
    5.545552961804));
#1380 = CARTESIAN_POINT('',(14.348025477707,2.231251765139,
    5.545552961804));
#1381 = SURFACE_OF_LINEAR_EXTRUSION('',#1382,#1386);
#1382 = B_SPLINE_CURVE_WITH_KNOTS('',2,(#1383,#1384,#1385),
  .UNSPECIFIED.,.F.,.F.,(3,3),(0.,1.),.PIECEWISE_BEZIER_KNOTS.);
#1383 = CARTESIAN_POINT('',(14.722547770701,2.176005708866,
    5.393765669682));
#1384 = CARTESIAN_POINT('',(14.574777070064,2.231251765139,
    5.545552961804));
#1385 = CARTESIAN_POINT('',(14.348025477707,2.231251765139,
    5.545552961804));
#1386 = VECTOR('',#1387,1.);
#1387 = DIRECTION('',(-0.,0.939692620786,-0.342020143326));
#1388 = ADVANCED_FACE('',(#1389),#1414,.F.);
#1389 = FACE_BOUND('',#1390,.F.);
#1390 = EDGE_LOOP('',(#1391,#1392,#1400,#1408));
#1391 = ORIENTED_EDGE('',*,*,#1368,.T.);
#1392 = ORIENTED_EDGE('',*,*,#1393,.T.);
#1393 = EDGE_CURVE('',#1361,#1394,#1396,.T.);
#1394 = VERTEX_POINT('',#1395);
#1395 = CARTESIAN_POINT('',(13.956857749469,1.416699575103,
    5.646632732843));
#1396 = B_SPLINE_CURVE_WITH_KNOTS('',2,(#1397,#1398,#1399),
  .UNSPECIFIED.,.F.,.F.,(3,3),(0.,1.),.PIECEWISE_BEZIER_KNOTS.);
#1397 = CARTESIAN_POINT('',(14.348025477707,1.47949766851,5.819169076465
    ));
#1398 = CARTESIAN_POINT('',(14.085605095541,1.47949766851,5.819169076465
    ));
#1399 = CARTESIAN_POINT('',(13.956857749469,1.416699575103,
    5.646632732843));
#1400 = ORIENTED_EDGE('',*,*,#1401,.F.);
#1401 = EDGE_CURVE('',#1402,#1394,#1404,.T.);
#1402 = VERTEX_POINT('',#1403);
#1403 = CARTESIAN_POINT('',(13.956857749469,2.168453671731,
    5.373016618183));
#1404 = LINE('',#1405,#1406);
#1405 = CARTESIAN_POINT('',(13.956857749469,2.168453671731,
    5.373016618183));
#1406 = VECTOR('',#1407,1.);
#1407 = DIRECTION('',(0.,-0.939692620786,0.342020143326));
#1408 = ORIENTED_EDGE('',*,*,#1409,.F.);
#1409 = EDGE_CURVE('',#1369,#1402,#1410,.T.);
#1410 = B_SPLINE_CURVE_WITH_KNOTS('',2,(#1411,#1412,#1413),
  .UNSPECIFIED.,.F.,.F.,(3,3),(0.,1.),.PIECEWISE_BEZIER_KNOTS.);
#1411 = CARTESIAN_POINT('',(14.348025477707,2.231251765139,
    5.545552961804));
#1412 = CARTESIAN_POINT('',(14.085605095541,2.231251765139,
    5.545552961804));
#1413 = CARTESIAN_POINT('',(13.956857749469,2.168453671731,
    5.373016618183));
#1414 = SURFACE_OF_LINEAR_EXTRUSION('',#1415,#1419);
#1415 = B_SPLINE_CURVE_WITH_KNOTS('',2,(#1416,#1417,#1418),
  .UNSPECIFIED.,.F.,.F.,(3,3),(0.,1.),.PIECEWISE_BEZIER_KNOTS.);
#1416 = CARTESIAN_POINT('',(14.348025477707,2.231251765139,
    5.545552961804));
#1417 = CARTESIAN_POINT('',(14.085605095541,2.231251765139,
    5.545552961804));
#1418 = CARTESIAN_POINT('',(13.956857749469,2.168453671731,
    5.373016618183));
#1419 = VECTOR('',#1420,1.);
#1420 = DIRECTION('',(-0.,0.939692620786,-0.342020143326));
#1421 = ADVANCED_FACE('',(#1422),#1438,.F.);
#1422 = FACE_BOUND('',#1423,.F.);
#1423 = EDGE_LOOP('',(#1424,#1425,#1431,#1432));
#1424 = ORIENTED_EDGE('',*,*,#1401,.T.);
#1425 = ORIENTED_EDGE('',*,*,#1426,.T.);
#1426 = EDGE_CURVE('',#1394,#1188,#1427,.T.);
#1427 = B_SPLINE_CURVE_WITH_KNOTS('',2,(#1428,#1429,#1430),
  .UNSPECIFIED.,.F.,.F.,(3,3),(0.,1.),.PIECEWISE_BEZIER_KNOTS.);
#1428 = CARTESIAN_POINT('',(13.956857749469,1.416699575103,
    5.646632732843));
#1429 = CARTESIAN_POINT('',(13.828280254777,1.353959574289,
    5.474255997311));
#1430 = CARTESIAN_POINT('',(13.828280254777,1.280588628893,
    5.272670981591));
#1431 = ORIENTED_EDGE('',*,*,#1185,.F.);
#1432 = ORIENTED_EDGE('',*,*,#1433,.F.);
#1433 = EDGE_CURVE('',#1402,#1186,#1434,.T.);
#1434 = B_SPLINE_CURVE_WITH_KNOTS('',2,(#1435,#1436,#1437),
  .UNSPECIFIED.,.F.,.F.,(3,3),(0.,1.),.PIECEWISE_BEZIER_KNOTS.);
#1435 = CARTESIAN_POINT('',(13.956857749469,2.168453671731,
    5.373016618183));
#1436 = CARTESIAN_POINT('',(13.828280254777,2.105713670918,5.20063988265
    ));
#1437 = CARTESIAN_POINT('',(13.828280254777,2.032342725521,4.99905486693
    ));
#1438 = SURFACE_OF_LINEAR_EXTRUSION('',#1439,#1443);
#1439 = B_SPLINE_CURVE_WITH_KNOTS('',2,(#1440,#1441,#1442),
  .UNSPECIFIED.,.F.,.F.,(3,3),(0.,1.),.PIECEWISE_BEZIER_KNOTS.);
#1440 = CARTESIAN_POINT('',(13.956857749469,2.168453671731,
    5.373016618183));
#1441 = CARTESIAN_POINT('',(13.828280254777,2.105713670918,5.20063988265
    ));
#1442 = CARTESIAN_POINT('',(13.828280254777,2.032342725521,4.99905486693
    ));
#1443 = VECTOR('',#1444,1.);
#1444 = DIRECTION('',(-0.,0.939692620786,-0.342020143326));
#1445 = ADVANCED_FACE('',(#1446),#1456,.T.);
#1446 = FACE_BOUND('',#1447,.F.);
#1447 = EDGE_LOOP('',(#1448,#1449,#1450,#1451,#1452,#1453,#1454,#1455));
#1448 = ORIENTED_EDGE('',*,*,#1211,.T.);
#1449 = ORIENTED_EDGE('',*,*,#1244,.T.);
#1450 = ORIENTED_EDGE('',*,*,#1277,.T.);
#1451 = ORIENTED_EDGE('',*,*,#1310,.T.);
#1452 = ORIENTED_EDGE('',*,*,#1343,.T.);
#1453 = ORIENTED_EDGE('',*,*,#1376,.T.);
#1454 = ORIENTED_EDGE('',*,*,#1409,.T.);
#1455 = ORIENTED_EDGE('',*,*,#1433,.T.);
#1456 = PLANE('',#1457);
#1457 = AXIS2_PLACEMENT_3D('',#1458,#1459,#1460);
#1458 = CARTESIAN_POINT('',(14.350893954166,2.023621363104,
    4.975093120622));
#1459 = DIRECTION('',(-0.,0.939692620786,-0.342020143326));
#1460 = DIRECTION('',(-1.,0.,0.));
#1461 = ADVANCED_FACE('',(#1462),#1472,.F.);
#1462 = FACE_BOUND('',#1463,.T.);
#1463 = EDGE_LOOP('',(#1464,#1465,#1466,#1467,#1468,#1469,#1470,#1471));
#1464 = ORIENTED_EDGE('',*,*,#1195,.T.);
#1465 = ORIENTED_EDGE('',*,*,#1228,.T.);
#1466 = ORIENTED_EDGE('',*,*,#1261,.T.);
#1467 = ORIENTED_EDGE('',*,*,#1294,.T.);
#1468 = ORIENTED_EDGE('',*,*,#1327,.T.);
#1469 = ORIENTED_EDGE('',*,*,#1360,.T.);
#1470 = ORIENTED_EDGE('',*,*,#1393,.T.);
#1471 = ORIENTED_EDGE('',*,*,#1426,.T.);
#1472 = PLANE('',#1473);
#1473 = AXIS2_PLACEMENT_3D('',#1474,#1475,#1476);
#1474 = CARTESIAN_POINT('',(14.350893954166,1.271867266475,
    5.248709235282));
#1475 = DIRECTION('',(-0.,0.939692620786,-0.342020143326));
#1476 = DIRECTION('',(-1.,0.,0.));
#1477 = ( GEOMETRIC_REPRESENTATION_CONTEXT(3) 
GLOBAL_UNCERTAINTY_ASSIGNED_CONTEXT((#1481)) 
GLOBAL_UNIT_ASSIGNED_CONTEXT((#1478,#1479,#1480)) REPRESENTATION_CONTEXT
('Context #1','3D Context with UNIT and UNCERTAINTY') );
#1478 = ( LENGTH_UNIT() NAMED_UNIT(*) SI_UNIT(.MILLI.,.METRE.) );
#1479 = ( NAMED_UNIT(*) PLANE_ANGLE_UNIT() SI_UNIT($,.RADIAN.) );
#1480 = ( NAMED_UNIT(*) SI_UNIT($,.STERADIAN.) SOLID_ANGLE_UNIT() );
#1481 = UNCERTAINTY_MEASURE_WITH_UNIT(LENGTH_MEASURE(1.E-07),#1478,
  'distance_accuracy_value','confusion accuracy');
#1482 = PRODUCT_RELATED_PRODUCT_CATEGORY('part',$,(#7));
ENDSEC;
END-ISO-10303-21;
