ISO-10303-21;
HEADER;
FILE_DESCRIPTION(('FreeCAD Model'),'2;1');
FILE_NAME('Open CASCADE Shape Model','2026-08-29T16:16:43',('FreeCAD'),(
    'FreeCAD'),'Open CASCADE STEP processor 7.8','FreeCAD','Unknown');
FILE_SCHEMA(('AUTOMOTIVE_DESIGN { 1 0 10303 214 1 1 1 1 }'));
ENDSEC;
DATA;
#1 = APPLICATION_PROTOCOL_DEFINITION('international standard',
  'automotive_design',2000,#2);
#2 = APPLICATION_CONTEXT(
  'core data for automotive mechanical design processes');
#3 = SHAPE_DEFINITION_REPRESENTATION(#4,#10);
#4 = PRODUCT_DEFINITION_SHAPE('','',#5);
#5 = PRODUCT_DEFINITION('design','',#6,#9);
#6 = PRODUCT_DEFINITION_FORMATION('','',#7);
#7 = PRODUCT('Open CASCADE STEP translator 7.8 3',
  'Open CASCADE STEP translator 7.8 3','',(#8));
#8 = PRODUCT_CONTEXT('',#2,'mechanical');
#9 = PRODUCT_DEFINITION_CONTEXT('part definition',#2,'design');
#10 = ADVANCED_BREP_SHAPE_REPRESENTATION('',(#11,#15),#1800);
#11 = AXIS2_PLACEMENT_3D('',#12,#13,#14);
#12 = CARTESIAN_POINT('',(0.,0.,0.));
#13 = DIRECTION('',(0.,0.,1.));
#14 = DIRECTION('',(1.,0.,-0.));
#15 = MANIFOLD_SOLID_BREP('',#16);
#16 = CLOSED_SHELL('',(#17,#57,#222,#246,#334,#592,#609,#626,#643,#660,
    #677,#694,#711,#743,#767,#791,#816,#841,#865,#889,#907,#924,#957,
    #983,#1009,#1035,#1061,#1087,#1113,#1132,#1163,#1187,#1211,#1237,
    #1263,#1287,#1313,#1330,#1361,#1385,#1409,#1441,#1465,#1489,#1514,
    #1539,#1563,#1587,#1605,#1622,#1736,#1752,#1764,#1780));
#17 = ADVANCED_FACE('',(#18),#52,.F.);
#18 = FACE_BOUND('',#19,.F.);
#19 = EDGE_LOOP('',(#20,#30,#38,#46));
#20 = ORIENTED_EDGE('',*,*,#21,.F.);
#21 = EDGE_CURVE('',#22,#24,#26,.T.);
#22 = VERTEX_POINT('',#23);
#23 = CARTESIAN_POINT('',(0.,3.639702342662,10.));
#24 = VERTEX_POINT('',#25);
#25 = CARTESIAN_POINT('',(0.,7.45,10.));
#26 = LINE('',#27,#28);
#27 = CARTESIAN_POINT('',(0.,0.,10.));
#28 = VECTOR('',#29,1.);
#29 = DIRECTION('',(0.,1.,0.));
#30 = ORIENTED_EDGE('',*,*,#31,.T.);
#31 = EDGE_CURVE('',#22,#32,#34,.T.);
#32 = VERTEX_POINT('',#33);
#33 = CARTESIAN_POINT('',(0.,0.,0.));
#34 = LINE('',#35,#36);
#35 = CARTESIAN_POINT('',(0.,0.,0.));
#36 = VECTOR('',#37,1.);
#37 = DIRECTION('',(0.,-0.342020143326,-0.939692620786));
#38 = ORIENTED_EDGE('',*,*,#39,.T.);
#39 = EDGE_CURVE('',#32,#40,#42,.T.);
#40 = VERTEX_POINT('',#41);
#41 = CARTESIAN_POINT('',(0.,7.45,0.));
#42 = LINE('',#43,#44);
#43 = CARTESIAN_POINT('',(0.,0.,0.));
#44 = VECTOR('',#45,1.);
#45 = DIRECTION('',(0.,1.,0.));
#46 = ORIENTED_EDGE('',*,*,#47,.T.);
#47 = EDGE_CURVE('',#40,#24,#48,.T.);
#48 = LINE('',#49,#50);
#49 = CARTESIAN_POINT('',(0.,7.45,-1.));
#50 = VECTOR('',#51,1.);
#51 = DIRECTION('',(0.,0.,1.));
#52 = PLANE('',#53);
#53 = AXIS2_PLACEMENT_3D('',#54,#55,#56);
#54 = CARTESIAN_POINT('',(0.,0.,0.));
#55 = DIRECTION('',(1.,0.,0.));
#56 = DIRECTION('',(0.,0.,1.));
#57 = ADVANCED_FACE('',(#58,#147),#217,.T.);
#58 = FACE_BOUND('',#59,.T.);
#59 = EDGE_LOOP('',(#60,#61,#69,#77,#85,#93,#101,#109,#117,#125,#133,
    #141));
#60 = ORIENTED_EDGE('',*,*,#21,.F.);
#61 = ORIENTED_EDGE('',*,*,#62,.T.);
#62 = EDGE_CURVE('',#22,#63,#65,.T.);
#63 = VERTEX_POINT('',#64);
#64 = CARTESIAN_POINT('',(26.,3.639702342662,10.));
#65 = LINE('',#66,#67);
#66 = CARTESIAN_POINT('',(-1.,3.639702342662,10.));
#67 = VECTOR('',#68,1.);
#68 = DIRECTION('',(1.,0.,0.));
#69 = ORIENTED_EDGE('',*,*,#70,.T.);
#70 = EDGE_CURVE('',#63,#71,#73,.T.);
#71 = VERTEX_POINT('',#72);
#72 = CARTESIAN_POINT('',(26.,7.575609756098,10.));
#73 = LINE('',#74,#75);
#74 = CARTESIAN_POINT('',(26.,0.,10.));
#75 = VECTOR('',#76,1.);
#76 = DIRECTION('',(0.,1.,0.));
#77 = ORIENTED_EDGE('',*,*,#78,.F.);
#78 = EDGE_CURVE('',#79,#71,#81,.T.);
#79 = VERTEX_POINT('',#80);
#80 = CARTESIAN_POINT('',(25.9,7.6,10.));
#81 = LINE('',#82,#83);
#82 = CARTESIAN_POINT('',(25.9,7.6,10.));
#83 = VECTOR('',#84,1.);
#84 = DIRECTION('',(0.971520338783,-0.236956180191,0.));
#85 = ORIENTED_EDGE('',*,*,#86,.F.);
#86 = EDGE_CURVE('',#87,#79,#89,.T.);
#87 = VERTEX_POINT('',#88);
#88 = CARTESIAN_POINT('',(25.9,11.6,10.));
#89 = LINE('',#90,#91);
#90 = CARTESIAN_POINT('',(25.9,11.6,10.));
#91 = VECTOR('',#92,1.);
#92 = DIRECTION('',(0.,-1.,0.));
#93 = ORIENTED_EDGE('',*,*,#94,.F.);
#94 = EDGE_CURVE('',#95,#87,#97,.T.);
#95 = VERTEX_POINT('',#96);
#96 = CARTESIAN_POINT('',(26.,11.624390243902,10.));
#97 = LINE('',#98,#99);
#98 = CARTESIAN_POINT('',(30.,12.6,10.));
#99 = VECTOR('',#100,1.);
#100 = DIRECTION('',(-0.971520338783,-0.236956180191,0.));
#101 = ORIENTED_EDGE('',*,*,#102,.T.);
#102 = EDGE_CURVE('',#95,#103,#105,.T.);
#103 = VERTEX_POINT('',#104);
#104 = CARTESIAN_POINT('',(26.,32.,10.));
#105 = LINE('',#106,#107);
#106 = CARTESIAN_POINT('',(26.,0.,10.));
#107 = VECTOR('',#108,1.);
#108 = DIRECTION('',(0.,1.,0.));
#109 = ORIENTED_EDGE('',*,*,#110,.F.);
#110 = EDGE_CURVE('',#111,#103,#113,.T.);
#111 = VERTEX_POINT('',#112);
#112 = CARTESIAN_POINT('',(0.,32.,10.));
#113 = LINE('',#114,#115);
#114 = CARTESIAN_POINT('',(0.,32.,10.));
#115 = VECTOR('',#116,1.);
#116 = DIRECTION('',(1.,0.,0.));
#117 = ORIENTED_EDGE('',*,*,#118,.F.);
#118 = EDGE_CURVE('',#119,#111,#121,.T.);
#119 = VERTEX_POINT('',#120);
#120 = CARTESIAN_POINT('',(0.,11.75,10.));
#121 = LINE('',#122,#123);
#122 = CARTESIAN_POINT('',(0.,0.,10.));
#123 = VECTOR('',#124,1.);
#124 = DIRECTION('',(0.,1.,0.));
#125 = ORIENTED_EDGE('',*,*,#126,.T.);
#126 = EDGE_CURVE('',#119,#127,#129,.T.);
#127 = VERTEX_POINT('',#128);
#128 = CARTESIAN_POINT('',(4.,12.75,10.));
#129 = LINE('',#130,#131);
#130 = CARTESIAN_POINT('',(0.617647058824,11.904411764706,10.));
#131 = VECTOR('',#132,1.);
#132 = DIRECTION('',(0.970142500145,0.242535625036,0.));
#133 = ORIENTED_EDGE('',*,*,#134,.T.);
#134 = EDGE_CURVE('',#127,#135,#137,.T.);
#135 = VERTEX_POINT('',#136);
#136 = CARTESIAN_POINT('',(4.,6.45,10.));
#137 = LINE('',#138,#139);
#138 = CARTESIAN_POINT('',(4.,3.225,10.));
#139 = VECTOR('',#140,1.);
#140 = DIRECTION('',(0.,-1.,0.));
#141 = ORIENTED_EDGE('',*,*,#142,.T.);
#142 = EDGE_CURVE('',#135,#24,#143,.T.);
#143 = LINE('',#144,#145);
#144 = CARTESIAN_POINT('',(0.876470588235,7.230882352941,10.));
#145 = VECTOR('',#146,1.);
#146 = DIRECTION('',(-0.970142500145,0.242535625036,0.));
#147 = FACE_BOUND('',#148,.T.);
#148 = EDGE_LOOP('',(#149,#160,#168,#177,#185,#194,#202,#211));
#149 = ORIENTED_EDGE('',*,*,#150,.F.);
#150 = EDGE_CURVE('',#151,#153,#155,.T.);
#151 = VERTEX_POINT('',#152);
#152 = CARTESIAN_POINT('',(8.1,25.34,10.));
#153 = VERTEX_POINT('',#154);
#154 = CARTESIAN_POINT('',(7.5,24.74,10.));
#155 = CIRCLE('',#156,0.6);
#156 = AXIS2_PLACEMENT_3D('',#157,#158,#159);
#157 = CARTESIAN_POINT('',(8.1,24.74,10.));
#158 = DIRECTION('',(0.,-0.,1.));
#159 = DIRECTION('',(0.,1.,0.));
#160 = ORIENTED_EDGE('',*,*,#161,.T.);
#161 = EDGE_CURVE('',#151,#162,#164,.T.);
#162 = VERTEX_POINT('',#163);
#163 = CARTESIAN_POINT('',(17.9,25.34,10.));
#164 = LINE('',#165,#166);
#165 = CARTESIAN_POINT('',(9.25,25.34,10.));
#166 = VECTOR('',#167,1.);
#167 = DIRECTION('',(1.,0.,0.));
#168 = ORIENTED_EDGE('',*,*,#169,.F.);
#169 = EDGE_CURVE('',#170,#162,#172,.T.);
#170 = VERTEX_POINT('',#171);
#171 = CARTESIAN_POINT('',(18.5,24.74,10.));
#172 = CIRCLE('',#173,0.6);
#173 = AXIS2_PLACEMENT_3D('',#174,#175,#176);
#174 = CARTESIAN_POINT('',(17.9,24.74,10.));
#175 = DIRECTION('',(0.,-0.,1.));
#176 = DIRECTION('',(0.,1.,0.));
#177 = ORIENTED_EDGE('',*,*,#178,.T.);
#178 = EDGE_CURVE('',#170,#179,#181,.T.);
#179 = VERTEX_POINT('',#180);
#180 = CARTESIAN_POINT('',(18.5,14.94,10.));
#181 = LINE('',#182,#183);
#182 = CARTESIAN_POINT('',(18.5,7.17,10.));
#183 = VECTOR('',#184,1.);
#184 = DIRECTION('',(0.,-1.,0.));
#185 = ORIENTED_EDGE('',*,*,#186,.F.);
#186 = EDGE_CURVE('',#187,#179,#189,.T.);
#187 = VERTEX_POINT('',#188);
#188 = CARTESIAN_POINT('',(17.9,14.34,10.));
#189 = CIRCLE('',#190,0.6);
#190 = AXIS2_PLACEMENT_3D('',#191,#192,#193);
#191 = CARTESIAN_POINT('',(17.9,14.94,10.));
#192 = DIRECTION('',(-0.,0.,1.));
#193 = DIRECTION('',(0.,-1.,0.));
#194 = ORIENTED_EDGE('',*,*,#195,.T.);
#195 = EDGE_CURVE('',#187,#196,#198,.T.);
#196 = VERTEX_POINT('',#197);
#197 = CARTESIAN_POINT('',(8.1,14.34,10.));
#198 = LINE('',#199,#200);
#199 = CARTESIAN_POINT('',(3.75,14.34,10.));
#200 = VECTOR('',#201,1.);
#201 = DIRECTION('',(-1.,0.,0.));
#202 = ORIENTED_EDGE('',*,*,#203,.F.);
#203 = EDGE_CURVE('',#204,#196,#206,.T.);
#204 = VERTEX_POINT('',#205);
#205 = CARTESIAN_POINT('',(7.5,14.94,10.));
#206 = CIRCLE('',#207,0.6);
#207 = AXIS2_PLACEMENT_3D('',#208,#209,#210);
#208 = CARTESIAN_POINT('',(8.1,14.94,10.));
#209 = DIRECTION('',(0.,0.,1.));
#210 = DIRECTION('',(-1.,0.,0.));
#211 = ORIENTED_EDGE('',*,*,#212,.T.);
#212 = EDGE_CURVE('',#204,#153,#213,.T.);
#213 = LINE('',#214,#215);
#214 = CARTESIAN_POINT('',(7.5,12.67,10.));
#215 = VECTOR('',#216,1.);
#216 = DIRECTION('',(0.,1.,0.));
#217 = PLANE('',#218);
#218 = AXIS2_PLACEMENT_3D('',#219,#220,#221);
#219 = CARTESIAN_POINT('',(0.,0.,10.));
#220 = DIRECTION('',(0.,0.,1.));
#221 = DIRECTION('',(1.,0.,0.));
#222 = ADVANCED_FACE('',(#223),#241,.T.);
#223 = FACE_BOUND('',#224,.T.);
#224 = EDGE_LOOP('',(#225,#233,#234,#235));
#225 = ORIENTED_EDGE('',*,*,#226,.T.);
#226 = EDGE_CURVE('',#227,#40,#229,.T.);
#227 = VERTEX_POINT('',#228);
#228 = CARTESIAN_POINT('',(4.,6.45,0.));
#229 = LINE('',#230,#231);
#230 = CARTESIAN_POINT('',(0.876470588235,7.230882352941,0.));
#231 = VECTOR('',#232,1.);
#232 = DIRECTION('',(-0.970142500145,0.242535625036,0.));
#233 = ORIENTED_EDGE('',*,*,#47,.T.);
#234 = ORIENTED_EDGE('',*,*,#142,.F.);
#235 = ORIENTED_EDGE('',*,*,#236,.F.);
#236 = EDGE_CURVE('',#227,#135,#237,.T.);
#237 = LINE('',#238,#239);
#238 = CARTESIAN_POINT('',(4.,6.45,-1.));
#239 = VECTOR('',#240,1.);
#240 = DIRECTION('',(0.,0.,1.));
#241 = PLANE('',#242);
#242 = AXIS2_PLACEMENT_3D('',#243,#244,#245);
#243 = CARTESIAN_POINT('',(0.,7.45,-1.));
#244 = DIRECTION('',(0.242535625036,0.970142500145,0.));
#245 = DIRECTION('',(0.970142500145,-0.242535625036,0.));
#246 = ADVANCED_FACE('',(#247),#329,.F.);
#247 = FACE_BOUND('',#248,.F.);
#248 = EDGE_LOOP('',(#249,#250,#258,#266,#274,#282,#290,#298,#306,#314,
    #322,#328));
#249 = ORIENTED_EDGE('',*,*,#39,.F.);
#250 = ORIENTED_EDGE('',*,*,#251,.T.);
#251 = EDGE_CURVE('',#32,#252,#254,.T.);
#252 = VERTEX_POINT('',#253);
#253 = CARTESIAN_POINT('',(26.,0.,0.));
#254 = LINE('',#255,#256);
#255 = CARTESIAN_POINT('',(0.,0.,0.));
#256 = VECTOR('',#257,1.);
#257 = DIRECTION('',(1.,0.,0.));
#258 = ORIENTED_EDGE('',*,*,#259,.T.);
#259 = EDGE_CURVE('',#252,#260,#262,.T.);
#260 = VERTEX_POINT('',#261);
#261 = CARTESIAN_POINT('',(26.,7.575609756098,0.));
#262 = LINE('',#263,#264);
#263 = CARTESIAN_POINT('',(26.,0.,0.));
#264 = VECTOR('',#265,1.);
#265 = DIRECTION('',(0.,1.,0.));
#266 = ORIENTED_EDGE('',*,*,#267,.F.);
#267 = EDGE_CURVE('',#268,#260,#270,.T.);
#268 = VERTEX_POINT('',#269);
#269 = CARTESIAN_POINT('',(25.9,7.6,0.));
#270 = LINE('',#271,#272);
#271 = CARTESIAN_POINT('',(25.9,7.6,0.));
#272 = VECTOR('',#273,1.);
#273 = DIRECTION('',(0.971520338783,-0.236956180191,0.));
#274 = ORIENTED_EDGE('',*,*,#275,.F.);
#275 = EDGE_CURVE('',#276,#268,#278,.T.);
#276 = VERTEX_POINT('',#277);
#277 = CARTESIAN_POINT('',(25.9,11.6,0.));
#278 = LINE('',#279,#280);
#279 = CARTESIAN_POINT('',(25.9,11.6,0.));
#280 = VECTOR('',#281,1.);
#281 = DIRECTION('',(0.,-1.,0.));
#282 = ORIENTED_EDGE('',*,*,#283,.F.);
#283 = EDGE_CURVE('',#284,#276,#286,.T.);
#284 = VERTEX_POINT('',#285);
#285 = CARTESIAN_POINT('',(26.,11.624390243902,0.));
#286 = LINE('',#287,#288);
#287 = CARTESIAN_POINT('',(30.,12.6,0.));
#288 = VECTOR('',#289,1.);
#289 = DIRECTION('',(-0.971520338783,-0.236956180191,0.));
#290 = ORIENTED_EDGE('',*,*,#291,.T.);
#291 = EDGE_CURVE('',#284,#292,#294,.T.);
#292 = VERTEX_POINT('',#293);
#293 = CARTESIAN_POINT('',(26.,32.,0.));
#294 = LINE('',#295,#296);
#295 = CARTESIAN_POINT('',(26.,0.,0.));
#296 = VECTOR('',#297,1.);
#297 = DIRECTION('',(0.,1.,0.));
#298 = ORIENTED_EDGE('',*,*,#299,.F.);
#299 = EDGE_CURVE('',#300,#292,#302,.T.);
#300 = VERTEX_POINT('',#301);
#301 = CARTESIAN_POINT('',(0.,32.,0.));
#302 = LINE('',#303,#304);
#303 = CARTESIAN_POINT('',(0.,32.,0.));
#304 = VECTOR('',#305,1.);
#305 = DIRECTION('',(1.,0.,0.));
#306 = ORIENTED_EDGE('',*,*,#307,.F.);
#307 = EDGE_CURVE('',#308,#300,#310,.T.);
#308 = VERTEX_POINT('',#309);
#309 = CARTESIAN_POINT('',(0.,11.75,0.));
#310 = LINE('',#311,#312);
#311 = CARTESIAN_POINT('',(0.,0.,0.));
#312 = VECTOR('',#313,1.);
#313 = DIRECTION('',(0.,1.,0.));
#314 = ORIENTED_EDGE('',*,*,#315,.T.);
#315 = EDGE_CURVE('',#308,#316,#318,.T.);
#316 = VERTEX_POINT('',#317);
#317 = CARTESIAN_POINT('',(4.,12.75,0.));
#318 = LINE('',#319,#320);
#319 = CARTESIAN_POINT('',(0.617647058824,11.904411764706,0.));
#320 = VECTOR('',#321,1.);
#321 = DIRECTION('',(0.970142500145,0.242535625036,0.));
#322 = ORIENTED_EDGE('',*,*,#323,.T.);
#323 = EDGE_CURVE('',#316,#227,#324,.T.);
#324 = LINE('',#325,#326);
#325 = CARTESIAN_POINT('',(4.,3.225,0.));
#326 = VECTOR('',#327,1.);
#327 = DIRECTION('',(0.,-1.,0.));
#328 = ORIENTED_EDGE('',*,*,#226,.T.);
#329 = PLANE('',#330);
#330 = AXIS2_PLACEMENT_3D('',#331,#332,#333);
#331 = CARTESIAN_POINT('',(0.,0.,0.));
#332 = DIRECTION('',(0.,0.,1.));
#333 = DIRECTION('',(1.,0.,0.));
#334 = ADVANCED_FACE('',(#335,#346,#499),#587,.T.);
#335 = FACE_BOUND('',#336,.T.);
#336 = EDGE_LOOP('',(#337,#338,#339,#345));
#337 = ORIENTED_EDGE('',*,*,#31,.T.);
#338 = ORIENTED_EDGE('',*,*,#251,.T.);
#339 = ORIENTED_EDGE('',*,*,#340,.F.);
#340 = EDGE_CURVE('',#63,#252,#341,.T.);
#341 = LINE('',#342,#343);
#342 = CARTESIAN_POINT('',(26.,0.,0.));
#343 = VECTOR('',#344,1.);
#344 = DIRECTION('',(0.,-0.342020143326,-0.939692620786));
#345 = ORIENTED_EDGE('',*,*,#62,.F.);
#346 = FACE_BOUND('',#347,.T.);
#347 = EDGE_LOOP('',(#348,#369,#386,#403,#422,#441,#460,#482));
#348 = ORIENTED_EDGE('',*,*,#349,.F.);
#349 = EDGE_CURVE('',#350,#352,#354,.T.);
#350 = VERTEX_POINT('',#351);
#351 = CARTESIAN_POINT('',(15.202802547771,2.60942556314,7.169337812475)
  );
#352 = VERTEX_POINT('',#353);
#353 = CARTESIAN_POINT('',(14.354394904459,2.742283324123,7.534361510774
    ));
#354 = B_SPLINE_CURVE_WITH_KNOTS('',5,(#355,#356,#357,#358,#359,#360,
    #361,#362,#363,#364,#365,#366,#367,#368),.UNSPECIFIED.,.F.,.F.,(6,4,
    4,6),(0.,0.37401078336,0.78644557763,1.),.UNSPECIFIED.);
#355 = CARTESIAN_POINT('',(15.202802547771,2.60942556314,7.169337812475)
  );
#356 = CARTESIAN_POINT('',(15.15751438239,2.629105788712,7.223408787845)
  );
#357 = CARTESIAN_POINT('',(15.108304557926,2.647256095875,7.273276346931
    ));
#358 = CARTESIAN_POINT('',(15.05516180759,2.663689456054,7.318426632947)
  );
#359 = CARTESIAN_POINT('',(14.998213890597,2.678255963492,7.358447783213
    ));
#360 = CARTESIAN_POINT('',(14.871207815572,2.704806817407,7.431395654814
    ));
#361 = CARTESIAN_POINT('',(14.800383702847,2.716376334095,7.463182640667
    ));
#362 = CARTESIAN_POINT('',(14.725814461717,2.725489726334,7.488221480058
    ));
#363 = CARTESIAN_POINT('',(14.648112933908,2.732201410805,7.506661681589
    ));
#364 = CARTESIAN_POINT('',(14.526400232314,2.738946408892,7.525193411528
    ));
#365 = CARTESIAN_POINT('',(14.484206227118,2.740639717603,7.529845738974
    ));
#366 = CARTESIAN_POINT('',(14.441423424826,2.741744000603,7.532879731583
    ));
#367 = CARTESIAN_POINT('',(14.39812991079,2.742283324123,7.534361510774)
  );
#368 = CARTESIAN_POINT('',(14.354394904459,2.742283324123,7.534361510774
    ));
#369 = ORIENTED_EDGE('',*,*,#370,.F.);
#370 = EDGE_CURVE('',#371,#350,#373,.T.);
#371 = VERTEX_POINT('',#372);
#372 = CARTESIAN_POINT('',(15.567133757962,2.087463611925,5.735259137696
    ));
#373 = B_SPLINE_CURVE_WITH_KNOTS('',6,(#374,#375,#376,#377,#378,#379,
    #380,#381,#382,#383,#384,#385),.UNSPECIFIED.,.F.,.F.,(7,5,7),(0.,
    0.639103059427,1.),.UNSPECIFIED.);
#374 = CARTESIAN_POINT('',(15.567133757962,2.087463611925,5.735259137696
    ));
#375 = CARTESIAN_POINT('',(15.567133757962,2.14980338062,5.90653624452)
  );
#376 = CARTESIAN_POINT('',(15.560742021282,2.21141484338,6.075812347233)
  );
#377 = CARTESIAN_POINT('',(15.546845644933,2.272204444142,6.242830402664
    ));
#378 = CARTESIAN_POINT('',(15.523856061393,2.331773217153,6.406494261416
    ));
#379 = CARTESIAN_POINT('',(15.489720455686,2.389420906958,6.56487998744)
  );
#380 = CARTESIAN_POINT('',(15.414421272278,2.474962698087,6.799904126988
    ));
#381 = CARTESIAN_POINT('',(15.382804980922,2.504862728545,6.882053785511
    ));
#382 = CARTESIAN_POINT('',(15.346264803421,2.53358036222,6.960954835573)
  );
#383 = CARTESIAN_POINT('',(15.304315116683,2.560820291151,7.035795925219
    ));
#384 = CARTESIAN_POINT('',(15.256527270666,2.586219173637,7.105578781328
    ));
#385 = CARTESIAN_POINT('',(15.202802547771,2.60942556314,7.169337812475)
  );
#386 = ORIENTED_EDGE('',*,*,#387,.F.);
#387 = EDGE_CURVE('',#388,#371,#390,.T.);
#388 = VERTEX_POINT('',#389);
#389 = CARTESIAN_POINT('',(15.20025477707,1.564688364402,4.298945949678)
  );
#390 = B_SPLINE_CURVE_WITH_KNOTS('',6,(#391,#392,#393,#394,#395,#396,
    #397,#398,#399,#400,#401,#402),.UNSPECIFIED.,.F.,.F.,(7,5,7),(0.,
    0.365637227645,1.),.UNSPECIFIED.);
#391 = CARTESIAN_POINT('',(15.20025477707,1.564688364402,4.298945949678)
  );
#392 = CARTESIAN_POINT('',(15.254829238568,1.58835733798,4.363975920125)
  );
#393 = CARTESIAN_POINT('',(15.303353548883,1.614230665139,4.435062302262
    ));
#394 = CARTESIAN_POINT('',(15.345921338049,1.641956602924,4.511238690259
    ));
#395 = CARTESIAN_POINT('',(15.382963474703,1.671170751974,4.591503905102
    ));
#396 = CARTESIAN_POINT('',(15.414971556559,1.701575821723,4.675041147674
    ));
#397 = CARTESIAN_POINT('',(15.490084453688,1.787406576887,4.910859209382
    ));
#398 = CARTESIAN_POINT('',(15.523999353372,1.844733648288,5.068364043579
    ));
#399 = CARTESIAN_POINT('',(15.54688926295,1.903934161416,5.231016116618)
  );
#400 = CARTESIAN_POINT('',(15.560751141823,1.964333114654,5.396960876798
    ));
#401 = CARTESIAN_POINT('',(15.567133757962,2.025542492471,5.565132260211
    ));
#402 = CARTESIAN_POINT('',(15.567133757962,2.087463611925,5.735259137696
    ));
#403 = ORIENTED_EDGE('',*,*,#404,.F.);
#404 = EDGE_CURVE('',#405,#388,#407,.T.);
#405 = VERTEX_POINT('',#406);
#406 = CARTESIAN_POINT('',(14.354394904459,1.43357338122,3.938710494033)
  );
#407 = B_SPLINE_CURVE_WITH_KNOTS('',5,(#408,#409,#410,#411,#412,#413,
    #414,#415,#416,#417,#418,#419,#420,#421),.UNSPECIFIED.,.F.,.F.,(6,4,
    4,6),(0.,0.220101921606,0.64039840219,1.),.UNSPECIFIED.);
#408 = CARTESIAN_POINT('',(14.354394904459,1.43357338122,3.938710494033)
  );
#409 = CARTESIAN_POINT('',(14.399363169959,1.43357338122,3.938710494033)
  );
#410 = CARTESIAN_POINT('',(14.443859668106,1.434136071147,3.940256471902
    ));
#411 = CARTESIAN_POINT('',(14.487809696825,1.43528924441,3.943424789401)
  );
#412 = CARTESIAN_POINT('',(14.531128499506,1.437059148648,3.94828756133)
  );
#413 = CARTESIAN_POINT('',(14.65506680691,1.444062632167,3.967529474157)
  );
#414 = CARTESIAN_POINT('',(14.73379487837,1.45098345965,3.98654429139));
#415 = CARTESIAN_POINT('',(14.8092327261,1.460370073876,4.012333802022)
  );
#416 = CARTESIAN_POINT('',(14.880733913978,1.472281087873,4.045059044021
    ));
#417 = CARTESIAN_POINT('',(15.005189962613,1.498867576891,4.118104822261
    ));
#418 = CARTESIAN_POINT('',(15.059346733735,1.512898569369,4.156654657265
    ));
#419 = CARTESIAN_POINT('',(15.109968032575,1.528637372011,4.199896662136
    ));
#420 = CARTESIAN_POINT('',(15.156936173127,1.545954840656,4.2474760162)
  );
#421 = CARTESIAN_POINT('',(15.20025477707,1.564688364402,4.298945949678)
  );
#422 = ORIENTED_EDGE('',*,*,#423,.F.);
#423 = EDGE_CURVE('',#424,#405,#426,.T.);
#424 = VERTEX_POINT('',#425);
#425 = CARTESIAN_POINT('',(13.475414012739,1.577352549752,4.333740512962
    ));
#426 = B_SPLINE_CURVE_WITH_KNOTS('',5,(#427,#428,#429,#430,#431,#432,
    #433,#434,#435,#436,#437,#438,#439,#440),.UNSPECIFIED.,.F.,.F.,(6,4,
    4,6),(0.,0.479237207201,0.828005819476,1.),.UNSPECIFIED.);
#427 = CARTESIAN_POINT('',(13.475414012739,1.577352549752,4.333740512962
    ));
#428 = CARTESIAN_POINT('',(13.537428332885,1.550637479525,4.260341460756
    ));
#429 = CARTESIAN_POINT('',(13.605450021187,1.526402776067,4.193757160237
    ));
#430 = CARTESIAN_POINT('',(13.679563445473,1.505082578495,4.135180398829
    ));
#431 = CARTESIAN_POINT('',(13.759546185734,1.487051273304,4.085639794973
    ));
#432 = CARTESIAN_POINT('',(13.906400413109,1.461826001036,4.016333929019
    ));
#433 = CARTESIAN_POINT('',(13.970931398632,1.453014883995,3.992125583908
    ));
#434 = CARTESIAN_POINT('',(14.037821407367,1.446072672056,3.973052013363
    ));
#435 = CARTESIAN_POINT('',(14.106697777136,1.440971057599,3.95903544284)
  );
#436 = CARTESIAN_POINT('',(14.21192075434,1.435984464689,3.945334891422)
  );
#437 = CARTESIAN_POINT('',(14.247062957718,1.434766000471,3.941987188496
    ));
#438 = CARTESIAN_POINT('',(14.282550262453,1.433966261062,3.939789922527
    ));
#439 = CARTESIAN_POINT('',(14.318340667249,1.43357338122,3.938710494033)
  );
#440 = CARTESIAN_POINT('',(14.354394904459,1.43357338122,3.938710494033)
  );
#441 = ORIENTED_EDGE('',*,*,#442,.F.);
#442 = EDGE_CURVE('',#443,#424,#445,.T.);
#443 = VERTEX_POINT('',#444);
#444 = CARTESIAN_POINT('',(13.141656050955,2.090135871218,5.742601109765
    ));
#445 = B_SPLINE_CURVE_WITH_KNOTS('',7,(#446,#447,#448,#449,#450,#451,
    #452,#453,#454,#455,#456,#457,#458,#459),.UNSPECIFIED.,.F.,.F.,(8,6,
    8),(0.,0.677229837887,1.),.UNSPECIFIED.);
#446 = CARTESIAN_POINT('',(13.141656050955,2.090135871218,5.742601109765
    ));
#447 = CARTESIAN_POINT('',(13.141656050955,2.034201041802,5.588921428982
    ));
#448 = CARTESIAN_POINT('',(13.146130547362,1.978887290734,5.436948146937
    ));
#449 = CARTESIAN_POINT('',(13.155773038323,1.92422004806,5.286751132106)
  );
#450 = CARTESIAN_POINT('',(13.171519323426,1.870405576148,5.138897085689
    ));
#451 = CARTESIAN_POINT('',(13.194632114691,1.817849155355,4.994499506314
    ));
#452 = CARTESIAN_POINT('',(13.226674443904,1.76714775211,4.855198545764)
  );
#453 = CARTESIAN_POINT('',(13.290579140862,1.696310392896,4.660574500869
    ));
#454 = CARTESIAN_POINT('',(13.313739290258,1.674086508333,4.599514879859
    ));
#455 = CARTESIAN_POINT('',(13.339664876535,1.652607946073,4.540503015048
    ));
#456 = CARTESIAN_POINT('',(13.368592418982,1.632015043426,4.483924480023
    ));
#457 = CARTESIAN_POINT('',(13.400752274243,1.612480115854,4.430252707629
    ));
#458 = CARTESIAN_POINT('',(13.436332009331,1.59419543883,4.380015970384)
  );
#459 = CARTESIAN_POINT('',(13.475414012739,1.577352549752,4.333740512962
    ));
#460 = ORIENTED_EDGE('',*,*,#461,.F.);
#461 = EDGE_CURVE('',#462,#443,#464,.T.);
#462 = VERTEX_POINT('',#463);
#463 = CARTESIAN_POINT('',(13.508535031847,2.61116834094,7.174126055129)
  );
#464 = B_SPLINE_CURVE_WITH_KNOTS('',6,(#465,#466,#467,#468,#469,#470,
    #471,#472,#473,#474,#475,#476,#477,#478,#479,#480,#481),
  .UNSPECIFIED.,.F.,.F.,(7,5,5,7),(0.,0.344421455506,0.881182093307,1.),
  .UNSPECIFIED.);
#465 = CARTESIAN_POINT('',(13.508535031847,2.61116834094,7.174126055129)
  );
#466 = CARTESIAN_POINT('',(13.457250397754,2.588926167294,7.113016185276
    ));
#467 = CARTESIAN_POINT('',(13.411288065868,2.56474901724,7.046590011437)
  );
#468 = CARTESIAN_POINT('',(13.370580130646,2.538924911628,6.97563886439)
  );
#469 = CARTESIAN_POINT('',(13.334792654308,2.511752782852,6.900984054139
    ));
#470 = CARTESIAN_POINT('',(13.303529619003,2.483483214674,6.823314053911
    ));
#471 = CARTESIAN_POINT('',(13.234087384056,2.408827817481,6.618200035882
    ));
#472 = CARTESIAN_POINT('',(13.201824621773,2.361172271462,6.487267499285
    ));
#473 = CARTESIAN_POINT('',(13.177995062606,2.311990228618,6.352140947128
    ));
#474 = CARTESIAN_POINT('',(13.161275533837,2.261754372125,6.214119065765
    ));
#475 = CARTESIAN_POINT('',(13.150607259127,2.21075920541,6.074010996715)
  );
#476 = CARTESIAN_POINT('',(13.143978074693,2.147693819531,5.900740273064
    ));
#477 = CARTESIAN_POINT('',(13.143033561685,2.13623407344,5.869254879446)
  );
#478 = CARTESIAN_POINT('',(13.142337196832,2.124746648804,5.837693439652
    ));
#479 = CARTESIAN_POINT('',(13.141880643841,2.113233388502,5.806061016948
    ));
#480 = CARTESIAN_POINT('',(13.141656050955,2.101695963174,5.774362201378
    ));
#481 = CARTESIAN_POINT('',(13.141656050955,2.090135871218,5.742601109765
    ));
#482 = ORIENTED_EDGE('',*,*,#483,.F.);
#483 = EDGE_CURVE('',#352,#462,#484,.T.);
#484 = B_SPLINE_CURVE_WITH_KNOTS('',5,(#485,#486,#487,#488,#489,#490,
    #491,#492,#493,#494,#495,#496,#497,#498),.UNSPECIFIED.,.F.,.F.,(6,4,
    4,6),(0.,0.220101921606,0.64039840219,1.),.UNSPECIFIED.);
#485 = CARTESIAN_POINT('',(14.354394904459,2.742283324123,7.534361510774
    ));
#486 = CARTESIAN_POINT('',(14.309426638958,2.742283324123,7.534361510774
    ));
#487 = CARTESIAN_POINT('',(14.264930140811,2.741720634195,7.532815532905
    ));
#488 = CARTESIAN_POINT('',(14.220980112092,2.740567460933,7.529647215406
    ));
#489 = CARTESIAN_POINT('',(14.177661309411,2.738797556695,7.524784443477
    ));
#490 = CARTESIAN_POINT('',(14.053723002008,2.731794073176,7.50554253065)
  );
#491 = CARTESIAN_POINT('',(13.974994930547,2.724873245693,7.486527713417
    ));
#492 = CARTESIAN_POINT('',(13.899557082818,2.715486631466,7.460738202785
    ));
#493 = CARTESIAN_POINT('',(13.828055894939,2.70357561747,7.428012960786)
  );
#494 = CARTESIAN_POINT('',(13.703599846304,2.676989128451,7.354967182546
    ));
#495 = CARTESIAN_POINT('',(13.649443075182,2.662958135974,7.316417347542
    ));
#496 = CARTESIAN_POINT('',(13.598821776342,2.647219333331,7.273175342671
    ));
#497 = CARTESIAN_POINT('',(13.55185363579,2.629901864686,7.225595988607)
  );
#498 = CARTESIAN_POINT('',(13.508535031847,2.61116834094,7.174126055129)
  );
#499 = FACE_BOUND('',#500,.T.);
#500 = EDGE_LOOP('',(#501,#511,#519,#534,#542,#554,#573,#581));
#501 = ORIENTED_EDGE('',*,*,#502,.F.);
#502 = EDGE_CURVE('',#503,#505,#507,.T.);
#503 = VERTEX_POINT('',#504);
#504 = CARTESIAN_POINT('',(11.357707006369,1.455880937065,4.));
#505 = VERTEX_POINT('',#506);
#506 = CARTESIAN_POINT('',(12.073630573248,1.455880937065,4.));
#507 = LINE('',#508,#509);
#508 = CARTESIAN_POINT('',(5.536815286624,1.455880937065,4.));
#509 = VECTOR('',#510,1.);
#510 = DIRECTION('',(1.,0.,0.));
#511 = ORIENTED_EDGE('',*,*,#512,.F.);
#512 = EDGE_CURVE('',#513,#503,#515,.T.);
#513 = VERTEX_POINT('',#514);
#514 = CARTESIAN_POINT('',(11.357707006369,2.382109245376,6.544791362346
    ));
#515 = LINE('',#516,#517);
#516 = CARTESIAN_POINT('',(11.357707006369,0.727940468532,2.));
#517 = VECTOR('',#518,1.);
#518 = DIRECTION('',(-0.,-0.342020143326,-0.939692620786));
#519 = ORIENTED_EDGE('',*,*,#520,.F.);
#520 = EDGE_CURVE('',#521,#513,#523,.T.);
#521 = VERTEX_POINT('',#522);
#522 = CARTESIAN_POINT('',(10.432866242038,2.195748205922,6.032768614578
    ));
#523 = B_SPLINE_CURVE_WITH_KNOTS('',5,(#524,#525,#526,#527,#528,#529,
    #530,#531,#532,#533),.UNSPECIFIED.,.F.,.F.,(6,4,6),(0.,
    0.723532752039,1.),.UNSPECIFIED.);
#524 = CARTESIAN_POINT('',(10.432866242038,2.195748205922,6.032768614578
    ));
#525 = CARTESIAN_POINT('',(10.583945478765,2.212873359269,6.079819586705
    ));
#526 = CARTESIAN_POINT('',(10.729924848757,2.233522330948,6.136552170127
    ));
#527 = CARTESIAN_POINT('',(10.869895030258,2.257803848753,6.203265092008
    ));
#528 = CARTESIAN_POINT('',(11.003036398067,2.28572395818,6.279974962205)
  );
#529 = CARTESIAN_POINT('',(11.176754428635,2.329123500893,6.399214225825
    ));
#530 = CARTESIAN_POINT('',(11.223695770138,2.341630760276,6.433577638559
    ));
#531 = CARTESIAN_POINT('',(11.269518120119,2.354638420102,6.469315890211
    ));
#532 = CARTESIAN_POINT('',(11.314195113309,2.368135679869,6.506399306646
    ));
#533 = CARTESIAN_POINT('',(11.357707006369,2.382109245376,6.544791362346
    ));
#534 = ORIENTED_EDGE('',*,*,#535,.F.);
#535 = EDGE_CURVE('',#536,#521,#538,.T.);
#536 = VERTEX_POINT('',#537);
#537 = CARTESIAN_POINT('',(10.432866242038,2.418823764371,6.64566367425)
  );
#538 = LINE('',#539,#540);
#539 = CARTESIAN_POINT('',(10.432866242038,1.097874102961,3.016384307289
    ));
#540 = VECTOR('',#541,1.);
#541 = DIRECTION('',(-0.,-0.342020143326,-0.939692620786));
#542 = ORIENTED_EDGE('',*,*,#543,.F.);
#543 = EDGE_CURVE('',#544,#536,#546,.T.);
#544 = VERTEX_POINT('',#545);
#545 = CARTESIAN_POINT('',(11.04178343949,2.537797395544,6.972541039408)
  );
#546 = B_SPLINE_CURVE_WITH_KNOTS('',6,(#547,#548,#549,#550,#551,#552,
    #553),.UNSPECIFIED.,.F.,.F.,(7,7),(0.,1.),.PIECEWISE_BEZIER_KNOTS.);
#547 = CARTESIAN_POINT('',(11.04178343949,2.537797395544,6.972541039408)
  );
#548 = CARTESIAN_POINT('',(10.938712580522,2.5103242775,6.89705926794));
#549 = CARTESIAN_POINT('',(10.835842591478,2.485461594455,6.828749607688
    ));
#550 = CARTESIAN_POINT('',(10.733414353418,2.463520866936,6.768467954263
    ));
#551 = CARTESIAN_POINT('',(10.631784425006,2.444859708824,6.717196843729
    ));
#552 = CARTESIAN_POINT('',(10.531417933681,2.429855036128,6.675971844309
    ));
#553 = CARTESIAN_POINT('',(10.432866242038,2.418823764371,6.64566367425)
  );
#554 = ORIENTED_EDGE('',*,*,#555,.F.);
#555 = EDGE_CURVE('',#556,#544,#558,.T.);
#556 = VERTEX_POINT('',#557);
#557 = CARTESIAN_POINT('',(11.492738853503,2.742283324123,7.534361510774
    ));
#558 = B_SPLINE_CURVE_WITH_KNOTS('',5,(#559,#560,#561,#562,#563,#564,
    #565,#566,#567,#568,#569,#570,#571,#572),.UNSPECIFIED.,.F.,.F.,(6,4,
    4,6),(0.,7.672019752048E-02,0.533182313786,1.),.UNSPECIFIED.);
#559 = CARTESIAN_POINT('',(11.492738853503,2.742283324123,7.534361510774
    ));
#560 = CARTESIAN_POINT('',(11.488924322325,2.738639373968,7.524349840005
    ));
#561 = CARTESIAN_POINT('',(11.484983545038,2.735012433289,7.514384902388
    ));
#562 = CARTESIAN_POINT('',(11.48091667388,2.731402756931,7.504467398103)
  );
#563 = CARTESIAN_POINT('',(11.476723928289,2.727810590957,7.494598003202
    ));
#564 = CARTESIAN_POINT('',(11.44671280918,2.702969458038,7.426347551436)
  );
#565 = CARTESIAN_POINT('',(11.416573643475,2.682330394408,7.369642190152
    ));
#566 = CARTESIAN_POINT('',(11.3820500315,2.662370786818,7.314803618997)
  );
#567 = CARTESIAN_POINT('',(11.343285437125,2.643125759746,7.261928341682
    ));
#568 = CARTESIAN_POINT('',(11.256713760057,2.605688263102,7.15906966501)
  );
#569 = CARTESIAN_POINT('',(11.20871957865,2.587528785844,7.109176911294)
  );
#570 = CARTESIAN_POINT('',(11.156719589781,2.570160917499,7.061459085194
    ));
#571 = CARTESIAN_POINT('',(11.100981759411,2.553586930406,7.015922429904
    ));
#572 = CARTESIAN_POINT('',(11.04178343949,2.537797395544,6.972541039408)
  );
#573 = ORIENTED_EDGE('',*,*,#574,.F.);
#574 = EDGE_CURVE('',#575,#556,#577,.T.);
#575 = VERTEX_POINT('',#576);
#576 = CARTESIAN_POINT('',(12.073630573248,2.742283324123,7.534361510774
    ));
#577 = LINE('',#578,#579);
#578 = CARTESIAN_POINT('',(5.246369426752,2.742283324123,7.534361510774)
  );
#579 = VECTOR('',#580,1.);
#580 = DIRECTION('',(-1.,0.,0.));
#581 = ORIENTED_EDGE('',*,*,#582,.F.);
#582 = EDGE_CURVE('',#505,#575,#583,.T.);
#583 = LINE('',#584,#585);
#584 = CARTESIAN_POINT('',(12.073630573248,1.371141662061,3.767180755387
    ));
#585 = VECTOR('',#586,1.);
#586 = DIRECTION('',(0.,0.342020143326,0.939692620786));
#587 = PLANE('',#588);
#588 = AXIS2_PLACEMENT_3D('',#589,#590,#591);
#589 = CARTESIAN_POINT('',(-1.,0.,0.));
#590 = DIRECTION('',(0.,-0.939692620786,0.342020143326));
#591 = DIRECTION('',(0.,0.342020143326,0.939692620786));
#592 = ADVANCED_FACE('',(#593),#604,.T.);
#593 = FACE_BOUND('',#594,.T.);
#594 = EDGE_LOOP('',(#595,#596,#597,#598));
#595 = ORIENTED_EDGE('',*,*,#323,.T.);
#596 = ORIENTED_EDGE('',*,*,#236,.T.);
#597 = ORIENTED_EDGE('',*,*,#134,.F.);
#598 = ORIENTED_EDGE('',*,*,#599,.F.);
#599 = EDGE_CURVE('',#316,#127,#600,.T.);
#600 = LINE('',#601,#602);
#601 = CARTESIAN_POINT('',(4.,12.75,-1.));
#602 = VECTOR('',#603,1.);
#603 = DIRECTION('',(0.,0.,1.));
#604 = PLANE('',#605);
#605 = AXIS2_PLACEMENT_3D('',#606,#607,#608);
#606 = CARTESIAN_POINT('',(4.,6.45,-1.));
#607 = DIRECTION('',(-1.,0.,0.));
#608 = DIRECTION('',(0.,1.,0.));
#609 = ADVANCED_FACE('',(#610),#621,.T.);
#610 = FACE_BOUND('',#611,.T.);
#611 = EDGE_LOOP('',(#612,#613,#614,#615));
#612 = ORIENTED_EDGE('',*,*,#315,.T.);
#613 = ORIENTED_EDGE('',*,*,#599,.T.);
#614 = ORIENTED_EDGE('',*,*,#126,.F.);
#615 = ORIENTED_EDGE('',*,*,#616,.F.);
#616 = EDGE_CURVE('',#308,#119,#617,.T.);
#617 = LINE('',#618,#619);
#618 = CARTESIAN_POINT('',(0.,11.75,-1.));
#619 = VECTOR('',#620,1.);
#620 = DIRECTION('',(0.,0.,1.));
#621 = PLANE('',#622);
#622 = AXIS2_PLACEMENT_3D('',#623,#624,#625);
#623 = CARTESIAN_POINT('',(4.,12.75,-1.));
#624 = DIRECTION('',(0.242535625036,-0.970142500145,0.));
#625 = DIRECTION('',(-0.970142500145,-0.242535625036,0.));
#626 = ADVANCED_FACE('',(#627),#638,.F.);
#627 = FACE_BOUND('',#628,.F.);
#628 = EDGE_LOOP('',(#629,#630,#631,#632));
#629 = ORIENTED_EDGE('',*,*,#118,.F.);
#630 = ORIENTED_EDGE('',*,*,#616,.F.);
#631 = ORIENTED_EDGE('',*,*,#307,.T.);
#632 = ORIENTED_EDGE('',*,*,#633,.T.);
#633 = EDGE_CURVE('',#300,#111,#634,.T.);
#634 = LINE('',#635,#636);
#635 = CARTESIAN_POINT('',(0.,32.,0.));
#636 = VECTOR('',#637,1.);
#637 = DIRECTION('',(0.,0.,1.));
#638 = PLANE('',#639);
#639 = AXIS2_PLACEMENT_3D('',#640,#641,#642);
#640 = CARTESIAN_POINT('',(0.,0.,0.));
#641 = DIRECTION('',(1.,0.,0.));
#642 = DIRECTION('',(0.,0.,1.));
#643 = ADVANCED_FACE('',(#644),#655,.T.);
#644 = FACE_BOUND('',#645,.T.);
#645 = EDGE_LOOP('',(#646,#647,#648,#649));
#646 = ORIENTED_EDGE('',*,*,#299,.F.);
#647 = ORIENTED_EDGE('',*,*,#633,.T.);
#648 = ORIENTED_EDGE('',*,*,#110,.T.);
#649 = ORIENTED_EDGE('',*,*,#650,.F.);
#650 = EDGE_CURVE('',#292,#103,#651,.T.);
#651 = LINE('',#652,#653);
#652 = CARTESIAN_POINT('',(26.,32.,0.));
#653 = VECTOR('',#654,1.);
#654 = DIRECTION('',(0.,0.,1.));
#655 = PLANE('',#656);
#656 = AXIS2_PLACEMENT_3D('',#657,#658,#659);
#657 = CARTESIAN_POINT('',(0.,32.,0.));
#658 = DIRECTION('',(0.,1.,0.));
#659 = DIRECTION('',(0.,0.,1.));
#660 = ADVANCED_FACE('',(#661),#672,.T.);
#661 = FACE_BOUND('',#662,.T.);
#662 = EDGE_LOOP('',(#663,#664,#670,#671));
#663 = ORIENTED_EDGE('',*,*,#102,.F.);
#664 = ORIENTED_EDGE('',*,*,#665,.T.);
#665 = EDGE_CURVE('',#95,#284,#666,.T.);
#666 = LINE('',#667,#668);
#667 = CARTESIAN_POINT('',(26.,11.624390243902,0.));
#668 = VECTOR('',#669,1.);
#669 = DIRECTION('',(0.,0.,-1.));
#670 = ORIENTED_EDGE('',*,*,#291,.T.);
#671 = ORIENTED_EDGE('',*,*,#650,.T.);
#672 = PLANE('',#673);
#673 = AXIS2_PLACEMENT_3D('',#674,#675,#676);
#674 = CARTESIAN_POINT('',(26.,0.,0.));
#675 = DIRECTION('',(1.,0.,0.));
#676 = DIRECTION('',(0.,0.,1.));
#677 = ADVANCED_FACE('',(#678),#689,.T.);
#678 = FACE_BOUND('',#679,.T.);
#679 = EDGE_LOOP('',(#680,#681,#687,#688));
#680 = ORIENTED_EDGE('',*,*,#78,.T.);
#681 = ORIENTED_EDGE('',*,*,#682,.T.);
#682 = EDGE_CURVE('',#71,#95,#683,.T.);
#683 = LINE('',#684,#685);
#684 = CARTESIAN_POINT('',(26.,0.,10.));
#685 = VECTOR('',#686,1.);
#686 = DIRECTION('',(0.,1.,0.));
#687 = ORIENTED_EDGE('',*,*,#94,.T.);
#688 = ORIENTED_EDGE('',*,*,#86,.T.);
#689 = PLANE('',#690);
#690 = AXIS2_PLACEMENT_3D('',#691,#692,#693);
#691 = CARTESIAN_POINT('',(0.,0.,10.));
#692 = DIRECTION('',(0.,0.,1.));
#693 = DIRECTION('',(1.,0.,0.));
#694 = ADVANCED_FACE('',(#695),#706,.T.);
#695 = FACE_BOUND('',#696,.T.);
#696 = EDGE_LOOP('',(#697,#698,#699,#700));
#697 = ORIENTED_EDGE('',*,*,#70,.F.);
#698 = ORIENTED_EDGE('',*,*,#340,.T.);
#699 = ORIENTED_EDGE('',*,*,#259,.T.);
#700 = ORIENTED_EDGE('',*,*,#701,.T.);
#701 = EDGE_CURVE('',#260,#71,#702,.T.);
#702 = LINE('',#703,#704);
#703 = CARTESIAN_POINT('',(26.,7.575609756098,0.));
#704 = VECTOR('',#705,1.);
#705 = DIRECTION('',(0.,0.,1.));
#706 = PLANE('',#707);
#707 = AXIS2_PLACEMENT_3D('',#708,#709,#710);
#708 = CARTESIAN_POINT('',(26.,0.,0.));
#709 = DIRECTION('',(1.,0.,0.));
#710 = DIRECTION('',(0.,0.,1.));
#711 = ADVANCED_FACE('',(#712),#738,.T.);
#712 = FACE_BOUND('',#713,.T.);
#713 = EDGE_LOOP('',(#714,#722,#723,#731));
#714 = ORIENTED_EDGE('',*,*,#715,.F.);
#715 = EDGE_CURVE('',#151,#716,#718,.T.);
#716 = VERTEX_POINT('',#717);
#717 = CARTESIAN_POINT('',(8.1,25.34,20.5));
#718 = LINE('',#719,#720);
#719 = CARTESIAN_POINT('',(8.1,25.34,9.9));
#720 = VECTOR('',#721,1.);
#721 = DIRECTION('',(0.,0.,1.));
#722 = ORIENTED_EDGE('',*,*,#150,.T.);
#723 = ORIENTED_EDGE('',*,*,#724,.T.);
#724 = EDGE_CURVE('',#153,#725,#727,.T.);
#725 = VERTEX_POINT('',#726);
#726 = CARTESIAN_POINT('',(7.5,24.74,20.5));
#727 = LINE('',#728,#729);
#728 = CARTESIAN_POINT('',(7.5,24.74,9.9));
#729 = VECTOR('',#730,1.);
#730 = DIRECTION('',(0.,0.,1.));
#731 = ORIENTED_EDGE('',*,*,#732,.F.);
#732 = EDGE_CURVE('',#716,#725,#733,.T.);
#733 = CIRCLE('',#734,0.6);
#734 = AXIS2_PLACEMENT_3D('',#735,#736,#737);
#735 = CARTESIAN_POINT('',(8.1,24.74,20.5));
#736 = DIRECTION('',(0.,-0.,1.));
#737 = DIRECTION('',(0.,1.,0.));
#738 = CYLINDRICAL_SURFACE('',#739,0.6);
#739 = AXIS2_PLACEMENT_3D('',#740,#741,#742);
#740 = CARTESIAN_POINT('',(8.1,24.74,9.9));
#741 = DIRECTION('',(0.,0.,1.));
#742 = DIRECTION('',(0.,1.,0.));
#743 = ADVANCED_FACE('',(#744),#762,.F.);
#744 = FACE_BOUND('',#745,.F.);
#745 = EDGE_LOOP('',(#746,#747,#755,#761));
#746 = ORIENTED_EDGE('',*,*,#161,.T.);
#747 = ORIENTED_EDGE('',*,*,#748,.T.);
#748 = EDGE_CURVE('',#162,#749,#751,.T.);
#749 = VERTEX_POINT('',#750);
#750 = CARTESIAN_POINT('',(17.9,25.34,20.5));
#751 = LINE('',#752,#753);
#752 = CARTESIAN_POINT('',(17.9,25.34,9.9));
#753 = VECTOR('',#754,1.);
#754 = DIRECTION('',(0.,0.,1.));
#755 = ORIENTED_EDGE('',*,*,#756,.T.);
#756 = EDGE_CURVE('',#749,#716,#757,.T.);
#757 = LINE('',#758,#759);
#758 = CARTESIAN_POINT('',(17.9,25.34,20.5));
#759 = VECTOR('',#760,1.);
#760 = DIRECTION('',(-1.,0.,0.));
#761 = ORIENTED_EDGE('',*,*,#715,.F.);
#762 = PLANE('',#763);
#763 = AXIS2_PLACEMENT_3D('',#764,#765,#766);
#764 = CARTESIAN_POINT('',(18.5,25.34,9.9));
#765 = DIRECTION('',(0.,-1.,0.));
#766 = DIRECTION('',(-1.,0.,0.));
#767 = ADVANCED_FACE('',(#768),#786,.F.);
#768 = FACE_BOUND('',#769,.F.);
#769 = EDGE_LOOP('',(#770,#771,#772,#780));
#770 = ORIENTED_EDGE('',*,*,#212,.T.);
#771 = ORIENTED_EDGE('',*,*,#724,.T.);
#772 = ORIENTED_EDGE('',*,*,#773,.T.);
#773 = EDGE_CURVE('',#725,#774,#776,.T.);
#774 = VERTEX_POINT('',#775);
#775 = CARTESIAN_POINT('',(7.5,14.94,20.5));
#776 = LINE('',#777,#778);
#777 = CARTESIAN_POINT('',(7.5,24.74,20.5));
#778 = VECTOR('',#779,1.);
#779 = DIRECTION('',(0.,-1.,0.));
#780 = ORIENTED_EDGE('',*,*,#781,.F.);
#781 = EDGE_CURVE('',#204,#774,#782,.T.);
#782 = LINE('',#783,#784);
#783 = CARTESIAN_POINT('',(7.5,14.94,9.9));
#784 = VECTOR('',#785,1.);
#785 = DIRECTION('',(0.,0.,1.));
#786 = PLANE('',#787);
#787 = AXIS2_PLACEMENT_3D('',#788,#789,#790);
#788 = CARTESIAN_POINT('',(7.5,25.34,9.9));
#789 = DIRECTION('',(1.,0.,0.));
#790 = DIRECTION('',(0.,-1.,0.));
#791 = ADVANCED_FACE('',(#792),#811,.T.);
#792 = FACE_BOUND('',#793,.F.);
#793 = EDGE_LOOP('',(#794,#795,#796,#804));
#794 = ORIENTED_EDGE('',*,*,#748,.F.);
#795 = ORIENTED_EDGE('',*,*,#169,.F.);
#796 = ORIENTED_EDGE('',*,*,#797,.T.);
#797 = EDGE_CURVE('',#170,#798,#800,.T.);
#798 = VERTEX_POINT('',#799);
#799 = CARTESIAN_POINT('',(18.5,24.74,20.5));
#800 = LINE('',#801,#802);
#801 = CARTESIAN_POINT('',(18.5,24.74,9.9));
#802 = VECTOR('',#803,1.);
#803 = DIRECTION('',(0.,0.,1.));
#804 = ORIENTED_EDGE('',*,*,#805,.T.);
#805 = EDGE_CURVE('',#798,#749,#806,.T.);
#806 = CIRCLE('',#807,0.6);
#807 = AXIS2_PLACEMENT_3D('',#808,#809,#810);
#808 = CARTESIAN_POINT('',(17.9,24.74,20.5));
#809 = DIRECTION('',(0.,0.,1.));
#810 = DIRECTION('',(1.,0.,0.));
#811 = CYLINDRICAL_SURFACE('',#812,0.6);
#812 = AXIS2_PLACEMENT_3D('',#813,#814,#815);
#813 = CARTESIAN_POINT('',(17.9,24.74,9.9));
#814 = DIRECTION('',(0.,0.,1.));
#815 = DIRECTION('',(0.,1.,0.));
#816 = ADVANCED_FACE('',(#817),#836,.T.);
#817 = FACE_BOUND('',#818,.T.);
#818 = EDGE_LOOP('',(#819,#820,#821,#829));
#819 = ORIENTED_EDGE('',*,*,#781,.F.);
#820 = ORIENTED_EDGE('',*,*,#203,.T.);
#821 = ORIENTED_EDGE('',*,*,#822,.T.);
#822 = EDGE_CURVE('',#196,#823,#825,.T.);
#823 = VERTEX_POINT('',#824);
#824 = CARTESIAN_POINT('',(8.1,14.34,20.5));
#825 = LINE('',#826,#827);
#826 = CARTESIAN_POINT('',(8.1,14.34,9.9));
#827 = VECTOR('',#828,1.);
#828 = DIRECTION('',(0.,0.,1.));
#829 = ORIENTED_EDGE('',*,*,#830,.F.);
#830 = EDGE_CURVE('',#774,#823,#831,.T.);
#831 = CIRCLE('',#832,0.6);
#832 = AXIS2_PLACEMENT_3D('',#833,#834,#835);
#833 = CARTESIAN_POINT('',(8.1,14.94,20.5));
#834 = DIRECTION('',(0.,0.,1.));
#835 = DIRECTION('',(-1.,0.,0.));
#836 = CYLINDRICAL_SURFACE('',#837,0.6);
#837 = AXIS2_PLACEMENT_3D('',#838,#839,#840);
#838 = CARTESIAN_POINT('',(8.1,14.94,9.9));
#839 = DIRECTION('',(0.,0.,1.));
#840 = DIRECTION('',(-1.,0.,0.));
#841 = ADVANCED_FACE('',(#842),#860,.F.);
#842 = FACE_BOUND('',#843,.F.);
#843 = EDGE_LOOP('',(#844,#845,#853,#859));
#844 = ORIENTED_EDGE('',*,*,#178,.T.);
#845 = ORIENTED_EDGE('',*,*,#846,.T.);
#846 = EDGE_CURVE('',#179,#847,#849,.T.);
#847 = VERTEX_POINT('',#848);
#848 = CARTESIAN_POINT('',(18.5,14.94,20.5));
#849 = LINE('',#850,#851);
#850 = CARTESIAN_POINT('',(18.5,14.94,9.9));
#851 = VECTOR('',#852,1.);
#852 = DIRECTION('',(0.,0.,1.));
#853 = ORIENTED_EDGE('',*,*,#854,.T.);
#854 = EDGE_CURVE('',#847,#798,#855,.T.);
#855 = LINE('',#856,#857);
#856 = CARTESIAN_POINT('',(18.5,14.94,20.5));
#857 = VECTOR('',#858,1.);
#858 = DIRECTION('',(0.,1.,0.));
#859 = ORIENTED_EDGE('',*,*,#797,.F.);
#860 = PLANE('',#861);
#861 = AXIS2_PLACEMENT_3D('',#862,#863,#864);
#862 = CARTESIAN_POINT('',(18.5,14.34,9.9));
#863 = DIRECTION('',(-1.,0.,0.));
#864 = DIRECTION('',(0.,1.,0.));
#865 = ADVANCED_FACE('',(#866),#884,.F.);
#866 = FACE_BOUND('',#867,.F.);
#867 = EDGE_LOOP('',(#868,#869,#870,#878));
#868 = ORIENTED_EDGE('',*,*,#195,.T.);
#869 = ORIENTED_EDGE('',*,*,#822,.T.);
#870 = ORIENTED_EDGE('',*,*,#871,.T.);
#871 = EDGE_CURVE('',#823,#872,#874,.T.);
#872 = VERTEX_POINT('',#873);
#873 = CARTESIAN_POINT('',(17.9,14.34,20.5));
#874 = LINE('',#875,#876);
#875 = CARTESIAN_POINT('',(8.1,14.34,20.5));
#876 = VECTOR('',#877,1.);
#877 = DIRECTION('',(1.,0.,0.));
#878 = ORIENTED_EDGE('',*,*,#879,.F.);
#879 = EDGE_CURVE('',#187,#872,#880,.T.);
#880 = LINE('',#881,#882);
#881 = CARTESIAN_POINT('',(17.9,14.34,9.9));
#882 = VECTOR('',#883,1.);
#883 = DIRECTION('',(0.,0.,1.));
#884 = PLANE('',#885);
#885 = AXIS2_PLACEMENT_3D('',#886,#887,#888);
#886 = CARTESIAN_POINT('',(7.5,14.34,9.9));
#887 = DIRECTION('',(0.,1.,0.));
#888 = DIRECTION('',(1.,0.,0.));
#889 = ADVANCED_FACE('',(#890),#902,.T.);
#890 = FACE_BOUND('',#891,.T.);
#891 = EDGE_LOOP('',(#892,#893,#894,#895));
#892 = ORIENTED_EDGE('',*,*,#879,.F.);
#893 = ORIENTED_EDGE('',*,*,#186,.T.);
#894 = ORIENTED_EDGE('',*,*,#846,.T.);
#895 = ORIENTED_EDGE('',*,*,#896,.F.);
#896 = EDGE_CURVE('',#872,#847,#897,.T.);
#897 = CIRCLE('',#898,0.6);
#898 = AXIS2_PLACEMENT_3D('',#899,#900,#901);
#899 = CARTESIAN_POINT('',(17.9,14.94,20.5));
#900 = DIRECTION('',(-0.,0.,1.));
#901 = DIRECTION('',(0.,-1.,0.));
#902 = CYLINDRICAL_SURFACE('',#903,0.6);
#903 = AXIS2_PLACEMENT_3D('',#904,#905,#906);
#904 = CARTESIAN_POINT('',(17.9,14.94,9.9));
#905 = DIRECTION('',(0.,0.,1.));
#906 = DIRECTION('',(0.,-1.,0.));
#907 = ADVANCED_FACE('',(#908),#919,.F.);
#908 = FACE_BOUND('',#909,.F.);
#909 = EDGE_LOOP('',(#910,#911,#917,#918));
#910 = ORIENTED_EDGE('',*,*,#267,.T.);
#911 = ORIENTED_EDGE('',*,*,#912,.T.);
#912 = EDGE_CURVE('',#260,#284,#913,.T.);
#913 = LINE('',#914,#915);
#914 = CARTESIAN_POINT('',(26.,0.,0.));
#915 = VECTOR('',#916,1.);
#916 = DIRECTION('',(0.,1.,0.));
#917 = ORIENTED_EDGE('',*,*,#283,.T.);
#918 = ORIENTED_EDGE('',*,*,#275,.T.);
#919 = PLANE('',#920);
#920 = AXIS2_PLACEMENT_3D('',#921,#922,#923);
#921 = CARTESIAN_POINT('',(0.,0.,0.));
#922 = DIRECTION('',(0.,0.,1.));
#923 = DIRECTION('',(1.,0.,0.));
#924 = ADVANCED_FACE('',(#925),#950,.T.);
#925 = FACE_BOUND('',#926,.T.);
#926 = EDGE_LOOP('',(#927,#928,#936,#944));
#927 = ORIENTED_EDGE('',*,*,#349,.T.);
#928 = ORIENTED_EDGE('',*,*,#929,.T.);
#929 = EDGE_CURVE('',#352,#930,#932,.T.);
#930 = VERTEX_POINT('',#931);
#931 = CARTESIAN_POINT('',(14.354394904459,2.178467751651,7.73957359677)
  );
#932 = LINE('',#933,#934);
#933 = CARTESIAN_POINT('',(14.354394904459,2.93022184828,7.465957482109)
  );
#934 = VECTOR('',#935,1.);
#935 = DIRECTION('',(0.,-0.939692620786,0.342020143326));
#936 = ORIENTED_EDGE('',*,*,#937,.T.);
#937 = EDGE_CURVE('',#930,#938,#940,.T.);
#938 = VERTEX_POINT('',#939);
#939 = CARTESIAN_POINT('',(15.202802547771,2.045609990668,7.37454989847)
  );
#940 = B_SPLINE_CURVE_WITH_KNOTS('',2,(#941,#942,#943),.UNSPECIFIED.,.F.
  ,.F.,(3,3),(0.,1.),.PIECEWISE_BEZIER_KNOTS.);
#941 = CARTESIAN_POINT('',(14.354394904459,2.178467751651,7.73957359677)
  );
#942 = CARTESIAN_POINT('',(14.897070063694,2.178467751651,7.73957359677)
  );
#943 = CARTESIAN_POINT('',(15.202802547771,2.045609990668,7.37454989847)
  );
#944 = ORIENTED_EDGE('',*,*,#945,.F.);
#945 = EDGE_CURVE('',#350,#938,#946,.T.);
#946 = LINE('',#947,#948);
#947 = CARTESIAN_POINT('',(15.202802547771,2.797364087297,7.10093378381)
  );
#948 = VECTOR('',#949,1.);
#949 = DIRECTION('',(0.,-0.939692620786,0.342020143326));
#950 = SURFACE_OF_LINEAR_EXTRUSION('',#951,#955);
#951 = B_SPLINE_CURVE_WITH_KNOTS('',2,(#952,#953,#954),.UNSPECIFIED.,.F.
  ,.F.,(3,3),(0.,1.),.PIECEWISE_BEZIER_KNOTS.);
#952 = CARTESIAN_POINT('',(14.354394904459,2.93022184828,7.465957482109)
  );
#953 = CARTESIAN_POINT('',(14.897070063694,2.93022184828,7.465957482109)
  );
#954 = CARTESIAN_POINT('',(15.202802547771,2.797364087297,7.10093378381)
  );
#955 = VECTOR('',#956,1.);
#956 = DIRECTION('',(-0.,0.939692620786,-0.342020143326));
#957 = ADVANCED_FACE('',(#958),#976,.T.);
#958 = FACE_BOUND('',#959,.T.);
#959 = EDGE_LOOP('',(#960,#961,#969,#975));
#960 = ORIENTED_EDGE('',*,*,#483,.T.);
#961 = ORIENTED_EDGE('',*,*,#962,.T.);
#962 = EDGE_CURVE('',#462,#963,#965,.T.);
#963 = VERTEX_POINT('',#964);
#964 = CARTESIAN_POINT('',(13.508535031847,2.047352768469,7.379338141124
    ));
#965 = LINE('',#966,#967);
#966 = CARTESIAN_POINT('',(13.508535031847,2.799106865098,7.105722026463
    ));
#967 = VECTOR('',#968,1.);
#968 = DIRECTION('',(0.,-0.939692620786,0.342020143326));
#969 = ORIENTED_EDGE('',*,*,#970,.T.);
#970 = EDGE_CURVE('',#963,#930,#971,.T.);
#971 = B_SPLINE_CURVE_WITH_KNOTS('',2,(#972,#973,#974),.UNSPECIFIED.,.F.
  ,.F.,(3,3),(0.,1.),.PIECEWISE_BEZIER_KNOTS.);
#972 = CARTESIAN_POINT('',(13.508535031847,2.047352768469,7.379338141124
    ));
#973 = CARTESIAN_POINT('',(13.811719745223,2.178467751651,7.73957359677)
  );
#974 = CARTESIAN_POINT('',(14.354394904459,2.178467751651,7.73957359677)
  );
#975 = ORIENTED_EDGE('',*,*,#929,.F.);
#976 = SURFACE_OF_LINEAR_EXTRUSION('',#977,#981);
#977 = B_SPLINE_CURVE_WITH_KNOTS('',2,(#978,#979,#980),.UNSPECIFIED.,.F.
  ,.F.,(3,3),(0.,1.),.PIECEWISE_BEZIER_KNOTS.);
#978 = CARTESIAN_POINT('',(13.508535031847,2.799106865098,7.105722026463
    ));
#979 = CARTESIAN_POINT('',(13.811719745223,2.93022184828,7.465957482109)
  );
#980 = CARTESIAN_POINT('',(14.354394904459,2.93022184828,7.465957482109)
  );
#981 = VECTOR('',#982,1.);
#982 = DIRECTION('',(-0.,0.939692620786,-0.342020143326));
#983 = ADVANCED_FACE('',(#984),#1002,.T.);
#984 = FACE_BOUND('',#985,.T.);
#985 = EDGE_LOOP('',(#986,#987,#995,#1001));
#986 = ORIENTED_EDGE('',*,*,#461,.T.);
#987 = ORIENTED_EDGE('',*,*,#988,.T.);
#988 = EDGE_CURVE('',#443,#989,#991,.T.);
#989 = VERTEX_POINT('',#990);
#990 = CARTESIAN_POINT('',(13.141656050955,1.526320298747,5.94781319576)
  );
#991 = LINE('',#992,#993);
#992 = CARTESIAN_POINT('',(13.141656050955,2.278074395376,5.6741970811)
  );
#993 = VECTOR('',#994,1.);
#994 = DIRECTION('',(0.,-0.939692620786,0.342020143326));
#995 = ORIENTED_EDGE('',*,*,#996,.T.);
#996 = EDGE_CURVE('',#989,#963,#997,.T.);
#997 = B_SPLINE_CURVE_WITH_KNOTS('',2,(#998,#999,#1000),.UNSPECIFIED.,
  .F.,.F.,(3,3),(0.,1.),.PIECEWISE_BEZIER_KNOTS.);
#998 = CARTESIAN_POINT('',(13.141656050955,1.526320298747,5.94781319576)
  );
#999 = CARTESIAN_POINT('',(13.141656050955,1.888237155294,6.942171586842
    ));
#1000 = CARTESIAN_POINT('',(13.508535031847,2.047352768469,
    7.379338141124));
#1001 = ORIENTED_EDGE('',*,*,#962,.F.);
#1002 = SURFACE_OF_LINEAR_EXTRUSION('',#1003,#1007);
#1003 = B_SPLINE_CURVE_WITH_KNOTS('',2,(#1004,#1005,#1006),
  .UNSPECIFIED.,.F.,.F.,(3,3),(0.,1.),.PIECEWISE_BEZIER_KNOTS.);
#1004 = CARTESIAN_POINT('',(13.141656050955,2.278074395376,5.6741970811)
  );
#1005 = CARTESIAN_POINT('',(13.141656050955,2.639991251922,
    6.668555472182));
#1006 = CARTESIAN_POINT('',(13.508535031847,2.799106865098,
    7.105722026463));
#1007 = VECTOR('',#1008,1.);
#1008 = DIRECTION('',(-0.,0.939692620786,-0.342020143326));
#1009 = ADVANCED_FACE('',(#1010),#1028,.T.);
#1010 = FACE_BOUND('',#1011,.T.);
#1011 = EDGE_LOOP('',(#1012,#1013,#1021,#1027));
#1012 = ORIENTED_EDGE('',*,*,#442,.T.);
#1013 = ORIENTED_EDGE('',*,*,#1014,.T.);
#1014 = EDGE_CURVE('',#424,#1015,#1017,.T.);
#1015 = VERTEX_POINT('',#1016);
#1016 = CARTESIAN_POINT('',(13.475414012739,1.01353697728,4.538952598957
    ));
#1017 = LINE('',#1018,#1019);
#1018 = CARTESIAN_POINT('',(13.475414012739,1.765291073909,
    4.265336484297));
#1019 = VECTOR('',#1020,1.);
#1020 = DIRECTION('',(0.,-0.939692620786,0.342020143326));
#1021 = ORIENTED_EDGE('',*,*,#1022,.T.);
#1022 = EDGE_CURVE('',#1015,#989,#1023,.T.);
#1023 = B_SPLINE_CURVE_WITH_KNOTS('',2,(#1024,#1025,#1026),
  .UNSPECIFIED.,.F.,.F.,(3,3),(0.,1.),.PIECEWISE_BEZIER_KNOTS.);
#1024 = CARTESIAN_POINT('',(13.475414012739,1.01353697728,4.538952598957
    ));
#1025 = CARTESIAN_POINT('',(13.141656050955,1.157374238405,
    4.934142225975));
#1026 = CARTESIAN_POINT('',(13.141656050955,1.526320298747,5.94781319576
    ));
#1027 = ORIENTED_EDGE('',*,*,#988,.F.);
#1028 = SURFACE_OF_LINEAR_EXTRUSION('',#1029,#1033);
#1029 = B_SPLINE_CURVE_WITH_KNOTS('',2,(#1030,#1031,#1032),
  .UNSPECIFIED.,.F.,.F.,(3,3),(0.,1.),.PIECEWISE_BEZIER_KNOTS.);
#1030 = CARTESIAN_POINT('',(13.475414012739,1.765291073909,
    4.265336484297));
#1031 = CARTESIAN_POINT('',(13.141656050955,1.909128335034,
    4.660526111314));
#1032 = CARTESIAN_POINT('',(13.141656050955,2.278074395376,5.6741970811)
  );
#1033 = VECTOR('',#1034,1.);
#1034 = DIRECTION('',(-0.,0.939692620786,-0.342020143326));
#1035 = ADVANCED_FACE('',(#1036),#1054,.T.);
#1036 = FACE_BOUND('',#1037,.T.);
#1037 = EDGE_LOOP('',(#1038,#1039,#1047,#1053));
#1038 = ORIENTED_EDGE('',*,*,#423,.T.);
#1039 = ORIENTED_EDGE('',*,*,#1040,.T.);
#1040 = EDGE_CURVE('',#405,#1041,#1043,.T.);
#1041 = VERTEX_POINT('',#1042);
#1042 = CARTESIAN_POINT('',(14.354394904459,0.869757808748,
    4.143922580028));
#1043 = LINE('',#1044,#1045);
#1044 = CARTESIAN_POINT('',(14.354394904459,1.621511905377,
    3.870306465368));
#1045 = VECTOR('',#1046,1.);
#1046 = DIRECTION('',(0.,-0.939692620786,0.342020143326));
#1047 = ORIENTED_EDGE('',*,*,#1048,.T.);
#1048 = EDGE_CURVE('',#1041,#1015,#1049,.T.);
#1049 = B_SPLINE_CURVE_WITH_KNOTS('',2,(#1050,#1051,#1052),
  .UNSPECIFIED.,.F.,.F.,(3,3),(0.,1.),.PIECEWISE_BEZIER_KNOTS.);
#1050 = CARTESIAN_POINT('',(14.354394904459,0.869757808748,
    4.143922580028));
#1051 = CARTESIAN_POINT('',(13.809171974522,0.869757808748,
    4.143922580028));
#1052 = CARTESIAN_POINT('',(13.475414012739,1.01353697728,4.538952598957
    ));
#1053 = ORIENTED_EDGE('',*,*,#1014,.F.);
#1054 = SURFACE_OF_LINEAR_EXTRUSION('',#1055,#1059);
#1055 = B_SPLINE_CURVE_WITH_KNOTS('',2,(#1056,#1057,#1058),
  .UNSPECIFIED.,.F.,.F.,(3,3),(0.,1.),.PIECEWISE_BEZIER_KNOTS.);
#1056 = CARTESIAN_POINT('',(14.354394904459,1.621511905377,
    3.870306465368));
#1057 = CARTESIAN_POINT('',(13.809171974522,1.621511905377,
    3.870306465368));
#1058 = CARTESIAN_POINT('',(13.475414012739,1.765291073909,
    4.265336484297));
#1059 = VECTOR('',#1060,1.);
#1060 = DIRECTION('',(-0.,0.939692620786,-0.342020143326));
#1061 = ADVANCED_FACE('',(#1062),#1080,.T.);
#1062 = FACE_BOUND('',#1063,.T.);
#1063 = EDGE_LOOP('',(#1064,#1065,#1073,#1079));
#1064 = ORIENTED_EDGE('',*,*,#404,.T.);
#1065 = ORIENTED_EDGE('',*,*,#1066,.T.);
#1066 = EDGE_CURVE('',#388,#1067,#1069,.T.);
#1067 = VERTEX_POINT('',#1068);
#1068 = CARTESIAN_POINT('',(15.20025477707,1.000872791931,4.504158035674
    ));
#1069 = LINE('',#1070,#1071);
#1070 = CARTESIAN_POINT('',(15.20025477707,1.752626888559,4.230541921013
    ));
#1071 = VECTOR('',#1072,1.);
#1072 = DIRECTION('',(0.,-0.939692620786,0.342020143326));
#1073 = ORIENTED_EDGE('',*,*,#1074,.T.);
#1074 = EDGE_CURVE('',#1067,#1041,#1075,.T.);
#1075 = B_SPLINE_CURVE_WITH_KNOTS('',2,(#1076,#1077,#1078),
  .UNSPECIFIED.,.F.,.F.,(3,3),(0.,1.),.PIECEWISE_BEZIER_KNOTS.);
#1076 = CARTESIAN_POINT('',(15.20025477707,1.000872791931,4.504158035674
    ));
#1077 = CARTESIAN_POINT('',(14.897070063694,0.869757808748,
    4.143922580028));
#1078 = CARTESIAN_POINT('',(14.354394904459,0.869757808748,
    4.143922580028));
#1079 = ORIENTED_EDGE('',*,*,#1040,.F.);
#1080 = SURFACE_OF_LINEAR_EXTRUSION('',#1081,#1085);
#1081 = B_SPLINE_CURVE_WITH_KNOTS('',2,(#1082,#1083,#1084),
  .UNSPECIFIED.,.F.,.F.,(3,3),(0.,1.),.PIECEWISE_BEZIER_KNOTS.);
#1082 = CARTESIAN_POINT('',(15.20025477707,1.752626888559,4.230541921013
    ));
#1083 = CARTESIAN_POINT('',(14.897070063694,1.621511905377,
    3.870306465368));
#1084 = CARTESIAN_POINT('',(14.354394904459,1.621511905377,
    3.870306465368));
#1085 = VECTOR('',#1086,1.);
#1086 = DIRECTION('',(-0.,0.939692620786,-0.342020143326));
#1087 = ADVANCED_FACE('',(#1088),#1106,.T.);
#1088 = FACE_BOUND('',#1089,.T.);
#1089 = EDGE_LOOP('',(#1090,#1091,#1099,#1105));
#1090 = ORIENTED_EDGE('',*,*,#387,.T.);
#1091 = ORIENTED_EDGE('',*,*,#1092,.T.);
#1092 = EDGE_CURVE('',#371,#1093,#1095,.T.);
#1093 = VERTEX_POINT('',#1094);
#1094 = CARTESIAN_POINT('',(15.567133757962,1.523648039453,
    5.940471223691));
#1095 = LINE('',#1096,#1097);
#1096 = CARTESIAN_POINT('',(15.567133757962,2.275402136082,
    5.666855109031));
#1097 = VECTOR('',#1098,1.);
#1098 = DIRECTION('',(0.,-0.939692620786,0.342020143326));
#1099 = ORIENTED_EDGE('',*,*,#1100,.T.);
#1100 = EDGE_CURVE('',#1093,#1067,#1101,.T.);
#1101 = B_SPLINE_CURVE_WITH_KNOTS('',2,(#1102,#1103,#1104),
  .UNSPECIFIED.,.F.,.F.,(3,3),(0.,1.),.PIECEWISE_BEZIER_KNOTS.);
#1102 = CARTESIAN_POINT('',(15.567133757962,1.523648039453,
    5.940471223691));
#1103 = CARTESIAN_POINT('',(15.567133757962,1.159988405106,
    4.941324589955));
#1104 = CARTESIAN_POINT('',(15.20025477707,1.000872791931,4.504158035674
    ));
#1105 = ORIENTED_EDGE('',*,*,#1066,.F.);
#1106 = SURFACE_OF_LINEAR_EXTRUSION('',#1107,#1111);
#1107 = B_SPLINE_CURVE_WITH_KNOTS('',2,(#1108,#1109,#1110),
  .UNSPECIFIED.,.F.,.F.,(3,3),(0.,1.),.PIECEWISE_BEZIER_KNOTS.);
#1108 = CARTESIAN_POINT('',(15.567133757962,2.275402136082,
    5.666855109031));
#1109 = CARTESIAN_POINT('',(15.567133757962,1.911742501735,
    4.667708475295));
#1110 = CARTESIAN_POINT('',(15.20025477707,1.752626888559,4.230541921013
    ));
#1111 = VECTOR('',#1112,1.);
#1112 = DIRECTION('',(-0.,0.939692620786,-0.342020143326));
#1113 = ADVANCED_FACE('',(#1114),#1125,.T.);
#1114 = FACE_BOUND('',#1115,.T.);
#1115 = EDGE_LOOP('',(#1116,#1117,#1118,#1124));
#1116 = ORIENTED_EDGE('',*,*,#370,.T.);
#1117 = ORIENTED_EDGE('',*,*,#945,.T.);
#1118 = ORIENTED_EDGE('',*,*,#1119,.T.);
#1119 = EDGE_CURVE('',#938,#1093,#1120,.T.);
#1120 = B_SPLINE_CURVE_WITH_KNOTS('',2,(#1121,#1122,#1123),
  .UNSPECIFIED.,.F.,.F.,(3,3),(0.,1.),.PIECEWISE_BEZIER_KNOTS.);
#1121 = CARTESIAN_POINT('',(15.202802547771,2.045609990668,7.37454989847
    ));
#1122 = CARTESIAN_POINT('',(15.567133757962,1.888237155294,
    6.942171586842));
#1123 = CARTESIAN_POINT('',(15.567133757962,1.523648039453,
    5.940471223691));
#1124 = ORIENTED_EDGE('',*,*,#1092,.F.);
#1125 = SURFACE_OF_LINEAR_EXTRUSION('',#1126,#1130);
#1126 = B_SPLINE_CURVE_WITH_KNOTS('',2,(#1127,#1128,#1129),
  .UNSPECIFIED.,.F.,.F.,(3,3),(0.,1.),.PIECEWISE_BEZIER_KNOTS.);
#1127 = CARTESIAN_POINT('',(15.202802547771,2.797364087297,7.10093378381
    ));
#1128 = CARTESIAN_POINT('',(15.567133757962,2.639991251922,
    6.668555472182));
#1129 = CARTESIAN_POINT('',(15.567133757962,2.275402136082,
    5.666855109031));
#1130 = VECTOR('',#1131,1.);
#1131 = DIRECTION('',(-0.,0.939692620786,-0.342020143326));
#1132 = ADVANCED_FACE('',(#1133),#1158,.T.);
#1133 = FACE_BOUND('',#1134,.T.);
#1134 = EDGE_LOOP('',(#1135,#1136,#1144,#1152));
#1135 = ORIENTED_EDGE('',*,*,#502,.T.);
#1136 = ORIENTED_EDGE('',*,*,#1137,.T.);
#1137 = EDGE_CURVE('',#505,#1138,#1140,.T.);
#1138 = VERTEX_POINT('',#1139);
#1139 = CARTESIAN_POINT('',(12.073630573248,0.892065364593,
    4.205212085995));
#1140 = LINE('',#1141,#1142);
#1141 = CARTESIAN_POINT('',(12.073630573248,1.643819461222,
    3.931595971335));
#1142 = VECTOR('',#1143,1.);
#1143 = DIRECTION('',(0.,-0.939692620786,0.342020143326));
#1144 = ORIENTED_EDGE('',*,*,#1145,.T.);
#1145 = EDGE_CURVE('',#1138,#1146,#1148,.T.);
#1146 = VERTEX_POINT('',#1147);
#1147 = CARTESIAN_POINT('',(11.357707006369,0.892065364593,
    4.205212085995));
#1148 = LINE('',#1149,#1150);
#1149 = CARTESIAN_POINT('',(12.073630573248,0.892065364593,
    4.205212085995));
#1150 = VECTOR('',#1151,1.);
#1151 = DIRECTION('',(-1.,0.,0.));
#1152 = ORIENTED_EDGE('',*,*,#1153,.F.);
#1153 = EDGE_CURVE('',#503,#1146,#1154,.T.);
#1154 = LINE('',#1155,#1156);
#1155 = CARTESIAN_POINT('',(11.357707006369,1.643819461222,
    3.931595971335));
#1156 = VECTOR('',#1157,1.);
#1157 = DIRECTION('',(0.,-0.939692620786,0.342020143326));
#1158 = PLANE('',#1159);
#1159 = AXIS2_PLACEMENT_3D('',#1160,#1161,#1162);
#1160 = CARTESIAN_POINT('',(12.073630573248,1.643819461222,
    3.931595971335));
#1161 = DIRECTION('',(0.,-0.342020143326,-0.939692620786));
#1162 = DIRECTION('',(-1.,0.,0.));
#1163 = ADVANCED_FACE('',(#1164),#1182,.T.);
#1164 = FACE_BOUND('',#1165,.T.);
#1165 = EDGE_LOOP('',(#1166,#1167,#1175,#1181));
#1166 = ORIENTED_EDGE('',*,*,#582,.T.);
#1167 = ORIENTED_EDGE('',*,*,#1168,.T.);
#1168 = EDGE_CURVE('',#575,#1169,#1171,.T.);
#1169 = VERTEX_POINT('',#1170);
#1170 = CARTESIAN_POINT('',(12.073630573248,2.178467751651,7.73957359677
    ));
#1171 = LINE('',#1172,#1173);
#1172 = CARTESIAN_POINT('',(12.073630573248,2.93022184828,7.465957482109
    ));
#1173 = VECTOR('',#1174,1.);
#1174 = DIRECTION('',(0.,-0.939692620786,0.342020143326));
#1175 = ORIENTED_EDGE('',*,*,#1176,.T.);
#1176 = EDGE_CURVE('',#1169,#1138,#1177,.T.);
#1177 = LINE('',#1178,#1179);
#1178 = CARTESIAN_POINT('',(12.073630573248,2.178467751651,7.73957359677
    ));
#1179 = VECTOR('',#1180,1.);
#1180 = DIRECTION('',(0.,-0.342020143326,-0.939692620786));
#1181 = ORIENTED_EDGE('',*,*,#1137,.F.);
#1182 = PLANE('',#1183);
#1183 = AXIS2_PLACEMENT_3D('',#1184,#1185,#1186);
#1184 = CARTESIAN_POINT('',(12.073630573248,2.93022184828,7.465957482109
    ));
#1185 = DIRECTION('',(1.,0.,0.));
#1186 = DIRECTION('',(0.,-0.342020143326,-0.939692620786));
#1187 = ADVANCED_FACE('',(#1188),#1206,.T.);
#1188 = FACE_BOUND('',#1189,.T.);
#1189 = EDGE_LOOP('',(#1190,#1191,#1199,#1205));
#1190 = ORIENTED_EDGE('',*,*,#574,.T.);
#1191 = ORIENTED_EDGE('',*,*,#1192,.T.);
#1192 = EDGE_CURVE('',#556,#1193,#1195,.T.);
#1193 = VERTEX_POINT('',#1194);
#1194 = CARTESIAN_POINT('',(11.492738853503,2.178467751651,7.73957359677
    ));
#1195 = LINE('',#1196,#1197);
#1196 = CARTESIAN_POINT('',(11.492738853503,2.93022184828,7.465957482109
    ));
#1197 = VECTOR('',#1198,1.);
#1198 = DIRECTION('',(0.,-0.939692620786,0.342020143326));
#1199 = ORIENTED_EDGE('',*,*,#1200,.T.);
#1200 = EDGE_CURVE('',#1193,#1169,#1201,.T.);
#1201 = LINE('',#1202,#1203);
#1202 = CARTESIAN_POINT('',(11.492738853503,2.178467751651,7.73957359677
    ));
#1203 = VECTOR('',#1204,1.);
#1204 = DIRECTION('',(1.,0.,0.));
#1205 = ORIENTED_EDGE('',*,*,#1168,.F.);
#1206 = PLANE('',#1207);
#1207 = AXIS2_PLACEMENT_3D('',#1208,#1209,#1210);
#1208 = CARTESIAN_POINT('',(11.492738853503,2.93022184828,7.465957482109
    ));
#1209 = DIRECTION('',(0.,0.342020143326,0.939692620786));
#1210 = DIRECTION('',(1.,0.,0.));
#1211 = ADVANCED_FACE('',(#1212),#1230,.T.);
#1212 = FACE_BOUND('',#1213,.T.);
#1213 = EDGE_LOOP('',(#1214,#1215,#1223,#1229));
#1214 = ORIENTED_EDGE('',*,*,#555,.T.);
#1215 = ORIENTED_EDGE('',*,*,#1216,.T.);
#1216 = EDGE_CURVE('',#544,#1217,#1219,.T.);
#1217 = VERTEX_POINT('',#1218);
#1218 = CARTESIAN_POINT('',(11.04178343949,1.973981823073,7.177753125404
    ));
#1219 = LINE('',#1220,#1221);
#1220 = CARTESIAN_POINT('',(11.04178343949,2.725735919701,6.904137010743
    ));
#1221 = VECTOR('',#1222,1.);
#1222 = DIRECTION('',(0.,-0.939692620786,0.342020143326));
#1223 = ORIENTED_EDGE('',*,*,#1224,.T.);
#1224 = EDGE_CURVE('',#1217,#1193,#1225,.T.);
#1225 = B_SPLINE_CURVE_WITH_KNOTS('',2,(#1226,#1227,#1228),
  .UNSPECIFIED.,.F.,.F.,(3,3),(0.,1.),.PIECEWISE_BEZIER_KNOTS.);
#1226 = CARTESIAN_POINT('',(11.04178343949,1.973981823073,7.177753125404
    ));
#1227 = CARTESIAN_POINT('',(11.370445859873,2.061643546432,
    7.418601730884));
#1228 = CARTESIAN_POINT('',(11.492738853503,2.178467751651,7.73957359677
    ));
#1229 = ORIENTED_EDGE('',*,*,#1192,.F.);
#1230 = SURFACE_OF_LINEAR_EXTRUSION('',#1231,#1235);
#1231 = B_SPLINE_CURVE_WITH_KNOTS('',2,(#1232,#1233,#1234),
  .UNSPECIFIED.,.F.,.F.,(3,3),(0.,1.),.PIECEWISE_BEZIER_KNOTS.);
#1232 = CARTESIAN_POINT('',(11.04178343949,2.725735919701,6.904137010743
    ));
#1233 = CARTESIAN_POINT('',(11.370445859873,2.813397643061,
    7.144985616224));
#1234 = CARTESIAN_POINT('',(11.492738853503,2.93022184828,7.465957482109
    ));
#1235 = VECTOR('',#1236,1.);
#1236 = DIRECTION('',(-0.,0.939692620786,-0.342020143326));
#1237 = ADVANCED_FACE('',(#1238),#1256,.T.);
#1238 = FACE_BOUND('',#1239,.T.);
#1239 = EDGE_LOOP('',(#1240,#1241,#1249,#1255));
#1240 = ORIENTED_EDGE('',*,*,#543,.T.);
#1241 = ORIENTED_EDGE('',*,*,#1242,.T.);
#1242 = EDGE_CURVE('',#536,#1243,#1245,.T.);
#1243 = VERTEX_POINT('',#1244);
#1244 = CARTESIAN_POINT('',(10.432866242038,1.8550081919,6.850875760245)
  );
#1245 = LINE('',#1246,#1247);
#1246 = CARTESIAN_POINT('',(10.432866242038,2.606762288528,
    6.577259645585));
#1247 = VECTOR('',#1248,1.);
#1248 = DIRECTION('',(0.,-0.939692620786,0.342020143326));
#1249 = ORIENTED_EDGE('',*,*,#1250,.T.);
#1250 = EDGE_CURVE('',#1243,#1217,#1251,.T.);
#1251 = B_SPLINE_CURVE_WITH_KNOTS('',2,(#1252,#1253,#1254),
  .UNSPECIFIED.,.F.,.F.,(3,3),(0.,1.),.PIECEWISE_BEZIER_KNOTS.);
#1252 = CARTESIAN_POINT('',(10.432866242038,1.8550081919,6.850875760245)
  );
#1253 = CARTESIAN_POINT('',(10.713121019108,1.886378192307,
    6.937064128012));
#1254 = CARTESIAN_POINT('',(11.04178343949,1.973981823073,7.177753125404
    ));
#1255 = ORIENTED_EDGE('',*,*,#1216,.F.);
#1256 = SURFACE_OF_LINEAR_EXTRUSION('',#1257,#1261);
#1257 = B_SPLINE_CURVE_WITH_KNOTS('',2,(#1258,#1259,#1260),
  .UNSPECIFIED.,.F.,.F.,(3,3),(0.,1.),.PIECEWISE_BEZIER_KNOTS.);
#1258 = CARTESIAN_POINT('',(10.432866242038,2.606762288528,
    6.577259645585));
#1259 = CARTESIAN_POINT('',(10.713121019108,2.638132288935,
    6.663448013351));
#1260 = CARTESIAN_POINT('',(11.04178343949,2.725735919701,6.904137010743
    ));
#1261 = VECTOR('',#1262,1.);
#1262 = DIRECTION('',(-0.,0.939692620786,-0.342020143326));
#1263 = ADVANCED_FACE('',(#1264),#1282,.T.);
#1264 = FACE_BOUND('',#1265,.T.);
#1265 = EDGE_LOOP('',(#1266,#1267,#1275,#1281));
#1266 = ORIENTED_EDGE('',*,*,#535,.T.);
#1267 = ORIENTED_EDGE('',*,*,#1268,.T.);
#1268 = EDGE_CURVE('',#521,#1269,#1271,.T.);
#1269 = VERTEX_POINT('',#1270);
#1270 = CARTESIAN_POINT('',(10.432866242038,1.63193263345,6.237980700574
    ));
#1271 = LINE('',#1272,#1273);
#1272 = CARTESIAN_POINT('',(10.432866242038,2.383686730079,
    5.964364585913));
#1273 = VECTOR('',#1274,1.);
#1274 = DIRECTION('',(0.,-0.939692620786,0.342020143326));
#1275 = ORIENTED_EDGE('',*,*,#1276,.T.);
#1276 = EDGE_CURVE('',#1269,#1243,#1277,.T.);
#1277 = LINE('',#1278,#1279);
#1278 = CARTESIAN_POINT('',(10.432866242038,1.63193263345,6.237980700574
    ));
#1279 = VECTOR('',#1280,1.);
#1280 = DIRECTION('',(0.,0.342020143326,0.939692620786));
#1281 = ORIENTED_EDGE('',*,*,#1242,.F.);
#1282 = PLANE('',#1283);
#1283 = AXIS2_PLACEMENT_3D('',#1284,#1285,#1286);
#1284 = CARTESIAN_POINT('',(10.432866242038,2.383686730079,
    5.964364585913));
#1285 = DIRECTION('',(-1.,0.,0.));
#1286 = DIRECTION('',(0.,0.342020143326,0.939692620786));
#1287 = ADVANCED_FACE('',(#1288),#1306,.T.);
#1288 = FACE_BOUND('',#1289,.T.);
#1289 = EDGE_LOOP('',(#1290,#1291,#1299,#1305));
#1290 = ORIENTED_EDGE('',*,*,#520,.T.);
#1291 = ORIENTED_EDGE('',*,*,#1292,.T.);
#1292 = EDGE_CURVE('',#513,#1293,#1295,.T.);
#1293 = VERTEX_POINT('',#1294);
#1294 = CARTESIAN_POINT('',(11.357707006369,1.818293672905,
    6.750003448341));
#1295 = LINE('',#1296,#1297);
#1296 = CARTESIAN_POINT('',(11.357707006369,2.570047769534,
    6.476387333681));
#1297 = VECTOR('',#1298,1.);
#1298 = DIRECTION('',(0.,-0.939692620786,0.342020143326));
#1299 = ORIENTED_EDGE('',*,*,#1300,.T.);
#1300 = EDGE_CURVE('',#1293,#1269,#1301,.T.);
#1301 = B_SPLINE_CURVE_WITH_KNOTS('',2,(#1302,#1303,#1304),
  .UNSPECIFIED.,.F.,.F.,(3,3),(0.,1.),.PIECEWISE_BEZIER_KNOTS.);
#1302 = CARTESIAN_POINT('',(11.357707006369,1.818293672905,
    6.750003448341));
#1303 = CARTESIAN_POINT('',(10.965350318471,1.692290837937,6.40381350448
    ));
#1304 = CARTESIAN_POINT('',(10.432866242038,1.63193263345,6.237980700574
    ));
#1305 = ORIENTED_EDGE('',*,*,#1268,.F.);
#1306 = SURFACE_OF_LINEAR_EXTRUSION('',#1307,#1311);
#1307 = B_SPLINE_CURVE_WITH_KNOTS('',2,(#1308,#1309,#1310),
  .UNSPECIFIED.,.F.,.F.,(3,3),(0.,1.),.PIECEWISE_BEZIER_KNOTS.);
#1308 = CARTESIAN_POINT('',(11.357707006369,2.570047769534,
    6.476387333681));
#1309 = CARTESIAN_POINT('',(10.965350318471,2.444044934566,
    6.130197389819));
#1310 = CARTESIAN_POINT('',(10.432866242038,2.383686730079,
    5.964364585913));
#1311 = VECTOR('',#1312,1.);
#1312 = DIRECTION('',(-0.,0.939692620786,-0.342020143326));
#1313 = ADVANCED_FACE('',(#1314),#1325,.T.);
#1314 = FACE_BOUND('',#1315,.T.);
#1315 = EDGE_LOOP('',(#1316,#1317,#1318,#1324));
#1316 = ORIENTED_EDGE('',*,*,#512,.T.);
#1317 = ORIENTED_EDGE('',*,*,#1153,.T.);
#1318 = ORIENTED_EDGE('',*,*,#1319,.T.);
#1319 = EDGE_CURVE('',#1146,#1293,#1320,.T.);
#1320 = LINE('',#1321,#1322);
#1321 = CARTESIAN_POINT('',(11.357707006369,0.892065364593,
    4.205212085995));
#1322 = VECTOR('',#1323,1.);
#1323 = DIRECTION('',(0.,0.342020143326,0.939692620786));
#1324 = ORIENTED_EDGE('',*,*,#1292,.F.);
#1325 = PLANE('',#1326);
#1326 = AXIS2_PLACEMENT_3D('',#1327,#1328,#1329);
#1327 = CARTESIAN_POINT('',(11.357707006369,1.643819461222,
    3.931595971335));
#1328 = DIRECTION('',(-1.,0.,0.));
#1329 = DIRECTION('',(0.,0.342020143326,0.939692620786));
#1330 = ADVANCED_FACE('',(#1331),#1356,.F.);
#1331 = FACE_BOUND('',#1332,.F.);
#1332 = EDGE_LOOP('',(#1333,#1341,#1349,#1355));
#1333 = ORIENTED_EDGE('',*,*,#1334,.F.);
#1334 = EDGE_CURVE('',#1335,#284,#1337,.T.);
#1335 = VERTEX_POINT('',#1336);
#1336 = CARTESIAN_POINT('',(30.,12.6,0.));
#1337 = LINE('',#1338,#1339);
#1338 = CARTESIAN_POINT('',(30.,12.6,0.));
#1339 = VECTOR('',#1340,1.);
#1340 = DIRECTION('',(-0.971520338783,-0.236956180191,0.));
#1341 = ORIENTED_EDGE('',*,*,#1342,.T.);
#1342 = EDGE_CURVE('',#1335,#1343,#1345,.T.);
#1343 = VERTEX_POINT('',#1344);
#1344 = CARTESIAN_POINT('',(30.,12.6,10.));
#1345 = LINE('',#1346,#1347);
#1346 = CARTESIAN_POINT('',(30.,12.6,0.));
#1347 = VECTOR('',#1348,1.);
#1348 = DIRECTION('',(0.,0.,1.));
#1349 = ORIENTED_EDGE('',*,*,#1350,.T.);
#1350 = EDGE_CURVE('',#1343,#95,#1351,.T.);
#1351 = LINE('',#1352,#1353);
#1352 = CARTESIAN_POINT('',(30.,12.6,10.));
#1353 = VECTOR('',#1354,1.);
#1354 = DIRECTION('',(-0.971520338783,-0.236956180191,0.));
#1355 = ORIENTED_EDGE('',*,*,#665,.T.);
#1356 = PLANE('',#1357);
#1357 = AXIS2_PLACEMENT_3D('',#1358,#1359,#1360);
#1358 = CARTESIAN_POINT('',(30.,12.6,0.));
#1359 = DIRECTION('',(0.236956180191,-0.971520338783,0.));
#1360 = DIRECTION('',(-0.971520338783,-0.236956180191,0.));
#1361 = ADVANCED_FACE('',(#1362),#1380,.T.);
#1362 = FACE_BOUND('',#1363,.T.);
#1363 = EDGE_LOOP('',(#1364,#1365,#1373,#1379));
#1364 = ORIENTED_EDGE('',*,*,#682,.F.);
#1365 = ORIENTED_EDGE('',*,*,#1366,.T.);
#1366 = EDGE_CURVE('',#71,#1367,#1369,.T.);
#1367 = VERTEX_POINT('',#1368);
#1368 = CARTESIAN_POINT('',(30.,6.6,10.));
#1369 = LINE('',#1370,#1371);
#1370 = CARTESIAN_POINT('',(25.9,7.6,10.));
#1371 = VECTOR('',#1372,1.);
#1372 = DIRECTION('',(0.971520338783,-0.236956180191,0.));
#1373 = ORIENTED_EDGE('',*,*,#1374,.T.);
#1374 = EDGE_CURVE('',#1367,#1343,#1375,.T.);
#1375 = LINE('',#1376,#1377);
#1376 = CARTESIAN_POINT('',(30.,6.6,10.));
#1377 = VECTOR('',#1378,1.);
#1378 = DIRECTION('',(0.,1.,0.));
#1379 = ORIENTED_EDGE('',*,*,#1350,.T.);
#1380 = PLANE('',#1381);
#1381 = AXIS2_PLACEMENT_3D('',#1382,#1383,#1384);
#1382 = CARTESIAN_POINT('',(28.172338161771,9.6,10.));
#1383 = DIRECTION('',(0.,0.,1.));
#1384 = DIRECTION('',(1.,0.,0.));
#1385 = ADVANCED_FACE('',(#1386),#1404,.F.);
#1386 = FACE_BOUND('',#1387,.F.);
#1387 = EDGE_LOOP('',(#1388,#1396,#1397,#1398));
#1388 = ORIENTED_EDGE('',*,*,#1389,.F.);
#1389 = EDGE_CURVE('',#260,#1390,#1392,.T.);
#1390 = VERTEX_POINT('',#1391);
#1391 = CARTESIAN_POINT('',(30.,6.6,0.));
#1392 = LINE('',#1393,#1394);
#1393 = CARTESIAN_POINT('',(25.9,7.6,0.));
#1394 = VECTOR('',#1395,1.);
#1395 = DIRECTION('',(0.971520338783,-0.236956180191,0.));
#1396 = ORIENTED_EDGE('',*,*,#701,.T.);
#1397 = ORIENTED_EDGE('',*,*,#1366,.T.);
#1398 = ORIENTED_EDGE('',*,*,#1399,.F.);
#1399 = EDGE_CURVE('',#1390,#1367,#1400,.T.);
#1400 = LINE('',#1401,#1402);
#1401 = CARTESIAN_POINT('',(30.,6.6,0.));
#1402 = VECTOR('',#1403,1.);
#1403 = DIRECTION('',(0.,0.,1.));
#1404 = PLANE('',#1405);
#1405 = AXIS2_PLACEMENT_3D('',#1406,#1407,#1408);
#1406 = CARTESIAN_POINT('',(25.9,7.6,0.));
#1407 = DIRECTION('',(0.236956180191,0.971520338783,0.));
#1408 = DIRECTION('',(0.971520338783,-0.236956180191,0.));
#1409 = ADVANCED_FACE('',(#1410),#1436,.T.);
#1410 = FACE_BOUND('',#1411,.T.);
#1411 = EDGE_LOOP('',(#1412,#1420,#1421,#1429));
#1412 = ORIENTED_EDGE('',*,*,#1413,.F.);
#1413 = EDGE_CURVE('',#716,#1414,#1416,.T.);
#1414 = VERTEX_POINT('',#1415);
#1415 = CARTESIAN_POINT('',(8.1,24.84,21.));
#1416 = LINE('',#1417,#1418);
#1417 = CARTESIAN_POINT('',(8.1,25.09,20.75));
#1418 = VECTOR('',#1419,1.);
#1419 = DIRECTION('',(-2.90882763039E-35,-0.707106781187,0.707106781187)
  );
#1420 = ORIENTED_EDGE('',*,*,#732,.T.);
#1421 = ORIENTED_EDGE('',*,*,#1422,.T.);
#1422 = EDGE_CURVE('',#725,#1423,#1425,.T.);
#1423 = VERTEX_POINT('',#1424);
#1424 = CARTESIAN_POINT('',(8.,24.74,21.));
#1425 = LINE('',#1426,#1427);
#1426 = CARTESIAN_POINT('',(7.5,24.74,20.5));
#1427 = VECTOR('',#1428,1.);
#1428 = DIRECTION('',(0.707106781187,-4.329780281177E-17,0.707106781187)
  );
#1429 = ORIENTED_EDGE('',*,*,#1430,.F.);
#1430 = EDGE_CURVE('',#1414,#1423,#1431,.T.);
#1431 = CIRCLE('',#1432,1.E-01);
#1432 = AXIS2_PLACEMENT_3D('',#1433,#1434,#1435);
#1433 = CARTESIAN_POINT('',(8.1,24.74,21.));
#1434 = DIRECTION('',(0.,-0.,1.));
#1435 = DIRECTION('',(0.,1.,0.));
#1436 = CONICAL_SURFACE('',#1437,0.6,0.785398163397);
#1437 = AXIS2_PLACEMENT_3D('',#1438,#1439,#1440);
#1438 = CARTESIAN_POINT('',(8.1,24.74,20.5));
#1439 = DIRECTION('',(-0.,-0.,-1.));
#1440 = DIRECTION('',(0.,1.,0.));
#1441 = ADVANCED_FACE('',(#1442),#1460,.F.);
#1442 = FACE_BOUND('',#1443,.T.);
#1443 = EDGE_LOOP('',(#1444,#1452,#1453,#1454));
#1444 = ORIENTED_EDGE('',*,*,#1445,.F.);
#1445 = EDGE_CURVE('',#749,#1446,#1448,.T.);
#1446 = VERTEX_POINT('',#1447);
#1447 = CARTESIAN_POINT('',(17.9,24.84,21.));
#1448 = LINE('',#1449,#1450);
#1449 = CARTESIAN_POINT('',(17.9,25.09,20.75));
#1450 = VECTOR('',#1451,1.);
#1451 = DIRECTION('',(-2.90882763039E-35,-0.707106781187,0.707106781187)
  );
#1452 = ORIENTED_EDGE('',*,*,#756,.T.);
#1453 = ORIENTED_EDGE('',*,*,#1413,.T.);
#1454 = ORIENTED_EDGE('',*,*,#1455,.F.);
#1455 = EDGE_CURVE('',#1446,#1414,#1456,.T.);
#1456 = LINE('',#1457,#1458);
#1457 = CARTESIAN_POINT('',(17.9,24.84,21.));
#1458 = VECTOR('',#1459,1.);
#1459 = DIRECTION('',(-1.,0.,0.));
#1460 = PLANE('',#1461);
#1461 = AXIS2_PLACEMENT_3D('',#1462,#1463,#1464);
#1462 = CARTESIAN_POINT('',(17.9,25.09,20.75));
#1463 = DIRECTION('',(-1.889513820523E-18,-0.707106781187,
    -0.707106781187));
#1464 = DIRECTION('',(1.,-1.336088035637E-18,-1.336088035637E-18));
#1465 = ADVANCED_FACE('',(#1466),#1484,.F.);
#1466 = FACE_BOUND('',#1467,.T.);
#1467 = EDGE_LOOP('',(#1468,#1469,#1470,#1478));
#1468 = ORIENTED_EDGE('',*,*,#1422,.F.);
#1469 = ORIENTED_EDGE('',*,*,#773,.T.);
#1470 = ORIENTED_EDGE('',*,*,#1471,.T.);
#1471 = EDGE_CURVE('',#774,#1472,#1474,.T.);
#1472 = VERTEX_POINT('',#1473);
#1473 = CARTESIAN_POINT('',(8.,14.94,21.));
#1474 = LINE('',#1475,#1476);
#1475 = CARTESIAN_POINT('',(7.75,14.94,20.75));
#1476 = VECTOR('',#1477,1.);
#1477 = DIRECTION('',(0.707106781187,-2.90882763039E-35,0.707106781187)
  );
#1478 = ORIENTED_EDGE('',*,*,#1479,.F.);
#1479 = EDGE_CURVE('',#1423,#1472,#1480,.T.);
#1480 = LINE('',#1481,#1482);
#1481 = CARTESIAN_POINT('',(8.,24.74,21.));
#1482 = VECTOR('',#1483,1.);
#1483 = DIRECTION('',(0.,-1.,0.));
#1484 = PLANE('',#1485);
#1485 = AXIS2_PLACEMENT_3D('',#1486,#1487,#1488);
#1486 = CARTESIAN_POINT('',(7.75,24.74,20.75));
#1487 = DIRECTION('',(0.707106781187,1.889513820523E-18,-0.707106781187)
  );
#1488 = DIRECTION('',(-1.336088035637E-18,1.,1.336088035637E-18));
#1489 = ADVANCED_FACE('',(#1490),#1509,.T.);
#1490 = FACE_BOUND('',#1491,.T.);
#1491 = EDGE_LOOP('',(#1492,#1500,#1501,#1502));
#1492 = ORIENTED_EDGE('',*,*,#1493,.F.);
#1493 = EDGE_CURVE('',#798,#1494,#1496,.T.);
#1494 = VERTEX_POINT('',#1495);
#1495 = CARTESIAN_POINT('',(18.,24.74,21.));
#1496 = LINE('',#1497,#1498);
#1497 = CARTESIAN_POINT('',(18.25,24.74,20.75));
#1498 = VECTOR('',#1499,1.);
#1499 = DIRECTION('',(-0.707106781187,5.615430530155E-36,0.707106781187)
  );
#1500 = ORIENTED_EDGE('',*,*,#805,.T.);
#1501 = ORIENTED_EDGE('',*,*,#1445,.T.);
#1502 = ORIENTED_EDGE('',*,*,#1503,.F.);
#1503 = EDGE_CURVE('',#1494,#1446,#1504,.T.);
#1504 = CIRCLE('',#1505,1.E-01);
#1505 = AXIS2_PLACEMENT_3D('',#1506,#1507,#1508);
#1506 = CARTESIAN_POINT('',(17.9,24.74,21.));
#1507 = DIRECTION('',(0.,0.,1.));
#1508 = DIRECTION('',(1.,0.,0.));
#1509 = CONICAL_SURFACE('',#1510,0.6,0.785398163397);
#1510 = AXIS2_PLACEMENT_3D('',#1511,#1512,#1513);
#1511 = CARTESIAN_POINT('',(17.9,24.74,20.5));
#1512 = DIRECTION('',(-0.,-0.,-1.));
#1513 = DIRECTION('',(1.,0.,0.));
#1514 = ADVANCED_FACE('',(#1515),#1534,.T.);
#1515 = FACE_BOUND('',#1516,.T.);
#1516 = EDGE_LOOP('',(#1517,#1518,#1519,#1527));
#1517 = ORIENTED_EDGE('',*,*,#1471,.F.);
#1518 = ORIENTED_EDGE('',*,*,#830,.T.);
#1519 = ORIENTED_EDGE('',*,*,#1520,.T.);
#1520 = EDGE_CURVE('',#823,#1521,#1523,.T.);
#1521 = VERTEX_POINT('',#1522);
#1522 = CARTESIAN_POINT('',(8.1,14.84,21.));
#1523 = LINE('',#1524,#1525);
#1524 = CARTESIAN_POINT('',(8.1,14.34,20.5));
#1525 = VECTOR('',#1526,1.);
#1526 = DIRECTION('',(4.329780281177E-17,0.707106781187,0.707106781187)
  );
#1527 = ORIENTED_EDGE('',*,*,#1528,.F.);
#1528 = EDGE_CURVE('',#1472,#1521,#1529,.T.);
#1529 = CIRCLE('',#1530,1.E-01);
#1530 = AXIS2_PLACEMENT_3D('',#1531,#1532,#1533);
#1531 = CARTESIAN_POINT('',(8.1,14.94,21.));
#1532 = DIRECTION('',(0.,0.,1.));
#1533 = DIRECTION('',(-1.,0.,0.));
#1534 = CONICAL_SURFACE('',#1535,0.6,0.785398163397);
#1535 = AXIS2_PLACEMENT_3D('',#1536,#1537,#1538);
#1536 = CARTESIAN_POINT('',(8.1,14.94,20.5));
#1537 = DIRECTION('',(-0.,-0.,-1.));
#1538 = DIRECTION('',(-1.,0.,0.));
#1539 = ADVANCED_FACE('',(#1540),#1558,.F.);
#1540 = FACE_BOUND('',#1541,.T.);
#1541 = EDGE_LOOP('',(#1542,#1550,#1551,#1552));
#1542 = ORIENTED_EDGE('',*,*,#1543,.F.);
#1543 = EDGE_CURVE('',#847,#1544,#1546,.T.);
#1544 = VERTEX_POINT('',#1545);
#1545 = CARTESIAN_POINT('',(18.,14.94,21.));
#1546 = LINE('',#1547,#1548);
#1547 = CARTESIAN_POINT('',(18.5,14.94,20.5));
#1548 = VECTOR('',#1549,1.);
#1549 = DIRECTION('',(-0.707106781187,4.329780281177E-17,0.707106781187)
  );
#1550 = ORIENTED_EDGE('',*,*,#854,.T.);
#1551 = ORIENTED_EDGE('',*,*,#1493,.T.);
#1552 = ORIENTED_EDGE('',*,*,#1553,.F.);
#1553 = EDGE_CURVE('',#1544,#1494,#1554,.T.);
#1554 = LINE('',#1555,#1556);
#1555 = CARTESIAN_POINT('',(18.,14.94,21.));
#1556 = VECTOR('',#1557,1.);
#1557 = DIRECTION('',(0.,1.,0.));
#1558 = PLANE('',#1559);
#1559 = AXIS2_PLACEMENT_3D('',#1560,#1561,#1562);
#1560 = CARTESIAN_POINT('',(18.25,14.94,20.75));
#1561 = DIRECTION('',(-0.707106781187,1.479157021432E-19,-0.707106781187
    ));
#1562 = DIRECTION('',(-1.045921960294E-19,-1.,-1.045921960294E-19));
#1563 = ADVANCED_FACE('',(#1564),#1582,.F.);
#1564 = FACE_BOUND('',#1565,.T.);
#1565 = EDGE_LOOP('',(#1566,#1567,#1568,#1576));
#1566 = ORIENTED_EDGE('',*,*,#1520,.F.);
#1567 = ORIENTED_EDGE('',*,*,#871,.T.);
#1568 = ORIENTED_EDGE('',*,*,#1569,.T.);
#1569 = EDGE_CURVE('',#872,#1570,#1572,.T.);
#1570 = VERTEX_POINT('',#1571);
#1571 = CARTESIAN_POINT('',(17.9,14.84,21.));
#1572 = LINE('',#1573,#1574);
#1573 = CARTESIAN_POINT('',(17.9,14.59,20.75));
#1574 = VECTOR('',#1575,1.);
#1575 = DIRECTION('',(2.26130160805E-35,0.707106781187,0.707106781187));
#1576 = ORIENTED_EDGE('',*,*,#1577,.F.);
#1577 = EDGE_CURVE('',#1521,#1570,#1578,.T.);
#1578 = LINE('',#1579,#1580);
#1579 = CARTESIAN_POINT('',(8.1,14.84,21.));
#1580 = VECTOR('',#1581,1.);
#1581 = DIRECTION('',(1.,0.,0.));
#1582 = PLANE('',#1583);
#1583 = AXIS2_PLACEMENT_3D('',#1584,#1585,#1586);
#1584 = CARTESIAN_POINT('',(8.1,14.59,20.75));
#1585 = DIRECTION('',(-3.029276165476E-18,0.707106781187,-0.707106781187
    ));
#1586 = DIRECTION('',(-1.,-2.142021718695E-18,2.142021718695E-18));
#1587 = ADVANCED_FACE('',(#1588),#1600,.T.);
#1588 = FACE_BOUND('',#1589,.T.);
#1589 = EDGE_LOOP('',(#1590,#1591,#1592,#1593));
#1590 = ORIENTED_EDGE('',*,*,#1569,.F.);
#1591 = ORIENTED_EDGE('',*,*,#896,.T.);
#1592 = ORIENTED_EDGE('',*,*,#1543,.T.);
#1593 = ORIENTED_EDGE('',*,*,#1594,.F.);
#1594 = EDGE_CURVE('',#1570,#1544,#1595,.T.);
#1595 = CIRCLE('',#1596,1.E-01);
#1596 = AXIS2_PLACEMENT_3D('',#1597,#1598,#1599);
#1597 = CARTESIAN_POINT('',(17.9,14.94,21.));
#1598 = DIRECTION('',(-0.,0.,1.));
#1599 = DIRECTION('',(0.,-1.,0.));
#1600 = CONICAL_SURFACE('',#1601,0.6,0.785398163397);
#1601 = AXIS2_PLACEMENT_3D('',#1602,#1603,#1604);
#1602 = CARTESIAN_POINT('',(17.9,14.94,20.5));
#1603 = DIRECTION('',(-0.,-0.,-1.));
#1604 = DIRECTION('',(0.,-1.,0.));
#1605 = ADVANCED_FACE('',(#1606),#1617,.F.);
#1606 = FACE_BOUND('',#1607,.F.);
#1607 = EDGE_LOOP('',(#1608,#1609,#1610,#1616));
#1608 = ORIENTED_EDGE('',*,*,#912,.F.);
#1609 = ORIENTED_EDGE('',*,*,#1389,.T.);
#1610 = ORIENTED_EDGE('',*,*,#1611,.T.);
#1611 = EDGE_CURVE('',#1390,#1335,#1612,.T.);
#1612 = LINE('',#1613,#1614);
#1613 = CARTESIAN_POINT('',(30.,6.6,0.));
#1614 = VECTOR('',#1615,1.);
#1615 = DIRECTION('',(0.,1.,0.));
#1616 = ORIENTED_EDGE('',*,*,#1334,.T.);
#1617 = PLANE('',#1618);
#1618 = AXIS2_PLACEMENT_3D('',#1619,#1620,#1621);
#1619 = CARTESIAN_POINT('',(28.172338161771,9.6,0.));
#1620 = DIRECTION('',(0.,0.,1.));
#1621 = DIRECTION('',(1.,0.,0.));
#1622 = ADVANCED_FACE('',(#1623,#1633),#1731,.T.);
#1623 = FACE_BOUND('',#1624,.T.);
#1624 = EDGE_LOOP('',(#1625,#1626,#1627,#1628,#1629,#1630,#1631,#1632));
#1625 = ORIENTED_EDGE('',*,*,#937,.F.);
#1626 = ORIENTED_EDGE('',*,*,#970,.F.);
#1627 = ORIENTED_EDGE('',*,*,#996,.F.);
#1628 = ORIENTED_EDGE('',*,*,#1022,.F.);
#1629 = ORIENTED_EDGE('',*,*,#1048,.F.);
#1630 = ORIENTED_EDGE('',*,*,#1074,.F.);
#1631 = ORIENTED_EDGE('',*,*,#1100,.F.);
#1632 = ORIENTED_EDGE('',*,*,#1119,.F.);
#1633 = FACE_BOUND('',#1634,.T.);
#1634 = EDGE_LOOP('',(#1635,#1645,#1653,#1661,#1669,#1677,#1685,#1693,
    #1701,#1709,#1717,#1725));
#1635 = ORIENTED_EDGE('',*,*,#1636,.F.);
#1636 = EDGE_CURVE('',#1637,#1639,#1641,.T.);
#1637 = VERTEX_POINT('',#1638);
#1638 = CARTESIAN_POINT('',(14.354394904459,1.973981823073,
    7.177753125404));
#1639 = VERTEX_POINT('',#1640);
#1640 = CARTESIAN_POINT('',(14.122547770701,1.94563263752,7.099864378237
    ));
#1641 = B_SPLINE_CURVE_WITH_KNOTS('',2,(#1642,#1643,#1644),
  .UNSPECIFIED.,.F.,.F.,(3,3),(0.,1.),.PIECEWISE_BEZIER_KNOTS.);
#1642 = CARTESIAN_POINT('',(14.354394904459,1.973981823073,
    7.177753125404));
#1643 = CARTESIAN_POINT('',(14.224458598726,1.973981823073,
    7.177753125404));
#1644 = CARTESIAN_POINT('',(14.122547770701,1.94563263752,7.099864378237
    ));
#1645 = ORIENTED_EDGE('',*,*,#1646,.F.);
#1646 = EDGE_CURVE('',#1647,#1637,#1649,.T.);
#1647 = VERTEX_POINT('',#1648);
#1648 = CARTESIAN_POINT('',(14.584883227176,1.94563263752,7.099864378237
    ));
#1649 = B_SPLINE_CURVE_WITH_KNOTS('',2,(#1650,#1651,#1652),
  .UNSPECIFIED.,.F.,.F.,(3,3),(0.,1.),.PIECEWISE_BEZIER_KNOTS.);
#1650 = CARTESIAN_POINT('',(14.584883227176,1.94563263752,7.099864378237
    ));
#1651 = CARTESIAN_POINT('',(14.484331210191,1.973981823073,
    7.177753125404));
#1652 = CARTESIAN_POINT('',(14.354394904459,1.973981823073,
    7.177753125404));
#1653 = ORIENTED_EDGE('',*,*,#1654,.F.);
#1654 = EDGE_CURVE('',#1655,#1647,#1657,.T.);
#1655 = VERTEX_POINT('',#1656);
#1656 = CARTESIAN_POINT('',(14.751847133758,1.833049191615,
    6.790543902809));
#1657 = B_SPLINE_CURVE_WITH_KNOTS('',2,(#1658,#1659,#1660),
  .UNSPECIFIED.,.F.,.F.,(3,3),(0.,1.),.PIECEWISE_BEZIER_KNOTS.);
#1658 = CARTESIAN_POINT('',(14.751847133758,1.833049191615,
    6.790543902809));
#1659 = CARTESIAN_POINT('',(14.685605095541,1.917283451967,
    7.021975631071));
#1660 = CARTESIAN_POINT('',(14.584883227176,1.94563263752,7.099864378237
    ));
#1661 = ORIENTED_EDGE('',*,*,#1662,.F.);
#1662 = EDGE_CURVE('',#1663,#1655,#1665,.T.);
#1663 = VERTEX_POINT('',#1664);
#1664 = CARTESIAN_POINT('',(14.818089171975,1.523648039453,
    5.940471223691));
#1665 = B_SPLINE_CURVE_WITH_KNOTS('',2,(#1666,#1667,#1668),
  .UNSPECIFIED.,.F.,.F.,(3,3),(0.,1.),.PIECEWISE_BEZIER_KNOTS.);
#1666 = CARTESIAN_POINT('',(14.818089171975,1.523648039453,
    5.940471223691));
#1667 = CARTESIAN_POINT('',(14.818089171975,1.748814931263,
    6.559112174548));
#1668 = CARTESIAN_POINT('',(14.751847133758,1.833049191615,
    6.790543902809));
#1669 = ORIENTED_EDGE('',*,*,#1670,.F.);
#1670 = EDGE_CURVE('',#1671,#1663,#1673,.T.);
#1671 = VERTEX_POINT('',#1672);
#1672 = CARTESIAN_POINT('',(14.744203821656,1.204254961236,
    5.062945953359));
#1673 = B_SPLINE_CURVE_WITH_KNOTS('',2,(#1674,#1675,#1676),
  .UNSPECIFIED.,.F.,.F.,(3,3),(0.,1.),.PIECEWISE_BEZIER_KNOTS.);
#1674 = CARTESIAN_POINT('',(14.744203821656,1.204254961236,
    5.062945953359));
#1675 = CARTESIAN_POINT('',(14.818089171975,1.298539240237,
    5.321989880923));
#1676 = CARTESIAN_POINT('',(14.818089171975,1.523648039453,
    5.940471223691));
#1677 = ORIENTED_EDGE('',*,*,#1678,.F.);
#1678 = EDGE_CURVE('',#1679,#1671,#1681,.T.);
#1679 = VERTEX_POINT('',#1680);
#1680 = CARTESIAN_POINT('',(14.586242038217,1.10259292288,4.783631798561
    ));
#1681 = B_SPLINE_CURVE_WITH_KNOTS('',2,(#1682,#1683,#1684),
  .UNSPECIFIED.,.F.,.F.,(3,3),(0.,1.),.PIECEWISE_BEZIER_KNOTS.);
#1682 = CARTESIAN_POINT('',(14.586242038217,1.10259292288,4.783631798561
    ));
#1683 = CARTESIAN_POINT('',(14.688152866242,1.130942108433,
    4.861520545727));
#1684 = CARTESIAN_POINT('',(14.744203821656,1.204254961236,
    5.062945953359));
#1685 = ORIENTED_EDGE('',*,*,#1686,.F.);
#1686 = EDGE_CURVE('',#1687,#1679,#1689,.T.);
#1687 = VERTEX_POINT('',#1688);
#1688 = CARTESIAN_POINT('',(14.354394904459,1.074243737327,
    4.705743051394));
#1689 = B_SPLINE_CURVE_WITH_KNOTS('',2,(#1690,#1691,#1692),
  .UNSPECIFIED.,.F.,.F.,(3,3),(0.,1.),.PIECEWISE_BEZIER_KNOTS.);
#1690 = CARTESIAN_POINT('',(14.354394904459,1.074243737327,
    4.705743051394));
#1691 = CARTESIAN_POINT('',(14.484331210191,1.074243737327,
    4.705743051394));
#1692 = CARTESIAN_POINT('',(14.586242038217,1.10259292288,4.783631798561
    ));
#1693 = ORIENTED_EDGE('',*,*,#1694,.F.);
#1694 = EDGE_CURVE('',#1695,#1687,#1697,.T.);
#1695 = VERTEX_POINT('',#1696);
#1696 = CARTESIAN_POINT('',(14.123736730361,1.102128182133,
    4.782354933853));
#1697 = B_SPLINE_CURVE_WITH_KNOTS('',2,(#1698,#1699,#1700),
  .UNSPECIFIED.,.F.,.F.,(3,3),(0.,1.),.PIECEWISE_BEZIER_KNOTS.);
#1698 = CARTESIAN_POINT('',(14.123736730361,1.102128182133,
    4.782354933853));
#1699 = CARTESIAN_POINT('',(14.224458598726,1.074243737327,
    4.705743051394));
#1700 = CARTESIAN_POINT('',(14.354394904459,1.074243737327,
    4.705743051394));
#1701 = ORIENTED_EDGE('',*,*,#1702,.F.);
#1702 = EDGE_CURVE('',#1703,#1695,#1705,.T.);
#1703 = VERTEX_POINT('',#1704);
#1704 = CARTESIAN_POINT('',(13.956942675159,1.214304979885,
    5.090558152662));
#1705 = B_SPLINE_CURVE_WITH_KNOTS('',2,(#1706,#1707,#1708),
  .UNSPECIFIED.,.F.,.F.,(3,3),(0.,1.),.PIECEWISE_BEZIER_KNOTS.);
#1706 = CARTESIAN_POINT('',(13.956942675159,1.214304979885,
    5.090558152662));
#1707 = CARTESIAN_POINT('',(14.023184713376,1.130070719533,4.8591264244)
  );
#1708 = CARTESIAN_POINT('',(14.123736730361,1.102128182133,
    4.782354933853));
#1709 = ORIENTED_EDGE('',*,*,#1710,.F.);
#1710 = EDGE_CURVE('',#1711,#1703,#1713,.T.);
#1711 = VERTEX_POINT('',#1712);
#1712 = CARTESIAN_POINT('',(13.890700636943,1.523648039453,
    5.940471223691));
#1713 = B_SPLINE_CURVE_WITH_KNOTS('',2,(#1714,#1715,#1716),
  .UNSPECIFIED.,.F.,.F.,(3,3),(0.,1.),.PIECEWISE_BEZIER_KNOTS.);
#1714 = CARTESIAN_POINT('',(13.890700636943,1.523648039453,
    5.940471223691));
#1715 = CARTESIAN_POINT('',(13.890700636943,1.298539240237,
    5.321989880923));
#1716 = CARTESIAN_POINT('',(13.956942675159,1.214304979885,
    5.090558152662));
#1717 = ORIENTED_EDGE('',*,*,#1718,.F.);
#1718 = EDGE_CURVE('',#1719,#1711,#1721,.T.);
#1719 = VERTEX_POINT('',#1720);
#1720 = CARTESIAN_POINT('',(13.964585987261,1.843970599164,
    6.820550223439));
#1721 = B_SPLINE_CURVE_WITH_KNOTS('',2,(#1722,#1723,#1724),
  .UNSPECIFIED.,.F.,.F.,(3,3),(0.,1.),.PIECEWISE_BEZIER_KNOTS.);
#1722 = CARTESIAN_POINT('',(13.964585987261,1.843970599164,
    6.820550223439));
#1723 = CARTESIAN_POINT('',(13.890700636943,1.748814931263,
    6.559112174548));
#1724 = CARTESIAN_POINT('',(13.890700636943,1.523648039453,
    5.940471223691));
#1725 = ORIENTED_EDGE('',*,*,#1726,.F.);
#1726 = EDGE_CURVE('',#1639,#1719,#1727,.T.);
#1727 = B_SPLINE_CURVE_WITH_KNOTS('',2,(#1728,#1729,#1730),
  .UNSPECIFIED.,.F.,.F.,(3,3),(0.,1.),.PIECEWISE_BEZIER_KNOTS.);
#1728 = CARTESIAN_POINT('',(14.122547770701,1.94563263752,7.099864378237
    ));
#1729 = CARTESIAN_POINT('',(14.020636942675,1.917283451967,
    7.021975631071));
#1730 = CARTESIAN_POINT('',(13.964585987261,1.843970599164,
    6.820550223439));
#1731 = PLANE('',#1732);
#1732 = AXIS2_PLACEMENT_3D('',#1733,#1734,#1735);
#1733 = CARTESIAN_POINT('',(14.353245572816,1.524031196429,
    5.941523938831));
#1734 = DIRECTION('',(0.,-0.939692620786,0.342020143326));
#1735 = DIRECTION('',(1.,0.,0.));
#1736 = ADVANCED_FACE('',(#1737),#1747,.T.);
#1737 = FACE_BOUND('',#1738,.F.);
#1738 = EDGE_LOOP('',(#1739,#1740,#1741,#1742,#1743,#1744,#1745,#1746));
#1739 = ORIENTED_EDGE('',*,*,#1145,.T.);
#1740 = ORIENTED_EDGE('',*,*,#1319,.T.);
#1741 = ORIENTED_EDGE('',*,*,#1300,.T.);
#1742 = ORIENTED_EDGE('',*,*,#1276,.T.);
#1743 = ORIENTED_EDGE('',*,*,#1250,.T.);
#1744 = ORIENTED_EDGE('',*,*,#1224,.T.);
#1745 = ORIENTED_EDGE('',*,*,#1200,.T.);
#1746 = ORIENTED_EDGE('',*,*,#1176,.T.);
#1747 = PLANE('',#1748);
#1748 = AXIS2_PLACEMENT_3D('',#1749,#1750,#1751);
#1749 = CARTESIAN_POINT('',(11.506104674559,1.574120018213,6.07914184565
    ));
#1750 = DIRECTION('',(0.,-0.939692620786,0.342020143326));
#1751 = DIRECTION('',(1.,0.,0.));
#1752 = ADVANCED_FACE('',(#1753),#1759,.F.);
#1753 = FACE_BOUND('',#1754,.F.);
#1754 = EDGE_LOOP('',(#1755,#1756,#1757,#1758));
#1755 = ORIENTED_EDGE('',*,*,#1399,.T.);
#1756 = ORIENTED_EDGE('',*,*,#1374,.T.);
#1757 = ORIENTED_EDGE('',*,*,#1342,.F.);
#1758 = ORIENTED_EDGE('',*,*,#1611,.F.);
#1759 = PLANE('',#1760);
#1760 = AXIS2_PLACEMENT_3D('',#1761,#1762,#1763);
#1761 = CARTESIAN_POINT('',(30.,6.6,0.));
#1762 = DIRECTION('',(-1.,0.,0.));
#1763 = DIRECTION('',(0.,1.,0.));
#1764 = ADVANCED_FACE('',(#1765),#1775,.T.);
#1765 = FACE_BOUND('',#1766,.T.);
#1766 = EDGE_LOOP('',(#1767,#1768,#1769,#1770,#1771,#1772,#1773,#1774));
#1767 = ORIENTED_EDGE('',*,*,#1455,.T.);
#1768 = ORIENTED_EDGE('',*,*,#1430,.T.);
#1769 = ORIENTED_EDGE('',*,*,#1479,.T.);
#1770 = ORIENTED_EDGE('',*,*,#1528,.T.);
#1771 = ORIENTED_EDGE('',*,*,#1577,.T.);
#1772 = ORIENTED_EDGE('',*,*,#1594,.T.);
#1773 = ORIENTED_EDGE('',*,*,#1553,.T.);
#1774 = ORIENTED_EDGE('',*,*,#1503,.T.);
#1775 = PLANE('',#1776);
#1776 = AXIS2_PLACEMENT_3D('',#1777,#1778,#1779);
#1777 = CARTESIAN_POINT('',(13.,19.84,21.));
#1778 = DIRECTION('',(0.,0.,1.));
#1779 = DIRECTION('',(1.,0.,0.));
#1780 = ADVANCED_FACE('',(#1781),#1795,.T.);
#1781 = FACE_BOUND('',#1782,.T.);
#1782 = EDGE_LOOP('',(#1783,#1784,#1785,#1786,#1787,#1788,#1789,#1790,
    #1791,#1792,#1793,#1794));
#1783 = ORIENTED_EDGE('',*,*,#1646,.T.);
#1784 = ORIENTED_EDGE('',*,*,#1636,.T.);
#1785 = ORIENTED_EDGE('',*,*,#1726,.T.);
#1786 = ORIENTED_EDGE('',*,*,#1718,.T.);
#1787 = ORIENTED_EDGE('',*,*,#1710,.T.);
#1788 = ORIENTED_EDGE('',*,*,#1702,.T.);
#1789 = ORIENTED_EDGE('',*,*,#1694,.T.);
#1790 = ORIENTED_EDGE('',*,*,#1686,.T.);
#1791 = ORIENTED_EDGE('',*,*,#1678,.T.);
#1792 = ORIENTED_EDGE('',*,*,#1670,.T.);
#1793 = ORIENTED_EDGE('',*,*,#1662,.T.);
#1794 = ORIENTED_EDGE('',*,*,#1654,.T.);
#1795 = PLANE('',#1796);
#1796 = AXIS2_PLACEMENT_3D('',#1797,#1798,#1799);
#1797 = CARTESIAN_POINT('',(14.353245572816,1.524031196429,
    5.941523938831));
#1798 = DIRECTION('',(0.,-0.939692620786,0.342020143326));
#1799 = DIRECTION('',(1.,0.,0.));
#1800 = ( GEOMETRIC_REPRESENTATION_CONTEXT(3) 
GLOBAL_UNCERTAINTY_ASSIGNED_CONTEXT((#1804)) 
GLOBAL_UNIT_ASSIGNED_CONTEXT((#1801,#1802,#1803)) REPRESENTATION_CONTEXT
('Context #1','3D Context with UNIT and UNCERTAINTY') );
#1801 = ( LENGTH_UNIT() NAMED_UNIT(*) SI_UNIT(.MILLI.,.METRE.) );
#1802 = ( NAMED_UNIT(*) PLANE_ANGLE_UNIT() SI_UNIT($,.RADIAN.) );
#1803 = ( NAMED_UNIT(*) SI_UNIT($,.STERADIAN.) SOLID_ANGLE_UNIT() );
#1804 = UNCERTAINTY_MEASURE_WITH_UNIT(LENGTH_MEASURE(5.E-07),#1801,
  'distance_accuracy_value','confusion accuracy');
#1805 = PRODUCT_RELATED_PRODUCT_CATEGORY('part',$,(#7));
ENDSEC;
END-ISO-10303-21;
