ISO-10303-21;
HEADER;
FILE_DESCRIPTION(('FreeCAD Model'),'2;1');
FILE_NAME('Open CASCADE Shape Model','2026-08-29T16:16:46',('FreeCAD'),(
    'FreeCAD'),'Open CASCADE STEP processor 7.8','FreeCAD','Unknown');
FILE_SCHEMA(('AUTOMOTIVE_DESIGN { 1 0 10303 214 1 1 1 1 }'));
ENDSEC;
DATA;
#1 = APPLICATION_PROTOCOL_DEFINITION('international standard',
  'automotive_design',2000,#2);
#2 = APPLICATION_CONTEXT(
  'core data for automotive mechanical design processes');
#3 = SHAPE_DEFINITION_REPRESENTATION(#4,#10);
#4 = PRODUCT_DEFINITION_SHAPE('','',#5);
#5 = PRODUCT_DEFINITION('design','',#6,#9);
#6 = PRODUCT_DEFINITION_FORMATION('','',#7);
#7 = PRODUCT('Open CASCADE STEP translator 7.8 86',
  'Open CASCADE STEP translator 7.8 86','',(#8));
#8 = PRODUCT_CONTEXT('',#2,'mechanical');
#9 = PRODUCT_DEFINITION_CONTEXT('part definition',#2,'design');
#10 = SHAPE_REPRESENTATION('',(#11,#15,#593,#891),#1189);
#11 = AXIS2_PLACEMENT_3D('',#12,#13,#14);
#12 = CARTESIAN_POINT('',(0.,0.,0.));
#13 = DIRECTION('',(0.,0.,1.));
#14 = DIRECTION('',(1.,0.,-0.));
#15 = MANIFOLD_SOLID_BREP('',#16);
#16 = CLOSED_SHELL('',(#17,#59,#92,#125,#158,#191,#224,#257,#290,#323,
    #356,#389,#422,#455,#488,#521,#545,#569));
#17 = ADVANCED_FACE('',(#18),#52,.T.);
#18 = FACE_BOUND('',#19,.T.);
#19 = EDGE_LOOP('',(#20,#30,#38,#46));
#20 = ORIENTED_EDGE('',*,*,#21,.T.);
#21 = EDGE_CURVE('',#22,#24,#26,.T.);
#22 = VERTEX_POINT('',#23);
#23 = CARTESIAN_POINT('',(12.396178343949,2.334366118328,5.828857318814)
  );
#24 = VERTEX_POINT('',#25);
#25 = CARTESIAN_POINT('',(12.396178343949,1.582612021699,6.102473433474)
  );
#26 = LINE('',#27,#28);
#27 = CARTESIAN_POINT('',(12.396178343949,2.334366118328,5.828857318814)
  );
#28 = VECTOR('',#29,1.);
#29 = DIRECTION('',(0.,-0.939692620786,0.342020143326));
#30 = ORIENTED_EDGE('',*,*,#31,.T.);
#31 = EDGE_CURVE('',#24,#32,#34,.T.);
#32 = VERTEX_POINT('',#33);
#33 = CARTESIAN_POINT('',(11.992271762208,1.693278412024,6.406526841983)
  );
#34 = B_SPLINE_CURVE_WITH_KNOTS('',2,(#35,#36,#37),.UNSPECIFIED.,.F.,.F.
  ,(3,3),(0.,1.),.PIECEWISE_BEZIER_KNOTS.);
#35 = CARTESIAN_POINT('',(12.396178343949,1.582612021699,6.102473433474)
  );
#36 = CARTESIAN_POINT('',(12.11847133758,1.622870188888,6.213081838774)
  );
#37 = CARTESIAN_POINT('',(11.992271762208,1.693278412024,6.406526841983)
  );
#38 = ORIENTED_EDGE('',*,*,#39,.F.);
#39 = EDGE_CURVE('',#40,#32,#42,.T.);
#40 = VERTEX_POINT('',#41);
#41 = CARTESIAN_POINT('',(11.992271762208,2.445032508653,6.132910727323)
  );
#42 = LINE('',#43,#44);
#43 = CARTESIAN_POINT('',(11.992271762208,2.445032508653,6.132910727323)
  );
#44 = VECTOR('',#45,1.);
#45 = DIRECTION('',(0.,-0.939692620786,0.342020143326));
#46 = ORIENTED_EDGE('',*,*,#47,.F.);
#47 = EDGE_CURVE('',#22,#40,#48,.T.);
#48 = B_SPLINE_CURVE_WITH_KNOTS('',2,(#49,#50,#51),.UNSPECIFIED.,.F.,.F.
  ,(3,3),(0.,1.),.PIECEWISE_BEZIER_KNOTS.);
#49 = CARTESIAN_POINT('',(12.396178343949,2.334366118328,5.828857318814)
  );
#50 = CARTESIAN_POINT('',(12.11847133758,2.374624285517,5.939465724114)
  );
#51 = CARTESIAN_POINT('',(11.992271762208,2.445032508653,6.132910727323)
  );
#52 = SURFACE_OF_LINEAR_EXTRUSION('',#53,#57);
#53 = B_SPLINE_CURVE_WITH_KNOTS('',2,(#54,#55,#56),.UNSPECIFIED.,.F.,.F.
  ,(3,3),(0.,1.),.PIECEWISE_BEZIER_KNOTS.);
#54 = CARTESIAN_POINT('',(12.396178343949,2.334366118328,5.828857318814)
  );
#55 = CARTESIAN_POINT('',(12.11847133758,2.374624285517,5.939465724114)
  );
#56 = CARTESIAN_POINT('',(11.992271762208,2.445032508653,6.132910727323)
  );
#57 = VECTOR('',#58,1.);
#58 = DIRECTION('',(-0.,0.939692620786,-0.342020143326));
#59 = ADVANCED_FACE('',(#60),#85,.T.);
#60 = FACE_BOUND('',#61,.T.);
#61 = EDGE_LOOP('',(#62,#63,#71,#79));
#62 = ORIENTED_EDGE('',*,*,#39,.T.);
#63 = ORIENTED_EDGE('',*,*,#64,.T.);
#64 = EDGE_CURVE('',#32,#65,#67,.T.);
#65 = VERTEX_POINT('',#66);
#66 = CARTESIAN_POINT('',(11.866242038217,1.847746617731,6.830924749188)
  );
#67 = B_SPLINE_CURVE_WITH_KNOTS('',2,(#68,#69,#70),.UNSPECIFIED.,.F.,.F.
  ,(3,3),(0.,1.),.PIECEWISE_BEZIER_KNOTS.);
#68 = CARTESIAN_POINT('',(11.992271762208,1.693278412024,6.406526841983)
  );
#69 = CARTESIAN_POINT('',(11.866242038217,1.763744727753,6.600131453281)
  );
#70 = CARTESIAN_POINT('',(11.866242038217,1.847746617731,6.830924749188)
  );
#71 = ORIENTED_EDGE('',*,*,#72,.F.);
#72 = EDGE_CURVE('',#73,#65,#75,.T.);
#73 = VERTEX_POINT('',#74);
#74 = CARTESIAN_POINT('',(11.866242038217,2.59950071436,6.557308634528)
  );
#75 = LINE('',#76,#77);
#76 = CARTESIAN_POINT('',(11.866242038217,2.59950071436,6.557308634528)
  );
#77 = VECTOR('',#78,1.);
#78 = DIRECTION('',(0.,-0.939692620786,0.342020143326));
#79 = ORIENTED_EDGE('',*,*,#80,.F.);
#80 = EDGE_CURVE('',#40,#73,#81,.T.);
#81 = B_SPLINE_CURVE_WITH_KNOTS('',2,(#82,#83,#84),.UNSPECIFIED.,.F.,.F.
  ,(3,3),(0.,1.),.PIECEWISE_BEZIER_KNOTS.);
#82 = CARTESIAN_POINT('',(11.992271762208,2.445032508653,6.132910727323)
  );
#83 = CARTESIAN_POINT('',(11.866242038217,2.515498824382,6.32651533862)
  );
#84 = CARTESIAN_POINT('',(11.866242038217,2.59950071436,6.557308634528)
  );
#85 = SURFACE_OF_LINEAR_EXTRUSION('',#86,#90);
#86 = B_SPLINE_CURVE_WITH_KNOTS('',2,(#87,#88,#89),.UNSPECIFIED.,.F.,.F.
  ,(3,3),(0.,1.),.PIECEWISE_BEZIER_KNOTS.);
#87 = CARTESIAN_POINT('',(11.992271762208,2.445032508653,6.132910727323)
  );
#88 = CARTESIAN_POINT('',(11.866242038217,2.515498824382,6.32651533862)
  );
#89 = CARTESIAN_POINT('',(11.866242038217,2.59950071436,6.557308634528)
  );
#90 = VECTOR('',#91,1.);
#91 = DIRECTION('',(-0.,0.939692620786,-0.342020143326));
#92 = ADVANCED_FACE('',(#93),#118,.T.);
#93 = FACE_BOUND('',#94,.T.);
#94 = EDGE_LOOP('',(#95,#96,#104,#112));
#95 = ORIENTED_EDGE('',*,*,#72,.T.);
#96 = ORIENTED_EDGE('',*,*,#97,.T.);
#97 = EDGE_CURVE('',#65,#98,#100,.T.);
#98 = VERTEX_POINT('',#99);
#99 = CARTESIAN_POINT('',(12.157876857749,2.084822491177,7.482285358178)
  );
#100 = B_SPLINE_CURVE_WITH_KNOTS('',2,(#101,#102,#103),.UNSPECIFIED.,.F.
  ,.F.,(3,3),(0.,1.),.PIECEWISE_BEZIER_KNOTS.);
#101 = CARTESIAN_POINT('',(11.866242038217,1.847746617731,6.830924749188
    ));
#102 = CARTESIAN_POINT('',(11.866242038217,1.991235323296,7.225156727675
    ));
#103 = CARTESIAN_POINT('',(12.157876857749,2.084822491177,7.482285358178
    ));
#104 = ORIENTED_EDGE('',*,*,#105,.F.);
#105 = EDGE_CURVE('',#106,#98,#108,.T.);
#106 = VERTEX_POINT('',#107);
#107 = CARTESIAN_POINT('',(12.157876857749,2.836576587806,7.208669243518
    ));
#108 = LINE('',#109,#110);
#109 = CARTESIAN_POINT('',(12.157876857749,2.836576587806,7.208669243518
    ));
#110 = VECTOR('',#111,1.);
#111 = DIRECTION('',(0.,-0.939692620786,0.342020143326));
#112 = ORIENTED_EDGE('',*,*,#113,.F.);
#113 = EDGE_CURVE('',#73,#106,#114,.T.);
#114 = B_SPLINE_CURVE_WITH_KNOTS('',2,(#115,#116,#117),.UNSPECIFIED.,.F.
  ,.F.,(3,3),(0.,1.),.PIECEWISE_BEZIER_KNOTS.);
#115 = CARTESIAN_POINT('',(11.866242038217,2.59950071436,6.557308634528)
  );
#116 = CARTESIAN_POINT('',(11.866242038217,2.742989419925,6.951540613015
    ));
#117 = CARTESIAN_POINT('',(12.157876857749,2.836576587806,7.208669243518
    ));
#118 = SURFACE_OF_LINEAR_EXTRUSION('',#119,#123);
#119 = B_SPLINE_CURVE_WITH_KNOTS('',2,(#120,#121,#122),.UNSPECIFIED.,.F.
  ,.F.,(3,3),(0.,1.),.PIECEWISE_BEZIER_KNOTS.);
#120 = CARTESIAN_POINT('',(11.866242038217,2.59950071436,6.557308634528)
  );
#121 = CARTESIAN_POINT('',(11.866242038217,2.742989419925,6.951540613015
    ));
#122 = CARTESIAN_POINT('',(12.157876857749,2.836576587806,7.208669243518
    ));
#123 = VECTOR('',#124,1.);
#124 = DIRECTION('',(-0.,0.939692620786,-0.342020143326));
#125 = ADVANCED_FACE('',(#126),#151,.T.);
#126 = FACE_BOUND('',#127,.T.);
#127 = EDGE_LOOP('',(#128,#129,#137,#145));
#128 = ORIENTED_EDGE('',*,*,#105,.T.);
#129 = ORIENTED_EDGE('',*,*,#130,.T.);
#130 = EDGE_CURVE('',#98,#131,#133,.T.);
#131 = VERTEX_POINT('',#132);
#132 = CARTESIAN_POINT('',(12.987261146497,2.178467751651,7.73957359677)
  );
#133 = B_SPLINE_CURVE_WITH_KNOTS('',2,(#134,#135,#136),.UNSPECIFIED.,.F.
  ,.F.,(3,3),(0.,1.),.PIECEWISE_BEZIER_KNOTS.);
#134 = CARTESIAN_POINT('',(12.157876857749,2.084822491177,7.482285358178
    ));
#135 = CARTESIAN_POINT('',(12.449681528662,2.178467751651,7.73957359677)
  );
#136 = CARTESIAN_POINT('',(12.987261146497,2.178467751651,7.73957359677)
  );
#137 = ORIENTED_EDGE('',*,*,#138,.F.);
#138 = EDGE_CURVE('',#139,#131,#141,.T.);
#139 = VERTEX_POINT('',#140);
#140 = CARTESIAN_POINT('',(12.987261146497,2.93022184828,7.465957482109)
  );
#141 = LINE('',#142,#143);
#142 = CARTESIAN_POINT('',(12.987261146497,2.93022184828,7.465957482109)
  );
#143 = VECTOR('',#144,1.);
#144 = DIRECTION('',(0.,-0.939692620786,0.342020143326));
#145 = ORIENTED_EDGE('',*,*,#146,.F.);
#146 = EDGE_CURVE('',#106,#139,#147,.T.);
#147 = B_SPLINE_CURVE_WITH_KNOTS('',2,(#148,#149,#150),.UNSPECIFIED.,.F.
  ,.F.,(3,3),(0.,1.),.PIECEWISE_BEZIER_KNOTS.);
#148 = CARTESIAN_POINT('',(12.157876857749,2.836576587806,7.208669243518
    ));
#149 = CARTESIAN_POINT('',(12.449681528662,2.93022184828,7.465957482109)
  );
#150 = CARTESIAN_POINT('',(12.987261146497,2.93022184828,7.465957482109)
  );
#151 = SURFACE_OF_LINEAR_EXTRUSION('',#152,#156);
#152 = B_SPLINE_CURVE_WITH_KNOTS('',2,(#153,#154,#155),.UNSPECIFIED.,.F.
  ,.F.,(3,3),(0.,1.),.PIECEWISE_BEZIER_KNOTS.);
#153 = CARTESIAN_POINT('',(12.157876857749,2.836576587806,7.208669243518
    ));
#154 = CARTESIAN_POINT('',(12.449681528662,2.93022184828,7.465957482109)
  );
#155 = CARTESIAN_POINT('',(12.987261146497,2.93022184828,7.465957482109)
  );
#156 = VECTOR('',#157,1.);
#157 = DIRECTION('',(-0.,0.939692620786,-0.342020143326));
#158 = ADVANCED_FACE('',(#159),#184,.T.);
#159 = FACE_BOUND('',#160,.T.);
#160 = EDGE_LOOP('',(#161,#162,#170,#178));
#161 = ORIENTED_EDGE('',*,*,#138,.T.);
#162 = ORIENTED_EDGE('',*,*,#163,.T.);
#163 = EDGE_CURVE('',#131,#164,#166,.T.);
#164 = VERTEX_POINT('',#165);
#165 = CARTESIAN_POINT('',(13.813927813163,2.084822491177,7.482285358178
    ));
#166 = B_SPLINE_CURVE_WITH_KNOTS('',2,(#167,#168,#169),.UNSPECIFIED.,.F.
  ,.F.,(3,3),(0.,1.),.PIECEWISE_BEZIER_KNOTS.);
#167 = CARTESIAN_POINT('',(12.987261146497,2.178467751651,7.73957359677)
  );
#168 = CARTESIAN_POINT('',(13.51974522293,2.178467751651,7.73957359677)
  );
#169 = CARTESIAN_POINT('',(13.813927813163,2.084822491177,7.482285358178
    ));
#170 = ORIENTED_EDGE('',*,*,#171,.F.);
#171 = EDGE_CURVE('',#172,#164,#174,.T.);
#172 = VERTEX_POINT('',#173);
#173 = CARTESIAN_POINT('',(13.813927813163,2.836576587806,7.208669243518
    ));
#174 = LINE('',#175,#176);
#175 = CARTESIAN_POINT('',(13.813927813163,2.836576587806,7.208669243518
    ));
#176 = VECTOR('',#177,1.);
#177 = DIRECTION('',(0.,-0.939692620786,0.342020143326));
#178 = ORIENTED_EDGE('',*,*,#179,.F.);
#179 = EDGE_CURVE('',#139,#172,#180,.T.);
#180 = B_SPLINE_CURVE_WITH_KNOTS('',2,(#181,#182,#183),.UNSPECIFIED.,.F.
  ,.F.,(3,3),(0.,1.),.PIECEWISE_BEZIER_KNOTS.);
#181 = CARTESIAN_POINT('',(12.987261146497,2.93022184828,7.465957482109)
  );
#182 = CARTESIAN_POINT('',(13.51974522293,2.93022184828,7.465957482109)
  );
#183 = CARTESIAN_POINT('',(13.813927813163,2.836576587806,7.208669243518
    ));
#184 = SURFACE_OF_LINEAR_EXTRUSION('',#185,#189);
#185 = B_SPLINE_CURVE_WITH_KNOTS('',2,(#186,#187,#188),.UNSPECIFIED.,.F.
  ,.F.,(3,3),(0.,1.),.PIECEWISE_BEZIER_KNOTS.);
#186 = CARTESIAN_POINT('',(12.987261146497,2.93022184828,7.465957482109)
  );
#187 = CARTESIAN_POINT('',(13.51974522293,2.93022184828,7.465957482109)
  );
#188 = CARTESIAN_POINT('',(13.813927813163,2.836576587806,7.208669243518
    ));
#189 = VECTOR('',#190,1.);
#190 = DIRECTION('',(-0.,0.939692620786,-0.342020143326));
#191 = ADVANCED_FACE('',(#192),#217,.T.);
#192 = FACE_BOUND('',#193,.T.);
#193 = EDGE_LOOP('',(#194,#195,#203,#211));
#194 = ORIENTED_EDGE('',*,*,#171,.T.);
#195 = ORIENTED_EDGE('',*,*,#196,.T.);
#196 = EDGE_CURVE('',#164,#197,#199,.T.);
#197 = VERTEX_POINT('',#198);
#198 = CARTESIAN_POINT('',(14.108280254777,1.847746617731,6.830924749188
    ));
#199 = B_SPLINE_CURVE_WITH_KNOTS('',2,(#200,#201,#202),.UNSPECIFIED.,.F.
  ,.F.,(3,3),(0.,1.),.PIECEWISE_BEZIER_KNOTS.);
#200 = CARTESIAN_POINT('',(13.813927813163,2.084822491177,7.482285358178
    ));
#201 = CARTESIAN_POINT('',(14.108280254777,1.991235323296,7.225156727675
    ));
#202 = CARTESIAN_POINT('',(14.108280254777,1.847746617731,6.830924749188
    ));
#203 = ORIENTED_EDGE('',*,*,#204,.F.);
#204 = EDGE_CURVE('',#205,#197,#207,.T.);
#205 = VERTEX_POINT('',#206);
#206 = CARTESIAN_POINT('',(14.108280254777,2.59950071436,6.557308634528)
  );
#207 = LINE('',#208,#209);
#208 = CARTESIAN_POINT('',(14.108280254777,2.59950071436,6.557308634528)
  );
#209 = VECTOR('',#210,1.);
#210 = DIRECTION('',(0.,-0.939692620786,0.342020143326));
#211 = ORIENTED_EDGE('',*,*,#212,.F.);
#212 = EDGE_CURVE('',#172,#205,#213,.T.);
#213 = B_SPLINE_CURVE_WITH_KNOTS('',2,(#214,#215,#216),.UNSPECIFIED.,.F.
  ,.F.,(3,3),(0.,1.),.PIECEWISE_BEZIER_KNOTS.);
#214 = CARTESIAN_POINT('',(13.813927813163,2.836576587806,7.208669243518
    ));
#215 = CARTESIAN_POINT('',(14.108280254777,2.742989419925,6.951540613015
    ));
#216 = CARTESIAN_POINT('',(14.108280254777,2.59950071436,6.557308634528)
  );
#217 = SURFACE_OF_LINEAR_EXTRUSION('',#218,#222);
#218 = B_SPLINE_CURVE_WITH_KNOTS('',2,(#219,#220,#221),.UNSPECIFIED.,.F.
  ,.F.,(3,3),(0.,1.),.PIECEWISE_BEZIER_KNOTS.);
#219 = CARTESIAN_POINT('',(13.813927813163,2.836576587806,7.208669243518
    ));
#220 = CARTESIAN_POINT('',(14.108280254777,2.742989419925,6.951540613015
    ));
#221 = CARTESIAN_POINT('',(14.108280254777,2.59950071436,6.557308634528)
  );
#222 = VECTOR('',#223,1.);
#223 = DIRECTION('',(-0.,0.939692620786,-0.342020143326));
#224 = ADVANCED_FACE('',(#225),#250,.T.);
#225 = FACE_BOUND('',#226,.T.);
#226 = EDGE_LOOP('',(#227,#228,#236,#244));
#227 = ORIENTED_EDGE('',*,*,#204,.T.);
#228 = ORIENTED_EDGE('',*,*,#229,.T.);
#229 = EDGE_CURVE('',#197,#230,#232,.T.);
#230 = VERTEX_POINT('',#231);
#231 = CARTESIAN_POINT('',(13.973248407643,1.688921467523,6.394556235349
    ));
#232 = B_SPLINE_CURVE_WITH_KNOTS('',2,(#233,#234,#235),.UNSPECIFIED.,.F.
  ,.F.,(3,3),(0.,1.),.PIECEWISE_BEZIER_KNOTS.);
#233 = CARTESIAN_POINT('',(14.108280254777,1.847746617731,6.830924749188
    ));
#234 = CARTESIAN_POINT('',(14.108280254777,1.758458301758,6.585607117231
    ));
#235 = CARTESIAN_POINT('',(13.973248407643,1.688921467523,6.394556235349
    ));
#236 = ORIENTED_EDGE('',*,*,#237,.F.);
#237 = EDGE_CURVE('',#238,#230,#240,.T.);
#238 = VERTEX_POINT('',#239);
#239 = CARTESIAN_POINT('',(13.973248407643,2.440675564152,6.120940120689
    ));
#240 = LINE('',#241,#242);
#241 = CARTESIAN_POINT('',(13.973248407643,2.440675564152,6.120940120689
    ));
#242 = VECTOR('',#243,1.);
#243 = DIRECTION('',(0.,-0.939692620786,0.342020143326));
#244 = ORIENTED_EDGE('',*,*,#245,.F.);
#245 = EDGE_CURVE('',#205,#238,#246,.T.);
#246 = B_SPLINE_CURVE_WITH_KNOTS('',2,(#247,#248,#249),.UNSPECIFIED.,.F.
  ,.F.,(3,3),(0.,1.),.PIECEWISE_BEZIER_KNOTS.);
#247 = CARTESIAN_POINT('',(14.108280254777,2.59950071436,6.557308634528)
  );
#248 = CARTESIAN_POINT('',(14.108280254777,2.510212398387,6.311991002571
    ));
#249 = CARTESIAN_POINT('',(13.973248407643,2.440675564152,6.120940120689
    ));
#250 = SURFACE_OF_LINEAR_EXTRUSION('',#251,#255);
#251 = B_SPLINE_CURVE_WITH_KNOTS('',2,(#252,#253,#254),.UNSPECIFIED.,.F.
  ,.F.,(3,3),(0.,1.),.PIECEWISE_BEZIER_KNOTS.);
#252 = CARTESIAN_POINT('',(14.108280254777,2.59950071436,6.557308634528)
  );
#253 = CARTESIAN_POINT('',(14.108280254777,2.510212398387,6.311991002571
    ));
#254 = CARTESIAN_POINT('',(13.973248407643,2.440675564152,6.120940120689
    ));
#255 = VECTOR('',#256,1.);
#256 = DIRECTION('',(-0.,0.939692620786,-0.342020143326));
#257 = ADVANCED_FACE('',(#258),#283,.T.);
#258 = FACE_BOUND('',#259,.T.);
#259 = EDGE_LOOP('',(#260,#261,#269,#277));
#260 = ORIENTED_EDGE('',*,*,#237,.T.);
#261 = ORIENTED_EDGE('',*,*,#262,.T.);
#262 = EDGE_CURVE('',#230,#263,#265,.T.);
#263 = VERTEX_POINT('',#264);
#264 = CARTESIAN_POINT('',(13.593630573248,1.582612021699,6.102473433474
    ));
#265 = B_SPLINE_CURVE_WITH_KNOTS('',2,(#266,#267,#268),.UNSPECIFIED.,.F.
  ,.F.,(3,3),(0.,1.),.PIECEWISE_BEZIER_KNOTS.);
#266 = CARTESIAN_POINT('',(13.973248407643,1.688921467523,6.394556235349
    ));
#267 = CARTESIAN_POINT('',(13.83821656051,1.619384633288,6.203505353467)
  );
#268 = CARTESIAN_POINT('',(13.593630573248,1.582612021699,6.102473433474
    ));
#269 = ORIENTED_EDGE('',*,*,#270,.F.);
#270 = EDGE_CURVE('',#271,#263,#273,.T.);
#271 = VERTEX_POINT('',#272);
#272 = CARTESIAN_POINT('',(13.593630573248,2.334366118328,5.828857318814
    ));
#273 = LINE('',#274,#275);
#274 = CARTESIAN_POINT('',(13.593630573248,2.334366118328,5.828857318814
    ));
#275 = VECTOR('',#276,1.);
#276 = DIRECTION('',(0.,-0.939692620786,0.342020143326));
#277 = ORIENTED_EDGE('',*,*,#278,.F.);
#278 = EDGE_CURVE('',#238,#271,#279,.T.);
#279 = B_SPLINE_CURVE_WITH_KNOTS('',2,(#280,#281,#282),.UNSPECIFIED.,.F.
  ,.F.,(3,3),(0.,1.),.PIECEWISE_BEZIER_KNOTS.);
#280 = CARTESIAN_POINT('',(13.973248407643,2.440675564152,6.120940120689
    ));
#281 = CARTESIAN_POINT('',(13.83821656051,2.371138729916,5.929889238807)
  );
#282 = CARTESIAN_POINT('',(13.593630573248,2.334366118328,5.828857318814
    ));
#283 = SURFACE_OF_LINEAR_EXTRUSION('',#284,#288);
#284 = B_SPLINE_CURVE_WITH_KNOTS('',2,(#285,#286,#287),.UNSPECIFIED.,.F.
  ,.F.,(3,3),(0.,1.),.PIECEWISE_BEZIER_KNOTS.);
#285 = CARTESIAN_POINT('',(13.973248407643,2.440675564152,6.120940120689
    ));
#286 = CARTESIAN_POINT('',(13.83821656051,2.371138729916,5.929889238807)
  );
#287 = CARTESIAN_POINT('',(13.593630573248,2.334366118328,5.828857318814
    ));
#288 = VECTOR('',#289,1.);
#289 = DIRECTION('',(-0.,0.939692620786,-0.342020143326));
#290 = ADVANCED_FACE('',(#291),#316,.T.);
#291 = FACE_BOUND('',#292,.T.);
#292 = EDGE_LOOP('',(#293,#294,#302,#310));
#293 = ORIENTED_EDGE('',*,*,#270,.T.);
#294 = ORIENTED_EDGE('',*,*,#295,.T.);
#295 = EDGE_CURVE('',#263,#296,#298,.T.);
#296 = VERTEX_POINT('',#297);
#297 = CARTESIAN_POINT('',(14.066157112527,1.457829131192,5.75963525947)
  );
#298 = B_SPLINE_CURVE_WITH_KNOTS('',2,(#299,#300,#301),.UNSPECIFIED.,.F.
  ,.F.,(3,3),(0.,1.),.PIECEWISE_BEZIER_KNOTS.);
#299 = CARTESIAN_POINT('',(13.593630573248,1.582612021699,6.102473433474
    ));
#300 = CARTESIAN_POINT('',(13.904458598726,1.539855872997,5.985001880371
    ));
#301 = CARTESIAN_POINT('',(14.066157112527,1.457829131192,5.75963525947)
  );
#302 = ORIENTED_EDGE('',*,*,#303,.F.);
#303 = EDGE_CURVE('',#304,#296,#306,.T.);
#304 = VERTEX_POINT('',#305);
#305 = CARTESIAN_POINT('',(14.066157112527,2.20958322782,5.48601914481)
  );
#306 = LINE('',#307,#308);
#307 = CARTESIAN_POINT('',(14.066157112527,2.20958322782,5.48601914481)
  );
#308 = VECTOR('',#309,1.);
#309 = DIRECTION('',(0.,-0.939692620786,0.342020143326));
#310 = ORIENTED_EDGE('',*,*,#311,.F.);
#311 = EDGE_CURVE('',#271,#304,#312,.T.);
#312 = B_SPLINE_CURVE_WITH_KNOTS('',2,(#313,#314,#315),.UNSPECIFIED.,.F.
  ,.F.,(3,3),(0.,1.),.PIECEWISE_BEZIER_KNOTS.);
#313 = CARTESIAN_POINT('',(13.593630573248,2.334366118328,5.828857318814
    ));
#314 = CARTESIAN_POINT('',(13.904458598726,2.291609969625,5.71138576571)
  );
#315 = CARTESIAN_POINT('',(14.066157112527,2.20958322782,5.48601914481)
  );
#316 = SURFACE_OF_LINEAR_EXTRUSION('',#317,#321);
#317 = B_SPLINE_CURVE_WITH_KNOTS('',2,(#318,#319,#320),.UNSPECIFIED.,.F.
  ,.F.,(3,3),(0.,1.),.PIECEWISE_BEZIER_KNOTS.);
#318 = CARTESIAN_POINT('',(13.593630573248,2.334366118328,5.828857318814
    ));
#319 = CARTESIAN_POINT('',(13.904458598726,2.291609969625,5.71138576571)
  );
#320 = CARTESIAN_POINT('',(14.066157112527,2.20958322782,5.48601914481)
  );
#321 = VECTOR('',#322,1.);
#322 = DIRECTION('',(-0.,0.939692620786,-0.342020143326));
#323 = ADVANCED_FACE('',(#324),#349,.T.);
#324 = FACE_BOUND('',#325,.T.);
#325 = EDGE_LOOP('',(#326,#327,#335,#343));
#326 = ORIENTED_EDGE('',*,*,#303,.T.);
#327 = ORIENTED_EDGE('',*,*,#328,.T.);
#328 = EDGE_CURVE('',#296,#329,#331,.T.);
#329 = VERTEX_POINT('',#330);
#330 = CARTESIAN_POINT('',(14.228025477707,1.268505369477,5.239472499192
    ));
#331 = B_SPLINE_CURVE_WITH_KNOTS('',2,(#332,#333,#334),.UNSPECIFIED.,.F.
  ,.F.,(3,3),(0.,1.),.PIECEWISE_BEZIER_KNOTS.);
#332 = CARTESIAN_POINT('',(14.066157112527,1.457829131192,5.75963525947)
  );
#333 = CARTESIAN_POINT('',(14.228025477707,1.375802389387,5.53426863857)
  );
#334 = CARTESIAN_POINT('',(14.228025477707,1.268505369477,5.239472499192
    ));
#335 = ORIENTED_EDGE('',*,*,#336,.F.);
#336 = EDGE_CURVE('',#337,#329,#339,.T.);
#337 = VERTEX_POINT('',#338);
#338 = CARTESIAN_POINT('',(14.228025477707,2.020259466105,4.965856384531
    ));
#339 = LINE('',#340,#341);
#340 = CARTESIAN_POINT('',(14.228025477707,2.020259466105,4.965856384531
    ));
#341 = VECTOR('',#342,1.);
#342 = DIRECTION('',(0.,-0.939692620786,0.342020143326));
#343 = ORIENTED_EDGE('',*,*,#344,.F.);
#344 = EDGE_CURVE('',#304,#337,#345,.T.);
#345 = B_SPLINE_CURVE_WITH_KNOTS('',2,(#346,#347,#348),.UNSPECIFIED.,.F.
  ,.F.,(3,3),(0.,1.),.PIECEWISE_BEZIER_KNOTS.);
#346 = CARTESIAN_POINT('',(14.066157112527,2.20958322782,5.48601914481)
  );
#347 = CARTESIAN_POINT('',(14.228025477707,2.127556486016,5.26065252391)
  );
#348 = CARTESIAN_POINT('',(14.228025477707,2.020259466105,4.965856384531
    ));
#349 = SURFACE_OF_LINEAR_EXTRUSION('',#350,#354);
#350 = B_SPLINE_CURVE_WITH_KNOTS('',2,(#351,#352,#353),.UNSPECIFIED.,.F.
  ,.F.,(3,3),(0.,1.),.PIECEWISE_BEZIER_KNOTS.);
#351 = CARTESIAN_POINT('',(14.066157112527,2.20958322782,5.48601914481)
  );
#352 = CARTESIAN_POINT('',(14.228025477707,2.127556486016,5.26065252391)
  );
#353 = CARTESIAN_POINT('',(14.228025477707,2.020259466105,4.965856384531
    ));
#354 = VECTOR('',#355,1.);
#355 = DIRECTION('',(-0.,0.939692620786,-0.342020143326));
#356 = ADVANCED_FACE('',(#357),#382,.T.);
#357 = FACE_BOUND('',#358,.T.);
#358 = EDGE_LOOP('',(#359,#360,#368,#376));
#359 = ORIENTED_EDGE('',*,*,#336,.T.);
#360 = ORIENTED_EDGE('',*,*,#361,.T.);
#361 = EDGE_CURVE('',#329,#362,#364,.T.);
#362 = VERTEX_POINT('',#363);
#363 = CARTESIAN_POINT('',(13.898004246285,0.98054038426,4.448295204714)
  );
#364 = B_SPLINE_CURVE_WITH_KNOTS('',2,(#365,#366,#367),.UNSPECIFIED.,.F.
  ,.F.,(3,3),(0.,1.),.PIECEWISE_BEZIER_KNOTS.);
#365 = CARTESIAN_POINT('',(14.228025477707,1.268505369477,5.239472499192
    ));
#366 = CARTESIAN_POINT('',(14.228025477707,1.091381052364,4.752827437489
    ));
#367 = CARTESIAN_POINT('',(13.898004246285,0.98054038426,4.448295204714)
  );
#368 = ORIENTED_EDGE('',*,*,#369,.F.);
#369 = EDGE_CURVE('',#370,#362,#372,.T.);
#370 = VERTEX_POINT('',#371);
#371 = CARTESIAN_POINT('',(13.898004246285,1.732294480888,4.174679090054
    ));
#372 = LINE('',#373,#374);
#373 = CARTESIAN_POINT('',(13.898004246285,1.732294480888,4.174679090054
    ));
#374 = VECTOR('',#375,1.);
#375 = DIRECTION('',(0.,-0.939692620786,0.342020143326));
#376 = ORIENTED_EDGE('',*,*,#377,.F.);
#377 = EDGE_CURVE('',#337,#370,#378,.T.);
#378 = B_SPLINE_CURVE_WITH_KNOTS('',2,(#379,#380,#381),.UNSPECIFIED.,.F.
  ,.F.,(3,3),(0.,1.),.PIECEWISE_BEZIER_KNOTS.);
#379 = CARTESIAN_POINT('',(14.228025477707,2.020259466105,4.965856384531
    ));
#380 = CARTESIAN_POINT('',(14.228025477707,1.843135148993,4.479211322828
    ));
#381 = CARTESIAN_POINT('',(13.898004246285,1.732294480888,4.174679090054
    ));
#382 = SURFACE_OF_LINEAR_EXTRUSION('',#383,#387);
#383 = B_SPLINE_CURVE_WITH_KNOTS('',2,(#384,#385,#386),.UNSPECIFIED.,.F.
  ,.F.,(3,3),(0.,1.),.PIECEWISE_BEZIER_KNOTS.);
#384 = CARTESIAN_POINT('',(14.228025477707,2.020259466105,4.965856384531
    ));
#385 = CARTESIAN_POINT('',(14.228025477707,1.843135148993,4.479211322828
    ));
#386 = CARTESIAN_POINT('',(13.898004246285,1.732294480888,4.174679090054
    ));
#387 = VECTOR('',#388,1.);
#388 = DIRECTION('',(-0.,0.939692620786,-0.342020143326));
#389 = ADVANCED_FACE('',(#390),#415,.T.);
#390 = FACE_BOUND('',#391,.T.);
#391 = EDGE_LOOP('',(#392,#393,#401,#409));
#392 = ORIENTED_EDGE('',*,*,#369,.T.);
#393 = ORIENTED_EDGE('',*,*,#394,.T.);
#394 = EDGE_CURVE('',#362,#395,#397,.T.);
#395 = VERTEX_POINT('',#396);
#396 = CARTESIAN_POINT('',(13.020382165605,0.869757808748,4.143922580028
    ));
#397 = B_SPLINE_CURVE_WITH_KNOTS('',2,(#398,#399,#400),.UNSPECIFIED.,.F.
  ,.F.,(3,3),(0.,1.),.PIECEWISE_BEZIER_KNOTS.);
#398 = CARTESIAN_POINT('',(13.898004246285,0.98054038426,4.448295204714)
  );
#399 = CARTESIAN_POINT('',(13.568152866242,0.869757808748,4.143922580028
    ));
#400 = CARTESIAN_POINT('',(13.020382165605,0.869757808748,4.143922580028
    ));
#401 = ORIENTED_EDGE('',*,*,#402,.F.);
#402 = EDGE_CURVE('',#403,#395,#405,.T.);
#403 = VERTEX_POINT('',#404);
#404 = CARTESIAN_POINT('',(13.020382165605,1.621511905377,3.870306465368
    ));
#405 = LINE('',#406,#407);
#406 = CARTESIAN_POINT('',(13.020382165605,1.621511905377,3.870306465368
    ));
#407 = VECTOR('',#408,1.);
#408 = DIRECTION('',(0.,-0.939692620786,0.342020143326));
#409 = ORIENTED_EDGE('',*,*,#410,.F.);
#410 = EDGE_CURVE('',#370,#403,#411,.T.);
#411 = B_SPLINE_CURVE_WITH_KNOTS('',2,(#412,#413,#414),.UNSPECIFIED.,.F.
  ,.F.,(3,3),(0.,1.),.PIECEWISE_BEZIER_KNOTS.);
#412 = CARTESIAN_POINT('',(13.898004246285,1.732294480888,4.174679090054
    ));
#413 = CARTESIAN_POINT('',(13.568152866242,1.621511905377,3.870306465368
    ));
#414 = CARTESIAN_POINT('',(13.020382165605,1.621511905377,3.870306465368
    ));
#415 = SURFACE_OF_LINEAR_EXTRUSION('',#416,#420);
#416 = B_SPLINE_CURVE_WITH_KNOTS('',2,(#417,#418,#419),.UNSPECIFIED.,.F.
  ,.F.,(3,3),(0.,1.),.PIECEWISE_BEZIER_KNOTS.);
#417 = CARTESIAN_POINT('',(13.898004246285,1.732294480888,4.174679090054
    ));
#418 = CARTESIAN_POINT('',(13.568152866242,1.621511905377,3.870306465368
    ));
#419 = CARTESIAN_POINT('',(13.020382165605,1.621511905377,3.870306465368
    ));
#420 = VECTOR('',#421,1.);
#421 = DIRECTION('',(-0.,0.939692620786,-0.342020143326));
#422 = ADVANCED_FACE('',(#423),#448,.T.);
#423 = FACE_BOUND('',#424,.T.);
#424 = EDGE_LOOP('',(#425,#426,#434,#442));
#425 = ORIENTED_EDGE('',*,*,#402,.T.);
#426 = ORIENTED_EDGE('',*,*,#427,.T.);
#427 = EDGE_CURVE('',#395,#428,#430,.T.);
#428 = VERTEX_POINT('',#429);
#429 = CARTESIAN_POINT('',(12.171974522293,0.961369828455,4.395624535524
    ));
#430 = B_SPLINE_CURVE_WITH_KNOTS('',2,(#431,#432,#433),.UNSPECIFIED.,.F.
  ,.F.,(3,3),(0.,1.),.PIECEWISE_BEZIER_KNOTS.);
#431 = CARTESIAN_POINT('',(13.020382165605,0.869757808748,4.143922580028
    ));
#432 = CARTESIAN_POINT('',(12.510828025478,0.869757808748,4.143922580028
    ));
#433 = CARTESIAN_POINT('',(12.171974522293,0.961369828455,4.395624535524
    ));
#434 = ORIENTED_EDGE('',*,*,#435,.F.);
#435 = EDGE_CURVE('',#436,#428,#438,.T.);
#436 = VERTEX_POINT('',#437);
#437 = CARTESIAN_POINT('',(12.171974522293,1.713123925084,4.122008420863
    ));
#438 = LINE('',#439,#440);
#439 = CARTESIAN_POINT('',(12.171974522293,1.713123925084,4.122008420863
    ));
#440 = VECTOR('',#441,1.);
#441 = DIRECTION('',(0.,-0.939692620786,0.342020143326));
#442 = ORIENTED_EDGE('',*,*,#443,.F.);
#443 = EDGE_CURVE('',#403,#436,#444,.T.);
#444 = B_SPLINE_CURVE_WITH_KNOTS('',2,(#445,#446,#447),.UNSPECIFIED.,.F.
  ,.F.,(3,3),(0.,1.),.PIECEWISE_BEZIER_KNOTS.);
#445 = CARTESIAN_POINT('',(13.020382165605,1.621511905377,3.870306465368
    ));
#446 = CARTESIAN_POINT('',(12.510828025478,1.621511905377,3.870306465368
    ));
#447 = CARTESIAN_POINT('',(12.171974522293,1.713123925084,4.122008420863
    ));
#448 = SURFACE_OF_LINEAR_EXTRUSION('',#449,#453);
#449 = B_SPLINE_CURVE_WITH_KNOTS('',2,(#450,#451,#452),.UNSPECIFIED.,.F.
  ,.F.,(3,3),(0.,1.),.PIECEWISE_BEZIER_KNOTS.);
#450 = CARTESIAN_POINT('',(13.020382165605,1.621511905377,3.870306465368
    ));
#451 = CARTESIAN_POINT('',(12.510828025478,1.621511905377,3.870306465368
    ));
#452 = CARTESIAN_POINT('',(12.171974522293,1.713123925084,4.122008420863
    ));
#453 = VECTOR('',#454,1.);
#454 = DIRECTION('',(-0.,0.939692620786,-0.342020143326));
#455 = ADVANCED_FACE('',(#456),#481,.T.);
#456 = FACE_BOUND('',#457,.T.);
#457 = EDGE_LOOP('',(#458,#459,#467,#475));
#458 = ORIENTED_EDGE('',*,*,#435,.T.);
#459 = ORIENTED_EDGE('',*,*,#460,.T.);
#460 = EDGE_CURVE('',#428,#461,#463,.T.);
#461 = VERTEX_POINT('',#462);
#462 = CARTESIAN_POINT('',(11.771974522293,1.258048702674,5.210743043269
    ));
#463 = B_SPLINE_CURVE_WITH_KNOTS('',2,(#464,#465,#466),.UNSPECIFIED.,.F.
  ,.F.,(3,3),(0.,1.),.PIECEWISE_BEZIER_KNOTS.);
#464 = CARTESIAN_POINT('',(12.171974522293,0.961369828455,4.395624535524
    ));
#465 = CARTESIAN_POINT('',(11.771974522293,1.069538237266,4.692814796229
    ));
#466 = CARTESIAN_POINT('',(11.771974522293,1.258048702674,5.210743043269
    ));
#467 = ORIENTED_EDGE('',*,*,#468,.F.);
#468 = EDGE_CURVE('',#469,#461,#471,.T.);
#469 = VERTEX_POINT('',#470);
#470 = CARTESIAN_POINT('',(11.771974522293,2.009802799303,4.937126928609
    ));
#471 = LINE('',#472,#473);
#472 = CARTESIAN_POINT('',(11.771974522293,2.009802799303,4.937126928609
    ));
#473 = VECTOR('',#474,1.);
#474 = DIRECTION('',(0.,-0.939692620786,0.342020143326));
#475 = ORIENTED_EDGE('',*,*,#476,.F.);
#476 = EDGE_CURVE('',#436,#469,#477,.T.);
#477 = B_SPLINE_CURVE_WITH_KNOTS('',2,(#478,#479,#480),.UNSPECIFIED.,.F.
  ,.F.,(3,3),(0.,1.),.PIECEWISE_BEZIER_KNOTS.);
#478 = CARTESIAN_POINT('',(12.171974522293,1.713123925084,4.122008420863
    ));
#479 = CARTESIAN_POINT('',(11.771974522293,1.821292333895,4.419198681569
    ));
#480 = CARTESIAN_POINT('',(11.771974522293,2.009802799303,4.937126928609
    ));
#481 = SURFACE_OF_LINEAR_EXTRUSION('',#482,#486);
#482 = B_SPLINE_CURVE_WITH_KNOTS('',2,(#483,#484,#485),.UNSPECIFIED.,.F.
  ,.F.,(3,3),(0.,1.),.PIECEWISE_BEZIER_KNOTS.);
#483 = CARTESIAN_POINT('',(12.171974522293,1.713123925084,4.122008420863
    ));
#484 = CARTESIAN_POINT('',(11.771974522293,1.821292333895,4.419198681569
    ));
#485 = CARTESIAN_POINT('',(11.771974522293,2.009802799303,4.937126928609
    ));
#486 = VECTOR('',#487,1.);
#487 = DIRECTION('',(-0.,0.939692620786,-0.342020143326));
#488 = ADVANCED_FACE('',(#489),#514,.T.);
#489 = FACE_BOUND('',#490,.T.);
#490 = EDGE_LOOP('',(#491,#492,#500,#508));
#491 = ORIENTED_EDGE('',*,*,#468,.T.);
#492 = ORIENTED_EDGE('',*,*,#493,.T.);
#493 = EDGE_CURVE('',#461,#494,#496,.T.);
#494 = VERTEX_POINT('',#495);
#495 = CARTESIAN_POINT('',(11.922292993631,1.448650501443,5.734417181494
    ));
#496 = B_SPLINE_CURVE_WITH_KNOTS('',2,(#497,#498,#499),.UNSPECIFIED.,.F.
  ,.F.,(3,3),(0.,1.),.PIECEWISE_BEZIER_KNOTS.);
#497 = CARTESIAN_POINT('',(11.771974522293,1.258048702674,5.210743043269
    ));
#498 = CARTESIAN_POINT('',(11.771974522293,1.361860166984,5.495962697341
    ));
#499 = CARTESIAN_POINT('',(11.922292993631,1.448650501443,5.734417181494
    ));
#500 = ORIENTED_EDGE('',*,*,#501,.F.);
#501 = EDGE_CURVE('',#502,#494,#504,.T.);
#502 = VERTEX_POINT('',#503);
#503 = CARTESIAN_POINT('',(11.922292993631,2.200404598072,5.460801066834
    ));
#504 = LINE('',#505,#506);
#505 = CARTESIAN_POINT('',(11.922292993631,2.200404598072,5.460801066834
    ));
#506 = VECTOR('',#507,1.);
#507 = DIRECTION('',(0.,-0.939692620786,0.342020143326));
#508 = ORIENTED_EDGE('',*,*,#509,.F.);
#509 = EDGE_CURVE('',#469,#502,#510,.T.);
#510 = B_SPLINE_CURVE_WITH_KNOTS('',2,(#511,#512,#513),.UNSPECIFIED.,.F.
  ,.F.,(3,3),(0.,1.),.PIECEWISE_BEZIER_KNOTS.);
#511 = CARTESIAN_POINT('',(11.771974522293,2.009802799303,4.937126928609
    ));
#512 = CARTESIAN_POINT('',(11.771974522293,2.113614263613,5.22234658268)
  );
#513 = CARTESIAN_POINT('',(11.922292993631,2.200404598072,5.460801066834
    ));
#514 = SURFACE_OF_LINEAR_EXTRUSION('',#515,#519);
#515 = B_SPLINE_CURVE_WITH_KNOTS('',2,(#516,#517,#518),.UNSPECIFIED.,.F.
  ,.F.,(3,3),(0.,1.),.PIECEWISE_BEZIER_KNOTS.);
#516 = CARTESIAN_POINT('',(11.771974522293,2.009802799303,4.937126928609
    ));
#517 = CARTESIAN_POINT('',(11.771974522293,2.113614263613,5.22234658268)
  );
#518 = CARTESIAN_POINT('',(11.922292993631,2.200404598072,5.460801066834
    ));
#519 = VECTOR('',#520,1.);
#520 = DIRECTION('',(-0.,0.939692620786,-0.342020143326));
#521 = ADVANCED_FACE('',(#522),#538,.T.);
#522 = FACE_BOUND('',#523,.T.);
#523 = EDGE_LOOP('',(#524,#525,#531,#532));
#524 = ORIENTED_EDGE('',*,*,#501,.T.);
#525 = ORIENTED_EDGE('',*,*,#526,.T.);
#526 = EDGE_CURVE('',#494,#24,#527,.T.);
#527 = B_SPLINE_CURVE_WITH_KNOTS('',2,(#528,#529,#530),.UNSPECIFIED.,.F.
  ,.F.,(3,3),(0.,1.),.PIECEWISE_BEZIER_KNOTS.);
#528 = CARTESIAN_POINT('',(11.922292993631,1.448650501443,5.734417181494
    ));
#529 = CARTESIAN_POINT('',(12.072611464968,1.535498928496,5.973031273736
    ));
#530 = CARTESIAN_POINT('',(12.396178343949,1.582612021699,6.102473433474
    ));
#531 = ORIENTED_EDGE('',*,*,#21,.F.);
#532 = ORIENTED_EDGE('',*,*,#533,.F.);
#533 = EDGE_CURVE('',#502,#22,#534,.T.);
#534 = B_SPLINE_CURVE_WITH_KNOTS('',2,(#535,#536,#537),.UNSPECIFIED.,.F.
  ,.F.,(3,3),(0.,1.),.PIECEWISE_BEZIER_KNOTS.);
#535 = CARTESIAN_POINT('',(11.922292993631,2.200404598072,5.460801066834
    ));
#536 = CARTESIAN_POINT('',(12.072611464968,2.287253025124,5.699415159076
    ));
#537 = CARTESIAN_POINT('',(12.396178343949,2.334366118328,5.828857318814
    ));
#538 = SURFACE_OF_LINEAR_EXTRUSION('',#539,#543);
#539 = B_SPLINE_CURVE_WITH_KNOTS('',2,(#540,#541,#542),.UNSPECIFIED.,.F.
  ,.F.,(3,3),(0.,1.),.PIECEWISE_BEZIER_KNOTS.);
#540 = CARTESIAN_POINT('',(11.922292993631,2.200404598072,5.460801066834
    ));
#541 = CARTESIAN_POINT('',(12.072611464968,2.287253025124,5.699415159076
    ));
#542 = CARTESIAN_POINT('',(12.396178343949,2.334366118328,5.828857318814
    ));
#543 = VECTOR('',#544,1.);
#544 = DIRECTION('',(-0.,0.939692620786,-0.342020143326));
#545 = ADVANCED_FACE('',(#546),#564,.F.);
#546 = FACE_BOUND('',#547,.T.);
#547 = EDGE_LOOP('',(#548,#549,#550,#551,#552,#553,#554,#555,#556,#557,
    #558,#559,#560,#561,#562,#563));
#548 = ORIENTED_EDGE('',*,*,#47,.T.);
#549 = ORIENTED_EDGE('',*,*,#80,.T.);
#550 = ORIENTED_EDGE('',*,*,#113,.T.);
#551 = ORIENTED_EDGE('',*,*,#146,.T.);
#552 = ORIENTED_EDGE('',*,*,#179,.T.);
#553 = ORIENTED_EDGE('',*,*,#212,.T.);
#554 = ORIENTED_EDGE('',*,*,#245,.T.);
#555 = ORIENTED_EDGE('',*,*,#278,.T.);
#556 = ORIENTED_EDGE('',*,*,#311,.T.);
#557 = ORIENTED_EDGE('',*,*,#344,.T.);
#558 = ORIENTED_EDGE('',*,*,#377,.T.);
#559 = ORIENTED_EDGE('',*,*,#410,.T.);
#560 = ORIENTED_EDGE('',*,*,#443,.T.);
#561 = ORIENTED_EDGE('',*,*,#476,.T.);
#562 = ORIENTED_EDGE('',*,*,#509,.T.);
#563 = ORIENTED_EDGE('',*,*,#533,.T.);
#564 = PLANE('',#565);
#565 = AXIS2_PLACEMENT_3D('',#566,#567,#568);
#566 = CARTESIAN_POINT('',(12.994656759233,2.276664805122,5.670324263707
    ));
#567 = DIRECTION('',(0.,-0.939692620786,0.342020143326));
#568 = DIRECTION('',(1.,0.,0.));
#569 = ADVANCED_FACE('',(#570),#588,.T.);
#570 = FACE_BOUND('',#571,.F.);
#571 = EDGE_LOOP('',(#572,#573,#574,#575,#576,#577,#578,#579,#580,#581,
    #582,#583,#584,#585,#586,#587));
#572 = ORIENTED_EDGE('',*,*,#31,.T.);
#573 = ORIENTED_EDGE('',*,*,#64,.T.);
#574 = ORIENTED_EDGE('',*,*,#97,.T.);
#575 = ORIENTED_EDGE('',*,*,#130,.T.);
#576 = ORIENTED_EDGE('',*,*,#163,.T.);
#577 = ORIENTED_EDGE('',*,*,#196,.T.);
#578 = ORIENTED_EDGE('',*,*,#229,.T.);
#579 = ORIENTED_EDGE('',*,*,#262,.T.);
#580 = ORIENTED_EDGE('',*,*,#295,.T.);
#581 = ORIENTED_EDGE('',*,*,#328,.T.);
#582 = ORIENTED_EDGE('',*,*,#361,.T.);
#583 = ORIENTED_EDGE('',*,*,#394,.T.);
#584 = ORIENTED_EDGE('',*,*,#427,.T.);
#585 = ORIENTED_EDGE('',*,*,#460,.T.);
#586 = ORIENTED_EDGE('',*,*,#493,.T.);
#587 = ORIENTED_EDGE('',*,*,#526,.T.);
#588 = PLANE('',#589);
#589 = AXIS2_PLACEMENT_3D('',#590,#591,#592);
#590 = CARTESIAN_POINT('',(12.994656759233,1.524910708493,5.943940378368
    ));
#591 = DIRECTION('',(0.,-0.939692620786,0.342020143326));
#592 = DIRECTION('',(1.,0.,0.));
#593 = MANIFOLD_SOLID_BREP('',#594);
#594 = CLOSED_SHELL('',(#595,#637,#670,#703,#736,#769,#802,#835,#859,
    #875));
#595 = ADVANCED_FACE('',(#596),#630,.F.);
#596 = FACE_BOUND('',#597,.F.);
#597 = EDGE_LOOP('',(#598,#608,#616,#624));
#598 = ORIENTED_EDGE('',*,*,#599,.T.);
#599 = EDGE_CURVE('',#600,#602,#604,.T.);
#600 = VERTEX_POINT('',#601);
#601 = CARTESIAN_POINT('',(12.543949044586,2.582072936356,6.509426207991
    ));
#602 = VERTEX_POINT('',#603);
#603 = CARTESIAN_POINT('',(12.543949044586,1.830318839728,6.783042322652
    ));
#604 = LINE('',#605,#606);
#605 = CARTESIAN_POINT('',(12.543949044586,2.582072936356,6.509426207991
    ));
#606 = VECTOR('',#607,1.);
#607 = DIRECTION('',(0.,-0.939692620786,0.342020143326));
#608 = ORIENTED_EDGE('',*,*,#609,.T.);
#609 = EDGE_CURVE('',#602,#610,#612,.T.);
#610 = VERTEX_POINT('',#611);
#611 = CARTESIAN_POINT('',(12.664883227176,1.714424116002,6.464624186181
    ));
#612 = B_SPLINE_CURVE_WITH_KNOTS('',2,(#613,#614,#615),.UNSPECIFIED.,.F.
  ,.F.,(3,3),(0.,1.),.PIECEWISE_BEZIER_KNOTS.);
#613 = CARTESIAN_POINT('',(12.543949044586,1.830318839728,6.783042322652
    ));
#614 = CARTESIAN_POINT('',(12.543949044586,1.756018412838,6.578903577516
    ));
#615 = CARTESIAN_POINT('',(12.664883227176,1.714424116002,6.464624186181
    ));
#616 = ORIENTED_EDGE('',*,*,#617,.F.);
#617 = EDGE_CURVE('',#618,#610,#620,.T.);
#618 = VERTEX_POINT('',#619);
#619 = CARTESIAN_POINT('',(12.664883227176,2.466178212631,6.191008071521
    ));
#620 = LINE('',#621,#622);
#621 = CARTESIAN_POINT('',(12.664883227176,2.466178212631,6.191008071521
    ));
#622 = VECTOR('',#623,1.);
#623 = DIRECTION('',(0.,-0.939692620786,0.342020143326));
#624 = ORIENTED_EDGE('',*,*,#625,.F.);
#625 = EDGE_CURVE('',#600,#618,#626,.T.);
#626 = B_SPLINE_CURVE_WITH_KNOTS('',2,(#627,#628,#629),.UNSPECIFIED.,.F.
  ,.F.,(3,3),(0.,1.),.PIECEWISE_BEZIER_KNOTS.);
#627 = CARTESIAN_POINT('',(12.543949044586,2.582072936356,6.509426207991
    ));
#628 = CARTESIAN_POINT('',(12.543949044586,2.507772509466,6.305287462856
    ));
#629 = CARTESIAN_POINT('',(12.664883227176,2.466178212631,6.191008071521
    ));
#630 = SURFACE_OF_LINEAR_EXTRUSION('',#631,#635);
#631 = B_SPLINE_CURVE_WITH_KNOTS('',2,(#632,#633,#634),.UNSPECIFIED.,.F.
  ,.F.,(3,3),(0.,1.),.PIECEWISE_BEZIER_KNOTS.);
#632 = CARTESIAN_POINT('',(12.543949044586,2.582072936356,6.509426207991
    ));
#633 = CARTESIAN_POINT('',(12.543949044586,2.507772509466,6.305287462856
    ));
#634 = CARTESIAN_POINT('',(12.664883227176,2.466178212631,6.191008071521
    ));
#635 = VECTOR('',#636,1.);
#636 = DIRECTION('',(-0.,0.939692620786,-0.342020143326));
#637 = ADVANCED_FACE('',(#638),#663,.F.);
#638 = FACE_BOUND('',#639,.F.);
#639 = EDGE_LOOP('',(#640,#641,#649,#657));
#640 = ORIENTED_EDGE('',*,*,#617,.T.);
#641 = ORIENTED_EDGE('',*,*,#642,.T.);
#642 = EDGE_CURVE('',#610,#643,#645,.T.);
#643 = VERTEX_POINT('',#644);
#644 = CARTESIAN_POINT('',(12.987261146497,1.672829819166,6.350344794847
    ));
#645 = B_SPLINE_CURVE_WITH_KNOTS('',2,(#646,#647,#648),.UNSPECIFIED.,.F.
  ,.F.,(3,3),(0.,1.),.PIECEWISE_BEZIER_KNOTS.);
#646 = CARTESIAN_POINT('',(12.664883227176,1.714424116002,6.464624186181
    ));
#647 = CARTESIAN_POINT('',(12.785987261146,1.672829819166,6.350344794847
    ));
#648 = CARTESIAN_POINT('',(12.987261146497,1.672829819166,6.350344794847
    ));
#649 = ORIENTED_EDGE('',*,*,#650,.F.);
#650 = EDGE_CURVE('',#651,#643,#653,.T.);
#651 = VERTEX_POINT('',#652);
#652 = CARTESIAN_POINT('',(12.987261146497,2.424583915795,6.076728680186
    ));
#653 = LINE('',#654,#655);
#654 = CARTESIAN_POINT('',(12.987261146497,2.424583915795,6.076728680186
    ));
#655 = VECTOR('',#656,1.);
#656 = DIRECTION('',(0.,-0.939692620786,0.342020143326));
#657 = ORIENTED_EDGE('',*,*,#658,.F.);
#658 = EDGE_CURVE('',#618,#651,#659,.T.);
#659 = B_SPLINE_CURVE_WITH_KNOTS('',2,(#660,#661,#662),.UNSPECIFIED.,.F.
  ,.F.,(3,3),(0.,1.),.PIECEWISE_BEZIER_KNOTS.);
#660 = CARTESIAN_POINT('',(12.664883227176,2.466178212631,6.191008071521
    ));
#661 = CARTESIAN_POINT('',(12.785987261146,2.424583915795,6.076728680186
    ));
#662 = CARTESIAN_POINT('',(12.987261146497,2.424583915795,6.076728680186
    ));
#663 = SURFACE_OF_LINEAR_EXTRUSION('',#664,#668);
#664 = B_SPLINE_CURVE_WITH_KNOTS('',2,(#665,#666,#667),.UNSPECIFIED.,.F.
  ,.F.,(3,3),(0.,1.),.PIECEWISE_BEZIER_KNOTS.);
#665 = CARTESIAN_POINT('',(12.664883227176,2.466178212631,6.191008071521
    ));
#666 = CARTESIAN_POINT('',(12.785987261146,2.424583915795,6.076728680186
    ));
#667 = CARTESIAN_POINT('',(12.987261146497,2.424583915795,6.076728680186
    ));
#668 = VECTOR('',#669,1.);
#669 = DIRECTION('',(-0.,0.939692620786,-0.342020143326));
#670 = ADVANCED_FACE('',(#671),#696,.F.);
#671 = FACE_BOUND('',#672,.F.);
#672 = EDGE_LOOP('',(#673,#674,#682,#690));
#673 = ORIENTED_EDGE('',*,*,#650,.T.);
#674 = ORIENTED_EDGE('',*,*,#675,.T.);
#675 = EDGE_CURVE('',#643,#676,#678,.T.);
#676 = VERTEX_POINT('',#677);
#677 = CARTESIAN_POINT('',(13.313375796178,1.714830764155,6.465741442801
    ));
#678 = B_SPLINE_CURVE_WITH_KNOTS('',2,(#679,#680,#681),.UNSPECIFIED.,.F.
  ,.F.,(3,3),(0.,1.),.PIECEWISE_BEZIER_KNOTS.);
#679 = CARTESIAN_POINT('',(12.987261146497,1.672829819166,6.350344794847
    ));
#680 = CARTESIAN_POINT('',(13.191082802548,1.672829819166,6.350344794847
    ));
#681 = CARTESIAN_POINT('',(13.313375796178,1.714830764155,6.465741442801
    ));
#682 = ORIENTED_EDGE('',*,*,#683,.F.);
#683 = EDGE_CURVE('',#684,#676,#686,.T.);
#684 = VERTEX_POINT('',#685);
#685 = CARTESIAN_POINT('',(13.313375796178,2.466584860784,6.19212532814)
  );
#686 = LINE('',#687,#688);
#687 = CARTESIAN_POINT('',(13.313375796178,2.466584860784,6.19212532814)
  );
#688 = VECTOR('',#689,1.);
#689 = DIRECTION('',(0.,-0.939692620786,0.342020143326));
#690 = ORIENTED_EDGE('',*,*,#691,.F.);
#691 = EDGE_CURVE('',#651,#684,#692,.T.);
#692 = B_SPLINE_CURVE_WITH_KNOTS('',2,(#693,#694,#695),.UNSPECIFIED.,.F.
  ,.F.,(3,3),(0.,1.),.PIECEWISE_BEZIER_KNOTS.);
#693 = CARTESIAN_POINT('',(12.987261146497,2.424583915795,6.076728680186
    ));
#694 = CARTESIAN_POINT('',(13.191082802548,2.424583915795,6.076728680186
    ));
#695 = CARTESIAN_POINT('',(13.313375796178,2.466584860784,6.19212532814)
  );
#696 = SURFACE_OF_LINEAR_EXTRUSION('',#697,#701);
#697 = B_SPLINE_CURVE_WITH_KNOTS('',2,(#698,#699,#700),.UNSPECIFIED.,.F.
  ,.F.,(3,3),(0.,1.),.PIECEWISE_BEZIER_KNOTS.);
#698 = CARTESIAN_POINT('',(12.987261146497,2.424583915795,6.076728680186
    ));
#699 = CARTESIAN_POINT('',(13.191082802548,2.424583915795,6.076728680186
    ));
#700 = CARTESIAN_POINT('',(13.313375796178,2.466584860784,6.19212532814)
  );
#701 = VECTOR('',#702,1.);
#702 = DIRECTION('',(-0.,0.939692620786,-0.342020143326));
#703 = ADVANCED_FACE('',(#704),#729,.F.);
#704 = FACE_BOUND('',#705,.F.);
#705 = EDGE_LOOP('',(#706,#707,#715,#723));
#706 = ORIENTED_EDGE('',*,*,#683,.T.);
#707 = ORIENTED_EDGE('',*,*,#708,.T.);
#708 = EDGE_CURVE('',#676,#709,#711,.T.);
#709 = VERTEX_POINT('',#710);
#710 = CARTESIAN_POINT('',(13.435668789809,1.831190228628,6.785436443978
    ));
#711 = B_SPLINE_CURVE_WITH_KNOTS('',2,(#712,#713,#714),.UNSPECIFIED.,.F.
  ,.F.,(3,3),(0.,1.),.PIECEWISE_BEZIER_KNOTS.);
#712 = CARTESIAN_POINT('',(13.313375796178,1.714830764155,6.465741442801
    ));
#713 = CARTESIAN_POINT('',(13.435668789809,1.756889801738,6.581297698843
    ));
#714 = CARTESIAN_POINT('',(13.435668789809,1.831190228628,6.785436443978
    ));
#715 = ORIENTED_EDGE('',*,*,#716,.F.);
#716 = EDGE_CURVE('',#717,#709,#719,.T.);
#717 = VERTEX_POINT('',#718);
#718 = CARTESIAN_POINT('',(13.435668789809,2.582944325256,6.511820329318
    ));
#719 = LINE('',#720,#721);
#720 = CARTESIAN_POINT('',(13.435668789809,2.582944325256,6.511820329318
    ));
#721 = VECTOR('',#722,1.);
#722 = DIRECTION('',(0.,-0.939692620786,0.342020143326));
#723 = ORIENTED_EDGE('',*,*,#724,.F.);
#724 = EDGE_CURVE('',#684,#717,#725,.T.);
#725 = B_SPLINE_CURVE_WITH_KNOTS('',2,(#726,#727,#728),.UNSPECIFIED.,.F.
  ,.F.,(3,3),(0.,1.),.PIECEWISE_BEZIER_KNOTS.);
#726 = CARTESIAN_POINT('',(13.313375796178,2.466584860784,6.19212532814)
  );
#727 = CARTESIAN_POINT('',(13.435668789809,2.508643898367,6.307681584182
    ));
#728 = CARTESIAN_POINT('',(13.435668789809,2.582944325256,6.511820329318
    ));
#729 = SURFACE_OF_LINEAR_EXTRUSION('',#730,#734);
#730 = B_SPLINE_CURVE_WITH_KNOTS('',2,(#731,#732,#733),.UNSPECIFIED.,.F.
  ,.F.,(3,3),(0.,1.),.PIECEWISE_BEZIER_KNOTS.);
#731 = CARTESIAN_POINT('',(13.313375796178,2.466584860784,6.19212532814)
  );
#732 = CARTESIAN_POINT('',(13.435668789809,2.508643898367,6.307681584182
    ));
#733 = CARTESIAN_POINT('',(13.435668789809,2.582944325256,6.511820329318
    ));
#734 = VECTOR('',#735,1.);
#735 = DIRECTION('',(-0.,0.939692620786,-0.342020143326));
#736 = ADVANCED_FACE('',(#737),#762,.F.);
#737 = FACE_BOUND('',#738,.F.);
#738 = EDGE_LOOP('',(#739,#740,#748,#756));
#739 = ORIENTED_EDGE('',*,*,#716,.T.);
#740 = ORIENTED_EDGE('',*,*,#741,.T.);
#741 = EDGE_CURVE('',#709,#742,#744,.T.);
#742 = VERTEX_POINT('',#743);
#743 = CARTESIAN_POINT('',(13.314564755839,1.943076563412,7.092841622345
    ));
#744 = B_SPLINE_CURVE_WITH_KNOTS('',2,(#745,#746,#747),.UNSPECIFIED.,.F.
  ,.F.,(3,3),(0.,1.),.PIECEWISE_BEZIER_KNOTS.);
#745 = CARTESIAN_POINT('',(13.435668789809,1.831190228628,6.785436443978
    ));
#746 = CARTESIAN_POINT('',(13.435668789809,1.901075618423,6.977444974391
    ));
#747 = CARTESIAN_POINT('',(13.314564755839,1.943076563412,7.092841622345
    ));
#748 = ORIENTED_EDGE('',*,*,#749,.F.);
#749 = EDGE_CURVE('',#750,#742,#752,.T.);
#750 = VERTEX_POINT('',#751);
#751 = CARTESIAN_POINT('',(13.314564755839,2.694830660041,6.819225507685
    ));
#752 = LINE('',#753,#754);
#753 = CARTESIAN_POINT('',(13.314564755839,2.694830660041,6.819225507685
    ));
#754 = VECTOR('',#755,1.);
#755 = DIRECTION('',(0.,-0.939692620786,0.342020143326));
#756 = ORIENTED_EDGE('',*,*,#757,.F.);
#757 = EDGE_CURVE('',#717,#750,#758,.T.);
#758 = B_SPLINE_CURVE_WITH_KNOTS('',2,(#759,#760,#761),.UNSPECIFIED.,.F.
  ,.F.,(3,3),(0.,1.),.PIECEWISE_BEZIER_KNOTS.);
#759 = CARTESIAN_POINT('',(13.435668789809,2.582944325256,6.511820329318
    ));
#760 = CARTESIAN_POINT('',(13.435668789809,2.652829715052,6.703828859731
    ));
#761 = CARTESIAN_POINT('',(13.314564755839,2.694830660041,6.819225507685
    ));
#762 = SURFACE_OF_LINEAR_EXTRUSION('',#763,#767);
#763 = B_SPLINE_CURVE_WITH_KNOTS('',2,(#764,#765,#766),.UNSPECIFIED.,.F.
  ,.F.,(3,3),(0.,1.),.PIECEWISE_BEZIER_KNOTS.);
#764 = CARTESIAN_POINT('',(13.435668789809,2.582944325256,6.511820329318
    ));
#765 = CARTESIAN_POINT('',(13.435668789809,2.652829715052,6.703828859731
    ));
#766 = CARTESIAN_POINT('',(13.314564755839,2.694830660041,6.819225507685
    ));
#767 = VECTOR('',#768,1.);
#768 = DIRECTION('',(-0.,0.939692620786,-0.342020143326));
#769 = ADVANCED_FACE('',(#770),#795,.F.);
#770 = FACE_BOUND('',#771,.F.);
#771 = EDGE_LOOP('',(#772,#773,#781,#789));
#772 = ORIENTED_EDGE('',*,*,#749,.T.);
#773 = ORIENTED_EDGE('',*,*,#774,.T.);
#774 = EDGE_CURVE('',#742,#775,#777,.T.);
#775 = VERTEX_POINT('',#776);
#776 = CARTESIAN_POINT('',(12.994904458599,1.985135600995,7.208397878387
    ));
#777 = B_SPLINE_CURVE_WITH_KNOTS('',2,(#778,#779,#780),.UNSPECIFIED.,.F.
  ,.F.,(3,3),(0.,1.),.PIECEWISE_BEZIER_KNOTS.);
#778 = CARTESIAN_POINT('',(13.314564755839,1.943076563412,7.092841622345
    ));
#779 = CARTESIAN_POINT('',(13.193630573248,1.985135600995,7.208397878387
    ));
#780 = CARTESIAN_POINT('',(12.994904458599,1.985135600995,7.208397878387
    ));
#781 = ORIENTED_EDGE('',*,*,#782,.F.);
#782 = EDGE_CURVE('',#783,#775,#785,.T.);
#783 = VERTEX_POINT('',#784);
#784 = CARTESIAN_POINT('',(12.994904458599,2.736889697624,6.934781763727
    ));
#785 = LINE('',#786,#787);
#786 = CARTESIAN_POINT('',(12.994904458599,2.736889697624,6.934781763727
    ));
#787 = VECTOR('',#788,1.);
#788 = DIRECTION('',(0.,-0.939692620786,0.342020143326));
#789 = ORIENTED_EDGE('',*,*,#790,.F.);
#790 = EDGE_CURVE('',#750,#783,#791,.T.);
#791 = B_SPLINE_CURVE_WITH_KNOTS('',2,(#792,#793,#794),.UNSPECIFIED.,.F.
  ,.F.,(3,3),(0.,1.),.PIECEWISE_BEZIER_KNOTS.);
#792 = CARTESIAN_POINT('',(13.314564755839,2.694830660041,6.819225507685
    ));
#793 = CARTESIAN_POINT('',(13.193630573248,2.736889697624,6.934781763727
    ));
#794 = CARTESIAN_POINT('',(12.994904458599,2.736889697624,6.934781763727
    ));
#795 = SURFACE_OF_LINEAR_EXTRUSION('',#796,#800);
#796 = B_SPLINE_CURVE_WITH_KNOTS('',2,(#797,#798,#799),.UNSPECIFIED.,.F.
  ,.F.,(3,3),(0.,1.),.PIECEWISE_BEZIER_KNOTS.);
#797 = CARTESIAN_POINT('',(13.314564755839,2.694830660041,6.819225507685
    ));
#798 = CARTESIAN_POINT('',(13.193630573248,2.736889697624,6.934781763727
    ));
#799 = CARTESIAN_POINT('',(12.994904458599,2.736889697624,6.934781763727
    ));
#800 = VECTOR('',#801,1.);
#801 = DIRECTION('',(-0.,0.939692620786,-0.342020143326));
#802 = ADVANCED_FACE('',(#803),#828,.F.);
#803 = FACE_BOUND('',#804,.F.);
#804 = EDGE_LOOP('',(#805,#806,#814,#822));
#805 = ORIENTED_EDGE('',*,*,#782,.T.);
#806 = ORIENTED_EDGE('',*,*,#807,.T.);
#807 = EDGE_CURVE('',#775,#808,#810,.T.);
#808 = VERTEX_POINT('',#809);
#809 = CARTESIAN_POINT('',(12.666242038217,1.942669915259,7.091724365726
    ));
#810 = B_SPLINE_CURVE_WITH_KNOTS('',2,(#811,#812,#813),.UNSPECIFIED.,.F.
  ,.F.,(3,3),(0.,1.),.PIECEWISE_BEZIER_KNOTS.);
#811 = CARTESIAN_POINT('',(12.994904458599,1.985135600995,7.208397878387
    ));
#812 = CARTESIAN_POINT('',(12.788535031847,1.985135600995,7.208397878387
    ));
#813 = CARTESIAN_POINT('',(12.666242038217,1.942669915259,7.091724365726
    ));
#814 = ORIENTED_EDGE('',*,*,#815,.F.);
#815 = EDGE_CURVE('',#816,#808,#818,.T.);
#816 = VERTEX_POINT('',#817);
#817 = CARTESIAN_POINT('',(12.666242038217,2.694424011888,6.818108251065
    ));
#818 = LINE('',#819,#820);
#819 = CARTESIAN_POINT('',(12.666242038217,2.694424011888,6.818108251065
    ));
#820 = VECTOR('',#821,1.);
#821 = DIRECTION('',(0.,-0.939692620786,0.342020143326));
#822 = ORIENTED_EDGE('',*,*,#823,.F.);
#823 = EDGE_CURVE('',#783,#816,#824,.T.);
#824 = B_SPLINE_CURVE_WITH_KNOTS('',2,(#825,#826,#827),.UNSPECIFIED.,.F.
  ,.F.,(3,3),(0.,1.),.PIECEWISE_BEZIER_KNOTS.);
#825 = CARTESIAN_POINT('',(12.994904458599,2.736889697624,6.934781763727
    ));
#826 = CARTESIAN_POINT('',(12.788535031847,2.736889697624,6.934781763727
    ));
#827 = CARTESIAN_POINT('',(12.666242038217,2.694424011888,6.818108251065
    ));
#828 = SURFACE_OF_LINEAR_EXTRUSION('',#829,#833);
#829 = B_SPLINE_CURVE_WITH_KNOTS('',2,(#830,#831,#832),.UNSPECIFIED.,.F.
  ,.F.,(3,3),(0.,1.),.PIECEWISE_BEZIER_KNOTS.);
#830 = CARTESIAN_POINT('',(12.994904458599,2.736889697624,6.934781763727
    ));
#831 = CARTESIAN_POINT('',(12.788535031847,2.736889697624,6.934781763727
    ));
#832 = CARTESIAN_POINT('',(12.666242038217,2.694424011888,6.818108251065
    ));
#833 = VECTOR('',#834,1.);
#834 = DIRECTION('',(-0.,0.939692620786,-0.342020143326));
#835 = ADVANCED_FACE('',(#836),#852,.F.);
#836 = FACE_BOUND('',#837,.F.);
#837 = EDGE_LOOP('',(#838,#839,#845,#846));
#838 = ORIENTED_EDGE('',*,*,#815,.T.);
#839 = ORIENTED_EDGE('',*,*,#840,.T.);
#840 = EDGE_CURVE('',#808,#602,#841,.T.);
#841 = B_SPLINE_CURVE_WITH_KNOTS('',2,(#842,#843,#844),.UNSPECIFIED.,.F.
  ,.F.,(3,3),(0.,1.),.PIECEWISE_BEZIER_KNOTS.);
#842 = CARTESIAN_POINT('',(12.666242038217,1.942669915259,7.091724365726
    ));
#843 = CARTESIAN_POINT('',(12.543949044586,1.900204229523,6.975050853064
    ));
#844 = CARTESIAN_POINT('',(12.543949044586,1.830318839728,6.783042322652
    ));
#845 = ORIENTED_EDGE('',*,*,#599,.F.);
#846 = ORIENTED_EDGE('',*,*,#847,.F.);
#847 = EDGE_CURVE('',#816,#600,#848,.T.);
#848 = B_SPLINE_CURVE_WITH_KNOTS('',2,(#849,#850,#851),.UNSPECIFIED.,.F.
  ,.F.,(3,3),(0.,1.),.PIECEWISE_BEZIER_KNOTS.);
#849 = CARTESIAN_POINT('',(12.666242038217,2.694424011888,6.818108251065
    ));
#850 = CARTESIAN_POINT('',(12.543949044586,2.651958326152,6.701434738404
    ));
#851 = CARTESIAN_POINT('',(12.543949044586,2.582072936356,6.509426207991
    ));
#852 = SURFACE_OF_LINEAR_EXTRUSION('',#853,#857);
#853 = B_SPLINE_CURVE_WITH_KNOTS('',2,(#854,#855,#856),.UNSPECIFIED.,.F.
  ,.F.,(3,3),(0.,1.),.PIECEWISE_BEZIER_KNOTS.);
#854 = CARTESIAN_POINT('',(12.666242038217,2.694424011888,6.818108251065
    ));
#855 = CARTESIAN_POINT('',(12.543949044586,2.651958326152,6.701434738404
    ));
#856 = CARTESIAN_POINT('',(12.543949044586,2.582072936356,6.509426207991
    ));
#857 = VECTOR('',#858,1.);
#858 = DIRECTION('',(-0.,0.939692620786,-0.342020143326));
#859 = ADVANCED_FACE('',(#860),#870,.T.);
#860 = FACE_BOUND('',#861,.F.);
#861 = EDGE_LOOP('',(#862,#863,#864,#865,#866,#867,#868,#869));
#862 = ORIENTED_EDGE('',*,*,#625,.T.);
#863 = ORIENTED_EDGE('',*,*,#658,.T.);
#864 = ORIENTED_EDGE('',*,*,#691,.T.);
#865 = ORIENTED_EDGE('',*,*,#724,.T.);
#866 = ORIENTED_EDGE('',*,*,#757,.T.);
#867 = ORIENTED_EDGE('',*,*,#790,.T.);
#868 = ORIENTED_EDGE('',*,*,#823,.T.);
#869 = ORIENTED_EDGE('',*,*,#847,.T.);
#870 = PLANE('',#871);
#871 = AXIS2_PLACEMENT_3D('',#872,#873,#874);
#872 = CARTESIAN_POINT('',(12.989820502673,2.580665410785,6.505559063268
    ));
#873 = DIRECTION('',(-0.,0.939692620786,-0.342020143326));
#874 = DIRECTION('',(-1.,0.,0.));
#875 = ADVANCED_FACE('',(#876),#886,.F.);
#876 = FACE_BOUND('',#877,.T.);
#877 = EDGE_LOOP('',(#878,#879,#880,#881,#882,#883,#884,#885));
#878 = ORIENTED_EDGE('',*,*,#609,.T.);
#879 = ORIENTED_EDGE('',*,*,#642,.T.);
#880 = ORIENTED_EDGE('',*,*,#675,.T.);
#881 = ORIENTED_EDGE('',*,*,#708,.T.);
#882 = ORIENTED_EDGE('',*,*,#741,.T.);
#883 = ORIENTED_EDGE('',*,*,#774,.T.);
#884 = ORIENTED_EDGE('',*,*,#807,.T.);
#885 = ORIENTED_EDGE('',*,*,#840,.T.);
#886 = PLANE('',#887);
#887 = AXIS2_PLACEMENT_3D('',#888,#889,#890);
#888 = CARTESIAN_POINT('',(12.989820502673,1.828911314157,6.779175177929
    ));
#889 = DIRECTION('',(-0.,0.939692620786,-0.342020143326));
#890 = DIRECTION('',(-1.,0.,0.));
#891 = MANIFOLD_SOLID_BREP('',#892);
#892 = CLOSED_SHELL('',(#893,#935,#968,#1001,#1034,#1067,#1100,#1133,
    #1157,#1173));
#893 = ADVANCED_FACE('',(#894),#928,.F.);
#894 = FACE_BOUND('',#895,.F.);
#895 = EDGE_LOOP('',(#896,#906,#914,#922));
#896 = ORIENTED_EDGE('',*,*,#897,.T.);
#897 = EDGE_CURVE('',#898,#900,#902,.T.);
#898 = VERTEX_POINT('',#899);
#899 = CARTESIAN_POINT('',(12.477707006369,2.032342725521,4.99905486693)
  );
#900 = VERTEX_POINT('',#901);
#901 = CARTESIAN_POINT('',(12.477707006369,1.280588628893,5.272670981591
    ));
#902 = LINE('',#903,#904);
#903 = CARTESIAN_POINT('',(12.477707006369,2.032342725521,4.99905486693)
  );
#904 = VECTOR('',#905,1.);
#905 = DIRECTION('',(0.,-0.939692620786,0.342020143326));
#906 = ORIENTED_EDGE('',*,*,#907,.T.);
#907 = EDGE_CURVE('',#900,#908,#910,.T.);
#908 = VERTEX_POINT('',#909);
#909 = CARTESIAN_POINT('',(12.629214437367,1.120543534224,4.832950697894
    ));
#910 = B_SPLINE_CURVE_WITH_KNOTS('',2,(#911,#912,#913),.UNSPECIFIED.,.F.
  ,.F.,(3,3),(0.,1.),.PIECEWISE_BEZIER_KNOTS.);
#911 = CARTESIAN_POINT('',(12.477707006369,1.280588628893,5.272670981591
    ));
#912 = CARTESIAN_POINT('',(12.477707006369,1.177997109043,4.990803097377
    ));
#913 = CARTESIAN_POINT('',(12.629214437367,1.120543534224,4.832950697894
    ));
#914 = ORIENTED_EDGE('',*,*,#915,.F.);
#915 = EDGE_CURVE('',#916,#908,#918,.T.);
#916 = VERTEX_POINT('',#917);
#917 = CARTESIAN_POINT('',(12.629214437367,1.872297630853,4.559334583233
    ));
#918 = LINE('',#919,#920);
#919 = CARTESIAN_POINT('',(12.629214437367,1.872297630853,4.559334583233
    ));
#920 = VECTOR('',#921,1.);
#921 = DIRECTION('',(0.,-0.939692620786,0.342020143326));
#922 = ORIENTED_EDGE('',*,*,#923,.F.);
#923 = EDGE_CURVE('',#898,#916,#924,.T.);
#924 = B_SPLINE_CURVE_WITH_KNOTS('',2,(#925,#926,#927),.UNSPECIFIED.,.F.
  ,.F.,(3,3),(0.,1.),.PIECEWISE_BEZIER_KNOTS.);
#925 = CARTESIAN_POINT('',(12.477707006369,2.032342725521,4.99905486693)
  );
#926 = CARTESIAN_POINT('',(12.477707006369,1.929751205672,4.717186982716
    ));
#927 = CARTESIAN_POINT('',(12.629214437367,1.872297630853,4.559334583233
    ));
#928 = SURFACE_OF_LINEAR_EXTRUSION('',#929,#933);
#929 = B_SPLINE_CURVE_WITH_KNOTS('',2,(#930,#931,#932),.UNSPECIFIED.,.F.
  ,.F.,(3,3),(0.,1.),.PIECEWISE_BEZIER_KNOTS.);
#930 = CARTESIAN_POINT('',(12.477707006369,2.032342725521,4.99905486693)
  );
#931 = CARTESIAN_POINT('',(12.477707006369,1.929751205672,4.717186982716
    ));
#932 = CARTESIAN_POINT('',(12.629214437367,1.872297630853,4.559334583233
    ));
#933 = VECTOR('',#934,1.);
#934 = DIRECTION('',(-0.,0.939692620786,-0.342020143326));
#935 = ADVANCED_FACE('',(#936),#961,.F.);
#936 = FACE_BOUND('',#937,.F.);
#937 = EDGE_LOOP('',(#938,#939,#947,#955));
#938 = ORIENTED_EDGE('',*,*,#915,.T.);
#939 = ORIENTED_EDGE('',*,*,#940,.T.);
#940 = EDGE_CURVE('',#908,#941,#943,.T.);
#941 = VERTEX_POINT('',#942);
#942 = CARTESIAN_POINT('',(13.007643312102,1.063089959404,4.67509829841)
  );
#943 = B_SPLINE_CURVE_WITH_KNOTS('',2,(#944,#945,#946),.UNSPECIFIED.,.F.
  ,.F.,(3,3),(0.,1.),.PIECEWISE_BEZIER_KNOTS.);
#944 = CARTESIAN_POINT('',(12.629214437367,1.120543534224,4.832950697894
    ));
#945 = CARTESIAN_POINT('',(12.780891719745,1.063089959404,4.67509829841)
  );
#946 = CARTESIAN_POINT('',(13.007643312102,1.063089959404,4.67509829841)
  );
#947 = ORIENTED_EDGE('',*,*,#948,.F.);
#948 = EDGE_CURVE('',#949,#941,#951,.T.);
#949 = VERTEX_POINT('',#950);
#950 = CARTESIAN_POINT('',(13.007643312102,1.814844056033,4.40148218375)
  );
#951 = LINE('',#952,#953);
#952 = CARTESIAN_POINT('',(13.007643312102,1.814844056033,4.40148218375)
  );
#953 = VECTOR('',#954,1.);
#954 = DIRECTION('',(0.,-0.939692620786,0.342020143326));
#955 = ORIENTED_EDGE('',*,*,#956,.F.);
#956 = EDGE_CURVE('',#916,#949,#957,.T.);
#957 = B_SPLINE_CURVE_WITH_KNOTS('',2,(#958,#959,#960),.UNSPECIFIED.,.F.
  ,.F.,(3,3),(0.,1.),.PIECEWISE_BEZIER_KNOTS.);
#958 = CARTESIAN_POINT('',(12.629214437367,1.872297630853,4.559334583233
    ));
#959 = CARTESIAN_POINT('',(12.780891719745,1.814844056033,4.40148218375)
  );
#960 = CARTESIAN_POINT('',(13.007643312102,1.814844056033,4.40148218375)
  );
#961 = SURFACE_OF_LINEAR_EXTRUSION('',#962,#966);
#962 = B_SPLINE_CURVE_WITH_KNOTS('',2,(#963,#964,#965),.UNSPECIFIED.,.F.
  ,.F.,(3,3),(0.,1.),.PIECEWISE_BEZIER_KNOTS.);
#963 = CARTESIAN_POINT('',(12.629214437367,1.872297630853,4.559334583233
    ));
#964 = CARTESIAN_POINT('',(12.780891719745,1.814844056033,4.40148218375)
  );
#965 = CARTESIAN_POINT('',(13.007643312102,1.814844056033,4.40148218375)
  );
#966 = VECTOR('',#967,1.);
#967 = DIRECTION('',(-0.,0.939692620786,-0.342020143326));
#968 = ADVANCED_FACE('',(#969),#994,.F.);
#969 = FACE_BOUND('',#970,.F.);
#970 = EDGE_LOOP('',(#971,#972,#980,#988));
#971 = ORIENTED_EDGE('',*,*,#948,.T.);
#972 = ORIENTED_EDGE('',*,*,#973,.T.);
#973 = EDGE_CURVE('',#941,#974,#976,.T.);
#974 = VERTEX_POINT('',#975);
#975 = CARTESIAN_POINT('',(13.374522292994,1.118336015677,4.826885590532
    ));
#976 = B_SPLINE_CURVE_WITH_KNOTS('',2,(#977,#978,#979),.UNSPECIFIED.,.F.
  ,.F.,(3,3),(0.,1.),.PIECEWISE_BEZIER_KNOTS.);
#977 = CARTESIAN_POINT('',(13.007643312102,1.063089959404,4.67509829841)
  );
#978 = CARTESIAN_POINT('',(13.229299363057,1.063089959404,4.67509829841)
  );
#979 = CARTESIAN_POINT('',(13.374522292994,1.118336015677,4.826885590532
    ));
#980 = ORIENTED_EDGE('',*,*,#981,.F.);
#981 = EDGE_CURVE('',#982,#974,#984,.T.);
#982 = VERTEX_POINT('',#983);
#983 = CARTESIAN_POINT('',(13.374522292994,1.870090112305,4.553269475872
    ));
#984 = LINE('',#985,#986);
#985 = CARTESIAN_POINT('',(13.374522292994,1.870090112305,4.553269475872
    ));
#986 = VECTOR('',#987,1.);
#987 = DIRECTION('',(0.,-0.939692620786,0.342020143326));
#988 = ORIENTED_EDGE('',*,*,#989,.F.);
#989 = EDGE_CURVE('',#949,#982,#990,.T.);
#990 = B_SPLINE_CURVE_WITH_KNOTS('',2,(#991,#992,#993),.UNSPECIFIED.,.F.
  ,.F.,(3,3),(0.,1.),.PIECEWISE_BEZIER_KNOTS.);
#991 = CARTESIAN_POINT('',(13.007643312102,1.814844056033,4.40148218375)
  );
#992 = CARTESIAN_POINT('',(13.229299363057,1.814844056033,4.40148218375)
  );
#993 = CARTESIAN_POINT('',(13.374522292994,1.870090112305,4.553269475872
    ));
#994 = SURFACE_OF_LINEAR_EXTRUSION('',#995,#999);
#995 = B_SPLINE_CURVE_WITH_KNOTS('',2,(#996,#997,#998),.UNSPECIFIED.,.F.
  ,.F.,(3,3),(0.,1.),.PIECEWISE_BEZIER_KNOTS.);
#996 = CARTESIAN_POINT('',(13.007643312102,1.814844056033,4.40148218375)
  );
#997 = CARTESIAN_POINT('',(13.229299363057,1.814844056033,4.40148218375)
  );
#998 = CARTESIAN_POINT('',(13.374522292994,1.870090112305,4.553269475872
    ));
#999 = VECTOR('',#1000,1.);
#1000 = DIRECTION('',(-0.,0.939692620786,-0.342020143326));
#1001 = ADVANCED_FACE('',(#1002),#1027,.F.);
#1002 = FACE_BOUND('',#1003,.F.);
#1003 = EDGE_LOOP('',(#1004,#1005,#1013,#1021));
#1004 = ORIENTED_EDGE('',*,*,#981,.T.);
#1005 = ORIENTED_EDGE('',*,*,#1006,.T.);
#1006 = EDGE_CURVE('',#974,#1007,#1009,.T.);
#1007 = VERTEX_POINT('',#1008);
#1008 = CARTESIAN_POINT('',(13.51974522293,1.277916369599,5.265329009522
    ));
#1009 = B_SPLINE_CURVE_WITH_KNOTS('',2,(#1010,#1011,#1012),
  .UNSPECIFIED.,.F.,.F.,(3,3),(0.,1.),.PIECEWISE_BEZIER_KNOTS.);
#1010 = CARTESIAN_POINT('',(13.374522292994,1.118336015677,
    4.826885590532));
#1011 = CARTESIAN_POINT('',(13.51974522293,1.173582071949,4.978672882654
    ));
#1012 = CARTESIAN_POINT('',(13.51974522293,1.277916369599,5.265329009522
    ));
#1013 = ORIENTED_EDGE('',*,*,#1014,.F.);
#1014 = EDGE_CURVE('',#1015,#1007,#1017,.T.);
#1015 = VERTEX_POINT('',#1016);
#1016 = CARTESIAN_POINT('',(13.51974522293,2.029670466227,4.991712894861
    ));
#1017 = LINE('',#1018,#1019);
#1018 = CARTESIAN_POINT('',(13.51974522293,2.029670466227,4.991712894861
    ));
#1019 = VECTOR('',#1020,1.);
#1020 = DIRECTION('',(0.,-0.939692620786,0.342020143326));
#1021 = ORIENTED_EDGE('',*,*,#1022,.F.);
#1022 = EDGE_CURVE('',#982,#1015,#1023,.T.);
#1023 = B_SPLINE_CURVE_WITH_KNOTS('',2,(#1024,#1025,#1026),
  .UNSPECIFIED.,.F.,.F.,(3,3),(0.,1.),.PIECEWISE_BEZIER_KNOTS.);
#1024 = CARTESIAN_POINT('',(13.374522292994,1.870090112305,
    4.553269475872));
#1025 = CARTESIAN_POINT('',(13.51974522293,1.925336168578,4.705056767994
    ));
#1026 = CARTESIAN_POINT('',(13.51974522293,2.029670466227,4.991712894861
    ));
#1027 = SURFACE_OF_LINEAR_EXTRUSION('',#1028,#1032);
#1028 = B_SPLINE_CURVE_WITH_KNOTS('',2,(#1029,#1030,#1031),
  .UNSPECIFIED.,.F.,.F.,(3,3),(0.,1.),.PIECEWISE_BEZIER_KNOTS.);
#1029 = CARTESIAN_POINT('',(13.374522292994,1.870090112305,
    4.553269475872));
#1030 = CARTESIAN_POINT('',(13.51974522293,1.925336168578,4.705056767994
    ));
#1031 = CARTESIAN_POINT('',(13.51974522293,2.029670466227,4.991712894861
    ));
#1032 = VECTOR('',#1033,1.);
#1033 = DIRECTION('',(-0.,0.939692620786,-0.342020143326));
#1034 = ADVANCED_FACE('',(#1035),#1060,.F.);
#1035 = FACE_BOUND('',#1036,.F.);
#1036 = EDGE_LOOP('',(#1037,#1038,#1046,#1054));
#1037 = ORIENTED_EDGE('',*,*,#1014,.T.);
#1038 = ORIENTED_EDGE('',*,*,#1039,.T.);
#1039 = EDGE_CURVE('',#1007,#1040,#1042,.T.);
#1040 = VERTEX_POINT('',#1041);
#1041 = CARTESIAN_POINT('',(13.371974522293,1.424251612238,
    5.667381784343));
#1042 = B_SPLINE_CURVE_WITH_KNOTS('',2,(#1043,#1044,#1045),
  .UNSPECIFIED.,.F.,.F.,(3,3),(0.,1.),.PIECEWISE_BEZIER_KNOTS.);
#1043 = CARTESIAN_POINT('',(13.51974522293,1.277916369599,5.265329009522
    ));
#1044 = CARTESIAN_POINT('',(13.51974522293,1.369005555965,5.515594492221
    ));
#1045 = CARTESIAN_POINT('',(13.371974522293,1.424251612238,
    5.667381784343));
#1046 = ORIENTED_EDGE('',*,*,#1047,.F.);
#1047 = EDGE_CURVE('',#1048,#1040,#1050,.T.);
#1048 = VERTEX_POINT('',#1049);
#1049 = CARTESIAN_POINT('',(13.371974522293,2.176005708866,
    5.393765669682));
#1050 = LINE('',#1051,#1052);
#1051 = CARTESIAN_POINT('',(13.371974522293,2.176005708866,
    5.393765669682));
#1052 = VECTOR('',#1053,1.);
#1053 = DIRECTION('',(0.,-0.939692620786,0.342020143326));
#1054 = ORIENTED_EDGE('',*,*,#1055,.F.);
#1055 = EDGE_CURVE('',#1015,#1048,#1056,.T.);
#1056 = B_SPLINE_CURVE_WITH_KNOTS('',2,(#1057,#1058,#1059),
  .UNSPECIFIED.,.F.,.F.,(3,3),(0.,1.),.PIECEWISE_BEZIER_KNOTS.);
#1057 = CARTESIAN_POINT('',(13.51974522293,2.029670466227,4.991712894861
    ));
#1058 = CARTESIAN_POINT('',(13.51974522293,2.120759652594,5.24197837756)
  );
#1059 = CARTESIAN_POINT('',(13.371974522293,2.176005708866,
    5.393765669682));
#1060 = SURFACE_OF_LINEAR_EXTRUSION('',#1061,#1065);
#1061 = B_SPLINE_CURVE_WITH_KNOTS('',2,(#1062,#1063,#1064),
  .UNSPECIFIED.,.F.,.F.,(3,3),(0.,1.),.PIECEWISE_BEZIER_KNOTS.);
#1062 = CARTESIAN_POINT('',(13.51974522293,2.029670466227,4.991712894861
    ));
#1063 = CARTESIAN_POINT('',(13.51974522293,2.120759652594,5.24197837756)
  );
#1064 = CARTESIAN_POINT('',(13.371974522293,2.176005708866,
    5.393765669682));
#1065 = VECTOR('',#1066,1.);
#1066 = DIRECTION('',(-0.,0.939692620786,-0.342020143326));
#1067 = ADVANCED_FACE('',(#1068),#1093,.F.);
#1068 = FACE_BOUND('',#1069,.F.);
#1069 = EDGE_LOOP('',(#1070,#1071,#1079,#1087));
#1070 = ORIENTED_EDGE('',*,*,#1047,.T.);
#1071 = ORIENTED_EDGE('',*,*,#1072,.T.);
#1072 = EDGE_CURVE('',#1040,#1073,#1075,.T.);
#1073 = VERTEX_POINT('',#1074);
#1074 = CARTESIAN_POINT('',(12.997452229299,1.47949766851,5.819169076465
    ));
#1075 = B_SPLINE_CURVE_WITH_KNOTS('',2,(#1076,#1077,#1078),
  .UNSPECIFIED.,.F.,.F.,(3,3),(0.,1.),.PIECEWISE_BEZIER_KNOTS.);
#1076 = CARTESIAN_POINT('',(13.371974522293,1.424251612238,
    5.667381784343));
#1077 = CARTESIAN_POINT('',(13.224203821656,1.47949766851,5.819169076465
    ));
#1078 = CARTESIAN_POINT('',(12.997452229299,1.47949766851,5.819169076465
    ));
#1079 = ORIENTED_EDGE('',*,*,#1080,.F.);
#1080 = EDGE_CURVE('',#1081,#1073,#1083,.T.);
#1081 = VERTEX_POINT('',#1082);
#1082 = CARTESIAN_POINT('',(12.997452229299,2.231251765139,
    5.545552961804));
#1083 = LINE('',#1084,#1085);
#1084 = CARTESIAN_POINT('',(12.997452229299,2.231251765139,
    5.545552961804));
#1085 = VECTOR('',#1086,1.);
#1086 = DIRECTION('',(0.,-0.939692620786,0.342020143326));
#1087 = ORIENTED_EDGE('',*,*,#1088,.F.);
#1088 = EDGE_CURVE('',#1048,#1081,#1089,.T.);
#1089 = B_SPLINE_CURVE_WITH_KNOTS('',2,(#1090,#1091,#1092),
  .UNSPECIFIED.,.F.,.F.,(3,3),(0.,1.),.PIECEWISE_BEZIER_KNOTS.);
#1090 = CARTESIAN_POINT('',(13.371974522293,2.176005708866,
    5.393765669682));
#1091 = CARTESIAN_POINT('',(13.224203821656,2.231251765139,
    5.545552961804));
#1092 = CARTESIAN_POINT('',(12.997452229299,2.231251765139,
    5.545552961804));
#1093 = SURFACE_OF_LINEAR_EXTRUSION('',#1094,#1098);
#1094 = B_SPLINE_CURVE_WITH_KNOTS('',2,(#1095,#1096,#1097),
  .UNSPECIFIED.,.F.,.F.,(3,3),(0.,1.),.PIECEWISE_BEZIER_KNOTS.);
#1095 = CARTESIAN_POINT('',(13.371974522293,2.176005708866,
    5.393765669682));
#1096 = CARTESIAN_POINT('',(13.224203821656,2.231251765139,
    5.545552961804));
#1097 = CARTESIAN_POINT('',(12.997452229299,2.231251765139,
    5.545552961804));
#1098 = VECTOR('',#1099,1.);
#1099 = DIRECTION('',(-0.,0.939692620786,-0.342020143326));
#1100 = ADVANCED_FACE('',(#1101),#1126,.F.);
#1101 = FACE_BOUND('',#1102,.F.);
#1102 = EDGE_LOOP('',(#1103,#1104,#1112,#1120));
#1103 = ORIENTED_EDGE('',*,*,#1080,.T.);
#1104 = ORIENTED_EDGE('',*,*,#1105,.T.);
#1105 = EDGE_CURVE('',#1073,#1106,#1108,.T.);
#1106 = VERTEX_POINT('',#1107);
#1107 = CARTESIAN_POINT('',(12.606284501062,1.416699575103,
    5.646632732843));
#1108 = B_SPLINE_CURVE_WITH_KNOTS('',2,(#1109,#1110,#1111),
  .UNSPECIFIED.,.F.,.F.,(3,3),(0.,1.),.PIECEWISE_BEZIER_KNOTS.);
#1109 = CARTESIAN_POINT('',(12.997452229299,1.47949766851,5.819169076465
    ));
#1110 = CARTESIAN_POINT('',(12.735031847134,1.47949766851,5.819169076465
    ));
#1111 = CARTESIAN_POINT('',(12.606284501062,1.416699575103,
    5.646632732843));
#1112 = ORIENTED_EDGE('',*,*,#1113,.F.);
#1113 = EDGE_CURVE('',#1114,#1106,#1116,.T.);
#1114 = VERTEX_POINT('',#1115);
#1115 = CARTESIAN_POINT('',(12.606284501062,2.168453671731,
    5.373016618183));
#1116 = LINE('',#1117,#1118);
#1117 = CARTESIAN_POINT('',(12.606284501062,2.168453671731,
    5.373016618183));
#1118 = VECTOR('',#1119,1.);
#1119 = DIRECTION('',(0.,-0.939692620786,0.342020143326));
#1120 = ORIENTED_EDGE('',*,*,#1121,.F.);
#1121 = EDGE_CURVE('',#1081,#1114,#1122,.T.);
#1122 = B_SPLINE_CURVE_WITH_KNOTS('',2,(#1123,#1124,#1125),
  .UNSPECIFIED.,.F.,.F.,(3,3),(0.,1.),.PIECEWISE_BEZIER_KNOTS.);
#1123 = CARTESIAN_POINT('',(12.997452229299,2.231251765139,
    5.545552961804));
#1124 = CARTESIAN_POINT('',(12.735031847134,2.231251765139,
    5.545552961804));
#1125 = CARTESIAN_POINT('',(12.606284501062,2.168453671731,
    5.373016618183));
#1126 = SURFACE_OF_LINEAR_EXTRUSION('',#1127,#1131);
#1127 = B_SPLINE_CURVE_WITH_KNOTS('',2,(#1128,#1129,#1130),
  .UNSPECIFIED.,.F.,.F.,(3,3),(0.,1.),.PIECEWISE_BEZIER_KNOTS.);
#1128 = CARTESIAN_POINT('',(12.997452229299,2.231251765139,
    5.545552961804));
#1129 = CARTESIAN_POINT('',(12.735031847134,2.231251765139,
    5.545552961804));
#1130 = CARTESIAN_POINT('',(12.606284501062,2.168453671731,
    5.373016618183));
#1131 = VECTOR('',#1132,1.);
#1132 = DIRECTION('',(-0.,0.939692620786,-0.342020143326));
#1133 = ADVANCED_FACE('',(#1134),#1150,.F.);
#1134 = FACE_BOUND('',#1135,.F.);
#1135 = EDGE_LOOP('',(#1136,#1137,#1143,#1144));
#1136 = ORIENTED_EDGE('',*,*,#1113,.T.);
#1137 = ORIENTED_EDGE('',*,*,#1138,.T.);
#1138 = EDGE_CURVE('',#1106,#900,#1139,.T.);
#1139 = B_SPLINE_CURVE_WITH_KNOTS('',2,(#1140,#1141,#1142),
  .UNSPECIFIED.,.F.,.F.,(3,3),(0.,1.),.PIECEWISE_BEZIER_KNOTS.);
#1140 = CARTESIAN_POINT('',(12.606284501062,1.416699575103,
    5.646632732843));
#1141 = CARTESIAN_POINT('',(12.477707006369,1.353959574289,
    5.474255997311));
#1142 = CARTESIAN_POINT('',(12.477707006369,1.280588628893,
    5.272670981591));
#1143 = ORIENTED_EDGE('',*,*,#897,.F.);
#1144 = ORIENTED_EDGE('',*,*,#1145,.F.);
#1145 = EDGE_CURVE('',#1114,#898,#1146,.T.);
#1146 = B_SPLINE_CURVE_WITH_KNOTS('',2,(#1147,#1148,#1149),
  .UNSPECIFIED.,.F.,.F.,(3,3),(0.,1.),.PIECEWISE_BEZIER_KNOTS.);
#1147 = CARTESIAN_POINT('',(12.606284501062,2.168453671731,
    5.373016618183));
#1148 = CARTESIAN_POINT('',(12.477707006369,2.105713670918,5.20063988265
    ));
#1149 = CARTESIAN_POINT('',(12.477707006369,2.032342725521,4.99905486693
    ));
#1150 = SURFACE_OF_LINEAR_EXTRUSION('',#1151,#1155);
#1151 = B_SPLINE_CURVE_WITH_KNOTS('',2,(#1152,#1153,#1154),
  .UNSPECIFIED.,.F.,.F.,(3,3),(0.,1.),.PIECEWISE_BEZIER_KNOTS.);
#1152 = CARTESIAN_POINT('',(12.606284501062,2.168453671731,
    5.373016618183));
#1153 = CARTESIAN_POINT('',(12.477707006369,2.105713670918,5.20063988265
    ));
#1154 = CARTESIAN_POINT('',(12.477707006369,2.032342725521,4.99905486693
    ));
#1155 = VECTOR('',#1156,1.);
#1156 = DIRECTION('',(-0.,0.939692620786,-0.342020143326));
#1157 = ADVANCED_FACE('',(#1158),#1168,.T.);
#1158 = FACE_BOUND('',#1159,.F.);
#1159 = EDGE_LOOP('',(#1160,#1161,#1162,#1163,#1164,#1165,#1166,#1167));
#1160 = ORIENTED_EDGE('',*,*,#923,.T.);
#1161 = ORIENTED_EDGE('',*,*,#956,.T.);
#1162 = ORIENTED_EDGE('',*,*,#989,.T.);
#1163 = ORIENTED_EDGE('',*,*,#1022,.T.);
#1164 = ORIENTED_EDGE('',*,*,#1055,.T.);
#1165 = ORIENTED_EDGE('',*,*,#1088,.T.);
#1166 = ORIENTED_EDGE('',*,*,#1121,.T.);
#1167 = ORIENTED_EDGE('',*,*,#1145,.T.);
#1168 = PLANE('',#1169);
#1169 = AXIS2_PLACEMENT_3D('',#1170,#1171,#1172);
#1170 = CARTESIAN_POINT('',(13.000320705758,2.023621363104,
    4.975093120622));
#1171 = DIRECTION('',(-0.,0.939692620786,-0.342020143326));
#1172 = DIRECTION('',(-1.,0.,0.));
#1173 = ADVANCED_FACE('',(#1174),#1184,.F.);
#1174 = FACE_BOUND('',#1175,.T.);
#1175 = EDGE_LOOP('',(#1176,#1177,#1178,#1179,#1180,#1181,#1182,#1183));
#1176 = ORIENTED_EDGE('',*,*,#907,.T.);
#1177 = ORIENTED_EDGE('',*,*,#940,.T.);
#1178 = ORIENTED_EDGE('',*,*,#973,.T.);
#1179 = ORIENTED_EDGE('',*,*,#1006,.T.);
#1180 = ORIENTED_EDGE('',*,*,#1039,.T.);
#1181 = ORIENTED_EDGE('',*,*,#1072,.T.);
#1182 = ORIENTED_EDGE('',*,*,#1105,.T.);
#1183 = ORIENTED_EDGE('',*,*,#1138,.T.);
#1184 = PLANE('',#1185);
#1185 = AXIS2_PLACEMENT_3D('',#1186,#1187,#1188);
#1186 = CARTESIAN_POINT('',(13.000320705758,1.271867266475,
    5.248709235282));
#1187 = DIRECTION('',(-0.,0.939692620786,-0.342020143326));
#1188 = DIRECTION('',(-1.,0.,0.));
#1189 = ( GEOMETRIC_REPRESENTATION_CONTEXT(3) 
GLOBAL_UNCERTAINTY_ASSIGNED_CONTEXT((#1193)) 
GLOBAL_UNIT_ASSIGNED_CONTEXT((#1190,#1191,#1192)) REPRESENTATION_CONTEXT
('Context #1','3D Context with UNIT and UNCERTAINTY') );
#1190 = ( LENGTH_UNIT() NAMED_UNIT(*) SI_UNIT(.MILLI.,.METRE.) );
#1191 = ( NAMED_UNIT(*) PLANE_ANGLE_UNIT() SI_UNIT($,.RADIAN.) );
#1192 = ( NAMED_UNIT(*) SI_UNIT($,.STERADIAN.) SOLID_ANGLE_UNIT() );
#1193 = UNCERTAINTY_MEASURE_WITH_UNIT(LENGTH_MEASURE(1.E-07),#1190,
  'distance_accuracy_value','confusion accuracy');
#1194 = PRODUCT_RELATED_PRODUCT_CATEGORY('part',$,(#7));
ENDSEC;
END-ISO-10303-21;
