ISO-10303-21;
HEADER;
FILE_DESCRIPTION(('FreeCAD Model'),'2;1');
FILE_NAME('Open CASCADE Shape Model','2026-08-29T16:41:02',('FreeCAD'),(
    'FreeCAD'),'Open CASCADE STEP processor 7.8','FreeCAD','Unknown');
FILE_SCHEMA(('AUTOMOTIVE_DESIGN { 1 0 10303 214 1 1 1 1 }'));
ENDSEC;
DATA;
#1 = APPLICATION_PROTOCOL_DEFINITION('international standard',
  'automotive_design',2000,#2);
#2 = APPLICATION_CONTEXT(
  'core data for automotive mechanical design processes');
#3 = SHAPE_DEFINITION_REPRESENTATION(#4,#10);
#4 = PRODUCT_DEFINITION_SHAPE('','',#5);
#5 = PRODUCT_DEFINITION('design','',#6,#9);
#6 = PRODUCT_DEFINITION_FORMATION('','',#7);
#7 = PRODUCT('Open CASCADE STEP translator 7.8 44',
  'Open CASCADE STEP translator 7.8 44','',(#8));
#8 = PRODUCT_CONTEXT('',#2,'mechanical');
#9 = PRODUCT_DEFINITION_CONTEXT('part definition',#2,'design');
#10 = SHAPE_REPRESENTATION('',(#11,#15,#303,#601),#1039);
#11 = AXIS2_PLACEMENT_3D('',#12,#13,#14);
#12 = CARTESIAN_POINT('',(0.,0.,0.));
#13 = DIRECTION('',(0.,0.,1.));
#14 = DIRECTION('',(1.,0.,-0.));
#15 = MANIFOLD_SOLID_BREP('',#16);
#16 = CLOSED_SHELL('',(#17,#57,#88,#121,#152,#185,#218,#249,#271,#287));
#17 = ADVANCED_FACE('',(#18),#52,.T.);
#18 = FACE_BOUND('',#19,.T.);
#19 = EDGE_LOOP('',(#20,#30,#38,#46));
#20 = ORIENTED_EDGE('',*,*,#21,.T.);
#21 = EDGE_CURVE('',#22,#24,#26,.T.);
#22 = VERTEX_POINT('',#23);
#23 = CARTESIAN_POINT('',(12.073630573248,1.643819461222,3.931595971335)
  );
#24 = VERTEX_POINT('',#25);
#25 = CARTESIAN_POINT('',(12.073630573248,0.892065364593,4.205212085995)
  );
#26 = LINE('',#27,#28);
#27 = CARTESIAN_POINT('',(12.073630573248,1.643819461222,3.931595971335)
  );
#28 = VECTOR('',#29,1.);
#29 = DIRECTION('',(0.,-0.939692620786,0.342020143326));
#30 = ORIENTED_EDGE('',*,*,#31,.T.);
#31 = EDGE_CURVE('',#24,#32,#34,.T.);
#32 = VERTEX_POINT('',#33);
#33 = CARTESIAN_POINT('',(11.357707006369,0.892065364593,4.205212085995)
  );
#34 = LINE('',#35,#36);
#35 = CARTESIAN_POINT('',(12.073630573248,0.892065364593,4.205212085995)
  );
#36 = VECTOR('',#37,1.);
#37 = DIRECTION('',(-1.,0.,0.));
#38 = ORIENTED_EDGE('',*,*,#39,.F.);
#39 = EDGE_CURVE('',#40,#32,#42,.T.);
#40 = VERTEX_POINT('',#41);
#41 = CARTESIAN_POINT('',(11.357707006369,1.643819461222,3.931595971335)
  );
#42 = LINE('',#43,#44);
#43 = CARTESIAN_POINT('',(11.357707006369,1.643819461222,3.931595971335)
  );
#44 = VECTOR('',#45,1.);
#45 = DIRECTION('',(0.,-0.939692620786,0.342020143326));
#46 = ORIENTED_EDGE('',*,*,#47,.F.);
#47 = EDGE_CURVE('',#22,#40,#48,.T.);
#48 = LINE('',#49,#50);
#49 = CARTESIAN_POINT('',(12.073630573248,1.643819461222,3.931595971335)
  );
#50 = VECTOR('',#51,1.);
#51 = DIRECTION('',(-1.,0.,0.));
#52 = PLANE('',#53);
#53 = AXIS2_PLACEMENT_3D('',#54,#55,#56);
#54 = CARTESIAN_POINT('',(12.073630573248,1.643819461222,3.931595971335)
  );
#55 = DIRECTION('',(0.,-0.342020143326,-0.939692620786));
#56 = DIRECTION('',(-1.,0.,0.));
#57 = ADVANCED_FACE('',(#58),#83,.T.);
#58 = FACE_BOUND('',#59,.T.);
#59 = EDGE_LOOP('',(#60,#61,#69,#77));
#60 = ORIENTED_EDGE('',*,*,#39,.T.);
#61 = ORIENTED_EDGE('',*,*,#62,.T.);
#62 = EDGE_CURVE('',#32,#63,#65,.T.);
#63 = VERTEX_POINT('',#64);
#64 = CARTESIAN_POINT('',(11.357707006369,1.818293672905,6.750003448341)
  );
#65 = LINE('',#66,#67);
#66 = CARTESIAN_POINT('',(11.357707006369,0.892065364593,4.205212085995)
  );
#67 = VECTOR('',#68,1.);
#68 = DIRECTION('',(0.,0.342020143326,0.939692620786));
#69 = ORIENTED_EDGE('',*,*,#70,.F.);
#70 = EDGE_CURVE('',#71,#63,#73,.T.);
#71 = VERTEX_POINT('',#72);
#72 = CARTESIAN_POINT('',(11.357707006369,2.570047769534,6.476387333681)
  );
#73 = LINE('',#74,#75);
#74 = CARTESIAN_POINT('',(11.357707006369,2.570047769534,6.476387333681)
  );
#75 = VECTOR('',#76,1.);
#76 = DIRECTION('',(0.,-0.939692620786,0.342020143326));
#77 = ORIENTED_EDGE('',*,*,#78,.F.);
#78 = EDGE_CURVE('',#40,#71,#79,.T.);
#79 = LINE('',#80,#81);
#80 = CARTESIAN_POINT('',(11.357707006369,1.643819461222,3.931595971335)
  );
#81 = VECTOR('',#82,1.);
#82 = DIRECTION('',(0.,0.342020143326,0.939692620786));
#83 = PLANE('',#84);
#84 = AXIS2_PLACEMENT_3D('',#85,#86,#87);
#85 = CARTESIAN_POINT('',(11.357707006369,1.643819461222,3.931595971335)
  );
#86 = DIRECTION('',(-1.,0.,0.));
#87 = DIRECTION('',(0.,0.342020143326,0.939692620786));
#88 = ADVANCED_FACE('',(#89),#114,.T.);
#89 = FACE_BOUND('',#90,.T.);
#90 = EDGE_LOOP('',(#91,#92,#100,#108));
#91 = ORIENTED_EDGE('',*,*,#70,.T.);
#92 = ORIENTED_EDGE('',*,*,#93,.T.);
#93 = EDGE_CURVE('',#63,#94,#96,.T.);
#94 = VERTEX_POINT('',#95);
#95 = CARTESIAN_POINT('',(10.432866242038,1.63193263345,6.237980700574)
  );
#96 = B_SPLINE_CURVE_WITH_KNOTS('',2,(#97,#98,#99),.UNSPECIFIED.,.F.,.F.
  ,(3,3),(0.,1.),.PIECEWISE_BEZIER_KNOTS.);
#97 = CARTESIAN_POINT('',(11.357707006369,1.818293672905,6.750003448341)
  );
#98 = CARTESIAN_POINT('',(10.965350318471,1.692290837937,6.40381350448)
  );
#99 = CARTESIAN_POINT('',(10.432866242038,1.63193263345,6.237980700574)
  );
#100 = ORIENTED_EDGE('',*,*,#101,.F.);
#101 = EDGE_CURVE('',#102,#94,#104,.T.);
#102 = VERTEX_POINT('',#103);
#103 = CARTESIAN_POINT('',(10.432866242038,2.383686730079,5.964364585913
    ));
#104 = LINE('',#105,#106);
#105 = CARTESIAN_POINT('',(10.432866242038,2.383686730079,5.964364585913
    ));
#106 = VECTOR('',#107,1.);
#107 = DIRECTION('',(0.,-0.939692620786,0.342020143326));
#108 = ORIENTED_EDGE('',*,*,#109,.F.);
#109 = EDGE_CURVE('',#71,#102,#110,.T.);
#110 = B_SPLINE_CURVE_WITH_KNOTS('',2,(#111,#112,#113),.UNSPECIFIED.,.F.
  ,.F.,(3,3),(0.,1.),.PIECEWISE_BEZIER_KNOTS.);
#111 = CARTESIAN_POINT('',(11.357707006369,2.570047769534,6.476387333681
    ));
#112 = CARTESIAN_POINT('',(10.965350318471,2.444044934566,6.130197389819
    ));
#113 = CARTESIAN_POINT('',(10.432866242038,2.383686730079,5.964364585913
    ));
#114 = SURFACE_OF_LINEAR_EXTRUSION('',#115,#119);
#115 = B_SPLINE_CURVE_WITH_KNOTS('',2,(#116,#117,#118),.UNSPECIFIED.,.F.
  ,.F.,(3,3),(0.,1.),.PIECEWISE_BEZIER_KNOTS.);
#116 = CARTESIAN_POINT('',(11.357707006369,2.570047769534,6.476387333681
    ));
#117 = CARTESIAN_POINT('',(10.965350318471,2.444044934566,6.130197389819
    ));
#118 = CARTESIAN_POINT('',(10.432866242038,2.383686730079,5.964364585913
    ));
#119 = VECTOR('',#120,1.);
#120 = DIRECTION('',(-0.,0.939692620786,-0.342020143326));
#121 = ADVANCED_FACE('',(#122),#147,.T.);
#122 = FACE_BOUND('',#123,.T.);
#123 = EDGE_LOOP('',(#124,#125,#133,#141));
#124 = ORIENTED_EDGE('',*,*,#101,.T.);
#125 = ORIENTED_EDGE('',*,*,#126,.T.);
#126 = EDGE_CURVE('',#94,#127,#129,.T.);
#127 = VERTEX_POINT('',#128);
#128 = CARTESIAN_POINT('',(10.432866242038,1.8550081919,6.850875760245)
  );
#129 = LINE('',#130,#131);
#130 = CARTESIAN_POINT('',(10.432866242038,1.63193263345,6.237980700574)
  );
#131 = VECTOR('',#132,1.);
#132 = DIRECTION('',(0.,0.342020143326,0.939692620786));
#133 = ORIENTED_EDGE('',*,*,#134,.F.);
#134 = EDGE_CURVE('',#135,#127,#137,.T.);
#135 = VERTEX_POINT('',#136);
#136 = CARTESIAN_POINT('',(10.432866242038,2.606762288528,6.577259645585
    ));
#137 = LINE('',#138,#139);
#138 = CARTESIAN_POINT('',(10.432866242038,2.606762288528,6.577259645585
    ));
#139 = VECTOR('',#140,1.);
#140 = DIRECTION('',(0.,-0.939692620786,0.342020143326));
#141 = ORIENTED_EDGE('',*,*,#142,.F.);
#142 = EDGE_CURVE('',#102,#135,#143,.T.);
#143 = LINE('',#144,#145);
#144 = CARTESIAN_POINT('',(10.432866242038,2.383686730079,5.964364585913
    ));
#145 = VECTOR('',#146,1.);
#146 = DIRECTION('',(0.,0.342020143326,0.939692620786));
#147 = PLANE('',#148);
#148 = AXIS2_PLACEMENT_3D('',#149,#150,#151);
#149 = CARTESIAN_POINT('',(10.432866242038,2.383686730079,5.964364585913
    ));
#150 = DIRECTION('',(-1.,0.,0.));
#151 = DIRECTION('',(0.,0.342020143326,0.939692620786));
#152 = ADVANCED_FACE('',(#153),#178,.T.);
#153 = FACE_BOUND('',#154,.T.);
#154 = EDGE_LOOP('',(#155,#156,#164,#172));
#155 = ORIENTED_EDGE('',*,*,#134,.T.);
#156 = ORIENTED_EDGE('',*,*,#157,.T.);
#157 = EDGE_CURVE('',#127,#158,#160,.T.);
#158 = VERTEX_POINT('',#159);
#159 = CARTESIAN_POINT('',(11.04178343949,1.973981823073,7.177753125404)
  );
#160 = B_SPLINE_CURVE_WITH_KNOTS('',2,(#161,#162,#163),.UNSPECIFIED.,.F.
  ,.F.,(3,3),(0.,1.),.PIECEWISE_BEZIER_KNOTS.);
#161 = CARTESIAN_POINT('',(10.432866242038,1.8550081919,6.850875760245)
  );
#162 = CARTESIAN_POINT('',(10.713121019108,1.886378192307,6.937064128012
    ));
#163 = CARTESIAN_POINT('',(11.04178343949,1.973981823073,7.177753125404)
  );
#164 = ORIENTED_EDGE('',*,*,#165,.F.);
#165 = EDGE_CURVE('',#166,#158,#168,.T.);
#166 = VERTEX_POINT('',#167);
#167 = CARTESIAN_POINT('',(11.04178343949,2.725735919701,6.904137010743)
  );
#168 = LINE('',#169,#170);
#169 = CARTESIAN_POINT('',(11.04178343949,2.725735919701,6.904137010743)
  );
#170 = VECTOR('',#171,1.);
#171 = DIRECTION('',(0.,-0.939692620786,0.342020143326));
#172 = ORIENTED_EDGE('',*,*,#173,.F.);
#173 = EDGE_CURVE('',#135,#166,#174,.T.);
#174 = B_SPLINE_CURVE_WITH_KNOTS('',2,(#175,#176,#177),.UNSPECIFIED.,.F.
  ,.F.,(3,3),(0.,1.),.PIECEWISE_BEZIER_KNOTS.);
#175 = CARTESIAN_POINT('',(10.432866242038,2.606762288528,6.577259645585
    ));
#176 = CARTESIAN_POINT('',(10.713121019108,2.638132288935,6.663448013351
    ));
#177 = CARTESIAN_POINT('',(11.04178343949,2.725735919701,6.904137010743)
  );
#178 = SURFACE_OF_LINEAR_EXTRUSION('',#179,#183);
#179 = B_SPLINE_CURVE_WITH_KNOTS('',2,(#180,#181,#182),.UNSPECIFIED.,.F.
  ,.F.,(3,3),(0.,1.),.PIECEWISE_BEZIER_KNOTS.);
#180 = CARTESIAN_POINT('',(10.432866242038,2.606762288528,6.577259645585
    ));
#181 = CARTESIAN_POINT('',(10.713121019108,2.638132288935,6.663448013351
    ));
#182 = CARTESIAN_POINT('',(11.04178343949,2.725735919701,6.904137010743)
  );
#183 = VECTOR('',#184,1.);
#184 = DIRECTION('',(-0.,0.939692620786,-0.342020143326));
#185 = ADVANCED_FACE('',(#186),#211,.T.);
#186 = FACE_BOUND('',#187,.T.);
#187 = EDGE_LOOP('',(#188,#189,#197,#205));
#188 = ORIENTED_EDGE('',*,*,#165,.T.);
#189 = ORIENTED_EDGE('',*,*,#190,.T.);
#190 = EDGE_CURVE('',#158,#191,#193,.T.);
#191 = VERTEX_POINT('',#192);
#192 = CARTESIAN_POINT('',(11.492738853503,2.178467751651,7.73957359677)
  );
#193 = B_SPLINE_CURVE_WITH_KNOTS('',2,(#194,#195,#196),.UNSPECIFIED.,.F.
  ,.F.,(3,3),(0.,1.),.PIECEWISE_BEZIER_KNOTS.);
#194 = CARTESIAN_POINT('',(11.04178343949,1.973981823073,7.177753125404)
  );
#195 = CARTESIAN_POINT('',(11.370445859873,2.061643546432,7.418601730884
    ));
#196 = CARTESIAN_POINT('',(11.492738853503,2.178467751651,7.73957359677)
  );
#197 = ORIENTED_EDGE('',*,*,#198,.F.);
#198 = EDGE_CURVE('',#199,#191,#201,.T.);
#199 = VERTEX_POINT('',#200);
#200 = CARTESIAN_POINT('',(11.492738853503,2.93022184828,7.465957482109)
  );
#201 = LINE('',#202,#203);
#202 = CARTESIAN_POINT('',(11.492738853503,2.93022184828,7.465957482109)
  );
#203 = VECTOR('',#204,1.);
#204 = DIRECTION('',(0.,-0.939692620786,0.342020143326));
#205 = ORIENTED_EDGE('',*,*,#206,.F.);
#206 = EDGE_CURVE('',#166,#199,#207,.T.);
#207 = B_SPLINE_CURVE_WITH_KNOTS('',2,(#208,#209,#210),.UNSPECIFIED.,.F.
  ,.F.,(3,3),(0.,1.),.PIECEWISE_BEZIER_KNOTS.);
#208 = CARTESIAN_POINT('',(11.04178343949,2.725735919701,6.904137010743)
  );
#209 = CARTESIAN_POINT('',(11.370445859873,2.813397643061,7.144985616224
    ));
#210 = CARTESIAN_POINT('',(11.492738853503,2.93022184828,7.465957482109)
  );
#211 = SURFACE_OF_LINEAR_EXTRUSION('',#212,#216);
#212 = B_SPLINE_CURVE_WITH_KNOTS('',2,(#213,#214,#215),.UNSPECIFIED.,.F.
  ,.F.,(3,3),(0.,1.),.PIECEWISE_BEZIER_KNOTS.);
#213 = CARTESIAN_POINT('',(11.04178343949,2.725735919701,6.904137010743)
  );
#214 = CARTESIAN_POINT('',(11.370445859873,2.813397643061,7.144985616224
    ));
#215 = CARTESIAN_POINT('',(11.492738853503,2.93022184828,7.465957482109)
  );
#216 = VECTOR('',#217,1.);
#217 = DIRECTION('',(-0.,0.939692620786,-0.342020143326));
#218 = ADVANCED_FACE('',(#219),#244,.T.);
#219 = FACE_BOUND('',#220,.T.);
#220 = EDGE_LOOP('',(#221,#222,#230,#238));
#221 = ORIENTED_EDGE('',*,*,#198,.T.);
#222 = ORIENTED_EDGE('',*,*,#223,.T.);
#223 = EDGE_CURVE('',#191,#224,#226,.T.);
#224 = VERTEX_POINT('',#225);
#225 = CARTESIAN_POINT('',(12.073630573248,2.178467751651,7.73957359677)
  );
#226 = LINE('',#227,#228);
#227 = CARTESIAN_POINT('',(11.492738853503,2.178467751651,7.73957359677)
  );
#228 = VECTOR('',#229,1.);
#229 = DIRECTION('',(1.,0.,0.));
#230 = ORIENTED_EDGE('',*,*,#231,.F.);
#231 = EDGE_CURVE('',#232,#224,#234,.T.);
#232 = VERTEX_POINT('',#233);
#233 = CARTESIAN_POINT('',(12.073630573248,2.93022184828,7.465957482109)
  );
#234 = LINE('',#235,#236);
#235 = CARTESIAN_POINT('',(12.073630573248,2.93022184828,7.465957482109)
  );
#236 = VECTOR('',#237,1.);
#237 = DIRECTION('',(0.,-0.939692620786,0.342020143326));
#238 = ORIENTED_EDGE('',*,*,#239,.F.);
#239 = EDGE_CURVE('',#199,#232,#240,.T.);
#240 = LINE('',#241,#242);
#241 = CARTESIAN_POINT('',(11.492738853503,2.93022184828,7.465957482109)
  );
#242 = VECTOR('',#243,1.);
#243 = DIRECTION('',(1.,0.,0.));
#244 = PLANE('',#245);
#245 = AXIS2_PLACEMENT_3D('',#246,#247,#248);
#246 = CARTESIAN_POINT('',(11.492738853503,2.93022184828,7.465957482109)
  );
#247 = DIRECTION('',(0.,0.342020143326,0.939692620786));
#248 = DIRECTION('',(1.,0.,0.));
#249 = ADVANCED_FACE('',(#250),#266,.T.);
#250 = FACE_BOUND('',#251,.T.);
#251 = EDGE_LOOP('',(#252,#253,#259,#260));
#252 = ORIENTED_EDGE('',*,*,#231,.T.);
#253 = ORIENTED_EDGE('',*,*,#254,.T.);
#254 = EDGE_CURVE('',#224,#24,#255,.T.);
#255 = LINE('',#256,#257);
#256 = CARTESIAN_POINT('',(12.073630573248,2.178467751651,7.73957359677)
  );
#257 = VECTOR('',#258,1.);
#258 = DIRECTION('',(0.,-0.342020143326,-0.939692620786));
#259 = ORIENTED_EDGE('',*,*,#21,.F.);
#260 = ORIENTED_EDGE('',*,*,#261,.F.);
#261 = EDGE_CURVE('',#232,#22,#262,.T.);
#262 = LINE('',#263,#264);
#263 = CARTESIAN_POINT('',(12.073630573248,2.93022184828,7.465957482109)
  );
#264 = VECTOR('',#265,1.);
#265 = DIRECTION('',(0.,-0.342020143326,-0.939692620786));
#266 = PLANE('',#267);
#267 = AXIS2_PLACEMENT_3D('',#268,#269,#270);
#268 = CARTESIAN_POINT('',(12.073630573248,2.93022184828,7.465957482109)
  );
#269 = DIRECTION('',(1.,0.,0.));
#270 = DIRECTION('',(0.,-0.342020143326,-0.939692620786));
#271 = ADVANCED_FACE('',(#272),#282,.F.);
#272 = FACE_BOUND('',#273,.T.);
#273 = EDGE_LOOP('',(#274,#275,#276,#277,#278,#279,#280,#281));
#274 = ORIENTED_EDGE('',*,*,#47,.T.);
#275 = ORIENTED_EDGE('',*,*,#78,.T.);
#276 = ORIENTED_EDGE('',*,*,#109,.T.);
#277 = ORIENTED_EDGE('',*,*,#142,.T.);
#278 = ORIENTED_EDGE('',*,*,#173,.T.);
#279 = ORIENTED_EDGE('',*,*,#206,.T.);
#280 = ORIENTED_EDGE('',*,*,#239,.T.);
#281 = ORIENTED_EDGE('',*,*,#261,.T.);
#282 = PLANE('',#283);
#283 = AXIS2_PLACEMENT_3D('',#284,#285,#286);
#284 = CARTESIAN_POINT('',(11.506104674559,2.325874114842,5.805525730989
    ));
#285 = DIRECTION('',(0.,-0.939692620786,0.342020143326));
#286 = DIRECTION('',(1.,0.,0.));
#287 = ADVANCED_FACE('',(#288),#298,.T.);
#288 = FACE_BOUND('',#289,.F.);
#289 = EDGE_LOOP('',(#290,#291,#292,#293,#294,#295,#296,#297));
#290 = ORIENTED_EDGE('',*,*,#31,.T.);
#291 = ORIENTED_EDGE('',*,*,#62,.T.);
#292 = ORIENTED_EDGE('',*,*,#93,.T.);
#293 = ORIENTED_EDGE('',*,*,#126,.T.);
#294 = ORIENTED_EDGE('',*,*,#157,.T.);
#295 = ORIENTED_EDGE('',*,*,#190,.T.);
#296 = ORIENTED_EDGE('',*,*,#223,.T.);
#297 = ORIENTED_EDGE('',*,*,#254,.T.);
#298 = PLANE('',#299);
#299 = AXIS2_PLACEMENT_3D('',#300,#301,#302);
#300 = CARTESIAN_POINT('',(11.506104674559,1.574120018213,6.07914184565)
  );
#301 = DIRECTION('',(0.,-0.939692620786,0.342020143326));
#302 = DIRECTION('',(1.,0.,0.));
#303 = MANIFOLD_SOLID_BREP('',#304);
#304 = CLOSED_SHELL('',(#305,#347,#380,#413,#446,#479,#512,#545,#569,
    #585));
#305 = ADVANCED_FACE('',(#306),#340,.T.);
#306 = FACE_BOUND('',#307,.T.);
#307 = EDGE_LOOP('',(#308,#318,#326,#334));
#308 = ORIENTED_EDGE('',*,*,#309,.T.);
#309 = EDGE_CURVE('',#310,#312,#314,.T.);
#310 = VERTEX_POINT('',#311);
#311 = CARTESIAN_POINT('',(14.354394904459,2.93022184828,7.465957482109)
  );
#312 = VERTEX_POINT('',#313);
#313 = CARTESIAN_POINT('',(14.354394904459,2.178467751651,7.73957359677)
  );
#314 = LINE('',#315,#316);
#315 = CARTESIAN_POINT('',(14.354394904459,2.93022184828,7.465957482109)
  );
#316 = VECTOR('',#317,1.);
#317 = DIRECTION('',(0.,-0.939692620786,0.342020143326));
#318 = ORIENTED_EDGE('',*,*,#319,.T.);
#319 = EDGE_CURVE('',#312,#320,#322,.T.);
#320 = VERTEX_POINT('',#321);
#321 = CARTESIAN_POINT('',(15.202802547771,2.045609990668,7.37454989847)
  );
#322 = B_SPLINE_CURVE_WITH_KNOTS('',2,(#323,#324,#325),.UNSPECIFIED.,.F.
  ,.F.,(3,3),(0.,1.),.PIECEWISE_BEZIER_KNOTS.);
#323 = CARTESIAN_POINT('',(14.354394904459,2.178467751651,7.73957359677)
  );
#324 = CARTESIAN_POINT('',(14.897070063694,2.178467751651,7.73957359677)
  );
#325 = CARTESIAN_POINT('',(15.202802547771,2.045609990668,7.37454989847)
  );
#326 = ORIENTED_EDGE('',*,*,#327,.F.);
#327 = EDGE_CURVE('',#328,#320,#330,.T.);
#328 = VERTEX_POINT('',#329);
#329 = CARTESIAN_POINT('',(15.202802547771,2.797364087297,7.10093378381)
  );
#330 = LINE('',#331,#332);
#331 = CARTESIAN_POINT('',(15.202802547771,2.797364087297,7.10093378381)
  );
#332 = VECTOR('',#333,1.);
#333 = DIRECTION('',(0.,-0.939692620786,0.342020143326));
#334 = ORIENTED_EDGE('',*,*,#335,.F.);
#335 = EDGE_CURVE('',#310,#328,#336,.T.);
#336 = B_SPLINE_CURVE_WITH_KNOTS('',2,(#337,#338,#339),.UNSPECIFIED.,.F.
  ,.F.,(3,3),(0.,1.),.PIECEWISE_BEZIER_KNOTS.);
#337 = CARTESIAN_POINT('',(14.354394904459,2.93022184828,7.465957482109)
  );
#338 = CARTESIAN_POINT('',(14.897070063694,2.93022184828,7.465957482109)
  );
#339 = CARTESIAN_POINT('',(15.202802547771,2.797364087297,7.10093378381)
  );
#340 = SURFACE_OF_LINEAR_EXTRUSION('',#341,#345);
#341 = B_SPLINE_CURVE_WITH_KNOTS('',2,(#342,#343,#344),.UNSPECIFIED.,.F.
  ,.F.,(3,3),(0.,1.),.PIECEWISE_BEZIER_KNOTS.);
#342 = CARTESIAN_POINT('',(14.354394904459,2.93022184828,7.465957482109)
  );
#343 = CARTESIAN_POINT('',(14.897070063694,2.93022184828,7.465957482109)
  );
#344 = CARTESIAN_POINT('',(15.202802547771,2.797364087297,7.10093378381)
  );
#345 = VECTOR('',#346,1.);
#346 = DIRECTION('',(-0.,0.939692620786,-0.342020143326));
#347 = ADVANCED_FACE('',(#348),#373,.T.);
#348 = FACE_BOUND('',#349,.T.);
#349 = EDGE_LOOP('',(#350,#351,#359,#367));
#350 = ORIENTED_EDGE('',*,*,#327,.T.);
#351 = ORIENTED_EDGE('',*,*,#352,.T.);
#352 = EDGE_CURVE('',#320,#353,#355,.T.);
#353 = VERTEX_POINT('',#354);
#354 = CARTESIAN_POINT('',(15.567133757962,1.523648039453,5.940471223691
    ));
#355 = B_SPLINE_CURVE_WITH_KNOTS('',2,(#356,#357,#358),.UNSPECIFIED.,.F.
  ,.F.,(3,3),(0.,1.),.PIECEWISE_BEZIER_KNOTS.);
#356 = CARTESIAN_POINT('',(15.202802547771,2.045609990668,7.37454989847)
  );
#357 = CARTESIAN_POINT('',(15.567133757962,1.888237155294,6.942171586842
    ));
#358 = CARTESIAN_POINT('',(15.567133757962,1.523648039453,5.940471223691
    ));
#359 = ORIENTED_EDGE('',*,*,#360,.F.);
#360 = EDGE_CURVE('',#361,#353,#363,.T.);
#361 = VERTEX_POINT('',#362);
#362 = CARTESIAN_POINT('',(15.567133757962,2.275402136082,5.666855109031
    ));
#363 = LINE('',#364,#365);
#364 = CARTESIAN_POINT('',(15.567133757962,2.275402136082,5.666855109031
    ));
#365 = VECTOR('',#366,1.);
#366 = DIRECTION('',(0.,-0.939692620786,0.342020143326));
#367 = ORIENTED_EDGE('',*,*,#368,.F.);
#368 = EDGE_CURVE('',#328,#361,#369,.T.);
#369 = B_SPLINE_CURVE_WITH_KNOTS('',2,(#370,#371,#372),.UNSPECIFIED.,.F.
  ,.F.,(3,3),(0.,1.),.PIECEWISE_BEZIER_KNOTS.);
#370 = CARTESIAN_POINT('',(15.202802547771,2.797364087297,7.10093378381)
  );
#371 = CARTESIAN_POINT('',(15.567133757962,2.639991251922,6.668555472182
    ));
#372 = CARTESIAN_POINT('',(15.567133757962,2.275402136082,5.666855109031
    ));
#373 = SURFACE_OF_LINEAR_EXTRUSION('',#374,#378);
#374 = B_SPLINE_CURVE_WITH_KNOTS('',2,(#375,#376,#377),.UNSPECIFIED.,.F.
  ,.F.,(3,3),(0.,1.),.PIECEWISE_BEZIER_KNOTS.);
#375 = CARTESIAN_POINT('',(15.202802547771,2.797364087297,7.10093378381)
  );
#376 = CARTESIAN_POINT('',(15.567133757962,2.639991251922,6.668555472182
    ));
#377 = CARTESIAN_POINT('',(15.567133757962,2.275402136082,5.666855109031
    ));
#378 = VECTOR('',#379,1.);
#379 = DIRECTION('',(-0.,0.939692620786,-0.342020143326));
#380 = ADVANCED_FACE('',(#381),#406,.T.);
#381 = FACE_BOUND('',#382,.T.);
#382 = EDGE_LOOP('',(#383,#384,#392,#400));
#383 = ORIENTED_EDGE('',*,*,#360,.T.);
#384 = ORIENTED_EDGE('',*,*,#385,.T.);
#385 = EDGE_CURVE('',#353,#386,#388,.T.);
#386 = VERTEX_POINT('',#387);
#387 = CARTESIAN_POINT('',(15.20025477707,1.000872791931,4.504158035674)
  );
#388 = B_SPLINE_CURVE_WITH_KNOTS('',2,(#389,#390,#391),.UNSPECIFIED.,.F.
  ,.F.,(3,3),(0.,1.),.PIECEWISE_BEZIER_KNOTS.);
#389 = CARTESIAN_POINT('',(15.567133757962,1.523648039453,5.940471223691
    ));
#390 = CARTESIAN_POINT('',(15.567133757962,1.159988405106,4.941324589955
    ));
#391 = CARTESIAN_POINT('',(15.20025477707,1.000872791931,4.504158035674)
  );
#392 = ORIENTED_EDGE('',*,*,#393,.F.);
#393 = EDGE_CURVE('',#394,#386,#396,.T.);
#394 = VERTEX_POINT('',#395);
#395 = CARTESIAN_POINT('',(15.20025477707,1.752626888559,4.230541921013)
  );
#396 = LINE('',#397,#398);
#397 = CARTESIAN_POINT('',(15.20025477707,1.752626888559,4.230541921013)
  );
#398 = VECTOR('',#399,1.);
#399 = DIRECTION('',(0.,-0.939692620786,0.342020143326));
#400 = ORIENTED_EDGE('',*,*,#401,.F.);
#401 = EDGE_CURVE('',#361,#394,#402,.T.);
#402 = B_SPLINE_CURVE_WITH_KNOTS('',2,(#403,#404,#405),.UNSPECIFIED.,.F.
  ,.F.,(3,3),(0.,1.),.PIECEWISE_BEZIER_KNOTS.);
#403 = CARTESIAN_POINT('',(15.567133757962,2.275402136082,5.666855109031
    ));
#404 = CARTESIAN_POINT('',(15.567133757962,1.911742501735,4.667708475295
    ));
#405 = CARTESIAN_POINT('',(15.20025477707,1.752626888559,4.230541921013)
  );
#406 = SURFACE_OF_LINEAR_EXTRUSION('',#407,#411);
#407 = B_SPLINE_CURVE_WITH_KNOTS('',2,(#408,#409,#410),.UNSPECIFIED.,.F.
  ,.F.,(3,3),(0.,1.),.PIECEWISE_BEZIER_KNOTS.);
#408 = CARTESIAN_POINT('',(15.567133757962,2.275402136082,5.666855109031
    ));
#409 = CARTESIAN_POINT('',(15.567133757962,1.911742501735,4.667708475295
    ));
#410 = CARTESIAN_POINT('',(15.20025477707,1.752626888559,4.230541921013)
  );
#411 = VECTOR('',#412,1.);
#412 = DIRECTION('',(-0.,0.939692620786,-0.342020143326));
#413 = ADVANCED_FACE('',(#414),#439,.T.);
#414 = FACE_BOUND('',#415,.T.);
#415 = EDGE_LOOP('',(#416,#417,#425,#433));
#416 = ORIENTED_EDGE('',*,*,#393,.T.);
#417 = ORIENTED_EDGE('',*,*,#418,.T.);
#418 = EDGE_CURVE('',#386,#419,#421,.T.);
#419 = VERTEX_POINT('',#420);
#420 = CARTESIAN_POINT('',(14.354394904459,0.869757808748,4.143922580028
    ));
#421 = B_SPLINE_CURVE_WITH_KNOTS('',2,(#422,#423,#424),.UNSPECIFIED.,.F.
  ,.F.,(3,3),(0.,1.),.PIECEWISE_BEZIER_KNOTS.);
#422 = CARTESIAN_POINT('',(15.20025477707,1.000872791931,4.504158035674)
  );
#423 = CARTESIAN_POINT('',(14.897070063694,0.869757808748,4.143922580028
    ));
#424 = CARTESIAN_POINT('',(14.354394904459,0.869757808748,4.143922580028
    ));
#425 = ORIENTED_EDGE('',*,*,#426,.F.);
#426 = EDGE_CURVE('',#427,#419,#429,.T.);
#427 = VERTEX_POINT('',#428);
#428 = CARTESIAN_POINT('',(14.354394904459,1.621511905377,3.870306465368
    ));
#429 = LINE('',#430,#431);
#430 = CARTESIAN_POINT('',(14.354394904459,1.621511905377,3.870306465368
    ));
#431 = VECTOR('',#432,1.);
#432 = DIRECTION('',(0.,-0.939692620786,0.342020143326));
#433 = ORIENTED_EDGE('',*,*,#434,.F.);
#434 = EDGE_CURVE('',#394,#427,#435,.T.);
#435 = B_SPLINE_CURVE_WITH_KNOTS('',2,(#436,#437,#438),.UNSPECIFIED.,.F.
  ,.F.,(3,3),(0.,1.),.PIECEWISE_BEZIER_KNOTS.);
#436 = CARTESIAN_POINT('',(15.20025477707,1.752626888559,4.230541921013)
  );
#437 = CARTESIAN_POINT('',(14.897070063694,1.621511905377,3.870306465368
    ));
#438 = CARTESIAN_POINT('',(14.354394904459,1.621511905377,3.870306465368
    ));
#439 = SURFACE_OF_LINEAR_EXTRUSION('',#440,#444);
#440 = B_SPLINE_CURVE_WITH_KNOTS('',2,(#441,#442,#443),.UNSPECIFIED.,.F.
  ,.F.,(3,3),(0.,1.),.PIECEWISE_BEZIER_KNOTS.);
#441 = CARTESIAN_POINT('',(15.20025477707,1.752626888559,4.230541921013)
  );
#442 = CARTESIAN_POINT('',(14.897070063694,1.621511905377,3.870306465368
    ));
#443 = CARTESIAN_POINT('',(14.354394904459,1.621511905377,3.870306465368
    ));
#444 = VECTOR('',#445,1.);
#445 = DIRECTION('',(-0.,0.939692620786,-0.342020143326));
#446 = ADVANCED_FACE('',(#447),#472,.T.);
#447 = FACE_BOUND('',#448,.T.);
#448 = EDGE_LOOP('',(#449,#450,#458,#466));
#449 = ORIENTED_EDGE('',*,*,#426,.T.);
#450 = ORIENTED_EDGE('',*,*,#451,.T.);
#451 = EDGE_CURVE('',#419,#452,#454,.T.);
#452 = VERTEX_POINT('',#453);
#453 = CARTESIAN_POINT('',(13.475414012739,1.01353697728,4.538952598957)
  );
#454 = B_SPLINE_CURVE_WITH_KNOTS('',2,(#455,#456,#457),.UNSPECIFIED.,.F.
  ,.F.,(3,3),(0.,1.),.PIECEWISE_BEZIER_KNOTS.);
#455 = CARTESIAN_POINT('',(14.354394904459,0.869757808748,4.143922580028
    ));
#456 = CARTESIAN_POINT('',(13.809171974522,0.869757808748,4.143922580028
    ));
#457 = CARTESIAN_POINT('',(13.475414012739,1.01353697728,4.538952598957)
  );
#458 = ORIENTED_EDGE('',*,*,#459,.F.);
#459 = EDGE_CURVE('',#460,#452,#462,.T.);
#460 = VERTEX_POINT('',#461);
#461 = CARTESIAN_POINT('',(13.475414012739,1.765291073909,4.265336484297
    ));
#462 = LINE('',#463,#464);
#463 = CARTESIAN_POINT('',(13.475414012739,1.765291073909,4.265336484297
    ));
#464 = VECTOR('',#465,1.);
#465 = DIRECTION('',(0.,-0.939692620786,0.342020143326));
#466 = ORIENTED_EDGE('',*,*,#467,.F.);
#467 = EDGE_CURVE('',#427,#460,#468,.T.);
#468 = B_SPLINE_CURVE_WITH_KNOTS('',2,(#469,#470,#471),.UNSPECIFIED.,.F.
  ,.F.,(3,3),(0.,1.),.PIECEWISE_BEZIER_KNOTS.);
#469 = CARTESIAN_POINT('',(14.354394904459,1.621511905377,3.870306465368
    ));
#470 = CARTESIAN_POINT('',(13.809171974522,1.621511905377,3.870306465368
    ));
#471 = CARTESIAN_POINT('',(13.475414012739,1.765291073909,4.265336484297
    ));
#472 = SURFACE_OF_LINEAR_EXTRUSION('',#473,#477);
#473 = B_SPLINE_CURVE_WITH_KNOTS('',2,(#474,#475,#476),.UNSPECIFIED.,.F.
  ,.F.,(3,3),(0.,1.),.PIECEWISE_BEZIER_KNOTS.);
#474 = CARTESIAN_POINT('',(14.354394904459,1.621511905377,3.870306465368
    ));
#475 = CARTESIAN_POINT('',(13.809171974522,1.621511905377,3.870306465368
    ));
#476 = CARTESIAN_POINT('',(13.475414012739,1.765291073909,4.265336484297
    ));
#477 = VECTOR('',#478,1.);
#478 = DIRECTION('',(-0.,0.939692620786,-0.342020143326));
#479 = ADVANCED_FACE('',(#480),#505,.T.);
#480 = FACE_BOUND('',#481,.T.);
#481 = EDGE_LOOP('',(#482,#483,#491,#499));
#482 = ORIENTED_EDGE('',*,*,#459,.T.);
#483 = ORIENTED_EDGE('',*,*,#484,.T.);
#484 = EDGE_CURVE('',#452,#485,#487,.T.);
#485 = VERTEX_POINT('',#486);
#486 = CARTESIAN_POINT('',(13.141656050955,1.526320298747,5.94781319576)
  );
#487 = B_SPLINE_CURVE_WITH_KNOTS('',2,(#488,#489,#490),.UNSPECIFIED.,.F.
  ,.F.,(3,3),(0.,1.),.PIECEWISE_BEZIER_KNOTS.);
#488 = CARTESIAN_POINT('',(13.475414012739,1.01353697728,4.538952598957)
  );
#489 = CARTESIAN_POINT('',(13.141656050955,1.157374238405,4.934142225975
    ));
#490 = CARTESIAN_POINT('',(13.141656050955,1.526320298747,5.94781319576)
  );
#491 = ORIENTED_EDGE('',*,*,#492,.F.);
#492 = EDGE_CURVE('',#493,#485,#495,.T.);
#493 = VERTEX_POINT('',#494);
#494 = CARTESIAN_POINT('',(13.141656050955,2.278074395376,5.6741970811)
  );
#495 = LINE('',#496,#497);
#496 = CARTESIAN_POINT('',(13.141656050955,2.278074395376,5.6741970811)
  );
#497 = VECTOR('',#498,1.);
#498 = DIRECTION('',(0.,-0.939692620786,0.342020143326));
#499 = ORIENTED_EDGE('',*,*,#500,.F.);
#500 = EDGE_CURVE('',#460,#493,#501,.T.);
#501 = B_SPLINE_CURVE_WITH_KNOTS('',2,(#502,#503,#504),.UNSPECIFIED.,.F.
  ,.F.,(3,3),(0.,1.),.PIECEWISE_BEZIER_KNOTS.);
#502 = CARTESIAN_POINT('',(13.475414012739,1.765291073909,4.265336484297
    ));
#503 = CARTESIAN_POINT('',(13.141656050955,1.909128335034,4.660526111314
    ));
#504 = CARTESIAN_POINT('',(13.141656050955,2.278074395376,5.6741970811)
  );
#505 = SURFACE_OF_LINEAR_EXTRUSION('',#506,#510);
#506 = B_SPLINE_CURVE_WITH_KNOTS('',2,(#507,#508,#509),.UNSPECIFIED.,.F.
  ,.F.,(3,3),(0.,1.),.PIECEWISE_BEZIER_KNOTS.);
#507 = CARTESIAN_POINT('',(13.475414012739,1.765291073909,4.265336484297
    ));
#508 = CARTESIAN_POINT('',(13.141656050955,1.909128335034,4.660526111314
    ));
#509 = CARTESIAN_POINT('',(13.141656050955,2.278074395376,5.6741970811)
  );
#510 = VECTOR('',#511,1.);
#511 = DIRECTION('',(-0.,0.939692620786,-0.342020143326));
#512 = ADVANCED_FACE('',(#513),#538,.T.);
#513 = FACE_BOUND('',#514,.T.);
#514 = EDGE_LOOP('',(#515,#516,#524,#532));
#515 = ORIENTED_EDGE('',*,*,#492,.T.);
#516 = ORIENTED_EDGE('',*,*,#517,.T.);
#517 = EDGE_CURVE('',#485,#518,#520,.T.);
#518 = VERTEX_POINT('',#519);
#519 = CARTESIAN_POINT('',(13.508535031847,2.047352768469,7.379338141124
    ));
#520 = B_SPLINE_CURVE_WITH_KNOTS('',2,(#521,#522,#523),.UNSPECIFIED.,.F.
  ,.F.,(3,3),(0.,1.),.PIECEWISE_BEZIER_KNOTS.);
#521 = CARTESIAN_POINT('',(13.141656050955,1.526320298747,5.94781319576)
  );
#522 = CARTESIAN_POINT('',(13.141656050955,1.888237155294,6.942171586842
    ));
#523 = CARTESIAN_POINT('',(13.508535031847,2.047352768469,7.379338141124
    ));
#524 = ORIENTED_EDGE('',*,*,#525,.F.);
#525 = EDGE_CURVE('',#526,#518,#528,.T.);
#526 = VERTEX_POINT('',#527);
#527 = CARTESIAN_POINT('',(13.508535031847,2.799106865098,7.105722026463
    ));
#528 = LINE('',#529,#530);
#529 = CARTESIAN_POINT('',(13.508535031847,2.799106865098,7.105722026463
    ));
#530 = VECTOR('',#531,1.);
#531 = DIRECTION('',(0.,-0.939692620786,0.342020143326));
#532 = ORIENTED_EDGE('',*,*,#533,.F.);
#533 = EDGE_CURVE('',#493,#526,#534,.T.);
#534 = B_SPLINE_CURVE_WITH_KNOTS('',2,(#535,#536,#537),.UNSPECIFIED.,.F.
  ,.F.,(3,3),(0.,1.),.PIECEWISE_BEZIER_KNOTS.);
#535 = CARTESIAN_POINT('',(13.141656050955,2.278074395376,5.6741970811)
  );
#536 = CARTESIAN_POINT('',(13.141656050955,2.639991251922,6.668555472182
    ));
#537 = CARTESIAN_POINT('',(13.508535031847,2.799106865098,7.105722026463
    ));
#538 = SURFACE_OF_LINEAR_EXTRUSION('',#539,#543);
#539 = B_SPLINE_CURVE_WITH_KNOTS('',2,(#540,#541,#542),.UNSPECIFIED.,.F.
  ,.F.,(3,3),(0.,1.),.PIECEWISE_BEZIER_KNOTS.);
#540 = CARTESIAN_POINT('',(13.141656050955,2.278074395376,5.6741970811)
  );
#541 = CARTESIAN_POINT('',(13.141656050955,2.639991251922,6.668555472182
    ));
#542 = CARTESIAN_POINT('',(13.508535031847,2.799106865098,7.105722026463
    ));
#543 = VECTOR('',#544,1.);
#544 = DIRECTION('',(-0.,0.939692620786,-0.342020143326));
#545 = ADVANCED_FACE('',(#546),#562,.T.);
#546 = FACE_BOUND('',#547,.T.);
#547 = EDGE_LOOP('',(#548,#549,#555,#556));
#548 = ORIENTED_EDGE('',*,*,#525,.T.);
#549 = ORIENTED_EDGE('',*,*,#550,.T.);
#550 = EDGE_CURVE('',#518,#312,#551,.T.);
#551 = B_SPLINE_CURVE_WITH_KNOTS('',2,(#552,#553,#554),.UNSPECIFIED.,.F.
  ,.F.,(3,3),(0.,1.),.PIECEWISE_BEZIER_KNOTS.);
#552 = CARTESIAN_POINT('',(13.508535031847,2.047352768469,7.379338141124
    ));
#553 = CARTESIAN_POINT('',(13.811719745223,2.178467751651,7.73957359677)
  );
#554 = CARTESIAN_POINT('',(14.354394904459,2.178467751651,7.73957359677)
  );
#555 = ORIENTED_EDGE('',*,*,#309,.F.);
#556 = ORIENTED_EDGE('',*,*,#557,.F.);
#557 = EDGE_CURVE('',#526,#310,#558,.T.);
#558 = B_SPLINE_CURVE_WITH_KNOTS('',2,(#559,#560,#561),.UNSPECIFIED.,.F.
  ,.F.,(3,3),(0.,1.),.PIECEWISE_BEZIER_KNOTS.);
#559 = CARTESIAN_POINT('',(13.508535031847,2.799106865098,7.105722026463
    ));
#560 = CARTESIAN_POINT('',(13.811719745223,2.93022184828,7.465957482109)
  );
#561 = CARTESIAN_POINT('',(14.354394904459,2.93022184828,7.465957482109)
  );
#562 = SURFACE_OF_LINEAR_EXTRUSION('',#563,#567);
#563 = B_SPLINE_CURVE_WITH_KNOTS('',2,(#564,#565,#566),.UNSPECIFIED.,.F.
  ,.F.,(3,3),(0.,1.),.PIECEWISE_BEZIER_KNOTS.);
#564 = CARTESIAN_POINT('',(13.508535031847,2.799106865098,7.105722026463
    ));
#565 = CARTESIAN_POINT('',(13.811719745223,2.93022184828,7.465957482109)
  );
#566 = CARTESIAN_POINT('',(14.354394904459,2.93022184828,7.465957482109)
  );
#567 = VECTOR('',#568,1.);
#568 = DIRECTION('',(-0.,0.939692620786,-0.342020143326));
#569 = ADVANCED_FACE('',(#570),#580,.F.);
#570 = FACE_BOUND('',#571,.T.);
#571 = EDGE_LOOP('',(#572,#573,#574,#575,#576,#577,#578,#579));
#572 = ORIENTED_EDGE('',*,*,#335,.T.);
#573 = ORIENTED_EDGE('',*,*,#368,.T.);
#574 = ORIENTED_EDGE('',*,*,#401,.T.);
#575 = ORIENTED_EDGE('',*,*,#434,.T.);
#576 = ORIENTED_EDGE('',*,*,#467,.T.);
#577 = ORIENTED_EDGE('',*,*,#500,.T.);
#578 = ORIENTED_EDGE('',*,*,#533,.T.);
#579 = ORIENTED_EDGE('',*,*,#557,.T.);
#580 = PLANE('',#581);
#581 = AXIS2_PLACEMENT_3D('',#582,#583,#584);
#582 = CARTESIAN_POINT('',(14.353245572816,2.275785293058,5.66790782417)
  );
#583 = DIRECTION('',(0.,-0.939692620786,0.342020143326));
#584 = DIRECTION('',(1.,0.,0.));
#585 = ADVANCED_FACE('',(#586),#596,.T.);
#586 = FACE_BOUND('',#587,.F.);
#587 = EDGE_LOOP('',(#588,#589,#590,#591,#592,#593,#594,#595));
#588 = ORIENTED_EDGE('',*,*,#319,.T.);
#589 = ORIENTED_EDGE('',*,*,#352,.T.);
#590 = ORIENTED_EDGE('',*,*,#385,.T.);
#591 = ORIENTED_EDGE('',*,*,#418,.T.);
#592 = ORIENTED_EDGE('',*,*,#451,.T.);
#593 = ORIENTED_EDGE('',*,*,#484,.T.);
#594 = ORIENTED_EDGE('',*,*,#517,.T.);
#595 = ORIENTED_EDGE('',*,*,#550,.T.);
#596 = PLANE('',#597);
#597 = AXIS2_PLACEMENT_3D('',#598,#599,#600);
#598 = CARTESIAN_POINT('',(14.353245572816,1.524031196429,5.941523938831
    ));
#599 = DIRECTION('',(0.,-0.939692620786,0.342020143326));
#600 = DIRECTION('',(1.,0.,0.));
#601 = MANIFOLD_SOLID_BREP('',#602);
#602 = CLOSED_SHELL('',(#603,#645,#678,#711,#744,#777,#810,#843,#876,
    #909,#942,#975,#999,#1019));
#603 = ADVANCED_FACE('',(#604),#638,.F.);
#604 = FACE_BOUND('',#605,.F.);
#605 = EDGE_LOOP('',(#606,#616,#624,#632));
#606 = ORIENTED_EDGE('',*,*,#607,.T.);
#607 = EDGE_CURVE('',#608,#610,#612,.T.);
#608 = VERTEX_POINT('',#609);
#609 = CARTESIAN_POINT('',(14.354394904459,2.725735919701,6.904137010743
    ));
#610 = VERTEX_POINT('',#611);
#611 = CARTESIAN_POINT('',(14.354394904459,1.973981823073,7.177753125404
    ));
#612 = LINE('',#613,#614);
#613 = CARTESIAN_POINT('',(14.354394904459,2.725735919701,6.904137010743
    ));
#614 = VECTOR('',#615,1.);
#615 = DIRECTION('',(0.,-0.939692620786,0.342020143326));
#616 = ORIENTED_EDGE('',*,*,#617,.T.);
#617 = EDGE_CURVE('',#610,#618,#620,.T.);
#618 = VERTEX_POINT('',#619);
#619 = CARTESIAN_POINT('',(14.122547770701,1.94563263752,7.099864378237)
  );
#620 = B_SPLINE_CURVE_WITH_KNOTS('',2,(#621,#622,#623),.UNSPECIFIED.,.F.
  ,.F.,(3,3),(0.,1.),.PIECEWISE_BEZIER_KNOTS.);
#621 = CARTESIAN_POINT('',(14.354394904459,1.973981823073,7.177753125404
    ));
#622 = CARTESIAN_POINT('',(14.224458598726,1.973981823073,7.177753125404
    ));
#623 = CARTESIAN_POINT('',(14.122547770701,1.94563263752,7.099864378237)
  );
#624 = ORIENTED_EDGE('',*,*,#625,.F.);
#625 = EDGE_CURVE('',#626,#618,#628,.T.);
#626 = VERTEX_POINT('',#627);
#627 = CARTESIAN_POINT('',(14.122547770701,2.697386734148,6.826248263577
    ));
#628 = LINE('',#629,#630);
#629 = CARTESIAN_POINT('',(14.122547770701,2.697386734148,6.826248263577
    ));
#630 = VECTOR('',#631,1.);
#631 = DIRECTION('',(0.,-0.939692620786,0.342020143326));
#632 = ORIENTED_EDGE('',*,*,#633,.F.);
#633 = EDGE_CURVE('',#608,#626,#634,.T.);
#634 = B_SPLINE_CURVE_WITH_KNOTS('',2,(#635,#636,#637),.UNSPECIFIED.,.F.
  ,.F.,(3,3),(0.,1.),.PIECEWISE_BEZIER_KNOTS.);
#635 = CARTESIAN_POINT('',(14.354394904459,2.725735919701,6.904137010743
    ));
#636 = CARTESIAN_POINT('',(14.224458598726,2.725735919701,6.904137010743
    ));
#637 = CARTESIAN_POINT('',(14.122547770701,2.697386734148,6.826248263577
    ));
#638 = SURFACE_OF_LINEAR_EXTRUSION('',#639,#643);
#639 = B_SPLINE_CURVE_WITH_KNOTS('',2,(#640,#641,#642),.UNSPECIFIED.,.F.
  ,.F.,(3,3),(0.,1.),.PIECEWISE_BEZIER_KNOTS.);
#640 = CARTESIAN_POINT('',(14.354394904459,2.725735919701,6.904137010743
    ));
#641 = CARTESIAN_POINT('',(14.224458598726,2.725735919701,6.904137010743
    ));
#642 = CARTESIAN_POINT('',(14.122547770701,2.697386734148,6.826248263577
    ));
#643 = VECTOR('',#644,1.);
#644 = DIRECTION('',(-0.,0.939692620786,-0.342020143326));
#645 = ADVANCED_FACE('',(#646),#671,.F.);
#646 = FACE_BOUND('',#647,.F.);
#647 = EDGE_LOOP('',(#648,#649,#657,#665));
#648 = ORIENTED_EDGE('',*,*,#625,.T.);
#649 = ORIENTED_EDGE('',*,*,#650,.T.);
#650 = EDGE_CURVE('',#618,#651,#653,.T.);
#651 = VERTEX_POINT('',#652);
#652 = CARTESIAN_POINT('',(13.964585987261,1.843970599164,6.820550223439
    ));
#653 = B_SPLINE_CURVE_WITH_KNOTS('',2,(#654,#655,#656),.UNSPECIFIED.,.F.
  ,.F.,(3,3),(0.,1.),.PIECEWISE_BEZIER_KNOTS.);
#654 = CARTESIAN_POINT('',(14.122547770701,1.94563263752,7.099864378237)
  );
#655 = CARTESIAN_POINT('',(14.020636942675,1.917283451967,7.021975631071
    ));
#656 = CARTESIAN_POINT('',(13.964585987261,1.843970599164,6.820550223439
    ));
#657 = ORIENTED_EDGE('',*,*,#658,.F.);
#658 = EDGE_CURVE('',#659,#651,#661,.T.);
#659 = VERTEX_POINT('',#660);
#660 = CARTESIAN_POINT('',(13.964585987261,2.595724695793,6.546934108778
    ));
#661 = LINE('',#662,#663);
#662 = CARTESIAN_POINT('',(13.964585987261,2.595724695793,6.546934108778
    ));
#663 = VECTOR('',#664,1.);
#664 = DIRECTION('',(0.,-0.939692620786,0.342020143326));
#665 = ORIENTED_EDGE('',*,*,#666,.F.);
#666 = EDGE_CURVE('',#626,#659,#667,.T.);
#667 = B_SPLINE_CURVE_WITH_KNOTS('',2,(#668,#669,#670),.UNSPECIFIED.,.F.
  ,.F.,(3,3),(0.,1.),.PIECEWISE_BEZIER_KNOTS.);
#668 = CARTESIAN_POINT('',(14.122547770701,2.697386734148,6.826248263577
    ));
#669 = CARTESIAN_POINT('',(14.020636942675,2.669037548595,6.74835951641)
  );
#670 = CARTESIAN_POINT('',(13.964585987261,2.595724695793,6.546934108778
    ));
#671 = SURFACE_OF_LINEAR_EXTRUSION('',#672,#676);
#672 = B_SPLINE_CURVE_WITH_KNOTS('',2,(#673,#674,#675),.UNSPECIFIED.,.F.
  ,.F.,(3,3),(0.,1.),.PIECEWISE_BEZIER_KNOTS.);
#673 = CARTESIAN_POINT('',(14.122547770701,2.697386734148,6.826248263577
    ));
#674 = CARTESIAN_POINT('',(14.020636942675,2.669037548595,6.74835951641)
  );
#675 = CARTESIAN_POINT('',(13.964585987261,2.595724695793,6.546934108778
    ));
#676 = VECTOR('',#677,1.);
#677 = DIRECTION('',(-0.,0.939692620786,-0.342020143326));
#678 = ADVANCED_FACE('',(#679),#704,.F.);
#679 = FACE_BOUND('',#680,.F.);
#680 = EDGE_LOOP('',(#681,#682,#690,#698));
#681 = ORIENTED_EDGE('',*,*,#658,.T.);
#682 = ORIENTED_EDGE('',*,*,#683,.T.);
#683 = EDGE_CURVE('',#651,#684,#686,.T.);
#684 = VERTEX_POINT('',#685);
#685 = CARTESIAN_POINT('',(13.890700636943,1.523648039453,5.940471223691
    ));
#686 = B_SPLINE_CURVE_WITH_KNOTS('',2,(#687,#688,#689),.UNSPECIFIED.,.F.
  ,.F.,(3,3),(0.,1.),.PIECEWISE_BEZIER_KNOTS.);
#687 = CARTESIAN_POINT('',(13.964585987261,1.843970599164,6.820550223439
    ));
#688 = CARTESIAN_POINT('',(13.890700636943,1.748814931263,6.559112174548
    ));
#689 = CARTESIAN_POINT('',(13.890700636943,1.523648039453,5.940471223691
    ));
#690 = ORIENTED_EDGE('',*,*,#691,.F.);
#691 = EDGE_CURVE('',#692,#684,#694,.T.);
#692 = VERTEX_POINT('',#693);
#693 = CARTESIAN_POINT('',(13.890700636943,2.275402136082,5.666855109031
    ));
#694 = LINE('',#695,#696);
#695 = CARTESIAN_POINT('',(13.890700636943,2.275402136082,5.666855109031
    ));
#696 = VECTOR('',#697,1.);
#697 = DIRECTION('',(0.,-0.939692620786,0.342020143326));
#698 = ORIENTED_EDGE('',*,*,#699,.F.);
#699 = EDGE_CURVE('',#659,#692,#700,.T.);
#700 = B_SPLINE_CURVE_WITH_KNOTS('',2,(#701,#702,#703),.UNSPECIFIED.,.F.
  ,.F.,(3,3),(0.,1.),.PIECEWISE_BEZIER_KNOTS.);
#701 = CARTESIAN_POINT('',(13.964585987261,2.595724695793,6.546934108778
    ));
#702 = CARTESIAN_POINT('',(13.890700636943,2.500569027892,6.285496059887
    ));
#703 = CARTESIAN_POINT('',(13.890700636943,2.275402136082,5.666855109031
    ));
#704 = SURFACE_OF_LINEAR_EXTRUSION('',#705,#709);
#705 = B_SPLINE_CURVE_WITH_KNOTS('',2,(#706,#707,#708),.UNSPECIFIED.,.F.
  ,.F.,(3,3),(0.,1.),.PIECEWISE_BEZIER_KNOTS.);
#706 = CARTESIAN_POINT('',(13.964585987261,2.595724695793,6.546934108778
    ));
#707 = CARTESIAN_POINT('',(13.890700636943,2.500569027892,6.285496059887
    ));
#708 = CARTESIAN_POINT('',(13.890700636943,2.275402136082,5.666855109031
    ));
#709 = VECTOR('',#710,1.);
#710 = DIRECTION('',(-0.,0.939692620786,-0.342020143326));
#711 = ADVANCED_FACE('',(#712),#737,.F.);
#712 = FACE_BOUND('',#713,.F.);
#713 = EDGE_LOOP('',(#714,#715,#723,#731));
#714 = ORIENTED_EDGE('',*,*,#691,.T.);
#715 = ORIENTED_EDGE('',*,*,#716,.T.);
#716 = EDGE_CURVE('',#684,#717,#719,.T.);
#717 = VERTEX_POINT('',#718);
#718 = CARTESIAN_POINT('',(13.956942675159,1.214304979885,5.090558152662
    ));
#719 = B_SPLINE_CURVE_WITH_KNOTS('',2,(#720,#721,#722),.UNSPECIFIED.,.F.
  ,.F.,(3,3),(0.,1.),.PIECEWISE_BEZIER_KNOTS.);
#720 = CARTESIAN_POINT('',(13.890700636943,1.523648039453,5.940471223691
    ));
#721 = CARTESIAN_POINT('',(13.890700636943,1.298539240237,5.321989880923
    ));
#722 = CARTESIAN_POINT('',(13.956942675159,1.214304979885,5.090558152662
    ));
#723 = ORIENTED_EDGE('',*,*,#724,.F.);
#724 = EDGE_CURVE('',#725,#717,#727,.T.);
#725 = VERTEX_POINT('',#726);
#726 = CARTESIAN_POINT('',(13.956942675159,1.966059076513,4.816942038001
    ));
#727 = LINE('',#728,#729);
#728 = CARTESIAN_POINT('',(13.956942675159,1.966059076513,4.816942038001
    ));
#729 = VECTOR('',#730,1.);
#730 = DIRECTION('',(0.,-0.939692620786,0.342020143326));
#731 = ORIENTED_EDGE('',*,*,#732,.F.);
#732 = EDGE_CURVE('',#692,#725,#733,.T.);
#733 = B_SPLINE_CURVE_WITH_KNOTS('',2,(#734,#735,#736),.UNSPECIFIED.,.F.
  ,.F.,(3,3),(0.,1.),.PIECEWISE_BEZIER_KNOTS.);
#734 = CARTESIAN_POINT('',(13.890700636943,2.275402136082,5.666855109031
    ));
#735 = CARTESIAN_POINT('',(13.890700636943,2.050293336865,5.048373766263
    ));
#736 = CARTESIAN_POINT('',(13.956942675159,1.966059076513,4.816942038001
    ));
#737 = SURFACE_OF_LINEAR_EXTRUSION('',#738,#742);
#738 = B_SPLINE_CURVE_WITH_KNOTS('',2,(#739,#740,#741),.UNSPECIFIED.,.F.
  ,.F.,(3,3),(0.,1.),.PIECEWISE_BEZIER_KNOTS.);
#739 = CARTESIAN_POINT('',(13.890700636943,2.275402136082,5.666855109031
    ));
#740 = CARTESIAN_POINT('',(13.890700636943,2.050293336865,5.048373766263
    ));
#741 = CARTESIAN_POINT('',(13.956942675159,1.966059076513,4.816942038001
    ));
#742 = VECTOR('',#743,1.);
#743 = DIRECTION('',(-0.,0.939692620786,-0.342020143326));
#744 = ADVANCED_FACE('',(#745),#770,.F.);
#745 = FACE_BOUND('',#746,.F.);
#746 = EDGE_LOOP('',(#747,#748,#756,#764));
#747 = ORIENTED_EDGE('',*,*,#724,.T.);
#748 = ORIENTED_EDGE('',*,*,#749,.T.);
#749 = EDGE_CURVE('',#717,#750,#752,.T.);
#750 = VERTEX_POINT('',#751);
#751 = CARTESIAN_POINT('',(14.123736730361,1.102128182133,4.782354933853
    ));
#752 = B_SPLINE_CURVE_WITH_KNOTS('',2,(#753,#754,#755),.UNSPECIFIED.,.F.
  ,.F.,(3,3),(0.,1.),.PIECEWISE_BEZIER_KNOTS.);
#753 = CARTESIAN_POINT('',(13.956942675159,1.214304979885,5.090558152662
    ));
#754 = CARTESIAN_POINT('',(14.023184713376,1.130070719533,4.8591264244)
  );
#755 = CARTESIAN_POINT('',(14.123736730361,1.102128182133,4.782354933853
    ));
#756 = ORIENTED_EDGE('',*,*,#757,.F.);
#757 = EDGE_CURVE('',#758,#750,#760,.T.);
#758 = VERTEX_POINT('',#759);
#759 = CARTESIAN_POINT('',(14.123736730361,1.853882278762,4.508738819193
    ));
#760 = LINE('',#761,#762);
#761 = CARTESIAN_POINT('',(14.123736730361,1.853882278762,4.508738819193
    ));
#762 = VECTOR('',#763,1.);
#763 = DIRECTION('',(0.,-0.939692620786,0.342020143326));
#764 = ORIENTED_EDGE('',*,*,#765,.F.);
#765 = EDGE_CURVE('',#725,#758,#766,.T.);
#766 = B_SPLINE_CURVE_WITH_KNOTS('',2,(#767,#768,#769),.UNSPECIFIED.,.F.
  ,.F.,(3,3),(0.,1.),.PIECEWISE_BEZIER_KNOTS.);
#767 = CARTESIAN_POINT('',(13.956942675159,1.966059076513,4.816942038001
    ));
#768 = CARTESIAN_POINT('',(14.023184713376,1.881824816161,4.58551030974)
  );
#769 = CARTESIAN_POINT('',(14.123736730361,1.853882278762,4.508738819193
    ));
#770 = SURFACE_OF_LINEAR_EXTRUSION('',#771,#775);
#771 = B_SPLINE_CURVE_WITH_KNOTS('',2,(#772,#773,#774),.UNSPECIFIED.,.F.
  ,.F.,(3,3),(0.,1.),.PIECEWISE_BEZIER_KNOTS.);
#772 = CARTESIAN_POINT('',(13.956942675159,1.966059076513,4.816942038001
    ));
#773 = CARTESIAN_POINT('',(14.023184713376,1.881824816161,4.58551030974)
  );
#774 = CARTESIAN_POINT('',(14.123736730361,1.853882278762,4.508738819193
    ));
#775 = VECTOR('',#776,1.);
#776 = DIRECTION('',(-0.,0.939692620786,-0.342020143326));
#777 = ADVANCED_FACE('',(#778),#803,.F.);
#778 = FACE_BOUND('',#779,.F.);
#779 = EDGE_LOOP('',(#780,#781,#789,#797));
#780 = ORIENTED_EDGE('',*,*,#757,.T.);
#781 = ORIENTED_EDGE('',*,*,#782,.T.);
#782 = EDGE_CURVE('',#750,#783,#785,.T.);
#783 = VERTEX_POINT('',#784);
#784 = CARTESIAN_POINT('',(14.354394904459,1.074243737327,4.705743051394
    ));
#785 = B_SPLINE_CURVE_WITH_KNOTS('',2,(#786,#787,#788),.UNSPECIFIED.,.F.
  ,.F.,(3,3),(0.,1.),.PIECEWISE_BEZIER_KNOTS.);
#786 = CARTESIAN_POINT('',(14.123736730361,1.102128182133,4.782354933853
    ));
#787 = CARTESIAN_POINT('',(14.224458598726,1.074243737327,4.705743051394
    ));
#788 = CARTESIAN_POINT('',(14.354394904459,1.074243737327,4.705743051394
    ));
#789 = ORIENTED_EDGE('',*,*,#790,.F.);
#790 = EDGE_CURVE('',#791,#783,#793,.T.);
#791 = VERTEX_POINT('',#792);
#792 = CARTESIAN_POINT('',(14.354394904459,1.825997833956,4.432126936734
    ));
#793 = LINE('',#794,#795);
#794 = CARTESIAN_POINT('',(14.354394904459,1.825997833956,4.432126936734
    ));
#795 = VECTOR('',#796,1.);
#796 = DIRECTION('',(0.,-0.939692620786,0.342020143326));
#797 = ORIENTED_EDGE('',*,*,#798,.F.);
#798 = EDGE_CURVE('',#758,#791,#799,.T.);
#799 = B_SPLINE_CURVE_WITH_KNOTS('',2,(#800,#801,#802),.UNSPECIFIED.,.F.
  ,.F.,(3,3),(0.,1.),.PIECEWISE_BEZIER_KNOTS.);
#800 = CARTESIAN_POINT('',(14.123736730361,1.853882278762,4.508738819193
    ));
#801 = CARTESIAN_POINT('',(14.224458598726,1.825997833956,4.432126936734
    ));
#802 = CARTESIAN_POINT('',(14.354394904459,1.825997833956,4.432126936734
    ));
#803 = SURFACE_OF_LINEAR_EXTRUSION('',#804,#808);
#804 = B_SPLINE_CURVE_WITH_KNOTS('',2,(#805,#806,#807),.UNSPECIFIED.,.F.
  ,.F.,(3,3),(0.,1.),.PIECEWISE_BEZIER_KNOTS.);
#805 = CARTESIAN_POINT('',(14.123736730361,1.853882278762,4.508738819193
    ));
#806 = CARTESIAN_POINT('',(14.224458598726,1.825997833956,4.432126936734
    ));
#807 = CARTESIAN_POINT('',(14.354394904459,1.825997833956,4.432126936734
    ));
#808 = VECTOR('',#809,1.);
#809 = DIRECTION('',(-0.,0.939692620786,-0.342020143326));
#810 = ADVANCED_FACE('',(#811),#836,.F.);
#811 = FACE_BOUND('',#812,.F.);
#812 = EDGE_LOOP('',(#813,#814,#822,#830));
#813 = ORIENTED_EDGE('',*,*,#790,.T.);
#814 = ORIENTED_EDGE('',*,*,#815,.T.);
#815 = EDGE_CURVE('',#783,#816,#818,.T.);
#816 = VERTEX_POINT('',#817);
#817 = CARTESIAN_POINT('',(14.586242038217,1.10259292288,4.783631798561)
  );
#818 = B_SPLINE_CURVE_WITH_KNOTS('',2,(#819,#820,#821),.UNSPECIFIED.,.F.
  ,.F.,(3,3),(0.,1.),.PIECEWISE_BEZIER_KNOTS.);
#819 = CARTESIAN_POINT('',(14.354394904459,1.074243737327,4.705743051394
    ));
#820 = CARTESIAN_POINT('',(14.484331210191,1.074243737327,4.705743051394
    ));
#821 = CARTESIAN_POINT('',(14.586242038217,1.10259292288,4.783631798561)
  );
#822 = ORIENTED_EDGE('',*,*,#823,.F.);
#823 = EDGE_CURVE('',#824,#816,#826,.T.);
#824 = VERTEX_POINT('',#825);
#825 = CARTESIAN_POINT('',(14.586242038217,1.854347019509,4.5100156839)
  );
#826 = LINE('',#827,#828);
#827 = CARTESIAN_POINT('',(14.586242038217,1.854347019509,4.5100156839)
  );
#828 = VECTOR('',#829,1.);
#829 = DIRECTION('',(0.,-0.939692620786,0.342020143326));
#830 = ORIENTED_EDGE('',*,*,#831,.F.);
#831 = EDGE_CURVE('',#791,#824,#832,.T.);
#832 = B_SPLINE_CURVE_WITH_KNOTS('',2,(#833,#834,#835),.UNSPECIFIED.,.F.
  ,.F.,(3,3),(0.,1.),.PIECEWISE_BEZIER_KNOTS.);
#833 = CARTESIAN_POINT('',(14.354394904459,1.825997833956,4.432126936734
    ));
#834 = CARTESIAN_POINT('',(14.484331210191,1.825997833956,4.432126936734
    ));
#835 = CARTESIAN_POINT('',(14.586242038217,1.854347019509,4.5100156839)
  );
#836 = SURFACE_OF_LINEAR_EXTRUSION('',#837,#841);
#837 = B_SPLINE_CURVE_WITH_KNOTS('',2,(#838,#839,#840),.UNSPECIFIED.,.F.
  ,.F.,(3,3),(0.,1.),.PIECEWISE_BEZIER_KNOTS.);
#838 = CARTESIAN_POINT('',(14.354394904459,1.825997833956,4.432126936734
    ));
#839 = CARTESIAN_POINT('',(14.484331210191,1.825997833956,4.432126936734
    ));
#840 = CARTESIAN_POINT('',(14.586242038217,1.854347019509,4.5100156839)
  );
#841 = VECTOR('',#842,1.);
#842 = DIRECTION('',(-0.,0.939692620786,-0.342020143326));
#843 = ADVANCED_FACE('',(#844),#869,.F.);
#844 = FACE_BOUND('',#845,.F.);
#845 = EDGE_LOOP('',(#846,#847,#855,#863));
#846 = ORIENTED_EDGE('',*,*,#823,.T.);
#847 = ORIENTED_EDGE('',*,*,#848,.T.);
#848 = EDGE_CURVE('',#816,#849,#851,.T.);
#849 = VERTEX_POINT('',#850);
#850 = CARTESIAN_POINT('',(14.744203821656,1.204254961236,5.062945953359
    ));
#851 = B_SPLINE_CURVE_WITH_KNOTS('',2,(#852,#853,#854),.UNSPECIFIED.,.F.
  ,.F.,(3,3),(0.,1.),.PIECEWISE_BEZIER_KNOTS.);
#852 = CARTESIAN_POINT('',(14.586242038217,1.10259292288,4.783631798561)
  );
#853 = CARTESIAN_POINT('',(14.688152866242,1.130942108433,4.861520545727
    ));
#854 = CARTESIAN_POINT('',(14.744203821656,1.204254961236,5.062945953359
    ));
#855 = ORIENTED_EDGE('',*,*,#856,.F.);
#856 = EDGE_CURVE('',#857,#849,#859,.T.);
#857 = VERTEX_POINT('',#858);
#858 = CARTESIAN_POINT('',(14.744203821656,1.956009057864,4.789329838699
    ));
#859 = LINE('',#860,#861);
#860 = CARTESIAN_POINT('',(14.744203821656,1.956009057864,4.789329838699
    ));
#861 = VECTOR('',#862,1.);
#862 = DIRECTION('',(0.,-0.939692620786,0.342020143326));
#863 = ORIENTED_EDGE('',*,*,#864,.F.);
#864 = EDGE_CURVE('',#824,#857,#865,.T.);
#865 = B_SPLINE_CURVE_WITH_KNOTS('',2,(#866,#867,#868),.UNSPECIFIED.,.F.
  ,.F.,(3,3),(0.,1.),.PIECEWISE_BEZIER_KNOTS.);
#866 = CARTESIAN_POINT('',(14.586242038217,1.854347019509,4.5100156839)
  );
#867 = CARTESIAN_POINT('',(14.688152866242,1.882696205062,4.587904431067
    ));
#868 = CARTESIAN_POINT('',(14.744203821656,1.956009057864,4.789329838699
    ));
#869 = SURFACE_OF_LINEAR_EXTRUSION('',#870,#874);
#870 = B_SPLINE_CURVE_WITH_KNOTS('',2,(#871,#872,#873),.UNSPECIFIED.,.F.
  ,.F.,(3,3),(0.,1.),.PIECEWISE_BEZIER_KNOTS.);
#871 = CARTESIAN_POINT('',(14.586242038217,1.854347019509,4.5100156839)
  );
#872 = CARTESIAN_POINT('',(14.688152866242,1.882696205062,4.587904431067
    ));
#873 = CARTESIAN_POINT('',(14.744203821656,1.956009057864,4.789329838699
    ));
#874 = VECTOR('',#875,1.);
#875 = DIRECTION('',(-0.,0.939692620786,-0.342020143326));
#876 = ADVANCED_FACE('',(#877),#902,.F.);
#877 = FACE_BOUND('',#878,.F.);
#878 = EDGE_LOOP('',(#879,#880,#888,#896));
#879 = ORIENTED_EDGE('',*,*,#856,.T.);
#880 = ORIENTED_EDGE('',*,*,#881,.T.);
#881 = EDGE_CURVE('',#849,#882,#884,.T.);
#882 = VERTEX_POINT('',#883);
#883 = CARTESIAN_POINT('',(14.818089171975,1.523648039453,5.940471223691
    ));
#884 = B_SPLINE_CURVE_WITH_KNOTS('',2,(#885,#886,#887),.UNSPECIFIED.,.F.
  ,.F.,(3,3),(0.,1.),.PIECEWISE_BEZIER_KNOTS.);
#885 = CARTESIAN_POINT('',(14.744203821656,1.204254961236,5.062945953359
    ));
#886 = CARTESIAN_POINT('',(14.818089171975,1.298539240237,5.321989880923
    ));
#887 = CARTESIAN_POINT('',(14.818089171975,1.523648039453,5.940471223691
    ));
#888 = ORIENTED_EDGE('',*,*,#889,.F.);
#889 = EDGE_CURVE('',#890,#882,#892,.T.);
#890 = VERTEX_POINT('',#891);
#891 = CARTESIAN_POINT('',(14.818089171975,2.275402136082,5.666855109031
    ));
#892 = LINE('',#893,#894);
#893 = CARTESIAN_POINT('',(14.818089171975,2.275402136082,5.666855109031
    ));
#894 = VECTOR('',#895,1.);
#895 = DIRECTION('',(0.,-0.939692620786,0.342020143326));
#896 = ORIENTED_EDGE('',*,*,#897,.F.);
#897 = EDGE_CURVE('',#857,#890,#898,.T.);
#898 = B_SPLINE_CURVE_WITH_KNOTS('',2,(#899,#900,#901),.UNSPECIFIED.,.F.
  ,.F.,(3,3),(0.,1.),.PIECEWISE_BEZIER_KNOTS.);
#899 = CARTESIAN_POINT('',(14.744203821656,1.956009057864,4.789329838699
    ));
#900 = CARTESIAN_POINT('',(14.818089171975,2.050293336865,5.048373766263
    ));
#901 = CARTESIAN_POINT('',(14.818089171975,2.275402136082,5.666855109031
    ));
#902 = SURFACE_OF_LINEAR_EXTRUSION('',#903,#907);
#903 = B_SPLINE_CURVE_WITH_KNOTS('',2,(#904,#905,#906),.UNSPECIFIED.,.F.
  ,.F.,(3,3),(0.,1.),.PIECEWISE_BEZIER_KNOTS.);
#904 = CARTESIAN_POINT('',(14.744203821656,1.956009057864,4.789329838699
    ));
#905 = CARTESIAN_POINT('',(14.818089171975,2.050293336865,5.048373766263
    ));
#906 = CARTESIAN_POINT('',(14.818089171975,2.275402136082,5.666855109031
    ));
#907 = VECTOR('',#908,1.);
#908 = DIRECTION('',(-0.,0.939692620786,-0.342020143326));
#909 = ADVANCED_FACE('',(#910),#935,.F.);
#910 = FACE_BOUND('',#911,.F.);
#911 = EDGE_LOOP('',(#912,#913,#921,#929));
#912 = ORIENTED_EDGE('',*,*,#889,.T.);
#913 = ORIENTED_EDGE('',*,*,#914,.T.);
#914 = EDGE_CURVE('',#882,#915,#917,.T.);
#915 = VERTEX_POINT('',#916);
#916 = CARTESIAN_POINT('',(14.751847133758,1.833049191615,6.790543902809
    ));
#917 = B_SPLINE_CURVE_WITH_KNOTS('',2,(#918,#919,#920),.UNSPECIFIED.,.F.
  ,.F.,(3,3),(0.,1.),.PIECEWISE_BEZIER_KNOTS.);
#918 = CARTESIAN_POINT('',(14.818089171975,1.523648039453,5.940471223691
    ));
#919 = CARTESIAN_POINT('',(14.818089171975,1.748814931263,6.559112174548
    ));
#920 = CARTESIAN_POINT('',(14.751847133758,1.833049191615,6.790543902809
    ));
#921 = ORIENTED_EDGE('',*,*,#922,.F.);
#922 = EDGE_CURVE('',#923,#915,#925,.T.);
#923 = VERTEX_POINT('',#924);
#924 = CARTESIAN_POINT('',(14.751847133758,2.584803288244,6.516927788148
    ));
#925 = LINE('',#926,#927);
#926 = CARTESIAN_POINT('',(14.751847133758,2.584803288244,6.516927788148
    ));
#927 = VECTOR('',#928,1.);
#928 = DIRECTION('',(0.,-0.939692620786,0.342020143326));
#929 = ORIENTED_EDGE('',*,*,#930,.F.);
#930 = EDGE_CURVE('',#890,#923,#931,.T.);
#931 = B_SPLINE_CURVE_WITH_KNOTS('',2,(#932,#933,#934),.UNSPECIFIED.,.F.
  ,.F.,(3,3),(0.,1.),.PIECEWISE_BEZIER_KNOTS.);
#932 = CARTESIAN_POINT('',(14.818089171975,2.275402136082,5.666855109031
    ));
#933 = CARTESIAN_POINT('',(14.818089171975,2.500569027892,6.285496059887
    ));
#934 = CARTESIAN_POINT('',(14.751847133758,2.584803288244,6.516927788148
    ));
#935 = SURFACE_OF_LINEAR_EXTRUSION('',#936,#940);
#936 = B_SPLINE_CURVE_WITH_KNOTS('',2,(#937,#938,#939),.UNSPECIFIED.,.F.
  ,.F.,(3,3),(0.,1.),.PIECEWISE_BEZIER_KNOTS.);
#937 = CARTESIAN_POINT('',(14.818089171975,2.275402136082,5.666855109031
    ));
#938 = CARTESIAN_POINT('',(14.818089171975,2.500569027892,6.285496059887
    ));
#939 = CARTESIAN_POINT('',(14.751847133758,2.584803288244,6.516927788148
    ));
#940 = VECTOR('',#941,1.);
#941 = DIRECTION('',(-0.,0.939692620786,-0.342020143326));
#942 = ADVANCED_FACE('',(#943),#968,.F.);
#943 = FACE_BOUND('',#944,.F.);
#944 = EDGE_LOOP('',(#945,#946,#954,#962));
#945 = ORIENTED_EDGE('',*,*,#922,.T.);
#946 = ORIENTED_EDGE('',*,*,#947,.T.);
#947 = EDGE_CURVE('',#915,#948,#950,.T.);
#948 = VERTEX_POINT('',#949);
#949 = CARTESIAN_POINT('',(14.584883227176,1.94563263752,7.099864378237)
  );
#950 = B_SPLINE_CURVE_WITH_KNOTS('',2,(#951,#952,#953),.UNSPECIFIED.,.F.
  ,.F.,(3,3),(0.,1.),.PIECEWISE_BEZIER_KNOTS.);
#951 = CARTESIAN_POINT('',(14.751847133758,1.833049191615,6.790543902809
    ));
#952 = CARTESIAN_POINT('',(14.685605095541,1.917283451967,7.021975631071
    ));
#953 = CARTESIAN_POINT('',(14.584883227176,1.94563263752,7.099864378237)
  );
#954 = ORIENTED_EDGE('',*,*,#955,.F.);
#955 = EDGE_CURVE('',#956,#948,#958,.T.);
#956 = VERTEX_POINT('',#957);
#957 = CARTESIAN_POINT('',(14.584883227176,2.697386734148,6.826248263577
    ));
#958 = LINE('',#959,#960);
#959 = CARTESIAN_POINT('',(14.584883227176,2.697386734148,6.826248263577
    ));
#960 = VECTOR('',#961,1.);
#961 = DIRECTION('',(0.,-0.939692620786,0.342020143326));
#962 = ORIENTED_EDGE('',*,*,#963,.F.);
#963 = EDGE_CURVE('',#923,#956,#964,.T.);
#964 = B_SPLINE_CURVE_WITH_KNOTS('',2,(#965,#966,#967),.UNSPECIFIED.,.F.
  ,.F.,(3,3),(0.,1.),.PIECEWISE_BEZIER_KNOTS.);
#965 = CARTESIAN_POINT('',(14.751847133758,2.584803288244,6.516927788148
    ));
#966 = CARTESIAN_POINT('',(14.685605095541,2.669037548595,6.74835951641)
  );
#967 = CARTESIAN_POINT('',(14.584883227176,2.697386734148,6.826248263577
    ));
#968 = SURFACE_OF_LINEAR_EXTRUSION('',#969,#973);
#969 = B_SPLINE_CURVE_WITH_KNOTS('',2,(#970,#971,#972),.UNSPECIFIED.,.F.
  ,.F.,(3,3),(0.,1.),.PIECEWISE_BEZIER_KNOTS.);
#970 = CARTESIAN_POINT('',(14.751847133758,2.584803288244,6.516927788148
    ));
#971 = CARTESIAN_POINT('',(14.685605095541,2.669037548595,6.74835951641)
  );
#972 = CARTESIAN_POINT('',(14.584883227176,2.697386734148,6.826248263577
    ));
#973 = VECTOR('',#974,1.);
#974 = DIRECTION('',(-0.,0.939692620786,-0.342020143326));
#975 = ADVANCED_FACE('',(#976),#992,.F.);
#976 = FACE_BOUND('',#977,.F.);
#977 = EDGE_LOOP('',(#978,#979,#985,#986));
#978 = ORIENTED_EDGE('',*,*,#955,.T.);
#979 = ORIENTED_EDGE('',*,*,#980,.T.);
#980 = EDGE_CURVE('',#948,#610,#981,.T.);
#981 = B_SPLINE_CURVE_WITH_KNOTS('',2,(#982,#983,#984),.UNSPECIFIED.,.F.
  ,.F.,(3,3),(0.,1.),.PIECEWISE_BEZIER_KNOTS.);
#982 = CARTESIAN_POINT('',(14.584883227176,1.94563263752,7.099864378237)
  );
#983 = CARTESIAN_POINT('',(14.484331210191,1.973981823073,7.177753125404
    ));
#984 = CARTESIAN_POINT('',(14.354394904459,1.973981823073,7.177753125404
    ));
#985 = ORIENTED_EDGE('',*,*,#607,.F.);
#986 = ORIENTED_EDGE('',*,*,#987,.F.);
#987 = EDGE_CURVE('',#956,#608,#988,.T.);
#988 = B_SPLINE_CURVE_WITH_KNOTS('',2,(#989,#990,#991),.UNSPECIFIED.,.F.
  ,.F.,(3,3),(0.,1.),.PIECEWISE_BEZIER_KNOTS.);
#989 = CARTESIAN_POINT('',(14.584883227176,2.697386734148,6.826248263577
    ));
#990 = CARTESIAN_POINT('',(14.484331210191,2.725735919701,6.904137010743
    ));
#991 = CARTESIAN_POINT('',(14.354394904459,2.725735919701,6.904137010743
    ));
#992 = SURFACE_OF_LINEAR_EXTRUSION('',#993,#997);
#993 = B_SPLINE_CURVE_WITH_KNOTS('',2,(#994,#995,#996),.UNSPECIFIED.,.F.
  ,.F.,(3,3),(0.,1.),.PIECEWISE_BEZIER_KNOTS.);
#994 = CARTESIAN_POINT('',(14.584883227176,2.697386734148,6.826248263577
    ));
#995 = CARTESIAN_POINT('',(14.484331210191,2.725735919701,6.904137010743
    ));
#996 = CARTESIAN_POINT('',(14.354394904459,2.725735919701,6.904137010743
    ));
#997 = VECTOR('',#998,1.);
#998 = DIRECTION('',(-0.,0.939692620786,-0.342020143326));
#999 = ADVANCED_FACE('',(#1000),#1014,.T.);
#1000 = FACE_BOUND('',#1001,.F.);
#1001 = EDGE_LOOP('',(#1002,#1003,#1004,#1005,#1006,#1007,#1008,#1009,
    #1010,#1011,#1012,#1013));
#1002 = ORIENTED_EDGE('',*,*,#633,.T.);
#1003 = ORIENTED_EDGE('',*,*,#666,.T.);
#1004 = ORIENTED_EDGE('',*,*,#699,.T.);
#1005 = ORIENTED_EDGE('',*,*,#732,.T.);
#1006 = ORIENTED_EDGE('',*,*,#765,.T.);
#1007 = ORIENTED_EDGE('',*,*,#798,.T.);
#1008 = ORIENTED_EDGE('',*,*,#831,.T.);
#1009 = ORIENTED_EDGE('',*,*,#864,.T.);
#1010 = ORIENTED_EDGE('',*,*,#897,.T.);
#1011 = ORIENTED_EDGE('',*,*,#930,.T.);
#1012 = ORIENTED_EDGE('',*,*,#963,.T.);
#1013 = ORIENTED_EDGE('',*,*,#987,.T.);
#1014 = PLANE('',#1015);
#1015 = AXIS2_PLACEMENT_3D('',#1016,#1017,#1018);
#1016 = CARTESIAN_POINT('',(14.354277273695,2.275781691505,
    5.667897928987));
#1017 = DIRECTION('',(-0.,0.939692620786,-0.342020143326));
#1018 = DIRECTION('',(-1.,0.,0.));
#1019 = ADVANCED_FACE('',(#1020),#1034,.F.);
#1020 = FACE_BOUND('',#1021,.T.);
#1021 = EDGE_LOOP('',(#1022,#1023,#1024,#1025,#1026,#1027,#1028,#1029,
    #1030,#1031,#1032,#1033));
#1022 = ORIENTED_EDGE('',*,*,#617,.T.);
#1023 = ORIENTED_EDGE('',*,*,#650,.T.);
#1024 = ORIENTED_EDGE('',*,*,#683,.T.);
#1025 = ORIENTED_EDGE('',*,*,#716,.T.);
#1026 = ORIENTED_EDGE('',*,*,#749,.T.);
#1027 = ORIENTED_EDGE('',*,*,#782,.T.);
#1028 = ORIENTED_EDGE('',*,*,#815,.T.);
#1029 = ORIENTED_EDGE('',*,*,#848,.T.);
#1030 = ORIENTED_EDGE('',*,*,#881,.T.);
#1031 = ORIENTED_EDGE('',*,*,#914,.T.);
#1032 = ORIENTED_EDGE('',*,*,#947,.T.);
#1033 = ORIENTED_EDGE('',*,*,#980,.T.);
#1034 = PLANE('',#1035);
#1035 = AXIS2_PLACEMENT_3D('',#1036,#1037,#1038);
#1036 = CARTESIAN_POINT('',(14.354277273695,1.524027594877,
    5.941514043647));
#1037 = DIRECTION('',(-0.,0.939692620786,-0.342020143326));
#1038 = DIRECTION('',(-1.,0.,0.));
#1039 = ( GEOMETRIC_REPRESENTATION_CONTEXT(3) 
GLOBAL_UNCERTAINTY_ASSIGNED_CONTEXT((#1043)) 
GLOBAL_UNIT_ASSIGNED_CONTEXT((#1040,#1041,#1042)) REPRESENTATION_CONTEXT
('Context #1','3D Context with UNIT and UNCERTAINTY') );
#1040 = ( LENGTH_UNIT() NAMED_UNIT(*) SI_UNIT(.MILLI.,.METRE.) );
#1041 = ( NAMED_UNIT(*) PLANE_ANGLE_UNIT() SI_UNIT($,.RADIAN.) );
#1042 = ( NAMED_UNIT(*) SI_UNIT($,.STERADIAN.) SOLID_ANGLE_UNIT() );
#1043 = UNCERTAINTY_MEASURE_WITH_UNIT(LENGTH_MEASURE(1.E-07),#1040,
  'distance_accuracy_value','confusion accuracy');
#1044 = PRODUCT_RELATED_PRODUCT_CATEGORY('part',$,(#7));
ENDSEC;
END-ISO-10303-21;
