ISO-10303-21;
HEADER;
FILE_DESCRIPTION(('FreeCAD Model'),'2;1');
FILE_NAME('Open CASCADE Shape Model','2026-08-31T21:04:16',('FreeCAD'),(
    'FreeCAD'),'Open CASCADE STEP processor 7.8','FreeCAD','Unknown');
FILE_SCHEMA(('AUTOMOTIVE_DESIGN { 1 0 10303 214 1 1 1 1 }'));
ENDSEC;
DATA;
#1 = APPLICATION_PROTOCOL_DEFINITION('international standard',
  'automotive_design',2000,#2);
#2 = APPLICATION_CONTEXT(
  'core data for automotive mechanical design processes');
#3 = SHAPE_DEFINITION_REPRESENTATION(#4,#10);
#4 = PRODUCT_DEFINITION_SHAPE('','',#5);
#5 = PRODUCT_DEFINITION('design','',#6,#9);
#6 = PRODUCT_DEFINITION_FORMATION('','',#7);
#7 = PRODUCT('Open CASCADE STEP translator 7.8 15',
  'Open CASCADE STEP translator 7.8 15','',(#8));
#8 = PRODUCT_CONTEXT('',#2,'mechanical');
#9 = PRODUCT_DEFINITION_CONTEXT('part definition',#2,'design');
#10 = ADVANCED_BREP_SHAPE_REPRESENTATION('',(#11,#15),#1690);
#11 = AXIS2_PLACEMENT_3D('',#12,#13,#14);
#12 = CARTESIAN_POINT('',(0.,0.,0.));
#13 = DIRECTION('',(0.,0.,1.));
#14 = DIRECTION('',(1.,0.,-0.));
#15 = MANIFOLD_SOLID_BREP('',#16);
#16 = CLOSED_SHELL('',(#17,#57,#222,#246,#334,#556,#573,#590,#607,#624,
    #641,#658,#675,#707,#731,#755,#780,#805,#829,#853,#871,#888,#919,
    #943,#969,#995,#1019,#1045,#1071,#1097,#1121,#1138,#1169,#1193,#1217
    ,#1243,#1269,#1293,#1319,#1336,#1367,#1391,#1415,#1447,#1471,#1495,
    #1520,#1545,#1569,#1593,#1611,#1628,#1646,#1662,#1674));
#17 = ADVANCED_FACE('',(#18),#52,.F.);
#18 = FACE_BOUND('',#19,.F.);
#19 = EDGE_LOOP('',(#20,#30,#38,#46));
#20 = ORIENTED_EDGE('',*,*,#21,.F.);
#21 = EDGE_CURVE('',#22,#24,#26,.T.);
#22 = VERTEX_POINT('',#23);
#23 = CARTESIAN_POINT('',(0.,3.639702342662,10.));
#24 = VERTEX_POINT('',#25);
#25 = CARTESIAN_POINT('',(0.,13.75,10.));
#26 = LINE('',#27,#28);
#27 = CARTESIAN_POINT('',(0.,0.,10.));
#28 = VECTOR('',#29,1.);
#29 = DIRECTION('',(0.,1.,0.));
#30 = ORIENTED_EDGE('',*,*,#31,.T.);
#31 = EDGE_CURVE('',#22,#32,#34,.T.);
#32 = VERTEX_POINT('',#33);
#33 = CARTESIAN_POINT('',(0.,0.,0.));
#34 = LINE('',#35,#36);
#35 = CARTESIAN_POINT('',(0.,0.,0.));
#36 = VECTOR('',#37,1.);
#37 = DIRECTION('',(0.,-0.342020143326,-0.939692620786));
#38 = ORIENTED_EDGE('',*,*,#39,.T.);
#39 = EDGE_CURVE('',#32,#40,#42,.T.);
#40 = VERTEX_POINT('',#41);
#41 = CARTESIAN_POINT('',(0.,13.75,0.));
#42 = LINE('',#43,#44);
#43 = CARTESIAN_POINT('',(0.,0.,0.));
#44 = VECTOR('',#45,1.);
#45 = DIRECTION('',(0.,1.,0.));
#46 = ORIENTED_EDGE('',*,*,#47,.T.);
#47 = EDGE_CURVE('',#40,#24,#48,.T.);
#48 = LINE('',#49,#50);
#49 = CARTESIAN_POINT('',(0.,13.75,-1.));
#50 = VECTOR('',#51,1.);
#51 = DIRECTION('',(0.,0.,1.));
#52 = PLANE('',#53);
#53 = AXIS2_PLACEMENT_3D('',#54,#55,#56);
#54 = CARTESIAN_POINT('',(0.,0.,0.));
#55 = DIRECTION('',(1.,0.,0.));
#56 = DIRECTION('',(0.,0.,1.));
#57 = ADVANCED_FACE('',(#58,#147),#217,.T.);
#58 = FACE_BOUND('',#59,.T.);
#59 = EDGE_LOOP('',(#60,#61,#69,#77,#85,#93,#101,#109,#117,#125,#133,
    #141));
#60 = ORIENTED_EDGE('',*,*,#21,.F.);
#61 = ORIENTED_EDGE('',*,*,#62,.T.);
#62 = EDGE_CURVE('',#22,#63,#65,.T.);
#63 = VERTEX_POINT('',#64);
#64 = CARTESIAN_POINT('',(43.,3.639702342662,10.));
#65 = LINE('',#66,#67);
#66 = CARTESIAN_POINT('',(-1.,3.639702342662,10.));
#67 = VECTOR('',#68,1.);
#68 = DIRECTION('',(1.,0.,0.));
#69 = ORIENTED_EDGE('',*,*,#70,.T.);
#70 = EDGE_CURVE('',#63,#71,#73,.T.);
#71 = VERTEX_POINT('',#72);
#72 = CARTESIAN_POINT('',(43.,13.875609756098,10.));
#73 = LINE('',#74,#75);
#74 = CARTESIAN_POINT('',(43.,0.,10.));
#75 = VECTOR('',#76,1.);
#76 = DIRECTION('',(0.,1.,0.));
#77 = ORIENTED_EDGE('',*,*,#78,.F.);
#78 = EDGE_CURVE('',#79,#71,#81,.T.);
#79 = VERTEX_POINT('',#80);
#80 = CARTESIAN_POINT('',(42.9,13.9,10.));
#81 = LINE('',#82,#83);
#82 = CARTESIAN_POINT('',(42.9,13.9,10.));
#83 = VECTOR('',#84,1.);
#84 = DIRECTION('',(0.971520338783,-0.236956180191,0.));
#85 = ORIENTED_EDGE('',*,*,#86,.F.);
#86 = EDGE_CURVE('',#87,#79,#89,.T.);
#87 = VERTEX_POINT('',#88);
#88 = CARTESIAN_POINT('',(42.9,17.9,10.));
#89 = LINE('',#90,#91);
#90 = CARTESIAN_POINT('',(42.9,17.9,10.));
#91 = VECTOR('',#92,1.);
#92 = DIRECTION('',(0.,-1.,0.));
#93 = ORIENTED_EDGE('',*,*,#94,.F.);
#94 = EDGE_CURVE('',#95,#87,#97,.T.);
#95 = VERTEX_POINT('',#96);
#96 = CARTESIAN_POINT('',(43.,17.924390243902,10.));
#97 = LINE('',#98,#99);
#98 = CARTESIAN_POINT('',(47.,18.9,10.));
#99 = VECTOR('',#100,1.);
#100 = DIRECTION('',(-0.971520338783,-0.236956180191,0.));
#101 = ORIENTED_EDGE('',*,*,#102,.T.);
#102 = EDGE_CURVE('',#95,#103,#105,.T.);
#103 = VERTEX_POINT('',#104);
#104 = CARTESIAN_POINT('',(43.,53.,10.));
#105 = LINE('',#106,#107);
#106 = CARTESIAN_POINT('',(43.,0.,10.));
#107 = VECTOR('',#108,1.);
#108 = DIRECTION('',(0.,1.,0.));
#109 = ORIENTED_EDGE('',*,*,#110,.F.);
#110 = EDGE_CURVE('',#111,#103,#113,.T.);
#111 = VERTEX_POINT('',#112);
#112 = CARTESIAN_POINT('',(0.,53.,10.));
#113 = LINE('',#114,#115);
#114 = CARTESIAN_POINT('',(0.,53.,10.));
#115 = VECTOR('',#116,1.);
#116 = DIRECTION('',(1.,0.,0.));
#117 = ORIENTED_EDGE('',*,*,#118,.F.);
#118 = EDGE_CURVE('',#119,#111,#121,.T.);
#119 = VERTEX_POINT('',#120);
#120 = CARTESIAN_POINT('',(0.,18.05,10.));
#121 = LINE('',#122,#123);
#122 = CARTESIAN_POINT('',(0.,0.,10.));
#123 = VECTOR('',#124,1.);
#124 = DIRECTION('',(0.,1.,0.));
#125 = ORIENTED_EDGE('',*,*,#126,.T.);
#126 = EDGE_CURVE('',#119,#127,#129,.T.);
#127 = VERTEX_POINT('',#128);
#128 = CARTESIAN_POINT('',(4.,19.05,10.));
#129 = LINE('',#130,#131);
#130 = CARTESIAN_POINT('',(-0.123529411765,18.019117647059,10.));
#131 = VECTOR('',#132,1.);
#132 = DIRECTION('',(0.970142500145,0.242535625036,0.));
#133 = ORIENTED_EDGE('',*,*,#134,.T.);
#134 = EDGE_CURVE('',#127,#135,#137,.T.);
#135 = VERTEX_POINT('',#136);
#136 = CARTESIAN_POINT('',(4.,12.75,10.));
#137 = LINE('',#138,#139);
#138 = CARTESIAN_POINT('',(4.,6.375,10.));
#139 = VECTOR('',#140,1.);
#140 = DIRECTION('',(0.,-1.,0.));
#141 = ORIENTED_EDGE('',*,*,#142,.T.);
#142 = EDGE_CURVE('',#135,#24,#143,.T.);
#143 = LINE('',#144,#145);
#144 = CARTESIAN_POINT('',(1.617647058824,13.345588235294,10.));
#145 = VECTOR('',#146,1.);
#146 = DIRECTION('',(-0.970142500145,0.242535625036,0.));
#147 = FACE_BOUND('',#148,.T.);
#148 = EDGE_LOOP('',(#149,#160,#168,#177,#185,#194,#202,#211));
#149 = ORIENTED_EDGE('',*,*,#150,.F.);
#150 = EDGE_CURVE('',#151,#153,#155,.T.);
#151 = VERTEX_POINT('',#152);
#152 = CARTESIAN_POINT('',(16.6,38.36,10.));
#153 = VERTEX_POINT('',#154);
#154 = CARTESIAN_POINT('',(16.,37.76,10.));
#155 = CIRCLE('',#156,0.6);
#156 = AXIS2_PLACEMENT_3D('',#157,#158,#159);
#157 = CARTESIAN_POINT('',(16.6,37.76,10.));
#158 = DIRECTION('',(0.,-0.,1.));
#159 = DIRECTION('',(0.,1.,0.));
#160 = ORIENTED_EDGE('',*,*,#161,.T.);
#161 = EDGE_CURVE('',#151,#162,#164,.T.);
#162 = VERTEX_POINT('',#163);
#163 = CARTESIAN_POINT('',(26.4,38.36,10.));
#164 = LINE('',#165,#166);
#165 = CARTESIAN_POINT('',(13.5,38.36,10.));
#166 = VECTOR('',#167,1.);
#167 = DIRECTION('',(1.,0.,0.));
#168 = ORIENTED_EDGE('',*,*,#169,.F.);
#169 = EDGE_CURVE('',#170,#162,#172,.T.);
#170 = VERTEX_POINT('',#171);
#171 = CARTESIAN_POINT('',(27.,37.76,10.));
#172 = CIRCLE('',#173,0.6);
#173 = AXIS2_PLACEMENT_3D('',#174,#175,#176);
#174 = CARTESIAN_POINT('',(26.4,37.76,10.));
#175 = DIRECTION('',(0.,-0.,1.));
#176 = DIRECTION('',(0.,1.,0.));
#177 = ORIENTED_EDGE('',*,*,#178,.T.);
#178 = EDGE_CURVE('',#170,#179,#181,.T.);
#179 = VERTEX_POINT('',#180);
#180 = CARTESIAN_POINT('',(27.,27.96,10.));
#181 = LINE('',#182,#183);
#182 = CARTESIAN_POINT('',(27.,13.68,10.));
#183 = VECTOR('',#184,1.);
#184 = DIRECTION('',(0.,-1.,0.));
#185 = ORIENTED_EDGE('',*,*,#186,.F.);
#186 = EDGE_CURVE('',#187,#179,#189,.T.);
#187 = VERTEX_POINT('',#188);
#188 = CARTESIAN_POINT('',(26.4,27.36,10.));
#189 = CIRCLE('',#190,0.6);
#190 = AXIS2_PLACEMENT_3D('',#191,#192,#193);
#191 = CARTESIAN_POINT('',(26.4,27.96,10.));
#192 = DIRECTION('',(-0.,0.,1.));
#193 = DIRECTION('',(0.,-1.,0.));
#194 = ORIENTED_EDGE('',*,*,#195,.T.);
#195 = EDGE_CURVE('',#187,#196,#198,.T.);
#196 = VERTEX_POINT('',#197);
#197 = CARTESIAN_POINT('',(16.6,27.36,10.));
#198 = LINE('',#199,#200);
#199 = CARTESIAN_POINT('',(8.,27.36,10.));
#200 = VECTOR('',#201,1.);
#201 = DIRECTION('',(-1.,0.,0.));
#202 = ORIENTED_EDGE('',*,*,#203,.F.);
#203 = EDGE_CURVE('',#204,#196,#206,.T.);
#204 = VERTEX_POINT('',#205);
#205 = CARTESIAN_POINT('',(16.,27.96,10.));
#206 = CIRCLE('',#207,0.6);
#207 = AXIS2_PLACEMENT_3D('',#208,#209,#210);
#208 = CARTESIAN_POINT('',(16.6,27.96,10.));
#209 = DIRECTION('',(0.,0.,1.));
#210 = DIRECTION('',(-1.,0.,0.));
#211 = ORIENTED_EDGE('',*,*,#212,.T.);
#212 = EDGE_CURVE('',#204,#153,#213,.T.);
#213 = LINE('',#214,#215);
#214 = CARTESIAN_POINT('',(16.,19.18,10.));
#215 = VECTOR('',#216,1.);
#216 = DIRECTION('',(0.,1.,0.));
#217 = PLANE('',#218);
#218 = AXIS2_PLACEMENT_3D('',#219,#220,#221);
#219 = CARTESIAN_POINT('',(0.,0.,10.));
#220 = DIRECTION('',(0.,0.,1.));
#221 = DIRECTION('',(1.,0.,0.));
#222 = ADVANCED_FACE('',(#223),#241,.T.);
#223 = FACE_BOUND('',#224,.T.);
#224 = EDGE_LOOP('',(#225,#233,#234,#235));
#225 = ORIENTED_EDGE('',*,*,#226,.T.);
#226 = EDGE_CURVE('',#227,#40,#229,.T.);
#227 = VERTEX_POINT('',#228);
#228 = CARTESIAN_POINT('',(4.,12.75,0.));
#229 = LINE('',#230,#231);
#230 = CARTESIAN_POINT('',(1.617647058824,13.345588235294,0.));
#231 = VECTOR('',#232,1.);
#232 = DIRECTION('',(-0.970142500145,0.242535625036,0.));
#233 = ORIENTED_EDGE('',*,*,#47,.T.);
#234 = ORIENTED_EDGE('',*,*,#142,.F.);
#235 = ORIENTED_EDGE('',*,*,#236,.F.);
#236 = EDGE_CURVE('',#227,#135,#237,.T.);
#237 = LINE('',#238,#239);
#238 = CARTESIAN_POINT('',(4.,12.75,-1.));
#239 = VECTOR('',#240,1.);
#240 = DIRECTION('',(0.,0.,1.));
#241 = PLANE('',#242);
#242 = AXIS2_PLACEMENT_3D('',#243,#244,#245);
#243 = CARTESIAN_POINT('',(0.,13.75,-1.));
#244 = DIRECTION('',(0.242535625036,0.970142500145,0.));
#245 = DIRECTION('',(0.970142500145,-0.242535625036,0.));
#246 = ADVANCED_FACE('',(#247),#329,.F.);
#247 = FACE_BOUND('',#248,.F.);
#248 = EDGE_LOOP('',(#249,#250,#258,#266,#274,#282,#290,#298,#306,#314,
    #322,#328));
#249 = ORIENTED_EDGE('',*,*,#39,.F.);
#250 = ORIENTED_EDGE('',*,*,#251,.T.);
#251 = EDGE_CURVE('',#32,#252,#254,.T.);
#252 = VERTEX_POINT('',#253);
#253 = CARTESIAN_POINT('',(43.,0.,0.));
#254 = LINE('',#255,#256);
#255 = CARTESIAN_POINT('',(0.,0.,0.));
#256 = VECTOR('',#257,1.);
#257 = DIRECTION('',(1.,0.,0.));
#258 = ORIENTED_EDGE('',*,*,#259,.T.);
#259 = EDGE_CURVE('',#252,#260,#262,.T.);
#260 = VERTEX_POINT('',#261);
#261 = CARTESIAN_POINT('',(43.,13.875609756098,0.));
#262 = LINE('',#263,#264);
#263 = CARTESIAN_POINT('',(43.,0.,0.));
#264 = VECTOR('',#265,1.);
#265 = DIRECTION('',(0.,1.,0.));
#266 = ORIENTED_EDGE('',*,*,#267,.F.);
#267 = EDGE_CURVE('',#268,#260,#270,.T.);
#268 = VERTEX_POINT('',#269);
#269 = CARTESIAN_POINT('',(42.9,13.9,0.));
#270 = LINE('',#271,#272);
#271 = CARTESIAN_POINT('',(42.9,13.9,0.));
#272 = VECTOR('',#273,1.);
#273 = DIRECTION('',(0.971520338783,-0.236956180191,0.));
#274 = ORIENTED_EDGE('',*,*,#275,.F.);
#275 = EDGE_CURVE('',#276,#268,#278,.T.);
#276 = VERTEX_POINT('',#277);
#277 = CARTESIAN_POINT('',(42.9,17.9,0.));
#278 = LINE('',#279,#280);
#279 = CARTESIAN_POINT('',(42.9,17.9,0.));
#280 = VECTOR('',#281,1.);
#281 = DIRECTION('',(0.,-1.,0.));
#282 = ORIENTED_EDGE('',*,*,#283,.F.);
#283 = EDGE_CURVE('',#284,#276,#286,.T.);
#284 = VERTEX_POINT('',#285);
#285 = CARTESIAN_POINT('',(43.,17.924390243902,0.));
#286 = LINE('',#287,#288);
#287 = CARTESIAN_POINT('',(47.,18.9,0.));
#288 = VECTOR('',#289,1.);
#289 = DIRECTION('',(-0.971520338783,-0.236956180191,0.));
#290 = ORIENTED_EDGE('',*,*,#291,.T.);
#291 = EDGE_CURVE('',#284,#292,#294,.T.);
#292 = VERTEX_POINT('',#293);
#293 = CARTESIAN_POINT('',(43.,53.,0.));
#294 = LINE('',#295,#296);
#295 = CARTESIAN_POINT('',(43.,0.,0.));
#296 = VECTOR('',#297,1.);
#297 = DIRECTION('',(0.,1.,0.));
#298 = ORIENTED_EDGE('',*,*,#299,.F.);
#299 = EDGE_CURVE('',#300,#292,#302,.T.);
#300 = VERTEX_POINT('',#301);
#301 = CARTESIAN_POINT('',(0.,53.,0.));
#302 = LINE('',#303,#304);
#303 = CARTESIAN_POINT('',(0.,53.,0.));
#304 = VECTOR('',#305,1.);
#305 = DIRECTION('',(1.,0.,0.));
#306 = ORIENTED_EDGE('',*,*,#307,.F.);
#307 = EDGE_CURVE('',#308,#300,#310,.T.);
#308 = VERTEX_POINT('',#309);
#309 = CARTESIAN_POINT('',(0.,18.05,0.));
#310 = LINE('',#311,#312);
#311 = CARTESIAN_POINT('',(0.,0.,0.));
#312 = VECTOR('',#313,1.);
#313 = DIRECTION('',(0.,1.,0.));
#314 = ORIENTED_EDGE('',*,*,#315,.T.);
#315 = EDGE_CURVE('',#308,#316,#318,.T.);
#316 = VERTEX_POINT('',#317);
#317 = CARTESIAN_POINT('',(4.,19.05,0.));
#318 = LINE('',#319,#320);
#319 = CARTESIAN_POINT('',(-0.123529411765,18.019117647059,0.));
#320 = VECTOR('',#321,1.);
#321 = DIRECTION('',(0.970142500145,0.242535625036,0.));
#322 = ORIENTED_EDGE('',*,*,#323,.T.);
#323 = EDGE_CURVE('',#316,#227,#324,.T.);
#324 = LINE('',#325,#326);
#325 = CARTESIAN_POINT('',(4.,6.375,0.));
#326 = VECTOR('',#327,1.);
#327 = DIRECTION('',(0.,-1.,0.));
#328 = ORIENTED_EDGE('',*,*,#226,.T.);
#329 = PLANE('',#330);
#330 = AXIS2_PLACEMENT_3D('',#331,#332,#333);
#331 = CARTESIAN_POINT('',(0.,0.,0.));
#332 = DIRECTION('',(0.,0.,1.));
#333 = DIRECTION('',(1.,0.,0.));
#334 = ADVANCED_FACE('',(#335,#346,#463),#551,.T.);
#335 = FACE_BOUND('',#336,.T.);
#336 = EDGE_LOOP('',(#337,#338,#339,#345));
#337 = ORIENTED_EDGE('',*,*,#31,.T.);
#338 = ORIENTED_EDGE('',*,*,#251,.T.);
#339 = ORIENTED_EDGE('',*,*,#340,.F.);
#340 = EDGE_CURVE('',#63,#252,#341,.T.);
#341 = LINE('',#342,#343);
#342 = CARTESIAN_POINT('',(43.,0.,0.));
#343 = VECTOR('',#344,1.);
#344 = DIRECTION('',(0.,-0.342020143326,-0.939692620786));
#345 = ORIENTED_EDGE('',*,*,#62,.F.);
#346 = FACE_BOUND('',#347,.T.);
#347 = EDGE_LOOP('',(#348,#358,#366,#374,#389,#404,#419,#427,#442,#457)
  );
#348 = ORIENTED_EDGE('',*,*,#349,.F.);
#349 = EDGE_CURVE('',#350,#352,#354,.T.);
#350 = VERTEX_POINT('',#351);
#351 = CARTESIAN_POINT('',(21.697197452229,3.170038066751,8.709608007211
    ));
#352 = VERTEX_POINT('',#353);
#353 = CARTESIAN_POINT('',(21.697197452229,2.829847840116,7.774943041211
    ));
#354 = LINE('',#355,#356);
#355 = CARTESIAN_POINT('',(21.697197452229,1.414923920058,3.887471520606
    ));
#356 = VECTOR('',#357,1.);
#357 = DIRECTION('',(-0.,-0.342020143326,-0.939692620786));
#358 = ORIENTED_EDGE('',*,*,#359,.F.);
#359 = EDGE_CURVE('',#360,#350,#362,.T.);
#360 = VERTEX_POINT('',#361);
#361 = CARTESIAN_POINT('',(25.369808917197,3.170038066751,8.709608007211
    ));
#362 = LINE('',#363,#364);
#363 = CARTESIAN_POINT('',(10.348598726115,3.170038066751,8.709608007211
    ));
#364 = VECTOR('',#365,1.);
#365 = DIRECTION('',(-1.,0.,0.));
#366 = ORIENTED_EDGE('',*,*,#367,.F.);
#367 = EDGE_CURVE('',#368,#360,#370,.T.);
#368 = VERTEX_POINT('',#369);
#369 = CARTESIAN_POINT('',(25.369808917197,2.902347396612,7.974133935604
    ));
#370 = LINE('',#371,#372);
#371 = CARTESIAN_POINT('',(25.369808917197,1.585019033376,4.354804003605
    ));
#372 = VECTOR('',#373,1.);
#373 = DIRECTION('',(0.,0.342020143326,0.939692620786));
#374 = ORIENTED_EDGE('',*,*,#375,.F.);
#375 = EDGE_CURVE('',#376,#368,#378,.T.);
#376 = VERTEX_POINT('',#377);
#377 = CARTESIAN_POINT('',(24.444968152866,2.461773168675,6.763666192752
    ));
#378 = B_SPLINE_CURVE_WITH_KNOTS('',5,(#379,#380,#381,#382,#383,#384,
    #385,#386,#387,#388),.UNSPECIFIED.,.F.,.F.,(6,4,6),(0.,0.53652263867
    ,1.),.UNSPECIFIED.);
#379 = CARTESIAN_POINT('',(24.444968152866,2.461773168675,6.763666192752
    ));
#380 = CARTESIAN_POINT('',(24.532486165574,2.515246835358,6.910583884502
    ));
#381 = CARTESIAN_POINT('',(24.622573156048,2.567593086098,7.054404026402
    ));
#382 = CARTESIAN_POINT('',(24.715514446438,2.61862647929,7.194617121836)
  );
#383 = CARTESIAN_POINT('',(24.811602677723,2.668070741635,7.330464116151
    ));
#384 = CARTESIAN_POINT('',(24.997256564774,2.756512256224,7.573455180426
    ));
#385 = CARTESIAN_POINT('',(25.085912512239,2.796007086745,7.681966335466
    ));
#386 = CARTESIAN_POINT('',(25.177429819027,2.833751872901,7.785669283133
    ));
#387 = CARTESIAN_POINT('',(25.272010923573,2.869366984577,7.883520998255
    ));
#388 = CARTESIAN_POINT('',(25.369808917197,2.902347396612,7.974133935604
    ));
#389 = ORIENTED_EDGE('',*,*,#390,.F.);
#390 = EDGE_CURVE('',#391,#376,#393,.T.);
#391 = VERTEX_POINT('',#392);
#392 = CARTESIAN_POINT('',(23.728280254777,1.851452382979,5.086823615432
    ));
#393 = B_SPLINE_CURVE_WITH_KNOTS('',5,(#394,#395,#396,#397,#398,#399,
    #400,#401,#402,#403),.UNSPECIFIED.,.F.,.F.,(6,4,6),(0.,
    0.730780123927,1.),.UNSPECIFIED.);
#394 = CARTESIAN_POINT('',(23.728280254777,1.851452382979,5.086823615432
    ));
#395 = CARTESIAN_POINT('',(23.799641696594,1.944970720293,5.343763135507
    ));
#396 = CARTESIAN_POINT('',(23.883175250714,2.037230266001,5.597244154067
    ));
#397 = CARTESIAN_POINT('',(23.979049046347,2.127988107752,5.846599274916
    ));
#398 = CARTESIAN_POINT('',(24.087228941141,2.217013873978,6.091195557373
    ));
#399 = CARTESIAN_POINT('',(24.251701881413,2.336178532197,6.418597765026
    ));
#400 = CARTESIAN_POINT('',(24.297612235302,2.36799672122,6.506017520894)
  );
#401 = CARTESIAN_POINT('',(24.345139421801,2.399541383909,6.592685769338
    ));
#402 = CARTESIAN_POINT('',(24.39426538562,2.430803083775,6.678576583813)
  );
#403 = CARTESIAN_POINT('',(24.444968152866,2.461773168675,6.763666192752
    ));
#404 = ORIENTED_EDGE('',*,*,#405,.F.);
#405 = EDGE_CURVE('',#406,#391,#408,.T.);
#406 = VERTEX_POINT('',#407);
#407 = CARTESIAN_POINT('',(23.485732484076,1.273895819932,3.5));
#408 = B_SPLINE_CURVE_WITH_KNOTS('',5,(#409,#410,#411,#412,#413,#414,
    #415,#416,#417,#418),.UNSPECIFIED.,.F.,.F.,(6,4,6),(0.,
    0.476555297456,1.),.UNSPECIFIED.);
#409 = CARTESIAN_POINT('',(23.485732484076,1.273895819932,3.5));
#410 = CARTESIAN_POINT('',(23.484926589597,1.32753383539,3.647369236296)
  );
#411 = CARTESIAN_POINT('',(23.491094081439,1.381773758835,3.796392201194
    ));
#412 = CARTESIAN_POINT('',(23.503553647702,1.436445639815,3.946601959666
    ));
#413 = CARTESIAN_POINT('',(23.521679548176,1.491421754254,4.097647592697
    ));
#414 = CARTESIAN_POINT('',(23.570498954822,1.607248406905,4.415878705426
    ));
#415 = CARTESIAN_POINT('',(23.602251571479,1.668140557502,4.583178514212
    ));
#416 = CARTESIAN_POINT('',(23.639500938008,1.72918514035,4.750897127169)
  );
#417 = CARTESIAN_POINT('',(23.681667865196,1.790304220418,4.918820419554
    ));
#418 = CARTESIAN_POINT('',(23.728280254777,1.851452382979,5.086823615432
    ));
#419 = ORIENTED_EDGE('',*,*,#420,.F.);
#420 = EDGE_CURVE('',#421,#406,#423,.T.);
#421 = VERTEX_POINT('',#422);
#422 = CARTESIAN_POINT('',(22.450063694268,1.273895819932,3.5));
#423 = LINE('',#424,#425);
#424 = CARTESIAN_POINT('',(11.242866242038,1.273895819932,3.5));
#425 = VECTOR('',#426,1.);
#426 = DIRECTION('',(1.,0.,0.));
#427 = ORIENTED_EDGE('',*,*,#428,.F.);
#428 = EDGE_CURVE('',#429,#421,#431,.T.);
#429 = VERTEX_POINT('',#430);
#430 = CARTESIAN_POINT('',(22.929554140127,2.087947330492,5.736588143537
    ));
#431 = B_SPLINE_CURVE_WITH_KNOTS('',5,(#432,#433,#434,#435,#436,#437,
    #438,#439,#440,#441),.UNSPECIFIED.,.F.,.F.,(6,4,6),(0.,
    0.511250671703,1.),.UNSPECIFIED.);
#432 = CARTESIAN_POINT('',(22.929554140127,2.087947330492,5.736588143537
    ));
#433 = CARTESIAN_POINT('',(22.841615741698,2.0073647835,5.515189415275)
  );
#434 = CARTESIAN_POINT('',(22.762344791075,1.925889812661,5.291338772645
    ));
#435 = CARTESIAN_POINT('',(22.692419315997,1.843591446234,5.065225869227
    ));
#436 = CARTESIAN_POINT('',(22.632540129624,1.760576860769,4.837145170177
    ));
#437 = CARTESIAN_POINT('',(22.536250715374,1.597102189274,4.388002201593
    ));
#438 = CARTESIAN_POINT('',(22.498922439038,1.516688783534,4.167068185099
    ));
#439 = CARTESIAN_POINT('',(22.471857433718,1.435899301712,3.945100908064
    ));
#440 = CARTESIAN_POINT('',(22.455492374375,1.354901771564,3.722562022951
    ));
#441 = CARTESIAN_POINT('',(22.450063694268,1.273895819932,3.5));
#442 = ORIENTED_EDGE('',*,*,#443,.F.);
#443 = EDGE_CURVE('',#444,#429,#446,.T.);
#444 = VERTEX_POINT('',#445);
#445 = CARTESIAN_POINT('',(24.13923566879,2.829847840116,7.774943041211)
  );
#446 = B_SPLINE_CURVE_WITH_KNOTS('',5,(#447,#448,#449,#450,#451,#452,
    #453,#454,#455,#456),.UNSPECIFIED.,.F.,.F.,(6,4,6),(0.,
    0.495396503647,1.),.UNSPECIFIED.);
#447 = CARTESIAN_POINT('',(24.13923566879,2.829847840116,7.774943041211)
  );
#448 = CARTESIAN_POINT('',(23.986360109259,2.763794296017,7.593462420325
    ));
#449 = CARTESIAN_POINT('',(23.841409156218,2.695572093458,7.406023459288
    ));
#450 = CARTESIAN_POINT('',(23.704650831271,2.625322930596,7.213015470588
    ));
#451 = CARTESIAN_POINT('',(23.576199824346,2.553211285302,7.014890353463
    ));
#452 = CARTESIAN_POINT('',(23.333673617232,2.404249226052,6.60562045932)
  );
#453 = CARTESIAN_POINT('',(23.219906676091,2.327333575362,6.394296445846
    ));
#454 = CARTESIAN_POINT('',(23.114746185342,2.248855709349,6.178680281048
    ));
#455 = CARTESIAN_POINT('',(23.01803912075,2.169002156748,5.959284448415)
  );
#456 = CARTESIAN_POINT('',(22.929554140127,2.087947330492,5.736588143537
    ));
#457 = ORIENTED_EDGE('',*,*,#458,.F.);
#458 = EDGE_CURVE('',#352,#444,#459,.T.);
#459 = LINE('',#460,#461);
#460 = CARTESIAN_POINT('',(11.569617834395,2.829847840116,7.774943041211
    ));
#461 = VECTOR('',#462,1.);
#462 = DIRECTION('',(1.,0.,0.));
#463 = FACE_BOUND('',#464,.T.);
#464 = EDGE_LOOP('',(#465,#475,#483,#498,#506,#518,#537,#545));
#465 = ORIENTED_EDGE('',*,*,#466,.F.);
#466 = EDGE_CURVE('',#467,#469,#471,.T.);
#467 = VERTEX_POINT('',#468);
#468 = CARTESIAN_POINT('',(19.017452229299,1.273895819932,3.5));
#469 = VERTEX_POINT('',#470);
#470 = CARTESIAN_POINT('',(20.091337579618,1.273895819932,3.5));
#471 = LINE('',#472,#473);
#472 = CARTESIAN_POINT('',(9.545668789809,1.273895819932,3.5));
#473 = VECTOR('',#474,1.);
#474 = DIRECTION('',(1.,0.,0.));
#475 = ORIENTED_EDGE('',*,*,#476,.F.);
#476 = EDGE_CURVE('',#477,#467,#479,.T.);
#477 = VERTEX_POINT('',#478);
#478 = CARTESIAN_POINT('',(19.017452229299,2.663238282399,7.317187043519
    ));
#479 = LINE('',#480,#481);
#480 = CARTESIAN_POINT('',(19.017452229299,0.636947909966,1.75));
#481 = VECTOR('',#482,1.);
#482 = DIRECTION('',(-0.,-0.342020143326,-0.939692620786));
#483 = ORIENTED_EDGE('',*,*,#484,.F.);
#484 = EDGE_CURVE('',#485,#477,#487,.T.);
#485 = VERTEX_POINT('',#486);
#486 = CARTESIAN_POINT('',(17.630191082803,2.383696723217,6.549152921867
    ));
#487 = B_SPLINE_CURVE_WITH_KNOTS('',5,(#488,#489,#490,#491,#492,#493,
    #494,#495,#496,#497),.UNSPECIFIED.,.F.,.F.,(6,4,6),(0.,
    0.724057549441,1.),.UNSPECIFIED.);
#488 = CARTESIAN_POINT('',(17.630191082803,2.383696723217,6.549152921867
    ));
#489 = CARTESIAN_POINT('',(17.855465657063,2.409232076143,6.619310727428
    ));
#490 = CARTESIAN_POINT('',(18.074135413454,2.440098888708,6.704116597962
    ));
#491 = CARTESIAN_POINT('',(18.284480974306,2.476516992288,6.804174515207
    ));
#492 = CARTESIAN_POINT('',(18.484860686543,2.518514045045,6.91956046934)
  );
#493 = CARTESIAN_POINT('',(18.746057683318,2.583768239909,7.098844896254
    ));
#494 = CARTESIAN_POINT('',(18.816502479744,2.602538453325,7.150415633773
    ));
#495 = CARTESIAN_POINT('',(18.885249636154,2.62205554452,7.204038401124)
  );
#496 = CARTESIAN_POINT('',(18.952245973208,2.642297711285,7.259653297232
    ));
#497 = CARTESIAN_POINT('',(19.017452229299,2.663238282399,7.317187043519
    ));
#498 = ORIENTED_EDGE('',*,*,#499,.F.);
#499 = EDGE_CURVE('',#500,#485,#502,.T.);
#500 = VERTEX_POINT('',#501);
#501 = CARTESIAN_POINT('',(17.630191082803,2.718310060891,7.468495511375
    ));
#502 = LINE('',#503,#504);
#503 = CARTESIAN_POINT('',(17.630191082803,1.191848361609,3.274576460934
    ));
#504 = VECTOR('',#505,1.);
#505 = DIRECTION('',(-0.,-0.342020143326,-0.939692620786));
#506 = ORIENTED_EDGE('',*,*,#507,.F.);
#507 = EDGE_CURVE('',#508,#500,#510,.T.);
#508 = VERTEX_POINT('',#509);
#509 = CARTESIAN_POINT('',(18.543566878981,2.896770507651,7.958811559113
    ));
#510 = B_SPLINE_CURVE_WITH_KNOTS('',6,(#511,#512,#513,#514,#515,#516,
    #517),.UNSPECIFIED.,.F.,.F.,(7,7),(0.,1.),.PIECEWISE_BEZIER_KNOTS.);
#511 = CARTESIAN_POINT('',(18.543566878981,2.896770507651,7.958811559113
    ));
#512 = CARTESIAN_POINT('',(18.393999649994,2.856903971381,7.849279150918
    ));
#513 = CARTESIAN_POINT('',(18.242937609222,2.820228173284,7.748513223807
    ));
#514 = CARTESIAN_POINT('',(18.090441262943,2.787256522549,7.657924357932
    ));
#515 = CARTESIAN_POINT('',(17.936916911258,2.75869595565,7.579454845289)
  );
#516 = CARTESIAN_POINT('',(17.783122720697,2.735428290215,7.515527459903
    ));
#517 = CARTESIAN_POINT('',(17.630191082803,2.718310060891,7.468495511375
    ));
#518 = ORIENTED_EDGE('',*,*,#519,.F.);
#519 = EDGE_CURVE('',#520,#508,#522,.T.);
#520 = VERTEX_POINT('',#521);
#521 = CARTESIAN_POINT('',(19.22,3.203499400519,8.801542266161));
#522 = B_SPLINE_CURVE_WITH_KNOTS('',5,(#523,#524,#525,#526,#527,#528,
    #529,#530,#531,#532,#533,#534,#535,#536),.UNSPECIFIED.,.F.,.F.,(6,4,
    4,6),(0.,7.602305458109E-02,0.52948728546,1.),.UNSPECIFIED.);
#523 = CARTESIAN_POINT('',(19.22,3.203499400519,8.801542266161));
#524 = CARTESIAN_POINT('',(19.21427907052,3.198034303789,8.786527036301)
  );
#525 = CARTESIAN_POINT('',(19.208368179303,3.192594092569,8.771580178816
    ));
#526 = CARTESIAN_POINT('',(19.202267684351,3.187179366928,8.756703342387
    ));
#527 = CARTESIAN_POINT('',(19.195978103035,3.181790707066,8.741898121094
    ));
#528 = CARTESIAN_POINT('',(19.150860028611,3.144445079278,8.639291852031
    ));
#529 = CARTESIAN_POINT('',(19.105514036292,3.11340676027,8.55401477142)
  );
#530 = CARTESIAN_POINT('',(19.053611488586,3.083439125643,8.471679371968
    ));
#531 = CARTESIAN_POINT('',(18.995492792991,3.054621608759,8.392503895043
    ));
#532 = CARTESIAN_POINT('',(18.865344541674,2.998339636559,8.237870447301
    ));
#533 = CARTESIAN_POINT('',(18.792868275161,2.970964399538,8.162657601734
    ));
#534 = CARTESIAN_POINT('',(18.714694857275,2.944920801976,8.091103405511
    ));
#535 = CARTESIAN_POINT('',(18.631411680089,2.920200708902,8.023185507984
    ));
#536 = CARTESIAN_POINT('',(18.543566878981,2.896770507651,7.958811559113
    ));
#537 = ORIENTED_EDGE('',*,*,#538,.F.);
#538 = EDGE_CURVE('',#539,#520,#541,.T.);
#539 = VERTEX_POINT('',#540);
#540 = CARTESIAN_POINT('',(20.091337579618,3.203499400519,8.801542266161
    ));
#541 = LINE('',#542,#543);
#542 = CARTESIAN_POINT('',(9.11,3.203499400519,8.801542266161));
#543 = VECTOR('',#544,1.);
#544 = DIRECTION('',(-1.,0.,0.));
#545 = ORIENTED_EDGE('',*,*,#546,.F.);
#546 = EDGE_CURVE('',#469,#539,#547,.T.);
#547 = LINE('',#548,#549);
#548 = CARTESIAN_POINT('',(20.091337579618,1.601749700259,4.400771133081
    ));
#549 = VECTOR('',#550,1.);
#550 = DIRECTION('',(0.,0.342020143326,0.939692620786));
#551 = PLANE('',#552);
#552 = AXIS2_PLACEMENT_3D('',#553,#554,#555);
#553 = CARTESIAN_POINT('',(-1.,0.,0.));
#554 = DIRECTION('',(0.,-0.939692620786,0.342020143326));
#555 = DIRECTION('',(0.,0.342020143326,0.939692620786));
#556 = ADVANCED_FACE('',(#557),#568,.T.);
#557 = FACE_BOUND('',#558,.T.);
#558 = EDGE_LOOP('',(#559,#560,#561,#562));
#559 = ORIENTED_EDGE('',*,*,#323,.T.);
#560 = ORIENTED_EDGE('',*,*,#236,.T.);
#561 = ORIENTED_EDGE('',*,*,#134,.F.);
#562 = ORIENTED_EDGE('',*,*,#563,.F.);
#563 = EDGE_CURVE('',#316,#127,#564,.T.);
#564 = LINE('',#565,#566);
#565 = CARTESIAN_POINT('',(4.,19.05,-1.));
#566 = VECTOR('',#567,1.);
#567 = DIRECTION('',(0.,0.,1.));
#568 = PLANE('',#569);
#569 = AXIS2_PLACEMENT_3D('',#570,#571,#572);
#570 = CARTESIAN_POINT('',(4.,12.75,-1.));
#571 = DIRECTION('',(-1.,0.,0.));
#572 = DIRECTION('',(0.,1.,0.));
#573 = ADVANCED_FACE('',(#574),#585,.T.);
#574 = FACE_BOUND('',#575,.T.);
#575 = EDGE_LOOP('',(#576,#577,#578,#579));
#576 = ORIENTED_EDGE('',*,*,#315,.T.);
#577 = ORIENTED_EDGE('',*,*,#563,.T.);
#578 = ORIENTED_EDGE('',*,*,#126,.F.);
#579 = ORIENTED_EDGE('',*,*,#580,.F.);
#580 = EDGE_CURVE('',#308,#119,#581,.T.);
#581 = LINE('',#582,#583);
#582 = CARTESIAN_POINT('',(0.,18.05,-1.));
#583 = VECTOR('',#584,1.);
#584 = DIRECTION('',(0.,0.,1.));
#585 = PLANE('',#586);
#586 = AXIS2_PLACEMENT_3D('',#587,#588,#589);
#587 = CARTESIAN_POINT('',(4.,19.05,-1.));
#588 = DIRECTION('',(0.242535625036,-0.970142500145,0.));
#589 = DIRECTION('',(-0.970142500145,-0.242535625036,0.));
#590 = ADVANCED_FACE('',(#591),#602,.F.);
#591 = FACE_BOUND('',#592,.F.);
#592 = EDGE_LOOP('',(#593,#594,#595,#596));
#593 = ORIENTED_EDGE('',*,*,#118,.F.);
#594 = ORIENTED_EDGE('',*,*,#580,.F.);
#595 = ORIENTED_EDGE('',*,*,#307,.T.);
#596 = ORIENTED_EDGE('',*,*,#597,.T.);
#597 = EDGE_CURVE('',#300,#111,#598,.T.);
#598 = LINE('',#599,#600);
#599 = CARTESIAN_POINT('',(0.,53.,0.));
#600 = VECTOR('',#601,1.);
#601 = DIRECTION('',(0.,0.,1.));
#602 = PLANE('',#603);
#603 = AXIS2_PLACEMENT_3D('',#604,#605,#606);
#604 = CARTESIAN_POINT('',(0.,0.,0.));
#605 = DIRECTION('',(1.,0.,0.));
#606 = DIRECTION('',(0.,0.,1.));
#607 = ADVANCED_FACE('',(#608),#619,.T.);
#608 = FACE_BOUND('',#609,.T.);
#609 = EDGE_LOOP('',(#610,#611,#612,#613));
#610 = ORIENTED_EDGE('',*,*,#299,.F.);
#611 = ORIENTED_EDGE('',*,*,#597,.T.);
#612 = ORIENTED_EDGE('',*,*,#110,.T.);
#613 = ORIENTED_EDGE('',*,*,#614,.F.);
#614 = EDGE_CURVE('',#292,#103,#615,.T.);
#615 = LINE('',#616,#617);
#616 = CARTESIAN_POINT('',(43.,53.,0.));
#617 = VECTOR('',#618,1.);
#618 = DIRECTION('',(0.,0.,1.));
#619 = PLANE('',#620);
#620 = AXIS2_PLACEMENT_3D('',#621,#622,#623);
#621 = CARTESIAN_POINT('',(0.,53.,0.));
#622 = DIRECTION('',(0.,1.,0.));
#623 = DIRECTION('',(0.,0.,1.));
#624 = ADVANCED_FACE('',(#625),#636,.T.);
#625 = FACE_BOUND('',#626,.T.);
#626 = EDGE_LOOP('',(#627,#628,#634,#635));
#627 = ORIENTED_EDGE('',*,*,#102,.F.);
#628 = ORIENTED_EDGE('',*,*,#629,.T.);
#629 = EDGE_CURVE('',#95,#284,#630,.T.);
#630 = LINE('',#631,#632);
#631 = CARTESIAN_POINT('',(43.,17.924390243902,0.));
#632 = VECTOR('',#633,1.);
#633 = DIRECTION('',(0.,0.,-1.));
#634 = ORIENTED_EDGE('',*,*,#291,.T.);
#635 = ORIENTED_EDGE('',*,*,#614,.T.);
#636 = PLANE('',#637);
#637 = AXIS2_PLACEMENT_3D('',#638,#639,#640);
#638 = CARTESIAN_POINT('',(43.,0.,0.));
#639 = DIRECTION('',(1.,0.,0.));
#640 = DIRECTION('',(0.,0.,1.));
#641 = ADVANCED_FACE('',(#642),#653,.T.);
#642 = FACE_BOUND('',#643,.T.);
#643 = EDGE_LOOP('',(#644,#645,#651,#652));
#644 = ORIENTED_EDGE('',*,*,#78,.T.);
#645 = ORIENTED_EDGE('',*,*,#646,.T.);
#646 = EDGE_CURVE('',#71,#95,#647,.T.);
#647 = LINE('',#648,#649);
#648 = CARTESIAN_POINT('',(43.,0.,10.));
#649 = VECTOR('',#650,1.);
#650 = DIRECTION('',(0.,1.,0.));
#651 = ORIENTED_EDGE('',*,*,#94,.T.);
#652 = ORIENTED_EDGE('',*,*,#86,.T.);
#653 = PLANE('',#654);
#654 = AXIS2_PLACEMENT_3D('',#655,#656,#657);
#655 = CARTESIAN_POINT('',(0.,0.,10.));
#656 = DIRECTION('',(0.,0.,1.));
#657 = DIRECTION('',(1.,0.,0.));
#658 = ADVANCED_FACE('',(#659),#670,.T.);
#659 = FACE_BOUND('',#660,.T.);
#660 = EDGE_LOOP('',(#661,#662,#663,#664));
#661 = ORIENTED_EDGE('',*,*,#70,.F.);
#662 = ORIENTED_EDGE('',*,*,#340,.T.);
#663 = ORIENTED_EDGE('',*,*,#259,.T.);
#664 = ORIENTED_EDGE('',*,*,#665,.T.);
#665 = EDGE_CURVE('',#260,#71,#666,.T.);
#666 = LINE('',#667,#668);
#667 = CARTESIAN_POINT('',(43.,13.875609756098,0.));
#668 = VECTOR('',#669,1.);
#669 = DIRECTION('',(0.,0.,1.));
#670 = PLANE('',#671);
#671 = AXIS2_PLACEMENT_3D('',#672,#673,#674);
#672 = CARTESIAN_POINT('',(43.,0.,0.));
#673 = DIRECTION('',(1.,0.,0.));
#674 = DIRECTION('',(0.,0.,1.));
#675 = ADVANCED_FACE('',(#676),#702,.T.);
#676 = FACE_BOUND('',#677,.T.);
#677 = EDGE_LOOP('',(#678,#686,#687,#695));
#678 = ORIENTED_EDGE('',*,*,#679,.F.);
#679 = EDGE_CURVE('',#151,#680,#682,.T.);
#680 = VERTEX_POINT('',#681);
#681 = CARTESIAN_POINT('',(16.6,38.36,20.5));
#682 = LINE('',#683,#684);
#683 = CARTESIAN_POINT('',(16.6,38.36,9.9));
#684 = VECTOR('',#685,1.);
#685 = DIRECTION('',(0.,0.,1.));
#686 = ORIENTED_EDGE('',*,*,#150,.T.);
#687 = ORIENTED_EDGE('',*,*,#688,.T.);
#688 = EDGE_CURVE('',#153,#689,#691,.T.);
#689 = VERTEX_POINT('',#690);
#690 = CARTESIAN_POINT('',(16.,37.76,20.5));
#691 = LINE('',#692,#693);
#692 = CARTESIAN_POINT('',(16.,37.76,9.9));
#693 = VECTOR('',#694,1.);
#694 = DIRECTION('',(0.,0.,1.));
#695 = ORIENTED_EDGE('',*,*,#696,.F.);
#696 = EDGE_CURVE('',#680,#689,#697,.T.);
#697 = CIRCLE('',#698,0.6);
#698 = AXIS2_PLACEMENT_3D('',#699,#700,#701);
#699 = CARTESIAN_POINT('',(16.6,37.76,20.5));
#700 = DIRECTION('',(0.,-0.,1.));
#701 = DIRECTION('',(0.,1.,0.));
#702 = CYLINDRICAL_SURFACE('',#703,0.6);
#703 = AXIS2_PLACEMENT_3D('',#704,#705,#706);
#704 = CARTESIAN_POINT('',(16.6,37.76,9.9));
#705 = DIRECTION('',(0.,0.,1.));
#706 = DIRECTION('',(0.,1.,0.));
#707 = ADVANCED_FACE('',(#708),#726,.F.);
#708 = FACE_BOUND('',#709,.F.);
#709 = EDGE_LOOP('',(#710,#711,#719,#725));
#710 = ORIENTED_EDGE('',*,*,#161,.T.);
#711 = ORIENTED_EDGE('',*,*,#712,.T.);
#712 = EDGE_CURVE('',#162,#713,#715,.T.);
#713 = VERTEX_POINT('',#714);
#714 = CARTESIAN_POINT('',(26.4,38.36,20.5));
#715 = LINE('',#716,#717);
#716 = CARTESIAN_POINT('',(26.4,38.36,9.9));
#717 = VECTOR('',#718,1.);
#718 = DIRECTION('',(0.,0.,1.));
#719 = ORIENTED_EDGE('',*,*,#720,.T.);
#720 = EDGE_CURVE('',#713,#680,#721,.T.);
#721 = LINE('',#722,#723);
#722 = CARTESIAN_POINT('',(26.4,38.36,20.5));
#723 = VECTOR('',#724,1.);
#724 = DIRECTION('',(-1.,0.,0.));
#725 = ORIENTED_EDGE('',*,*,#679,.F.);
#726 = PLANE('',#727);
#727 = AXIS2_PLACEMENT_3D('',#728,#729,#730);
#728 = CARTESIAN_POINT('',(27.,38.36,9.9));
#729 = DIRECTION('',(0.,-1.,0.));
#730 = DIRECTION('',(-1.,0.,0.));
#731 = ADVANCED_FACE('',(#732),#750,.F.);
#732 = FACE_BOUND('',#733,.F.);
#733 = EDGE_LOOP('',(#734,#735,#736,#744));
#734 = ORIENTED_EDGE('',*,*,#212,.T.);
#735 = ORIENTED_EDGE('',*,*,#688,.T.);
#736 = ORIENTED_EDGE('',*,*,#737,.T.);
#737 = EDGE_CURVE('',#689,#738,#740,.T.);
#738 = VERTEX_POINT('',#739);
#739 = CARTESIAN_POINT('',(16.,27.96,20.5));
#740 = LINE('',#741,#742);
#741 = CARTESIAN_POINT('',(16.,37.76,20.5));
#742 = VECTOR('',#743,1.);
#743 = DIRECTION('',(0.,-1.,0.));
#744 = ORIENTED_EDGE('',*,*,#745,.F.);
#745 = EDGE_CURVE('',#204,#738,#746,.T.);
#746 = LINE('',#747,#748);
#747 = CARTESIAN_POINT('',(16.,27.96,9.9));
#748 = VECTOR('',#749,1.);
#749 = DIRECTION('',(0.,0.,1.));
#750 = PLANE('',#751);
#751 = AXIS2_PLACEMENT_3D('',#752,#753,#754);
#752 = CARTESIAN_POINT('',(16.,38.36,9.9));
#753 = DIRECTION('',(1.,0.,0.));
#754 = DIRECTION('',(0.,-1.,0.));
#755 = ADVANCED_FACE('',(#756),#775,.T.);
#756 = FACE_BOUND('',#757,.F.);
#757 = EDGE_LOOP('',(#758,#759,#760,#768));
#758 = ORIENTED_EDGE('',*,*,#712,.F.);
#759 = ORIENTED_EDGE('',*,*,#169,.F.);
#760 = ORIENTED_EDGE('',*,*,#761,.T.);
#761 = EDGE_CURVE('',#170,#762,#764,.T.);
#762 = VERTEX_POINT('',#763);
#763 = CARTESIAN_POINT('',(27.,37.76,20.5));
#764 = LINE('',#765,#766);
#765 = CARTESIAN_POINT('',(27.,37.76,9.9));
#766 = VECTOR('',#767,1.);
#767 = DIRECTION('',(0.,0.,1.));
#768 = ORIENTED_EDGE('',*,*,#769,.T.);
#769 = EDGE_CURVE('',#762,#713,#770,.T.);
#770 = CIRCLE('',#771,0.6);
#771 = AXIS2_PLACEMENT_3D('',#772,#773,#774);
#772 = CARTESIAN_POINT('',(26.4,37.76,20.5));
#773 = DIRECTION('',(0.,0.,1.));
#774 = DIRECTION('',(1.,0.,0.));
#775 = CYLINDRICAL_SURFACE('',#776,0.6);
#776 = AXIS2_PLACEMENT_3D('',#777,#778,#779);
#777 = CARTESIAN_POINT('',(26.4,37.76,9.9));
#778 = DIRECTION('',(0.,0.,1.));
#779 = DIRECTION('',(0.,1.,0.));
#780 = ADVANCED_FACE('',(#781),#800,.T.);
#781 = FACE_BOUND('',#782,.T.);
#782 = EDGE_LOOP('',(#783,#784,#785,#793));
#783 = ORIENTED_EDGE('',*,*,#745,.F.);
#784 = ORIENTED_EDGE('',*,*,#203,.T.);
#785 = ORIENTED_EDGE('',*,*,#786,.T.);
#786 = EDGE_CURVE('',#196,#787,#789,.T.);
#787 = VERTEX_POINT('',#788);
#788 = CARTESIAN_POINT('',(16.6,27.36,20.5));
#789 = LINE('',#790,#791);
#790 = CARTESIAN_POINT('',(16.6,27.36,9.9));
#791 = VECTOR('',#792,1.);
#792 = DIRECTION('',(0.,0.,1.));
#793 = ORIENTED_EDGE('',*,*,#794,.F.);
#794 = EDGE_CURVE('',#738,#787,#795,.T.);
#795 = CIRCLE('',#796,0.6);
#796 = AXIS2_PLACEMENT_3D('',#797,#798,#799);
#797 = CARTESIAN_POINT('',(16.6,27.96,20.5));
#798 = DIRECTION('',(0.,0.,1.));
#799 = DIRECTION('',(-1.,0.,0.));
#800 = CYLINDRICAL_SURFACE('',#801,0.6);
#801 = AXIS2_PLACEMENT_3D('',#802,#803,#804);
#802 = CARTESIAN_POINT('',(16.6,27.96,9.9));
#803 = DIRECTION('',(0.,0.,1.));
#804 = DIRECTION('',(-1.,0.,0.));
#805 = ADVANCED_FACE('',(#806),#824,.F.);
#806 = FACE_BOUND('',#807,.F.);
#807 = EDGE_LOOP('',(#808,#809,#817,#823));
#808 = ORIENTED_EDGE('',*,*,#178,.T.);
#809 = ORIENTED_EDGE('',*,*,#810,.T.);
#810 = EDGE_CURVE('',#179,#811,#813,.T.);
#811 = VERTEX_POINT('',#812);
#812 = CARTESIAN_POINT('',(27.,27.96,20.5));
#813 = LINE('',#814,#815);
#814 = CARTESIAN_POINT('',(27.,27.96,9.9));
#815 = VECTOR('',#816,1.);
#816 = DIRECTION('',(0.,0.,1.));
#817 = ORIENTED_EDGE('',*,*,#818,.T.);
#818 = EDGE_CURVE('',#811,#762,#819,.T.);
#819 = LINE('',#820,#821);
#820 = CARTESIAN_POINT('',(27.,27.96,20.5));
#821 = VECTOR('',#822,1.);
#822 = DIRECTION('',(0.,1.,0.));
#823 = ORIENTED_EDGE('',*,*,#761,.F.);
#824 = PLANE('',#825);
#825 = AXIS2_PLACEMENT_3D('',#826,#827,#828);
#826 = CARTESIAN_POINT('',(27.,27.36,9.9));
#827 = DIRECTION('',(-1.,0.,0.));
#828 = DIRECTION('',(0.,1.,0.));
#829 = ADVANCED_FACE('',(#830),#848,.F.);
#830 = FACE_BOUND('',#831,.F.);
#831 = EDGE_LOOP('',(#832,#833,#834,#842));
#832 = ORIENTED_EDGE('',*,*,#195,.T.);
#833 = ORIENTED_EDGE('',*,*,#786,.T.);
#834 = ORIENTED_EDGE('',*,*,#835,.T.);
#835 = EDGE_CURVE('',#787,#836,#838,.T.);
#836 = VERTEX_POINT('',#837);
#837 = CARTESIAN_POINT('',(26.4,27.36,20.5));
#838 = LINE('',#839,#840);
#839 = CARTESIAN_POINT('',(16.6,27.36,20.5));
#840 = VECTOR('',#841,1.);
#841 = DIRECTION('',(1.,0.,0.));
#842 = ORIENTED_EDGE('',*,*,#843,.F.);
#843 = EDGE_CURVE('',#187,#836,#844,.T.);
#844 = LINE('',#845,#846);
#845 = CARTESIAN_POINT('',(26.4,27.36,9.9));
#846 = VECTOR('',#847,1.);
#847 = DIRECTION('',(0.,0.,1.));
#848 = PLANE('',#849);
#849 = AXIS2_PLACEMENT_3D('',#850,#851,#852);
#850 = CARTESIAN_POINT('',(16.,27.36,9.9));
#851 = DIRECTION('',(0.,1.,0.));
#852 = DIRECTION('',(1.,0.,0.));
#853 = ADVANCED_FACE('',(#854),#866,.T.);
#854 = FACE_BOUND('',#855,.T.);
#855 = EDGE_LOOP('',(#856,#857,#858,#859));
#856 = ORIENTED_EDGE('',*,*,#843,.F.);
#857 = ORIENTED_EDGE('',*,*,#186,.T.);
#858 = ORIENTED_EDGE('',*,*,#810,.T.);
#859 = ORIENTED_EDGE('',*,*,#860,.F.);
#860 = EDGE_CURVE('',#836,#811,#861,.T.);
#861 = CIRCLE('',#862,0.6);
#862 = AXIS2_PLACEMENT_3D('',#863,#864,#865);
#863 = CARTESIAN_POINT('',(26.4,27.96,20.5));
#864 = DIRECTION('',(-0.,0.,1.));
#865 = DIRECTION('',(0.,-1.,0.));
#866 = CYLINDRICAL_SURFACE('',#867,0.6);
#867 = AXIS2_PLACEMENT_3D('',#868,#869,#870);
#868 = CARTESIAN_POINT('',(26.4,27.96,9.9));
#869 = DIRECTION('',(0.,0.,1.));
#870 = DIRECTION('',(0.,-1.,0.));
#871 = ADVANCED_FACE('',(#872),#883,.F.);
#872 = FACE_BOUND('',#873,.F.);
#873 = EDGE_LOOP('',(#874,#875,#881,#882));
#874 = ORIENTED_EDGE('',*,*,#267,.T.);
#875 = ORIENTED_EDGE('',*,*,#876,.T.);
#876 = EDGE_CURVE('',#260,#284,#877,.T.);
#877 = LINE('',#878,#879);
#878 = CARTESIAN_POINT('',(43.,0.,0.));
#879 = VECTOR('',#880,1.);
#880 = DIRECTION('',(0.,1.,0.));
#881 = ORIENTED_EDGE('',*,*,#283,.T.);
#882 = ORIENTED_EDGE('',*,*,#275,.T.);
#883 = PLANE('',#884);
#884 = AXIS2_PLACEMENT_3D('',#885,#886,#887);
#885 = CARTESIAN_POINT('',(0.,0.,0.));
#886 = DIRECTION('',(0.,0.,1.));
#887 = DIRECTION('',(1.,0.,0.));
#888 = ADVANCED_FACE('',(#889),#914,.T.);
#889 = FACE_BOUND('',#890,.T.);
#890 = EDGE_LOOP('',(#891,#892,#900,#908));
#891 = ORIENTED_EDGE('',*,*,#349,.T.);
#892 = ORIENTED_EDGE('',*,*,#893,.T.);
#893 = EDGE_CURVE('',#352,#894,#896,.T.);
#894 = VERTEX_POINT('',#895);
#895 = CARTESIAN_POINT('',(21.697197452229,2.266032267644,7.980155127206
    ));
#896 = LINE('',#897,#898);
#897 = CARTESIAN_POINT('',(21.697197452229,3.017786364273,7.706539012546
    ));
#898 = VECTOR('',#899,1.);
#899 = DIRECTION('',(0.,-0.939692620786,0.342020143326));
#900 = ORIENTED_EDGE('',*,*,#901,.T.);
#901 = EDGE_CURVE('',#894,#902,#904,.T.);
#902 = VERTEX_POINT('',#903);
#903 = CARTESIAN_POINT('',(21.697197452229,2.60622249428,8.914820093206)
  );
#904 = LINE('',#905,#906);
#905 = CARTESIAN_POINT('',(21.697197452229,2.266032267644,7.980155127206
    ));
#906 = VECTOR('',#907,1.);
#907 = DIRECTION('',(0.,0.342020143326,0.939692620786));
#908 = ORIENTED_EDGE('',*,*,#909,.F.);
#909 = EDGE_CURVE('',#350,#902,#910,.T.);
#910 = LINE('',#911,#912);
#911 = CARTESIAN_POINT('',(21.697197452229,3.357976590908,8.641203978545
    ));
#912 = VECTOR('',#913,1.);
#913 = DIRECTION('',(0.,-0.939692620786,0.342020143326));
#914 = PLANE('',#915);
#915 = AXIS2_PLACEMENT_3D('',#916,#917,#918);
#916 = CARTESIAN_POINT('',(21.697197452229,3.017786364273,7.706539012546
    ));
#917 = DIRECTION('',(-1.,0.,0.));
#918 = DIRECTION('',(0.,0.342020143326,0.939692620786));
#919 = ADVANCED_FACE('',(#920),#938,.T.);
#920 = FACE_BOUND('',#921,.T.);
#921 = EDGE_LOOP('',(#922,#923,#931,#937));
#922 = ORIENTED_EDGE('',*,*,#458,.T.);
#923 = ORIENTED_EDGE('',*,*,#924,.T.);
#924 = EDGE_CURVE('',#444,#925,#927,.T.);
#925 = VERTEX_POINT('',#926);
#926 = CARTESIAN_POINT('',(24.13923566879,2.266032267644,7.980155127206)
  );
#927 = LINE('',#928,#929);
#928 = CARTESIAN_POINT('',(24.13923566879,3.017786364273,7.706539012546)
  );
#929 = VECTOR('',#930,1.);
#930 = DIRECTION('',(0.,-0.939692620786,0.342020143326));
#931 = ORIENTED_EDGE('',*,*,#932,.T.);
#932 = EDGE_CURVE('',#925,#894,#933,.T.);
#933 = LINE('',#934,#935);
#934 = CARTESIAN_POINT('',(24.13923566879,2.266032267644,7.980155127206)
  );
#935 = VECTOR('',#936,1.);
#936 = DIRECTION('',(-1.,0.,0.));
#937 = ORIENTED_EDGE('',*,*,#893,.F.);
#938 = PLANE('',#939);
#939 = AXIS2_PLACEMENT_3D('',#940,#941,#942);
#940 = CARTESIAN_POINT('',(24.13923566879,3.017786364273,7.706539012546)
  );
#941 = DIRECTION('',(0.,-0.342020143326,-0.939692620786));
#942 = DIRECTION('',(-1.,0.,0.));
#943 = ADVANCED_FACE('',(#944),#962,.T.);
#944 = FACE_BOUND('',#945,.T.);
#945 = EDGE_LOOP('',(#946,#947,#955,#961));
#946 = ORIENTED_EDGE('',*,*,#443,.T.);
#947 = ORIENTED_EDGE('',*,*,#948,.T.);
#948 = EDGE_CURVE('',#429,#949,#951,.T.);
#949 = VERTEX_POINT('',#950);
#950 = CARTESIAN_POINT('',(22.929554140127,1.52413175802,5.941800229532)
  );
#951 = LINE('',#952,#953);
#952 = CARTESIAN_POINT('',(22.929554140127,2.275885854649,5.668184114872
    ));
#953 = VECTOR('',#954,1.);
#954 = DIRECTION('',(0.,-0.939692620786,0.342020143326));
#955 = ORIENTED_EDGE('',*,*,#956,.T.);
#956 = EDGE_CURVE('',#949,#925,#957,.T.);
#957 = B_SPLINE_CURVE_WITH_KNOTS('',2,(#958,#959,#960),.UNSPECIFIED.,.F.
  ,.F.,(3,3),(0.,1.),.PIECEWISE_BEZIER_KNOTS.);
#958 = CARTESIAN_POINT('',(22.929554140127,1.52413175802,5.941800229532)
  );
#959 = CARTESIAN_POINT('',(23.382547770701,1.939087152292,7.081880805375
    ));
#960 = CARTESIAN_POINT('',(24.13923566879,2.266032267644,7.980155127206)
  );
#961 = ORIENTED_EDGE('',*,*,#924,.F.);
#962 = SURFACE_OF_LINEAR_EXTRUSION('',#963,#967);
#963 = B_SPLINE_CURVE_WITH_KNOTS('',2,(#964,#965,#966),.UNSPECIFIED.,.F.
  ,.F.,(3,3),(0.,1.),.PIECEWISE_BEZIER_KNOTS.);
#964 = CARTESIAN_POINT('',(22.929554140127,2.275885854649,5.668184114872
    ));
#965 = CARTESIAN_POINT('',(23.382547770701,2.690841248921,6.808264690714
    ));
#966 = CARTESIAN_POINT('',(24.13923566879,3.017786364273,7.706539012546)
  );
#967 = VECTOR('',#968,1.);
#968 = DIRECTION('',(-0.,0.939692620786,-0.342020143326));
#969 = ADVANCED_FACE('',(#970),#988,.T.);
#970 = FACE_BOUND('',#971,.T.);
#971 = EDGE_LOOP('',(#972,#973,#981,#987));
#972 = ORIENTED_EDGE('',*,*,#428,.T.);
#973 = ORIENTED_EDGE('',*,*,#974,.T.);
#974 = EDGE_CURVE('',#421,#975,#977,.T.);
#975 = VERTEX_POINT('',#976);
#976 = CARTESIAN_POINT('',(22.450063694268,0.71008024746,3.705212085995)
  );
#977 = LINE('',#978,#979);
#978 = CARTESIAN_POINT('',(22.450063694268,1.461834344089,3.431595971335
    ));
#979 = VECTOR('',#980,1.);
#980 = DIRECTION('',(0.,-0.939692620786,0.342020143326));
#981 = ORIENTED_EDGE('',*,*,#982,.T.);
#982 = EDGE_CURVE('',#975,#949,#983,.T.);
#983 = B_SPLINE_CURVE_WITH_KNOTS('',2,(#984,#985,#986),.UNSPECIFIED.,.F.
  ,.F.,(3,3),(0.,1.),.PIECEWISE_BEZIER_KNOTS.);
#984 = CARTESIAN_POINT('',(22.450063694268,0.71008024746,3.705212085995)
  );
#985 = CARTESIAN_POINT('',(22.476815286624,1.109263502638,4.801959065822
    ));
#986 = CARTESIAN_POINT('',(22.929554140127,1.52413175802,5.941800229532)
  );
#987 = ORIENTED_EDGE('',*,*,#948,.F.);
#988 = SURFACE_OF_LINEAR_EXTRUSION('',#989,#993);
#989 = B_SPLINE_CURVE_WITH_KNOTS('',2,(#990,#991,#992),.UNSPECIFIED.,.F.
  ,.F.,(3,3),(0.,1.),.PIECEWISE_BEZIER_KNOTS.);
#990 = CARTESIAN_POINT('',(22.450063694268,1.461834344089,3.431595971335
    ));
#991 = CARTESIAN_POINT('',(22.476815286624,1.861017599267,4.528342951162
    ));
#992 = CARTESIAN_POINT('',(22.929554140127,2.275885854649,5.668184114872
    ));
#993 = VECTOR('',#994,1.);
#994 = DIRECTION('',(-0.,0.939692620786,-0.342020143326));
#995 = ADVANCED_FACE('',(#996),#1014,.T.);
#996 = FACE_BOUND('',#997,.T.);
#997 = EDGE_LOOP('',(#998,#999,#1007,#1013));
#998 = ORIENTED_EDGE('',*,*,#420,.T.);
#999 = ORIENTED_EDGE('',*,*,#1000,.T.);
#1000 = EDGE_CURVE('',#406,#1001,#1003,.T.);
#1001 = VERTEX_POINT('',#1002);
#1002 = CARTESIAN_POINT('',(23.485732484076,0.71008024746,3.705212085995
    ));
#1003 = LINE('',#1004,#1005);
#1004 = CARTESIAN_POINT('',(23.485732484076,1.461834344089,
    3.431595971335));
#1005 = VECTOR('',#1006,1.);
#1006 = DIRECTION('',(0.,-0.939692620786,0.342020143326));
#1007 = ORIENTED_EDGE('',*,*,#1008,.T.);
#1008 = EDGE_CURVE('',#1001,#975,#1009,.T.);
#1009 = LINE('',#1010,#1011);
#1010 = CARTESIAN_POINT('',(23.485732484076,0.71008024746,3.705212085995
    ));
#1011 = VECTOR('',#1012,1.);
#1012 = DIRECTION('',(-1.,0.,0.));
#1013 = ORIENTED_EDGE('',*,*,#974,.F.);
#1014 = PLANE('',#1015);
#1015 = AXIS2_PLACEMENT_3D('',#1016,#1017,#1018);
#1016 = CARTESIAN_POINT('',(23.485732484076,1.461834344089,
    3.431595971335));
#1017 = DIRECTION('',(0.,-0.342020143326,-0.939692620786));
#1018 = DIRECTION('',(-1.,0.,0.));
#1019 = ADVANCED_FACE('',(#1020),#1038,.T.);
#1020 = FACE_BOUND('',#1021,.T.);
#1021 = EDGE_LOOP('',(#1022,#1023,#1031,#1037));
#1022 = ORIENTED_EDGE('',*,*,#405,.T.);
#1023 = ORIENTED_EDGE('',*,*,#1024,.T.);
#1024 = EDGE_CURVE('',#391,#1025,#1027,.T.);
#1025 = VERTEX_POINT('',#1026);
#1026 = CARTESIAN_POINT('',(23.728280254777,1.287636810508,
    5.292035701427));
#1027 = LINE('',#1028,#1029);
#1028 = CARTESIAN_POINT('',(23.728280254777,2.039390907137,
    5.018419586766));
#1029 = VECTOR('',#1030,1.);
#1030 = DIRECTION('',(0.,-0.939692620786,0.342020143326));
#1031 = ORIENTED_EDGE('',*,*,#1032,.T.);
#1032 = EDGE_CURVE('',#1025,#1001,#1033,.T.);
#1033 = B_SPLINE_CURVE_WITH_KNOTS('',2,(#1034,#1035,#1036),
  .UNSPECIFIED.,.F.,.F.,(3,3),(0.,1.),.PIECEWISE_BEZIER_KNOTS.);
#1034 = CARTESIAN_POINT('',(23.728280254777,1.287636810508,
    5.292035701427));
#1035 = CARTESIAN_POINT('',(23.481910828025,0.964438667426,
    4.404056101301));
#1036 = CARTESIAN_POINT('',(23.485732484076,0.71008024746,3.705212085995
    ));
#1037 = ORIENTED_EDGE('',*,*,#1000,.F.);
#1038 = SURFACE_OF_LINEAR_EXTRUSION('',#1039,#1043);
#1039 = B_SPLINE_CURVE_WITH_KNOTS('',2,(#1040,#1041,#1042),
  .UNSPECIFIED.,.F.,.F.,(3,3),(0.,1.),.PIECEWISE_BEZIER_KNOTS.);
#1040 = CARTESIAN_POINT('',(23.728280254777,2.039390907137,
    5.018419586766));
#1041 = CARTESIAN_POINT('',(23.481910828025,1.716192764055,4.13043998664
    ));
#1042 = CARTESIAN_POINT('',(23.485732484076,1.461834344089,
    3.431595971335));
#1043 = VECTOR('',#1044,1.);
#1044 = DIRECTION('',(-0.,0.939692620786,-0.342020143326));
#1045 = ADVANCED_FACE('',(#1046),#1064,.T.);
#1046 = FACE_BOUND('',#1047,.T.);
#1047 = EDGE_LOOP('',(#1048,#1049,#1057,#1063));
#1048 = ORIENTED_EDGE('',*,*,#390,.T.);
#1049 = ORIENTED_EDGE('',*,*,#1050,.T.);
#1050 = EDGE_CURVE('',#376,#1051,#1053,.T.);
#1051 = VERTEX_POINT('',#1052);
#1052 = CARTESIAN_POINT('',(24.444968152866,1.897957596203,
    6.968878278748));
#1053 = LINE('',#1054,#1055);
#1054 = CARTESIAN_POINT('',(24.444968152866,2.649711692832,
    6.695262164087));
#1055 = VECTOR('',#1056,1.);
#1056 = DIRECTION('',(0.,-0.939692620786,0.342020143326));
#1057 = ORIENTED_EDGE('',*,*,#1058,.T.);
#1058 = EDGE_CURVE('',#1051,#1025,#1059,.T.);
#1059 = B_SPLINE_CURVE_WITH_KNOTS('',2,(#1060,#1061,#1062),
  .UNSPECIFIED.,.F.,.F.,(3,3),(0.,1.),.PIECEWISE_BEZIER_KNOTS.);
#1060 = CARTESIAN_POINT('',(24.444968152866,1.897957596203,
    6.968878278748));
#1061 = CARTESIAN_POINT('',(23.974904458599,1.610834953589,
    6.180015301553));
#1062 = CARTESIAN_POINT('',(23.728280254777,1.287636810508,
    5.292035701427));
#1063 = ORIENTED_EDGE('',*,*,#1024,.F.);
#1064 = SURFACE_OF_LINEAR_EXTRUSION('',#1065,#1069);
#1065 = B_SPLINE_CURVE_WITH_KNOTS('',2,(#1066,#1067,#1068),
  .UNSPECIFIED.,.F.,.F.,(3,3),(0.,1.),.PIECEWISE_BEZIER_KNOTS.);
#1066 = CARTESIAN_POINT('',(24.444968152866,2.649711692832,
    6.695262164087));
#1067 = CARTESIAN_POINT('',(23.974904458599,2.362589050218,
    5.906399186893));
#1068 = CARTESIAN_POINT('',(23.728280254777,2.039390907137,
    5.018419586766));
#1069 = VECTOR('',#1070,1.);
#1070 = DIRECTION('',(-0.,0.939692620786,-0.342020143326));
#1071 = ADVANCED_FACE('',(#1072),#1090,.T.);
#1072 = FACE_BOUND('',#1073,.T.);
#1073 = EDGE_LOOP('',(#1074,#1075,#1083,#1089));
#1074 = ORIENTED_EDGE('',*,*,#375,.T.);
#1075 = ORIENTED_EDGE('',*,*,#1076,.T.);
#1076 = EDGE_CURVE('',#368,#1077,#1079,.T.);
#1077 = VERTEX_POINT('',#1078);
#1078 = CARTESIAN_POINT('',(25.369808917197,2.33853182414,8.1793460216)
  );
#1079 = LINE('',#1080,#1081);
#1080 = CARTESIAN_POINT('',(25.369808917197,3.090285920769,
    7.905729906939));
#1081 = VECTOR('',#1082,1.);
#1082 = DIRECTION('',(0.,-0.939692620786,0.342020143326));
#1083 = ORIENTED_EDGE('',*,*,#1084,.T.);
#1084 = EDGE_CURVE('',#1077,#1051,#1085,.T.);
#1085 = B_SPLINE_CURVE_WITH_KNOTS('',2,(#1086,#1087,#1088),
  .UNSPECIFIED.,.F.,.F.,(3,3),(0.,1.),.PIECEWISE_BEZIER_KNOTS.);
#1086 = CARTESIAN_POINT('',(25.369808917197,2.33853182414,8.1793460216)
  );
#1087 = CARTESIAN_POINT('',(24.915031847134,2.185167377707,
    7.757980668075));
#1088 = CARTESIAN_POINT('',(24.444968152866,1.897957596203,
    6.968878278748));
#1089 = ORIENTED_EDGE('',*,*,#1050,.F.);
#1090 = SURFACE_OF_LINEAR_EXTRUSION('',#1091,#1095);
#1091 = B_SPLINE_CURVE_WITH_KNOTS('',2,(#1092,#1093,#1094),
  .UNSPECIFIED.,.F.,.F.,(3,3),(0.,1.),.PIECEWISE_BEZIER_KNOTS.);
#1092 = CARTESIAN_POINT('',(25.369808917197,3.090285920769,
    7.905729906939));
#1093 = CARTESIAN_POINT('',(24.915031847134,2.936921474335,
    7.484364553415));
#1094 = CARTESIAN_POINT('',(24.444968152866,2.649711692832,
    6.695262164087));
#1095 = VECTOR('',#1096,1.);
#1096 = DIRECTION('',(-0.,0.939692620786,-0.342020143326));
#1097 = ADVANCED_FACE('',(#1098),#1116,.T.);
#1098 = FACE_BOUND('',#1099,.T.);
#1099 = EDGE_LOOP('',(#1100,#1101,#1109,#1115));
#1100 = ORIENTED_EDGE('',*,*,#367,.T.);
#1101 = ORIENTED_EDGE('',*,*,#1102,.T.);
#1102 = EDGE_CURVE('',#360,#1103,#1105,.T.);
#1103 = VERTEX_POINT('',#1104);
#1104 = CARTESIAN_POINT('',(25.369808917197,2.60622249428,8.914820093206
    ));
#1105 = LINE('',#1106,#1107);
#1106 = CARTESIAN_POINT('',(25.369808917197,3.357976590908,
    8.641203978545));
#1107 = VECTOR('',#1108,1.);
#1108 = DIRECTION('',(0.,-0.939692620786,0.342020143326));
#1109 = ORIENTED_EDGE('',*,*,#1110,.T.);
#1110 = EDGE_CURVE('',#1103,#1077,#1111,.T.);
#1111 = LINE('',#1112,#1113);
#1112 = CARTESIAN_POINT('',(25.369808917197,2.60622249428,8.914820093206
    ));
#1113 = VECTOR('',#1114,1.);
#1114 = DIRECTION('',(0.,-0.342020143326,-0.939692620786));
#1115 = ORIENTED_EDGE('',*,*,#1076,.F.);
#1116 = PLANE('',#1117);
#1117 = AXIS2_PLACEMENT_3D('',#1118,#1119,#1120);
#1118 = CARTESIAN_POINT('',(25.369808917197,3.357976590908,
    8.641203978545));
#1119 = DIRECTION('',(1.,0.,0.));
#1120 = DIRECTION('',(0.,-0.342020143326,-0.939692620786));
#1121 = ADVANCED_FACE('',(#1122),#1133,.T.);
#1122 = FACE_BOUND('',#1123,.T.);
#1123 = EDGE_LOOP('',(#1124,#1125,#1126,#1132));
#1124 = ORIENTED_EDGE('',*,*,#359,.T.);
#1125 = ORIENTED_EDGE('',*,*,#909,.T.);
#1126 = ORIENTED_EDGE('',*,*,#1127,.T.);
#1127 = EDGE_CURVE('',#902,#1103,#1128,.T.);
#1128 = LINE('',#1129,#1130);
#1129 = CARTESIAN_POINT('',(21.697197452229,2.60622249428,8.914820093206
    ));
#1130 = VECTOR('',#1131,1.);
#1131 = DIRECTION('',(1.,0.,0.));
#1132 = ORIENTED_EDGE('',*,*,#1102,.F.);
#1133 = PLANE('',#1134);
#1134 = AXIS2_PLACEMENT_3D('',#1135,#1136,#1137);
#1135 = CARTESIAN_POINT('',(21.697197452229,3.357976590908,
    8.641203978545));
#1136 = DIRECTION('',(0.,0.342020143326,0.939692620786));
#1137 = DIRECTION('',(1.,0.,0.));
#1138 = ADVANCED_FACE('',(#1139),#1164,.T.);
#1139 = FACE_BOUND('',#1140,.T.);
#1140 = EDGE_LOOP('',(#1141,#1142,#1150,#1158));
#1141 = ORIENTED_EDGE('',*,*,#466,.T.);
#1142 = ORIENTED_EDGE('',*,*,#1143,.T.);
#1143 = EDGE_CURVE('',#469,#1144,#1146,.T.);
#1144 = VERTEX_POINT('',#1145);
#1145 = CARTESIAN_POINT('',(20.091337579618,0.71008024746,3.705212085995
    ));
#1146 = LINE('',#1147,#1148);
#1147 = CARTESIAN_POINT('',(20.091337579618,1.461834344089,
    3.431595971335));
#1148 = VECTOR('',#1149,1.);
#1149 = DIRECTION('',(0.,-0.939692620786,0.342020143326));
#1150 = ORIENTED_EDGE('',*,*,#1151,.T.);
#1151 = EDGE_CURVE('',#1144,#1152,#1154,.T.);
#1152 = VERTEX_POINT('',#1153);
#1153 = CARTESIAN_POINT('',(19.017452229299,0.71008024746,3.705212085995
    ));
#1154 = LINE('',#1155,#1156);
#1155 = CARTESIAN_POINT('',(20.091337579618,0.71008024746,3.705212085995
    ));
#1156 = VECTOR('',#1157,1.);
#1157 = DIRECTION('',(-1.,0.,0.));
#1158 = ORIENTED_EDGE('',*,*,#1159,.F.);
#1159 = EDGE_CURVE('',#467,#1152,#1160,.T.);
#1160 = LINE('',#1161,#1162);
#1161 = CARTESIAN_POINT('',(19.017452229299,1.461834344089,
    3.431595971335));
#1162 = VECTOR('',#1163,1.);
#1163 = DIRECTION('',(0.,-0.939692620786,0.342020143326));
#1164 = PLANE('',#1165);
#1165 = AXIS2_PLACEMENT_3D('',#1166,#1167,#1168);
#1166 = CARTESIAN_POINT('',(20.091337579618,1.461834344089,
    3.431595971335));
#1167 = DIRECTION('',(0.,-0.342020143326,-0.939692620786));
#1168 = DIRECTION('',(-1.,0.,0.));
#1169 = ADVANCED_FACE('',(#1170),#1188,.T.);
#1170 = FACE_BOUND('',#1171,.T.);
#1171 = EDGE_LOOP('',(#1172,#1173,#1181,#1187));
#1172 = ORIENTED_EDGE('',*,*,#546,.T.);
#1173 = ORIENTED_EDGE('',*,*,#1174,.T.);
#1174 = EDGE_CURVE('',#539,#1175,#1177,.T.);
#1175 = VERTEX_POINT('',#1176);
#1176 = CARTESIAN_POINT('',(20.091337579618,2.639683828047,
    9.006754352157));
#1177 = LINE('',#1178,#1179);
#1178 = CARTESIAN_POINT('',(20.091337579618,3.391437924676,
    8.733138237496));
#1179 = VECTOR('',#1180,1.);
#1180 = DIRECTION('',(0.,-0.939692620786,0.342020143326));
#1181 = ORIENTED_EDGE('',*,*,#1182,.T.);
#1182 = EDGE_CURVE('',#1175,#1144,#1183,.T.);
#1183 = LINE('',#1184,#1185);
#1184 = CARTESIAN_POINT('',(20.091337579618,2.639683828047,
    9.006754352157));
#1185 = VECTOR('',#1186,1.);
#1186 = DIRECTION('',(0.,-0.342020143326,-0.939692620786));
#1187 = ORIENTED_EDGE('',*,*,#1143,.F.);
#1188 = PLANE('',#1189);
#1189 = AXIS2_PLACEMENT_3D('',#1190,#1191,#1192);
#1190 = CARTESIAN_POINT('',(20.091337579618,3.391437924676,
    8.733138237496));
#1191 = DIRECTION('',(1.,0.,0.));
#1192 = DIRECTION('',(0.,-0.342020143326,-0.939692620786));
#1193 = ADVANCED_FACE('',(#1194),#1212,.T.);
#1194 = FACE_BOUND('',#1195,.T.);
#1195 = EDGE_LOOP('',(#1196,#1197,#1205,#1211));
#1196 = ORIENTED_EDGE('',*,*,#538,.T.);
#1197 = ORIENTED_EDGE('',*,*,#1198,.T.);
#1198 = EDGE_CURVE('',#520,#1199,#1201,.T.);
#1199 = VERTEX_POINT('',#1200);
#1200 = CARTESIAN_POINT('',(19.22,2.639683828047,9.006754352157));
#1201 = LINE('',#1202,#1203);
#1202 = CARTESIAN_POINT('',(19.22,3.391437924676,8.733138237496));
#1203 = VECTOR('',#1204,1.);
#1204 = DIRECTION('',(0.,-0.939692620786,0.342020143326));
#1205 = ORIENTED_EDGE('',*,*,#1206,.T.);
#1206 = EDGE_CURVE('',#1199,#1175,#1207,.T.);
#1207 = LINE('',#1208,#1209);
#1208 = CARTESIAN_POINT('',(19.22,2.639683828047,9.006754352157));
#1209 = VECTOR('',#1210,1.);
#1210 = DIRECTION('',(1.,0.,0.));
#1211 = ORIENTED_EDGE('',*,*,#1174,.F.);
#1212 = PLANE('',#1213);
#1213 = AXIS2_PLACEMENT_3D('',#1214,#1215,#1216);
#1214 = CARTESIAN_POINT('',(19.22,3.391437924676,8.733138237496));
#1215 = DIRECTION('',(0.,0.342020143326,0.939692620786));
#1216 = DIRECTION('',(1.,0.,0.));
#1217 = ADVANCED_FACE('',(#1218),#1236,.T.);
#1218 = FACE_BOUND('',#1219,.T.);
#1219 = EDGE_LOOP('',(#1220,#1221,#1229,#1235));
#1220 = ORIENTED_EDGE('',*,*,#519,.T.);
#1221 = ORIENTED_EDGE('',*,*,#1222,.T.);
#1222 = EDGE_CURVE('',#508,#1223,#1225,.T.);
#1223 = VERTEX_POINT('',#1224);
#1224 = CARTESIAN_POINT('',(18.543566878981,2.332954935179,
    8.164023645108));
#1225 = LINE('',#1226,#1227);
#1226 = CARTESIAN_POINT('',(18.543566878981,3.084709031808,
    7.890407530447));
#1227 = VECTOR('',#1228,1.);
#1228 = DIRECTION('',(0.,-0.939692620786,0.342020143326));
#1229 = ORIENTED_EDGE('',*,*,#1230,.T.);
#1230 = EDGE_CURVE('',#1223,#1199,#1231,.T.);
#1231 = B_SPLINE_CURVE_WITH_KNOTS('',2,(#1232,#1233,#1234),
  .UNSPECIFIED.,.F.,.F.,(3,3),(0.,1.),.PIECEWISE_BEZIER_KNOTS.);
#1232 = CARTESIAN_POINT('',(18.543566878981,2.332954935179,
    8.164023645108));
#1233 = CARTESIAN_POINT('',(19.036560509554,2.464447520218,
    8.525296553329));
#1234 = CARTESIAN_POINT('',(19.22,2.639683828047,9.006754352157));
#1235 = ORIENTED_EDGE('',*,*,#1198,.F.);
#1236 = SURFACE_OF_LINEAR_EXTRUSION('',#1237,#1241);
#1237 = B_SPLINE_CURVE_WITH_KNOTS('',2,(#1238,#1239,#1240),
  .UNSPECIFIED.,.F.,.F.,(3,3),(0.,1.),.PIECEWISE_BEZIER_KNOTS.);
#1238 = CARTESIAN_POINT('',(18.543566878981,3.084709031808,
    7.890407530447));
#1239 = CARTESIAN_POINT('',(19.036560509554,3.216201616847,
    8.251680438668));
#1240 = CARTESIAN_POINT('',(19.22,3.391437924676,8.733138237496));
#1241 = VECTOR('',#1242,1.);
#1242 = DIRECTION('',(-0.,0.939692620786,-0.342020143326));
#1243 = ADVANCED_FACE('',(#1244),#1262,.T.);
#1244 = FACE_BOUND('',#1245,.T.);
#1245 = EDGE_LOOP('',(#1246,#1247,#1255,#1261));
#1246 = ORIENTED_EDGE('',*,*,#507,.T.);
#1247 = ORIENTED_EDGE('',*,*,#1248,.T.);
#1248 = EDGE_CURVE('',#500,#1249,#1251,.T.);
#1249 = VERTEX_POINT('',#1250);
#1250 = CARTESIAN_POINT('',(17.630191082803,2.15449448842,7.67370759737)
  );
#1251 = LINE('',#1252,#1253);
#1252 = CARTESIAN_POINT('',(17.630191082803,2.906248585048,7.40009148271
    ));
#1253 = VECTOR('',#1254,1.);
#1254 = DIRECTION('',(0.,-0.939692620786,0.342020143326));
#1255 = ORIENTED_EDGE('',*,*,#1256,.T.);
#1256 = EDGE_CURVE('',#1249,#1223,#1257,.T.);
#1257 = B_SPLINE_CURVE_WITH_KNOTS('',2,(#1258,#1259,#1260),
  .UNSPECIFIED.,.F.,.F.,(3,3),(0.,1.),.PIECEWISE_BEZIER_KNOTS.);
#1258 = CARTESIAN_POINT('',(17.630191082803,2.15449448842,7.67370759737)
  );
#1259 = CARTESIAN_POINT('',(18.050573248408,2.20154948903,7.80299014902)
  );
#1260 = CARTESIAN_POINT('',(18.543566878981,2.332954935179,
    8.164023645108));
#1261 = ORIENTED_EDGE('',*,*,#1222,.F.);
#1262 = SURFACE_OF_LINEAR_EXTRUSION('',#1263,#1267);
#1263 = B_SPLINE_CURVE_WITH_KNOTS('',2,(#1264,#1265,#1266),
  .UNSPECIFIED.,.F.,.F.,(3,3),(0.,1.),.PIECEWISE_BEZIER_KNOTS.);
#1264 = CARTESIAN_POINT('',(17.630191082803,2.906248585048,7.40009148271
    ));
#1265 = CARTESIAN_POINT('',(18.050573248408,2.953303585659,
    7.529374034359));
#1266 = CARTESIAN_POINT('',(18.543566878981,3.084709031808,
    7.890407530447));
#1267 = VECTOR('',#1268,1.);
#1268 = DIRECTION('',(-0.,0.939692620786,-0.342020143326));
#1269 = ADVANCED_FACE('',(#1270),#1288,.T.);
#1270 = FACE_BOUND('',#1271,.T.);
#1271 = EDGE_LOOP('',(#1272,#1273,#1281,#1287));
#1272 = ORIENTED_EDGE('',*,*,#499,.T.);
#1273 = ORIENTED_EDGE('',*,*,#1274,.T.);
#1274 = EDGE_CURVE('',#485,#1275,#1277,.T.);
#1275 = VERTEX_POINT('',#1276);
#1276 = CARTESIAN_POINT('',(17.630191082803,1.819881150746,
    6.754365007863));
#1277 = LINE('',#1278,#1279);
#1278 = CARTESIAN_POINT('',(17.630191082803,2.571635247374,
    6.480748893202));
#1279 = VECTOR('',#1280,1.);
#1280 = DIRECTION('',(0.,-0.939692620786,0.342020143326));
#1281 = ORIENTED_EDGE('',*,*,#1282,.T.);
#1282 = EDGE_CURVE('',#1275,#1249,#1283,.T.);
#1283 = LINE('',#1284,#1285);
#1284 = CARTESIAN_POINT('',(17.630191082803,1.819881150746,
    6.754365007863));
#1285 = VECTOR('',#1286,1.);
#1286 = DIRECTION('',(0.,0.342020143326,0.939692620786));
#1287 = ORIENTED_EDGE('',*,*,#1248,.F.);
#1288 = PLANE('',#1289);
#1289 = AXIS2_PLACEMENT_3D('',#1290,#1291,#1292);
#1290 = CARTESIAN_POINT('',(17.630191082803,2.571635247374,
    6.480748893202));
#1291 = DIRECTION('',(-1.,0.,0.));
#1292 = DIRECTION('',(0.,0.342020143326,0.939692620786));
#1293 = ADVANCED_FACE('',(#1294),#1312,.T.);
#1294 = FACE_BOUND('',#1295,.T.);
#1295 = EDGE_LOOP('',(#1296,#1297,#1305,#1311));
#1296 = ORIENTED_EDGE('',*,*,#484,.T.);
#1297 = ORIENTED_EDGE('',*,*,#1298,.T.);
#1298 = EDGE_CURVE('',#477,#1299,#1301,.T.);
#1299 = VERTEX_POINT('',#1300);
#1300 = CARTESIAN_POINT('',(19.017452229299,2.099422709928,
    7.522399129514));
#1301 = LINE('',#1302,#1303);
#1302 = CARTESIAN_POINT('',(19.017452229299,2.851176806556,
    7.248783014853));
#1303 = VECTOR('',#1304,1.);
#1304 = DIRECTION('',(0.,-0.939692620786,0.342020143326));
#1305 = ORIENTED_EDGE('',*,*,#1306,.T.);
#1306 = EDGE_CURVE('',#1299,#1275,#1307,.T.);
#1307 = B_SPLINE_CURVE_WITH_KNOTS('',2,(#1308,#1309,#1310),
  .UNSPECIFIED.,.F.,.F.,(3,3),(0.,1.),.PIECEWISE_BEZIER_KNOTS.);
#1308 = CARTESIAN_POINT('',(19.017452229299,2.099422709928,
    7.522399129514));
#1309 = CARTESIAN_POINT('',(18.428917197452,1.910418457476,
    7.003114213722));
#1310 = CARTESIAN_POINT('',(17.630191082803,1.819881150746,
    6.754365007863));
#1311 = ORIENTED_EDGE('',*,*,#1274,.F.);
#1312 = SURFACE_OF_LINEAR_EXTRUSION('',#1313,#1317);
#1313 = B_SPLINE_CURVE_WITH_KNOTS('',2,(#1314,#1315,#1316),
  .UNSPECIFIED.,.F.,.F.,(3,3),(0.,1.),.PIECEWISE_BEZIER_KNOTS.);
#1314 = CARTESIAN_POINT('',(19.017452229299,2.851176806556,
    7.248783014853));
#1315 = CARTESIAN_POINT('',(18.428917197452,2.662172554104,
    6.729498099061));
#1316 = CARTESIAN_POINT('',(17.630191082803,2.571635247374,
    6.480748893202));
#1317 = VECTOR('',#1318,1.);
#1318 = DIRECTION('',(-0.,0.939692620786,-0.342020143326));
#1319 = ADVANCED_FACE('',(#1320),#1331,.T.);
#1320 = FACE_BOUND('',#1321,.T.);
#1321 = EDGE_LOOP('',(#1322,#1323,#1324,#1330));
#1322 = ORIENTED_EDGE('',*,*,#476,.T.);
#1323 = ORIENTED_EDGE('',*,*,#1159,.T.);
#1324 = ORIENTED_EDGE('',*,*,#1325,.T.);
#1325 = EDGE_CURVE('',#1152,#1299,#1326,.T.);
#1326 = LINE('',#1327,#1328);
#1327 = CARTESIAN_POINT('',(19.017452229299,0.71008024746,3.705212085995
    ));
#1328 = VECTOR('',#1329,1.);
#1329 = DIRECTION('',(0.,0.342020143326,0.939692620786));
#1330 = ORIENTED_EDGE('',*,*,#1298,.F.);
#1331 = PLANE('',#1332);
#1332 = AXIS2_PLACEMENT_3D('',#1333,#1334,#1335);
#1333 = CARTESIAN_POINT('',(19.017452229299,1.461834344089,
    3.431595971335));
#1334 = DIRECTION('',(-1.,0.,0.));
#1335 = DIRECTION('',(0.,0.342020143326,0.939692620786));
#1336 = ADVANCED_FACE('',(#1337),#1362,.F.);
#1337 = FACE_BOUND('',#1338,.F.);
#1338 = EDGE_LOOP('',(#1339,#1347,#1355,#1361));
#1339 = ORIENTED_EDGE('',*,*,#1340,.F.);
#1340 = EDGE_CURVE('',#1341,#284,#1343,.T.);
#1341 = VERTEX_POINT('',#1342);
#1342 = CARTESIAN_POINT('',(47.,18.9,0.));
#1343 = LINE('',#1344,#1345);
#1344 = CARTESIAN_POINT('',(47.,18.9,0.));
#1345 = VECTOR('',#1346,1.);
#1346 = DIRECTION('',(-0.971520338783,-0.236956180191,0.));
#1347 = ORIENTED_EDGE('',*,*,#1348,.T.);
#1348 = EDGE_CURVE('',#1341,#1349,#1351,.T.);
#1349 = VERTEX_POINT('',#1350);
#1350 = CARTESIAN_POINT('',(47.,18.9,10.));
#1351 = LINE('',#1352,#1353);
#1352 = CARTESIAN_POINT('',(47.,18.9,0.));
#1353 = VECTOR('',#1354,1.);
#1354 = DIRECTION('',(0.,0.,1.));
#1355 = ORIENTED_EDGE('',*,*,#1356,.T.);
#1356 = EDGE_CURVE('',#1349,#95,#1357,.T.);
#1357 = LINE('',#1358,#1359);
#1358 = CARTESIAN_POINT('',(47.,18.9,10.));
#1359 = VECTOR('',#1360,1.);
#1360 = DIRECTION('',(-0.971520338783,-0.236956180191,0.));
#1361 = ORIENTED_EDGE('',*,*,#629,.T.);
#1362 = PLANE('',#1363);
#1363 = AXIS2_PLACEMENT_3D('',#1364,#1365,#1366);
#1364 = CARTESIAN_POINT('',(47.,18.9,0.));
#1365 = DIRECTION('',(0.236956180191,-0.971520338783,0.));
#1366 = DIRECTION('',(-0.971520338783,-0.236956180191,0.));
#1367 = ADVANCED_FACE('',(#1368),#1386,.T.);
#1368 = FACE_BOUND('',#1369,.T.);
#1369 = EDGE_LOOP('',(#1370,#1371,#1379,#1385));
#1370 = ORIENTED_EDGE('',*,*,#646,.F.);
#1371 = ORIENTED_EDGE('',*,*,#1372,.T.);
#1372 = EDGE_CURVE('',#71,#1373,#1375,.T.);
#1373 = VERTEX_POINT('',#1374);
#1374 = CARTESIAN_POINT('',(47.,12.9,10.));
#1375 = LINE('',#1376,#1377);
#1376 = CARTESIAN_POINT('',(42.9,13.9,10.));
#1377 = VECTOR('',#1378,1.);
#1378 = DIRECTION('',(0.971520338783,-0.236956180191,0.));
#1379 = ORIENTED_EDGE('',*,*,#1380,.T.);
#1380 = EDGE_CURVE('',#1373,#1349,#1381,.T.);
#1381 = LINE('',#1382,#1383);
#1382 = CARTESIAN_POINT('',(47.,12.9,10.));
#1383 = VECTOR('',#1384,1.);
#1384 = DIRECTION('',(0.,1.,0.));
#1385 = ORIENTED_EDGE('',*,*,#1356,.T.);
#1386 = PLANE('',#1387);
#1387 = AXIS2_PLACEMENT_3D('',#1388,#1389,#1390);
#1388 = CARTESIAN_POINT('',(45.172338161771,15.9,10.));
#1389 = DIRECTION('',(0.,0.,1.));
#1390 = DIRECTION('',(1.,0.,0.));
#1391 = ADVANCED_FACE('',(#1392),#1410,.F.);
#1392 = FACE_BOUND('',#1393,.F.);
#1393 = EDGE_LOOP('',(#1394,#1402,#1403,#1404));
#1394 = ORIENTED_EDGE('',*,*,#1395,.F.);
#1395 = EDGE_CURVE('',#260,#1396,#1398,.T.);
#1396 = VERTEX_POINT('',#1397);
#1397 = CARTESIAN_POINT('',(47.,12.9,0.));
#1398 = LINE('',#1399,#1400);
#1399 = CARTESIAN_POINT('',(42.9,13.9,0.));
#1400 = VECTOR('',#1401,1.);
#1401 = DIRECTION('',(0.971520338783,-0.236956180191,0.));
#1402 = ORIENTED_EDGE('',*,*,#665,.T.);
#1403 = ORIENTED_EDGE('',*,*,#1372,.T.);
#1404 = ORIENTED_EDGE('',*,*,#1405,.F.);
#1405 = EDGE_CURVE('',#1396,#1373,#1406,.T.);
#1406 = LINE('',#1407,#1408);
#1407 = CARTESIAN_POINT('',(47.,12.9,0.));
#1408 = VECTOR('',#1409,1.);
#1409 = DIRECTION('',(0.,0.,1.));
#1410 = PLANE('',#1411);
#1411 = AXIS2_PLACEMENT_3D('',#1412,#1413,#1414);
#1412 = CARTESIAN_POINT('',(42.9,13.9,0.));
#1413 = DIRECTION('',(0.236956180191,0.971520338783,0.));
#1414 = DIRECTION('',(0.971520338783,-0.236956180191,0.));
#1415 = ADVANCED_FACE('',(#1416),#1442,.T.);
#1416 = FACE_BOUND('',#1417,.T.);
#1417 = EDGE_LOOP('',(#1418,#1426,#1427,#1435));
#1418 = ORIENTED_EDGE('',*,*,#1419,.F.);
#1419 = EDGE_CURVE('',#680,#1420,#1422,.T.);
#1420 = VERTEX_POINT('',#1421);
#1421 = CARTESIAN_POINT('',(16.6,37.86,21.));
#1422 = LINE('',#1423,#1424);
#1423 = CARTESIAN_POINT('',(16.6,38.11,20.75));
#1424 = VECTOR('',#1425,1.);
#1425 = DIRECTION('',(-2.90882763039E-35,-0.707106781187,0.707106781187)
  );
#1426 = ORIENTED_EDGE('',*,*,#696,.T.);
#1427 = ORIENTED_EDGE('',*,*,#1428,.T.);
#1428 = EDGE_CURVE('',#689,#1429,#1431,.T.);
#1429 = VERTEX_POINT('',#1430);
#1430 = CARTESIAN_POINT('',(16.5,37.76,21.));
#1431 = LINE('',#1432,#1433);
#1432 = CARTESIAN_POINT('',(16.,37.76,20.5));
#1433 = VECTOR('',#1434,1.);
#1434 = DIRECTION('',(0.707106781187,-4.329780281177E-17,0.707106781187)
  );
#1435 = ORIENTED_EDGE('',*,*,#1436,.F.);
#1436 = EDGE_CURVE('',#1420,#1429,#1437,.T.);
#1437 = CIRCLE('',#1438,1.E-01);
#1438 = AXIS2_PLACEMENT_3D('',#1439,#1440,#1441);
#1439 = CARTESIAN_POINT('',(16.6,37.76,21.));
#1440 = DIRECTION('',(0.,-0.,1.));
#1441 = DIRECTION('',(0.,1.,0.));
#1442 = CONICAL_SURFACE('',#1443,0.6,0.785398163397);
#1443 = AXIS2_PLACEMENT_3D('',#1444,#1445,#1446);
#1444 = CARTESIAN_POINT('',(16.6,37.76,20.5));
#1445 = DIRECTION('',(-0.,-0.,-1.));
#1446 = DIRECTION('',(0.,1.,0.));
#1447 = ADVANCED_FACE('',(#1448),#1466,.F.);
#1448 = FACE_BOUND('',#1449,.T.);
#1449 = EDGE_LOOP('',(#1450,#1458,#1459,#1460));
#1450 = ORIENTED_EDGE('',*,*,#1451,.F.);
#1451 = EDGE_CURVE('',#713,#1452,#1454,.T.);
#1452 = VERTEX_POINT('',#1453);
#1453 = CARTESIAN_POINT('',(26.4,37.86,21.));
#1454 = LINE('',#1455,#1456);
#1455 = CARTESIAN_POINT('',(26.4,38.11,20.75));
#1456 = VECTOR('',#1457,1.);
#1457 = DIRECTION('',(-2.90882763039E-35,-0.707106781187,0.707106781187)
  );
#1458 = ORIENTED_EDGE('',*,*,#720,.T.);
#1459 = ORIENTED_EDGE('',*,*,#1419,.T.);
#1460 = ORIENTED_EDGE('',*,*,#1461,.F.);
#1461 = EDGE_CURVE('',#1452,#1420,#1462,.T.);
#1462 = LINE('',#1463,#1464);
#1463 = CARTESIAN_POINT('',(26.4,37.86,21.));
#1464 = VECTOR('',#1465,1.);
#1465 = DIRECTION('',(-1.,0.,0.));
#1466 = PLANE('',#1467);
#1467 = AXIS2_PLACEMENT_3D('',#1468,#1469,#1470);
#1468 = CARTESIAN_POINT('',(26.4,38.11,20.75));
#1469 = DIRECTION('',(-1.889513820523E-18,-0.707106781187,
    -0.707106781187));
#1470 = DIRECTION('',(1.,-1.336088035637E-18,-1.336088035637E-18));
#1471 = ADVANCED_FACE('',(#1472),#1490,.F.);
#1472 = FACE_BOUND('',#1473,.T.);
#1473 = EDGE_LOOP('',(#1474,#1475,#1476,#1484));
#1474 = ORIENTED_EDGE('',*,*,#1428,.F.);
#1475 = ORIENTED_EDGE('',*,*,#737,.T.);
#1476 = ORIENTED_EDGE('',*,*,#1477,.T.);
#1477 = EDGE_CURVE('',#738,#1478,#1480,.T.);
#1478 = VERTEX_POINT('',#1479);
#1479 = CARTESIAN_POINT('',(16.5,27.96,21.));
#1480 = LINE('',#1481,#1482);
#1481 = CARTESIAN_POINT('',(16.25,27.96,20.75));
#1482 = VECTOR('',#1483,1.);
#1483 = DIRECTION('',(0.707106781187,-2.90882763039E-35,0.707106781187)
  );
#1484 = ORIENTED_EDGE('',*,*,#1485,.F.);
#1485 = EDGE_CURVE('',#1429,#1478,#1486,.T.);
#1486 = LINE('',#1487,#1488);
#1487 = CARTESIAN_POINT('',(16.5,37.76,21.));
#1488 = VECTOR('',#1489,1.);
#1489 = DIRECTION('',(0.,-1.,0.));
#1490 = PLANE('',#1491);
#1491 = AXIS2_PLACEMENT_3D('',#1492,#1493,#1494);
#1492 = CARTESIAN_POINT('',(16.25,37.76,20.75));
#1493 = DIRECTION('',(0.707106781187,1.889513820523E-18,-0.707106781187)
  );
#1494 = DIRECTION('',(-1.336088035637E-18,1.,1.336088035637E-18));
#1495 = ADVANCED_FACE('',(#1496),#1515,.T.);
#1496 = FACE_BOUND('',#1497,.T.);
#1497 = EDGE_LOOP('',(#1498,#1506,#1507,#1508));
#1498 = ORIENTED_EDGE('',*,*,#1499,.F.);
#1499 = EDGE_CURVE('',#762,#1500,#1502,.T.);
#1500 = VERTEX_POINT('',#1501);
#1501 = CARTESIAN_POINT('',(26.5,37.76,21.));
#1502 = LINE('',#1503,#1504);
#1503 = CARTESIAN_POINT('',(26.75,37.76,20.75));
#1504 = VECTOR('',#1505,1.);
#1505 = DIRECTION('',(-0.707106781187,2.90882763039E-35,0.707106781187)
  );
#1506 = ORIENTED_EDGE('',*,*,#769,.T.);
#1507 = ORIENTED_EDGE('',*,*,#1451,.T.);
#1508 = ORIENTED_EDGE('',*,*,#1509,.F.);
#1509 = EDGE_CURVE('',#1500,#1452,#1510,.T.);
#1510 = CIRCLE('',#1511,1.E-01);
#1511 = AXIS2_PLACEMENT_3D('',#1512,#1513,#1514);
#1512 = CARTESIAN_POINT('',(26.4,37.76,21.));
#1513 = DIRECTION('',(0.,0.,1.));
#1514 = DIRECTION('',(1.,0.,0.));
#1515 = CONICAL_SURFACE('',#1516,0.6,0.785398163397);
#1516 = AXIS2_PLACEMENT_3D('',#1517,#1518,#1519);
#1517 = CARTESIAN_POINT('',(26.4,37.76,20.5));
#1518 = DIRECTION('',(-0.,-0.,-1.));
#1519 = DIRECTION('',(1.,0.,0.));
#1520 = ADVANCED_FACE('',(#1521),#1540,.T.);
#1521 = FACE_BOUND('',#1522,.T.);
#1522 = EDGE_LOOP('',(#1523,#1524,#1525,#1533));
#1523 = ORIENTED_EDGE('',*,*,#1477,.F.);
#1524 = ORIENTED_EDGE('',*,*,#794,.T.);
#1525 = ORIENTED_EDGE('',*,*,#1526,.T.);
#1526 = EDGE_CURVE('',#787,#1527,#1529,.T.);
#1527 = VERTEX_POINT('',#1528);
#1528 = CARTESIAN_POINT('',(16.6,27.86,21.));
#1529 = LINE('',#1530,#1531);
#1530 = CARTESIAN_POINT('',(16.6,27.36,20.5));
#1531 = VECTOR('',#1532,1.);
#1532 = DIRECTION('',(4.329780281177E-17,0.707106781187,0.707106781187)
  );
#1533 = ORIENTED_EDGE('',*,*,#1534,.F.);
#1534 = EDGE_CURVE('',#1478,#1527,#1535,.T.);
#1535 = CIRCLE('',#1536,1.E-01);
#1536 = AXIS2_PLACEMENT_3D('',#1537,#1538,#1539);
#1537 = CARTESIAN_POINT('',(16.6,27.96,21.));
#1538 = DIRECTION('',(0.,0.,1.));
#1539 = DIRECTION('',(-1.,0.,0.));
#1540 = CONICAL_SURFACE('',#1541,0.6,0.785398163397);
#1541 = AXIS2_PLACEMENT_3D('',#1542,#1543,#1544);
#1542 = CARTESIAN_POINT('',(16.6,27.96,20.5));
#1543 = DIRECTION('',(-0.,-0.,-1.));
#1544 = DIRECTION('',(-1.,0.,0.));
#1545 = ADVANCED_FACE('',(#1546),#1564,.F.);
#1546 = FACE_BOUND('',#1547,.T.);
#1547 = EDGE_LOOP('',(#1548,#1556,#1557,#1558));
#1548 = ORIENTED_EDGE('',*,*,#1549,.F.);
#1549 = EDGE_CURVE('',#811,#1550,#1552,.T.);
#1550 = VERTEX_POINT('',#1551);
#1551 = CARTESIAN_POINT('',(26.5,27.96,21.));
#1552 = LINE('',#1553,#1554);
#1553 = CARTESIAN_POINT('',(27.,27.96,20.5));
#1554 = VECTOR('',#1555,1.);
#1555 = DIRECTION('',(-0.707106781187,4.329780281177E-17,0.707106781187)
  );
#1556 = ORIENTED_EDGE('',*,*,#818,.T.);
#1557 = ORIENTED_EDGE('',*,*,#1499,.T.);
#1558 = ORIENTED_EDGE('',*,*,#1559,.F.);
#1559 = EDGE_CURVE('',#1550,#1500,#1560,.T.);
#1560 = LINE('',#1561,#1562);
#1561 = CARTESIAN_POINT('',(26.5,27.96,21.));
#1562 = VECTOR('',#1563,1.);
#1563 = DIRECTION('',(0.,1.,0.));
#1564 = PLANE('',#1565);
#1565 = AXIS2_PLACEMENT_3D('',#1566,#1567,#1568);
#1566 = CARTESIAN_POINT('',(26.75,27.96,20.75));
#1567 = DIRECTION('',(-0.707106781187,-1.889513820523E-18,
    -0.707106781187));
#1568 = DIRECTION('',(1.336088035637E-18,-1.,1.336088035637E-18));
#1569 = ADVANCED_FACE('',(#1570),#1588,.F.);
#1570 = FACE_BOUND('',#1571,.T.);
#1571 = EDGE_LOOP('',(#1572,#1573,#1574,#1582));
#1572 = ORIENTED_EDGE('',*,*,#1526,.F.);
#1573 = ORIENTED_EDGE('',*,*,#835,.T.);
#1574 = ORIENTED_EDGE('',*,*,#1575,.T.);
#1575 = EDGE_CURVE('',#836,#1576,#1578,.T.);
#1576 = VERTEX_POINT('',#1577);
#1577 = CARTESIAN_POINT('',(26.4,27.86,21.));
#1578 = LINE('',#1579,#1580);
#1579 = CARTESIAN_POINT('',(26.4,27.61,20.75));
#1580 = VECTOR('',#1581,1.);
#1581 = DIRECTION('',(2.90882763039E-35,0.707106781187,0.707106781187));
#1582 = ORIENTED_EDGE('',*,*,#1583,.F.);
#1583 = EDGE_CURVE('',#1527,#1576,#1584,.T.);
#1584 = LINE('',#1585,#1586);
#1585 = CARTESIAN_POINT('',(16.6,27.86,21.));
#1586 = VECTOR('',#1587,1.);
#1587 = DIRECTION('',(1.,0.,0.));
#1588 = PLANE('',#1589);
#1589 = AXIS2_PLACEMENT_3D('',#1590,#1591,#1592);
#1590 = CARTESIAN_POINT('',(16.6,27.61,20.75));
#1591 = DIRECTION('',(1.889513820523E-18,0.707106781187,-0.707106781187)
  );
#1592 = DIRECTION('',(-1.,1.336088035637E-18,-1.336088035637E-18));
#1593 = ADVANCED_FACE('',(#1594),#1606,.T.);
#1594 = FACE_BOUND('',#1595,.T.);
#1595 = EDGE_LOOP('',(#1596,#1597,#1598,#1599));
#1596 = ORIENTED_EDGE('',*,*,#1575,.F.);
#1597 = ORIENTED_EDGE('',*,*,#860,.T.);
#1598 = ORIENTED_EDGE('',*,*,#1549,.T.);
#1599 = ORIENTED_EDGE('',*,*,#1600,.F.);
#1600 = EDGE_CURVE('',#1576,#1550,#1601,.T.);
#1601 = CIRCLE('',#1602,1.E-01);
#1602 = AXIS2_PLACEMENT_3D('',#1603,#1604,#1605);
#1603 = CARTESIAN_POINT('',(26.4,27.96,21.));
#1604 = DIRECTION('',(-0.,0.,1.));
#1605 = DIRECTION('',(0.,-1.,0.));
#1606 = CONICAL_SURFACE('',#1607,0.6,0.785398163397);
#1607 = AXIS2_PLACEMENT_3D('',#1608,#1609,#1610);
#1608 = CARTESIAN_POINT('',(26.4,27.96,20.5));
#1609 = DIRECTION('',(-0.,-0.,-1.));
#1610 = DIRECTION('',(0.,-1.,0.));
#1611 = ADVANCED_FACE('',(#1612),#1623,.F.);
#1612 = FACE_BOUND('',#1613,.F.);
#1613 = EDGE_LOOP('',(#1614,#1615,#1616,#1622));
#1614 = ORIENTED_EDGE('',*,*,#876,.F.);
#1615 = ORIENTED_EDGE('',*,*,#1395,.T.);
#1616 = ORIENTED_EDGE('',*,*,#1617,.T.);
#1617 = EDGE_CURVE('',#1396,#1341,#1618,.T.);
#1618 = LINE('',#1619,#1620);
#1619 = CARTESIAN_POINT('',(47.,12.9,0.));
#1620 = VECTOR('',#1621,1.);
#1621 = DIRECTION('',(0.,1.,0.));
#1622 = ORIENTED_EDGE('',*,*,#1340,.T.);
#1623 = PLANE('',#1624);
#1624 = AXIS2_PLACEMENT_3D('',#1625,#1626,#1627);
#1625 = CARTESIAN_POINT('',(45.172338161771,15.9,0.));
#1626 = DIRECTION('',(0.,0.,1.));
#1627 = DIRECTION('',(1.,0.,0.));
#1628 = ADVANCED_FACE('',(#1629),#1641,.T.);
#1629 = FACE_BOUND('',#1630,.F.);
#1630 = EDGE_LOOP('',(#1631,#1632,#1633,#1634,#1635,#1636,#1637,#1638,
    #1639,#1640));
#1631 = ORIENTED_EDGE('',*,*,#901,.T.);
#1632 = ORIENTED_EDGE('',*,*,#1127,.T.);
#1633 = ORIENTED_EDGE('',*,*,#1110,.T.);
#1634 = ORIENTED_EDGE('',*,*,#1084,.T.);
#1635 = ORIENTED_EDGE('',*,*,#1058,.T.);
#1636 = ORIENTED_EDGE('',*,*,#1032,.T.);
#1637 = ORIENTED_EDGE('',*,*,#1008,.T.);
#1638 = ORIENTED_EDGE('',*,*,#982,.T.);
#1639 = ORIENTED_EDGE('',*,*,#956,.T.);
#1640 = ORIENTED_EDGE('',*,*,#932,.T.);
#1641 = PLANE('',#1642);
#1642 = AXIS2_PLACEMENT_3D('',#1643,#1644,#1645);
#1643 = CARTESIAN_POINT('',(23.453838256053,1.877888413251,
    6.913738651761));
#1644 = DIRECTION('',(0.,-0.939692620786,0.342020143326));
#1645 = DIRECTION('',(1.,0.,0.));
#1646 = ADVANCED_FACE('',(#1647),#1657,.T.);
#1647 = FACE_BOUND('',#1648,.F.);
#1648 = EDGE_LOOP('',(#1649,#1650,#1651,#1652,#1653,#1654,#1655,#1656));
#1649 = ORIENTED_EDGE('',*,*,#1151,.T.);
#1650 = ORIENTED_EDGE('',*,*,#1325,.T.);
#1651 = ORIENTED_EDGE('',*,*,#1306,.T.);
#1652 = ORIENTED_EDGE('',*,*,#1282,.T.);
#1653 = ORIENTED_EDGE('',*,*,#1256,.T.);
#1654 = ORIENTED_EDGE('',*,*,#1230,.T.);
#1655 = ORIENTED_EDGE('',*,*,#1206,.T.);
#1656 = ORIENTED_EDGE('',*,*,#1182,.T.);
#1657 = PLANE('',#1658);
#1658 = AXIS2_PLACEMENT_3D('',#1659,#1660,#1661);
#1659 = CARTESIAN_POINT('',(19.240048731584,1.73316222789,6.516106725477
    ));
#1660 = DIRECTION('',(0.,-0.939692620786,0.342020143326));
#1661 = DIRECTION('',(1.,0.,0.));
#1662 = ADVANCED_FACE('',(#1663),#1669,.F.);
#1663 = FACE_BOUND('',#1664,.F.);
#1664 = EDGE_LOOP('',(#1665,#1666,#1667,#1668));
#1665 = ORIENTED_EDGE('',*,*,#1405,.T.);
#1666 = ORIENTED_EDGE('',*,*,#1380,.T.);
#1667 = ORIENTED_EDGE('',*,*,#1348,.F.);
#1668 = ORIENTED_EDGE('',*,*,#1617,.F.);
#1669 = PLANE('',#1670);
#1670 = AXIS2_PLACEMENT_3D('',#1671,#1672,#1673);
#1671 = CARTESIAN_POINT('',(47.,12.9,0.));
#1672 = DIRECTION('',(-1.,0.,0.));
#1673 = DIRECTION('',(0.,1.,0.));
#1674 = ADVANCED_FACE('',(#1675),#1685,.T.);
#1675 = FACE_BOUND('',#1676,.T.);
#1676 = EDGE_LOOP('',(#1677,#1678,#1679,#1680,#1681,#1682,#1683,#1684));
#1677 = ORIENTED_EDGE('',*,*,#1461,.T.);
#1678 = ORIENTED_EDGE('',*,*,#1436,.T.);
#1679 = ORIENTED_EDGE('',*,*,#1485,.T.);
#1680 = ORIENTED_EDGE('',*,*,#1534,.T.);
#1681 = ORIENTED_EDGE('',*,*,#1583,.T.);
#1682 = ORIENTED_EDGE('',*,*,#1600,.T.);
#1683 = ORIENTED_EDGE('',*,*,#1559,.T.);
#1684 = ORIENTED_EDGE('',*,*,#1509,.T.);
#1685 = PLANE('',#1686);
#1686 = AXIS2_PLACEMENT_3D('',#1687,#1688,#1689);
#1687 = CARTESIAN_POINT('',(21.5,32.86,21.));
#1688 = DIRECTION('',(0.,0.,1.));
#1689 = DIRECTION('',(1.,0.,0.));
#1690 = ( GEOMETRIC_REPRESENTATION_CONTEXT(3) 
GLOBAL_UNCERTAINTY_ASSIGNED_CONTEXT((#1694)) 
GLOBAL_UNIT_ASSIGNED_CONTEXT((#1691,#1692,#1693)) REPRESENTATION_CONTEXT
('Context #1','3D Context with UNIT and UNCERTAINTY') );
#1691 = ( LENGTH_UNIT() NAMED_UNIT(*) SI_UNIT(.MILLI.,.METRE.) );
#1692 = ( NAMED_UNIT(*) PLANE_ANGLE_UNIT() SI_UNIT($,.RADIAN.) );
#1693 = ( NAMED_UNIT(*) SI_UNIT($,.STERADIAN.) SOLID_ANGLE_UNIT() );
#1694 = UNCERTAINTY_MEASURE_WITH_UNIT(LENGTH_MEASURE(5.E-07),#1691,
  'distance_accuracy_value','confusion accuracy');
#1695 = PRODUCT_RELATED_PRODUCT_CATEGORY('part',$,(#7));
ENDSEC;
END-ISO-10303-21;
