ISO-10303-21;
HEADER;
FILE_DESCRIPTION(('FreeCAD Model'),'2;1');
FILE_NAME('Open CASCADE Shape Model','2026-08-30T15:30:43',('FreeCAD'),(
    'FreeCAD'),'Open CASCADE STEP processor 7.8','FreeCAD','Unknown');
FILE_SCHEMA(('AUTOMOTIVE_DESIGN { 1 0 10303 214 1 1 1 1 }'));
ENDSEC;
DATA;
#1 = APPLICATION_PROTOCOL_DEFINITION('international standard',
  'automotive_design',2000,#2);
#2 = APPLICATION_CONTEXT(
  'core data for automotive mechanical design processes');
#3 = SHAPE_DEFINITION_REPRESENTATION(#4,#10);
#4 = PRODUCT_DEFINITION_SHAPE('','',#5);
#5 = PRODUCT_DEFINITION('design','',#6,#9);
#6 = PRODUCT_DEFINITION_FORMATION('','',#7);
#7 = PRODUCT('Open CASCADE STEP translator 7.8 30',
  'Open CASCADE STEP translator 7.8 30','',(#8));
#8 = PRODUCT_CONTEXT('',#2,'mechanical');
#9 = PRODUCT_DEFINITION_CONTEXT('part definition',#2,'design');
#10 = ADVANCED_BREP_SHAPE_REPRESENTATION('',(#11,#15),#1825);
#11 = AXIS2_PLACEMENT_3D('',#12,#13,#14);
#12 = CARTESIAN_POINT('',(0.,0.,0.));
#13 = DIRECTION('',(0.,0.,1.));
#14 = DIRECTION('',(1.,0.,-0.));
#15 = MANIFOLD_SOLID_BREP('',#16);
#16 = CLOSED_SHELL('',(#17,#57,#222,#246,#334,#653,#670,#687,#704,#721,
    #738,#755,#772,#804,#828,#852,#877,#902,#926,#950,#968,#985,#1016,
    #1042,#1068,#1094,#1120,#1146,#1172,#1198,#1224,#1250,#1276,#1302,
    #1328,#1354,#1380,#1399,#1430,#1454,#1478,#1510,#1534,#1558,#1583,
    #1608,#1632,#1656,#1674,#1691,#1781,#1793,#1809));
#17 = ADVANCED_FACE('',(#18),#52,.F.);
#18 = FACE_BOUND('',#19,.F.);
#19 = EDGE_LOOP('',(#20,#30,#38,#46));
#20 = ORIENTED_EDGE('',*,*,#21,.F.);
#21 = EDGE_CURVE('',#22,#24,#26,.T.);
#22 = VERTEX_POINT('',#23);
#23 = CARTESIAN_POINT('',(0.,3.639702342662,10.));
#24 = VERTEX_POINT('',#25);
#25 = CARTESIAN_POINT('',(0.,13.75,10.));
#26 = LINE('',#27,#28);
#27 = CARTESIAN_POINT('',(0.,0.,10.));
#28 = VECTOR('',#29,1.);
#29 = DIRECTION('',(0.,1.,0.));
#30 = ORIENTED_EDGE('',*,*,#31,.T.);
#31 = EDGE_CURVE('',#22,#32,#34,.T.);
#32 = VERTEX_POINT('',#33);
#33 = CARTESIAN_POINT('',(0.,0.,0.));
#34 = LINE('',#35,#36);
#35 = CARTESIAN_POINT('',(0.,0.,0.));
#36 = VECTOR('',#37,1.);
#37 = DIRECTION('',(0.,-0.342020143326,-0.939692620786));
#38 = ORIENTED_EDGE('',*,*,#39,.T.);
#39 = EDGE_CURVE('',#32,#40,#42,.T.);
#40 = VERTEX_POINT('',#41);
#41 = CARTESIAN_POINT('',(0.,13.75,0.));
#42 = LINE('',#43,#44);
#43 = CARTESIAN_POINT('',(0.,0.,0.));
#44 = VECTOR('',#45,1.);
#45 = DIRECTION('',(0.,1.,0.));
#46 = ORIENTED_EDGE('',*,*,#47,.T.);
#47 = EDGE_CURVE('',#40,#24,#48,.T.);
#48 = LINE('',#49,#50);
#49 = CARTESIAN_POINT('',(0.,13.75,-1.));
#50 = VECTOR('',#51,1.);
#51 = DIRECTION('',(0.,0.,1.));
#52 = PLANE('',#53);
#53 = AXIS2_PLACEMENT_3D('',#54,#55,#56);
#54 = CARTESIAN_POINT('',(0.,0.,0.));
#55 = DIRECTION('',(1.,0.,0.));
#56 = DIRECTION('',(0.,0.,1.));
#57 = ADVANCED_FACE('',(#58,#147),#217,.T.);
#58 = FACE_BOUND('',#59,.T.);
#59 = EDGE_LOOP('',(#60,#61,#69,#77,#85,#93,#101,#109,#117,#125,#133,
    #141));
#60 = ORIENTED_EDGE('',*,*,#21,.F.);
#61 = ORIENTED_EDGE('',*,*,#62,.T.);
#62 = EDGE_CURVE('',#22,#63,#65,.T.);
#63 = VERTEX_POINT('',#64);
#64 = CARTESIAN_POINT('',(43.,3.639702342662,10.));
#65 = LINE('',#66,#67);
#66 = CARTESIAN_POINT('',(-1.,3.639702342662,10.));
#67 = VECTOR('',#68,1.);
#68 = DIRECTION('',(1.,0.,0.));
#69 = ORIENTED_EDGE('',*,*,#70,.T.);
#70 = EDGE_CURVE('',#63,#71,#73,.T.);
#71 = VERTEX_POINT('',#72);
#72 = CARTESIAN_POINT('',(43.,13.875609756098,10.));
#73 = LINE('',#74,#75);
#74 = CARTESIAN_POINT('',(43.,0.,10.));
#75 = VECTOR('',#76,1.);
#76 = DIRECTION('',(0.,1.,0.));
#77 = ORIENTED_EDGE('',*,*,#78,.F.);
#78 = EDGE_CURVE('',#79,#71,#81,.T.);
#79 = VERTEX_POINT('',#80);
#80 = CARTESIAN_POINT('',(42.9,13.9,10.));
#81 = LINE('',#82,#83);
#82 = CARTESIAN_POINT('',(42.9,13.9,10.));
#83 = VECTOR('',#84,1.);
#84 = DIRECTION('',(0.971520338783,-0.236956180191,0.));
#85 = ORIENTED_EDGE('',*,*,#86,.F.);
#86 = EDGE_CURVE('',#87,#79,#89,.T.);
#87 = VERTEX_POINT('',#88);
#88 = CARTESIAN_POINT('',(42.9,17.9,10.));
#89 = LINE('',#90,#91);
#90 = CARTESIAN_POINT('',(42.9,17.9,10.));
#91 = VECTOR('',#92,1.);
#92 = DIRECTION('',(0.,-1.,0.));
#93 = ORIENTED_EDGE('',*,*,#94,.F.);
#94 = EDGE_CURVE('',#95,#87,#97,.T.);
#95 = VERTEX_POINT('',#96);
#96 = CARTESIAN_POINT('',(43.,17.924390243902,10.));
#97 = LINE('',#98,#99);
#98 = CARTESIAN_POINT('',(47.,18.9,10.));
#99 = VECTOR('',#100,1.);
#100 = DIRECTION('',(-0.971520338783,-0.236956180191,0.));
#101 = ORIENTED_EDGE('',*,*,#102,.T.);
#102 = EDGE_CURVE('',#95,#103,#105,.T.);
#103 = VERTEX_POINT('',#104);
#104 = CARTESIAN_POINT('',(43.,53.,10.));
#105 = LINE('',#106,#107);
#106 = CARTESIAN_POINT('',(43.,0.,10.));
#107 = VECTOR('',#108,1.);
#108 = DIRECTION('',(0.,1.,0.));
#109 = ORIENTED_EDGE('',*,*,#110,.F.);
#110 = EDGE_CURVE('',#111,#103,#113,.T.);
#111 = VERTEX_POINT('',#112);
#112 = CARTESIAN_POINT('',(0.,53.,10.));
#113 = LINE('',#114,#115);
#114 = CARTESIAN_POINT('',(0.,53.,10.));
#115 = VECTOR('',#116,1.);
#116 = DIRECTION('',(1.,0.,0.));
#117 = ORIENTED_EDGE('',*,*,#118,.F.);
#118 = EDGE_CURVE('',#119,#111,#121,.T.);
#119 = VERTEX_POINT('',#120);
#120 = CARTESIAN_POINT('',(0.,18.05,10.));
#121 = LINE('',#122,#123);
#122 = CARTESIAN_POINT('',(0.,0.,10.));
#123 = VECTOR('',#124,1.);
#124 = DIRECTION('',(0.,1.,0.));
#125 = ORIENTED_EDGE('',*,*,#126,.T.);
#126 = EDGE_CURVE('',#119,#127,#129,.T.);
#127 = VERTEX_POINT('',#128);
#128 = CARTESIAN_POINT('',(4.,19.05,10.));
#129 = LINE('',#130,#131);
#130 = CARTESIAN_POINT('',(-0.123529411765,18.019117647059,10.));
#131 = VECTOR('',#132,1.);
#132 = DIRECTION('',(0.970142500145,0.242535625036,0.));
#133 = ORIENTED_EDGE('',*,*,#134,.T.);
#134 = EDGE_CURVE('',#127,#135,#137,.T.);
#135 = VERTEX_POINT('',#136);
#136 = CARTESIAN_POINT('',(4.,12.75,10.));
#137 = LINE('',#138,#139);
#138 = CARTESIAN_POINT('',(4.,6.375,10.));
#139 = VECTOR('',#140,1.);
#140 = DIRECTION('',(0.,-1.,0.));
#141 = ORIENTED_EDGE('',*,*,#142,.T.);
#142 = EDGE_CURVE('',#135,#24,#143,.T.);
#143 = LINE('',#144,#145);
#144 = CARTESIAN_POINT('',(1.617647058824,13.345588235294,10.));
#145 = VECTOR('',#146,1.);
#146 = DIRECTION('',(-0.970142500145,0.242535625036,0.));
#147 = FACE_BOUND('',#148,.T.);
#148 = EDGE_LOOP('',(#149,#160,#168,#177,#185,#194,#202,#211));
#149 = ORIENTED_EDGE('',*,*,#150,.F.);
#150 = EDGE_CURVE('',#151,#153,#155,.T.);
#151 = VERTEX_POINT('',#152);
#152 = CARTESIAN_POINT('',(18.185,36.775,10.));
#153 = VERTEX_POINT('',#154);
#154 = CARTESIAN_POINT('',(17.585,36.175,10.));
#155 = CIRCLE('',#156,0.6);
#156 = AXIS2_PLACEMENT_3D('',#157,#158,#159);
#157 = CARTESIAN_POINT('',(18.185,36.175,10.));
#158 = DIRECTION('',(0.,-0.,1.));
#159 = DIRECTION('',(0.,1.,0.));
#160 = ORIENTED_EDGE('',*,*,#161,.T.);
#161 = EDGE_CURVE('',#151,#162,#164,.T.);
#162 = VERTEX_POINT('',#163);
#163 = CARTESIAN_POINT('',(24.815,36.775,10.));
#164 = LINE('',#165,#166);
#165 = CARTESIAN_POINT('',(12.7075,36.775,10.));
#166 = VECTOR('',#167,1.);
#167 = DIRECTION('',(1.,0.,0.));
#168 = ORIENTED_EDGE('',*,*,#169,.F.);
#169 = EDGE_CURVE('',#170,#162,#172,.T.);
#170 = VERTEX_POINT('',#171);
#171 = CARTESIAN_POINT('',(25.415,36.175,10.));
#172 = CIRCLE('',#173,0.6);
#173 = AXIS2_PLACEMENT_3D('',#174,#175,#176);
#174 = CARTESIAN_POINT('',(24.815,36.175,10.));
#175 = DIRECTION('',(0.,-0.,1.));
#176 = DIRECTION('',(0.,1.,0.));
#177 = ORIENTED_EDGE('',*,*,#178,.T.);
#178 = EDGE_CURVE('',#170,#179,#181,.T.);
#179 = VERTEX_POINT('',#180);
#180 = CARTESIAN_POINT('',(25.415,29.545,10.));
#181 = LINE('',#182,#183);
#182 = CARTESIAN_POINT('',(25.415,14.4725,10.));
#183 = VECTOR('',#184,1.);
#184 = DIRECTION('',(0.,-1.,0.));
#185 = ORIENTED_EDGE('',*,*,#186,.F.);
#186 = EDGE_CURVE('',#187,#179,#189,.T.);
#187 = VERTEX_POINT('',#188);
#188 = CARTESIAN_POINT('',(24.815,28.945,10.));
#189 = CIRCLE('',#190,0.6);
#190 = AXIS2_PLACEMENT_3D('',#191,#192,#193);
#191 = CARTESIAN_POINT('',(24.815,29.545,10.));
#192 = DIRECTION('',(-0.,0.,1.));
#193 = DIRECTION('',(0.,-1.,0.));
#194 = ORIENTED_EDGE('',*,*,#195,.T.);
#195 = EDGE_CURVE('',#187,#196,#198,.T.);
#196 = VERTEX_POINT('',#197);
#197 = CARTESIAN_POINT('',(18.185,28.945,10.));
#198 = LINE('',#199,#200);
#199 = CARTESIAN_POINT('',(8.7925,28.945,10.));
#200 = VECTOR('',#201,1.);
#201 = DIRECTION('',(-1.,0.,0.));
#202 = ORIENTED_EDGE('',*,*,#203,.F.);
#203 = EDGE_CURVE('',#204,#196,#206,.T.);
#204 = VERTEX_POINT('',#205);
#205 = CARTESIAN_POINT('',(17.585,29.545,10.));
#206 = CIRCLE('',#207,0.6);
#207 = AXIS2_PLACEMENT_3D('',#208,#209,#210);
#208 = CARTESIAN_POINT('',(18.185,29.545,10.));
#209 = DIRECTION('',(0.,0.,1.));
#210 = DIRECTION('',(-1.,0.,0.));
#211 = ORIENTED_EDGE('',*,*,#212,.T.);
#212 = EDGE_CURVE('',#204,#153,#213,.T.);
#213 = LINE('',#214,#215);
#214 = CARTESIAN_POINT('',(17.585,18.3875,10.));
#215 = VECTOR('',#216,1.);
#216 = DIRECTION('',(0.,1.,0.));
#217 = PLANE('',#218);
#218 = AXIS2_PLACEMENT_3D('',#219,#220,#221);
#219 = CARTESIAN_POINT('',(0.,0.,10.));
#220 = DIRECTION('',(0.,0.,1.));
#221 = DIRECTION('',(1.,0.,0.));
#222 = ADVANCED_FACE('',(#223),#241,.T.);
#223 = FACE_BOUND('',#224,.T.);
#224 = EDGE_LOOP('',(#225,#233,#234,#235));
#225 = ORIENTED_EDGE('',*,*,#226,.T.);
#226 = EDGE_CURVE('',#227,#40,#229,.T.);
#227 = VERTEX_POINT('',#228);
#228 = CARTESIAN_POINT('',(4.,12.75,0.));
#229 = LINE('',#230,#231);
#230 = CARTESIAN_POINT('',(1.617647058824,13.345588235294,0.));
#231 = VECTOR('',#232,1.);
#232 = DIRECTION('',(-0.970142500145,0.242535625036,0.));
#233 = ORIENTED_EDGE('',*,*,#47,.T.);
#234 = ORIENTED_EDGE('',*,*,#142,.F.);
#235 = ORIENTED_EDGE('',*,*,#236,.F.);
#236 = EDGE_CURVE('',#227,#135,#237,.T.);
#237 = LINE('',#238,#239);
#238 = CARTESIAN_POINT('',(4.,12.75,-1.));
#239 = VECTOR('',#240,1.);
#240 = DIRECTION('',(0.,0.,1.));
#241 = PLANE('',#242);
#242 = AXIS2_PLACEMENT_3D('',#243,#244,#245);
#243 = CARTESIAN_POINT('',(0.,13.75,-1.));
#244 = DIRECTION('',(0.242535625036,0.970142500145,0.));
#245 = DIRECTION('',(0.970142500145,-0.242535625036,0.));
#246 = ADVANCED_FACE('',(#247),#329,.F.);
#247 = FACE_BOUND('',#248,.F.);
#248 = EDGE_LOOP('',(#249,#250,#258,#266,#274,#282,#290,#298,#306,#314,
    #322,#328));
#249 = ORIENTED_EDGE('',*,*,#39,.F.);
#250 = ORIENTED_EDGE('',*,*,#251,.T.);
#251 = EDGE_CURVE('',#32,#252,#254,.T.);
#252 = VERTEX_POINT('',#253);
#253 = CARTESIAN_POINT('',(43.,0.,0.));
#254 = LINE('',#255,#256);
#255 = CARTESIAN_POINT('',(0.,0.,0.));
#256 = VECTOR('',#257,1.);
#257 = DIRECTION('',(1.,0.,0.));
#258 = ORIENTED_EDGE('',*,*,#259,.T.);
#259 = EDGE_CURVE('',#252,#260,#262,.T.);
#260 = VERTEX_POINT('',#261);
#261 = CARTESIAN_POINT('',(43.,13.875609756098,0.));
#262 = LINE('',#263,#264);
#263 = CARTESIAN_POINT('',(43.,0.,0.));
#264 = VECTOR('',#265,1.);
#265 = DIRECTION('',(0.,1.,0.));
#266 = ORIENTED_EDGE('',*,*,#267,.F.);
#267 = EDGE_CURVE('',#268,#260,#270,.T.);
#268 = VERTEX_POINT('',#269);
#269 = CARTESIAN_POINT('',(42.9,13.9,0.));
#270 = LINE('',#271,#272);
#271 = CARTESIAN_POINT('',(42.9,13.9,0.));
#272 = VECTOR('',#273,1.);
#273 = DIRECTION('',(0.971520338783,-0.236956180191,0.));
#274 = ORIENTED_EDGE('',*,*,#275,.F.);
#275 = EDGE_CURVE('',#276,#268,#278,.T.);
#276 = VERTEX_POINT('',#277);
#277 = CARTESIAN_POINT('',(42.9,17.9,0.));
#278 = LINE('',#279,#280);
#279 = CARTESIAN_POINT('',(42.9,17.9,0.));
#280 = VECTOR('',#281,1.);
#281 = DIRECTION('',(0.,-1.,0.));
#282 = ORIENTED_EDGE('',*,*,#283,.F.);
#283 = EDGE_CURVE('',#284,#276,#286,.T.);
#284 = VERTEX_POINT('',#285);
#285 = CARTESIAN_POINT('',(43.,17.924390243902,0.));
#286 = LINE('',#287,#288);
#287 = CARTESIAN_POINT('',(47.,18.9,0.));
#288 = VECTOR('',#289,1.);
#289 = DIRECTION('',(-0.971520338783,-0.236956180191,0.));
#290 = ORIENTED_EDGE('',*,*,#291,.T.);
#291 = EDGE_CURVE('',#284,#292,#294,.T.);
#292 = VERTEX_POINT('',#293);
#293 = CARTESIAN_POINT('',(43.,53.,0.));
#294 = LINE('',#295,#296);
#295 = CARTESIAN_POINT('',(43.,0.,0.));
#296 = VECTOR('',#297,1.);
#297 = DIRECTION('',(0.,1.,0.));
#298 = ORIENTED_EDGE('',*,*,#299,.F.);
#299 = EDGE_CURVE('',#300,#292,#302,.T.);
#300 = VERTEX_POINT('',#301);
#301 = CARTESIAN_POINT('',(0.,53.,0.));
#302 = LINE('',#303,#304);
#303 = CARTESIAN_POINT('',(0.,53.,0.));
#304 = VECTOR('',#305,1.);
#305 = DIRECTION('',(1.,0.,0.));
#306 = ORIENTED_EDGE('',*,*,#307,.F.);
#307 = EDGE_CURVE('',#308,#300,#310,.T.);
#308 = VERTEX_POINT('',#309);
#309 = CARTESIAN_POINT('',(0.,18.05,0.));
#310 = LINE('',#311,#312);
#311 = CARTESIAN_POINT('',(0.,0.,0.));
#312 = VECTOR('',#313,1.);
#313 = DIRECTION('',(0.,1.,0.));
#314 = ORIENTED_EDGE('',*,*,#315,.T.);
#315 = EDGE_CURVE('',#308,#316,#318,.T.);
#316 = VERTEX_POINT('',#317);
#317 = CARTESIAN_POINT('',(4.,19.05,0.));
#318 = LINE('',#319,#320);
#319 = CARTESIAN_POINT('',(-0.123529411765,18.019117647059,0.));
#320 = VECTOR('',#321,1.);
#321 = DIRECTION('',(0.970142500145,0.242535625036,0.));
#322 = ORIENTED_EDGE('',*,*,#323,.T.);
#323 = EDGE_CURVE('',#316,#227,#324,.T.);
#324 = LINE('',#325,#326);
#325 = CARTESIAN_POINT('',(4.,6.375,0.));
#326 = VECTOR('',#327,1.);
#327 = DIRECTION('',(0.,-1.,0.));
#328 = ORIENTED_EDGE('',*,*,#226,.T.);
#329 = PLANE('',#330);
#330 = AXIS2_PLACEMENT_3D('',#331,#332,#333);
#331 = CARTESIAN_POINT('',(0.,0.,0.));
#332 = DIRECTION('',(0.,0.,1.));
#333 = DIRECTION('',(1.,0.,0.));
#334 = ADVANCED_FACE('',(#335,#346),#648,.T.);
#335 = FACE_BOUND('',#336,.T.);
#336 = EDGE_LOOP('',(#337,#338,#339,#345));
#337 = ORIENTED_EDGE('',*,*,#31,.T.);
#338 = ORIENTED_EDGE('',*,*,#251,.T.);
#339 = ORIENTED_EDGE('',*,*,#340,.F.);
#340 = EDGE_CURVE('',#63,#252,#341,.T.);
#341 = LINE('',#342,#343);
#342 = CARTESIAN_POINT('',(43.,0.,0.));
#343 = VECTOR('',#344,1.);
#344 = DIRECTION('',(0.,-0.342020143326,-0.939692620786));
#345 = ORIENTED_EDGE('',*,*,#62,.F.);
#346 = FACE_BOUND('',#347,.T.);
#347 = EDGE_LOOP('',(#348,#358,#370,#385,#402,#423,#442,#461,#484,#507,
    #526,#549,#571,#593,#616,#633));
#348 = ORIENTED_EDGE('',*,*,#349,.F.);
#349 = EDGE_CURVE('',#350,#352,#354,.T.);
#350 = VERTEX_POINT('',#351);
#351 = CARTESIAN_POINT('',(22.228025477707,2.684848727124,7.376561252424
    ));
#352 = VERTEX_POINT('',#353);
#353 = CARTESIAN_POINT('',(23.267515923567,2.723625533182,7.483099651469
    ));
#354 = LINE('',#355,#356);
#355 = CARTESIAN_POINT('',(10.847233477689,2.260303445409,6.210132677376
    ));
#356 = VECTOR('',#357,1.);
#357 = DIRECTION('',(0.994104564342,3.708374622103E-02,0.101886755371));
#358 = ORIENTED_EDGE('',*,*,#359,.F.);
#359 = EDGE_CURVE('',#360,#350,#362,.T.);
#360 = VERTEX_POINT('',#361);
#361 = CARTESIAN_POINT('',(22.029299363057,2.845097145869,7.816840164431
    ));
#362 = B_SPLINE_CURVE_WITH_KNOTS('',6,(#363,#364,#365,#366,#367,#368,
    #369),.UNSPECIFIED.,.F.,.F.,(7,7),(0.,1.),.PIECEWISE_BEZIER_KNOTS.);
#363 = CARTESIAN_POINT('',(22.029299363057,2.845097145869,7.816840164431
    ));
#364 = CARTESIAN_POINT('',(22.084523281593,2.827318730517,7.767994369698
    ));
#365 = CARTESIAN_POINT('',(22.130862605526,2.805563002284,7.708220997632
    ));
#366 = CARTESIAN_POINT('',(22.167975959192,2.780031953409,7.638075017354
    ));
#367 = CARTESIAN_POINT('',(22.196137252264,2.751108694692,7.558609017131
    ));
#368 = CARTESIAN_POINT('',(22.21592157735,2.719236480843,7.471040829273)
  );
#369 = CARTESIAN_POINT('',(22.228025477707,2.684848727124,7.376561252424
    ));
#370 = ORIENTED_EDGE('',*,*,#371,.F.);
#371 = EDGE_CURVE('',#372,#360,#374,.T.);
#372 = VERTEX_POINT('',#373);
#373 = CARTESIAN_POINT('',(21.612738853503,2.896770507651,7.958811559113
    ));
#374 = B_SPLINE_CURVE_WITH_KNOTS('',5,(#375,#376,#377,#378,#379,#380,
    #381,#382,#383,#384),.UNSPECIFIED.,.F.,.F.,(6,4,6),(0.,
    0.766680143997,1.),.UNSPECIFIED.);
#375 = CARTESIAN_POINT('',(21.612738853503,2.896770507651,7.958811559113
    ));
#376 = CARTESIAN_POINT('',(21.689519059405,2.896770507651,7.958811559113
    ));
#377 = CARTESIAN_POINT('',(21.762057292462,2.893866528428,7.950832941772
    ));
#378 = CARTESIAN_POINT('',(21.829731806632,2.887888074606,7.934407274894
    ));
#379 = CARTESIAN_POINT('',(21.892014772696,2.878752039183,7.909306223864
    ));
#380 = CARTESIAN_POINT('',(21.965798900892,2.862810482881,7.865507157895
    ));
#381 = CARTESIAN_POINT('',(21.982485619547,2.858805052465,7.85450232827)
  );
#382 = CARTESIAN_POINT('',(21.998635151766,2.854515540646,7.842716991407
    ));
#383 = CARTESIAN_POINT('',(22.014241118196,2.849944895517,7.830159247122
    ));
#384 = CARTESIAN_POINT('',(22.029299363057,2.845097145869,7.816840164431
    ));
#385 = ORIENTED_EDGE('',*,*,#386,.F.);
#386 = EDGE_CURVE('',#387,#372,#389,.T.);
#387 = VERTEX_POINT('',#388);
#388 = CARTESIAN_POINT('',(21.037452229299,2.791768145178,7.670319939228
    ));
#389 = B_SPLINE_CURVE_WITH_KNOTS('',6,(#390,#391,#392,#393,#394,#395,
    #396,#397,#398,#399,#400,#401),.UNSPECIFIED.,.F.,.F.,(7,5,7),(0.,
    0.663443140163,1.),.UNSPECIFIED.);
#390 = CARTESIAN_POINT('',(21.037452229299,2.791768145178,7.670319939228
    ));
#391 = CARTESIAN_POINT('',(21.087148478655,2.813958315908,7.731286932244
    ));
#392 = CARTESIAN_POINT('',(21.1407771011,2.833834710052,7.785896876336)
  );
#393 = CARTESIAN_POINT('',(21.198397606018,2.851080297768,7.833278739169
    ));
#394 = CARTESIAN_POINT('',(21.259949792227,2.86540795687,7.872643659027)
  );
#395 = CARTESIAN_POINT('',(21.325187278809,2.876611202004,7.903424322055
    ));
#396 = CARTESIAN_POINT('',(21.428284688099,2.888701209511,7.936641344682
    ));
#397 = CARTESIAN_POINT('',(21.463802700613,2.891951993903,7.945572801396
    ));
#398 = CARTESIAN_POINT('',(21.500077715375,2.894377028198,7.952235528362
    ));
#399 = CARTESIAN_POINT('',(21.537041244777,2.895979214412,7.956637498806
    ));
#400 = CARTESIAN_POINT('',(21.574620357671,2.896770507651,7.958811559113
    ));
#401 = CARTESIAN_POINT('',(21.612738853503,2.896770507651,7.958811559113
    ));
#402 = ORIENTED_EDGE('',*,*,#403,.F.);
#403 = EDGE_CURVE('',#404,#387,#406,.T.);
#404 = VERTEX_POINT('',#405);
#405 = CARTESIAN_POINT('',(20.741401273885,2.355463722851,6.471583390878
    ));
#406 = B_SPLINE_CURVE_WITH_KNOTS('',8,(#407,#408,#409,#410,#411,#412,
    #413,#414,#415,#416,#417,#418,#419,#420,#421,#422),.UNSPECIFIED.,.F.
  ,.F.,(9,7,9),(0.,0.710168104426,1.),.UNSPECIFIED.);
#407 = CARTESIAN_POINT('',(20.741401273885,2.355463722851,6.471583390878
    ));
#408 = CARTESIAN_POINT('',(20.749721117965,2.400553901469,6.595467638469
    ));
#409 = CARTESIAN_POINT('',(20.760205818899,2.445017559656,6.717630535325
    ));
#410 = CARTESIAN_POINT('',(20.773165270716,2.488844022649,6.838042752773
    ));
#411 = CARTESIAN_POINT('',(20.789002172257,2.531910999599,6.956368299467
    ));
#412 = CARTESIAN_POINT('',(20.808207056816,2.573987686969,7.071973047902
    ));
#413 = CARTESIAN_POINT('',(20.831433770281,2.61470653036,7.183847150664)
  );
#414 = CARTESIAN_POINT('',(20.859475172165,2.653573228087,7.290632525038
    ));
#415 = CARTESIAN_POINT('',(20.907539320026,2.70465066742,7.430966636248)
  );
#416 = CARTESIAN_POINT('',(20.92247053154,2.719007778659,7.470412475186)
  );
#417 = CARTESIAN_POINT('',(20.938482226648,2.732864889021,7.508484573006
    ));
#418 = CARTESIAN_POINT('',(20.955655103345,2.746153025259,7.544993427266
    ));
#419 = CARTESIAN_POINT('',(20.974069608738,2.75878805751,7.579707893069)
  );
#420 = CARTESIAN_POINT('',(20.99380167292,2.770673066859,7.612361687886)
  );
#421 = CARTESIAN_POINT('',(21.014915330429,2.781702504883,7.642664819806
    ));
#422 = CARTESIAN_POINT('',(21.037452229299,2.791768145178,7.670319939228
    ));
#423 = ORIENTED_EDGE('',*,*,#424,.F.);
#424 = EDGE_CURVE('',#425,#404,#427,.T.);
#425 = VERTEX_POINT('',#426);
#426 = CARTESIAN_POINT('',(21.738853503185,2.517542058287,6.91688995767)
  );
#427 = B_SPLINE_CURVE_WITH_KNOTS('',5,(#428,#429,#430,#431,#432,#433,
    #434,#435,#436,#437,#438,#439,#440,#441),.UNSPECIFIED.,.F.,.F.,(6,4,
    4,6),(0.,0.44086462525,0.812513928804,1.),.UNSPECIFIED.);
#428 = CARTESIAN_POINT('',(21.738853503185,2.517542058287,6.91688995767)
  );
#429 = CARTESIAN_POINT('',(21.636265237051,2.517542058287,6.91688995767)
  );
#430 = CARTESIAN_POINT('',(21.535132834856,2.514542475792,6.908648672497
    ));
#431 = CARTESIAN_POINT('',(21.436287434169,2.508292304334,6.89147646755)
  );
#432 = CARTESIAN_POINT('',(21.340606480894,2.498650976357,6.86498713664)
  );
#433 = CARTESIAN_POINT('',(21.171571619983,2.474845616082,6.799582446821
    ));
#434 = CARTESIAN_POINT('',(21.097047432,2.461626039578,6.763261958883));
#435 = CARTESIAN_POINT('',(21.025789306096,2.446141007687,6.720717183421
    ));
#436 = CARTESIAN_POINT('',(20.958045746896,2.428557459967,6.672406783107
    ));
#437 = CARTESIAN_POINT('',(20.86157193865,2.399271580967,6.591944491845)
  );
#438 = CARTESIAN_POINT('',(20.830140912706,2.388971675205,6.563645733344
    ));
#439 = CARTESIAN_POINT('',(20.79963821779,2.378218417092,6.534101399491)
  );
#440 = CARTESIAN_POINT('',(20.770061689741,2.367039937164,6.503388778304
    ));
#441 = CARTESIAN_POINT('',(20.741401273885,2.355463722851,6.471583390878
    ));
#442 = ORIENTED_EDGE('',*,*,#443,.F.);
#443 = EDGE_CURVE('',#444,#425,#446,.T.);
#444 = VERTEX_POINT('',#445);
#445 = CARTESIAN_POINT('',(22.890955414013,2.342392889348,6.435671570975
    ));
#446 = B_SPLINE_CURVE_WITH_KNOTS('',5,(#447,#448,#449,#450,#451,#452,
    #453,#454,#455,#456,#457,#458,#459,#460),.UNSPECIFIED.,.F.,.F.,(6,4,
    4,6),(0.,0.190697629172,0.56840011269,1.),.UNSPECIFIED.);
#447 = CARTESIAN_POINT('',(22.890955414013,2.342392889348,6.435671570975
    ));
#448 = CARTESIAN_POINT('',(22.856150099118,2.35510664002,6.470602313864)
  );
#449 = CARTESIAN_POINT('',(22.820347745154,2.367375483221,6.504310683519
    ));
#450 = CARTESIAN_POINT('',(22.783540801063,2.379168635374,6.536712102765
    ));
#451 = CARTESIAN_POINT('',(22.745730999402,2.390454586719,6.567719999242
    ));
#452 = CARTESIAN_POINT('',(22.630092426941,2.422493481313,6.655746138683
    ));
#453 = CARTESIAN_POINT('',(22.549366235772,2.441680615775,6.708462357361
    ));
#454 = CARTESIAN_POINT('',(22.464909007309,2.458524219434,6.754739778078
    ));
#455 = CARTESIAN_POINT('',(22.37703454284,2.47283828302,6.794067344561)
  );
#456 = CARTESIAN_POINT('',(22.18262799813,2.497936515954,6.863024172816)
  );
#457 = CARTESIAN_POINT('',(22.075185878514,2.507930234453,6.890481688728
    ));
#458 = CARTESIAN_POINT('',(21.964825079666,2.514420334318,6.908313091556
    ));
#459 = CARTESIAN_POINT('',(21.852436311063,2.517542058287,6.91688995767)
  );
#460 = CARTESIAN_POINT('',(21.738853503185,2.517542058287,6.91688995767)
  );
#461 = ORIENTED_EDGE('',*,*,#462,.F.);
#462 = EDGE_CURVE('',#463,#444,#465,.T.);
#463 = VERTEX_POINT('',#464);
#464 = CARTESIAN_POINT('',(23.370700636943,1.890142050148,5.193122602343
    ));
#465 = B_SPLINE_CURVE_WITH_KNOTS('',5,(#466,#467,#468,#469,#470,#471,
    #472,#473,#474,#475,#476,#477,#478,#479,#480,#481,#482,#483),
  .UNSPECIFIED.,.F.,.F.,(6,4,4,4,6),(0.,0.275239007959,0.523026654426,
    0.763477747715,1.),.UNSPECIFIED.);
#466 = CARTESIAN_POINT('',(23.370700636943,1.890142050148,5.193122602343
    ));
#467 = CARTESIAN_POINT('',(23.370700636943,1.91826684963,5.270394853846)
  );
#468 = CARTESIAN_POINT('',(23.367611736162,1.946210591447,5.347169653504
    ));
#469 = CARTESIAN_POINT('',(23.361225654641,1.973918941605,5.423297719893
    ));
#470 = CARTESIAN_POINT('',(23.351333522322,2.001323392105,5.498590828836
    ));
#471 = CARTESIAN_POINT('',(23.325557366113,2.052671374571,5.639668251195
    ));
#472 = CARTESIAN_POINT('',(23.310369245772,2.076687761634,5.705652732346
    ));
#473 = CARTESIAN_POINT('',(23.292084298762,2.100335311052,5.770623840398
    ));
#474 = CARTESIAN_POINT('',(23.270610991389,2.123550235965,5.834406322392
    ));
#475 = CARTESIAN_POINT('',(23.221957906472,2.168312950452,5.957390869678
    ));
#476 = CARTESIAN_POINT('',(23.194965008891,2.189890619244,6.016675027447
    ));
#477 = CARTESIAN_POINT('',(23.164913009977,2.210940951418,6.074510339768
    ));
#478 = CARTESIAN_POINT('',(23.131824145959,2.231409601507,6.130747493696
    ));
#479 = CARTESIAN_POINT('',(23.06033097837,2.270766613815,6.238879996308)
  );
#480 = CARTESIAN_POINT('',(23.022020586597,2.289676308575,6.290833955671
    ));
#481 = CARTESIAN_POINT('',(22.980931815312,2.307935054392,6.34099944751)
  );
#482 = CARTESIAN_POINT('',(22.93719006631,2.325513177912,6.389294944957)
  );
#483 = CARTESIAN_POINT('',(22.890955414013,2.342392889348,6.435671570975
    ));
#484 = ORIENTED_EDGE('',*,*,#485,.F.);
#485 = EDGE_CURVE('',#486,#463,#488,.T.);
#486 = VERTEX_POINT('',#487);
#487 = CARTESIAN_POINT('',(22.866242038217,1.418197821804,3.896466491725
    ));
#488 = B_SPLINE_CURVE_WITH_KNOTS('',5,(#489,#490,#491,#492,#493,#494,
    #495,#496,#497,#498,#499,#500,#501,#502,#503,#504,#505,#506),
  .UNSPECIFIED.,.F.,.F.,(6,4,4,4,6),(0.,0.201814822545,0.449435024929,
    0.703724951199,1.),.UNSPECIFIED.);
#489 = CARTESIAN_POINT('',(22.866242038217,1.418197821804,3.896466491725
    ));
#490 = CARTESIAN_POINT('',(22.908118820306,1.432954546119,3.937010258568
    ));
#491 = CARTESIAN_POINT('',(22.948041555497,1.448289557359,3.979142855676
    ));
#492 = CARTESIAN_POINT('',(22.985895784452,1.46418966153,4.022828032853)
  );
#493 = CARTESIAN_POINT('',(23.02159296586,1.480632816383,4.068005229515)
  );
#494 = CARTESIAN_POINT('',(23.096146289592,1.518391749727,4.171747046262
    ));
#495 = CARTESIAN_POINT('',(23.133883187491,1.539967428446,4.231025736352
    ));
#496 = CARTESIAN_POINT('',(23.16816518373,1.562256965685,4.292265736605)
  );
#497 = CARTESIAN_POINT('',(23.198962719425,1.585190413529,4.355274866707
    ));
#498 = CARTESIAN_POINT('',(23.25439788995,1.632822778249,4.48614371321)
  );
#499 = CARTESIAN_POINT('',(23.278848679835,1.657553895166,4.554091898497
    ));
#500 = CARTESIAN_POINT('',(23.29970492051,1.682801030904,4.623457833844)
  );
#501 = CARTESIAN_POINT('',(23.317087694658,1.708483295773,4.694019276651
    ));
#502 = CARTESIAN_POINT('',(23.347536438959,1.764872629668,4.848947698225
    ));
#503 = CARTESIAN_POINT('',(23.359415834826,1.795709435522,4.933671125998
    ));
#504 = CARTESIAN_POINT('',(23.367036052084,1.826925831199,5.019437468239
    ));
#505 = CARTESIAN_POINT('',(23.370700636943,1.858427055535,5.105986370785
    ));
#506 = CARTESIAN_POINT('',(23.370700636943,1.890142050148,5.193122602343
    ));
#507 = ORIENTED_EDGE('',*,*,#508,.F.);
#508 = EDGE_CURVE('',#509,#486,#511,.T.);
#509 = VERTEX_POINT('',#510);
#510 = CARTESIAN_POINT('',(21.570700636943,1.240434486164,3.408065741049
    ));
#511 = B_SPLINE_CURVE_WITH_KNOTS('',5,(#512,#513,#514,#515,#516,#517,
    #518,#519,#520,#521,#522,#523,#524,#525),.UNSPECIFIED.,.F.,.F.,(6,4,
    4,6),(0.,0.225143665681,0.648979125613,1.),.UNSPECIFIED.);
#512 = CARTESIAN_POINT('',(21.570700636943,1.240434486164,3.408065741049
    ));
#513 = CARTESIAN_POINT('',(21.637324529499,1.240434486164,3.408065741049
    ));
#514 = CARTESIAN_POINT('',(21.703585896905,1.241222518928,3.410230843272
    ));
#515 = CARTESIAN_POINT('',(21.769382331942,1.242841478952,3.414678899383
    ));
#516 = CARTESIAN_POINT('',(21.834591481216,1.245332591386,3.421523174545
    ));
#517 = CARTESIAN_POINT('',(22.020467870591,1.255120506665,3.448415250756
    ));
#518 = CARTESIAN_POINT('',(22.139324634199,1.264720055834,3.474789795336
    ));
#519 = CARTESIAN_POINT('',(22.254644224364,1.277741019068,3.510564597801
    ));
#520 = CARTESIAN_POINT('',(22.365406847563,1.294276772128,3.555996205946
    ));
#521 = CARTESIAN_POINT('',(22.557980496332,1.330626100672,3.655865165335
    ));
#522 = CARTESIAN_POINT('',(22.641521216575,1.349393170068,3.707427264728
    ));
#523 = CARTESIAN_POINT('',(22.720876249512,1.370369676971,3.765059743783
    ));
#524 = CARTESIAN_POINT('',(22.795808270074,1.393378061375,3.828274760391
    ));
#525 = CARTESIAN_POINT('',(22.866242038217,1.418197821804,3.896466491725
    ));
#526 = ORIENTED_EDGE('',*,*,#527,.F.);
#527 = EDGE_CURVE('',#528,#509,#530,.T.);
#528 = VERTEX_POINT('',#529);
#529 = CARTESIAN_POINT('',(20.175796178344,1.466647044654,4.029579637498
    ));
#530 = B_SPLINE_CURVE_WITH_KNOTS('',5,(#531,#532,#533,#534,#535,#536,
    #537,#538,#539,#540,#541,#542,#543,#544,#545,#546,#547,#548),
  .UNSPECIFIED.,.F.,.F.,(6,4,4,4,6),(0.,0.17420371968,0.515759858413,
    0.839123881488,1.),.UNSPECIFIED.);
#531 = CARTESIAN_POINT('',(20.175796178344,1.466647044654,4.029579637498
    ));
#532 = CARTESIAN_POINT('',(20.211960422742,1.451677504078,3.988451162785
    ));
#533 = CARTESIAN_POINT('',(20.249364350314,1.437155989783,3.948553630164
    ));
#534 = CARTESIAN_POINT('',(20.28802646803,1.423118738144,3.909986598253)
  );
#535 = CARTESIAN_POINT('',(20.327953932649,1.409603814882,3.872854651766
    ));
#536 = CARTESIAN_POINT('',(20.449877446561,1.371246080713,3.767467643274
    ));
#537 = CARTESIAN_POINT('',(20.535455629429,1.347988433634,3.703567783097
    ));
#538 = CARTESIAN_POINT('',(20.625744640311,1.32716657506,3.646360196831)
  );
#539 = CARTESIAN_POINT('',(20.720407970634,1.309017187021,3.596495163018
    ));
#540 = CARTESIAN_POINT('',(20.911877837499,1.279092225887,3.514277008024
    ));
#541 = CARTESIAN_POINT('',(21.008328148638,1.267024506279,3.481121220897
    ));
#542 = CARTESIAN_POINT('',(21.107540428599,1.257533567644,3.455045081309
    ));
#543 = CARTESIAN_POINT('',(21.208886345051,1.250570870775,3.435915228882
    ));
#544 = CARTESIAN_POINT('',(21.36291414328,1.24374152957,3.417151768132)
  );
#545 = CARTESIAN_POINT('',(21.414463968884,1.242067052124,3.412551179159
    ));
#546 = CARTESIAN_POINT('',(21.466320303163,1.240971396746,3.409540890747
    ));
#547 = CARTESIAN_POINT('',(21.518418178664,1.240434486164,3.408065741049
    ));
#548 = CARTESIAN_POINT('',(21.570700636943,1.240434486164,3.408065741049
    ));
#549 = ORIENTED_EDGE('',*,*,#550,.F.);
#550 = EDGE_CURVE('',#551,#528,#553,.T.);
#551 = VERTEX_POINT('',#552);
#552 = CARTESIAN_POINT('',(19.629299363057,2.208198998718,6.066976886641
    ));
#553 = B_SPLINE_CURVE_WITH_KNOTS('',6,(#554,#555,#556,#557,#558,#559,
    #560,#561,#562,#563,#564,#565,#566,#567,#568,#569,#570),
  .UNSPECIFIED.,.F.,.F.,(7,5,5,7),(0.,0.356309431948,0.65985680493,1.),
  .UNSPECIFIED.);
#554 = CARTESIAN_POINT('',(19.629299363057,2.208198998718,6.066976886641
    ));
#555 = CARTESIAN_POINT('',(19.629299363057,2.16014883193,5.934960138389)
  );
#556 = CARTESIAN_POINT('',(19.632150052116,2.112252433438,5.803365865059
    ));
#557 = CARTESIAN_POINT('',(19.638152400665,2.064545009064,5.672290793851
    ));
#558 = CARTESIAN_POINT('',(19.647672114784,2.017087634604,5.541902729135
    ));
#559 = CARTESIAN_POINT('',(19.6611486818,1.969967885807,5.412442283306)
  );
#560 = CARTESIAN_POINT('',(19.694470988367,1.883549196346,5.175008885393
    ));
#561 = CARTESIAN_POINT('',(19.713074907035,1.844133528991,5.066715229363
    ));
#562 = CARTESIAN_POINT('',(19.735299715493,1.805124475078,4.959538734581
    ));
#563 = CARTESIAN_POINT('',(19.76154811697,1.766630805291,4.853778246049)
  );
#564 = CARTESIAN_POINT('',(19.792279617029,1.7288021117,4.749844764603)
  );
#565 = CARTESIAN_POINT('',(19.868049165948,1.650397983931,4.534431193964
    ));
#566 = CARTESIAN_POINT('',(19.914356598351,1.610049506466,4.423574663218
    ));
#567 = CARTESIAN_POINT('',(19.967653515629,1.571054246062,4.316436065793
    ));
#568 = CARTESIAN_POINT('',(20.028661822009,1.5338143431,4.214120273302)
  );
#569 = CARTESIAN_POINT('',(20.098015930353,1.49884278378,4.118036703748)
  );
#570 = CARTESIAN_POINT('',(20.175796178344,1.466647044654,4.029579637498
    ));
#571 = ORIENTED_EDGE('',*,*,#572,.F.);
#572 = EDGE_CURVE('',#573,#551,#575,.T.);
#573 = VERTEX_POINT('',#574);
#574 = CARTESIAN_POINT('',(20.19872611465,2.970054314157,8.1601571627));
#575 = B_SPLINE_CURVE_WITH_KNOTS('',6,(#576,#577,#578,#579,#580,#581,
    #582,#583,#584,#585,#586,#587,#588,#589,#590,#591,#592),
  .UNSPECIFIED.,.F.,.F.,(7,5,5,7),(0.,0.34523454026,0.647254077255,1.),
  .UNSPECIFIED.);
#576 = CARTESIAN_POINT('',(20.19872611465,2.970054314157,8.1601571627));
#577 = CARTESIAN_POINT('',(20.116703273003,2.936440364832,8.067803595951
    ));
#578 = CARTESIAN_POINT('',(20.043604363143,2.899903802174,7.967420215065
    ));
#579 = CARTESIAN_POINT('',(19.979384311671,2.860980241039,7.86047860976)
  );
#580 = CARTESIAN_POINT('',(19.923377423595,2.820215640765,7.748478790995
    ));
#581 = CARTESIAN_POINT('',(19.874815678508,2.778038836128,7.632598972631
    ));
#582 = CARTESIAN_POINT('',(19.796284857633,2.696858904991,7.409558944919
    ));
#583 = CARTESIAN_POINT('',(19.764755518882,2.658125219186,7.303139017798
    ));
#584 = CARTESIAN_POINT('',(19.737820628971,2.618728285273,7.194896831474
    ));
#585 = CARTESIAN_POINT('',(19.715014419678,2.57881816471,7.085244676421)
  );
#586 = CARTESIAN_POINT('',(19.695927114067,2.53850418366,6.974482923797)
  );
#587 = CARTESIAN_POINT('',(19.661845893122,2.450377763905,6.732357575462
    ));
#588 = CARTESIAN_POINT('',(19.648081543958,2.402454267161,6.600688850297
    ));
#589 = CARTESIAN_POINT('',(19.638354149075,2.354200668056,6.46811317635)
  );
#590 = CARTESIAN_POINT('',(19.632215020805,2.305704259873,6.334870389941
    ));
#591 = CARTESIAN_POINT('',(19.629299363057,2.257025270851,6.2011259668)
  );
#592 = CARTESIAN_POINT('',(19.629299363057,2.208198998718,6.066976886641
    ));
#593 = ORIENTED_EDGE('',*,*,#594,.F.);
#594 = EDGE_CURVE('',#595,#573,#597,.T.);
#595 = VERTEX_POINT('',#596);
#596 = CARTESIAN_POINT('',(21.677707006369,3.203499400519,8.801542266161
    ));
#597 = B_SPLINE_CURVE_WITH_KNOTS('',5,(#598,#599,#600,#601,#602,#603,
    #604,#605,#606,#607,#608,#609,#610,#611,#612,#613,#614,#615),
  .UNSPECIFIED.,.F.,.F.,(6,4,4,4,6),(0.,0.182073942453,0.533572658247,
    0.845726987787,1.),.UNSPECIFIED.);
#598 = CARTESIAN_POINT('',(21.677707006369,3.203499400519,8.801542266161
    ));
#599 = CARTESIAN_POINT('',(21.615135810347,3.203499400519,8.801542266161
    ));
#600 = CARTESIAN_POINT('',(21.552797905604,3.202808904902,8.799645145047
    ));
#601 = CARTESIAN_POINT('',(21.490775621476,3.201393847897,8.795757307877
    ));
#602 = CARTESIAN_POINT('',(21.429166319599,3.199222010805,8.78979023451)
  );
#603 = CARTESIAN_POINT('',(21.250150416106,3.1905658038,8.766007501224)
  );
#604 = CARTESIAN_POINT('',(21.134141336939,3.18194768867,8.742329424506)
  );
#605 = CARTESIAN_POINT('',(21.020909926104,3.17023372617,8.710145577045)
  );
#606 = CARTESIAN_POINT('',(20.911335291956,3.155348455873,8.669248633021
    ));
#607 = CARTESIAN_POINT('',(20.712843442793,3.121515021567,8.576292036243
    ));
#608 = CARTESIAN_POINT('',(20.622960392601,3.103203644487,8.525981941198
    ));
#609 = CARTESIAN_POINT('',(20.537104823511,3.082586708697,8.469337375656
    ));
#610 = CARTESIAN_POINT('',(20.455562217926,3.059851698849,8.406873449468
    ));
#611 = CARTESIAN_POINT('',(20.340336942592,3.023064368122,8.305801088972
    ));
#612 = CARTESIAN_POINT('',(20.303304713749,3.010435420703,8.271103341108
    ));
#613 = CARTESIAN_POINT('',(20.267361393853,2.997372418974,8.235213038828
    ));
#614 = CARTESIAN_POINT('',(20.232505878088,2.983902837731,8.198205668512
    ));
#615 = CARTESIAN_POINT('',(20.19872611465,2.970054314157,8.1601571627));
#616 = ORIENTED_EDGE('',*,*,#617,.F.);
#617 = EDGE_CURVE('',#618,#595,#620,.T.);
#618 = VERTEX_POINT('',#619);
#619 = CARTESIAN_POINT('',(22.734267515924,3.080546426701,8.463731746944
    ));
#620 = B_SPLINE_CURVE_WITH_KNOTS('',6,(#621,#622,#623,#624,#625,#626,
    #627,#628,#629,#630,#631,#632),.UNSPECIFIED.,.F.,.F.,(7,5,7),(0.,
    0.205075326209,1.),.UNSPECIFIED.);
#621 = CARTESIAN_POINT('',(22.734267515924,3.080546426701,8.463731746944
    ));
#622 = CARTESIAN_POINT('',(22.705121588382,3.089112532352,8.487266928792
    ));
#623 = CARTESIAN_POINT('',(22.675253276957,3.097344706273,8.509884640753
    ));
#624 = CARTESIAN_POINT('',(22.644675345522,3.105233322783,8.531558436484
    ));
#625 = CARTESIAN_POINT('',(22.613404238301,3.112770281435,8.552266060191
    ));
#626 = CARTESIAN_POINT('',(22.58146007987,3.119949007018,8.571989446633)
  );
#627 = CARTESIAN_POINT('',(22.422526261193,3.153182856584,8.663298697876
    ));
#628 = CARTESIAN_POINT('',(22.286371139309,3.174155819589,8.720921440151
    ));
#629 = CARTESIAN_POINT('',(22.141966722585,3.18934268808,8.762647018402)
  );
#630 = CARTESIAN_POINT('',(21.991201670288,3.19896585927,8.789086463949)
  );
#631 = CARTESIAN_POINT('',(21.835918979912,3.203499400519,8.801542266161
    ));
#632 = CARTESIAN_POINT('',(21.677707006369,3.203499400519,8.801542266161
    ));
#633 = ORIENTED_EDGE('',*,*,#634,.F.);
#634 = EDGE_CURVE('',#352,#618,#635,.T.);
#635 = B_SPLINE_CURVE_WITH_KNOTS('',6,(#636,#637,#638,#639,#640,#641,
    #642,#643,#644,#645,#646,#647),.UNSPECIFIED.,.F.,.F.,(7,5,7),(0.,
    0.492388443474,1.),.UNSPECIFIED.);
#636 = CARTESIAN_POINT('',(23.267515923567,2.723625533182,7.483099651469
    ));
#637 = CARTESIAN_POINT('',(23.250350902794,2.758667583793,7.579376894253
    ));
#638 = CARTESIAN_POINT('',(23.228702384649,2.79302202903,7.673764956799)
  );
#639 = CARTESIAN_POINT('',(23.202217421914,2.826558133902,7.765904647672
    ));
#640 = CARTESIAN_POINT('',(23.170545247231,2.859113324866,7.855349299732
    ));
#641 = CARTESIAN_POINT('',(23.133376075684,2.890500723869,7.941585469746
    ));
#642 = CARTESIAN_POINT('',(23.046375443733,2.951483988689,8.109135612805
    ));
#643 = CARTESIAN_POINT('',(22.996177264045,2.981002010444,8.190235711043
    ));
#644 = CARTESIAN_POINT('',(22.9397762441,3.008852191234,8.266753453893)
  );
#645 = CARTESIAN_POINT('',(22.877151712044,3.03482677128,8.338118026049)
  );
#646 = CARTESIAN_POINT('',(22.808493763802,3.058759762409,8.403873378755
    ));
#647 = CARTESIAN_POINT('',(22.734267515924,3.080546426701,8.463731746944
    ));
#648 = PLANE('',#649);
#649 = AXIS2_PLACEMENT_3D('',#650,#651,#652);
#650 = CARTESIAN_POINT('',(-1.,0.,0.));
#651 = DIRECTION('',(0.,-0.939692620786,0.342020143326));
#652 = DIRECTION('',(0.,0.342020143326,0.939692620786));
#653 = ADVANCED_FACE('',(#654),#665,.T.);
#654 = FACE_BOUND('',#655,.T.);
#655 = EDGE_LOOP('',(#656,#657,#658,#659));
#656 = ORIENTED_EDGE('',*,*,#323,.T.);
#657 = ORIENTED_EDGE('',*,*,#236,.T.);
#658 = ORIENTED_EDGE('',*,*,#134,.F.);
#659 = ORIENTED_EDGE('',*,*,#660,.F.);
#660 = EDGE_CURVE('',#316,#127,#661,.T.);
#661 = LINE('',#662,#663);
#662 = CARTESIAN_POINT('',(4.,19.05,-1.));
#663 = VECTOR('',#664,1.);
#664 = DIRECTION('',(0.,0.,1.));
#665 = PLANE('',#666);
#666 = AXIS2_PLACEMENT_3D('',#667,#668,#669);
#667 = CARTESIAN_POINT('',(4.,12.75,-1.));
#668 = DIRECTION('',(-1.,0.,0.));
#669 = DIRECTION('',(0.,1.,0.));
#670 = ADVANCED_FACE('',(#671),#682,.T.);
#671 = FACE_BOUND('',#672,.T.);
#672 = EDGE_LOOP('',(#673,#674,#675,#676));
#673 = ORIENTED_EDGE('',*,*,#315,.T.);
#674 = ORIENTED_EDGE('',*,*,#660,.T.);
#675 = ORIENTED_EDGE('',*,*,#126,.F.);
#676 = ORIENTED_EDGE('',*,*,#677,.F.);
#677 = EDGE_CURVE('',#308,#119,#678,.T.);
#678 = LINE('',#679,#680);
#679 = CARTESIAN_POINT('',(0.,18.05,-1.));
#680 = VECTOR('',#681,1.);
#681 = DIRECTION('',(0.,0.,1.));
#682 = PLANE('',#683);
#683 = AXIS2_PLACEMENT_3D('',#684,#685,#686);
#684 = CARTESIAN_POINT('',(4.,19.05,-1.));
#685 = DIRECTION('',(0.242535625036,-0.970142500145,0.));
#686 = DIRECTION('',(-0.970142500145,-0.242535625036,0.));
#687 = ADVANCED_FACE('',(#688),#699,.F.);
#688 = FACE_BOUND('',#689,.F.);
#689 = EDGE_LOOP('',(#690,#691,#692,#693));
#690 = ORIENTED_EDGE('',*,*,#118,.F.);
#691 = ORIENTED_EDGE('',*,*,#677,.F.);
#692 = ORIENTED_EDGE('',*,*,#307,.T.);
#693 = ORIENTED_EDGE('',*,*,#694,.T.);
#694 = EDGE_CURVE('',#300,#111,#695,.T.);
#695 = LINE('',#696,#697);
#696 = CARTESIAN_POINT('',(0.,53.,0.));
#697 = VECTOR('',#698,1.);
#698 = DIRECTION('',(0.,0.,1.));
#699 = PLANE('',#700);
#700 = AXIS2_PLACEMENT_3D('',#701,#702,#703);
#701 = CARTESIAN_POINT('',(0.,0.,0.));
#702 = DIRECTION('',(1.,0.,0.));
#703 = DIRECTION('',(0.,0.,1.));
#704 = ADVANCED_FACE('',(#705),#716,.T.);
#705 = FACE_BOUND('',#706,.T.);
#706 = EDGE_LOOP('',(#707,#708,#709,#710));
#707 = ORIENTED_EDGE('',*,*,#299,.F.);
#708 = ORIENTED_EDGE('',*,*,#694,.T.);
#709 = ORIENTED_EDGE('',*,*,#110,.T.);
#710 = ORIENTED_EDGE('',*,*,#711,.F.);
#711 = EDGE_CURVE('',#292,#103,#712,.T.);
#712 = LINE('',#713,#714);
#713 = CARTESIAN_POINT('',(43.,53.,0.));
#714 = VECTOR('',#715,1.);
#715 = DIRECTION('',(0.,0.,1.));
#716 = PLANE('',#717);
#717 = AXIS2_PLACEMENT_3D('',#718,#719,#720);
#718 = CARTESIAN_POINT('',(0.,53.,0.));
#719 = DIRECTION('',(0.,1.,0.));
#720 = DIRECTION('',(0.,0.,1.));
#721 = ADVANCED_FACE('',(#722),#733,.T.);
#722 = FACE_BOUND('',#723,.T.);
#723 = EDGE_LOOP('',(#724,#725,#731,#732));
#724 = ORIENTED_EDGE('',*,*,#102,.F.);
#725 = ORIENTED_EDGE('',*,*,#726,.T.);
#726 = EDGE_CURVE('',#95,#284,#727,.T.);
#727 = LINE('',#728,#729);
#728 = CARTESIAN_POINT('',(43.,17.924390243902,0.));
#729 = VECTOR('',#730,1.);
#730 = DIRECTION('',(0.,0.,-1.));
#731 = ORIENTED_EDGE('',*,*,#291,.T.);
#732 = ORIENTED_EDGE('',*,*,#711,.T.);
#733 = PLANE('',#734);
#734 = AXIS2_PLACEMENT_3D('',#735,#736,#737);
#735 = CARTESIAN_POINT('',(43.,0.,0.));
#736 = DIRECTION('',(1.,0.,0.));
#737 = DIRECTION('',(0.,0.,1.));
#738 = ADVANCED_FACE('',(#739),#750,.T.);
#739 = FACE_BOUND('',#740,.T.);
#740 = EDGE_LOOP('',(#741,#742,#748,#749));
#741 = ORIENTED_EDGE('',*,*,#78,.T.);
#742 = ORIENTED_EDGE('',*,*,#743,.T.);
#743 = EDGE_CURVE('',#71,#95,#744,.T.);
#744 = LINE('',#745,#746);
#745 = CARTESIAN_POINT('',(43.,0.,10.));
#746 = VECTOR('',#747,1.);
#747 = DIRECTION('',(0.,1.,0.));
#748 = ORIENTED_EDGE('',*,*,#94,.T.);
#749 = ORIENTED_EDGE('',*,*,#86,.T.);
#750 = PLANE('',#751);
#751 = AXIS2_PLACEMENT_3D('',#752,#753,#754);
#752 = CARTESIAN_POINT('',(0.,0.,10.));
#753 = DIRECTION('',(0.,0.,1.));
#754 = DIRECTION('',(1.,0.,0.));
#755 = ADVANCED_FACE('',(#756),#767,.T.);
#756 = FACE_BOUND('',#757,.T.);
#757 = EDGE_LOOP('',(#758,#759,#760,#761));
#758 = ORIENTED_EDGE('',*,*,#70,.F.);
#759 = ORIENTED_EDGE('',*,*,#340,.T.);
#760 = ORIENTED_EDGE('',*,*,#259,.T.);
#761 = ORIENTED_EDGE('',*,*,#762,.T.);
#762 = EDGE_CURVE('',#260,#71,#763,.T.);
#763 = LINE('',#764,#765);
#764 = CARTESIAN_POINT('',(43.,13.875609756098,0.));
#765 = VECTOR('',#766,1.);
#766 = DIRECTION('',(0.,0.,1.));
#767 = PLANE('',#768);
#768 = AXIS2_PLACEMENT_3D('',#769,#770,#771);
#769 = CARTESIAN_POINT('',(43.,0.,0.));
#770 = DIRECTION('',(1.,0.,0.));
#771 = DIRECTION('',(0.,0.,1.));
#772 = ADVANCED_FACE('',(#773),#799,.T.);
#773 = FACE_BOUND('',#774,.T.);
#774 = EDGE_LOOP('',(#775,#783,#784,#792));
#775 = ORIENTED_EDGE('',*,*,#776,.F.);
#776 = EDGE_CURVE('',#151,#777,#779,.T.);
#777 = VERTEX_POINT('',#778);
#778 = CARTESIAN_POINT('',(18.185,36.775,20.5));
#779 = LINE('',#780,#781);
#780 = CARTESIAN_POINT('',(18.185,36.775,9.9));
#781 = VECTOR('',#782,1.);
#782 = DIRECTION('',(0.,0.,1.));
#783 = ORIENTED_EDGE('',*,*,#150,.T.);
#784 = ORIENTED_EDGE('',*,*,#785,.T.);
#785 = EDGE_CURVE('',#153,#786,#788,.T.);
#786 = VERTEX_POINT('',#787);
#787 = CARTESIAN_POINT('',(17.585,36.175,20.5));
#788 = LINE('',#789,#790);
#789 = CARTESIAN_POINT('',(17.585,36.175,9.9));
#790 = VECTOR('',#791,1.);
#791 = DIRECTION('',(0.,0.,1.));
#792 = ORIENTED_EDGE('',*,*,#793,.F.);
#793 = EDGE_CURVE('',#777,#786,#794,.T.);
#794 = CIRCLE('',#795,0.6);
#795 = AXIS2_PLACEMENT_3D('',#796,#797,#798);
#796 = CARTESIAN_POINT('',(18.185,36.175,20.5));
#797 = DIRECTION('',(0.,-0.,1.));
#798 = DIRECTION('',(0.,1.,0.));
#799 = CYLINDRICAL_SURFACE('',#800,0.6);
#800 = AXIS2_PLACEMENT_3D('',#801,#802,#803);
#801 = CARTESIAN_POINT('',(18.185,36.175,9.9));
#802 = DIRECTION('',(0.,0.,1.));
#803 = DIRECTION('',(0.,1.,0.));
#804 = ADVANCED_FACE('',(#805),#823,.F.);
#805 = FACE_BOUND('',#806,.F.);
#806 = EDGE_LOOP('',(#807,#808,#816,#822));
#807 = ORIENTED_EDGE('',*,*,#161,.T.);
#808 = ORIENTED_EDGE('',*,*,#809,.T.);
#809 = EDGE_CURVE('',#162,#810,#812,.T.);
#810 = VERTEX_POINT('',#811);
#811 = CARTESIAN_POINT('',(24.815,36.775,20.5));
#812 = LINE('',#813,#814);
#813 = CARTESIAN_POINT('',(24.815,36.775,9.9));
#814 = VECTOR('',#815,1.);
#815 = DIRECTION('',(0.,0.,1.));
#816 = ORIENTED_EDGE('',*,*,#817,.T.);
#817 = EDGE_CURVE('',#810,#777,#818,.T.);
#818 = LINE('',#819,#820);
#819 = CARTESIAN_POINT('',(24.815,36.775,20.5));
#820 = VECTOR('',#821,1.);
#821 = DIRECTION('',(-1.,0.,0.));
#822 = ORIENTED_EDGE('',*,*,#776,.F.);
#823 = PLANE('',#824);
#824 = AXIS2_PLACEMENT_3D('',#825,#826,#827);
#825 = CARTESIAN_POINT('',(25.415,36.775,9.9));
#826 = DIRECTION('',(0.,-1.,0.));
#827 = DIRECTION('',(-1.,0.,0.));
#828 = ADVANCED_FACE('',(#829),#847,.F.);
#829 = FACE_BOUND('',#830,.F.);
#830 = EDGE_LOOP('',(#831,#832,#833,#841));
#831 = ORIENTED_EDGE('',*,*,#212,.T.);
#832 = ORIENTED_EDGE('',*,*,#785,.T.);
#833 = ORIENTED_EDGE('',*,*,#834,.T.);
#834 = EDGE_CURVE('',#786,#835,#837,.T.);
#835 = VERTEX_POINT('',#836);
#836 = CARTESIAN_POINT('',(17.585,29.545,20.5));
#837 = LINE('',#838,#839);
#838 = CARTESIAN_POINT('',(17.585,36.175,20.5));
#839 = VECTOR('',#840,1.);
#840 = DIRECTION('',(0.,-1.,0.));
#841 = ORIENTED_EDGE('',*,*,#842,.F.);
#842 = EDGE_CURVE('',#204,#835,#843,.T.);
#843 = LINE('',#844,#845);
#844 = CARTESIAN_POINT('',(17.585,29.545,9.9));
#845 = VECTOR('',#846,1.);
#846 = DIRECTION('',(0.,0.,1.));
#847 = PLANE('',#848);
#848 = AXIS2_PLACEMENT_3D('',#849,#850,#851);
#849 = CARTESIAN_POINT('',(17.585,36.775,9.9));
#850 = DIRECTION('',(1.,0.,0.));
#851 = DIRECTION('',(0.,-1.,0.));
#852 = ADVANCED_FACE('',(#853),#872,.T.);
#853 = FACE_BOUND('',#854,.F.);
#854 = EDGE_LOOP('',(#855,#856,#857,#865));
#855 = ORIENTED_EDGE('',*,*,#809,.F.);
#856 = ORIENTED_EDGE('',*,*,#169,.F.);
#857 = ORIENTED_EDGE('',*,*,#858,.T.);
#858 = EDGE_CURVE('',#170,#859,#861,.T.);
#859 = VERTEX_POINT('',#860);
#860 = CARTESIAN_POINT('',(25.415,36.175,20.5));
#861 = LINE('',#862,#863);
#862 = CARTESIAN_POINT('',(25.415,36.175,9.9));
#863 = VECTOR('',#864,1.);
#864 = DIRECTION('',(0.,0.,1.));
#865 = ORIENTED_EDGE('',*,*,#866,.T.);
#866 = EDGE_CURVE('',#859,#810,#867,.T.);
#867 = CIRCLE('',#868,0.6);
#868 = AXIS2_PLACEMENT_3D('',#869,#870,#871);
#869 = CARTESIAN_POINT('',(24.815,36.175,20.5));
#870 = DIRECTION('',(0.,0.,1.));
#871 = DIRECTION('',(1.,0.,0.));
#872 = CYLINDRICAL_SURFACE('',#873,0.6);
#873 = AXIS2_PLACEMENT_3D('',#874,#875,#876);
#874 = CARTESIAN_POINT('',(24.815,36.175,9.9));
#875 = DIRECTION('',(0.,0.,1.));
#876 = DIRECTION('',(0.,1.,0.));
#877 = ADVANCED_FACE('',(#878),#897,.T.);
#878 = FACE_BOUND('',#879,.T.);
#879 = EDGE_LOOP('',(#880,#881,#882,#890));
#880 = ORIENTED_EDGE('',*,*,#842,.F.);
#881 = ORIENTED_EDGE('',*,*,#203,.T.);
#882 = ORIENTED_EDGE('',*,*,#883,.T.);
#883 = EDGE_CURVE('',#196,#884,#886,.T.);
#884 = VERTEX_POINT('',#885);
#885 = CARTESIAN_POINT('',(18.185,28.945,20.5));
#886 = LINE('',#887,#888);
#887 = CARTESIAN_POINT('',(18.185,28.945,9.9));
#888 = VECTOR('',#889,1.);
#889 = DIRECTION('',(0.,0.,1.));
#890 = ORIENTED_EDGE('',*,*,#891,.F.);
#891 = EDGE_CURVE('',#835,#884,#892,.T.);
#892 = CIRCLE('',#893,0.6);
#893 = AXIS2_PLACEMENT_3D('',#894,#895,#896);
#894 = CARTESIAN_POINT('',(18.185,29.545,20.5));
#895 = DIRECTION('',(0.,0.,1.));
#896 = DIRECTION('',(-1.,0.,0.));
#897 = CYLINDRICAL_SURFACE('',#898,0.6);
#898 = AXIS2_PLACEMENT_3D('',#899,#900,#901);
#899 = CARTESIAN_POINT('',(18.185,29.545,9.9));
#900 = DIRECTION('',(0.,0.,1.));
#901 = DIRECTION('',(-1.,0.,0.));
#902 = ADVANCED_FACE('',(#903),#921,.F.);
#903 = FACE_BOUND('',#904,.F.);
#904 = EDGE_LOOP('',(#905,#906,#914,#920));
#905 = ORIENTED_EDGE('',*,*,#178,.T.);
#906 = ORIENTED_EDGE('',*,*,#907,.T.);
#907 = EDGE_CURVE('',#179,#908,#910,.T.);
#908 = VERTEX_POINT('',#909);
#909 = CARTESIAN_POINT('',(25.415,29.545,20.5));
#910 = LINE('',#911,#912);
#911 = CARTESIAN_POINT('',(25.415,29.545,9.9));
#912 = VECTOR('',#913,1.);
#913 = DIRECTION('',(0.,0.,1.));
#914 = ORIENTED_EDGE('',*,*,#915,.T.);
#915 = EDGE_CURVE('',#908,#859,#916,.T.);
#916 = LINE('',#917,#918);
#917 = CARTESIAN_POINT('',(25.415,29.545,20.5));
#918 = VECTOR('',#919,1.);
#919 = DIRECTION('',(0.,1.,0.));
#920 = ORIENTED_EDGE('',*,*,#858,.F.);
#921 = PLANE('',#922);
#922 = AXIS2_PLACEMENT_3D('',#923,#924,#925);
#923 = CARTESIAN_POINT('',(25.415,28.945,9.9));
#924 = DIRECTION('',(-1.,0.,0.));
#925 = DIRECTION('',(0.,1.,0.));
#926 = ADVANCED_FACE('',(#927),#945,.F.);
#927 = FACE_BOUND('',#928,.F.);
#928 = EDGE_LOOP('',(#929,#930,#931,#939));
#929 = ORIENTED_EDGE('',*,*,#195,.T.);
#930 = ORIENTED_EDGE('',*,*,#883,.T.);
#931 = ORIENTED_EDGE('',*,*,#932,.T.);
#932 = EDGE_CURVE('',#884,#933,#935,.T.);
#933 = VERTEX_POINT('',#934);
#934 = CARTESIAN_POINT('',(24.815,28.945,20.5));
#935 = LINE('',#936,#937);
#936 = CARTESIAN_POINT('',(18.185,28.945,20.5));
#937 = VECTOR('',#938,1.);
#938 = DIRECTION('',(1.,0.,0.));
#939 = ORIENTED_EDGE('',*,*,#940,.F.);
#940 = EDGE_CURVE('',#187,#933,#941,.T.);
#941 = LINE('',#942,#943);
#942 = CARTESIAN_POINT('',(24.815,28.945,9.9));
#943 = VECTOR('',#944,1.);
#944 = DIRECTION('',(0.,0.,1.));
#945 = PLANE('',#946);
#946 = AXIS2_PLACEMENT_3D('',#947,#948,#949);
#947 = CARTESIAN_POINT('',(17.585,28.945,9.9));
#948 = DIRECTION('',(0.,1.,0.));
#949 = DIRECTION('',(1.,0.,0.));
#950 = ADVANCED_FACE('',(#951),#963,.T.);
#951 = FACE_BOUND('',#952,.T.);
#952 = EDGE_LOOP('',(#953,#954,#955,#956));
#953 = ORIENTED_EDGE('',*,*,#940,.F.);
#954 = ORIENTED_EDGE('',*,*,#186,.T.);
#955 = ORIENTED_EDGE('',*,*,#907,.T.);
#956 = ORIENTED_EDGE('',*,*,#957,.F.);
#957 = EDGE_CURVE('',#933,#908,#958,.T.);
#958 = CIRCLE('',#959,0.6);
#959 = AXIS2_PLACEMENT_3D('',#960,#961,#962);
#960 = CARTESIAN_POINT('',(24.815,29.545,20.5));
#961 = DIRECTION('',(-0.,0.,1.));
#962 = DIRECTION('',(0.,-1.,0.));
#963 = CYLINDRICAL_SURFACE('',#964,0.6);
#964 = AXIS2_PLACEMENT_3D('',#965,#966,#967);
#965 = CARTESIAN_POINT('',(24.815,29.545,9.9));
#966 = DIRECTION('',(0.,0.,1.));
#967 = DIRECTION('',(0.,-1.,0.));
#968 = ADVANCED_FACE('',(#969),#980,.F.);
#969 = FACE_BOUND('',#970,.F.);
#970 = EDGE_LOOP('',(#971,#972,#978,#979));
#971 = ORIENTED_EDGE('',*,*,#267,.T.);
#972 = ORIENTED_EDGE('',*,*,#973,.T.);
#973 = EDGE_CURVE('',#260,#284,#974,.T.);
#974 = LINE('',#975,#976);
#975 = CARTESIAN_POINT('',(43.,0.,0.));
#976 = VECTOR('',#977,1.);
#977 = DIRECTION('',(0.,1.,0.));
#978 = ORIENTED_EDGE('',*,*,#283,.T.);
#979 = ORIENTED_EDGE('',*,*,#275,.T.);
#980 = PLANE('',#981);
#981 = AXIS2_PLACEMENT_3D('',#982,#983,#984);
#982 = CARTESIAN_POINT('',(0.,0.,0.));
#983 = DIRECTION('',(0.,0.,1.));
#984 = DIRECTION('',(1.,0.,0.));
#985 = ADVANCED_FACE('',(#986),#1011,.T.);
#986 = FACE_BOUND('',#987,.T.);
#987 = EDGE_LOOP('',(#988,#989,#997,#1005));
#988 = ORIENTED_EDGE('',*,*,#349,.T.);
#989 = ORIENTED_EDGE('',*,*,#990,.T.);
#990 = EDGE_CURVE('',#352,#991,#993,.T.);
#991 = VERTEX_POINT('',#992);
#992 = CARTESIAN_POINT('',(23.267515923567,2.159809960711,7.688311737464
    ));
#993 = LINE('',#994,#995);
#994 = CARTESIAN_POINT('',(23.267515923567,2.91156405734,7.414695622804)
  );
#995 = VECTOR('',#996,1.);
#996 = DIRECTION('',(0.,-0.939692620786,0.342020143326));
#997 = ORIENTED_EDGE('',*,*,#998,.T.);
#998 = EDGE_CURVE('',#991,#999,#1001,.T.);
#999 = VERTEX_POINT('',#1000);
#1000 = CARTESIAN_POINT('',(22.228025477707,2.121033154652,7.58177333842
    ));
#1001 = LINE('',#1002,#1003);
#1002 = CARTESIAN_POINT('',(23.267515923567,2.159809960711,
    7.688311737464));
#1003 = VECTOR('',#1004,1.);
#1004 = DIRECTION('',(-0.994104564342,-3.708374622103E-02,
    -0.101886755371));
#1005 = ORIENTED_EDGE('',*,*,#1006,.F.);
#1006 = EDGE_CURVE('',#350,#999,#1007,.T.);
#1007 = LINE('',#1008,#1009);
#1008 = CARTESIAN_POINT('',(22.228025477707,2.872787251281,
    7.308157223759));
#1009 = VECTOR('',#1010,1.);
#1010 = DIRECTION('',(0.,-0.939692620786,0.342020143326));
#1011 = PLANE('',#1012);
#1012 = AXIS2_PLACEMENT_3D('',#1013,#1014,#1015);
#1013 = CARTESIAN_POINT('',(23.267515923567,2.91156405734,7.414695622804
    ));
#1014 = DIRECTION('',(0.108425620376,-0.340003785577,-0.934152723402));
#1015 = DIRECTION('',(-0.994104564342,-3.708374622103E-02,
    -0.101886755371));
#1016 = ADVANCED_FACE('',(#1017),#1035,.T.);
#1017 = FACE_BOUND('',#1018,.T.);
#1018 = EDGE_LOOP('',(#1019,#1020,#1028,#1034));
#1019 = ORIENTED_EDGE('',*,*,#634,.T.);
#1020 = ORIENTED_EDGE('',*,*,#1021,.T.);
#1021 = EDGE_CURVE('',#618,#1022,#1024,.T.);
#1022 = VERTEX_POINT('',#1023);
#1023 = CARTESIAN_POINT('',(22.734267515924,2.51673085423,8.668943832939
    ));
#1024 = LINE('',#1025,#1026);
#1025 = CARTESIAN_POINT('',(22.734267515924,3.268484950859,
    8.395327718279));
#1026 = VECTOR('',#1027,1.);
#1027 = DIRECTION('',(0.,-0.939692620786,0.342020143326));
#1028 = ORIENTED_EDGE('',*,*,#1029,.T.);
#1029 = EDGE_CURVE('',#1022,#991,#1030,.T.);
#1030 = B_SPLINE_CURVE_WITH_KNOTS('',2,(#1031,#1032,#1033),
  .UNSPECIFIED.,.F.,.F.,(3,3),(0.,1.),.PIECEWISE_BEZIER_KNOTS.);
#1031 = CARTESIAN_POINT('',(22.734267515924,2.51673085423,8.668943832939
    ));
#1032 = CARTESIAN_POINT('',(23.152866242038,2.393865019303,
    8.331372725854));
#1033 = CARTESIAN_POINT('',(23.267515923567,2.159809960711,
    7.688311737464));
#1034 = ORIENTED_EDGE('',*,*,#990,.F.);
#1035 = SURFACE_OF_LINEAR_EXTRUSION('',#1036,#1040);
#1036 = B_SPLINE_CURVE_WITH_KNOTS('',2,(#1037,#1038,#1039),
  .UNSPECIFIED.,.F.,.F.,(3,3),(0.,1.),.PIECEWISE_BEZIER_KNOTS.);
#1037 = CARTESIAN_POINT('',(22.734267515924,3.268484950859,
    8.395327718279));
#1038 = CARTESIAN_POINT('',(23.152866242038,3.145619115931,
    8.057756611194));
#1039 = CARTESIAN_POINT('',(23.267515923567,2.91156405734,7.414695622804
    ));
#1040 = VECTOR('',#1041,1.);
#1041 = DIRECTION('',(-0.,0.939692620786,-0.342020143326));
#1042 = ADVANCED_FACE('',(#1043),#1061,.T.);
#1043 = FACE_BOUND('',#1044,.T.);
#1044 = EDGE_LOOP('',(#1045,#1046,#1054,#1060));
#1045 = ORIENTED_EDGE('',*,*,#617,.T.);
#1046 = ORIENTED_EDGE('',*,*,#1047,.T.);
#1047 = EDGE_CURVE('',#595,#1048,#1050,.T.);
#1048 = VERTEX_POINT('',#1049);
#1049 = CARTESIAN_POINT('',(21.677707006369,2.639683828047,
    9.006754352157));
#1050 = LINE('',#1051,#1052);
#1051 = CARTESIAN_POINT('',(21.677707006369,3.391437924676,
    8.733138237496));
#1052 = VECTOR('',#1053,1.);
#1053 = DIRECTION('',(0.,-0.939692620786,0.342020143326));
#1054 = ORIENTED_EDGE('',*,*,#1055,.T.);
#1055 = EDGE_CURVE('',#1048,#1022,#1056,.T.);
#1056 = B_SPLINE_CURVE_WITH_KNOTS('',2,(#1057,#1058,#1059),
  .UNSPECIFIED.,.F.,.F.,(3,3),(0.,1.),.PIECEWISE_BEZIER_KNOTS.);
#1057 = CARTESIAN_POINT('',(21.677707006369,2.639683828047,
    9.006754352157));
#1058 = CARTESIAN_POINT('',(22.315923566879,2.639683828047,
    9.006754352157));
#1059 = CARTESIAN_POINT('',(22.734267515924,2.51673085423,8.668943832939
    ));
#1060 = ORIENTED_EDGE('',*,*,#1021,.F.);
#1061 = SURFACE_OF_LINEAR_EXTRUSION('',#1062,#1066);
#1062 = B_SPLINE_CURVE_WITH_KNOTS('',2,(#1063,#1064,#1065),
  .UNSPECIFIED.,.F.,.F.,(3,3),(0.,1.),.PIECEWISE_BEZIER_KNOTS.);
#1063 = CARTESIAN_POINT('',(21.677707006369,3.391437924676,
    8.733138237496));
#1064 = CARTESIAN_POINT('',(22.315923566879,3.391437924676,
    8.733138237496));
#1065 = CARTESIAN_POINT('',(22.734267515924,3.268484950859,
    8.395327718279));
#1066 = VECTOR('',#1067,1.);
#1067 = DIRECTION('',(-0.,0.939692620786,-0.342020143326));
#1068 = ADVANCED_FACE('',(#1069),#1087,.T.);
#1069 = FACE_BOUND('',#1070,.T.);
#1070 = EDGE_LOOP('',(#1071,#1072,#1080,#1086));
#1071 = ORIENTED_EDGE('',*,*,#594,.T.);
#1072 = ORIENTED_EDGE('',*,*,#1073,.T.);
#1073 = EDGE_CURVE('',#573,#1074,#1076,.T.);
#1074 = VERTEX_POINT('',#1075);
#1075 = CARTESIAN_POINT('',(20.19872611465,2.406238741685,8.365369248695
    ));
#1076 = LINE('',#1077,#1078);
#1077 = CARTESIAN_POINT('',(20.19872611465,3.157992838314,8.091753134035
    ));
#1078 = VECTOR('',#1079,1.);
#1079 = DIRECTION('',(0.,-0.939692620786,0.342020143326));
#1080 = ORIENTED_EDGE('',*,*,#1081,.T.);
#1081 = EDGE_CURVE('',#1074,#1048,#1082,.T.);
#1082 = B_SPLINE_CURVE_WITH_KNOTS('',2,(#1083,#1084,#1085),
  .UNSPECIFIED.,.F.,.F.,(3,3),(0.,1.),.PIECEWISE_BEZIER_KNOTS.);
#1083 = CARTESIAN_POINT('',(20.19872611465,2.406238741685,8.365369248695
    ));
#1084 = CARTESIAN_POINT('',(20.768152866242,2.639683828047,
    9.006754352157));
#1085 = CARTESIAN_POINT('',(21.677707006369,2.639683828047,
    9.006754352157));
#1086 = ORIENTED_EDGE('',*,*,#1047,.F.);
#1087 = SURFACE_OF_LINEAR_EXTRUSION('',#1088,#1092);
#1088 = B_SPLINE_CURVE_WITH_KNOTS('',2,(#1089,#1090,#1091),
  .UNSPECIFIED.,.F.,.F.,(3,3),(0.,1.),.PIECEWISE_BEZIER_KNOTS.);
#1089 = CARTESIAN_POINT('',(20.19872611465,3.157992838314,8.091753134035
    ));
#1090 = CARTESIAN_POINT('',(20.768152866242,3.391437924676,
    8.733138237496));
#1091 = CARTESIAN_POINT('',(21.677707006369,3.391437924676,
    8.733138237496));
#1092 = VECTOR('',#1093,1.);
#1093 = DIRECTION('',(-0.,0.939692620786,-0.342020143326));
#1094 = ADVANCED_FACE('',(#1095),#1113,.T.);
#1095 = FACE_BOUND('',#1096,.T.);
#1096 = EDGE_LOOP('',(#1097,#1098,#1106,#1112));
#1097 = ORIENTED_EDGE('',*,*,#572,.T.);
#1098 = ORIENTED_EDGE('',*,*,#1099,.T.);
#1099 = EDGE_CURVE('',#551,#1100,#1102,.T.);
#1100 = VERTEX_POINT('',#1101);
#1101 = CARTESIAN_POINT('',(19.629299363057,1.644383426247,
    6.272188972637));
#1102 = LINE('',#1103,#1104);
#1103 = CARTESIAN_POINT('',(19.629299363057,2.396137522876,
    5.998572857976));
#1104 = VECTOR('',#1105,1.);
#1105 = DIRECTION('',(0.,-0.939692620786,0.342020143326));
#1106 = ORIENTED_EDGE('',*,*,#1107,.T.);
#1107 = EDGE_CURVE('',#1100,#1074,#1108,.T.);
#1108 = B_SPLINE_CURVE_WITH_KNOTS('',2,(#1109,#1110,#1111),
  .UNSPECIFIED.,.F.,.F.,(3,3),(0.,1.),.PIECEWISE_BEZIER_KNOTS.);
#1109 = CARTESIAN_POINT('',(19.629299363057,1.644383426247,
    6.272188972637));
#1110 = CARTESIAN_POINT('',(19.629299363057,2.172880794214,
    7.724223557367));
#1111 = CARTESIAN_POINT('',(20.19872611465,2.406238741685,8.365369248695
    ));
#1112 = ORIENTED_EDGE('',*,*,#1073,.F.);
#1113 = SURFACE_OF_LINEAR_EXTRUSION('',#1114,#1118);
#1114 = B_SPLINE_CURVE_WITH_KNOTS('',2,(#1115,#1116,#1117),
  .UNSPECIFIED.,.F.,.F.,(3,3),(0.,1.),.PIECEWISE_BEZIER_KNOTS.);
#1115 = CARTESIAN_POINT('',(19.629299363057,2.396137522876,
    5.998572857976));
#1116 = CARTESIAN_POINT('',(19.629299363057,2.924634890843,
    7.450607442706));
#1117 = CARTESIAN_POINT('',(20.19872611465,3.157992838314,8.091753134035
    ));
#1118 = VECTOR('',#1119,1.);
#1119 = DIRECTION('',(-0.,0.939692620786,-0.342020143326));
#1120 = ADVANCED_FACE('',(#1121),#1139,.T.);
#1121 = FACE_BOUND('',#1122,.T.);
#1122 = EDGE_LOOP('',(#1123,#1124,#1132,#1138));
#1123 = ORIENTED_EDGE('',*,*,#550,.T.);
#1124 = ORIENTED_EDGE('',*,*,#1125,.T.);
#1125 = EDGE_CURVE('',#528,#1126,#1128,.T.);
#1126 = VERTEX_POINT('',#1127);
#1127 = CARTESIAN_POINT('',(20.175796178344,0.902831472183,
    4.234791723493));
#1128 = LINE('',#1129,#1130);
#1129 = CARTESIAN_POINT('',(20.175796178344,1.654585568812,
    3.961175608833));
#1130 = VECTOR('',#1131,1.);
#1131 = DIRECTION('',(0.,-0.939692620786,0.342020143326));
#1132 = ORIENTED_EDGE('',*,*,#1133,.T.);
#1133 = EDGE_CURVE('',#1126,#1100,#1134,.T.);
#1134 = B_SPLINE_CURVE_WITH_KNOTS('',2,(#1135,#1136,#1137),
  .UNSPECIFIED.,.F.,.F.,(3,3),(0.,1.),.PIECEWISE_BEZIER_KNOTS.);
#1135 = CARTESIAN_POINT('',(20.175796178344,0.902831472183,
    4.234791723493));
#1136 = CARTESIAN_POINT('',(19.629299363057,1.129044030673,
    4.856305619942));
#1137 = CARTESIAN_POINT('',(19.629299363057,1.644383426247,
    6.272188972637));
#1138 = ORIENTED_EDGE('',*,*,#1099,.F.);
#1139 = SURFACE_OF_LINEAR_EXTRUSION('',#1140,#1144);
#1140 = B_SPLINE_CURVE_WITH_KNOTS('',2,(#1141,#1142,#1143),
  .UNSPECIFIED.,.F.,.F.,(3,3),(0.,1.),.PIECEWISE_BEZIER_KNOTS.);
#1141 = CARTESIAN_POINT('',(20.175796178344,1.654585568812,
    3.961175608833));
#1142 = CARTESIAN_POINT('',(19.629299363057,1.880798127302,
    4.582689505281));
#1143 = CARTESIAN_POINT('',(19.629299363057,2.396137522876,
    5.998572857976));
#1144 = VECTOR('',#1145,1.);
#1145 = DIRECTION('',(-0.,0.939692620786,-0.342020143326));
#1146 = ADVANCED_FACE('',(#1147),#1165,.T.);
#1147 = FACE_BOUND('',#1148,.T.);
#1148 = EDGE_LOOP('',(#1149,#1150,#1158,#1164));
#1149 = ORIENTED_EDGE('',*,*,#527,.T.);
#1150 = ORIENTED_EDGE('',*,*,#1151,.T.);
#1151 = EDGE_CURVE('',#509,#1152,#1154,.T.);
#1152 = VERTEX_POINT('',#1153);
#1153 = CARTESIAN_POINT('',(21.570700636943,0.676618913693,
    3.613277827045));
#1154 = LINE('',#1155,#1156);
#1155 = CARTESIAN_POINT('',(21.570700636943,1.428373010321,
    3.339661712384));
#1156 = VECTOR('',#1157,1.);
#1157 = DIRECTION('',(0.,-0.939692620786,0.342020143326));
#1158 = ORIENTED_EDGE('',*,*,#1159,.T.);
#1159 = EDGE_CURVE('',#1152,#1126,#1160,.T.);
#1160 = B_SPLINE_CURVE_WITH_KNOTS('',2,(#1161,#1162,#1163),
  .UNSPECIFIED.,.F.,.F.,(3,3),(0.,1.),.PIECEWISE_BEZIER_KNOTS.);
#1161 = CARTESIAN_POINT('',(21.570700636943,0.676618913693,
    3.613277827045));
#1162 = CARTESIAN_POINT('',(20.722292993631,0.676618913693,
    3.613277827045));
#1163 = CARTESIAN_POINT('',(20.175796178344,0.902831472183,
    4.234791723493));
#1164 = ORIENTED_EDGE('',*,*,#1125,.F.);
#1165 = SURFACE_OF_LINEAR_EXTRUSION('',#1166,#1170);
#1166 = B_SPLINE_CURVE_WITH_KNOTS('',2,(#1167,#1168,#1169),
  .UNSPECIFIED.,.F.,.F.,(3,3),(0.,1.),.PIECEWISE_BEZIER_KNOTS.);
#1167 = CARTESIAN_POINT('',(21.570700636943,1.428373010321,
    3.339661712384));
#1168 = CARTESIAN_POINT('',(20.722292993631,1.428373010321,
    3.339661712384));
#1169 = CARTESIAN_POINT('',(20.175796178344,1.654585568812,
    3.961175608833));
#1170 = VECTOR('',#1171,1.);
#1171 = DIRECTION('',(-0.,0.939692620786,-0.342020143326));
#1172 = ADVANCED_FACE('',(#1173),#1191,.T.);
#1173 = FACE_BOUND('',#1174,.T.);
#1174 = EDGE_LOOP('',(#1175,#1176,#1184,#1190));
#1175 = ORIENTED_EDGE('',*,*,#508,.T.);
#1176 = ORIENTED_EDGE('',*,*,#1177,.T.);
#1177 = EDGE_CURVE('',#486,#1178,#1180,.T.);
#1178 = VERTEX_POINT('',#1179);
#1179 = CARTESIAN_POINT('',(22.866242038217,0.854382249332,
    4.101678577721));
#1180 = LINE('',#1181,#1182);
#1181 = CARTESIAN_POINT('',(22.866242038217,1.606136345961,3.82806246306
    ));
#1182 = VECTOR('',#1183,1.);
#1183 = DIRECTION('',(0.,-0.939692620786,0.342020143326));
#1184 = ORIENTED_EDGE('',*,*,#1185,.T.);
#1185 = EDGE_CURVE('',#1178,#1152,#1186,.T.);
#1186 = B_SPLINE_CURVE_WITH_KNOTS('',2,(#1187,#1188,#1189),
  .UNSPECIFIED.,.F.,.F.,(3,3),(0.,1.),.PIECEWISE_BEZIER_KNOTS.);
#1187 = CARTESIAN_POINT('',(22.866242038217,0.854382249332,
    4.101678577721));
#1188 = CARTESIAN_POINT('',(22.36178343949,0.676618913693,3.613277827045
    ));
#1189 = CARTESIAN_POINT('',(21.570700636943,0.676618913693,
    3.613277827045));
#1190 = ORIENTED_EDGE('',*,*,#1151,.F.);
#1191 = SURFACE_OF_LINEAR_EXTRUSION('',#1192,#1196);
#1192 = B_SPLINE_CURVE_WITH_KNOTS('',2,(#1193,#1194,#1195),
  .UNSPECIFIED.,.F.,.F.,(3,3),(0.,1.),.PIECEWISE_BEZIER_KNOTS.);
#1193 = CARTESIAN_POINT('',(22.866242038217,1.606136345961,3.82806246306
    ));
#1194 = CARTESIAN_POINT('',(22.36178343949,1.428373010321,3.339661712384
    ));
#1195 = CARTESIAN_POINT('',(21.570700636943,1.428373010321,
    3.339661712384));
#1196 = VECTOR('',#1197,1.);
#1197 = DIRECTION('',(-0.,0.939692620786,-0.342020143326));
#1198 = ADVANCED_FACE('',(#1199),#1217,.T.);
#1199 = FACE_BOUND('',#1200,.T.);
#1200 = EDGE_LOOP('',(#1201,#1202,#1210,#1216));
#1201 = ORIENTED_EDGE('',*,*,#485,.T.);
#1202 = ORIENTED_EDGE('',*,*,#1203,.T.);
#1203 = EDGE_CURVE('',#463,#1204,#1206,.T.);
#1204 = VERTEX_POINT('',#1205);
#1205 = CARTESIAN_POINT('',(23.370700636943,1.326326477677,
    5.398334688339));
#1206 = LINE('',#1207,#1208);
#1207 = CARTESIAN_POINT('',(23.370700636943,2.078080574305,
    5.124718573678));
#1208 = VECTOR('',#1209,1.);
#1209 = DIRECTION('',(0.,-0.939692620786,0.342020143326));
#1210 = ORIENTED_EDGE('',*,*,#1211,.T.);
#1211 = EDGE_CURVE('',#1204,#1178,#1212,.T.);
#1212 = B_SPLINE_CURVE_WITH_KNOTS('',2,(#1213,#1214,#1215),
  .UNSPECIFIED.,.F.,.F.,(3,3),(0.,1.),.PIECEWISE_BEZIER_KNOTS.);
#1213 = CARTESIAN_POINT('',(23.370700636943,1.326326477677,
    5.398334688339));
#1214 = CARTESIAN_POINT('',(23.370700636943,1.032145584971,
    4.590079328397));
#1215 = CARTESIAN_POINT('',(22.866242038217,0.854382249332,
    4.101678577721));
#1216 = ORIENTED_EDGE('',*,*,#1177,.F.);
#1217 = SURFACE_OF_LINEAR_EXTRUSION('',#1218,#1222);
#1218 = B_SPLINE_CURVE_WITH_KNOTS('',2,(#1219,#1220,#1221),
  .UNSPECIFIED.,.F.,.F.,(3,3),(0.,1.),.PIECEWISE_BEZIER_KNOTS.);
#1219 = CARTESIAN_POINT('',(23.370700636943,2.078080574305,
    5.124718573678));
#1220 = CARTESIAN_POINT('',(23.370700636943,1.7838996816,4.316463213736)
  );
#1221 = CARTESIAN_POINT('',(22.866242038217,1.606136345961,3.82806246306
    ));
#1222 = VECTOR('',#1223,1.);
#1223 = DIRECTION('',(-0.,0.939692620786,-0.342020143326));
#1224 = ADVANCED_FACE('',(#1225),#1243,.T.);
#1225 = FACE_BOUND('',#1226,.T.);
#1226 = EDGE_LOOP('',(#1227,#1228,#1236,#1242));
#1227 = ORIENTED_EDGE('',*,*,#462,.T.);
#1228 = ORIENTED_EDGE('',*,*,#1229,.T.);
#1229 = EDGE_CURVE('',#444,#1230,#1232,.T.);
#1230 = VERTEX_POINT('',#1231);
#1231 = CARTESIAN_POINT('',(22.890955414013,1.778577316877,6.64088365697
    ));
#1232 = LINE('',#1233,#1234);
#1233 = CARTESIAN_POINT('',(22.890955414013,2.530331413505,6.36726754231
    ));
#1234 = VECTOR('',#1235,1.);
#1235 = DIRECTION('',(0.,-0.939692620786,0.342020143326));
#1236 = ORIENTED_EDGE('',*,*,#1237,.T.);
#1237 = EDGE_CURVE('',#1230,#1204,#1238,.T.);
#1238 = B_SPLINE_CURVE_WITH_KNOTS('',2,(#1239,#1240,#1241),
  .UNSPECIFIED.,.F.,.F.,(3,3),(0.,1.),.PIECEWISE_BEZIER_KNOTS.);
#1239 = CARTESIAN_POINT('',(22.890955414013,1.778577316877,6.64088365697
    ));
#1240 = CARTESIAN_POINT('',(23.370700636943,1.603428147938,
    6.159665270275));
#1241 = CARTESIAN_POINT('',(23.370700636943,1.326326477677,
    5.398334688339));
#1242 = ORIENTED_EDGE('',*,*,#1203,.F.);
#1243 = SURFACE_OF_LINEAR_EXTRUSION('',#1244,#1248);
#1244 = B_SPLINE_CURVE_WITH_KNOTS('',2,(#1245,#1246,#1247),
  .UNSPECIFIED.,.F.,.F.,(3,3),(0.,1.),.PIECEWISE_BEZIER_KNOTS.);
#1245 = CARTESIAN_POINT('',(22.890955414013,2.530331413505,6.36726754231
    ));
#1246 = CARTESIAN_POINT('',(23.370700636943,2.355182244567,
    5.886049155614));
#1247 = CARTESIAN_POINT('',(23.370700636943,2.078080574305,
    5.124718573678));
#1248 = VECTOR('',#1249,1.);
#1249 = DIRECTION('',(-0.,0.939692620786,-0.342020143326));
#1250 = ADVANCED_FACE('',(#1251),#1269,.T.);
#1251 = FACE_BOUND('',#1252,.T.);
#1252 = EDGE_LOOP('',(#1253,#1254,#1262,#1268));
#1253 = ORIENTED_EDGE('',*,*,#443,.T.);
#1254 = ORIENTED_EDGE('',*,*,#1255,.T.);
#1255 = EDGE_CURVE('',#425,#1256,#1258,.T.);
#1256 = VERTEX_POINT('',#1257);
#1257 = CARTESIAN_POINT('',(21.738853503185,1.953726485815,
    7.122102043666));
#1258 = LINE('',#1259,#1260);
#1259 = CARTESIAN_POINT('',(21.738853503185,2.705480582444,
    6.848485929005));
#1260 = VECTOR('',#1261,1.);
#1261 = DIRECTION('',(0.,-0.939692620786,0.342020143326));
#1262 = ORIENTED_EDGE('',*,*,#1263,.T.);
#1263 = EDGE_CURVE('',#1256,#1230,#1264,.T.);
#1264 = B_SPLINE_CURVE_WITH_KNOTS('',2,(#1265,#1266,#1267),
  .UNSPECIFIED.,.F.,.F.,(3,3),(0.,1.),.PIECEWISE_BEZIER_KNOTS.);
#1265 = CARTESIAN_POINT('',(21.738853503185,1.953726485815,
    7.122102043666));
#1266 = CARTESIAN_POINT('',(22.411464968153,1.953726485815,
    7.122102043666));
#1267 = CARTESIAN_POINT('',(22.890955414013,1.778577316877,6.64088365697
    ));
#1268 = ORIENTED_EDGE('',*,*,#1229,.F.);
#1269 = SURFACE_OF_LINEAR_EXTRUSION('',#1270,#1274);
#1270 = B_SPLINE_CURVE_WITH_KNOTS('',2,(#1271,#1272,#1273),
  .UNSPECIFIED.,.F.,.F.,(3,3),(0.,1.),.PIECEWISE_BEZIER_KNOTS.);
#1271 = CARTESIAN_POINT('',(21.738853503185,2.705480582444,
    6.848485929005));
#1272 = CARTESIAN_POINT('',(22.411464968153,2.705480582444,
    6.848485929005));
#1273 = CARTESIAN_POINT('',(22.890955414013,2.530331413505,6.36726754231
    ));
#1274 = VECTOR('',#1275,1.);
#1275 = DIRECTION('',(-0.,0.939692620786,-0.342020143326));
#1276 = ADVANCED_FACE('',(#1277),#1295,.T.);
#1277 = FACE_BOUND('',#1278,.T.);
#1278 = EDGE_LOOP('',(#1279,#1280,#1288,#1294));
#1279 = ORIENTED_EDGE('',*,*,#424,.T.);
#1280 = ORIENTED_EDGE('',*,*,#1281,.T.);
#1281 = EDGE_CURVE('',#404,#1282,#1284,.T.);
#1282 = VERTEX_POINT('',#1283);
#1283 = CARTESIAN_POINT('',(20.741401273885,1.791648150379,
    6.676795476873));
#1284 = LINE('',#1285,#1286);
#1285 = CARTESIAN_POINT('',(20.741401273885,2.543402247008,
    6.403179362212));
#1286 = VECTOR('',#1287,1.);
#1287 = DIRECTION('',(0.,-0.939692620786,0.342020143326));
#1288 = ORIENTED_EDGE('',*,*,#1289,.T.);
#1289 = EDGE_CURVE('',#1282,#1256,#1290,.T.);
#1290 = B_SPLINE_CURVE_WITH_KNOTS('',2,(#1291,#1292,#1293),
  .UNSPECIFIED.,.F.,.F.,(3,3),(0.,1.),.PIECEWISE_BEZIER_KNOTS.);
#1291 = CARTESIAN_POINT('',(20.741401273885,1.791648150379,
    6.676795476873));
#1292 = CARTESIAN_POINT('',(21.142675159236,1.953726485815,
    7.122102043666));
#1293 = CARTESIAN_POINT('',(21.738853503185,1.953726485815,
    7.122102043666));
#1294 = ORIENTED_EDGE('',*,*,#1255,.F.);
#1295 = SURFACE_OF_LINEAR_EXTRUSION('',#1296,#1300);
#1296 = B_SPLINE_CURVE_WITH_KNOTS('',2,(#1297,#1298,#1299),
  .UNSPECIFIED.,.F.,.F.,(3,3),(0.,1.),.PIECEWISE_BEZIER_KNOTS.);
#1297 = CARTESIAN_POINT('',(20.741401273885,2.543402247008,
    6.403179362212));
#1298 = CARTESIAN_POINT('',(21.142675159236,2.705480582444,
    6.848485929005));
#1299 = CARTESIAN_POINT('',(21.738853503185,2.705480582444,
    6.848485929005));
#1300 = VECTOR('',#1301,1.);
#1301 = DIRECTION('',(-0.,0.939692620786,-0.342020143326));
#1302 = ADVANCED_FACE('',(#1303),#1321,.T.);
#1303 = FACE_BOUND('',#1304,.T.);
#1304 = EDGE_LOOP('',(#1305,#1306,#1314,#1320));
#1305 = ORIENTED_EDGE('',*,*,#403,.T.);
#1306 = ORIENTED_EDGE('',*,*,#1307,.T.);
#1307 = EDGE_CURVE('',#387,#1308,#1310,.T.);
#1308 = VERTEX_POINT('',#1309);
#1309 = CARTESIAN_POINT('',(21.037452229299,2.227952572706,
    7.875532025223));
#1310 = LINE('',#1311,#1312);
#1311 = CARTESIAN_POINT('',(21.037452229299,2.979706669335,
    7.601915910563));
#1312 = VECTOR('',#1313,1.);
#1313 = DIRECTION('',(0.,-0.939692620786,0.342020143326));
#1314 = ORIENTED_EDGE('',*,*,#1315,.T.);
#1315 = EDGE_CURVE('',#1308,#1282,#1316,.T.);
#1316 = B_SPLINE_CURVE_WITH_KNOTS('',2,(#1317,#1318,#1319),
  .UNSPECIFIED.,.F.,.F.,(3,3),(0.,1.),.PIECEWISE_BEZIER_KNOTS.);
#1317 = CARTESIAN_POINT('',(21.037452229299,2.227952572706,
    7.875532025223));
#1318 = CARTESIAN_POINT('',(20.802547770701,2.123037349123,
    7.587279817471));
#1319 = CARTESIAN_POINT('',(20.741401273885,1.791648150379,
    6.676795476873));
#1320 = ORIENTED_EDGE('',*,*,#1281,.F.);
#1321 = SURFACE_OF_LINEAR_EXTRUSION('',#1322,#1326);
#1322 = B_SPLINE_CURVE_WITH_KNOTS('',2,(#1323,#1324,#1325),
  .UNSPECIFIED.,.F.,.F.,(3,3),(0.,1.),.PIECEWISE_BEZIER_KNOTS.);
#1323 = CARTESIAN_POINT('',(21.037452229299,2.979706669335,
    7.601915910563));
#1324 = CARTESIAN_POINT('',(20.802547770701,2.874791445751,
    7.313663702811));
#1325 = CARTESIAN_POINT('',(20.741401273885,2.543402247008,
    6.403179362212));
#1326 = VECTOR('',#1327,1.);
#1327 = DIRECTION('',(-0.,0.939692620786,-0.342020143326));
#1328 = ADVANCED_FACE('',(#1329),#1347,.T.);
#1329 = FACE_BOUND('',#1330,.T.);
#1330 = EDGE_LOOP('',(#1331,#1332,#1340,#1346));
#1331 = ORIENTED_EDGE('',*,*,#386,.T.);
#1332 = ORIENTED_EDGE('',*,*,#1333,.T.);
#1333 = EDGE_CURVE('',#372,#1334,#1336,.T.);
#1334 = VERTEX_POINT('',#1335);
#1335 = CARTESIAN_POINT('',(21.612738853503,2.332954935179,
    8.164023645108));
#1336 = LINE('',#1337,#1338);
#1337 = CARTESIAN_POINT('',(21.612738853503,3.084709031808,
    7.890407530447));
#1338 = VECTOR('',#1339,1.);
#1339 = DIRECTION('',(0.,-0.939692620786,0.342020143326));
#1340 = ORIENTED_EDGE('',*,*,#1341,.T.);
#1341 = EDGE_CURVE('',#1334,#1308,#1342,.T.);
#1342 = B_SPLINE_CURVE_WITH_KNOTS('',2,(#1343,#1344,#1345),
  .UNSPECIFIED.,.F.,.F.,(3,3),(0.,1.),.PIECEWISE_BEZIER_KNOTS.);
#1343 = CARTESIAN_POINT('',(21.612738853503,2.332954935179,
    8.164023645108));
#1344 = CARTESIAN_POINT('',(21.272611464968,2.332954935179,
    8.164023645108));
#1345 = CARTESIAN_POINT('',(21.037452229299,2.227952572706,
    7.875532025223));
#1346 = ORIENTED_EDGE('',*,*,#1307,.F.);
#1347 = SURFACE_OF_LINEAR_EXTRUSION('',#1348,#1352);
#1348 = B_SPLINE_CURVE_WITH_KNOTS('',2,(#1349,#1350,#1351),
  .UNSPECIFIED.,.F.,.F.,(3,3),(0.,1.),.PIECEWISE_BEZIER_KNOTS.);
#1349 = CARTESIAN_POINT('',(21.612738853503,3.084709031808,
    7.890407530447));
#1350 = CARTESIAN_POINT('',(21.272611464968,3.084709031808,
    7.890407530447));
#1351 = CARTESIAN_POINT('',(21.037452229299,2.979706669335,
    7.601915910563));
#1352 = VECTOR('',#1353,1.);
#1353 = DIRECTION('',(-0.,0.939692620786,-0.342020143326));
#1354 = ADVANCED_FACE('',(#1355),#1373,.T.);
#1355 = FACE_BOUND('',#1356,.T.);
#1356 = EDGE_LOOP('',(#1357,#1358,#1366,#1372));
#1357 = ORIENTED_EDGE('',*,*,#371,.T.);
#1358 = ORIENTED_EDGE('',*,*,#1359,.T.);
#1359 = EDGE_CURVE('',#360,#1360,#1362,.T.);
#1360 = VERTEX_POINT('',#1361);
#1361 = CARTESIAN_POINT('',(22.029299363057,2.281281573398,
    8.022052250426));
#1362 = LINE('',#1363,#1364);
#1363 = CARTESIAN_POINT('',(22.029299363057,3.033035670027,
    7.748436135766));
#1364 = VECTOR('',#1365,1.);
#1365 = DIRECTION('',(0.,-0.939692620786,0.342020143326));
#1366 = ORIENTED_EDGE('',*,*,#1367,.T.);
#1367 = EDGE_CURVE('',#1360,#1334,#1368,.T.);
#1368 = B_SPLINE_CURVE_WITH_KNOTS('',2,(#1369,#1370,#1371),
  .UNSPECIFIED.,.F.,.F.,(3,3),(0.,1.),.PIECEWISE_BEZIER_KNOTS.);
#1369 = CARTESIAN_POINT('',(22.029299363057,2.281281573398,
    8.022052250426));
#1370 = CARTESIAN_POINT('',(21.868789808917,2.332954935179,
    8.164023645108));
#1371 = CARTESIAN_POINT('',(21.612738853503,2.332954935179,
    8.164023645108));
#1372 = ORIENTED_EDGE('',*,*,#1333,.F.);
#1373 = SURFACE_OF_LINEAR_EXTRUSION('',#1374,#1378);
#1374 = B_SPLINE_CURVE_WITH_KNOTS('',2,(#1375,#1376,#1377),
  .UNSPECIFIED.,.F.,.F.,(3,3),(0.,1.),.PIECEWISE_BEZIER_KNOTS.);
#1375 = CARTESIAN_POINT('',(22.029299363057,3.033035670027,
    7.748436135766));
#1376 = CARTESIAN_POINT('',(21.868789808917,3.084709031808,
    7.890407530447));
#1377 = CARTESIAN_POINT('',(21.612738853503,3.084709031808,
    7.890407530447));
#1378 = VECTOR('',#1379,1.);
#1379 = DIRECTION('',(-0.,0.939692620786,-0.342020143326));
#1380 = ADVANCED_FACE('',(#1381),#1392,.T.);
#1381 = FACE_BOUND('',#1382,.T.);
#1382 = EDGE_LOOP('',(#1383,#1384,#1385,#1391));
#1383 = ORIENTED_EDGE('',*,*,#359,.T.);
#1384 = ORIENTED_EDGE('',*,*,#1006,.T.);
#1385 = ORIENTED_EDGE('',*,*,#1386,.T.);
#1386 = EDGE_CURVE('',#999,#1360,#1387,.T.);
#1387 = B_SPLINE_CURVE_WITH_KNOTS('',2,(#1388,#1389,#1390),
  .UNSPECIFIED.,.F.,.F.,(3,3),(0.,1.),.PIECEWISE_BEZIER_KNOTS.);
#1388 = CARTESIAN_POINT('',(22.228025477707,2.121033154652,7.58177333842
    ));
#1389 = CARTESIAN_POINT('',(22.189808917197,2.229608211616,
    7.880080855744));
#1390 = CARTESIAN_POINT('',(22.029299363057,2.281281573398,
    8.022052250426));
#1391 = ORIENTED_EDGE('',*,*,#1359,.F.);
#1392 = SURFACE_OF_LINEAR_EXTRUSION('',#1393,#1397);
#1393 = B_SPLINE_CURVE_WITH_KNOTS('',2,(#1394,#1395,#1396),
  .UNSPECIFIED.,.F.,.F.,(3,3),(0.,1.),.PIECEWISE_BEZIER_KNOTS.);
#1394 = CARTESIAN_POINT('',(22.228025477707,2.872787251281,
    7.308157223759));
#1395 = CARTESIAN_POINT('',(22.189808917197,2.981362308245,
    7.606464741084));
#1396 = CARTESIAN_POINT('',(22.029299363057,3.033035670027,
    7.748436135766));
#1397 = VECTOR('',#1398,1.);
#1398 = DIRECTION('',(-0.,0.939692620786,-0.342020143326));
#1399 = ADVANCED_FACE('',(#1400),#1425,.F.);
#1400 = FACE_BOUND('',#1401,.F.);
#1401 = EDGE_LOOP('',(#1402,#1410,#1418,#1424));
#1402 = ORIENTED_EDGE('',*,*,#1403,.F.);
#1403 = EDGE_CURVE('',#1404,#284,#1406,.T.);
#1404 = VERTEX_POINT('',#1405);
#1405 = CARTESIAN_POINT('',(47.,18.9,0.));
#1406 = LINE('',#1407,#1408);
#1407 = CARTESIAN_POINT('',(47.,18.9,0.));
#1408 = VECTOR('',#1409,1.);
#1409 = DIRECTION('',(-0.971520338783,-0.236956180191,0.));
#1410 = ORIENTED_EDGE('',*,*,#1411,.T.);
#1411 = EDGE_CURVE('',#1404,#1412,#1414,.T.);
#1412 = VERTEX_POINT('',#1413);
#1413 = CARTESIAN_POINT('',(47.,18.9,10.));
#1414 = LINE('',#1415,#1416);
#1415 = CARTESIAN_POINT('',(47.,18.9,0.));
#1416 = VECTOR('',#1417,1.);
#1417 = DIRECTION('',(0.,0.,1.));
#1418 = ORIENTED_EDGE('',*,*,#1419,.T.);
#1419 = EDGE_CURVE('',#1412,#95,#1420,.T.);
#1420 = LINE('',#1421,#1422);
#1421 = CARTESIAN_POINT('',(47.,18.9,10.));
#1422 = VECTOR('',#1423,1.);
#1423 = DIRECTION('',(-0.971520338783,-0.236956180191,0.));
#1424 = ORIENTED_EDGE('',*,*,#726,.T.);
#1425 = PLANE('',#1426);
#1426 = AXIS2_PLACEMENT_3D('',#1427,#1428,#1429);
#1427 = CARTESIAN_POINT('',(47.,18.9,0.));
#1428 = DIRECTION('',(0.236956180191,-0.971520338783,0.));
#1429 = DIRECTION('',(-0.971520338783,-0.236956180191,0.));
#1430 = ADVANCED_FACE('',(#1431),#1449,.T.);
#1431 = FACE_BOUND('',#1432,.T.);
#1432 = EDGE_LOOP('',(#1433,#1434,#1442,#1448));
#1433 = ORIENTED_EDGE('',*,*,#743,.F.);
#1434 = ORIENTED_EDGE('',*,*,#1435,.T.);
#1435 = EDGE_CURVE('',#71,#1436,#1438,.T.);
#1436 = VERTEX_POINT('',#1437);
#1437 = CARTESIAN_POINT('',(47.,12.9,10.));
#1438 = LINE('',#1439,#1440);
#1439 = CARTESIAN_POINT('',(42.9,13.9,10.));
#1440 = VECTOR('',#1441,1.);
#1441 = DIRECTION('',(0.971520338783,-0.236956180191,0.));
#1442 = ORIENTED_EDGE('',*,*,#1443,.T.);
#1443 = EDGE_CURVE('',#1436,#1412,#1444,.T.);
#1444 = LINE('',#1445,#1446);
#1445 = CARTESIAN_POINT('',(47.,12.9,10.));
#1446 = VECTOR('',#1447,1.);
#1447 = DIRECTION('',(0.,1.,0.));
#1448 = ORIENTED_EDGE('',*,*,#1419,.T.);
#1449 = PLANE('',#1450);
#1450 = AXIS2_PLACEMENT_3D('',#1451,#1452,#1453);
#1451 = CARTESIAN_POINT('',(45.172338161771,15.9,10.));
#1452 = DIRECTION('',(0.,0.,1.));
#1453 = DIRECTION('',(1.,0.,0.));
#1454 = ADVANCED_FACE('',(#1455),#1473,.F.);
#1455 = FACE_BOUND('',#1456,.F.);
#1456 = EDGE_LOOP('',(#1457,#1465,#1466,#1467));
#1457 = ORIENTED_EDGE('',*,*,#1458,.F.);
#1458 = EDGE_CURVE('',#260,#1459,#1461,.T.);
#1459 = VERTEX_POINT('',#1460);
#1460 = CARTESIAN_POINT('',(47.,12.9,0.));
#1461 = LINE('',#1462,#1463);
#1462 = CARTESIAN_POINT('',(42.9,13.9,0.));
#1463 = VECTOR('',#1464,1.);
#1464 = DIRECTION('',(0.971520338783,-0.236956180191,0.));
#1465 = ORIENTED_EDGE('',*,*,#762,.T.);
#1466 = ORIENTED_EDGE('',*,*,#1435,.T.);
#1467 = ORIENTED_EDGE('',*,*,#1468,.F.);
#1468 = EDGE_CURVE('',#1459,#1436,#1469,.T.);
#1469 = LINE('',#1470,#1471);
#1470 = CARTESIAN_POINT('',(47.,12.9,0.));
#1471 = VECTOR('',#1472,1.);
#1472 = DIRECTION('',(0.,0.,1.));
#1473 = PLANE('',#1474);
#1474 = AXIS2_PLACEMENT_3D('',#1475,#1476,#1477);
#1475 = CARTESIAN_POINT('',(42.9,13.9,0.));
#1476 = DIRECTION('',(0.236956180191,0.971520338783,0.));
#1477 = DIRECTION('',(0.971520338783,-0.236956180191,0.));
#1478 = ADVANCED_FACE('',(#1479),#1505,.T.);
#1479 = FACE_BOUND('',#1480,.T.);
#1480 = EDGE_LOOP('',(#1481,#1489,#1490,#1498));
#1481 = ORIENTED_EDGE('',*,*,#1482,.F.);
#1482 = EDGE_CURVE('',#777,#1483,#1485,.T.);
#1483 = VERTEX_POINT('',#1484);
#1484 = CARTESIAN_POINT('',(18.185,36.275,21.));
#1485 = LINE('',#1486,#1487);
#1486 = CARTESIAN_POINT('',(18.185,36.525,20.75));
#1487 = VECTOR('',#1488,1.);
#1488 = DIRECTION('',(-2.90882763039E-35,-0.707106781187,0.707106781187)
  );
#1489 = ORIENTED_EDGE('',*,*,#793,.T.);
#1490 = ORIENTED_EDGE('',*,*,#1491,.T.);
#1491 = EDGE_CURVE('',#786,#1492,#1494,.T.);
#1492 = VERTEX_POINT('',#1493);
#1493 = CARTESIAN_POINT('',(18.085,36.175,21.));
#1494 = LINE('',#1495,#1496);
#1495 = CARTESIAN_POINT('',(17.585,36.175,20.5));
#1496 = VECTOR('',#1497,1.);
#1497 = DIRECTION('',(0.707106781187,-4.329780281177E-17,0.707106781187)
  );
#1498 = ORIENTED_EDGE('',*,*,#1499,.F.);
#1499 = EDGE_CURVE('',#1483,#1492,#1500,.T.);
#1500 = CIRCLE('',#1501,1.E-01);
#1501 = AXIS2_PLACEMENT_3D('',#1502,#1503,#1504);
#1502 = CARTESIAN_POINT('',(18.185,36.175,21.));
#1503 = DIRECTION('',(0.,-0.,1.));
#1504 = DIRECTION('',(0.,1.,0.));
#1505 = CONICAL_SURFACE('',#1506,0.6,0.785398163397);
#1506 = AXIS2_PLACEMENT_3D('',#1507,#1508,#1509);
#1507 = CARTESIAN_POINT('',(18.185,36.175,20.5));
#1508 = DIRECTION('',(-0.,-0.,-1.));
#1509 = DIRECTION('',(0.,1.,0.));
#1510 = ADVANCED_FACE('',(#1511),#1529,.F.);
#1511 = FACE_BOUND('',#1512,.T.);
#1512 = EDGE_LOOP('',(#1513,#1521,#1522,#1523));
#1513 = ORIENTED_EDGE('',*,*,#1514,.F.);
#1514 = EDGE_CURVE('',#810,#1515,#1517,.T.);
#1515 = VERTEX_POINT('',#1516);
#1516 = CARTESIAN_POINT('',(24.815,36.275,21.));
#1517 = LINE('',#1518,#1519);
#1518 = CARTESIAN_POINT('',(24.815,36.525,20.75));
#1519 = VECTOR('',#1520,1.);
#1520 = DIRECTION('',(-2.90882763039E-35,-0.707106781187,0.707106781187)
  );
#1521 = ORIENTED_EDGE('',*,*,#817,.T.);
#1522 = ORIENTED_EDGE('',*,*,#1482,.T.);
#1523 = ORIENTED_EDGE('',*,*,#1524,.F.);
#1524 = EDGE_CURVE('',#1515,#1483,#1525,.T.);
#1525 = LINE('',#1526,#1527);
#1526 = CARTESIAN_POINT('',(24.815,36.275,21.));
#1527 = VECTOR('',#1528,1.);
#1528 = DIRECTION('',(-1.,0.,0.));
#1529 = PLANE('',#1530);
#1530 = AXIS2_PLACEMENT_3D('',#1531,#1532,#1533);
#1531 = CARTESIAN_POINT('',(24.815,36.525,20.75));
#1532 = DIRECTION('',(-1.889513820523E-18,-0.707106781187,
    -0.707106781187));
#1533 = DIRECTION('',(1.,-1.336088035637E-18,-1.336088035637E-18));
#1534 = ADVANCED_FACE('',(#1535),#1553,.F.);
#1535 = FACE_BOUND('',#1536,.T.);
#1536 = EDGE_LOOP('',(#1537,#1538,#1539,#1547));
#1537 = ORIENTED_EDGE('',*,*,#1491,.F.);
#1538 = ORIENTED_EDGE('',*,*,#834,.T.);
#1539 = ORIENTED_EDGE('',*,*,#1540,.T.);
#1540 = EDGE_CURVE('',#835,#1541,#1543,.T.);
#1541 = VERTEX_POINT('',#1542);
#1542 = CARTESIAN_POINT('',(18.085,29.545,21.));
#1543 = LINE('',#1544,#1545);
#1544 = CARTESIAN_POINT('',(17.835,29.545,20.75));
#1545 = VECTOR('',#1546,1.);
#1546 = DIRECTION('',(0.707106781187,-2.90882763039E-35,0.707106781187)
  );
#1547 = ORIENTED_EDGE('',*,*,#1548,.F.);
#1548 = EDGE_CURVE('',#1492,#1541,#1549,.T.);
#1549 = LINE('',#1550,#1551);
#1550 = CARTESIAN_POINT('',(18.085,36.175,21.));
#1551 = VECTOR('',#1552,1.);
#1552 = DIRECTION('',(0.,-1.,0.));
#1553 = PLANE('',#1554);
#1554 = AXIS2_PLACEMENT_3D('',#1555,#1556,#1557);
#1555 = CARTESIAN_POINT('',(17.835,36.175,20.75));
#1556 = DIRECTION('',(0.707106781187,1.889513820523E-18,-0.707106781187)
  );
#1557 = DIRECTION('',(-1.336088035637E-18,1.,1.336088035637E-18));
#1558 = ADVANCED_FACE('',(#1559),#1578,.T.);
#1559 = FACE_BOUND('',#1560,.T.);
#1560 = EDGE_LOOP('',(#1561,#1569,#1570,#1571));
#1561 = ORIENTED_EDGE('',*,*,#1562,.F.);
#1562 = EDGE_CURVE('',#859,#1563,#1565,.T.);
#1563 = VERTEX_POINT('',#1564);
#1564 = CARTESIAN_POINT('',(24.915,36.175,21.));
#1565 = LINE('',#1566,#1567);
#1566 = CARTESIAN_POINT('',(25.165,36.175,20.75));
#1567 = VECTOR('',#1568,1.);
#1568 = DIRECTION('',(-0.707106781187,2.90882763039E-35,0.707106781187)
  );
#1569 = ORIENTED_EDGE('',*,*,#866,.T.);
#1570 = ORIENTED_EDGE('',*,*,#1514,.T.);
#1571 = ORIENTED_EDGE('',*,*,#1572,.F.);
#1572 = EDGE_CURVE('',#1563,#1515,#1573,.T.);
#1573 = CIRCLE('',#1574,1.E-01);
#1574 = AXIS2_PLACEMENT_3D('',#1575,#1576,#1577);
#1575 = CARTESIAN_POINT('',(24.815,36.175,21.));
#1576 = DIRECTION('',(0.,0.,1.));
#1577 = DIRECTION('',(1.,0.,0.));
#1578 = CONICAL_SURFACE('',#1579,0.6,0.785398163397);
#1579 = AXIS2_PLACEMENT_3D('',#1580,#1581,#1582);
#1580 = CARTESIAN_POINT('',(24.815,36.175,20.5));
#1581 = DIRECTION('',(-0.,-0.,-1.));
#1582 = DIRECTION('',(1.,0.,0.));
#1583 = ADVANCED_FACE('',(#1584),#1603,.T.);
#1584 = FACE_BOUND('',#1585,.T.);
#1585 = EDGE_LOOP('',(#1586,#1587,#1588,#1596));
#1586 = ORIENTED_EDGE('',*,*,#1540,.F.);
#1587 = ORIENTED_EDGE('',*,*,#891,.T.);
#1588 = ORIENTED_EDGE('',*,*,#1589,.T.);
#1589 = EDGE_CURVE('',#884,#1590,#1592,.T.);
#1590 = VERTEX_POINT('',#1591);
#1591 = CARTESIAN_POINT('',(18.185,29.445,21.));
#1592 = LINE('',#1593,#1594);
#1593 = CARTESIAN_POINT('',(18.185,28.945,20.5));
#1594 = VECTOR('',#1595,1.);
#1595 = DIRECTION('',(4.329780281177E-17,0.707106781187,0.707106781187)
  );
#1596 = ORIENTED_EDGE('',*,*,#1597,.F.);
#1597 = EDGE_CURVE('',#1541,#1590,#1598,.T.);
#1598 = CIRCLE('',#1599,1.E-01);
#1599 = AXIS2_PLACEMENT_3D('',#1600,#1601,#1602);
#1600 = CARTESIAN_POINT('',(18.185,29.545,21.));
#1601 = DIRECTION('',(0.,0.,1.));
#1602 = DIRECTION('',(-1.,0.,0.));
#1603 = CONICAL_SURFACE('',#1604,0.6,0.785398163397);
#1604 = AXIS2_PLACEMENT_3D('',#1605,#1606,#1607);
#1605 = CARTESIAN_POINT('',(18.185,29.545,20.5));
#1606 = DIRECTION('',(-0.,-0.,-1.));
#1607 = DIRECTION('',(-1.,0.,0.));
#1608 = ADVANCED_FACE('',(#1609),#1627,.F.);
#1609 = FACE_BOUND('',#1610,.T.);
#1610 = EDGE_LOOP('',(#1611,#1619,#1620,#1621));
#1611 = ORIENTED_EDGE('',*,*,#1612,.F.);
#1612 = EDGE_CURVE('',#908,#1613,#1615,.T.);
#1613 = VERTEX_POINT('',#1614);
#1614 = CARTESIAN_POINT('',(24.915,29.545,21.));
#1615 = LINE('',#1616,#1617);
#1616 = CARTESIAN_POINT('',(25.415,29.545,20.5));
#1617 = VECTOR('',#1618,1.);
#1618 = DIRECTION('',(-0.707106781187,4.329780281177E-17,0.707106781187)
  );
#1619 = ORIENTED_EDGE('',*,*,#915,.T.);
#1620 = ORIENTED_EDGE('',*,*,#1562,.T.);
#1621 = ORIENTED_EDGE('',*,*,#1622,.F.);
#1622 = EDGE_CURVE('',#1613,#1563,#1623,.T.);
#1623 = LINE('',#1624,#1625);
#1624 = CARTESIAN_POINT('',(24.915,29.545,21.));
#1625 = VECTOR('',#1626,1.);
#1626 = DIRECTION('',(0.,1.,0.));
#1627 = PLANE('',#1628);
#1628 = AXIS2_PLACEMENT_3D('',#1629,#1630,#1631);
#1629 = CARTESIAN_POINT('',(25.165,29.545,20.75));
#1630 = DIRECTION('',(-0.707106781187,-1.889513820523E-18,
    -0.707106781187));
#1631 = DIRECTION('',(1.336088035637E-18,-1.,1.336088035637E-18));
#1632 = ADVANCED_FACE('',(#1633),#1651,.F.);
#1633 = FACE_BOUND('',#1634,.T.);
#1634 = EDGE_LOOP('',(#1635,#1636,#1637,#1645));
#1635 = ORIENTED_EDGE('',*,*,#1589,.F.);
#1636 = ORIENTED_EDGE('',*,*,#932,.T.);
#1637 = ORIENTED_EDGE('',*,*,#1638,.T.);
#1638 = EDGE_CURVE('',#933,#1639,#1641,.T.);
#1639 = VERTEX_POINT('',#1640);
#1640 = CARTESIAN_POINT('',(24.815,29.445,21.));
#1641 = LINE('',#1642,#1643);
#1642 = CARTESIAN_POINT('',(24.815,29.195,20.75));
#1643 = VECTOR('',#1644,1.);
#1644 = DIRECTION('',(2.90882763039E-35,0.707106781187,0.707106781187));
#1645 = ORIENTED_EDGE('',*,*,#1646,.F.);
#1646 = EDGE_CURVE('',#1590,#1639,#1647,.T.);
#1647 = LINE('',#1648,#1649);
#1648 = CARTESIAN_POINT('',(18.185,29.445,21.));
#1649 = VECTOR('',#1650,1.);
#1650 = DIRECTION('',(1.,0.,0.));
#1651 = PLANE('',#1652);
#1652 = AXIS2_PLACEMENT_3D('',#1653,#1654,#1655);
#1653 = CARTESIAN_POINT('',(18.185,29.195,20.75));
#1654 = DIRECTION('',(1.889513820523E-18,0.707106781187,-0.707106781187)
  );
#1655 = DIRECTION('',(-1.,1.336088035637E-18,-1.336088035637E-18));
#1656 = ADVANCED_FACE('',(#1657),#1669,.T.);
#1657 = FACE_BOUND('',#1658,.T.);
#1658 = EDGE_LOOP('',(#1659,#1660,#1661,#1662));
#1659 = ORIENTED_EDGE('',*,*,#1638,.F.);
#1660 = ORIENTED_EDGE('',*,*,#957,.T.);
#1661 = ORIENTED_EDGE('',*,*,#1612,.T.);
#1662 = ORIENTED_EDGE('',*,*,#1663,.F.);
#1663 = EDGE_CURVE('',#1639,#1613,#1664,.T.);
#1664 = CIRCLE('',#1665,1.E-01);
#1665 = AXIS2_PLACEMENT_3D('',#1666,#1667,#1668);
#1666 = CARTESIAN_POINT('',(24.815,29.545,21.));
#1667 = DIRECTION('',(-0.,0.,1.));
#1668 = DIRECTION('',(0.,-1.,0.));
#1669 = CONICAL_SURFACE('',#1670,0.6,0.785398163397);
#1670 = AXIS2_PLACEMENT_3D('',#1671,#1672,#1673);
#1671 = CARTESIAN_POINT('',(24.815,29.545,20.5));
#1672 = DIRECTION('',(-0.,-0.,-1.));
#1673 = DIRECTION('',(0.,-1.,0.));
#1674 = ADVANCED_FACE('',(#1675),#1686,.F.);
#1675 = FACE_BOUND('',#1676,.F.);
#1676 = EDGE_LOOP('',(#1677,#1678,#1679,#1685));
#1677 = ORIENTED_EDGE('',*,*,#973,.F.);
#1678 = ORIENTED_EDGE('',*,*,#1458,.T.);
#1679 = ORIENTED_EDGE('',*,*,#1680,.T.);
#1680 = EDGE_CURVE('',#1459,#1404,#1681,.T.);
#1681 = LINE('',#1682,#1683);
#1682 = CARTESIAN_POINT('',(47.,12.9,0.));
#1683 = VECTOR('',#1684,1.);
#1684 = DIRECTION('',(0.,1.,0.));
#1685 = ORIENTED_EDGE('',*,*,#1403,.T.);
#1686 = PLANE('',#1687);
#1687 = AXIS2_PLACEMENT_3D('',#1688,#1689,#1690);
#1688 = CARTESIAN_POINT('',(45.172338161771,15.9,0.));
#1689 = DIRECTION('',(0.,0.,1.));
#1690 = DIRECTION('',(1.,0.,0.));
#1691 = ADVANCED_FACE('',(#1692,#1710),#1776,.T.);
#1692 = FACE_BOUND('',#1693,.T.);
#1693 = EDGE_LOOP('',(#1694,#1695,#1696,#1697,#1698,#1699,#1700,#1701,
    #1702,#1703,#1704,#1705,#1706,#1707,#1708,#1709));
#1694 = ORIENTED_EDGE('',*,*,#998,.F.);
#1695 = ORIENTED_EDGE('',*,*,#1029,.F.);
#1696 = ORIENTED_EDGE('',*,*,#1055,.F.);
#1697 = ORIENTED_EDGE('',*,*,#1081,.F.);
#1698 = ORIENTED_EDGE('',*,*,#1107,.F.);
#1699 = ORIENTED_EDGE('',*,*,#1133,.F.);
#1700 = ORIENTED_EDGE('',*,*,#1159,.F.);
#1701 = ORIENTED_EDGE('',*,*,#1185,.F.);
#1702 = ORIENTED_EDGE('',*,*,#1211,.F.);
#1703 = ORIENTED_EDGE('',*,*,#1237,.F.);
#1704 = ORIENTED_EDGE('',*,*,#1263,.F.);
#1705 = ORIENTED_EDGE('',*,*,#1289,.F.);
#1706 = ORIENTED_EDGE('',*,*,#1315,.F.);
#1707 = ORIENTED_EDGE('',*,*,#1341,.F.);
#1708 = ORIENTED_EDGE('',*,*,#1367,.F.);
#1709 = ORIENTED_EDGE('',*,*,#1386,.F.);
#1710 = FACE_BOUND('',#1711,.T.);
#1711 = EDGE_LOOP('',(#1712,#1722,#1730,#1738,#1746,#1754,#1762,#1770));
#1712 = ORIENTED_EDGE('',*,*,#1713,.F.);
#1713 = EDGE_CURVE('',#1714,#1716,#1718,.T.);
#1714 = VERTEX_POINT('',#1715);
#1715 = CARTESIAN_POINT('',(20.833121019108,1.354646616933,
    5.476143631461));
#1716 = VERTEX_POINT('',#1717);
#1717 = CARTESIAN_POINT('',(21.073885350318,1.080071974482,
    4.721756001373));
#1718 = B_SPLINE_CURVE_WITH_KNOTS('',2,(#1719,#1720,#1721),
  .UNSPECIFIED.,.F.,.F.,(3,3),(0.,1.),.PIECEWISE_BEZIER_KNOTS.);
#1719 = CARTESIAN_POINT('',(20.833121019108,1.354646616933,
    5.476143631461));
#1720 = CARTESIAN_POINT('',(20.833121019108,1.176796142403,
    4.987503468653));
#1721 = CARTESIAN_POINT('',(21.073885350318,1.080071974482,
    4.721756001373));
#1722 = ORIENTED_EDGE('',*,*,#1723,.F.);
#1723 = EDGE_CURVE('',#1724,#1714,#1726,.T.);
#1724 = VERTEX_POINT('',#1725);
#1725 = CARTESIAN_POINT('',(21.047133757962,1.598025536757,
    6.144821718048));
#1726 = B_SPLINE_CURVE_WITH_KNOTS('',2,(#1727,#1728,#1729),
  .UNSPECIFIED.,.F.,.F.,(3,3),(0.,1.),.PIECEWISE_BEZIER_KNOTS.);
#1727 = CARTESIAN_POINT('',(21.047133757962,1.598025536757,
    6.144821718048));
#1728 = CARTESIAN_POINT('',(20.833121019108,1.515592146798,
    5.918337840529));
#1729 = CARTESIAN_POINT('',(20.833121019108,1.354646616933,
    5.476143631461));
#1730 = ORIENTED_EDGE('',*,*,#1731,.F.);
#1731 = EDGE_CURVE('',#1732,#1724,#1734,.T.);
#1732 = VERTEX_POINT('',#1733);
#1733 = CARTESIAN_POINT('',(21.570700636943,1.680458926715,
    6.371305595568));
#1734 = B_SPLINE_CURVE_WITH_KNOTS('',2,(#1735,#1736,#1737),
  .UNSPECIFIED.,.F.,.F.,(3,3),(0.,1.),.PIECEWISE_BEZIER_KNOTS.);
#1735 = CARTESIAN_POINT('',(21.570700636943,1.680458926715,
    6.371305595568));
#1736 = CARTESIAN_POINT('',(21.261146496815,1.680458926715,
    6.371305595568));
#1737 = CARTESIAN_POINT('',(21.047133757962,1.598025536757,
    6.144821718048));
#1738 = ORIENTED_EDGE('',*,*,#1739,.F.);
#1739 = EDGE_CURVE('',#1740,#1732,#1742,.T.);
#1740 = VERTEX_POINT('',#1741);
#1741 = CARTESIAN_POINT('',(22.105732484076,1.594104286706,
    6.134048172078));
#1742 = B_SPLINE_CURVE_WITH_KNOTS('',2,(#1743,#1744,#1745),
  .UNSPECIFIED.,.F.,.F.,(3,3),(0.,1.),.PIECEWISE_BEZIER_KNOTS.);
#1743 = CARTESIAN_POINT('',(22.105732484076,1.594104286706,
    6.134048172078));
#1744 = CARTESIAN_POINT('',(21.891719745223,1.680458926715,
    6.371305595568));
#1745 = CARTESIAN_POINT('',(21.570700636943,1.680458926715,
    6.371305595568));
#1746 = ORIENTED_EDGE('',*,*,#1747,.F.);
#1747 = EDGE_CURVE('',#1748,#1740,#1750,.T.);
#1748 = VERTEX_POINT('',#1749);
#1749 = CARTESIAN_POINT('',(22.31974522293,1.322143810956,5.38684290597)
  );
#1750 = B_SPLINE_CURVE_WITH_KNOTS('',2,(#1751,#1752,#1753),
  .UNSPECIFIED.,.F.,.F.,(3,3),(0.,1.),.PIECEWISE_BEZIER_KNOTS.);
#1751 = CARTESIAN_POINT('',(22.31974522293,1.322143810956,5.38684290597)
  );
#1752 = CARTESIAN_POINT('',(22.31974522293,1.507836785587,5.89703016072)
  );
#1753 = CARTESIAN_POINT('',(22.105732484076,1.594104286706,
    6.134048172078));
#1754 = ORIENTED_EDGE('',*,*,#1755,.F.);
#1755 = EDGE_CURVE('',#1756,#1748,#1758,.T.);
#1756 = VERTEX_POINT('',#1757);
#1757 = CARTESIAN_POINT('',(22.12101910828,1.062557057588,4.673634162703
    ));
#1758 = B_SPLINE_CURVE_WITH_KNOTS('',2,(#1759,#1760,#1761),
  .UNSPECIFIED.,.F.,.F.,(3,3),(0.,1.),.PIECEWISE_BEZIER_KNOTS.);
#1759 = CARTESIAN_POINT('',(22.12101910828,1.062557057588,4.673634162703
    ));
#1760 = CARTESIAN_POINT('',(22.31974522293,1.141766308616,4.891259791313
    ));
#1761 = CARTESIAN_POINT('',(22.31974522293,1.322143810956,5.38684290597)
  );
#1762 = ORIENTED_EDGE('',*,*,#1763,.F.);
#1763 = EDGE_CURVE('',#1764,#1756,#1766,.T.);
#1764 = VERTEX_POINT('',#1765);
#1765 = CARTESIAN_POINT('',(21.624203821656,0.983347806561,
    4.456008534093));
#1766 = B_SPLINE_CURVE_WITH_KNOTS('',2,(#1767,#1768,#1769),
  .UNSPECIFIED.,.F.,.F.,(3,3),(0.,1.),.PIECEWISE_BEZIER_KNOTS.);
#1767 = CARTESIAN_POINT('',(21.624203821656,0.983347806561,
    4.456008534093));
#1768 = CARTESIAN_POINT('',(21.922292993631,0.983347806561,
    4.456008534093));
#1769 = CARTESIAN_POINT('',(22.12101910828,1.062557057588,4.673634162703
    ));
#1770 = ORIENTED_EDGE('',*,*,#1771,.F.);
#1771 = EDGE_CURVE('',#1716,#1764,#1772,.T.);
#1772 = B_SPLINE_CURVE_WITH_KNOTS('',2,(#1773,#1774,#1775),
  .UNSPECIFIED.,.F.,.F.,(3,3),(0.,1.),.PIECEWISE_BEZIER_KNOTS.);
#1773 = CARTESIAN_POINT('',(21.073885350318,1.080071974482,
    4.721756001373));
#1774 = CARTESIAN_POINT('',(21.314649681529,0.983347806561,
    4.456008534093));
#1775 = CARTESIAN_POINT('',(21.624203821656,0.983347806561,
    4.456008534093));
#1776 = PLANE('',#1777);
#1777 = AXIS2_PLACEMENT_3D('',#1778,#1779,#1780);
#1778 = CARTESIAN_POINT('',(21.52159867877,1.761676636452,6.594449419129
    ));
#1779 = DIRECTION('',(0.,-0.939692620786,0.342020143326));
#1780 = DIRECTION('',(1.,0.,0.));
#1781 = ADVANCED_FACE('',(#1782),#1788,.F.);
#1782 = FACE_BOUND('',#1783,.F.);
#1783 = EDGE_LOOP('',(#1784,#1785,#1786,#1787));
#1784 = ORIENTED_EDGE('',*,*,#1468,.T.);
#1785 = ORIENTED_EDGE('',*,*,#1443,.T.);
#1786 = ORIENTED_EDGE('',*,*,#1411,.F.);
#1787 = ORIENTED_EDGE('',*,*,#1680,.F.);
#1788 = PLANE('',#1789);
#1789 = AXIS2_PLACEMENT_3D('',#1790,#1791,#1792);
#1790 = CARTESIAN_POINT('',(47.,12.9,0.));
#1791 = DIRECTION('',(-1.,0.,0.));
#1792 = DIRECTION('',(0.,1.,0.));
#1793 = ADVANCED_FACE('',(#1794),#1804,.T.);
#1794 = FACE_BOUND('',#1795,.T.);
#1795 = EDGE_LOOP('',(#1796,#1797,#1798,#1799,#1800,#1801,#1802,#1803));
#1796 = ORIENTED_EDGE('',*,*,#1524,.T.);
#1797 = ORIENTED_EDGE('',*,*,#1499,.T.);
#1798 = ORIENTED_EDGE('',*,*,#1548,.T.);
#1799 = ORIENTED_EDGE('',*,*,#1597,.T.);
#1800 = ORIENTED_EDGE('',*,*,#1646,.T.);
#1801 = ORIENTED_EDGE('',*,*,#1663,.T.);
#1802 = ORIENTED_EDGE('',*,*,#1622,.T.);
#1803 = ORIENTED_EDGE('',*,*,#1572,.T.);
#1804 = PLANE('',#1805);
#1805 = AXIS2_PLACEMENT_3D('',#1806,#1807,#1808);
#1806 = CARTESIAN_POINT('',(21.5,32.86,21.));
#1807 = DIRECTION('',(0.,0.,1.));
#1808 = DIRECTION('',(1.,0.,0.));
#1809 = ADVANCED_FACE('',(#1810),#1820,.T.);
#1810 = FACE_BOUND('',#1811,.T.);
#1811 = EDGE_LOOP('',(#1812,#1813,#1814,#1815,#1816,#1817,#1818,#1819));
#1812 = ORIENTED_EDGE('',*,*,#1723,.T.);
#1813 = ORIENTED_EDGE('',*,*,#1713,.T.);
#1814 = ORIENTED_EDGE('',*,*,#1771,.T.);
#1815 = ORIENTED_EDGE('',*,*,#1763,.T.);
#1816 = ORIENTED_EDGE('',*,*,#1755,.T.);
#1817 = ORIENTED_EDGE('',*,*,#1747,.T.);
#1818 = ORIENTED_EDGE('',*,*,#1739,.T.);
#1819 = ORIENTED_EDGE('',*,*,#1731,.T.);
#1820 = PLANE('',#1821);
#1821 = AXIS2_PLACEMENT_3D('',#1822,#1823,#1824);
#1822 = CARTESIAN_POINT('',(21.52159867877,1.761676636452,6.594449419129
    ));
#1823 = DIRECTION('',(0.,-0.939692620786,0.342020143326));
#1824 = DIRECTION('',(1.,0.,0.));
#1825 = ( GEOMETRIC_REPRESENTATION_CONTEXT(3) 
GLOBAL_UNCERTAINTY_ASSIGNED_CONTEXT((#1829)) 
GLOBAL_UNIT_ASSIGNED_CONTEXT((#1826,#1827,#1828)) REPRESENTATION_CONTEXT
('Context #1','3D Context with UNIT and UNCERTAINTY') );
#1826 = ( LENGTH_UNIT() NAMED_UNIT(*) SI_UNIT(.MILLI.,.METRE.) );
#1827 = ( NAMED_UNIT(*) PLANE_ANGLE_UNIT() SI_UNIT($,.RADIAN.) );
#1828 = ( NAMED_UNIT(*) SI_UNIT($,.STERADIAN.) SOLID_ANGLE_UNIT() );
#1829 = UNCERTAINTY_MEASURE_WITH_UNIT(LENGTH_MEASURE(1.E-06),#1826,
  'distance_accuracy_value','confusion accuracy');
#1830 = PRODUCT_RELATED_PRODUCT_CATEGORY('part',$,(#7));
ENDSEC;
END-ISO-10303-21;
