ISO-10303-21;
HEADER;
FILE_DESCRIPTION(('FreeCAD Model'),'2;1');
FILE_NAME('Open CASCADE Shape Model','2026-08-30T14:33:02',('FreeCAD'),(
    'FreeCAD'),'Open CASCADE STEP processor 7.8','FreeCAD','Unknown');
FILE_SCHEMA(('AUTOMOTIVE_DESIGN { 1 0 10303 214 1 1 1 1 }'));
ENDSEC;
DATA;
#1 = APPLICATION_PROTOCOL_DEFINITION('international standard',
  'automotive_design',2000,#2);
#2 = APPLICATION_CONTEXT(
  'core data for automotive mechanical design processes');
#3 = SHAPE_DEFINITION_REPRESENTATION(#4,#10);
#4 = PRODUCT_DEFINITION_SHAPE('','',#5);
#5 = PRODUCT_DEFINITION('design','',#6,#9);
#6 = PRODUCT_DEFINITION_FORMATION('','',#7);
#7 = PRODUCT('Open CASCADE STEP translator 7.8 68',
  'Open CASCADE STEP translator 7.8 68','',(#8));
#8 = PRODUCT_CONTEXT('',#2,'mechanical');
#9 = PRODUCT_DEFINITION_CONTEXT('part definition',#2,'design');
#10 = SHAPE_REPRESENTATION('',(#11,#15,#303),#1295);
#11 = AXIS2_PLACEMENT_3D('',#12,#13,#14);
#12 = CARTESIAN_POINT('',(0.,0.,0.));
#13 = DIRECTION('',(0.,0.,1.));
#14 = DIRECTION('',(1.,0.,-0.));
#15 = MANIFOLD_SOLID_BREP('',#16);
#16 = CLOSED_SHELL('',(#17,#57,#88,#121,#152,#185,#218,#249,#271,#287));
#17 = ADVANCED_FACE('',(#18),#52,.T.);
#18 = FACE_BOUND('',#19,.T.);
#19 = EDGE_LOOP('',(#20,#30,#38,#46));
#20 = ORIENTED_EDGE('',*,*,#21,.T.);
#21 = EDGE_CURVE('',#22,#24,#26,.T.);
#22 = VERTEX_POINT('',#23);
#23 = CARTESIAN_POINT('',(20.085605095541,1.461834344089,3.431595971335)
  );
#24 = VERTEX_POINT('',#25);
#25 = CARTESIAN_POINT('',(20.085605095541,0.71008024746,3.705212085995)
  );
#26 = LINE('',#27,#28);
#27 = CARTESIAN_POINT('',(20.085605095541,1.461834344089,3.431595971335)
  );
#28 = VECTOR('',#29,1.);
#29 = DIRECTION('',(0.,-0.939692620786,0.342020143326));
#30 = ORIENTED_EDGE('',*,*,#31,.T.);
#31 = EDGE_CURVE('',#24,#32,#34,.T.);
#32 = VERTEX_POINT('',#33);
#33 = CARTESIAN_POINT('',(19.011719745223,0.71008024746,3.705212085995)
  );
#34 = LINE('',#35,#36);
#35 = CARTESIAN_POINT('',(20.085605095541,0.71008024746,3.705212085995)
  );
#36 = VECTOR('',#37,1.);
#37 = DIRECTION('',(-1.,0.,0.));
#38 = ORIENTED_EDGE('',*,*,#39,.F.);
#39 = EDGE_CURVE('',#40,#32,#42,.T.);
#40 = VERTEX_POINT('',#41);
#41 = CARTESIAN_POINT('',(19.011719745223,1.461834344089,3.431595971335)
  );
#42 = LINE('',#43,#44);
#43 = CARTESIAN_POINT('',(19.011719745223,1.461834344089,3.431595971335)
  );
#44 = VECTOR('',#45,1.);
#45 = DIRECTION('',(0.,-0.939692620786,0.342020143326));
#46 = ORIENTED_EDGE('',*,*,#47,.F.);
#47 = EDGE_CURVE('',#22,#40,#48,.T.);
#48 = LINE('',#49,#50);
#49 = CARTESIAN_POINT('',(20.085605095541,1.461834344089,3.431595971335)
  );
#50 = VECTOR('',#51,1.);
#51 = DIRECTION('',(-1.,0.,0.));
#52 = PLANE('',#53);
#53 = AXIS2_PLACEMENT_3D('',#54,#55,#56);
#54 = CARTESIAN_POINT('',(20.085605095541,1.461834344089,3.431595971335)
  );
#55 = DIRECTION('',(0.,-0.342020143326,-0.939692620786));
#56 = DIRECTION('',(-1.,0.,0.));
#57 = ADVANCED_FACE('',(#58),#83,.T.);
#58 = FACE_BOUND('',#59,.T.);
#59 = EDGE_LOOP('',(#60,#61,#69,#77));
#60 = ORIENTED_EDGE('',*,*,#39,.T.);
#61 = ORIENTED_EDGE('',*,*,#62,.T.);
#62 = EDGE_CURVE('',#32,#63,#65,.T.);
#63 = VERTEX_POINT('',#64);
#64 = CARTESIAN_POINT('',(19.011719745223,2.099422709928,7.522399129514)
  );
#65 = LINE('',#66,#67);
#66 = CARTESIAN_POINT('',(19.011719745223,0.71008024746,3.705212085995)
  );
#67 = VECTOR('',#68,1.);
#68 = DIRECTION('',(0.,0.342020143326,0.939692620786));
#69 = ORIENTED_EDGE('',*,*,#70,.F.);
#70 = EDGE_CURVE('',#71,#63,#73,.T.);
#71 = VERTEX_POINT('',#72);
#72 = CARTESIAN_POINT('',(19.011719745223,2.851176806556,7.248783014853)
  );
#73 = LINE('',#74,#75);
#74 = CARTESIAN_POINT('',(19.011719745223,2.851176806556,7.248783014853)
  );
#75 = VECTOR('',#76,1.);
#76 = DIRECTION('',(0.,-0.939692620786,0.342020143326));
#77 = ORIENTED_EDGE('',*,*,#78,.F.);
#78 = EDGE_CURVE('',#40,#71,#79,.T.);
#79 = LINE('',#80,#81);
#80 = CARTESIAN_POINT('',(19.011719745223,1.461834344089,3.431595971335)
  );
#81 = VECTOR('',#82,1.);
#82 = DIRECTION('',(0.,0.342020143326,0.939692620786));
#83 = PLANE('',#84);
#84 = AXIS2_PLACEMENT_3D('',#85,#86,#87);
#85 = CARTESIAN_POINT('',(19.011719745223,1.461834344089,3.431595971335)
  );
#86 = DIRECTION('',(-1.,0.,0.));
#87 = DIRECTION('',(0.,0.342020143326,0.939692620786));
#88 = ADVANCED_FACE('',(#89),#114,.T.);
#89 = FACE_BOUND('',#90,.T.);
#90 = EDGE_LOOP('',(#91,#92,#100,#108));
#91 = ORIENTED_EDGE('',*,*,#70,.T.);
#92 = ORIENTED_EDGE('',*,*,#93,.T.);
#93 = EDGE_CURVE('',#63,#94,#96,.T.);
#94 = VERTEX_POINT('',#95);
#95 = CARTESIAN_POINT('',(17.624458598726,1.819881150746,6.754365007863)
  );
#96 = B_SPLINE_CURVE_WITH_KNOTS('',2,(#97,#98,#99),.UNSPECIFIED.,.F.,.F.
  ,(3,3),(0.,1.),.PIECEWISE_BEZIER_KNOTS.);
#97 = CARTESIAN_POINT('',(19.011719745223,2.099422709928,7.522399129514)
  );
#98 = CARTESIAN_POINT('',(18.423184713376,1.910418457476,7.003114213722)
  );
#99 = CARTESIAN_POINT('',(17.624458598726,1.819881150746,6.754365007863)
  );
#100 = ORIENTED_EDGE('',*,*,#101,.F.);
#101 = EDGE_CURVE('',#102,#94,#104,.T.);
#102 = VERTEX_POINT('',#103);
#103 = CARTESIAN_POINT('',(17.624458598726,2.571635247374,6.480748893202
    ));
#104 = LINE('',#105,#106);
#105 = CARTESIAN_POINT('',(17.624458598726,2.571635247374,6.480748893202
    ));
#106 = VECTOR('',#107,1.);
#107 = DIRECTION('',(0.,-0.939692620786,0.342020143326));
#108 = ORIENTED_EDGE('',*,*,#109,.F.);
#109 = EDGE_CURVE('',#71,#102,#110,.T.);
#110 = B_SPLINE_CURVE_WITH_KNOTS('',2,(#111,#112,#113),.UNSPECIFIED.,.F.
  ,.F.,(3,3),(0.,1.),.PIECEWISE_BEZIER_KNOTS.);
#111 = CARTESIAN_POINT('',(19.011719745223,2.851176806556,7.248783014853
    ));
#112 = CARTESIAN_POINT('',(18.423184713376,2.662172554104,6.729498099061
    ));
#113 = CARTESIAN_POINT('',(17.624458598726,2.571635247374,6.480748893202
    ));
#114 = SURFACE_OF_LINEAR_EXTRUSION('',#115,#119);
#115 = B_SPLINE_CURVE_WITH_KNOTS('',2,(#116,#117,#118),.UNSPECIFIED.,.F.
  ,.F.,(3,3),(0.,1.),.PIECEWISE_BEZIER_KNOTS.);
#116 = CARTESIAN_POINT('',(19.011719745223,2.851176806556,7.248783014853
    ));
#117 = CARTESIAN_POINT('',(18.423184713376,2.662172554104,6.729498099061
    ));
#118 = CARTESIAN_POINT('',(17.624458598726,2.571635247374,6.480748893202
    ));
#119 = VECTOR('',#120,1.);
#120 = DIRECTION('',(-0.,0.939692620786,-0.342020143326));
#121 = ADVANCED_FACE('',(#122),#147,.T.);
#122 = FACE_BOUND('',#123,.T.);
#123 = EDGE_LOOP('',(#124,#125,#133,#141));
#124 = ORIENTED_EDGE('',*,*,#101,.T.);
#125 = ORIENTED_EDGE('',*,*,#126,.T.);
#126 = EDGE_CURVE('',#94,#127,#129,.T.);
#127 = VERTEX_POINT('',#128);
#128 = CARTESIAN_POINT('',(17.624458598726,2.15449448842,7.67370759737)
  );
#129 = LINE('',#130,#131);
#130 = CARTESIAN_POINT('',(17.624458598726,1.819881150746,6.754365007863
    ));
#131 = VECTOR('',#132,1.);
#132 = DIRECTION('',(0.,0.342020143326,0.939692620786));
#133 = ORIENTED_EDGE('',*,*,#134,.F.);
#134 = EDGE_CURVE('',#135,#127,#137,.T.);
#135 = VERTEX_POINT('',#136);
#136 = CARTESIAN_POINT('',(17.624458598726,2.906248585048,7.40009148271)
  );
#137 = LINE('',#138,#139);
#138 = CARTESIAN_POINT('',(17.624458598726,2.906248585048,7.40009148271)
  );
#139 = VECTOR('',#140,1.);
#140 = DIRECTION('',(0.,-0.939692620786,0.342020143326));
#141 = ORIENTED_EDGE('',*,*,#142,.F.);
#142 = EDGE_CURVE('',#102,#135,#143,.T.);
#143 = LINE('',#144,#145);
#144 = CARTESIAN_POINT('',(17.624458598726,2.571635247374,6.480748893202
    ));
#145 = VECTOR('',#146,1.);
#146 = DIRECTION('',(0.,0.342020143326,0.939692620786));
#147 = PLANE('',#148);
#148 = AXIS2_PLACEMENT_3D('',#149,#150,#151);
#149 = CARTESIAN_POINT('',(17.624458598726,2.571635247374,6.480748893202
    ));
#150 = DIRECTION('',(-1.,0.,0.));
#151 = DIRECTION('',(0.,0.342020143326,0.939692620786));
#152 = ADVANCED_FACE('',(#153),#178,.T.);
#153 = FACE_BOUND('',#154,.T.);
#154 = EDGE_LOOP('',(#155,#156,#164,#172));
#155 = ORIENTED_EDGE('',*,*,#134,.T.);
#156 = ORIENTED_EDGE('',*,*,#157,.T.);
#157 = EDGE_CURVE('',#127,#158,#160,.T.);
#158 = VERTEX_POINT('',#159);
#159 = CARTESIAN_POINT('',(18.537834394904,2.332954935179,8.164023645108
    ));
#160 = B_SPLINE_CURVE_WITH_KNOTS('',2,(#161,#162,#163),.UNSPECIFIED.,.F.
  ,.F.,(3,3),(0.,1.),.PIECEWISE_BEZIER_KNOTS.);
#161 = CARTESIAN_POINT('',(17.624458598726,2.15449448842,7.67370759737)
  );
#162 = CARTESIAN_POINT('',(18.044840764331,2.20154948903,7.80299014902)
  );
#163 = CARTESIAN_POINT('',(18.537834394904,2.332954935179,8.164023645108
    ));
#164 = ORIENTED_EDGE('',*,*,#165,.F.);
#165 = EDGE_CURVE('',#166,#158,#168,.T.);
#166 = VERTEX_POINT('',#167);
#167 = CARTESIAN_POINT('',(18.537834394904,3.084709031808,7.890407530447
    ));
#168 = LINE('',#169,#170);
#169 = CARTESIAN_POINT('',(18.537834394904,3.084709031808,7.890407530447
    ));
#170 = VECTOR('',#171,1.);
#171 = DIRECTION('',(0.,-0.939692620786,0.342020143326));
#172 = ORIENTED_EDGE('',*,*,#173,.F.);
#173 = EDGE_CURVE('',#135,#166,#174,.T.);
#174 = B_SPLINE_CURVE_WITH_KNOTS('',2,(#175,#176,#177),.UNSPECIFIED.,.F.
  ,.F.,(3,3),(0.,1.),.PIECEWISE_BEZIER_KNOTS.);
#175 = CARTESIAN_POINT('',(17.624458598726,2.906248585048,7.40009148271)
  );
#176 = CARTESIAN_POINT('',(18.044840764331,2.953303585659,7.529374034359
    ));
#177 = CARTESIAN_POINT('',(18.537834394904,3.084709031808,7.890407530447
    ));
#178 = SURFACE_OF_LINEAR_EXTRUSION('',#179,#183);
#179 = B_SPLINE_CURVE_WITH_KNOTS('',2,(#180,#181,#182),.UNSPECIFIED.,.F.
  ,.F.,(3,3),(0.,1.),.PIECEWISE_BEZIER_KNOTS.);
#180 = CARTESIAN_POINT('',(17.624458598726,2.906248585048,7.40009148271)
  );
#181 = CARTESIAN_POINT('',(18.044840764331,2.953303585659,7.529374034359
    ));
#182 = CARTESIAN_POINT('',(18.537834394904,3.084709031808,7.890407530447
    ));
#183 = VECTOR('',#184,1.);
#184 = DIRECTION('',(-0.,0.939692620786,-0.342020143326));
#185 = ADVANCED_FACE('',(#186),#211,.T.);
#186 = FACE_BOUND('',#187,.T.);
#187 = EDGE_LOOP('',(#188,#189,#197,#205));
#188 = ORIENTED_EDGE('',*,*,#165,.T.);
#189 = ORIENTED_EDGE('',*,*,#190,.T.);
#190 = EDGE_CURVE('',#158,#191,#193,.T.);
#191 = VERTEX_POINT('',#192);
#192 = CARTESIAN_POINT('',(19.214267515924,2.639683828047,9.006754352157
    ));
#193 = B_SPLINE_CURVE_WITH_KNOTS('',2,(#194,#195,#196),.UNSPECIFIED.,.F.
  ,.F.,(3,3),(0.,1.),.PIECEWISE_BEZIER_KNOTS.);
#194 = CARTESIAN_POINT('',(18.537834394904,2.332954935179,8.164023645108
    ));
#195 = CARTESIAN_POINT('',(19.030828025478,2.464447520218,8.525296553329
    ));
#196 = CARTESIAN_POINT('',(19.214267515924,2.639683828047,9.006754352157
    ));
#197 = ORIENTED_EDGE('',*,*,#198,.F.);
#198 = EDGE_CURVE('',#199,#191,#201,.T.);
#199 = VERTEX_POINT('',#200);
#200 = CARTESIAN_POINT('',(19.214267515924,3.391437924676,8.733138237496
    ));
#201 = LINE('',#202,#203);
#202 = CARTESIAN_POINT('',(19.214267515924,3.391437924676,8.733138237496
    ));
#203 = VECTOR('',#204,1.);
#204 = DIRECTION('',(0.,-0.939692620786,0.342020143326));
#205 = ORIENTED_EDGE('',*,*,#206,.F.);
#206 = EDGE_CURVE('',#166,#199,#207,.T.);
#207 = B_SPLINE_CURVE_WITH_KNOTS('',2,(#208,#209,#210),.UNSPECIFIED.,.F.
  ,.F.,(3,3),(0.,1.),.PIECEWISE_BEZIER_KNOTS.);
#208 = CARTESIAN_POINT('',(18.537834394904,3.084709031808,7.890407530447
    ));
#209 = CARTESIAN_POINT('',(19.030828025478,3.216201616847,8.251680438668
    ));
#210 = CARTESIAN_POINT('',(19.214267515924,3.391437924676,8.733138237496
    ));
#211 = SURFACE_OF_LINEAR_EXTRUSION('',#212,#216);
#212 = B_SPLINE_CURVE_WITH_KNOTS('',2,(#213,#214,#215),.UNSPECIFIED.,.F.
  ,.F.,(3,3),(0.,1.),.PIECEWISE_BEZIER_KNOTS.);
#213 = CARTESIAN_POINT('',(18.537834394904,3.084709031808,7.890407530447
    ));
#214 = CARTESIAN_POINT('',(19.030828025478,3.216201616847,8.251680438668
    ));
#215 = CARTESIAN_POINT('',(19.214267515924,3.391437924676,8.733138237496
    ));
#216 = VECTOR('',#217,1.);
#217 = DIRECTION('',(-0.,0.939692620786,-0.342020143326));
#218 = ADVANCED_FACE('',(#219),#244,.T.);
#219 = FACE_BOUND('',#220,.T.);
#220 = EDGE_LOOP('',(#221,#222,#230,#238));
#221 = ORIENTED_EDGE('',*,*,#198,.T.);
#222 = ORIENTED_EDGE('',*,*,#223,.T.);
#223 = EDGE_CURVE('',#191,#224,#226,.T.);
#224 = VERTEX_POINT('',#225);
#225 = CARTESIAN_POINT('',(20.085605095541,2.639683828047,9.006754352157
    ));
#226 = LINE('',#227,#228);
#227 = CARTESIAN_POINT('',(19.214267515924,2.639683828047,9.006754352157
    ));
#228 = VECTOR('',#229,1.);
#229 = DIRECTION('',(1.,0.,0.));
#230 = ORIENTED_EDGE('',*,*,#231,.F.);
#231 = EDGE_CURVE('',#232,#224,#234,.T.);
#232 = VERTEX_POINT('',#233);
#233 = CARTESIAN_POINT('',(20.085605095541,3.391437924676,8.733138237496
    ));
#234 = LINE('',#235,#236);
#235 = CARTESIAN_POINT('',(20.085605095541,3.391437924676,8.733138237496
    ));
#236 = VECTOR('',#237,1.);
#237 = DIRECTION('',(0.,-0.939692620786,0.342020143326));
#238 = ORIENTED_EDGE('',*,*,#239,.F.);
#239 = EDGE_CURVE('',#199,#232,#240,.T.);
#240 = LINE('',#241,#242);
#241 = CARTESIAN_POINT('',(19.214267515924,3.391437924676,8.733138237496
    ));
#242 = VECTOR('',#243,1.);
#243 = DIRECTION('',(1.,0.,0.));
#244 = PLANE('',#245);
#245 = AXIS2_PLACEMENT_3D('',#246,#247,#248);
#246 = CARTESIAN_POINT('',(19.214267515924,3.391437924676,8.733138237496
    ));
#247 = DIRECTION('',(0.,0.342020143326,0.939692620786));
#248 = DIRECTION('',(1.,0.,0.));
#249 = ADVANCED_FACE('',(#250),#266,.T.);
#250 = FACE_BOUND('',#251,.T.);
#251 = EDGE_LOOP('',(#252,#253,#259,#260));
#252 = ORIENTED_EDGE('',*,*,#231,.T.);
#253 = ORIENTED_EDGE('',*,*,#254,.T.);
#254 = EDGE_CURVE('',#224,#24,#255,.T.);
#255 = LINE('',#256,#257);
#256 = CARTESIAN_POINT('',(20.085605095541,2.639683828047,9.006754352157
    ));
#257 = VECTOR('',#258,1.);
#258 = DIRECTION('',(0.,-0.342020143326,-0.939692620786));
#259 = ORIENTED_EDGE('',*,*,#21,.F.);
#260 = ORIENTED_EDGE('',*,*,#261,.F.);
#261 = EDGE_CURVE('',#232,#22,#262,.T.);
#262 = LINE('',#263,#264);
#263 = CARTESIAN_POINT('',(20.085605095541,3.391437924676,8.733138237496
    ));
#264 = VECTOR('',#265,1.);
#265 = DIRECTION('',(0.,-0.342020143326,-0.939692620786));
#266 = PLANE('',#267);
#267 = AXIS2_PLACEMENT_3D('',#268,#269,#270);
#268 = CARTESIAN_POINT('',(20.085605095541,3.391437924676,8.733138237496
    ));
#269 = DIRECTION('',(1.,0.,0.));
#270 = DIRECTION('',(0.,-0.342020143326,-0.939692620786));
#271 = ADVANCED_FACE('',(#272),#282,.F.);
#272 = FACE_BOUND('',#273,.T.);
#273 = EDGE_LOOP('',(#274,#275,#276,#277,#278,#279,#280,#281));
#274 = ORIENTED_EDGE('',*,*,#47,.T.);
#275 = ORIENTED_EDGE('',*,*,#78,.T.);
#276 = ORIENTED_EDGE('',*,*,#109,.T.);
#277 = ORIENTED_EDGE('',*,*,#142,.T.);
#278 = ORIENTED_EDGE('',*,*,#173,.T.);
#279 = ORIENTED_EDGE('',*,*,#206,.T.);
#280 = ORIENTED_EDGE('',*,*,#239,.T.);
#281 = ORIENTED_EDGE('',*,*,#261,.T.);
#282 = PLANE('',#283);
#283 = AXIS2_PLACEMENT_3D('',#284,#285,#286);
#284 = CARTESIAN_POINT('',(19.234316247507,2.484916324519,6.242490610816
    ));
#285 = DIRECTION('',(0.,-0.939692620786,0.342020143326));
#286 = DIRECTION('',(1.,0.,0.));
#287 = ADVANCED_FACE('',(#288),#298,.T.);
#288 = FACE_BOUND('',#289,.F.);
#289 = EDGE_LOOP('',(#290,#291,#292,#293,#294,#295,#296,#297));
#290 = ORIENTED_EDGE('',*,*,#31,.T.);
#291 = ORIENTED_EDGE('',*,*,#62,.T.);
#292 = ORIENTED_EDGE('',*,*,#93,.T.);
#293 = ORIENTED_EDGE('',*,*,#126,.T.);
#294 = ORIENTED_EDGE('',*,*,#157,.T.);
#295 = ORIENTED_EDGE('',*,*,#190,.T.);
#296 = ORIENTED_EDGE('',*,*,#223,.T.);
#297 = ORIENTED_EDGE('',*,*,#254,.T.);
#298 = PLANE('',#299);
#299 = AXIS2_PLACEMENT_3D('',#300,#301,#302);
#300 = CARTESIAN_POINT('',(19.234316247507,1.73316222789,6.516106725477)
  );
#301 = DIRECTION('',(0.,-0.939692620786,0.342020143326));
#302 = DIRECTION('',(1.,0.,0.));
#303 = MANIFOLD_SOLID_BREP('',#304);
#304 = CLOSED_SHELL('',(#305,#345,#378,#411,#444,#477,#510,#543,#576,
    #607,#640,#673,#706,#739,#772,#805,#836,#869,#902,#935,#968,#1001,
    #1034,#1067,#1100,#1133,#1166,#1199,#1223,#1259));
#305 = ADVANCED_FACE('',(#306),#340,.T.);
#306 = FACE_BOUND('',#307,.T.);
#307 = EDGE_LOOP('',(#308,#318,#326,#334));
#308 = ORIENTED_EDGE('',*,*,#309,.T.);
#309 = EDGE_CURVE('',#310,#312,#314,.T.);
#310 = VERTEX_POINT('',#311);
#311 = CARTESIAN_POINT('',(21.653248407643,1.970986878472,4.830481062609
    ));
#312 = VERTEX_POINT('',#313);
#313 = CARTESIAN_POINT('',(21.653248407643,1.219232781843,5.10409717727)
  );
#314 = LINE('',#315,#316);
#315 = CARTESIAN_POINT('',(21.653248407643,1.970986878472,4.830481062609
    ));
#316 = VECTOR('',#317,1.);
#317 = DIRECTION('',(0.,-0.939692620786,0.342020143326));
#318 = ORIENTED_EDGE('',*,*,#319,.T.);
#319 = EDGE_CURVE('',#312,#320,#322,.T.);
#320 = VERTEX_POINT('',#321);
#321 = CARTESIAN_POINT('',(22.692738853503,1.262192254622,5.222127358683
    ));
#322 = LINE('',#323,#324);
#323 = CARTESIAN_POINT('',(21.653248407643,1.219232781843,5.10409717727)
  );
#324 = VECTOR('',#325,1.);
#325 = DIRECTION('',(0.992778634966,4.102899349847E-02,0.11272623318));
#326 = ORIENTED_EDGE('',*,*,#327,.F.);
#327 = EDGE_CURVE('',#328,#320,#330,.T.);
#328 = VERTEX_POINT('',#329);
#329 = CARTESIAN_POINT('',(22.692738853503,2.013946351251,4.948511244023
    ));
#330 = LINE('',#331,#332);
#331 = CARTESIAN_POINT('',(22.692738853503,2.013946351251,4.948511244023
    ));
#332 = VECTOR('',#333,1.);
#333 = DIRECTION('',(0.,-0.939692620786,0.342020143326));
#334 = ORIENTED_EDGE('',*,*,#335,.F.);
#335 = EDGE_CURVE('',#310,#328,#336,.T.);
#336 = LINE('',#337,#338);
#337 = CARTESIAN_POINT('',(21.653248407643,1.970986878472,4.830481062609
    ));
#338 = VECTOR('',#339,1.);
#339 = DIRECTION('',(0.992778634966,4.102899349847E-02,0.11272623318));
#340 = PLANE('',#341);
#341 = AXIS2_PLACEMENT_3D('',#342,#343,#344);
#342 = CARTESIAN_POINT('',(21.653248407643,1.970986878472,4.830481062609
    ));
#343 = DIRECTION('',(-0.119960751725,0.339550291022,0.932906757352));
#344 = DIRECTION('',(0.992778634966,4.102899349847E-02,0.11272623318));
#345 = ADVANCED_FACE('',(#346),#371,.T.);
#346 = FACE_BOUND('',#347,.T.);
#347 = EDGE_LOOP('',(#348,#349,#357,#365));
#348 = ORIENTED_EDGE('',*,*,#327,.T.);
#349 = ORIENTED_EDGE('',*,*,#350,.T.);
#350 = EDGE_CURVE('',#320,#351,#353,.T.);
#351 = VERTEX_POINT('',#352);
#352 = CARTESIAN_POINT('',(22.96025477707,1.054975974156,4.65280530716)
  );
#353 = B_SPLINE_CURVE_WITH_KNOTS('',2,(#354,#355,#356),.UNSPECIFIED.,.F.
  ,.F.,(3,3),(0.,1.),.PIECEWISE_BEZIER_KNOTS.);
#354 = CARTESIAN_POINT('',(22.692738853503,1.262192254622,5.222127358683
    ));
#355 = CARTESIAN_POINT('',(22.742420382166,1.126691280642,4.849841492359
    ));
#356 = CARTESIAN_POINT('',(22.96025477707,1.054975974156,4.65280530716)
  );
#357 = ORIENTED_EDGE('',*,*,#358,.F.);
#358 = EDGE_CURVE('',#359,#351,#361,.T.);
#359 = VERTEX_POINT('',#360);
#360 = CARTESIAN_POINT('',(22.96025477707,1.806730070785,4.379189192499)
  );
#361 = LINE('',#362,#363);
#362 = CARTESIAN_POINT('',(22.96025477707,1.806730070785,4.379189192499)
  );
#363 = VECTOR('',#364,1.);
#364 = DIRECTION('',(0.,-0.939692620786,0.342020143326));
#365 = ORIENTED_EDGE('',*,*,#366,.F.);
#366 = EDGE_CURVE('',#328,#359,#367,.T.);
#367 = B_SPLINE_CURVE_WITH_KNOTS('',2,(#368,#369,#370),.UNSPECIFIED.,.F.
  ,.F.,(3,3),(0.,1.),.PIECEWISE_BEZIER_KNOTS.);
#368 = CARTESIAN_POINT('',(22.692738853503,2.013946351251,4.948511244023
    ));
#369 = CARTESIAN_POINT('',(22.742420382166,1.878445377271,4.576225377699
    ));
#370 = CARTESIAN_POINT('',(22.96025477707,1.806730070785,4.379189192499)
  );
#371 = SURFACE_OF_LINEAR_EXTRUSION('',#372,#376);
#372 = B_SPLINE_CURVE_WITH_KNOTS('',2,(#373,#374,#375),.UNSPECIFIED.,.F.
  ,.F.,(3,3),(0.,1.),.PIECEWISE_BEZIER_KNOTS.);
#373 = CARTESIAN_POINT('',(22.692738853503,2.013946351251,4.948511244023
    ));
#374 = CARTESIAN_POINT('',(22.742420382166,1.878445377271,4.576225377699
    ));
#375 = CARTESIAN_POINT('',(22.96025477707,1.806730070785,4.379189192499)
  );
#376 = VECTOR('',#377,1.);
#377 = DIRECTION('',(-0.,0.939692620786,-0.342020143326));
#378 = ADVANCED_FACE('',(#379),#404,.T.);
#379 = FACE_BOUND('',#380,.T.);
#380 = EDGE_LOOP('',(#381,#382,#390,#398));
#381 = ORIENTED_EDGE('',*,*,#358,.T.);
#382 = ORIENTED_EDGE('',*,*,#383,.T.);
#383 = EDGE_CURVE('',#351,#384,#386,.T.);
#384 = VERTEX_POINT('',#385);
#385 = CARTESIAN_POINT('',(23.487643312102,0.983347806561,4.456008534093
    ));
#386 = B_SPLINE_CURVE_WITH_KNOTS('',2,(#387,#388,#389),.UNSPECIFIED.,.F.
  ,.F.,(3,3),(0.,1.),.PIECEWISE_BEZIER_KNOTS.);
#387 = CARTESIAN_POINT('',(22.96025477707,1.054975974156,4.65280530716)
  );
#388 = CARTESIAN_POINT('',(23.178089171975,0.983347806561,4.456008534093
    ));
#389 = CARTESIAN_POINT('',(23.487643312102,0.983347806561,4.456008534093
    ));
#390 = ORIENTED_EDGE('',*,*,#391,.F.);
#391 = EDGE_CURVE('',#392,#384,#394,.T.);
#392 = VERTEX_POINT('',#393);
#393 = CARTESIAN_POINT('',(23.487643312102,1.735101903189,4.182392419433
    ));
#394 = LINE('',#395,#396);
#395 = CARTESIAN_POINT('',(23.487643312102,1.735101903189,4.182392419433
    ));
#396 = VECTOR('',#397,1.);
#397 = DIRECTION('',(0.,-0.939692620786,0.342020143326));
#398 = ORIENTED_EDGE('',*,*,#399,.F.);
#399 = EDGE_CURVE('',#359,#392,#400,.T.);
#400 = B_SPLINE_CURVE_WITH_KNOTS('',2,(#401,#402,#403),.UNSPECIFIED.,.F.
  ,.F.,(3,3),(0.,1.),.PIECEWISE_BEZIER_KNOTS.);
#401 = CARTESIAN_POINT('',(22.96025477707,1.806730070785,4.379189192499)
  );
#402 = CARTESIAN_POINT('',(23.178089171975,1.735101903189,4.182392419433
    ));
#403 = CARTESIAN_POINT('',(23.487643312102,1.735101903189,4.182392419433
    ));
#404 = SURFACE_OF_LINEAR_EXTRUSION('',#405,#409);
#405 = B_SPLINE_CURVE_WITH_KNOTS('',2,(#406,#407,#408),.UNSPECIFIED.,.F.
  ,.F.,(3,3),(0.,1.),.PIECEWISE_BEZIER_KNOTS.);
#406 = CARTESIAN_POINT('',(22.96025477707,1.806730070785,4.379189192499)
  );
#407 = CARTESIAN_POINT('',(23.178089171975,1.735101903189,4.182392419433
    ));
#408 = CARTESIAN_POINT('',(23.487643312102,1.735101903189,4.182392419433
    ));
#409 = VECTOR('',#410,1.);
#410 = DIRECTION('',(-0.,0.939692620786,-0.342020143326));
#411 = ADVANCED_FACE('',(#412),#437,.T.);
#412 = FACE_BOUND('',#413,.T.);
#413 = EDGE_LOOP('',(#414,#415,#423,#431));
#414 = ORIENTED_EDGE('',*,*,#391,.T.);
#415 = ORIENTED_EDGE('',*,*,#416,.T.);
#416 = EDGE_CURVE('',#384,#417,#419,.T.);
#417 = VERTEX_POINT('',#418);
#418 = CARTESIAN_POINT('',(24.047388535032,1.0703124188,4.694941842512)
  );
#419 = B_SPLINE_CURVE_WITH_KNOTS('',2,(#420,#421,#422),.UNSPECIFIED.,.F.
  ,.F.,(3,3),(0.,1.),.PIECEWISE_BEZIER_KNOTS.);
#420 = CARTESIAN_POINT('',(23.487643312102,0.983347806561,4.456008534093
    ));
#421 = CARTESIAN_POINT('',(23.820127388535,0.983347806561,4.456008534093
    ));
#422 = CARTESIAN_POINT('',(24.047388535032,1.0703124188,4.694941842512)
  );
#423 = ORIENTED_EDGE('',*,*,#424,.F.);
#424 = EDGE_CURVE('',#425,#417,#427,.T.);
#425 = VERTEX_POINT('',#426);
#426 = CARTESIAN_POINT('',(24.047388535032,1.822066515429,4.421325727852
    ));
#427 = LINE('',#428,#429);
#428 = CARTESIAN_POINT('',(24.047388535032,1.822066515429,4.421325727852
    ));
#429 = VECTOR('',#430,1.);
#430 = DIRECTION('',(0.,-0.939692620786,0.342020143326));
#431 = ORIENTED_EDGE('',*,*,#432,.F.);
#432 = EDGE_CURVE('',#392,#425,#433,.T.);
#433 = B_SPLINE_CURVE_WITH_KNOTS('',2,(#434,#435,#436),.UNSPECIFIED.,.F.
  ,.F.,(3,3),(0.,1.),.PIECEWISE_BEZIER_KNOTS.);
#434 = CARTESIAN_POINT('',(23.487643312102,1.735101903189,4.182392419433
    ));
#435 = CARTESIAN_POINT('',(23.820127388535,1.735101903189,4.182392419433
    ));
#436 = CARTESIAN_POINT('',(24.047388535032,1.822066515429,4.421325727852
    ));
#437 = SURFACE_OF_LINEAR_EXTRUSION('',#438,#442);
#438 = B_SPLINE_CURVE_WITH_KNOTS('',2,(#439,#440,#441),.UNSPECIFIED.,.F.
  ,.F.,(3,3),(0.,1.),.PIECEWISE_BEZIER_KNOTS.);
#439 = CARTESIAN_POINT('',(23.487643312102,1.735101903189,4.182392419433
    ));
#440 = CARTESIAN_POINT('',(23.820127388535,1.735101903189,4.182392419433
    ));
#441 = CARTESIAN_POINT('',(24.047388535032,1.822066515429,4.421325727852
    ));
#442 = VECTOR('',#443,1.);
#443 = DIRECTION('',(-0.,0.939692620786,-0.342020143326));
#444 = ADVANCED_FACE('',(#445),#470,.T.);
#445 = FACE_BOUND('',#446,.T.);
#446 = EDGE_LOOP('',(#447,#448,#456,#464));
#447 = ORIENTED_EDGE('',*,*,#424,.T.);
#448 = ORIENTED_EDGE('',*,*,#449,.T.);
#449 = EDGE_CURVE('',#417,#450,#452,.T.);
#450 = VERTEX_POINT('',#451);
#451 = CARTESIAN_POINT('',(24.274904458599,1.304890310732,5.339439303698
    ));
#452 = B_SPLINE_CURVE_WITH_KNOTS('',2,(#453,#454,#455),.UNSPECIFIED.,.F.
  ,.F.,(3,3),(0.,1.),.PIECEWISE_BEZIER_KNOTS.);
#453 = CARTESIAN_POINT('',(24.047388535032,1.0703124188,4.694941842512)
  );
#454 = CARTESIAN_POINT('',(24.274904458599,1.157277031039,4.933875150931
    ));
#455 = CARTESIAN_POINT('',(24.274904458599,1.304890310732,5.339439303698
    ));
#456 = ORIENTED_EDGE('',*,*,#457,.F.);
#457 = EDGE_CURVE('',#458,#450,#460,.T.);
#458 = VERTEX_POINT('',#459);
#459 = CARTESIAN_POINT('',(24.274904458599,2.05664440736,5.065823189038)
  );
#460 = LINE('',#461,#462);
#461 = CARTESIAN_POINT('',(24.274904458599,2.05664440736,5.065823189038)
  );
#462 = VECTOR('',#463,1.);
#463 = DIRECTION('',(0.,-0.939692620786,0.342020143326));
#464 = ORIENTED_EDGE('',*,*,#465,.F.);
#465 = EDGE_CURVE('',#425,#458,#466,.T.);
#466 = B_SPLINE_CURVE_WITH_KNOTS('',2,(#467,#468,#469),.UNSPECIFIED.,.F.
  ,.F.,(3,3),(0.,1.),.PIECEWISE_BEZIER_KNOTS.);
#467 = CARTESIAN_POINT('',(24.047388535032,1.822066515429,4.421325727852
    ));
#468 = CARTESIAN_POINT('',(24.274904458599,1.909031127668,4.660259036271
    ));
#469 = CARTESIAN_POINT('',(24.274904458599,2.05664440736,5.065823189038)
  );
#470 = SURFACE_OF_LINEAR_EXTRUSION('',#471,#475);
#471 = B_SPLINE_CURVE_WITH_KNOTS('',2,(#472,#473,#474),.UNSPECIFIED.,.F.
  ,.F.,(3,3),(0.,1.),.PIECEWISE_BEZIER_KNOTS.);
#472 = CARTESIAN_POINT('',(24.047388535032,1.822066515429,4.421325727852
    ));
#473 = CARTESIAN_POINT('',(24.274904458599,1.909031127668,4.660259036271
    ));
#474 = CARTESIAN_POINT('',(24.274904458599,2.05664440736,5.065823189038)
  );
#475 = VECTOR('',#476,1.);
#476 = DIRECTION('',(-0.,0.939692620786,-0.342020143326));
#477 = ADVANCED_FACE('',(#478),#503,.T.);
#478 = FACE_BOUND('',#479,.T.);
#479 = EDGE_LOOP('',(#480,#481,#489,#497));
#480 = ORIENTED_EDGE('',*,*,#457,.T.);
#481 = ORIENTED_EDGE('',*,*,#482,.T.);
#482 = EDGE_CURVE('',#450,#483,#485,.T.);
#483 = VERTEX_POINT('',#484);
#484 = CARTESIAN_POINT('',(24.057070063694,1.526223091381,5.947546120717
    ));
#485 = B_SPLINE_CURVE_WITH_KNOTS('',2,(#486,#487,#488),.UNSPECIFIED.,.F.
  ,.F.,(3,3),(0.,1.),.PIECEWISE_BEZIER_KNOTS.);
#486 = CARTESIAN_POINT('',(24.274904458599,1.304890310732,5.339439303698
    ));
#487 = CARTESIAN_POINT('',(24.274904458599,1.444573951433,5.723216952391
    ));
#488 = CARTESIAN_POINT('',(24.057070063694,1.526223091381,5.947546120717
    ));
#489 = ORIENTED_EDGE('',*,*,#490,.F.);
#490 = EDGE_CURVE('',#491,#483,#493,.T.);
#491 = VERTEX_POINT('',#492);
#492 = CARTESIAN_POINT('',(24.057070063694,2.277977188009,5.673930006056
    ));
#493 = LINE('',#494,#495);
#494 = CARTESIAN_POINT('',(24.057070063694,2.277977188009,5.673930006056
    ));
#495 = VECTOR('',#496,1.);
#496 = DIRECTION('',(0.,-0.939692620786,0.342020143326));
#497 = ORIENTED_EDGE('',*,*,#498,.F.);
#498 = EDGE_CURVE('',#458,#491,#499,.T.);
#499 = B_SPLINE_CURVE_WITH_KNOTS('',2,(#500,#501,#502),.UNSPECIFIED.,.F.
  ,.F.,(3,3),(0.,1.),.PIECEWISE_BEZIER_KNOTS.);
#500 = CARTESIAN_POINT('',(24.274904458599,2.05664440736,5.065823189038)
  );
#501 = CARTESIAN_POINT('',(24.274904458599,2.196328048061,5.449600837731
    ));
#502 = CARTESIAN_POINT('',(24.057070063694,2.277977188009,5.673930006056
    ));
#503 = SURFACE_OF_LINEAR_EXTRUSION('',#504,#508);
#504 = B_SPLINE_CURVE_WITH_KNOTS('',2,(#505,#506,#507),.UNSPECIFIED.,.F.
  ,.F.,(3,3),(0.,1.),.PIECEWISE_BEZIER_KNOTS.);
#505 = CARTESIAN_POINT('',(24.274904458599,2.05664440736,5.065823189038)
  );
#506 = CARTESIAN_POINT('',(24.274904458599,2.196328048061,5.449600837731
    ));
#507 = CARTESIAN_POINT('',(24.057070063694,2.277977188009,5.673930006056
    ));
#508 = VECTOR('',#509,1.);
#509 = DIRECTION('',(-0.,0.939692620786,-0.342020143326));
#510 = ADVANCED_FACE('',(#511),#536,.T.);
#511 = FACE_BOUND('',#512,.T.);
#512 = EDGE_LOOP('',(#513,#514,#522,#530));
#513 = ORIENTED_EDGE('',*,*,#490,.T.);
#514 = ORIENTED_EDGE('',*,*,#515,.T.);
#515 = EDGE_CURVE('',#483,#516,#518,.T.);
#516 = VERTEX_POINT('',#517);
#517 = CARTESIAN_POINT('',(23.525859872611,1.607959370219,6.172114701175
    ));
#518 = B_SPLINE_CURVE_WITH_KNOTS('',2,(#519,#520,#521),.UNSPECIFIED.,.F.
  ,.F.,(3,3),(0.,1.),.PIECEWISE_BEZIER_KNOTS.);
#519 = CARTESIAN_POINT('',(24.057070063694,1.526223091381,5.947546120717
    ));
#520 = CARTESIAN_POINT('',(23.83923566879,1.607959370219,6.172114701175)
  );
#521 = CARTESIAN_POINT('',(23.525859872611,1.607959370219,6.172114701175
    ));
#522 = ORIENTED_EDGE('',*,*,#523,.F.);
#523 = EDGE_CURVE('',#524,#516,#526,.T.);
#524 = VERTEX_POINT('',#525);
#525 = CARTESIAN_POINT('',(23.525859872611,2.359713466848,5.898498586514
    ));
#526 = LINE('',#527,#528);
#527 = CARTESIAN_POINT('',(23.525859872611,2.359713466848,5.898498586514
    ));
#528 = VECTOR('',#529,1.);
#529 = DIRECTION('',(0.,-0.939692620786,0.342020143326));
#530 = ORIENTED_EDGE('',*,*,#531,.F.);
#531 = EDGE_CURVE('',#491,#524,#532,.T.);
#532 = B_SPLINE_CURVE_WITH_KNOTS('',2,(#533,#534,#535),.UNSPECIFIED.,.F.
  ,.F.,(3,3),(0.,1.),.PIECEWISE_BEZIER_KNOTS.);
#533 = CARTESIAN_POINT('',(24.057070063694,2.277977188009,5.673930006056
    ));
#534 = CARTESIAN_POINT('',(23.83923566879,2.359713466848,5.898498586514)
  );
#535 = CARTESIAN_POINT('',(23.525859872611,2.359713466848,5.898498586514
    ));
#536 = SURFACE_OF_LINEAR_EXTRUSION('',#537,#541);
#537 = B_SPLINE_CURVE_WITH_KNOTS('',2,(#538,#539,#540),.UNSPECIFIED.,.F.
  ,.F.,(3,3),(0.,1.),.PIECEWISE_BEZIER_KNOTS.);
#538 = CARTESIAN_POINT('',(24.057070063694,2.277977188009,5.673930006056
    ));
#539 = CARTESIAN_POINT('',(23.83923566879,2.359713466848,5.898498586514)
  );
#540 = CARTESIAN_POINT('',(23.525859872611,2.359713466848,5.898498586514
    ));
#541 = VECTOR('',#542,1.);
#542 = DIRECTION('',(-0.,0.939692620786,-0.342020143326));
#543 = ADVANCED_FACE('',(#544),#569,.T.);
#544 = FACE_BOUND('',#545,.T.);
#545 = EDGE_LOOP('',(#546,#547,#555,#563));
#546 = ORIENTED_EDGE('',*,*,#523,.T.);
#547 = ORIENTED_EDGE('',*,*,#548,.T.);
#548 = EDGE_CURVE('',#516,#549,#551,.T.);
#549 = VERTEX_POINT('',#550);
#550 = CARTESIAN_POINT('',(23.032866242038,1.580510619863,6.096699879379
    ));
#551 = B_SPLINE_CURVE_WITH_KNOTS('',2,(#552,#553,#554),.UNSPECIFIED.,.F.
  ,.F.,(3,3),(0.,1.),.PIECEWISE_BEZIER_KNOTS.);
#552 = CARTESIAN_POINT('',(23.525859872611,1.607959370219,6.172114701175
    ));
#553 = CARTESIAN_POINT('',(23.31949044586,1.607959370219,6.172114701175)
  );
#554 = CARTESIAN_POINT('',(23.032866242038,1.580510619863,6.096699879379
    ));
#555 = ORIENTED_EDGE('',*,*,#556,.F.);
#556 = EDGE_CURVE('',#557,#549,#559,.T.);
#557 = VERTEX_POINT('',#558);
#558 = CARTESIAN_POINT('',(23.032866242038,2.332264716491,5.823083764718
    ));
#559 = LINE('',#560,#561);
#560 = CARTESIAN_POINT('',(23.032866242038,2.332264716491,5.823083764718
    ));
#561 = VECTOR('',#562,1.);
#562 = DIRECTION('',(0.,-0.939692620786,0.342020143326));
#563 = ORIENTED_EDGE('',*,*,#564,.F.);
#564 = EDGE_CURVE('',#524,#557,#565,.T.);
#565 = B_SPLINE_CURVE_WITH_KNOTS('',2,(#566,#567,#568),.UNSPECIFIED.,.F.
  ,.F.,(3,3),(0.,1.),.PIECEWISE_BEZIER_KNOTS.);
#566 = CARTESIAN_POINT('',(23.525859872611,2.359713466848,5.898498586514
    ));
#567 = CARTESIAN_POINT('',(23.31949044586,2.359713466848,5.898498586514)
  );
#568 = CARTESIAN_POINT('',(23.032866242038,2.332264716491,5.823083764718
    ));
#569 = SURFACE_OF_LINEAR_EXTRUSION('',#570,#574);
#570 = B_SPLINE_CURVE_WITH_KNOTS('',2,(#571,#572,#573),.UNSPECIFIED.,.F.
  ,.F.,(3,3),(0.,1.),.PIECEWISE_BEZIER_KNOTS.);
#571 = CARTESIAN_POINT('',(23.525859872611,2.359713466848,5.898498586514
    ));
#572 = CARTESIAN_POINT('',(23.31949044586,2.359713466848,5.898498586514)
  );
#573 = CARTESIAN_POINT('',(23.032866242038,2.332264716491,5.823083764718
    ));
#574 = VECTOR('',#575,1.);
#575 = DIRECTION('',(-0.,0.939692620786,-0.342020143326));
#576 = ADVANCED_FACE('',(#577),#602,.T.);
#577 = FACE_BOUND('',#578,.T.);
#578 = EDGE_LOOP('',(#579,#580,#588,#596));
#579 = ORIENTED_EDGE('',*,*,#556,.T.);
#580 = ORIENTED_EDGE('',*,*,#581,.T.);
#581 = EDGE_CURVE('',#549,#582,#584,.T.);
#582 = VERTEX_POINT('',#583);
#583 = CARTESIAN_POINT('',(23.151337579618,1.875650040358,6.907588772781
    ));
#584 = LINE('',#585,#586);
#585 = CARTESIAN_POINT('',(23.032866242038,1.580510619863,6.096699879379
    ));
#586 = VECTOR('',#587,1.);
#587 = DIRECTION('',(0.136013796445,0.338841730685,0.930960003826));
#588 = ORIENTED_EDGE('',*,*,#589,.F.);
#589 = EDGE_CURVE('',#590,#582,#592,.T.);
#590 = VERTEX_POINT('',#591);
#591 = CARTESIAN_POINT('',(23.151337579618,2.627404136987,6.63397265812)
  );
#592 = LINE('',#593,#594);
#593 = CARTESIAN_POINT('',(23.151337579618,2.627404136987,6.63397265812)
  );
#594 = VECTOR('',#595,1.);
#595 = DIRECTION('',(0.,-0.939692620786,0.342020143326));
#596 = ORIENTED_EDGE('',*,*,#597,.F.);
#597 = EDGE_CURVE('',#557,#590,#598,.T.);
#598 = LINE('',#599,#600);
#599 = CARTESIAN_POINT('',(23.032866242038,2.332264716491,5.823083764718
    ));
#600 = VECTOR('',#601,1.);
#601 = DIRECTION('',(0.136013796445,0.338841730685,0.930960003826));
#602 = PLANE('',#603);
#603 = AXIS2_PLACEMENT_3D('',#604,#605,#606);
#604 = CARTESIAN_POINT('',(23.032866242038,2.332264716491,5.823083764718
    ));
#605 = DIRECTION('',(-0.990706943135,4.651945815426E-02,0.127811160844)
  );
#606 = DIRECTION('',(0.136013796445,0.338841730685,0.930960003826));
#607 = ADVANCED_FACE('',(#608),#633,.T.);
#608 = FACE_BOUND('',#609,.T.);
#609 = EDGE_LOOP('',(#610,#611,#619,#627));
#610 = ORIENTED_EDGE('',*,*,#589,.T.);
#611 = ORIENTED_EDGE('',*,*,#612,.T.);
#612 = EDGE_CURVE('',#582,#613,#615,.T.);
#613 = VERTEX_POINT('',#614);
#614 = CARTESIAN_POINT('',(23.816305732484,1.940132818972,7.084753750967
    ));
#615 = B_SPLINE_CURVE_WITH_KNOTS('',2,(#616,#617,#618),.UNSPECIFIED.,.F.
  ,.F.,(3,3),(0.,1.),.PIECEWISE_BEZIER_KNOTS.);
#616 = CARTESIAN_POINT('',(23.151337579618,1.875650040358,6.907588772781
    ));
#617 = CARTESIAN_POINT('',(23.587006369427,1.871728790307,6.89681522681)
  );
#618 = CARTESIAN_POINT('',(23.816305732484,1.940132818972,7.084753750967
    ));
#619 = ORIENTED_EDGE('',*,*,#620,.F.);
#620 = EDGE_CURVE('',#621,#613,#623,.T.);
#621 = VERTEX_POINT('',#622);
#622 = CARTESIAN_POINT('',(23.816305732484,2.691886915601,6.811137636307
    ));
#623 = LINE('',#624,#625);
#624 = CARTESIAN_POINT('',(23.816305732484,2.691886915601,6.811137636307
    ));
#625 = VECTOR('',#626,1.);
#626 = DIRECTION('',(0.,-0.939692620786,0.342020143326));
#627 = ORIENTED_EDGE('',*,*,#628,.F.);
#628 = EDGE_CURVE('',#590,#621,#629,.T.);
#629 = B_SPLINE_CURVE_WITH_KNOTS('',2,(#630,#631,#632),.UNSPECIFIED.,.F.
  ,.F.,(3,3),(0.,1.),.PIECEWISE_BEZIER_KNOTS.);
#630 = CARTESIAN_POINT('',(23.151337579618,2.627404136987,6.63397265812)
  );
#631 = CARTESIAN_POINT('',(23.587006369427,2.623482886936,6.623199112149
    ));
#632 = CARTESIAN_POINT('',(23.816305732484,2.691886915601,6.811137636307
    ));
#633 = SURFACE_OF_LINEAR_EXTRUSION('',#634,#638);
#634 = B_SPLINE_CURVE_WITH_KNOTS('',2,(#635,#636,#637),.UNSPECIFIED.,.F.
  ,.F.,(3,3),(0.,1.),.PIECEWISE_BEZIER_KNOTS.);
#635 = CARTESIAN_POINT('',(23.151337579618,2.627404136987,6.63397265812)
  );
#636 = CARTESIAN_POINT('',(23.587006369427,2.623482886936,6.623199112149
    ));
#637 = CARTESIAN_POINT('',(23.816305732484,2.691886915601,6.811137636307
    ));
#638 = VECTOR('',#639,1.);
#639 = DIRECTION('',(-0.,0.939692620786,-0.342020143326));
#640 = ADVANCED_FACE('',(#641),#666,.T.);
#641 = FACE_BOUND('',#642,.T.);
#642 = EDGE_LOOP('',(#643,#644,#652,#660));
#643 = ORIENTED_EDGE('',*,*,#620,.T.);
#644 = ORIENTED_EDGE('',*,*,#645,.T.);
#645 = EDGE_CURVE('',#613,#646,#648,.T.);
#646 = VERTEX_POINT('',#647);
#647 = CARTESIAN_POINT('',(24.045605095541,2.121904543553,7.584167459747
    ));
#648 = B_SPLINE_CURVE_WITH_KNOTS('',2,(#649,#650,#651),.UNSPECIFIED.,.F.
  ,.F.,(3,3),(0.,1.),.PIECEWISE_BEZIER_KNOTS.);
#649 = CARTESIAN_POINT('',(23.816305732484,1.940132818972,7.084753750967
    ));
#650 = CARTESIAN_POINT('',(24.045605095541,2.008536847637,7.272692275124
    ));
#651 = CARTESIAN_POINT('',(24.045605095541,2.121904543553,7.584167459747
    ));
#652 = ORIENTED_EDGE('',*,*,#653,.F.);
#653 = EDGE_CURVE('',#654,#646,#656,.T.);
#654 = VERTEX_POINT('',#655);
#655 = CARTESIAN_POINT('',(24.045605095541,2.873658640181,7.310551345086
    ));
#656 = LINE('',#657,#658);
#657 = CARTESIAN_POINT('',(24.045605095541,2.873658640181,7.310551345086
    ));
#658 = VECTOR('',#659,1.);
#659 = DIRECTION('',(0.,-0.939692620786,0.342020143326));
#660 = ORIENTED_EDGE('',*,*,#661,.F.);
#661 = EDGE_CURVE('',#621,#654,#662,.T.);
#662 = B_SPLINE_CURVE_WITH_KNOTS('',2,(#663,#664,#665),.UNSPECIFIED.,.F.
  ,.F.,(3,3),(0.,1.),.PIECEWISE_BEZIER_KNOTS.);
#663 = CARTESIAN_POINT('',(23.816305732484,2.691886915601,6.811137636307
    ));
#664 = CARTESIAN_POINT('',(24.045605095541,2.760290944266,6.999076160464
    ));
#665 = CARTESIAN_POINT('',(24.045605095541,2.873658640181,7.310551345086
    ));
#666 = SURFACE_OF_LINEAR_EXTRUSION('',#667,#671);
#667 = B_SPLINE_CURVE_WITH_KNOTS('',2,(#668,#669,#670),.UNSPECIFIED.,.F.
  ,.F.,(3,3),(0.,1.),.PIECEWISE_BEZIER_KNOTS.);
#668 = CARTESIAN_POINT('',(23.816305732484,2.691886915601,6.811137636307
    ));
#669 = CARTESIAN_POINT('',(24.045605095541,2.760290944266,6.999076160464
    ));
#670 = CARTESIAN_POINT('',(24.045605095541,2.873658640181,7.310551345086
    ));
#671 = VECTOR('',#672,1.);
#672 = DIRECTION('',(-0.,0.939692620786,-0.342020143326));
#673 = ADVANCED_FACE('',(#674),#699,.T.);
#674 = FACE_BOUND('',#675,.T.);
#675 = EDGE_LOOP('',(#676,#677,#685,#693));
#676 = ORIENTED_EDGE('',*,*,#653,.T.);
#677 = ORIENTED_EDGE('',*,*,#678,.T.);
#678 = EDGE_CURVE('',#646,#679,#681,.T.);
#679 = VERTEX_POINT('',#680);
#680 = CARTESIAN_POINT('',(23.877452229299,2.275617545547,8.006490461802
    ));
#681 = B_SPLINE_CURVE_WITH_KNOTS('',2,(#682,#683,#684),.UNSPECIFIED.,.F.
  ,.F.,(3,3),(0.,1.),.PIECEWISE_BEZIER_KNOTS.);
#682 = CARTESIAN_POINT('',(24.045605095541,2.121904543553,7.584167459747
    ));
#683 = CARTESIAN_POINT('',(24.045605095541,2.218280155914,7.848957278495
    ));
#684 = CARTESIAN_POINT('',(23.877452229299,2.275617545547,8.006490461802
    ));
#685 = ORIENTED_EDGE('',*,*,#686,.F.);
#686 = EDGE_CURVE('',#687,#679,#689,.T.);
#687 = VERTEX_POINT('',#688);
#688 = CARTESIAN_POINT('',(23.877452229299,3.027371642175,7.732874347141
    ));
#689 = LINE('',#690,#691);
#690 = CARTESIAN_POINT('',(23.877452229299,3.027371642175,7.732874347141
    ));
#691 = VECTOR('',#692,1.);
#692 = DIRECTION('',(0.,-0.939692620786,0.342020143326));
#693 = ORIENTED_EDGE('',*,*,#694,.F.);
#694 = EDGE_CURVE('',#654,#687,#695,.T.);
#695 = B_SPLINE_CURVE_WITH_KNOTS('',2,(#696,#697,#698),.UNSPECIFIED.,.F.
  ,.F.,(3,3),(0.,1.),.PIECEWISE_BEZIER_KNOTS.);
#696 = CARTESIAN_POINT('',(24.045605095541,2.873658640181,7.310551345086
    ));
#697 = CARTESIAN_POINT('',(24.045605095541,2.970034252543,7.575341163835
    ));
#698 = CARTESIAN_POINT('',(23.877452229299,3.027371642175,7.732874347141
    ));
#699 = SURFACE_OF_LINEAR_EXTRUSION('',#700,#704);
#700 = B_SPLINE_CURVE_WITH_KNOTS('',2,(#701,#702,#703),.UNSPECIFIED.,.F.
  ,.F.,(3,3),(0.,1.),.PIECEWISE_BEZIER_KNOTS.);
#701 = CARTESIAN_POINT('',(24.045605095541,2.873658640181,7.310551345086
    ));
#702 = CARTESIAN_POINT('',(24.045605095541,2.970034252543,7.575341163835
    ));
#703 = CARTESIAN_POINT('',(23.877452229299,3.027371642175,7.732874347141
    ));
#704 = VECTOR('',#705,1.);
#705 = DIRECTION('',(-0.,0.939692620786,-0.342020143326));
#706 = ADVANCED_FACE('',(#707),#732,.T.);
#707 = FACE_BOUND('',#708,.T.);
#708 = EDGE_LOOP('',(#709,#710,#718,#726));
#709 = ORIENTED_EDGE('',*,*,#686,.T.);
#710 = ORIENTED_EDGE('',*,*,#711,.T.);
#711 = EDGE_CURVE('',#679,#712,#714,.T.);
#712 = VERTEX_POINT('',#713);
#713 = CARTESIAN_POINT('',(23.430318471338,2.332954935179,8.164023645108
    ));
#714 = B_SPLINE_CURVE_WITH_KNOTS('',2,(#715,#716,#717),.UNSPECIFIED.,.F.
  ,.F.,(3,3),(0.,1.),.PIECEWISE_BEZIER_KNOTS.);
#715 = CARTESIAN_POINT('',(23.877452229299,2.275617545547,8.006490461802
    ));
#716 = CARTESIAN_POINT('',(23.709299363057,2.332954935179,8.164023645108
    ));
#717 = CARTESIAN_POINT('',(23.430318471338,2.332954935179,8.164023645108
    ));
#718 = ORIENTED_EDGE('',*,*,#719,.F.);
#719 = EDGE_CURVE('',#720,#712,#722,.T.);
#720 = VERTEX_POINT('',#721);
#721 = CARTESIAN_POINT('',(23.430318471338,3.084709031808,7.890407530447
    ));
#722 = LINE('',#723,#724);
#723 = CARTESIAN_POINT('',(23.430318471338,3.084709031808,7.890407530447
    ));
#724 = VECTOR('',#725,1.);
#725 = DIRECTION('',(0.,-0.939692620786,0.342020143326));
#726 = ORIENTED_EDGE('',*,*,#727,.F.);
#727 = EDGE_CURVE('',#687,#720,#728,.T.);
#728 = B_SPLINE_CURVE_WITH_KNOTS('',2,(#729,#730,#731),.UNSPECIFIED.,.F.
  ,.F.,(3,3),(0.,1.),.PIECEWISE_BEZIER_KNOTS.);
#729 = CARTESIAN_POINT('',(23.877452229299,3.027371642175,7.732874347141
    ));
#730 = CARTESIAN_POINT('',(23.709299363057,3.084709031808,7.890407530447
    ));
#731 = CARTESIAN_POINT('',(23.430318471338,3.084709031808,7.890407530447
    ));
#732 = SURFACE_OF_LINEAR_EXTRUSION('',#733,#737);
#733 = B_SPLINE_CURVE_WITH_KNOTS('',2,(#734,#735,#736),.UNSPECIFIED.,.F.
  ,.F.,(3,3),(0.,1.),.PIECEWISE_BEZIER_KNOTS.);
#734 = CARTESIAN_POINT('',(23.877452229299,3.027371642175,7.732874347141
    ));
#735 = CARTESIAN_POINT('',(23.709299363057,3.084709031808,7.890407530447
    ));
#736 = CARTESIAN_POINT('',(23.430318471338,3.084709031808,7.890407530447
    ));
#737 = VECTOR('',#738,1.);
#738 = DIRECTION('',(-0.,0.939692620786,-0.342020143326));
#739 = ADVANCED_FACE('',(#740),#765,.T.);
#740 = FACE_BOUND('',#741,.T.);
#741 = EDGE_LOOP('',(#742,#743,#751,#759));
#742 = ORIENTED_EDGE('',*,*,#719,.T.);
#743 = ORIENTED_EDGE('',*,*,#744,.T.);
#744 = EDGE_CURVE('',#712,#745,#747,.T.);
#745 = VERTEX_POINT('',#746);
#746 = CARTESIAN_POINT('',(22.96025477707,2.267513628775,7.984225133462)
  );
#747 = B_SPLINE_CURVE_WITH_KNOTS('',2,(#748,#749,#750),.UNSPECIFIED.,.F.
  ,.F.,(3,3),(0.,1.),.PIECEWISE_BEZIER_KNOTS.);
#748 = CARTESIAN_POINT('',(23.430318471338,2.332954935179,8.164023645108
    ));
#749 = CARTESIAN_POINT('',(23.155159235669,2.332954935179,8.164023645108
    ));
#750 = CARTESIAN_POINT('',(22.96025477707,2.267513628775,7.984225133462)
  );
#751 = ORIENTED_EDGE('',*,*,#752,.F.);
#752 = EDGE_CURVE('',#753,#745,#755,.T.);
#753 = VERTEX_POINT('',#754);
#754 = CARTESIAN_POINT('',(22.96025477707,3.019267725403,7.710609018802)
  );
#755 = LINE('',#756,#757);
#756 = CARTESIAN_POINT('',(22.96025477707,3.019267725403,7.710609018802)
  );
#757 = VECTOR('',#758,1.);
#758 = DIRECTION('',(0.,-0.939692620786,0.342020143326));
#759 = ORIENTED_EDGE('',*,*,#760,.F.);
#760 = EDGE_CURVE('',#720,#753,#761,.T.);
#761 = B_SPLINE_CURVE_WITH_KNOTS('',2,(#762,#763,#764),.UNSPECIFIED.,.F.
  ,.F.,(3,3),(0.,1.),.PIECEWISE_BEZIER_KNOTS.);
#762 = CARTESIAN_POINT('',(23.430318471338,3.084709031808,7.890407530447
    ));
#763 = CARTESIAN_POINT('',(23.155159235669,3.084709031808,7.890407530447
    ));
#764 = CARTESIAN_POINT('',(22.96025477707,3.019267725403,7.710609018802)
  );
#765 = SURFACE_OF_LINEAR_EXTRUSION('',#766,#770);
#766 = B_SPLINE_CURVE_WITH_KNOTS('',2,(#767,#768,#769),.UNSPECIFIED.,.F.
  ,.F.,(3,3),(0.,1.),.PIECEWISE_BEZIER_KNOTS.);
#767 = CARTESIAN_POINT('',(23.430318471338,3.084709031808,7.890407530447
    ));
#768 = CARTESIAN_POINT('',(23.155159235669,3.084709031808,7.890407530447
    ));
#769 = CARTESIAN_POINT('',(22.96025477707,3.019267725403,7.710609018802)
  );
#770 = VECTOR('',#771,1.);
#771 = DIRECTION('',(-0.,0.939692620786,-0.342020143326));
#772 = ADVANCED_FACE('',(#773),#798,.T.);
#773 = FACE_BOUND('',#774,.T.);
#774 = EDGE_LOOP('',(#775,#776,#784,#792));
#775 = ORIENTED_EDGE('',*,*,#752,.T.);
#776 = ORIENTED_EDGE('',*,*,#777,.T.);
#777 = EDGE_CURVE('',#745,#778,#780,.T.);
#778 = VERTEX_POINT('',#779);
#779 = CARTESIAN_POINT('',(22.723312101911,2.076418042962,7.459194326485
    ));
#780 = B_SPLINE_CURVE_WITH_KNOTS('',2,(#781,#782,#783),.UNSPECIFIED.,.F.
  ,.F.,(3,3),(0.,1.),.PIECEWISE_BEZIER_KNOTS.);
#781 = CARTESIAN_POINT('',(22.96025477707,2.267513628775,7.984225133462)
  );
#782 = CARTESIAN_POINT('',(22.765350318471,2.20207232237,7.804426621816)
  );
#783 = CARTESIAN_POINT('',(22.723312101911,2.076418042962,7.459194326485
    ));
#784 = ORIENTED_EDGE('',*,*,#785,.F.);
#785 = EDGE_CURVE('',#786,#778,#788,.T.);
#786 = VERTEX_POINT('',#787);
#787 = CARTESIAN_POINT('',(22.723312101911,2.828172139591,7.185578211825
    ));
#788 = LINE('',#789,#790);
#789 = CARTESIAN_POINT('',(22.723312101911,2.828172139591,7.185578211825
    ));
#790 = VECTOR('',#791,1.);
#791 = DIRECTION('',(0.,-0.939692620786,0.342020143326));
#792 = ORIENTED_EDGE('',*,*,#793,.F.);
#793 = EDGE_CURVE('',#753,#786,#794,.T.);
#794 = B_SPLINE_CURVE_WITH_KNOTS('',2,(#795,#796,#797),.UNSPECIFIED.,.F.
  ,.F.,(3,3),(0.,1.),.PIECEWISE_BEZIER_KNOTS.);
#795 = CARTESIAN_POINT('',(22.96025477707,3.019267725403,7.710609018802)
  );
#796 = CARTESIAN_POINT('',(22.765350318471,2.953826418999,7.530810507156
    ));
#797 = CARTESIAN_POINT('',(22.723312101911,2.828172139591,7.185578211825
    ));
#798 = SURFACE_OF_LINEAR_EXTRUSION('',#799,#803);
#799 = B_SPLINE_CURVE_WITH_KNOTS('',2,(#800,#801,#802),.UNSPECIFIED.,.F.
  ,.F.,(3,3),(0.,1.),.PIECEWISE_BEZIER_KNOTS.);
#800 = CARTESIAN_POINT('',(22.96025477707,3.019267725403,7.710609018802)
  );
#801 = CARTESIAN_POINT('',(22.765350318471,2.953826418999,7.530810507156
    ));
#802 = CARTESIAN_POINT('',(22.723312101911,2.828172139591,7.185578211825
    ));
#803 = VECTOR('',#804,1.);
#804 = DIRECTION('',(-0.,0.939692620786,-0.342020143326));
#805 = ADVANCED_FACE('',(#806),#831,.T.);
#806 = FACE_BOUND('',#807,.T.);
#807 = EDGE_LOOP('',(#808,#809,#817,#825));
#808 = ORIENTED_EDGE('',*,*,#785,.T.);
#809 = ORIENTED_EDGE('',*,*,#810,.T.);
#810 = EDGE_CURVE('',#778,#811,#813,.T.);
#811 = VERTEX_POINT('',#812);
#812 = CARTESIAN_POINT('',(21.733503184713,2.134016849265,7.61744574619)
  );
#813 = LINE('',#814,#815);
#814 = CARTESIAN_POINT('',(22.723312101911,2.076418042962,7.459194326485
    ));
#815 = VECTOR('',#816,1.);
#816 = DIRECTION('',(-0.985832777796,5.736742741817E-02,0.157615711444)
  );
#817 = ORIENTED_EDGE('',*,*,#818,.F.);
#818 = EDGE_CURVE('',#819,#811,#821,.T.);
#819 = VERTEX_POINT('',#820);
#820 = CARTESIAN_POINT('',(21.733503184713,2.885770945894,7.343829631529
    ));
#821 = LINE('',#822,#823);
#822 = CARTESIAN_POINT('',(21.733503184713,2.885770945894,7.343829631529
    ));
#823 = VECTOR('',#824,1.);
#824 = DIRECTION('',(0.,-0.939692620786,0.342020143326));
#825 = ORIENTED_EDGE('',*,*,#826,.F.);
#826 = EDGE_CURVE('',#786,#819,#827,.T.);
#827 = LINE('',#828,#829);
#828 = CARTESIAN_POINT('',(22.723312101911,2.828172139591,7.185578211825
    ));
#829 = VECTOR('',#830,1.);
#830 = DIRECTION('',(-0.985832777796,5.736742741817E-02,0.157615711444)
  );
#831 = PLANE('',#832);
#832 = AXIS2_PLACEMENT_3D('',#833,#834,#835);
#833 = CARTESIAN_POINT('',(22.723312101911,2.828172139591,7.185578211825
    ));
#834 = DIRECTION('',(-0.167731136711,-0.337174667957,-0.926379786624));
#835 = DIRECTION('',(-0.985832777796,5.736742741817E-02,0.157615711444)
  );
#836 = ADVANCED_FACE('',(#837),#862,.T.);
#837 = FACE_BOUND('',#838,.T.);
#838 = EDGE_LOOP('',(#839,#840,#848,#856));
#839 = ORIENTED_EDGE('',*,*,#818,.T.);
#840 = ORIENTED_EDGE('',*,*,#841,.T.);
#841 = EDGE_CURVE('',#811,#842,#844,.T.);
#842 = VERTEX_POINT('',#843);
#843 = CARTESIAN_POINT('',(22.044840764331,2.414516936237,8.3881134013)
  );
#844 = B_SPLINE_CURVE_WITH_KNOTS('',2,(#845,#846,#847),.UNSPECIFIED.,.F.
  ,.F.,(3,3),(0.,1.),.PIECEWISE_BEZIER_KNOTS.);
#845 = CARTESIAN_POINT('',(21.733503184713,2.134016849265,7.61744574619)
  );
#846 = CARTESIAN_POINT('',(21.836687898089,2.309601712654,8.099861193549
    ));
#847 = CARTESIAN_POINT('',(22.044840764331,2.414516936237,8.3881134013)
  );
#848 = ORIENTED_EDGE('',*,*,#849,.F.);
#849 = EDGE_CURVE('',#850,#842,#852,.T.);
#850 = VERTEX_POINT('',#851);
#851 = CARTESIAN_POINT('',(22.044840764331,3.166271032866,8.11449728664)
  );
#852 = LINE('',#853,#854);
#853 = CARTESIAN_POINT('',(22.044840764331,3.166271032866,8.11449728664)
  );
#854 = VECTOR('',#855,1.);
#855 = DIRECTION('',(0.,-0.939692620786,0.342020143326));
#856 = ORIENTED_EDGE('',*,*,#857,.F.);
#857 = EDGE_CURVE('',#819,#850,#858,.T.);
#858 = B_SPLINE_CURVE_WITH_KNOTS('',2,(#859,#860,#861),.UNSPECIFIED.,.F.
  ,.F.,(3,3),(0.,1.),.PIECEWISE_BEZIER_KNOTS.);
#859 = CARTESIAN_POINT('',(21.733503184713,2.885770945894,7.343829631529
    ));
#860 = CARTESIAN_POINT('',(21.836687898089,3.061355809283,7.826245078888
    ));
#861 = CARTESIAN_POINT('',(22.044840764331,3.166271032866,8.11449728664)
  );
#862 = SURFACE_OF_LINEAR_EXTRUSION('',#863,#867);
#863 = B_SPLINE_CURVE_WITH_KNOTS('',2,(#864,#865,#866),.UNSPECIFIED.,.F.
  ,.F.,(3,3),(0.,1.),.PIECEWISE_BEZIER_KNOTS.);
#864 = CARTESIAN_POINT('',(21.733503184713,2.885770945894,7.343829631529
    ));
#865 = CARTESIAN_POINT('',(21.836687898089,3.061355809283,7.826245078888
    ));
#866 = CARTESIAN_POINT('',(22.044840764331,3.166271032866,8.11449728664)
  );
#867 = VECTOR('',#868,1.);
#868 = DIRECTION('',(-0.,0.939692620786,-0.342020143326));
#869 = ADVANCED_FACE('',(#870),#895,.T.);
#870 = FACE_BOUND('',#871,.T.);
#871 = EDGE_LOOP('',(#872,#873,#881,#889));
#872 = ORIENTED_EDGE('',*,*,#849,.T.);
#873 = ORIENTED_EDGE('',*,*,#874,.T.);
#874 = EDGE_CURVE('',#842,#875,#877,.T.);
#875 = VERTEX_POINT('',#876);
#876 = CARTESIAN_POINT('',(22.625732484076,2.579557993934,8.841559980605
    ));
#877 = B_SPLINE_CURVE_WITH_KNOTS('',2,(#878,#879,#880),.UNSPECIFIED.,.F.
  ,.F.,(3,3),(0.,1.),.PIECEWISE_BEZIER_KNOTS.);
#878 = CARTESIAN_POINT('',(22.044840764331,2.414516936237,8.3881134013)
  );
#879 = CARTESIAN_POINT('',(22.253248407643,2.51951929871,8.676605021185)
  );
#880 = CARTESIAN_POINT('',(22.625732484076,2.579557993934,8.841559980605
    ));
#881 = ORIENTED_EDGE('',*,*,#882,.F.);
#882 = EDGE_CURVE('',#883,#875,#885,.T.);
#883 = VERTEX_POINT('',#884);
#884 = CARTESIAN_POINT('',(22.625732484076,3.331312090562,8.567943865944
    ));
#885 = LINE('',#886,#887);
#886 = CARTESIAN_POINT('',(22.625732484076,3.331312090562,8.567943865944
    ));
#887 = VECTOR('',#888,1.);
#888 = DIRECTION('',(0.,-0.939692620786,0.342020143326));
#889 = ORIENTED_EDGE('',*,*,#890,.F.);
#890 = EDGE_CURVE('',#850,#883,#891,.T.);
#891 = B_SPLINE_CURVE_WITH_KNOTS('',2,(#892,#893,#894),.UNSPECIFIED.,.F.
  ,.F.,(3,3),(0.,1.),.PIECEWISE_BEZIER_KNOTS.);
#892 = CARTESIAN_POINT('',(22.044840764331,3.166271032866,8.11449728664)
  );
#893 = CARTESIAN_POINT('',(22.253248407643,3.271273395339,8.402988906525
    ));
#894 = CARTESIAN_POINT('',(22.625732484076,3.331312090562,8.567943865944
    ));
#895 = SURFACE_OF_LINEAR_EXTRUSION('',#896,#900);
#896 = B_SPLINE_CURVE_WITH_KNOTS('',2,(#897,#898,#899),.UNSPECIFIED.,.F.
  ,.F.,(3,3),(0.,1.),.PIECEWISE_BEZIER_KNOTS.);
#897 = CARTESIAN_POINT('',(22.044840764331,3.166271032866,8.11449728664)
  );
#898 = CARTESIAN_POINT('',(22.253248407643,3.271273395339,8.402988906525
    ));
#899 = CARTESIAN_POINT('',(22.625732484076,3.331312090562,8.567943865944
    ));
#900 = VECTOR('',#901,1.);
#901 = DIRECTION('',(-0.,0.939692620786,-0.342020143326));
#902 = ADVANCED_FACE('',(#903),#928,.T.);
#903 = FACE_BOUND('',#904,.T.);
#904 = EDGE_LOOP('',(#905,#906,#914,#922));
#905 = ORIENTED_EDGE('',*,*,#882,.T.);
#906 = ORIENTED_EDGE('',*,*,#907,.T.);
#907 = EDGE_CURVE('',#875,#908,#910,.T.);
#908 = VERTEX_POINT('',#909);
#909 = CARTESIAN_POINT('',(23.460891719745,2.639683828047,9.006754352157
    ));
#910 = B_SPLINE_CURVE_WITH_KNOTS('',2,(#911,#912,#913),.UNSPECIFIED.,.F.
  ,.F.,(3,3),(0.,1.),.PIECEWISE_BEZIER_KNOTS.);
#911 = CARTESIAN_POINT('',(22.625732484076,2.579557993934,8.841559980605
    ));
#912 = CARTESIAN_POINT('',(22.99847133758,2.639683828047,9.006754352157)
  );
#913 = CARTESIAN_POINT('',(23.460891719745,2.639683828047,9.006754352157
    ));
#914 = ORIENTED_EDGE('',*,*,#915,.F.);
#915 = EDGE_CURVE('',#916,#908,#918,.T.);
#916 = VERTEX_POINT('',#917);
#917 = CARTESIAN_POINT('',(23.460891719745,3.391437924676,8.733138237496
    ));
#918 = LINE('',#919,#920);
#919 = CARTESIAN_POINT('',(23.460891719745,3.391437924676,8.733138237496
    ));
#920 = VECTOR('',#921,1.);
#921 = DIRECTION('',(0.,-0.939692620786,0.342020143326));
#922 = ORIENTED_EDGE('',*,*,#923,.F.);
#923 = EDGE_CURVE('',#883,#916,#924,.T.);
#924 = B_SPLINE_CURVE_WITH_KNOTS('',2,(#925,#926,#927),.UNSPECIFIED.,.F.
  ,.F.,(3,3),(0.,1.),.PIECEWISE_BEZIER_KNOTS.);
#925 = CARTESIAN_POINT('',(22.625732484076,3.331312090562,8.567943865944
    ));
#926 = CARTESIAN_POINT('',(22.99847133758,3.391437924676,8.733138237496)
  );
#927 = CARTESIAN_POINT('',(23.460891719745,3.391437924676,8.733138237496
    ));
#928 = SURFACE_OF_LINEAR_EXTRUSION('',#929,#933);
#929 = B_SPLINE_CURVE_WITH_KNOTS('',2,(#930,#931,#932),.UNSPECIFIED.,.F.
  ,.F.,(3,3),(0.,1.),.PIECEWISE_BEZIER_KNOTS.);
#930 = CARTESIAN_POINT('',(22.625732484076,3.331312090562,8.567943865944
    ));
#931 = CARTESIAN_POINT('',(22.99847133758,3.391437924676,8.733138237496)
  );
#932 = CARTESIAN_POINT('',(23.460891719745,3.391437924676,8.733138237496
    ));
#933 = VECTOR('',#934,1.);
#934 = DIRECTION('',(-0.,0.939692620786,-0.342020143326));
#935 = ADVANCED_FACE('',(#936),#961,.T.);
#936 = FACE_BOUND('',#937,.T.);
#937 = EDGE_LOOP('',(#938,#939,#947,#955));
#938 = ORIENTED_EDGE('',*,*,#915,.T.);
#939 = ORIENTED_EDGE('',*,*,#940,.T.);
#940 = EDGE_CURVE('',#908,#941,#943,.T.);
#941 = VERTEX_POINT('',#942);
#942 = CARTESIAN_POINT('',(24.729681528662,2.466887409139,8.532000093044
    ));
#943 = B_SPLINE_CURVE_WITH_KNOTS('',2,(#944,#945,#946),.UNSPECIFIED.,.F.
  ,.F.,(3,3),(0.,1.),.PIECEWISE_BEZIER_KNOTS.);
#944 = CARTESIAN_POINT('',(23.460891719745,2.639683828047,9.006754352157
    ));
#945 = CARTESIAN_POINT('',(24.251974522293,2.639683828047,9.006754352157
    ));
#946 = CARTESIAN_POINT('',(24.729681528662,2.466887409139,8.532000093044
    ));
#947 = ORIENTED_EDGE('',*,*,#948,.F.);
#948 = EDGE_CURVE('',#949,#941,#951,.T.);
#949 = VERTEX_POINT('',#950);
#950 = CARTESIAN_POINT('',(24.729681528662,3.218641505768,8.258383978383
    ));
#951 = LINE('',#952,#953);
#952 = CARTESIAN_POINT('',(24.729681528662,3.218641505768,8.258383978383
    ));
#953 = VECTOR('',#954,1.);
#954 = DIRECTION('',(0.,-0.939692620786,0.342020143326));
#955 = ORIENTED_EDGE('',*,*,#956,.F.);
#956 = EDGE_CURVE('',#916,#949,#957,.T.);
#957 = B_SPLINE_CURVE_WITH_KNOTS('',2,(#958,#959,#960),.UNSPECIFIED.,.F.
  ,.F.,(3,3),(0.,1.),.PIECEWISE_BEZIER_KNOTS.);
#958 = CARTESIAN_POINT('',(23.460891719745,3.391437924676,8.733138237496
    ));
#959 = CARTESIAN_POINT('',(24.251974522293,3.391437924676,8.733138237496
    ));
#960 = CARTESIAN_POINT('',(24.729681528662,3.218641505768,8.258383978383
    ));
#961 = SURFACE_OF_LINEAR_EXTRUSION('',#962,#966);
#962 = B_SPLINE_CURVE_WITH_KNOTS('',2,(#963,#964,#965),.UNSPECIFIED.,.F.
  ,.F.,(3,3),(0.,1.),.PIECEWISE_BEZIER_KNOTS.);
#963 = CARTESIAN_POINT('',(23.460891719745,3.391437924676,8.733138237496
    ));
#964 = CARTESIAN_POINT('',(24.251974522293,3.391437924676,8.733138237496
    ));
#965 = CARTESIAN_POINT('',(24.729681528662,3.218641505768,8.258383978383
    ));
#966 = VECTOR('',#967,1.);
#967 = DIRECTION('',(-0.,0.939692620786,-0.342020143326));
#968 = ADVANCED_FACE('',(#969),#994,.T.);
#969 = FACE_BOUND('',#970,.T.);
#970 = EDGE_LOOP('',(#971,#972,#980,#988));
#971 = ORIENTED_EDGE('',*,*,#948,.T.);
#972 = ORIENTED_EDGE('',*,*,#973,.T.);
#973 = EDGE_CURVE('',#941,#974,#976,.T.);
#974 = VERTEX_POINT('',#975);
#975 = CARTESIAN_POINT('',(25.123312101911,2.147523377218,7.654554626756
    ));
#976 = B_SPLINE_CURVE_WITH_KNOTS('',2,(#977,#978,#979),.UNSPECIFIED.,.F.
  ,.F.,(3,3),(0.,1.),.PIECEWISE_BEZIER_KNOTS.);
#977 = CARTESIAN_POINT('',(24.729681528662,2.466887409139,8.532000093044
    ));
#978 = CARTESIAN_POINT('',(25.123312101911,2.325548129528,8.14367361383)
  );
#979 = CARTESIAN_POINT('',(25.123312101911,2.147523377218,7.654554626756
    ));
#980 = ORIENTED_EDGE('',*,*,#981,.F.);
#981 = EDGE_CURVE('',#982,#974,#984,.T.);
#982 = VERTEX_POINT('',#983);
#983 = CARTESIAN_POINT('',(25.123312101911,2.899277473847,7.380938512095
    ));
#984 = LINE('',#985,#986);
#985 = CARTESIAN_POINT('',(25.123312101911,2.899277473847,7.380938512095
    ));
#986 = VECTOR('',#987,1.);
#987 = DIRECTION('',(0.,-0.939692620786,0.342020143326));
#988 = ORIENTED_EDGE('',*,*,#989,.F.);
#989 = EDGE_CURVE('',#949,#982,#990,.T.);
#990 = B_SPLINE_CURVE_WITH_KNOTS('',2,(#991,#992,#993),.UNSPECIFIED.,.F.
  ,.F.,(3,3),(0.,1.),.PIECEWISE_BEZIER_KNOTS.);
#991 = CARTESIAN_POINT('',(24.729681528662,3.218641505768,8.258383978383
    ));
#992 = CARTESIAN_POINT('',(25.123312101911,3.077302226156,7.870057499169
    ));
#993 = CARTESIAN_POINT('',(25.123312101911,2.899277473847,7.380938512095
    ));
#994 = SURFACE_OF_LINEAR_EXTRUSION('',#995,#999);
#995 = B_SPLINE_CURVE_WITH_KNOTS('',2,(#996,#997,#998),.UNSPECIFIED.,.F.
  ,.F.,(3,3),(0.,1.),.PIECEWISE_BEZIER_KNOTS.);
#996 = CARTESIAN_POINT('',(24.729681528662,3.218641505768,8.258383978383
    ));
#997 = CARTESIAN_POINT('',(25.123312101911,3.077302226156,7.870057499169
    ));
#998 = CARTESIAN_POINT('',(25.123312101911,2.899277473847,7.380938512095
    ));
#999 = VECTOR('',#1000,1.);
#1000 = DIRECTION('',(-0.,0.939692620786,-0.342020143326));
#1001 = ADVANCED_FACE('',(#1002),#1027,.T.);
#1002 = FACE_BOUND('',#1003,.T.);
#1003 = EDGE_LOOP('',(#1004,#1005,#1013,#1021));
#1004 = ORIENTED_EDGE('',*,*,#981,.T.);
#1005 = ORIENTED_EDGE('',*,*,#1006,.T.);
#1006 = EDGE_CURVE('',#974,#1007,#1009,.T.);
#1007 = VERTEX_POINT('',#1008);
#1008 = CARTESIAN_POINT('',(24.316942675159,1.744418871989,
    6.547034100958));
#1009 = B_SPLINE_CURVE_WITH_KNOTS('',2,(#1010,#1011,#1012),
  .UNSPECIFIED.,.F.,.F.,(3,3),(0.,1.),.PIECEWISE_BEZIER_KNOTS.);
#1010 = CARTESIAN_POINT('',(25.123312101911,2.147523377218,
    7.654554626756));
#1011 = CARTESIAN_POINT('',(25.123312101911,1.894907735052,
    6.960498854104));
#1012 = CARTESIAN_POINT('',(24.316942675159,1.744418871989,
    6.547034100958));
#1013 = ORIENTED_EDGE('',*,*,#1014,.F.);
#1014 = EDGE_CURVE('',#1015,#1007,#1017,.T.);
#1015 = VERTEX_POINT('',#1016);
#1016 = CARTESIAN_POINT('',(24.316942675159,2.496172968618,
    6.273417986298));
#1017 = LINE('',#1018,#1019);
#1018 = CARTESIAN_POINT('',(24.316942675159,2.496172968618,
    6.273417986298));
#1019 = VECTOR('',#1020,1.);
#1020 = DIRECTION('',(0.,-0.939692620786,0.342020143326));
#1021 = ORIENTED_EDGE('',*,*,#1022,.F.);
#1022 = EDGE_CURVE('',#982,#1015,#1023,.T.);
#1023 = B_SPLINE_CURVE_WITH_KNOTS('',2,(#1024,#1025,#1026),
  .UNSPECIFIED.,.F.,.F.,(3,3),(0.,1.),.PIECEWISE_BEZIER_KNOTS.);
#1024 = CARTESIAN_POINT('',(25.123312101911,2.899277473847,
    7.380938512095));
#1025 = CARTESIAN_POINT('',(25.123312101911,2.646661831681,
    6.686882739443));
#1026 = CARTESIAN_POINT('',(24.316942675159,2.496172968618,
    6.273417986298));
#1027 = SURFACE_OF_LINEAR_EXTRUSION('',#1028,#1032);
#1028 = B_SPLINE_CURVE_WITH_KNOTS('',2,(#1029,#1030,#1031),
  .UNSPECIFIED.,.F.,.F.,(3,3),(0.,1.),.PIECEWISE_BEZIER_KNOTS.);
#1029 = CARTESIAN_POINT('',(25.123312101911,2.899277473847,
    7.380938512095));
#1030 = CARTESIAN_POINT('',(25.123312101911,2.646661831681,
    6.686882739443));
#1031 = CARTESIAN_POINT('',(24.316942675159,2.496172968618,
    6.273417986298));
#1032 = VECTOR('',#1033,1.);
#1033 = DIRECTION('',(-0.,0.939692620786,-0.342020143326));
#1034 = ADVANCED_FACE('',(#1035),#1060,.T.);
#1035 = FACE_BOUND('',#1036,.T.);
#1036 = EDGE_LOOP('',(#1037,#1038,#1046,#1054));
#1037 = ORIENTED_EDGE('',*,*,#1014,.T.);
#1038 = ORIENTED_EDGE('',*,*,#1039,.T.);
#1039 = EDGE_CURVE('',#1007,#1040,#1042,.T.);
#1040 = VERTEX_POINT('',#1041);
#1041 = CARTESIAN_POINT('',(25.086878980892,1.585477536594,
    6.110346370942));
#1042 = B_SPLINE_CURVE_WITH_KNOTS('',2,(#1043,#1044,#1045),
  .UNSPECIFIED.,.F.,.F.,(3,3),(0.,1.),.PIECEWISE_BEZIER_KNOTS.);
#1043 = CARTESIAN_POINT('',(24.316942675159,1.744418871989,
    6.547034100958));
#1044 = CARTESIAN_POINT('',(24.79847133758,1.708953343751,6.449593362956
    ));
#1045 = CARTESIAN_POINT('',(25.086878980892,1.585477536594,
    6.110346370942));
#1046 = ORIENTED_EDGE('',*,*,#1047,.F.);
#1047 = EDGE_CURVE('',#1048,#1040,#1050,.T.);
#1048 = VERTEX_POINT('',#1049);
#1049 = CARTESIAN_POINT('',(25.086878980892,2.337231633223,
    5.836730256281));
#1050 = LINE('',#1051,#1052);
#1051 = CARTESIAN_POINT('',(25.086878980892,2.337231633223,
    5.836730256281));
#1052 = VECTOR('',#1053,1.);
#1053 = DIRECTION('',(0.,-0.939692620786,0.342020143326));
#1054 = ORIENTED_EDGE('',*,*,#1055,.F.);
#1055 = EDGE_CURVE('',#1015,#1048,#1056,.T.);
#1056 = B_SPLINE_CURVE_WITH_KNOTS('',2,(#1057,#1058,#1059),
  .UNSPECIFIED.,.F.,.F.,(3,3),(0.,1.),.PIECEWISE_BEZIER_KNOTS.);
#1057 = CARTESIAN_POINT('',(24.316942675159,2.496172968618,
    6.273417986298));
#1058 = CARTESIAN_POINT('',(24.79847133758,2.46070744038,6.175977248295)
  );
#1059 = CARTESIAN_POINT('',(25.086878980892,2.337231633223,
    5.836730256281));
#1060 = SURFACE_OF_LINEAR_EXTRUSION('',#1061,#1065);
#1061 = B_SPLINE_CURVE_WITH_KNOTS('',2,(#1062,#1063,#1064),
  .UNSPECIFIED.,.F.,.F.,(3,3),(0.,1.),.PIECEWISE_BEZIER_KNOTS.);
#1062 = CARTESIAN_POINT('',(24.316942675159,2.496172968618,
    6.273417986298));
#1063 = CARTESIAN_POINT('',(24.79847133758,2.46070744038,6.175977248295)
  );
#1064 = CARTESIAN_POINT('',(25.086878980892,2.337231633223,
    5.836730256281));
#1065 = VECTOR('',#1066,1.);
#1066 = DIRECTION('',(-0.,0.939692620786,-0.342020143326));
#1067 = ADVANCED_FACE('',(#1068),#1093,.T.);
#1068 = FACE_BOUND('',#1069,.T.);
#1069 = EDGE_LOOP('',(#1070,#1071,#1079,#1087));
#1070 = ORIENTED_EDGE('',*,*,#1047,.T.);
#1071 = ORIENTED_EDGE('',*,*,#1072,.T.);
#1072 = EDGE_CURVE('',#1040,#1073,#1075,.T.);
#1073 = VERTEX_POINT('',#1074);
#1074 = CARTESIAN_POINT('',(25.375541401274,1.287375393838,
    5.291317465029));
#1075 = B_SPLINE_CURVE_WITH_KNOTS('',2,(#1076,#1077,#1078),
  .UNSPECIFIED.,.F.,.F.,(3,3),(0.,1.),.PIECEWISE_BEZIER_KNOTS.);
#1076 = CARTESIAN_POINT('',(25.086878980892,1.585477536594,
    6.110346370942));
#1077 = CARTESIAN_POINT('',(25.375541401274,1.462001729437,
    5.771099378928));
#1078 = CARTESIAN_POINT('',(25.375541401274,1.287375393838,
    5.291317465029));
#1079 = ORIENTED_EDGE('',*,*,#1080,.F.);
#1080 = EDGE_CURVE('',#1081,#1073,#1083,.T.);
#1081 = VERTEX_POINT('',#1082);
#1082 = CARTESIAN_POINT('',(25.375541401274,2.039129490467,
    5.017701350368));
#1083 = LINE('',#1084,#1085);
#1084 = CARTESIAN_POINT('',(25.375541401274,2.039129490467,
    5.017701350368));
#1085 = VECTOR('',#1086,1.);
#1086 = DIRECTION('',(0.,-0.939692620786,0.342020143326));
#1087 = ORIENTED_EDGE('',*,*,#1088,.F.);
#1088 = EDGE_CURVE('',#1048,#1081,#1089,.T.);
#1089 = B_SPLINE_CURVE_WITH_KNOTS('',2,(#1090,#1091,#1092),
  .UNSPECIFIED.,.F.,.F.,(3,3),(0.,1.),.PIECEWISE_BEZIER_KNOTS.);
#1090 = CARTESIAN_POINT('',(25.086878980892,2.337231633223,
    5.836730256281));
#1091 = CARTESIAN_POINT('',(25.375541401274,2.213755826065,
    5.497483264268));
#1092 = CARTESIAN_POINT('',(25.375541401274,2.039129490467,
    5.017701350368));
#1093 = SURFACE_OF_LINEAR_EXTRUSION('',#1094,#1098);
#1094 = B_SPLINE_CURVE_WITH_KNOTS('',2,(#1095,#1096,#1097),
  .UNSPECIFIED.,.F.,.F.,(3,3),(0.,1.),.PIECEWISE_BEZIER_KNOTS.);
#1095 = CARTESIAN_POINT('',(25.086878980892,2.337231633223,
    5.836730256281));
#1096 = CARTESIAN_POINT('',(25.375541401274,2.213755826065,
    5.497483264268));
#1097 = CARTESIAN_POINT('',(25.375541401274,2.039129490467,
    5.017701350368));
#1098 = VECTOR('',#1099,1.);
#1099 = DIRECTION('',(-0.,0.939692620786,-0.342020143326));
#1100 = ADVANCED_FACE('',(#1101),#1126,.T.);
#1101 = FACE_BOUND('',#1102,.T.);
#1102 = EDGE_LOOP('',(#1103,#1104,#1112,#1120));
#1103 = ORIENTED_EDGE('',*,*,#1080,.T.);
#1104 = ORIENTED_EDGE('',*,*,#1105,.T.);
#1105 = EDGE_CURVE('',#1073,#1106,#1108,.T.);
#1106 = VERTEX_POINT('',#1107);
#1107 = CARTESIAN_POINT('',(24.836687898089,0.855253638232,
    4.104072699047));
#1108 = B_SPLINE_CURVE_WITH_KNOTS('',2,(#1109,#1110,#1111),
  .UNSPECIFIED.,.F.,.F.,(3,3),(0.,1.),.PIECEWISE_BEZIER_KNOTS.);
#1109 = CARTESIAN_POINT('',(25.375541401274,1.287375393838,
    5.291317465029));
#1110 = CARTESIAN_POINT('',(25.375541401274,1.033888362772,4.59486757105
    ));
#1111 = CARTESIAN_POINT('',(24.836687898089,0.855253638232,
    4.104072699047));
#1112 = ORIENTED_EDGE('',*,*,#1113,.F.);
#1113 = EDGE_CURVE('',#1114,#1106,#1116,.T.);
#1114 = VERTEX_POINT('',#1115);
#1115 = CARTESIAN_POINT('',(24.836687898089,1.607007734861,
    3.830456584387));
#1116 = LINE('',#1117,#1118);
#1117 = CARTESIAN_POINT('',(24.836687898089,1.607007734861,
    3.830456584387));
#1118 = VECTOR('',#1119,1.);
#1119 = DIRECTION('',(0.,-0.939692620786,0.342020143326));
#1120 = ORIENTED_EDGE('',*,*,#1121,.F.);
#1121 = EDGE_CURVE('',#1081,#1114,#1122,.T.);
#1122 = B_SPLINE_CURVE_WITH_KNOTS('',2,(#1123,#1124,#1125),
  .UNSPECIFIED.,.F.,.F.,(3,3),(0.,1.),.PIECEWISE_BEZIER_KNOTS.);
#1123 = CARTESIAN_POINT('',(25.375541401274,2.039129490467,
    5.017701350368));
#1124 = CARTESIAN_POINT('',(25.375541401274,1.785642459401,4.32125145639
    ));
#1125 = CARTESIAN_POINT('',(24.836687898089,1.607007734861,
    3.830456584387));
#1126 = SURFACE_OF_LINEAR_EXTRUSION('',#1127,#1131);
#1127 = B_SPLINE_CURVE_WITH_KNOTS('',2,(#1128,#1129,#1130),
  .UNSPECIFIED.,.F.,.F.,(3,3),(0.,1.),.PIECEWISE_BEZIER_KNOTS.);
#1128 = CARTESIAN_POINT('',(25.375541401274,2.039129490467,
    5.017701350368));
#1129 = CARTESIAN_POINT('',(25.375541401274,1.785642459401,4.32125145639
    ));
#1130 = CARTESIAN_POINT('',(24.836687898089,1.607007734861,
    3.830456584387));
#1131 = VECTOR('',#1132,1.);
#1132 = DIRECTION('',(-0.,0.939692620786,-0.342020143326));
#1133 = ADVANCED_FACE('',(#1134),#1159,.T.);
#1134 = FACE_BOUND('',#1135,.T.);
#1135 = EDGE_LOOP('',(#1136,#1137,#1145,#1153));
#1136 = ORIENTED_EDGE('',*,*,#1113,.T.);
#1137 = ORIENTED_EDGE('',*,*,#1138,.T.);
#1138 = EDGE_CURVE('',#1106,#1139,#1141,.T.);
#1139 = VERTEX_POINT('',#1140);
#1140 = CARTESIAN_POINT('',(23.495286624204,0.676618913693,
    3.613277827045));
#1141 = B_SPLINE_CURVE_WITH_KNOTS('',2,(#1142,#1143,#1144),
  .UNSPECIFIED.,.F.,.F.,(3,3),(0.,1.),.PIECEWISE_BEZIER_KNOTS.);
#1142 = CARTESIAN_POINT('',(24.836687898089,0.855253638232,
    4.104072699047));
#1143 = CARTESIAN_POINT('',(24.297834394904,0.676618913693,
    3.613277827045));
#1144 = CARTESIAN_POINT('',(23.495286624204,0.676618913693,
    3.613277827045));
#1145 = ORIENTED_EDGE('',*,*,#1146,.F.);
#1146 = EDGE_CURVE('',#1147,#1139,#1149,.T.);
#1147 = VERTEX_POINT('',#1148);
#1148 = CARTESIAN_POINT('',(23.495286624204,1.428373010321,
    3.339661712384));
#1149 = LINE('',#1150,#1151);
#1150 = CARTESIAN_POINT('',(23.495286624204,1.428373010321,
    3.339661712384));
#1151 = VECTOR('',#1152,1.);
#1152 = DIRECTION('',(0.,-0.939692620786,0.342020143326));
#1153 = ORIENTED_EDGE('',*,*,#1154,.F.);
#1154 = EDGE_CURVE('',#1114,#1147,#1155,.T.);
#1155 = B_SPLINE_CURVE_WITH_KNOTS('',2,(#1156,#1157,#1158),
  .UNSPECIFIED.,.F.,.F.,(3,3),(0.,1.),.PIECEWISE_BEZIER_KNOTS.);
#1156 = CARTESIAN_POINT('',(24.836687898089,1.607007734861,
    3.830456584387));
#1157 = CARTESIAN_POINT('',(24.297834394904,1.428373010321,
    3.339661712384));
#1158 = CARTESIAN_POINT('',(23.495286624204,1.428373010321,
    3.339661712384));
#1159 = SURFACE_OF_LINEAR_EXTRUSION('',#1160,#1164);
#1160 = B_SPLINE_CURVE_WITH_KNOTS('',2,(#1161,#1162,#1163),
  .UNSPECIFIED.,.F.,.F.,(3,3),(0.,1.),.PIECEWISE_BEZIER_KNOTS.);
#1161 = CARTESIAN_POINT('',(24.836687898089,1.607007734861,
    3.830456584387));
#1162 = CARTESIAN_POINT('',(24.297834394904,1.428373010321,
    3.339661712384));
#1163 = CARTESIAN_POINT('',(23.495286624204,1.428373010321,
    3.339661712384));
#1164 = VECTOR('',#1165,1.);
#1165 = DIRECTION('',(-0.,0.939692620786,-0.342020143326));
#1166 = ADVANCED_FACE('',(#1167),#1192,.T.);
#1167 = FACE_BOUND('',#1168,.T.);
#1168 = EDGE_LOOP('',(#1169,#1170,#1178,#1186));
#1169 = ORIENTED_EDGE('',*,*,#1146,.T.);
#1170 = ORIENTED_EDGE('',*,*,#1171,.T.);
#1171 = EDGE_CURVE('',#1139,#1172,#1174,.T.);
#1172 = VERTEX_POINT('',#1173);
#1173 = CARTESIAN_POINT('',(22.234140127389,0.826672082306,
    4.025545519527));
#1174 = B_SPLINE_CURVE_WITH_KNOTS('',2,(#1175,#1176,#1177),
  .UNSPECIFIED.,.F.,.F.,(3,3),(0.,1.),.PIECEWISE_BEZIER_KNOTS.);
#1175 = CARTESIAN_POINT('',(23.495286624204,0.676618913693,
    3.613277827045));
#1176 = CARTESIAN_POINT('',(22.734777070064,0.676618913693,
    3.613277827045));
#1177 = CARTESIAN_POINT('',(22.234140127389,0.826672082306,
    4.025545519527));
#1178 = ORIENTED_EDGE('',*,*,#1179,.F.);
#1179 = EDGE_CURVE('',#1180,#1172,#1182,.T.);
#1180 = VERTEX_POINT('',#1181);
#1181 = CARTESIAN_POINT('',(22.234140127389,1.578426178935,
    3.751929404866));
#1182 = LINE('',#1183,#1184);
#1183 = CARTESIAN_POINT('',(22.234140127389,1.578426178935,
    3.751929404866));
#1184 = VECTOR('',#1185,1.);
#1185 = DIRECTION('',(0.,-0.939692620786,0.342020143326));
#1186 = ORIENTED_EDGE('',*,*,#1187,.F.);
#1187 = EDGE_CURVE('',#1147,#1180,#1188,.T.);
#1188 = B_SPLINE_CURVE_WITH_KNOTS('',2,(#1189,#1190,#1191),
  .UNSPECIFIED.,.F.,.F.,(3,3),(0.,1.),.PIECEWISE_BEZIER_KNOTS.);
#1189 = CARTESIAN_POINT('',(23.495286624204,1.428373010321,
    3.339661712384));
#1190 = CARTESIAN_POINT('',(22.734777070064,1.428373010321,
    3.339661712384));
#1191 = CARTESIAN_POINT('',(22.234140127389,1.578426178935,
    3.751929404866));
#1192 = SURFACE_OF_LINEAR_EXTRUSION('',#1193,#1197);
#1193 = B_SPLINE_CURVE_WITH_KNOTS('',2,(#1194,#1195,#1196),
  .UNSPECIFIED.,.F.,.F.,(3,3),(0.,1.),.PIECEWISE_BEZIER_KNOTS.);
#1194 = CARTESIAN_POINT('',(23.495286624204,1.428373010321,
    3.339661712384));
#1195 = CARTESIAN_POINT('',(22.734777070064,1.428373010321,
    3.339661712384));
#1196 = CARTESIAN_POINT('',(22.234140127389,1.578426178935,
    3.751929404866));
#1197 = VECTOR('',#1198,1.);
#1198 = DIRECTION('',(-0.,0.939692620786,-0.342020143326));
#1199 = ADVANCED_FACE('',(#1200),#1216,.T.);
#1200 = FACE_BOUND('',#1201,.T.);
#1201 = EDGE_LOOP('',(#1202,#1203,#1209,#1210));
#1202 = ORIENTED_EDGE('',*,*,#1179,.T.);
#1203 = ORIENTED_EDGE('',*,*,#1204,.T.);
#1204 = EDGE_CURVE('',#1172,#312,#1205,.T.);
#1205 = B_SPLINE_CURVE_WITH_KNOTS('',2,(#1206,#1207,#1208),
  .UNSPECIFIED.,.F.,.F.,(3,3),(0.,1.),.PIECEWISE_BEZIER_KNOTS.);
#1206 = CARTESIAN_POINT('',(22.234140127389,0.826672082306,
    4.025545519527));
#1207 = CARTESIAN_POINT('',(21.733503184713,0.976725250919,
    4.437813212009));
#1208 = CARTESIAN_POINT('',(21.653248407643,1.219232781843,5.10409717727
    ));
#1209 = ORIENTED_EDGE('',*,*,#309,.F.);
#1210 = ORIENTED_EDGE('',*,*,#1211,.F.);
#1211 = EDGE_CURVE('',#1180,#310,#1212,.T.);
#1212 = B_SPLINE_CURVE_WITH_KNOTS('',2,(#1213,#1214,#1215),
  .UNSPECIFIED.,.F.,.F.,(3,3),(0.,1.),.PIECEWISE_BEZIER_KNOTS.);
#1213 = CARTESIAN_POINT('',(22.234140127389,1.578426178935,
    3.751929404866));
#1214 = CARTESIAN_POINT('',(21.733503184713,1.728479347548,
    4.164197097349));
#1215 = CARTESIAN_POINT('',(21.653248407643,1.970986878472,
    4.830481062609));
#1216 = SURFACE_OF_LINEAR_EXTRUSION('',#1217,#1221);
#1217 = B_SPLINE_CURVE_WITH_KNOTS('',2,(#1218,#1219,#1220),
  .UNSPECIFIED.,.F.,.F.,(3,3),(0.,1.),.PIECEWISE_BEZIER_KNOTS.);
#1218 = CARTESIAN_POINT('',(22.234140127389,1.578426178935,
    3.751929404866));
#1219 = CARTESIAN_POINT('',(21.733503184713,1.728479347548,
    4.164197097349));
#1220 = CARTESIAN_POINT('',(21.653248407643,1.970986878472,
    4.830481062609));
#1221 = VECTOR('',#1222,1.);
#1222 = DIRECTION('',(-0.,0.939692620786,-0.342020143326));
#1223 = ADVANCED_FACE('',(#1224),#1254,.F.);
#1224 = FACE_BOUND('',#1225,.T.);
#1225 = EDGE_LOOP('',(#1226,#1227,#1228,#1229,#1230,#1231,#1232,#1233,
    #1234,#1235,#1236,#1237,#1238,#1239,#1240,#1241,#1242,#1243,#1244,
    #1245,#1246,#1247,#1248,#1249,#1250,#1251,#1252,#1253));
#1226 = ORIENTED_EDGE('',*,*,#335,.T.);
#1227 = ORIENTED_EDGE('',*,*,#366,.T.);
#1228 = ORIENTED_EDGE('',*,*,#399,.T.);
#1229 = ORIENTED_EDGE('',*,*,#432,.T.);
#1230 = ORIENTED_EDGE('',*,*,#465,.T.);
#1231 = ORIENTED_EDGE('',*,*,#498,.T.);
#1232 = ORIENTED_EDGE('',*,*,#531,.T.);
#1233 = ORIENTED_EDGE('',*,*,#564,.T.);
#1234 = ORIENTED_EDGE('',*,*,#597,.T.);
#1235 = ORIENTED_EDGE('',*,*,#628,.T.);
#1236 = ORIENTED_EDGE('',*,*,#661,.T.);
#1237 = ORIENTED_EDGE('',*,*,#694,.T.);
#1238 = ORIENTED_EDGE('',*,*,#727,.T.);
#1239 = ORIENTED_EDGE('',*,*,#760,.T.);
#1240 = ORIENTED_EDGE('',*,*,#793,.T.);
#1241 = ORIENTED_EDGE('',*,*,#826,.T.);
#1242 = ORIENTED_EDGE('',*,*,#857,.T.);
#1243 = ORIENTED_EDGE('',*,*,#890,.T.);
#1244 = ORIENTED_EDGE('',*,*,#923,.T.);
#1245 = ORIENTED_EDGE('',*,*,#956,.T.);
#1246 = ORIENTED_EDGE('',*,*,#989,.T.);
#1247 = ORIENTED_EDGE('',*,*,#1022,.T.);
#1248 = ORIENTED_EDGE('',*,*,#1055,.T.);
#1249 = ORIENTED_EDGE('',*,*,#1088,.T.);
#1250 = ORIENTED_EDGE('',*,*,#1121,.T.);
#1251 = ORIENTED_EDGE('',*,*,#1154,.T.);
#1252 = ORIENTED_EDGE('',*,*,#1187,.T.);
#1253 = ORIENTED_EDGE('',*,*,#1211,.T.);
#1254 = PLANE('',#1255);
#1255 = AXIS2_PLACEMENT_3D('',#1256,#1257,#1258);
#1256 = CARTESIAN_POINT('',(23.594496306769,2.405427703523,
    6.024097419528));
#1257 = DIRECTION('',(0.,-0.939692620786,0.342020143326));
#1258 = DIRECTION('',(1.,0.,0.));
#1259 = ADVANCED_FACE('',(#1260),#1290,.T.);
#1260 = FACE_BOUND('',#1261,.F.);
#1261 = EDGE_LOOP('',(#1262,#1263,#1264,#1265,#1266,#1267,#1268,#1269,
    #1270,#1271,#1272,#1273,#1274,#1275,#1276,#1277,#1278,#1279,#1280,
    #1281,#1282,#1283,#1284,#1285,#1286,#1287,#1288,#1289));
#1262 = ORIENTED_EDGE('',*,*,#319,.T.);
#1263 = ORIENTED_EDGE('',*,*,#350,.T.);
#1264 = ORIENTED_EDGE('',*,*,#383,.T.);
#1265 = ORIENTED_EDGE('',*,*,#416,.T.);
#1266 = ORIENTED_EDGE('',*,*,#449,.T.);
#1267 = ORIENTED_EDGE('',*,*,#482,.T.);
#1268 = ORIENTED_EDGE('',*,*,#515,.T.);
#1269 = ORIENTED_EDGE('',*,*,#548,.T.);
#1270 = ORIENTED_EDGE('',*,*,#581,.T.);
#1271 = ORIENTED_EDGE('',*,*,#612,.T.);
#1272 = ORIENTED_EDGE('',*,*,#645,.T.);
#1273 = ORIENTED_EDGE('',*,*,#678,.T.);
#1274 = ORIENTED_EDGE('',*,*,#711,.T.);
#1275 = ORIENTED_EDGE('',*,*,#744,.T.);
#1276 = ORIENTED_EDGE('',*,*,#777,.T.);
#1277 = ORIENTED_EDGE('',*,*,#810,.T.);
#1278 = ORIENTED_EDGE('',*,*,#841,.T.);
#1279 = ORIENTED_EDGE('',*,*,#874,.T.);
#1280 = ORIENTED_EDGE('',*,*,#907,.T.);
#1281 = ORIENTED_EDGE('',*,*,#940,.T.);
#1282 = ORIENTED_EDGE('',*,*,#973,.T.);
#1283 = ORIENTED_EDGE('',*,*,#1006,.T.);
#1284 = ORIENTED_EDGE('',*,*,#1039,.T.);
#1285 = ORIENTED_EDGE('',*,*,#1072,.T.);
#1286 = ORIENTED_EDGE('',*,*,#1105,.T.);
#1287 = ORIENTED_EDGE('',*,*,#1138,.T.);
#1288 = ORIENTED_EDGE('',*,*,#1171,.T.);
#1289 = ORIENTED_EDGE('',*,*,#1204,.T.);
#1290 = PLANE('',#1291);
#1291 = AXIS2_PLACEMENT_3D('',#1292,#1293,#1294);
#1292 = CARTESIAN_POINT('',(23.594496306769,1.653673606895,
    6.297713534189));
#1293 = DIRECTION('',(0.,-0.939692620786,0.342020143326));
#1294 = DIRECTION('',(1.,0.,0.));
#1295 = ( GEOMETRIC_REPRESENTATION_CONTEXT(3) 
GLOBAL_UNCERTAINTY_ASSIGNED_CONTEXT((#1299)) 
GLOBAL_UNIT_ASSIGNED_CONTEXT((#1296,#1297,#1298)) REPRESENTATION_CONTEXT
('Context #1','3D Context with UNIT and UNCERTAINTY') );
#1296 = ( LENGTH_UNIT() NAMED_UNIT(*) SI_UNIT(.MILLI.,.METRE.) );
#1297 = ( NAMED_UNIT(*) PLANE_ANGLE_UNIT() SI_UNIT($,.RADIAN.) );
#1298 = ( NAMED_UNIT(*) SI_UNIT($,.STERADIAN.) SOLID_ANGLE_UNIT() );
#1299 = UNCERTAINTY_MEASURE_WITH_UNIT(LENGTH_MEASURE(1.E-07),#1296,
  'distance_accuracy_value','confusion accuracy');
#1300 = PRODUCT_RELATED_PRODUCT_CATEGORY('part',$,(#7));
ENDSEC;
END-ISO-10303-21;
