ISO-10303-21;
HEADER;
FILE_DESCRIPTION(('FreeCAD Model'),'2;1');
FILE_NAME('Open CASCADE Shape Model','2026-08-30T14:00:01',('FreeCAD'),(
    'FreeCAD'),'Open CASCADE STEP processor 7.8','FreeCAD','Unknown');
FILE_SCHEMA(('AUTOMOTIVE_DESIGN { 1 0 10303 214 1 1 1 1 }'));
ENDSEC;
DATA;
#1 = APPLICATION_PROTOCOL_DEFINITION('international standard',
  'automotive_design',2000,#2);
#2 = APPLICATION_CONTEXT(
  'core data for automotive mechanical design processes');
#3 = SHAPE_DEFINITION_REPRESENTATION(#4,#10);
#4 = PRODUCT_DEFINITION_SHAPE('','',#5);
#5 = PRODUCT_DEFINITION('design','',#6,#9);
#6 = PRODUCT_DEFINITION_FORMATION('','',#7);
#7 = PRODUCT('Open CASCADE STEP translator 7.8 74',
  'Open CASCADE STEP translator 7.8 74','',(#8));
#8 = PRODUCT_CONTEXT('',#2,'mechanical');
#9 = PRODUCT_DEFINITION_CONTEXT('part definition',#2,'design');
#10 = SHAPE_REPRESENTATION('',(#11,#15,#303),#661);
#11 = AXIS2_PLACEMENT_3D('',#12,#13,#14);
#12 = CARTESIAN_POINT('',(0.,0.,0.));
#13 = DIRECTION('',(0.,0.,1.));
#14 = DIRECTION('',(1.,0.,-0.));
#15 = MANIFOLD_SOLID_BREP('',#16);
#16 = CLOSED_SHELL('',(#17,#57,#88,#121,#152,#185,#218,#249,#271,#287));
#17 = ADVANCED_FACE('',(#18),#52,.T.);
#18 = FACE_BOUND('',#19,.T.);
#19 = EDGE_LOOP('',(#20,#30,#38,#46));
#20 = ORIENTED_EDGE('',*,*,#21,.T.);
#21 = EDGE_CURVE('',#22,#24,#26,.T.);
#22 = VERTEX_POINT('',#23);
#23 = CARTESIAN_POINT('',(11.591337579618,1.461834344089,3.431595971335)
  );
#24 = VERTEX_POINT('',#25);
#25 = CARTESIAN_POINT('',(11.591337579618,0.71008024746,3.705212085995)
  );
#26 = LINE('',#27,#28);
#27 = CARTESIAN_POINT('',(11.591337579618,1.461834344089,3.431595971335)
  );
#28 = VECTOR('',#29,1.);
#29 = DIRECTION('',(0.,-0.939692620786,0.342020143326));
#30 = ORIENTED_EDGE('',*,*,#31,.T.);
#31 = EDGE_CURVE('',#24,#32,#34,.T.);
#32 = VERTEX_POINT('',#33);
#33 = CARTESIAN_POINT('',(10.517452229299,0.71008024746,3.705212085995)
  );
#34 = LINE('',#35,#36);
#35 = CARTESIAN_POINT('',(11.591337579618,0.71008024746,3.705212085995)
  );
#36 = VECTOR('',#37,1.);
#37 = DIRECTION('',(-1.,0.,0.));
#38 = ORIENTED_EDGE('',*,*,#39,.F.);
#39 = EDGE_CURVE('',#40,#32,#42,.T.);
#40 = VERTEX_POINT('',#41);
#41 = CARTESIAN_POINT('',(10.517452229299,1.461834344089,3.431595971335)
  );
#42 = LINE('',#43,#44);
#43 = CARTESIAN_POINT('',(10.517452229299,1.461834344089,3.431595971335)
  );
#44 = VECTOR('',#45,1.);
#45 = DIRECTION('',(0.,-0.939692620786,0.342020143326));
#46 = ORIENTED_EDGE('',*,*,#47,.F.);
#47 = EDGE_CURVE('',#22,#40,#48,.T.);
#48 = LINE('',#49,#50);
#49 = CARTESIAN_POINT('',(11.591337579618,1.461834344089,3.431595971335)
  );
#50 = VECTOR('',#51,1.);
#51 = DIRECTION('',(-1.,0.,0.));
#52 = PLANE('',#53);
#53 = AXIS2_PLACEMENT_3D('',#54,#55,#56);
#54 = CARTESIAN_POINT('',(11.591337579618,1.461834344089,3.431595971335)
  );
#55 = DIRECTION('',(0.,-0.342020143326,-0.939692620786));
#56 = DIRECTION('',(-1.,0.,0.));
#57 = ADVANCED_FACE('',(#58),#83,.T.);
#58 = FACE_BOUND('',#59,.T.);
#59 = EDGE_LOOP('',(#60,#61,#69,#77));
#60 = ORIENTED_EDGE('',*,*,#39,.T.);
#61 = ORIENTED_EDGE('',*,*,#62,.T.);
#62 = EDGE_CURVE('',#32,#63,#65,.T.);
#63 = VERTEX_POINT('',#64);
#64 = CARTESIAN_POINT('',(10.517452229299,2.099422709928,7.522399129514)
  );
#65 = LINE('',#66,#67);
#66 = CARTESIAN_POINT('',(10.517452229299,0.71008024746,3.705212085995)
  );
#67 = VECTOR('',#68,1.);
#68 = DIRECTION('',(0.,0.342020143326,0.939692620786));
#69 = ORIENTED_EDGE('',*,*,#70,.F.);
#70 = EDGE_CURVE('',#71,#63,#73,.T.);
#71 = VERTEX_POINT('',#72);
#72 = CARTESIAN_POINT('',(10.517452229299,2.851176806556,7.248783014853)
  );
#73 = LINE('',#74,#75);
#74 = CARTESIAN_POINT('',(10.517452229299,2.851176806556,7.248783014853)
  );
#75 = VECTOR('',#76,1.);
#76 = DIRECTION('',(0.,-0.939692620786,0.342020143326));
#77 = ORIENTED_EDGE('',*,*,#78,.F.);
#78 = EDGE_CURVE('',#40,#71,#79,.T.);
#79 = LINE('',#80,#81);
#80 = CARTESIAN_POINT('',(10.517452229299,1.461834344089,3.431595971335)
  );
#81 = VECTOR('',#82,1.);
#82 = DIRECTION('',(0.,0.342020143326,0.939692620786));
#83 = PLANE('',#84);
#84 = AXIS2_PLACEMENT_3D('',#85,#86,#87);
#85 = CARTESIAN_POINT('',(10.517452229299,1.461834344089,3.431595971335)
  );
#86 = DIRECTION('',(-1.,0.,0.));
#87 = DIRECTION('',(0.,0.342020143326,0.939692620786));
#88 = ADVANCED_FACE('',(#89),#114,.T.);
#89 = FACE_BOUND('',#90,.T.);
#90 = EDGE_LOOP('',(#91,#92,#100,#108));
#91 = ORIENTED_EDGE('',*,*,#70,.T.);
#92 = ORIENTED_EDGE('',*,*,#93,.T.);
#93 = EDGE_CURVE('',#63,#94,#96,.T.);
#94 = VERTEX_POINT('',#95);
#95 = CARTESIAN_POINT('',(9.130191082803,1.819881150746,6.754365007863)
  );
#96 = B_SPLINE_CURVE_WITH_KNOTS('',2,(#97,#98,#99),.UNSPECIFIED.,.F.,.F.
  ,(3,3),(0.,1.),.PIECEWISE_BEZIER_KNOTS.);
#97 = CARTESIAN_POINT('',(10.517452229299,2.099422709928,7.522399129514)
  );
#98 = CARTESIAN_POINT('',(9.928917197452,1.910418457476,7.003114213722)
  );
#99 = CARTESIAN_POINT('',(9.130191082803,1.819881150746,6.754365007863)
  );
#100 = ORIENTED_EDGE('',*,*,#101,.F.);
#101 = EDGE_CURVE('',#102,#94,#104,.T.);
#102 = VERTEX_POINT('',#103);
#103 = CARTESIAN_POINT('',(9.130191082803,2.571635247374,6.480748893202)
  );
#104 = LINE('',#105,#106);
#105 = CARTESIAN_POINT('',(9.130191082803,2.571635247374,6.480748893202)
  );
#106 = VECTOR('',#107,1.);
#107 = DIRECTION('',(0.,-0.939692620786,0.342020143326));
#108 = ORIENTED_EDGE('',*,*,#109,.F.);
#109 = EDGE_CURVE('',#71,#102,#110,.T.);
#110 = B_SPLINE_CURVE_WITH_KNOTS('',2,(#111,#112,#113),.UNSPECIFIED.,.F.
  ,.F.,(3,3),(0.,1.),.PIECEWISE_BEZIER_KNOTS.);
#111 = CARTESIAN_POINT('',(10.517452229299,2.851176806556,7.248783014853
    ));
#112 = CARTESIAN_POINT('',(9.928917197452,2.662172554104,6.729498099061)
  );
#113 = CARTESIAN_POINT('',(9.130191082803,2.571635247374,6.480748893202)
  );
#114 = SURFACE_OF_LINEAR_EXTRUSION('',#115,#119);
#115 = B_SPLINE_CURVE_WITH_KNOTS('',2,(#116,#117,#118),.UNSPECIFIED.,.F.
  ,.F.,(3,3),(0.,1.),.PIECEWISE_BEZIER_KNOTS.);
#116 = CARTESIAN_POINT('',(10.517452229299,2.851176806556,7.248783014853
    ));
#117 = CARTESIAN_POINT('',(9.928917197452,2.662172554104,6.729498099061)
  );
#118 = CARTESIAN_POINT('',(9.130191082803,2.571635247374,6.480748893202)
  );
#119 = VECTOR('',#120,1.);
#120 = DIRECTION('',(-0.,0.939692620786,-0.342020143326));
#121 = ADVANCED_FACE('',(#122),#147,.T.);
#122 = FACE_BOUND('',#123,.T.);
#123 = EDGE_LOOP('',(#124,#125,#133,#141));
#124 = ORIENTED_EDGE('',*,*,#101,.T.);
#125 = ORIENTED_EDGE('',*,*,#126,.T.);
#126 = EDGE_CURVE('',#94,#127,#129,.T.);
#127 = VERTEX_POINT('',#128);
#128 = CARTESIAN_POINT('',(9.130191082803,2.15449448842,7.67370759737));
#129 = LINE('',#130,#131);
#130 = CARTESIAN_POINT('',(9.130191082803,1.819881150746,6.754365007863)
  );
#131 = VECTOR('',#132,1.);
#132 = DIRECTION('',(0.,0.342020143326,0.939692620786));
#133 = ORIENTED_EDGE('',*,*,#134,.F.);
#134 = EDGE_CURVE('',#135,#127,#137,.T.);
#135 = VERTEX_POINT('',#136);
#136 = CARTESIAN_POINT('',(9.130191082803,2.906248585048,7.40009148271)
  );
#137 = LINE('',#138,#139);
#138 = CARTESIAN_POINT('',(9.130191082803,2.906248585048,7.40009148271)
  );
#139 = VECTOR('',#140,1.);
#140 = DIRECTION('',(0.,-0.939692620786,0.342020143326));
#141 = ORIENTED_EDGE('',*,*,#142,.F.);
#142 = EDGE_CURVE('',#102,#135,#143,.T.);
#143 = LINE('',#144,#145);
#144 = CARTESIAN_POINT('',(9.130191082803,2.571635247374,6.480748893202)
  );
#145 = VECTOR('',#146,1.);
#146 = DIRECTION('',(0.,0.342020143326,0.939692620786));
#147 = PLANE('',#148);
#148 = AXIS2_PLACEMENT_3D('',#149,#150,#151);
#149 = CARTESIAN_POINT('',(9.130191082803,2.571635247374,6.480748893202)
  );
#150 = DIRECTION('',(-1.,0.,0.));
#151 = DIRECTION('',(0.,0.342020143326,0.939692620786));
#152 = ADVANCED_FACE('',(#153),#178,.T.);
#153 = FACE_BOUND('',#154,.T.);
#154 = EDGE_LOOP('',(#155,#156,#164,#172));
#155 = ORIENTED_EDGE('',*,*,#134,.T.);
#156 = ORIENTED_EDGE('',*,*,#157,.T.);
#157 = EDGE_CURVE('',#127,#158,#160,.T.);
#158 = VERTEX_POINT('',#159);
#159 = CARTESIAN_POINT('',(10.043566878981,2.332954935179,8.164023645108
    ));
#160 = B_SPLINE_CURVE_WITH_KNOTS('',2,(#161,#162,#163),.UNSPECIFIED.,.F.
  ,.F.,(3,3),(0.,1.),.PIECEWISE_BEZIER_KNOTS.);
#161 = CARTESIAN_POINT('',(9.130191082803,2.15449448842,7.67370759737));
#162 = CARTESIAN_POINT('',(9.550573248408,2.20154948903,7.80299014902));
#163 = CARTESIAN_POINT('',(10.043566878981,2.332954935179,8.164023645108
    ));
#164 = ORIENTED_EDGE('',*,*,#165,.F.);
#165 = EDGE_CURVE('',#166,#158,#168,.T.);
#166 = VERTEX_POINT('',#167);
#167 = CARTESIAN_POINT('',(10.043566878981,3.084709031808,7.890407530447
    ));
#168 = LINE('',#169,#170);
#169 = CARTESIAN_POINT('',(10.043566878981,3.084709031808,7.890407530447
    ));
#170 = VECTOR('',#171,1.);
#171 = DIRECTION('',(0.,-0.939692620786,0.342020143326));
#172 = ORIENTED_EDGE('',*,*,#173,.F.);
#173 = EDGE_CURVE('',#135,#166,#174,.T.);
#174 = B_SPLINE_CURVE_WITH_KNOTS('',2,(#175,#176,#177),.UNSPECIFIED.,.F.
  ,.F.,(3,3),(0.,1.),.PIECEWISE_BEZIER_KNOTS.);
#175 = CARTESIAN_POINT('',(9.130191082803,2.906248585048,7.40009148271)
  );
#176 = CARTESIAN_POINT('',(9.550573248408,2.953303585659,7.529374034359)
  );
#177 = CARTESIAN_POINT('',(10.043566878981,3.084709031808,7.890407530447
    ));
#178 = SURFACE_OF_LINEAR_EXTRUSION('',#179,#183);
#179 = B_SPLINE_CURVE_WITH_KNOTS('',2,(#180,#181,#182),.UNSPECIFIED.,.F.
  ,.F.,(3,3),(0.,1.),.PIECEWISE_BEZIER_KNOTS.);
#180 = CARTESIAN_POINT('',(9.130191082803,2.906248585048,7.40009148271)
  );
#181 = CARTESIAN_POINT('',(9.550573248408,2.953303585659,7.529374034359)
  );
#182 = CARTESIAN_POINT('',(10.043566878981,3.084709031808,7.890407530447
    ));
#183 = VECTOR('',#184,1.);
#184 = DIRECTION('',(-0.,0.939692620786,-0.342020143326));
#185 = ADVANCED_FACE('',(#186),#211,.T.);
#186 = FACE_BOUND('',#187,.T.);
#187 = EDGE_LOOP('',(#188,#189,#197,#205));
#188 = ORIENTED_EDGE('',*,*,#165,.T.);
#189 = ORIENTED_EDGE('',*,*,#190,.T.);
#190 = EDGE_CURVE('',#158,#191,#193,.T.);
#191 = VERTEX_POINT('',#192);
#192 = CARTESIAN_POINT('',(10.72,2.639683828047,9.006754352157));
#193 = B_SPLINE_CURVE_WITH_KNOTS('',2,(#194,#195,#196),.UNSPECIFIED.,.F.
  ,.F.,(3,3),(0.,1.),.PIECEWISE_BEZIER_KNOTS.);
#194 = CARTESIAN_POINT('',(10.043566878981,2.332954935179,8.164023645108
    ));
#195 = CARTESIAN_POINT('',(10.536560509554,2.464447520218,8.525296553329
    ));
#196 = CARTESIAN_POINT('',(10.72,2.639683828047,9.006754352157));
#197 = ORIENTED_EDGE('',*,*,#198,.F.);
#198 = EDGE_CURVE('',#199,#191,#201,.T.);
#199 = VERTEX_POINT('',#200);
#200 = CARTESIAN_POINT('',(10.72,3.391437924676,8.733138237496));
#201 = LINE('',#202,#203);
#202 = CARTESIAN_POINT('',(10.72,3.391437924676,8.733138237496));
#203 = VECTOR('',#204,1.);
#204 = DIRECTION('',(0.,-0.939692620786,0.342020143326));
#205 = ORIENTED_EDGE('',*,*,#206,.F.);
#206 = EDGE_CURVE('',#166,#199,#207,.T.);
#207 = B_SPLINE_CURVE_WITH_KNOTS('',2,(#208,#209,#210),.UNSPECIFIED.,.F.
  ,.F.,(3,3),(0.,1.),.PIECEWISE_BEZIER_KNOTS.);
#208 = CARTESIAN_POINT('',(10.043566878981,3.084709031808,7.890407530447
    ));
#209 = CARTESIAN_POINT('',(10.536560509554,3.216201616847,8.251680438668
    ));
#210 = CARTESIAN_POINT('',(10.72,3.391437924676,8.733138237496));
#211 = SURFACE_OF_LINEAR_EXTRUSION('',#212,#216);
#212 = B_SPLINE_CURVE_WITH_KNOTS('',2,(#213,#214,#215),.UNSPECIFIED.,.F.
  ,.F.,(3,3),(0.,1.),.PIECEWISE_BEZIER_KNOTS.);
#213 = CARTESIAN_POINT('',(10.043566878981,3.084709031808,7.890407530447
    ));
#214 = CARTESIAN_POINT('',(10.536560509554,3.216201616847,8.251680438668
    ));
#215 = CARTESIAN_POINT('',(10.72,3.391437924676,8.733138237496));
#216 = VECTOR('',#217,1.);
#217 = DIRECTION('',(-0.,0.939692620786,-0.342020143326));
#218 = ADVANCED_FACE('',(#219),#244,.T.);
#219 = FACE_BOUND('',#220,.T.);
#220 = EDGE_LOOP('',(#221,#222,#230,#238));
#221 = ORIENTED_EDGE('',*,*,#198,.T.);
#222 = ORIENTED_EDGE('',*,*,#223,.T.);
#223 = EDGE_CURVE('',#191,#224,#226,.T.);
#224 = VERTEX_POINT('',#225);
#225 = CARTESIAN_POINT('',(11.591337579618,2.639683828047,9.006754352157
    ));
#226 = LINE('',#227,#228);
#227 = CARTESIAN_POINT('',(10.72,2.639683828047,9.006754352157));
#228 = VECTOR('',#229,1.);
#229 = DIRECTION('',(1.,0.,0.));
#230 = ORIENTED_EDGE('',*,*,#231,.F.);
#231 = EDGE_CURVE('',#232,#224,#234,.T.);
#232 = VERTEX_POINT('',#233);
#233 = CARTESIAN_POINT('',(11.591337579618,3.391437924676,8.733138237496
    ));
#234 = LINE('',#235,#236);
#235 = CARTESIAN_POINT('',(11.591337579618,3.391437924676,8.733138237496
    ));
#236 = VECTOR('',#237,1.);
#237 = DIRECTION('',(0.,-0.939692620786,0.342020143326));
#238 = ORIENTED_EDGE('',*,*,#239,.F.);
#239 = EDGE_CURVE('',#199,#232,#240,.T.);
#240 = LINE('',#241,#242);
#241 = CARTESIAN_POINT('',(10.72,3.391437924676,8.733138237496));
#242 = VECTOR('',#243,1.);
#243 = DIRECTION('',(1.,0.,0.));
#244 = PLANE('',#245);
#245 = AXIS2_PLACEMENT_3D('',#246,#247,#248);
#246 = CARTESIAN_POINT('',(10.72,3.391437924676,8.733138237496));
#247 = DIRECTION('',(0.,0.342020143326,0.939692620786));
#248 = DIRECTION('',(1.,0.,0.));
#249 = ADVANCED_FACE('',(#250),#266,.T.);
#250 = FACE_BOUND('',#251,.T.);
#251 = EDGE_LOOP('',(#252,#253,#259,#260));
#252 = ORIENTED_EDGE('',*,*,#231,.T.);
#253 = ORIENTED_EDGE('',*,*,#254,.T.);
#254 = EDGE_CURVE('',#224,#24,#255,.T.);
#255 = LINE('',#256,#257);
#256 = CARTESIAN_POINT('',(11.591337579618,2.639683828047,9.006754352157
    ));
#257 = VECTOR('',#258,1.);
#258 = DIRECTION('',(0.,-0.342020143326,-0.939692620786));
#259 = ORIENTED_EDGE('',*,*,#21,.F.);
#260 = ORIENTED_EDGE('',*,*,#261,.F.);
#261 = EDGE_CURVE('',#232,#22,#262,.T.);
#262 = LINE('',#263,#264);
#263 = CARTESIAN_POINT('',(11.591337579618,3.391437924676,8.733138237496
    ));
#264 = VECTOR('',#265,1.);
#265 = DIRECTION('',(0.,-0.342020143326,-0.939692620786));
#266 = PLANE('',#267);
#267 = AXIS2_PLACEMENT_3D('',#268,#269,#270);
#268 = CARTESIAN_POINT('',(11.591337579618,3.391437924676,8.733138237496
    ));
#269 = DIRECTION('',(1.,0.,0.));
#270 = DIRECTION('',(0.,-0.342020143326,-0.939692620786));
#271 = ADVANCED_FACE('',(#272),#282,.F.);
#272 = FACE_BOUND('',#273,.T.);
#273 = EDGE_LOOP('',(#274,#275,#276,#277,#278,#279,#280,#281));
#274 = ORIENTED_EDGE('',*,*,#47,.T.);
#275 = ORIENTED_EDGE('',*,*,#78,.T.);
#276 = ORIENTED_EDGE('',*,*,#109,.T.);
#277 = ORIENTED_EDGE('',*,*,#142,.T.);
#278 = ORIENTED_EDGE('',*,*,#173,.T.);
#279 = ORIENTED_EDGE('',*,*,#206,.T.);
#280 = ORIENTED_EDGE('',*,*,#239,.T.);
#281 = ORIENTED_EDGE('',*,*,#261,.T.);
#282 = PLANE('',#283);
#283 = AXIS2_PLACEMENT_3D('',#284,#285,#286);
#284 = CARTESIAN_POINT('',(10.740048731584,2.484916324519,6.242490610816
    ));
#285 = DIRECTION('',(0.,-0.939692620786,0.342020143326));
#286 = DIRECTION('',(1.,0.,0.));
#287 = ADVANCED_FACE('',(#288),#298,.T.);
#288 = FACE_BOUND('',#289,.F.);
#289 = EDGE_LOOP('',(#290,#291,#292,#293,#294,#295,#296,#297));
#290 = ORIENTED_EDGE('',*,*,#31,.T.);
#291 = ORIENTED_EDGE('',*,*,#62,.T.);
#292 = ORIENTED_EDGE('',*,*,#93,.T.);
#293 = ORIENTED_EDGE('',*,*,#126,.T.);
#294 = ORIENTED_EDGE('',*,*,#157,.T.);
#295 = ORIENTED_EDGE('',*,*,#190,.T.);
#296 = ORIENTED_EDGE('',*,*,#223,.T.);
#297 = ORIENTED_EDGE('',*,*,#254,.T.);
#298 = PLANE('',#299);
#299 = AXIS2_PLACEMENT_3D('',#300,#301,#302);
#300 = CARTESIAN_POINT('',(10.740048731584,1.73316222789,6.516106725477)
  );
#301 = DIRECTION('',(0.,-0.939692620786,0.342020143326));
#302 = DIRECTION('',(1.,0.,0.));
#303 = MANIFOLD_SOLID_BREP('',#304);
#304 = CLOSED_SHELL('',(#305,#345,#376,#407,#440,#473,#506,#537,#570,
    #603,#625,#643));
#305 = ADVANCED_FACE('',(#306),#340,.T.);
#306 = FACE_BOUND('',#307,.T.);
#307 = EDGE_LOOP('',(#308,#318,#326,#334));
#308 = ORIENTED_EDGE('',*,*,#309,.T.);
#309 = EDGE_CURVE('',#310,#312,#314,.T.);
#310 = VERTEX_POINT('',#311);
#311 = CARTESIAN_POINT('',(13.197197452229,3.017786364273,7.706539012546
    ));
#312 = VERTEX_POINT('',#313);
#313 = CARTESIAN_POINT('',(13.197197452229,2.266032267644,7.980155127206
    ));
#314 = LINE('',#315,#316);
#315 = CARTESIAN_POINT('',(13.197197452229,3.017786364273,7.706539012546
    ));
#316 = VECTOR('',#317,1.);
#317 = DIRECTION('',(0.,-0.939692620786,0.342020143326));
#318 = ORIENTED_EDGE('',*,*,#319,.T.);
#319 = EDGE_CURVE('',#312,#320,#322,.T.);
#320 = VERTEX_POINT('',#321);
#321 = CARTESIAN_POINT('',(13.197197452229,2.60622249428,8.914820093206)
  );
#322 = LINE('',#323,#324);
#323 = CARTESIAN_POINT('',(13.197197452229,2.266032267644,7.980155127206
    ));
#324 = VECTOR('',#325,1.);
#325 = DIRECTION('',(0.,0.342020143326,0.939692620786));
#326 = ORIENTED_EDGE('',*,*,#327,.F.);
#327 = EDGE_CURVE('',#328,#320,#330,.T.);
#328 = VERTEX_POINT('',#329);
#329 = CARTESIAN_POINT('',(13.197197452229,3.357976590908,8.641203978545
    ));
#330 = LINE('',#331,#332);
#331 = CARTESIAN_POINT('',(13.197197452229,3.357976590908,8.641203978545
    ));
#332 = VECTOR('',#333,1.);
#333 = DIRECTION('',(0.,-0.939692620786,0.342020143326));
#334 = ORIENTED_EDGE('',*,*,#335,.F.);
#335 = EDGE_CURVE('',#310,#328,#336,.T.);
#336 = LINE('',#337,#338);
#337 = CARTESIAN_POINT('',(13.197197452229,3.017786364273,7.706539012546
    ));
#338 = VECTOR('',#339,1.);
#339 = DIRECTION('',(0.,0.342020143326,0.939692620786));
#340 = PLANE('',#341);
#341 = AXIS2_PLACEMENT_3D('',#342,#343,#344);
#342 = CARTESIAN_POINT('',(13.197197452229,3.017786364273,7.706539012546
    ));
#343 = DIRECTION('',(-1.,0.,0.));
#344 = DIRECTION('',(0.,0.342020143326,0.939692620786));
#345 = ADVANCED_FACE('',(#346),#371,.T.);
#346 = FACE_BOUND('',#347,.T.);
#347 = EDGE_LOOP('',(#348,#349,#357,#365));
#348 = ORIENTED_EDGE('',*,*,#327,.T.);
#349 = ORIENTED_EDGE('',*,*,#350,.T.);
#350 = EDGE_CURVE('',#320,#351,#353,.T.);
#351 = VERTEX_POINT('',#352);
#352 = CARTESIAN_POINT('',(16.869808917197,2.60622249428,8.914820093206)
  );
#353 = LINE('',#354,#355);
#354 = CARTESIAN_POINT('',(13.197197452229,2.60622249428,8.914820093206)
  );
#355 = VECTOR('',#356,1.);
#356 = DIRECTION('',(1.,0.,0.));
#357 = ORIENTED_EDGE('',*,*,#358,.F.);
#358 = EDGE_CURVE('',#359,#351,#361,.T.);
#359 = VERTEX_POINT('',#360);
#360 = CARTESIAN_POINT('',(16.869808917197,3.357976590908,8.641203978545
    ));
#361 = LINE('',#362,#363);
#362 = CARTESIAN_POINT('',(16.869808917197,3.357976590908,8.641203978545
    ));
#363 = VECTOR('',#364,1.);
#364 = DIRECTION('',(0.,-0.939692620786,0.342020143326));
#365 = ORIENTED_EDGE('',*,*,#366,.F.);
#366 = EDGE_CURVE('',#328,#359,#367,.T.);
#367 = LINE('',#368,#369);
#368 = CARTESIAN_POINT('',(13.197197452229,3.357976590908,8.641203978545
    ));
#369 = VECTOR('',#370,1.);
#370 = DIRECTION('',(1.,0.,0.));
#371 = PLANE('',#372);
#372 = AXIS2_PLACEMENT_3D('',#373,#374,#375);
#373 = CARTESIAN_POINT('',(13.197197452229,3.357976590908,8.641203978545
    ));
#374 = DIRECTION('',(0.,0.342020143326,0.939692620786));
#375 = DIRECTION('',(1.,0.,0.));
#376 = ADVANCED_FACE('',(#377),#402,.T.);
#377 = FACE_BOUND('',#378,.T.);
#378 = EDGE_LOOP('',(#379,#380,#388,#396));
#379 = ORIENTED_EDGE('',*,*,#358,.T.);
#380 = ORIENTED_EDGE('',*,*,#381,.T.);
#381 = EDGE_CURVE('',#351,#382,#384,.T.);
#382 = VERTEX_POINT('',#383);
#383 = CARTESIAN_POINT('',(16.869808917197,2.33853182414,8.1793460216));
#384 = LINE('',#385,#386);
#385 = CARTESIAN_POINT('',(16.869808917197,2.60622249428,8.914820093206)
  );
#386 = VECTOR('',#387,1.);
#387 = DIRECTION('',(0.,-0.342020143326,-0.939692620786));
#388 = ORIENTED_EDGE('',*,*,#389,.F.);
#389 = EDGE_CURVE('',#390,#382,#392,.T.);
#390 = VERTEX_POINT('',#391);
#391 = CARTESIAN_POINT('',(16.869808917197,3.090285920769,7.905729906939
    ));
#392 = LINE('',#393,#394);
#393 = CARTESIAN_POINT('',(16.869808917197,3.090285920769,7.905729906939
    ));
#394 = VECTOR('',#395,1.);
#395 = DIRECTION('',(0.,-0.939692620786,0.342020143326));
#396 = ORIENTED_EDGE('',*,*,#397,.F.);
#397 = EDGE_CURVE('',#359,#390,#398,.T.);
#398 = LINE('',#399,#400);
#399 = CARTESIAN_POINT('',(16.869808917197,3.357976590908,8.641203978545
    ));
#400 = VECTOR('',#401,1.);
#401 = DIRECTION('',(0.,-0.342020143326,-0.939692620786));
#402 = PLANE('',#403);
#403 = AXIS2_PLACEMENT_3D('',#404,#405,#406);
#404 = CARTESIAN_POINT('',(16.869808917197,3.357976590908,8.641203978545
    ));
#405 = DIRECTION('',(1.,0.,0.));
#406 = DIRECTION('',(0.,-0.342020143326,-0.939692620786));
#407 = ADVANCED_FACE('',(#408),#433,.T.);
#408 = FACE_BOUND('',#409,.T.);
#409 = EDGE_LOOP('',(#410,#411,#419,#427));
#410 = ORIENTED_EDGE('',*,*,#389,.T.);
#411 = ORIENTED_EDGE('',*,*,#412,.T.);
#412 = EDGE_CURVE('',#382,#413,#415,.T.);
#413 = VERTEX_POINT('',#414);
#414 = CARTESIAN_POINT('',(15.944968152866,1.897957596203,6.968878278748
    ));
#415 = B_SPLINE_CURVE_WITH_KNOTS('',2,(#416,#417,#418),.UNSPECIFIED.,.F.
  ,.F.,(3,3),(0.,1.),.PIECEWISE_BEZIER_KNOTS.);
#416 = CARTESIAN_POINT('',(16.869808917197,2.33853182414,8.1793460216));
#417 = CARTESIAN_POINT('',(16.415031847134,2.185167377707,7.757980668075
    ));
#418 = CARTESIAN_POINT('',(15.944968152866,1.897957596203,6.968878278748
    ));
#419 = ORIENTED_EDGE('',*,*,#420,.F.);
#420 = EDGE_CURVE('',#421,#413,#423,.T.);
#421 = VERTEX_POINT('',#422);
#422 = CARTESIAN_POINT('',(15.944968152866,2.649711692832,6.695262164087
    ));
#423 = LINE('',#424,#425);
#424 = CARTESIAN_POINT('',(15.944968152866,2.649711692832,6.695262164087
    ));
#425 = VECTOR('',#426,1.);
#426 = DIRECTION('',(0.,-0.939692620786,0.342020143326));
#427 = ORIENTED_EDGE('',*,*,#428,.F.);
#428 = EDGE_CURVE('',#390,#421,#429,.T.);
#429 = B_SPLINE_CURVE_WITH_KNOTS('',2,(#430,#431,#432),.UNSPECIFIED.,.F.
  ,.F.,(3,3),(0.,1.),.PIECEWISE_BEZIER_KNOTS.);
#430 = CARTESIAN_POINT('',(16.869808917197,3.090285920769,7.905729906939
    ));
#431 = CARTESIAN_POINT('',(16.415031847134,2.936921474335,7.484364553415
    ));
#432 = CARTESIAN_POINT('',(15.944968152866,2.649711692832,6.695262164087
    ));
#433 = SURFACE_OF_LINEAR_EXTRUSION('',#434,#438);
#434 = B_SPLINE_CURVE_WITH_KNOTS('',2,(#435,#436,#437),.UNSPECIFIED.,.F.
  ,.F.,(3,3),(0.,1.),.PIECEWISE_BEZIER_KNOTS.);
#435 = CARTESIAN_POINT('',(16.869808917197,3.090285920769,7.905729906939
    ));
#436 = CARTESIAN_POINT('',(16.415031847134,2.936921474335,7.484364553415
    ));
#437 = CARTESIAN_POINT('',(15.944968152866,2.649711692832,6.695262164087
    ));
#438 = VECTOR('',#439,1.);
#439 = DIRECTION('',(-0.,0.939692620786,-0.342020143326));
#440 = ADVANCED_FACE('',(#441),#466,.T.);
#441 = FACE_BOUND('',#442,.T.);
#442 = EDGE_LOOP('',(#443,#444,#452,#460));
#443 = ORIENTED_EDGE('',*,*,#420,.T.);
#444 = ORIENTED_EDGE('',*,*,#445,.T.);
#445 = EDGE_CURVE('',#413,#446,#448,.T.);
#446 = VERTEX_POINT('',#447);
#447 = CARTESIAN_POINT('',(15.228280254777,1.287636810508,5.292035701427
    ));
#448 = B_SPLINE_CURVE_WITH_KNOTS('',2,(#449,#450,#451),.UNSPECIFIED.,.F.
  ,.F.,(3,3),(0.,1.),.PIECEWISE_BEZIER_KNOTS.);
#449 = CARTESIAN_POINT('',(15.944968152866,1.897957596203,6.968878278748
    ));
#450 = CARTESIAN_POINT('',(15.474904458599,1.610834953589,6.180015301553
    ));
#451 = CARTESIAN_POINT('',(15.228280254777,1.287636810508,5.292035701427
    ));
#452 = ORIENTED_EDGE('',*,*,#453,.F.);
#453 = EDGE_CURVE('',#454,#446,#456,.T.);
#454 = VERTEX_POINT('',#455);
#455 = CARTESIAN_POINT('',(15.228280254777,2.039390907137,5.018419586766
    ));
#456 = LINE('',#457,#458);
#457 = CARTESIAN_POINT('',(15.228280254777,2.039390907137,5.018419586766
    ));
#458 = VECTOR('',#459,1.);
#459 = DIRECTION('',(0.,-0.939692620786,0.342020143326));
#460 = ORIENTED_EDGE('',*,*,#461,.F.);
#461 = EDGE_CURVE('',#421,#454,#462,.T.);
#462 = B_SPLINE_CURVE_WITH_KNOTS('',2,(#463,#464,#465),.UNSPECIFIED.,.F.
  ,.F.,(3,3),(0.,1.),.PIECEWISE_BEZIER_KNOTS.);
#463 = CARTESIAN_POINT('',(15.944968152866,2.649711692832,6.695262164087
    ));
#464 = CARTESIAN_POINT('',(15.474904458599,2.362589050218,5.906399186893
    ));
#465 = CARTESIAN_POINT('',(15.228280254777,2.039390907137,5.018419586766
    ));
#466 = SURFACE_OF_LINEAR_EXTRUSION('',#467,#471);
#467 = B_SPLINE_CURVE_WITH_KNOTS('',2,(#468,#469,#470),.UNSPECIFIED.,.F.
  ,.F.,(3,3),(0.,1.),.PIECEWISE_BEZIER_KNOTS.);
#468 = CARTESIAN_POINT('',(15.944968152866,2.649711692832,6.695262164087
    ));
#469 = CARTESIAN_POINT('',(15.474904458599,2.362589050218,5.906399186893
    ));
#470 = CARTESIAN_POINT('',(15.228280254777,2.039390907137,5.018419586766
    ));
#471 = VECTOR('',#472,1.);
#472 = DIRECTION('',(-0.,0.939692620786,-0.342020143326));
#473 = ADVANCED_FACE('',(#474),#499,.T.);
#474 = FACE_BOUND('',#475,.T.);
#475 = EDGE_LOOP('',(#476,#477,#485,#493));
#476 = ORIENTED_EDGE('',*,*,#453,.T.);
#477 = ORIENTED_EDGE('',*,*,#478,.T.);
#478 = EDGE_CURVE('',#446,#479,#481,.T.);
#479 = VERTEX_POINT('',#480);
#480 = CARTESIAN_POINT('',(14.985732484076,0.71008024746,3.705212085995)
  );
#481 = B_SPLINE_CURVE_WITH_KNOTS('',2,(#482,#483,#484),.UNSPECIFIED.,.F.
  ,.F.,(3,3),(0.,1.),.PIECEWISE_BEZIER_KNOTS.);
#482 = CARTESIAN_POINT('',(15.228280254777,1.287636810508,5.292035701427
    ));
#483 = CARTESIAN_POINT('',(14.981910828025,0.964438667426,4.404056101301
    ));
#484 = CARTESIAN_POINT('',(14.985732484076,0.71008024746,3.705212085995)
  );
#485 = ORIENTED_EDGE('',*,*,#486,.F.);
#486 = EDGE_CURVE('',#487,#479,#489,.T.);
#487 = VERTEX_POINT('',#488);
#488 = CARTESIAN_POINT('',(14.985732484076,1.461834344089,3.431595971335
    ));
#489 = LINE('',#490,#491);
#490 = CARTESIAN_POINT('',(14.985732484076,1.461834344089,3.431595971335
    ));
#491 = VECTOR('',#492,1.);
#492 = DIRECTION('',(0.,-0.939692620786,0.342020143326));
#493 = ORIENTED_EDGE('',*,*,#494,.F.);
#494 = EDGE_CURVE('',#454,#487,#495,.T.);
#495 = B_SPLINE_CURVE_WITH_KNOTS('',2,(#496,#497,#498),.UNSPECIFIED.,.F.
  ,.F.,(3,3),(0.,1.),.PIECEWISE_BEZIER_KNOTS.);
#496 = CARTESIAN_POINT('',(15.228280254777,2.039390907137,5.018419586766
    ));
#497 = CARTESIAN_POINT('',(14.981910828025,1.716192764055,4.13043998664)
  );
#498 = CARTESIAN_POINT('',(14.985732484076,1.461834344089,3.431595971335
    ));
#499 = SURFACE_OF_LINEAR_EXTRUSION('',#500,#504);
#500 = B_SPLINE_CURVE_WITH_KNOTS('',2,(#501,#502,#503),.UNSPECIFIED.,.F.
  ,.F.,(3,3),(0.,1.),.PIECEWISE_BEZIER_KNOTS.);
#501 = CARTESIAN_POINT('',(15.228280254777,2.039390907137,5.018419586766
    ));
#502 = CARTESIAN_POINT('',(14.981910828025,1.716192764055,4.13043998664)
  );
#503 = CARTESIAN_POINT('',(14.985732484076,1.461834344089,3.431595971335
    ));
#504 = VECTOR('',#505,1.);
#505 = DIRECTION('',(-0.,0.939692620786,-0.342020143326));
#506 = ADVANCED_FACE('',(#507),#532,.T.);
#507 = FACE_BOUND('',#508,.T.);
#508 = EDGE_LOOP('',(#509,#510,#518,#526));
#509 = ORIENTED_EDGE('',*,*,#486,.T.);
#510 = ORIENTED_EDGE('',*,*,#511,.T.);
#511 = EDGE_CURVE('',#479,#512,#514,.T.);
#512 = VERTEX_POINT('',#513);
#513 = CARTESIAN_POINT('',(13.950063694268,0.71008024746,3.705212085995)
  );
#514 = LINE('',#515,#516);
#515 = CARTESIAN_POINT('',(14.985732484076,0.71008024746,3.705212085995)
  );
#516 = VECTOR('',#517,1.);
#517 = DIRECTION('',(-1.,0.,0.));
#518 = ORIENTED_EDGE('',*,*,#519,.F.);
#519 = EDGE_CURVE('',#520,#512,#522,.T.);
#520 = VERTEX_POINT('',#521);
#521 = CARTESIAN_POINT('',(13.950063694268,1.461834344089,3.431595971335
    ));
#522 = LINE('',#523,#524);
#523 = CARTESIAN_POINT('',(13.950063694268,1.461834344089,3.431595971335
    ));
#524 = VECTOR('',#525,1.);
#525 = DIRECTION('',(0.,-0.939692620786,0.342020143326));
#526 = ORIENTED_EDGE('',*,*,#527,.F.);
#527 = EDGE_CURVE('',#487,#520,#528,.T.);
#528 = LINE('',#529,#530);
#529 = CARTESIAN_POINT('',(14.985732484076,1.461834344089,3.431595971335
    ));
#530 = VECTOR('',#531,1.);
#531 = DIRECTION('',(-1.,0.,0.));
#532 = PLANE('',#533);
#533 = AXIS2_PLACEMENT_3D('',#534,#535,#536);
#534 = CARTESIAN_POINT('',(14.985732484076,1.461834344089,3.431595971335
    ));
#535 = DIRECTION('',(0.,-0.342020143326,-0.939692620786));
#536 = DIRECTION('',(-1.,0.,0.));
#537 = ADVANCED_FACE('',(#538),#563,.T.);
#538 = FACE_BOUND('',#539,.T.);
#539 = EDGE_LOOP('',(#540,#541,#549,#557));
#540 = ORIENTED_EDGE('',*,*,#519,.T.);
#541 = ORIENTED_EDGE('',*,*,#542,.T.);
#542 = EDGE_CURVE('',#512,#543,#545,.T.);
#543 = VERTEX_POINT('',#544);
#544 = CARTESIAN_POINT('',(14.429554140127,1.52413175802,5.941800229532)
  );
#545 = B_SPLINE_CURVE_WITH_KNOTS('',2,(#546,#547,#548),.UNSPECIFIED.,.F.
  ,.F.,(3,3),(0.,1.),.PIECEWISE_BEZIER_KNOTS.);
#546 = CARTESIAN_POINT('',(13.950063694268,0.71008024746,3.705212085995)
  );
#547 = CARTESIAN_POINT('',(13.976815286624,1.109263502638,4.801959065822
    ));
#548 = CARTESIAN_POINT('',(14.429554140127,1.52413175802,5.941800229532)
  );
#549 = ORIENTED_EDGE('',*,*,#550,.F.);
#550 = EDGE_CURVE('',#551,#543,#553,.T.);
#551 = VERTEX_POINT('',#552);
#552 = CARTESIAN_POINT('',(14.429554140127,2.275885854649,5.668184114872
    ));
#553 = LINE('',#554,#555);
#554 = CARTESIAN_POINT('',(14.429554140127,2.275885854649,5.668184114872
    ));
#555 = VECTOR('',#556,1.);
#556 = DIRECTION('',(0.,-0.939692620786,0.342020143326));
#557 = ORIENTED_EDGE('',*,*,#558,.F.);
#558 = EDGE_CURVE('',#520,#551,#559,.T.);
#559 = B_SPLINE_CURVE_WITH_KNOTS('',2,(#560,#561,#562),.UNSPECIFIED.,.F.
  ,.F.,(3,3),(0.,1.),.PIECEWISE_BEZIER_KNOTS.);
#560 = CARTESIAN_POINT('',(13.950063694268,1.461834344089,3.431595971335
    ));
#561 = CARTESIAN_POINT('',(13.976815286624,1.861017599267,4.528342951162
    ));
#562 = CARTESIAN_POINT('',(14.429554140127,2.275885854649,5.668184114872
    ));
#563 = SURFACE_OF_LINEAR_EXTRUSION('',#564,#568);
#564 = B_SPLINE_CURVE_WITH_KNOTS('',2,(#565,#566,#567),.UNSPECIFIED.,.F.
  ,.F.,(3,3),(0.,1.),.PIECEWISE_BEZIER_KNOTS.);
#565 = CARTESIAN_POINT('',(13.950063694268,1.461834344089,3.431595971335
    ));
#566 = CARTESIAN_POINT('',(13.976815286624,1.861017599267,4.528342951162
    ));
#567 = CARTESIAN_POINT('',(14.429554140127,2.275885854649,5.668184114872
    ));
#568 = VECTOR('',#569,1.);
#569 = DIRECTION('',(-0.,0.939692620786,-0.342020143326));
#570 = ADVANCED_FACE('',(#571),#596,.T.);
#571 = FACE_BOUND('',#572,.T.);
#572 = EDGE_LOOP('',(#573,#574,#582,#590));
#573 = ORIENTED_EDGE('',*,*,#550,.T.);
#574 = ORIENTED_EDGE('',*,*,#575,.T.);
#575 = EDGE_CURVE('',#543,#576,#578,.T.);
#576 = VERTEX_POINT('',#577);
#577 = CARTESIAN_POINT('',(15.63923566879,2.266032267644,7.980155127206)
  );
#578 = B_SPLINE_CURVE_WITH_KNOTS('',2,(#579,#580,#581),.UNSPECIFIED.,.F.
  ,.F.,(3,3),(0.,1.),.PIECEWISE_BEZIER_KNOTS.);
#579 = CARTESIAN_POINT('',(14.429554140127,1.52413175802,5.941800229532)
  );
#580 = CARTESIAN_POINT('',(14.882547770701,1.939087152292,7.081880805375
    ));
#581 = CARTESIAN_POINT('',(15.63923566879,2.266032267644,7.980155127206)
  );
#582 = ORIENTED_EDGE('',*,*,#583,.F.);
#583 = EDGE_CURVE('',#584,#576,#586,.T.);
#584 = VERTEX_POINT('',#585);
#585 = CARTESIAN_POINT('',(15.63923566879,3.017786364273,7.706539012546)
  );
#586 = LINE('',#587,#588);
#587 = CARTESIAN_POINT('',(15.63923566879,3.017786364273,7.706539012546)
  );
#588 = VECTOR('',#589,1.);
#589 = DIRECTION('',(0.,-0.939692620786,0.342020143326));
#590 = ORIENTED_EDGE('',*,*,#591,.F.);
#591 = EDGE_CURVE('',#551,#584,#592,.T.);
#592 = B_SPLINE_CURVE_WITH_KNOTS('',2,(#593,#594,#595),.UNSPECIFIED.,.F.
  ,.F.,(3,3),(0.,1.),.PIECEWISE_BEZIER_KNOTS.);
#593 = CARTESIAN_POINT('',(14.429554140127,2.275885854649,5.668184114872
    ));
#594 = CARTESIAN_POINT('',(14.882547770701,2.690841248921,6.808264690714
    ));
#595 = CARTESIAN_POINT('',(15.63923566879,3.017786364273,7.706539012546)
  );
#596 = SURFACE_OF_LINEAR_EXTRUSION('',#597,#601);
#597 = B_SPLINE_CURVE_WITH_KNOTS('',2,(#598,#599,#600),.UNSPECIFIED.,.F.
  ,.F.,(3,3),(0.,1.),.PIECEWISE_BEZIER_KNOTS.);
#598 = CARTESIAN_POINT('',(14.429554140127,2.275885854649,5.668184114872
    ));
#599 = CARTESIAN_POINT('',(14.882547770701,2.690841248921,6.808264690714
    ));
#600 = CARTESIAN_POINT('',(15.63923566879,3.017786364273,7.706539012546)
  );
#601 = VECTOR('',#602,1.);
#602 = DIRECTION('',(-0.,0.939692620786,-0.342020143326));
#603 = ADVANCED_FACE('',(#604),#620,.T.);
#604 = FACE_BOUND('',#605,.T.);
#605 = EDGE_LOOP('',(#606,#607,#613,#614));
#606 = ORIENTED_EDGE('',*,*,#583,.T.);
#607 = ORIENTED_EDGE('',*,*,#608,.T.);
#608 = EDGE_CURVE('',#576,#312,#609,.T.);
#609 = LINE('',#610,#611);
#610 = CARTESIAN_POINT('',(15.63923566879,2.266032267644,7.980155127206)
  );
#611 = VECTOR('',#612,1.);
#612 = DIRECTION('',(-1.,0.,0.));
#613 = ORIENTED_EDGE('',*,*,#309,.F.);
#614 = ORIENTED_EDGE('',*,*,#615,.F.);
#615 = EDGE_CURVE('',#584,#310,#616,.T.);
#616 = LINE('',#617,#618);
#617 = CARTESIAN_POINT('',(15.63923566879,3.017786364273,7.706539012546)
  );
#618 = VECTOR('',#619,1.);
#619 = DIRECTION('',(-1.,0.,0.));
#620 = PLANE('',#621);
#621 = AXIS2_PLACEMENT_3D('',#622,#623,#624);
#622 = CARTESIAN_POINT('',(15.63923566879,3.017786364273,7.706539012546)
  );
#623 = DIRECTION('',(0.,-0.342020143326,-0.939692620786));
#624 = DIRECTION('',(-1.,0.,0.));
#625 = ADVANCED_FACE('',(#626),#638,.F.);
#626 = FACE_BOUND('',#627,.T.);
#627 = EDGE_LOOP('',(#628,#629,#630,#631,#632,#633,#634,#635,#636,#637)
  );
#628 = ORIENTED_EDGE('',*,*,#335,.T.);
#629 = ORIENTED_EDGE('',*,*,#366,.T.);
#630 = ORIENTED_EDGE('',*,*,#397,.T.);
#631 = ORIENTED_EDGE('',*,*,#428,.T.);
#632 = ORIENTED_EDGE('',*,*,#461,.T.);
#633 = ORIENTED_EDGE('',*,*,#494,.T.);
#634 = ORIENTED_EDGE('',*,*,#527,.T.);
#635 = ORIENTED_EDGE('',*,*,#558,.T.);
#636 = ORIENTED_EDGE('',*,*,#591,.T.);
#637 = ORIENTED_EDGE('',*,*,#615,.T.);
#638 = PLANE('',#639);
#639 = AXIS2_PLACEMENT_3D('',#640,#641,#642);
#640 = CARTESIAN_POINT('',(14.953838256053,2.62964250988,6.6401225371));
#641 = DIRECTION('',(0.,-0.939692620786,0.342020143326));
#642 = DIRECTION('',(1.,0.,0.));
#643 = ADVANCED_FACE('',(#644),#656,.T.);
#644 = FACE_BOUND('',#645,.F.);
#645 = EDGE_LOOP('',(#646,#647,#648,#649,#650,#651,#652,#653,#654,#655)
  );
#646 = ORIENTED_EDGE('',*,*,#319,.T.);
#647 = ORIENTED_EDGE('',*,*,#350,.T.);
#648 = ORIENTED_EDGE('',*,*,#381,.T.);
#649 = ORIENTED_EDGE('',*,*,#412,.T.);
#650 = ORIENTED_EDGE('',*,*,#445,.T.);
#651 = ORIENTED_EDGE('',*,*,#478,.T.);
#652 = ORIENTED_EDGE('',*,*,#511,.T.);
#653 = ORIENTED_EDGE('',*,*,#542,.T.);
#654 = ORIENTED_EDGE('',*,*,#575,.T.);
#655 = ORIENTED_EDGE('',*,*,#608,.T.);
#656 = PLANE('',#657);
#657 = AXIS2_PLACEMENT_3D('',#658,#659,#660);
#658 = CARTESIAN_POINT('',(14.953838256053,1.877888413251,6.913738651761
    ));
#659 = DIRECTION('',(0.,-0.939692620786,0.342020143326));
#660 = DIRECTION('',(1.,0.,0.));
#661 = ( GEOMETRIC_REPRESENTATION_CONTEXT(3) 
GLOBAL_UNCERTAINTY_ASSIGNED_CONTEXT((#665)) GLOBAL_UNIT_ASSIGNED_CONTEXT
((#662,#663,#664)) REPRESENTATION_CONTEXT('Context #1',
  '3D Context with UNIT and UNCERTAINTY') );
#662 = ( LENGTH_UNIT() NAMED_UNIT(*) SI_UNIT(.MILLI.,.METRE.) );
#663 = ( NAMED_UNIT(*) PLANE_ANGLE_UNIT() SI_UNIT($,.RADIAN.) );
#664 = ( NAMED_UNIT(*) SI_UNIT($,.STERADIAN.) SOLID_ANGLE_UNIT() );
#665 = UNCERTAINTY_MEASURE_WITH_UNIT(LENGTH_MEASURE(1.E-07),#662,
  'distance_accuracy_value','confusion accuracy');
#666 = PRODUCT_RELATED_PRODUCT_CATEGORY('part',$,(#7));
ENDSEC;
END-ISO-10303-21;
