ISO-10303-21;
HEADER;
FILE_DESCRIPTION(('FreeCAD Model'),'2;1');
FILE_NAME('Open CASCADE Shape Model','2026-08-31T20:51:52',('FreeCAD'),(
    'FreeCAD'),'Open CASCADE STEP processor 7.8','FreeCAD','Unknown');
FILE_SCHEMA(('AUTOMOTIVE_DESIGN { 1 0 10303 214 1 1 1 1 }'));
ENDSEC;
DATA;
#1 = APPLICATION_PROTOCOL_DEFINITION('international standard',
  'automotive_design',2000,#2);
#2 = APPLICATION_CONTEXT(
  'core data for automotive mechanical design processes');
#3 = SHAPE_DEFINITION_REPRESENTATION(#4,#10);
#4 = PRODUCT_DEFINITION_SHAPE('','',#5);
#5 = PRODUCT_DEFINITION('design','',#6,#9);
#6 = PRODUCT_DEFINITION_FORMATION('','',#7);
#7 = PRODUCT('Open CASCADE STEP translator 7.8 111',
  'Open CASCADE STEP translator 7.8 111','',(#8));
#8 = PRODUCT_CONTEXT('',#2,'mechanical');
#9 = PRODUCT_DEFINITION_CONTEXT('part definition',#2,'design');
#10 = SHAPE_REPRESENTATION('',(#11,#15,#760),#1505);
#11 = AXIS2_PLACEMENT_3D('',#12,#13,#14);
#12 = CARTESIAN_POINT('',(0.,0.,0.));
#13 = DIRECTION('',(0.,0.,1.));
#14 = DIRECTION('',(1.,0.,-0.));
#15 = MANIFOLD_SOLID_BREP('',#16);
#16 = CLOSED_SHELL('',(#17,#57,#88,#121,#154,#187,#220,#253,#286,#319,
    #352,#383,#416,#449,#482,#515,#548,#581,#614,#647,#680,#702,#731));
#17 = ADVANCED_FACE('',(#18),#52,.T.);
#18 = FACE_BOUND('',#19,.T.);
#19 = EDGE_LOOP('',(#20,#30,#38,#46));
#20 = ORIENTED_EDGE('',*,*,#21,.T.);
#21 = EDGE_CURVE('',#22,#24,#26,.T.);
#22 = VERTEX_POINT('',#23);
#23 = CARTESIAN_POINT('',(21.205350318471,1.802024570724,4.366260937334)
  );
#24 = VERTEX_POINT('',#25);
#25 = CARTESIAN_POINT('',(21.205350318471,1.050270474095,4.639877051995)
  );
#26 = LINE('',#27,#28);
#27 = CARTESIAN_POINT('',(21.205350318471,1.802024570724,4.366260937334)
  );
#28 = VECTOR('',#29,1.);
#29 = DIRECTION('',(0.,-0.939692620786,0.342020143326));
#30 = ORIENTED_EDGE('',*,*,#31,.T.);
#31 = EDGE_CURVE('',#24,#32,#34,.T.);
#32 = VERTEX_POINT('',#33);
#33 = CARTESIAN_POINT('',(21.205350318471,0.71008024746,3.705212085995)
  );
#34 = LINE('',#35,#36);
#35 = CARTESIAN_POINT('',(21.205350318471,1.050270474095,4.639877051995)
  );
#36 = VECTOR('',#37,1.);
#37 = DIRECTION('',(0.,-0.342020143326,-0.939692620786));
#38 = ORIENTED_EDGE('',*,*,#39,.F.);
#39 = EDGE_CURVE('',#40,#32,#42,.T.);
#40 = VERTEX_POINT('',#41);
#41 = CARTESIAN_POINT('',(21.205350318471,1.461834344089,3.431595971335)
  );
#42 = LINE('',#43,#44);
#43 = CARTESIAN_POINT('',(21.205350318471,1.461834344089,3.431595971335)
  );
#44 = VECTOR('',#45,1.);
#45 = DIRECTION('',(0.,-0.939692620786,0.342020143326));
#46 = ORIENTED_EDGE('',*,*,#47,.F.);
#47 = EDGE_CURVE('',#22,#40,#48,.T.);
#48 = LINE('',#49,#50);
#49 = CARTESIAN_POINT('',(21.205350318471,1.802024570724,4.366260937334)
  );
#50 = VECTOR('',#51,1.);
#51 = DIRECTION('',(0.,-0.342020143326,-0.939692620786));
#52 = PLANE('',#53);
#53 = AXIS2_PLACEMENT_3D('',#54,#55,#56);
#54 = CARTESIAN_POINT('',(21.205350318471,1.802024570724,4.366260937334)
  );
#55 = DIRECTION('',(1.,0.,0.));
#56 = DIRECTION('',(0.,-0.342020143326,-0.939692620786));
#57 = ADVANCED_FACE('',(#58),#83,.T.);
#58 = FACE_BOUND('',#59,.T.);
#59 = EDGE_LOOP('',(#60,#61,#69,#77));
#60 = ORIENTED_EDGE('',*,*,#39,.T.);
#61 = ORIENTED_EDGE('',*,*,#62,.T.);
#62 = EDGE_CURVE('',#32,#63,#65,.T.);
#63 = VERTEX_POINT('',#64);
#64 = CARTESIAN_POINT('',(17.44101910828,0.71008024746,3.705212085995));
#65 = LINE('',#66,#67);
#66 = CARTESIAN_POINT('',(21.205350318471,0.71008024746,3.705212085995)
  );
#67 = VECTOR('',#68,1.);
#68 = DIRECTION('',(-1.,0.,0.));
#69 = ORIENTED_EDGE('',*,*,#70,.F.);
#70 = EDGE_CURVE('',#71,#63,#73,.T.);
#71 = VERTEX_POINT('',#72);
#72 = CARTESIAN_POINT('',(17.44101910828,1.461834344089,3.431595971335)
  );
#73 = LINE('',#74,#75);
#74 = CARTESIAN_POINT('',(17.44101910828,1.461834344089,3.431595971335)
  );
#75 = VECTOR('',#76,1.);
#76 = DIRECTION('',(0.,-0.939692620786,0.342020143326));
#77 = ORIENTED_EDGE('',*,*,#78,.F.);
#78 = EDGE_CURVE('',#40,#71,#79,.T.);
#79 = LINE('',#80,#81);
#80 = CARTESIAN_POINT('',(21.205350318471,1.461834344089,3.431595971335)
  );
#81 = VECTOR('',#82,1.);
#82 = DIRECTION('',(-1.,0.,0.));
#83 = PLANE('',#84);
#84 = AXIS2_PLACEMENT_3D('',#85,#86,#87);
#85 = CARTESIAN_POINT('',(21.205350318471,1.461834344089,3.431595971335)
  );
#86 = DIRECTION('',(0.,-0.342020143326,-0.939692620786));
#87 = DIRECTION('',(-1.,0.,0.));
#88 = ADVANCED_FACE('',(#89),#114,.T.);
#89 = FACE_BOUND('',#90,.T.);
#90 = EDGE_LOOP('',(#91,#92,#100,#108));
#91 = ORIENTED_EDGE('',*,*,#70,.T.);
#92 = ORIENTED_EDGE('',*,*,#93,.T.);
#93 = EDGE_CURVE('',#63,#94,#96,.T.);
#94 = VERTEX_POINT('',#95);
#95 = CARTESIAN_POINT('',(17.807898089172,1.077457807781,4.714573637392)
  );
#96 = B_SPLINE_CURVE_WITH_KNOTS('',2,(#97,#98,#99),.UNSPECIFIED.,.F.,.F.
  ,(3,3),(0.,1.),.PIECEWISE_BEZIER_KNOTS.);
#97 = CARTESIAN_POINT('',(17.44101910828,0.71008024746,3.705212085995));
#98 = CARTESIAN_POINT('',(17.502165605096,0.903964277753,4.237904081218)
  );
#99 = CARTESIAN_POINT('',(17.807898089172,1.077457807781,4.714573637392)
  );
#100 = ORIENTED_EDGE('',*,*,#101,.F.);
#101 = EDGE_CURVE('',#102,#94,#104,.T.);
#102 = VERTEX_POINT('',#103);
#103 = CARTESIAN_POINT('',(17.807898089172,1.82921190441,4.440957522732)
  );
#104 = LINE('',#105,#106);
#105 = CARTESIAN_POINT('',(17.807898089172,1.82921190441,4.440957522732)
  );
#106 = VECTOR('',#107,1.);
#107 = DIRECTION('',(0.,-0.939692620786,0.342020143326));
#108 = ORIENTED_EDGE('',*,*,#109,.F.);
#109 = EDGE_CURVE('',#71,#102,#110,.T.);
#110 = B_SPLINE_CURVE_WITH_KNOTS('',2,(#111,#112,#113),.UNSPECIFIED.,.F.
  ,.F.,(3,3),(0.,1.),.PIECEWISE_BEZIER_KNOTS.);
#111 = CARTESIAN_POINT('',(17.44101910828,1.461834344089,3.431595971335)
  );
#112 = CARTESIAN_POINT('',(17.502165605096,1.655718374382,3.964287966557
    ));
#113 = CARTESIAN_POINT('',(17.807898089172,1.82921190441,4.440957522732)
  );
#114 = SURFACE_OF_LINEAR_EXTRUSION('',#115,#119);
#115 = B_SPLINE_CURVE_WITH_KNOTS('',2,(#116,#117,#118),.UNSPECIFIED.,.F.
  ,.F.,(3,3),(0.,1.),.PIECEWISE_BEZIER_KNOTS.);
#116 = CARTESIAN_POINT('',(17.44101910828,1.461834344089,3.431595971335)
  );
#117 = CARTESIAN_POINT('',(17.502165605096,1.655718374382,3.964287966557
    ));
#118 = CARTESIAN_POINT('',(17.807898089172,1.82921190441,4.440957522732)
  );
#119 = VECTOR('',#120,1.);
#120 = DIRECTION('',(-0.,0.939692620786,-0.342020143326));
#121 = ADVANCED_FACE('',(#122),#147,.T.);
#122 = FACE_BOUND('',#123,.T.);
#123 = EDGE_LOOP('',(#124,#125,#133,#141));
#124 = ORIENTED_EDGE('',*,*,#101,.T.);
#125 = ORIENTED_EDGE('',*,*,#126,.T.);
#126 = EDGE_CURVE('',#94,#127,#129,.T.);
#127 = VERTEX_POINT('',#128);
#128 = CARTESIAN_POINT('',(19.015541401274,1.537899702643,5.979627346496
    ));
#129 = B_SPLINE_CURVE_WITH_KNOTS('',2,(#130,#131,#132),.UNSPECIFIED.,.F.
  ,.F.,(3,3),(0.,1.),.PIECEWISE_BEZIER_KNOTS.);
#130 = CARTESIAN_POINT('',(17.807898089172,1.077457807781,4.714573637392
    ));
#131 = CARTESIAN_POINT('',(18.113630573248,1.2510384767,5.1914826057));
#132 = CARTESIAN_POINT('',(19.015541401274,1.537899702643,5.979627346496
    ));
#133 = ORIENTED_EDGE('',*,*,#134,.F.);
#134 = EDGE_CURVE('',#135,#127,#137,.T.);
#135 = VERTEX_POINT('',#136);
#136 = CARTESIAN_POINT('',(19.015541401274,2.289653799272,5.706011231836
    ));
#137 = LINE('',#138,#139);
#138 = CARTESIAN_POINT('',(19.015541401274,2.289653799272,5.706011231836
    ));
#139 = VECTOR('',#140,1.);
#140 = DIRECTION('',(0.,-0.939692620786,0.342020143326));
#141 = ORIENTED_EDGE('',*,*,#142,.F.);
#142 = EDGE_CURVE('',#102,#135,#143,.T.);
#143 = B_SPLINE_CURVE_WITH_KNOTS('',2,(#144,#145,#146),.UNSPECIFIED.,.F.
  ,.F.,(3,3),(0.,1.),.PIECEWISE_BEZIER_KNOTS.);
#144 = CARTESIAN_POINT('',(17.807898089172,1.82921190441,4.440957522732)
  );
#145 = CARTESIAN_POINT('',(18.113630573248,2.002792573329,4.917866491039
    ));
#146 = CARTESIAN_POINT('',(19.015541401274,2.289653799272,5.706011231836
    ));
#147 = SURFACE_OF_LINEAR_EXTRUSION('',#148,#152);
#148 = B_SPLINE_CURVE_WITH_KNOTS('',2,(#149,#150,#151),.UNSPECIFIED.,.F.
  ,.F.,(3,3),(0.,1.),.PIECEWISE_BEZIER_KNOTS.);
#149 = CARTESIAN_POINT('',(17.807898089172,1.82921190441,4.440957522732)
  );
#150 = CARTESIAN_POINT('',(18.113630573248,2.002792573329,4.917866491039
    ));
#151 = CARTESIAN_POINT('',(19.015541401274,2.289653799272,5.706011231836
    ));
#152 = VECTOR('',#153,1.);
#153 = DIRECTION('',(-0.,0.939692620786,-0.342020143326));
#154 = ADVANCED_FACE('',(#155),#180,.T.);
#155 = FACE_BOUND('',#156,.T.);
#156 = EDGE_LOOP('',(#157,#158,#166,#174));
#157 = ORIENTED_EDGE('',*,*,#134,.T.);
#158 = ORIENTED_EDGE('',*,*,#159,.T.);
#159 = EDGE_CURVE('',#127,#160,#162,.T.);
#160 = VERTEX_POINT('',#161);
#161 = CARTESIAN_POINT('',(19.905987261146,1.852209678943,6.843186909089
    ));
#162 = B_SPLINE_CURVE_WITH_KNOTS('',2,(#163,#164,#165),.UNSPECIFIED.,.F.
  ,.F.,(3,3),(0.,1.),.PIECEWISE_BEZIER_KNOTS.);
#163 = CARTESIAN_POINT('',(19.015541401274,1.537899702643,5.979627346496
    ));
#164 = CARTESIAN_POINT('',(19.741656050955,1.769689150095,6.616463619437
    ));
#165 = CARTESIAN_POINT('',(19.905987261146,1.852209678943,6.843186909089
    ));
#166 = ORIENTED_EDGE('',*,*,#167,.F.);
#167 = EDGE_CURVE('',#168,#160,#170,.T.);
#168 = VERTEX_POINT('',#169);
#169 = CARTESIAN_POINT('',(19.905987261146,2.603963775572,6.569570794428
    ));
#170 = LINE('',#171,#172);
#171 = CARTESIAN_POINT('',(19.905987261146,2.603963775572,6.569570794428
    ));
#172 = VECTOR('',#173,1.);
#173 = DIRECTION('',(0.,-0.939692620786,0.342020143326));
#174 = ORIENTED_EDGE('',*,*,#175,.F.);
#175 = EDGE_CURVE('',#135,#168,#176,.T.);
#176 = B_SPLINE_CURVE_WITH_KNOTS('',2,(#177,#178,#179),.UNSPECIFIED.,.F.
  ,.F.,(3,3),(0.,1.),.PIECEWISE_BEZIER_KNOTS.);
#177 = CARTESIAN_POINT('',(19.015541401274,2.289653799272,5.706011231836
    ));
#178 = CARTESIAN_POINT('',(19.741656050955,2.521443246723,6.342847504776
    ));
#179 = CARTESIAN_POINT('',(19.905987261146,2.603963775572,6.569570794428
    ));
#180 = SURFACE_OF_LINEAR_EXTRUSION('',#181,#185);
#181 = B_SPLINE_CURVE_WITH_KNOTS('',2,(#182,#183,#184),.UNSPECIFIED.,.F.
  ,.F.,(3,3),(0.,1.),.PIECEWISE_BEZIER_KNOTS.);
#182 = CARTESIAN_POINT('',(19.015541401274,2.289653799272,5.706011231836
    ));
#183 = CARTESIAN_POINT('',(19.741656050955,2.521443246723,6.342847504776
    ));
#184 = CARTESIAN_POINT('',(19.905987261146,2.603963775572,6.569570794428
    ));
#185 = VECTOR('',#186,1.);
#186 = DIRECTION('',(-0.,0.939692620786,-0.342020143326));
#187 = ADVANCED_FACE('',(#188),#213,.T.);
#188 = FACE_BOUND('',#189,.T.);
#189 = EDGE_LOOP('',(#190,#191,#199,#207));
#190 = ORIENTED_EDGE('',*,*,#167,.T.);
#191 = ORIENTED_EDGE('',*,*,#192,.T.);
#192 = EDGE_CURVE('',#160,#193,#195,.T.);
#193 = VERTEX_POINT('',#194);
#194 = CARTESIAN_POINT('',(20.127643312102,2.077550848533,7.46230668421)
  );
#195 = B_SPLINE_CURVE_WITH_KNOTS('',2,(#196,#197,#198),.UNSPECIFIED.,.F.
  ,.F.,(3,3),(0.,1.),.PIECEWISE_BEZIER_KNOTS.);
#196 = CARTESIAN_POINT('',(19.905987261146,1.852209678943,6.843186909089
    ));
#197 = CARTESIAN_POINT('',(20.127643312102,1.966187347088,7.15633797864)
  );
#198 = CARTESIAN_POINT('',(20.127643312102,2.077550848533,7.46230668421)
  );
#199 = ORIENTED_EDGE('',*,*,#200,.F.);
#200 = EDGE_CURVE('',#201,#193,#203,.T.);
#201 = VERTEX_POINT('',#202);
#202 = CARTESIAN_POINT('',(20.127643312102,2.829304945161,7.18869056955)
  );
#203 = LINE('',#204,#205);
#204 = CARTESIAN_POINT('',(20.127643312102,2.829304945161,7.18869056955)
  );
#205 = VECTOR('',#206,1.);
#206 = DIRECTION('',(0.,-0.939692620786,0.342020143326));
#207 = ORIENTED_EDGE('',*,*,#208,.F.);
#208 = EDGE_CURVE('',#168,#201,#209,.T.);
#209 = B_SPLINE_CURVE_WITH_KNOTS('',2,(#210,#211,#212),.UNSPECIFIED.,.F.
  ,.F.,(3,3),(0.,1.),.PIECEWISE_BEZIER_KNOTS.);
#210 = CARTESIAN_POINT('',(19.905987261146,2.603963775572,6.569570794428
    ));
#211 = CARTESIAN_POINT('',(20.127643312102,2.717941443717,6.882721863979
    ));
#212 = CARTESIAN_POINT('',(20.127643312102,2.829304945161,7.18869056955)
  );
#213 = SURFACE_OF_LINEAR_EXTRUSION('',#214,#218);
#214 = B_SPLINE_CURVE_WITH_KNOTS('',2,(#215,#216,#217),.UNSPECIFIED.,.F.
  ,.F.,(3,3),(0.,1.),.PIECEWISE_BEZIER_KNOTS.);
#215 = CARTESIAN_POINT('',(19.905987261146,2.603963775572,6.569570794428
    ));
#216 = CARTESIAN_POINT('',(20.127643312102,2.717941443717,6.882721863979
    ));
#217 = CARTESIAN_POINT('',(20.127643312102,2.829304945161,7.18869056955)
  );
#218 = VECTOR('',#219,1.);
#219 = DIRECTION('',(-0.,0.939692620786,-0.342020143326));
#220 = ADVANCED_FACE('',(#221),#246,.T.);
#221 = FACE_BOUND('',#222,.T.);
#222 = EDGE_LOOP('',(#223,#224,#232,#240));
#223 = ORIENTED_EDGE('',*,*,#200,.T.);
#224 = ORIENTED_EDGE('',*,*,#225,.T.);
#225 = EDGE_CURVE('',#193,#226,#228,.T.);
#226 = VERTEX_POINT('',#227);
#227 = CARTESIAN_POINT('',(19.934522292994,2.266816517655,7.982309836401
    ));
#228 = B_SPLINE_CURVE_WITH_KNOTS('',2,(#229,#230,#231),.UNSPECIFIED.,.F.
  ,.F.,(3,3),(0.,1.),.PIECEWISE_BEZIER_KNOTS.);
#229 = CARTESIAN_POINT('',(20.127643312102,2.077550848533,7.46230668421)
  );
#230 = CARTESIAN_POINT('',(20.127643312102,2.20067810013,7.800596027693)
  );
#231 = CARTESIAN_POINT('',(19.934522292994,2.266816517655,7.982309836401
    ));
#232 = ORIENTED_EDGE('',*,*,#233,.F.);
#233 = EDGE_CURVE('',#234,#226,#236,.T.);
#234 = VERTEX_POINT('',#235);
#235 = CARTESIAN_POINT('',(19.934522292994,3.018570614283,7.70869372174)
  );
#236 = LINE('',#237,#238);
#237 = CARTESIAN_POINT('',(19.934522292994,3.018570614283,7.70869372174)
  );
#238 = VECTOR('',#239,1.);
#239 = DIRECTION('',(0.,-0.939692620786,0.342020143326));
#240 = ORIENTED_EDGE('',*,*,#241,.F.);
#241 = EDGE_CURVE('',#201,#234,#242,.T.);
#242 = B_SPLINE_CURVE_WITH_KNOTS('',2,(#243,#244,#245),.UNSPECIFIED.,.F.
  ,.F.,(3,3),(0.,1.),.PIECEWISE_BEZIER_KNOTS.);
#243 = CARTESIAN_POINT('',(20.127643312102,2.829304945161,7.18869056955)
  );
#244 = CARTESIAN_POINT('',(20.127643312102,2.952432196759,7.526979913033
    ));
#245 = CARTESIAN_POINT('',(19.934522292994,3.018570614283,7.70869372174)
  );
#246 = SURFACE_OF_LINEAR_EXTRUSION('',#247,#251);
#247 = B_SPLINE_CURVE_WITH_KNOTS('',2,(#248,#249,#250),.UNSPECIFIED.,.F.
  ,.F.,(3,3),(0.,1.),.PIECEWISE_BEZIER_KNOTS.);
#248 = CARTESIAN_POINT('',(20.127643312102,2.829304945161,7.18869056955)
  );
#249 = CARTESIAN_POINT('',(20.127643312102,2.952432196759,7.526979913033
    ));
#250 = CARTESIAN_POINT('',(19.934522292994,3.018570614283,7.70869372174)
  );
#251 = VECTOR('',#252,1.);
#252 = DIRECTION('',(-0.,0.939692620786,-0.342020143326));
#253 = ADVANCED_FACE('',(#254),#279,.T.);
#254 = FACE_BOUND('',#255,.T.);
#255 = EDGE_LOOP('',(#256,#257,#265,#273));
#256 = ORIENTED_EDGE('',*,*,#233,.T.);
#257 = ORIENTED_EDGE('',*,*,#258,.T.);
#258 = EDGE_CURVE('',#226,#259,#261,.T.);
#259 = VERTEX_POINT('',#260);
#260 = CARTESIAN_POINT('',(19.40152866242,2.332954935179,8.164023645108)
  );
#261 = B_SPLINE_CURVE_WITH_KNOTS('',2,(#262,#263,#264),.UNSPECIFIED.,.F.
  ,.F.,(3,3),(0.,1.),.PIECEWISE_BEZIER_KNOTS.);
#262 = CARTESIAN_POINT('',(19.934522292994,2.266816517655,7.982309836401
    ));
#263 = CARTESIAN_POINT('',(19.741656050955,2.332954935179,8.164023645108
    ));
#264 = CARTESIAN_POINT('',(19.40152866242,2.332954935179,8.164023645108)
  );
#265 = ORIENTED_EDGE('',*,*,#266,.F.);
#266 = EDGE_CURVE('',#267,#259,#269,.T.);
#267 = VERTEX_POINT('',#268);
#268 = CARTESIAN_POINT('',(19.40152866242,3.084709031808,7.890407530447)
  );
#269 = LINE('',#270,#271);
#270 = CARTESIAN_POINT('',(19.40152866242,3.084709031808,7.890407530447)
  );
#271 = VECTOR('',#272,1.);
#272 = DIRECTION('',(0.,-0.939692620786,0.342020143326));
#273 = ORIENTED_EDGE('',*,*,#274,.F.);
#274 = EDGE_CURVE('',#234,#267,#275,.T.);
#275 = B_SPLINE_CURVE_WITH_KNOTS('',2,(#276,#277,#278),.UNSPECIFIED.,.F.
  ,.F.,(3,3),(0.,1.),.PIECEWISE_BEZIER_KNOTS.);
#276 = CARTESIAN_POINT('',(19.934522292994,3.018570614283,7.70869372174)
  );
#277 = CARTESIAN_POINT('',(19.741656050955,3.084709031808,7.890407530447
    ));
#278 = CARTESIAN_POINT('',(19.40152866242,3.084709031808,7.890407530447)
  );
#279 = SURFACE_OF_LINEAR_EXTRUSION('',#280,#284);
#280 = B_SPLINE_CURVE_WITH_KNOTS('',2,(#281,#282,#283),.UNSPECIFIED.,.F.
  ,.F.,(3,3),(0.,1.),.PIECEWISE_BEZIER_KNOTS.);
#281 = CARTESIAN_POINT('',(19.934522292994,3.018570614283,7.70869372174)
  );
#282 = CARTESIAN_POINT('',(19.741656050955,3.084709031808,7.890407530447
    ));
#283 = CARTESIAN_POINT('',(19.40152866242,3.084709031808,7.890407530447)
  );
#284 = VECTOR('',#285,1.);
#285 = DIRECTION('',(-0.,0.939692620786,-0.342020143326));
#286 = ADVANCED_FACE('',(#287),#312,.T.);
#287 = FACE_BOUND('',#288,.T.);
#288 = EDGE_LOOP('',(#289,#290,#298,#306));
#289 = ORIENTED_EDGE('',*,*,#266,.T.);
#290 = ORIENTED_EDGE('',*,*,#291,.T.);
#291 = EDGE_CURVE('',#259,#292,#294,.T.);
#292 = VERTEX_POINT('',#293);
#293 = CARTESIAN_POINT('',(18.866496815287,2.263243823164,7.972493938961
    ));
#294 = B_SPLINE_CURVE_WITH_KNOTS('',2,(#295,#296,#297),.UNSPECIFIED.,.F.
  ,.F.,(3,3),(0.,1.),.PIECEWISE_BEZIER_KNOTS.);
#295 = CARTESIAN_POINT('',(19.40152866242,2.332954935179,8.164023645108)
  );
#296 = CARTESIAN_POINT('',(19.065222929936,2.332954935179,8.164023645108
    ));
#297 = CARTESIAN_POINT('',(18.866496815287,2.263243823164,7.972493938961
    ));
#298 = ORIENTED_EDGE('',*,*,#299,.F.);
#299 = EDGE_CURVE('',#300,#292,#302,.T.);
#300 = VERTEX_POINT('',#301);
#301 = CARTESIAN_POINT('',(18.866496815287,3.014997919793,7.6988778243)
  );
#302 = LINE('',#303,#304);
#303 = CARTESIAN_POINT('',(18.866496815287,3.014997919793,7.6988778243)
  );
#304 = VECTOR('',#305,1.);
#305 = DIRECTION('',(0.,-0.939692620786,0.342020143326));
#306 = ORIENTED_EDGE('',*,*,#307,.F.);
#307 = EDGE_CURVE('',#267,#300,#308,.T.);
#308 = B_SPLINE_CURVE_WITH_KNOTS('',2,(#309,#310,#311),.UNSPECIFIED.,.F.
  ,.F.,(3,3),(0.,1.),.PIECEWISE_BEZIER_KNOTS.);
#309 = CARTESIAN_POINT('',(19.40152866242,3.084709031808,7.890407530447)
  );
#310 = CARTESIAN_POINT('',(19.065222929936,3.084709031808,7.890407530447
    ));
#311 = CARTESIAN_POINT('',(18.866496815287,3.014997919793,7.6988778243)
  );
#312 = SURFACE_OF_LINEAR_EXTRUSION('',#313,#317);
#313 = B_SPLINE_CURVE_WITH_KNOTS('',2,(#314,#315,#316),.UNSPECIFIED.,.F.
  ,.F.,(3,3),(0.,1.),.PIECEWISE_BEZIER_KNOTS.);
#314 = CARTESIAN_POINT('',(19.40152866242,3.084709031808,7.890407530447)
  );
#315 = CARTESIAN_POINT('',(19.065222929936,3.084709031808,7.890407530447
    ));
#316 = CARTESIAN_POINT('',(18.866496815287,3.014997919793,7.6988778243)
  );
#317 = VECTOR('',#318,1.);
#318 = DIRECTION('',(-0.,0.939692620786,-0.342020143326));
#319 = ADVANCED_FACE('',(#320),#345,.T.);
#320 = FACE_BOUND('',#321,.T.);
#321 = EDGE_LOOP('',(#322,#323,#331,#339));
#322 = ORIENTED_EDGE('',*,*,#299,.T.);
#323 = ORIENTED_EDGE('',*,*,#324,.T.);
#324 = EDGE_CURVE('',#292,#325,#327,.T.);
#325 = VERTEX_POINT('',#326);
#326 = CARTESIAN_POINT('',(18.637197452229,2.031802931273,7.336615314551
    ));
#327 = B_SPLINE_CURVE_WITH_KNOTS('',2,(#328,#329,#330),.UNSPECIFIED.,.F.
  ,.F.,(3,3),(0.,1.),.PIECEWISE_BEZIER_KNOTS.);
#328 = CARTESIAN_POINT('',(18.866496815287,2.263243823164,7.972493938961
    ));
#329 = CARTESIAN_POINT('',(18.667770700637,2.193532711148,7.780964232813
    ));
#330 = CARTESIAN_POINT('',(18.637197452229,2.031802931273,7.336615314551
    ));
#331 = ORIENTED_EDGE('',*,*,#332,.F.);
#332 = EDGE_CURVE('',#333,#325,#335,.T.);
#333 = VERTEX_POINT('',#334);
#334 = CARTESIAN_POINT('',(18.637197452229,2.783557027901,7.06299919989)
  );
#335 = LINE('',#336,#337);
#336 = CARTESIAN_POINT('',(18.637197452229,2.783557027901,7.06299919989)
  );
#337 = VECTOR('',#338,1.);
#338 = DIRECTION('',(0.,-0.939692620786,0.342020143326));
#339 = ORIENTED_EDGE('',*,*,#340,.F.);
#340 = EDGE_CURVE('',#300,#333,#341,.T.);
#341 = B_SPLINE_CURVE_WITH_KNOTS('',2,(#342,#343,#344),.UNSPECIFIED.,.F.
  ,.F.,(3,3),(0.,1.),.PIECEWISE_BEZIER_KNOTS.);
#342 = CARTESIAN_POINT('',(18.866496815287,3.014997919793,7.6988778243)
  );
#343 = CARTESIAN_POINT('',(18.667770700637,2.945286807777,7.507348118153
    ));
#344 = CARTESIAN_POINT('',(18.637197452229,2.783557027901,7.06299919989)
  );
#345 = SURFACE_OF_LINEAR_EXTRUSION('',#346,#350);
#346 = B_SPLINE_CURVE_WITH_KNOTS('',2,(#347,#348,#349),.UNSPECIFIED.,.F.
  ,.F.,(3,3),(0.,1.),.PIECEWISE_BEZIER_KNOTS.);
#347 = CARTESIAN_POINT('',(18.866496815287,3.014997919793,7.6988778243)
  );
#348 = CARTESIAN_POINT('',(18.667770700637,2.945286807777,7.507348118153
    ));
#349 = CARTESIAN_POINT('',(18.637197452229,2.783557027901,7.06299919989)
  );
#350 = VECTOR('',#351,1.);
#351 = DIRECTION('',(-0.,0.939692620786,-0.342020143326));
#352 = ADVANCED_FACE('',(#353),#378,.T.);
#353 = FACE_BOUND('',#354,.T.);
#354 = EDGE_LOOP('',(#355,#356,#364,#372));
#355 = ORIENTED_EDGE('',*,*,#332,.T.);
#356 = ORIENTED_EDGE('',*,*,#357,.T.);
#357 = EDGE_CURVE('',#325,#358,#360,.T.);
#358 = VERTEX_POINT('',#359);
#359 = CARTESIAN_POINT('',(17.567133757962,2.068662681751,7.437886646676
    ));
#360 = LINE('',#361,#362);
#361 = CARTESIAN_POINT('',(18.637197452229,2.031802931273,7.336615314551
    ));
#362 = VECTOR('',#363,1.);
#363 = DIRECTION('',(-0.994966576024,3.427293152997E-02,
    9.416410547709E-02));
#364 = ORIENTED_EDGE('',*,*,#365,.F.);
#365 = EDGE_CURVE('',#366,#358,#368,.T.);
#366 = VERTEX_POINT('',#367);
#367 = CARTESIAN_POINT('',(17.567133757962,2.820416778379,7.164270532016
    ));
#368 = LINE('',#369,#370);
#369 = CARTESIAN_POINT('',(17.567133757962,2.820416778379,7.164270532016
    ));
#370 = VECTOR('',#371,1.);
#371 = DIRECTION('',(0.,-0.939692620786,0.342020143326));
#372 = ORIENTED_EDGE('',*,*,#373,.F.);
#373 = EDGE_CURVE('',#333,#366,#374,.T.);
#374 = LINE('',#375,#376);
#375 = CARTESIAN_POINT('',(18.637197452229,2.783557027901,7.06299919989)
  );
#376 = VECTOR('',#377,1.);
#377 = DIRECTION('',(-0.994966576024,3.427293152997E-02,
    9.416410547709E-02));
#378 = PLANE('',#379);
#379 = AXIS2_PLACEMENT_3D('',#380,#381,#382);
#380 = CARTESIAN_POINT('',(18.637197452229,2.783557027901,7.06299919989)
  );
#381 = DIRECTION('',(-0.100207348014,-0.340298610936,-0.934962749418));
#382 = DIRECTION('',(-0.994966576024,3.427293152997E-02,
    9.416410547709E-02));
#383 = ADVANCED_FACE('',(#384),#409,.T.);
#384 = FACE_BOUND('',#385,.T.);
#385 = EDGE_LOOP('',(#386,#387,#395,#403));
#386 = ORIENTED_EDGE('',*,*,#365,.T.);
#387 = ORIENTED_EDGE('',*,*,#388,.T.);
#388 = EDGE_CURVE('',#358,#389,#391,.T.);
#389 = VERTEX_POINT('',#390);
#390 = CARTESIAN_POINT('',(18.167133757962,2.506797020768,8.641650849813
    ));
#391 = B_SPLINE_CURVE_WITH_KNOTS('',2,(#392,#393,#394),.UNSPECIFIED.,.F.
  ,.F.,(3,3),(0.,1.),.PIECEWISE_BEZIER_KNOTS.);
#392 = CARTESIAN_POINT('',(17.567133757962,2.068662681751,7.437886646676
    ));
#393 = CARTESIAN_POINT('',(17.662675159236,2.373910213488,8.27654734747)
  );
#394 = CARTESIAN_POINT('',(18.167133757962,2.506797020768,8.641650849813
    ));
#395 = ORIENTED_EDGE('',*,*,#396,.F.);
#396 = EDGE_CURVE('',#397,#389,#399,.T.);
#397 = VERTEX_POINT('',#398);
#398 = CARTESIAN_POINT('',(18.167133757962,3.258551117396,8.368034735153
    ));
#399 = LINE('',#400,#401);
#400 = CARTESIAN_POINT('',(18.167133757962,3.258551117396,8.368034735153
    ));
#401 = VECTOR('',#402,1.);
#402 = DIRECTION('',(0.,-0.939692620786,0.342020143326));
#403 = ORIENTED_EDGE('',*,*,#404,.F.);
#404 = EDGE_CURVE('',#366,#397,#405,.T.);
#405 = B_SPLINE_CURVE_WITH_KNOTS('',2,(#406,#407,#408),.UNSPECIFIED.,.F.
  ,.F.,(3,3),(0.,1.),.PIECEWISE_BEZIER_KNOTS.);
#406 = CARTESIAN_POINT('',(17.567133757962,2.820416778379,7.164270532016
    ));
#407 = CARTESIAN_POINT('',(17.662675159236,3.125664310117,8.002931232809
    ));
#408 = CARTESIAN_POINT('',(18.167133757962,3.258551117396,8.368034735153
    ));
#409 = SURFACE_OF_LINEAR_EXTRUSION('',#410,#414);
#410 = B_SPLINE_CURVE_WITH_KNOTS('',2,(#411,#412,#413),.UNSPECIFIED.,.F.
  ,.F.,(3,3),(0.,1.),.PIECEWISE_BEZIER_KNOTS.);
#411 = CARTESIAN_POINT('',(17.567133757962,2.820416778379,7.164270532016
    ));
#412 = CARTESIAN_POINT('',(17.662675159236,3.125664310117,8.002931232809
    ));
#413 = CARTESIAN_POINT('',(18.167133757962,3.258551117396,8.368034735153
    ));
#414 = VECTOR('',#415,1.);
#415 = DIRECTION('',(-0.,0.939692620786,-0.342020143326));
#416 = ADVANCED_FACE('',(#417),#442,.T.);
#417 = FACE_BOUND('',#418,.T.);
#418 = EDGE_LOOP('',(#419,#420,#428,#436));
#419 = ORIENTED_EDGE('',*,*,#396,.T.);
#420 = ORIENTED_EDGE('',*,*,#421,.T.);
#421 = EDGE_CURVE('',#389,#422,#424,.T.);
#422 = VERTEX_POINT('',#423);
#423 = CARTESIAN_POINT('',(19.428280254777,2.639683828047,9.006754352157
    ));
#424 = B_SPLINE_CURVE_WITH_KNOTS('',2,(#425,#426,#427),.UNSPECIFIED.,.F.
  ,.F.,(3,3),(0.,1.),.PIECEWISE_BEZIER_KNOTS.);
#425 = CARTESIAN_POINT('',(18.167133757962,2.506797020768,8.641650849813
    ));
#426 = CARTESIAN_POINT('',(18.671592356688,2.639683828047,9.006754352157
    ));
#427 = CARTESIAN_POINT('',(19.428280254777,2.639683828047,9.006754352157
    ));
#428 = ORIENTED_EDGE('',*,*,#429,.F.);
#429 = EDGE_CURVE('',#430,#422,#432,.T.);
#430 = VERTEX_POINT('',#431);
#431 = CARTESIAN_POINT('',(19.428280254777,3.391437924676,8.733138237496
    ));
#432 = LINE('',#433,#434);
#433 = CARTESIAN_POINT('',(19.428280254777,3.391437924676,8.733138237496
    ));
#434 = VECTOR('',#435,1.);
#435 = DIRECTION('',(0.,-0.939692620786,0.342020143326));
#436 = ORIENTED_EDGE('',*,*,#437,.F.);
#437 = EDGE_CURVE('',#397,#430,#438,.T.);
#438 = B_SPLINE_CURVE_WITH_KNOTS('',2,(#439,#440,#441),.UNSPECIFIED.,.F.
  ,.F.,(3,3),(0.,1.),.PIECEWISE_BEZIER_KNOTS.);
#439 = CARTESIAN_POINT('',(18.167133757962,3.258551117396,8.368034735153
    ));
#440 = CARTESIAN_POINT('',(18.671592356688,3.391437924676,8.733138237496
    ));
#441 = CARTESIAN_POINT('',(19.428280254777,3.391437924676,8.733138237496
    ));
#442 = SURFACE_OF_LINEAR_EXTRUSION('',#443,#447);
#443 = B_SPLINE_CURVE_WITH_KNOTS('',2,(#444,#445,#446),.UNSPECIFIED.,.F.
  ,.F.,(3,3),(0.,1.),.PIECEWISE_BEZIER_KNOTS.);
#444 = CARTESIAN_POINT('',(18.167133757962,3.258551117396,8.368034735153
    ));
#445 = CARTESIAN_POINT('',(18.671592356688,3.391437924676,8.733138237496
    ));
#446 = CARTESIAN_POINT('',(19.428280254777,3.391437924676,8.733138237496
    ));
#447 = VECTOR('',#448,1.);
#448 = DIRECTION('',(-0.,0.939692620786,-0.342020143326));
#449 = ADVANCED_FACE('',(#450),#475,.T.);
#450 = FACE_BOUND('',#451,.T.);
#451 = EDGE_LOOP('',(#452,#453,#461,#469));
#452 = ORIENTED_EDGE('',*,*,#429,.T.);
#453 = ORIENTED_EDGE('',*,*,#454,.T.);
#454 = EDGE_CURVE('',#422,#455,#457,.T.);
#455 = VERTEX_POINT('',#456);
#456 = CARTESIAN_POINT('',(20.731464968153,2.486145103833,8.584910174367
    ));
#457 = B_SPLINE_CURVE_WITH_KNOTS('',2,(#458,#459,#460),.UNSPECIFIED.,.F.
  ,.F.,(3,3),(0.,1.),.PIECEWISE_BEZIER_KNOTS.);
#458 = CARTESIAN_POINT('',(19.428280254777,2.639683828047,9.006754352157
    ));
#459 = CARTESIAN_POINT('',(20.257579617834,2.639683828047,9.006754352157
    ));
#460 = CARTESIAN_POINT('',(20.731464968153,2.486145103833,8.584910174367
    ));
#461 = ORIENTED_EDGE('',*,*,#462,.F.);
#462 = EDGE_CURVE('',#463,#455,#465,.T.);
#463 = VERTEX_POINT('',#464);
#464 = CARTESIAN_POINT('',(20.731464968153,3.237899200462,8.311294059706
    ));
#465 = LINE('',#466,#467);
#466 = CARTESIAN_POINT('',(20.731464968153,3.237899200462,8.311294059706
    ));
#467 = VECTOR('',#468,1.);
#468 = DIRECTION('',(0.,-0.939692620786,0.342020143326));
#469 = ORIENTED_EDGE('',*,*,#470,.F.);
#470 = EDGE_CURVE('',#430,#463,#471,.T.);
#471 = B_SPLINE_CURVE_WITH_KNOTS('',2,(#472,#473,#474),.UNSPECIFIED.,.F.
  ,.F.,(3,3),(0.,1.),.PIECEWISE_BEZIER_KNOTS.);
#472 = CARTESIAN_POINT('',(19.428280254777,3.391437924676,8.733138237496
    ));
#473 = CARTESIAN_POINT('',(20.257579617834,3.391437924676,8.733138237496
    ));
#474 = CARTESIAN_POINT('',(20.731464968153,3.237899200462,8.311294059706
    ));
#475 = SURFACE_OF_LINEAR_EXTRUSION('',#476,#480);
#476 = B_SPLINE_CURVE_WITH_KNOTS('',2,(#477,#478,#479),.UNSPECIFIED.,.F.
  ,.F.,(3,3),(0.,1.),.PIECEWISE_BEZIER_KNOTS.);
#477 = CARTESIAN_POINT('',(19.428280254777,3.391437924676,8.733138237496
    ));
#478 = CARTESIAN_POINT('',(20.257579617834,3.391437924676,8.733138237496
    ));
#479 = CARTESIAN_POINT('',(20.731464968153,3.237899200462,8.311294059706
    ));
#480 = VECTOR('',#481,1.);
#481 = DIRECTION('',(-0.,0.939692620786,-0.342020143326));
#482 = ADVANCED_FACE('',(#483),#508,.T.);
#483 = FACE_BOUND('',#484,.T.);
#484 = EDGE_LOOP('',(#485,#486,#494,#502));
#485 = ORIENTED_EDGE('',*,*,#462,.T.);
#486 = ORIENTED_EDGE('',*,*,#487,.T.);
#487 = EDGE_CURVE('',#455,#488,#490,.T.);
#488 = VERTEX_POINT('',#489);
#489 = CARTESIAN_POINT('',(21.205350318471,2.104215348879,7.535566796812
    ));
#490 = B_SPLINE_CURVE_WITH_KNOTS('',2,(#491,#492,#493),.UNSPECIFIED.,.F.
  ,.F.,(3,3),(0.,1.),.PIECEWISE_BEZIER_KNOTS.);
#491 = CARTESIAN_POINT('',(20.731464968153,2.486145103833,8.584910174367
    ));
#492 = CARTESIAN_POINT('',(21.205350318471,2.332606379619,8.163065996577
    ));
#493 = CARTESIAN_POINT('',(21.205350318471,2.104215348879,7.535566796812
    ));
#494 = ORIENTED_EDGE('',*,*,#495,.F.);
#495 = EDGE_CURVE('',#496,#488,#498,.T.);
#496 = VERTEX_POINT('',#497);
#497 = CARTESIAN_POINT('',(21.205350318471,2.855969445507,7.261950682151
    ));
#498 = LINE('',#499,#500);
#499 = CARTESIAN_POINT('',(21.205350318471,2.855969445507,7.261950682151
    ));
#500 = VECTOR('',#501,1.);
#501 = DIRECTION('',(0.,-0.939692620786,0.342020143326));
#502 = ORIENTED_EDGE('',*,*,#503,.F.);
#503 = EDGE_CURVE('',#463,#496,#504,.T.);
#504 = B_SPLINE_CURVE_WITH_KNOTS('',2,(#505,#506,#507),.UNSPECIFIED.,.F.
  ,.F.,(3,3),(0.,1.),.PIECEWISE_BEZIER_KNOTS.);
#505 = CARTESIAN_POINT('',(20.731464968153,3.237899200462,8.311294059706
    ));
#506 = CARTESIAN_POINT('',(21.205350318471,3.084360476248,7.889449881917
    ));
#507 = CARTESIAN_POINT('',(21.205350318471,2.855969445507,7.261950682151
    ));
#508 = SURFACE_OF_LINEAR_EXTRUSION('',#509,#513);
#509 = B_SPLINE_CURVE_WITH_KNOTS('',2,(#510,#511,#512),.UNSPECIFIED.,.F.
  ,.F.,(3,3),(0.,1.),.PIECEWISE_BEZIER_KNOTS.);
#510 = CARTESIAN_POINT('',(20.731464968153,3.237899200462,8.311294059706
    ));
#511 = CARTESIAN_POINT('',(21.205350318471,3.084360476248,7.889449881917
    ));
#512 = CARTESIAN_POINT('',(21.205350318471,2.855969445507,7.261950682151
    ));
#513 = VECTOR('',#514,1.);
#514 = DIRECTION('',(-0.,0.939692620786,-0.342020143326));
#515 = ADVANCED_FACE('',(#516),#541,.T.);
#516 = FACE_BOUND('',#517,.T.);
#517 = EDGE_LOOP('',(#518,#519,#527,#535));
#518 = ORIENTED_EDGE('',*,*,#495,.T.);
#519 = ORIENTED_EDGE('',*,*,#520,.T.);
#520 = EDGE_CURVE('',#488,#521,#523,.T.);
#521 = VERTEX_POINT('',#522);
#522 = CARTESIAN_POINT('',(21.069554140127,1.856828040114,6.855875752121
    ));
#523 = B_SPLINE_CURVE_WITH_KNOTS('',2,(#524,#525,#526),.UNSPECIFIED.,.F.
  ,.F.,(3,3),(0.,1.),.PIECEWISE_BEZIER_KNOTS.);
#524 = CARTESIAN_POINT('',(21.205350318471,2.104215348879,7.535566796812
    ));
#525 = CARTESIAN_POINT('',(21.205350318471,1.97429126386,7.178603306979)
  );
#526 = CARTESIAN_POINT('',(21.069554140127,1.856828040114,6.855875752121
    ));
#527 = ORIENTED_EDGE('',*,*,#528,.F.);
#528 = EDGE_CURVE('',#529,#521,#531,.T.);
#529 = VERTEX_POINT('',#530);
#530 = CARTESIAN_POINT('',(21.069554140127,2.608582136743,6.58225963746)
  );
#531 = LINE('',#532,#533);
#532 = CARTESIAN_POINT('',(21.069554140127,2.608582136743,6.58225963746)
  );
#533 = VECTOR('',#534,1.);
#534 = DIRECTION('',(0.,-0.939692620786,0.342020143326));
#535 = ORIENTED_EDGE('',*,*,#536,.F.);
#536 = EDGE_CURVE('',#496,#529,#537,.T.);
#537 = B_SPLINE_CURVE_WITH_KNOTS('',2,(#538,#539,#540),.UNSPECIFIED.,.F.
  ,.F.,(3,3),(0.,1.),.PIECEWISE_BEZIER_KNOTS.);
#538 = CARTESIAN_POINT('',(21.205350318471,2.855969445507,7.261950682151
    ));
#539 = CARTESIAN_POINT('',(21.205350318471,2.726045360489,6.904987192319
    ));
#540 = CARTESIAN_POINT('',(21.069554140127,2.608582136743,6.58225963746)
  );
#541 = SURFACE_OF_LINEAR_EXTRUSION('',#542,#546);
#542 = B_SPLINE_CURVE_WITH_KNOTS('',2,(#543,#544,#545),.UNSPECIFIED.,.F.
  ,.F.,(3,3),(0.,1.),.PIECEWISE_BEZIER_KNOTS.);
#543 = CARTESIAN_POINT('',(21.205350318471,2.855969445507,7.261950682151
    ));
#544 = CARTESIAN_POINT('',(21.205350318471,2.726045360489,6.904987192319
    ));
#545 = CARTESIAN_POINT('',(21.069554140127,2.608582136743,6.58225963746)
  );
#546 = VECTOR('',#547,1.);
#547 = DIRECTION('',(-0.,0.939692620786,-0.342020143326));
#548 = ADVANCED_FACE('',(#549),#574,.T.);
#549 = FACE_BOUND('',#550,.T.);
#550 = EDGE_LOOP('',(#551,#552,#560,#568));
#551 = ORIENTED_EDGE('',*,*,#528,.T.);
#552 = ORIENTED_EDGE('',*,*,#553,.T.);
#553 = EDGE_CURVE('',#521,#554,#556,.T.);
#554 = VERTEX_POINT('',#555);
#555 = CARTESIAN_POINT('',(20.63974522293,1.610660675809,6.179536477288)
  );
#556 = B_SPLINE_CURVE_WITH_KNOTS('',2,(#557,#558,#559),.UNSPECIFIED.,.F.
  ,.F.,(3,3),(0.,1.),.PIECEWISE_BEZIER_KNOTS.);
#557 = CARTESIAN_POINT('',(21.069554140127,1.856828040114,6.855875752121
    ));
#558 = CARTESIAN_POINT('',(20.934012738854,1.739364816368,6.533148197262
    ));
#559 = CARTESIAN_POINT('',(20.63974522293,1.610660675809,6.179536477288)
  );
#560 = ORIENTED_EDGE('',*,*,#561,.F.);
#561 = EDGE_CURVE('',#562,#554,#564,.T.);
#562 = VERTEX_POINT('',#563);
#563 = CARTESIAN_POINT('',(20.63974522293,2.362414772438,5.905920362627)
  );
#564 = LINE('',#565,#566);
#565 = CARTESIAN_POINT('',(20.63974522293,2.362414772438,5.905920362627)
  );
#566 = VECTOR('',#567,1.);
#567 = DIRECTION('',(0.,-0.939692620786,0.342020143326));
#568 = ORIENTED_EDGE('',*,*,#569,.F.);
#569 = EDGE_CURVE('',#529,#562,#570,.T.);
#570 = B_SPLINE_CURVE_WITH_KNOTS('',2,(#571,#572,#573),.UNSPECIFIED.,.F.
  ,.F.,(3,3),(0.,1.),.PIECEWISE_BEZIER_KNOTS.);
#571 = CARTESIAN_POINT('',(21.069554140127,2.608582136743,6.58225963746)
  );
#572 = CARTESIAN_POINT('',(20.934012738854,2.491118912997,6.259532082602
    ));
#573 = CARTESIAN_POINT('',(20.63974522293,2.362414772438,5.905920362627)
  );
#574 = SURFACE_OF_LINEAR_EXTRUSION('',#575,#579);
#575 = B_SPLINE_CURVE_WITH_KNOTS('',2,(#576,#577,#578),.UNSPECIFIED.,.F.
  ,.F.,(3,3),(0.,1.),.PIECEWISE_BEZIER_KNOTS.);
#576 = CARTESIAN_POINT('',(21.069554140127,2.608582136743,6.58225963746)
  );
#577 = CARTESIAN_POINT('',(20.934012738854,2.491118912997,6.259532082602
    ));
#578 = CARTESIAN_POINT('',(20.63974522293,2.362414772438,5.905920362627)
  );
#579 = VECTOR('',#580,1.);
#580 = DIRECTION('',(-0.,0.939692620786,-0.342020143326));
#581 = ADVANCED_FACE('',(#582),#607,.T.);
#582 = FACE_BOUND('',#583,.T.);
#583 = EDGE_LOOP('',(#584,#585,#593,#601));
#584 = ORIENTED_EDGE('',*,*,#561,.T.);
#585 = ORIENTED_EDGE('',*,*,#586,.T.);
#586 = EDGE_CURVE('',#554,#587,#589,.T.);
#587 = VERTEX_POINT('',#588);
#588 = CARTESIAN_POINT('',(19.936560509554,1.365190422625,5.505112499516
    ));
#589 = B_SPLINE_CURVE_WITH_KNOTS('',2,(#590,#591,#592),.UNSPECIFIED.,.F.
  ,.F.,(3,3),(0.,1.),.PIECEWISE_BEZIER_KNOTS.);
#590 = CARTESIAN_POINT('',(20.63974522293,1.610660675809,6.179536477288)
  );
#591 = CARTESIAN_POINT('',(20.444840764331,1.525351702481,5.94515199939)
  );
#592 = CARTESIAN_POINT('',(19.936560509554,1.365190422625,5.505112499516
    ));
#593 = ORIENTED_EDGE('',*,*,#594,.F.);
#594 = EDGE_CURVE('',#595,#587,#597,.T.);
#595 = VERTEX_POINT('',#596);
#596 = CARTESIAN_POINT('',(19.936560509554,2.116944519254,5.231496384855
    ));
#597 = LINE('',#598,#599);
#598 = CARTESIAN_POINT('',(19.936560509554,2.116944519254,5.231496384855
    ));
#599 = VECTOR('',#600,1.);
#600 = DIRECTION('',(0.,-0.939692620786,0.342020143326));
#601 = ORIENTED_EDGE('',*,*,#602,.F.);
#602 = EDGE_CURVE('',#562,#595,#603,.T.);
#603 = B_SPLINE_CURVE_WITH_KNOTS('',2,(#604,#605,#606),.UNSPECIFIED.,.F.
  ,.F.,(3,3),(0.,1.),.PIECEWISE_BEZIER_KNOTS.);
#604 = CARTESIAN_POINT('',(20.63974522293,2.362414772438,5.905920362627)
  );
#605 = CARTESIAN_POINT('',(20.444840764331,2.277105799109,5.671535884729
    ));
#606 = CARTESIAN_POINT('',(19.936560509554,2.116944519254,5.231496384855
    ));
#607 = SURFACE_OF_LINEAR_EXTRUSION('',#608,#612);
#608 = B_SPLINE_CURVE_WITH_KNOTS('',2,(#609,#610,#611),.UNSPECIFIED.,.F.
  ,.F.,(3,3),(0.,1.),.PIECEWISE_BEZIER_KNOTS.);
#609 = CARTESIAN_POINT('',(20.63974522293,2.362414772438,5.905920362627)
  );
#610 = CARTESIAN_POINT('',(20.444840764331,2.277105799109,5.671535884729
    ));
#611 = CARTESIAN_POINT('',(19.936560509554,2.116944519254,5.231496384855
    ));
#612 = VECTOR('',#613,1.);
#613 = DIRECTION('',(-0.,0.939692620786,-0.342020143326));
#614 = ADVANCED_FACE('',(#615),#640,.T.);
#615 = FACE_BOUND('',#616,.T.);
#616 = EDGE_LOOP('',(#617,#618,#626,#634));
#617 = ORIENTED_EDGE('',*,*,#594,.T.);
#618 = ORIENTED_EDGE('',*,*,#619,.T.);
#619 = EDGE_CURVE('',#587,#620,#622,.T.);
#620 = VERTEX_POINT('',#621);
#621 = CARTESIAN_POINT('',(19.292484076433,1.152571530978,4.920946895766
    ));
#622 = B_SPLINE_CURVE_WITH_KNOTS('',2,(#623,#624,#625),.UNSPECIFIED.,.F.
  ,.F.,(3,3),(0.,1.),.PIECEWISE_BEZIER_KNOTS.);
#623 = CARTESIAN_POINT('',(19.936560509554,1.365190422625,5.505112499516
    ));
#624 = CARTESIAN_POINT('',(19.428280254777,1.20511628166,5.065312411775)
  );
#625 = CARTESIAN_POINT('',(19.292484076433,1.152571530978,4.920946895766
    ));
#626 = ORIENTED_EDGE('',*,*,#627,.F.);
#627 = EDGE_CURVE('',#628,#620,#630,.T.);
#628 = VERTEX_POINT('',#629);
#629 = CARTESIAN_POINT('',(19.292484076433,1.904325627607,4.647330781106
    ));
#630 = LINE('',#631,#632);
#631 = CARTESIAN_POINT('',(19.292484076433,1.904325627607,4.647330781106
    ));
#632 = VECTOR('',#633,1.);
#633 = DIRECTION('',(0.,-0.939692620786,0.342020143326));
#634 = ORIENTED_EDGE('',*,*,#635,.F.);
#635 = EDGE_CURVE('',#595,#628,#636,.T.);
#636 = B_SPLINE_CURVE_WITH_KNOTS('',2,(#637,#638,#639),.UNSPECIFIED.,.F.
  ,.F.,(3,3),(0.,1.),.PIECEWISE_BEZIER_KNOTS.);
#637 = CARTESIAN_POINT('',(19.936560509554,2.116944519254,5.231496384855
    ));
#638 = CARTESIAN_POINT('',(19.428280254777,1.956870378288,4.791696297114
    ));
#639 = CARTESIAN_POINT('',(19.292484076433,1.904325627607,4.647330781106
    ));
#640 = SURFACE_OF_LINEAR_EXTRUSION('',#641,#645);
#641 = B_SPLINE_CURVE_WITH_KNOTS('',2,(#642,#643,#644),.UNSPECIFIED.,.F.
  ,.F.,(3,3),(0.,1.),.PIECEWISE_BEZIER_KNOTS.);
#642 = CARTESIAN_POINT('',(19.936560509554,2.116944519254,5.231496384855
    ));
#643 = CARTESIAN_POINT('',(19.428280254777,1.956870378288,4.791696297114
    ));
#644 = CARTESIAN_POINT('',(19.292484076433,1.904325627607,4.647330781106
    ));
#645 = VECTOR('',#646,1.);
#646 = DIRECTION('',(-0.,0.939692620786,-0.342020143326));
#647 = ADVANCED_FACE('',(#648),#673,.T.);
#648 = FACE_BOUND('',#649,.T.);
#649 = EDGE_LOOP('',(#650,#651,#659,#667));
#650 = ORIENTED_EDGE('',*,*,#627,.T.);
#651 = ORIENTED_EDGE('',*,*,#652,.T.);
#652 = EDGE_CURVE('',#620,#653,#655,.T.);
#653 = VERTEX_POINT('',#654);
#654 = CARTESIAN_POINT('',(19.072866242038,1.050270474095,4.639877051995
    ));
#655 = B_SPLINE_CURVE_WITH_KNOTS('',2,(#656,#657,#658),.UNSPECIFIED.,.F.
  ,.F.,(3,3),(0.,1.),.PIECEWISE_BEZIER_KNOTS.);
#656 = CARTESIAN_POINT('',(19.292484076433,1.152571530978,4.920946895766
    ));
#657 = CARTESIAN_POINT('',(19.156942675159,1.100113919186,4.77682079189)
  );
#658 = CARTESIAN_POINT('',(19.072866242038,1.050270474095,4.639877051995
    ));
#659 = ORIENTED_EDGE('',*,*,#660,.F.);
#660 = EDGE_CURVE('',#661,#653,#663,.T.);
#661 = VERTEX_POINT('',#662);
#662 = CARTESIAN_POINT('',(19.072866242038,1.802024570724,4.366260937334
    ));
#663 = LINE('',#664,#665);
#664 = CARTESIAN_POINT('',(19.072866242038,1.802024570724,4.366260937334
    ));
#665 = VECTOR('',#666,1.);
#666 = DIRECTION('',(0.,-0.939692620786,0.342020143326));
#667 = ORIENTED_EDGE('',*,*,#668,.F.);
#668 = EDGE_CURVE('',#628,#661,#669,.T.);
#669 = B_SPLINE_CURVE_WITH_KNOTS('',2,(#670,#671,#672),.UNSPECIFIED.,.F.
  ,.F.,(3,3),(0.,1.),.PIECEWISE_BEZIER_KNOTS.);
#670 = CARTESIAN_POINT('',(19.292484076433,1.904325627607,4.647330781106
    ));
#671 = CARTESIAN_POINT('',(19.156942675159,1.851868015815,4.50320467723)
  );
#672 = CARTESIAN_POINT('',(19.072866242038,1.802024570724,4.366260937334
    ));
#673 = SURFACE_OF_LINEAR_EXTRUSION('',#674,#678);
#674 = B_SPLINE_CURVE_WITH_KNOTS('',2,(#675,#676,#677),.UNSPECIFIED.,.F.
  ,.F.,(3,3),(0.,1.),.PIECEWISE_BEZIER_KNOTS.);
#675 = CARTESIAN_POINT('',(19.292484076433,1.904325627607,4.647330781106
    ));
#676 = CARTESIAN_POINT('',(19.156942675159,1.851868015815,4.50320467723)
  );
#677 = CARTESIAN_POINT('',(19.072866242038,1.802024570724,4.366260937334
    ));
#678 = VECTOR('',#679,1.);
#679 = DIRECTION('',(-0.,0.939692620786,-0.342020143326));
#680 = ADVANCED_FACE('',(#681),#697,.T.);
#681 = FACE_BOUND('',#682,.T.);
#682 = EDGE_LOOP('',(#683,#684,#690,#691));
#683 = ORIENTED_EDGE('',*,*,#660,.T.);
#684 = ORIENTED_EDGE('',*,*,#685,.T.);
#685 = EDGE_CURVE('',#653,#24,#686,.T.);
#686 = LINE('',#687,#688);
#687 = CARTESIAN_POINT('',(19.072866242038,1.050270474095,4.639877051995
    ));
#688 = VECTOR('',#689,1.);
#689 = DIRECTION('',(1.,0.,0.));
#690 = ORIENTED_EDGE('',*,*,#21,.F.);
#691 = ORIENTED_EDGE('',*,*,#692,.F.);
#692 = EDGE_CURVE('',#661,#22,#693,.T.);
#693 = LINE('',#694,#695);
#694 = CARTESIAN_POINT('',(19.072866242038,1.802024570724,4.366260937334
    ));
#695 = VECTOR('',#696,1.);
#696 = DIRECTION('',(1.,0.,0.));
#697 = PLANE('',#698);
#698 = AXIS2_PLACEMENT_3D('',#699,#700,#701);
#699 = CARTESIAN_POINT('',(19.072866242038,1.802024570724,4.366260937334
    ));
#700 = DIRECTION('',(0.,0.342020143326,0.939692620786));
#701 = DIRECTION('',(1.,0.,0.));
#702 = ADVANCED_FACE('',(#703),#726,.F.);
#703 = FACE_BOUND('',#704,.T.);
#704 = EDGE_LOOP('',(#705,#706,#707,#708,#709,#710,#711,#712,#713,#714,
    #715,#716,#717,#718,#719,#720,#721,#722,#723,#724,#725));
#705 = ORIENTED_EDGE('',*,*,#47,.T.);
#706 = ORIENTED_EDGE('',*,*,#78,.T.);
#707 = ORIENTED_EDGE('',*,*,#109,.T.);
#708 = ORIENTED_EDGE('',*,*,#142,.T.);
#709 = ORIENTED_EDGE('',*,*,#175,.T.);
#710 = ORIENTED_EDGE('',*,*,#208,.T.);
#711 = ORIENTED_EDGE('',*,*,#241,.T.);
#712 = ORIENTED_EDGE('',*,*,#274,.T.);
#713 = ORIENTED_EDGE('',*,*,#307,.T.);
#714 = ORIENTED_EDGE('',*,*,#340,.T.);
#715 = ORIENTED_EDGE('',*,*,#373,.T.);
#716 = ORIENTED_EDGE('',*,*,#404,.T.);
#717 = ORIENTED_EDGE('',*,*,#437,.T.);
#718 = ORIENTED_EDGE('',*,*,#470,.T.);
#719 = ORIENTED_EDGE('',*,*,#503,.T.);
#720 = ORIENTED_EDGE('',*,*,#536,.T.);
#721 = ORIENTED_EDGE('',*,*,#569,.T.);
#722 = ORIENTED_EDGE('',*,*,#602,.T.);
#723 = ORIENTED_EDGE('',*,*,#635,.T.);
#724 = ORIENTED_EDGE('',*,*,#668,.T.);
#725 = ORIENTED_EDGE('',*,*,#692,.T.);
#726 = PLANE('',#727);
#727 = AXIS2_PLACEMENT_3D('',#728,#729,#730);
#728 = CARTESIAN_POINT('',(19.466729055352,2.361698988263,5.903953761769
    ));
#729 = DIRECTION('',(0.,-0.939692620786,0.342020143326));
#730 = DIRECTION('',(1.,0.,0.));
#731 = ADVANCED_FACE('',(#732),#755,.T.);
#732 = FACE_BOUND('',#733,.F.);
#733 = EDGE_LOOP('',(#734,#735,#736,#737,#738,#739,#740,#741,#742,#743,
    #744,#745,#746,#747,#748,#749,#750,#751,#752,#753,#754));
#734 = ORIENTED_EDGE('',*,*,#31,.T.);
#735 = ORIENTED_EDGE('',*,*,#62,.T.);
#736 = ORIENTED_EDGE('',*,*,#93,.T.);
#737 = ORIENTED_EDGE('',*,*,#126,.T.);
#738 = ORIENTED_EDGE('',*,*,#159,.T.);
#739 = ORIENTED_EDGE('',*,*,#192,.T.);
#740 = ORIENTED_EDGE('',*,*,#225,.T.);
#741 = ORIENTED_EDGE('',*,*,#258,.T.);
#742 = ORIENTED_EDGE('',*,*,#291,.T.);
#743 = ORIENTED_EDGE('',*,*,#324,.T.);
#744 = ORIENTED_EDGE('',*,*,#357,.T.);
#745 = ORIENTED_EDGE('',*,*,#388,.T.);
#746 = ORIENTED_EDGE('',*,*,#421,.T.);
#747 = ORIENTED_EDGE('',*,*,#454,.T.);
#748 = ORIENTED_EDGE('',*,*,#487,.T.);
#749 = ORIENTED_EDGE('',*,*,#520,.T.);
#750 = ORIENTED_EDGE('',*,*,#553,.T.);
#751 = ORIENTED_EDGE('',*,*,#586,.T.);
#752 = ORIENTED_EDGE('',*,*,#619,.T.);
#753 = ORIENTED_EDGE('',*,*,#652,.T.);
#754 = ORIENTED_EDGE('',*,*,#685,.T.);
#755 = PLANE('',#756);
#756 = AXIS2_PLACEMENT_3D('',#757,#758,#759);
#757 = CARTESIAN_POINT('',(19.466729055352,1.609944891634,6.17756987643)
  );
#758 = DIRECTION('',(0.,-0.939692620786,0.342020143326));
#759 = DIRECTION('',(1.,0.,0.));
#760 = MANIFOLD_SOLID_BREP('',#761);
#761 = CLOSED_SHELL('',(#762,#802,#833,#866,#899,#932,#965,#998,#1031,
    #1064,#1097,#1128,#1161,#1194,#1227,#1260,#1293,#1326,#1359,#1392,
    #1425,#1447,#1476));
#762 = ADVANCED_FACE('',(#763),#797,.T.);
#763 = FACE_BOUND('',#764,.T.);
#764 = EDGE_LOOP('',(#765,#775,#783,#791));
#765 = ORIENTED_EDGE('',*,*,#766,.T.);
#766 = EDGE_CURVE('',#767,#769,#771,.T.);
#767 = VERTEX_POINT('',#768);
#768 = CARTESIAN_POINT('',(25.55898089172,1.802024570724,4.366260937334)
  );
#769 = VERTEX_POINT('',#770);
#770 = CARTESIAN_POINT('',(25.55898089172,1.050270474095,4.639877051995)
  );
#771 = LINE('',#772,#773);
#772 = CARTESIAN_POINT('',(25.55898089172,1.802024570724,4.366260937334)
  );
#773 = VECTOR('',#774,1.);
#774 = DIRECTION('',(0.,-0.939692620786,0.342020143326));
#775 = ORIENTED_EDGE('',*,*,#776,.T.);
#776 = EDGE_CURVE('',#769,#777,#779,.T.);
#777 = VERTEX_POINT('',#778);
#778 = CARTESIAN_POINT('',(25.55898089172,0.71008024746,3.705212085995)
  );
#779 = LINE('',#780,#781);
#780 = CARTESIAN_POINT('',(25.55898089172,1.050270474095,4.639877051995)
  );
#781 = VECTOR('',#782,1.);
#782 = DIRECTION('',(0.,-0.342020143326,-0.939692620786));
#783 = ORIENTED_EDGE('',*,*,#784,.F.);
#784 = EDGE_CURVE('',#785,#777,#787,.T.);
#785 = VERTEX_POINT('',#786);
#786 = CARTESIAN_POINT('',(25.55898089172,1.461834344089,3.431595971335)
  );
#787 = LINE('',#788,#789);
#788 = CARTESIAN_POINT('',(25.55898089172,1.461834344089,3.431595971335)
  );
#789 = VECTOR('',#790,1.);
#790 = DIRECTION('',(0.,-0.939692620786,0.342020143326));
#791 = ORIENTED_EDGE('',*,*,#792,.F.);
#792 = EDGE_CURVE('',#767,#785,#793,.T.);
#793 = LINE('',#794,#795);
#794 = CARTESIAN_POINT('',(25.55898089172,1.802024570724,4.366260937334)
  );
#795 = VECTOR('',#796,1.);
#796 = DIRECTION('',(0.,-0.342020143326,-0.939692620786));
#797 = PLANE('',#798);
#798 = AXIS2_PLACEMENT_3D('',#799,#800,#801);
#799 = CARTESIAN_POINT('',(25.55898089172,1.802024570724,4.366260937334)
  );
#800 = DIRECTION('',(1.,0.,0.));
#801 = DIRECTION('',(0.,-0.342020143326,-0.939692620786));
#802 = ADVANCED_FACE('',(#803),#828,.T.);
#803 = FACE_BOUND('',#804,.T.);
#804 = EDGE_LOOP('',(#805,#806,#814,#822));
#805 = ORIENTED_EDGE('',*,*,#784,.T.);
#806 = ORIENTED_EDGE('',*,*,#807,.T.);
#807 = EDGE_CURVE('',#777,#808,#810,.T.);
#808 = VERTEX_POINT('',#809);
#809 = CARTESIAN_POINT('',(21.794649681529,0.71008024746,3.705212085995)
  );
#810 = LINE('',#811,#812);
#811 = CARTESIAN_POINT('',(25.55898089172,0.71008024746,3.705212085995)
  );
#812 = VECTOR('',#813,1.);
#813 = DIRECTION('',(-1.,0.,0.));
#814 = ORIENTED_EDGE('',*,*,#815,.F.);
#815 = EDGE_CURVE('',#816,#808,#818,.T.);
#816 = VERTEX_POINT('',#817);
#817 = CARTESIAN_POINT('',(21.794649681529,1.461834344089,3.431595971335
    ));
#818 = LINE('',#819,#820);
#819 = CARTESIAN_POINT('',(21.794649681529,1.461834344089,3.431595971335
    ));
#820 = VECTOR('',#821,1.);
#821 = DIRECTION('',(0.,-0.939692620786,0.342020143326));
#822 = ORIENTED_EDGE('',*,*,#823,.F.);
#823 = EDGE_CURVE('',#785,#816,#824,.T.);
#824 = LINE('',#825,#826);
#825 = CARTESIAN_POINT('',(25.55898089172,1.461834344089,3.431595971335)
  );
#826 = VECTOR('',#827,1.);
#827 = DIRECTION('',(-1.,0.,0.));
#828 = PLANE('',#829);
#829 = AXIS2_PLACEMENT_3D('',#830,#831,#832);
#830 = CARTESIAN_POINT('',(25.55898089172,1.461834344089,3.431595971335)
  );
#831 = DIRECTION('',(0.,-0.342020143326,-0.939692620786));
#832 = DIRECTION('',(-1.,0.,0.));
#833 = ADVANCED_FACE('',(#834),#859,.T.);
#834 = FACE_BOUND('',#835,.T.);
#835 = EDGE_LOOP('',(#836,#837,#845,#853));
#836 = ORIENTED_EDGE('',*,*,#815,.T.);
#837 = ORIENTED_EDGE('',*,*,#838,.T.);
#838 = EDGE_CURVE('',#808,#839,#841,.T.);
#839 = VERTEX_POINT('',#840);
#840 = CARTESIAN_POINT('',(22.16152866242,1.077457807781,4.714573637392)
  );
#841 = B_SPLINE_CURVE_WITH_KNOTS('',2,(#842,#843,#844),.UNSPECIFIED.,.F.
  ,.F.,(3,3),(0.,1.),.PIECEWISE_BEZIER_KNOTS.);
#842 = CARTESIAN_POINT('',(21.794649681529,0.71008024746,3.705212085995)
  );
#843 = CARTESIAN_POINT('',(21.855796178344,0.903964277753,4.237904081218
    ));
#844 = CARTESIAN_POINT('',(22.16152866242,1.077457807781,4.714573637392)
  );
#845 = ORIENTED_EDGE('',*,*,#846,.F.);
#846 = EDGE_CURVE('',#847,#839,#849,.T.);
#847 = VERTEX_POINT('',#848);
#848 = CARTESIAN_POINT('',(22.16152866242,1.82921190441,4.440957522732)
  );
#849 = LINE('',#850,#851);
#850 = CARTESIAN_POINT('',(22.16152866242,1.82921190441,4.440957522732)
  );
#851 = VECTOR('',#852,1.);
#852 = DIRECTION('',(0.,-0.939692620786,0.342020143326));
#853 = ORIENTED_EDGE('',*,*,#854,.F.);
#854 = EDGE_CURVE('',#816,#847,#855,.T.);
#855 = B_SPLINE_CURVE_WITH_KNOTS('',2,(#856,#857,#858),.UNSPECIFIED.,.F.
  ,.F.,(3,3),(0.,1.),.PIECEWISE_BEZIER_KNOTS.);
#856 = CARTESIAN_POINT('',(21.794649681529,1.461834344089,3.431595971335
    ));
#857 = CARTESIAN_POINT('',(21.855796178344,1.655718374382,3.964287966557
    ));
#858 = CARTESIAN_POINT('',(22.16152866242,1.82921190441,4.440957522732)
  );
#859 = SURFACE_OF_LINEAR_EXTRUSION('',#860,#864);
#860 = B_SPLINE_CURVE_WITH_KNOTS('',2,(#861,#862,#863),.UNSPECIFIED.,.F.
  ,.F.,(3,3),(0.,1.),.PIECEWISE_BEZIER_KNOTS.);
#861 = CARTESIAN_POINT('',(21.794649681529,1.461834344089,3.431595971335
    ));
#862 = CARTESIAN_POINT('',(21.855796178344,1.655718374382,3.964287966557
    ));
#863 = CARTESIAN_POINT('',(22.16152866242,1.82921190441,4.440957522732)
  );
#864 = VECTOR('',#865,1.);
#865 = DIRECTION('',(-0.,0.939692620786,-0.342020143326));
#866 = ADVANCED_FACE('',(#867),#892,.T.);
#867 = FACE_BOUND('',#868,.T.);
#868 = EDGE_LOOP('',(#869,#870,#878,#886));
#869 = ORIENTED_EDGE('',*,*,#846,.T.);
#870 = ORIENTED_EDGE('',*,*,#871,.T.);
#871 = EDGE_CURVE('',#839,#872,#874,.T.);
#872 = VERTEX_POINT('',#873);
#873 = CARTESIAN_POINT('',(23.369171974522,1.537899702643,5.979627346496
    ));
#874 = B_SPLINE_CURVE_WITH_KNOTS('',2,(#875,#876,#877),.UNSPECIFIED.,.F.
  ,.F.,(3,3),(0.,1.),.PIECEWISE_BEZIER_KNOTS.);
#875 = CARTESIAN_POINT('',(22.16152866242,1.077457807781,4.714573637392)
  );
#876 = CARTESIAN_POINT('',(22.467261146497,1.2510384767,5.1914826057));
#877 = CARTESIAN_POINT('',(23.369171974522,1.537899702643,5.979627346496
    ));
#878 = ORIENTED_EDGE('',*,*,#879,.F.);
#879 = EDGE_CURVE('',#880,#872,#882,.T.);
#880 = VERTEX_POINT('',#881);
#881 = CARTESIAN_POINT('',(23.369171974522,2.289653799272,5.706011231836
    ));
#882 = LINE('',#883,#884);
#883 = CARTESIAN_POINT('',(23.369171974522,2.289653799272,5.706011231836
    ));
#884 = VECTOR('',#885,1.);
#885 = DIRECTION('',(0.,-0.939692620786,0.342020143326));
#886 = ORIENTED_EDGE('',*,*,#887,.F.);
#887 = EDGE_CURVE('',#847,#880,#888,.T.);
#888 = B_SPLINE_CURVE_WITH_KNOTS('',2,(#889,#890,#891),.UNSPECIFIED.,.F.
  ,.F.,(3,3),(0.,1.),.PIECEWISE_BEZIER_KNOTS.);
#889 = CARTESIAN_POINT('',(22.16152866242,1.82921190441,4.440957522732)
  );
#890 = CARTESIAN_POINT('',(22.467261146497,2.002792573329,4.917866491039
    ));
#891 = CARTESIAN_POINT('',(23.369171974522,2.289653799272,5.706011231836
    ));
#892 = SURFACE_OF_LINEAR_EXTRUSION('',#893,#897);
#893 = B_SPLINE_CURVE_WITH_KNOTS('',2,(#894,#895,#896),.UNSPECIFIED.,.F.
  ,.F.,(3,3),(0.,1.),.PIECEWISE_BEZIER_KNOTS.);
#894 = CARTESIAN_POINT('',(22.16152866242,1.82921190441,4.440957522732)
  );
#895 = CARTESIAN_POINT('',(22.467261146497,2.002792573329,4.917866491039
    ));
#896 = CARTESIAN_POINT('',(23.369171974522,2.289653799272,5.706011231836
    ));
#897 = VECTOR('',#898,1.);
#898 = DIRECTION('',(-0.,0.939692620786,-0.342020143326));
#899 = ADVANCED_FACE('',(#900),#925,.T.);
#900 = FACE_BOUND('',#901,.T.);
#901 = EDGE_LOOP('',(#902,#903,#911,#919));
#902 = ORIENTED_EDGE('',*,*,#879,.T.);
#903 = ORIENTED_EDGE('',*,*,#904,.T.);
#904 = EDGE_CURVE('',#872,#905,#907,.T.);
#905 = VERTEX_POINT('',#906);
#906 = CARTESIAN_POINT('',(24.259617834395,1.852209678943,6.843186909089
    ));
#907 = B_SPLINE_CURVE_WITH_KNOTS('',2,(#908,#909,#910),.UNSPECIFIED.,.F.
  ,.F.,(3,3),(0.,1.),.PIECEWISE_BEZIER_KNOTS.);
#908 = CARTESIAN_POINT('',(23.369171974522,1.537899702643,5.979627346496
    ));
#909 = CARTESIAN_POINT('',(24.095286624204,1.769689150095,6.616463619437
    ));
#910 = CARTESIAN_POINT('',(24.259617834395,1.852209678943,6.843186909089
    ));
#911 = ORIENTED_EDGE('',*,*,#912,.F.);
#912 = EDGE_CURVE('',#913,#905,#915,.T.);
#913 = VERTEX_POINT('',#914);
#914 = CARTESIAN_POINT('',(24.259617834395,2.603963775572,6.569570794428
    ));
#915 = LINE('',#916,#917);
#916 = CARTESIAN_POINT('',(24.259617834395,2.603963775572,6.569570794428
    ));
#917 = VECTOR('',#918,1.);
#918 = DIRECTION('',(0.,-0.939692620786,0.342020143326));
#919 = ORIENTED_EDGE('',*,*,#920,.F.);
#920 = EDGE_CURVE('',#880,#913,#921,.T.);
#921 = B_SPLINE_CURVE_WITH_KNOTS('',2,(#922,#923,#924),.UNSPECIFIED.,.F.
  ,.F.,(3,3),(0.,1.),.PIECEWISE_BEZIER_KNOTS.);
#922 = CARTESIAN_POINT('',(23.369171974522,2.289653799272,5.706011231836
    ));
#923 = CARTESIAN_POINT('',(24.095286624204,2.521443246723,6.342847504776
    ));
#924 = CARTESIAN_POINT('',(24.259617834395,2.603963775572,6.569570794428
    ));
#925 = SURFACE_OF_LINEAR_EXTRUSION('',#926,#930);
#926 = B_SPLINE_CURVE_WITH_KNOTS('',2,(#927,#928,#929),.UNSPECIFIED.,.F.
  ,.F.,(3,3),(0.,1.),.PIECEWISE_BEZIER_KNOTS.);
#927 = CARTESIAN_POINT('',(23.369171974522,2.289653799272,5.706011231836
    ));
#928 = CARTESIAN_POINT('',(24.095286624204,2.521443246723,6.342847504776
    ));
#929 = CARTESIAN_POINT('',(24.259617834395,2.603963775572,6.569570794428
    ));
#930 = VECTOR('',#931,1.);
#931 = DIRECTION('',(-0.,0.939692620786,-0.342020143326));
#932 = ADVANCED_FACE('',(#933),#958,.T.);
#933 = FACE_BOUND('',#934,.T.);
#934 = EDGE_LOOP('',(#935,#936,#944,#952));
#935 = ORIENTED_EDGE('',*,*,#912,.T.);
#936 = ORIENTED_EDGE('',*,*,#937,.T.);
#937 = EDGE_CURVE('',#905,#938,#940,.T.);
#938 = VERTEX_POINT('',#939);
#939 = CARTESIAN_POINT('',(24.48127388535,2.077550848533,7.46230668421)
  );
#940 = B_SPLINE_CURVE_WITH_KNOTS('',2,(#941,#942,#943),.UNSPECIFIED.,.F.
  ,.F.,(3,3),(0.,1.),.PIECEWISE_BEZIER_KNOTS.);
#941 = CARTESIAN_POINT('',(24.259617834395,1.852209678943,6.843186909089
    ));
#942 = CARTESIAN_POINT('',(24.48127388535,1.966187347088,7.15633797864)
  );
#943 = CARTESIAN_POINT('',(24.48127388535,2.077550848533,7.46230668421)
  );
#944 = ORIENTED_EDGE('',*,*,#945,.F.);
#945 = EDGE_CURVE('',#946,#938,#948,.T.);
#946 = VERTEX_POINT('',#947);
#947 = CARTESIAN_POINT('',(24.48127388535,2.829304945161,7.18869056955)
  );
#948 = LINE('',#949,#950);
#949 = CARTESIAN_POINT('',(24.48127388535,2.829304945161,7.18869056955)
  );
#950 = VECTOR('',#951,1.);
#951 = DIRECTION('',(0.,-0.939692620786,0.342020143326));
#952 = ORIENTED_EDGE('',*,*,#953,.F.);
#953 = EDGE_CURVE('',#913,#946,#954,.T.);
#954 = B_SPLINE_CURVE_WITH_KNOTS('',2,(#955,#956,#957),.UNSPECIFIED.,.F.
  ,.F.,(3,3),(0.,1.),.PIECEWISE_BEZIER_KNOTS.);
#955 = CARTESIAN_POINT('',(24.259617834395,2.603963775572,6.569570794428
    ));
#956 = CARTESIAN_POINT('',(24.48127388535,2.717941443717,6.882721863979)
  );
#957 = CARTESIAN_POINT('',(24.48127388535,2.829304945161,7.18869056955)
  );
#958 = SURFACE_OF_LINEAR_EXTRUSION('',#959,#963);
#959 = B_SPLINE_CURVE_WITH_KNOTS('',2,(#960,#961,#962),.UNSPECIFIED.,.F.
  ,.F.,(3,3),(0.,1.),.PIECEWISE_BEZIER_KNOTS.);
#960 = CARTESIAN_POINT('',(24.259617834395,2.603963775572,6.569570794428
    ));
#961 = CARTESIAN_POINT('',(24.48127388535,2.717941443717,6.882721863979)
  );
#962 = CARTESIAN_POINT('',(24.48127388535,2.829304945161,7.18869056955)
  );
#963 = VECTOR('',#964,1.);
#964 = DIRECTION('',(-0.,0.939692620786,-0.342020143326));
#965 = ADVANCED_FACE('',(#966),#991,.T.);
#966 = FACE_BOUND('',#967,.T.);
#967 = EDGE_LOOP('',(#968,#969,#977,#985));
#968 = ORIENTED_EDGE('',*,*,#945,.T.);
#969 = ORIENTED_EDGE('',*,*,#970,.T.);
#970 = EDGE_CURVE('',#938,#971,#973,.T.);
#971 = VERTEX_POINT('',#972);
#972 = CARTESIAN_POINT('',(24.288152866242,2.266816517655,7.982309836401
    ));
#973 = B_SPLINE_CURVE_WITH_KNOTS('',2,(#974,#975,#976),.UNSPECIFIED.,.F.
  ,.F.,(3,3),(0.,1.),.PIECEWISE_BEZIER_KNOTS.);
#974 = CARTESIAN_POINT('',(24.48127388535,2.077550848533,7.46230668421)
  );
#975 = CARTESIAN_POINT('',(24.48127388535,2.20067810013,7.800596027693)
  );
#976 = CARTESIAN_POINT('',(24.288152866242,2.266816517655,7.982309836401
    ));
#977 = ORIENTED_EDGE('',*,*,#978,.F.);
#978 = EDGE_CURVE('',#979,#971,#981,.T.);
#979 = VERTEX_POINT('',#980);
#980 = CARTESIAN_POINT('',(24.288152866242,3.018570614283,7.70869372174)
  );
#981 = LINE('',#982,#983);
#982 = CARTESIAN_POINT('',(24.288152866242,3.018570614283,7.70869372174)
  );
#983 = VECTOR('',#984,1.);
#984 = DIRECTION('',(0.,-0.939692620786,0.342020143326));
#985 = ORIENTED_EDGE('',*,*,#986,.F.);
#986 = EDGE_CURVE('',#946,#979,#987,.T.);
#987 = B_SPLINE_CURVE_WITH_KNOTS('',2,(#988,#989,#990),.UNSPECIFIED.,.F.
  ,.F.,(3,3),(0.,1.),.PIECEWISE_BEZIER_KNOTS.);
#988 = CARTESIAN_POINT('',(24.48127388535,2.829304945161,7.18869056955)
  );
#989 = CARTESIAN_POINT('',(24.48127388535,2.952432196759,7.526979913033)
  );
#990 = CARTESIAN_POINT('',(24.288152866242,3.018570614283,7.70869372174)
  );
#991 = SURFACE_OF_LINEAR_EXTRUSION('',#992,#996);
#992 = B_SPLINE_CURVE_WITH_KNOTS('',2,(#993,#994,#995),.UNSPECIFIED.,.F.
  ,.F.,(3,3),(0.,1.),.PIECEWISE_BEZIER_KNOTS.);
#993 = CARTESIAN_POINT('',(24.48127388535,2.829304945161,7.18869056955)
  );
#994 = CARTESIAN_POINT('',(24.48127388535,2.952432196759,7.526979913033)
  );
#995 = CARTESIAN_POINT('',(24.288152866242,3.018570614283,7.70869372174)
  );
#996 = VECTOR('',#997,1.);
#997 = DIRECTION('',(-0.,0.939692620786,-0.342020143326));
#998 = ADVANCED_FACE('',(#999),#1024,.T.);
#999 = FACE_BOUND('',#1000,.T.);
#1000 = EDGE_LOOP('',(#1001,#1002,#1010,#1018));
#1001 = ORIENTED_EDGE('',*,*,#978,.T.);
#1002 = ORIENTED_EDGE('',*,*,#1003,.T.);
#1003 = EDGE_CURVE('',#971,#1004,#1006,.T.);
#1004 = VERTEX_POINT('',#1005);
#1005 = CARTESIAN_POINT('',(23.755159235669,2.332954935179,
    8.164023645108));
#1006 = B_SPLINE_CURVE_WITH_KNOTS('',2,(#1007,#1008,#1009),
  .UNSPECIFIED.,.F.,.F.,(3,3),(0.,1.),.PIECEWISE_BEZIER_KNOTS.);
#1007 = CARTESIAN_POINT('',(24.288152866242,2.266816517655,
    7.982309836401));
#1008 = CARTESIAN_POINT('',(24.095286624204,2.332954935179,
    8.164023645108));
#1009 = CARTESIAN_POINT('',(23.755159235669,2.332954935179,
    8.164023645108));
#1010 = ORIENTED_EDGE('',*,*,#1011,.F.);
#1011 = EDGE_CURVE('',#1012,#1004,#1014,.T.);
#1012 = VERTEX_POINT('',#1013);
#1013 = CARTESIAN_POINT('',(23.755159235669,3.084709031808,
    7.890407530447));
#1014 = LINE('',#1015,#1016);
#1015 = CARTESIAN_POINT('',(23.755159235669,3.084709031808,
    7.890407530447));
#1016 = VECTOR('',#1017,1.);
#1017 = DIRECTION('',(0.,-0.939692620786,0.342020143326));
#1018 = ORIENTED_EDGE('',*,*,#1019,.F.);
#1019 = EDGE_CURVE('',#979,#1012,#1020,.T.);
#1020 = B_SPLINE_CURVE_WITH_KNOTS('',2,(#1021,#1022,#1023),
  .UNSPECIFIED.,.F.,.F.,(3,3),(0.,1.),.PIECEWISE_BEZIER_KNOTS.);
#1021 = CARTESIAN_POINT('',(24.288152866242,3.018570614283,7.70869372174
    ));
#1022 = CARTESIAN_POINT('',(24.095286624204,3.084709031808,
    7.890407530447));
#1023 = CARTESIAN_POINT('',(23.755159235669,3.084709031808,
    7.890407530447));
#1024 = SURFACE_OF_LINEAR_EXTRUSION('',#1025,#1029);
#1025 = B_SPLINE_CURVE_WITH_KNOTS('',2,(#1026,#1027,#1028),
  .UNSPECIFIED.,.F.,.F.,(3,3),(0.,1.),.PIECEWISE_BEZIER_KNOTS.);
#1026 = CARTESIAN_POINT('',(24.288152866242,3.018570614283,7.70869372174
    ));
#1027 = CARTESIAN_POINT('',(24.095286624204,3.084709031808,
    7.890407530447));
#1028 = CARTESIAN_POINT('',(23.755159235669,3.084709031808,
    7.890407530447));
#1029 = VECTOR('',#1030,1.);
#1030 = DIRECTION('',(-0.,0.939692620786,-0.342020143326));
#1031 = ADVANCED_FACE('',(#1032),#1057,.T.);
#1032 = FACE_BOUND('',#1033,.T.);
#1033 = EDGE_LOOP('',(#1034,#1035,#1043,#1051));
#1034 = ORIENTED_EDGE('',*,*,#1011,.T.);
#1035 = ORIENTED_EDGE('',*,*,#1036,.T.);
#1036 = EDGE_CURVE('',#1004,#1037,#1039,.T.);
#1037 = VERTEX_POINT('',#1038);
#1038 = CARTESIAN_POINT('',(23.220127388535,2.263243823164,
    7.972493938961));
#1039 = B_SPLINE_CURVE_WITH_KNOTS('',2,(#1040,#1041,#1042),
  .UNSPECIFIED.,.F.,.F.,(3,3),(0.,1.),.PIECEWISE_BEZIER_KNOTS.);
#1040 = CARTESIAN_POINT('',(23.755159235669,2.332954935179,
    8.164023645108));
#1041 = CARTESIAN_POINT('',(23.418853503185,2.332954935179,
    8.164023645108));
#1042 = CARTESIAN_POINT('',(23.220127388535,2.263243823164,
    7.972493938961));
#1043 = ORIENTED_EDGE('',*,*,#1044,.F.);
#1044 = EDGE_CURVE('',#1045,#1037,#1047,.T.);
#1045 = VERTEX_POINT('',#1046);
#1046 = CARTESIAN_POINT('',(23.220127388535,3.014997919793,7.6988778243)
  );
#1047 = LINE('',#1048,#1049);
#1048 = CARTESIAN_POINT('',(23.220127388535,3.014997919793,7.6988778243)
  );
#1049 = VECTOR('',#1050,1.);
#1050 = DIRECTION('',(0.,-0.939692620786,0.342020143326));
#1051 = ORIENTED_EDGE('',*,*,#1052,.F.);
#1052 = EDGE_CURVE('',#1012,#1045,#1053,.T.);
#1053 = B_SPLINE_CURVE_WITH_KNOTS('',2,(#1054,#1055,#1056),
  .UNSPECIFIED.,.F.,.F.,(3,3),(0.,1.),.PIECEWISE_BEZIER_KNOTS.);
#1054 = CARTESIAN_POINT('',(23.755159235669,3.084709031808,
    7.890407530447));
#1055 = CARTESIAN_POINT('',(23.418853503185,3.084709031808,
    7.890407530447));
#1056 = CARTESIAN_POINT('',(23.220127388535,3.014997919793,7.6988778243)
  );
#1057 = SURFACE_OF_LINEAR_EXTRUSION('',#1058,#1062);
#1058 = B_SPLINE_CURVE_WITH_KNOTS('',2,(#1059,#1060,#1061),
  .UNSPECIFIED.,.F.,.F.,(3,3),(0.,1.),.PIECEWISE_BEZIER_KNOTS.);
#1059 = CARTESIAN_POINT('',(23.755159235669,3.084709031808,
    7.890407530447));
#1060 = CARTESIAN_POINT('',(23.418853503185,3.084709031808,
    7.890407530447));
#1061 = CARTESIAN_POINT('',(23.220127388535,3.014997919793,7.6988778243)
  );
#1062 = VECTOR('',#1063,1.);
#1063 = DIRECTION('',(-0.,0.939692620786,-0.342020143326));
#1064 = ADVANCED_FACE('',(#1065),#1090,.T.);
#1065 = FACE_BOUND('',#1066,.T.);
#1066 = EDGE_LOOP('',(#1067,#1068,#1076,#1084));
#1067 = ORIENTED_EDGE('',*,*,#1044,.T.);
#1068 = ORIENTED_EDGE('',*,*,#1069,.T.);
#1069 = EDGE_CURVE('',#1037,#1070,#1072,.T.);
#1070 = VERTEX_POINT('',#1071);
#1071 = CARTESIAN_POINT('',(22.990828025478,2.031802931273,
    7.336615314551));
#1072 = B_SPLINE_CURVE_WITH_KNOTS('',2,(#1073,#1074,#1075),
  .UNSPECIFIED.,.F.,.F.,(3,3),(0.,1.),.PIECEWISE_BEZIER_KNOTS.);
#1073 = CARTESIAN_POINT('',(23.220127388535,2.263243823164,
    7.972493938961));
#1074 = CARTESIAN_POINT('',(23.021401273885,2.193532711148,
    7.780964232813));
#1075 = CARTESIAN_POINT('',(22.990828025478,2.031802931273,
    7.336615314551));
#1076 = ORIENTED_EDGE('',*,*,#1077,.F.);
#1077 = EDGE_CURVE('',#1078,#1070,#1080,.T.);
#1078 = VERTEX_POINT('',#1079);
#1079 = CARTESIAN_POINT('',(22.990828025478,2.783557027901,7.06299919989
    ));
#1080 = LINE('',#1081,#1082);
#1081 = CARTESIAN_POINT('',(22.990828025478,2.783557027901,7.06299919989
    ));
#1082 = VECTOR('',#1083,1.);
#1083 = DIRECTION('',(0.,-0.939692620786,0.342020143326));
#1084 = ORIENTED_EDGE('',*,*,#1085,.F.);
#1085 = EDGE_CURVE('',#1045,#1078,#1086,.T.);
#1086 = B_SPLINE_CURVE_WITH_KNOTS('',2,(#1087,#1088,#1089),
  .UNSPECIFIED.,.F.,.F.,(3,3),(0.,1.),.PIECEWISE_BEZIER_KNOTS.);
#1087 = CARTESIAN_POINT('',(23.220127388535,3.014997919793,7.6988778243)
  );
#1088 = CARTESIAN_POINT('',(23.021401273885,2.945286807777,
    7.507348118153));
#1089 = CARTESIAN_POINT('',(22.990828025478,2.783557027901,7.06299919989
    ));
#1090 = SURFACE_OF_LINEAR_EXTRUSION('',#1091,#1095);
#1091 = B_SPLINE_CURVE_WITH_KNOTS('',2,(#1092,#1093,#1094),
  .UNSPECIFIED.,.F.,.F.,(3,3),(0.,1.),.PIECEWISE_BEZIER_KNOTS.);
#1092 = CARTESIAN_POINT('',(23.220127388535,3.014997919793,7.6988778243)
  );
#1093 = CARTESIAN_POINT('',(23.021401273885,2.945286807777,
    7.507348118153));
#1094 = CARTESIAN_POINT('',(22.990828025478,2.783557027901,7.06299919989
    ));
#1095 = VECTOR('',#1096,1.);
#1096 = DIRECTION('',(-0.,0.939692620786,-0.342020143326));
#1097 = ADVANCED_FACE('',(#1098),#1123,.T.);
#1098 = FACE_BOUND('',#1099,.T.);
#1099 = EDGE_LOOP('',(#1100,#1101,#1109,#1117));
#1100 = ORIENTED_EDGE('',*,*,#1077,.T.);
#1101 = ORIENTED_EDGE('',*,*,#1102,.T.);
#1102 = EDGE_CURVE('',#1070,#1103,#1105,.T.);
#1103 = VERTEX_POINT('',#1104);
#1104 = CARTESIAN_POINT('',(21.92076433121,2.068662681751,7.437886646676
    ));
#1105 = LINE('',#1106,#1107);
#1106 = CARTESIAN_POINT('',(22.990828025478,2.031802931273,
    7.336615314551));
#1107 = VECTOR('',#1108,1.);
#1108 = DIRECTION('',(-0.994966576024,3.427293152997E-02,
    9.416410547709E-02));
#1109 = ORIENTED_EDGE('',*,*,#1110,.F.);
#1110 = EDGE_CURVE('',#1111,#1103,#1113,.T.);
#1111 = VERTEX_POINT('',#1112);
#1112 = CARTESIAN_POINT('',(21.92076433121,2.820416778379,7.164270532016
    ));
#1113 = LINE('',#1114,#1115);
#1114 = CARTESIAN_POINT('',(21.92076433121,2.820416778379,7.164270532016
    ));
#1115 = VECTOR('',#1116,1.);
#1116 = DIRECTION('',(0.,-0.939692620786,0.342020143326));
#1117 = ORIENTED_EDGE('',*,*,#1118,.F.);
#1118 = EDGE_CURVE('',#1078,#1111,#1119,.T.);
#1119 = LINE('',#1120,#1121);
#1120 = CARTESIAN_POINT('',(22.990828025478,2.783557027901,7.06299919989
    ));
#1121 = VECTOR('',#1122,1.);
#1122 = DIRECTION('',(-0.994966576024,3.427293152997E-02,
    9.416410547709E-02));
#1123 = PLANE('',#1124);
#1124 = AXIS2_PLACEMENT_3D('',#1125,#1126,#1127);
#1125 = CARTESIAN_POINT('',(22.990828025478,2.783557027901,7.06299919989
    ));
#1126 = DIRECTION('',(-0.100207348014,-0.340298610936,-0.934962749418));
#1127 = DIRECTION('',(-0.994966576024,3.427293152997E-02,
    9.416410547709E-02));
#1128 = ADVANCED_FACE('',(#1129),#1154,.T.);
#1129 = FACE_BOUND('',#1130,.T.);
#1130 = EDGE_LOOP('',(#1131,#1132,#1140,#1148));
#1131 = ORIENTED_EDGE('',*,*,#1110,.T.);
#1132 = ORIENTED_EDGE('',*,*,#1133,.T.);
#1133 = EDGE_CURVE('',#1103,#1134,#1136,.T.);
#1134 = VERTEX_POINT('',#1135);
#1135 = CARTESIAN_POINT('',(22.52076433121,2.506797020768,8.641650849813
    ));
#1136 = B_SPLINE_CURVE_WITH_KNOTS('',2,(#1137,#1138,#1139),
  .UNSPECIFIED.,.F.,.F.,(3,3),(0.,1.),.PIECEWISE_BEZIER_KNOTS.);
#1137 = CARTESIAN_POINT('',(21.92076433121,2.068662681751,7.437886646676
    ));
#1138 = CARTESIAN_POINT('',(22.016305732484,2.373910213488,8.27654734747
    ));
#1139 = CARTESIAN_POINT('',(22.52076433121,2.506797020768,8.641650849813
    ));
#1140 = ORIENTED_EDGE('',*,*,#1141,.F.);
#1141 = EDGE_CURVE('',#1142,#1134,#1144,.T.);
#1142 = VERTEX_POINT('',#1143);
#1143 = CARTESIAN_POINT('',(22.52076433121,3.258551117396,8.368034735153
    ));
#1144 = LINE('',#1145,#1146);
#1145 = CARTESIAN_POINT('',(22.52076433121,3.258551117396,8.368034735153
    ));
#1146 = VECTOR('',#1147,1.);
#1147 = DIRECTION('',(0.,-0.939692620786,0.342020143326));
#1148 = ORIENTED_EDGE('',*,*,#1149,.F.);
#1149 = EDGE_CURVE('',#1111,#1142,#1150,.T.);
#1150 = B_SPLINE_CURVE_WITH_KNOTS('',2,(#1151,#1152,#1153),
  .UNSPECIFIED.,.F.,.F.,(3,3),(0.,1.),.PIECEWISE_BEZIER_KNOTS.);
#1151 = CARTESIAN_POINT('',(21.92076433121,2.820416778379,7.164270532016
    ));
#1152 = CARTESIAN_POINT('',(22.016305732484,3.125664310117,
    8.002931232809));
#1153 = CARTESIAN_POINT('',(22.52076433121,3.258551117396,8.368034735153
    ));
#1154 = SURFACE_OF_LINEAR_EXTRUSION('',#1155,#1159);
#1155 = B_SPLINE_CURVE_WITH_KNOTS('',2,(#1156,#1157,#1158),
  .UNSPECIFIED.,.F.,.F.,(3,3),(0.,1.),.PIECEWISE_BEZIER_KNOTS.);
#1156 = CARTESIAN_POINT('',(21.92076433121,2.820416778379,7.164270532016
    ));
#1157 = CARTESIAN_POINT('',(22.016305732484,3.125664310117,
    8.002931232809));
#1158 = CARTESIAN_POINT('',(22.52076433121,3.258551117396,8.368034735153
    ));
#1159 = VECTOR('',#1160,1.);
#1160 = DIRECTION('',(-0.,0.939692620786,-0.342020143326));
#1161 = ADVANCED_FACE('',(#1162),#1187,.T.);
#1162 = FACE_BOUND('',#1163,.T.);
#1163 = EDGE_LOOP('',(#1164,#1165,#1173,#1181));
#1164 = ORIENTED_EDGE('',*,*,#1141,.T.);
#1165 = ORIENTED_EDGE('',*,*,#1166,.T.);
#1166 = EDGE_CURVE('',#1134,#1167,#1169,.T.);
#1167 = VERTEX_POINT('',#1168);
#1168 = CARTESIAN_POINT('',(23.781910828025,2.639683828047,
    9.006754352157));
#1169 = B_SPLINE_CURVE_WITH_KNOTS('',2,(#1170,#1171,#1172),
  .UNSPECIFIED.,.F.,.F.,(3,3),(0.,1.),.PIECEWISE_BEZIER_KNOTS.);
#1170 = CARTESIAN_POINT('',(22.52076433121,2.506797020768,8.641650849813
    ));
#1171 = CARTESIAN_POINT('',(23.025222929936,2.639683828047,
    9.006754352157));
#1172 = CARTESIAN_POINT('',(23.781910828025,2.639683828047,
    9.006754352157));
#1173 = ORIENTED_EDGE('',*,*,#1174,.F.);
#1174 = EDGE_CURVE('',#1175,#1167,#1177,.T.);
#1175 = VERTEX_POINT('',#1176);
#1176 = CARTESIAN_POINT('',(23.781910828025,3.391437924676,
    8.733138237496));
#1177 = LINE('',#1178,#1179);
#1178 = CARTESIAN_POINT('',(23.781910828025,3.391437924676,
    8.733138237496));
#1179 = VECTOR('',#1180,1.);
#1180 = DIRECTION('',(0.,-0.939692620786,0.342020143326));
#1181 = ORIENTED_EDGE('',*,*,#1182,.F.);
#1182 = EDGE_CURVE('',#1142,#1175,#1183,.T.);
#1183 = B_SPLINE_CURVE_WITH_KNOTS('',2,(#1184,#1185,#1186),
  .UNSPECIFIED.,.F.,.F.,(3,3),(0.,1.),.PIECEWISE_BEZIER_KNOTS.);
#1184 = CARTESIAN_POINT('',(22.52076433121,3.258551117396,8.368034735153
    ));
#1185 = CARTESIAN_POINT('',(23.025222929936,3.391437924676,
    8.733138237496));
#1186 = CARTESIAN_POINT('',(23.781910828025,3.391437924676,
    8.733138237496));
#1187 = SURFACE_OF_LINEAR_EXTRUSION('',#1188,#1192);
#1188 = B_SPLINE_CURVE_WITH_KNOTS('',2,(#1189,#1190,#1191),
  .UNSPECIFIED.,.F.,.F.,(3,3),(0.,1.),.PIECEWISE_BEZIER_KNOTS.);
#1189 = CARTESIAN_POINT('',(22.52076433121,3.258551117396,8.368034735153
    ));
#1190 = CARTESIAN_POINT('',(23.025222929936,3.391437924676,
    8.733138237496));
#1191 = CARTESIAN_POINT('',(23.781910828025,3.391437924676,
    8.733138237496));
#1192 = VECTOR('',#1193,1.);
#1193 = DIRECTION('',(-0.,0.939692620786,-0.342020143326));
#1194 = ADVANCED_FACE('',(#1195),#1220,.T.);
#1195 = FACE_BOUND('',#1196,.T.);
#1196 = EDGE_LOOP('',(#1197,#1198,#1206,#1214));
#1197 = ORIENTED_EDGE('',*,*,#1174,.T.);
#1198 = ORIENTED_EDGE('',*,*,#1199,.T.);
#1199 = EDGE_CURVE('',#1167,#1200,#1202,.T.);
#1200 = VERTEX_POINT('',#1201);
#1201 = CARTESIAN_POINT('',(25.085095541401,2.486145103833,
    8.584910174367));
#1202 = B_SPLINE_CURVE_WITH_KNOTS('',2,(#1203,#1204,#1205),
  .UNSPECIFIED.,.F.,.F.,(3,3),(0.,1.),.PIECEWISE_BEZIER_KNOTS.);
#1203 = CARTESIAN_POINT('',(23.781910828025,2.639683828047,
    9.006754352157));
#1204 = CARTESIAN_POINT('',(24.611210191083,2.639683828047,
    9.006754352157));
#1205 = CARTESIAN_POINT('',(25.085095541401,2.486145103833,
    8.584910174367));
#1206 = ORIENTED_EDGE('',*,*,#1207,.F.);
#1207 = EDGE_CURVE('',#1208,#1200,#1210,.T.);
#1208 = VERTEX_POINT('',#1209);
#1209 = CARTESIAN_POINT('',(25.085095541401,3.237899200462,
    8.311294059706));
#1210 = LINE('',#1211,#1212);
#1211 = CARTESIAN_POINT('',(25.085095541401,3.237899200462,
    8.311294059706));
#1212 = VECTOR('',#1213,1.);
#1213 = DIRECTION('',(0.,-0.939692620786,0.342020143326));
#1214 = ORIENTED_EDGE('',*,*,#1215,.F.);
#1215 = EDGE_CURVE('',#1175,#1208,#1216,.T.);
#1216 = B_SPLINE_CURVE_WITH_KNOTS('',2,(#1217,#1218,#1219),
  .UNSPECIFIED.,.F.,.F.,(3,3),(0.,1.),.PIECEWISE_BEZIER_KNOTS.);
#1217 = CARTESIAN_POINT('',(23.781910828025,3.391437924676,
    8.733138237496));
#1218 = CARTESIAN_POINT('',(24.611210191083,3.391437924676,
    8.733138237496));
#1219 = CARTESIAN_POINT('',(25.085095541401,3.237899200462,
    8.311294059706));
#1220 = SURFACE_OF_LINEAR_EXTRUSION('',#1221,#1225);
#1221 = B_SPLINE_CURVE_WITH_KNOTS('',2,(#1222,#1223,#1224),
  .UNSPECIFIED.,.F.,.F.,(3,3),(0.,1.),.PIECEWISE_BEZIER_KNOTS.);
#1222 = CARTESIAN_POINT('',(23.781910828025,3.391437924676,
    8.733138237496));
#1223 = CARTESIAN_POINT('',(24.611210191083,3.391437924676,
    8.733138237496));
#1224 = CARTESIAN_POINT('',(25.085095541401,3.237899200462,
    8.311294059706));
#1225 = VECTOR('',#1226,1.);
#1226 = DIRECTION('',(-0.,0.939692620786,-0.342020143326));
#1227 = ADVANCED_FACE('',(#1228),#1253,.T.);
#1228 = FACE_BOUND('',#1229,.T.);
#1229 = EDGE_LOOP('',(#1230,#1231,#1239,#1247));
#1230 = ORIENTED_EDGE('',*,*,#1207,.T.);
#1231 = ORIENTED_EDGE('',*,*,#1232,.T.);
#1232 = EDGE_CURVE('',#1200,#1233,#1235,.T.);
#1233 = VERTEX_POINT('',#1234);
#1234 = CARTESIAN_POINT('',(25.55898089172,2.104215348879,7.535566796812
    ));
#1235 = B_SPLINE_CURVE_WITH_KNOTS('',2,(#1236,#1237,#1238),
  .UNSPECIFIED.,.F.,.F.,(3,3),(0.,1.),.PIECEWISE_BEZIER_KNOTS.);
#1236 = CARTESIAN_POINT('',(25.085095541401,2.486145103833,
    8.584910174367));
#1237 = CARTESIAN_POINT('',(25.55898089172,2.332606379619,8.163065996577
    ));
#1238 = CARTESIAN_POINT('',(25.55898089172,2.104215348879,7.535566796812
    ));
#1239 = ORIENTED_EDGE('',*,*,#1240,.F.);
#1240 = EDGE_CURVE('',#1241,#1233,#1243,.T.);
#1241 = VERTEX_POINT('',#1242);
#1242 = CARTESIAN_POINT('',(25.55898089172,2.855969445507,7.261950682151
    ));
#1243 = LINE('',#1244,#1245);
#1244 = CARTESIAN_POINT('',(25.55898089172,2.855969445507,7.261950682151
    ));
#1245 = VECTOR('',#1246,1.);
#1246 = DIRECTION('',(0.,-0.939692620786,0.342020143326));
#1247 = ORIENTED_EDGE('',*,*,#1248,.F.);
#1248 = EDGE_CURVE('',#1208,#1241,#1249,.T.);
#1249 = B_SPLINE_CURVE_WITH_KNOTS('',2,(#1250,#1251,#1252),
  .UNSPECIFIED.,.F.,.F.,(3,3),(0.,1.),.PIECEWISE_BEZIER_KNOTS.);
#1250 = CARTESIAN_POINT('',(25.085095541401,3.237899200462,
    8.311294059706));
#1251 = CARTESIAN_POINT('',(25.55898089172,3.084360476248,7.889449881917
    ));
#1252 = CARTESIAN_POINT('',(25.55898089172,2.855969445507,7.261950682151
    ));
#1253 = SURFACE_OF_LINEAR_EXTRUSION('',#1254,#1258);
#1254 = B_SPLINE_CURVE_WITH_KNOTS('',2,(#1255,#1256,#1257),
  .UNSPECIFIED.,.F.,.F.,(3,3),(0.,1.),.PIECEWISE_BEZIER_KNOTS.);
#1255 = CARTESIAN_POINT('',(25.085095541401,3.237899200462,
    8.311294059706));
#1256 = CARTESIAN_POINT('',(25.55898089172,3.084360476248,7.889449881917
    ));
#1257 = CARTESIAN_POINT('',(25.55898089172,2.855969445507,7.261950682151
    ));
#1258 = VECTOR('',#1259,1.);
#1259 = DIRECTION('',(-0.,0.939692620786,-0.342020143326));
#1260 = ADVANCED_FACE('',(#1261),#1286,.T.);
#1261 = FACE_BOUND('',#1262,.T.);
#1262 = EDGE_LOOP('',(#1263,#1264,#1272,#1280));
#1263 = ORIENTED_EDGE('',*,*,#1240,.T.);
#1264 = ORIENTED_EDGE('',*,*,#1265,.T.);
#1265 = EDGE_CURVE('',#1233,#1266,#1268,.T.);
#1266 = VERTEX_POINT('',#1267);
#1267 = CARTESIAN_POINT('',(25.423184713376,1.856828040114,
    6.855875752121));
#1268 = B_SPLINE_CURVE_WITH_KNOTS('',2,(#1269,#1270,#1271),
  .UNSPECIFIED.,.F.,.F.,(3,3),(0.,1.),.PIECEWISE_BEZIER_KNOTS.);
#1269 = CARTESIAN_POINT('',(25.55898089172,2.104215348879,7.535566796812
    ));
#1270 = CARTESIAN_POINT('',(25.55898089172,1.97429126386,7.178603306979)
  );
#1271 = CARTESIAN_POINT('',(25.423184713376,1.856828040114,
    6.855875752121));
#1272 = ORIENTED_EDGE('',*,*,#1273,.F.);
#1273 = EDGE_CURVE('',#1274,#1266,#1276,.T.);
#1274 = VERTEX_POINT('',#1275);
#1275 = CARTESIAN_POINT('',(25.423184713376,2.608582136743,6.58225963746
    ));
#1276 = LINE('',#1277,#1278);
#1277 = CARTESIAN_POINT('',(25.423184713376,2.608582136743,6.58225963746
    ));
#1278 = VECTOR('',#1279,1.);
#1279 = DIRECTION('',(0.,-0.939692620786,0.342020143326));
#1280 = ORIENTED_EDGE('',*,*,#1281,.F.);
#1281 = EDGE_CURVE('',#1241,#1274,#1282,.T.);
#1282 = B_SPLINE_CURVE_WITH_KNOTS('',2,(#1283,#1284,#1285),
  .UNSPECIFIED.,.F.,.F.,(3,3),(0.,1.),.PIECEWISE_BEZIER_KNOTS.);
#1283 = CARTESIAN_POINT('',(25.55898089172,2.855969445507,7.261950682151
    ));
#1284 = CARTESIAN_POINT('',(25.55898089172,2.726045360489,6.904987192319
    ));
#1285 = CARTESIAN_POINT('',(25.423184713376,2.608582136743,6.58225963746
    ));
#1286 = SURFACE_OF_LINEAR_EXTRUSION('',#1287,#1291);
#1287 = B_SPLINE_CURVE_WITH_KNOTS('',2,(#1288,#1289,#1290),
  .UNSPECIFIED.,.F.,.F.,(3,3),(0.,1.),.PIECEWISE_BEZIER_KNOTS.);
#1288 = CARTESIAN_POINT('',(25.55898089172,2.855969445507,7.261950682151
    ));
#1289 = CARTESIAN_POINT('',(25.55898089172,2.726045360489,6.904987192319
    ));
#1290 = CARTESIAN_POINT('',(25.423184713376,2.608582136743,6.58225963746
    ));
#1291 = VECTOR('',#1292,1.);
#1292 = DIRECTION('',(-0.,0.939692620786,-0.342020143326));
#1293 = ADVANCED_FACE('',(#1294),#1319,.T.);
#1294 = FACE_BOUND('',#1295,.T.);
#1295 = EDGE_LOOP('',(#1296,#1297,#1305,#1313));
#1296 = ORIENTED_EDGE('',*,*,#1273,.T.);
#1297 = ORIENTED_EDGE('',*,*,#1298,.T.);
#1298 = EDGE_CURVE('',#1266,#1299,#1301,.T.);
#1299 = VERTEX_POINT('',#1300);
#1300 = CARTESIAN_POINT('',(24.993375796178,1.610660675809,
    6.179536477288));
#1301 = B_SPLINE_CURVE_WITH_KNOTS('',2,(#1302,#1303,#1304),
  .UNSPECIFIED.,.F.,.F.,(3,3),(0.,1.),.PIECEWISE_BEZIER_KNOTS.);
#1302 = CARTESIAN_POINT('',(25.423184713376,1.856828040114,
    6.855875752121));
#1303 = CARTESIAN_POINT('',(25.287643312102,1.739364816368,
    6.533148197262));
#1304 = CARTESIAN_POINT('',(24.993375796178,1.610660675809,
    6.179536477288));
#1305 = ORIENTED_EDGE('',*,*,#1306,.F.);
#1306 = EDGE_CURVE('',#1307,#1299,#1309,.T.);
#1307 = VERTEX_POINT('',#1308);
#1308 = CARTESIAN_POINT('',(24.993375796178,2.362414772438,
    5.905920362627));
#1309 = LINE('',#1310,#1311);
#1310 = CARTESIAN_POINT('',(24.993375796178,2.362414772438,
    5.905920362627));
#1311 = VECTOR('',#1312,1.);
#1312 = DIRECTION('',(0.,-0.939692620786,0.342020143326));
#1313 = ORIENTED_EDGE('',*,*,#1314,.F.);
#1314 = EDGE_CURVE('',#1274,#1307,#1315,.T.);
#1315 = B_SPLINE_CURVE_WITH_KNOTS('',2,(#1316,#1317,#1318),
  .UNSPECIFIED.,.F.,.F.,(3,3),(0.,1.),.PIECEWISE_BEZIER_KNOTS.);
#1316 = CARTESIAN_POINT('',(25.423184713376,2.608582136743,6.58225963746
    ));
#1317 = CARTESIAN_POINT('',(25.287643312102,2.491118912997,
    6.259532082602));
#1318 = CARTESIAN_POINT('',(24.993375796178,2.362414772438,
    5.905920362627));
#1319 = SURFACE_OF_LINEAR_EXTRUSION('',#1320,#1324);
#1320 = B_SPLINE_CURVE_WITH_KNOTS('',2,(#1321,#1322,#1323),
  .UNSPECIFIED.,.F.,.F.,(3,3),(0.,1.),.PIECEWISE_BEZIER_KNOTS.);
#1321 = CARTESIAN_POINT('',(25.423184713376,2.608582136743,6.58225963746
    ));
#1322 = CARTESIAN_POINT('',(25.287643312102,2.491118912997,
    6.259532082602));
#1323 = CARTESIAN_POINT('',(24.993375796178,2.362414772438,
    5.905920362627));
#1324 = VECTOR('',#1325,1.);
#1325 = DIRECTION('',(-0.,0.939692620786,-0.342020143326));
#1326 = ADVANCED_FACE('',(#1327),#1352,.T.);
#1327 = FACE_BOUND('',#1328,.T.);
#1328 = EDGE_LOOP('',(#1329,#1330,#1338,#1346));
#1329 = ORIENTED_EDGE('',*,*,#1306,.T.);
#1330 = ORIENTED_EDGE('',*,*,#1331,.T.);
#1331 = EDGE_CURVE('',#1299,#1332,#1334,.T.);
#1332 = VERTEX_POINT('',#1333);
#1333 = CARTESIAN_POINT('',(24.290191082803,1.365190422625,
    5.505112499516));
#1334 = B_SPLINE_CURVE_WITH_KNOTS('',2,(#1335,#1336,#1337),
  .UNSPECIFIED.,.F.,.F.,(3,3),(0.,1.),.PIECEWISE_BEZIER_KNOTS.);
#1335 = CARTESIAN_POINT('',(24.993375796178,1.610660675809,
    6.179536477288));
#1336 = CARTESIAN_POINT('',(24.79847133758,1.525351702481,5.94515199939)
  );
#1337 = CARTESIAN_POINT('',(24.290191082803,1.365190422625,
    5.505112499516));
#1338 = ORIENTED_EDGE('',*,*,#1339,.F.);
#1339 = EDGE_CURVE('',#1340,#1332,#1342,.T.);
#1340 = VERTEX_POINT('',#1341);
#1341 = CARTESIAN_POINT('',(24.290191082803,2.116944519254,
    5.231496384855));
#1342 = LINE('',#1343,#1344);
#1343 = CARTESIAN_POINT('',(24.290191082803,2.116944519254,
    5.231496384855));
#1344 = VECTOR('',#1345,1.);
#1345 = DIRECTION('',(0.,-0.939692620786,0.342020143326));
#1346 = ORIENTED_EDGE('',*,*,#1347,.F.);
#1347 = EDGE_CURVE('',#1307,#1340,#1348,.T.);
#1348 = B_SPLINE_CURVE_WITH_KNOTS('',2,(#1349,#1350,#1351),
  .UNSPECIFIED.,.F.,.F.,(3,3),(0.,1.),.PIECEWISE_BEZIER_KNOTS.);
#1349 = CARTESIAN_POINT('',(24.993375796178,2.362414772438,
    5.905920362627));
#1350 = CARTESIAN_POINT('',(24.79847133758,2.277105799109,5.671535884729
    ));
#1351 = CARTESIAN_POINT('',(24.290191082803,2.116944519254,
    5.231496384855));
#1352 = SURFACE_OF_LINEAR_EXTRUSION('',#1353,#1357);
#1353 = B_SPLINE_CURVE_WITH_KNOTS('',2,(#1354,#1355,#1356),
  .UNSPECIFIED.,.F.,.F.,(3,3),(0.,1.),.PIECEWISE_BEZIER_KNOTS.);
#1354 = CARTESIAN_POINT('',(24.993375796178,2.362414772438,
    5.905920362627));
#1355 = CARTESIAN_POINT('',(24.79847133758,2.277105799109,5.671535884729
    ));
#1356 = CARTESIAN_POINT('',(24.290191082803,2.116944519254,
    5.231496384855));
#1357 = VECTOR('',#1358,1.);
#1358 = DIRECTION('',(-0.,0.939692620786,-0.342020143326));
#1359 = ADVANCED_FACE('',(#1360),#1385,.T.);
#1360 = FACE_BOUND('',#1361,.T.);
#1361 = EDGE_LOOP('',(#1362,#1363,#1371,#1379));
#1362 = ORIENTED_EDGE('',*,*,#1339,.T.);
#1363 = ORIENTED_EDGE('',*,*,#1364,.T.);
#1364 = EDGE_CURVE('',#1332,#1365,#1367,.T.);
#1365 = VERTEX_POINT('',#1366);
#1366 = CARTESIAN_POINT('',(23.646114649682,1.152571530978,
    4.920946895766));
#1367 = B_SPLINE_CURVE_WITH_KNOTS('',2,(#1368,#1369,#1370),
  .UNSPECIFIED.,.F.,.F.,(3,3),(0.,1.),.PIECEWISE_BEZIER_KNOTS.);
#1368 = CARTESIAN_POINT('',(24.290191082803,1.365190422625,
    5.505112499516));
#1369 = CARTESIAN_POINT('',(23.781910828025,1.20511628166,5.065312411775
    ));
#1370 = CARTESIAN_POINT('',(23.646114649682,1.152571530978,
    4.920946895766));
#1371 = ORIENTED_EDGE('',*,*,#1372,.F.);
#1372 = EDGE_CURVE('',#1373,#1365,#1375,.T.);
#1373 = VERTEX_POINT('',#1374);
#1374 = CARTESIAN_POINT('',(23.646114649682,1.904325627607,
    4.647330781106));
#1375 = LINE('',#1376,#1377);
#1376 = CARTESIAN_POINT('',(23.646114649682,1.904325627607,
    4.647330781106));
#1377 = VECTOR('',#1378,1.);
#1378 = DIRECTION('',(0.,-0.939692620786,0.342020143326));
#1379 = ORIENTED_EDGE('',*,*,#1380,.F.);
#1380 = EDGE_CURVE('',#1340,#1373,#1381,.T.);
#1381 = B_SPLINE_CURVE_WITH_KNOTS('',2,(#1382,#1383,#1384),
  .UNSPECIFIED.,.F.,.F.,(3,3),(0.,1.),.PIECEWISE_BEZIER_KNOTS.);
#1382 = CARTESIAN_POINT('',(24.290191082803,2.116944519254,
    5.231496384855));
#1383 = CARTESIAN_POINT('',(23.781910828025,1.956870378288,
    4.791696297114));
#1384 = CARTESIAN_POINT('',(23.646114649682,1.904325627607,
    4.647330781106));
#1385 = SURFACE_OF_LINEAR_EXTRUSION('',#1386,#1390);
#1386 = B_SPLINE_CURVE_WITH_KNOTS('',2,(#1387,#1388,#1389),
  .UNSPECIFIED.,.F.,.F.,(3,3),(0.,1.),.PIECEWISE_BEZIER_KNOTS.);
#1387 = CARTESIAN_POINT('',(24.290191082803,2.116944519254,
    5.231496384855));
#1388 = CARTESIAN_POINT('',(23.781910828025,1.956870378288,
    4.791696297114));
#1389 = CARTESIAN_POINT('',(23.646114649682,1.904325627607,
    4.647330781106));
#1390 = VECTOR('',#1391,1.);
#1391 = DIRECTION('',(-0.,0.939692620786,-0.342020143326));
#1392 = ADVANCED_FACE('',(#1393),#1418,.T.);
#1393 = FACE_BOUND('',#1394,.T.);
#1394 = EDGE_LOOP('',(#1395,#1396,#1404,#1412));
#1395 = ORIENTED_EDGE('',*,*,#1372,.T.);
#1396 = ORIENTED_EDGE('',*,*,#1397,.T.);
#1397 = EDGE_CURVE('',#1365,#1398,#1400,.T.);
#1398 = VERTEX_POINT('',#1399);
#1399 = CARTESIAN_POINT('',(23.426496815287,1.050270474095,
    4.639877051995));
#1400 = B_SPLINE_CURVE_WITH_KNOTS('',2,(#1401,#1402,#1403),
  .UNSPECIFIED.,.F.,.F.,(3,3),(0.,1.),.PIECEWISE_BEZIER_KNOTS.);
#1401 = CARTESIAN_POINT('',(23.646114649682,1.152571530978,
    4.920946895766));
#1402 = CARTESIAN_POINT('',(23.510573248408,1.100113919186,4.77682079189
    ));
#1403 = CARTESIAN_POINT('',(23.426496815287,1.050270474095,
    4.639877051995));
#1404 = ORIENTED_EDGE('',*,*,#1405,.F.);
#1405 = EDGE_CURVE('',#1406,#1398,#1408,.T.);
#1406 = VERTEX_POINT('',#1407);
#1407 = CARTESIAN_POINT('',(23.426496815287,1.802024570724,
    4.366260937334));
#1408 = LINE('',#1409,#1410);
#1409 = CARTESIAN_POINT('',(23.426496815287,1.802024570724,
    4.366260937334));
#1410 = VECTOR('',#1411,1.);
#1411 = DIRECTION('',(0.,-0.939692620786,0.342020143326));
#1412 = ORIENTED_EDGE('',*,*,#1413,.F.);
#1413 = EDGE_CURVE('',#1373,#1406,#1414,.T.);
#1414 = B_SPLINE_CURVE_WITH_KNOTS('',2,(#1415,#1416,#1417),
  .UNSPECIFIED.,.F.,.F.,(3,3),(0.,1.),.PIECEWISE_BEZIER_KNOTS.);
#1415 = CARTESIAN_POINT('',(23.646114649682,1.904325627607,
    4.647330781106));
#1416 = CARTESIAN_POINT('',(23.510573248408,1.851868015815,4.50320467723
    ));
#1417 = CARTESIAN_POINT('',(23.426496815287,1.802024570724,
    4.366260937334));
#1418 = SURFACE_OF_LINEAR_EXTRUSION('',#1419,#1423);
#1419 = B_SPLINE_CURVE_WITH_KNOTS('',2,(#1420,#1421,#1422),
  .UNSPECIFIED.,.F.,.F.,(3,3),(0.,1.),.PIECEWISE_BEZIER_KNOTS.);
#1420 = CARTESIAN_POINT('',(23.646114649682,1.904325627607,
    4.647330781106));
#1421 = CARTESIAN_POINT('',(23.510573248408,1.851868015815,4.50320467723
    ));
#1422 = CARTESIAN_POINT('',(23.426496815287,1.802024570724,
    4.366260937334));
#1423 = VECTOR('',#1424,1.);
#1424 = DIRECTION('',(-0.,0.939692620786,-0.342020143326));
#1425 = ADVANCED_FACE('',(#1426),#1442,.T.);
#1426 = FACE_BOUND('',#1427,.T.);
#1427 = EDGE_LOOP('',(#1428,#1429,#1435,#1436));
#1428 = ORIENTED_EDGE('',*,*,#1405,.T.);
#1429 = ORIENTED_EDGE('',*,*,#1430,.T.);
#1430 = EDGE_CURVE('',#1398,#769,#1431,.T.);
#1431 = LINE('',#1432,#1433);
#1432 = CARTESIAN_POINT('',(23.426496815287,1.050270474095,
    4.639877051995));
#1433 = VECTOR('',#1434,1.);
#1434 = DIRECTION('',(1.,0.,0.));
#1435 = ORIENTED_EDGE('',*,*,#766,.F.);
#1436 = ORIENTED_EDGE('',*,*,#1437,.F.);
#1437 = EDGE_CURVE('',#1406,#767,#1438,.T.);
#1438 = LINE('',#1439,#1440);
#1439 = CARTESIAN_POINT('',(23.426496815287,1.802024570724,
    4.366260937334));
#1440 = VECTOR('',#1441,1.);
#1441 = DIRECTION('',(1.,0.,0.));
#1442 = PLANE('',#1443);
#1443 = AXIS2_PLACEMENT_3D('',#1444,#1445,#1446);
#1444 = CARTESIAN_POINT('',(23.426496815287,1.802024570724,
    4.366260937334));
#1445 = DIRECTION('',(0.,0.342020143326,0.939692620786));
#1446 = DIRECTION('',(1.,0.,0.));
#1447 = ADVANCED_FACE('',(#1448),#1471,.F.);
#1448 = FACE_BOUND('',#1449,.T.);
#1449 = EDGE_LOOP('',(#1450,#1451,#1452,#1453,#1454,#1455,#1456,#1457,
    #1458,#1459,#1460,#1461,#1462,#1463,#1464,#1465,#1466,#1467,#1468,
    #1469,#1470));
#1450 = ORIENTED_EDGE('',*,*,#792,.T.);
#1451 = ORIENTED_EDGE('',*,*,#823,.T.);
#1452 = ORIENTED_EDGE('',*,*,#854,.T.);
#1453 = ORIENTED_EDGE('',*,*,#887,.T.);
#1454 = ORIENTED_EDGE('',*,*,#920,.T.);
#1455 = ORIENTED_EDGE('',*,*,#953,.T.);
#1456 = ORIENTED_EDGE('',*,*,#986,.T.);
#1457 = ORIENTED_EDGE('',*,*,#1019,.T.);
#1458 = ORIENTED_EDGE('',*,*,#1052,.T.);
#1459 = ORIENTED_EDGE('',*,*,#1085,.T.);
#1460 = ORIENTED_EDGE('',*,*,#1118,.T.);
#1461 = ORIENTED_EDGE('',*,*,#1149,.T.);
#1462 = ORIENTED_EDGE('',*,*,#1182,.T.);
#1463 = ORIENTED_EDGE('',*,*,#1215,.T.);
#1464 = ORIENTED_EDGE('',*,*,#1248,.T.);
#1465 = ORIENTED_EDGE('',*,*,#1281,.T.);
#1466 = ORIENTED_EDGE('',*,*,#1314,.T.);
#1467 = ORIENTED_EDGE('',*,*,#1347,.T.);
#1468 = ORIENTED_EDGE('',*,*,#1380,.T.);
#1469 = ORIENTED_EDGE('',*,*,#1413,.T.);
#1470 = ORIENTED_EDGE('',*,*,#1437,.T.);
#1471 = PLANE('',#1472);
#1472 = AXIS2_PLACEMENT_3D('',#1473,#1474,#1475);
#1473 = CARTESIAN_POINT('',(23.8203596286,2.361698988263,5.903953761769)
  );
#1474 = DIRECTION('',(0.,-0.939692620786,0.342020143326));
#1475 = DIRECTION('',(1.,0.,0.));
#1476 = ADVANCED_FACE('',(#1477),#1500,.T.);
#1477 = FACE_BOUND('',#1478,.F.);
#1478 = EDGE_LOOP('',(#1479,#1480,#1481,#1482,#1483,#1484,#1485,#1486,
    #1487,#1488,#1489,#1490,#1491,#1492,#1493,#1494,#1495,#1496,#1497,
    #1498,#1499));
#1479 = ORIENTED_EDGE('',*,*,#776,.T.);
#1480 = ORIENTED_EDGE('',*,*,#807,.T.);
#1481 = ORIENTED_EDGE('',*,*,#838,.T.);
#1482 = ORIENTED_EDGE('',*,*,#871,.T.);
#1483 = ORIENTED_EDGE('',*,*,#904,.T.);
#1484 = ORIENTED_EDGE('',*,*,#937,.T.);
#1485 = ORIENTED_EDGE('',*,*,#970,.T.);
#1486 = ORIENTED_EDGE('',*,*,#1003,.T.);
#1487 = ORIENTED_EDGE('',*,*,#1036,.T.);
#1488 = ORIENTED_EDGE('',*,*,#1069,.T.);
#1489 = ORIENTED_EDGE('',*,*,#1102,.T.);
#1490 = ORIENTED_EDGE('',*,*,#1133,.T.);
#1491 = ORIENTED_EDGE('',*,*,#1166,.T.);
#1492 = ORIENTED_EDGE('',*,*,#1199,.T.);
#1493 = ORIENTED_EDGE('',*,*,#1232,.T.);
#1494 = ORIENTED_EDGE('',*,*,#1265,.T.);
#1495 = ORIENTED_EDGE('',*,*,#1298,.T.);
#1496 = ORIENTED_EDGE('',*,*,#1331,.T.);
#1497 = ORIENTED_EDGE('',*,*,#1364,.T.);
#1498 = ORIENTED_EDGE('',*,*,#1397,.T.);
#1499 = ORIENTED_EDGE('',*,*,#1430,.T.);
#1500 = PLANE('',#1501);
#1501 = AXIS2_PLACEMENT_3D('',#1502,#1503,#1504);
#1502 = CARTESIAN_POINT('',(23.8203596286,1.609944891634,6.17756987643)
  );
#1503 = DIRECTION('',(0.,-0.939692620786,0.342020143326));
#1504 = DIRECTION('',(1.,0.,0.));
#1505 = ( GEOMETRIC_REPRESENTATION_CONTEXT(3) 
GLOBAL_UNCERTAINTY_ASSIGNED_CONTEXT((#1509)) 
GLOBAL_UNIT_ASSIGNED_CONTEXT((#1506,#1507,#1508)) REPRESENTATION_CONTEXT
('Context #1','3D Context with UNIT and UNCERTAINTY') );
#1506 = ( LENGTH_UNIT() NAMED_UNIT(*) SI_UNIT(.MILLI.,.METRE.) );
#1507 = ( NAMED_UNIT(*) PLANE_ANGLE_UNIT() SI_UNIT($,.RADIAN.) );
#1508 = ( NAMED_UNIT(*) SI_UNIT($,.STERADIAN.) SOLID_ANGLE_UNIT() );
#1509 = UNCERTAINTY_MEASURE_WITH_UNIT(LENGTH_MEASURE(1.E-07),#1506,
  'distance_accuracy_value','confusion accuracy');
#1510 = PRODUCT_RELATED_PRODUCT_CATEGORY('part',$,(#7));
ENDSEC;
END-ISO-10303-21;
