ISO-10303-21;
HEADER;
FILE_DESCRIPTION(('FreeCAD Model'),'2;1');
FILE_NAME('Open CASCADE Shape Model','2026-08-29T15:58:18',('FreeCAD'),(
    'FreeCAD'),'Open CASCADE STEP processor 7.8','FreeCAD','Unknown');
FILE_SCHEMA(('AUTOMOTIVE_DESIGN { 1 0 10303 214 1 1 1 1 }'));
ENDSEC;
DATA;
#1 = APPLICATION_PROTOCOL_DEFINITION('international standard',
  'automotive_design',2000,#2);
#2 = APPLICATION_CONTEXT(
  'core data for automotive mechanical design processes');
#3 = SHAPE_DEFINITION_REPRESENTATION(#4,#10);
#4 = PRODUCT_DEFINITION_SHAPE('','',#5);
#5 = PRODUCT_DEFINITION('design','',#6,#9);
#6 = PRODUCT_DEFINITION_FORMATION('','',#7);
#7 = PRODUCT('Open CASCADE STEP translator 7.8 50',
  'Open CASCADE STEP translator 7.8 50','',(#8));
#8 = PRODUCT_CONTEXT('',#2,'mechanical');
#9 = PRODUCT_DEFINITION_CONTEXT('part definition',#2,'design');
#10 = SHAPE_REPRESENTATION('',(#11,#15,#303),#591);
#11 = AXIS2_PLACEMENT_3D('',#12,#13,#14);
#12 = CARTESIAN_POINT('',(0.,0.,0.));
#13 = DIRECTION('',(0.,0.,1.));
#14 = DIRECTION('',(1.,0.,-0.));
#15 = MANIFOLD_SOLID_BREP('',#16);
#16 = CLOSED_SHELL('',(#17,#57,#88,#121,#152,#185,#218,#249,#271,#287));
#17 = ADVANCED_FACE('',(#18),#52,.T.);
#18 = FACE_BOUND('',#19,.T.);
#19 = EDGE_LOOP('',(#20,#30,#38,#46));
#20 = ORIENTED_EDGE('',*,*,#21,.T.);
#21 = EDGE_CURVE('',#22,#24,#26,.T.);
#22 = VERTEX_POINT('',#23);
#23 = CARTESIAN_POINT('',(12.510488322718,1.643819461222,3.931595971335)
  );
#24 = VERTEX_POINT('',#25);
#25 = CARTESIAN_POINT('',(12.510488322718,0.892065364593,4.205212085995)
  );
#26 = LINE('',#27,#28);
#27 = CARTESIAN_POINT('',(12.510488322718,1.643819461222,3.931595971335)
  );
#28 = VECTOR('',#29,1.);
#29 = DIRECTION('',(0.,-0.939692620786,0.342020143326));
#30 = ORIENTED_EDGE('',*,*,#31,.T.);
#31 = EDGE_CURVE('',#24,#32,#34,.T.);
#32 = VERTEX_POINT('',#33);
#33 = CARTESIAN_POINT('',(11.794564755839,0.892065364593,4.205212085995)
  );
#34 = LINE('',#35,#36);
#35 = CARTESIAN_POINT('',(12.510488322718,0.892065364593,4.205212085995)
  );
#36 = VECTOR('',#37,1.);
#37 = DIRECTION('',(-1.,0.,0.));
#38 = ORIENTED_EDGE('',*,*,#39,.F.);
#39 = EDGE_CURVE('',#40,#32,#42,.T.);
#40 = VERTEX_POINT('',#41);
#41 = CARTESIAN_POINT('',(11.794564755839,1.643819461222,3.931595971335)
  );
#42 = LINE('',#43,#44);
#43 = CARTESIAN_POINT('',(11.794564755839,1.643819461222,3.931595971335)
  );
#44 = VECTOR('',#45,1.);
#45 = DIRECTION('',(0.,-0.939692620786,0.342020143326));
#46 = ORIENTED_EDGE('',*,*,#47,.F.);
#47 = EDGE_CURVE('',#22,#40,#48,.T.);
#48 = LINE('',#49,#50);
#49 = CARTESIAN_POINT('',(12.510488322718,1.643819461222,3.931595971335)
  );
#50 = VECTOR('',#51,1.);
#51 = DIRECTION('',(-1.,0.,0.));
#52 = PLANE('',#53);
#53 = AXIS2_PLACEMENT_3D('',#54,#55,#56);
#54 = CARTESIAN_POINT('',(12.510488322718,1.643819461222,3.931595971335)
  );
#55 = DIRECTION('',(0.,-0.342020143326,-0.939692620786));
#56 = DIRECTION('',(-1.,0.,0.));
#57 = ADVANCED_FACE('',(#58),#83,.T.);
#58 = FACE_BOUND('',#59,.T.);
#59 = EDGE_LOOP('',(#60,#61,#69,#77));
#60 = ORIENTED_EDGE('',*,*,#39,.T.);
#61 = ORIENTED_EDGE('',*,*,#62,.T.);
#62 = EDGE_CURVE('',#32,#63,#65,.T.);
#63 = VERTEX_POINT('',#64);
#64 = CARTESIAN_POINT('',(11.794564755839,1.818293672905,6.750003448341)
  );
#65 = LINE('',#66,#67);
#66 = CARTESIAN_POINT('',(11.794564755839,0.892065364593,4.205212085995)
  );
#67 = VECTOR('',#68,1.);
#68 = DIRECTION('',(0.,0.342020143326,0.939692620786));
#69 = ORIENTED_EDGE('',*,*,#70,.F.);
#70 = EDGE_CURVE('',#71,#63,#73,.T.);
#71 = VERTEX_POINT('',#72);
#72 = CARTESIAN_POINT('',(11.794564755839,2.570047769534,6.476387333681)
  );
#73 = LINE('',#74,#75);
#74 = CARTESIAN_POINT('',(11.794564755839,2.570047769534,6.476387333681)
  );
#75 = VECTOR('',#76,1.);
#76 = DIRECTION('',(0.,-0.939692620786,0.342020143326));
#77 = ORIENTED_EDGE('',*,*,#78,.F.);
#78 = EDGE_CURVE('',#40,#71,#79,.T.);
#79 = LINE('',#80,#81);
#80 = CARTESIAN_POINT('',(11.794564755839,1.643819461222,3.931595971335)
  );
#81 = VECTOR('',#82,1.);
#82 = DIRECTION('',(0.,0.342020143326,0.939692620786));
#83 = PLANE('',#84);
#84 = AXIS2_PLACEMENT_3D('',#85,#86,#87);
#85 = CARTESIAN_POINT('',(11.794564755839,1.643819461222,3.931595971335)
  );
#86 = DIRECTION('',(-1.,0.,0.));
#87 = DIRECTION('',(0.,0.342020143326,0.939692620786));
#88 = ADVANCED_FACE('',(#89),#114,.T.);
#89 = FACE_BOUND('',#90,.T.);
#90 = EDGE_LOOP('',(#91,#92,#100,#108));
#91 = ORIENTED_EDGE('',*,*,#70,.T.);
#92 = ORIENTED_EDGE('',*,*,#93,.T.);
#93 = EDGE_CURVE('',#63,#94,#96,.T.);
#94 = VERTEX_POINT('',#95);
#95 = CARTESIAN_POINT('',(10.869723991507,1.63193263345,6.237980700574)
  );
#96 = B_SPLINE_CURVE_WITH_KNOTS('',2,(#97,#98,#99),.UNSPECIFIED.,.F.,.F.
  ,(3,3),(0.,1.),.PIECEWISE_BEZIER_KNOTS.);
#97 = CARTESIAN_POINT('',(11.794564755839,1.818293672905,6.750003448341)
  );
#98 = CARTESIAN_POINT('',(11.402208067941,1.692290837937,6.40381350448)
  );
#99 = CARTESIAN_POINT('',(10.869723991507,1.63193263345,6.237980700574)
  );
#100 = ORIENTED_EDGE('',*,*,#101,.F.);
#101 = EDGE_CURVE('',#102,#94,#104,.T.);
#102 = VERTEX_POINT('',#103);
#103 = CARTESIAN_POINT('',(10.869723991507,2.383686730079,5.964364585913
    ));
#104 = LINE('',#105,#106);
#105 = CARTESIAN_POINT('',(10.869723991507,2.383686730079,5.964364585913
    ));
#106 = VECTOR('',#107,1.);
#107 = DIRECTION('',(0.,-0.939692620786,0.342020143326));
#108 = ORIENTED_EDGE('',*,*,#109,.F.);
#109 = EDGE_CURVE('',#71,#102,#110,.T.);
#110 = B_SPLINE_CURVE_WITH_KNOTS('',2,(#111,#112,#113),.UNSPECIFIED.,.F.
  ,.F.,(3,3),(0.,1.),.PIECEWISE_BEZIER_KNOTS.);
#111 = CARTESIAN_POINT('',(11.794564755839,2.570047769534,6.476387333681
    ));
#112 = CARTESIAN_POINT('',(11.402208067941,2.444044934566,6.130197389819
    ));
#113 = CARTESIAN_POINT('',(10.869723991507,2.383686730079,5.964364585913
    ));
#114 = SURFACE_OF_LINEAR_EXTRUSION('',#115,#119);
#115 = B_SPLINE_CURVE_WITH_KNOTS('',2,(#116,#117,#118),.UNSPECIFIED.,.F.
  ,.F.,(3,3),(0.,1.),.PIECEWISE_BEZIER_KNOTS.);
#116 = CARTESIAN_POINT('',(11.794564755839,2.570047769534,6.476387333681
    ));
#117 = CARTESIAN_POINT('',(11.402208067941,2.444044934566,6.130197389819
    ));
#118 = CARTESIAN_POINT('',(10.869723991507,2.383686730079,5.964364585913
    ));
#119 = VECTOR('',#120,1.);
#120 = DIRECTION('',(-0.,0.939692620786,-0.342020143326));
#121 = ADVANCED_FACE('',(#122),#147,.T.);
#122 = FACE_BOUND('',#123,.T.);
#123 = EDGE_LOOP('',(#124,#125,#133,#141));
#124 = ORIENTED_EDGE('',*,*,#101,.T.);
#125 = ORIENTED_EDGE('',*,*,#126,.T.);
#126 = EDGE_CURVE('',#94,#127,#129,.T.);
#127 = VERTEX_POINT('',#128);
#128 = CARTESIAN_POINT('',(10.869723991507,1.8550081919,6.850875760245)
  );
#129 = LINE('',#130,#131);
#130 = CARTESIAN_POINT('',(10.869723991507,1.63193263345,6.237980700574)
  );
#131 = VECTOR('',#132,1.);
#132 = DIRECTION('',(0.,0.342020143326,0.939692620786));
#133 = ORIENTED_EDGE('',*,*,#134,.F.);
#134 = EDGE_CURVE('',#135,#127,#137,.T.);
#135 = VERTEX_POINT('',#136);
#136 = CARTESIAN_POINT('',(10.869723991507,2.606762288528,6.577259645585
    ));
#137 = LINE('',#138,#139);
#138 = CARTESIAN_POINT('',(10.869723991507,2.606762288528,6.577259645585
    ));
#139 = VECTOR('',#140,1.);
#140 = DIRECTION('',(0.,-0.939692620786,0.342020143326));
#141 = ORIENTED_EDGE('',*,*,#142,.F.);
#142 = EDGE_CURVE('',#102,#135,#143,.T.);
#143 = LINE('',#144,#145);
#144 = CARTESIAN_POINT('',(10.869723991507,2.383686730079,5.964364585913
    ));
#145 = VECTOR('',#146,1.);
#146 = DIRECTION('',(0.,0.342020143326,0.939692620786));
#147 = PLANE('',#148);
#148 = AXIS2_PLACEMENT_3D('',#149,#150,#151);
#149 = CARTESIAN_POINT('',(10.869723991507,2.383686730079,5.964364585913
    ));
#150 = DIRECTION('',(-1.,0.,0.));
#151 = DIRECTION('',(0.,0.342020143326,0.939692620786));
#152 = ADVANCED_FACE('',(#153),#178,.T.);
#153 = FACE_BOUND('',#154,.T.);
#154 = EDGE_LOOP('',(#155,#156,#164,#172));
#155 = ORIENTED_EDGE('',*,*,#134,.T.);
#156 = ORIENTED_EDGE('',*,*,#157,.T.);
#157 = EDGE_CURVE('',#127,#158,#160,.T.);
#158 = VERTEX_POINT('',#159);
#159 = CARTESIAN_POINT('',(11.47864118896,1.973981823073,7.177753125404)
  );
#160 = B_SPLINE_CURVE_WITH_KNOTS('',2,(#161,#162,#163),.UNSPECIFIED.,.F.
  ,.F.,(3,3),(0.,1.),.PIECEWISE_BEZIER_KNOTS.);
#161 = CARTESIAN_POINT('',(10.869723991507,1.8550081919,6.850875760245)
  );
#162 = CARTESIAN_POINT('',(11.149978768577,1.886378192307,6.937064128012
    ));
#163 = CARTESIAN_POINT('',(11.47864118896,1.973981823073,7.177753125404)
  );
#164 = ORIENTED_EDGE('',*,*,#165,.F.);
#165 = EDGE_CURVE('',#166,#158,#168,.T.);
#166 = VERTEX_POINT('',#167);
#167 = CARTESIAN_POINT('',(11.47864118896,2.725735919701,6.904137010743)
  );
#168 = LINE('',#169,#170);
#169 = CARTESIAN_POINT('',(11.47864118896,2.725735919701,6.904137010743)
  );
#170 = VECTOR('',#171,1.);
#171 = DIRECTION('',(0.,-0.939692620786,0.342020143326));
#172 = ORIENTED_EDGE('',*,*,#173,.F.);
#173 = EDGE_CURVE('',#135,#166,#174,.T.);
#174 = B_SPLINE_CURVE_WITH_KNOTS('',2,(#175,#176,#177),.UNSPECIFIED.,.F.
  ,.F.,(3,3),(0.,1.),.PIECEWISE_BEZIER_KNOTS.);
#175 = CARTESIAN_POINT('',(10.869723991507,2.606762288528,6.577259645585
    ));
#176 = CARTESIAN_POINT('',(11.149978768577,2.638132288935,6.663448013351
    ));
#177 = CARTESIAN_POINT('',(11.47864118896,2.725735919701,6.904137010743)
  );
#178 = SURFACE_OF_LINEAR_EXTRUSION('',#179,#183);
#179 = B_SPLINE_CURVE_WITH_KNOTS('',2,(#180,#181,#182),.UNSPECIFIED.,.F.
  ,.F.,(3,3),(0.,1.),.PIECEWISE_BEZIER_KNOTS.);
#180 = CARTESIAN_POINT('',(10.869723991507,2.606762288528,6.577259645585
    ));
#181 = CARTESIAN_POINT('',(11.149978768577,2.638132288935,6.663448013351
    ));
#182 = CARTESIAN_POINT('',(11.47864118896,2.725735919701,6.904137010743)
  );
#183 = VECTOR('',#184,1.);
#184 = DIRECTION('',(-0.,0.939692620786,-0.342020143326));
#185 = ADVANCED_FACE('',(#186),#211,.T.);
#186 = FACE_BOUND('',#187,.T.);
#187 = EDGE_LOOP('',(#188,#189,#197,#205));
#188 = ORIENTED_EDGE('',*,*,#165,.T.);
#189 = ORIENTED_EDGE('',*,*,#190,.T.);
#190 = EDGE_CURVE('',#158,#191,#193,.T.);
#191 = VERTEX_POINT('',#192);
#192 = CARTESIAN_POINT('',(11.929596602972,2.178467751651,7.73957359677)
  );
#193 = B_SPLINE_CURVE_WITH_KNOTS('',2,(#194,#195,#196),.UNSPECIFIED.,.F.
  ,.F.,(3,3),(0.,1.),.PIECEWISE_BEZIER_KNOTS.);
#194 = CARTESIAN_POINT('',(11.47864118896,1.973981823073,7.177753125404)
  );
#195 = CARTESIAN_POINT('',(11.807303609342,2.061643546432,7.418601730884
    ));
#196 = CARTESIAN_POINT('',(11.929596602972,2.178467751651,7.73957359677)
  );
#197 = ORIENTED_EDGE('',*,*,#198,.F.);
#198 = EDGE_CURVE('',#199,#191,#201,.T.);
#199 = VERTEX_POINT('',#200);
#200 = CARTESIAN_POINT('',(11.929596602972,2.93022184828,7.465957482109)
  );
#201 = LINE('',#202,#203);
#202 = CARTESIAN_POINT('',(11.929596602972,2.93022184828,7.465957482109)
  );
#203 = VECTOR('',#204,1.);
#204 = DIRECTION('',(0.,-0.939692620786,0.342020143326));
#205 = ORIENTED_EDGE('',*,*,#206,.F.);
#206 = EDGE_CURVE('',#166,#199,#207,.T.);
#207 = B_SPLINE_CURVE_WITH_KNOTS('',2,(#208,#209,#210),.UNSPECIFIED.,.F.
  ,.F.,(3,3),(0.,1.),.PIECEWISE_BEZIER_KNOTS.);
#208 = CARTESIAN_POINT('',(11.47864118896,2.725735919701,6.904137010743)
  );
#209 = CARTESIAN_POINT('',(11.807303609342,2.813397643061,7.144985616224
    ));
#210 = CARTESIAN_POINT('',(11.929596602972,2.93022184828,7.465957482109)
  );
#211 = SURFACE_OF_LINEAR_EXTRUSION('',#212,#216);
#212 = B_SPLINE_CURVE_WITH_KNOTS('',2,(#213,#214,#215),.UNSPECIFIED.,.F.
  ,.F.,(3,3),(0.,1.),.PIECEWISE_BEZIER_KNOTS.);
#213 = CARTESIAN_POINT('',(11.47864118896,2.725735919701,6.904137010743)
  );
#214 = CARTESIAN_POINT('',(11.807303609342,2.813397643061,7.144985616224
    ));
#215 = CARTESIAN_POINT('',(11.929596602972,2.93022184828,7.465957482109)
  );
#216 = VECTOR('',#217,1.);
#217 = DIRECTION('',(-0.,0.939692620786,-0.342020143326));
#218 = ADVANCED_FACE('',(#219),#244,.T.);
#219 = FACE_BOUND('',#220,.T.);
#220 = EDGE_LOOP('',(#221,#222,#230,#238));
#221 = ORIENTED_EDGE('',*,*,#198,.T.);
#222 = ORIENTED_EDGE('',*,*,#223,.T.);
#223 = EDGE_CURVE('',#191,#224,#226,.T.);
#224 = VERTEX_POINT('',#225);
#225 = CARTESIAN_POINT('',(12.510488322718,2.178467751651,7.73957359677)
  );
#226 = LINE('',#227,#228);
#227 = CARTESIAN_POINT('',(11.929596602972,2.178467751651,7.73957359677)
  );
#228 = VECTOR('',#229,1.);
#229 = DIRECTION('',(1.,0.,0.));
#230 = ORIENTED_EDGE('',*,*,#231,.F.);
#231 = EDGE_CURVE('',#232,#224,#234,.T.);
#232 = VERTEX_POINT('',#233);
#233 = CARTESIAN_POINT('',(12.510488322718,2.93022184828,7.465957482109)
  );
#234 = LINE('',#235,#236);
#235 = CARTESIAN_POINT('',(12.510488322718,2.93022184828,7.465957482109)
  );
#236 = VECTOR('',#237,1.);
#237 = DIRECTION('',(0.,-0.939692620786,0.342020143326));
#238 = ORIENTED_EDGE('',*,*,#239,.F.);
#239 = EDGE_CURVE('',#199,#232,#240,.T.);
#240 = LINE('',#241,#242);
#241 = CARTESIAN_POINT('',(11.929596602972,2.93022184828,7.465957482109)
  );
#242 = VECTOR('',#243,1.);
#243 = DIRECTION('',(1.,0.,0.));
#244 = PLANE('',#245);
#245 = AXIS2_PLACEMENT_3D('',#246,#247,#248);
#246 = CARTESIAN_POINT('',(11.929596602972,2.93022184828,7.465957482109)
  );
#247 = DIRECTION('',(0.,0.342020143326,0.939692620786));
#248 = DIRECTION('',(1.,0.,0.));
#249 = ADVANCED_FACE('',(#250),#266,.T.);
#250 = FACE_BOUND('',#251,.T.);
#251 = EDGE_LOOP('',(#252,#253,#259,#260));
#252 = ORIENTED_EDGE('',*,*,#231,.T.);
#253 = ORIENTED_EDGE('',*,*,#254,.T.);
#254 = EDGE_CURVE('',#224,#24,#255,.T.);
#255 = LINE('',#256,#257);
#256 = CARTESIAN_POINT('',(12.510488322718,2.178467751651,7.73957359677)
  );
#257 = VECTOR('',#258,1.);
#258 = DIRECTION('',(0.,-0.342020143326,-0.939692620786));
#259 = ORIENTED_EDGE('',*,*,#21,.F.);
#260 = ORIENTED_EDGE('',*,*,#261,.F.);
#261 = EDGE_CURVE('',#232,#22,#262,.T.);
#262 = LINE('',#263,#264);
#263 = CARTESIAN_POINT('',(12.510488322718,2.93022184828,7.465957482109)
  );
#264 = VECTOR('',#265,1.);
#265 = DIRECTION('',(0.,-0.342020143326,-0.939692620786));
#266 = PLANE('',#267);
#267 = AXIS2_PLACEMENT_3D('',#268,#269,#270);
#268 = CARTESIAN_POINT('',(12.510488322718,2.93022184828,7.465957482109)
  );
#269 = DIRECTION('',(1.,0.,0.));
#270 = DIRECTION('',(0.,-0.342020143326,-0.939692620786));
#271 = ADVANCED_FACE('',(#272),#282,.F.);
#272 = FACE_BOUND('',#273,.T.);
#273 = EDGE_LOOP('',(#274,#275,#276,#277,#278,#279,#280,#281));
#274 = ORIENTED_EDGE('',*,*,#47,.T.);
#275 = ORIENTED_EDGE('',*,*,#78,.T.);
#276 = ORIENTED_EDGE('',*,*,#109,.T.);
#277 = ORIENTED_EDGE('',*,*,#142,.T.);
#278 = ORIENTED_EDGE('',*,*,#173,.T.);
#279 = ORIENTED_EDGE('',*,*,#206,.T.);
#280 = ORIENTED_EDGE('',*,*,#239,.T.);
#281 = ORIENTED_EDGE('',*,*,#261,.T.);
#282 = PLANE('',#283);
#283 = AXIS2_PLACEMENT_3D('',#284,#285,#286);
#284 = CARTESIAN_POINT('',(11.942962424028,2.325874114842,5.805525730989
    ));
#285 = DIRECTION('',(0.,-0.939692620786,0.342020143326));
#286 = DIRECTION('',(1.,0.,0.));
#287 = ADVANCED_FACE('',(#288),#298,.T.);
#288 = FACE_BOUND('',#289,.F.);
#289 = EDGE_LOOP('',(#290,#291,#292,#293,#294,#295,#296,#297));
#290 = ORIENTED_EDGE('',*,*,#31,.T.);
#291 = ORIENTED_EDGE('',*,*,#62,.T.);
#292 = ORIENTED_EDGE('',*,*,#93,.T.);
#293 = ORIENTED_EDGE('',*,*,#126,.T.);
#294 = ORIENTED_EDGE('',*,*,#157,.T.);
#295 = ORIENTED_EDGE('',*,*,#190,.T.);
#296 = ORIENTED_EDGE('',*,*,#223,.T.);
#297 = ORIENTED_EDGE('',*,*,#254,.T.);
#298 = PLANE('',#299);
#299 = AXIS2_PLACEMENT_3D('',#300,#301,#302);
#300 = CARTESIAN_POINT('',(11.942962424028,1.574120018213,6.07914184565)
  );
#301 = DIRECTION('',(0.,-0.939692620786,0.342020143326));
#302 = DIRECTION('',(1.,0.,0.));
#303 = MANIFOLD_SOLID_BREP('',#304);
#304 = CLOSED_SHELL('',(#305,#345,#376,#409,#440,#473,#506,#537,#559,
    #575));
#305 = ADVANCED_FACE('',(#306),#340,.T.);
#306 = FACE_BOUND('',#307,.T.);
#307 = EDGE_LOOP('',(#308,#318,#326,#334));
#308 = ORIENTED_EDGE('',*,*,#309,.T.);
#309 = EDGE_CURVE('',#310,#312,#314,.T.);
#310 = VERTEX_POINT('',#311);
#311 = CARTESIAN_POINT('',(15.130276008493,1.643819461222,3.931595971335
    ));
#312 = VERTEX_POINT('',#313);
#313 = CARTESIAN_POINT('',(15.130276008493,0.892065364593,4.205212085995
    ));
#314 = LINE('',#315,#316);
#315 = CARTESIAN_POINT('',(15.130276008493,1.643819461222,3.931595971335
    ));
#316 = VECTOR('',#317,1.);
#317 = DIRECTION('',(0.,-0.939692620786,0.342020143326));
#318 = ORIENTED_EDGE('',*,*,#319,.T.);
#319 = EDGE_CURVE('',#312,#320,#322,.T.);
#320 = VERTEX_POINT('',#321);
#321 = CARTESIAN_POINT('',(14.414352441614,0.892065364593,4.205212085995
    ));
#322 = LINE('',#323,#324);
#323 = CARTESIAN_POINT('',(15.130276008493,0.892065364593,4.205212085995
    ));
#324 = VECTOR('',#325,1.);
#325 = DIRECTION('',(-1.,0.,0.));
#326 = ORIENTED_EDGE('',*,*,#327,.F.);
#327 = EDGE_CURVE('',#328,#320,#330,.T.);
#328 = VERTEX_POINT('',#329);
#329 = CARTESIAN_POINT('',(14.414352441614,1.643819461222,3.931595971335
    ));
#330 = LINE('',#331,#332);
#331 = CARTESIAN_POINT('',(14.414352441614,1.643819461222,3.931595971335
    ));
#332 = VECTOR('',#333,1.);
#333 = DIRECTION('',(0.,-0.939692620786,0.342020143326));
#334 = ORIENTED_EDGE('',*,*,#335,.F.);
#335 = EDGE_CURVE('',#310,#328,#336,.T.);
#336 = LINE('',#337,#338);
#337 = CARTESIAN_POINT('',(15.130276008493,1.643819461222,3.931595971335
    ));
#338 = VECTOR('',#339,1.);
#339 = DIRECTION('',(-1.,0.,0.));
#340 = PLANE('',#341);
#341 = AXIS2_PLACEMENT_3D('',#342,#343,#344);
#342 = CARTESIAN_POINT('',(15.130276008493,1.643819461222,3.931595971335
    ));
#343 = DIRECTION('',(0.,-0.342020143326,-0.939692620786));
#344 = DIRECTION('',(-1.,0.,0.));
#345 = ADVANCED_FACE('',(#346),#371,.T.);
#346 = FACE_BOUND('',#347,.T.);
#347 = EDGE_LOOP('',(#348,#349,#357,#365));
#348 = ORIENTED_EDGE('',*,*,#327,.T.);
#349 = ORIENTED_EDGE('',*,*,#350,.T.);
#350 = EDGE_CURVE('',#320,#351,#353,.T.);
#351 = VERTEX_POINT('',#352);
#352 = CARTESIAN_POINT('',(14.414352441614,1.818293672905,6.750003448341
    ));
#353 = LINE('',#354,#355);
#354 = CARTESIAN_POINT('',(14.414352441614,0.892065364593,4.205212085995
    ));
#355 = VECTOR('',#356,1.);
#356 = DIRECTION('',(0.,0.342020143326,0.939692620786));
#357 = ORIENTED_EDGE('',*,*,#358,.F.);
#358 = EDGE_CURVE('',#359,#351,#361,.T.);
#359 = VERTEX_POINT('',#360);
#360 = CARTESIAN_POINT('',(14.414352441614,2.570047769534,6.476387333681
    ));
#361 = LINE('',#362,#363);
#362 = CARTESIAN_POINT('',(14.414352441614,2.570047769534,6.476387333681
    ));
#363 = VECTOR('',#364,1.);
#364 = DIRECTION('',(0.,-0.939692620786,0.342020143326));
#365 = ORIENTED_EDGE('',*,*,#366,.F.);
#366 = EDGE_CURVE('',#328,#359,#367,.T.);
#367 = LINE('',#368,#369);
#368 = CARTESIAN_POINT('',(14.414352441614,1.643819461222,3.931595971335
    ));
#369 = VECTOR('',#370,1.);
#370 = DIRECTION('',(0.,0.342020143326,0.939692620786));
#371 = PLANE('',#372);
#372 = AXIS2_PLACEMENT_3D('',#373,#374,#375);
#373 = CARTESIAN_POINT('',(14.414352441614,1.643819461222,3.931595971335
    ));
#374 = DIRECTION('',(-1.,0.,0.));
#375 = DIRECTION('',(0.,0.342020143326,0.939692620786));
#376 = ADVANCED_FACE('',(#377),#402,.T.);
#377 = FACE_BOUND('',#378,.T.);
#378 = EDGE_LOOP('',(#379,#380,#388,#396));
#379 = ORIENTED_EDGE('',*,*,#358,.T.);
#380 = ORIENTED_EDGE('',*,*,#381,.T.);
#381 = EDGE_CURVE('',#351,#382,#384,.T.);
#382 = VERTEX_POINT('',#383);
#383 = CARTESIAN_POINT('',(13.489511677282,1.63193263345,6.237980700574)
  );
#384 = B_SPLINE_CURVE_WITH_KNOTS('',2,(#385,#386,#387),.UNSPECIFIED.,.F.
  ,.F.,(3,3),(0.,1.),.PIECEWISE_BEZIER_KNOTS.);
#385 = CARTESIAN_POINT('',(14.414352441614,1.818293672905,6.750003448341
    ));
#386 = CARTESIAN_POINT('',(14.021995753715,1.692290837937,6.40381350448)
  );
#387 = CARTESIAN_POINT('',(13.489511677282,1.63193263345,6.237980700574)
  );
#388 = ORIENTED_EDGE('',*,*,#389,.F.);
#389 = EDGE_CURVE('',#390,#382,#392,.T.);
#390 = VERTEX_POINT('',#391);
#391 = CARTESIAN_POINT('',(13.489511677282,2.383686730079,5.964364585913
    ));
#392 = LINE('',#393,#394);
#393 = CARTESIAN_POINT('',(13.489511677282,2.383686730079,5.964364585913
    ));
#394 = VECTOR('',#395,1.);
#395 = DIRECTION('',(0.,-0.939692620786,0.342020143326));
#396 = ORIENTED_EDGE('',*,*,#397,.F.);
#397 = EDGE_CURVE('',#359,#390,#398,.T.);
#398 = B_SPLINE_CURVE_WITH_KNOTS('',2,(#399,#400,#401),.UNSPECIFIED.,.F.
  ,.F.,(3,3),(0.,1.),.PIECEWISE_BEZIER_KNOTS.);
#399 = CARTESIAN_POINT('',(14.414352441614,2.570047769534,6.476387333681
    ));
#400 = CARTESIAN_POINT('',(14.021995753715,2.444044934566,6.130197389819
    ));
#401 = CARTESIAN_POINT('',(13.489511677282,2.383686730079,5.964364585913
    ));
#402 = SURFACE_OF_LINEAR_EXTRUSION('',#403,#407);
#403 = B_SPLINE_CURVE_WITH_KNOTS('',2,(#404,#405,#406),.UNSPECIFIED.,.F.
  ,.F.,(3,3),(0.,1.),.PIECEWISE_BEZIER_KNOTS.);
#404 = CARTESIAN_POINT('',(14.414352441614,2.570047769534,6.476387333681
    ));
#405 = CARTESIAN_POINT('',(14.021995753715,2.444044934566,6.130197389819
    ));
#406 = CARTESIAN_POINT('',(13.489511677282,2.383686730079,5.964364585913
    ));
#407 = VECTOR('',#408,1.);
#408 = DIRECTION('',(-0.,0.939692620786,-0.342020143326));
#409 = ADVANCED_FACE('',(#410),#435,.T.);
#410 = FACE_BOUND('',#411,.T.);
#411 = EDGE_LOOP('',(#412,#413,#421,#429));
#412 = ORIENTED_EDGE('',*,*,#389,.T.);
#413 = ORIENTED_EDGE('',*,*,#414,.T.);
#414 = EDGE_CURVE('',#382,#415,#417,.T.);
#415 = VERTEX_POINT('',#416);
#416 = CARTESIAN_POINT('',(13.489511677282,1.8550081919,6.850875760245)
  );
#417 = LINE('',#418,#419);
#418 = CARTESIAN_POINT('',(13.489511677282,1.63193263345,6.237980700574)
  );
#419 = VECTOR('',#420,1.);
#420 = DIRECTION('',(0.,0.342020143326,0.939692620786));
#421 = ORIENTED_EDGE('',*,*,#422,.F.);
#422 = EDGE_CURVE('',#423,#415,#425,.T.);
#423 = VERTEX_POINT('',#424);
#424 = CARTESIAN_POINT('',(13.489511677282,2.606762288528,6.577259645585
    ));
#425 = LINE('',#426,#427);
#426 = CARTESIAN_POINT('',(13.489511677282,2.606762288528,6.577259645585
    ));
#427 = VECTOR('',#428,1.);
#428 = DIRECTION('',(0.,-0.939692620786,0.342020143326));
#429 = ORIENTED_EDGE('',*,*,#430,.F.);
#430 = EDGE_CURVE('',#390,#423,#431,.T.);
#431 = LINE('',#432,#433);
#432 = CARTESIAN_POINT('',(13.489511677282,2.383686730079,5.964364585913
    ));
#433 = VECTOR('',#434,1.);
#434 = DIRECTION('',(0.,0.342020143326,0.939692620786));
#435 = PLANE('',#436);
#436 = AXIS2_PLACEMENT_3D('',#437,#438,#439);
#437 = CARTESIAN_POINT('',(13.489511677282,2.383686730079,5.964364585913
    ));
#438 = DIRECTION('',(-1.,0.,0.));
#439 = DIRECTION('',(0.,0.342020143326,0.939692620786));
#440 = ADVANCED_FACE('',(#441),#466,.T.);
#441 = FACE_BOUND('',#442,.T.);
#442 = EDGE_LOOP('',(#443,#444,#452,#460));
#443 = ORIENTED_EDGE('',*,*,#422,.T.);
#444 = ORIENTED_EDGE('',*,*,#445,.T.);
#445 = EDGE_CURVE('',#415,#446,#448,.T.);
#446 = VERTEX_POINT('',#447);
#447 = CARTESIAN_POINT('',(14.098428874735,1.973981823073,7.177753125404
    ));
#448 = B_SPLINE_CURVE_WITH_KNOTS('',2,(#449,#450,#451),.UNSPECIFIED.,.F.
  ,.F.,(3,3),(0.,1.),.PIECEWISE_BEZIER_KNOTS.);
#449 = CARTESIAN_POINT('',(13.489511677282,1.8550081919,6.850875760245)
  );
#450 = CARTESIAN_POINT('',(13.769766454352,1.886378192307,6.937064128012
    ));
#451 = CARTESIAN_POINT('',(14.098428874735,1.973981823073,7.177753125404
    ));
#452 = ORIENTED_EDGE('',*,*,#453,.F.);
#453 = EDGE_CURVE('',#454,#446,#456,.T.);
#454 = VERTEX_POINT('',#455);
#455 = CARTESIAN_POINT('',(14.098428874735,2.725735919701,6.904137010743
    ));
#456 = LINE('',#457,#458);
#457 = CARTESIAN_POINT('',(14.098428874735,2.725735919701,6.904137010743
    ));
#458 = VECTOR('',#459,1.);
#459 = DIRECTION('',(0.,-0.939692620786,0.342020143326));
#460 = ORIENTED_EDGE('',*,*,#461,.F.);
#461 = EDGE_CURVE('',#423,#454,#462,.T.);
#462 = B_SPLINE_CURVE_WITH_KNOTS('',2,(#463,#464,#465),.UNSPECIFIED.,.F.
  ,.F.,(3,3),(0.,1.),.PIECEWISE_BEZIER_KNOTS.);
#463 = CARTESIAN_POINT('',(13.489511677282,2.606762288528,6.577259645585
    ));
#464 = CARTESIAN_POINT('',(13.769766454352,2.638132288935,6.663448013351
    ));
#465 = CARTESIAN_POINT('',(14.098428874735,2.725735919701,6.904137010743
    ));
#466 = SURFACE_OF_LINEAR_EXTRUSION('',#467,#471);
#467 = B_SPLINE_CURVE_WITH_KNOTS('',2,(#468,#469,#470),.UNSPECIFIED.,.F.
  ,.F.,(3,3),(0.,1.),.PIECEWISE_BEZIER_KNOTS.);
#468 = CARTESIAN_POINT('',(13.489511677282,2.606762288528,6.577259645585
    ));
#469 = CARTESIAN_POINT('',(13.769766454352,2.638132288935,6.663448013351
    ));
#470 = CARTESIAN_POINT('',(14.098428874735,2.725735919701,6.904137010743
    ));
#471 = VECTOR('',#472,1.);
#472 = DIRECTION('',(-0.,0.939692620786,-0.342020143326));
#473 = ADVANCED_FACE('',(#474),#499,.T.);
#474 = FACE_BOUND('',#475,.T.);
#475 = EDGE_LOOP('',(#476,#477,#485,#493));
#476 = ORIENTED_EDGE('',*,*,#453,.T.);
#477 = ORIENTED_EDGE('',*,*,#478,.T.);
#478 = EDGE_CURVE('',#446,#479,#481,.T.);
#479 = VERTEX_POINT('',#480);
#480 = CARTESIAN_POINT('',(14.549384288747,2.178467751651,7.73957359677)
  );
#481 = B_SPLINE_CURVE_WITH_KNOTS('',2,(#482,#483,#484),.UNSPECIFIED.,.F.
  ,.F.,(3,3),(0.,1.),.PIECEWISE_BEZIER_KNOTS.);
#482 = CARTESIAN_POINT('',(14.098428874735,1.973981823073,7.177753125404
    ));
#483 = CARTESIAN_POINT('',(14.427091295117,2.061643546432,7.418601730884
    ));
#484 = CARTESIAN_POINT('',(14.549384288747,2.178467751651,7.73957359677)
  );
#485 = ORIENTED_EDGE('',*,*,#486,.F.);
#486 = EDGE_CURVE('',#487,#479,#489,.T.);
#487 = VERTEX_POINT('',#488);
#488 = CARTESIAN_POINT('',(14.549384288747,2.93022184828,7.465957482109)
  );
#489 = LINE('',#490,#491);
#490 = CARTESIAN_POINT('',(14.549384288747,2.93022184828,7.465957482109)
  );
#491 = VECTOR('',#492,1.);
#492 = DIRECTION('',(0.,-0.939692620786,0.342020143326));
#493 = ORIENTED_EDGE('',*,*,#494,.F.);
#494 = EDGE_CURVE('',#454,#487,#495,.T.);
#495 = B_SPLINE_CURVE_WITH_KNOTS('',2,(#496,#497,#498),.UNSPECIFIED.,.F.
  ,.F.,(3,3),(0.,1.),.PIECEWISE_BEZIER_KNOTS.);
#496 = CARTESIAN_POINT('',(14.098428874735,2.725735919701,6.904137010743
    ));
#497 = CARTESIAN_POINT('',(14.427091295117,2.813397643061,7.144985616224
    ));
#498 = CARTESIAN_POINT('',(14.549384288747,2.93022184828,7.465957482109)
  );
#499 = SURFACE_OF_LINEAR_EXTRUSION('',#500,#504);
#500 = B_SPLINE_CURVE_WITH_KNOTS('',2,(#501,#502,#503),.UNSPECIFIED.,.F.
  ,.F.,(3,3),(0.,1.),.PIECEWISE_BEZIER_KNOTS.);
#501 = CARTESIAN_POINT('',(14.098428874735,2.725735919701,6.904137010743
    ));
#502 = CARTESIAN_POINT('',(14.427091295117,2.813397643061,7.144985616224
    ));
#503 = CARTESIAN_POINT('',(14.549384288747,2.93022184828,7.465957482109)
  );
#504 = VECTOR('',#505,1.);
#505 = DIRECTION('',(-0.,0.939692620786,-0.342020143326));
#506 = ADVANCED_FACE('',(#507),#532,.T.);
#507 = FACE_BOUND('',#508,.T.);
#508 = EDGE_LOOP('',(#509,#510,#518,#526));
#509 = ORIENTED_EDGE('',*,*,#486,.T.);
#510 = ORIENTED_EDGE('',*,*,#511,.T.);
#511 = EDGE_CURVE('',#479,#512,#514,.T.);
#512 = VERTEX_POINT('',#513);
#513 = CARTESIAN_POINT('',(15.130276008493,2.178467751651,7.73957359677)
  );
#514 = LINE('',#515,#516);
#515 = CARTESIAN_POINT('',(14.549384288747,2.178467751651,7.73957359677)
  );
#516 = VECTOR('',#517,1.);
#517 = DIRECTION('',(1.,0.,0.));
#518 = ORIENTED_EDGE('',*,*,#519,.F.);
#519 = EDGE_CURVE('',#520,#512,#522,.T.);
#520 = VERTEX_POINT('',#521);
#521 = CARTESIAN_POINT('',(15.130276008493,2.93022184828,7.465957482109)
  );
#522 = LINE('',#523,#524);
#523 = CARTESIAN_POINT('',(15.130276008493,2.93022184828,7.465957482109)
  );
#524 = VECTOR('',#525,1.);
#525 = DIRECTION('',(0.,-0.939692620786,0.342020143326));
#526 = ORIENTED_EDGE('',*,*,#527,.F.);
#527 = EDGE_CURVE('',#487,#520,#528,.T.);
#528 = LINE('',#529,#530);
#529 = CARTESIAN_POINT('',(14.549384288747,2.93022184828,7.465957482109)
  );
#530 = VECTOR('',#531,1.);
#531 = DIRECTION('',(1.,0.,0.));
#532 = PLANE('',#533);
#533 = AXIS2_PLACEMENT_3D('',#534,#535,#536);
#534 = CARTESIAN_POINT('',(14.549384288747,2.93022184828,7.465957482109)
  );
#535 = DIRECTION('',(0.,0.342020143326,0.939692620786));
#536 = DIRECTION('',(1.,0.,0.));
#537 = ADVANCED_FACE('',(#538),#554,.T.);
#538 = FACE_BOUND('',#539,.T.);
#539 = EDGE_LOOP('',(#540,#541,#547,#548));
#540 = ORIENTED_EDGE('',*,*,#519,.T.);
#541 = ORIENTED_EDGE('',*,*,#542,.T.);
#542 = EDGE_CURVE('',#512,#312,#543,.T.);
#543 = LINE('',#544,#545);
#544 = CARTESIAN_POINT('',(15.130276008493,2.178467751651,7.73957359677)
  );
#545 = VECTOR('',#546,1.);
#546 = DIRECTION('',(0.,-0.342020143326,-0.939692620786));
#547 = ORIENTED_EDGE('',*,*,#309,.F.);
#548 = ORIENTED_EDGE('',*,*,#549,.F.);
#549 = EDGE_CURVE('',#520,#310,#550,.T.);
#550 = LINE('',#551,#552);
#551 = CARTESIAN_POINT('',(15.130276008493,2.93022184828,7.465957482109)
  );
#552 = VECTOR('',#553,1.);
#553 = DIRECTION('',(0.,-0.342020143326,-0.939692620786));
#554 = PLANE('',#555);
#555 = AXIS2_PLACEMENT_3D('',#556,#557,#558);
#556 = CARTESIAN_POINT('',(15.130276008493,2.93022184828,7.465957482109)
  );
#557 = DIRECTION('',(1.,0.,0.));
#558 = DIRECTION('',(0.,-0.342020143326,-0.939692620786));
#559 = ADVANCED_FACE('',(#560),#570,.F.);
#560 = FACE_BOUND('',#561,.T.);
#561 = EDGE_LOOP('',(#562,#563,#564,#565,#566,#567,#568,#569));
#562 = ORIENTED_EDGE('',*,*,#335,.T.);
#563 = ORIENTED_EDGE('',*,*,#366,.T.);
#564 = ORIENTED_EDGE('',*,*,#397,.T.);
#565 = ORIENTED_EDGE('',*,*,#430,.T.);
#566 = ORIENTED_EDGE('',*,*,#461,.T.);
#567 = ORIENTED_EDGE('',*,*,#494,.T.);
#568 = ORIENTED_EDGE('',*,*,#527,.T.);
#569 = ORIENTED_EDGE('',*,*,#549,.T.);
#570 = PLANE('',#571);
#571 = AXIS2_PLACEMENT_3D('',#572,#573,#574);
#572 = CARTESIAN_POINT('',(14.562750109803,2.325874114842,5.805525730989
    ));
#573 = DIRECTION('',(0.,-0.939692620786,0.342020143326));
#574 = DIRECTION('',(1.,0.,0.));
#575 = ADVANCED_FACE('',(#576),#586,.T.);
#576 = FACE_BOUND('',#577,.F.);
#577 = EDGE_LOOP('',(#578,#579,#580,#581,#582,#583,#584,#585));
#578 = ORIENTED_EDGE('',*,*,#319,.T.);
#579 = ORIENTED_EDGE('',*,*,#350,.T.);
#580 = ORIENTED_EDGE('',*,*,#381,.T.);
#581 = ORIENTED_EDGE('',*,*,#414,.T.);
#582 = ORIENTED_EDGE('',*,*,#445,.T.);
#583 = ORIENTED_EDGE('',*,*,#478,.T.);
#584 = ORIENTED_EDGE('',*,*,#511,.T.);
#585 = ORIENTED_EDGE('',*,*,#542,.T.);
#586 = PLANE('',#587);
#587 = AXIS2_PLACEMENT_3D('',#588,#589,#590);
#588 = CARTESIAN_POINT('',(14.562750109803,1.574120018213,6.07914184565)
  );
#589 = DIRECTION('',(0.,-0.939692620786,0.342020143326));
#590 = DIRECTION('',(1.,0.,0.));
#591 = ( GEOMETRIC_REPRESENTATION_CONTEXT(3) 
GLOBAL_UNCERTAINTY_ASSIGNED_CONTEXT((#595)) GLOBAL_UNIT_ASSIGNED_CONTEXT
((#592,#593,#594)) REPRESENTATION_CONTEXT('Context #1',
  '3D Context with UNIT and UNCERTAINTY') );
#592 = ( LENGTH_UNIT() NAMED_UNIT(*) SI_UNIT(.MILLI.,.METRE.) );
#593 = ( NAMED_UNIT(*) PLANE_ANGLE_UNIT() SI_UNIT($,.RADIAN.) );
#594 = ( NAMED_UNIT(*) SI_UNIT($,.STERADIAN.) SOLID_ANGLE_UNIT() );
#595 = UNCERTAINTY_MEASURE_WITH_UNIT(LENGTH_MEASURE(1.E-07),#592,
  'distance_accuracy_value','confusion accuracy');
#596 = PRODUCT_RELATED_PRODUCT_CATEGORY('part',$,(#7));
ENDSEC;
END-ISO-10303-21;
