ISO-10303-21;
HEADER;
FILE_DESCRIPTION(('FreeCAD Model'),'2;1');
FILE_NAME('Open CASCADE Shape Model','2026-08-30T15:43:49',('FreeCAD'),(
    'FreeCAD'),'Open CASCADE STEP processor 7.8','FreeCAD','Unknown');
FILE_SCHEMA(('AUTOMOTIVE_DESIGN { 1 0 10303 214 1 1 1 1 }'));
ENDSEC;
DATA;
#1 = APPLICATION_PROTOCOL_DEFINITION('international standard',
  'automotive_design',2000,#2);
#2 = APPLICATION_CONTEXT(
  'core data for automotive mechanical design processes');
#3 = SHAPE_DEFINITION_REPRESENTATION(#4,#10);
#4 = PRODUCT_DEFINITION_SHAPE('','',#5);
#5 = PRODUCT_DEFINITION('design','',#6,#9);
#6 = PRODUCT_DEFINITION_FORMATION('','',#7);
#7 = PRODUCT('Open CASCADE STEP translator 7.8 123',
  'Open CASCADE STEP translator 7.8 123','',(#8));
#8 = PRODUCT_CONTEXT('',#2,'mechanical');
#9 = PRODUCT_DEFINITION_CONTEXT('part definition',#2,'design');
#10 = ADVANCED_BREP_SHAPE_REPRESENTATION('',(#11,#15),#373);
#11 = AXIS2_PLACEMENT_3D('',#12,#13,#14);
#12 = CARTESIAN_POINT('',(0.,0.,0.));
#13 = DIRECTION('',(0.,0.,1.));
#14 = DIRECTION('',(1.,0.,-0.));
#15 = MANIFOLD_SOLID_BREP('',#16);
#16 = CLOSED_SHELL('',(#17,#57,#88,#119,#152,#185,#218,#249,#282,#315,
    #337,#355));
#17 = ADVANCED_FACE('',(#18),#52,.T.);
#18 = FACE_BOUND('',#19,.T.);
#19 = EDGE_LOOP('',(#20,#30,#38,#46));
#20 = ORIENTED_EDGE('',*,*,#21,.T.);
#21 = EDGE_CURVE('',#22,#24,#26,.T.);
#22 = VERTEX_POINT('',#23);
#23 = CARTESIAN_POINT('',(19.663694267516,3.017786364273,7.706539012546)
  );
#24 = VERTEX_POINT('',#25);
#25 = CARTESIAN_POINT('',(19.663694267516,2.266032267644,7.980155127206)
  );
#26 = LINE('',#27,#28);
#27 = CARTESIAN_POINT('',(19.663694267516,3.017786364273,7.706539012546)
  );
#28 = VECTOR('',#29,1.);
#29 = DIRECTION('',(0.,-0.939692620786,0.342020143326));
#30 = ORIENTED_EDGE('',*,*,#31,.T.);
#31 = EDGE_CURVE('',#24,#32,#34,.T.);
#32 = VERTEX_POINT('',#33);
#33 = CARTESIAN_POINT('',(19.663694267516,2.60622249428,8.914820093206)
  );
#34 = LINE('',#35,#36);
#35 = CARTESIAN_POINT('',(19.663694267516,2.266032267644,7.980155127206)
  );
#36 = VECTOR('',#37,1.);
#37 = DIRECTION('',(0.,0.342020143326,0.939692620786));
#38 = ORIENTED_EDGE('',*,*,#39,.F.);
#39 = EDGE_CURVE('',#40,#32,#42,.T.);
#40 = VERTEX_POINT('',#41);
#41 = CARTESIAN_POINT('',(19.663694267516,3.357976590908,8.641203978545)
  );
#42 = LINE('',#43,#44);
#43 = CARTESIAN_POINT('',(19.663694267516,3.357976590908,8.641203978545)
  );
#44 = VECTOR('',#45,1.);
#45 = DIRECTION('',(0.,-0.939692620786,0.342020143326));
#46 = ORIENTED_EDGE('',*,*,#47,.F.);
#47 = EDGE_CURVE('',#22,#40,#48,.T.);
#48 = LINE('',#49,#50);
#49 = CARTESIAN_POINT('',(19.663694267516,3.017786364273,7.706539012546)
  );
#50 = VECTOR('',#51,1.);
#51 = DIRECTION('',(0.,0.342020143326,0.939692620786));
#52 = PLANE('',#53);
#53 = AXIS2_PLACEMENT_3D('',#54,#55,#56);
#54 = CARTESIAN_POINT('',(19.663694267516,3.017786364273,7.706539012546)
  );
#55 = DIRECTION('',(-1.,0.,0.));
#56 = DIRECTION('',(0.,0.342020143326,0.939692620786));
#57 = ADVANCED_FACE('',(#58),#83,.T.);
#58 = FACE_BOUND('',#59,.T.);
#59 = EDGE_LOOP('',(#60,#61,#69,#77));
#60 = ORIENTED_EDGE('',*,*,#39,.T.);
#61 = ORIENTED_EDGE('',*,*,#62,.T.);
#62 = EDGE_CURVE('',#32,#63,#65,.T.);
#63 = VERTEX_POINT('',#64);
#64 = CARTESIAN_POINT('',(23.336305732484,2.60622249428,8.914820093206)
  );
#65 = LINE('',#66,#67);
#66 = CARTESIAN_POINT('',(19.663694267516,2.60622249428,8.914820093206)
  );
#67 = VECTOR('',#68,1.);
#68 = DIRECTION('',(1.,0.,0.));
#69 = ORIENTED_EDGE('',*,*,#70,.F.);
#70 = EDGE_CURVE('',#71,#63,#73,.T.);
#71 = VERTEX_POINT('',#72);
#72 = CARTESIAN_POINT('',(23.336305732484,3.357976590908,8.641203978545)
  );
#73 = LINE('',#74,#75);
#74 = CARTESIAN_POINT('',(23.336305732484,3.357976590908,8.641203978545)
  );
#75 = VECTOR('',#76,1.);
#76 = DIRECTION('',(0.,-0.939692620786,0.342020143326));
#77 = ORIENTED_EDGE('',*,*,#78,.F.);
#78 = EDGE_CURVE('',#40,#71,#79,.T.);
#79 = LINE('',#80,#81);
#80 = CARTESIAN_POINT('',(19.663694267516,3.357976590908,8.641203978545)
  );
#81 = VECTOR('',#82,1.);
#82 = DIRECTION('',(1.,0.,0.));
#83 = PLANE('',#84);
#84 = AXIS2_PLACEMENT_3D('',#85,#86,#87);
#85 = CARTESIAN_POINT('',(19.663694267516,3.357976590908,8.641203978545)
  );
#86 = DIRECTION('',(0.,0.342020143326,0.939692620786));
#87 = DIRECTION('',(1.,0.,0.));
#88 = ADVANCED_FACE('',(#89),#114,.T.);
#89 = FACE_BOUND('',#90,.T.);
#90 = EDGE_LOOP('',(#91,#92,#100,#108));
#91 = ORIENTED_EDGE('',*,*,#70,.T.);
#92 = ORIENTED_EDGE('',*,*,#93,.T.);
#93 = EDGE_CURVE('',#63,#94,#96,.T.);
#94 = VERTEX_POINT('',#95);
#95 = CARTESIAN_POINT('',(23.336305732484,2.33853182414,8.1793460216));
#96 = LINE('',#97,#98);
#97 = CARTESIAN_POINT('',(23.336305732484,2.60622249428,8.914820093206)
  );
#98 = VECTOR('',#99,1.);
#99 = DIRECTION('',(0.,-0.342020143326,-0.939692620786));
#100 = ORIENTED_EDGE('',*,*,#101,.F.);
#101 = EDGE_CURVE('',#102,#94,#104,.T.);
#102 = VERTEX_POINT('',#103);
#103 = CARTESIAN_POINT('',(23.336305732484,3.090285920769,7.905729906939
    ));
#104 = LINE('',#105,#106);
#105 = CARTESIAN_POINT('',(23.336305732484,3.090285920769,7.905729906939
    ));
#106 = VECTOR('',#107,1.);
#107 = DIRECTION('',(0.,-0.939692620786,0.342020143326));
#108 = ORIENTED_EDGE('',*,*,#109,.F.);
#109 = EDGE_CURVE('',#71,#102,#110,.T.);
#110 = LINE('',#111,#112);
#111 = CARTESIAN_POINT('',(23.336305732484,3.357976590908,8.641203978545
    ));
#112 = VECTOR('',#113,1.);
#113 = DIRECTION('',(0.,-0.342020143326,-0.939692620786));
#114 = PLANE('',#115);
#115 = AXIS2_PLACEMENT_3D('',#116,#117,#118);
#116 = CARTESIAN_POINT('',(23.336305732484,3.357976590908,8.641203978545
    ));
#117 = DIRECTION('',(1.,0.,0.));
#118 = DIRECTION('',(0.,-0.342020143326,-0.939692620786));
#119 = ADVANCED_FACE('',(#120),#145,.T.);
#120 = FACE_BOUND('',#121,.T.);
#121 = EDGE_LOOP('',(#122,#123,#131,#139));
#122 = ORIENTED_EDGE('',*,*,#101,.T.);
#123 = ORIENTED_EDGE('',*,*,#124,.T.);
#124 = EDGE_CURVE('',#94,#125,#127,.T.);
#125 = VERTEX_POINT('',#126);
#126 = CARTESIAN_POINT('',(22.411464968153,1.897957596203,6.968878278748
    ));
#127 = B_SPLINE_CURVE_WITH_KNOTS('',2,(#128,#129,#130),.UNSPECIFIED.,.F.
  ,.F.,(3,3),(0.,1.),.PIECEWISE_BEZIER_KNOTS.);
#128 = CARTESIAN_POINT('',(23.336305732484,2.33853182414,8.1793460216));
#129 = CARTESIAN_POINT('',(22.88152866242,2.185167377707,7.757980668075)
  );
#130 = CARTESIAN_POINT('',(22.411464968153,1.897957596203,6.968878278748
    ));
#131 = ORIENTED_EDGE('',*,*,#132,.F.);
#132 = EDGE_CURVE('',#133,#125,#135,.T.);
#133 = VERTEX_POINT('',#134);
#134 = CARTESIAN_POINT('',(22.411464968153,2.649711692832,6.695262164087
    ));
#135 = LINE('',#136,#137);
#136 = CARTESIAN_POINT('',(22.411464968153,2.649711692832,6.695262164087
    ));
#137 = VECTOR('',#138,1.);
#138 = DIRECTION('',(0.,-0.939692620786,0.342020143326));
#139 = ORIENTED_EDGE('',*,*,#140,.F.);
#140 = EDGE_CURVE('',#102,#133,#141,.T.);
#141 = B_SPLINE_CURVE_WITH_KNOTS('',2,(#142,#143,#144),.UNSPECIFIED.,.F.
  ,.F.,(3,3),(0.,1.),.PIECEWISE_BEZIER_KNOTS.);
#142 = CARTESIAN_POINT('',(23.336305732484,3.090285920769,7.905729906939
    ));
#143 = CARTESIAN_POINT('',(22.88152866242,2.936921474335,7.484364553415)
  );
#144 = CARTESIAN_POINT('',(22.411464968153,2.649711692832,6.695262164087
    ));
#145 = SURFACE_OF_LINEAR_EXTRUSION('',#146,#150);
#146 = B_SPLINE_CURVE_WITH_KNOTS('',2,(#147,#148,#149),.UNSPECIFIED.,.F.
  ,.F.,(3,3),(0.,1.),.PIECEWISE_BEZIER_KNOTS.);
#147 = CARTESIAN_POINT('',(23.336305732484,3.090285920769,7.905729906939
    ));
#148 = CARTESIAN_POINT('',(22.88152866242,2.936921474335,7.484364553415)
  );
#149 = CARTESIAN_POINT('',(22.411464968153,2.649711692832,6.695262164087
    ));
#150 = VECTOR('',#151,1.);
#151 = DIRECTION('',(-0.,0.939692620786,-0.342020143326));
#152 = ADVANCED_FACE('',(#153),#178,.T.);
#153 = FACE_BOUND('',#154,.T.);
#154 = EDGE_LOOP('',(#155,#156,#164,#172));
#155 = ORIENTED_EDGE('',*,*,#132,.T.);
#156 = ORIENTED_EDGE('',*,*,#157,.T.);
#157 = EDGE_CURVE('',#125,#158,#160,.T.);
#158 = VERTEX_POINT('',#159);
#159 = CARTESIAN_POINT('',(21.694777070064,1.287636810508,5.292035701427
    ));
#160 = B_SPLINE_CURVE_WITH_KNOTS('',2,(#161,#162,#163),.UNSPECIFIED.,.F.
  ,.F.,(3,3),(0.,1.),.PIECEWISE_BEZIER_KNOTS.);
#161 = CARTESIAN_POINT('',(22.411464968153,1.897957596203,6.968878278748
    ));
#162 = CARTESIAN_POINT('',(21.941401273885,1.610834953589,6.180015301553
    ));
#163 = CARTESIAN_POINT('',(21.694777070064,1.287636810508,5.292035701427
    ));
#164 = ORIENTED_EDGE('',*,*,#165,.F.);
#165 = EDGE_CURVE('',#166,#158,#168,.T.);
#166 = VERTEX_POINT('',#167);
#167 = CARTESIAN_POINT('',(21.694777070064,2.039390907137,5.018419586766
    ));
#168 = LINE('',#169,#170);
#169 = CARTESIAN_POINT('',(21.694777070064,2.039390907137,5.018419586766
    ));
#170 = VECTOR('',#171,1.);
#171 = DIRECTION('',(0.,-0.939692620786,0.342020143326));
#172 = ORIENTED_EDGE('',*,*,#173,.F.);
#173 = EDGE_CURVE('',#133,#166,#174,.T.);
#174 = B_SPLINE_CURVE_WITH_KNOTS('',2,(#175,#176,#177),.UNSPECIFIED.,.F.
  ,.F.,(3,3),(0.,1.),.PIECEWISE_BEZIER_KNOTS.);
#175 = CARTESIAN_POINT('',(22.411464968153,2.649711692832,6.695262164087
    ));
#176 = CARTESIAN_POINT('',(21.941401273885,2.362589050218,5.906399186893
    ));
#177 = CARTESIAN_POINT('',(21.694777070064,2.039390907137,5.018419586766
    ));
#178 = SURFACE_OF_LINEAR_EXTRUSION('',#179,#183);
#179 = B_SPLINE_CURVE_WITH_KNOTS('',2,(#180,#181,#182),.UNSPECIFIED.,.F.
  ,.F.,(3,3),(0.,1.),.PIECEWISE_BEZIER_KNOTS.);
#180 = CARTESIAN_POINT('',(22.411464968153,2.649711692832,6.695262164087
    ));
#181 = CARTESIAN_POINT('',(21.941401273885,2.362589050218,5.906399186893
    ));
#182 = CARTESIAN_POINT('',(21.694777070064,2.039390907137,5.018419586766
    ));
#183 = VECTOR('',#184,1.);
#184 = DIRECTION('',(-0.,0.939692620786,-0.342020143326));
#185 = ADVANCED_FACE('',(#186),#211,.T.);
#186 = FACE_BOUND('',#187,.T.);
#187 = EDGE_LOOP('',(#188,#189,#197,#205));
#188 = ORIENTED_EDGE('',*,*,#165,.T.);
#189 = ORIENTED_EDGE('',*,*,#190,.T.);
#190 = EDGE_CURVE('',#158,#191,#193,.T.);
#191 = VERTEX_POINT('',#192);
#192 = CARTESIAN_POINT('',(21.452229299363,0.71008024746,3.705212085995)
  );
#193 = B_SPLINE_CURVE_WITH_KNOTS('',2,(#194,#195,#196),.UNSPECIFIED.,.F.
  ,.F.,(3,3),(0.,1.),.PIECEWISE_BEZIER_KNOTS.);
#194 = CARTESIAN_POINT('',(21.694777070064,1.287636810508,5.292035701427
    ));
#195 = CARTESIAN_POINT('',(21.448407643312,0.964438667426,4.404056101301
    ));
#196 = CARTESIAN_POINT('',(21.452229299363,0.71008024746,3.705212085995)
  );
#197 = ORIENTED_EDGE('',*,*,#198,.F.);
#198 = EDGE_CURVE('',#199,#191,#201,.T.);
#199 = VERTEX_POINT('',#200);
#200 = CARTESIAN_POINT('',(21.452229299363,1.461834344089,3.431595971335
    ));
#201 = LINE('',#202,#203);
#202 = CARTESIAN_POINT('',(21.452229299363,1.461834344089,3.431595971335
    ));
#203 = VECTOR('',#204,1.);
#204 = DIRECTION('',(0.,-0.939692620786,0.342020143326));
#205 = ORIENTED_EDGE('',*,*,#206,.F.);
#206 = EDGE_CURVE('',#166,#199,#207,.T.);
#207 = B_SPLINE_CURVE_WITH_KNOTS('',2,(#208,#209,#210),.UNSPECIFIED.,.F.
  ,.F.,(3,3),(0.,1.),.PIECEWISE_BEZIER_KNOTS.);
#208 = CARTESIAN_POINT('',(21.694777070064,2.039390907137,5.018419586766
    ));
#209 = CARTESIAN_POINT('',(21.448407643312,1.716192764055,4.13043998664)
  );
#210 = CARTESIAN_POINT('',(21.452229299363,1.461834344089,3.431595971335
    ));
#211 = SURFACE_OF_LINEAR_EXTRUSION('',#212,#216);
#212 = B_SPLINE_CURVE_WITH_KNOTS('',2,(#213,#214,#215),.UNSPECIFIED.,.F.
  ,.F.,(3,3),(0.,1.),.PIECEWISE_BEZIER_KNOTS.);
#213 = CARTESIAN_POINT('',(21.694777070064,2.039390907137,5.018419586766
    ));
#214 = CARTESIAN_POINT('',(21.448407643312,1.716192764055,4.13043998664)
  );
#215 = CARTESIAN_POINT('',(21.452229299363,1.461834344089,3.431595971335
    ));
#216 = VECTOR('',#217,1.);
#217 = DIRECTION('',(-0.,0.939692620786,-0.342020143326));
#218 = ADVANCED_FACE('',(#219),#244,.T.);
#219 = FACE_BOUND('',#220,.T.);
#220 = EDGE_LOOP('',(#221,#222,#230,#238));
#221 = ORIENTED_EDGE('',*,*,#198,.T.);
#222 = ORIENTED_EDGE('',*,*,#223,.T.);
#223 = EDGE_CURVE('',#191,#224,#226,.T.);
#224 = VERTEX_POINT('',#225);
#225 = CARTESIAN_POINT('',(20.416560509554,0.71008024746,3.705212085995)
  );
#226 = LINE('',#227,#228);
#227 = CARTESIAN_POINT('',(21.452229299363,0.71008024746,3.705212085995)
  );
#228 = VECTOR('',#229,1.);
#229 = DIRECTION('',(-1.,0.,0.));
#230 = ORIENTED_EDGE('',*,*,#231,.F.);
#231 = EDGE_CURVE('',#232,#224,#234,.T.);
#232 = VERTEX_POINT('',#233);
#233 = CARTESIAN_POINT('',(20.416560509554,1.461834344089,3.431595971335
    ));
#234 = LINE('',#235,#236);
#235 = CARTESIAN_POINT('',(20.416560509554,1.461834344089,3.431595971335
    ));
#236 = VECTOR('',#237,1.);
#237 = DIRECTION('',(0.,-0.939692620786,0.342020143326));
#238 = ORIENTED_EDGE('',*,*,#239,.F.);
#239 = EDGE_CURVE('',#199,#232,#240,.T.);
#240 = LINE('',#241,#242);
#241 = CARTESIAN_POINT('',(21.452229299363,1.461834344089,3.431595971335
    ));
#242 = VECTOR('',#243,1.);
#243 = DIRECTION('',(-1.,0.,0.));
#244 = PLANE('',#245);
#245 = AXIS2_PLACEMENT_3D('',#246,#247,#248);
#246 = CARTESIAN_POINT('',(21.452229299363,1.461834344089,3.431595971335
    ));
#247 = DIRECTION('',(0.,-0.342020143326,-0.939692620786));
#248 = DIRECTION('',(-1.,0.,0.));
#249 = ADVANCED_FACE('',(#250),#275,.T.);
#250 = FACE_BOUND('',#251,.T.);
#251 = EDGE_LOOP('',(#252,#253,#261,#269));
#252 = ORIENTED_EDGE('',*,*,#231,.T.);
#253 = ORIENTED_EDGE('',*,*,#254,.T.);
#254 = EDGE_CURVE('',#224,#255,#257,.T.);
#255 = VERTEX_POINT('',#256);
#256 = CARTESIAN_POINT('',(20.896050955414,1.52413175802,5.941800229532)
  );
#257 = B_SPLINE_CURVE_WITH_KNOTS('',2,(#258,#259,#260),.UNSPECIFIED.,.F.
  ,.F.,(3,3),(0.,1.),.PIECEWISE_BEZIER_KNOTS.);
#258 = CARTESIAN_POINT('',(20.416560509554,0.71008024746,3.705212085995)
  );
#259 = CARTESIAN_POINT('',(20.443312101911,1.109263502638,4.801959065822
    ));
#260 = CARTESIAN_POINT('',(20.896050955414,1.52413175802,5.941800229532)
  );
#261 = ORIENTED_EDGE('',*,*,#262,.F.);
#262 = EDGE_CURVE('',#263,#255,#265,.T.);
#263 = VERTEX_POINT('',#264);
#264 = CARTESIAN_POINT('',(20.896050955414,2.275885854649,5.668184114872
    ));
#265 = LINE('',#266,#267);
#266 = CARTESIAN_POINT('',(20.896050955414,2.275885854649,5.668184114872
    ));
#267 = VECTOR('',#268,1.);
#268 = DIRECTION('',(0.,-0.939692620786,0.342020143326));
#269 = ORIENTED_EDGE('',*,*,#270,.F.);
#270 = EDGE_CURVE('',#232,#263,#271,.T.);
#271 = B_SPLINE_CURVE_WITH_KNOTS('',2,(#272,#273,#274),.UNSPECIFIED.,.F.
  ,.F.,(3,3),(0.,1.),.PIECEWISE_BEZIER_KNOTS.);
#272 = CARTESIAN_POINT('',(20.416560509554,1.461834344089,3.431595971335
    ));
#273 = CARTESIAN_POINT('',(20.443312101911,1.861017599267,4.528342951162
    ));
#274 = CARTESIAN_POINT('',(20.896050955414,2.275885854649,5.668184114872
    ));
#275 = SURFACE_OF_LINEAR_EXTRUSION('',#276,#280);
#276 = B_SPLINE_CURVE_WITH_KNOTS('',2,(#277,#278,#279),.UNSPECIFIED.,.F.
  ,.F.,(3,3),(0.,1.),.PIECEWISE_BEZIER_KNOTS.);
#277 = CARTESIAN_POINT('',(20.416560509554,1.461834344089,3.431595971335
    ));
#278 = CARTESIAN_POINT('',(20.443312101911,1.861017599267,4.528342951162
    ));
#279 = CARTESIAN_POINT('',(20.896050955414,2.275885854649,5.668184114872
    ));
#280 = VECTOR('',#281,1.);
#281 = DIRECTION('',(-0.,0.939692620786,-0.342020143326));
#282 = ADVANCED_FACE('',(#283),#308,.T.);
#283 = FACE_BOUND('',#284,.T.);
#284 = EDGE_LOOP('',(#285,#286,#294,#302));
#285 = ORIENTED_EDGE('',*,*,#262,.T.);
#286 = ORIENTED_EDGE('',*,*,#287,.T.);
#287 = EDGE_CURVE('',#255,#288,#290,.T.);
#288 = VERTEX_POINT('',#289);
#289 = CARTESIAN_POINT('',(22.105732484076,2.266032267644,7.980155127206
    ));
#290 = B_SPLINE_CURVE_WITH_KNOTS('',2,(#291,#292,#293),.UNSPECIFIED.,.F.
  ,.F.,(3,3),(0.,1.),.PIECEWISE_BEZIER_KNOTS.);
#291 = CARTESIAN_POINT('',(20.896050955414,1.52413175802,5.941800229532)
  );
#292 = CARTESIAN_POINT('',(21.349044585987,1.939087152292,7.081880805375
    ));
#293 = CARTESIAN_POINT('',(22.105732484076,2.266032267644,7.980155127206
    ));
#294 = ORIENTED_EDGE('',*,*,#295,.F.);
#295 = EDGE_CURVE('',#296,#288,#298,.T.);
#296 = VERTEX_POINT('',#297);
#297 = CARTESIAN_POINT('',(22.105732484076,3.017786364273,7.706539012546
    ));
#298 = LINE('',#299,#300);
#299 = CARTESIAN_POINT('',(22.105732484076,3.017786364273,7.706539012546
    ));
#300 = VECTOR('',#301,1.);
#301 = DIRECTION('',(0.,-0.939692620786,0.342020143326));
#302 = ORIENTED_EDGE('',*,*,#303,.F.);
#303 = EDGE_CURVE('',#263,#296,#304,.T.);
#304 = B_SPLINE_CURVE_WITH_KNOTS('',2,(#305,#306,#307),.UNSPECIFIED.,.F.
  ,.F.,(3,3),(0.,1.),.PIECEWISE_BEZIER_KNOTS.);
#305 = CARTESIAN_POINT('',(20.896050955414,2.275885854649,5.668184114872
    ));
#306 = CARTESIAN_POINT('',(21.349044585987,2.690841248921,6.808264690714
    ));
#307 = CARTESIAN_POINT('',(22.105732484076,3.017786364273,7.706539012546
    ));
#308 = SURFACE_OF_LINEAR_EXTRUSION('',#309,#313);
#309 = B_SPLINE_CURVE_WITH_KNOTS('',2,(#310,#311,#312),.UNSPECIFIED.,.F.
  ,.F.,(3,3),(0.,1.),.PIECEWISE_BEZIER_KNOTS.);
#310 = CARTESIAN_POINT('',(20.896050955414,2.275885854649,5.668184114872
    ));
#311 = CARTESIAN_POINT('',(21.349044585987,2.690841248921,6.808264690714
    ));
#312 = CARTESIAN_POINT('',(22.105732484076,3.017786364273,7.706539012546
    ));
#313 = VECTOR('',#314,1.);
#314 = DIRECTION('',(-0.,0.939692620786,-0.342020143326));
#315 = ADVANCED_FACE('',(#316),#332,.T.);
#316 = FACE_BOUND('',#317,.T.);
#317 = EDGE_LOOP('',(#318,#319,#325,#326));
#318 = ORIENTED_EDGE('',*,*,#295,.T.);
#319 = ORIENTED_EDGE('',*,*,#320,.T.);
#320 = EDGE_CURVE('',#288,#24,#321,.T.);
#321 = LINE('',#322,#323);
#322 = CARTESIAN_POINT('',(22.105732484076,2.266032267644,7.980155127206
    ));
#323 = VECTOR('',#324,1.);
#324 = DIRECTION('',(-1.,0.,0.));
#325 = ORIENTED_EDGE('',*,*,#21,.F.);
#326 = ORIENTED_EDGE('',*,*,#327,.F.);
#327 = EDGE_CURVE('',#296,#22,#328,.T.);
#328 = LINE('',#329,#330);
#329 = CARTESIAN_POINT('',(22.105732484076,3.017786364273,7.706539012546
    ));
#330 = VECTOR('',#331,1.);
#331 = DIRECTION('',(-1.,0.,0.));
#332 = PLANE('',#333);
#333 = AXIS2_PLACEMENT_3D('',#334,#335,#336);
#334 = CARTESIAN_POINT('',(22.105732484076,3.017786364273,7.706539012546
    ));
#335 = DIRECTION('',(0.,-0.342020143326,-0.939692620786));
#336 = DIRECTION('',(-1.,0.,0.));
#337 = ADVANCED_FACE('',(#338),#350,.F.);
#338 = FACE_BOUND('',#339,.T.);
#339 = EDGE_LOOP('',(#340,#341,#342,#343,#344,#345,#346,#347,#348,#349)
  );
#340 = ORIENTED_EDGE('',*,*,#47,.T.);
#341 = ORIENTED_EDGE('',*,*,#78,.T.);
#342 = ORIENTED_EDGE('',*,*,#109,.T.);
#343 = ORIENTED_EDGE('',*,*,#140,.T.);
#344 = ORIENTED_EDGE('',*,*,#173,.T.);
#345 = ORIENTED_EDGE('',*,*,#206,.T.);
#346 = ORIENTED_EDGE('',*,*,#239,.T.);
#347 = ORIENTED_EDGE('',*,*,#270,.T.);
#348 = ORIENTED_EDGE('',*,*,#303,.T.);
#349 = ORIENTED_EDGE('',*,*,#327,.T.);
#350 = PLANE('',#351);
#351 = AXIS2_PLACEMENT_3D('',#352,#353,#354);
#352 = CARTESIAN_POINT('',(21.42033507134,2.62964250988,6.6401225371));
#353 = DIRECTION('',(0.,-0.939692620786,0.342020143326));
#354 = DIRECTION('',(1.,0.,0.));
#355 = ADVANCED_FACE('',(#356),#368,.T.);
#356 = FACE_BOUND('',#357,.F.);
#357 = EDGE_LOOP('',(#358,#359,#360,#361,#362,#363,#364,#365,#366,#367)
  );
#358 = ORIENTED_EDGE('',*,*,#31,.T.);
#359 = ORIENTED_EDGE('',*,*,#62,.T.);
#360 = ORIENTED_EDGE('',*,*,#93,.T.);
#361 = ORIENTED_EDGE('',*,*,#124,.T.);
#362 = ORIENTED_EDGE('',*,*,#157,.T.);
#363 = ORIENTED_EDGE('',*,*,#190,.T.);
#364 = ORIENTED_EDGE('',*,*,#223,.T.);
#365 = ORIENTED_EDGE('',*,*,#254,.T.);
#366 = ORIENTED_EDGE('',*,*,#287,.T.);
#367 = ORIENTED_EDGE('',*,*,#320,.T.);
#368 = PLANE('',#369);
#369 = AXIS2_PLACEMENT_3D('',#370,#371,#372);
#370 = CARTESIAN_POINT('',(21.42033507134,1.877888413251,6.913738651761)
  );
#371 = DIRECTION('',(0.,-0.939692620786,0.342020143326));
#372 = DIRECTION('',(1.,0.,0.));
#373 = ( GEOMETRIC_REPRESENTATION_CONTEXT(3) 
GLOBAL_UNCERTAINTY_ASSIGNED_CONTEXT((#377)) GLOBAL_UNIT_ASSIGNED_CONTEXT
((#374,#375,#376)) REPRESENTATION_CONTEXT('Context #1',
  '3D Context with UNIT and UNCERTAINTY') );
#374 = ( LENGTH_UNIT() NAMED_UNIT(*) SI_UNIT(.MILLI.,.METRE.) );
#375 = ( NAMED_UNIT(*) PLANE_ANGLE_UNIT() SI_UNIT($,.RADIAN.) );
#376 = ( NAMED_UNIT(*) SI_UNIT($,.STERADIAN.) SOLID_ANGLE_UNIT() );
#377 = UNCERTAINTY_MEASURE_WITH_UNIT(LENGTH_MEASURE(1.E-07),#374,
  'distance_accuracy_value','confusion accuracy');
#378 = PRODUCT_RELATED_PRODUCT_CATEGORY('part',$,(#7));
ENDSEC;
END-ISO-10303-21;
