ISO-10303-21;
HEADER;
FILE_DESCRIPTION(('FreeCAD Model'),'2;1');
FILE_NAME('Open CASCADE Shape Model','2026-08-31T20:51:49',('FreeCAD'),(
    'FreeCAD'),'Open CASCADE STEP processor 7.8','FreeCAD','Unknown');
FILE_SCHEMA(('AUTOMOTIVE_DESIGN { 1 0 10303 214 1 1 1 1 }'));
ENDSEC;
DATA;
#1 = APPLICATION_PROTOCOL_DEFINITION('international standard',
  'automotive_design',2000,#2);
#2 = APPLICATION_CONTEXT(
  'core data for automotive mechanical design processes');
#3 = SHAPE_DEFINITION_REPRESENTATION(#4,#10);
#4 = PRODUCT_DEFINITION_SHAPE('','',#5);
#5 = PRODUCT_DEFINITION('design','',#6,#9);
#6 = PRODUCT_DEFINITION_FORMATION('','',#7);
#7 = PRODUCT('Open CASCADE STEP translator 7.8 9',
  'Open CASCADE STEP translator 7.8 9','',(#8));
#8 = PRODUCT_CONTEXT('',#2,'mechanical');
#9 = PRODUCT_DEFINITION_CONTEXT('part definition',#2,'design');
#10 = ADVANCED_BREP_SHAPE_REPRESENTATION('',(#11,#15),#1715);
#11 = AXIS2_PLACEMENT_3D('',#12,#13,#14);
#12 = CARTESIAN_POINT('',(0.,0.,0.));
#13 = DIRECTION('',(0.,0.,1.));
#14 = DIRECTION('',(1.,0.,-0.));
#15 = MANIFOLD_SOLID_BREP('',#16);
#16 = CLOSED_SHELL('',(#17,#57,#222,#246,#334,#529,#546,#563,#580,#597,
    #614,#631,#648,#680,#704,#728,#753,#778,#802,#826,#844,#861,#892,
    #916,#940,#964,#988,#1012,#1036,#1060,#1084,#1108,#1125,#1156,#1180,
    #1204,#1230,#1256,#1280,#1306,#1323,#1354,#1378,#1402,#1434,#1458,
    #1482,#1507,#1532,#1556,#1580,#1598,#1615,#1660,#1676,#1688,#1704));
#17 = ADVANCED_FACE('',(#18),#52,.F.);
#18 = FACE_BOUND('',#19,.F.);
#19 = EDGE_LOOP('',(#20,#30,#38,#46));
#20 = ORIENTED_EDGE('',*,*,#21,.F.);
#21 = EDGE_CURVE('',#22,#24,#26,.T.);
#22 = VERTEX_POINT('',#23);
#23 = CARTESIAN_POINT('',(0.,3.639702342662,10.));
#24 = VERTEX_POINT('',#25);
#25 = CARTESIAN_POINT('',(0.,13.75,10.));
#26 = LINE('',#27,#28);
#27 = CARTESIAN_POINT('',(0.,0.,10.));
#28 = VECTOR('',#29,1.);
#29 = DIRECTION('',(0.,1.,0.));
#30 = ORIENTED_EDGE('',*,*,#31,.T.);
#31 = EDGE_CURVE('',#22,#32,#34,.T.);
#32 = VERTEX_POINT('',#33);
#33 = CARTESIAN_POINT('',(0.,0.,0.));
#34 = LINE('',#35,#36);
#35 = CARTESIAN_POINT('',(0.,0.,0.));
#36 = VECTOR('',#37,1.);
#37 = DIRECTION('',(0.,-0.342020143326,-0.939692620786));
#38 = ORIENTED_EDGE('',*,*,#39,.T.);
#39 = EDGE_CURVE('',#32,#40,#42,.T.);
#40 = VERTEX_POINT('',#41);
#41 = CARTESIAN_POINT('',(0.,13.75,0.));
#42 = LINE('',#43,#44);
#43 = CARTESIAN_POINT('',(0.,0.,0.));
#44 = VECTOR('',#45,1.);
#45 = DIRECTION('',(0.,1.,0.));
#46 = ORIENTED_EDGE('',*,*,#47,.T.);
#47 = EDGE_CURVE('',#40,#24,#48,.T.);
#48 = LINE('',#49,#50);
#49 = CARTESIAN_POINT('',(0.,13.75,-1.));
#50 = VECTOR('',#51,1.);
#51 = DIRECTION('',(0.,0.,1.));
#52 = PLANE('',#53);
#53 = AXIS2_PLACEMENT_3D('',#54,#55,#56);
#54 = CARTESIAN_POINT('',(0.,0.,0.));
#55 = DIRECTION('',(1.,0.,0.));
#56 = DIRECTION('',(0.,0.,1.));
#57 = ADVANCED_FACE('',(#58,#147),#217,.T.);
#58 = FACE_BOUND('',#59,.T.);
#59 = EDGE_LOOP('',(#60,#61,#69,#77,#85,#93,#101,#109,#117,#125,#133,
    #141));
#60 = ORIENTED_EDGE('',*,*,#21,.F.);
#61 = ORIENTED_EDGE('',*,*,#62,.T.);
#62 = EDGE_CURVE('',#22,#63,#65,.T.);
#63 = VERTEX_POINT('',#64);
#64 = CARTESIAN_POINT('',(43.,3.639702342662,10.));
#65 = LINE('',#66,#67);
#66 = CARTESIAN_POINT('',(-1.,3.639702342662,10.));
#67 = VECTOR('',#68,1.);
#68 = DIRECTION('',(1.,0.,0.));
#69 = ORIENTED_EDGE('',*,*,#70,.T.);
#70 = EDGE_CURVE('',#63,#71,#73,.T.);
#71 = VERTEX_POINT('',#72);
#72 = CARTESIAN_POINT('',(43.,13.875609756098,10.));
#73 = LINE('',#74,#75);
#74 = CARTESIAN_POINT('',(43.,0.,10.));
#75 = VECTOR('',#76,1.);
#76 = DIRECTION('',(0.,1.,0.));
#77 = ORIENTED_EDGE('',*,*,#78,.F.);
#78 = EDGE_CURVE('',#79,#71,#81,.T.);
#79 = VERTEX_POINT('',#80);
#80 = CARTESIAN_POINT('',(42.9,13.9,10.));
#81 = LINE('',#82,#83);
#82 = CARTESIAN_POINT('',(42.9,13.9,10.));
#83 = VECTOR('',#84,1.);
#84 = DIRECTION('',(0.971520338783,-0.236956180191,0.));
#85 = ORIENTED_EDGE('',*,*,#86,.F.);
#86 = EDGE_CURVE('',#87,#79,#89,.T.);
#87 = VERTEX_POINT('',#88);
#88 = CARTESIAN_POINT('',(42.9,17.9,10.));
#89 = LINE('',#90,#91);
#90 = CARTESIAN_POINT('',(42.9,17.9,10.));
#91 = VECTOR('',#92,1.);
#92 = DIRECTION('',(0.,-1.,0.));
#93 = ORIENTED_EDGE('',*,*,#94,.F.);
#94 = EDGE_CURVE('',#95,#87,#97,.T.);
#95 = VERTEX_POINT('',#96);
#96 = CARTESIAN_POINT('',(43.,17.924390243902,10.));
#97 = LINE('',#98,#99);
#98 = CARTESIAN_POINT('',(47.,18.9,10.));
#99 = VECTOR('',#100,1.);
#100 = DIRECTION('',(-0.971520338783,-0.236956180191,0.));
#101 = ORIENTED_EDGE('',*,*,#102,.T.);
#102 = EDGE_CURVE('',#95,#103,#105,.T.);
#103 = VERTEX_POINT('',#104);
#104 = CARTESIAN_POINT('',(43.,53.,10.));
#105 = LINE('',#106,#107);
#106 = CARTESIAN_POINT('',(43.,0.,10.));
#107 = VECTOR('',#108,1.);
#108 = DIRECTION('',(0.,1.,0.));
#109 = ORIENTED_EDGE('',*,*,#110,.F.);
#110 = EDGE_CURVE('',#111,#103,#113,.T.);
#111 = VERTEX_POINT('',#112);
#112 = CARTESIAN_POINT('',(0.,53.,10.));
#113 = LINE('',#114,#115);
#114 = CARTESIAN_POINT('',(0.,53.,10.));
#115 = VECTOR('',#116,1.);
#116 = DIRECTION('',(1.,0.,0.));
#117 = ORIENTED_EDGE('',*,*,#118,.F.);
#118 = EDGE_CURVE('',#119,#111,#121,.T.);
#119 = VERTEX_POINT('',#120);
#120 = CARTESIAN_POINT('',(0.,18.05,10.));
#121 = LINE('',#122,#123);
#122 = CARTESIAN_POINT('',(0.,0.,10.));
#123 = VECTOR('',#124,1.);
#124 = DIRECTION('',(0.,1.,0.));
#125 = ORIENTED_EDGE('',*,*,#126,.T.);
#126 = EDGE_CURVE('',#119,#127,#129,.T.);
#127 = VERTEX_POINT('',#128);
#128 = CARTESIAN_POINT('',(4.,19.05,10.));
#129 = LINE('',#130,#131);
#130 = CARTESIAN_POINT('',(-0.123529411765,18.019117647059,10.));
#131 = VECTOR('',#132,1.);
#132 = DIRECTION('',(0.970142500145,0.242535625036,0.));
#133 = ORIENTED_EDGE('',*,*,#134,.T.);
#134 = EDGE_CURVE('',#127,#135,#137,.T.);
#135 = VERTEX_POINT('',#136);
#136 = CARTESIAN_POINT('',(4.,12.75,10.));
#137 = LINE('',#138,#139);
#138 = CARTESIAN_POINT('',(4.,6.375,10.));
#139 = VECTOR('',#140,1.);
#140 = DIRECTION('',(0.,-1.,0.));
#141 = ORIENTED_EDGE('',*,*,#142,.T.);
#142 = EDGE_CURVE('',#135,#24,#143,.T.);
#143 = LINE('',#144,#145);
#144 = CARTESIAN_POINT('',(1.617647058824,13.345588235294,10.));
#145 = VECTOR('',#146,1.);
#146 = DIRECTION('',(-0.970142500145,0.242535625036,0.));
#147 = FACE_BOUND('',#148,.T.);
#148 = EDGE_LOOP('',(#149,#160,#168,#177,#185,#194,#202,#211));
#149 = ORIENTED_EDGE('',*,*,#150,.F.);
#150 = EDGE_CURVE('',#151,#153,#155,.T.);
#151 = VERTEX_POINT('',#152);
#152 = CARTESIAN_POINT('',(16.6,38.36,10.));
#153 = VERTEX_POINT('',#154);
#154 = CARTESIAN_POINT('',(16.,37.76,10.));
#155 = CIRCLE('',#156,0.6);
#156 = AXIS2_PLACEMENT_3D('',#157,#158,#159);
#157 = CARTESIAN_POINT('',(16.6,37.76,10.));
#158 = DIRECTION('',(0.,-0.,1.));
#159 = DIRECTION('',(0.,1.,0.));
#160 = ORIENTED_EDGE('',*,*,#161,.T.);
#161 = EDGE_CURVE('',#151,#162,#164,.T.);
#162 = VERTEX_POINT('',#163);
#163 = CARTESIAN_POINT('',(26.4,38.36,10.));
#164 = LINE('',#165,#166);
#165 = CARTESIAN_POINT('',(13.5,38.36,10.));
#166 = VECTOR('',#167,1.);
#167 = DIRECTION('',(1.,0.,0.));
#168 = ORIENTED_EDGE('',*,*,#169,.F.);
#169 = EDGE_CURVE('',#170,#162,#172,.T.);
#170 = VERTEX_POINT('',#171);
#171 = CARTESIAN_POINT('',(27.,37.76,10.));
#172 = CIRCLE('',#173,0.6);
#173 = AXIS2_PLACEMENT_3D('',#174,#175,#176);
#174 = CARTESIAN_POINT('',(26.4,37.76,10.));
#175 = DIRECTION('',(0.,-0.,1.));
#176 = DIRECTION('',(0.,1.,0.));
#177 = ORIENTED_EDGE('',*,*,#178,.T.);
#178 = EDGE_CURVE('',#170,#179,#181,.T.);
#179 = VERTEX_POINT('',#180);
#180 = CARTESIAN_POINT('',(27.,27.96,10.));
#181 = LINE('',#182,#183);
#182 = CARTESIAN_POINT('',(27.,13.68,10.));
#183 = VECTOR('',#184,1.);
#184 = DIRECTION('',(0.,-1.,0.));
#185 = ORIENTED_EDGE('',*,*,#186,.F.);
#186 = EDGE_CURVE('',#187,#179,#189,.T.);
#187 = VERTEX_POINT('',#188);
#188 = CARTESIAN_POINT('',(26.4,27.36,10.));
#189 = CIRCLE('',#190,0.6);
#190 = AXIS2_PLACEMENT_3D('',#191,#192,#193);
#191 = CARTESIAN_POINT('',(26.4,27.96,10.));
#192 = DIRECTION('',(-0.,0.,1.));
#193 = DIRECTION('',(0.,-1.,0.));
#194 = ORIENTED_EDGE('',*,*,#195,.T.);
#195 = EDGE_CURVE('',#187,#196,#198,.T.);
#196 = VERTEX_POINT('',#197);
#197 = CARTESIAN_POINT('',(16.6,27.36,10.));
#198 = LINE('',#199,#200);
#199 = CARTESIAN_POINT('',(8.,27.36,10.));
#200 = VECTOR('',#201,1.);
#201 = DIRECTION('',(-1.,0.,0.));
#202 = ORIENTED_EDGE('',*,*,#203,.F.);
#203 = EDGE_CURVE('',#204,#196,#206,.T.);
#204 = VERTEX_POINT('',#205);
#205 = CARTESIAN_POINT('',(16.,27.96,10.));
#206 = CIRCLE('',#207,0.6);
#207 = AXIS2_PLACEMENT_3D('',#208,#209,#210);
#208 = CARTESIAN_POINT('',(16.6,27.96,10.));
#209 = DIRECTION('',(0.,0.,1.));
#210 = DIRECTION('',(-1.,0.,0.));
#211 = ORIENTED_EDGE('',*,*,#212,.T.);
#212 = EDGE_CURVE('',#204,#153,#213,.T.);
#213 = LINE('',#214,#215);
#214 = CARTESIAN_POINT('',(16.,19.18,10.));
#215 = VECTOR('',#216,1.);
#216 = DIRECTION('',(0.,1.,0.));
#217 = PLANE('',#218);
#218 = AXIS2_PLACEMENT_3D('',#219,#220,#221);
#219 = CARTESIAN_POINT('',(0.,0.,10.));
#220 = DIRECTION('',(0.,0.,1.));
#221 = DIRECTION('',(1.,0.,0.));
#222 = ADVANCED_FACE('',(#223),#241,.T.);
#223 = FACE_BOUND('',#224,.T.);
#224 = EDGE_LOOP('',(#225,#233,#234,#235));
#225 = ORIENTED_EDGE('',*,*,#226,.T.);
#226 = EDGE_CURVE('',#227,#40,#229,.T.);
#227 = VERTEX_POINT('',#228);
#228 = CARTESIAN_POINT('',(4.,12.75,0.));
#229 = LINE('',#230,#231);
#230 = CARTESIAN_POINT('',(1.617647058824,13.345588235294,0.));
#231 = VECTOR('',#232,1.);
#232 = DIRECTION('',(-0.970142500145,0.242535625036,0.));
#233 = ORIENTED_EDGE('',*,*,#47,.T.);
#234 = ORIENTED_EDGE('',*,*,#142,.F.);
#235 = ORIENTED_EDGE('',*,*,#236,.F.);
#236 = EDGE_CURVE('',#227,#135,#237,.T.);
#237 = LINE('',#238,#239);
#238 = CARTESIAN_POINT('',(4.,12.75,-1.));
#239 = VECTOR('',#240,1.);
#240 = DIRECTION('',(0.,0.,1.));
#241 = PLANE('',#242);
#242 = AXIS2_PLACEMENT_3D('',#243,#244,#245);
#243 = CARTESIAN_POINT('',(0.,13.75,-1.));
#244 = DIRECTION('',(0.242535625036,0.970142500145,0.));
#245 = DIRECTION('',(0.970142500145,-0.242535625036,0.));
#246 = ADVANCED_FACE('',(#247),#329,.F.);
#247 = FACE_BOUND('',#248,.F.);
#248 = EDGE_LOOP('',(#249,#250,#258,#266,#274,#282,#290,#298,#306,#314,
    #322,#328));
#249 = ORIENTED_EDGE('',*,*,#39,.F.);
#250 = ORIENTED_EDGE('',*,*,#251,.T.);
#251 = EDGE_CURVE('',#32,#252,#254,.T.);
#252 = VERTEX_POINT('',#253);
#253 = CARTESIAN_POINT('',(43.,0.,0.));
#254 = LINE('',#255,#256);
#255 = CARTESIAN_POINT('',(0.,0.,0.));
#256 = VECTOR('',#257,1.);
#257 = DIRECTION('',(1.,0.,0.));
#258 = ORIENTED_EDGE('',*,*,#259,.T.);
#259 = EDGE_CURVE('',#252,#260,#262,.T.);
#260 = VERTEX_POINT('',#261);
#261 = CARTESIAN_POINT('',(43.,13.875609756098,0.));
#262 = LINE('',#263,#264);
#263 = CARTESIAN_POINT('',(43.,0.,0.));
#264 = VECTOR('',#265,1.);
#265 = DIRECTION('',(0.,1.,0.));
#266 = ORIENTED_EDGE('',*,*,#267,.F.);
#267 = EDGE_CURVE('',#268,#260,#270,.T.);
#268 = VERTEX_POINT('',#269);
#269 = CARTESIAN_POINT('',(42.9,13.9,0.));
#270 = LINE('',#271,#272);
#271 = CARTESIAN_POINT('',(42.9,13.9,0.));
#272 = VECTOR('',#273,1.);
#273 = DIRECTION('',(0.971520338783,-0.236956180191,0.));
#274 = ORIENTED_EDGE('',*,*,#275,.F.);
#275 = EDGE_CURVE('',#276,#268,#278,.T.);
#276 = VERTEX_POINT('',#277);
#277 = CARTESIAN_POINT('',(42.9,17.9,0.));
#278 = LINE('',#279,#280);
#279 = CARTESIAN_POINT('',(42.9,17.9,0.));
#280 = VECTOR('',#281,1.);
#281 = DIRECTION('',(0.,-1.,0.));
#282 = ORIENTED_EDGE('',*,*,#283,.F.);
#283 = EDGE_CURVE('',#284,#276,#286,.T.);
#284 = VERTEX_POINT('',#285);
#285 = CARTESIAN_POINT('',(43.,17.924390243902,0.));
#286 = LINE('',#287,#288);
#287 = CARTESIAN_POINT('',(47.,18.9,0.));
#288 = VECTOR('',#289,1.);
#289 = DIRECTION('',(-0.971520338783,-0.236956180191,0.));
#290 = ORIENTED_EDGE('',*,*,#291,.T.);
#291 = EDGE_CURVE('',#284,#292,#294,.T.);
#292 = VERTEX_POINT('',#293);
#293 = CARTESIAN_POINT('',(43.,53.,0.));
#294 = LINE('',#295,#296);
#295 = CARTESIAN_POINT('',(43.,0.,0.));
#296 = VECTOR('',#297,1.);
#297 = DIRECTION('',(0.,1.,0.));
#298 = ORIENTED_EDGE('',*,*,#299,.F.);
#299 = EDGE_CURVE('',#300,#292,#302,.T.);
#300 = VERTEX_POINT('',#301);
#301 = CARTESIAN_POINT('',(0.,53.,0.));
#302 = LINE('',#303,#304);
#303 = CARTESIAN_POINT('',(0.,53.,0.));
#304 = VECTOR('',#305,1.);
#305 = DIRECTION('',(1.,0.,0.));
#306 = ORIENTED_EDGE('',*,*,#307,.F.);
#307 = EDGE_CURVE('',#308,#300,#310,.T.);
#308 = VERTEX_POINT('',#309);
#309 = CARTESIAN_POINT('',(0.,18.05,0.));
#310 = LINE('',#311,#312);
#311 = CARTESIAN_POINT('',(0.,0.,0.));
#312 = VECTOR('',#313,1.);
#313 = DIRECTION('',(0.,1.,0.));
#314 = ORIENTED_EDGE('',*,*,#315,.T.);
#315 = EDGE_CURVE('',#308,#316,#318,.T.);
#316 = VERTEX_POINT('',#317);
#317 = CARTESIAN_POINT('',(4.,19.05,0.));
#318 = LINE('',#319,#320);
#319 = CARTESIAN_POINT('',(-0.123529411765,18.019117647059,0.));
#320 = VECTOR('',#321,1.);
#321 = DIRECTION('',(0.970142500145,0.242535625036,0.));
#322 = ORIENTED_EDGE('',*,*,#323,.T.);
#323 = EDGE_CURVE('',#316,#227,#324,.T.);
#324 = LINE('',#325,#326);
#325 = CARTESIAN_POINT('',(4.,6.375,0.));
#326 = VECTOR('',#327,1.);
#327 = DIRECTION('',(0.,-1.,0.));
#328 = ORIENTED_EDGE('',*,*,#226,.T.);
#329 = PLANE('',#330);
#330 = AXIS2_PLACEMENT_3D('',#331,#332,#333);
#331 = CARTESIAN_POINT('',(0.,0.,0.));
#332 = DIRECTION('',(0.,0.,1.));
#333 = DIRECTION('',(1.,0.,0.));
#334 = ADVANCED_FACE('',(#335,#346,#436),#524,.T.);
#335 = FACE_BOUND('',#336,.T.);
#336 = EDGE_LOOP('',(#337,#338,#339,#345));
#337 = ORIENTED_EDGE('',*,*,#31,.T.);
#338 = ORIENTED_EDGE('',*,*,#251,.T.);
#339 = ORIENTED_EDGE('',*,*,#340,.F.);
#340 = EDGE_CURVE('',#63,#252,#341,.T.);
#341 = LINE('',#342,#343);
#342 = CARTESIAN_POINT('',(43.,0.,0.));
#343 = VECTOR('',#344,1.);
#344 = DIRECTION('',(0.,-0.342020143326,-0.939692620786));
#345 = ORIENTED_EDGE('',*,*,#62,.F.);
#346 = FACE_BOUND('',#347,.T.);
#347 = EDGE_LOOP('',(#348,#358,#366,#374,#382,#390,#398,#406,#414,#422,
    #430));
#348 = ORIENTED_EDGE('',*,*,#349,.F.);
#349 = EDGE_CURVE('',#350,#352,#354,.T.);
#350 = VERTEX_POINT('',#351);
#351 = CARTESIAN_POINT('',(23.718853503185,1.658701158257,4.557243977934
    ));
#352 = VERTEX_POINT('',#353);
#353 = CARTESIAN_POINT('',(23.718853503185,1.273895819932,3.5));
#354 = LINE('',#355,#356);
#355 = CARTESIAN_POINT('',(23.718853503185,0.636947909966,1.75));
#356 = VECTOR('',#357,1.);
#357 = DIRECTION('',(-0.,-0.342020143326,-0.939692620786));
#358 = ORIENTED_EDGE('',*,*,#359,.F.);
#359 = EDGE_CURVE('',#360,#350,#362,.T.);
#360 = VERTEX_POINT('',#361);
#361 = CARTESIAN_POINT('',(21.425859872611,1.658701158257,4.557243977934
    ));
#362 = LINE('',#363,#364);
#363 = CARTESIAN_POINT('',(11.359426751592,1.658701158257,4.557243977934
    ));
#364 = VECTOR('',#365,1.);
#365 = DIRECTION('',(1.,0.,0.));
#366 = ORIENTED_EDGE('',*,*,#367,.F.);
#367 = EDGE_CURVE('',#368,#360,#370,.T.);
#368 = VERTEX_POINT('',#369);
#369 = CARTESIAN_POINT('',(21.425859872611,1.980853634658,5.442350632468
    ));
#370 = LINE('',#371,#372);
#371 = CARTESIAN_POINT('',(21.425859872611,0.829350579128,2.278621988967
    ));
#372 = VECTOR('',#373,1.);
#373 = DIRECTION('',(-0.,-0.342020143326,-0.939692620786));
#374 = ORIENTED_EDGE('',*,*,#375,.F.);
#375 = EDGE_CURVE('',#376,#368,#378,.T.);
#376 = VERTEX_POINT('',#377);
#377 = CARTESIAN_POINT('',(23.856433121019,3.197922511557,8.78621988967)
  );
#378 = LINE('',#379,#380);
#379 = CARTESIAN_POINT('',(16.51004165217,-0.480660069779,
    -1.320602688152));
#380 = VECTOR('',#381,1.);
#381 = DIRECTION('',(-0.564024580147,-0.282425869186,-0.77595869826));
#382 = ORIENTED_EDGE('',*,*,#383,.F.);
#383 = EDGE_CURVE('',#384,#376,#386,.T.);
#384 = VERTEX_POINT('',#385);
#385 = CARTESIAN_POINT('',(24.758343949045,3.197922511557,8.78621988967)
  );
#386 = LINE('',#387,#388);
#387 = CARTESIAN_POINT('',(11.42821656051,3.197922511557,8.78621988967)
  );
#388 = VECTOR('',#389,1.);
#389 = DIRECTION('',(-1.,0.,0.));
#390 = ORIENTED_EDGE('',*,*,#391,.F.);
#391 = EDGE_CURVE('',#392,#384,#394,.T.);
#392 = VERTEX_POINT('',#393);
#393 = CARTESIAN_POINT('',(24.758343949045,1.982160718008,5.445941814458
    ));
#394 = LINE('',#395,#396);
#395 = CARTESIAN_POINT('',(24.758343949045,1.598961255779,4.393109944835
    ));
#396 = VECTOR('',#397,1.);
#397 = DIRECTION('',(0.,0.342020143326,0.939692620786));
#398 = ORIENTED_EDGE('',*,*,#399,.F.);
#399 = EDGE_CURVE('',#400,#392,#402,.T.);
#400 = VERTEX_POINT('',#401);
#401 = CARTESIAN_POINT('',(25.453885350318,1.982160718008,5.445941814458
    ));
#402 = LINE('',#403,#404);
#403 = CARTESIAN_POINT('',(11.879171974522,1.982160718008,5.445941814458
    ));
#404 = VECTOR('',#405,1.);
#405 = DIRECTION('',(-1.,0.,0.));
#406 = ORIENTED_EDGE('',*,*,#407,.F.);
#407 = EDGE_CURVE('',#408,#400,#410,.T.);
#408 = VERTEX_POINT('',#409);
#409 = CARTESIAN_POINT('',(25.453885350318,1.658701158257,4.557243977934
    ));
#410 = LINE('',#411,#412);
#411 = CARTESIAN_POINT('',(25.453885350318,0.991080359004,2.722970907229
    ));
#412 = VECTOR('',#413,1.);
#413 = DIRECTION('',(0.,0.342020143326,0.939692620786));
#414 = ORIENTED_EDGE('',*,*,#415,.F.);
#415 = EDGE_CURVE('',#416,#408,#418,.T.);
#416 = VERTEX_POINT('',#417);
#417 = CARTESIAN_POINT('',(24.758343949045,1.658701158257,4.557243977934
    ));
#418 = LINE('',#419,#420);
#419 = CARTESIAN_POINT('',(12.226942675159,1.658701158257,4.557243977934
    ));
#420 = VECTOR('',#421,1.);
#421 = DIRECTION('',(1.,0.,0.));
#422 = ORIENTED_EDGE('',*,*,#423,.F.);
#423 = EDGE_CURVE('',#424,#416,#426,.T.);
#424 = VERTEX_POINT('',#425);
#425 = CARTESIAN_POINT('',(24.758343949045,1.273895819932,3.5));
#426 = LINE('',#427,#428);
#427 = CARTESIAN_POINT('',(24.758343949045,0.829350579128,2.278621988967
    ));
#428 = VECTOR('',#429,1.);
#429 = DIRECTION('',(0.,0.342020143326,0.939692620786));
#430 = ORIENTED_EDGE('',*,*,#431,.F.);
#431 = EDGE_CURVE('',#352,#424,#432,.T.);
#432 = LINE('',#433,#434);
#433 = CARTESIAN_POINT('',(11.879171974522,1.273895819932,3.5));
#434 = VECTOR('',#435,1.);
#435 = DIRECTION('',(1.,0.,0.));
#436 = FACE_BOUND('',#437,.T.);
#437 = EDGE_LOOP('',(#438,#448,#456,#471,#479,#491,#510,#518));
#438 = ORIENTED_EDGE('',*,*,#439,.F.);
#439 = EDGE_CURVE('',#440,#442,#444,.T.);
#440 = VERTEX_POINT('',#441);
#441 = CARTESIAN_POINT('',(18.933375796178,1.273895819932,3.5));
#442 = VERTEX_POINT('',#443);
#443 = CARTESIAN_POINT('',(20.007261146497,1.273895819932,3.5));
#444 = LINE('',#445,#446);
#445 = CARTESIAN_POINT('',(9.503630573248,1.273895819932,3.5));
#446 = VECTOR('',#447,1.);
#447 = DIRECTION('',(1.,0.,0.));
#448 = ORIENTED_EDGE('',*,*,#449,.F.);
#449 = EDGE_CURVE('',#450,#440,#452,.T.);
#450 = VERTEX_POINT('',#451);
#451 = CARTESIAN_POINT('',(18.933375796178,2.663238282399,7.317187043519
    ));
#452 = LINE('',#453,#454);
#453 = CARTESIAN_POINT('',(18.933375796178,0.636947909966,1.75));
#454 = VECTOR('',#455,1.);
#455 = DIRECTION('',(-0.,-0.342020143326,-0.939692620786));
#456 = ORIENTED_EDGE('',*,*,#457,.F.);
#457 = EDGE_CURVE('',#458,#450,#460,.T.);
#458 = VERTEX_POINT('',#459);
#459 = CARTESIAN_POINT('',(17.546114649682,2.383696723217,6.549152921867
    ));
#460 = B_SPLINE_CURVE_WITH_KNOTS('',5,(#461,#462,#463,#464,#465,#466,
    #467,#468,#469,#470),.UNSPECIFIED.,.F.,.F.,(6,4,6),(0.,
    0.724057549441,1.),.UNSPECIFIED.);
#461 = CARTESIAN_POINT('',(17.546114649682,2.383696723217,6.549152921867
    ));
#462 = CARTESIAN_POINT('',(17.771389223942,2.409232076143,6.619310727428
    ));
#463 = CARTESIAN_POINT('',(17.990058980333,2.440098888708,6.704116597962
    ));
#464 = CARTESIAN_POINT('',(18.200404541185,2.476516992288,6.804174515207
    ));
#465 = CARTESIAN_POINT('',(18.400784253422,2.518514045045,6.91956046934)
  );
#466 = CARTESIAN_POINT('',(18.661981250197,2.583768239909,7.098844896254
    ));
#467 = CARTESIAN_POINT('',(18.732426046623,2.602538453325,7.150415633773
    ));
#468 = CARTESIAN_POINT('',(18.801173203033,2.62205554452,7.204038401124)
  );
#469 = CARTESIAN_POINT('',(18.868169540087,2.642297711285,7.259653297232
    ));
#470 = CARTESIAN_POINT('',(18.933375796178,2.663238282399,7.317187043519
    ));
#471 = ORIENTED_EDGE('',*,*,#472,.F.);
#472 = EDGE_CURVE('',#473,#458,#475,.T.);
#473 = VERTEX_POINT('',#474);
#474 = CARTESIAN_POINT('',(17.546114649682,2.718310060891,7.468495511375
    ));
#475 = LINE('',#476,#477);
#476 = CARTESIAN_POINT('',(17.546114649682,1.191848361609,3.274576460934
    ));
#477 = VECTOR('',#478,1.);
#478 = DIRECTION('',(-0.,-0.342020143326,-0.939692620786));
#479 = ORIENTED_EDGE('',*,*,#480,.F.);
#480 = EDGE_CURVE('',#481,#473,#483,.T.);
#481 = VERTEX_POINT('',#482);
#482 = CARTESIAN_POINT('',(18.45949044586,2.896770507651,7.958811559113)
  );
#483 = B_SPLINE_CURVE_WITH_KNOTS('',6,(#484,#485,#486,#487,#488,#489,
    #490),.UNSPECIFIED.,.F.,.F.,(7,7),(0.,1.),.PIECEWISE_BEZIER_KNOTS.);
#484 = CARTESIAN_POINT('',(18.45949044586,2.896770507651,7.958811559113)
  );
#485 = CARTESIAN_POINT('',(18.309923216873,2.856903971381,7.849279150918
    ));
#486 = CARTESIAN_POINT('',(18.158861176101,2.820228173284,7.748513223807
    ));
#487 = CARTESIAN_POINT('',(18.006364829822,2.787256522549,7.657924357932
    ));
#488 = CARTESIAN_POINT('',(17.852840478137,2.75869595565,7.579454845289)
  );
#489 = CARTESIAN_POINT('',(17.699046287576,2.735428290215,7.515527459903
    ));
#490 = CARTESIAN_POINT('',(17.546114649682,2.718310060891,7.468495511375
    ));
#491 = ORIENTED_EDGE('',*,*,#492,.F.);
#492 = EDGE_CURVE('',#493,#481,#495,.T.);
#493 = VERTEX_POINT('',#494);
#494 = CARTESIAN_POINT('',(19.135923566879,3.203499400519,8.801542266161
    ));
#495 = B_SPLINE_CURVE_WITH_KNOTS('',5,(#496,#497,#498,#499,#500,#501,
    #502,#503,#504,#505,#506,#507,#508,#509),.UNSPECIFIED.,.F.,.F.,(6,4,
    4,6),(0.,7.602305458109E-02,0.52948728546,1.),.UNSPECIFIED.);
#496 = CARTESIAN_POINT('',(19.135923566879,3.203499400519,8.801542266161
    ));
#497 = CARTESIAN_POINT('',(19.130202637399,3.198034303789,8.786527036301
    ));
#498 = CARTESIAN_POINT('',(19.124291746182,3.192594092569,8.771580178816
    ));
#499 = CARTESIAN_POINT('',(19.11819125123,3.187179366928,8.756703342387)
  );
#500 = CARTESIAN_POINT('',(19.111901669914,3.181790707066,8.741898121094
    ));
#501 = CARTESIAN_POINT('',(19.06678359549,3.144445079278,8.639291852031)
  );
#502 = CARTESIAN_POINT('',(19.021437603171,3.11340676027,8.55401477142)
  );
#503 = CARTESIAN_POINT('',(18.969535055465,3.083439125643,8.471679371968
    ));
#504 = CARTESIAN_POINT('',(18.91141635987,3.054621608759,8.392503895043)
  );
#505 = CARTESIAN_POINT('',(18.781268108553,2.998339636559,8.237870447301
    ));
#506 = CARTESIAN_POINT('',(18.70879184204,2.970964399538,8.162657601734)
  );
#507 = CARTESIAN_POINT('',(18.630618424154,2.944920801976,8.091103405511
    ));
#508 = CARTESIAN_POINT('',(18.547335246968,2.920200708902,8.023185507984
    ));
#509 = CARTESIAN_POINT('',(18.45949044586,2.896770507651,7.958811559113)
  );
#510 = ORIENTED_EDGE('',*,*,#511,.F.);
#511 = EDGE_CURVE('',#512,#493,#514,.T.);
#512 = VERTEX_POINT('',#513);
#513 = CARTESIAN_POINT('',(20.007261146497,3.203499400519,8.801542266161
    ));
#514 = LINE('',#515,#516);
#515 = CARTESIAN_POINT('',(9.067961783439,3.203499400519,8.801542266161)
  );
#516 = VECTOR('',#517,1.);
#517 = DIRECTION('',(-1.,0.,0.));
#518 = ORIENTED_EDGE('',*,*,#519,.F.);
#519 = EDGE_CURVE('',#442,#512,#520,.T.);
#520 = LINE('',#521,#522);
#521 = CARTESIAN_POINT('',(20.007261146497,1.601749700259,4.400771133081
    ));
#522 = VECTOR('',#523,1.);
#523 = DIRECTION('',(0.,0.342020143326,0.939692620786));
#524 = PLANE('',#525);
#525 = AXIS2_PLACEMENT_3D('',#526,#527,#528);
#526 = CARTESIAN_POINT('',(-1.,0.,0.));
#527 = DIRECTION('',(0.,-0.939692620786,0.342020143326));
#528 = DIRECTION('',(0.,0.342020143326,0.939692620786));
#529 = ADVANCED_FACE('',(#530),#541,.T.);
#530 = FACE_BOUND('',#531,.T.);
#531 = EDGE_LOOP('',(#532,#533,#534,#535));
#532 = ORIENTED_EDGE('',*,*,#323,.T.);
#533 = ORIENTED_EDGE('',*,*,#236,.T.);
#534 = ORIENTED_EDGE('',*,*,#134,.F.);
#535 = ORIENTED_EDGE('',*,*,#536,.F.);
#536 = EDGE_CURVE('',#316,#127,#537,.T.);
#537 = LINE('',#538,#539);
#538 = CARTESIAN_POINT('',(4.,19.05,-1.));
#539 = VECTOR('',#540,1.);
#540 = DIRECTION('',(0.,0.,1.));
#541 = PLANE('',#542);
#542 = AXIS2_PLACEMENT_3D('',#543,#544,#545);
#543 = CARTESIAN_POINT('',(4.,12.75,-1.));
#544 = DIRECTION('',(-1.,0.,0.));
#545 = DIRECTION('',(0.,1.,0.));
#546 = ADVANCED_FACE('',(#547),#558,.T.);
#547 = FACE_BOUND('',#548,.T.);
#548 = EDGE_LOOP('',(#549,#550,#551,#552));
#549 = ORIENTED_EDGE('',*,*,#315,.T.);
#550 = ORIENTED_EDGE('',*,*,#536,.T.);
#551 = ORIENTED_EDGE('',*,*,#126,.F.);
#552 = ORIENTED_EDGE('',*,*,#553,.F.);
#553 = EDGE_CURVE('',#308,#119,#554,.T.);
#554 = LINE('',#555,#556);
#555 = CARTESIAN_POINT('',(0.,18.05,-1.));
#556 = VECTOR('',#557,1.);
#557 = DIRECTION('',(0.,0.,1.));
#558 = PLANE('',#559);
#559 = AXIS2_PLACEMENT_3D('',#560,#561,#562);
#560 = CARTESIAN_POINT('',(4.,19.05,-1.));
#561 = DIRECTION('',(0.242535625036,-0.970142500145,0.));
#562 = DIRECTION('',(-0.970142500145,-0.242535625036,0.));
#563 = ADVANCED_FACE('',(#564),#575,.F.);
#564 = FACE_BOUND('',#565,.F.);
#565 = EDGE_LOOP('',(#566,#567,#568,#569));
#566 = ORIENTED_EDGE('',*,*,#118,.F.);
#567 = ORIENTED_EDGE('',*,*,#553,.F.);
#568 = ORIENTED_EDGE('',*,*,#307,.T.);
#569 = ORIENTED_EDGE('',*,*,#570,.T.);
#570 = EDGE_CURVE('',#300,#111,#571,.T.);
#571 = LINE('',#572,#573);
#572 = CARTESIAN_POINT('',(0.,53.,0.));
#573 = VECTOR('',#574,1.);
#574 = DIRECTION('',(0.,0.,1.));
#575 = PLANE('',#576);
#576 = AXIS2_PLACEMENT_3D('',#577,#578,#579);
#577 = CARTESIAN_POINT('',(0.,0.,0.));
#578 = DIRECTION('',(1.,0.,0.));
#579 = DIRECTION('',(0.,0.,1.));
#580 = ADVANCED_FACE('',(#581),#592,.T.);
#581 = FACE_BOUND('',#582,.T.);
#582 = EDGE_LOOP('',(#583,#584,#585,#586));
#583 = ORIENTED_EDGE('',*,*,#299,.F.);
#584 = ORIENTED_EDGE('',*,*,#570,.T.);
#585 = ORIENTED_EDGE('',*,*,#110,.T.);
#586 = ORIENTED_EDGE('',*,*,#587,.F.);
#587 = EDGE_CURVE('',#292,#103,#588,.T.);
#588 = LINE('',#589,#590);
#589 = CARTESIAN_POINT('',(43.,53.,0.));
#590 = VECTOR('',#591,1.);
#591 = DIRECTION('',(0.,0.,1.));
#592 = PLANE('',#593);
#593 = AXIS2_PLACEMENT_3D('',#594,#595,#596);
#594 = CARTESIAN_POINT('',(0.,53.,0.));
#595 = DIRECTION('',(0.,1.,0.));
#596 = DIRECTION('',(0.,0.,1.));
#597 = ADVANCED_FACE('',(#598),#609,.T.);
#598 = FACE_BOUND('',#599,.T.);
#599 = EDGE_LOOP('',(#600,#601,#607,#608));
#600 = ORIENTED_EDGE('',*,*,#102,.F.);
#601 = ORIENTED_EDGE('',*,*,#602,.T.);
#602 = EDGE_CURVE('',#95,#284,#603,.T.);
#603 = LINE('',#604,#605);
#604 = CARTESIAN_POINT('',(43.,17.924390243902,0.));
#605 = VECTOR('',#606,1.);
#606 = DIRECTION('',(0.,0.,-1.));
#607 = ORIENTED_EDGE('',*,*,#291,.T.);
#608 = ORIENTED_EDGE('',*,*,#587,.T.);
#609 = PLANE('',#610);
#610 = AXIS2_PLACEMENT_3D('',#611,#612,#613);
#611 = CARTESIAN_POINT('',(43.,0.,0.));
#612 = DIRECTION('',(1.,0.,0.));
#613 = DIRECTION('',(0.,0.,1.));
#614 = ADVANCED_FACE('',(#615),#626,.T.);
#615 = FACE_BOUND('',#616,.T.);
#616 = EDGE_LOOP('',(#617,#618,#624,#625));
#617 = ORIENTED_EDGE('',*,*,#78,.T.);
#618 = ORIENTED_EDGE('',*,*,#619,.T.);
#619 = EDGE_CURVE('',#71,#95,#620,.T.);
#620 = LINE('',#621,#622);
#621 = CARTESIAN_POINT('',(43.,0.,10.));
#622 = VECTOR('',#623,1.);
#623 = DIRECTION('',(0.,1.,0.));
#624 = ORIENTED_EDGE('',*,*,#94,.T.);
#625 = ORIENTED_EDGE('',*,*,#86,.T.);
#626 = PLANE('',#627);
#627 = AXIS2_PLACEMENT_3D('',#628,#629,#630);
#628 = CARTESIAN_POINT('',(0.,0.,10.));
#629 = DIRECTION('',(0.,0.,1.));
#630 = DIRECTION('',(1.,0.,0.));
#631 = ADVANCED_FACE('',(#632),#643,.T.);
#632 = FACE_BOUND('',#633,.T.);
#633 = EDGE_LOOP('',(#634,#635,#636,#637));
#634 = ORIENTED_EDGE('',*,*,#70,.F.);
#635 = ORIENTED_EDGE('',*,*,#340,.T.);
#636 = ORIENTED_EDGE('',*,*,#259,.T.);
#637 = ORIENTED_EDGE('',*,*,#638,.T.);
#638 = EDGE_CURVE('',#260,#71,#639,.T.);
#639 = LINE('',#640,#641);
#640 = CARTESIAN_POINT('',(43.,13.875609756098,0.));
#641 = VECTOR('',#642,1.);
#642 = DIRECTION('',(0.,0.,1.));
#643 = PLANE('',#644);
#644 = AXIS2_PLACEMENT_3D('',#645,#646,#647);
#645 = CARTESIAN_POINT('',(43.,0.,0.));
#646 = DIRECTION('',(1.,0.,0.));
#647 = DIRECTION('',(0.,0.,1.));
#648 = ADVANCED_FACE('',(#649),#675,.T.);
#649 = FACE_BOUND('',#650,.T.);
#650 = EDGE_LOOP('',(#651,#659,#660,#668));
#651 = ORIENTED_EDGE('',*,*,#652,.F.);
#652 = EDGE_CURVE('',#151,#653,#655,.T.);
#653 = VERTEX_POINT('',#654);
#654 = CARTESIAN_POINT('',(16.6,38.36,20.5));
#655 = LINE('',#656,#657);
#656 = CARTESIAN_POINT('',(16.6,38.36,9.9));
#657 = VECTOR('',#658,1.);
#658 = DIRECTION('',(0.,0.,1.));
#659 = ORIENTED_EDGE('',*,*,#150,.T.);
#660 = ORIENTED_EDGE('',*,*,#661,.T.);
#661 = EDGE_CURVE('',#153,#662,#664,.T.);
#662 = VERTEX_POINT('',#663);
#663 = CARTESIAN_POINT('',(16.,37.76,20.5));
#664 = LINE('',#665,#666);
#665 = CARTESIAN_POINT('',(16.,37.76,9.9));
#666 = VECTOR('',#667,1.);
#667 = DIRECTION('',(0.,0.,1.));
#668 = ORIENTED_EDGE('',*,*,#669,.F.);
#669 = EDGE_CURVE('',#653,#662,#670,.T.);
#670 = CIRCLE('',#671,0.6);
#671 = AXIS2_PLACEMENT_3D('',#672,#673,#674);
#672 = CARTESIAN_POINT('',(16.6,37.76,20.5));
#673 = DIRECTION('',(0.,-0.,1.));
#674 = DIRECTION('',(0.,1.,0.));
#675 = CYLINDRICAL_SURFACE('',#676,0.6);
#676 = AXIS2_PLACEMENT_3D('',#677,#678,#679);
#677 = CARTESIAN_POINT('',(16.6,37.76,9.9));
#678 = DIRECTION('',(0.,0.,1.));
#679 = DIRECTION('',(0.,1.,0.));
#680 = ADVANCED_FACE('',(#681),#699,.F.);
#681 = FACE_BOUND('',#682,.F.);
#682 = EDGE_LOOP('',(#683,#684,#692,#698));
#683 = ORIENTED_EDGE('',*,*,#161,.T.);
#684 = ORIENTED_EDGE('',*,*,#685,.T.);
#685 = EDGE_CURVE('',#162,#686,#688,.T.);
#686 = VERTEX_POINT('',#687);
#687 = CARTESIAN_POINT('',(26.4,38.36,20.5));
#688 = LINE('',#689,#690);
#689 = CARTESIAN_POINT('',(26.4,38.36,9.9));
#690 = VECTOR('',#691,1.);
#691 = DIRECTION('',(0.,0.,1.));
#692 = ORIENTED_EDGE('',*,*,#693,.T.);
#693 = EDGE_CURVE('',#686,#653,#694,.T.);
#694 = LINE('',#695,#696);
#695 = CARTESIAN_POINT('',(26.4,38.36,20.5));
#696 = VECTOR('',#697,1.);
#697 = DIRECTION('',(-1.,0.,0.));
#698 = ORIENTED_EDGE('',*,*,#652,.F.);
#699 = PLANE('',#700);
#700 = AXIS2_PLACEMENT_3D('',#701,#702,#703);
#701 = CARTESIAN_POINT('',(27.,38.36,9.9));
#702 = DIRECTION('',(0.,-1.,0.));
#703 = DIRECTION('',(-1.,0.,0.));
#704 = ADVANCED_FACE('',(#705),#723,.F.);
#705 = FACE_BOUND('',#706,.F.);
#706 = EDGE_LOOP('',(#707,#708,#709,#717));
#707 = ORIENTED_EDGE('',*,*,#212,.T.);
#708 = ORIENTED_EDGE('',*,*,#661,.T.);
#709 = ORIENTED_EDGE('',*,*,#710,.T.);
#710 = EDGE_CURVE('',#662,#711,#713,.T.);
#711 = VERTEX_POINT('',#712);
#712 = CARTESIAN_POINT('',(16.,27.96,20.5));
#713 = LINE('',#714,#715);
#714 = CARTESIAN_POINT('',(16.,37.76,20.5));
#715 = VECTOR('',#716,1.);
#716 = DIRECTION('',(0.,-1.,0.));
#717 = ORIENTED_EDGE('',*,*,#718,.F.);
#718 = EDGE_CURVE('',#204,#711,#719,.T.);
#719 = LINE('',#720,#721);
#720 = CARTESIAN_POINT('',(16.,27.96,9.9));
#721 = VECTOR('',#722,1.);
#722 = DIRECTION('',(0.,0.,1.));
#723 = PLANE('',#724);
#724 = AXIS2_PLACEMENT_3D('',#725,#726,#727);
#725 = CARTESIAN_POINT('',(16.,38.36,9.9));
#726 = DIRECTION('',(1.,0.,0.));
#727 = DIRECTION('',(0.,-1.,0.));
#728 = ADVANCED_FACE('',(#729),#748,.T.);
#729 = FACE_BOUND('',#730,.F.);
#730 = EDGE_LOOP('',(#731,#732,#733,#741));
#731 = ORIENTED_EDGE('',*,*,#685,.F.);
#732 = ORIENTED_EDGE('',*,*,#169,.F.);
#733 = ORIENTED_EDGE('',*,*,#734,.T.);
#734 = EDGE_CURVE('',#170,#735,#737,.T.);
#735 = VERTEX_POINT('',#736);
#736 = CARTESIAN_POINT('',(27.,37.76,20.5));
#737 = LINE('',#738,#739);
#738 = CARTESIAN_POINT('',(27.,37.76,9.9));
#739 = VECTOR('',#740,1.);
#740 = DIRECTION('',(0.,0.,1.));
#741 = ORIENTED_EDGE('',*,*,#742,.T.);
#742 = EDGE_CURVE('',#735,#686,#743,.T.);
#743 = CIRCLE('',#744,0.6);
#744 = AXIS2_PLACEMENT_3D('',#745,#746,#747);
#745 = CARTESIAN_POINT('',(26.4,37.76,20.5));
#746 = DIRECTION('',(0.,0.,1.));
#747 = DIRECTION('',(1.,0.,0.));
#748 = CYLINDRICAL_SURFACE('',#749,0.6);
#749 = AXIS2_PLACEMENT_3D('',#750,#751,#752);
#750 = CARTESIAN_POINT('',(26.4,37.76,9.9));
#751 = DIRECTION('',(0.,0.,1.));
#752 = DIRECTION('',(0.,1.,0.));
#753 = ADVANCED_FACE('',(#754),#773,.T.);
#754 = FACE_BOUND('',#755,.T.);
#755 = EDGE_LOOP('',(#756,#757,#758,#766));
#756 = ORIENTED_EDGE('',*,*,#718,.F.);
#757 = ORIENTED_EDGE('',*,*,#203,.T.);
#758 = ORIENTED_EDGE('',*,*,#759,.T.);
#759 = EDGE_CURVE('',#196,#760,#762,.T.);
#760 = VERTEX_POINT('',#761);
#761 = CARTESIAN_POINT('',(16.6,27.36,20.5));
#762 = LINE('',#763,#764);
#763 = CARTESIAN_POINT('',(16.6,27.36,9.9));
#764 = VECTOR('',#765,1.);
#765 = DIRECTION('',(0.,0.,1.));
#766 = ORIENTED_EDGE('',*,*,#767,.F.);
#767 = EDGE_CURVE('',#711,#760,#768,.T.);
#768 = CIRCLE('',#769,0.6);
#769 = AXIS2_PLACEMENT_3D('',#770,#771,#772);
#770 = CARTESIAN_POINT('',(16.6,27.96,20.5));
#771 = DIRECTION('',(0.,0.,1.));
#772 = DIRECTION('',(-1.,0.,0.));
#773 = CYLINDRICAL_SURFACE('',#774,0.6);
#774 = AXIS2_PLACEMENT_3D('',#775,#776,#777);
#775 = CARTESIAN_POINT('',(16.6,27.96,9.9));
#776 = DIRECTION('',(0.,0.,1.));
#777 = DIRECTION('',(-1.,0.,0.));
#778 = ADVANCED_FACE('',(#779),#797,.F.);
#779 = FACE_BOUND('',#780,.F.);
#780 = EDGE_LOOP('',(#781,#782,#790,#796));
#781 = ORIENTED_EDGE('',*,*,#178,.T.);
#782 = ORIENTED_EDGE('',*,*,#783,.T.);
#783 = EDGE_CURVE('',#179,#784,#786,.T.);
#784 = VERTEX_POINT('',#785);
#785 = CARTESIAN_POINT('',(27.,27.96,20.5));
#786 = LINE('',#787,#788);
#787 = CARTESIAN_POINT('',(27.,27.96,9.9));
#788 = VECTOR('',#789,1.);
#789 = DIRECTION('',(0.,0.,1.));
#790 = ORIENTED_EDGE('',*,*,#791,.T.);
#791 = EDGE_CURVE('',#784,#735,#792,.T.);
#792 = LINE('',#793,#794);
#793 = CARTESIAN_POINT('',(27.,27.96,20.5));
#794 = VECTOR('',#795,1.);
#795 = DIRECTION('',(0.,1.,0.));
#796 = ORIENTED_EDGE('',*,*,#734,.F.);
#797 = PLANE('',#798);
#798 = AXIS2_PLACEMENT_3D('',#799,#800,#801);
#799 = CARTESIAN_POINT('',(27.,27.36,9.9));
#800 = DIRECTION('',(-1.,0.,0.));
#801 = DIRECTION('',(0.,1.,0.));
#802 = ADVANCED_FACE('',(#803),#821,.F.);
#803 = FACE_BOUND('',#804,.F.);
#804 = EDGE_LOOP('',(#805,#806,#807,#815));
#805 = ORIENTED_EDGE('',*,*,#195,.T.);
#806 = ORIENTED_EDGE('',*,*,#759,.T.);
#807 = ORIENTED_EDGE('',*,*,#808,.T.);
#808 = EDGE_CURVE('',#760,#809,#811,.T.);
#809 = VERTEX_POINT('',#810);
#810 = CARTESIAN_POINT('',(26.4,27.36,20.5));
#811 = LINE('',#812,#813);
#812 = CARTESIAN_POINT('',(16.6,27.36,20.5));
#813 = VECTOR('',#814,1.);
#814 = DIRECTION('',(1.,0.,0.));
#815 = ORIENTED_EDGE('',*,*,#816,.F.);
#816 = EDGE_CURVE('',#187,#809,#817,.T.);
#817 = LINE('',#818,#819);
#818 = CARTESIAN_POINT('',(26.4,27.36,9.9));
#819 = VECTOR('',#820,1.);
#820 = DIRECTION('',(0.,0.,1.));
#821 = PLANE('',#822);
#822 = AXIS2_PLACEMENT_3D('',#823,#824,#825);
#823 = CARTESIAN_POINT('',(16.,27.36,9.9));
#824 = DIRECTION('',(0.,1.,0.));
#825 = DIRECTION('',(1.,0.,0.));
#826 = ADVANCED_FACE('',(#827),#839,.T.);
#827 = FACE_BOUND('',#828,.T.);
#828 = EDGE_LOOP('',(#829,#830,#831,#832));
#829 = ORIENTED_EDGE('',*,*,#816,.F.);
#830 = ORIENTED_EDGE('',*,*,#186,.T.);
#831 = ORIENTED_EDGE('',*,*,#783,.T.);
#832 = ORIENTED_EDGE('',*,*,#833,.F.);
#833 = EDGE_CURVE('',#809,#784,#834,.T.);
#834 = CIRCLE('',#835,0.6);
#835 = AXIS2_PLACEMENT_3D('',#836,#837,#838);
#836 = CARTESIAN_POINT('',(26.4,27.96,20.5));
#837 = DIRECTION('',(-0.,0.,1.));
#838 = DIRECTION('',(0.,-1.,0.));
#839 = CYLINDRICAL_SURFACE('',#840,0.6);
#840 = AXIS2_PLACEMENT_3D('',#841,#842,#843);
#841 = CARTESIAN_POINT('',(26.4,27.96,9.9));
#842 = DIRECTION('',(0.,0.,1.));
#843 = DIRECTION('',(0.,-1.,0.));
#844 = ADVANCED_FACE('',(#845),#856,.F.);
#845 = FACE_BOUND('',#846,.F.);
#846 = EDGE_LOOP('',(#847,#848,#854,#855));
#847 = ORIENTED_EDGE('',*,*,#267,.T.);
#848 = ORIENTED_EDGE('',*,*,#849,.T.);
#849 = EDGE_CURVE('',#260,#284,#850,.T.);
#850 = LINE('',#851,#852);
#851 = CARTESIAN_POINT('',(43.,0.,0.));
#852 = VECTOR('',#853,1.);
#853 = DIRECTION('',(0.,1.,0.));
#854 = ORIENTED_EDGE('',*,*,#283,.T.);
#855 = ORIENTED_EDGE('',*,*,#275,.T.);
#856 = PLANE('',#857);
#857 = AXIS2_PLACEMENT_3D('',#858,#859,#860);
#858 = CARTESIAN_POINT('',(0.,0.,0.));
#859 = DIRECTION('',(0.,0.,1.));
#860 = DIRECTION('',(1.,0.,0.));
#861 = ADVANCED_FACE('',(#862),#887,.T.);
#862 = FACE_BOUND('',#863,.T.);
#863 = EDGE_LOOP('',(#864,#865,#873,#881));
#864 = ORIENTED_EDGE('',*,*,#349,.T.);
#865 = ORIENTED_EDGE('',*,*,#866,.T.);
#866 = EDGE_CURVE('',#352,#867,#869,.T.);
#867 = VERTEX_POINT('',#868);
#868 = CARTESIAN_POINT('',(23.718853503185,0.71008024746,3.705212085995)
  );
#869 = LINE('',#870,#871);
#870 = CARTESIAN_POINT('',(23.718853503185,1.461834344089,3.431595971335
    ));
#871 = VECTOR('',#872,1.);
#872 = DIRECTION('',(0.,-0.939692620786,0.342020143326));
#873 = ORIENTED_EDGE('',*,*,#874,.T.);
#874 = EDGE_CURVE('',#867,#875,#877,.T.);
#875 = VERTEX_POINT('',#876);
#876 = CARTESIAN_POINT('',(23.718853503185,1.094885585785,4.762456063929
    ));
#877 = LINE('',#878,#879);
#878 = CARTESIAN_POINT('',(23.718853503185,0.71008024746,3.705212085995)
  );
#879 = VECTOR('',#880,1.);
#880 = DIRECTION('',(0.,0.342020143326,0.939692620786));
#881 = ORIENTED_EDGE('',*,*,#882,.F.);
#882 = EDGE_CURVE('',#350,#875,#883,.T.);
#883 = LINE('',#884,#885);
#884 = CARTESIAN_POINT('',(23.718853503185,1.846639682414,4.488839949269
    ));
#885 = VECTOR('',#886,1.);
#886 = DIRECTION('',(0.,-0.939692620786,0.342020143326));
#887 = PLANE('',#888);
#888 = AXIS2_PLACEMENT_3D('',#889,#890,#891);
#889 = CARTESIAN_POINT('',(23.718853503185,1.461834344089,3.431595971335
    ));
#890 = DIRECTION('',(-1.,0.,0.));
#891 = DIRECTION('',(0.,0.342020143326,0.939692620786));
#892 = ADVANCED_FACE('',(#893),#911,.T.);
#893 = FACE_BOUND('',#894,.T.);
#894 = EDGE_LOOP('',(#895,#896,#904,#910));
#895 = ORIENTED_EDGE('',*,*,#431,.T.);
#896 = ORIENTED_EDGE('',*,*,#897,.T.);
#897 = EDGE_CURVE('',#424,#898,#900,.T.);
#898 = VERTEX_POINT('',#899);
#899 = CARTESIAN_POINT('',(24.758343949045,0.71008024746,3.705212085995)
  );
#900 = LINE('',#901,#902);
#901 = CARTESIAN_POINT('',(24.758343949045,1.461834344089,3.431595971335
    ));
#902 = VECTOR('',#903,1.);
#903 = DIRECTION('',(0.,-0.939692620786,0.342020143326));
#904 = ORIENTED_EDGE('',*,*,#905,.T.);
#905 = EDGE_CURVE('',#898,#867,#906,.T.);
#906 = LINE('',#907,#908);
#907 = CARTESIAN_POINT('',(24.758343949045,0.71008024746,3.705212085995)
  );
#908 = VECTOR('',#909,1.);
#909 = DIRECTION('',(-1.,0.,0.));
#910 = ORIENTED_EDGE('',*,*,#866,.F.);
#911 = PLANE('',#912);
#912 = AXIS2_PLACEMENT_3D('',#913,#914,#915);
#913 = CARTESIAN_POINT('',(24.758343949045,1.461834344089,3.431595971335
    ));
#914 = DIRECTION('',(0.,-0.342020143326,-0.939692620786));
#915 = DIRECTION('',(-1.,0.,0.));
#916 = ADVANCED_FACE('',(#917),#935,.T.);
#917 = FACE_BOUND('',#918,.T.);
#918 = EDGE_LOOP('',(#919,#920,#928,#934));
#919 = ORIENTED_EDGE('',*,*,#423,.T.);
#920 = ORIENTED_EDGE('',*,*,#921,.T.);
#921 = EDGE_CURVE('',#416,#922,#924,.T.);
#922 = VERTEX_POINT('',#923);
#923 = CARTESIAN_POINT('',(24.758343949045,1.094885585785,4.762456063929
    ));
#924 = LINE('',#925,#926);
#925 = CARTESIAN_POINT('',(24.758343949045,1.846639682414,4.488839949269
    ));
#926 = VECTOR('',#927,1.);
#927 = DIRECTION('',(0.,-0.939692620786,0.342020143326));
#928 = ORIENTED_EDGE('',*,*,#929,.T.);
#929 = EDGE_CURVE('',#922,#898,#930,.T.);
#930 = LINE('',#931,#932);
#931 = CARTESIAN_POINT('',(24.758343949045,1.094885585785,4.762456063929
    ));
#932 = VECTOR('',#933,1.);
#933 = DIRECTION('',(0.,-0.342020143326,-0.939692620786));
#934 = ORIENTED_EDGE('',*,*,#897,.F.);
#935 = PLANE('',#936);
#936 = AXIS2_PLACEMENT_3D('',#937,#938,#939);
#937 = CARTESIAN_POINT('',(24.758343949045,1.846639682414,4.488839949269
    ));
#938 = DIRECTION('',(1.,0.,0.));
#939 = DIRECTION('',(0.,-0.342020143326,-0.939692620786));
#940 = ADVANCED_FACE('',(#941),#959,.T.);
#941 = FACE_BOUND('',#942,.T.);
#942 = EDGE_LOOP('',(#943,#944,#952,#958));
#943 = ORIENTED_EDGE('',*,*,#415,.T.);
#944 = ORIENTED_EDGE('',*,*,#945,.T.);
#945 = EDGE_CURVE('',#408,#946,#948,.T.);
#946 = VERTEX_POINT('',#947);
#947 = CARTESIAN_POINT('',(25.453885350318,1.094885585785,4.762456063929
    ));
#948 = LINE('',#949,#950);
#949 = CARTESIAN_POINT('',(25.453885350318,1.846639682414,4.488839949269
    ));
#950 = VECTOR('',#951,1.);
#951 = DIRECTION('',(0.,-0.939692620786,0.342020143326));
#952 = ORIENTED_EDGE('',*,*,#953,.T.);
#953 = EDGE_CURVE('',#946,#922,#954,.T.);
#954 = LINE('',#955,#956);
#955 = CARTESIAN_POINT('',(25.453885350318,1.094885585785,4.762456063929
    ));
#956 = VECTOR('',#957,1.);
#957 = DIRECTION('',(-1.,0.,0.));
#958 = ORIENTED_EDGE('',*,*,#921,.F.);
#959 = PLANE('',#960);
#960 = AXIS2_PLACEMENT_3D('',#961,#962,#963);
#961 = CARTESIAN_POINT('',(25.453885350318,1.846639682414,4.488839949269
    ));
#962 = DIRECTION('',(0.,-0.342020143326,-0.939692620786));
#963 = DIRECTION('',(-1.,0.,0.));
#964 = ADVANCED_FACE('',(#965),#983,.T.);
#965 = FACE_BOUND('',#966,.T.);
#966 = EDGE_LOOP('',(#967,#968,#976,#982));
#967 = ORIENTED_EDGE('',*,*,#407,.T.);
#968 = ORIENTED_EDGE('',*,*,#969,.T.);
#969 = EDGE_CURVE('',#400,#970,#972,.T.);
#970 = VERTEX_POINT('',#971);
#971 = CARTESIAN_POINT('',(25.453885350318,1.418345145537,5.651153900453
    ));
#972 = LINE('',#973,#974);
#973 = CARTESIAN_POINT('',(25.453885350318,2.170099242166,5.377537785793
    ));
#974 = VECTOR('',#975,1.);
#975 = DIRECTION('',(0.,-0.939692620786,0.342020143326));
#976 = ORIENTED_EDGE('',*,*,#977,.T.);
#977 = EDGE_CURVE('',#970,#946,#978,.T.);
#978 = LINE('',#979,#980);
#979 = CARTESIAN_POINT('',(25.453885350318,1.418345145537,5.651153900453
    ));
#980 = VECTOR('',#981,1.);
#981 = DIRECTION('',(0.,-0.342020143326,-0.939692620786));
#982 = ORIENTED_EDGE('',*,*,#945,.F.);
#983 = PLANE('',#984);
#984 = AXIS2_PLACEMENT_3D('',#985,#986,#987);
#985 = CARTESIAN_POINT('',(25.453885350318,2.170099242166,5.377537785793
    ));
#986 = DIRECTION('',(1.,0.,0.));
#987 = DIRECTION('',(0.,-0.342020143326,-0.939692620786));
#988 = ADVANCED_FACE('',(#989),#1007,.T.);
#989 = FACE_BOUND('',#990,.T.);
#990 = EDGE_LOOP('',(#991,#992,#1000,#1006));
#991 = ORIENTED_EDGE('',*,*,#399,.T.);
#992 = ORIENTED_EDGE('',*,*,#993,.T.);
#993 = EDGE_CURVE('',#392,#994,#996,.T.);
#994 = VERTEX_POINT('',#995);
#995 = CARTESIAN_POINT('',(24.758343949045,1.418345145537,5.651153900453
    ));
#996 = LINE('',#997,#998);
#997 = CARTESIAN_POINT('',(24.758343949045,2.170099242166,5.377537785793
    ));
#998 = VECTOR('',#999,1.);
#999 = DIRECTION('',(0.,-0.939692620786,0.342020143326));
#1000 = ORIENTED_EDGE('',*,*,#1001,.T.);
#1001 = EDGE_CURVE('',#994,#970,#1002,.T.);
#1002 = LINE('',#1003,#1004);
#1003 = CARTESIAN_POINT('',(24.758343949045,1.418345145537,
    5.651153900453));
#1004 = VECTOR('',#1005,1.);
#1005 = DIRECTION('',(1.,0.,0.));
#1006 = ORIENTED_EDGE('',*,*,#969,.F.);
#1007 = PLANE('',#1008);
#1008 = AXIS2_PLACEMENT_3D('',#1009,#1010,#1011);
#1009 = CARTESIAN_POINT('',(24.758343949045,2.170099242166,
    5.377537785793));
#1010 = DIRECTION('',(0.,0.342020143326,0.939692620786));
#1011 = DIRECTION('',(1.,0.,0.));
#1012 = ADVANCED_FACE('',(#1013),#1031,.T.);
#1013 = FACE_BOUND('',#1014,.T.);
#1014 = EDGE_LOOP('',(#1015,#1016,#1024,#1030));
#1015 = ORIENTED_EDGE('',*,*,#391,.T.);
#1016 = ORIENTED_EDGE('',*,*,#1017,.T.);
#1017 = EDGE_CURVE('',#384,#1018,#1020,.T.);
#1018 = VERTEX_POINT('',#1019);
#1019 = CARTESIAN_POINT('',(24.758343949045,2.634106939086,
    8.991431975665));
#1020 = LINE('',#1021,#1022);
#1021 = CARTESIAN_POINT('',(24.758343949045,3.385861035715,
    8.717815861004));
#1022 = VECTOR('',#1023,1.);
#1023 = DIRECTION('',(0.,-0.939692620786,0.342020143326));
#1024 = ORIENTED_EDGE('',*,*,#1025,.T.);
#1025 = EDGE_CURVE('',#1018,#994,#1026,.T.);
#1026 = LINE('',#1027,#1028);
#1027 = CARTESIAN_POINT('',(24.758343949045,2.634106939086,
    8.991431975665));
#1028 = VECTOR('',#1029,1.);
#1029 = DIRECTION('',(0.,-0.342020143326,-0.939692620786));
#1030 = ORIENTED_EDGE('',*,*,#993,.F.);
#1031 = PLANE('',#1032);
#1032 = AXIS2_PLACEMENT_3D('',#1033,#1034,#1035);
#1033 = CARTESIAN_POINT('',(24.758343949045,3.385861035715,
    8.717815861004));
#1034 = DIRECTION('',(1.,0.,0.));
#1035 = DIRECTION('',(0.,-0.342020143326,-0.939692620786));
#1036 = ADVANCED_FACE('',(#1037),#1055,.T.);
#1037 = FACE_BOUND('',#1038,.T.);
#1038 = EDGE_LOOP('',(#1039,#1040,#1048,#1054));
#1039 = ORIENTED_EDGE('',*,*,#383,.T.);
#1040 = ORIENTED_EDGE('',*,*,#1041,.T.);
#1041 = EDGE_CURVE('',#376,#1042,#1044,.T.);
#1042 = VERTEX_POINT('',#1043);
#1043 = CARTESIAN_POINT('',(23.856433121019,2.634106939086,
    8.991431975665));
#1044 = LINE('',#1045,#1046);
#1045 = CARTESIAN_POINT('',(23.856433121019,3.385861035715,
    8.717815861004));
#1046 = VECTOR('',#1047,1.);
#1047 = DIRECTION('',(0.,-0.939692620786,0.342020143326));
#1048 = ORIENTED_EDGE('',*,*,#1049,.T.);
#1049 = EDGE_CURVE('',#1042,#1018,#1050,.T.);
#1050 = LINE('',#1051,#1052);
#1051 = CARTESIAN_POINT('',(23.856433121019,2.634106939086,
    8.991431975665));
#1052 = VECTOR('',#1053,1.);
#1053 = DIRECTION('',(1.,0.,0.));
#1054 = ORIENTED_EDGE('',*,*,#1017,.F.);
#1055 = PLANE('',#1056);
#1056 = AXIS2_PLACEMENT_3D('',#1057,#1058,#1059);
#1057 = CARTESIAN_POINT('',(23.856433121019,3.385861035715,
    8.717815861004));
#1058 = DIRECTION('',(0.,0.342020143326,0.939692620786));
#1059 = DIRECTION('',(1.,0.,0.));
#1060 = ADVANCED_FACE('',(#1061),#1079,.T.);
#1061 = FACE_BOUND('',#1062,.T.);
#1062 = EDGE_LOOP('',(#1063,#1064,#1072,#1078));
#1063 = ORIENTED_EDGE('',*,*,#375,.T.);
#1064 = ORIENTED_EDGE('',*,*,#1065,.T.);
#1065 = EDGE_CURVE('',#368,#1066,#1068,.T.);
#1066 = VERTEX_POINT('',#1067);
#1067 = CARTESIAN_POINT('',(21.425859872611,1.417038062187,
    5.647562718463));
#1068 = LINE('',#1069,#1070);
#1069 = CARTESIAN_POINT('',(21.425859872611,2.168792158815,
    5.373946603803));
#1070 = VECTOR('',#1071,1.);
#1071 = DIRECTION('',(0.,-0.939692620786,0.342020143326));
#1072 = ORIENTED_EDGE('',*,*,#1073,.T.);
#1073 = EDGE_CURVE('',#1066,#1042,#1074,.T.);
#1074 = LINE('',#1075,#1076);
#1075 = CARTESIAN_POINT('',(21.425859872611,1.417038062187,
    5.647562718463));
#1076 = VECTOR('',#1077,1.);
#1077 = DIRECTION('',(0.564024580147,0.282425869186,0.77595869826));
#1078 = ORIENTED_EDGE('',*,*,#1041,.F.);
#1079 = PLANE('',#1080);
#1080 = AXIS2_PLACEMENT_3D('',#1081,#1082,#1083);
#1081 = CARTESIAN_POINT('',(21.425859872611,2.168792158815,
    5.373946603803));
#1082 = DIRECTION('',(-0.825757999047,0.192907767741,0.530009735906));
#1083 = DIRECTION('',(0.564024580147,0.282425869186,0.77595869826));
#1084 = ADVANCED_FACE('',(#1085),#1103,.T.);
#1085 = FACE_BOUND('',#1086,.T.);
#1086 = EDGE_LOOP('',(#1087,#1088,#1096,#1102));
#1087 = ORIENTED_EDGE('',*,*,#367,.T.);
#1088 = ORIENTED_EDGE('',*,*,#1089,.T.);
#1089 = EDGE_CURVE('',#360,#1090,#1092,.T.);
#1090 = VERTEX_POINT('',#1091);
#1091 = CARTESIAN_POINT('',(21.425859872611,1.094885585785,
    4.762456063929));
#1092 = LINE('',#1093,#1094);
#1093 = CARTESIAN_POINT('',(21.425859872611,1.846639682414,
    4.488839949269));
#1094 = VECTOR('',#1095,1.);
#1095 = DIRECTION('',(0.,-0.939692620786,0.342020143326));
#1096 = ORIENTED_EDGE('',*,*,#1097,.T.);
#1097 = EDGE_CURVE('',#1090,#1066,#1098,.T.);
#1098 = LINE('',#1099,#1100);
#1099 = CARTESIAN_POINT('',(21.425859872611,1.094885585785,
    4.762456063929));
#1100 = VECTOR('',#1101,1.);
#1101 = DIRECTION('',(0.,0.342020143326,0.939692620786));
#1102 = ORIENTED_EDGE('',*,*,#1065,.F.);
#1103 = PLANE('',#1104);
#1104 = AXIS2_PLACEMENT_3D('',#1105,#1106,#1107);
#1105 = CARTESIAN_POINT('',(21.425859872611,1.846639682414,
    4.488839949269));
#1106 = DIRECTION('',(-1.,0.,0.));
#1107 = DIRECTION('',(0.,0.342020143326,0.939692620786));
#1108 = ADVANCED_FACE('',(#1109),#1120,.T.);
#1109 = FACE_BOUND('',#1110,.T.);
#1110 = EDGE_LOOP('',(#1111,#1112,#1113,#1119));
#1111 = ORIENTED_EDGE('',*,*,#359,.T.);
#1112 = ORIENTED_EDGE('',*,*,#882,.T.);
#1113 = ORIENTED_EDGE('',*,*,#1114,.T.);
#1114 = EDGE_CURVE('',#875,#1090,#1115,.T.);
#1115 = LINE('',#1116,#1117);
#1116 = CARTESIAN_POINT('',(23.718853503185,1.094885585785,
    4.762456063929));
#1117 = VECTOR('',#1118,1.);
#1118 = DIRECTION('',(-1.,0.,0.));
#1119 = ORIENTED_EDGE('',*,*,#1089,.F.);
#1120 = PLANE('',#1121);
#1121 = AXIS2_PLACEMENT_3D('',#1122,#1123,#1124);
#1122 = CARTESIAN_POINT('',(23.718853503185,1.846639682414,
    4.488839949269));
#1123 = DIRECTION('',(0.,-0.342020143326,-0.939692620786));
#1124 = DIRECTION('',(-1.,0.,0.));
#1125 = ADVANCED_FACE('',(#1126),#1151,.T.);
#1126 = FACE_BOUND('',#1127,.T.);
#1127 = EDGE_LOOP('',(#1128,#1129,#1137,#1145));
#1128 = ORIENTED_EDGE('',*,*,#439,.T.);
#1129 = ORIENTED_EDGE('',*,*,#1130,.T.);
#1130 = EDGE_CURVE('',#442,#1131,#1133,.T.);
#1131 = VERTEX_POINT('',#1132);
#1132 = CARTESIAN_POINT('',(20.007261146497,0.71008024746,3.705212085995
    ));
#1133 = LINE('',#1134,#1135);
#1134 = CARTESIAN_POINT('',(20.007261146497,1.461834344089,
    3.431595971335));
#1135 = VECTOR('',#1136,1.);
#1136 = DIRECTION('',(0.,-0.939692620786,0.342020143326));
#1137 = ORIENTED_EDGE('',*,*,#1138,.T.);
#1138 = EDGE_CURVE('',#1131,#1139,#1141,.T.);
#1139 = VERTEX_POINT('',#1140);
#1140 = CARTESIAN_POINT('',(18.933375796178,0.71008024746,3.705212085995
    ));
#1141 = LINE('',#1142,#1143);
#1142 = CARTESIAN_POINT('',(20.007261146497,0.71008024746,3.705212085995
    ));
#1143 = VECTOR('',#1144,1.);
#1144 = DIRECTION('',(-1.,0.,0.));
#1145 = ORIENTED_EDGE('',*,*,#1146,.F.);
#1146 = EDGE_CURVE('',#440,#1139,#1147,.T.);
#1147 = LINE('',#1148,#1149);
#1148 = CARTESIAN_POINT('',(18.933375796178,1.461834344089,
    3.431595971335));
#1149 = VECTOR('',#1150,1.);
#1150 = DIRECTION('',(0.,-0.939692620786,0.342020143326));
#1151 = PLANE('',#1152);
#1152 = AXIS2_PLACEMENT_3D('',#1153,#1154,#1155);
#1153 = CARTESIAN_POINT('',(20.007261146497,1.461834344089,
    3.431595971335));
#1154 = DIRECTION('',(0.,-0.342020143326,-0.939692620786));
#1155 = DIRECTION('',(-1.,0.,0.));
#1156 = ADVANCED_FACE('',(#1157),#1175,.T.);
#1157 = FACE_BOUND('',#1158,.T.);
#1158 = EDGE_LOOP('',(#1159,#1160,#1168,#1174));
#1159 = ORIENTED_EDGE('',*,*,#519,.T.);
#1160 = ORIENTED_EDGE('',*,*,#1161,.T.);
#1161 = EDGE_CURVE('',#512,#1162,#1164,.T.);
#1162 = VERTEX_POINT('',#1163);
#1163 = CARTESIAN_POINT('',(20.007261146497,2.639683828047,
    9.006754352157));
#1164 = LINE('',#1165,#1166);
#1165 = CARTESIAN_POINT('',(20.007261146497,3.391437924676,
    8.733138237496));
#1166 = VECTOR('',#1167,1.);
#1167 = DIRECTION('',(0.,-0.939692620786,0.342020143326));
#1168 = ORIENTED_EDGE('',*,*,#1169,.T.);
#1169 = EDGE_CURVE('',#1162,#1131,#1170,.T.);
#1170 = LINE('',#1171,#1172);
#1171 = CARTESIAN_POINT('',(20.007261146497,2.639683828047,
    9.006754352157));
#1172 = VECTOR('',#1173,1.);
#1173 = DIRECTION('',(0.,-0.342020143326,-0.939692620786));
#1174 = ORIENTED_EDGE('',*,*,#1130,.F.);
#1175 = PLANE('',#1176);
#1176 = AXIS2_PLACEMENT_3D('',#1177,#1178,#1179);
#1177 = CARTESIAN_POINT('',(20.007261146497,3.391437924676,
    8.733138237496));
#1178 = DIRECTION('',(1.,0.,0.));
#1179 = DIRECTION('',(0.,-0.342020143326,-0.939692620786));
#1180 = ADVANCED_FACE('',(#1181),#1199,.T.);
#1181 = FACE_BOUND('',#1182,.T.);
#1182 = EDGE_LOOP('',(#1183,#1184,#1192,#1198));
#1183 = ORIENTED_EDGE('',*,*,#511,.T.);
#1184 = ORIENTED_EDGE('',*,*,#1185,.T.);
#1185 = EDGE_CURVE('',#493,#1186,#1188,.T.);
#1186 = VERTEX_POINT('',#1187);
#1187 = CARTESIAN_POINT('',(19.135923566879,2.639683828047,
    9.006754352157));
#1188 = LINE('',#1189,#1190);
#1189 = CARTESIAN_POINT('',(19.135923566879,3.391437924676,
    8.733138237496));
#1190 = VECTOR('',#1191,1.);
#1191 = DIRECTION('',(0.,-0.939692620786,0.342020143326));
#1192 = ORIENTED_EDGE('',*,*,#1193,.T.);
#1193 = EDGE_CURVE('',#1186,#1162,#1194,.T.);
#1194 = LINE('',#1195,#1196);
#1195 = CARTESIAN_POINT('',(19.135923566879,2.639683828047,
    9.006754352157));
#1196 = VECTOR('',#1197,1.);
#1197 = DIRECTION('',(1.,0.,0.));
#1198 = ORIENTED_EDGE('',*,*,#1161,.F.);
#1199 = PLANE('',#1200);
#1200 = AXIS2_PLACEMENT_3D('',#1201,#1202,#1203);
#1201 = CARTESIAN_POINT('',(19.135923566879,3.391437924676,
    8.733138237496));
#1202 = DIRECTION('',(0.,0.342020143326,0.939692620786));
#1203 = DIRECTION('',(1.,0.,0.));
#1204 = ADVANCED_FACE('',(#1205),#1223,.T.);
#1205 = FACE_BOUND('',#1206,.T.);
#1206 = EDGE_LOOP('',(#1207,#1208,#1216,#1222));
#1207 = ORIENTED_EDGE('',*,*,#492,.T.);
#1208 = ORIENTED_EDGE('',*,*,#1209,.T.);
#1209 = EDGE_CURVE('',#481,#1210,#1212,.T.);
#1210 = VERTEX_POINT('',#1211);
#1211 = CARTESIAN_POINT('',(18.45949044586,2.332954935179,8.164023645108
    ));
#1212 = LINE('',#1213,#1214);
#1213 = CARTESIAN_POINT('',(18.45949044586,3.084709031808,7.890407530447
    ));
#1214 = VECTOR('',#1215,1.);
#1215 = DIRECTION('',(0.,-0.939692620786,0.342020143326));
#1216 = ORIENTED_EDGE('',*,*,#1217,.T.);
#1217 = EDGE_CURVE('',#1210,#1186,#1218,.T.);
#1218 = B_SPLINE_CURVE_WITH_KNOTS('',2,(#1219,#1220,#1221),
  .UNSPECIFIED.,.F.,.F.,(3,3),(0.,1.),.PIECEWISE_BEZIER_KNOTS.);
#1219 = CARTESIAN_POINT('',(18.45949044586,2.332954935179,8.164023645108
    ));
#1220 = CARTESIAN_POINT('',(18.952484076433,2.464447520218,
    8.525296553329));
#1221 = CARTESIAN_POINT('',(19.135923566879,2.639683828047,
    9.006754352157));
#1222 = ORIENTED_EDGE('',*,*,#1185,.F.);
#1223 = SURFACE_OF_LINEAR_EXTRUSION('',#1224,#1228);
#1224 = B_SPLINE_CURVE_WITH_KNOTS('',2,(#1225,#1226,#1227),
  .UNSPECIFIED.,.F.,.F.,(3,3),(0.,1.),.PIECEWISE_BEZIER_KNOTS.);
#1225 = CARTESIAN_POINT('',(18.45949044586,3.084709031808,7.890407530447
    ));
#1226 = CARTESIAN_POINT('',(18.952484076433,3.216201616847,
    8.251680438668));
#1227 = CARTESIAN_POINT('',(19.135923566879,3.391437924676,
    8.733138237496));
#1228 = VECTOR('',#1229,1.);
#1229 = DIRECTION('',(-0.,0.939692620786,-0.342020143326));
#1230 = ADVANCED_FACE('',(#1231),#1249,.T.);
#1231 = FACE_BOUND('',#1232,.T.);
#1232 = EDGE_LOOP('',(#1233,#1234,#1242,#1248));
#1233 = ORIENTED_EDGE('',*,*,#480,.T.);
#1234 = ORIENTED_EDGE('',*,*,#1235,.T.);
#1235 = EDGE_CURVE('',#473,#1236,#1238,.T.);
#1236 = VERTEX_POINT('',#1237);
#1237 = CARTESIAN_POINT('',(17.546114649682,2.15449448842,7.67370759737)
  );
#1238 = LINE('',#1239,#1240);
#1239 = CARTESIAN_POINT('',(17.546114649682,2.906248585048,7.40009148271
    ));
#1240 = VECTOR('',#1241,1.);
#1241 = DIRECTION('',(0.,-0.939692620786,0.342020143326));
#1242 = ORIENTED_EDGE('',*,*,#1243,.T.);
#1243 = EDGE_CURVE('',#1236,#1210,#1244,.T.);
#1244 = B_SPLINE_CURVE_WITH_KNOTS('',2,(#1245,#1246,#1247),
  .UNSPECIFIED.,.F.,.F.,(3,3),(0.,1.),.PIECEWISE_BEZIER_KNOTS.);
#1245 = CARTESIAN_POINT('',(17.546114649682,2.15449448842,7.67370759737)
  );
#1246 = CARTESIAN_POINT('',(17.966496815287,2.20154948903,7.80299014902)
  );
#1247 = CARTESIAN_POINT('',(18.45949044586,2.332954935179,8.164023645108
    ));
#1248 = ORIENTED_EDGE('',*,*,#1209,.F.);
#1249 = SURFACE_OF_LINEAR_EXTRUSION('',#1250,#1254);
#1250 = B_SPLINE_CURVE_WITH_KNOTS('',2,(#1251,#1252,#1253),
  .UNSPECIFIED.,.F.,.F.,(3,3),(0.,1.),.PIECEWISE_BEZIER_KNOTS.);
#1251 = CARTESIAN_POINT('',(17.546114649682,2.906248585048,7.40009148271
    ));
#1252 = CARTESIAN_POINT('',(17.966496815287,2.953303585659,
    7.529374034359));
#1253 = CARTESIAN_POINT('',(18.45949044586,3.084709031808,7.890407530447
    ));
#1254 = VECTOR('',#1255,1.);
#1255 = DIRECTION('',(-0.,0.939692620786,-0.342020143326));
#1256 = ADVANCED_FACE('',(#1257),#1275,.T.);
#1257 = FACE_BOUND('',#1258,.T.);
#1258 = EDGE_LOOP('',(#1259,#1260,#1268,#1274));
#1259 = ORIENTED_EDGE('',*,*,#472,.T.);
#1260 = ORIENTED_EDGE('',*,*,#1261,.T.);
#1261 = EDGE_CURVE('',#458,#1262,#1264,.T.);
#1262 = VERTEX_POINT('',#1263);
#1263 = CARTESIAN_POINT('',(17.546114649682,1.819881150746,
    6.754365007863));
#1264 = LINE('',#1265,#1266);
#1265 = CARTESIAN_POINT('',(17.546114649682,2.571635247374,
    6.480748893202));
#1266 = VECTOR('',#1267,1.);
#1267 = DIRECTION('',(0.,-0.939692620786,0.342020143326));
#1268 = ORIENTED_EDGE('',*,*,#1269,.T.);
#1269 = EDGE_CURVE('',#1262,#1236,#1270,.T.);
#1270 = LINE('',#1271,#1272);
#1271 = CARTESIAN_POINT('',(17.546114649682,1.819881150746,
    6.754365007863));
#1272 = VECTOR('',#1273,1.);
#1273 = DIRECTION('',(0.,0.342020143326,0.939692620786));
#1274 = ORIENTED_EDGE('',*,*,#1235,.F.);
#1275 = PLANE('',#1276);
#1276 = AXIS2_PLACEMENT_3D('',#1277,#1278,#1279);
#1277 = CARTESIAN_POINT('',(17.546114649682,2.571635247374,
    6.480748893202));
#1278 = DIRECTION('',(-1.,0.,0.));
#1279 = DIRECTION('',(0.,0.342020143326,0.939692620786));
#1280 = ADVANCED_FACE('',(#1281),#1299,.T.);
#1281 = FACE_BOUND('',#1282,.T.);
#1282 = EDGE_LOOP('',(#1283,#1284,#1292,#1298));
#1283 = ORIENTED_EDGE('',*,*,#457,.T.);
#1284 = ORIENTED_EDGE('',*,*,#1285,.T.);
#1285 = EDGE_CURVE('',#450,#1286,#1288,.T.);
#1286 = VERTEX_POINT('',#1287);
#1287 = CARTESIAN_POINT('',(18.933375796178,2.099422709928,
    7.522399129514));
#1288 = LINE('',#1289,#1290);
#1289 = CARTESIAN_POINT('',(18.933375796178,2.851176806556,
    7.248783014853));
#1290 = VECTOR('',#1291,1.);
#1291 = DIRECTION('',(0.,-0.939692620786,0.342020143326));
#1292 = ORIENTED_EDGE('',*,*,#1293,.T.);
#1293 = EDGE_CURVE('',#1286,#1262,#1294,.T.);
#1294 = B_SPLINE_CURVE_WITH_KNOTS('',2,(#1295,#1296,#1297),
  .UNSPECIFIED.,.F.,.F.,(3,3),(0.,1.),.PIECEWISE_BEZIER_KNOTS.);
#1295 = CARTESIAN_POINT('',(18.933375796178,2.099422709928,
    7.522399129514));
#1296 = CARTESIAN_POINT('',(18.344840764331,1.910418457476,
    7.003114213722));
#1297 = CARTESIAN_POINT('',(17.546114649682,1.819881150746,
    6.754365007863));
#1298 = ORIENTED_EDGE('',*,*,#1261,.F.);
#1299 = SURFACE_OF_LINEAR_EXTRUSION('',#1300,#1304);
#1300 = B_SPLINE_CURVE_WITH_KNOTS('',2,(#1301,#1302,#1303),
  .UNSPECIFIED.,.F.,.F.,(3,3),(0.,1.),.PIECEWISE_BEZIER_KNOTS.);
#1301 = CARTESIAN_POINT('',(18.933375796178,2.851176806556,
    7.248783014853));
#1302 = CARTESIAN_POINT('',(18.344840764331,2.662172554104,
    6.729498099061));
#1303 = CARTESIAN_POINT('',(17.546114649682,2.571635247374,
    6.480748893202));
#1304 = VECTOR('',#1305,1.);
#1305 = DIRECTION('',(-0.,0.939692620786,-0.342020143326));
#1306 = ADVANCED_FACE('',(#1307),#1318,.T.);
#1307 = FACE_BOUND('',#1308,.T.);
#1308 = EDGE_LOOP('',(#1309,#1310,#1311,#1317));
#1309 = ORIENTED_EDGE('',*,*,#449,.T.);
#1310 = ORIENTED_EDGE('',*,*,#1146,.T.);
#1311 = ORIENTED_EDGE('',*,*,#1312,.T.);
#1312 = EDGE_CURVE('',#1139,#1286,#1313,.T.);
#1313 = LINE('',#1314,#1315);
#1314 = CARTESIAN_POINT('',(18.933375796178,0.71008024746,3.705212085995
    ));
#1315 = VECTOR('',#1316,1.);
#1316 = DIRECTION('',(0.,0.342020143326,0.939692620786));
#1317 = ORIENTED_EDGE('',*,*,#1285,.F.);
#1318 = PLANE('',#1319);
#1319 = AXIS2_PLACEMENT_3D('',#1320,#1321,#1322);
#1320 = CARTESIAN_POINT('',(18.933375796178,1.461834344089,
    3.431595971335));
#1321 = DIRECTION('',(-1.,0.,0.));
#1322 = DIRECTION('',(0.,0.342020143326,0.939692620786));
#1323 = ADVANCED_FACE('',(#1324),#1349,.F.);
#1324 = FACE_BOUND('',#1325,.F.);
#1325 = EDGE_LOOP('',(#1326,#1334,#1342,#1348));
#1326 = ORIENTED_EDGE('',*,*,#1327,.F.);
#1327 = EDGE_CURVE('',#1328,#284,#1330,.T.);
#1328 = VERTEX_POINT('',#1329);
#1329 = CARTESIAN_POINT('',(47.,18.9,0.));
#1330 = LINE('',#1331,#1332);
#1331 = CARTESIAN_POINT('',(47.,18.9,0.));
#1332 = VECTOR('',#1333,1.);
#1333 = DIRECTION('',(-0.971520338783,-0.236956180191,0.));
#1334 = ORIENTED_EDGE('',*,*,#1335,.T.);
#1335 = EDGE_CURVE('',#1328,#1336,#1338,.T.);
#1336 = VERTEX_POINT('',#1337);
#1337 = CARTESIAN_POINT('',(47.,18.9,10.));
#1338 = LINE('',#1339,#1340);
#1339 = CARTESIAN_POINT('',(47.,18.9,0.));
#1340 = VECTOR('',#1341,1.);
#1341 = DIRECTION('',(0.,0.,1.));
#1342 = ORIENTED_EDGE('',*,*,#1343,.T.);
#1343 = EDGE_CURVE('',#1336,#95,#1344,.T.);
#1344 = LINE('',#1345,#1346);
#1345 = CARTESIAN_POINT('',(47.,18.9,10.));
#1346 = VECTOR('',#1347,1.);
#1347 = DIRECTION('',(-0.971520338783,-0.236956180191,0.));
#1348 = ORIENTED_EDGE('',*,*,#602,.T.);
#1349 = PLANE('',#1350);
#1350 = AXIS2_PLACEMENT_3D('',#1351,#1352,#1353);
#1351 = CARTESIAN_POINT('',(47.,18.9,0.));
#1352 = DIRECTION('',(0.236956180191,-0.971520338783,0.));
#1353 = DIRECTION('',(-0.971520338783,-0.236956180191,0.));
#1354 = ADVANCED_FACE('',(#1355),#1373,.T.);
#1355 = FACE_BOUND('',#1356,.T.);
#1356 = EDGE_LOOP('',(#1357,#1358,#1366,#1372));
#1357 = ORIENTED_EDGE('',*,*,#619,.F.);
#1358 = ORIENTED_EDGE('',*,*,#1359,.T.);
#1359 = EDGE_CURVE('',#71,#1360,#1362,.T.);
#1360 = VERTEX_POINT('',#1361);
#1361 = CARTESIAN_POINT('',(47.,12.9,10.));
#1362 = LINE('',#1363,#1364);
#1363 = CARTESIAN_POINT('',(42.9,13.9,10.));
#1364 = VECTOR('',#1365,1.);
#1365 = DIRECTION('',(0.971520338783,-0.236956180191,0.));
#1366 = ORIENTED_EDGE('',*,*,#1367,.T.);
#1367 = EDGE_CURVE('',#1360,#1336,#1368,.T.);
#1368 = LINE('',#1369,#1370);
#1369 = CARTESIAN_POINT('',(47.,12.9,10.));
#1370 = VECTOR('',#1371,1.);
#1371 = DIRECTION('',(0.,1.,0.));
#1372 = ORIENTED_EDGE('',*,*,#1343,.T.);
#1373 = PLANE('',#1374);
#1374 = AXIS2_PLACEMENT_3D('',#1375,#1376,#1377);
#1375 = CARTESIAN_POINT('',(45.172338161771,15.9,10.));
#1376 = DIRECTION('',(0.,0.,1.));
#1377 = DIRECTION('',(1.,0.,0.));
#1378 = ADVANCED_FACE('',(#1379),#1397,.F.);
#1379 = FACE_BOUND('',#1380,.F.);
#1380 = EDGE_LOOP('',(#1381,#1389,#1390,#1391));
#1381 = ORIENTED_EDGE('',*,*,#1382,.F.);
#1382 = EDGE_CURVE('',#260,#1383,#1385,.T.);
#1383 = VERTEX_POINT('',#1384);
#1384 = CARTESIAN_POINT('',(47.,12.9,0.));
#1385 = LINE('',#1386,#1387);
#1386 = CARTESIAN_POINT('',(42.9,13.9,0.));
#1387 = VECTOR('',#1388,1.);
#1388 = DIRECTION('',(0.971520338783,-0.236956180191,0.));
#1389 = ORIENTED_EDGE('',*,*,#638,.T.);
#1390 = ORIENTED_EDGE('',*,*,#1359,.T.);
#1391 = ORIENTED_EDGE('',*,*,#1392,.F.);
#1392 = EDGE_CURVE('',#1383,#1360,#1393,.T.);
#1393 = LINE('',#1394,#1395);
#1394 = CARTESIAN_POINT('',(47.,12.9,0.));
#1395 = VECTOR('',#1396,1.);
#1396 = DIRECTION('',(0.,0.,1.));
#1397 = PLANE('',#1398);
#1398 = AXIS2_PLACEMENT_3D('',#1399,#1400,#1401);
#1399 = CARTESIAN_POINT('',(42.9,13.9,0.));
#1400 = DIRECTION('',(0.236956180191,0.971520338783,0.));
#1401 = DIRECTION('',(0.971520338783,-0.236956180191,0.));
#1402 = ADVANCED_FACE('',(#1403),#1429,.T.);
#1403 = FACE_BOUND('',#1404,.T.);
#1404 = EDGE_LOOP('',(#1405,#1413,#1414,#1422));
#1405 = ORIENTED_EDGE('',*,*,#1406,.F.);
#1406 = EDGE_CURVE('',#653,#1407,#1409,.T.);
#1407 = VERTEX_POINT('',#1408);
#1408 = CARTESIAN_POINT('',(16.6,37.86,21.));
#1409 = LINE('',#1410,#1411);
#1410 = CARTESIAN_POINT('',(16.6,38.11,20.75));
#1411 = VECTOR('',#1412,1.);
#1412 = DIRECTION('',(-2.90882763039E-35,-0.707106781187,0.707106781187)
  );
#1413 = ORIENTED_EDGE('',*,*,#669,.T.);
#1414 = ORIENTED_EDGE('',*,*,#1415,.T.);
#1415 = EDGE_CURVE('',#662,#1416,#1418,.T.);
#1416 = VERTEX_POINT('',#1417);
#1417 = CARTESIAN_POINT('',(16.5,37.76,21.));
#1418 = LINE('',#1419,#1420);
#1419 = CARTESIAN_POINT('',(16.,37.76,20.5));
#1420 = VECTOR('',#1421,1.);
#1421 = DIRECTION('',(0.707106781187,-4.329780281177E-17,0.707106781187)
  );
#1422 = ORIENTED_EDGE('',*,*,#1423,.F.);
#1423 = EDGE_CURVE('',#1407,#1416,#1424,.T.);
#1424 = CIRCLE('',#1425,1.E-01);
#1425 = AXIS2_PLACEMENT_3D('',#1426,#1427,#1428);
#1426 = CARTESIAN_POINT('',(16.6,37.76,21.));
#1427 = DIRECTION('',(0.,-0.,1.));
#1428 = DIRECTION('',(0.,1.,0.));
#1429 = CONICAL_SURFACE('',#1430,0.6,0.785398163397);
#1430 = AXIS2_PLACEMENT_3D('',#1431,#1432,#1433);
#1431 = CARTESIAN_POINT('',(16.6,37.76,20.5));
#1432 = DIRECTION('',(-0.,-0.,-1.));
#1433 = DIRECTION('',(0.,1.,0.));
#1434 = ADVANCED_FACE('',(#1435),#1453,.F.);
#1435 = FACE_BOUND('',#1436,.T.);
#1436 = EDGE_LOOP('',(#1437,#1445,#1446,#1447));
#1437 = ORIENTED_EDGE('',*,*,#1438,.F.);
#1438 = EDGE_CURVE('',#686,#1439,#1441,.T.);
#1439 = VERTEX_POINT('',#1440);
#1440 = CARTESIAN_POINT('',(26.4,37.86,21.));
#1441 = LINE('',#1442,#1443);
#1442 = CARTESIAN_POINT('',(26.4,38.11,20.75));
#1443 = VECTOR('',#1444,1.);
#1444 = DIRECTION('',(-2.90882763039E-35,-0.707106781187,0.707106781187)
  );
#1445 = ORIENTED_EDGE('',*,*,#693,.T.);
#1446 = ORIENTED_EDGE('',*,*,#1406,.T.);
#1447 = ORIENTED_EDGE('',*,*,#1448,.F.);
#1448 = EDGE_CURVE('',#1439,#1407,#1449,.T.);
#1449 = LINE('',#1450,#1451);
#1450 = CARTESIAN_POINT('',(26.4,37.86,21.));
#1451 = VECTOR('',#1452,1.);
#1452 = DIRECTION('',(-1.,0.,0.));
#1453 = PLANE('',#1454);
#1454 = AXIS2_PLACEMENT_3D('',#1455,#1456,#1457);
#1455 = CARTESIAN_POINT('',(26.4,38.11,20.75));
#1456 = DIRECTION('',(-1.889513820523E-18,-0.707106781187,
    -0.707106781187));
#1457 = DIRECTION('',(1.,-1.336088035637E-18,-1.336088035637E-18));
#1458 = ADVANCED_FACE('',(#1459),#1477,.F.);
#1459 = FACE_BOUND('',#1460,.T.);
#1460 = EDGE_LOOP('',(#1461,#1462,#1463,#1471));
#1461 = ORIENTED_EDGE('',*,*,#1415,.F.);
#1462 = ORIENTED_EDGE('',*,*,#710,.T.);
#1463 = ORIENTED_EDGE('',*,*,#1464,.T.);
#1464 = EDGE_CURVE('',#711,#1465,#1467,.T.);
#1465 = VERTEX_POINT('',#1466);
#1466 = CARTESIAN_POINT('',(16.5,27.96,21.));
#1467 = LINE('',#1468,#1469);
#1468 = CARTESIAN_POINT('',(16.25,27.96,20.75));
#1469 = VECTOR('',#1470,1.);
#1470 = DIRECTION('',(0.707106781187,-2.90882763039E-35,0.707106781187)
  );
#1471 = ORIENTED_EDGE('',*,*,#1472,.F.);
#1472 = EDGE_CURVE('',#1416,#1465,#1473,.T.);
#1473 = LINE('',#1474,#1475);
#1474 = CARTESIAN_POINT('',(16.5,37.76,21.));
#1475 = VECTOR('',#1476,1.);
#1476 = DIRECTION('',(0.,-1.,0.));
#1477 = PLANE('',#1478);
#1478 = AXIS2_PLACEMENT_3D('',#1479,#1480,#1481);
#1479 = CARTESIAN_POINT('',(16.25,37.76,20.75));
#1480 = DIRECTION('',(0.707106781187,1.889513820523E-18,-0.707106781187)
  );
#1481 = DIRECTION('',(-1.336088035637E-18,1.,1.336088035637E-18));
#1482 = ADVANCED_FACE('',(#1483),#1502,.T.);
#1483 = FACE_BOUND('',#1484,.T.);
#1484 = EDGE_LOOP('',(#1485,#1493,#1494,#1495));
#1485 = ORIENTED_EDGE('',*,*,#1486,.F.);
#1486 = EDGE_CURVE('',#735,#1487,#1489,.T.);
#1487 = VERTEX_POINT('',#1488);
#1488 = CARTESIAN_POINT('',(26.5,37.76,21.));
#1489 = LINE('',#1490,#1491);
#1490 = CARTESIAN_POINT('',(26.75,37.76,20.75));
#1491 = VECTOR('',#1492,1.);
#1492 = DIRECTION('',(-0.707106781187,2.90882763039E-35,0.707106781187)
  );
#1493 = ORIENTED_EDGE('',*,*,#742,.T.);
#1494 = ORIENTED_EDGE('',*,*,#1438,.T.);
#1495 = ORIENTED_EDGE('',*,*,#1496,.F.);
#1496 = EDGE_CURVE('',#1487,#1439,#1497,.T.);
#1497 = CIRCLE('',#1498,1.E-01);
#1498 = AXIS2_PLACEMENT_3D('',#1499,#1500,#1501);
#1499 = CARTESIAN_POINT('',(26.4,37.76,21.));
#1500 = DIRECTION('',(0.,0.,1.));
#1501 = DIRECTION('',(1.,0.,0.));
#1502 = CONICAL_SURFACE('',#1503,0.6,0.785398163397);
#1503 = AXIS2_PLACEMENT_3D('',#1504,#1505,#1506);
#1504 = CARTESIAN_POINT('',(26.4,37.76,20.5));
#1505 = DIRECTION('',(-0.,-0.,-1.));
#1506 = DIRECTION('',(1.,0.,0.));
#1507 = ADVANCED_FACE('',(#1508),#1527,.T.);
#1508 = FACE_BOUND('',#1509,.T.);
#1509 = EDGE_LOOP('',(#1510,#1511,#1512,#1520));
#1510 = ORIENTED_EDGE('',*,*,#1464,.F.);
#1511 = ORIENTED_EDGE('',*,*,#767,.T.);
#1512 = ORIENTED_EDGE('',*,*,#1513,.T.);
#1513 = EDGE_CURVE('',#760,#1514,#1516,.T.);
#1514 = VERTEX_POINT('',#1515);
#1515 = CARTESIAN_POINT('',(16.6,27.86,21.));
#1516 = LINE('',#1517,#1518);
#1517 = CARTESIAN_POINT('',(16.6,27.36,20.5));
#1518 = VECTOR('',#1519,1.);
#1519 = DIRECTION('',(4.329780281177E-17,0.707106781187,0.707106781187)
  );
#1520 = ORIENTED_EDGE('',*,*,#1521,.F.);
#1521 = EDGE_CURVE('',#1465,#1514,#1522,.T.);
#1522 = CIRCLE('',#1523,1.E-01);
#1523 = AXIS2_PLACEMENT_3D('',#1524,#1525,#1526);
#1524 = CARTESIAN_POINT('',(16.6,27.96,21.));
#1525 = DIRECTION('',(0.,0.,1.));
#1526 = DIRECTION('',(-1.,0.,0.));
#1527 = CONICAL_SURFACE('',#1528,0.6,0.785398163397);
#1528 = AXIS2_PLACEMENT_3D('',#1529,#1530,#1531);
#1529 = CARTESIAN_POINT('',(16.6,27.96,20.5));
#1530 = DIRECTION('',(-0.,-0.,-1.));
#1531 = DIRECTION('',(-1.,0.,0.));
#1532 = ADVANCED_FACE('',(#1533),#1551,.F.);
#1533 = FACE_BOUND('',#1534,.T.);
#1534 = EDGE_LOOP('',(#1535,#1543,#1544,#1545));
#1535 = ORIENTED_EDGE('',*,*,#1536,.F.);
#1536 = EDGE_CURVE('',#784,#1537,#1539,.T.);
#1537 = VERTEX_POINT('',#1538);
#1538 = CARTESIAN_POINT('',(26.5,27.96,21.));
#1539 = LINE('',#1540,#1541);
#1540 = CARTESIAN_POINT('',(27.,27.96,20.5));
#1541 = VECTOR('',#1542,1.);
#1542 = DIRECTION('',(-0.707106781187,4.329780281177E-17,0.707106781187)
  );
#1543 = ORIENTED_EDGE('',*,*,#791,.T.);
#1544 = ORIENTED_EDGE('',*,*,#1486,.T.);
#1545 = ORIENTED_EDGE('',*,*,#1546,.F.);
#1546 = EDGE_CURVE('',#1537,#1487,#1547,.T.);
#1547 = LINE('',#1548,#1549);
#1548 = CARTESIAN_POINT('',(26.5,27.96,21.));
#1549 = VECTOR('',#1550,1.);
#1550 = DIRECTION('',(0.,1.,0.));
#1551 = PLANE('',#1552);
#1552 = AXIS2_PLACEMENT_3D('',#1553,#1554,#1555);
#1553 = CARTESIAN_POINT('',(26.75,27.96,20.75));
#1554 = DIRECTION('',(-0.707106781187,-1.889513820523E-18,
    -0.707106781187));
#1555 = DIRECTION('',(1.336088035637E-18,-1.,1.336088035637E-18));
#1556 = ADVANCED_FACE('',(#1557),#1575,.F.);
#1557 = FACE_BOUND('',#1558,.T.);
#1558 = EDGE_LOOP('',(#1559,#1560,#1561,#1569));
#1559 = ORIENTED_EDGE('',*,*,#1513,.F.);
#1560 = ORIENTED_EDGE('',*,*,#808,.T.);
#1561 = ORIENTED_EDGE('',*,*,#1562,.T.);
#1562 = EDGE_CURVE('',#809,#1563,#1565,.T.);
#1563 = VERTEX_POINT('',#1564);
#1564 = CARTESIAN_POINT('',(26.4,27.86,21.));
#1565 = LINE('',#1566,#1567);
#1566 = CARTESIAN_POINT('',(26.4,27.61,20.75));
#1567 = VECTOR('',#1568,1.);
#1568 = DIRECTION('',(2.90882763039E-35,0.707106781187,0.707106781187));
#1569 = ORIENTED_EDGE('',*,*,#1570,.F.);
#1570 = EDGE_CURVE('',#1514,#1563,#1571,.T.);
#1571 = LINE('',#1572,#1573);
#1572 = CARTESIAN_POINT('',(16.6,27.86,21.));
#1573 = VECTOR('',#1574,1.);
#1574 = DIRECTION('',(1.,0.,0.));
#1575 = PLANE('',#1576);
#1576 = AXIS2_PLACEMENT_3D('',#1577,#1578,#1579);
#1577 = CARTESIAN_POINT('',(16.6,27.61,20.75));
#1578 = DIRECTION('',(1.889513820523E-18,0.707106781187,-0.707106781187)
  );
#1579 = DIRECTION('',(-1.,1.336088035637E-18,-1.336088035637E-18));
#1580 = ADVANCED_FACE('',(#1581),#1593,.T.);
#1581 = FACE_BOUND('',#1582,.T.);
#1582 = EDGE_LOOP('',(#1583,#1584,#1585,#1586));
#1583 = ORIENTED_EDGE('',*,*,#1562,.F.);
#1584 = ORIENTED_EDGE('',*,*,#833,.T.);
#1585 = ORIENTED_EDGE('',*,*,#1536,.T.);
#1586 = ORIENTED_EDGE('',*,*,#1587,.F.);
#1587 = EDGE_CURVE('',#1563,#1537,#1588,.T.);
#1588 = CIRCLE('',#1589,1.E-01);
#1589 = AXIS2_PLACEMENT_3D('',#1590,#1591,#1592);
#1590 = CARTESIAN_POINT('',(26.4,27.96,21.));
#1591 = DIRECTION('',(-0.,0.,1.));
#1592 = DIRECTION('',(0.,-1.,0.));
#1593 = CONICAL_SURFACE('',#1594,0.6,0.785398163397);
#1594 = AXIS2_PLACEMENT_3D('',#1595,#1596,#1597);
#1595 = CARTESIAN_POINT('',(26.4,27.96,20.5));
#1596 = DIRECTION('',(-0.,-0.,-1.));
#1597 = DIRECTION('',(0.,-1.,0.));
#1598 = ADVANCED_FACE('',(#1599),#1610,.F.);
#1599 = FACE_BOUND('',#1600,.F.);
#1600 = EDGE_LOOP('',(#1601,#1602,#1603,#1609));
#1601 = ORIENTED_EDGE('',*,*,#849,.F.);
#1602 = ORIENTED_EDGE('',*,*,#1382,.T.);
#1603 = ORIENTED_EDGE('',*,*,#1604,.T.);
#1604 = EDGE_CURVE('',#1383,#1328,#1605,.T.);
#1605 = LINE('',#1606,#1607);
#1606 = CARTESIAN_POINT('',(47.,12.9,0.));
#1607 = VECTOR('',#1608,1.);
#1608 = DIRECTION('',(0.,1.,0.));
#1609 = ORIENTED_EDGE('',*,*,#1327,.T.);
#1610 = PLANE('',#1611);
#1611 = AXIS2_PLACEMENT_3D('',#1612,#1613,#1614);
#1612 = CARTESIAN_POINT('',(45.172338161771,15.9,0.));
#1613 = DIRECTION('',(0.,0.,1.));
#1614 = DIRECTION('',(1.,0.,0.));
#1615 = ADVANCED_FACE('',(#1616,#1629),#1655,.T.);
#1616 = FACE_BOUND('',#1617,.T.);
#1617 = EDGE_LOOP('',(#1618,#1619,#1620,#1621,#1622,#1623,#1624,#1625,
    #1626,#1627,#1628));
#1618 = ORIENTED_EDGE('',*,*,#874,.F.);
#1619 = ORIENTED_EDGE('',*,*,#905,.F.);
#1620 = ORIENTED_EDGE('',*,*,#929,.F.);
#1621 = ORIENTED_EDGE('',*,*,#953,.F.);
#1622 = ORIENTED_EDGE('',*,*,#977,.F.);
#1623 = ORIENTED_EDGE('',*,*,#1001,.F.);
#1624 = ORIENTED_EDGE('',*,*,#1025,.F.);
#1625 = ORIENTED_EDGE('',*,*,#1049,.F.);
#1626 = ORIENTED_EDGE('',*,*,#1073,.F.);
#1627 = ORIENTED_EDGE('',*,*,#1097,.F.);
#1628 = ORIENTED_EDGE('',*,*,#1114,.F.);
#1629 = FACE_BOUND('',#1630,.T.);
#1630 = EDGE_LOOP('',(#1631,#1641,#1649));
#1631 = ORIENTED_EDGE('',*,*,#1632,.F.);
#1632 = EDGE_CURVE('',#1633,#1635,#1637,.T.);
#1633 = VERTEX_POINT('',#1634);
#1634 = CARTESIAN_POINT('',(23.718853503185,1.418345145537,
    5.651153900453));
#1635 = VERTEX_POINT('',#1636);
#1636 = CARTESIAN_POINT('',(23.718853503185,2.06326007057,7.42304309445)
  );
#1637 = LINE('',#1638,#1639);
#1638 = CARTESIAN_POINT('',(23.718853503185,1.418345145537,
    5.651153900453));
#1639 = VECTOR('',#1640,1.);
#1640 = DIRECTION('',(0.,0.342020143326,0.939692620786));
#1641 = ORIENTED_EDGE('',*,*,#1642,.F.);
#1642 = EDGE_CURVE('',#1643,#1633,#1645,.T.);
#1643 = VERTEX_POINT('',#1644);
#1644 = CARTESIAN_POINT('',(22.430955414013,1.418345145537,
    5.651153900453));
#1645 = LINE('',#1646,#1647);
#1646 = CARTESIAN_POINT('',(22.430955414013,1.418345145537,
    5.651153900453));
#1647 = VECTOR('',#1648,1.);
#1648 = DIRECTION('',(1.,0.,0.));
#1649 = ORIENTED_EDGE('',*,*,#1650,.F.);
#1650 = EDGE_CURVE('',#1635,#1643,#1651,.T.);
#1651 = LINE('',#1652,#1653);
#1652 = CARTESIAN_POINT('',(23.718853503185,2.06326007057,7.42304309445)
  );
#1653 = VECTOR('',#1654,1.);
#1654 = DIRECTION('',(-0.564011752037,-0.282428865949,-0.775966931797));
#1655 = PLANE('',#1656);
#1656 = AXIS2_PLACEMENT_3D('',#1657,#1658,#1659);
#1657 = CARTESIAN_POINT('',(23.72301678148,1.571769875644,6.072684882008
    ));
#1658 = DIRECTION('',(0.,-0.939692620786,0.342020143326));
#1659 = DIRECTION('',(1.,0.,0.));
#1660 = ADVANCED_FACE('',(#1661),#1671,.T.);
#1661 = FACE_BOUND('',#1662,.F.);
#1662 = EDGE_LOOP('',(#1663,#1664,#1665,#1666,#1667,#1668,#1669,#1670));
#1663 = ORIENTED_EDGE('',*,*,#1138,.T.);
#1664 = ORIENTED_EDGE('',*,*,#1312,.T.);
#1665 = ORIENTED_EDGE('',*,*,#1293,.T.);
#1666 = ORIENTED_EDGE('',*,*,#1269,.T.);
#1667 = ORIENTED_EDGE('',*,*,#1243,.T.);
#1668 = ORIENTED_EDGE('',*,*,#1217,.T.);
#1669 = ORIENTED_EDGE('',*,*,#1193,.T.);
#1670 = ORIENTED_EDGE('',*,*,#1169,.T.);
#1671 = PLANE('',#1672);
#1672 = AXIS2_PLACEMENT_3D('',#1673,#1674,#1675);
#1673 = CARTESIAN_POINT('',(19.155972298463,1.73316222789,6.516106725477
    ));
#1674 = DIRECTION('',(0.,-0.939692620786,0.342020143326));
#1675 = DIRECTION('',(1.,0.,0.));
#1676 = ADVANCED_FACE('',(#1677),#1683,.F.);
#1677 = FACE_BOUND('',#1678,.F.);
#1678 = EDGE_LOOP('',(#1679,#1680,#1681,#1682));
#1679 = ORIENTED_EDGE('',*,*,#1392,.T.);
#1680 = ORIENTED_EDGE('',*,*,#1367,.T.);
#1681 = ORIENTED_EDGE('',*,*,#1335,.F.);
#1682 = ORIENTED_EDGE('',*,*,#1604,.F.);
#1683 = PLANE('',#1684);
#1684 = AXIS2_PLACEMENT_3D('',#1685,#1686,#1687);
#1685 = CARTESIAN_POINT('',(47.,12.9,0.));
#1686 = DIRECTION('',(-1.,0.,0.));
#1687 = DIRECTION('',(0.,1.,0.));
#1688 = ADVANCED_FACE('',(#1689),#1699,.T.);
#1689 = FACE_BOUND('',#1690,.T.);
#1690 = EDGE_LOOP('',(#1691,#1692,#1693,#1694,#1695,#1696,#1697,#1698));
#1691 = ORIENTED_EDGE('',*,*,#1448,.T.);
#1692 = ORIENTED_EDGE('',*,*,#1423,.T.);
#1693 = ORIENTED_EDGE('',*,*,#1472,.T.);
#1694 = ORIENTED_EDGE('',*,*,#1521,.T.);
#1695 = ORIENTED_EDGE('',*,*,#1570,.T.);
#1696 = ORIENTED_EDGE('',*,*,#1587,.T.);
#1697 = ORIENTED_EDGE('',*,*,#1546,.T.);
#1698 = ORIENTED_EDGE('',*,*,#1496,.T.);
#1699 = PLANE('',#1700);
#1700 = AXIS2_PLACEMENT_3D('',#1701,#1702,#1703);
#1701 = CARTESIAN_POINT('',(21.5,32.86,21.));
#1702 = DIRECTION('',(0.,0.,1.));
#1703 = DIRECTION('',(1.,0.,0.));
#1704 = ADVANCED_FACE('',(#1705),#1710,.T.);
#1705 = FACE_BOUND('',#1706,.T.);
#1706 = EDGE_LOOP('',(#1707,#1708,#1709));
#1707 = ORIENTED_EDGE('',*,*,#1642,.T.);
#1708 = ORIENTED_EDGE('',*,*,#1632,.T.);
#1709 = ORIENTED_EDGE('',*,*,#1650,.T.);
#1710 = PLANE('',#1711);
#1711 = AXIS2_PLACEMENT_3D('',#1712,#1713,#1714);
#1712 = CARTESIAN_POINT('',(23.72301678148,1.571769875644,6.072684882008
    ));
#1713 = DIRECTION('',(0.,-0.939692620786,0.342020143326));
#1714 = DIRECTION('',(1.,0.,0.));
#1715 = ( GEOMETRIC_REPRESENTATION_CONTEXT(3) 
GLOBAL_UNCERTAINTY_ASSIGNED_CONTEXT((#1719)) 
GLOBAL_UNIT_ASSIGNED_CONTEXT((#1716,#1717,#1718)) REPRESENTATION_CONTEXT
('Context #1','3D Context with UNIT and UNCERTAINTY') );
#1716 = ( LENGTH_UNIT() NAMED_UNIT(*) SI_UNIT(.MILLI.,.METRE.) );
#1717 = ( NAMED_UNIT(*) PLANE_ANGLE_UNIT() SI_UNIT($,.RADIAN.) );
#1718 = ( NAMED_UNIT(*) SI_UNIT($,.STERADIAN.) SOLID_ANGLE_UNIT() );
#1719 = UNCERTAINTY_MEASURE_WITH_UNIT(LENGTH_MEASURE(2.E-07),#1716,
  'distance_accuracy_value','confusion accuracy');
#1720 = PRODUCT_RELATED_PRODUCT_CATEGORY('part',$,(#7));
ENDSEC;
END-ISO-10303-21;
