ISO-10303-21;
HEADER;
FILE_DESCRIPTION(('FreeCAD Model'),'2;1');
FILE_NAME('Open CASCADE Shape Model','2026-08-30T14:00:01',('FreeCAD'),(
    'FreeCAD'),'Open CASCADE STEP processor 7.8','FreeCAD','Unknown');
FILE_SCHEMA(('AUTOMOTIVE_DESIGN { 1 0 10303 214 1 1 1 1 }'));
ENDSEC;
DATA;
#1 = APPLICATION_PROTOCOL_DEFINITION('international standard',
  'automotive_design',2000,#2);
#2 = APPLICATION_CONTEXT(
  'core data for automotive mechanical design processes');
#3 = SHAPE_DEFINITION_REPRESENTATION(#4,#10);
#4 = PRODUCT_DEFINITION_SHAPE('','',#5);
#5 = PRODUCT_DEFINITION('design','',#6,#9);
#6 = PRODUCT_DEFINITION_FORMATION('','',#7);
#7 = PRODUCT('Open CASCADE STEP translator 7.8 82',
  'Open CASCADE STEP translator 7.8 82','',(#8));
#8 = PRODUCT_CONTEXT('',#2,'mechanical');
#9 = PRODUCT_DEFINITION_CONTEXT('part definition',#2,'design');
#10 = SHAPE_REPRESENTATION('',(#11,#15,#303,#879),#1177);
#11 = AXIS2_PLACEMENT_3D('',#12,#13,#14);
#12 = CARTESIAN_POINT('',(0.,0.,0.));
#13 = DIRECTION('',(0.,0.,1.));
#14 = DIRECTION('',(1.,0.,-0.));
#15 = MANIFOLD_SOLID_BREP('',#16);
#16 = CLOSED_SHELL('',(#17,#57,#88,#121,#152,#185,#218,#249,#271,#287));
#17 = ADVANCED_FACE('',(#18),#52,.T.);
#18 = FACE_BOUND('',#19,.T.);
#19 = EDGE_LOOP('',(#20,#30,#38,#46));
#20 = ORIENTED_EDGE('',*,*,#21,.T.);
#21 = EDGE_CURVE('',#22,#24,#26,.T.);
#22 = VERTEX_POINT('',#23);
#23 = CARTESIAN_POINT('',(11.59898089172,1.461834344089,3.431595971335)
  );
#24 = VERTEX_POINT('',#25);
#25 = CARTESIAN_POINT('',(11.59898089172,0.71008024746,3.705212085995));
#26 = LINE('',#27,#28);
#27 = CARTESIAN_POINT('',(11.59898089172,1.461834344089,3.431595971335)
  );
#28 = VECTOR('',#29,1.);
#29 = DIRECTION('',(0.,-0.939692620786,0.342020143326));
#30 = ORIENTED_EDGE('',*,*,#31,.T.);
#31 = EDGE_CURVE('',#24,#32,#34,.T.);
#32 = VERTEX_POINT('',#33);
#33 = CARTESIAN_POINT('',(10.525095541401,0.71008024746,3.705212085995)
  );
#34 = LINE('',#35,#36);
#35 = CARTESIAN_POINT('',(11.59898089172,0.71008024746,3.705212085995));
#36 = VECTOR('',#37,1.);
#37 = DIRECTION('',(-1.,0.,0.));
#38 = ORIENTED_EDGE('',*,*,#39,.F.);
#39 = EDGE_CURVE('',#40,#32,#42,.T.);
#40 = VERTEX_POINT('',#41);
#41 = CARTESIAN_POINT('',(10.525095541401,1.461834344089,3.431595971335)
  );
#42 = LINE('',#43,#44);
#43 = CARTESIAN_POINT('',(10.525095541401,1.461834344089,3.431595971335)
  );
#44 = VECTOR('',#45,1.);
#45 = DIRECTION('',(0.,-0.939692620786,0.342020143326));
#46 = ORIENTED_EDGE('',*,*,#47,.F.);
#47 = EDGE_CURVE('',#22,#40,#48,.T.);
#48 = LINE('',#49,#50);
#49 = CARTESIAN_POINT('',(11.59898089172,1.461834344089,3.431595971335)
  );
#50 = VECTOR('',#51,1.);
#51 = DIRECTION('',(-1.,0.,0.));
#52 = PLANE('',#53);
#53 = AXIS2_PLACEMENT_3D('',#54,#55,#56);
#54 = CARTESIAN_POINT('',(11.59898089172,1.461834344089,3.431595971335)
  );
#55 = DIRECTION('',(0.,-0.342020143326,-0.939692620786));
#56 = DIRECTION('',(-1.,0.,0.));
#57 = ADVANCED_FACE('',(#58),#83,.T.);
#58 = FACE_BOUND('',#59,.T.);
#59 = EDGE_LOOP('',(#60,#61,#69,#77));
#60 = ORIENTED_EDGE('',*,*,#39,.T.);
#61 = ORIENTED_EDGE('',*,*,#62,.T.);
#62 = EDGE_CURVE('',#32,#63,#65,.T.);
#63 = VERTEX_POINT('',#64);
#64 = CARTESIAN_POINT('',(10.525095541401,2.099422709928,7.522399129514)
  );
#65 = LINE('',#66,#67);
#66 = CARTESIAN_POINT('',(10.525095541401,0.71008024746,3.705212085995)
  );
#67 = VECTOR('',#68,1.);
#68 = DIRECTION('',(0.,0.342020143326,0.939692620786));
#69 = ORIENTED_EDGE('',*,*,#70,.F.);
#70 = EDGE_CURVE('',#71,#63,#73,.T.);
#71 = VERTEX_POINT('',#72);
#72 = CARTESIAN_POINT('',(10.525095541401,2.851176806556,7.248783014853)
  );
#73 = LINE('',#74,#75);
#74 = CARTESIAN_POINT('',(10.525095541401,2.851176806556,7.248783014853)
  );
#75 = VECTOR('',#76,1.);
#76 = DIRECTION('',(0.,-0.939692620786,0.342020143326));
#77 = ORIENTED_EDGE('',*,*,#78,.F.);
#78 = EDGE_CURVE('',#40,#71,#79,.T.);
#79 = LINE('',#80,#81);
#80 = CARTESIAN_POINT('',(10.525095541401,1.461834344089,3.431595971335)
  );
#81 = VECTOR('',#82,1.);
#82 = DIRECTION('',(0.,0.342020143326,0.939692620786));
#83 = PLANE('',#84);
#84 = AXIS2_PLACEMENT_3D('',#85,#86,#87);
#85 = CARTESIAN_POINT('',(10.525095541401,1.461834344089,3.431595971335)
  );
#86 = DIRECTION('',(-1.,0.,0.));
#87 = DIRECTION('',(0.,0.342020143326,0.939692620786));
#88 = ADVANCED_FACE('',(#89),#114,.T.);
#89 = FACE_BOUND('',#90,.T.);
#90 = EDGE_LOOP('',(#91,#92,#100,#108));
#91 = ORIENTED_EDGE('',*,*,#70,.T.);
#92 = ORIENTED_EDGE('',*,*,#93,.T.);
#93 = EDGE_CURVE('',#63,#94,#96,.T.);
#94 = VERTEX_POINT('',#95);
#95 = CARTESIAN_POINT('',(9.137834394904,1.819881150746,6.754365007863)
  );
#96 = B_SPLINE_CURVE_WITH_KNOTS('',2,(#97,#98,#99),.UNSPECIFIED.,.F.,.F.
  ,(3,3),(0.,1.),.PIECEWISE_BEZIER_KNOTS.);
#97 = CARTESIAN_POINT('',(10.525095541401,2.099422709928,7.522399129514)
  );
#98 = CARTESIAN_POINT('',(9.936560509554,1.910418457476,7.003114213722)
  );
#99 = CARTESIAN_POINT('',(9.137834394904,1.819881150746,6.754365007863)
  );
#100 = ORIENTED_EDGE('',*,*,#101,.F.);
#101 = EDGE_CURVE('',#102,#94,#104,.T.);
#102 = VERTEX_POINT('',#103);
#103 = CARTESIAN_POINT('',(9.137834394904,2.571635247374,6.480748893202)
  );
#104 = LINE('',#105,#106);
#105 = CARTESIAN_POINT('',(9.137834394904,2.571635247374,6.480748893202)
  );
#106 = VECTOR('',#107,1.);
#107 = DIRECTION('',(0.,-0.939692620786,0.342020143326));
#108 = ORIENTED_EDGE('',*,*,#109,.F.);
#109 = EDGE_CURVE('',#71,#102,#110,.T.);
#110 = B_SPLINE_CURVE_WITH_KNOTS('',2,(#111,#112,#113),.UNSPECIFIED.,.F.
  ,.F.,(3,3),(0.,1.),.PIECEWISE_BEZIER_KNOTS.);
#111 = CARTESIAN_POINT('',(10.525095541401,2.851176806556,7.248783014853
    ));
#112 = CARTESIAN_POINT('',(9.936560509554,2.662172554104,6.729498099061)
  );
#113 = CARTESIAN_POINT('',(9.137834394904,2.571635247374,6.480748893202)
  );
#114 = SURFACE_OF_LINEAR_EXTRUSION('',#115,#119);
#115 = B_SPLINE_CURVE_WITH_KNOTS('',2,(#116,#117,#118),.UNSPECIFIED.,.F.
  ,.F.,(3,3),(0.,1.),.PIECEWISE_BEZIER_KNOTS.);
#116 = CARTESIAN_POINT('',(10.525095541401,2.851176806556,7.248783014853
    ));
#117 = CARTESIAN_POINT('',(9.936560509554,2.662172554104,6.729498099061)
  );
#118 = CARTESIAN_POINT('',(9.137834394904,2.571635247374,6.480748893202)
  );
#119 = VECTOR('',#120,1.);
#120 = DIRECTION('',(-0.,0.939692620786,-0.342020143326));
#121 = ADVANCED_FACE('',(#122),#147,.T.);
#122 = FACE_BOUND('',#123,.T.);
#123 = EDGE_LOOP('',(#124,#125,#133,#141));
#124 = ORIENTED_EDGE('',*,*,#101,.T.);
#125 = ORIENTED_EDGE('',*,*,#126,.T.);
#126 = EDGE_CURVE('',#94,#127,#129,.T.);
#127 = VERTEX_POINT('',#128);
#128 = CARTESIAN_POINT('',(9.137834394904,2.15449448842,7.67370759737));
#129 = LINE('',#130,#131);
#130 = CARTESIAN_POINT('',(9.137834394904,1.819881150746,6.754365007863)
  );
#131 = VECTOR('',#132,1.);
#132 = DIRECTION('',(0.,0.342020143326,0.939692620786));
#133 = ORIENTED_EDGE('',*,*,#134,.F.);
#134 = EDGE_CURVE('',#135,#127,#137,.T.);
#135 = VERTEX_POINT('',#136);
#136 = CARTESIAN_POINT('',(9.137834394904,2.906248585048,7.40009148271)
  );
#137 = LINE('',#138,#139);
#138 = CARTESIAN_POINT('',(9.137834394904,2.906248585048,7.40009148271)
  );
#139 = VECTOR('',#140,1.);
#140 = DIRECTION('',(0.,-0.939692620786,0.342020143326));
#141 = ORIENTED_EDGE('',*,*,#142,.F.);
#142 = EDGE_CURVE('',#102,#135,#143,.T.);
#143 = LINE('',#144,#145);
#144 = CARTESIAN_POINT('',(9.137834394904,2.571635247374,6.480748893202)
  );
#145 = VECTOR('',#146,1.);
#146 = DIRECTION('',(0.,0.342020143326,0.939692620786));
#147 = PLANE('',#148);
#148 = AXIS2_PLACEMENT_3D('',#149,#150,#151);
#149 = CARTESIAN_POINT('',(9.137834394904,2.571635247374,6.480748893202)
  );
#150 = DIRECTION('',(-1.,0.,0.));
#151 = DIRECTION('',(0.,0.342020143326,0.939692620786));
#152 = ADVANCED_FACE('',(#153),#178,.T.);
#153 = FACE_BOUND('',#154,.T.);
#154 = EDGE_LOOP('',(#155,#156,#164,#172));
#155 = ORIENTED_EDGE('',*,*,#134,.T.);
#156 = ORIENTED_EDGE('',*,*,#157,.T.);
#157 = EDGE_CURVE('',#127,#158,#160,.T.);
#158 = VERTEX_POINT('',#159);
#159 = CARTESIAN_POINT('',(10.051210191083,2.332954935179,8.164023645108
    ));
#160 = B_SPLINE_CURVE_WITH_KNOTS('',2,(#161,#162,#163),.UNSPECIFIED.,.F.
  ,.F.,(3,3),(0.,1.),.PIECEWISE_BEZIER_KNOTS.);
#161 = CARTESIAN_POINT('',(9.137834394904,2.15449448842,7.67370759737));
#162 = CARTESIAN_POINT('',(9.55821656051,2.20154948903,7.80299014902));
#163 = CARTESIAN_POINT('',(10.051210191083,2.332954935179,8.164023645108
    ));
#164 = ORIENTED_EDGE('',*,*,#165,.F.);
#165 = EDGE_CURVE('',#166,#158,#168,.T.);
#166 = VERTEX_POINT('',#167);
#167 = CARTESIAN_POINT('',(10.051210191083,3.084709031808,7.890407530447
    ));
#168 = LINE('',#169,#170);
#169 = CARTESIAN_POINT('',(10.051210191083,3.084709031808,7.890407530447
    ));
#170 = VECTOR('',#171,1.);
#171 = DIRECTION('',(0.,-0.939692620786,0.342020143326));
#172 = ORIENTED_EDGE('',*,*,#173,.F.);
#173 = EDGE_CURVE('',#135,#166,#174,.T.);
#174 = B_SPLINE_CURVE_WITH_KNOTS('',2,(#175,#176,#177),.UNSPECIFIED.,.F.
  ,.F.,(3,3),(0.,1.),.PIECEWISE_BEZIER_KNOTS.);
#175 = CARTESIAN_POINT('',(9.137834394904,2.906248585048,7.40009148271)
  );
#176 = CARTESIAN_POINT('',(9.55821656051,2.953303585659,7.529374034359)
  );
#177 = CARTESIAN_POINT('',(10.051210191083,3.084709031808,7.890407530447
    ));
#178 = SURFACE_OF_LINEAR_EXTRUSION('',#179,#183);
#179 = B_SPLINE_CURVE_WITH_KNOTS('',2,(#180,#181,#182),.UNSPECIFIED.,.F.
  ,.F.,(3,3),(0.,1.),.PIECEWISE_BEZIER_KNOTS.);
#180 = CARTESIAN_POINT('',(9.137834394904,2.906248585048,7.40009148271)
  );
#181 = CARTESIAN_POINT('',(9.55821656051,2.953303585659,7.529374034359)
  );
#182 = CARTESIAN_POINT('',(10.051210191083,3.084709031808,7.890407530447
    ));
#183 = VECTOR('',#184,1.);
#184 = DIRECTION('',(-0.,0.939692620786,-0.342020143326));
#185 = ADVANCED_FACE('',(#186),#211,.T.);
#186 = FACE_BOUND('',#187,.T.);
#187 = EDGE_LOOP('',(#188,#189,#197,#205));
#188 = ORIENTED_EDGE('',*,*,#165,.T.);
#189 = ORIENTED_EDGE('',*,*,#190,.T.);
#190 = EDGE_CURVE('',#158,#191,#193,.T.);
#191 = VERTEX_POINT('',#192);
#192 = CARTESIAN_POINT('',(10.727643312102,2.639683828047,9.006754352157
    ));
#193 = B_SPLINE_CURVE_WITH_KNOTS('',2,(#194,#195,#196),.UNSPECIFIED.,.F.
  ,.F.,(3,3),(0.,1.),.PIECEWISE_BEZIER_KNOTS.);
#194 = CARTESIAN_POINT('',(10.051210191083,2.332954935179,8.164023645108
    ));
#195 = CARTESIAN_POINT('',(10.544203821656,2.464447520218,8.525296553329
    ));
#196 = CARTESIAN_POINT('',(10.727643312102,2.639683828047,9.006754352157
    ));
#197 = ORIENTED_EDGE('',*,*,#198,.F.);
#198 = EDGE_CURVE('',#199,#191,#201,.T.);
#199 = VERTEX_POINT('',#200);
#200 = CARTESIAN_POINT('',(10.727643312102,3.391437924676,8.733138237496
    ));
#201 = LINE('',#202,#203);
#202 = CARTESIAN_POINT('',(10.727643312102,3.391437924676,8.733138237496
    ));
#203 = VECTOR('',#204,1.);
#204 = DIRECTION('',(0.,-0.939692620786,0.342020143326));
#205 = ORIENTED_EDGE('',*,*,#206,.F.);
#206 = EDGE_CURVE('',#166,#199,#207,.T.);
#207 = B_SPLINE_CURVE_WITH_KNOTS('',2,(#208,#209,#210),.UNSPECIFIED.,.F.
  ,.F.,(3,3),(0.,1.),.PIECEWISE_BEZIER_KNOTS.);
#208 = CARTESIAN_POINT('',(10.051210191083,3.084709031808,7.890407530447
    ));
#209 = CARTESIAN_POINT('',(10.544203821656,3.216201616847,8.251680438668
    ));
#210 = CARTESIAN_POINT('',(10.727643312102,3.391437924676,8.733138237496
    ));
#211 = SURFACE_OF_LINEAR_EXTRUSION('',#212,#216);
#212 = B_SPLINE_CURVE_WITH_KNOTS('',2,(#213,#214,#215),.UNSPECIFIED.,.F.
  ,.F.,(3,3),(0.,1.),.PIECEWISE_BEZIER_KNOTS.);
#213 = CARTESIAN_POINT('',(10.051210191083,3.084709031808,7.890407530447
    ));
#214 = CARTESIAN_POINT('',(10.544203821656,3.216201616847,8.251680438668
    ));
#215 = CARTESIAN_POINT('',(10.727643312102,3.391437924676,8.733138237496
    ));
#216 = VECTOR('',#217,1.);
#217 = DIRECTION('',(-0.,0.939692620786,-0.342020143326));
#218 = ADVANCED_FACE('',(#219),#244,.T.);
#219 = FACE_BOUND('',#220,.T.);
#220 = EDGE_LOOP('',(#221,#222,#230,#238));
#221 = ORIENTED_EDGE('',*,*,#198,.T.);
#222 = ORIENTED_EDGE('',*,*,#223,.T.);
#223 = EDGE_CURVE('',#191,#224,#226,.T.);
#224 = VERTEX_POINT('',#225);
#225 = CARTESIAN_POINT('',(11.59898089172,2.639683828047,9.006754352157)
  );
#226 = LINE('',#227,#228);
#227 = CARTESIAN_POINT('',(10.727643312102,2.639683828047,9.006754352157
    ));
#228 = VECTOR('',#229,1.);
#229 = DIRECTION('',(1.,0.,0.));
#230 = ORIENTED_EDGE('',*,*,#231,.F.);
#231 = EDGE_CURVE('',#232,#224,#234,.T.);
#232 = VERTEX_POINT('',#233);
#233 = CARTESIAN_POINT('',(11.59898089172,3.391437924676,8.733138237496)
  );
#234 = LINE('',#235,#236);
#235 = CARTESIAN_POINT('',(11.59898089172,3.391437924676,8.733138237496)
  );
#236 = VECTOR('',#237,1.);
#237 = DIRECTION('',(0.,-0.939692620786,0.342020143326));
#238 = ORIENTED_EDGE('',*,*,#239,.F.);
#239 = EDGE_CURVE('',#199,#232,#240,.T.);
#240 = LINE('',#241,#242);
#241 = CARTESIAN_POINT('',(10.727643312102,3.391437924676,8.733138237496
    ));
#242 = VECTOR('',#243,1.);
#243 = DIRECTION('',(1.,0.,0.));
#244 = PLANE('',#245);
#245 = AXIS2_PLACEMENT_3D('',#246,#247,#248);
#246 = CARTESIAN_POINT('',(10.727643312102,3.391437924676,8.733138237496
    ));
#247 = DIRECTION('',(0.,0.342020143326,0.939692620786));
#248 = DIRECTION('',(1.,0.,0.));
#249 = ADVANCED_FACE('',(#250),#266,.T.);
#250 = FACE_BOUND('',#251,.T.);
#251 = EDGE_LOOP('',(#252,#253,#259,#260));
#252 = ORIENTED_EDGE('',*,*,#231,.T.);
#253 = ORIENTED_EDGE('',*,*,#254,.T.);
#254 = EDGE_CURVE('',#224,#24,#255,.T.);
#255 = LINE('',#256,#257);
#256 = CARTESIAN_POINT('',(11.59898089172,2.639683828047,9.006754352157)
  );
#257 = VECTOR('',#258,1.);
#258 = DIRECTION('',(0.,-0.342020143326,-0.939692620786));
#259 = ORIENTED_EDGE('',*,*,#21,.F.);
#260 = ORIENTED_EDGE('',*,*,#261,.F.);
#261 = EDGE_CURVE('',#232,#22,#262,.T.);
#262 = LINE('',#263,#264);
#263 = CARTESIAN_POINT('',(11.59898089172,3.391437924676,8.733138237496)
  );
#264 = VECTOR('',#265,1.);
#265 = DIRECTION('',(0.,-0.342020143326,-0.939692620786));
#266 = PLANE('',#267);
#267 = AXIS2_PLACEMENT_3D('',#268,#269,#270);
#268 = CARTESIAN_POINT('',(11.59898089172,3.391437924676,8.733138237496)
  );
#269 = DIRECTION('',(1.,0.,0.));
#270 = DIRECTION('',(0.,-0.342020143326,-0.939692620786));
#271 = ADVANCED_FACE('',(#272),#282,.F.);
#272 = FACE_BOUND('',#273,.T.);
#273 = EDGE_LOOP('',(#274,#275,#276,#277,#278,#279,#280,#281));
#274 = ORIENTED_EDGE('',*,*,#47,.T.);
#275 = ORIENTED_EDGE('',*,*,#78,.T.);
#276 = ORIENTED_EDGE('',*,*,#109,.T.);
#277 = ORIENTED_EDGE('',*,*,#142,.T.);
#278 = ORIENTED_EDGE('',*,*,#173,.T.);
#279 = ORIENTED_EDGE('',*,*,#206,.T.);
#280 = ORIENTED_EDGE('',*,*,#239,.T.);
#281 = ORIENTED_EDGE('',*,*,#261,.T.);
#282 = PLANE('',#283);
#283 = AXIS2_PLACEMENT_3D('',#284,#285,#286);
#284 = CARTESIAN_POINT('',(10.747692043686,2.484916324519,6.242490610816
    ));
#285 = DIRECTION('',(0.,-0.939692620786,0.342020143326));
#286 = DIRECTION('',(1.,0.,0.));
#287 = ADVANCED_FACE('',(#288),#298,.T.);
#288 = FACE_BOUND('',#289,.F.);
#289 = EDGE_LOOP('',(#290,#291,#292,#293,#294,#295,#296,#297));
#290 = ORIENTED_EDGE('',*,*,#31,.T.);
#291 = ORIENTED_EDGE('',*,*,#62,.T.);
#292 = ORIENTED_EDGE('',*,*,#93,.T.);
#293 = ORIENTED_EDGE('',*,*,#126,.T.);
#294 = ORIENTED_EDGE('',*,*,#157,.T.);
#295 = ORIENTED_EDGE('',*,*,#190,.T.);
#296 = ORIENTED_EDGE('',*,*,#223,.T.);
#297 = ORIENTED_EDGE('',*,*,#254,.T.);
#298 = PLANE('',#299);
#299 = AXIS2_PLACEMENT_3D('',#300,#301,#302);
#300 = CARTESIAN_POINT('',(10.747692043686,1.73316222789,6.516106725477)
  );
#301 = DIRECTION('',(0.,-0.939692620786,0.342020143326));
#302 = DIRECTION('',(1.,0.,0.));
#303 = MANIFOLD_SOLID_BREP('',#304);
#304 = CLOSED_SHELL('',(#305,#345,#378,#411,#444,#477,#510,#543,#576,
    #609,#642,#675,#708,#741,#774,#807,#831,#855));
#305 = ADVANCED_FACE('',(#306),#340,.T.);
#306 = FACE_BOUND('',#307,.T.);
#307 = EDGE_LOOP('',(#308,#318,#326,#334));
#308 = ORIENTED_EDGE('',*,*,#309,.T.);
#309 = EDGE_CURVE('',#310,#312,#314,.T.);
#310 = VERTEX_POINT('',#311);
#311 = CARTESIAN_POINT('',(13.227770700637,1.907985460988,4.657386090679
    ));
#312 = VERTEX_POINT('',#313);
#313 = CARTESIAN_POINT('',(13.227770700637,1.156231364359,4.931002205339
    ));
#314 = LINE('',#315,#316);
#315 = CARTESIAN_POINT('',(13.227770700637,1.907985460988,4.657386090679
    ));
#316 = VECTOR('',#317,1.);
#317 = DIRECTION('',(0.,-0.939692620786,0.342020143326));
#318 = ORIENTED_EDGE('',*,*,#319,.T.);
#319 = EDGE_CURVE('',#312,#320,#322,.T.);
#320 = VERTEX_POINT('',#321);
#321 = CARTESIAN_POINT('',(14.267261146497,1.195269587088,5.038258840782
    ));
#322 = LINE('',#323,#324);
#323 = CARTESIAN_POINT('',(13.227770700637,1.156231364359,4.931002205339
    ));
#324 = VECTOR('',#325,1.);
#325 = DIRECTION('',(0.994025520727,3.733078050948E-02,0.1025654765));
#326 = ORIENTED_EDGE('',*,*,#327,.F.);
#327 = EDGE_CURVE('',#328,#320,#330,.T.);
#328 = VERTEX_POINT('',#329);
#329 = CARTESIAN_POINT('',(14.267261146497,1.947023683716,4.764642726121
    ));
#330 = LINE('',#331,#332);
#331 = CARTESIAN_POINT('',(14.267261146497,1.947023683716,4.764642726121
    ));
#332 = VECTOR('',#333,1.);
#333 = DIRECTION('',(0.,-0.939692620786,0.342020143326));
#334 = ORIENTED_EDGE('',*,*,#335,.F.);
#335 = EDGE_CURVE('',#310,#328,#336,.T.);
#336 = LINE('',#337,#338);
#337 = CARTESIAN_POINT('',(13.227770700637,1.907985460988,4.657386090679
    ));
#338 = VECTOR('',#339,1.);
#339 = DIRECTION('',(0.994025520727,3.733078050948E-02,0.1025654765));
#340 = PLANE('',#341);
#341 = AXIS2_PLACEMENT_3D('',#342,#343,#344);
#342 = CARTESIAN_POINT('',(13.227770700637,1.907985460988,4.657386090679
    ));
#343 = DIRECTION('',(-0.109147900315,0.339976751068,0.9340784467));
#344 = DIRECTION('',(0.994025520727,3.733078050948E-02,0.1025654765));
#345 = ADVANCED_FACE('',(#346),#371,.T.);
#346 = FACE_BOUND('',#347,.T.);
#347 = EDGE_LOOP('',(#348,#349,#357,#365));
#348 = ORIENTED_EDGE('',*,*,#327,.T.);
#349 = ORIENTED_EDGE('',*,*,#350,.T.);
#350 = EDGE_CURVE('',#320,#351,#353,.T.);
#351 = VERTEX_POINT('',#352);
#352 = CARTESIAN_POINT('',(14.465987261146,1.035369723902,4.598937577306
    ));
#353 = B_SPLINE_CURVE_WITH_KNOTS('',2,(#354,#355,#356),.UNSPECIFIED.,.F.
  ,.F.,(3,3),(0.,1.),.PIECEWISE_BEZIER_KNOTS.);
#354 = CARTESIAN_POINT('',(14.267261146497,1.195269587088,5.038258840782
    ));
#355 = CARTESIAN_POINT('',(14.305477707006,1.087391641244,4.741866620518
    ));
#356 = CARTESIAN_POINT('',(14.465987261146,1.035369723902,4.598937577306
    ));
#357 = ORIENTED_EDGE('',*,*,#358,.F.);
#358 = EDGE_CURVE('',#359,#351,#361,.T.);
#359 = VERTEX_POINT('',#360);
#360 = CARTESIAN_POINT('',(14.465987261146,1.787123820531,4.325321462645
    ));
#361 = LINE('',#362,#363);
#362 = CARTESIAN_POINT('',(14.465987261146,1.787123820531,4.325321462645
    ));
#363 = VECTOR('',#364,1.);
#364 = DIRECTION('',(0.,-0.939692620786,0.342020143326));
#365 = ORIENTED_EDGE('',*,*,#366,.F.);
#366 = EDGE_CURVE('',#328,#359,#367,.T.);
#367 = B_SPLINE_CURVE_WITH_KNOTS('',2,(#368,#369,#370),.UNSPECIFIED.,.F.
  ,.F.,(3,3),(0.,1.),.PIECEWISE_BEZIER_KNOTS.);
#368 = CARTESIAN_POINT('',(14.267261146497,1.947023683716,4.764642726121
    ));
#369 = CARTESIAN_POINT('',(14.305477707006,1.839145737872,4.468250505858
    ));
#370 = CARTESIAN_POINT('',(14.465987261146,1.787123820531,4.325321462645
    ));
#371 = SURFACE_OF_LINEAR_EXTRUSION('',#372,#376);
#372 = B_SPLINE_CURVE_WITH_KNOTS('',2,(#373,#374,#375),.UNSPECIFIED.,.F.
  ,.F.,(3,3),(0.,1.),.PIECEWISE_BEZIER_KNOTS.);
#373 = CARTESIAN_POINT('',(14.267261146497,1.947023683716,4.764642726121
    ));
#374 = CARTESIAN_POINT('',(14.305477707006,1.839145737872,4.468250505858
    ));
#375 = CARTESIAN_POINT('',(14.465987261146,1.787123820531,4.325321462645
    ));
#376 = VECTOR('',#377,1.);
#377 = DIRECTION('',(-0.,0.939692620786,-0.342020143326));
#378 = ADVANCED_FACE('',(#379),#404,.T.);
#379 = FACE_BOUND('',#380,.T.);
#380 = EDGE_LOOP('',(#381,#382,#390,#398));
#381 = ORIENTED_EDGE('',*,*,#358,.T.);
#382 = ORIENTED_EDGE('',*,*,#383,.T.);
#383 = EDGE_CURVE('',#351,#384,#386,.T.);
#384 = VERTEX_POINT('',#385);
#385 = CARTESIAN_POINT('',(14.890191082803,0.983347806561,4.456008534093
    ));
#386 = B_SPLINE_CURVE_WITH_KNOTS('',2,(#387,#388,#389),.UNSPECIFIED.,.F.
  ,.F.,(3,3),(0.,1.),.PIECEWISE_BEZIER_KNOTS.);
#387 = CARTESIAN_POINT('',(14.465987261146,1.035369723902,4.598937577306
    ));
#388 = CARTESIAN_POINT('',(14.626496815287,0.983347806561,4.456008534093
    ));
#389 = CARTESIAN_POINT('',(14.890191082803,0.983347806561,4.456008534093
    ));
#390 = ORIENTED_EDGE('',*,*,#391,.F.);
#391 = EDGE_CURVE('',#392,#384,#394,.T.);
#392 = VERTEX_POINT('',#393);
#393 = CARTESIAN_POINT('',(14.890191082803,1.735101903189,4.182392419433
    ));
#394 = LINE('',#395,#396);
#395 = CARTESIAN_POINT('',(14.890191082803,1.735101903189,4.182392419433
    ));
#396 = VECTOR('',#397,1.);
#397 = DIRECTION('',(0.,-0.939692620786,0.342020143326));
#398 = ORIENTED_EDGE('',*,*,#399,.F.);
#399 = EDGE_CURVE('',#359,#392,#400,.T.);
#400 = B_SPLINE_CURVE_WITH_KNOTS('',2,(#401,#402,#403),.UNSPECIFIED.,.F.
  ,.F.,(3,3),(0.,1.),.PIECEWISE_BEZIER_KNOTS.);
#401 = CARTESIAN_POINT('',(14.465987261146,1.787123820531,4.325321462645
    ));
#402 = CARTESIAN_POINT('',(14.626496815287,1.735101903189,4.182392419433
    ));
#403 = CARTESIAN_POINT('',(14.890191082803,1.735101903189,4.182392419433
    ));
#404 = SURFACE_OF_LINEAR_EXTRUSION('',#405,#409);
#405 = B_SPLINE_CURVE_WITH_KNOTS('',2,(#406,#407,#408),.UNSPECIFIED.,.F.
  ,.F.,(3,3),(0.,1.),.PIECEWISE_BEZIER_KNOTS.);
#406 = CARTESIAN_POINT('',(14.465987261146,1.787123820531,4.325321462645
    ));
#407 = CARTESIAN_POINT('',(14.626496815287,1.735101903189,4.182392419433
    ));
#408 = CARTESIAN_POINT('',(14.890191082803,1.735101903189,4.182392419433
    ));
#409 = VECTOR('',#410,1.);
#410 = DIRECTION('',(-0.,0.939692620786,-0.342020143326));
#411 = ADVANCED_FACE('',(#412),#437,.T.);
#412 = FACE_BOUND('',#413,.T.);
#413 = EDGE_LOOP('',(#414,#415,#423,#431));
#414 = ORIENTED_EDGE('',*,*,#391,.T.);
#415 = ORIENTED_EDGE('',*,*,#416,.T.);
#416 = EDGE_CURVE('',#384,#417,#419,.T.);
#417 = VERTEX_POINT('',#418);
#418 = CARTESIAN_POINT('',(15.455796178344,1.088263030144,4.744260741845
    ));
#419 = B_SPLINE_CURVE_WITH_KNOTS('',2,(#420,#421,#422),.UNSPECIFIED.,.F.
  ,.F.,(3,3),(0.,1.),.PIECEWISE_BEZIER_KNOTS.);
#420 = CARTESIAN_POINT('',(14.890191082803,0.983347806561,4.456008534093
    ));
#421 = CARTESIAN_POINT('',(15.222675159236,0.983347806561,4.456008534093
    ));
#422 = CARTESIAN_POINT('',(15.455796178344,1.088263030144,4.744260741845
    ));
#423 = ORIENTED_EDGE('',*,*,#424,.F.);
#424 = EDGE_CURVE('',#425,#417,#427,.T.);
#425 = VERTEX_POINT('',#426);
#426 = CARTESIAN_POINT('',(15.455796178344,1.840017126773,4.470644627185
    ));
#427 = LINE('',#428,#429);
#428 = CARTESIAN_POINT('',(15.455796178344,1.840017126773,4.470644627185
    ));
#429 = VECTOR('',#430,1.);
#430 = DIRECTION('',(0.,-0.939692620786,0.342020143326));
#431 = ORIENTED_EDGE('',*,*,#432,.F.);
#432 = EDGE_CURVE('',#392,#425,#433,.T.);
#433 = B_SPLINE_CURVE_WITH_KNOTS('',2,(#434,#435,#436),.UNSPECIFIED.,.F.
  ,.F.,(3,3),(0.,1.),.PIECEWISE_BEZIER_KNOTS.);
#434 = CARTESIAN_POINT('',(14.890191082803,1.735101903189,4.182392419433
    ));
#435 = CARTESIAN_POINT('',(15.222675159236,1.735101903189,4.182392419433
    ));
#436 = CARTESIAN_POINT('',(15.455796178344,1.840017126773,4.470644627185
    ));
#437 = SURFACE_OF_LINEAR_EXTRUSION('',#438,#442);
#438 = B_SPLINE_CURVE_WITH_KNOTS('',2,(#439,#440,#441),.UNSPECIFIED.,.F.
  ,.F.,(3,3),(0.,1.),.PIECEWISE_BEZIER_KNOTS.);
#439 = CARTESIAN_POINT('',(14.890191082803,1.735101903189,4.182392419433
    ));
#440 = CARTESIAN_POINT('',(15.222675159236,1.735101903189,4.182392419433
    ));
#441 = CARTESIAN_POINT('',(15.455796178344,1.840017126773,4.470644627185
    ));
#442 = VECTOR('',#443,1.);
#443 = DIRECTION('',(-0.,0.939692620786,-0.342020143326));
#444 = ADVANCED_FACE('',(#445),#470,.T.);
#445 = FACE_BOUND('',#446,.T.);
#446 = EDGE_LOOP('',(#447,#448,#456,#464));
#447 = ORIENTED_EDGE('',*,*,#424,.T.);
#448 = ORIENTED_EDGE('',*,*,#449,.T.);
#449 = EDGE_CURVE('',#417,#450,#452,.T.);
#450 = VERTEX_POINT('',#451);
#451 = CARTESIAN_POINT('',(15.753885350318,1.52334750801,5.939645520338)
  );
#452 = B_SPLINE_CURVE_WITH_KNOTS('',2,(#453,#454,#455),.UNSPECIFIED.,.F.
  ,.F.,(3,3),(0.,1.),.PIECEWISE_BEZIER_KNOTS.);
#453 = CARTESIAN_POINT('',(15.455796178344,1.088263030144,4.744260741845
    ));
#454 = CARTESIAN_POINT('',(15.688917197452,1.193265392617,5.03275236173)
  );
#455 = CARTESIAN_POINT('',(15.753885350318,1.52334750801,5.939645520338)
  );
#456 = ORIENTED_EDGE('',*,*,#457,.F.);
#457 = EDGE_CURVE('',#458,#450,#460,.T.);
#458 = VERTEX_POINT('',#459);
#459 = CARTESIAN_POINT('',(15.753885350318,2.275101604639,5.666029405678
    ));
#460 = LINE('',#461,#462);
#461 = CARTESIAN_POINT('',(15.753885350318,2.275101604639,5.666029405678
    ));
#462 = VECTOR('',#463,1.);
#463 = DIRECTION('',(0.,-0.939692620786,0.342020143326));
#464 = ORIENTED_EDGE('',*,*,#465,.F.);
#465 = EDGE_CURVE('',#425,#458,#466,.T.);
#466 = B_SPLINE_CURVE_WITH_KNOTS('',2,(#467,#468,#469),.UNSPECIFIED.,.F.
  ,.F.,(3,3),(0.,1.),.PIECEWISE_BEZIER_KNOTS.);
#467 = CARTESIAN_POINT('',(15.455796178344,1.840017126773,4.470644627185
    ));
#468 = CARTESIAN_POINT('',(15.688917197452,1.945019489246,4.759136247069
    ));
#469 = CARTESIAN_POINT('',(15.753885350318,2.275101604639,5.666029405678
    ));
#470 = SURFACE_OF_LINEAR_EXTRUSION('',#471,#475);
#471 = B_SPLINE_CURVE_WITH_KNOTS('',2,(#472,#473,#474),.UNSPECIFIED.,.F.
  ,.F.,(3,3),(0.,1.),.PIECEWISE_BEZIER_KNOTS.);
#472 = CARTESIAN_POINT('',(15.455796178344,1.840017126773,4.470644627185
    ));
#473 = CARTESIAN_POINT('',(15.688917197452,1.945019489246,4.759136247069
    ));
#474 = CARTESIAN_POINT('',(15.753885350318,2.275101604639,5.666029405678
    ));
#475 = VECTOR('',#476,1.);
#476 = DIRECTION('',(-0.,0.939692620786,-0.342020143326));
#477 = ADVANCED_FACE('',(#478),#503,.T.);
#478 = FACE_BOUND('',#479,.T.);
#479 = EDGE_LOOP('',(#480,#481,#489,#497));
#480 = ORIENTED_EDGE('',*,*,#457,.T.);
#481 = ORIENTED_EDGE('',*,*,#482,.T.);
#482 = EDGE_CURVE('',#450,#483,#485,.T.);
#483 = VERTEX_POINT('',#484);
#484 = CARTESIAN_POINT('',(14.741146496815,1.362576255925,5.497930135535
    ));
#485 = B_SPLINE_CURVE_WITH_KNOTS('',2,(#486,#487,#488),.UNSPECIFIED.,.F.
  ,.F.,(3,3),(0.,1.),.PIECEWISE_BEZIER_KNOTS.);
#486 = CARTESIAN_POINT('',(15.753885350318,1.52334750801,5.939645520338)
  );
#487 = CARTESIAN_POINT('',(15.348789808917,1.362576255925,5.497930135535
    ));
#488 = CARTESIAN_POINT('',(14.741146496815,1.362576255925,5.497930135535
    ));
#489 = ORIENTED_EDGE('',*,*,#490,.F.);
#490 = EDGE_CURVE('',#491,#483,#493,.T.);
#491 = VERTEX_POINT('',#492);
#492 = CARTESIAN_POINT('',(14.741146496815,2.114330352553,5.224314020875
    ));
#493 = LINE('',#494,#495);
#494 = CARTESIAN_POINT('',(14.741146496815,2.114330352553,5.224314020875
    ));
#495 = VECTOR('',#496,1.);
#496 = DIRECTION('',(0.,-0.939692620786,0.342020143326));
#497 = ORIENTED_EDGE('',*,*,#498,.F.);
#498 = EDGE_CURVE('',#458,#491,#499,.T.);
#499 = B_SPLINE_CURVE_WITH_KNOTS('',2,(#500,#501,#502),.UNSPECIFIED.,.F.
  ,.F.,(3,3),(0.,1.),.PIECEWISE_BEZIER_KNOTS.);
#500 = CARTESIAN_POINT('',(15.753885350318,2.275101604639,5.666029405678
    ));
#501 = CARTESIAN_POINT('',(15.348789808917,2.114330352553,5.224314020875
    ));
#502 = CARTESIAN_POINT('',(14.741146496815,2.114330352553,5.224314020875
    ));
#503 = SURFACE_OF_LINEAR_EXTRUSION('',#504,#508);
#504 = B_SPLINE_CURVE_WITH_KNOTS('',2,(#505,#506,#507),.UNSPECIFIED.,.F.
  ,.F.,(3,3),(0.,1.),.PIECEWISE_BEZIER_KNOTS.);
#505 = CARTESIAN_POINT('',(15.753885350318,2.275101604639,5.666029405678
    ));
#506 = CARTESIAN_POINT('',(15.348789808917,2.114330352553,5.224314020875
    ));
#507 = CARTESIAN_POINT('',(14.741146496815,2.114330352553,5.224314020875
    ));
#508 = VECTOR('',#509,1.);
#509 = DIRECTION('',(-0.,0.939692620786,-0.342020143326));
#510 = ADVANCED_FACE('',(#511),#536,.T.);
#511 = FACE_BOUND('',#512,.T.);
#512 = EDGE_LOOP('',(#513,#514,#522,#530));
#513 = ORIENTED_EDGE('',*,*,#490,.T.);
#514 = ORIENTED_EDGE('',*,*,#515,.T.);
#515 = EDGE_CURVE('',#483,#516,#518,.T.);
#516 = VERTEX_POINT('',#517);
#517 = CARTESIAN_POINT('',(13.60025477707,1.537028313743,5.977233225169)
  );
#518 = B_SPLINE_CURVE_WITH_KNOTS('',2,(#519,#520,#521),.UNSPECIFIED.,.F.
  ,.F.,(3,3),(0.,1.),.PIECEWISE_BEZIER_KNOTS.);
#519 = CARTESIAN_POINT('',(14.741146496815,1.362576255925,5.497930135535
    ));
#520 = CARTESIAN_POINT('',(14.08,1.362576255925,5.497930135535));
#521 = CARTESIAN_POINT('',(13.60025477707,1.537028313743,5.977233225169)
  );
#522 = ORIENTED_EDGE('',*,*,#523,.F.);
#523 = EDGE_CURVE('',#524,#516,#526,.T.);
#524 = VERTEX_POINT('',#525);
#525 = CARTESIAN_POINT('',(13.60025477707,2.288782410372,5.703617110509)
  );
#526 = LINE('',#527,#528);
#527 = CARTESIAN_POINT('',(13.60025477707,2.288782410372,5.703617110509)
  );
#528 = VECTOR('',#529,1.);
#529 = DIRECTION('',(0.,-0.939692620786,0.342020143326));
#530 = ORIENTED_EDGE('',*,*,#531,.F.);
#531 = EDGE_CURVE('',#491,#524,#532,.T.);
#532 = B_SPLINE_CURVE_WITH_KNOTS('',2,(#533,#534,#535),.UNSPECIFIED.,.F.
  ,.F.,(3,3),(0.,1.),.PIECEWISE_BEZIER_KNOTS.);
#533 = CARTESIAN_POINT('',(14.741146496815,2.114330352553,5.224314020875
    ));
#534 = CARTESIAN_POINT('',(14.08,2.114330352553,5.224314020875));
#535 = CARTESIAN_POINT('',(13.60025477707,2.288782410372,5.703617110509)
  );
#536 = SURFACE_OF_LINEAR_EXTRUSION('',#537,#541);
#537 = B_SPLINE_CURVE_WITH_KNOTS('',2,(#538,#539,#540),.UNSPECIFIED.,.F.
  ,.F.,(3,3),(0.,1.),.PIECEWISE_BEZIER_KNOTS.);
#538 = CARTESIAN_POINT('',(14.741146496815,2.114330352553,5.224314020875
    ));
#539 = CARTESIAN_POINT('',(14.08,2.114330352553,5.224314020875));
#540 = CARTESIAN_POINT('',(13.60025477707,2.288782410372,5.703617110509)
  );
#541 = VECTOR('',#542,1.);
#542 = DIRECTION('',(-0.,0.939692620786,-0.342020143326));
#543 = ADVANCED_FACE('',(#544),#569,.T.);
#544 = FACE_BOUND('',#545,.T.);
#545 = EDGE_LOOP('',(#546,#547,#555,#563));
#546 = ORIENTED_EDGE('',*,*,#523,.T.);
#547 = ORIENTED_EDGE('',*,*,#548,.T.);
#548 = EDGE_CURVE('',#516,#549,#551,.T.);
#549 = VERTEX_POINT('',#550);
#550 = CARTESIAN_POINT('',(13.12076433121,1.991283347414,7.225288672853)
  );
#551 = B_SPLINE_CURVE_WITH_KNOTS('',2,(#552,#553,#554),.UNSPECIFIED.,.F.
  ,.F.,(3,3),(0.,1.),.PIECEWISE_BEZIER_KNOTS.);
#552 = CARTESIAN_POINT('',(13.60025477707,1.537028313743,5.977233225169)
  );
#553 = CARTESIAN_POINT('',(13.12076433121,1.711567510452,6.456775726936)
  );
#554 = CARTESIAN_POINT('',(13.12076433121,1.991283347414,7.225288672853)
  );
#555 = ORIENTED_EDGE('',*,*,#556,.F.);
#556 = EDGE_CURVE('',#557,#549,#559,.T.);
#557 = VERTEX_POINT('',#558);
#558 = CARTESIAN_POINT('',(13.12076433121,2.743037444042,6.951672558192)
  );
#559 = LINE('',#560,#561);
#560 = CARTESIAN_POINT('',(13.12076433121,2.743037444042,6.951672558192)
  );
#561 = VECTOR('',#562,1.);
#562 = DIRECTION('',(0.,-0.939692620786,0.342020143326));
#563 = ORIENTED_EDGE('',*,*,#564,.F.);
#564 = EDGE_CURVE('',#524,#557,#565,.T.);
#565 = B_SPLINE_CURVE_WITH_KNOTS('',2,(#566,#567,#568),.UNSPECIFIED.,.F.
  ,.F.,(3,3),(0.,1.),.PIECEWISE_BEZIER_KNOTS.);
#566 = CARTESIAN_POINT('',(13.60025477707,2.288782410372,5.703617110509)
  );
#567 = CARTESIAN_POINT('',(13.12076433121,2.46332160708,6.183159612276)
  );
#568 = CARTESIAN_POINT('',(13.12076433121,2.743037444042,6.951672558192)
  );
#569 = SURFACE_OF_LINEAR_EXTRUSION('',#570,#574);
#570 = B_SPLINE_CURVE_WITH_KNOTS('',2,(#571,#572,#573),.UNSPECIFIED.,.F.
  ,.F.,(3,3),(0.,1.),.PIECEWISE_BEZIER_KNOTS.);
#571 = CARTESIAN_POINT('',(13.60025477707,2.288782410372,5.703617110509)
  );
#572 = CARTESIAN_POINT('',(13.12076433121,2.46332160708,6.183159612276)
  );
#573 = CARTESIAN_POINT('',(13.12076433121,2.743037444042,6.951672558192)
  );
#574 = VECTOR('',#575,1.);
#575 = DIRECTION('',(-0.,0.939692620786,-0.342020143326));
#576 = ADVANCED_FACE('',(#577),#602,.T.);
#577 = FACE_BOUND('',#578,.T.);
#578 = EDGE_LOOP('',(#579,#580,#588,#596));
#579 = ORIENTED_EDGE('',*,*,#556,.T.);
#580 = ORIENTED_EDGE('',*,*,#581,.T.);
#581 = EDGE_CURVE('',#549,#582,#584,.T.);
#582 = VERTEX_POINT('',#583);
#583 = CARTESIAN_POINT('',(13.627006369427,2.461223381288,8.516438304419
    ));
#584 = B_SPLINE_CURVE_WITH_KNOTS('',2,(#585,#586,#587),.UNSPECIFIED.,.F.
  ,.F.,(3,3),(0.,1.),.PIECEWISE_BEZIER_KNOTS.);
#585 = CARTESIAN_POINT('',(13.12076433121,1.991283347414,7.225288672853)
  );
#586 = CARTESIAN_POINT('',(13.12076433121,2.282850073418,8.026361668814)
  );
#587 = CARTESIAN_POINT('',(13.627006369427,2.461223381288,8.516438304419
    ));
#588 = ORIENTED_EDGE('',*,*,#589,.F.);
#589 = EDGE_CURVE('',#590,#582,#592,.T.);
#590 = VERTEX_POINT('',#591);
#591 = CARTESIAN_POINT('',(13.627006369427,3.212977477916,8.242822189759
    ));
#592 = LINE('',#593,#594);
#593 = CARTESIAN_POINT('',(13.627006369427,3.212977477916,8.242822189759
    ));
#594 = VECTOR('',#595,1.);
#595 = DIRECTION('',(0.,-0.939692620786,0.342020143326));
#596 = ORIENTED_EDGE('',*,*,#597,.F.);
#597 = EDGE_CURVE('',#557,#590,#598,.T.);
#598 = B_SPLINE_CURVE_WITH_KNOTS('',2,(#599,#600,#601),.UNSPECIFIED.,.F.
  ,.F.,(3,3),(0.,1.),.PIECEWISE_BEZIER_KNOTS.);
#599 = CARTESIAN_POINT('',(13.12076433121,2.743037444042,6.951672558192)
  );
#600 = CARTESIAN_POINT('',(13.12076433121,3.034604170047,7.752745554154)
  );
#601 = CARTESIAN_POINT('',(13.627006369427,3.212977477916,8.242822189759
    ));
#602 = SURFACE_OF_LINEAR_EXTRUSION('',#603,#607);
#603 = B_SPLINE_CURVE_WITH_KNOTS('',2,(#604,#605,#606),.UNSPECIFIED.,.F.
  ,.F.,(3,3),(0.,1.),.PIECEWISE_BEZIER_KNOTS.);
#604 = CARTESIAN_POINT('',(13.12076433121,2.743037444042,6.951672558192)
  );
#605 = CARTESIAN_POINT('',(13.12076433121,3.034604170047,7.752745554154)
  );
#606 = CARTESIAN_POINT('',(13.627006369427,3.212977477916,8.242822189759
    ));
#607 = VECTOR('',#608,1.);
#608 = DIRECTION('',(-0.,0.939692620786,-0.342020143326));
#609 = ADVANCED_FACE('',(#610),#635,.T.);
#610 = FACE_BOUND('',#611,.T.);
#611 = EDGE_LOOP('',(#612,#613,#621,#629));
#612 = ORIENTED_EDGE('',*,*,#589,.T.);
#613 = ORIENTED_EDGE('',*,*,#614,.T.);
#614 = EDGE_CURVE('',#582,#615,#617,.T.);
#615 = VERTEX_POINT('',#616);
#616 = CARTESIAN_POINT('',(14.916942675159,2.639683828047,9.006754352157
    ));
#617 = B_SPLINE_CURVE_WITH_KNOTS('',2,(#618,#619,#620),.UNSPECIFIED.,.F.
  ,.F.,(3,3),(0.,1.),.PIECEWISE_BEZIER_KNOTS.);
#618 = CARTESIAN_POINT('',(13.627006369427,2.461223381288,8.516438304419
    ));
#619 = CARTESIAN_POINT('',(14.133503184713,2.639683828047,9.006754352157
    ));
#620 = CARTESIAN_POINT('',(14.916942675159,2.639683828047,9.006754352157
    ));
#621 = ORIENTED_EDGE('',*,*,#622,.F.);
#622 = EDGE_CURVE('',#623,#615,#625,.T.);
#623 = VERTEX_POINT('',#624);
#624 = CARTESIAN_POINT('',(14.916942675159,3.391437924676,8.733138237496
    ));
#625 = LINE('',#626,#627);
#626 = CARTESIAN_POINT('',(14.916942675159,3.391437924676,8.733138237496
    ));
#627 = VECTOR('',#628,1.);
#628 = DIRECTION('',(0.,-0.939692620786,0.342020143326));
#629 = ORIENTED_EDGE('',*,*,#630,.F.);
#630 = EDGE_CURVE('',#590,#623,#631,.T.);
#631 = B_SPLINE_CURVE_WITH_KNOTS('',2,(#632,#633,#634),.UNSPECIFIED.,.F.
  ,.F.,(3,3),(0.,1.),.PIECEWISE_BEZIER_KNOTS.);
#632 = CARTESIAN_POINT('',(13.627006369427,3.212977477916,8.242822189759
    ));
#633 = CARTESIAN_POINT('',(14.133503184713,3.391437924676,8.733138237496
    ));
#634 = CARTESIAN_POINT('',(14.916942675159,3.391437924676,8.733138237496
    ));
#635 = SURFACE_OF_LINEAR_EXTRUSION('',#636,#640);
#636 = B_SPLINE_CURVE_WITH_KNOTS('',2,(#637,#638,#639),.UNSPECIFIED.,.F.
  ,.F.,(3,3),(0.,1.),.PIECEWISE_BEZIER_KNOTS.);
#637 = CARTESIAN_POINT('',(13.627006369427,3.212977477916,8.242822189759
    ));
#638 = CARTESIAN_POINT('',(14.133503184713,3.391437924676,8.733138237496
    ));
#639 = CARTESIAN_POINT('',(14.916942675159,3.391437924676,8.733138237496
    ));
#640 = VECTOR('',#641,1.);
#641 = DIRECTION('',(-0.,0.939692620786,-0.342020143326));
#642 = ADVANCED_FACE('',(#643),#668,.T.);
#643 = FACE_BOUND('',#644,.T.);
#644 = EDGE_LOOP('',(#645,#646,#654,#662));
#645 = ORIENTED_EDGE('',*,*,#622,.T.);
#646 = ORIENTED_EDGE('',*,*,#647,.T.);
#647 = EDGE_CURVE('',#615,#648,#650,.T.);
#648 = VERTEX_POINT('',#649);
#649 = CARTESIAN_POINT('',(16.315668789809,2.413645547337,8.385719279974
    ));
#650 = B_SPLINE_CURVE_WITH_KNOTS('',2,(#651,#652,#653),.UNSPECIFIED.,.F.
  ,.F.,(3,3),(0.,1.),.PIECEWISE_BEZIER_KNOTS.);
#651 = CARTESIAN_POINT('',(14.916942675159,2.639683828047,9.006754352157
    ));
#652 = CARTESIAN_POINT('',(15.769171974522,2.639683828047,9.006754352157
    ));
#653 = CARTESIAN_POINT('',(16.315668789809,2.413645547337,8.385719279974
    ));
#654 = ORIENTED_EDGE('',*,*,#655,.F.);
#655 = EDGE_CURVE('',#656,#648,#658,.T.);
#656 = VERTEX_POINT('',#657);
#657 = CARTESIAN_POINT('',(16.315668789809,3.165399643966,8.112103165313
    ));
#658 = LINE('',#659,#660);
#659 = CARTESIAN_POINT('',(16.315668789809,3.165399643966,8.112103165313
    ));
#660 = VECTOR('',#661,1.);
#661 = DIRECTION('',(0.,-0.939692620786,0.342020143326));
#662 = ORIENTED_EDGE('',*,*,#663,.F.);
#663 = EDGE_CURVE('',#623,#656,#664,.T.);
#664 = B_SPLINE_CURVE_WITH_KNOTS('',2,(#665,#666,#667),.UNSPECIFIED.,.F.
  ,.F.,(3,3),(0.,1.),.PIECEWISE_BEZIER_KNOTS.);
#665 = CARTESIAN_POINT('',(14.916942675159,3.391437924676,8.733138237496
    ));
#666 = CARTESIAN_POINT('',(15.769171974522,3.391437924676,8.733138237496
    ));
#667 = CARTESIAN_POINT('',(16.315668789809,3.165399643966,8.112103165313
    ));
#668 = SURFACE_OF_LINEAR_EXTRUSION('',#669,#673);
#669 = B_SPLINE_CURVE_WITH_KNOTS('',2,(#670,#671,#672),.UNSPECIFIED.,.F.
  ,.F.,(3,3),(0.,1.),.PIECEWISE_BEZIER_KNOTS.);
#670 = CARTESIAN_POINT('',(14.916942675159,3.391437924676,8.733138237496
    ));
#671 = CARTESIAN_POINT('',(15.769171974522,3.391437924676,8.733138237496
    ));
#672 = CARTESIAN_POINT('',(16.315668789809,3.165399643966,8.112103165313
    ));
#673 = VECTOR('',#674,1.);
#674 = DIRECTION('',(-0.,0.939692620786,-0.342020143326));
#675 = ADVANCED_FACE('',(#676),#701,.T.);
#676 = FACE_BOUND('',#677,.T.);
#677 = EDGE_LOOP('',(#678,#679,#687,#695));
#678 = ORIENTED_EDGE('',*,*,#655,.T.);
#679 = ORIENTED_EDGE('',*,*,#680,.T.);
#680 = EDGE_CURVE('',#648,#681,#683,.T.);
#681 = VERTEX_POINT('',#682);
#682 = CARTESIAN_POINT('',(16.862165605096,1.669915121023,6.342336727513
    ));
#683 = B_SPLINE_CURVE_WITH_KNOTS('',2,(#684,#685,#686),.UNSPECIFIED.,.F.
  ,.F.,(3,3),(0.,1.),.PIECEWISE_BEZIER_KNOTS.);
#684 = CARTESIAN_POINT('',(16.315668789809,2.413645547337,8.385719279974
    ));
#685 = CARTESIAN_POINT('',(16.862165605096,2.187607266627,7.764684207791
    ));
#686 = CARTESIAN_POINT('',(16.862165605096,1.669915121023,6.342336727513
    ));
#687 = ORIENTED_EDGE('',*,*,#688,.F.);
#688 = EDGE_CURVE('',#689,#681,#691,.T.);
#689 = VERTEX_POINT('',#690);
#690 = CARTESIAN_POINT('',(16.862165605096,2.421669217651,6.068720612853
    ));
#691 = LINE('',#692,#693);
#692 = CARTESIAN_POINT('',(16.862165605096,2.421669217651,6.068720612853
    ));
#693 = VECTOR('',#694,1.);
#694 = DIRECTION('',(0.,-0.939692620786,0.342020143326));
#695 = ORIENTED_EDGE('',*,*,#696,.F.);
#696 = EDGE_CURVE('',#656,#689,#697,.T.);
#697 = B_SPLINE_CURVE_WITH_KNOTS('',2,(#698,#699,#700),.UNSPECIFIED.,.F.
  ,.F.,(3,3),(0.,1.),.PIECEWISE_BEZIER_KNOTS.);
#698 = CARTESIAN_POINT('',(16.315668789809,3.165399643966,8.112103165313
    ));
#699 = CARTESIAN_POINT('',(16.862165605096,2.939361363256,7.49106809313)
  );
#700 = CARTESIAN_POINT('',(16.862165605096,2.421669217651,6.068720612853
    ));
#701 = SURFACE_OF_LINEAR_EXTRUSION('',#702,#706);
#702 = B_SPLINE_CURVE_WITH_KNOTS('',2,(#703,#704,#705),.UNSPECIFIED.,.F.
  ,.F.,(3,3),(0.,1.),.PIECEWISE_BEZIER_KNOTS.);
#703 = CARTESIAN_POINT('',(16.315668789809,3.165399643966,8.112103165313
    ));
#704 = CARTESIAN_POINT('',(16.862165605096,2.939361363256,7.49106809313)
  );
#705 = CARTESIAN_POINT('',(16.862165605096,2.421669217651,6.068720612853
    ));
#706 = VECTOR('',#707,1.);
#707 = DIRECTION('',(-0.,0.939692620786,-0.342020143326));
#708 = ADVANCED_FACE('',(#709),#734,.T.);
#709 = FACE_BOUND('',#710,.T.);
#710 = EDGE_LOOP('',(#711,#712,#720,#728));
#711 = ORIENTED_EDGE('',*,*,#688,.T.);
#712 = ORIENTED_EDGE('',*,*,#713,.T.);
#713 = EDGE_CURVE('',#681,#714,#716,.T.);
#714 = VERTEX_POINT('',#715);
#715 = CARTESIAN_POINT('',(16.292738853503,0.909889722274,4.254184106241
    ));
#716 = B_SPLINE_CURVE_WITH_KNOTS('',2,(#717,#718,#719),.UNSPECIFIED.,.F.
  ,.F.,(3,3),(0.,1.),.PIECEWISE_BEZIER_KNOTS.);
#717 = CARTESIAN_POINT('',(16.862165605096,1.669915121023,6.342336727513
    ));
#718 = CARTESIAN_POINT('',(16.862165605096,1.143160530856,4.895090385436
    ));
#719 = CARTESIAN_POINT('',(16.292738853503,0.909889722274,4.254184106241
    ));
#720 = ORIENTED_EDGE('',*,*,#721,.F.);
#721 = EDGE_CURVE('',#722,#714,#724,.T.);
#722 = VERTEX_POINT('',#723);
#723 = CARTESIAN_POINT('',(16.292738853503,1.661643818903,3.98056799158)
  );
#724 = LINE('',#725,#726);
#725 = CARTESIAN_POINT('',(16.292738853503,1.661643818903,3.98056799158)
  );
#726 = VECTOR('',#727,1.);
#727 = DIRECTION('',(0.,-0.939692620786,0.342020143326));
#728 = ORIENTED_EDGE('',*,*,#729,.F.);
#729 = EDGE_CURVE('',#689,#722,#730,.T.);
#730 = B_SPLINE_CURVE_WITH_KNOTS('',2,(#731,#732,#733),.UNSPECIFIED.,.F.
  ,.F.,(3,3),(0.,1.),.PIECEWISE_BEZIER_KNOTS.);
#731 = CARTESIAN_POINT('',(16.862165605096,2.421669217651,6.068720612853
    ));
#732 = CARTESIAN_POINT('',(16.862165605096,1.894914627485,4.621474270776
    ));
#733 = CARTESIAN_POINT('',(16.292738853503,1.661643818903,3.98056799158)
  );
#734 = SURFACE_OF_LINEAR_EXTRUSION('',#735,#739);
#735 = B_SPLINE_CURVE_WITH_KNOTS('',2,(#736,#737,#738),.UNSPECIFIED.,.F.
  ,.F.,(3,3),(0.,1.),.PIECEWISE_BEZIER_KNOTS.);
#736 = CARTESIAN_POINT('',(16.862165605096,2.421669217651,6.068720612853
    ));
#737 = CARTESIAN_POINT('',(16.862165605096,1.894914627485,4.621474270776
    ));
#738 = CARTESIAN_POINT('',(16.292738853503,1.661643818903,3.98056799158)
  );
#739 = VECTOR('',#740,1.);
#740 = DIRECTION('',(-0.,0.939692620786,-0.342020143326));
#741 = ADVANCED_FACE('',(#742),#767,.T.);
#742 = FACE_BOUND('',#743,.T.);
#743 = EDGE_LOOP('',(#744,#745,#753,#761));
#744 = ORIENTED_EDGE('',*,*,#721,.T.);
#745 = ORIENTED_EDGE('',*,*,#746,.T.);
#746 = EDGE_CURVE('',#714,#747,#749,.T.);
#747 = VERTEX_POINT('',#748);
#748 = CARTESIAN_POINT('',(14.809936305732,0.676618913693,3.613277827045
    ));
#749 = B_SPLINE_CURVE_WITH_KNOTS('',2,(#750,#751,#752),.UNSPECIFIED.,.F.
  ,.F.,(3,3),(0.,1.),.PIECEWISE_BEZIER_KNOTS.);
#750 = CARTESIAN_POINT('',(16.292738853503,0.909889722274,4.254184106241
    ));
#751 = CARTESIAN_POINT('',(15.723312101911,0.676618913693,3.613277827045
    ));
#752 = CARTESIAN_POINT('',(14.809936305732,0.676618913693,3.613277827045
    ));
#753 = ORIENTED_EDGE('',*,*,#754,.F.);
#754 = EDGE_CURVE('',#755,#747,#757,.T.);
#755 = VERTEX_POINT('',#756);
#756 = CARTESIAN_POINT('',(14.809936305732,1.428373010321,3.339661712384
    ));
#757 = LINE('',#758,#759);
#758 = CARTESIAN_POINT('',(14.809936305732,1.428373010321,3.339661712384
    ));
#759 = VECTOR('',#760,1.);
#760 = DIRECTION('',(0.,-0.939692620786,0.342020143326));
#761 = ORIENTED_EDGE('',*,*,#762,.F.);
#762 = EDGE_CURVE('',#722,#755,#763,.T.);
#763 = B_SPLINE_CURVE_WITH_KNOTS('',2,(#764,#765,#766),.UNSPECIFIED.,.F.
  ,.F.,(3,3),(0.,1.),.PIECEWISE_BEZIER_KNOTS.);
#764 = CARTESIAN_POINT('',(16.292738853503,1.661643818903,3.98056799158)
  );
#765 = CARTESIAN_POINT('',(15.723312101911,1.428373010321,3.339661712384
    ));
#766 = CARTESIAN_POINT('',(14.809936305732,1.428373010321,3.339661712384
    ));
#767 = SURFACE_OF_LINEAR_EXTRUSION('',#768,#772);
#768 = B_SPLINE_CURVE_WITH_KNOTS('',2,(#769,#770,#771),.UNSPECIFIED.,.F.
  ,.F.,(3,3),(0.,1.),.PIECEWISE_BEZIER_KNOTS.);
#769 = CARTESIAN_POINT('',(16.292738853503,1.661643818903,3.98056799158)
  );
#770 = CARTESIAN_POINT('',(15.723312101911,1.428373010321,3.339661712384
    ));
#771 = CARTESIAN_POINT('',(14.809936305732,1.428373010321,3.339661712384
    ));
#772 = VECTOR('',#773,1.);
#773 = DIRECTION('',(-0.,0.939692620786,-0.342020143326));
#774 = ADVANCED_FACE('',(#775),#800,.T.);
#775 = FACE_BOUND('',#776,.T.);
#776 = EDGE_LOOP('',(#777,#778,#786,#794));
#777 = ORIENTED_EDGE('',*,*,#754,.T.);
#778 = ORIENTED_EDGE('',*,*,#779,.T.);
#779 = EDGE_CURVE('',#747,#780,#782,.T.);
#780 = VERTEX_POINT('',#781);
#781 = CARTESIAN_POINT('',(13.747515923567,0.796870581919,3.943666570149
    ));
#782 = B_SPLINE_CURVE_WITH_KNOTS('',2,(#783,#784,#785),.UNSPECIFIED.,.F.
  ,.F.,(3,3),(0.,1.),.PIECEWISE_BEZIER_KNOTS.);
#783 = CARTESIAN_POINT('',(14.809936305732,0.676618913693,3.613277827045
    ));
#784 = CARTESIAN_POINT('',(14.152611464968,0.676618913693,3.613277827045
    ));
#785 = CARTESIAN_POINT('',(13.747515923567,0.796870581919,3.943666570149
    ));
#786 = ORIENTED_EDGE('',*,*,#787,.F.);
#787 = EDGE_CURVE('',#788,#780,#790,.T.);
#788 = VERTEX_POINT('',#789);
#789 = CARTESIAN_POINT('',(13.747515923567,1.548624678548,3.670050455488
    ));
#790 = LINE('',#791,#792);
#791 = CARTESIAN_POINT('',(13.747515923567,1.548624678548,3.670050455488
    ));
#792 = VECTOR('',#793,1.);
#793 = DIRECTION('',(0.,-0.939692620786,0.342020143326));
#794 = ORIENTED_EDGE('',*,*,#795,.F.);
#795 = EDGE_CURVE('',#755,#788,#796,.T.);
#796 = B_SPLINE_CURVE_WITH_KNOTS('',2,(#797,#798,#799),.UNSPECIFIED.,.F.
  ,.F.,(3,3),(0.,1.),.PIECEWISE_BEZIER_KNOTS.);
#797 = CARTESIAN_POINT('',(14.809936305732,1.428373010321,3.339661712384
    ));
#798 = CARTESIAN_POINT('',(14.152611464968,1.428373010321,3.339661712384
    ));
#799 = CARTESIAN_POINT('',(13.747515923567,1.548624678548,3.670050455488
    ));
#800 = SURFACE_OF_LINEAR_EXTRUSION('',#801,#805);
#801 = B_SPLINE_CURVE_WITH_KNOTS('',2,(#802,#803,#804),.UNSPECIFIED.,.F.
  ,.F.,(3,3),(0.,1.),.PIECEWISE_BEZIER_KNOTS.);
#802 = CARTESIAN_POINT('',(14.809936305732,1.428373010321,3.339661712384
    ));
#803 = CARTESIAN_POINT('',(14.152611464968,1.428373010321,3.339661712384
    ));
#804 = CARTESIAN_POINT('',(13.747515923567,1.548624678548,3.670050455488
    ));
#805 = VECTOR('',#806,1.);
#806 = DIRECTION('',(-0.,0.939692620786,-0.342020143326));
#807 = ADVANCED_FACE('',(#808),#824,.T.);
#808 = FACE_BOUND('',#809,.T.);
#809 = EDGE_LOOP('',(#810,#811,#817,#818));
#810 = ORIENTED_EDGE('',*,*,#787,.T.);
#811 = ORIENTED_EDGE('',*,*,#812,.T.);
#812 = EDGE_CURVE('',#780,#312,#813,.T.);
#813 = B_SPLINE_CURVE_WITH_KNOTS('',2,(#814,#815,#816),.UNSPECIFIED.,.F.
  ,.F.,(3,3),(0.,1.),.PIECEWISE_BEZIER_KNOTS.);
#814 = CARTESIAN_POINT('',(13.747515923567,0.796870581919,3.943666570149
    ));
#815 = CARTESIAN_POINT('',(13.342420382166,0.917122250146,4.274055313253
    ));
#816 = CARTESIAN_POINT('',(13.227770700637,1.156231364359,4.931002205339
    ));
#817 = ORIENTED_EDGE('',*,*,#309,.F.);
#818 = ORIENTED_EDGE('',*,*,#819,.F.);
#819 = EDGE_CURVE('',#788,#310,#820,.T.);
#820 = B_SPLINE_CURVE_WITH_KNOTS('',2,(#821,#822,#823),.UNSPECIFIED.,.F.
  ,.F.,(3,3),(0.,1.),.PIECEWISE_BEZIER_KNOTS.);
#821 = CARTESIAN_POINT('',(13.747515923567,1.548624678548,3.670050455488
    ));
#822 = CARTESIAN_POINT('',(13.342420382166,1.668876346775,4.000439198593
    ));
#823 = CARTESIAN_POINT('',(13.227770700637,1.907985460988,4.657386090679
    ));
#824 = SURFACE_OF_LINEAR_EXTRUSION('',#825,#829);
#825 = B_SPLINE_CURVE_WITH_KNOTS('',2,(#826,#827,#828),.UNSPECIFIED.,.F.
  ,.F.,(3,3),(0.,1.),.PIECEWISE_BEZIER_KNOTS.);
#826 = CARTESIAN_POINT('',(13.747515923567,1.548624678548,3.670050455488
    ));
#827 = CARTESIAN_POINT('',(13.342420382166,1.668876346775,4.000439198593
    ));
#828 = CARTESIAN_POINT('',(13.227770700637,1.907985460988,4.657386090679
    ));
#829 = VECTOR('',#830,1.);
#830 = DIRECTION('',(-0.,0.939692620786,-0.342020143326));
#831 = ADVANCED_FACE('',(#832),#850,.F.);
#832 = FACE_BOUND('',#833,.T.);
#833 = EDGE_LOOP('',(#834,#835,#836,#837,#838,#839,#840,#841,#842,#843,
    #844,#845,#846,#847,#848,#849));
#834 = ORIENTED_EDGE('',*,*,#335,.T.);
#835 = ORIENTED_EDGE('',*,*,#366,.T.);
#836 = ORIENTED_EDGE('',*,*,#399,.T.);
#837 = ORIENTED_EDGE('',*,*,#432,.T.);
#838 = ORIENTED_EDGE('',*,*,#465,.T.);
#839 = ORIENTED_EDGE('',*,*,#498,.T.);
#840 = ORIENTED_EDGE('',*,*,#531,.T.);
#841 = ORIENTED_EDGE('',*,*,#564,.T.);
#842 = ORIENTED_EDGE('',*,*,#597,.T.);
#843 = ORIENTED_EDGE('',*,*,#630,.T.);
#844 = ORIENTED_EDGE('',*,*,#663,.T.);
#845 = ORIENTED_EDGE('',*,*,#696,.T.);
#846 = ORIENTED_EDGE('',*,*,#729,.T.);
#847 = ORIENTED_EDGE('',*,*,#762,.T.);
#848 = ORIENTED_EDGE('',*,*,#795,.T.);
#849 = ORIENTED_EDGE('',*,*,#819,.T.);
#850 = PLANE('',#851);
#851 = AXIS2_PLACEMENT_3D('',#852,#853,#854);
#852 = CARTESIAN_POINT('',(14.969885487466,2.305810410493,5.750401156341
    ));
#853 = DIRECTION('',(0.,-0.939692620786,0.342020143326));
#854 = DIRECTION('',(1.,0.,0.));
#855 = ADVANCED_FACE('',(#856),#874,.T.);
#856 = FACE_BOUND('',#857,.F.);
#857 = EDGE_LOOP('',(#858,#859,#860,#861,#862,#863,#864,#865,#866,#867,
    #868,#869,#870,#871,#872,#873));
#858 = ORIENTED_EDGE('',*,*,#319,.T.);
#859 = ORIENTED_EDGE('',*,*,#350,.T.);
#860 = ORIENTED_EDGE('',*,*,#383,.T.);
#861 = ORIENTED_EDGE('',*,*,#416,.T.);
#862 = ORIENTED_EDGE('',*,*,#449,.T.);
#863 = ORIENTED_EDGE('',*,*,#482,.T.);
#864 = ORIENTED_EDGE('',*,*,#515,.T.);
#865 = ORIENTED_EDGE('',*,*,#548,.T.);
#866 = ORIENTED_EDGE('',*,*,#581,.T.);
#867 = ORIENTED_EDGE('',*,*,#614,.T.);
#868 = ORIENTED_EDGE('',*,*,#647,.T.);
#869 = ORIENTED_EDGE('',*,*,#680,.T.);
#870 = ORIENTED_EDGE('',*,*,#713,.T.);
#871 = ORIENTED_EDGE('',*,*,#746,.T.);
#872 = ORIENTED_EDGE('',*,*,#779,.T.);
#873 = ORIENTED_EDGE('',*,*,#812,.T.);
#874 = PLANE('',#875);
#875 = AXIS2_PLACEMENT_3D('',#876,#877,#878);
#876 = CARTESIAN_POINT('',(14.969885487466,1.554056313865,6.024017271002
    ));
#877 = DIRECTION('',(0.,-0.939692620786,0.342020143326));
#878 = DIRECTION('',(1.,0.,0.));
#879 = MANIFOLD_SOLID_BREP('',#880);
#880 = CLOSED_SHELL('',(#881,#923,#956,#989,#1022,#1055,#1088,#1121,
    #1145,#1161));
#881 = ADVANCED_FACE('',(#882),#916,.F.);
#882 = FACE_BOUND('',#883,.F.);
#883 = EDGE_LOOP('',(#884,#894,#902,#910));
#884 = ORIENTED_EDGE('',*,*,#885,.T.);
#885 = EDGE_CURVE('',#886,#888,#890,.T.);
#886 = VERTEX_POINT('',#887);
#887 = CARTESIAN_POINT('',(15.658343949045,2.711144610295,6.86404771763)
  );
#888 = VERTEX_POINT('',#889);
#889 = CARTESIAN_POINT('',(15.658343949045,1.959390513667,7.13766383229)
  );
#890 = LINE('',#891,#892);
#891 = CARTESIAN_POINT('',(15.658343949045,2.711144610295,6.86404771763)
  );
#892 = VECTOR('',#893,1.);
#893 = DIRECTION('',(0.,-0.939692620786,0.342020143326));
#894 = ORIENTED_EDGE('',*,*,#895,.T.);
#895 = EDGE_CURVE('',#888,#896,#898,.T.);
#896 = VERTEX_POINT('',#897);
#897 = CARTESIAN_POINT('',(15.419363057325,2.235010822798,7.894924407971
    ));
#898 = B_SPLINE_CURVE_WITH_KNOTS('',2,(#899,#900,#901),.UNSPECIFIED.,.F.
  ,.F.,(3,3),(0.,1.),.PIECEWISE_BEZIER_KNOTS.);
#899 = CARTESIAN_POINT('',(15.658343949045,1.959390513667,7.13766383229)
  );
#900 = CARTESIAN_POINT('',(15.658343949045,2.137066710416,7.625825170834
    ));
#901 = CARTESIAN_POINT('',(15.419363057325,2.235010822798,7.894924407971
    ));
#902 = ORIENTED_EDGE('',*,*,#903,.F.);
#903 = EDGE_CURVE('',#904,#896,#906,.T.);
#904 = VERTEX_POINT('',#905);
#905 = CARTESIAN_POINT('',(15.419363057325,2.986764919426,7.62130829331)
  );
#906 = LINE('',#907,#908);
#907 = CARTESIAN_POINT('',(15.419363057325,2.986764919426,7.62130829331)
  );
#908 = VECTOR('',#909,1.);
#909 = DIRECTION('',(0.,-0.939692620786,0.342020143326));
#910 = ORIENTED_EDGE('',*,*,#911,.F.);
#911 = EDGE_CURVE('',#886,#904,#912,.T.);
#912 = B_SPLINE_CURVE_WITH_KNOTS('',2,(#913,#914,#915),.UNSPECIFIED.,.F.
  ,.F.,(3,3),(0.,1.),.PIECEWISE_BEZIER_KNOTS.);
#913 = CARTESIAN_POINT('',(15.658343949045,2.711144610295,6.86404771763)
  );
#914 = CARTESIAN_POINT('',(15.658343949045,2.888820807045,7.352209056173
    ));
#915 = CARTESIAN_POINT('',(15.419363057325,2.986764919426,7.62130829331)
  );
#916 = SURFACE_OF_LINEAR_EXTRUSION('',#917,#921);
#917 = B_SPLINE_CURVE_WITH_KNOTS('',2,(#918,#919,#920),.UNSPECIFIED.,.F.
  ,.F.,(3,3),(0.,1.),.PIECEWISE_BEZIER_KNOTS.);
#918 = CARTESIAN_POINT('',(15.658343949045,2.711144610295,6.86404771763)
  );
#919 = CARTESIAN_POINT('',(15.658343949045,2.888820807045,7.352209056173
    ));
#920 = CARTESIAN_POINT('',(15.419363057325,2.986764919426,7.62130829331)
  );
#921 = VECTOR('',#922,1.);
#922 = DIRECTION('',(-0.,0.939692620786,-0.342020143326));
#923 = ADVANCED_FACE('',(#924),#949,.F.);
#924 = FACE_BOUND('',#925,.F.);
#925 = EDGE_LOOP('',(#926,#927,#935,#943));
#926 = ORIENTED_EDGE('',*,*,#903,.T.);
#927 = ORIENTED_EDGE('',*,*,#928,.T.);
#928 = EDGE_CURVE('',#896,#929,#931,.T.);
#929 = VERTEX_POINT('',#930);
#930 = CARTESIAN_POINT('',(14.867261146497,2.332954935179,8.164023645108
    ));
#931 = B_SPLINE_CURVE_WITH_KNOTS('',2,(#932,#933,#934),.UNSPECIFIED.,.F.
  ,.F.,(3,3),(0.,1.),.PIECEWISE_BEZIER_KNOTS.);
#932 = CARTESIAN_POINT('',(15.419363057325,2.235010822798,7.894924407971
    ));
#933 = CARTESIAN_POINT('',(15.180636942675,2.332954935179,8.164023645108
    ));
#934 = CARTESIAN_POINT('',(14.867261146497,2.332954935179,8.164023645108
    ));
#935 = ORIENTED_EDGE('',*,*,#936,.F.);
#936 = EDGE_CURVE('',#937,#929,#939,.T.);
#937 = VERTEX_POINT('',#938);
#938 = CARTESIAN_POINT('',(14.867261146497,3.084709031808,7.890407530447
    ));
#939 = LINE('',#940,#941);
#940 = CARTESIAN_POINT('',(14.867261146497,3.084709031808,7.890407530447
    ));
#941 = VECTOR('',#942,1.);
#942 = DIRECTION('',(0.,-0.939692620786,0.342020143326));
#943 = ORIENTED_EDGE('',*,*,#944,.F.);
#944 = EDGE_CURVE('',#904,#937,#945,.T.);
#945 = B_SPLINE_CURVE_WITH_KNOTS('',2,(#946,#947,#948),.UNSPECIFIED.,.F.
  ,.F.,(3,3),(0.,1.),.PIECEWISE_BEZIER_KNOTS.);
#946 = CARTESIAN_POINT('',(15.419363057325,2.986764919426,7.62130829331)
  );
#947 = CARTESIAN_POINT('',(15.180636942675,3.084709031808,7.890407530447
    ));
#948 = CARTESIAN_POINT('',(14.867261146497,3.084709031808,7.890407530447
    ));
#949 = SURFACE_OF_LINEAR_EXTRUSION('',#950,#954);
#950 = B_SPLINE_CURVE_WITH_KNOTS('',2,(#951,#952,#953),.UNSPECIFIED.,.F.
  ,.F.,(3,3),(0.,1.),.PIECEWISE_BEZIER_KNOTS.);
#951 = CARTESIAN_POINT('',(15.419363057325,2.986764919426,7.62130829331)
  );
#952 = CARTESIAN_POINT('',(15.180636942675,3.084709031808,7.890407530447
    ));
#953 = CARTESIAN_POINT('',(14.867261146497,3.084709031808,7.890407530447
    ));
#954 = VECTOR('',#955,1.);
#955 = DIRECTION('',(-0.,0.939692620786,-0.342020143326));
#956 = ADVANCED_FACE('',(#957),#982,.F.);
#957 = FACE_BOUND('',#958,.F.);
#958 = EDGE_LOOP('',(#959,#960,#968,#976));
#959 = ORIENTED_EDGE('',*,*,#936,.T.);
#960 = ORIENTED_EDGE('',*,*,#961,.T.);
#961 = EDGE_CURVE('',#929,#962,#964,.T.);
#962 = VERTEX_POINT('',#963);
#963 = CARTESIAN_POINT('',(14.372229299363,2.252612878581,7.943285658773
    ));
#964 = B_SPLINE_CURVE_WITH_KNOTS('',2,(#965,#966,#967),.UNSPECIFIED.,.F.
  ,.F.,(3,3),(0.,1.),.PIECEWISE_BEZIER_KNOTS.);
#965 = CARTESIAN_POINT('',(14.867261146497,2.332954935179,8.164023645108
    ));
#966 = CARTESIAN_POINT('',(14.569171974522,2.332954935179,8.164023645108
    ));
#967 = CARTESIAN_POINT('',(14.372229299363,2.252612878581,7.943285658773
    ));
#968 = ORIENTED_EDGE('',*,*,#969,.F.);
#969 = EDGE_CURVE('',#970,#962,#972,.T.);
#970 = VERTEX_POINT('',#971);
#971 = CARTESIAN_POINT('',(14.372229299363,3.00436697521,7.669669544112)
  );
#972 = LINE('',#973,#974);
#973 = CARTESIAN_POINT('',(14.372229299363,3.00436697521,7.669669544112)
  );
#974 = VECTOR('',#975,1.);
#975 = DIRECTION('',(0.,-0.939692620786,0.342020143326));
#976 = ORIENTED_EDGE('',*,*,#977,.F.);
#977 = EDGE_CURVE('',#937,#970,#978,.T.);
#978 = B_SPLINE_CURVE_WITH_KNOTS('',2,(#979,#980,#981),.UNSPECIFIED.,.F.
  ,.F.,(3,3),(0.,1.),.PIECEWISE_BEZIER_KNOTS.);
#979 = CARTESIAN_POINT('',(14.867261146497,3.084709031808,7.890407530447
    ));
#980 = CARTESIAN_POINT('',(14.569171974522,3.084709031808,7.890407530447
    ));
#981 = CARTESIAN_POINT('',(14.372229299363,3.00436697521,7.669669544112)
  );
#982 = SURFACE_OF_LINEAR_EXTRUSION('',#983,#987);
#983 = B_SPLINE_CURVE_WITH_KNOTS('',2,(#984,#985,#986),.UNSPECIFIED.,.F.
  ,.F.,(3,3),(0.,1.),.PIECEWISE_BEZIER_KNOTS.);
#984 = CARTESIAN_POINT('',(14.867261146497,3.084709031808,7.890407530447
    ));
#985 = CARTESIAN_POINT('',(14.569171974522,3.084709031808,7.890407530447
    ));
#986 = CARTESIAN_POINT('',(14.372229299363,3.00436697521,7.669669544112)
  );
#987 = VECTOR('',#988,1.);
#988 = DIRECTION('',(-0.,0.939692620786,-0.342020143326));
#989 = ADVANCED_FACE('',(#990),#1015,.F.);
#990 = FACE_BOUND('',#991,.F.);
#991 = EDGE_LOOP('',(#992,#993,#1001,#1009));
#992 = ORIENTED_EDGE('',*,*,#969,.T.);
#993 = ORIENTED_EDGE('',*,*,#994,.T.);
#994 = EDGE_CURVE('',#962,#995,#997,.T.);
#995 = VERTEX_POINT('',#996);
#996 = CARTESIAN_POINT('',(14.175541401274,1.989453430723,7.220261018066
    ));
#997 = B_SPLINE_CURVE_WITH_KNOTS('',2,(#998,#999,#1000),.UNSPECIFIED.,
  .F.,.F.,(3,3),(0.,1.),.PIECEWISE_BEZIER_KNOTS.);
#998 = CARTESIAN_POINT('',(14.372229299363,2.252612878581,7.943285658773
    ));
#999 = CARTESIAN_POINT('',(14.175541401274,2.172270821984,7.722547672438
    ));
#1000 = CARTESIAN_POINT('',(14.175541401274,1.989453430723,
    7.220261018066));
#1001 = ORIENTED_EDGE('',*,*,#1002,.F.);
#1002 = EDGE_CURVE('',#1003,#995,#1005,.T.);
#1003 = VERTEX_POINT('',#1004);
#1004 = CARTESIAN_POINT('',(14.175541401274,2.741207527352,
    6.946644903406));
#1005 = LINE('',#1006,#1007);
#1006 = CARTESIAN_POINT('',(14.175541401274,2.741207527352,
    6.946644903406));
#1007 = VECTOR('',#1008,1.);
#1008 = DIRECTION('',(0.,-0.939692620786,0.342020143326));
#1009 = ORIENTED_EDGE('',*,*,#1010,.F.);
#1010 = EDGE_CURVE('',#970,#1003,#1011,.T.);
#1011 = B_SPLINE_CURVE_WITH_KNOTS('',2,(#1012,#1013,#1014),
  .UNSPECIFIED.,.F.,.F.,(3,3),(0.,1.),.PIECEWISE_BEZIER_KNOTS.);
#1012 = CARTESIAN_POINT('',(14.372229299363,3.00436697521,7.669669544112
    ));
#1013 = CARTESIAN_POINT('',(14.175541401274,2.924024918612,
    7.448931557778));
#1014 = CARTESIAN_POINT('',(14.175541401274,2.741207527352,
    6.946644903406));
#1015 = SURFACE_OF_LINEAR_EXTRUSION('',#1016,#1020);
#1016 = B_SPLINE_CURVE_WITH_KNOTS('',2,(#1017,#1018,#1019),
  .UNSPECIFIED.,.F.,.F.,(3,3),(0.,1.),.PIECEWISE_BEZIER_KNOTS.);
#1017 = CARTESIAN_POINT('',(14.372229299363,3.00436697521,7.669669544112
    ));
#1018 = CARTESIAN_POINT('',(14.175541401274,2.924024918612,
    7.448931557778));
#1019 = CARTESIAN_POINT('',(14.175541401274,2.741207527352,
    6.946644903406));
#1020 = VECTOR('',#1021,1.);
#1021 = DIRECTION('',(-0.,0.939692620786,-0.342020143326));
#1022 = ADVANCED_FACE('',(#1023),#1048,.F.);
#1023 = FACE_BOUND('',#1024,.F.);
#1024 = EDGE_LOOP('',(#1025,#1026,#1034,#1042));
#1025 = ORIENTED_EDGE('',*,*,#1002,.T.);
#1026 = ORIENTED_EDGE('',*,*,#1027,.T.);
#1027 = EDGE_CURVE('',#995,#1028,#1030,.T.);
#1028 = VERTEX_POINT('',#1029);
#1029 = CARTESIAN_POINT('',(14.389554140127,1.717144399413,
    6.472098103428));
#1030 = B_SPLINE_CURVE_WITH_KNOTS('',2,(#1031,#1032,#1033),
  .UNSPECIFIED.,.F.,.F.,(3,3),(0.,1.),.PIECEWISE_BEZIER_KNOTS.);
#1031 = CARTESIAN_POINT('',(14.175541401274,1.989453430723,
    7.220261018066));
#1032 = CARTESIAN_POINT('',(14.175541401274,1.804021872762,
    6.710791999714));
#1033 = CARTESIAN_POINT('',(14.389554140127,1.717144399413,
    6.472098103428));
#1034 = ORIENTED_EDGE('',*,*,#1035,.F.);
#1035 = EDGE_CURVE('',#1036,#1028,#1038,.T.);
#1036 = VERTEX_POINT('',#1037);
#1037 = CARTESIAN_POINT('',(14.389554140127,2.468898496042,
    6.198481988767));
#1038 = LINE('',#1039,#1040);
#1039 = CARTESIAN_POINT('',(14.389554140127,2.468898496042,
    6.198481988767));
#1040 = VECTOR('',#1041,1.);
#1041 = DIRECTION('',(0.,-0.939692620786,0.342020143326));
#1042 = ORIENTED_EDGE('',*,*,#1043,.F.);
#1043 = EDGE_CURVE('',#1003,#1036,#1044,.T.);
#1044 = B_SPLINE_CURVE_WITH_KNOTS('',2,(#1045,#1046,#1047),
  .UNSPECIFIED.,.F.,.F.,(3,3),(0.,1.),.PIECEWISE_BEZIER_KNOTS.);
#1045 = CARTESIAN_POINT('',(14.175541401274,2.741207527352,
    6.946644903406));
#1046 = CARTESIAN_POINT('',(14.175541401274,2.555775969391,
    6.437175885054));
#1047 = CARTESIAN_POINT('',(14.389554140127,2.468898496042,
    6.198481988767));
#1048 = SURFACE_OF_LINEAR_EXTRUSION('',#1049,#1053);
#1049 = B_SPLINE_CURVE_WITH_KNOTS('',2,(#1050,#1051,#1052),
  .UNSPECIFIED.,.F.,.F.,(3,3),(0.,1.),.PIECEWISE_BEZIER_KNOTS.);
#1050 = CARTESIAN_POINT('',(14.175541401274,2.741207527352,
    6.946644903406));
#1051 = CARTESIAN_POINT('',(14.175541401274,2.555775969391,
    6.437175885054));
#1052 = CARTESIAN_POINT('',(14.389554140127,2.468898496042,
    6.198481988767));
#1053 = VECTOR('',#1054,1.);
#1054 = DIRECTION('',(-0.,0.939692620786,-0.342020143326));
#1055 = ADVANCED_FACE('',(#1056),#1081,.F.);
#1056 = FACE_BOUND('',#1057,.F.);
#1057 = EDGE_LOOP('',(#1058,#1059,#1067,#1075));
#1058 = ORIENTED_EDGE('',*,*,#1035,.T.);
#1059 = ORIENTED_EDGE('',*,*,#1060,.T.);
#1060 = EDGE_CURVE('',#1028,#1061,#1063,.T.);
#1061 = VERTEX_POINT('',#1062);
#1062 = CARTESIAN_POINT('',(14.924585987261,1.630266926064,
    6.233404207142));
#1063 = B_SPLINE_CURVE_WITH_KNOTS('',2,(#1064,#1065,#1066),
  .UNSPECIFIED.,.F.,.F.,(3,3),(0.,1.),.PIECEWISE_BEZIER_KNOTS.);
#1064 = CARTESIAN_POINT('',(14.389554140127,1.717144399413,
    6.472098103428));
#1065 = CARTESIAN_POINT('',(14.603566878981,1.630266926064,
    6.233404207142));
#1066 = CARTESIAN_POINT('',(14.924585987261,1.630266926064,
    6.233404207142));
#1067 = ORIENTED_EDGE('',*,*,#1068,.F.);
#1068 = EDGE_CURVE('',#1069,#1061,#1071,.T.);
#1069 = VERTEX_POINT('',#1070);
#1070 = CARTESIAN_POINT('',(14.924585987261,2.382021022692,
    5.959788092481));
#1071 = LINE('',#1072,#1073);
#1072 = CARTESIAN_POINT('',(14.924585987261,2.382021022692,
    5.959788092481));
#1073 = VECTOR('',#1074,1.);
#1074 = DIRECTION('',(0.,-0.939692620786,0.342020143326));
#1075 = ORIENTED_EDGE('',*,*,#1076,.F.);
#1076 = EDGE_CURVE('',#1036,#1069,#1077,.T.);
#1077 = B_SPLINE_CURVE_WITH_KNOTS('',2,(#1078,#1079,#1080),
  .UNSPECIFIED.,.F.,.F.,(3,3),(0.,1.),.PIECEWISE_BEZIER_KNOTS.);
#1078 = CARTESIAN_POINT('',(14.389554140127,2.468898496042,
    6.198481988767));
#1079 = CARTESIAN_POINT('',(14.603566878981,2.382021022692,
    5.959788092481));
#1080 = CARTESIAN_POINT('',(14.924585987261,2.382021022692,
    5.959788092481));
#1081 = SURFACE_OF_LINEAR_EXTRUSION('',#1082,#1086);
#1082 = B_SPLINE_CURVE_WITH_KNOTS('',2,(#1083,#1084,#1085),
  .UNSPECIFIED.,.F.,.F.,(3,3),(0.,1.),.PIECEWISE_BEZIER_KNOTS.);
#1083 = CARTESIAN_POINT('',(14.389554140127,2.468898496042,
    6.198481988767));
#1084 = CARTESIAN_POINT('',(14.603566878981,2.382021022692,
    5.959788092481));
#1085 = CARTESIAN_POINT('',(14.924585987261,2.382021022692,
    5.959788092481));
#1086 = VECTOR('',#1087,1.);
#1087 = DIRECTION('',(-0.,0.939692620786,-0.342020143326));
#1088 = ADVANCED_FACE('',(#1089),#1114,.F.);
#1089 = FACE_BOUND('',#1090,.F.);
#1090 = EDGE_LOOP('',(#1091,#1092,#1100,#1108));
#1091 = ORIENTED_EDGE('',*,*,#1068,.T.);
#1092 = ORIENTED_EDGE('',*,*,#1093,.T.);
#1093 = EDGE_CURVE('',#1061,#1094,#1096,.T.);
#1094 = VERTEX_POINT('',#1095);
#1095 = CARTESIAN_POINT('',(15.446114649682,1.713833121592,
    6.463000442386));
#1096 = B_SPLINE_CURVE_WITH_KNOTS('',2,(#1097,#1098,#1099),
  .UNSPECIFIED.,.F.,.F.,(3,3),(0.,1.),.PIECEWISE_BEZIER_KNOTS.);
#1097 = CARTESIAN_POINT('',(14.924585987261,1.630266926064,
    6.233404207142));
#1098 = CARTESIAN_POINT('',(15.234140127389,1.630266926064,
    6.233404207142));
#1099 = CARTESIAN_POINT('',(15.446114649682,1.713833121592,
    6.463000442386));
#1100 = ORIENTED_EDGE('',*,*,#1101,.F.);
#1101 = EDGE_CURVE('',#1102,#1094,#1104,.T.);
#1102 = VERTEX_POINT('',#1103);
#1103 = CARTESIAN_POINT('',(15.446114649682,2.465587218221,
    6.189384327725));
#1104 = LINE('',#1105,#1106);
#1105 = CARTESIAN_POINT('',(15.446114649682,2.465587218221,
    6.189384327725));
#1106 = VECTOR('',#1107,1.);
#1107 = DIRECTION('',(0.,-0.939692620786,0.342020143326));
#1108 = ORIENTED_EDGE('',*,*,#1109,.F.);
#1109 = EDGE_CURVE('',#1069,#1102,#1110,.T.);
#1110 = B_SPLINE_CURVE_WITH_KNOTS('',2,(#1111,#1112,#1113),
  .UNSPECIFIED.,.F.,.F.,(3,3),(0.,1.),.PIECEWISE_BEZIER_KNOTS.);
#1111 = CARTESIAN_POINT('',(14.924585987261,2.382021022692,
    5.959788092481));
#1112 = CARTESIAN_POINT('',(15.234140127389,2.382021022692,
    5.959788092481));
#1113 = CARTESIAN_POINT('',(15.446114649682,2.465587218221,
    6.189384327725));
#1114 = SURFACE_OF_LINEAR_EXTRUSION('',#1115,#1119);
#1115 = B_SPLINE_CURVE_WITH_KNOTS('',2,(#1116,#1117,#1118),
  .UNSPECIFIED.,.F.,.F.,(3,3),(0.,1.),.PIECEWISE_BEZIER_KNOTS.);
#1116 = CARTESIAN_POINT('',(14.924585987261,2.382021022692,
    5.959788092481));
#1117 = CARTESIAN_POINT('',(15.234140127389,2.382021022692,
    5.959788092481));
#1118 = CARTESIAN_POINT('',(15.446114649682,2.465587218221,
    6.189384327725));
#1119 = VECTOR('',#1120,1.);
#1120 = DIRECTION('',(-0.,0.939692620786,-0.342020143326));
#1121 = ADVANCED_FACE('',(#1122),#1138,.F.);
#1122 = FACE_BOUND('',#1123,.F.);
#1123 = EDGE_LOOP('',(#1124,#1125,#1131,#1132));
#1124 = ORIENTED_EDGE('',*,*,#1101,.T.);
#1125 = ORIENTED_EDGE('',*,*,#1126,.T.);
#1126 = EDGE_CURVE('',#1094,#888,#1127,.T.);
#1127 = B_SPLINE_CURVE_WITH_KNOTS('',2,(#1128,#1129,#1130),
  .UNSPECIFIED.,.F.,.F.,(3,3),(0.,1.),.PIECEWISE_BEZIER_KNOTS.);
#1128 = CARTESIAN_POINT('',(15.446114649682,1.713833121592,
    6.463000442386));
#1129 = CARTESIAN_POINT('',(15.658343949045,1.797486456011,
    6.692836089763));
#1130 = CARTESIAN_POINT('',(15.658343949045,1.959390513667,7.13766383229
    ));
#1131 = ORIENTED_EDGE('',*,*,#885,.F.);
#1132 = ORIENTED_EDGE('',*,*,#1133,.F.);
#1133 = EDGE_CURVE('',#1102,#886,#1134,.T.);
#1134 = B_SPLINE_CURVE_WITH_KNOTS('',2,(#1135,#1136,#1137),
  .UNSPECIFIED.,.F.,.F.,(3,3),(0.,1.),.PIECEWISE_BEZIER_KNOTS.);
#1135 = CARTESIAN_POINT('',(15.446114649682,2.465587218221,
    6.189384327725));
#1136 = CARTESIAN_POINT('',(15.658343949045,2.549240552639,
    6.419219975102));
#1137 = CARTESIAN_POINT('',(15.658343949045,2.711144610295,6.86404771763
    ));
#1138 = SURFACE_OF_LINEAR_EXTRUSION('',#1139,#1143);
#1139 = B_SPLINE_CURVE_WITH_KNOTS('',2,(#1140,#1141,#1142),
  .UNSPECIFIED.,.F.,.F.,(3,3),(0.,1.),.PIECEWISE_BEZIER_KNOTS.);
#1140 = CARTESIAN_POINT('',(15.446114649682,2.465587218221,
    6.189384327725));
#1141 = CARTESIAN_POINT('',(15.658343949045,2.549240552639,
    6.419219975102));
#1142 = CARTESIAN_POINT('',(15.658343949045,2.711144610295,6.86404771763
    ));
#1143 = VECTOR('',#1144,1.);
#1144 = DIRECTION('',(-0.,0.939692620786,-0.342020143326));
#1145 = ADVANCED_FACE('',(#1146),#1156,.T.);
#1146 = FACE_BOUND('',#1147,.F.);
#1147 = EDGE_LOOP('',(#1148,#1149,#1150,#1151,#1152,#1153,#1154,#1155));
#1148 = ORIENTED_EDGE('',*,*,#911,.T.);
#1149 = ORIENTED_EDGE('',*,*,#944,.T.);
#1150 = ORIENTED_EDGE('',*,*,#977,.T.);
#1151 = ORIENTED_EDGE('',*,*,#1010,.T.);
#1152 = ORIENTED_EDGE('',*,*,#1043,.T.);
#1153 = ORIENTED_EDGE('',*,*,#1076,.T.);
#1154 = ORIENTED_EDGE('',*,*,#1109,.T.);
#1155 = ORIENTED_EDGE('',*,*,#1133,.T.);
#1156 = PLANE('',#1157);
#1157 = AXIS2_PLACEMENT_3D('',#1158,#1159,#1160);
#1158 = CARTESIAN_POINT('',(14.907355838203,2.731899390048,
    6.921071006346));
#1159 = DIRECTION('',(-0.,0.939692620786,-0.342020143326));
#1160 = DIRECTION('',(-1.,0.,0.));
#1161 = ADVANCED_FACE('',(#1162),#1172,.F.);
#1162 = FACE_BOUND('',#1163,.T.);
#1163 = EDGE_LOOP('',(#1164,#1165,#1166,#1167,#1168,#1169,#1170,#1171));
#1164 = ORIENTED_EDGE('',*,*,#895,.T.);
#1165 = ORIENTED_EDGE('',*,*,#928,.T.);
#1166 = ORIENTED_EDGE('',*,*,#961,.T.);
#1167 = ORIENTED_EDGE('',*,*,#994,.T.);
#1168 = ORIENTED_EDGE('',*,*,#1027,.T.);
#1169 = ORIENTED_EDGE('',*,*,#1060,.T.);
#1170 = ORIENTED_EDGE('',*,*,#1093,.T.);
#1171 = ORIENTED_EDGE('',*,*,#1126,.T.);
#1172 = PLANE('',#1173);
#1173 = AXIS2_PLACEMENT_3D('',#1174,#1175,#1176);
#1174 = CARTESIAN_POINT('',(14.907355838203,1.980145293419,
    7.194687121006));
#1175 = DIRECTION('',(-0.,0.939692620786,-0.342020143326));
#1176 = DIRECTION('',(-1.,0.,0.));
#1177 = ( GEOMETRIC_REPRESENTATION_CONTEXT(3) 
GLOBAL_UNCERTAINTY_ASSIGNED_CONTEXT((#1181)) 
GLOBAL_UNIT_ASSIGNED_CONTEXT((#1178,#1179,#1180)) REPRESENTATION_CONTEXT
('Context #1','3D Context with UNIT and UNCERTAINTY') );
#1178 = ( LENGTH_UNIT() NAMED_UNIT(*) SI_UNIT(.MILLI.,.METRE.) );
#1179 = ( NAMED_UNIT(*) PLANE_ANGLE_UNIT() SI_UNIT($,.RADIAN.) );
#1180 = ( NAMED_UNIT(*) SI_UNIT($,.STERADIAN.) SOLID_ANGLE_UNIT() );
#1181 = UNCERTAINTY_MEASURE_WITH_UNIT(LENGTH_MEASURE(1.E-07),#1178,
  'distance_accuracy_value','confusion accuracy');
#1182 = PRODUCT_RELATED_PRODUCT_CATEGORY('part',$,(#7));
ENDSEC;
END-ISO-10303-21;
