ISO-10303-21;
HEADER;
FILE_DESCRIPTION(('FreeCAD Model'),'2;1');
FILE_NAME('Open CASCADE Shape Model','2026-08-30T15:30:43',('FreeCAD'),(
    'FreeCAD'),'Open CASCADE STEP processor 7.8','FreeCAD','Unknown');
FILE_SCHEMA(('AUTOMOTIVE_DESIGN { 1 0 10303 214 1 1 1 1 }'));
ENDSEC;
DATA;
#1 = APPLICATION_PROTOCOL_DEFINITION('international standard',
  'automotive_design',2000,#2);
#2 = APPLICATION_CONTEXT(
  'core data for automotive mechanical design processes');
#3 = SHAPE_DEFINITION_REPRESENTATION(#4,#10);
#4 = PRODUCT_DEFINITION_SHAPE('','',#5);
#5 = PRODUCT_DEFINITION('design','',#6,#9);
#6 = PRODUCT_DEFINITION_FORMATION('','',#7);
#7 = PRODUCT('Open CASCADE STEP translator 7.8 35',
  'Open CASCADE STEP translator 7.8 35','',(#8));
#8 = PRODUCT_CONTEXT('',#2,'mechanical');
#9 = PRODUCT_DEFINITION_CONTEXT('part definition',#2,'design');
#10 = ADVANCED_BREP_SHAPE_REPRESENTATION('',(#11,#15),#1825);
#11 = AXIS2_PLACEMENT_3D('',#12,#13,#14);
#12 = CARTESIAN_POINT('',(0.,0.,0.));
#13 = DIRECTION('',(0.,0.,1.));
#14 = DIRECTION('',(1.,0.,-0.));
#15 = MANIFOLD_SOLID_BREP('',#16);
#16 = CLOSED_SHELL('',(#17,#57,#222,#246,#334,#653,#670,#687,#704,#721,
    #738,#755,#772,#804,#828,#852,#877,#902,#926,#950,#968,#985,#1016,
    #1042,#1068,#1094,#1120,#1146,#1172,#1198,#1224,#1250,#1276,#1302,
    #1328,#1354,#1380,#1399,#1430,#1454,#1478,#1510,#1534,#1558,#1583,
    #1608,#1632,#1656,#1674,#1691,#1781,#1793,#1809));
#17 = ADVANCED_FACE('',(#18),#52,.F.);
#18 = FACE_BOUND('',#19,.F.);
#19 = EDGE_LOOP('',(#20,#30,#38,#46));
#20 = ORIENTED_EDGE('',*,*,#21,.F.);
#21 = EDGE_CURVE('',#22,#24,#26,.T.);
#22 = VERTEX_POINT('',#23);
#23 = CARTESIAN_POINT('',(0.,3.639702342662,10.));
#24 = VERTEX_POINT('',#25);
#25 = CARTESIAN_POINT('',(0.,13.75,10.));
#26 = LINE('',#27,#28);
#27 = CARTESIAN_POINT('',(0.,0.,10.));
#28 = VECTOR('',#29,1.);
#29 = DIRECTION('',(0.,1.,0.));
#30 = ORIENTED_EDGE('',*,*,#31,.T.);
#31 = EDGE_CURVE('',#22,#32,#34,.T.);
#32 = VERTEX_POINT('',#33);
#33 = CARTESIAN_POINT('',(0.,0.,0.));
#34 = LINE('',#35,#36);
#35 = CARTESIAN_POINT('',(0.,0.,0.));
#36 = VECTOR('',#37,1.);
#37 = DIRECTION('',(0.,-0.342020143326,-0.939692620786));
#38 = ORIENTED_EDGE('',*,*,#39,.T.);
#39 = EDGE_CURVE('',#32,#40,#42,.T.);
#40 = VERTEX_POINT('',#41);
#41 = CARTESIAN_POINT('',(0.,13.75,0.));
#42 = LINE('',#43,#44);
#43 = CARTESIAN_POINT('',(0.,0.,0.));
#44 = VECTOR('',#45,1.);
#45 = DIRECTION('',(0.,1.,0.));
#46 = ORIENTED_EDGE('',*,*,#47,.T.);
#47 = EDGE_CURVE('',#40,#24,#48,.T.);
#48 = LINE('',#49,#50);
#49 = CARTESIAN_POINT('',(0.,13.75,-1.));
#50 = VECTOR('',#51,1.);
#51 = DIRECTION('',(0.,0.,1.));
#52 = PLANE('',#53);
#53 = AXIS2_PLACEMENT_3D('',#54,#55,#56);
#54 = CARTESIAN_POINT('',(0.,0.,0.));
#55 = DIRECTION('',(1.,0.,0.));
#56 = DIRECTION('',(0.,0.,1.));
#57 = ADVANCED_FACE('',(#58,#147),#217,.T.);
#58 = FACE_BOUND('',#59,.T.);
#59 = EDGE_LOOP('',(#60,#61,#69,#77,#85,#93,#101,#109,#117,#125,#133,
    #141));
#60 = ORIENTED_EDGE('',*,*,#21,.F.);
#61 = ORIENTED_EDGE('',*,*,#62,.T.);
#62 = EDGE_CURVE('',#22,#63,#65,.T.);
#63 = VERTEX_POINT('',#64);
#64 = CARTESIAN_POINT('',(43.,3.639702342662,10.));
#65 = LINE('',#66,#67);
#66 = CARTESIAN_POINT('',(-1.,3.639702342662,10.));
#67 = VECTOR('',#68,1.);
#68 = DIRECTION('',(1.,0.,0.));
#69 = ORIENTED_EDGE('',*,*,#70,.T.);
#70 = EDGE_CURVE('',#63,#71,#73,.T.);
#71 = VERTEX_POINT('',#72);
#72 = CARTESIAN_POINT('',(43.,13.875609756098,10.));
#73 = LINE('',#74,#75);
#74 = CARTESIAN_POINT('',(43.,0.,10.));
#75 = VECTOR('',#76,1.);
#76 = DIRECTION('',(0.,1.,0.));
#77 = ORIENTED_EDGE('',*,*,#78,.F.);
#78 = EDGE_CURVE('',#79,#71,#81,.T.);
#79 = VERTEX_POINT('',#80);
#80 = CARTESIAN_POINT('',(42.9,13.9,10.));
#81 = LINE('',#82,#83);
#82 = CARTESIAN_POINT('',(42.9,13.9,10.));
#83 = VECTOR('',#84,1.);
#84 = DIRECTION('',(0.971520338783,-0.236956180191,0.));
#85 = ORIENTED_EDGE('',*,*,#86,.F.);
#86 = EDGE_CURVE('',#87,#79,#89,.T.);
#87 = VERTEX_POINT('',#88);
#88 = CARTESIAN_POINT('',(42.9,17.9,10.));
#89 = LINE('',#90,#91);
#90 = CARTESIAN_POINT('',(42.9,17.9,10.));
#91 = VECTOR('',#92,1.);
#92 = DIRECTION('',(0.,-1.,0.));
#93 = ORIENTED_EDGE('',*,*,#94,.F.);
#94 = EDGE_CURVE('',#95,#87,#97,.T.);
#95 = VERTEX_POINT('',#96);
#96 = CARTESIAN_POINT('',(43.,17.924390243902,10.));
#97 = LINE('',#98,#99);
#98 = CARTESIAN_POINT('',(47.,18.9,10.));
#99 = VECTOR('',#100,1.);
#100 = DIRECTION('',(-0.971520338783,-0.236956180191,0.));
#101 = ORIENTED_EDGE('',*,*,#102,.T.);
#102 = EDGE_CURVE('',#95,#103,#105,.T.);
#103 = VERTEX_POINT('',#104);
#104 = CARTESIAN_POINT('',(43.,53.,10.));
#105 = LINE('',#106,#107);
#106 = CARTESIAN_POINT('',(43.,0.,10.));
#107 = VECTOR('',#108,1.);
#108 = DIRECTION('',(0.,1.,0.));
#109 = ORIENTED_EDGE('',*,*,#110,.F.);
#110 = EDGE_CURVE('',#111,#103,#113,.T.);
#111 = VERTEX_POINT('',#112);
#112 = CARTESIAN_POINT('',(0.,53.,10.));
#113 = LINE('',#114,#115);
#114 = CARTESIAN_POINT('',(0.,53.,10.));
#115 = VECTOR('',#116,1.);
#116 = DIRECTION('',(1.,0.,0.));
#117 = ORIENTED_EDGE('',*,*,#118,.F.);
#118 = EDGE_CURVE('',#119,#111,#121,.T.);
#119 = VERTEX_POINT('',#120);
#120 = CARTESIAN_POINT('',(0.,18.05,10.));
#121 = LINE('',#122,#123);
#122 = CARTESIAN_POINT('',(0.,0.,10.));
#123 = VECTOR('',#124,1.);
#124 = DIRECTION('',(0.,1.,0.));
#125 = ORIENTED_EDGE('',*,*,#126,.T.);
#126 = EDGE_CURVE('',#119,#127,#129,.T.);
#127 = VERTEX_POINT('',#128);
#128 = CARTESIAN_POINT('',(4.,19.05,10.));
#129 = LINE('',#130,#131);
#130 = CARTESIAN_POINT('',(-0.123529411765,18.019117647059,10.));
#131 = VECTOR('',#132,1.);
#132 = DIRECTION('',(0.970142500145,0.242535625036,0.));
#133 = ORIENTED_EDGE('',*,*,#134,.T.);
#134 = EDGE_CURVE('',#127,#135,#137,.T.);
#135 = VERTEX_POINT('',#136);
#136 = CARTESIAN_POINT('',(4.,12.75,10.));
#137 = LINE('',#138,#139);
#138 = CARTESIAN_POINT('',(4.,6.375,10.));
#139 = VECTOR('',#140,1.);
#140 = DIRECTION('',(0.,-1.,0.));
#141 = ORIENTED_EDGE('',*,*,#142,.T.);
#142 = EDGE_CURVE('',#135,#24,#143,.T.);
#143 = LINE('',#144,#145);
#144 = CARTESIAN_POINT('',(1.617647058824,13.345588235294,10.));
#145 = VECTOR('',#146,1.);
#146 = DIRECTION('',(-0.970142500145,0.242535625036,0.));
#147 = FACE_BOUND('',#148,.T.);
#148 = EDGE_LOOP('',(#149,#160,#168,#177,#185,#194,#202,#211));
#149 = ORIENTED_EDGE('',*,*,#150,.F.);
#150 = EDGE_CURVE('',#151,#153,#155,.T.);
#151 = VERTEX_POINT('',#152);
#152 = CARTESIAN_POINT('',(18.185,36.775,10.));
#153 = VERTEX_POINT('',#154);
#154 = CARTESIAN_POINT('',(17.585,36.175,10.));
#155 = CIRCLE('',#156,0.6);
#156 = AXIS2_PLACEMENT_3D('',#157,#158,#159);
#157 = CARTESIAN_POINT('',(18.185,36.175,10.));
#158 = DIRECTION('',(0.,-0.,1.));
#159 = DIRECTION('',(0.,1.,0.));
#160 = ORIENTED_EDGE('',*,*,#161,.T.);
#161 = EDGE_CURVE('',#151,#162,#164,.T.);
#162 = VERTEX_POINT('',#163);
#163 = CARTESIAN_POINT('',(24.815,36.775,10.));
#164 = LINE('',#165,#166);
#165 = CARTESIAN_POINT('',(12.7075,36.775,10.));
#166 = VECTOR('',#167,1.);
#167 = DIRECTION('',(1.,0.,0.));
#168 = ORIENTED_EDGE('',*,*,#169,.F.);
#169 = EDGE_CURVE('',#170,#162,#172,.T.);
#170 = VERTEX_POINT('',#171);
#171 = CARTESIAN_POINT('',(25.415,36.175,10.));
#172 = CIRCLE('',#173,0.6);
#173 = AXIS2_PLACEMENT_3D('',#174,#175,#176);
#174 = CARTESIAN_POINT('',(24.815,36.175,10.));
#175 = DIRECTION('',(0.,-0.,1.));
#176 = DIRECTION('',(0.,1.,0.));
#177 = ORIENTED_EDGE('',*,*,#178,.T.);
#178 = EDGE_CURVE('',#170,#179,#181,.T.);
#179 = VERTEX_POINT('',#180);
#180 = CARTESIAN_POINT('',(25.415,29.545,10.));
#181 = LINE('',#182,#183);
#182 = CARTESIAN_POINT('',(25.415,14.4725,10.));
#183 = VECTOR('',#184,1.);
#184 = DIRECTION('',(0.,-1.,0.));
#185 = ORIENTED_EDGE('',*,*,#186,.F.);
#186 = EDGE_CURVE('',#187,#179,#189,.T.);
#187 = VERTEX_POINT('',#188);
#188 = CARTESIAN_POINT('',(24.815,28.945,10.));
#189 = CIRCLE('',#190,0.6);
#190 = AXIS2_PLACEMENT_3D('',#191,#192,#193);
#191 = CARTESIAN_POINT('',(24.815,29.545,10.));
#192 = DIRECTION('',(-0.,0.,1.));
#193 = DIRECTION('',(0.,-1.,0.));
#194 = ORIENTED_EDGE('',*,*,#195,.T.);
#195 = EDGE_CURVE('',#187,#196,#198,.T.);
#196 = VERTEX_POINT('',#197);
#197 = CARTESIAN_POINT('',(18.185,28.945,10.));
#198 = LINE('',#199,#200);
#199 = CARTESIAN_POINT('',(8.7925,28.945,10.));
#200 = VECTOR('',#201,1.);
#201 = DIRECTION('',(-1.,0.,0.));
#202 = ORIENTED_EDGE('',*,*,#203,.F.);
#203 = EDGE_CURVE('',#204,#196,#206,.T.);
#204 = VERTEX_POINT('',#205);
#205 = CARTESIAN_POINT('',(17.585,29.545,10.));
#206 = CIRCLE('',#207,0.6);
#207 = AXIS2_PLACEMENT_3D('',#208,#209,#210);
#208 = CARTESIAN_POINT('',(18.185,29.545,10.));
#209 = DIRECTION('',(0.,0.,1.));
#210 = DIRECTION('',(-1.,0.,0.));
#211 = ORIENTED_EDGE('',*,*,#212,.T.);
#212 = EDGE_CURVE('',#204,#153,#213,.T.);
#213 = LINE('',#214,#215);
#214 = CARTESIAN_POINT('',(17.585,18.3875,10.));
#215 = VECTOR('',#216,1.);
#216 = DIRECTION('',(0.,1.,0.));
#217 = PLANE('',#218);
#218 = AXIS2_PLACEMENT_3D('',#219,#220,#221);
#219 = CARTESIAN_POINT('',(0.,0.,10.));
#220 = DIRECTION('',(0.,0.,1.));
#221 = DIRECTION('',(1.,0.,0.));
#222 = ADVANCED_FACE('',(#223),#241,.T.);
#223 = FACE_BOUND('',#224,.T.);
#224 = EDGE_LOOP('',(#225,#233,#234,#235));
#225 = ORIENTED_EDGE('',*,*,#226,.T.);
#226 = EDGE_CURVE('',#227,#40,#229,.T.);
#227 = VERTEX_POINT('',#228);
#228 = CARTESIAN_POINT('',(4.,12.75,0.));
#229 = LINE('',#230,#231);
#230 = CARTESIAN_POINT('',(1.617647058824,13.345588235294,0.));
#231 = VECTOR('',#232,1.);
#232 = DIRECTION('',(-0.970142500145,0.242535625036,0.));
#233 = ORIENTED_EDGE('',*,*,#47,.T.);
#234 = ORIENTED_EDGE('',*,*,#142,.F.);
#235 = ORIENTED_EDGE('',*,*,#236,.F.);
#236 = EDGE_CURVE('',#227,#135,#237,.T.);
#237 = LINE('',#238,#239);
#238 = CARTESIAN_POINT('',(4.,12.75,-1.));
#239 = VECTOR('',#240,1.);
#240 = DIRECTION('',(0.,0.,1.));
#241 = PLANE('',#242);
#242 = AXIS2_PLACEMENT_3D('',#243,#244,#245);
#243 = CARTESIAN_POINT('',(0.,13.75,-1.));
#244 = DIRECTION('',(0.242535625036,0.970142500145,0.));
#245 = DIRECTION('',(0.970142500145,-0.242535625036,0.));
#246 = ADVANCED_FACE('',(#247),#329,.F.);
#247 = FACE_BOUND('',#248,.F.);
#248 = EDGE_LOOP('',(#249,#250,#258,#266,#274,#282,#290,#298,#306,#314,
    #322,#328));
#249 = ORIENTED_EDGE('',*,*,#39,.F.);
#250 = ORIENTED_EDGE('',*,*,#251,.T.);
#251 = EDGE_CURVE('',#32,#252,#254,.T.);
#252 = VERTEX_POINT('',#253);
#253 = CARTESIAN_POINT('',(43.,0.,0.));
#254 = LINE('',#255,#256);
#255 = CARTESIAN_POINT('',(0.,0.,0.));
#256 = VECTOR('',#257,1.);
#257 = DIRECTION('',(1.,0.,0.));
#258 = ORIENTED_EDGE('',*,*,#259,.T.);
#259 = EDGE_CURVE('',#252,#260,#262,.T.);
#260 = VERTEX_POINT('',#261);
#261 = CARTESIAN_POINT('',(43.,13.875609756098,0.));
#262 = LINE('',#263,#264);
#263 = CARTESIAN_POINT('',(43.,0.,0.));
#264 = VECTOR('',#265,1.);
#265 = DIRECTION('',(0.,1.,0.));
#266 = ORIENTED_EDGE('',*,*,#267,.F.);
#267 = EDGE_CURVE('',#268,#260,#270,.T.);
#268 = VERTEX_POINT('',#269);
#269 = CARTESIAN_POINT('',(42.9,13.9,0.));
#270 = LINE('',#271,#272);
#271 = CARTESIAN_POINT('',(42.9,13.9,0.));
#272 = VECTOR('',#273,1.);
#273 = DIRECTION('',(0.971520338783,-0.236956180191,0.));
#274 = ORIENTED_EDGE('',*,*,#275,.F.);
#275 = EDGE_CURVE('',#276,#268,#278,.T.);
#276 = VERTEX_POINT('',#277);
#277 = CARTESIAN_POINT('',(42.9,17.9,0.));
#278 = LINE('',#279,#280);
#279 = CARTESIAN_POINT('',(42.9,17.9,0.));
#280 = VECTOR('',#281,1.);
#281 = DIRECTION('',(0.,-1.,0.));
#282 = ORIENTED_EDGE('',*,*,#283,.F.);
#283 = EDGE_CURVE('',#284,#276,#286,.T.);
#284 = VERTEX_POINT('',#285);
#285 = CARTESIAN_POINT('',(43.,17.924390243902,0.));
#286 = LINE('',#287,#288);
#287 = CARTESIAN_POINT('',(47.,18.9,0.));
#288 = VECTOR('',#289,1.);
#289 = DIRECTION('',(-0.971520338783,-0.236956180191,0.));
#290 = ORIENTED_EDGE('',*,*,#291,.T.);
#291 = EDGE_CURVE('',#284,#292,#294,.T.);
#292 = VERTEX_POINT('',#293);
#293 = CARTESIAN_POINT('',(43.,53.,0.));
#294 = LINE('',#295,#296);
#295 = CARTESIAN_POINT('',(43.,0.,0.));
#296 = VECTOR('',#297,1.);
#297 = DIRECTION('',(0.,1.,0.));
#298 = ORIENTED_EDGE('',*,*,#299,.F.);
#299 = EDGE_CURVE('',#300,#292,#302,.T.);
#300 = VERTEX_POINT('',#301);
#301 = CARTESIAN_POINT('',(0.,53.,0.));
#302 = LINE('',#303,#304);
#303 = CARTESIAN_POINT('',(0.,53.,0.));
#304 = VECTOR('',#305,1.);
#305 = DIRECTION('',(1.,0.,0.));
#306 = ORIENTED_EDGE('',*,*,#307,.F.);
#307 = EDGE_CURVE('',#308,#300,#310,.T.);
#308 = VERTEX_POINT('',#309);
#309 = CARTESIAN_POINT('',(0.,18.05,0.));
#310 = LINE('',#311,#312);
#311 = CARTESIAN_POINT('',(0.,0.,0.));
#312 = VECTOR('',#313,1.);
#313 = DIRECTION('',(0.,1.,0.));
#314 = ORIENTED_EDGE('',*,*,#315,.T.);
#315 = EDGE_CURVE('',#308,#316,#318,.T.);
#316 = VERTEX_POINT('',#317);
#317 = CARTESIAN_POINT('',(4.,19.05,0.));
#318 = LINE('',#319,#320);
#319 = CARTESIAN_POINT('',(-0.123529411765,18.019117647059,0.));
#320 = VECTOR('',#321,1.);
#321 = DIRECTION('',(0.970142500145,0.242535625036,0.));
#322 = ORIENTED_EDGE('',*,*,#323,.T.);
#323 = EDGE_CURVE('',#316,#227,#324,.T.);
#324 = LINE('',#325,#326);
#325 = CARTESIAN_POINT('',(4.,6.375,0.));
#326 = VECTOR('',#327,1.);
#327 = DIRECTION('',(0.,-1.,0.));
#328 = ORIENTED_EDGE('',*,*,#226,.T.);
#329 = PLANE('',#330);
#330 = AXIS2_PLACEMENT_3D('',#331,#332,#333);
#331 = CARTESIAN_POINT('',(0.,0.,0.));
#332 = DIRECTION('',(0.,0.,1.));
#333 = DIRECTION('',(1.,0.,0.));
#334 = ADVANCED_FACE('',(#335,#346),#648,.T.);
#335 = FACE_BOUND('',#336,.T.);
#336 = EDGE_LOOP('',(#337,#338,#339,#345));
#337 = ORIENTED_EDGE('',*,*,#31,.T.);
#338 = ORIENTED_EDGE('',*,*,#251,.T.);
#339 = ORIENTED_EDGE('',*,*,#340,.F.);
#340 = EDGE_CURVE('',#63,#252,#341,.T.);
#341 = LINE('',#342,#343);
#342 = CARTESIAN_POINT('',(43.,0.,0.));
#343 = VECTOR('',#344,1.);
#344 = DIRECTION('',(0.,-0.342020143326,-0.939692620786));
#345 = ORIENTED_EDGE('',*,*,#62,.F.);
#346 = FACE_BOUND('',#347,.T.);
#347 = EDGE_LOOP('',(#348,#358,#370,#385,#402,#423,#442,#461,#484,#507,
    #526,#549,#571,#593,#616,#633));
#348 = ORIENTED_EDGE('',*,*,#349,.F.);
#349 = EDGE_CURVE('',#350,#352,#354,.T.);
#350 = VERTEX_POINT('',#351);
#351 = CARTESIAN_POINT('',(20.775796178344,1.759085159559,4.833046754786
    ));
#352 = VERTEX_POINT('',#353);
#353 = CARTESIAN_POINT('',(19.736305732484,1.72004693683,4.725790119344)
  );
#354 = LINE('',#355,#356);
#355 = CARTESIAN_POINT('',(9.21885434146,1.325062440748,3.640579135323)
  );
#356 = VECTOR('',#357,1.);
#357 = DIRECTION('',(-0.994025520727,-3.733078050948E-02,-0.1025654765)
  );
#358 = ORIENTED_EDGE('',*,*,#359,.F.);
#359 = EDGE_CURVE('',#360,#350,#362,.T.);
#360 = VERTEX_POINT('',#361);
#361 = CARTESIAN_POINT('',(20.974522292994,1.599185296374,4.393725491311
    ));
#362 = B_SPLINE_CURVE_WITH_KNOTS('',6,(#363,#364,#365,#366,#367,#368,
    #369),.UNSPECIFIED.,.F.,.F.,(7,7),(0.,1.),.PIECEWISE_BEZIER_KNOTS.);
#363 = CARTESIAN_POINT('',(20.974522292994,1.599185296374,4.393725491311
    ));
#364 = CARTESIAN_POINT('',(20.919354127918,1.617065563619,4.442851121821
    ));
#365 = CARTESIAN_POINT('',(20.873041061811,1.638844315948,4.502687752067
    ));
#366 = CARTESIAN_POINT('',(20.835919458787,1.664326793603,4.572700284018
    ));
#367 = CARTESIAN_POINT('',(20.807730370692,1.693145324581,4.651878547142
    ));
#368 = CARTESIAN_POINT('',(20.787916463856,1.724871941869,4.739046711735
    ));
#369 = CARTESIAN_POINT('',(20.775796178344,1.759085159559,4.833046754786
    ));
#370 = ORIENTED_EDGE('',*,*,#371,.F.);
#371 = EDGE_CURVE('',#372,#360,#374,.T.);
#372 = VERTEX_POINT('',#373);
#373 = CARTESIAN_POINT('',(21.39872611465,1.547163379032,4.250796448098)
  );
#374 = B_SPLINE_CURVE_WITH_KNOTS('',5,(#375,#376,#377,#378,#379,#380,
    #381,#382,#383,#384),.UNSPECIFIED.,.F.,.F.,(6,4,6),(0.,0.80677292435
    ,1.),.UNSPECIFIED.);
#375 = CARTESIAN_POINT('',(21.39872611465,1.547163379032,4.250796448098)
  );
#376 = CARTESIAN_POINT('',(21.315789206344,1.547163379032,4.250796448098
    ));
#377 = CARTESIAN_POINT('',(21.237826368873,1.55037973749,4.259633320333)
  );
#378 = CARTESIAN_POINT('',(21.165638474661,1.55703028604,4.277905552301)
  );
#379 = CARTESIAN_POINT('',(21.09991259936,1.567226847262,4.305920374016)
  );
#380 = CARTESIAN_POINT('',(21.026945374322,1.584143670253,4.352398963193
    ));
#381 = CARTESIAN_POINT('',(21.013239009226,1.587610565718,4.361924180197
    ));
#382 = CARTESIAN_POINT('',(20.999930627206,1.591274382154,4.371990433124
    ));
#383 = CARTESIAN_POINT('',(20.987024145314,1.595133385997,4.382592959044
    ));
#384 = CARTESIAN_POINT('',(20.974522292994,1.599185296374,4.393725491311
    ));
#385 = ORIENTED_EDGE('',*,*,#386,.F.);
#386 = EDGE_CURVE('',#387,#372,#389,.T.);
#387 = VERTEX_POINT('',#388);
#388 = CARTESIAN_POINT('',(21.964331210191,1.652078602615,4.53904865585)
  );
#389 = B_SPLINE_CURVE_WITH_KNOTS('',6,(#390,#391,#392,#393,#394,#395,
    #396,#397,#398,#399,#400,#401),.UNSPECIFIED.,.F.,.F.,(7,5,7),(0.,
    0.685748561027,1.),.UNSPECIFIED.);
#390 = CARTESIAN_POINT('',(21.964331210191,1.652078602615,4.53904865585)
  );
#391 = CARTESIAN_POINT('',(21.913544212417,1.629222108392,4.476250954083
    ));
#392 = CARTESIAN_POINT('',(21.858720133636,1.608809875034,4.420168803852
    ));
#393 = CARTESIAN_POINT('',(21.799792776727,1.591191782472,4.371763492364
    ));
#394 = CARTESIAN_POINT('',(21.736824652361,1.576687719757,4.331913907564
    ));
#395 = CARTESIAN_POINT('',(21.670081514287,1.565528333456,4.301253745687
    ));
#396 = CARTESIAN_POINT('',(21.568085650482,1.55421878387,4.270181013576)
  );
#397 = CARTESIAN_POINT('',(21.535355801011,1.551378969991,4.262378689068
    ));
#398 = CARTESIAN_POINT('',(21.501998860899,1.54925907472,4.25655432468)
  );
#399 = CARTESIAN_POINT('',(21.46806930951,1.547856914455,4.252701921011)
  );
#400 = CARTESIAN_POINT('',(21.433624941507,1.547163379032,4.250796448098
    ));
#401 = CARTESIAN_POINT('',(21.39872611465,1.547163379032,4.250796448098)
  );
#402 = ORIENTED_EDGE('',*,*,#403,.F.);
#403 = EDGE_CURVE('',#404,#387,#406,.T.);
#404 = VERTEX_POINT('',#405);
#405 = CARTESIAN_POINT('',(22.262420382166,2.087163080482,5.734433434343
    ));
#406 = B_SPLINE_CURVE_WITH_KNOTS('',8,(#407,#408,#409,#410,#411,#412,
    #413,#414,#415,#416,#417,#418,#419,#420,#421,#422),.UNSPECIFIED.,.F.
  ,.F.,(9,7,9),(0.,0.713534306236,1.),.UNSPECIFIED.);
#407 = CARTESIAN_POINT('',(22.262420382166,2.087163080482,5.734433434343
    ));
#408 = CARTESIAN_POINT('',(22.253527761538,2.04198255897,5.61030097169)
  );
#409 = CARTESIAN_POINT('',(22.242485529218,1.997437433205,5.487914244504
    ));
#410 = CARTESIAN_POINT('',(22.228984599808,1.953538962251,5.367304186809
    ));
#411 = CARTESIAN_POINT('',(22.212624629145,1.910411091126,5.248811334745
    ));
#412 = CARTESIAN_POINT('',(22.192919050737,1.86828726464,5.133077072654)
  );
#413 = CARTESIAN_POINT('',(22.169219859302,1.827539141834,5.021122525358
    ));
#414 = CARTESIAN_POINT('',(22.140742109716,1.788666322614,4.914320332322
    ));
#415 = CARTESIAN_POINT('',(22.092359495681,1.737865657526,4.774746652099
    ));
#416 = CARTESIAN_POINT('',(22.077538909663,1.723750417419,4.735965348635
    ));
#417 = CARTESIAN_POINT('',(22.061682659618,1.71012396286,4.698526972426)
  );
#418 = CARTESIAN_POINT('',(22.044715021179,1.697052438269,4.662613253773
    ));
#419 = CARTESIAN_POINT('',(22.026560685006,1.684616192468,4.628444949253
    ));
#420 = CARTESIAN_POINT('',(22.007148624796,1.672907599596,4.596275854725
    ));
#421 = CARTESIAN_POINT('',(21.986418730989,1.662027263074,4.566382375815
    ));
#422 = CARTESIAN_POINT('',(21.964331210191,1.652078602615,4.53904865585)
  );
#423 = ORIENTED_EDGE('',*,*,#424,.F.);
#424 = EDGE_CURVE('',#425,#404,#427,.T.);
#425 = VERTEX_POINT('',#426);
#426 = CARTESIAN_POINT('',(21.249681528662,1.926391828396,5.29271804954)
  );
#427 = B_SPLINE_CURVE_WITH_KNOTS('',5,(#428,#429,#430,#431,#432,#433,
    #434,#435,#436,#437,#438,#439,#440,#441),.UNSPECIFIED.,.F.,.F.,(6,4,
    4,6),(0.,0.46887759267,0.824579663639,1.),.UNSPECIFIED.);
#428 = CARTESIAN_POINT('',(21.249681528662,1.926391828396,5.29271804954)
  );
#429 = CARTESIAN_POINT('',(21.360280690798,1.926391828396,5.29271804954)
  );
#430 = CARTESIAN_POINT('',(21.469230695488,1.929720835881,5.301864422435
    ));
#431 = CARTESIAN_POINT('',(21.5755430838,1.936684227774,5.320996184423)
  );
#432 = CARTESIAN_POINT('',(21.678159022353,1.947460896105,5.350604837319
    ));
#433 = CARTESIAN_POINT('',(21.850441655165,1.972864759179,5.420401377483
    ));
#434 = CARTESIAN_POINT('',(21.922104333176,1.985937758755,5.456319148623
    ));
#435 = CARTESIAN_POINT('',(21.990704700384,2.001066212225,5.497884232921
    ));
#436 = CARTESIAN_POINT('',(22.056021026243,2.018108680017,5.544708028351
    ));
#437 = CARTESIAN_POINT('',(22.148498770911,2.046138019476,5.621718005598
    ));
#438 = CARTESIAN_POINT('',(22.178221960953,2.055816949909,5.648310648406
    ));
#439 = CARTESIAN_POINT('',(22.2071157813,2.065895634575,5.676001606945)
  );
#440 = CARTESIAN_POINT('',(22.23517948651,2.076351920015,5.704730015082)
  );
#441 = CARTESIAN_POINT('',(22.262420382166,2.087163080482,5.734433434343
    ));
#442 = ORIENTED_EDGE('',*,*,#443,.F.);
#443 = EDGE_CURVE('',#444,#425,#446,.T.);
#444 = VERTEX_POINT('',#445);
#445 = CARTESIAN_POINT('',(20.108789808917,2.100843886215,5.772021139174
    ));
#446 = B_SPLINE_CURVE_WITH_KNOTS('',5,(#447,#448,#449,#450,#451,#452,
    #453,#454,#455,#456,#457,#458,#459,#460),.UNSPECIFIED.,.F.,.F.,(6,4,
    4,6),(0.,0.200567945111,0.594182146469,1.),.UNSPECIFIED.);
#447 = CARTESIAN_POINT('',(20.108789808917,2.100843886215,5.772021139174
    ));
#448 = CARTESIAN_POINT('',(20.145255778309,2.087583590756,5.735588776827
    ));
#449 = CARTESIAN_POINT('',(20.182782078271,2.074805884136,5.700482316416
    ));
#450 = CARTESIAN_POINT('',(20.221378128574,2.062545892859,5.666798267219
    ));
#451 = CARTESIAN_POINT('',(20.26104277341,2.050839884361,5.634636273199)
  );
#452 = CARTESIAN_POINT('',(20.381662067583,2.017903663694,5.544144750634
    ));
#453 = CARTESIAN_POINT('',(20.465628358117,1.998346670327,5.490412352965
    ));
#454 = CARTESIAN_POINT('',(20.553488010766,1.981321980257,5.443637401425
    ));
#455 = CARTESIAN_POINT('',(20.6448922403,1.967039584446,5.404396841439)
  );
#456 = CARTESIAN_POINT('',(20.836449317128,1.943753632279,5.34041921367)
  );
#457 = CARTESIAN_POINT('',(20.936816853414,1.934923673103,5.316159100219
    ));
#458 = CARTESIAN_POINT('',(21.039619736744,1.929170535566,5.300352484746
    ));
#459 = CARTESIAN_POINT('',(21.144136345582,1.926391828396,5.29271804954)
  );
#460 = CARTESIAN_POINT('',(21.249681528662,1.926391828396,5.29271804954)
  );
#461 = ORIENTED_EDGE('',*,*,#462,.F.);
#462 = EDGE_CURVE('',#463,#444,#465,.T.);
#463 = VERTEX_POINT('',#464);
#464 = CARTESIAN_POINT('',(19.629299363057,2.555098919885,7.020076586857
    ));
#465 = B_SPLINE_CURVE_WITH_KNOTS('',5,(#466,#467,#468,#469,#470,#471,
    #472,#473,#474,#475,#476,#477,#478,#479,#480,#481,#482,#483),
  .UNSPECIFIED.,.F.,.F.,(6,4,4,4,6),(0.,0.284270969594,0.536870459871,
    0.781653192614,1.),.UNSPECIFIED.);
#466 = CARTESIAN_POINT('',(19.629299363057,2.555098919885,7.020076586857
    ));
#467 = CARTESIAN_POINT('',(19.629299363057,2.525898117363,6.939848041298
    ));
#468 = CARTESIAN_POINT('',(19.632565470698,2.496892288445,6.860155181312
    ));
#469 = CARTESIAN_POINT('',(19.639330283215,2.468140976176,6.781161600073
    ));
#470 = CARTESIAN_POINT('',(19.6498300694,2.439720533831,6.703077076479)
  );
#471 = CARTESIAN_POINT('',(19.677071326326,2.386838607837,6.557785178916
    ));
#472 = CARTESIAN_POINT('',(19.692987157069,2.362288559999,6.490334476833
    ));
#473 = CARTESIAN_POINT('',(19.712133325505,2.338133143449,6.423968015304
    ));
#474 = CARTESIAN_POINT('',(19.734611027457,2.314441820655,6.358876640892
    ));
#475 = CARTESIAN_POINT('',(19.785497068353,2.268844804064,6.233599867412
    ));
#476 = CARTESIAN_POINT('',(19.813701387762,2.246905571305,6.173322320807
    ));
#477 = CARTESIAN_POINT('',(19.845096706259,2.225532479902,6.114600234795
    ));
#478 = CARTESIAN_POINT('',(19.879658619791,2.204784402268,6.057595359997
    ));
#479 = CARTESIAN_POINT('',(19.950863551396,2.166805649513,5.953249594384
    ));
#480 = CARTESIAN_POINT('',(19.986880204013,2.149436299122,5.905527696394
    ));
#481 = CARTESIAN_POINT('',(20.025277636423,2.132638226394,5.859375370884
    ));
#482 = CARTESIAN_POINT('',(20.06595629047,2.116435704501,5.814859307845)
  );
#483 = CARTESIAN_POINT('',(20.108789808917,2.100843886215,5.772021139174
    ));
#484 = ORIENTED_EDGE('',*,*,#485,.F.);
#485 = EDGE_CURVE('',#486,#463,#488,.T.);
#486 = VERTEX_POINT('',#487);
#487 = CARTESIAN_POINT('',(20.135541401274,3.025038953759,8.311226218424
    ));
#488 = B_SPLINE_CURVE_WITH_KNOTS('',5,(#489,#490,#491,#492,#493,#494,
    #495,#496,#497,#498,#499,#500,#501,#502,#503,#504,#505,#506),
  .UNSPECIFIED.,.F.,.F.,(6,4,4,4,6),(0.,0.221888373852,0.464324455373,
    0.713877330128,1.),.UNSPECIFIED.);
#489 = CARTESIAN_POINT('',(20.135541401274,3.025038953759,8.311226218424
    ));
#490 = CARTESIAN_POINT('',(20.089552164357,3.008834743725,8.266705517255
    ));
#491 = CARTESIAN_POINT('',(20.045892184184,2.991947362769,8.220307819405
    ));
#492 = CARTESIAN_POINT('',(20.004712429741,2.974393111282,8.172077909829
    ));
#493 = CARTESIAN_POINT('',(19.966132365344,2.956199556496,8.122091528875
    ));
#494 = CARTESIAN_POINT('',(19.891003747807,2.916876279554,8.014051713416
    ));
#495 = CARTESIAN_POINT('',(19.854971910664,2.895629497956,7.955676660742
    ));
#496 = CARTESIAN_POINT('',(19.822238545326,2.873721643284,7.89548532472)
  );
#497 = CARTESIAN_POINT('',(19.792830251632,2.851216860011,7.83365394085)
  );
#498 = CARTESIAN_POINT('',(19.739831519378,2.804479292177,7.705243528584
    ));
#499 = CARTESIAN_POINT('',(19.716435968635,2.780214024773,7.638575254316
    ));
#500 = CARTESIAN_POINT('',(19.696490673384,2.755466306261,7.570581456521
    ));
#501 = CARTESIAN_POINT('',(19.679885391234,2.730310761635,7.501467165687
    ));
#502 = CARTESIAN_POINT('',(19.651106483507,2.675583159169,7.351104313691
    ));
#503 = CARTESIAN_POINT('',(19.639938796205,2.645903825494,7.269561014594
    ));
#504 = CARTESIAN_POINT('',(19.632759044212,2.615876816919,7.18706248656)
  );
#505 = CARTESIAN_POINT('',(19.629299363057,2.585586914032,7.103841662339
    ));
#506 = CARTESIAN_POINT('',(19.629299363057,2.555098919885,7.020076586857
    ));
#507 = ORIENTED_EDGE('',*,*,#508,.F.);
#508 = EDGE_CURVE('',#509,#486,#511,.T.);
#509 = VERTEX_POINT('',#510);
#510 = CARTESIAN_POINT('',(21.425477707006,3.203499400519,8.801542266161
    ));
#511 = B_SPLINE_CURVE_WITH_KNOTS('',5,(#512,#513,#514,#515,#516,#517,
    #518,#519,#520,#521,#522,#523,#524,#525),.UNSPECIFIED.,.F.,.F.,(6,4,
    4,6),(0.,0.215126987109,0.626306871603,1.),.UNSPECIFIED.);
#512 = CARTESIAN_POINT('',(21.425477707006,3.203499400519,8.801542266161
    ));
#513 = CARTESIAN_POINT('',(21.362131459271,3.203499400519,8.801542266161
    ));
#514 = CARTESIAN_POINT('',(21.299112557059,3.202770182084,8.799538754978
    ));
#515 = CARTESIAN_POINT('',(21.236511398085,3.201274762209,8.795430122638
    ));
#516 = CARTESIAN_POINT('',(21.174434417145,3.198978029962,8.789119902652
    ));
#517 = CARTESIAN_POINT('',(20.99557958888,3.189878705266,8.764119713517)
  );
#518 = CARTESIAN_POINT('',(20.880479028133,3.18087578354,8.739384389366)
  );
#519 = CARTESIAN_POINT('',(20.768599348523,3.16865345858,8.705803827525)
  );
#520 = CARTESIAN_POINT('',(20.660851557523,3.153131455651,8.663157474973
    ));
#521 = CARTESIAN_POINT('',(20.464570474029,3.117482988659,8.565214116874
    ));
#522 = CARTESIAN_POINT('',(20.375152308154,3.097900138219,8.511410677482
    ));
#523 = CARTESIAN_POINT('',(20.290358837451,3.07581276764,8.450726125561)
  );
#524 = CARTESIAN_POINT('',(20.210463032841,3.05143704243,8.383754370963)
  );
#525 = CARTESIAN_POINT('',(20.135541401274,3.025038953759,8.311226218424
    ));
#526 = ORIENTED_EDGE('',*,*,#527,.F.);
#527 = EDGE_CURVE('',#528,#509,#530,.T.);
#528 = VERTEX_POINT('',#529);
#529 = CARTESIAN_POINT('',(22.824203821656,2.977461119809,8.180507193978
    ));
#530 = B_SPLINE_CURVE_WITH_KNOTS('',5,(#531,#532,#533,#534,#535,#536,
    #537,#538,#539,#540,#541,#542,#543,#544,#545,#546,#547,#548),
  .UNSPECIFIED.,.F.,.F.,(6,4,4,4,6),(0.,0.171908264535,0.509409284681,
    0.835837320227,1.),.UNSPECIFIED.);
#531 = CARTESIAN_POINT('',(22.824203821656,2.977461119809,8.180507193978
    ));
#532 = CARTESIAN_POINT('',(22.788450894477,2.992249001391,8.221136564709
    ));
#533 = CARTESIAN_POINT('',(22.751479919407,3.006597748102,8.260559422293
    ));
#534 = CARTESIAN_POINT('',(22.713273533718,3.020472367524,8.29867962586)
  );
#535 = CARTESIAN_POINT('',(22.673825385794,3.033836223569,8.335396518579
    ));
#536 = CARTESIAN_POINT('',(22.553285582326,3.071818432293,8.439751779389
    ));
#537 = CARTESIAN_POINT('',(22.468667401787,3.09488281799,8.503120658286)
  );
#538 = CARTESIAN_POINT('',(22.379416615663,3.11556613885,8.559947615308)
  );
#539 = CARTESIAN_POINT('',(22.285861250773,3.133641144434,8.609608285008
    ));
#540 = CARTESIAN_POINT('',(22.094648952938,3.163866489889,8.692651739139
    ));
#541 = CARTESIAN_POINT('',(21.997200390413,3.176196012324,8.726526823622
    ));
#542 = CARTESIAN_POINT('',(21.896905177839,3.185899687936,8.753187453252
    ));
#543 = CARTESIAN_POINT('',(21.794412242028,3.193028452239,8.772773572204
    ));
#544 = CARTESIAN_POINT('',(21.638037992769,3.200068618345,8.792116269608
    ));
#545 = CARTESIAN_POINT('',(21.585313758107,3.201806400984,8.796890788169
    ));
#546 = CARTESIAN_POINT('',(21.532267805481,3.202942831573,8.800013105552
    ));
#547 = CARTESIAN_POINT('',(21.478969066426,3.203499400519,8.801542266161
    ));
#548 = CARTESIAN_POINT('',(21.425477707006,3.203499400519,8.801542266161
    ));
#549 = ORIENTED_EDGE('',*,*,#550,.F.);
#550 = EDGE_CURVE('',#551,#528,#553,.T.);
#551 = VERTEX_POINT('',#552);
#552 = CARTESIAN_POINT('',(23.370700636943,2.233730693494,6.137124641518
    ));
#553 = B_SPLINE_CURVE_WITH_KNOTS('',6,(#554,#555,#556,#557,#558,#559,
    #560,#561,#562,#563,#564,#565,#566,#567,#568,#569,#570),
  .UNSPECIFIED.,.F.,.F.,(7,5,5,7),(0.,0.357879220407,0.662260451165,1.),
  .UNSPECIFIED.);
#554 = CARTESIAN_POINT('',(23.370700636943,2.233730693494,6.137124641518
    ));
#555 = CARTESIAN_POINT('',(23.370700636943,2.282126794176,6.27009183533)
  );
#556 = CARTESIAN_POINT('',(23.367834975478,2.330368130594,6.402633817825
    ));
#557 = CARTESIAN_POINT('',(23.361798811564,2.378419373108,6.534653521609
    ));
#558 = CARTESIAN_POINT('',(23.352220939071,2.426218765072,6.665981271694
    ));
#559 = CARTESIAN_POINT('',(23.338654455937,2.473677475455,6.796373006827
    ));
#560 = CARTESIAN_POINT('',(23.305109922995,2.560648311011,7.035323413667
    ));
#561 = CARTESIAN_POINT('',(23.286396605575,2.600279308299,7.144208683827
    ));
#562 = CARTESIAN_POINT('',(23.264036160145,2.639500208915,7.25196722264)
  );
#563 = CARTESIAN_POINT('',(23.237617992853,2.678200407396,7.358295144094
    ));
#564 = CARTESIAN_POINT('',(23.206672114418,2.716227159814,7.462772787699
    ));
#565 = CARTESIAN_POINT('',(23.130720460429,2.794616343353,7.678145299402
    ));
#566 = CARTESIAN_POINT('',(23.084554485912,2.834769230013,7.788464448826
    ));
#567 = CARTESIAN_POINT('',(23.031452719403,2.873575396328,7.89508351451)
  );
#568 = CARTESIAN_POINT('',(22.970693970152,2.910634014191,7.996901230286
    ));
#569 = CARTESIAN_POINT('',(22.901640774092,2.945432176359,8.092508395082
    ));
#570 = CARTESIAN_POINT('',(22.824203821656,2.977461119809,8.180507193978
    ));
#571 = ORIENTED_EDGE('',*,*,#572,.F.);
#572 = EDGE_CURVE('',#573,#551,#575,.T.);
#573 = VERTEX_POINT('',#574);
#574 = CARTESIAN_POINT('',(22.80127388535,1.473705294746,4.048972020245)
  );
#575 = B_SPLINE_CURVE_WITH_KNOTS('',6,(#576,#577,#578,#579,#580,#581,
    #582,#583,#584,#585,#586,#587,#588,#589,#590,#591,#592),
  .UNSPECIFIED.,.F.,.F.,(7,5,5,7),(0.,0.346513018026,0.648641084912,1.),
  .UNSPECIFIED.);
#576 = CARTESIAN_POINT('',(22.80127388535,1.473705294746,4.048972020245)
  );
#577 = CARTESIAN_POINT('',(22.883458409989,1.507372927083,4.141473079858
    ));
#578 = CARTESIAN_POINT('',(22.956708055858,1.543964230613,4.242006860054
    ));
#579 = CARTESIAN_POINT('',(23.021059175187,1.582945898957,4.349108113604
    ));
#580 = CARTESIAN_POINT('',(23.077172159131,1.623773041351,4.46127976543)
  );
#581 = CARTESIAN_POINT('',(23.125813040396,1.666016494141,4.577342698093
    ));
#582 = CARTESIAN_POINT('',(23.20431864533,1.747200244734,4.800393219672)
  );
#583 = CARTESIAN_POINT('',(23.235784490728,1.785865034969,4.90662385777)
  );
#584 = CARTESIAN_POINT('',(23.262664160236,1.825191185129,5.014671567329
    ));
#585 = CARTESIAN_POINT('',(23.285420010305,1.865029481114,5.124126385977
    ));
#586 = CARTESIAN_POINT('',(23.30445958672,1.905271005949,5.234689066787)
  );
#587 = CARTESIAN_POINT('',(23.338360918588,1.993035791762,5.475820834031
    ));
#588 = CARTESIAN_POINT('',(23.352032868487,2.040666262521,5.606684476918
    ));
#589 = CARTESIAN_POINT('',(23.361699007584,2.08862410723,5.738447572342)
  );
#590 = CARTESIAN_POINT('',(23.367801503795,2.136823132972,5.87087330721)
  );
#591 = CARTESIAN_POINT('',(23.370700636943,2.185203703703,6.003797832833
    ));
#592 = CARTESIAN_POINT('',(23.370700636943,2.233730693494,6.137124641518
    ));
#593 = ORIENTED_EDGE('',*,*,#594,.F.);
#594 = EDGE_CURVE('',#595,#573,#597,.T.);
#595 = VERTEX_POINT('',#596);
#596 = CARTESIAN_POINT('',(21.31847133758,1.240434486164,3.408065741049)
  );
#597 = B_SPLINE_CURVE_WITH_KNOTS('',5,(#598,#599,#600,#601,#602,#603,
    #604,#605,#606,#607,#608,#609,#610,#611,#612,#613,#614,#615),
  .UNSPECIFIED.,.F.,.F.,(6,4,4,4,6),(0.,0.185393027725,0.539900078788,
    0.847978275732,1.),.UNSPECIFIED.);
#598 = CARTESIAN_POINT('',(21.31847133758,1.240434486164,3.408065741049)
  );
#599 = CARTESIAN_POINT('',(21.382337753858,1.240434486164,3.408065741049
    ));
#600 = CARTESIAN_POINT('',(21.445962004736,1.241147324819,3.410024249157
    ));
#601 = CARTESIAN_POINT('',(21.509257705156,1.242609065415,3.414040348437
    ));
#602 = CARTESIAN_POINT('',(21.57212218353,1.244853940642,3.420208092433)
  );
#603 = CARTESIAN_POINT('',(21.753601881999,1.253750033194,3.444649905842
    ));
#604 = CARTESIAN_POINT('',(21.870792355904,1.262554178966,3.468839097547
    ));
#605 = CARTESIAN_POINT('',(21.985128668171,1.274507080548,3.50167942474)
  );
#606 = CARTESIAN_POINT('',(22.095704590283,1.289687442999,3.543387127793
    ));
#607 = CARTESIAN_POINT('',(22.293831612986,1.323826967127,3.637184699447
    ));
#608 = CARTESIAN_POINT('',(22.382527283872,1.342035251593,3.687211549863
    ));
#609 = CARTESIAN_POINT('',(22.46726954738,1.362488998653,3.743407758053)
  );
#610 = CARTESIAN_POINT('',(22.54778133889,1.385008473133,3.805279505686)
  );
#611 = CARTESIAN_POINT('',(22.661533618299,1.421390400163,3.905238028677
    ));
#612 = CARTESIAN_POINT('',(22.698063178681,1.433860709038,3.939499920724
    ));
#613 = CARTESIAN_POINT('',(22.733527553974,1.44675422759,3.974924571805)
  );
#614 = CARTESIAN_POINT('',(22.767927405828,1.460044608416,4.011439593018
    ));
#615 = CARTESIAN_POINT('',(22.80127388535,1.473705294746,4.048972020245)
  );
#616 = ORIENTED_EDGE('',*,*,#617,.F.);
#617 = EDGE_CURVE('',#618,#595,#620,.T.);
#618 = VERTEX_POINT('',#619);
#619 = CARTESIAN_POINT('',(20.256050955414,1.360686154391,3.738454484154
    ));
#620 = B_SPLINE_CURVE_WITH_KNOTS('',6,(#621,#622,#623,#624,#625,#626,
    #627,#628,#629,#630,#631,#632),.UNSPECIFIED.,.F.,.F.,(7,5,7),(0.,
    0.109792248153,1.),.UNSPECIFIED.);
#621 = CARTESIAN_POINT('',(20.256050955414,1.360686154391,3.738454484154
    ));
#622 = CARTESIAN_POINT('',(20.271421186149,1.356123537186,3.725918796409
    ));
#623 = CARTESIAN_POINT('',(20.287023245149,1.351660644218,3.713657098753
    ));
#624 = CARTESIAN_POINT('',(20.302854453035,1.347298848353,3.701673163107
    ));
#625 = CARTESIAN_POINT('',(20.318911766067,1.343039375304,3.689970357085
    ));
#626 = CARTESIAN_POINT('',(20.335191776149,1.338883303625,3.678551643993
    ));
#627 = CARTESIAN_POINT('',(20.485465907122,1.301979615275,3.577159593559
    ));
#628 = CARTESIAN_POINT('',(20.633697467678,1.275970766828,3.505700869743
    ));
#629 = CARTESIAN_POINT('',(20.794065149678,1.257395690938,3.454666268171
    ));
#630 = CARTESIAN_POINT('',(20.963481053276,1.24581005399,3.422834992268)
  );
#631 = CARTESIAN_POINT('',(21.139050653217,1.240434486164,3.408065741049
    ));
#632 = CARTESIAN_POINT('',(21.31847133758,1.240434486164,3.408065741049)
  );
#633 = ORIENTED_EDGE('',*,*,#634,.F.);
#634 = EDGE_CURVE('',#352,#618,#635,.T.);
#635 = B_SPLINE_CURVE_WITH_KNOTS('',6,(#636,#637,#638,#639,#640,#641,
    #642,#643,#644,#645,#646,#647),.UNSPECIFIED.,.F.,.F.,(7,5,7),(0.,
    0.521874523837,1.),.UNSPECIFIED.);
#636 = CARTESIAN_POINT('',(19.736305732484,1.72004693683,4.725790119344)
  );
#637 = CARTESIAN_POINT('',(19.754253928632,1.682614846086,4.622946295261
    ));
#638 = CARTESIAN_POINT('',(19.776942523436,1.645950993227,4.522213187421
    ));
#639 = CARTESIAN_POINT('',(19.804800761556,1.610206854419,4.424006973168
    ));
#640 = CARTESIAN_POINT('',(19.838272703765,1.5755815753,4.328874800646)
  );
#641 = CARTESIAN_POINT('',(19.877775150588,1.542313372363,4.23747116429)
  );
#642 = CARTESIAN_POINT('',(19.965519859903,1.481645171861,4.070786653332
    ));
#643 = CARTESIAN_POINT('',(20.012758410819,1.453982673328,3.994784563248
    ));
#644 = CARTESIAN_POINT('',(20.0654595991,1.427873356069,3.923049803641)
  );
#645 = CARTESIAN_POINT('',(20.123690640874,1.403517068699,3.85613145407)
  );
#646 = CARTESIAN_POINT('',(20.187340411396,1.381082719395,3.794493585936
    ));
#647 = CARTESIAN_POINT('',(20.256050955414,1.360686154391,3.738454484154
    ));
#648 = PLANE('',#649);
#649 = AXIS2_PLACEMENT_3D('',#650,#651,#652);
#650 = CARTESIAN_POINT('',(-1.,0.,0.));
#651 = DIRECTION('',(0.,-0.939692620786,0.342020143326));
#652 = DIRECTION('',(0.,0.342020143326,0.939692620786));
#653 = ADVANCED_FACE('',(#654),#665,.T.);
#654 = FACE_BOUND('',#655,.T.);
#655 = EDGE_LOOP('',(#656,#657,#658,#659));
#656 = ORIENTED_EDGE('',*,*,#323,.T.);
#657 = ORIENTED_EDGE('',*,*,#236,.T.);
#658 = ORIENTED_EDGE('',*,*,#134,.F.);
#659 = ORIENTED_EDGE('',*,*,#660,.F.);
#660 = EDGE_CURVE('',#316,#127,#661,.T.);
#661 = LINE('',#662,#663);
#662 = CARTESIAN_POINT('',(4.,19.05,-1.));
#663 = VECTOR('',#664,1.);
#664 = DIRECTION('',(0.,0.,1.));
#665 = PLANE('',#666);
#666 = AXIS2_PLACEMENT_3D('',#667,#668,#669);
#667 = CARTESIAN_POINT('',(4.,12.75,-1.));
#668 = DIRECTION('',(-1.,0.,0.));
#669 = DIRECTION('',(0.,1.,0.));
#670 = ADVANCED_FACE('',(#671),#682,.T.);
#671 = FACE_BOUND('',#672,.T.);
#672 = EDGE_LOOP('',(#673,#674,#675,#676));
#673 = ORIENTED_EDGE('',*,*,#315,.T.);
#674 = ORIENTED_EDGE('',*,*,#660,.T.);
#675 = ORIENTED_EDGE('',*,*,#126,.F.);
#676 = ORIENTED_EDGE('',*,*,#677,.F.);
#677 = EDGE_CURVE('',#308,#119,#678,.T.);
#678 = LINE('',#679,#680);
#679 = CARTESIAN_POINT('',(0.,18.05,-1.));
#680 = VECTOR('',#681,1.);
#681 = DIRECTION('',(0.,0.,1.));
#682 = PLANE('',#683);
#683 = AXIS2_PLACEMENT_3D('',#684,#685,#686);
#684 = CARTESIAN_POINT('',(4.,19.05,-1.));
#685 = DIRECTION('',(0.242535625036,-0.970142500145,0.));
#686 = DIRECTION('',(-0.970142500145,-0.242535625036,0.));
#687 = ADVANCED_FACE('',(#688),#699,.F.);
#688 = FACE_BOUND('',#689,.F.);
#689 = EDGE_LOOP('',(#690,#691,#692,#693));
#690 = ORIENTED_EDGE('',*,*,#118,.F.);
#691 = ORIENTED_EDGE('',*,*,#677,.F.);
#692 = ORIENTED_EDGE('',*,*,#307,.T.);
#693 = ORIENTED_EDGE('',*,*,#694,.T.);
#694 = EDGE_CURVE('',#300,#111,#695,.T.);
#695 = LINE('',#696,#697);
#696 = CARTESIAN_POINT('',(0.,53.,0.));
#697 = VECTOR('',#698,1.);
#698 = DIRECTION('',(0.,0.,1.));
#699 = PLANE('',#700);
#700 = AXIS2_PLACEMENT_3D('',#701,#702,#703);
#701 = CARTESIAN_POINT('',(0.,0.,0.));
#702 = DIRECTION('',(1.,0.,0.));
#703 = DIRECTION('',(0.,0.,1.));
#704 = ADVANCED_FACE('',(#705),#716,.T.);
#705 = FACE_BOUND('',#706,.T.);
#706 = EDGE_LOOP('',(#707,#708,#709,#710));
#707 = ORIENTED_EDGE('',*,*,#299,.F.);
#708 = ORIENTED_EDGE('',*,*,#694,.T.);
#709 = ORIENTED_EDGE('',*,*,#110,.T.);
#710 = ORIENTED_EDGE('',*,*,#711,.F.);
#711 = EDGE_CURVE('',#292,#103,#712,.T.);
#712 = LINE('',#713,#714);
#713 = CARTESIAN_POINT('',(43.,53.,0.));
#714 = VECTOR('',#715,1.);
#715 = DIRECTION('',(0.,0.,1.));
#716 = PLANE('',#717);
#717 = AXIS2_PLACEMENT_3D('',#718,#719,#720);
#718 = CARTESIAN_POINT('',(0.,53.,0.));
#719 = DIRECTION('',(0.,1.,0.));
#720 = DIRECTION('',(0.,0.,1.));
#721 = ADVANCED_FACE('',(#722),#733,.T.);
#722 = FACE_BOUND('',#723,.T.);
#723 = EDGE_LOOP('',(#724,#725,#731,#732));
#724 = ORIENTED_EDGE('',*,*,#102,.F.);
#725 = ORIENTED_EDGE('',*,*,#726,.T.);
#726 = EDGE_CURVE('',#95,#284,#727,.T.);
#727 = LINE('',#728,#729);
#728 = CARTESIAN_POINT('',(43.,17.924390243902,0.));
#729 = VECTOR('',#730,1.);
#730 = DIRECTION('',(0.,0.,-1.));
#731 = ORIENTED_EDGE('',*,*,#291,.T.);
#732 = ORIENTED_EDGE('',*,*,#711,.T.);
#733 = PLANE('',#734);
#734 = AXIS2_PLACEMENT_3D('',#735,#736,#737);
#735 = CARTESIAN_POINT('',(43.,0.,0.));
#736 = DIRECTION('',(1.,0.,0.));
#737 = DIRECTION('',(0.,0.,1.));
#738 = ADVANCED_FACE('',(#739),#750,.T.);
#739 = FACE_BOUND('',#740,.T.);
#740 = EDGE_LOOP('',(#741,#742,#748,#749));
#741 = ORIENTED_EDGE('',*,*,#78,.T.);
#742 = ORIENTED_EDGE('',*,*,#743,.T.);
#743 = EDGE_CURVE('',#71,#95,#744,.T.);
#744 = LINE('',#745,#746);
#745 = CARTESIAN_POINT('',(43.,0.,10.));
#746 = VECTOR('',#747,1.);
#747 = DIRECTION('',(0.,1.,0.));
#748 = ORIENTED_EDGE('',*,*,#94,.T.);
#749 = ORIENTED_EDGE('',*,*,#86,.T.);
#750 = PLANE('',#751);
#751 = AXIS2_PLACEMENT_3D('',#752,#753,#754);
#752 = CARTESIAN_POINT('',(0.,0.,10.));
#753 = DIRECTION('',(0.,0.,1.));
#754 = DIRECTION('',(1.,0.,0.));
#755 = ADVANCED_FACE('',(#756),#767,.T.);
#756 = FACE_BOUND('',#757,.T.);
#757 = EDGE_LOOP('',(#758,#759,#760,#761));
#758 = ORIENTED_EDGE('',*,*,#70,.F.);
#759 = ORIENTED_EDGE('',*,*,#340,.T.);
#760 = ORIENTED_EDGE('',*,*,#259,.T.);
#761 = ORIENTED_EDGE('',*,*,#762,.T.);
#762 = EDGE_CURVE('',#260,#71,#763,.T.);
#763 = LINE('',#764,#765);
#764 = CARTESIAN_POINT('',(43.,13.875609756098,0.));
#765 = VECTOR('',#766,1.);
#766 = DIRECTION('',(0.,0.,1.));
#767 = PLANE('',#768);
#768 = AXIS2_PLACEMENT_3D('',#769,#770,#771);
#769 = CARTESIAN_POINT('',(43.,0.,0.));
#770 = DIRECTION('',(1.,0.,0.));
#771 = DIRECTION('',(0.,0.,1.));
#772 = ADVANCED_FACE('',(#773),#799,.T.);
#773 = FACE_BOUND('',#774,.T.);
#774 = EDGE_LOOP('',(#775,#783,#784,#792));
#775 = ORIENTED_EDGE('',*,*,#776,.F.);
#776 = EDGE_CURVE('',#151,#777,#779,.T.);
#777 = VERTEX_POINT('',#778);
#778 = CARTESIAN_POINT('',(18.185,36.775,20.5));
#779 = LINE('',#780,#781);
#780 = CARTESIAN_POINT('',(18.185,36.775,9.9));
#781 = VECTOR('',#782,1.);
#782 = DIRECTION('',(0.,0.,1.));
#783 = ORIENTED_EDGE('',*,*,#150,.T.);
#784 = ORIENTED_EDGE('',*,*,#785,.T.);
#785 = EDGE_CURVE('',#153,#786,#788,.T.);
#786 = VERTEX_POINT('',#787);
#787 = CARTESIAN_POINT('',(17.585,36.175,20.5));
#788 = LINE('',#789,#790);
#789 = CARTESIAN_POINT('',(17.585,36.175,9.9));
#790 = VECTOR('',#791,1.);
#791 = DIRECTION('',(0.,0.,1.));
#792 = ORIENTED_EDGE('',*,*,#793,.F.);
#793 = EDGE_CURVE('',#777,#786,#794,.T.);
#794 = CIRCLE('',#795,0.6);
#795 = AXIS2_PLACEMENT_3D('',#796,#797,#798);
#796 = CARTESIAN_POINT('',(18.185,36.175,20.5));
#797 = DIRECTION('',(0.,-0.,1.));
#798 = DIRECTION('',(0.,1.,0.));
#799 = CYLINDRICAL_SURFACE('',#800,0.6);
#800 = AXIS2_PLACEMENT_3D('',#801,#802,#803);
#801 = CARTESIAN_POINT('',(18.185,36.175,9.9));
#802 = DIRECTION('',(0.,0.,1.));
#803 = DIRECTION('',(0.,1.,0.));
#804 = ADVANCED_FACE('',(#805),#823,.F.);
#805 = FACE_BOUND('',#806,.F.);
#806 = EDGE_LOOP('',(#807,#808,#816,#822));
#807 = ORIENTED_EDGE('',*,*,#161,.T.);
#808 = ORIENTED_EDGE('',*,*,#809,.T.);
#809 = EDGE_CURVE('',#162,#810,#812,.T.);
#810 = VERTEX_POINT('',#811);
#811 = CARTESIAN_POINT('',(24.815,36.775,20.5));
#812 = LINE('',#813,#814);
#813 = CARTESIAN_POINT('',(24.815,36.775,9.9));
#814 = VECTOR('',#815,1.);
#815 = DIRECTION('',(0.,0.,1.));
#816 = ORIENTED_EDGE('',*,*,#817,.T.);
#817 = EDGE_CURVE('',#810,#777,#818,.T.);
#818 = LINE('',#819,#820);
#819 = CARTESIAN_POINT('',(24.815,36.775,20.5));
#820 = VECTOR('',#821,1.);
#821 = DIRECTION('',(-1.,0.,0.));
#822 = ORIENTED_EDGE('',*,*,#776,.F.);
#823 = PLANE('',#824);
#824 = AXIS2_PLACEMENT_3D('',#825,#826,#827);
#825 = CARTESIAN_POINT('',(25.415,36.775,9.9));
#826 = DIRECTION('',(0.,-1.,0.));
#827 = DIRECTION('',(-1.,0.,0.));
#828 = ADVANCED_FACE('',(#829),#847,.F.);
#829 = FACE_BOUND('',#830,.F.);
#830 = EDGE_LOOP('',(#831,#832,#833,#841));
#831 = ORIENTED_EDGE('',*,*,#212,.T.);
#832 = ORIENTED_EDGE('',*,*,#785,.T.);
#833 = ORIENTED_EDGE('',*,*,#834,.T.);
#834 = EDGE_CURVE('',#786,#835,#837,.T.);
#835 = VERTEX_POINT('',#836);
#836 = CARTESIAN_POINT('',(17.585,29.545,20.5));
#837 = LINE('',#838,#839);
#838 = CARTESIAN_POINT('',(17.585,36.175,20.5));
#839 = VECTOR('',#840,1.);
#840 = DIRECTION('',(0.,-1.,0.));
#841 = ORIENTED_EDGE('',*,*,#842,.F.);
#842 = EDGE_CURVE('',#204,#835,#843,.T.);
#843 = LINE('',#844,#845);
#844 = CARTESIAN_POINT('',(17.585,29.545,9.9));
#845 = VECTOR('',#846,1.);
#846 = DIRECTION('',(0.,0.,1.));
#847 = PLANE('',#848);
#848 = AXIS2_PLACEMENT_3D('',#849,#850,#851);
#849 = CARTESIAN_POINT('',(17.585,36.775,9.9));
#850 = DIRECTION('',(1.,0.,0.));
#851 = DIRECTION('',(0.,-1.,0.));
#852 = ADVANCED_FACE('',(#853),#872,.T.);
#853 = FACE_BOUND('',#854,.F.);
#854 = EDGE_LOOP('',(#855,#856,#857,#865));
#855 = ORIENTED_EDGE('',*,*,#809,.F.);
#856 = ORIENTED_EDGE('',*,*,#169,.F.);
#857 = ORIENTED_EDGE('',*,*,#858,.T.);
#858 = EDGE_CURVE('',#170,#859,#861,.T.);
#859 = VERTEX_POINT('',#860);
#860 = CARTESIAN_POINT('',(25.415,36.175,20.5));
#861 = LINE('',#862,#863);
#862 = CARTESIAN_POINT('',(25.415,36.175,9.9));
#863 = VECTOR('',#864,1.);
#864 = DIRECTION('',(0.,0.,1.));
#865 = ORIENTED_EDGE('',*,*,#866,.T.);
#866 = EDGE_CURVE('',#859,#810,#867,.T.);
#867 = CIRCLE('',#868,0.6);
#868 = AXIS2_PLACEMENT_3D('',#869,#870,#871);
#869 = CARTESIAN_POINT('',(24.815,36.175,20.5));
#870 = DIRECTION('',(0.,0.,1.));
#871 = DIRECTION('',(1.,0.,0.));
#872 = CYLINDRICAL_SURFACE('',#873,0.6);
#873 = AXIS2_PLACEMENT_3D('',#874,#875,#876);
#874 = CARTESIAN_POINT('',(24.815,36.175,9.9));
#875 = DIRECTION('',(0.,0.,1.));
#876 = DIRECTION('',(0.,1.,0.));
#877 = ADVANCED_FACE('',(#878),#897,.T.);
#878 = FACE_BOUND('',#879,.T.);
#879 = EDGE_LOOP('',(#880,#881,#882,#890));
#880 = ORIENTED_EDGE('',*,*,#842,.F.);
#881 = ORIENTED_EDGE('',*,*,#203,.T.);
#882 = ORIENTED_EDGE('',*,*,#883,.T.);
#883 = EDGE_CURVE('',#196,#884,#886,.T.);
#884 = VERTEX_POINT('',#885);
#885 = CARTESIAN_POINT('',(18.185,28.945,20.5));
#886 = LINE('',#887,#888);
#887 = CARTESIAN_POINT('',(18.185,28.945,9.9));
#888 = VECTOR('',#889,1.);
#889 = DIRECTION('',(0.,0.,1.));
#890 = ORIENTED_EDGE('',*,*,#891,.F.);
#891 = EDGE_CURVE('',#835,#884,#892,.T.);
#892 = CIRCLE('',#893,0.6);
#893 = AXIS2_PLACEMENT_3D('',#894,#895,#896);
#894 = CARTESIAN_POINT('',(18.185,29.545,20.5));
#895 = DIRECTION('',(0.,0.,1.));
#896 = DIRECTION('',(-1.,0.,0.));
#897 = CYLINDRICAL_SURFACE('',#898,0.6);
#898 = AXIS2_PLACEMENT_3D('',#899,#900,#901);
#899 = CARTESIAN_POINT('',(18.185,29.545,9.9));
#900 = DIRECTION('',(0.,0.,1.));
#901 = DIRECTION('',(-1.,0.,0.));
#902 = ADVANCED_FACE('',(#903),#921,.F.);
#903 = FACE_BOUND('',#904,.F.);
#904 = EDGE_LOOP('',(#905,#906,#914,#920));
#905 = ORIENTED_EDGE('',*,*,#178,.T.);
#906 = ORIENTED_EDGE('',*,*,#907,.T.);
#907 = EDGE_CURVE('',#179,#908,#910,.T.);
#908 = VERTEX_POINT('',#909);
#909 = CARTESIAN_POINT('',(25.415,29.545,20.5));
#910 = LINE('',#911,#912);
#911 = CARTESIAN_POINT('',(25.415,29.545,9.9));
#912 = VECTOR('',#913,1.);
#913 = DIRECTION('',(0.,0.,1.));
#914 = ORIENTED_EDGE('',*,*,#915,.T.);
#915 = EDGE_CURVE('',#908,#859,#916,.T.);
#916 = LINE('',#917,#918);
#917 = CARTESIAN_POINT('',(25.415,29.545,20.5));
#918 = VECTOR('',#919,1.);
#919 = DIRECTION('',(0.,1.,0.));
#920 = ORIENTED_EDGE('',*,*,#858,.F.);
#921 = PLANE('',#922);
#922 = AXIS2_PLACEMENT_3D('',#923,#924,#925);
#923 = CARTESIAN_POINT('',(25.415,28.945,9.9));
#924 = DIRECTION('',(-1.,0.,0.));
#925 = DIRECTION('',(0.,1.,0.));
#926 = ADVANCED_FACE('',(#927),#945,.F.);
#927 = FACE_BOUND('',#928,.F.);
#928 = EDGE_LOOP('',(#929,#930,#931,#939));
#929 = ORIENTED_EDGE('',*,*,#195,.T.);
#930 = ORIENTED_EDGE('',*,*,#883,.T.);
#931 = ORIENTED_EDGE('',*,*,#932,.T.);
#932 = EDGE_CURVE('',#884,#933,#935,.T.);
#933 = VERTEX_POINT('',#934);
#934 = CARTESIAN_POINT('',(24.815,28.945,20.5));
#935 = LINE('',#936,#937);
#936 = CARTESIAN_POINT('',(18.185,28.945,20.5));
#937 = VECTOR('',#938,1.);
#938 = DIRECTION('',(1.,0.,0.));
#939 = ORIENTED_EDGE('',*,*,#940,.F.);
#940 = EDGE_CURVE('',#187,#933,#941,.T.);
#941 = LINE('',#942,#943);
#942 = CARTESIAN_POINT('',(24.815,28.945,9.9));
#943 = VECTOR('',#944,1.);
#944 = DIRECTION('',(0.,0.,1.));
#945 = PLANE('',#946);
#946 = AXIS2_PLACEMENT_3D('',#947,#948,#949);
#947 = CARTESIAN_POINT('',(17.585,28.945,9.9));
#948 = DIRECTION('',(0.,1.,0.));
#949 = DIRECTION('',(1.,0.,0.));
#950 = ADVANCED_FACE('',(#951),#963,.T.);
#951 = FACE_BOUND('',#952,.T.);
#952 = EDGE_LOOP('',(#953,#954,#955,#956));
#953 = ORIENTED_EDGE('',*,*,#940,.F.);
#954 = ORIENTED_EDGE('',*,*,#186,.T.);
#955 = ORIENTED_EDGE('',*,*,#907,.T.);
#956 = ORIENTED_EDGE('',*,*,#957,.F.);
#957 = EDGE_CURVE('',#933,#908,#958,.T.);
#958 = CIRCLE('',#959,0.6);
#959 = AXIS2_PLACEMENT_3D('',#960,#961,#962);
#960 = CARTESIAN_POINT('',(24.815,29.545,20.5));
#961 = DIRECTION('',(-0.,0.,1.));
#962 = DIRECTION('',(0.,-1.,0.));
#963 = CYLINDRICAL_SURFACE('',#964,0.6);
#964 = AXIS2_PLACEMENT_3D('',#965,#966,#967);
#965 = CARTESIAN_POINT('',(24.815,29.545,9.9));
#966 = DIRECTION('',(0.,0.,1.));
#967 = DIRECTION('',(0.,-1.,0.));
#968 = ADVANCED_FACE('',(#969),#980,.F.);
#969 = FACE_BOUND('',#970,.F.);
#970 = EDGE_LOOP('',(#971,#972,#978,#979));
#971 = ORIENTED_EDGE('',*,*,#267,.T.);
#972 = ORIENTED_EDGE('',*,*,#973,.T.);
#973 = EDGE_CURVE('',#260,#284,#974,.T.);
#974 = LINE('',#975,#976);
#975 = CARTESIAN_POINT('',(43.,0.,0.));
#976 = VECTOR('',#977,1.);
#977 = DIRECTION('',(0.,1.,0.));
#978 = ORIENTED_EDGE('',*,*,#283,.T.);
#979 = ORIENTED_EDGE('',*,*,#275,.T.);
#980 = PLANE('',#981);
#981 = AXIS2_PLACEMENT_3D('',#982,#983,#984);
#982 = CARTESIAN_POINT('',(0.,0.,0.));
#983 = DIRECTION('',(0.,0.,1.));
#984 = DIRECTION('',(1.,0.,0.));
#985 = ADVANCED_FACE('',(#986),#1011,.T.);
#986 = FACE_BOUND('',#987,.T.);
#987 = EDGE_LOOP('',(#988,#989,#997,#1005));
#988 = ORIENTED_EDGE('',*,*,#349,.T.);
#989 = ORIENTED_EDGE('',*,*,#990,.T.);
#990 = EDGE_CURVE('',#352,#991,#993,.T.);
#991 = VERTEX_POINT('',#992);
#992 = CARTESIAN_POINT('',(19.736305732484,1.156231364359,4.931002205339
    ));
#993 = LINE('',#994,#995);
#994 = CARTESIAN_POINT('',(19.736305732484,1.907985460988,4.657386090679
    ));
#995 = VECTOR('',#996,1.);
#996 = DIRECTION('',(0.,-0.939692620786,0.342020143326));
#997 = ORIENTED_EDGE('',*,*,#998,.T.);
#998 = EDGE_CURVE('',#991,#999,#1001,.T.);
#999 = VERTEX_POINT('',#1000);
#1000 = CARTESIAN_POINT('',(20.775796178344,1.195269587088,
    5.038258840782));
#1001 = LINE('',#1002,#1003);
#1002 = CARTESIAN_POINT('',(19.736305732484,1.156231364359,
    4.931002205339));
#1003 = VECTOR('',#1004,1.);
#1004 = DIRECTION('',(0.994025520727,3.733078050948E-02,0.1025654765));
#1005 = ORIENTED_EDGE('',*,*,#1006,.F.);
#1006 = EDGE_CURVE('',#350,#999,#1007,.T.);
#1007 = LINE('',#1008,#1009);
#1008 = CARTESIAN_POINT('',(20.775796178344,1.947023683716,
    4.764642726121));
#1009 = VECTOR('',#1010,1.);
#1010 = DIRECTION('',(0.,-0.939692620786,0.342020143326));
#1011 = PLANE('',#1012);
#1012 = AXIS2_PLACEMENT_3D('',#1013,#1014,#1015);
#1013 = CARTESIAN_POINT('',(19.736305732484,1.907985460988,
    4.657386090679));
#1014 = DIRECTION('',(-0.109147900315,0.339976751068,0.9340784467));
#1015 = DIRECTION('',(0.994025520727,3.733078050948E-02,0.1025654765));
#1016 = ADVANCED_FACE('',(#1017),#1035,.T.);
#1017 = FACE_BOUND('',#1018,.T.);
#1018 = EDGE_LOOP('',(#1019,#1020,#1028,#1034));
#1019 = ORIENTED_EDGE('',*,*,#634,.T.);
#1020 = ORIENTED_EDGE('',*,*,#1021,.T.);
#1021 = EDGE_CURVE('',#618,#1022,#1024,.T.);
#1022 = VERTEX_POINT('',#1023);
#1023 = CARTESIAN_POINT('',(20.256050955414,0.796870581919,
    3.943666570149));
#1024 = LINE('',#1025,#1026);
#1025 = CARTESIAN_POINT('',(20.256050955414,1.548624678548,
    3.670050455488));
#1026 = VECTOR('',#1027,1.);
#1027 = DIRECTION('',(0.,-0.939692620786,0.342020143326));
#1028 = ORIENTED_EDGE('',*,*,#1029,.T.);
#1029 = EDGE_CURVE('',#1022,#991,#1030,.T.);
#1030 = B_SPLINE_CURVE_WITH_KNOTS('',2,(#1031,#1032,#1033),
  .UNSPECIFIED.,.F.,.F.,(3,3),(0.,1.),.PIECEWISE_BEZIER_KNOTS.);
#1031 = CARTESIAN_POINT('',(20.256050955414,0.796870581919,
    3.943666570149));
#1032 = CARTESIAN_POINT('',(19.850955414013,0.917122250146,
    4.274055313253));
#1033 = CARTESIAN_POINT('',(19.736305732484,1.156231364359,
    4.931002205339));
#1034 = ORIENTED_EDGE('',*,*,#990,.F.);
#1035 = SURFACE_OF_LINEAR_EXTRUSION('',#1036,#1040);
#1036 = B_SPLINE_CURVE_WITH_KNOTS('',2,(#1037,#1038,#1039),
  .UNSPECIFIED.,.F.,.F.,(3,3),(0.,1.),.PIECEWISE_BEZIER_KNOTS.);
#1037 = CARTESIAN_POINT('',(20.256050955414,1.548624678548,
    3.670050455488));
#1038 = CARTESIAN_POINT('',(19.850955414013,1.668876346775,
    4.000439198593));
#1039 = CARTESIAN_POINT('',(19.736305732484,1.907985460988,
    4.657386090679));
#1040 = VECTOR('',#1041,1.);
#1041 = DIRECTION('',(-0.,0.939692620786,-0.342020143326));
#1042 = ADVANCED_FACE('',(#1043),#1061,.T.);
#1043 = FACE_BOUND('',#1044,.T.);
#1044 = EDGE_LOOP('',(#1045,#1046,#1054,#1060));
#1045 = ORIENTED_EDGE('',*,*,#617,.T.);
#1046 = ORIENTED_EDGE('',*,*,#1047,.T.);
#1047 = EDGE_CURVE('',#595,#1048,#1050,.T.);
#1048 = VERTEX_POINT('',#1049);
#1049 = CARTESIAN_POINT('',(21.31847133758,0.676618913693,3.613277827045
    ));
#1050 = LINE('',#1051,#1052);
#1051 = CARTESIAN_POINT('',(21.31847133758,1.428373010321,3.339661712384
    ));
#1052 = VECTOR('',#1053,1.);
#1053 = DIRECTION('',(0.,-0.939692620786,0.342020143326));
#1054 = ORIENTED_EDGE('',*,*,#1055,.T.);
#1055 = EDGE_CURVE('',#1048,#1022,#1056,.T.);
#1056 = B_SPLINE_CURVE_WITH_KNOTS('',2,(#1057,#1058,#1059),
  .UNSPECIFIED.,.F.,.F.,(3,3),(0.,1.),.PIECEWISE_BEZIER_KNOTS.);
#1057 = CARTESIAN_POINT('',(21.31847133758,0.676618913693,3.613277827045
    ));
#1058 = CARTESIAN_POINT('',(20.661146496815,0.676618913693,
    3.613277827045));
#1059 = CARTESIAN_POINT('',(20.256050955414,0.796870581919,
    3.943666570149));
#1060 = ORIENTED_EDGE('',*,*,#1021,.F.);
#1061 = SURFACE_OF_LINEAR_EXTRUSION('',#1062,#1066);
#1062 = B_SPLINE_CURVE_WITH_KNOTS('',2,(#1063,#1064,#1065),
  .UNSPECIFIED.,.F.,.F.,(3,3),(0.,1.),.PIECEWISE_BEZIER_KNOTS.);
#1063 = CARTESIAN_POINT('',(21.31847133758,1.428373010321,3.339661712384
    ));
#1064 = CARTESIAN_POINT('',(20.661146496815,1.428373010321,
    3.339661712384));
#1065 = CARTESIAN_POINT('',(20.256050955414,1.548624678548,
    3.670050455488));
#1066 = VECTOR('',#1067,1.);
#1067 = DIRECTION('',(-0.,0.939692620786,-0.342020143326));
#1068 = ADVANCED_FACE('',(#1069),#1087,.T.);
#1069 = FACE_BOUND('',#1070,.T.);
#1070 = EDGE_LOOP('',(#1071,#1072,#1080,#1086));
#1071 = ORIENTED_EDGE('',*,*,#594,.T.);
#1072 = ORIENTED_EDGE('',*,*,#1073,.T.);
#1073 = EDGE_CURVE('',#573,#1074,#1076,.T.);
#1074 = VERTEX_POINT('',#1075);
#1075 = CARTESIAN_POINT('',(22.80127388535,0.909889722274,4.254184106241
    ));
#1076 = LINE('',#1077,#1078);
#1077 = CARTESIAN_POINT('',(22.80127388535,1.661643818903,3.98056799158)
  );
#1078 = VECTOR('',#1079,1.);
#1079 = DIRECTION('',(0.,-0.939692620786,0.342020143326));
#1080 = ORIENTED_EDGE('',*,*,#1081,.T.);
#1081 = EDGE_CURVE('',#1074,#1048,#1082,.T.);
#1082 = B_SPLINE_CURVE_WITH_KNOTS('',2,(#1083,#1084,#1085),
  .UNSPECIFIED.,.F.,.F.,(3,3),(0.,1.),.PIECEWISE_BEZIER_KNOTS.);
#1083 = CARTESIAN_POINT('',(22.80127388535,0.909889722274,4.254184106241
    ));
#1084 = CARTESIAN_POINT('',(22.231847133758,0.676618913693,
    3.613277827045));
#1085 = CARTESIAN_POINT('',(21.31847133758,0.676618913693,3.613277827045
    ));
#1086 = ORIENTED_EDGE('',*,*,#1047,.F.);
#1087 = SURFACE_OF_LINEAR_EXTRUSION('',#1088,#1092);
#1088 = B_SPLINE_CURVE_WITH_KNOTS('',2,(#1089,#1090,#1091),
  .UNSPECIFIED.,.F.,.F.,(3,3),(0.,1.),.PIECEWISE_BEZIER_KNOTS.);
#1089 = CARTESIAN_POINT('',(22.80127388535,1.661643818903,3.98056799158)
  );
#1090 = CARTESIAN_POINT('',(22.231847133758,1.428373010321,
    3.339661712384));
#1091 = CARTESIAN_POINT('',(21.31847133758,1.428373010321,3.339661712384
    ));
#1092 = VECTOR('',#1093,1.);
#1093 = DIRECTION('',(-0.,0.939692620786,-0.342020143326));
#1094 = ADVANCED_FACE('',(#1095),#1113,.T.);
#1095 = FACE_BOUND('',#1096,.T.);
#1096 = EDGE_LOOP('',(#1097,#1098,#1106,#1112));
#1097 = ORIENTED_EDGE('',*,*,#572,.T.);
#1098 = ORIENTED_EDGE('',*,*,#1099,.T.);
#1099 = EDGE_CURVE('',#551,#1100,#1102,.T.);
#1100 = VERTEX_POINT('',#1101);
#1101 = CARTESIAN_POINT('',(23.370700636943,1.669915121023,
    6.342336727513));
#1102 = LINE('',#1103,#1104);
#1103 = CARTESIAN_POINT('',(23.370700636943,2.421669217651,
    6.068720612853));
#1104 = VECTOR('',#1105,1.);
#1105 = DIRECTION('',(0.,-0.939692620786,0.342020143326));
#1106 = ORIENTED_EDGE('',*,*,#1107,.T.);
#1107 = EDGE_CURVE('',#1100,#1074,#1108,.T.);
#1108 = B_SPLINE_CURVE_WITH_KNOTS('',2,(#1109,#1110,#1111),
  .UNSPECIFIED.,.F.,.F.,(3,3),(0.,1.),.PIECEWISE_BEZIER_KNOTS.);
#1109 = CARTESIAN_POINT('',(23.370700636943,1.669915121023,
    6.342336727513));
#1110 = CARTESIAN_POINT('',(23.370700636943,1.143160530856,
    4.895090385436));
#1111 = CARTESIAN_POINT('',(22.80127388535,0.909889722274,4.254184106241
    ));
#1112 = ORIENTED_EDGE('',*,*,#1073,.F.);
#1113 = SURFACE_OF_LINEAR_EXTRUSION('',#1114,#1118);
#1114 = B_SPLINE_CURVE_WITH_KNOTS('',2,(#1115,#1116,#1117),
  .UNSPECIFIED.,.F.,.F.,(3,3),(0.,1.),.PIECEWISE_BEZIER_KNOTS.);
#1115 = CARTESIAN_POINT('',(23.370700636943,2.421669217651,
    6.068720612853));
#1116 = CARTESIAN_POINT('',(23.370700636943,1.894914627485,
    4.621474270776));
#1117 = CARTESIAN_POINT('',(22.80127388535,1.661643818903,3.98056799158)
  );
#1118 = VECTOR('',#1119,1.);
#1119 = DIRECTION('',(-0.,0.939692620786,-0.342020143326));
#1120 = ADVANCED_FACE('',(#1121),#1139,.T.);
#1121 = FACE_BOUND('',#1122,.T.);
#1122 = EDGE_LOOP('',(#1123,#1124,#1132,#1138));
#1123 = ORIENTED_EDGE('',*,*,#550,.T.);
#1124 = ORIENTED_EDGE('',*,*,#1125,.T.);
#1125 = EDGE_CURVE('',#528,#1126,#1128,.T.);
#1126 = VERTEX_POINT('',#1127);
#1127 = CARTESIAN_POINT('',(22.824203821656,2.413645547337,
    8.385719279974));
#1128 = LINE('',#1129,#1130);
#1129 = CARTESIAN_POINT('',(22.824203821656,3.165399643966,
    8.112103165313));
#1130 = VECTOR('',#1131,1.);
#1131 = DIRECTION('',(0.,-0.939692620786,0.342020143326));
#1132 = ORIENTED_EDGE('',*,*,#1133,.T.);
#1133 = EDGE_CURVE('',#1126,#1100,#1134,.T.);
#1134 = B_SPLINE_CURVE_WITH_KNOTS('',2,(#1135,#1136,#1137),
  .UNSPECIFIED.,.F.,.F.,(3,3),(0.,1.),.PIECEWISE_BEZIER_KNOTS.);
#1135 = CARTESIAN_POINT('',(22.824203821656,2.413645547337,
    8.385719279974));
#1136 = CARTESIAN_POINT('',(23.370700636943,2.187607266627,
    7.764684207791));
#1137 = CARTESIAN_POINT('',(23.370700636943,1.669915121023,
    6.342336727513));
#1138 = ORIENTED_EDGE('',*,*,#1099,.F.);
#1139 = SURFACE_OF_LINEAR_EXTRUSION('',#1140,#1144);
#1140 = B_SPLINE_CURVE_WITH_KNOTS('',2,(#1141,#1142,#1143),
  .UNSPECIFIED.,.F.,.F.,(3,3),(0.,1.),.PIECEWISE_BEZIER_KNOTS.);
#1141 = CARTESIAN_POINT('',(22.824203821656,3.165399643966,
    8.112103165313));
#1142 = CARTESIAN_POINT('',(23.370700636943,2.939361363256,7.49106809313
    ));
#1143 = CARTESIAN_POINT('',(23.370700636943,2.421669217651,
    6.068720612853));
#1144 = VECTOR('',#1145,1.);
#1145 = DIRECTION('',(-0.,0.939692620786,-0.342020143326));
#1146 = ADVANCED_FACE('',(#1147),#1165,.T.);
#1147 = FACE_BOUND('',#1148,.T.);
#1148 = EDGE_LOOP('',(#1149,#1150,#1158,#1164));
#1149 = ORIENTED_EDGE('',*,*,#527,.T.);
#1150 = ORIENTED_EDGE('',*,*,#1151,.T.);
#1151 = EDGE_CURVE('',#509,#1152,#1154,.T.);
#1152 = VERTEX_POINT('',#1153);
#1153 = CARTESIAN_POINT('',(21.425477707006,2.639683828047,
    9.006754352157));
#1154 = LINE('',#1155,#1156);
#1155 = CARTESIAN_POINT('',(21.425477707006,3.391437924676,
    8.733138237496));
#1156 = VECTOR('',#1157,1.);
#1157 = DIRECTION('',(0.,-0.939692620786,0.342020143326));
#1158 = ORIENTED_EDGE('',*,*,#1159,.T.);
#1159 = EDGE_CURVE('',#1152,#1126,#1160,.T.);
#1160 = B_SPLINE_CURVE_WITH_KNOTS('',2,(#1161,#1162,#1163),
  .UNSPECIFIED.,.F.,.F.,(3,3),(0.,1.),.PIECEWISE_BEZIER_KNOTS.);
#1161 = CARTESIAN_POINT('',(21.425477707006,2.639683828047,
    9.006754352157));
#1162 = CARTESIAN_POINT('',(22.277707006369,2.639683828047,
    9.006754352157));
#1163 = CARTESIAN_POINT('',(22.824203821656,2.413645547337,
    8.385719279974));
#1164 = ORIENTED_EDGE('',*,*,#1125,.F.);
#1165 = SURFACE_OF_LINEAR_EXTRUSION('',#1166,#1170);
#1166 = B_SPLINE_CURVE_WITH_KNOTS('',2,(#1167,#1168,#1169),
  .UNSPECIFIED.,.F.,.F.,(3,3),(0.,1.),.PIECEWISE_BEZIER_KNOTS.);
#1167 = CARTESIAN_POINT('',(21.425477707006,3.391437924676,
    8.733138237496));
#1168 = CARTESIAN_POINT('',(22.277707006369,3.391437924676,
    8.733138237496));
#1169 = CARTESIAN_POINT('',(22.824203821656,3.165399643966,
    8.112103165313));
#1170 = VECTOR('',#1171,1.);
#1171 = DIRECTION('',(-0.,0.939692620786,-0.342020143326));
#1172 = ADVANCED_FACE('',(#1173),#1191,.T.);
#1173 = FACE_BOUND('',#1174,.T.);
#1174 = EDGE_LOOP('',(#1175,#1176,#1184,#1190));
#1175 = ORIENTED_EDGE('',*,*,#508,.T.);
#1176 = ORIENTED_EDGE('',*,*,#1177,.T.);
#1177 = EDGE_CURVE('',#486,#1178,#1180,.T.);
#1178 = VERTEX_POINT('',#1179);
#1179 = CARTESIAN_POINT('',(20.135541401274,2.461223381288,
    8.516438304419));
#1180 = LINE('',#1181,#1182);
#1181 = CARTESIAN_POINT('',(20.135541401274,3.212977477916,
    8.242822189759));
#1182 = VECTOR('',#1183,1.);
#1183 = DIRECTION('',(0.,-0.939692620786,0.342020143326));
#1184 = ORIENTED_EDGE('',*,*,#1185,.T.);
#1185 = EDGE_CURVE('',#1178,#1152,#1186,.T.);
#1186 = B_SPLINE_CURVE_WITH_KNOTS('',2,(#1187,#1188,#1189),
  .UNSPECIFIED.,.F.,.F.,(3,3),(0.,1.),.PIECEWISE_BEZIER_KNOTS.);
#1187 = CARTESIAN_POINT('',(20.135541401274,2.461223381288,
    8.516438304419));
#1188 = CARTESIAN_POINT('',(20.642038216561,2.639683828047,
    9.006754352157));
#1189 = CARTESIAN_POINT('',(21.425477707006,2.639683828047,
    9.006754352157));
#1190 = ORIENTED_EDGE('',*,*,#1151,.F.);
#1191 = SURFACE_OF_LINEAR_EXTRUSION('',#1192,#1196);
#1192 = B_SPLINE_CURVE_WITH_KNOTS('',2,(#1193,#1194,#1195),
  .UNSPECIFIED.,.F.,.F.,(3,3),(0.,1.),.PIECEWISE_BEZIER_KNOTS.);
#1193 = CARTESIAN_POINT('',(20.135541401274,3.212977477916,
    8.242822189759));
#1194 = CARTESIAN_POINT('',(20.642038216561,3.391437924676,
    8.733138237496));
#1195 = CARTESIAN_POINT('',(21.425477707006,3.391437924676,
    8.733138237496));
#1196 = VECTOR('',#1197,1.);
#1197 = DIRECTION('',(-0.,0.939692620786,-0.342020143326));
#1198 = ADVANCED_FACE('',(#1199),#1217,.T.);
#1199 = FACE_BOUND('',#1200,.T.);
#1200 = EDGE_LOOP('',(#1201,#1202,#1210,#1216));
#1201 = ORIENTED_EDGE('',*,*,#485,.T.);
#1202 = ORIENTED_EDGE('',*,*,#1203,.T.);
#1203 = EDGE_CURVE('',#463,#1204,#1206,.T.);
#1204 = VERTEX_POINT('',#1205);
#1205 = CARTESIAN_POINT('',(19.629299363057,1.991283347414,
    7.225288672853));
#1206 = LINE('',#1207,#1208);
#1207 = CARTESIAN_POINT('',(19.629299363057,2.743037444042,
    6.951672558192));
#1208 = VECTOR('',#1209,1.);
#1209 = DIRECTION('',(0.,-0.939692620786,0.342020143326));
#1210 = ORIENTED_EDGE('',*,*,#1211,.T.);
#1211 = EDGE_CURVE('',#1204,#1178,#1212,.T.);
#1212 = B_SPLINE_CURVE_WITH_KNOTS('',2,(#1213,#1214,#1215),
  .UNSPECIFIED.,.F.,.F.,(3,3),(0.,1.),.PIECEWISE_BEZIER_KNOTS.);
#1213 = CARTESIAN_POINT('',(19.629299363057,1.991283347414,
    7.225288672853));
#1214 = CARTESIAN_POINT('',(19.629299363057,2.282850073418,
    8.026361668814));
#1215 = CARTESIAN_POINT('',(20.135541401274,2.461223381288,
    8.516438304419));
#1216 = ORIENTED_EDGE('',*,*,#1177,.F.);
#1217 = SURFACE_OF_LINEAR_EXTRUSION('',#1218,#1222);
#1218 = B_SPLINE_CURVE_WITH_KNOTS('',2,(#1219,#1220,#1221),
  .UNSPECIFIED.,.F.,.F.,(3,3),(0.,1.),.PIECEWISE_BEZIER_KNOTS.);
#1219 = CARTESIAN_POINT('',(19.629299363057,2.743037444042,
    6.951672558192));
#1220 = CARTESIAN_POINT('',(19.629299363057,3.034604170047,
    7.752745554154));
#1221 = CARTESIAN_POINT('',(20.135541401274,3.212977477916,
    8.242822189759));
#1222 = VECTOR('',#1223,1.);
#1223 = DIRECTION('',(-0.,0.939692620786,-0.342020143326));
#1224 = ADVANCED_FACE('',(#1225),#1243,.T.);
#1225 = FACE_BOUND('',#1226,.T.);
#1226 = EDGE_LOOP('',(#1227,#1228,#1236,#1242));
#1227 = ORIENTED_EDGE('',*,*,#462,.T.);
#1228 = ORIENTED_EDGE('',*,*,#1229,.T.);
#1229 = EDGE_CURVE('',#444,#1230,#1232,.T.);
#1230 = VERTEX_POINT('',#1231);
#1231 = CARTESIAN_POINT('',(20.108789808917,1.537028313743,
    5.977233225169));
#1232 = LINE('',#1233,#1234);
#1233 = CARTESIAN_POINT('',(20.108789808917,2.288782410372,
    5.703617110509));
#1234 = VECTOR('',#1235,1.);
#1235 = DIRECTION('',(0.,-0.939692620786,0.342020143326));
#1236 = ORIENTED_EDGE('',*,*,#1237,.T.);
#1237 = EDGE_CURVE('',#1230,#1204,#1238,.T.);
#1238 = B_SPLINE_CURVE_WITH_KNOTS('',2,(#1239,#1240,#1241),
  .UNSPECIFIED.,.F.,.F.,(3,3),(0.,1.),.PIECEWISE_BEZIER_KNOTS.);
#1239 = CARTESIAN_POINT('',(20.108789808917,1.537028313743,
    5.977233225169));
#1240 = CARTESIAN_POINT('',(19.629299363057,1.711567510452,
    6.456775726936));
#1241 = CARTESIAN_POINT('',(19.629299363057,1.991283347414,
    7.225288672853));
#1242 = ORIENTED_EDGE('',*,*,#1203,.F.);
#1243 = SURFACE_OF_LINEAR_EXTRUSION('',#1244,#1248);
#1244 = B_SPLINE_CURVE_WITH_KNOTS('',2,(#1245,#1246,#1247),
  .UNSPECIFIED.,.F.,.F.,(3,3),(0.,1.),.PIECEWISE_BEZIER_KNOTS.);
#1245 = CARTESIAN_POINT('',(20.108789808917,2.288782410372,
    5.703617110509));
#1246 = CARTESIAN_POINT('',(19.629299363057,2.46332160708,6.183159612276
    ));
#1247 = CARTESIAN_POINT('',(19.629299363057,2.743037444042,
    6.951672558192));
#1248 = VECTOR('',#1249,1.);
#1249 = DIRECTION('',(-0.,0.939692620786,-0.342020143326));
#1250 = ADVANCED_FACE('',(#1251),#1269,.T.);
#1251 = FACE_BOUND('',#1252,.T.);
#1252 = EDGE_LOOP('',(#1253,#1254,#1262,#1268));
#1253 = ORIENTED_EDGE('',*,*,#443,.T.);
#1254 = ORIENTED_EDGE('',*,*,#1255,.T.);
#1255 = EDGE_CURVE('',#425,#1256,#1258,.T.);
#1256 = VERTEX_POINT('',#1257);
#1257 = CARTESIAN_POINT('',(21.249681528662,1.362576255925,
    5.497930135535));
#1258 = LINE('',#1259,#1260);
#1259 = CARTESIAN_POINT('',(21.249681528662,2.114330352553,
    5.224314020875));
#1260 = VECTOR('',#1261,1.);
#1261 = DIRECTION('',(0.,-0.939692620786,0.342020143326));
#1262 = ORIENTED_EDGE('',*,*,#1263,.T.);
#1263 = EDGE_CURVE('',#1256,#1230,#1264,.T.);
#1264 = B_SPLINE_CURVE_WITH_KNOTS('',2,(#1265,#1266,#1267),
  .UNSPECIFIED.,.F.,.F.,(3,3),(0.,1.),.PIECEWISE_BEZIER_KNOTS.);
#1265 = CARTESIAN_POINT('',(21.249681528662,1.362576255925,
    5.497930135535));
#1266 = CARTESIAN_POINT('',(20.588535031847,1.362576255925,
    5.497930135535));
#1267 = CARTESIAN_POINT('',(20.108789808917,1.537028313743,
    5.977233225169));
#1268 = ORIENTED_EDGE('',*,*,#1229,.F.);
#1269 = SURFACE_OF_LINEAR_EXTRUSION('',#1270,#1274);
#1270 = B_SPLINE_CURVE_WITH_KNOTS('',2,(#1271,#1272,#1273),
  .UNSPECIFIED.,.F.,.F.,(3,3),(0.,1.),.PIECEWISE_BEZIER_KNOTS.);
#1271 = CARTESIAN_POINT('',(21.249681528662,2.114330352553,
    5.224314020875));
#1272 = CARTESIAN_POINT('',(20.588535031847,2.114330352553,
    5.224314020875));
#1273 = CARTESIAN_POINT('',(20.108789808917,2.288782410372,
    5.703617110509));
#1274 = VECTOR('',#1275,1.);
#1275 = DIRECTION('',(-0.,0.939692620786,-0.342020143326));
#1276 = ADVANCED_FACE('',(#1277),#1295,.T.);
#1277 = FACE_BOUND('',#1278,.T.);
#1278 = EDGE_LOOP('',(#1279,#1280,#1288,#1294));
#1279 = ORIENTED_EDGE('',*,*,#424,.T.);
#1280 = ORIENTED_EDGE('',*,*,#1281,.T.);
#1281 = EDGE_CURVE('',#404,#1282,#1284,.T.);
#1282 = VERTEX_POINT('',#1283);
#1283 = CARTESIAN_POINT('',(22.262420382166,1.52334750801,5.939645520338
    ));
#1284 = LINE('',#1285,#1286);
#1285 = CARTESIAN_POINT('',(22.262420382166,2.275101604639,
    5.666029405678));
#1286 = VECTOR('',#1287,1.);
#1287 = DIRECTION('',(0.,-0.939692620786,0.342020143326));
#1288 = ORIENTED_EDGE('',*,*,#1289,.T.);
#1289 = EDGE_CURVE('',#1282,#1256,#1290,.T.);
#1290 = B_SPLINE_CURVE_WITH_KNOTS('',2,(#1291,#1292,#1293),
  .UNSPECIFIED.,.F.,.F.,(3,3),(0.,1.),.PIECEWISE_BEZIER_KNOTS.);
#1291 = CARTESIAN_POINT('',(22.262420382166,1.52334750801,5.939645520338
    ));
#1292 = CARTESIAN_POINT('',(21.857324840764,1.362576255925,
    5.497930135535));
#1293 = CARTESIAN_POINT('',(21.249681528662,1.362576255925,
    5.497930135535));
#1294 = ORIENTED_EDGE('',*,*,#1255,.F.);
#1295 = SURFACE_OF_LINEAR_EXTRUSION('',#1296,#1300);
#1296 = B_SPLINE_CURVE_WITH_KNOTS('',2,(#1297,#1298,#1299),
  .UNSPECIFIED.,.F.,.F.,(3,3),(0.,1.),.PIECEWISE_BEZIER_KNOTS.);
#1297 = CARTESIAN_POINT('',(22.262420382166,2.275101604639,
    5.666029405678));
#1298 = CARTESIAN_POINT('',(21.857324840764,2.114330352553,
    5.224314020875));
#1299 = CARTESIAN_POINT('',(21.249681528662,2.114330352553,
    5.224314020875));
#1300 = VECTOR('',#1301,1.);
#1301 = DIRECTION('',(-0.,0.939692620786,-0.342020143326));
#1302 = ADVANCED_FACE('',(#1303),#1321,.T.);
#1303 = FACE_BOUND('',#1304,.T.);
#1304 = EDGE_LOOP('',(#1305,#1306,#1314,#1320));
#1305 = ORIENTED_EDGE('',*,*,#403,.T.);
#1306 = ORIENTED_EDGE('',*,*,#1307,.T.);
#1307 = EDGE_CURVE('',#387,#1308,#1310,.T.);
#1308 = VERTEX_POINT('',#1309);
#1309 = CARTESIAN_POINT('',(21.964331210191,1.088263030144,
    4.744260741845));
#1310 = LINE('',#1311,#1312);
#1311 = CARTESIAN_POINT('',(21.964331210191,1.840017126773,
    4.470644627185));
#1312 = VECTOR('',#1313,1.);
#1313 = DIRECTION('',(0.,-0.939692620786,0.342020143326));
#1314 = ORIENTED_EDGE('',*,*,#1315,.T.);
#1315 = EDGE_CURVE('',#1308,#1282,#1316,.T.);
#1316 = B_SPLINE_CURVE_WITH_KNOTS('',2,(#1317,#1318,#1319),
  .UNSPECIFIED.,.F.,.F.,(3,3),(0.,1.),.PIECEWISE_BEZIER_KNOTS.);
#1317 = CARTESIAN_POINT('',(21.964331210191,1.088263030144,
    4.744260741845));
#1318 = CARTESIAN_POINT('',(22.197452229299,1.193265392617,5.03275236173
    ));
#1319 = CARTESIAN_POINT('',(22.262420382166,1.52334750801,5.939645520338
    ));
#1320 = ORIENTED_EDGE('',*,*,#1281,.F.);
#1321 = SURFACE_OF_LINEAR_EXTRUSION('',#1322,#1326);
#1322 = B_SPLINE_CURVE_WITH_KNOTS('',2,(#1323,#1324,#1325),
  .UNSPECIFIED.,.F.,.F.,(3,3),(0.,1.),.PIECEWISE_BEZIER_KNOTS.);
#1323 = CARTESIAN_POINT('',(21.964331210191,1.840017126773,
    4.470644627185));
#1324 = CARTESIAN_POINT('',(22.197452229299,1.945019489246,
    4.759136247069));
#1325 = CARTESIAN_POINT('',(22.262420382166,2.275101604639,
    5.666029405678));
#1326 = VECTOR('',#1327,1.);
#1327 = DIRECTION('',(-0.,0.939692620786,-0.342020143326));
#1328 = ADVANCED_FACE('',(#1329),#1347,.T.);
#1329 = FACE_BOUND('',#1330,.T.);
#1330 = EDGE_LOOP('',(#1331,#1332,#1340,#1346));
#1331 = ORIENTED_EDGE('',*,*,#386,.T.);
#1332 = ORIENTED_EDGE('',*,*,#1333,.T.);
#1333 = EDGE_CURVE('',#372,#1334,#1336,.T.);
#1334 = VERTEX_POINT('',#1335);
#1335 = CARTESIAN_POINT('',(21.39872611465,0.983347806561,4.456008534093
    ));
#1336 = LINE('',#1337,#1338);
#1337 = CARTESIAN_POINT('',(21.39872611465,1.735101903189,4.182392419433
    ));
#1338 = VECTOR('',#1339,1.);
#1339 = DIRECTION('',(0.,-0.939692620786,0.342020143326));
#1340 = ORIENTED_EDGE('',*,*,#1341,.T.);
#1341 = EDGE_CURVE('',#1334,#1308,#1342,.T.);
#1342 = B_SPLINE_CURVE_WITH_KNOTS('',2,(#1343,#1344,#1345),
  .UNSPECIFIED.,.F.,.F.,(3,3),(0.,1.),.PIECEWISE_BEZIER_KNOTS.);
#1343 = CARTESIAN_POINT('',(21.39872611465,0.983347806561,4.456008534093
    ));
#1344 = CARTESIAN_POINT('',(21.731210191083,0.983347806561,
    4.456008534093));
#1345 = CARTESIAN_POINT('',(21.964331210191,1.088263030144,
    4.744260741845));
#1346 = ORIENTED_EDGE('',*,*,#1307,.F.);
#1347 = SURFACE_OF_LINEAR_EXTRUSION('',#1348,#1352);
#1348 = B_SPLINE_CURVE_WITH_KNOTS('',2,(#1349,#1350,#1351),
  .UNSPECIFIED.,.F.,.F.,(3,3),(0.,1.),.PIECEWISE_BEZIER_KNOTS.);
#1349 = CARTESIAN_POINT('',(21.39872611465,1.735101903189,4.182392419433
    ));
#1350 = CARTESIAN_POINT('',(21.731210191083,1.735101903189,
    4.182392419433));
#1351 = CARTESIAN_POINT('',(21.964331210191,1.840017126773,
    4.470644627185));
#1352 = VECTOR('',#1353,1.);
#1353 = DIRECTION('',(-0.,0.939692620786,-0.342020143326));
#1354 = ADVANCED_FACE('',(#1355),#1373,.T.);
#1355 = FACE_BOUND('',#1356,.T.);
#1356 = EDGE_LOOP('',(#1357,#1358,#1366,#1372));
#1357 = ORIENTED_EDGE('',*,*,#371,.T.);
#1358 = ORIENTED_EDGE('',*,*,#1359,.T.);
#1359 = EDGE_CURVE('',#360,#1360,#1362,.T.);
#1360 = VERTEX_POINT('',#1361);
#1361 = CARTESIAN_POINT('',(20.974522292994,1.035369723902,
    4.598937577306));
#1362 = LINE('',#1363,#1364);
#1363 = CARTESIAN_POINT('',(20.974522292994,1.787123820531,
    4.325321462645));
#1364 = VECTOR('',#1365,1.);
#1365 = DIRECTION('',(0.,-0.939692620786,0.342020143326));
#1366 = ORIENTED_EDGE('',*,*,#1367,.T.);
#1367 = EDGE_CURVE('',#1360,#1334,#1368,.T.);
#1368 = B_SPLINE_CURVE_WITH_KNOTS('',2,(#1369,#1370,#1371),
  .UNSPECIFIED.,.F.,.F.,(3,3),(0.,1.),.PIECEWISE_BEZIER_KNOTS.);
#1369 = CARTESIAN_POINT('',(20.974522292994,1.035369723902,
    4.598937577306));
#1370 = CARTESIAN_POINT('',(21.135031847134,0.983347806561,
    4.456008534093));
#1371 = CARTESIAN_POINT('',(21.39872611465,0.983347806561,4.456008534093
    ));
#1372 = ORIENTED_EDGE('',*,*,#1333,.F.);
#1373 = SURFACE_OF_LINEAR_EXTRUSION('',#1374,#1378);
#1374 = B_SPLINE_CURVE_WITH_KNOTS('',2,(#1375,#1376,#1377),
  .UNSPECIFIED.,.F.,.F.,(3,3),(0.,1.),.PIECEWISE_BEZIER_KNOTS.);
#1375 = CARTESIAN_POINT('',(20.974522292994,1.787123820531,
    4.325321462645));
#1376 = CARTESIAN_POINT('',(21.135031847134,1.735101903189,
    4.182392419433));
#1377 = CARTESIAN_POINT('',(21.39872611465,1.735101903189,4.182392419433
    ));
#1378 = VECTOR('',#1379,1.);
#1379 = DIRECTION('',(-0.,0.939692620786,-0.342020143326));
#1380 = ADVANCED_FACE('',(#1381),#1392,.T.);
#1381 = FACE_BOUND('',#1382,.T.);
#1382 = EDGE_LOOP('',(#1383,#1384,#1385,#1391));
#1383 = ORIENTED_EDGE('',*,*,#359,.T.);
#1384 = ORIENTED_EDGE('',*,*,#1006,.T.);
#1385 = ORIENTED_EDGE('',*,*,#1386,.T.);
#1386 = EDGE_CURVE('',#999,#1360,#1387,.T.);
#1387 = B_SPLINE_CURVE_WITH_KNOTS('',2,(#1388,#1389,#1390),
  .UNSPECIFIED.,.F.,.F.,(3,3),(0.,1.),.PIECEWISE_BEZIER_KNOTS.);
#1388 = CARTESIAN_POINT('',(20.775796178344,1.195269587088,
    5.038258840782));
#1389 = CARTESIAN_POINT('',(20.814012738854,1.087391641244,
    4.741866620518));
#1390 = CARTESIAN_POINT('',(20.974522292994,1.035369723902,
    4.598937577306));
#1391 = ORIENTED_EDGE('',*,*,#1359,.F.);
#1392 = SURFACE_OF_LINEAR_EXTRUSION('',#1393,#1397);
#1393 = B_SPLINE_CURVE_WITH_KNOTS('',2,(#1394,#1395,#1396),
  .UNSPECIFIED.,.F.,.F.,(3,3),(0.,1.),.PIECEWISE_BEZIER_KNOTS.);
#1394 = CARTESIAN_POINT('',(20.775796178344,1.947023683716,
    4.764642726121));
#1395 = CARTESIAN_POINT('',(20.814012738854,1.839145737872,
    4.468250505858));
#1396 = CARTESIAN_POINT('',(20.974522292994,1.787123820531,
    4.325321462645));
#1397 = VECTOR('',#1398,1.);
#1398 = DIRECTION('',(-0.,0.939692620786,-0.342020143326));
#1399 = ADVANCED_FACE('',(#1400),#1425,.F.);
#1400 = FACE_BOUND('',#1401,.F.);
#1401 = EDGE_LOOP('',(#1402,#1410,#1418,#1424));
#1402 = ORIENTED_EDGE('',*,*,#1403,.F.);
#1403 = EDGE_CURVE('',#1404,#284,#1406,.T.);
#1404 = VERTEX_POINT('',#1405);
#1405 = CARTESIAN_POINT('',(47.,18.9,0.));
#1406 = LINE('',#1407,#1408);
#1407 = CARTESIAN_POINT('',(47.,18.9,0.));
#1408 = VECTOR('',#1409,1.);
#1409 = DIRECTION('',(-0.971520338783,-0.236956180191,0.));
#1410 = ORIENTED_EDGE('',*,*,#1411,.T.);
#1411 = EDGE_CURVE('',#1404,#1412,#1414,.T.);
#1412 = VERTEX_POINT('',#1413);
#1413 = CARTESIAN_POINT('',(47.,18.9,10.));
#1414 = LINE('',#1415,#1416);
#1415 = CARTESIAN_POINT('',(47.,18.9,0.));
#1416 = VECTOR('',#1417,1.);
#1417 = DIRECTION('',(0.,0.,1.));
#1418 = ORIENTED_EDGE('',*,*,#1419,.T.);
#1419 = EDGE_CURVE('',#1412,#95,#1420,.T.);
#1420 = LINE('',#1421,#1422);
#1421 = CARTESIAN_POINT('',(47.,18.9,10.));
#1422 = VECTOR('',#1423,1.);
#1423 = DIRECTION('',(-0.971520338783,-0.236956180191,0.));
#1424 = ORIENTED_EDGE('',*,*,#726,.T.);
#1425 = PLANE('',#1426);
#1426 = AXIS2_PLACEMENT_3D('',#1427,#1428,#1429);
#1427 = CARTESIAN_POINT('',(47.,18.9,0.));
#1428 = DIRECTION('',(0.236956180191,-0.971520338783,0.));
#1429 = DIRECTION('',(-0.971520338783,-0.236956180191,0.));
#1430 = ADVANCED_FACE('',(#1431),#1449,.T.);
#1431 = FACE_BOUND('',#1432,.T.);
#1432 = EDGE_LOOP('',(#1433,#1434,#1442,#1448));
#1433 = ORIENTED_EDGE('',*,*,#743,.F.);
#1434 = ORIENTED_EDGE('',*,*,#1435,.T.);
#1435 = EDGE_CURVE('',#71,#1436,#1438,.T.);
#1436 = VERTEX_POINT('',#1437);
#1437 = CARTESIAN_POINT('',(47.,12.9,10.));
#1438 = LINE('',#1439,#1440);
#1439 = CARTESIAN_POINT('',(42.9,13.9,10.));
#1440 = VECTOR('',#1441,1.);
#1441 = DIRECTION('',(0.971520338783,-0.236956180191,0.));
#1442 = ORIENTED_EDGE('',*,*,#1443,.T.);
#1443 = EDGE_CURVE('',#1436,#1412,#1444,.T.);
#1444 = LINE('',#1445,#1446);
#1445 = CARTESIAN_POINT('',(47.,12.9,10.));
#1446 = VECTOR('',#1447,1.);
#1447 = DIRECTION('',(0.,1.,0.));
#1448 = ORIENTED_EDGE('',*,*,#1419,.T.);
#1449 = PLANE('',#1450);
#1450 = AXIS2_PLACEMENT_3D('',#1451,#1452,#1453);
#1451 = CARTESIAN_POINT('',(45.172338161771,15.9,10.));
#1452 = DIRECTION('',(0.,0.,1.));
#1453 = DIRECTION('',(1.,0.,0.));
#1454 = ADVANCED_FACE('',(#1455),#1473,.F.);
#1455 = FACE_BOUND('',#1456,.F.);
#1456 = EDGE_LOOP('',(#1457,#1465,#1466,#1467));
#1457 = ORIENTED_EDGE('',*,*,#1458,.F.);
#1458 = EDGE_CURVE('',#260,#1459,#1461,.T.);
#1459 = VERTEX_POINT('',#1460);
#1460 = CARTESIAN_POINT('',(47.,12.9,0.));
#1461 = LINE('',#1462,#1463);
#1462 = CARTESIAN_POINT('',(42.9,13.9,0.));
#1463 = VECTOR('',#1464,1.);
#1464 = DIRECTION('',(0.971520338783,-0.236956180191,0.));
#1465 = ORIENTED_EDGE('',*,*,#762,.T.);
#1466 = ORIENTED_EDGE('',*,*,#1435,.T.);
#1467 = ORIENTED_EDGE('',*,*,#1468,.F.);
#1468 = EDGE_CURVE('',#1459,#1436,#1469,.T.);
#1469 = LINE('',#1470,#1471);
#1470 = CARTESIAN_POINT('',(47.,12.9,0.));
#1471 = VECTOR('',#1472,1.);
#1472 = DIRECTION('',(0.,0.,1.));
#1473 = PLANE('',#1474);
#1474 = AXIS2_PLACEMENT_3D('',#1475,#1476,#1477);
#1475 = CARTESIAN_POINT('',(42.9,13.9,0.));
#1476 = DIRECTION('',(0.236956180191,0.971520338783,0.));
#1477 = DIRECTION('',(0.971520338783,-0.236956180191,0.));
#1478 = ADVANCED_FACE('',(#1479),#1505,.T.);
#1479 = FACE_BOUND('',#1480,.T.);
#1480 = EDGE_LOOP('',(#1481,#1489,#1490,#1498));
#1481 = ORIENTED_EDGE('',*,*,#1482,.F.);
#1482 = EDGE_CURVE('',#777,#1483,#1485,.T.);
#1483 = VERTEX_POINT('',#1484);
#1484 = CARTESIAN_POINT('',(18.185,36.275,21.));
#1485 = LINE('',#1486,#1487);
#1486 = CARTESIAN_POINT('',(18.185,36.525,20.75));
#1487 = VECTOR('',#1488,1.);
#1488 = DIRECTION('',(-2.90882763039E-35,-0.707106781187,0.707106781187)
  );
#1489 = ORIENTED_EDGE('',*,*,#793,.T.);
#1490 = ORIENTED_EDGE('',*,*,#1491,.T.);
#1491 = EDGE_CURVE('',#786,#1492,#1494,.T.);
#1492 = VERTEX_POINT('',#1493);
#1493 = CARTESIAN_POINT('',(18.085,36.175,21.));
#1494 = LINE('',#1495,#1496);
#1495 = CARTESIAN_POINT('',(17.585,36.175,20.5));
#1496 = VECTOR('',#1497,1.);
#1497 = DIRECTION('',(0.707106781187,-4.329780281177E-17,0.707106781187)
  );
#1498 = ORIENTED_EDGE('',*,*,#1499,.F.);
#1499 = EDGE_CURVE('',#1483,#1492,#1500,.T.);
#1500 = CIRCLE('',#1501,1.E-01);
#1501 = AXIS2_PLACEMENT_3D('',#1502,#1503,#1504);
#1502 = CARTESIAN_POINT('',(18.185,36.175,21.));
#1503 = DIRECTION('',(0.,-0.,1.));
#1504 = DIRECTION('',(0.,1.,0.));
#1505 = CONICAL_SURFACE('',#1506,0.6,0.785398163397);
#1506 = AXIS2_PLACEMENT_3D('',#1507,#1508,#1509);
#1507 = CARTESIAN_POINT('',(18.185,36.175,20.5));
#1508 = DIRECTION('',(-0.,-0.,-1.));
#1509 = DIRECTION('',(0.,1.,0.));
#1510 = ADVANCED_FACE('',(#1511),#1529,.F.);
#1511 = FACE_BOUND('',#1512,.T.);
#1512 = EDGE_LOOP('',(#1513,#1521,#1522,#1523));
#1513 = ORIENTED_EDGE('',*,*,#1514,.F.);
#1514 = EDGE_CURVE('',#810,#1515,#1517,.T.);
#1515 = VERTEX_POINT('',#1516);
#1516 = CARTESIAN_POINT('',(24.815,36.275,21.));
#1517 = LINE('',#1518,#1519);
#1518 = CARTESIAN_POINT('',(24.815,36.525,20.75));
#1519 = VECTOR('',#1520,1.);
#1520 = DIRECTION('',(-2.90882763039E-35,-0.707106781187,0.707106781187)
  );
#1521 = ORIENTED_EDGE('',*,*,#817,.T.);
#1522 = ORIENTED_EDGE('',*,*,#1482,.T.);
#1523 = ORIENTED_EDGE('',*,*,#1524,.F.);
#1524 = EDGE_CURVE('',#1515,#1483,#1525,.T.);
#1525 = LINE('',#1526,#1527);
#1526 = CARTESIAN_POINT('',(24.815,36.275,21.));
#1527 = VECTOR('',#1528,1.);
#1528 = DIRECTION('',(-1.,0.,0.));
#1529 = PLANE('',#1530);
#1530 = AXIS2_PLACEMENT_3D('',#1531,#1532,#1533);
#1531 = CARTESIAN_POINT('',(24.815,36.525,20.75));
#1532 = DIRECTION('',(-1.889513820523E-18,-0.707106781187,
    -0.707106781187));
#1533 = DIRECTION('',(1.,-1.336088035637E-18,-1.336088035637E-18));
#1534 = ADVANCED_FACE('',(#1535),#1553,.F.);
#1535 = FACE_BOUND('',#1536,.T.);
#1536 = EDGE_LOOP('',(#1537,#1538,#1539,#1547));
#1537 = ORIENTED_EDGE('',*,*,#1491,.F.);
#1538 = ORIENTED_EDGE('',*,*,#834,.T.);
#1539 = ORIENTED_EDGE('',*,*,#1540,.T.);
#1540 = EDGE_CURVE('',#835,#1541,#1543,.T.);
#1541 = VERTEX_POINT('',#1542);
#1542 = CARTESIAN_POINT('',(18.085,29.545,21.));
#1543 = LINE('',#1544,#1545);
#1544 = CARTESIAN_POINT('',(17.835,29.545,20.75));
#1545 = VECTOR('',#1546,1.);
#1546 = DIRECTION('',(0.707106781187,-2.90882763039E-35,0.707106781187)
  );
#1547 = ORIENTED_EDGE('',*,*,#1548,.F.);
#1548 = EDGE_CURVE('',#1492,#1541,#1549,.T.);
#1549 = LINE('',#1550,#1551);
#1550 = CARTESIAN_POINT('',(18.085,36.175,21.));
#1551 = VECTOR('',#1552,1.);
#1552 = DIRECTION('',(0.,-1.,0.));
#1553 = PLANE('',#1554);
#1554 = AXIS2_PLACEMENT_3D('',#1555,#1556,#1557);
#1555 = CARTESIAN_POINT('',(17.835,36.175,20.75));
#1556 = DIRECTION('',(0.707106781187,1.889513820523E-18,-0.707106781187)
  );
#1557 = DIRECTION('',(-1.336088035637E-18,1.,1.336088035637E-18));
#1558 = ADVANCED_FACE('',(#1559),#1578,.T.);
#1559 = FACE_BOUND('',#1560,.T.);
#1560 = EDGE_LOOP('',(#1561,#1569,#1570,#1571));
#1561 = ORIENTED_EDGE('',*,*,#1562,.F.);
#1562 = EDGE_CURVE('',#859,#1563,#1565,.T.);
#1563 = VERTEX_POINT('',#1564);
#1564 = CARTESIAN_POINT('',(24.915,36.175,21.));
#1565 = LINE('',#1566,#1567);
#1566 = CARTESIAN_POINT('',(25.165,36.175,20.75));
#1567 = VECTOR('',#1568,1.);
#1568 = DIRECTION('',(-0.707106781187,2.90882763039E-35,0.707106781187)
  );
#1569 = ORIENTED_EDGE('',*,*,#866,.T.);
#1570 = ORIENTED_EDGE('',*,*,#1514,.T.);
#1571 = ORIENTED_EDGE('',*,*,#1572,.F.);
#1572 = EDGE_CURVE('',#1563,#1515,#1573,.T.);
#1573 = CIRCLE('',#1574,1.E-01);
#1574 = AXIS2_PLACEMENT_3D('',#1575,#1576,#1577);
#1575 = CARTESIAN_POINT('',(24.815,36.175,21.));
#1576 = DIRECTION('',(0.,0.,1.));
#1577 = DIRECTION('',(1.,0.,0.));
#1578 = CONICAL_SURFACE('',#1579,0.6,0.785398163397);
#1579 = AXIS2_PLACEMENT_3D('',#1580,#1581,#1582);
#1580 = CARTESIAN_POINT('',(24.815,36.175,20.5));
#1581 = DIRECTION('',(-0.,-0.,-1.));
#1582 = DIRECTION('',(1.,0.,0.));
#1583 = ADVANCED_FACE('',(#1584),#1603,.T.);
#1584 = FACE_BOUND('',#1585,.T.);
#1585 = EDGE_LOOP('',(#1586,#1587,#1588,#1596));
#1586 = ORIENTED_EDGE('',*,*,#1540,.F.);
#1587 = ORIENTED_EDGE('',*,*,#891,.T.);
#1588 = ORIENTED_EDGE('',*,*,#1589,.T.);
#1589 = EDGE_CURVE('',#884,#1590,#1592,.T.);
#1590 = VERTEX_POINT('',#1591);
#1591 = CARTESIAN_POINT('',(18.185,29.445,21.));
#1592 = LINE('',#1593,#1594);
#1593 = CARTESIAN_POINT('',(18.185,28.945,20.5));
#1594 = VECTOR('',#1595,1.);
#1595 = DIRECTION('',(4.329780281177E-17,0.707106781187,0.707106781187)
  );
#1596 = ORIENTED_EDGE('',*,*,#1597,.F.);
#1597 = EDGE_CURVE('',#1541,#1590,#1598,.T.);
#1598 = CIRCLE('',#1599,1.E-01);
#1599 = AXIS2_PLACEMENT_3D('',#1600,#1601,#1602);
#1600 = CARTESIAN_POINT('',(18.185,29.545,21.));
#1601 = DIRECTION('',(0.,0.,1.));
#1602 = DIRECTION('',(-1.,0.,0.));
#1603 = CONICAL_SURFACE('',#1604,0.6,0.785398163397);
#1604 = AXIS2_PLACEMENT_3D('',#1605,#1606,#1607);
#1605 = CARTESIAN_POINT('',(18.185,29.545,20.5));
#1606 = DIRECTION('',(-0.,-0.,-1.));
#1607 = DIRECTION('',(-1.,0.,0.));
#1608 = ADVANCED_FACE('',(#1609),#1627,.F.);
#1609 = FACE_BOUND('',#1610,.T.);
#1610 = EDGE_LOOP('',(#1611,#1619,#1620,#1621));
#1611 = ORIENTED_EDGE('',*,*,#1612,.F.);
#1612 = EDGE_CURVE('',#908,#1613,#1615,.T.);
#1613 = VERTEX_POINT('',#1614);
#1614 = CARTESIAN_POINT('',(24.915,29.545,21.));
#1615 = LINE('',#1616,#1617);
#1616 = CARTESIAN_POINT('',(25.415,29.545,20.5));
#1617 = VECTOR('',#1618,1.);
#1618 = DIRECTION('',(-0.707106781187,4.329780281177E-17,0.707106781187)
  );
#1619 = ORIENTED_EDGE('',*,*,#915,.T.);
#1620 = ORIENTED_EDGE('',*,*,#1562,.T.);
#1621 = ORIENTED_EDGE('',*,*,#1622,.F.);
#1622 = EDGE_CURVE('',#1613,#1563,#1623,.T.);
#1623 = LINE('',#1624,#1625);
#1624 = CARTESIAN_POINT('',(24.915,29.545,21.));
#1625 = VECTOR('',#1626,1.);
#1626 = DIRECTION('',(0.,1.,0.));
#1627 = PLANE('',#1628);
#1628 = AXIS2_PLACEMENT_3D('',#1629,#1630,#1631);
#1629 = CARTESIAN_POINT('',(25.165,29.545,20.75));
#1630 = DIRECTION('',(-0.707106781187,-1.889513820523E-18,
    -0.707106781187));
#1631 = DIRECTION('',(1.336088035637E-18,-1.,1.336088035637E-18));
#1632 = ADVANCED_FACE('',(#1633),#1651,.F.);
#1633 = FACE_BOUND('',#1634,.T.);
#1634 = EDGE_LOOP('',(#1635,#1636,#1637,#1645));
#1635 = ORIENTED_EDGE('',*,*,#1589,.F.);
#1636 = ORIENTED_EDGE('',*,*,#932,.T.);
#1637 = ORIENTED_EDGE('',*,*,#1638,.T.);
#1638 = EDGE_CURVE('',#933,#1639,#1641,.T.);
#1639 = VERTEX_POINT('',#1640);
#1640 = CARTESIAN_POINT('',(24.815,29.445,21.));
#1641 = LINE('',#1642,#1643);
#1642 = CARTESIAN_POINT('',(24.815,29.195,20.75));
#1643 = VECTOR('',#1644,1.);
#1644 = DIRECTION('',(2.90882763039E-35,0.707106781187,0.707106781187));
#1645 = ORIENTED_EDGE('',*,*,#1646,.F.);
#1646 = EDGE_CURVE('',#1590,#1639,#1647,.T.);
#1647 = LINE('',#1648,#1649);
#1648 = CARTESIAN_POINT('',(18.185,29.445,21.));
#1649 = VECTOR('',#1650,1.);
#1650 = DIRECTION('',(1.,0.,0.));
#1651 = PLANE('',#1652);
#1652 = AXIS2_PLACEMENT_3D('',#1653,#1654,#1655);
#1653 = CARTESIAN_POINT('',(18.185,29.195,20.75));
#1654 = DIRECTION('',(1.889513820523E-18,0.707106781187,-0.707106781187)
  );
#1655 = DIRECTION('',(-1.,1.336088035637E-18,-1.336088035637E-18));
#1656 = ADVANCED_FACE('',(#1657),#1669,.T.);
#1657 = FACE_BOUND('',#1658,.T.);
#1658 = EDGE_LOOP('',(#1659,#1660,#1661,#1662));
#1659 = ORIENTED_EDGE('',*,*,#1638,.F.);
#1660 = ORIENTED_EDGE('',*,*,#957,.T.);
#1661 = ORIENTED_EDGE('',*,*,#1612,.T.);
#1662 = ORIENTED_EDGE('',*,*,#1663,.F.);
#1663 = EDGE_CURVE('',#1639,#1613,#1664,.T.);
#1664 = CIRCLE('',#1665,1.E-01);
#1665 = AXIS2_PLACEMENT_3D('',#1666,#1667,#1668);
#1666 = CARTESIAN_POINT('',(24.815,29.545,21.));
#1667 = DIRECTION('',(-0.,0.,1.));
#1668 = DIRECTION('',(0.,-1.,0.));
#1669 = CONICAL_SURFACE('',#1670,0.6,0.785398163397);
#1670 = AXIS2_PLACEMENT_3D('',#1671,#1672,#1673);
#1671 = CARTESIAN_POINT('',(24.815,29.545,20.5));
#1672 = DIRECTION('',(-0.,-0.,-1.));
#1673 = DIRECTION('',(0.,-1.,0.));
#1674 = ADVANCED_FACE('',(#1675),#1686,.F.);
#1675 = FACE_BOUND('',#1676,.F.);
#1676 = EDGE_LOOP('',(#1677,#1678,#1679,#1685));
#1677 = ORIENTED_EDGE('',*,*,#973,.F.);
#1678 = ORIENTED_EDGE('',*,*,#1458,.T.);
#1679 = ORIENTED_EDGE('',*,*,#1680,.T.);
#1680 = EDGE_CURVE('',#1459,#1404,#1681,.T.);
#1681 = LINE('',#1682,#1683);
#1682 = CARTESIAN_POINT('',(47.,12.9,0.));
#1683 = VECTOR('',#1684,1.);
#1684 = DIRECTION('',(0.,1.,0.));
#1685 = ORIENTED_EDGE('',*,*,#1403,.T.);
#1686 = PLANE('',#1687);
#1687 = AXIS2_PLACEMENT_3D('',#1688,#1689,#1690);
#1688 = CARTESIAN_POINT('',(45.172338161771,15.9,0.));
#1689 = DIRECTION('',(0.,0.,1.));
#1690 = DIRECTION('',(1.,0.,0.));
#1691 = ADVANCED_FACE('',(#1692,#1710),#1776,.T.);
#1692 = FACE_BOUND('',#1693,.T.);
#1693 = EDGE_LOOP('',(#1694,#1695,#1696,#1697,#1698,#1699,#1700,#1701,
    #1702,#1703,#1704,#1705,#1706,#1707,#1708,#1709));
#1694 = ORIENTED_EDGE('',*,*,#998,.F.);
#1695 = ORIENTED_EDGE('',*,*,#1029,.F.);
#1696 = ORIENTED_EDGE('',*,*,#1055,.F.);
#1697 = ORIENTED_EDGE('',*,*,#1081,.F.);
#1698 = ORIENTED_EDGE('',*,*,#1107,.F.);
#1699 = ORIENTED_EDGE('',*,*,#1133,.F.);
#1700 = ORIENTED_EDGE('',*,*,#1159,.F.);
#1701 = ORIENTED_EDGE('',*,*,#1185,.F.);
#1702 = ORIENTED_EDGE('',*,*,#1211,.F.);
#1703 = ORIENTED_EDGE('',*,*,#1237,.F.);
#1704 = ORIENTED_EDGE('',*,*,#1263,.F.);
#1705 = ORIENTED_EDGE('',*,*,#1289,.F.);
#1706 = ORIENTED_EDGE('',*,*,#1315,.F.);
#1707 = ORIENTED_EDGE('',*,*,#1341,.F.);
#1708 = ORIENTED_EDGE('',*,*,#1367,.F.);
#1709 = ORIENTED_EDGE('',*,*,#1386,.F.);
#1710 = FACE_BOUND('',#1711,.T.);
#1711 = EDGE_LOOP('',(#1712,#1722,#1730,#1738,#1746,#1754,#1762,#1770));
#1712 = ORIENTED_EDGE('',*,*,#1713,.F.);
#1713 = EDGE_CURVE('',#1714,#1716,#1718,.T.);
#1714 = VERTEX_POINT('',#1715);
#1715 = CARTESIAN_POINT('',(22.166878980892,1.959390513667,7.13766383229
    ));
#1716 = VERTEX_POINT('',#1717);
#1717 = CARTESIAN_POINT('',(21.927898089172,2.235010822798,
    7.894924407971));
#1718 = B_SPLINE_CURVE_WITH_KNOTS('',2,(#1719,#1720,#1721),
  .UNSPECIFIED.,.F.,.F.,(3,3),(0.,1.),.PIECEWISE_BEZIER_KNOTS.);
#1719 = CARTESIAN_POINT('',(22.166878980892,1.959390513667,7.13766383229
    ));
#1720 = CARTESIAN_POINT('',(22.166878980892,2.137066710416,
    7.625825170834));
#1721 = CARTESIAN_POINT('',(21.927898089172,2.235010822798,
    7.894924407971));
#1722 = ORIENTED_EDGE('',*,*,#1723,.F.);
#1723 = EDGE_CURVE('',#1724,#1714,#1726,.T.);
#1724 = VERTEX_POINT('',#1725);
#1725 = CARTESIAN_POINT('',(21.954649681529,1.713833121592,
    6.463000442386));
#1726 = B_SPLINE_CURVE_WITH_KNOTS('',2,(#1727,#1728,#1729),
  .UNSPECIFIED.,.F.,.F.,(3,3),(0.,1.),.PIECEWISE_BEZIER_KNOTS.);
#1727 = CARTESIAN_POINT('',(21.954649681529,1.713833121592,
    6.463000442386));
#1728 = CARTESIAN_POINT('',(22.166878980892,1.797486456011,
    6.692836089763));
#1729 = CARTESIAN_POINT('',(22.166878980892,1.959390513667,7.13766383229
    ));
#1730 = ORIENTED_EDGE('',*,*,#1731,.F.);
#1731 = EDGE_CURVE('',#1732,#1724,#1734,.T.);
#1732 = VERTEX_POINT('',#1733);
#1733 = CARTESIAN_POINT('',(21.433121019108,1.630266926064,
    6.233404207142));
#1734 = B_SPLINE_CURVE_WITH_KNOTS('',2,(#1735,#1736,#1737),
  .UNSPECIFIED.,.F.,.F.,(3,3),(0.,1.),.PIECEWISE_BEZIER_KNOTS.);
#1735 = CARTESIAN_POINT('',(21.433121019108,1.630266926064,
    6.233404207142));
#1736 = CARTESIAN_POINT('',(21.742675159236,1.630266926064,
    6.233404207142));
#1737 = CARTESIAN_POINT('',(21.954649681529,1.713833121592,
    6.463000442386));
#1738 = ORIENTED_EDGE('',*,*,#1739,.F.);
#1739 = EDGE_CURVE('',#1740,#1732,#1742,.T.);
#1740 = VERTEX_POINT('',#1741);
#1741 = CARTESIAN_POINT('',(20.898089171975,1.717144399413,
    6.472098103428));
#1742 = B_SPLINE_CURVE_WITH_KNOTS('',2,(#1743,#1744,#1745),
  .UNSPECIFIED.,.F.,.F.,(3,3),(0.,1.),.PIECEWISE_BEZIER_KNOTS.);
#1743 = CARTESIAN_POINT('',(20.898089171975,1.717144399413,
    6.472098103428));
#1744 = CARTESIAN_POINT('',(21.112101910828,1.630266926064,
    6.233404207142));
#1745 = CARTESIAN_POINT('',(21.433121019108,1.630266926064,
    6.233404207142));
#1746 = ORIENTED_EDGE('',*,*,#1747,.F.);
#1747 = EDGE_CURVE('',#1748,#1740,#1750,.T.);
#1748 = VERTEX_POINT('',#1749);
#1749 = CARTESIAN_POINT('',(20.684076433121,1.989453430723,
    7.220261018066));
#1750 = B_SPLINE_CURVE_WITH_KNOTS('',2,(#1751,#1752,#1753),
  .UNSPECIFIED.,.F.,.F.,(3,3),(0.,1.),.PIECEWISE_BEZIER_KNOTS.);
#1751 = CARTESIAN_POINT('',(20.684076433121,1.989453430723,
    7.220261018066));
#1752 = CARTESIAN_POINT('',(20.684076433121,1.804021872762,
    6.710791999714));
#1753 = CARTESIAN_POINT('',(20.898089171975,1.717144399413,
    6.472098103428));
#1754 = ORIENTED_EDGE('',*,*,#1755,.F.);
#1755 = EDGE_CURVE('',#1756,#1748,#1758,.T.);
#1756 = VERTEX_POINT('',#1757);
#1757 = CARTESIAN_POINT('',(20.88076433121,2.252612878581,7.943285658773
    ));
#1758 = B_SPLINE_CURVE_WITH_KNOTS('',2,(#1759,#1760,#1761),
  .UNSPECIFIED.,.F.,.F.,(3,3),(0.,1.),.PIECEWISE_BEZIER_KNOTS.);
#1759 = CARTESIAN_POINT('',(20.88076433121,2.252612878581,7.943285658773
    ));
#1760 = CARTESIAN_POINT('',(20.684076433121,2.172270821984,
    7.722547672438));
#1761 = CARTESIAN_POINT('',(20.684076433121,1.989453430723,
    7.220261018066));
#1762 = ORIENTED_EDGE('',*,*,#1763,.F.);
#1763 = EDGE_CURVE('',#1764,#1756,#1766,.T.);
#1764 = VERTEX_POINT('',#1765);
#1765 = CARTESIAN_POINT('',(21.375796178344,2.332954935179,
    8.164023645108));
#1766 = B_SPLINE_CURVE_WITH_KNOTS('',2,(#1767,#1768,#1769),
  .UNSPECIFIED.,.F.,.F.,(3,3),(0.,1.),.PIECEWISE_BEZIER_KNOTS.);
#1767 = CARTESIAN_POINT('',(21.375796178344,2.332954935179,
    8.164023645108));
#1768 = CARTESIAN_POINT('',(21.077707006369,2.332954935179,
    8.164023645108));
#1769 = CARTESIAN_POINT('',(20.88076433121,2.252612878581,7.943285658773
    ));
#1770 = ORIENTED_EDGE('',*,*,#1771,.F.);
#1771 = EDGE_CURVE('',#1716,#1764,#1772,.T.);
#1772 = B_SPLINE_CURVE_WITH_KNOTS('',2,(#1773,#1774,#1775),
  .UNSPECIFIED.,.F.,.F.,(3,3),(0.,1.),.PIECEWISE_BEZIER_KNOTS.);
#1773 = CARTESIAN_POINT('',(21.927898089172,2.235010822798,
    7.894924407971));
#1774 = CARTESIAN_POINT('',(21.689171974522,2.332954935179,
    8.164023645108));
#1775 = CARTESIAN_POINT('',(21.375796178344,2.332954935179,
    8.164023645108));
#1776 = PLANE('',#1777);
#1777 = AXIS2_PLACEMENT_3D('',#1778,#1779,#1780);
#1778 = CARTESIAN_POINT('',(21.478420519313,1.554056313865,
    6.024017271002));
#1779 = DIRECTION('',(0.,-0.939692620786,0.342020143326));
#1780 = DIRECTION('',(1.,0.,0.));
#1781 = ADVANCED_FACE('',(#1782),#1788,.F.);
#1782 = FACE_BOUND('',#1783,.F.);
#1783 = EDGE_LOOP('',(#1784,#1785,#1786,#1787));
#1784 = ORIENTED_EDGE('',*,*,#1468,.T.);
#1785 = ORIENTED_EDGE('',*,*,#1443,.T.);
#1786 = ORIENTED_EDGE('',*,*,#1411,.F.);
#1787 = ORIENTED_EDGE('',*,*,#1680,.F.);
#1788 = PLANE('',#1789);
#1789 = AXIS2_PLACEMENT_3D('',#1790,#1791,#1792);
#1790 = CARTESIAN_POINT('',(47.,12.9,0.));
#1791 = DIRECTION('',(-1.,0.,0.));
#1792 = DIRECTION('',(0.,1.,0.));
#1793 = ADVANCED_FACE('',(#1794),#1804,.T.);
#1794 = FACE_BOUND('',#1795,.T.);
#1795 = EDGE_LOOP('',(#1796,#1797,#1798,#1799,#1800,#1801,#1802,#1803));
#1796 = ORIENTED_EDGE('',*,*,#1524,.T.);
#1797 = ORIENTED_EDGE('',*,*,#1499,.T.);
#1798 = ORIENTED_EDGE('',*,*,#1548,.T.);
#1799 = ORIENTED_EDGE('',*,*,#1597,.T.);
#1800 = ORIENTED_EDGE('',*,*,#1646,.T.);
#1801 = ORIENTED_EDGE('',*,*,#1663,.T.);
#1802 = ORIENTED_EDGE('',*,*,#1622,.T.);
#1803 = ORIENTED_EDGE('',*,*,#1572,.T.);
#1804 = PLANE('',#1805);
#1805 = AXIS2_PLACEMENT_3D('',#1806,#1807,#1808);
#1806 = CARTESIAN_POINT('',(21.5,32.86,21.));
#1807 = DIRECTION('',(0.,0.,1.));
#1808 = DIRECTION('',(1.,0.,0.));
#1809 = ADVANCED_FACE('',(#1810),#1820,.T.);
#1810 = FACE_BOUND('',#1811,.T.);
#1811 = EDGE_LOOP('',(#1812,#1813,#1814,#1815,#1816,#1817,#1818,#1819));
#1812 = ORIENTED_EDGE('',*,*,#1723,.T.);
#1813 = ORIENTED_EDGE('',*,*,#1713,.T.);
#1814 = ORIENTED_EDGE('',*,*,#1771,.T.);
#1815 = ORIENTED_EDGE('',*,*,#1763,.T.);
#1816 = ORIENTED_EDGE('',*,*,#1755,.T.);
#1817 = ORIENTED_EDGE('',*,*,#1747,.T.);
#1818 = ORIENTED_EDGE('',*,*,#1739,.T.);
#1819 = ORIENTED_EDGE('',*,*,#1731,.T.);
#1820 = PLANE('',#1821);
#1821 = AXIS2_PLACEMENT_3D('',#1822,#1823,#1824);
#1822 = CARTESIAN_POINT('',(21.478420519313,1.554056313865,
    6.024017271002));
#1823 = DIRECTION('',(0.,-0.939692620786,0.342020143326));
#1824 = DIRECTION('',(1.,0.,0.));
#1825 = ( GEOMETRIC_REPRESENTATION_CONTEXT(3) 
GLOBAL_UNCERTAINTY_ASSIGNED_CONTEXT((#1829)) 
GLOBAL_UNIT_ASSIGNED_CONTEXT((#1826,#1827,#1828)) REPRESENTATION_CONTEXT
('Context #1','3D Context with UNIT and UNCERTAINTY') );
#1826 = ( LENGTH_UNIT() NAMED_UNIT(*) SI_UNIT(.MILLI.,.METRE.) );
#1827 = ( NAMED_UNIT(*) PLANE_ANGLE_UNIT() SI_UNIT($,.RADIAN.) );
#1828 = ( NAMED_UNIT(*) SI_UNIT($,.STERADIAN.) SOLID_ANGLE_UNIT() );
#1829 = UNCERTAINTY_MEASURE_WITH_UNIT(LENGTH_MEASURE(1.E-06),#1826,
  'distance_accuracy_value','confusion accuracy');
#1830 = PRODUCT_RELATED_PRODUCT_CATEGORY('part',$,(#7));
ENDSEC;
END-ISO-10303-21;
