ISO-10303-21;
HEADER;
FILE_DESCRIPTION(('FreeCAD Model'),'2;1');
FILE_NAME('Open CASCADE Shape Model','2026-08-30T15:43:49',('FreeCAD'),(
    'FreeCAD'),'Open CASCADE STEP processor 7.8','FreeCAD','Unknown');
FILE_SCHEMA(('AUTOMOTIVE_DESIGN { 1 0 10303 214 1 1 1 1 }'));
ENDSEC;
DATA;
#1 = APPLICATION_PROTOCOL_DEFINITION('international standard',
  'automotive_design',2000,#2);
#2 = APPLICATION_CONTEXT(
  'core data for automotive mechanical design processes');
#3 = SHAPE_DEFINITION_REPRESENTATION(#4,#10);
#4 = PRODUCT_DEFINITION_SHAPE('','',#5);
#5 = PRODUCT_DEFINITION('design','',#6,#9);
#6 = PRODUCT_DEFINITION_FORMATION('','',#7);
#7 = PRODUCT('Open CASCADE STEP translator 7.8 119',
  'Open CASCADE STEP translator 7.8 119','',(#8));
#8 = PRODUCT_CONTEXT('',#2,'mechanical');
#9 = PRODUCT_DEFINITION_CONTEXT('part definition',#2,'design');
#10 = SHAPE_REPRESENTATION('',(#11,#15,#760),#1499);
#11 = AXIS2_PLACEMENT_3D('',#12,#13,#14);
#12 = CARTESIAN_POINT('',(0.,0.,0.));
#13 = DIRECTION('',(0.,0.,1.));
#14 = DIRECTION('',(1.,0.,-0.));
#15 = MANIFOLD_SOLID_BREP('',#16);
#16 = CLOSED_SHELL('',(#17,#57,#88,#121,#154,#187,#220,#253,#286,#319,
    #352,#383,#416,#449,#482,#515,#548,#581,#614,#647,#680,#702,#731));
#17 = ADVANCED_FACE('',(#18),#52,.T.);
#18 = FACE_BOUND('',#19,.T.);
#19 = EDGE_LOOP('',(#20,#30,#38,#46));
#20 = ORIENTED_EDGE('',*,*,#21,.T.);
#21 = EDGE_CURVE('',#22,#24,#26,.T.);
#22 = VERTEX_POINT('',#23);
#23 = CARTESIAN_POINT('',(21.127006369427,1.802024570724,4.366260937334)
  );
#24 = VERTEX_POINT('',#25);
#25 = CARTESIAN_POINT('',(21.127006369427,1.050270474095,4.639877051995)
  );
#26 = LINE('',#27,#28);
#27 = CARTESIAN_POINT('',(21.127006369427,1.802024570724,4.366260937334)
  );
#28 = VECTOR('',#29,1.);
#29 = DIRECTION('',(0.,-0.939692620786,0.342020143326));
#30 = ORIENTED_EDGE('',*,*,#31,.T.);
#31 = EDGE_CURVE('',#24,#32,#34,.T.);
#32 = VERTEX_POINT('',#33);
#33 = CARTESIAN_POINT('',(21.127006369427,0.71008024746,3.705212085995)
  );
#34 = LINE('',#35,#36);
#35 = CARTESIAN_POINT('',(21.127006369427,1.050270474095,4.639877051995)
  );
#36 = VECTOR('',#37,1.);
#37 = DIRECTION('',(0.,-0.342020143326,-0.939692620786));
#38 = ORIENTED_EDGE('',*,*,#39,.F.);
#39 = EDGE_CURVE('',#40,#32,#42,.T.);
#40 = VERTEX_POINT('',#41);
#41 = CARTESIAN_POINT('',(21.127006369427,1.461834344089,3.431595971335)
  );
#42 = LINE('',#43,#44);
#43 = CARTESIAN_POINT('',(21.127006369427,1.461834344089,3.431595971335)
  );
#44 = VECTOR('',#45,1.);
#45 = DIRECTION('',(0.,-0.939692620786,0.342020143326));
#46 = ORIENTED_EDGE('',*,*,#47,.F.);
#47 = EDGE_CURVE('',#22,#40,#48,.T.);
#48 = LINE('',#49,#50);
#49 = CARTESIAN_POINT('',(21.127006369427,1.802024570724,4.366260937334)
  );
#50 = VECTOR('',#51,1.);
#51 = DIRECTION('',(0.,-0.342020143326,-0.939692620786));
#52 = PLANE('',#53);
#53 = AXIS2_PLACEMENT_3D('',#54,#55,#56);
#54 = CARTESIAN_POINT('',(21.127006369427,1.802024570724,4.366260937334)
  );
#55 = DIRECTION('',(1.,0.,0.));
#56 = DIRECTION('',(0.,-0.342020143326,-0.939692620786));
#57 = ADVANCED_FACE('',(#58),#83,.T.);
#58 = FACE_BOUND('',#59,.T.);
#59 = EDGE_LOOP('',(#60,#61,#69,#77));
#60 = ORIENTED_EDGE('',*,*,#39,.T.);
#61 = ORIENTED_EDGE('',*,*,#62,.T.);
#62 = EDGE_CURVE('',#32,#63,#65,.T.);
#63 = VERTEX_POINT('',#64);
#64 = CARTESIAN_POINT('',(17.362675159236,0.71008024746,3.705212085995)
  );
#65 = LINE('',#66,#67);
#66 = CARTESIAN_POINT('',(21.127006369427,0.71008024746,3.705212085995)
  );
#67 = VECTOR('',#68,1.);
#68 = DIRECTION('',(-1.,0.,0.));
#69 = ORIENTED_EDGE('',*,*,#70,.F.);
#70 = EDGE_CURVE('',#71,#63,#73,.T.);
#71 = VERTEX_POINT('',#72);
#72 = CARTESIAN_POINT('',(17.362675159236,1.461834344089,3.431595971335)
  );
#73 = LINE('',#74,#75);
#74 = CARTESIAN_POINT('',(17.362675159236,1.461834344089,3.431595971335)
  );
#75 = VECTOR('',#76,1.);
#76 = DIRECTION('',(0.,-0.939692620786,0.342020143326));
#77 = ORIENTED_EDGE('',*,*,#78,.F.);
#78 = EDGE_CURVE('',#40,#71,#79,.T.);
#79 = LINE('',#80,#81);
#80 = CARTESIAN_POINT('',(21.127006369427,1.461834344089,3.431595971335)
  );
#81 = VECTOR('',#82,1.);
#82 = DIRECTION('',(-1.,0.,0.));
#83 = PLANE('',#84);
#84 = AXIS2_PLACEMENT_3D('',#85,#86,#87);
#85 = CARTESIAN_POINT('',(21.127006369427,1.461834344089,3.431595971335)
  );
#86 = DIRECTION('',(0.,-0.342020143326,-0.939692620786));
#87 = DIRECTION('',(-1.,0.,0.));
#88 = ADVANCED_FACE('',(#89),#114,.T.);
#89 = FACE_BOUND('',#90,.T.);
#90 = EDGE_LOOP('',(#91,#92,#100,#108));
#91 = ORIENTED_EDGE('',*,*,#70,.T.);
#92 = ORIENTED_EDGE('',*,*,#93,.T.);
#93 = EDGE_CURVE('',#63,#94,#96,.T.);
#94 = VERTEX_POINT('',#95);
#95 = CARTESIAN_POINT('',(17.729554140127,1.077457807781,4.714573637392)
  );
#96 = B_SPLINE_CURVE_WITH_KNOTS('',2,(#97,#98,#99),.UNSPECIFIED.,.F.,.F.
  ,(3,3),(0.,1.),.PIECEWISE_BEZIER_KNOTS.);
#97 = CARTESIAN_POINT('',(17.362675159236,0.71008024746,3.705212085995)
  );
#98 = CARTESIAN_POINT('',(17.423821656051,0.903964277753,4.237904081218)
  );
#99 = CARTESIAN_POINT('',(17.729554140127,1.077457807781,4.714573637392)
  );
#100 = ORIENTED_EDGE('',*,*,#101,.F.);
#101 = EDGE_CURVE('',#102,#94,#104,.T.);
#102 = VERTEX_POINT('',#103);
#103 = CARTESIAN_POINT('',(17.729554140127,1.82921190441,4.440957522732)
  );
#104 = LINE('',#105,#106);
#105 = CARTESIAN_POINT('',(17.729554140127,1.82921190441,4.440957522732)
  );
#106 = VECTOR('',#107,1.);
#107 = DIRECTION('',(0.,-0.939692620786,0.342020143326));
#108 = ORIENTED_EDGE('',*,*,#109,.F.);
#109 = EDGE_CURVE('',#71,#102,#110,.T.);
#110 = B_SPLINE_CURVE_WITH_KNOTS('',2,(#111,#112,#113),.UNSPECIFIED.,.F.
  ,.F.,(3,3),(0.,1.),.PIECEWISE_BEZIER_KNOTS.);
#111 = CARTESIAN_POINT('',(17.362675159236,1.461834344089,3.431595971335
    ));
#112 = CARTESIAN_POINT('',(17.423821656051,1.655718374382,3.964287966557
    ));
#113 = CARTESIAN_POINT('',(17.729554140127,1.82921190441,4.440957522732)
  );
#114 = SURFACE_OF_LINEAR_EXTRUSION('',#115,#119);
#115 = B_SPLINE_CURVE_WITH_KNOTS('',2,(#116,#117,#118),.UNSPECIFIED.,.F.
  ,.F.,(3,3),(0.,1.),.PIECEWISE_BEZIER_KNOTS.);
#116 = CARTESIAN_POINT('',(17.362675159236,1.461834344089,3.431595971335
    ));
#117 = CARTESIAN_POINT('',(17.423821656051,1.655718374382,3.964287966557
    ));
#118 = CARTESIAN_POINT('',(17.729554140127,1.82921190441,4.440957522732)
  );
#119 = VECTOR('',#120,1.);
#120 = DIRECTION('',(-0.,0.939692620786,-0.342020143326));
#121 = ADVANCED_FACE('',(#122),#147,.T.);
#122 = FACE_BOUND('',#123,.T.);
#123 = EDGE_LOOP('',(#124,#125,#133,#141));
#124 = ORIENTED_EDGE('',*,*,#101,.T.);
#125 = ORIENTED_EDGE('',*,*,#126,.T.);
#126 = EDGE_CURVE('',#94,#127,#129,.T.);
#127 = VERTEX_POINT('',#128);
#128 = CARTESIAN_POINT('',(18.937197452229,1.537899702643,5.979627346496
    ));
#129 = B_SPLINE_CURVE_WITH_KNOTS('',2,(#130,#131,#132),.UNSPECIFIED.,.F.
  ,.F.,(3,3),(0.,1.),.PIECEWISE_BEZIER_KNOTS.);
#130 = CARTESIAN_POINT('',(17.729554140127,1.077457807781,4.714573637392
    ));
#131 = CARTESIAN_POINT('',(18.035286624204,1.2510384767,5.1914826057));
#132 = CARTESIAN_POINT('',(18.937197452229,1.537899702643,5.979627346496
    ));
#133 = ORIENTED_EDGE('',*,*,#134,.F.);
#134 = EDGE_CURVE('',#135,#127,#137,.T.);
#135 = VERTEX_POINT('',#136);
#136 = CARTESIAN_POINT('',(18.937197452229,2.289653799272,5.706011231836
    ));
#137 = LINE('',#138,#139);
#138 = CARTESIAN_POINT('',(18.937197452229,2.289653799272,5.706011231836
    ));
#139 = VECTOR('',#140,1.);
#140 = DIRECTION('',(0.,-0.939692620786,0.342020143326));
#141 = ORIENTED_EDGE('',*,*,#142,.F.);
#142 = EDGE_CURVE('',#102,#135,#143,.T.);
#143 = B_SPLINE_CURVE_WITH_KNOTS('',2,(#144,#145,#146),.UNSPECIFIED.,.F.
  ,.F.,(3,3),(0.,1.),.PIECEWISE_BEZIER_KNOTS.);
#144 = CARTESIAN_POINT('',(17.729554140127,1.82921190441,4.440957522732)
  );
#145 = CARTESIAN_POINT('',(18.035286624204,2.002792573329,4.917866491039
    ));
#146 = CARTESIAN_POINT('',(18.937197452229,2.289653799272,5.706011231836
    ));
#147 = SURFACE_OF_LINEAR_EXTRUSION('',#148,#152);
#148 = B_SPLINE_CURVE_WITH_KNOTS('',2,(#149,#150,#151),.UNSPECIFIED.,.F.
  ,.F.,(3,3),(0.,1.),.PIECEWISE_BEZIER_KNOTS.);
#149 = CARTESIAN_POINT('',(17.729554140127,1.82921190441,4.440957522732)
  );
#150 = CARTESIAN_POINT('',(18.035286624204,2.002792573329,4.917866491039
    ));
#151 = CARTESIAN_POINT('',(18.937197452229,2.289653799272,5.706011231836
    ));
#152 = VECTOR('',#153,1.);
#153 = DIRECTION('',(-0.,0.939692620786,-0.342020143326));
#154 = ADVANCED_FACE('',(#155),#180,.T.);
#155 = FACE_BOUND('',#156,.T.);
#156 = EDGE_LOOP('',(#157,#158,#166,#174));
#157 = ORIENTED_EDGE('',*,*,#134,.T.);
#158 = ORIENTED_EDGE('',*,*,#159,.T.);
#159 = EDGE_CURVE('',#127,#160,#162,.T.);
#160 = VERTEX_POINT('',#161);
#161 = CARTESIAN_POINT('',(19.827643312102,1.852209678943,6.843186909089
    ));
#162 = B_SPLINE_CURVE_WITH_KNOTS('',2,(#163,#164,#165),.UNSPECIFIED.,.F.
  ,.F.,(3,3),(0.,1.),.PIECEWISE_BEZIER_KNOTS.);
#163 = CARTESIAN_POINT('',(18.937197452229,1.537899702643,5.979627346496
    ));
#164 = CARTESIAN_POINT('',(19.663312101911,1.769689150095,6.616463619437
    ));
#165 = CARTESIAN_POINT('',(19.827643312102,1.852209678943,6.843186909089
    ));
#166 = ORIENTED_EDGE('',*,*,#167,.F.);
#167 = EDGE_CURVE('',#168,#160,#170,.T.);
#168 = VERTEX_POINT('',#169);
#169 = CARTESIAN_POINT('',(19.827643312102,2.603963775572,6.569570794428
    ));
#170 = LINE('',#171,#172);
#171 = CARTESIAN_POINT('',(19.827643312102,2.603963775572,6.569570794428
    ));
#172 = VECTOR('',#173,1.);
#173 = DIRECTION('',(0.,-0.939692620786,0.342020143326));
#174 = ORIENTED_EDGE('',*,*,#175,.F.);
#175 = EDGE_CURVE('',#135,#168,#176,.T.);
#176 = B_SPLINE_CURVE_WITH_KNOTS('',2,(#177,#178,#179),.UNSPECIFIED.,.F.
  ,.F.,(3,3),(0.,1.),.PIECEWISE_BEZIER_KNOTS.);
#177 = CARTESIAN_POINT('',(18.937197452229,2.289653799272,5.706011231836
    ));
#178 = CARTESIAN_POINT('',(19.663312101911,2.521443246723,6.342847504776
    ));
#179 = CARTESIAN_POINT('',(19.827643312102,2.603963775572,6.569570794428
    ));
#180 = SURFACE_OF_LINEAR_EXTRUSION('',#181,#185);
#181 = B_SPLINE_CURVE_WITH_KNOTS('',2,(#182,#183,#184),.UNSPECIFIED.,.F.
  ,.F.,(3,3),(0.,1.),.PIECEWISE_BEZIER_KNOTS.);
#182 = CARTESIAN_POINT('',(18.937197452229,2.289653799272,5.706011231836
    ));
#183 = CARTESIAN_POINT('',(19.663312101911,2.521443246723,6.342847504776
    ));
#184 = CARTESIAN_POINT('',(19.827643312102,2.603963775572,6.569570794428
    ));
#185 = VECTOR('',#186,1.);
#186 = DIRECTION('',(-0.,0.939692620786,-0.342020143326));
#187 = ADVANCED_FACE('',(#188),#213,.T.);
#188 = FACE_BOUND('',#189,.T.);
#189 = EDGE_LOOP('',(#190,#191,#199,#207));
#190 = ORIENTED_EDGE('',*,*,#167,.T.);
#191 = ORIENTED_EDGE('',*,*,#192,.T.);
#192 = EDGE_CURVE('',#160,#193,#195,.T.);
#193 = VERTEX_POINT('',#194);
#194 = CARTESIAN_POINT('',(20.049299363057,2.077550848533,7.46230668421)
  );
#195 = B_SPLINE_CURVE_WITH_KNOTS('',2,(#196,#197,#198),.UNSPECIFIED.,.F.
  ,.F.,(3,3),(0.,1.),.PIECEWISE_BEZIER_KNOTS.);
#196 = CARTESIAN_POINT('',(19.827643312102,1.852209678943,6.843186909089
    ));
#197 = CARTESIAN_POINT('',(20.049299363057,1.966187347088,7.15633797864)
  );
#198 = CARTESIAN_POINT('',(20.049299363057,2.077550848533,7.46230668421)
  );
#199 = ORIENTED_EDGE('',*,*,#200,.F.);
#200 = EDGE_CURVE('',#201,#193,#203,.T.);
#201 = VERTEX_POINT('',#202);
#202 = CARTESIAN_POINT('',(20.049299363057,2.829304945161,7.18869056955)
  );
#203 = LINE('',#204,#205);
#204 = CARTESIAN_POINT('',(20.049299363057,2.829304945161,7.18869056955)
  );
#205 = VECTOR('',#206,1.);
#206 = DIRECTION('',(0.,-0.939692620786,0.342020143326));
#207 = ORIENTED_EDGE('',*,*,#208,.F.);
#208 = EDGE_CURVE('',#168,#201,#209,.T.);
#209 = B_SPLINE_CURVE_WITH_KNOTS('',2,(#210,#211,#212),.UNSPECIFIED.,.F.
  ,.F.,(3,3),(0.,1.),.PIECEWISE_BEZIER_KNOTS.);
#210 = CARTESIAN_POINT('',(19.827643312102,2.603963775572,6.569570794428
    ));
#211 = CARTESIAN_POINT('',(20.049299363057,2.717941443717,6.882721863979
    ));
#212 = CARTESIAN_POINT('',(20.049299363057,2.829304945161,7.18869056955)
  );
#213 = SURFACE_OF_LINEAR_EXTRUSION('',#214,#218);
#214 = B_SPLINE_CURVE_WITH_KNOTS('',2,(#215,#216,#217),.UNSPECIFIED.,.F.
  ,.F.,(3,3),(0.,1.),.PIECEWISE_BEZIER_KNOTS.);
#215 = CARTESIAN_POINT('',(19.827643312102,2.603963775572,6.569570794428
    ));
#216 = CARTESIAN_POINT('',(20.049299363057,2.717941443717,6.882721863979
    ));
#217 = CARTESIAN_POINT('',(20.049299363057,2.829304945161,7.18869056955)
  );
#218 = VECTOR('',#219,1.);
#219 = DIRECTION('',(-0.,0.939692620786,-0.342020143326));
#220 = ADVANCED_FACE('',(#221),#246,.T.);
#221 = FACE_BOUND('',#222,.T.);
#222 = EDGE_LOOP('',(#223,#224,#232,#240));
#223 = ORIENTED_EDGE('',*,*,#200,.T.);
#224 = ORIENTED_EDGE('',*,*,#225,.T.);
#225 = EDGE_CURVE('',#193,#226,#228,.T.);
#226 = VERTEX_POINT('',#227);
#227 = CARTESIAN_POINT('',(19.856178343949,2.266816517655,7.982309836401
    ));
#228 = B_SPLINE_CURVE_WITH_KNOTS('',2,(#229,#230,#231),.UNSPECIFIED.,.F.
  ,.F.,(3,3),(0.,1.),.PIECEWISE_BEZIER_KNOTS.);
#229 = CARTESIAN_POINT('',(20.049299363057,2.077550848533,7.46230668421)
  );
#230 = CARTESIAN_POINT('',(20.049299363057,2.20067810013,7.800596027693)
  );
#231 = CARTESIAN_POINT('',(19.856178343949,2.266816517655,7.982309836401
    ));
#232 = ORIENTED_EDGE('',*,*,#233,.F.);
#233 = EDGE_CURVE('',#234,#226,#236,.T.);
#234 = VERTEX_POINT('',#235);
#235 = CARTESIAN_POINT('',(19.856178343949,3.018570614283,7.70869372174)
  );
#236 = LINE('',#237,#238);
#237 = CARTESIAN_POINT('',(19.856178343949,3.018570614283,7.70869372174)
  );
#238 = VECTOR('',#239,1.);
#239 = DIRECTION('',(0.,-0.939692620786,0.342020143326));
#240 = ORIENTED_EDGE('',*,*,#241,.F.);
#241 = EDGE_CURVE('',#201,#234,#242,.T.);
#242 = B_SPLINE_CURVE_WITH_KNOTS('',2,(#243,#244,#245),.UNSPECIFIED.,.F.
  ,.F.,(3,3),(0.,1.),.PIECEWISE_BEZIER_KNOTS.);
#243 = CARTESIAN_POINT('',(20.049299363057,2.829304945161,7.18869056955)
  );
#244 = CARTESIAN_POINT('',(20.049299363057,2.952432196759,7.526979913033
    ));
#245 = CARTESIAN_POINT('',(19.856178343949,3.018570614283,7.70869372174)
  );
#246 = SURFACE_OF_LINEAR_EXTRUSION('',#247,#251);
#247 = B_SPLINE_CURVE_WITH_KNOTS('',2,(#248,#249,#250),.UNSPECIFIED.,.F.
  ,.F.,(3,3),(0.,1.),.PIECEWISE_BEZIER_KNOTS.);
#248 = CARTESIAN_POINT('',(20.049299363057,2.829304945161,7.18869056955)
  );
#249 = CARTESIAN_POINT('',(20.049299363057,2.952432196759,7.526979913033
    ));
#250 = CARTESIAN_POINT('',(19.856178343949,3.018570614283,7.70869372174)
  );
#251 = VECTOR('',#252,1.);
#252 = DIRECTION('',(-0.,0.939692620786,-0.342020143326));
#253 = ADVANCED_FACE('',(#254),#279,.T.);
#254 = FACE_BOUND('',#255,.T.);
#255 = EDGE_LOOP('',(#256,#257,#265,#273));
#256 = ORIENTED_EDGE('',*,*,#233,.T.);
#257 = ORIENTED_EDGE('',*,*,#258,.T.);
#258 = EDGE_CURVE('',#226,#259,#261,.T.);
#259 = VERTEX_POINT('',#260);
#260 = CARTESIAN_POINT('',(19.323184713376,2.332954935179,8.164023645108
    ));
#261 = B_SPLINE_CURVE_WITH_KNOTS('',2,(#262,#263,#264),.UNSPECIFIED.,.F.
  ,.F.,(3,3),(0.,1.),.PIECEWISE_BEZIER_KNOTS.);
#262 = CARTESIAN_POINT('',(19.856178343949,2.266816517655,7.982309836401
    ));
#263 = CARTESIAN_POINT('',(19.663312101911,2.332954935179,8.164023645108
    ));
#264 = CARTESIAN_POINT('',(19.323184713376,2.332954935179,8.164023645108
    ));
#265 = ORIENTED_EDGE('',*,*,#266,.F.);
#266 = EDGE_CURVE('',#267,#259,#269,.T.);
#267 = VERTEX_POINT('',#268);
#268 = CARTESIAN_POINT('',(19.323184713376,3.084709031808,7.890407530447
    ));
#269 = LINE('',#270,#271);
#270 = CARTESIAN_POINT('',(19.323184713376,3.084709031808,7.890407530447
    ));
#271 = VECTOR('',#272,1.);
#272 = DIRECTION('',(0.,-0.939692620786,0.342020143326));
#273 = ORIENTED_EDGE('',*,*,#274,.F.);
#274 = EDGE_CURVE('',#234,#267,#275,.T.);
#275 = B_SPLINE_CURVE_WITH_KNOTS('',2,(#276,#277,#278),.UNSPECIFIED.,.F.
  ,.F.,(3,3),(0.,1.),.PIECEWISE_BEZIER_KNOTS.);
#276 = CARTESIAN_POINT('',(19.856178343949,3.018570614283,7.70869372174)
  );
#277 = CARTESIAN_POINT('',(19.663312101911,3.084709031808,7.890407530447
    ));
#278 = CARTESIAN_POINT('',(19.323184713376,3.084709031808,7.890407530447
    ));
#279 = SURFACE_OF_LINEAR_EXTRUSION('',#280,#284);
#280 = B_SPLINE_CURVE_WITH_KNOTS('',2,(#281,#282,#283),.UNSPECIFIED.,.F.
  ,.F.,(3,3),(0.,1.),.PIECEWISE_BEZIER_KNOTS.);
#281 = CARTESIAN_POINT('',(19.856178343949,3.018570614283,7.70869372174)
  );
#282 = CARTESIAN_POINT('',(19.663312101911,3.084709031808,7.890407530447
    ));
#283 = CARTESIAN_POINT('',(19.323184713376,3.084709031808,7.890407530447
    ));
#284 = VECTOR('',#285,1.);
#285 = DIRECTION('',(-0.,0.939692620786,-0.342020143326));
#286 = ADVANCED_FACE('',(#287),#312,.T.);
#287 = FACE_BOUND('',#288,.T.);
#288 = EDGE_LOOP('',(#289,#290,#298,#306));
#289 = ORIENTED_EDGE('',*,*,#266,.T.);
#290 = ORIENTED_EDGE('',*,*,#291,.T.);
#291 = EDGE_CURVE('',#259,#292,#294,.T.);
#292 = VERTEX_POINT('',#293);
#293 = CARTESIAN_POINT('',(18.788152866242,2.263243823164,7.972493938961
    ));
#294 = B_SPLINE_CURVE_WITH_KNOTS('',2,(#295,#296,#297),.UNSPECIFIED.,.F.
  ,.F.,(3,3),(0.,1.),.PIECEWISE_BEZIER_KNOTS.);
#295 = CARTESIAN_POINT('',(19.323184713376,2.332954935179,8.164023645108
    ));
#296 = CARTESIAN_POINT('',(18.986878980892,2.332954935179,8.164023645108
    ));
#297 = CARTESIAN_POINT('',(18.788152866242,2.263243823164,7.972493938961
    ));
#298 = ORIENTED_EDGE('',*,*,#299,.F.);
#299 = EDGE_CURVE('',#300,#292,#302,.T.);
#300 = VERTEX_POINT('',#301);
#301 = CARTESIAN_POINT('',(18.788152866242,3.014997919793,7.6988778243)
  );
#302 = LINE('',#303,#304);
#303 = CARTESIAN_POINT('',(18.788152866242,3.014997919793,7.6988778243)
  );
#304 = VECTOR('',#305,1.);
#305 = DIRECTION('',(0.,-0.939692620786,0.342020143326));
#306 = ORIENTED_EDGE('',*,*,#307,.F.);
#307 = EDGE_CURVE('',#267,#300,#308,.T.);
#308 = B_SPLINE_CURVE_WITH_KNOTS('',2,(#309,#310,#311),.UNSPECIFIED.,.F.
  ,.F.,(3,3),(0.,1.),.PIECEWISE_BEZIER_KNOTS.);
#309 = CARTESIAN_POINT('',(19.323184713376,3.084709031808,7.890407530447
    ));
#310 = CARTESIAN_POINT('',(18.986878980892,3.084709031808,7.890407530447
    ));
#311 = CARTESIAN_POINT('',(18.788152866242,3.014997919793,7.6988778243)
  );
#312 = SURFACE_OF_LINEAR_EXTRUSION('',#313,#317);
#313 = B_SPLINE_CURVE_WITH_KNOTS('',2,(#314,#315,#316),.UNSPECIFIED.,.F.
  ,.F.,(3,3),(0.,1.),.PIECEWISE_BEZIER_KNOTS.);
#314 = CARTESIAN_POINT('',(19.323184713376,3.084709031808,7.890407530447
    ));
#315 = CARTESIAN_POINT('',(18.986878980892,3.084709031808,7.890407530447
    ));
#316 = CARTESIAN_POINT('',(18.788152866242,3.014997919793,7.6988778243)
  );
#317 = VECTOR('',#318,1.);
#318 = DIRECTION('',(-0.,0.939692620786,-0.342020143326));
#319 = ADVANCED_FACE('',(#320),#345,.T.);
#320 = FACE_BOUND('',#321,.T.);
#321 = EDGE_LOOP('',(#322,#323,#331,#339));
#322 = ORIENTED_EDGE('',*,*,#299,.T.);
#323 = ORIENTED_EDGE('',*,*,#324,.T.);
#324 = EDGE_CURVE('',#292,#325,#327,.T.);
#325 = VERTEX_POINT('',#326);
#326 = CARTESIAN_POINT('',(18.558853503185,2.031802931273,7.336615314551
    ));
#327 = B_SPLINE_CURVE_WITH_KNOTS('',2,(#328,#329,#330),.UNSPECIFIED.,.F.
  ,.F.,(3,3),(0.,1.),.PIECEWISE_BEZIER_KNOTS.);
#328 = CARTESIAN_POINT('',(18.788152866242,2.263243823164,7.972493938961
    ));
#329 = CARTESIAN_POINT('',(18.589426751592,2.193532711148,7.780964232813
    ));
#330 = CARTESIAN_POINT('',(18.558853503185,2.031802931273,7.336615314551
    ));
#331 = ORIENTED_EDGE('',*,*,#332,.F.);
#332 = EDGE_CURVE('',#333,#325,#335,.T.);
#333 = VERTEX_POINT('',#334);
#334 = CARTESIAN_POINT('',(18.558853503185,2.783557027901,7.06299919989)
  );
#335 = LINE('',#336,#337);
#336 = CARTESIAN_POINT('',(18.558853503185,2.783557027901,7.06299919989)
  );
#337 = VECTOR('',#338,1.);
#338 = DIRECTION('',(0.,-0.939692620786,0.342020143326));
#339 = ORIENTED_EDGE('',*,*,#340,.F.);
#340 = EDGE_CURVE('',#300,#333,#341,.T.);
#341 = B_SPLINE_CURVE_WITH_KNOTS('',2,(#342,#343,#344),.UNSPECIFIED.,.F.
  ,.F.,(3,3),(0.,1.),.PIECEWISE_BEZIER_KNOTS.);
#342 = CARTESIAN_POINT('',(18.788152866242,3.014997919793,7.6988778243)
  );
#343 = CARTESIAN_POINT('',(18.589426751592,2.945286807777,7.507348118153
    ));
#344 = CARTESIAN_POINT('',(18.558853503185,2.783557027901,7.06299919989)
  );
#345 = SURFACE_OF_LINEAR_EXTRUSION('',#346,#350);
#346 = B_SPLINE_CURVE_WITH_KNOTS('',2,(#347,#348,#349),.UNSPECIFIED.,.F.
  ,.F.,(3,3),(0.,1.),.PIECEWISE_BEZIER_KNOTS.);
#347 = CARTESIAN_POINT('',(18.788152866242,3.014997919793,7.6988778243)
  );
#348 = CARTESIAN_POINT('',(18.589426751592,2.945286807777,7.507348118153
    ));
#349 = CARTESIAN_POINT('',(18.558853503185,2.783557027901,7.06299919989)
  );
#350 = VECTOR('',#351,1.);
#351 = DIRECTION('',(-0.,0.939692620786,-0.342020143326));
#352 = ADVANCED_FACE('',(#353),#378,.T.);
#353 = FACE_BOUND('',#354,.T.);
#354 = EDGE_LOOP('',(#355,#356,#364,#372));
#355 = ORIENTED_EDGE('',*,*,#332,.T.);
#356 = ORIENTED_EDGE('',*,*,#357,.T.);
#357 = EDGE_CURVE('',#325,#358,#360,.T.);
#358 = VERTEX_POINT('',#359);
#359 = CARTESIAN_POINT('',(17.488789808917,2.068662681751,7.437886646676
    ));
#360 = LINE('',#361,#362);
#361 = CARTESIAN_POINT('',(18.558853503185,2.031802931273,7.336615314551
    ));
#362 = VECTOR('',#363,1.);
#363 = DIRECTION('',(-0.994966576024,3.427293152997E-02,
    9.416410547709E-02));
#364 = ORIENTED_EDGE('',*,*,#365,.F.);
#365 = EDGE_CURVE('',#366,#358,#368,.T.);
#366 = VERTEX_POINT('',#367);
#367 = CARTESIAN_POINT('',(17.488789808917,2.820416778379,7.164270532016
    ));
#368 = LINE('',#369,#370);
#369 = CARTESIAN_POINT('',(17.488789808917,2.820416778379,7.164270532016
    ));
#370 = VECTOR('',#371,1.);
#371 = DIRECTION('',(0.,-0.939692620786,0.342020143326));
#372 = ORIENTED_EDGE('',*,*,#373,.F.);
#373 = EDGE_CURVE('',#333,#366,#374,.T.);
#374 = LINE('',#375,#376);
#375 = CARTESIAN_POINT('',(18.558853503185,2.783557027901,7.06299919989)
  );
#376 = VECTOR('',#377,1.);
#377 = DIRECTION('',(-0.994966576024,3.427293152997E-02,
    9.416410547709E-02));
#378 = PLANE('',#379);
#379 = AXIS2_PLACEMENT_3D('',#380,#381,#382);
#380 = CARTESIAN_POINT('',(18.558853503185,2.783557027901,7.06299919989)
  );
#381 = DIRECTION('',(-0.100207348014,-0.340298610936,-0.934962749418));
#382 = DIRECTION('',(-0.994966576024,3.427293152997E-02,
    9.416410547709E-02));
#383 = ADVANCED_FACE('',(#384),#409,.T.);
#384 = FACE_BOUND('',#385,.T.);
#385 = EDGE_LOOP('',(#386,#387,#395,#403));
#386 = ORIENTED_EDGE('',*,*,#365,.T.);
#387 = ORIENTED_EDGE('',*,*,#388,.T.);
#388 = EDGE_CURVE('',#358,#389,#391,.T.);
#389 = VERTEX_POINT('',#390);
#390 = CARTESIAN_POINT('',(18.088789808917,2.506797020768,8.641650849813
    ));
#391 = B_SPLINE_CURVE_WITH_KNOTS('',2,(#392,#393,#394),.UNSPECIFIED.,.F.
  ,.F.,(3,3),(0.,1.),.PIECEWISE_BEZIER_KNOTS.);
#392 = CARTESIAN_POINT('',(17.488789808917,2.068662681751,7.437886646676
    ));
#393 = CARTESIAN_POINT('',(17.584331210191,2.373910213488,8.27654734747)
  );
#394 = CARTESIAN_POINT('',(18.088789808917,2.506797020768,8.641650849813
    ));
#395 = ORIENTED_EDGE('',*,*,#396,.F.);
#396 = EDGE_CURVE('',#397,#389,#399,.T.);
#397 = VERTEX_POINT('',#398);
#398 = CARTESIAN_POINT('',(18.088789808917,3.258551117396,8.368034735153
    ));
#399 = LINE('',#400,#401);
#400 = CARTESIAN_POINT('',(18.088789808917,3.258551117396,8.368034735153
    ));
#401 = VECTOR('',#402,1.);
#402 = DIRECTION('',(0.,-0.939692620786,0.342020143326));
#403 = ORIENTED_EDGE('',*,*,#404,.F.);
#404 = EDGE_CURVE('',#366,#397,#405,.T.);
#405 = B_SPLINE_CURVE_WITH_KNOTS('',2,(#406,#407,#408),.UNSPECIFIED.,.F.
  ,.F.,(3,3),(0.,1.),.PIECEWISE_BEZIER_KNOTS.);
#406 = CARTESIAN_POINT('',(17.488789808917,2.820416778379,7.164270532016
    ));
#407 = CARTESIAN_POINT('',(17.584331210191,3.125664310117,8.002931232809
    ));
#408 = CARTESIAN_POINT('',(18.088789808917,3.258551117396,8.368034735153
    ));
#409 = SURFACE_OF_LINEAR_EXTRUSION('',#410,#414);
#410 = B_SPLINE_CURVE_WITH_KNOTS('',2,(#411,#412,#413),.UNSPECIFIED.,.F.
  ,.F.,(3,3),(0.,1.),.PIECEWISE_BEZIER_KNOTS.);
#411 = CARTESIAN_POINT('',(17.488789808917,2.820416778379,7.164270532016
    ));
#412 = CARTESIAN_POINT('',(17.584331210191,3.125664310117,8.002931232809
    ));
#413 = CARTESIAN_POINT('',(18.088789808917,3.258551117396,8.368034735153
    ));
#414 = VECTOR('',#415,1.);
#415 = DIRECTION('',(-0.,0.939692620786,-0.342020143326));
#416 = ADVANCED_FACE('',(#417),#442,.T.);
#417 = FACE_BOUND('',#418,.T.);
#418 = EDGE_LOOP('',(#419,#420,#428,#436));
#419 = ORIENTED_EDGE('',*,*,#396,.T.);
#420 = ORIENTED_EDGE('',*,*,#421,.T.);
#421 = EDGE_CURVE('',#389,#422,#424,.T.);
#422 = VERTEX_POINT('',#423);
#423 = CARTESIAN_POINT('',(19.349936305732,2.639683828047,9.006754352157
    ));
#424 = B_SPLINE_CURVE_WITH_KNOTS('',2,(#425,#426,#427),.UNSPECIFIED.,.F.
  ,.F.,(3,3),(0.,1.),.PIECEWISE_BEZIER_KNOTS.);
#425 = CARTESIAN_POINT('',(18.088789808917,2.506797020768,8.641650849813
    ));
#426 = CARTESIAN_POINT('',(18.593248407643,2.639683828047,9.006754352157
    ));
#427 = CARTESIAN_POINT('',(19.349936305732,2.639683828047,9.006754352157
    ));
#428 = ORIENTED_EDGE('',*,*,#429,.F.);
#429 = EDGE_CURVE('',#430,#422,#432,.T.);
#430 = VERTEX_POINT('',#431);
#431 = CARTESIAN_POINT('',(19.349936305732,3.391437924676,8.733138237496
    ));
#432 = LINE('',#433,#434);
#433 = CARTESIAN_POINT('',(19.349936305732,3.391437924676,8.733138237496
    ));
#434 = VECTOR('',#435,1.);
#435 = DIRECTION('',(0.,-0.939692620786,0.342020143326));
#436 = ORIENTED_EDGE('',*,*,#437,.F.);
#437 = EDGE_CURVE('',#397,#430,#438,.T.);
#438 = B_SPLINE_CURVE_WITH_KNOTS('',2,(#439,#440,#441),.UNSPECIFIED.,.F.
  ,.F.,(3,3),(0.,1.),.PIECEWISE_BEZIER_KNOTS.);
#439 = CARTESIAN_POINT('',(18.088789808917,3.258551117396,8.368034735153
    ));
#440 = CARTESIAN_POINT('',(18.593248407643,3.391437924676,8.733138237496
    ));
#441 = CARTESIAN_POINT('',(19.349936305732,3.391437924676,8.733138237496
    ));
#442 = SURFACE_OF_LINEAR_EXTRUSION('',#443,#447);
#443 = B_SPLINE_CURVE_WITH_KNOTS('',2,(#444,#445,#446),.UNSPECIFIED.,.F.
  ,.F.,(3,3),(0.,1.),.PIECEWISE_BEZIER_KNOTS.);
#444 = CARTESIAN_POINT('',(18.088789808917,3.258551117396,8.368034735153
    ));
#445 = CARTESIAN_POINT('',(18.593248407643,3.391437924676,8.733138237496
    ));
#446 = CARTESIAN_POINT('',(19.349936305732,3.391437924676,8.733138237496
    ));
#447 = VECTOR('',#448,1.);
#448 = DIRECTION('',(-0.,0.939692620786,-0.342020143326));
#449 = ADVANCED_FACE('',(#450),#475,.T.);
#450 = FACE_BOUND('',#451,.T.);
#451 = EDGE_LOOP('',(#452,#453,#461,#469));
#452 = ORIENTED_EDGE('',*,*,#429,.T.);
#453 = ORIENTED_EDGE('',*,*,#454,.T.);
#454 = EDGE_CURVE('',#422,#455,#457,.T.);
#455 = VERTEX_POINT('',#456);
#456 = CARTESIAN_POINT('',(20.653121019108,2.486145103833,8.584910174367
    ));
#457 = B_SPLINE_CURVE_WITH_KNOTS('',2,(#458,#459,#460),.UNSPECIFIED.,.F.
  ,.F.,(3,3),(0.,1.),.PIECEWISE_BEZIER_KNOTS.);
#458 = CARTESIAN_POINT('',(19.349936305732,2.639683828047,9.006754352157
    ));
#459 = CARTESIAN_POINT('',(20.17923566879,2.639683828047,9.006754352157)
  );
#460 = CARTESIAN_POINT('',(20.653121019108,2.486145103833,8.584910174367
    ));
#461 = ORIENTED_EDGE('',*,*,#462,.F.);
#462 = EDGE_CURVE('',#463,#455,#465,.T.);
#463 = VERTEX_POINT('',#464);
#464 = CARTESIAN_POINT('',(20.653121019108,3.237899200462,8.311294059706
    ));
#465 = LINE('',#466,#467);
#466 = CARTESIAN_POINT('',(20.653121019108,3.237899200462,8.311294059706
    ));
#467 = VECTOR('',#468,1.);
#468 = DIRECTION('',(0.,-0.939692620786,0.342020143326));
#469 = ORIENTED_EDGE('',*,*,#470,.F.);
#470 = EDGE_CURVE('',#430,#463,#471,.T.);
#471 = B_SPLINE_CURVE_WITH_KNOTS('',2,(#472,#473,#474),.UNSPECIFIED.,.F.
  ,.F.,(3,3),(0.,1.),.PIECEWISE_BEZIER_KNOTS.);
#472 = CARTESIAN_POINT('',(19.349936305732,3.391437924676,8.733138237496
    ));
#473 = CARTESIAN_POINT('',(20.17923566879,3.391437924676,8.733138237496)
  );
#474 = CARTESIAN_POINT('',(20.653121019108,3.237899200462,8.311294059706
    ));
#475 = SURFACE_OF_LINEAR_EXTRUSION('',#476,#480);
#476 = B_SPLINE_CURVE_WITH_KNOTS('',2,(#477,#478,#479),.UNSPECIFIED.,.F.
  ,.F.,(3,3),(0.,1.),.PIECEWISE_BEZIER_KNOTS.);
#477 = CARTESIAN_POINT('',(19.349936305732,3.391437924676,8.733138237496
    ));
#478 = CARTESIAN_POINT('',(20.17923566879,3.391437924676,8.733138237496)
  );
#479 = CARTESIAN_POINT('',(20.653121019108,3.237899200462,8.311294059706
    ));
#480 = VECTOR('',#481,1.);
#481 = DIRECTION('',(-0.,0.939692620786,-0.342020143326));
#482 = ADVANCED_FACE('',(#483),#508,.T.);
#483 = FACE_BOUND('',#484,.T.);
#484 = EDGE_LOOP('',(#485,#486,#494,#502));
#485 = ORIENTED_EDGE('',*,*,#462,.T.);
#486 = ORIENTED_EDGE('',*,*,#487,.T.);
#487 = EDGE_CURVE('',#455,#488,#490,.T.);
#488 = VERTEX_POINT('',#489);
#489 = CARTESIAN_POINT('',(21.127006369427,2.104215348879,7.535566796812
    ));
#490 = B_SPLINE_CURVE_WITH_KNOTS('',2,(#491,#492,#493),.UNSPECIFIED.,.F.
  ,.F.,(3,3),(0.,1.),.PIECEWISE_BEZIER_KNOTS.);
#491 = CARTESIAN_POINT('',(20.653121019108,2.486145103833,8.584910174367
    ));
#492 = CARTESIAN_POINT('',(21.127006369427,2.332606379619,8.163065996577
    ));
#493 = CARTESIAN_POINT('',(21.127006369427,2.104215348879,7.535566796812
    ));
#494 = ORIENTED_EDGE('',*,*,#495,.F.);
#495 = EDGE_CURVE('',#496,#488,#498,.T.);
#496 = VERTEX_POINT('',#497);
#497 = CARTESIAN_POINT('',(21.127006369427,2.855969445507,7.261950682151
    ));
#498 = LINE('',#499,#500);
#499 = CARTESIAN_POINT('',(21.127006369427,2.855969445507,7.261950682151
    ));
#500 = VECTOR('',#501,1.);
#501 = DIRECTION('',(0.,-0.939692620786,0.342020143326));
#502 = ORIENTED_EDGE('',*,*,#503,.F.);
#503 = EDGE_CURVE('',#463,#496,#504,.T.);
#504 = B_SPLINE_CURVE_WITH_KNOTS('',2,(#505,#506,#507),.UNSPECIFIED.,.F.
  ,.F.,(3,3),(0.,1.),.PIECEWISE_BEZIER_KNOTS.);
#505 = CARTESIAN_POINT('',(20.653121019108,3.237899200462,8.311294059706
    ));
#506 = CARTESIAN_POINT('',(21.127006369427,3.084360476248,7.889449881917
    ));
#507 = CARTESIAN_POINT('',(21.127006369427,2.855969445507,7.261950682151
    ));
#508 = SURFACE_OF_LINEAR_EXTRUSION('',#509,#513);
#509 = B_SPLINE_CURVE_WITH_KNOTS('',2,(#510,#511,#512),.UNSPECIFIED.,.F.
  ,.F.,(3,3),(0.,1.),.PIECEWISE_BEZIER_KNOTS.);
#510 = CARTESIAN_POINT('',(20.653121019108,3.237899200462,8.311294059706
    ));
#511 = CARTESIAN_POINT('',(21.127006369427,3.084360476248,7.889449881917
    ));
#512 = CARTESIAN_POINT('',(21.127006369427,2.855969445507,7.261950682151
    ));
#513 = VECTOR('',#514,1.);
#514 = DIRECTION('',(-0.,0.939692620786,-0.342020143326));
#515 = ADVANCED_FACE('',(#516),#541,.T.);
#516 = FACE_BOUND('',#517,.T.);
#517 = EDGE_LOOP('',(#518,#519,#527,#535));
#518 = ORIENTED_EDGE('',*,*,#495,.T.);
#519 = ORIENTED_EDGE('',*,*,#520,.T.);
#520 = EDGE_CURVE('',#488,#521,#523,.T.);
#521 = VERTEX_POINT('',#522);
#522 = CARTESIAN_POINT('',(20.991210191083,1.856828040114,6.855875752121
    ));
#523 = B_SPLINE_CURVE_WITH_KNOTS('',2,(#524,#525,#526),.UNSPECIFIED.,.F.
  ,.F.,(3,3),(0.,1.),.PIECEWISE_BEZIER_KNOTS.);
#524 = CARTESIAN_POINT('',(21.127006369427,2.104215348879,7.535566796812
    ));
#525 = CARTESIAN_POINT('',(21.127006369427,1.97429126386,7.178603306979)
  );
#526 = CARTESIAN_POINT('',(20.991210191083,1.856828040114,6.855875752121
    ));
#527 = ORIENTED_EDGE('',*,*,#528,.F.);
#528 = EDGE_CURVE('',#529,#521,#531,.T.);
#529 = VERTEX_POINT('',#530);
#530 = CARTESIAN_POINT('',(20.991210191083,2.608582136743,6.58225963746)
  );
#531 = LINE('',#532,#533);
#532 = CARTESIAN_POINT('',(20.991210191083,2.608582136743,6.58225963746)
  );
#533 = VECTOR('',#534,1.);
#534 = DIRECTION('',(0.,-0.939692620786,0.342020143326));
#535 = ORIENTED_EDGE('',*,*,#536,.F.);
#536 = EDGE_CURVE('',#496,#529,#537,.T.);
#537 = B_SPLINE_CURVE_WITH_KNOTS('',2,(#538,#539,#540),.UNSPECIFIED.,.F.
  ,.F.,(3,3),(0.,1.),.PIECEWISE_BEZIER_KNOTS.);
#538 = CARTESIAN_POINT('',(21.127006369427,2.855969445507,7.261950682151
    ));
#539 = CARTESIAN_POINT('',(21.127006369427,2.726045360489,6.904987192319
    ));
#540 = CARTESIAN_POINT('',(20.991210191083,2.608582136743,6.58225963746)
  );
#541 = SURFACE_OF_LINEAR_EXTRUSION('',#542,#546);
#542 = B_SPLINE_CURVE_WITH_KNOTS('',2,(#543,#544,#545),.UNSPECIFIED.,.F.
  ,.F.,(3,3),(0.,1.),.PIECEWISE_BEZIER_KNOTS.);
#543 = CARTESIAN_POINT('',(21.127006369427,2.855969445507,7.261950682151
    ));
#544 = CARTESIAN_POINT('',(21.127006369427,2.726045360489,6.904987192319
    ));
#545 = CARTESIAN_POINT('',(20.991210191083,2.608582136743,6.58225963746)
  );
#546 = VECTOR('',#547,1.);
#547 = DIRECTION('',(-0.,0.939692620786,-0.342020143326));
#548 = ADVANCED_FACE('',(#549),#574,.T.);
#549 = FACE_BOUND('',#550,.T.);
#550 = EDGE_LOOP('',(#551,#552,#560,#568));
#551 = ORIENTED_EDGE('',*,*,#528,.T.);
#552 = ORIENTED_EDGE('',*,*,#553,.T.);
#553 = EDGE_CURVE('',#521,#554,#556,.T.);
#554 = VERTEX_POINT('',#555);
#555 = CARTESIAN_POINT('',(20.561401273885,1.610660675809,6.179536477288
    ));
#556 = B_SPLINE_CURVE_WITH_KNOTS('',2,(#557,#558,#559),.UNSPECIFIED.,.F.
  ,.F.,(3,3),(0.,1.),.PIECEWISE_BEZIER_KNOTS.);
#557 = CARTESIAN_POINT('',(20.991210191083,1.856828040114,6.855875752121
    ));
#558 = CARTESIAN_POINT('',(20.855668789809,1.739364816368,6.533148197262
    ));
#559 = CARTESIAN_POINT('',(20.561401273885,1.610660675809,6.179536477288
    ));
#560 = ORIENTED_EDGE('',*,*,#561,.F.);
#561 = EDGE_CURVE('',#562,#554,#564,.T.);
#562 = VERTEX_POINT('',#563);
#563 = CARTESIAN_POINT('',(20.561401273885,2.362414772438,5.905920362627
    ));
#564 = LINE('',#565,#566);
#565 = CARTESIAN_POINT('',(20.561401273885,2.362414772438,5.905920362627
    ));
#566 = VECTOR('',#567,1.);
#567 = DIRECTION('',(0.,-0.939692620786,0.342020143326));
#568 = ORIENTED_EDGE('',*,*,#569,.F.);
#569 = EDGE_CURVE('',#529,#562,#570,.T.);
#570 = B_SPLINE_CURVE_WITH_KNOTS('',2,(#571,#572,#573),.UNSPECIFIED.,.F.
  ,.F.,(3,3),(0.,1.),.PIECEWISE_BEZIER_KNOTS.);
#571 = CARTESIAN_POINT('',(20.991210191083,2.608582136743,6.58225963746)
  );
#572 = CARTESIAN_POINT('',(20.855668789809,2.491118912997,6.259532082602
    ));
#573 = CARTESIAN_POINT('',(20.561401273885,2.362414772438,5.905920362627
    ));
#574 = SURFACE_OF_LINEAR_EXTRUSION('',#575,#579);
#575 = B_SPLINE_CURVE_WITH_KNOTS('',2,(#576,#577,#578),.UNSPECIFIED.,.F.
  ,.F.,(3,3),(0.,1.),.PIECEWISE_BEZIER_KNOTS.);
#576 = CARTESIAN_POINT('',(20.991210191083,2.608582136743,6.58225963746)
  );
#577 = CARTESIAN_POINT('',(20.855668789809,2.491118912997,6.259532082602
    ));
#578 = CARTESIAN_POINT('',(20.561401273885,2.362414772438,5.905920362627
    ));
#579 = VECTOR('',#580,1.);
#580 = DIRECTION('',(-0.,0.939692620786,-0.342020143326));
#581 = ADVANCED_FACE('',(#582),#607,.T.);
#582 = FACE_BOUND('',#583,.T.);
#583 = EDGE_LOOP('',(#584,#585,#593,#601));
#584 = ORIENTED_EDGE('',*,*,#561,.T.);
#585 = ORIENTED_EDGE('',*,*,#586,.T.);
#586 = EDGE_CURVE('',#554,#587,#589,.T.);
#587 = VERTEX_POINT('',#588);
#588 = CARTESIAN_POINT('',(19.85821656051,1.365190422625,5.505112499516)
  );
#589 = B_SPLINE_CURVE_WITH_KNOTS('',2,(#590,#591,#592),.UNSPECIFIED.,.F.
  ,.F.,(3,3),(0.,1.),.PIECEWISE_BEZIER_KNOTS.);
#590 = CARTESIAN_POINT('',(20.561401273885,1.610660675809,6.179536477288
    ));
#591 = CARTESIAN_POINT('',(20.366496815287,1.525351702481,5.94515199939)
  );
#592 = CARTESIAN_POINT('',(19.85821656051,1.365190422625,5.505112499516)
  );
#593 = ORIENTED_EDGE('',*,*,#594,.F.);
#594 = EDGE_CURVE('',#595,#587,#597,.T.);
#595 = VERTEX_POINT('',#596);
#596 = CARTESIAN_POINT('',(19.85821656051,2.116944519254,5.231496384855)
  );
#597 = LINE('',#598,#599);
#598 = CARTESIAN_POINT('',(19.85821656051,2.116944519254,5.231496384855)
  );
#599 = VECTOR('',#600,1.);
#600 = DIRECTION('',(0.,-0.939692620786,0.342020143326));
#601 = ORIENTED_EDGE('',*,*,#602,.F.);
#602 = EDGE_CURVE('',#562,#595,#603,.T.);
#603 = B_SPLINE_CURVE_WITH_KNOTS('',2,(#604,#605,#606),.UNSPECIFIED.,.F.
  ,.F.,(3,3),(0.,1.),.PIECEWISE_BEZIER_KNOTS.);
#604 = CARTESIAN_POINT('',(20.561401273885,2.362414772438,5.905920362627
    ));
#605 = CARTESIAN_POINT('',(20.366496815287,2.277105799109,5.671535884729
    ));
#606 = CARTESIAN_POINT('',(19.85821656051,2.116944519254,5.231496384855)
  );
#607 = SURFACE_OF_LINEAR_EXTRUSION('',#608,#612);
#608 = B_SPLINE_CURVE_WITH_KNOTS('',2,(#609,#610,#611),.UNSPECIFIED.,.F.
  ,.F.,(3,3),(0.,1.),.PIECEWISE_BEZIER_KNOTS.);
#609 = CARTESIAN_POINT('',(20.561401273885,2.362414772438,5.905920362627
    ));
#610 = CARTESIAN_POINT('',(20.366496815287,2.277105799109,5.671535884729
    ));
#611 = CARTESIAN_POINT('',(19.85821656051,2.116944519254,5.231496384855)
  );
#612 = VECTOR('',#613,1.);
#613 = DIRECTION('',(-0.,0.939692620786,-0.342020143326));
#614 = ADVANCED_FACE('',(#615),#640,.T.);
#615 = FACE_BOUND('',#616,.T.);
#616 = EDGE_LOOP('',(#617,#618,#626,#634));
#617 = ORIENTED_EDGE('',*,*,#594,.T.);
#618 = ORIENTED_EDGE('',*,*,#619,.T.);
#619 = EDGE_CURVE('',#587,#620,#622,.T.);
#620 = VERTEX_POINT('',#621);
#621 = CARTESIAN_POINT('',(19.214140127389,1.152571530978,4.920946895766
    ));
#622 = B_SPLINE_CURVE_WITH_KNOTS('',2,(#623,#624,#625),.UNSPECIFIED.,.F.
  ,.F.,(3,3),(0.,1.),.PIECEWISE_BEZIER_KNOTS.);
#623 = CARTESIAN_POINT('',(19.85821656051,1.365190422625,5.505112499516)
  );
#624 = CARTESIAN_POINT('',(19.349936305732,1.20511628166,5.065312411775)
  );
#625 = CARTESIAN_POINT('',(19.214140127389,1.152571530978,4.920946895766
    ));
#626 = ORIENTED_EDGE('',*,*,#627,.F.);
#627 = EDGE_CURVE('',#628,#620,#630,.T.);
#628 = VERTEX_POINT('',#629);
#629 = CARTESIAN_POINT('',(19.214140127389,1.904325627607,4.647330781106
    ));
#630 = LINE('',#631,#632);
#631 = CARTESIAN_POINT('',(19.214140127389,1.904325627607,4.647330781106
    ));
#632 = VECTOR('',#633,1.);
#633 = DIRECTION('',(0.,-0.939692620786,0.342020143326));
#634 = ORIENTED_EDGE('',*,*,#635,.F.);
#635 = EDGE_CURVE('',#595,#628,#636,.T.);
#636 = B_SPLINE_CURVE_WITH_KNOTS('',2,(#637,#638,#639),.UNSPECIFIED.,.F.
  ,.F.,(3,3),(0.,1.),.PIECEWISE_BEZIER_KNOTS.);
#637 = CARTESIAN_POINT('',(19.85821656051,2.116944519254,5.231496384855)
  );
#638 = CARTESIAN_POINT('',(19.349936305732,1.956870378288,4.791696297114
    ));
#639 = CARTESIAN_POINT('',(19.214140127389,1.904325627607,4.647330781106
    ));
#640 = SURFACE_OF_LINEAR_EXTRUSION('',#641,#645);
#641 = B_SPLINE_CURVE_WITH_KNOTS('',2,(#642,#643,#644),.UNSPECIFIED.,.F.
  ,.F.,(3,3),(0.,1.),.PIECEWISE_BEZIER_KNOTS.);
#642 = CARTESIAN_POINT('',(19.85821656051,2.116944519254,5.231496384855)
  );
#643 = CARTESIAN_POINT('',(19.349936305732,1.956870378288,4.791696297114
    ));
#644 = CARTESIAN_POINT('',(19.214140127389,1.904325627607,4.647330781106
    ));
#645 = VECTOR('',#646,1.);
#646 = DIRECTION('',(-0.,0.939692620786,-0.342020143326));
#647 = ADVANCED_FACE('',(#648),#673,.T.);
#648 = FACE_BOUND('',#649,.T.);
#649 = EDGE_LOOP('',(#650,#651,#659,#667));
#650 = ORIENTED_EDGE('',*,*,#627,.T.);
#651 = ORIENTED_EDGE('',*,*,#652,.T.);
#652 = EDGE_CURVE('',#620,#653,#655,.T.);
#653 = VERTEX_POINT('',#654);
#654 = CARTESIAN_POINT('',(18.994522292994,1.050270474095,4.639877051995
    ));
#655 = B_SPLINE_CURVE_WITH_KNOTS('',2,(#656,#657,#658),.UNSPECIFIED.,.F.
  ,.F.,(3,3),(0.,1.),.PIECEWISE_BEZIER_KNOTS.);
#656 = CARTESIAN_POINT('',(19.214140127389,1.152571530978,4.920946895766
    ));
#657 = CARTESIAN_POINT('',(19.078598726115,1.100113919186,4.77682079189)
  );
#658 = CARTESIAN_POINT('',(18.994522292994,1.050270474095,4.639877051995
    ));
#659 = ORIENTED_EDGE('',*,*,#660,.F.);
#660 = EDGE_CURVE('',#661,#653,#663,.T.);
#661 = VERTEX_POINT('',#662);
#662 = CARTESIAN_POINT('',(18.994522292994,1.802024570724,4.366260937334
    ));
#663 = LINE('',#664,#665);
#664 = CARTESIAN_POINT('',(18.994522292994,1.802024570724,4.366260937334
    ));
#665 = VECTOR('',#666,1.);
#666 = DIRECTION('',(0.,-0.939692620786,0.342020143326));
#667 = ORIENTED_EDGE('',*,*,#668,.F.);
#668 = EDGE_CURVE('',#628,#661,#669,.T.);
#669 = B_SPLINE_CURVE_WITH_KNOTS('',2,(#670,#671,#672),.UNSPECIFIED.,.F.
  ,.F.,(3,3),(0.,1.),.PIECEWISE_BEZIER_KNOTS.);
#670 = CARTESIAN_POINT('',(19.214140127389,1.904325627607,4.647330781106
    ));
#671 = CARTESIAN_POINT('',(19.078598726115,1.851868015815,4.50320467723)
  );
#672 = CARTESIAN_POINT('',(18.994522292994,1.802024570724,4.366260937334
    ));
#673 = SURFACE_OF_LINEAR_EXTRUSION('',#674,#678);
#674 = B_SPLINE_CURVE_WITH_KNOTS('',2,(#675,#676,#677),.UNSPECIFIED.,.F.
  ,.F.,(3,3),(0.,1.),.PIECEWISE_BEZIER_KNOTS.);
#675 = CARTESIAN_POINT('',(19.214140127389,1.904325627607,4.647330781106
    ));
#676 = CARTESIAN_POINT('',(19.078598726115,1.851868015815,4.50320467723)
  );
#677 = CARTESIAN_POINT('',(18.994522292994,1.802024570724,4.366260937334
    ));
#678 = VECTOR('',#679,1.);
#679 = DIRECTION('',(-0.,0.939692620786,-0.342020143326));
#680 = ADVANCED_FACE('',(#681),#697,.T.);
#681 = FACE_BOUND('',#682,.T.);
#682 = EDGE_LOOP('',(#683,#684,#690,#691));
#683 = ORIENTED_EDGE('',*,*,#660,.T.);
#684 = ORIENTED_EDGE('',*,*,#685,.T.);
#685 = EDGE_CURVE('',#653,#24,#686,.T.);
#686 = LINE('',#687,#688);
#687 = CARTESIAN_POINT('',(18.994522292994,1.050270474095,4.639877051995
    ));
#688 = VECTOR('',#689,1.);
#689 = DIRECTION('',(1.,0.,0.));
#690 = ORIENTED_EDGE('',*,*,#21,.F.);
#691 = ORIENTED_EDGE('',*,*,#692,.F.);
#692 = EDGE_CURVE('',#661,#22,#693,.T.);
#693 = LINE('',#694,#695);
#694 = CARTESIAN_POINT('',(18.994522292994,1.802024570724,4.366260937334
    ));
#695 = VECTOR('',#696,1.);
#696 = DIRECTION('',(1.,0.,0.));
#697 = PLANE('',#698);
#698 = AXIS2_PLACEMENT_3D('',#699,#700,#701);
#699 = CARTESIAN_POINT('',(18.994522292994,1.802024570724,4.366260937334
    ));
#700 = DIRECTION('',(0.,0.342020143326,0.939692620786));
#701 = DIRECTION('',(1.,0.,0.));
#702 = ADVANCED_FACE('',(#703),#726,.F.);
#703 = FACE_BOUND('',#704,.T.);
#704 = EDGE_LOOP('',(#705,#706,#707,#708,#709,#710,#711,#712,#713,#714,
    #715,#716,#717,#718,#719,#720,#721,#722,#723,#724,#725));
#705 = ORIENTED_EDGE('',*,*,#47,.T.);
#706 = ORIENTED_EDGE('',*,*,#78,.T.);
#707 = ORIENTED_EDGE('',*,*,#109,.T.);
#708 = ORIENTED_EDGE('',*,*,#142,.T.);
#709 = ORIENTED_EDGE('',*,*,#175,.T.);
#710 = ORIENTED_EDGE('',*,*,#208,.T.);
#711 = ORIENTED_EDGE('',*,*,#241,.T.);
#712 = ORIENTED_EDGE('',*,*,#274,.T.);
#713 = ORIENTED_EDGE('',*,*,#307,.T.);
#714 = ORIENTED_EDGE('',*,*,#340,.T.);
#715 = ORIENTED_EDGE('',*,*,#373,.T.);
#716 = ORIENTED_EDGE('',*,*,#404,.T.);
#717 = ORIENTED_EDGE('',*,*,#437,.T.);
#718 = ORIENTED_EDGE('',*,*,#470,.T.);
#719 = ORIENTED_EDGE('',*,*,#503,.T.);
#720 = ORIENTED_EDGE('',*,*,#536,.T.);
#721 = ORIENTED_EDGE('',*,*,#569,.T.);
#722 = ORIENTED_EDGE('',*,*,#602,.T.);
#723 = ORIENTED_EDGE('',*,*,#635,.T.);
#724 = ORIENTED_EDGE('',*,*,#668,.T.);
#725 = ORIENTED_EDGE('',*,*,#692,.T.);
#726 = PLANE('',#727);
#727 = AXIS2_PLACEMENT_3D('',#728,#729,#730);
#728 = CARTESIAN_POINT('',(19.388385106308,2.361698988263,5.903953761769
    ));
#729 = DIRECTION('',(0.,-0.939692620786,0.342020143326));
#730 = DIRECTION('',(1.,0.,0.));
#731 = ADVANCED_FACE('',(#732),#755,.T.);
#732 = FACE_BOUND('',#733,.F.);
#733 = EDGE_LOOP('',(#734,#735,#736,#737,#738,#739,#740,#741,#742,#743,
    #744,#745,#746,#747,#748,#749,#750,#751,#752,#753,#754));
#734 = ORIENTED_EDGE('',*,*,#31,.T.);
#735 = ORIENTED_EDGE('',*,*,#62,.T.);
#736 = ORIENTED_EDGE('',*,*,#93,.T.);
#737 = ORIENTED_EDGE('',*,*,#126,.T.);
#738 = ORIENTED_EDGE('',*,*,#159,.T.);
#739 = ORIENTED_EDGE('',*,*,#192,.T.);
#740 = ORIENTED_EDGE('',*,*,#225,.T.);
#741 = ORIENTED_EDGE('',*,*,#258,.T.);
#742 = ORIENTED_EDGE('',*,*,#291,.T.);
#743 = ORIENTED_EDGE('',*,*,#324,.T.);
#744 = ORIENTED_EDGE('',*,*,#357,.T.);
#745 = ORIENTED_EDGE('',*,*,#388,.T.);
#746 = ORIENTED_EDGE('',*,*,#421,.T.);
#747 = ORIENTED_EDGE('',*,*,#454,.T.);
#748 = ORIENTED_EDGE('',*,*,#487,.T.);
#749 = ORIENTED_EDGE('',*,*,#520,.T.);
#750 = ORIENTED_EDGE('',*,*,#553,.T.);
#751 = ORIENTED_EDGE('',*,*,#586,.T.);
#752 = ORIENTED_EDGE('',*,*,#619,.T.);
#753 = ORIENTED_EDGE('',*,*,#652,.T.);
#754 = ORIENTED_EDGE('',*,*,#685,.T.);
#755 = PLANE('',#756);
#756 = AXIS2_PLACEMENT_3D('',#757,#758,#759);
#757 = CARTESIAN_POINT('',(19.388385106308,1.609944891634,6.17756987643)
  );
#758 = DIRECTION('',(0.,-0.939692620786,0.342020143326));
#759 = DIRECTION('',(1.,0.,0.));
#760 = MANIFOLD_SOLID_BREP('',#761);
#761 = CLOSED_SHELL('',(#762,#802,#835,#868,#901,#934,#967,#1000,#1033,
    #1064,#1095,#1126,#1157,#1188,#1219,#1252,#1285,#1318,#1351,#1384,
    #1417,#1441,#1470));
#762 = ADVANCED_FACE('',(#763),#797,.T.);
#763 = FACE_BOUND('',#764,.T.);
#764 = EDGE_LOOP('',(#765,#775,#783,#791));
#765 = ORIENTED_EDGE('',*,*,#766,.T.);
#766 = EDGE_CURVE('',#767,#769,#771,.T.);
#767 = VERTEX_POINT('',#768);
#768 = CARTESIAN_POINT('',(21.869171974522,1.953994794918,4.783795696736
    ));
#769 = VERTEX_POINT('',#770);
#770 = CARTESIAN_POINT('',(21.869171974522,1.202240698289,5.057411811396
    ));
#771 = LINE('',#772,#773);
#772 = CARTESIAN_POINT('',(21.869171974522,1.953994794918,4.783795696736
    ));
#773 = VECTOR('',#774,1.);
#774 = DIRECTION('',(0.,-0.939692620786,0.342020143326));
#775 = ORIENTED_EDGE('',*,*,#776,.T.);
#776 = EDGE_CURVE('',#769,#777,#779,.T.);
#777 = VERTEX_POINT('',#778);
#778 = CARTESIAN_POINT('',(22.93923566879,1.239884698777,5.160837852716)
  );
#779 = LINE('',#780,#781);
#780 = CARTESIAN_POINT('',(21.869171974522,1.202240698289,5.057411811396
    ));
#781 = VECTOR('',#782,1.);
#782 = DIRECTION('',(0.994751810339,3.499458755099E-02,
    9.614683909947E-02));
#783 = ORIENTED_EDGE('',*,*,#784,.F.);
#784 = EDGE_CURVE('',#785,#777,#787,.T.);
#785 = VERTEX_POINT('',#786);
#786 = CARTESIAN_POINT('',(22.93923566879,1.991638795406,4.887221738055)
  );
#787 = LINE('',#788,#789);
#788 = CARTESIAN_POINT('',(22.93923566879,1.991638795406,4.887221738055)
  );
#789 = VECTOR('',#790,1.);
#790 = DIRECTION('',(0.,-0.939692620786,0.342020143326));
#791 = ORIENTED_EDGE('',*,*,#792,.F.);
#792 = EDGE_CURVE('',#767,#785,#793,.T.);
#793 = LINE('',#794,#795);
#794 = CARTESIAN_POINT('',(21.869171974522,1.953994794918,4.783795696736
    ));
#795 = VECTOR('',#796,1.);
#796 = DIRECTION('',(0.994751810339,3.499458755099E-02,
    9.614683909947E-02));
#797 = PLANE('',#798);
#798 = AXIS2_PLACEMENT_3D('',#799,#800,#801);
#799 = CARTESIAN_POINT('',(21.869171974522,1.953994794918,4.783795696736
    ));
#800 = DIRECTION('',(-0.102317329063,0.340225156746,0.934760935689));
#801 = DIRECTION('',(0.994751810339,3.499458755099E-02,
    9.614683909947E-02));
#802 = ADVANCED_FACE('',(#803),#828,.T.);
#803 = FACE_BOUND('',#804,.T.);
#804 = EDGE_LOOP('',(#805,#806,#814,#822));
#805 = ORIENTED_EDGE('',*,*,#784,.T.);
#806 = ORIENTED_EDGE('',*,*,#807,.T.);
#807 = EDGE_CURVE('',#777,#808,#810,.T.);
#808 = VERTEX_POINT('',#809);
#809 = CARTESIAN_POINT('',(23.210573248408,1.044257890684,4.62335761484)
  );
#810 = B_SPLINE_CURVE_WITH_KNOTS('',2,(#811,#812,#813),.UNSPECIFIED.,.F.
  ,.F.,(3,3),(0.,1.),.PIECEWISE_BEZIER_KNOTS.);
#811 = CARTESIAN_POINT('',(22.93923566879,1.239884698777,5.160837852716)
  );
#812 = CARTESIAN_POINT('',(22.985095541401,1.11640889162,4.821590860702)
  );
#813 = CARTESIAN_POINT('',(23.210573248408,1.044257890684,4.62335761484)
  );
#814 = ORIENTED_EDGE('',*,*,#815,.F.);
#815 = EDGE_CURVE('',#816,#808,#818,.T.);
#816 = VERTEX_POINT('',#817);
#817 = CARTESIAN_POINT('',(23.210573248408,1.796011987313,4.349741500179
    ));
#818 = LINE('',#819,#820);
#819 = CARTESIAN_POINT('',(23.210573248408,1.796011987313,4.349741500179
    ));
#820 = VECTOR('',#821,1.);
#821 = DIRECTION('',(0.,-0.939692620786,0.342020143326));
#822 = ORIENTED_EDGE('',*,*,#823,.F.);
#823 = EDGE_CURVE('',#785,#816,#824,.T.);
#824 = B_SPLINE_CURVE_WITH_KNOTS('',2,(#825,#826,#827),.UNSPECIFIED.,.F.
  ,.F.,(3,3),(0.,1.),.PIECEWISE_BEZIER_KNOTS.);
#825 = CARTESIAN_POINT('',(22.93923566879,1.991638795406,4.887221738055)
  );
#826 = CARTESIAN_POINT('',(22.985095541401,1.868162988249,4.547974746042
    ));
#827 = CARTESIAN_POINT('',(23.210573248408,1.796011987313,4.349741500179
    ));
#828 = SURFACE_OF_LINEAR_EXTRUSION('',#829,#833);
#829 = B_SPLINE_CURVE_WITH_KNOTS('',2,(#830,#831,#832),.UNSPECIFIED.,.F.
  ,.F.,(3,3),(0.,1.),.PIECEWISE_BEZIER_KNOTS.);
#830 = CARTESIAN_POINT('',(22.93923566879,1.991638795406,4.887221738055)
  );
#831 = CARTESIAN_POINT('',(22.985095541401,1.868162988249,4.547974746042
    ));
#832 = CARTESIAN_POINT('',(23.210573248408,1.796011987313,4.349741500179
    ));
#833 = VECTOR('',#834,1.);
#834 = DIRECTION('',(-0.,0.939692620786,-0.342020143326));
#835 = ADVANCED_FACE('',(#836),#861,.T.);
#836 = FACE_BOUND('',#837,.T.);
#837 = EDGE_LOOP('',(#838,#839,#847,#855));
#838 = ORIENTED_EDGE('',*,*,#815,.T.);
#839 = ORIENTED_EDGE('',*,*,#840,.T.);
#840 = EDGE_CURVE('',#808,#841,#843,.T.);
#841 = VERTEX_POINT('',#842);
#842 = CARTESIAN_POINT('',(23.730318471338,0.972194028638,4.42536378111)
  );
#843 = B_SPLINE_CURVE_WITH_KNOTS('',2,(#844,#845,#846),.UNSPECIFIED.,.F.
  ,.F.,(3,3),(0.,1.),.PIECEWISE_BEZIER_KNOTS.);
#844 = CARTESIAN_POINT('',(23.210573248408,1.044257890684,4.62335761484)
  );
#845 = CARTESIAN_POINT('',(23.436050955414,0.972194028638,4.42536378111)
  );
#846 = CARTESIAN_POINT('',(23.730318471338,0.972194028638,4.42536378111)
  );
#847 = ORIENTED_EDGE('',*,*,#848,.F.);
#848 = EDGE_CURVE('',#849,#841,#851,.T.);
#849 = VERTEX_POINT('',#850);
#850 = CARTESIAN_POINT('',(23.730318471338,1.723948125267,4.151747666449
    ));
#851 = LINE('',#852,#853);
#852 = CARTESIAN_POINT('',(23.730318471338,1.723948125267,4.151747666449
    ));
#853 = VECTOR('',#854,1.);
#854 = DIRECTION('',(0.,-0.939692620786,0.342020143326));
#855 = ORIENTED_EDGE('',*,*,#856,.F.);
#856 = EDGE_CURVE('',#816,#849,#857,.T.);
#857 = B_SPLINE_CURVE_WITH_KNOTS('',2,(#858,#859,#860),.UNSPECIFIED.,.F.
  ,.F.,(3,3),(0.,1.),.PIECEWISE_BEZIER_KNOTS.);
#858 = CARTESIAN_POINT('',(23.210573248408,1.796011987313,4.349741500179
    ));
#859 = CARTESIAN_POINT('',(23.436050955414,1.723948125267,4.151747666449
    ));
#860 = CARTESIAN_POINT('',(23.730318471338,1.723948125267,4.151747666449
    ));
#861 = SURFACE_OF_LINEAR_EXTRUSION('',#862,#866);
#862 = B_SPLINE_CURVE_WITH_KNOTS('',2,(#863,#864,#865),.UNSPECIFIED.,.F.
  ,.F.,(3,3),(0.,1.),.PIECEWISE_BEZIER_KNOTS.);
#863 = CARTESIAN_POINT('',(23.210573248408,1.796011987313,4.349741500179
    ));
#864 = CARTESIAN_POINT('',(23.436050955414,1.723948125267,4.151747666449
    ));
#865 = CARTESIAN_POINT('',(23.730318471338,1.723948125267,4.151747666449
    ));
#866 = VECTOR('',#867,1.);
#867 = DIRECTION('',(-0.,0.939692620786,-0.342020143326));
#868 = ADVANCED_FACE('',(#869),#894,.T.);
#869 = FACE_BOUND('',#870,.T.);
#870 = EDGE_LOOP('',(#871,#872,#880,#888));
#871 = ORIENTED_EDGE('',*,*,#848,.T.);
#872 = ORIENTED_EDGE('',*,*,#873,.T.);
#873 = EDGE_CURVE('',#841,#874,#876,.T.);
#874 = VERTEX_POINT('',#875);
#875 = CARTESIAN_POINT('',(24.29974522293,1.065955474299,4.682971235878)
  );
#876 = B_SPLINE_CURVE_WITH_KNOTS('',2,(#877,#878,#879),.UNSPECIFIED.,.F.
  ,.F.,(3,3),(0.,1.),.PIECEWISE_BEZIER_KNOTS.);
#877 = CARTESIAN_POINT('',(23.730318471338,0.972194028638,4.42536378111)
  );
#878 = CARTESIAN_POINT('',(24.066624203822,0.972194028638,4.42536378111)
  );
#879 = CARTESIAN_POINT('',(24.29974522293,1.065955474299,4.682971235878)
  );
#880 = ORIENTED_EDGE('',*,*,#881,.F.);
#881 = EDGE_CURVE('',#882,#874,#884,.T.);
#882 = VERTEX_POINT('',#883);
#883 = CARTESIAN_POINT('',(24.29974522293,1.817709570928,4.409355121218)
  );
#884 = LINE('',#885,#886);
#885 = CARTESIAN_POINT('',(24.29974522293,1.817709570928,4.409355121218)
  );
#886 = VECTOR('',#887,1.);
#887 = DIRECTION('',(0.,-0.939692620786,0.342020143326));
#888 = ORIENTED_EDGE('',*,*,#889,.F.);
#889 = EDGE_CURVE('',#849,#882,#890,.T.);
#890 = B_SPLINE_CURVE_WITH_KNOTS('',2,(#891,#892,#893),.UNSPECIFIED.,.F.
  ,.F.,(3,3),(0.,1.),.PIECEWISE_BEZIER_KNOTS.);
#891 = CARTESIAN_POINT('',(23.730318471338,1.723948125267,4.151747666449
    ));
#892 = CARTESIAN_POINT('',(24.066624203822,1.723948125267,4.151747666449
    ));
#893 = CARTESIAN_POINT('',(24.29974522293,1.817709570928,4.409355121218)
  );
#894 = SURFACE_OF_LINEAR_EXTRUSION('',#895,#899);
#895 = B_SPLINE_CURVE_WITH_KNOTS('',2,(#896,#897,#898),.UNSPECIFIED.,.F.
  ,.F.,(3,3),(0.,1.),.PIECEWISE_BEZIER_KNOTS.);
#896 = CARTESIAN_POINT('',(23.730318471338,1.723948125267,4.151747666449
    ));
#897 = CARTESIAN_POINT('',(24.066624203822,1.723948125267,4.151747666449
    ));
#898 = CARTESIAN_POINT('',(24.29974522293,1.817709570928,4.409355121218)
  );
#899 = VECTOR('',#900,1.);
#900 = DIRECTION('',(-0.,0.939692620786,-0.342020143326));
#901 = ADVANCED_FACE('',(#902),#927,.T.);
#902 = FACE_BOUND('',#903,.T.);
#903 = EDGE_LOOP('',(#904,#905,#913,#921));
#904 = ORIENTED_EDGE('',*,*,#881,.T.);
#905 = ORIENTED_EDGE('',*,*,#906,.T.);
#906 = EDGE_CURVE('',#874,#907,#909,.T.);
#907 = VERTEX_POINT('',#908);
#908 = CARTESIAN_POINT('',(24.532866242038,1.348634033521,5.459624194306
    ));
#909 = B_SPLINE_CURVE_WITH_KNOTS('',2,(#910,#911,#912),.UNSPECIFIED.,.F.
  ,.F.,(3,3),(0.,1.),.PIECEWISE_BEZIER_KNOTS.);
#910 = CARTESIAN_POINT('',(24.29974522293,1.065955474299,4.682971235878)
  );
#911 = CARTESIAN_POINT('',(24.532866242038,1.15971691996,4.940578690646)
  );
#912 = CARTESIAN_POINT('',(24.532866242038,1.348634033521,5.459624194306
    ));
#913 = ORIENTED_EDGE('',*,*,#914,.F.);
#914 = EDGE_CURVE('',#915,#907,#917,.T.);
#915 = VERTEX_POINT('',#916);
#916 = CARTESIAN_POINT('',(24.532866242038,2.10038813015,5.186008079645)
  );
#917 = LINE('',#918,#919);
#918 = CARTESIAN_POINT('',(24.532866242038,2.10038813015,5.186008079645)
  );
#919 = VECTOR('',#920,1.);
#920 = DIRECTION('',(0.,-0.939692620786,0.342020143326));
#921 = ORIENTED_EDGE('',*,*,#922,.F.);
#922 = EDGE_CURVE('',#882,#915,#923,.T.);
#923 = B_SPLINE_CURVE_WITH_KNOTS('',2,(#924,#925,#926),.UNSPECIFIED.,.F.
  ,.F.,(3,3),(0.,1.),.PIECEWISE_BEZIER_KNOTS.);
#924 = CARTESIAN_POINT('',(24.29974522293,1.817709570928,4.409355121218)
  );
#925 = CARTESIAN_POINT('',(24.532866242038,1.911471016588,4.666962575986
    ));
#926 = CARTESIAN_POINT('',(24.532866242038,2.10038813015,5.186008079645)
  );
#927 = SURFACE_OF_LINEAR_EXTRUSION('',#928,#932);
#928 = B_SPLINE_CURVE_WITH_KNOTS('',2,(#929,#930,#931),.UNSPECIFIED.,.F.
  ,.F.,(3,3),(0.,1.),.PIECEWISE_BEZIER_KNOTS.);
#929 = CARTESIAN_POINT('',(24.29974522293,1.817709570928,4.409355121218)
  );
#930 = CARTESIAN_POINT('',(24.532866242038,1.911471016588,4.666962575986
    ));
#931 = CARTESIAN_POINT('',(24.532866242038,2.10038813015,5.186008079645)
  );
#932 = VECTOR('',#933,1.);
#933 = DIRECTION('',(-0.,0.939692620786,-0.342020143326));
#934 = ADVANCED_FACE('',(#935),#960,.T.);
#935 = FACE_BOUND('',#936,.T.);
#936 = EDGE_LOOP('',(#937,#938,#946,#954));
#937 = ORIENTED_EDGE('',*,*,#914,.T.);
#938 = ORIENTED_EDGE('',*,*,#939,.T.);
#939 = EDGE_CURVE('',#907,#940,#942,.T.);
#940 = VERTEX_POINT('',#941);
#941 = CARTESIAN_POINT('',(24.30152866242,1.6142333703,6.189352374728));
#942 = B_SPLINE_CURVE_WITH_KNOTS('',2,(#943,#944,#945),.UNSPECIFIED.,.F.
  ,.F.,(3,3),(0.,1.),.PIECEWISE_BEZIER_KNOTS.);
#943 = CARTESIAN_POINT('',(24.532866242038,1.348634033521,5.459624194306
    ));
#944 = CARTESIAN_POINT('',(24.532866242038,1.525700258041,5.946109647921
    ));
#945 = CARTESIAN_POINT('',(24.30152866242,1.6142333703,6.189352374728));
#946 = ORIENTED_EDGE('',*,*,#947,.F.);
#947 = EDGE_CURVE('',#948,#940,#950,.T.);
#948 = VERTEX_POINT('',#949);
#949 = CARTESIAN_POINT('',(24.30152866242,2.365987466929,5.915736260067)
  );
#950 = LINE('',#951,#952);
#951 = CARTESIAN_POINT('',(24.30152866242,2.365987466929,5.915736260067)
  );
#952 = VECTOR('',#953,1.);
#953 = DIRECTION('',(0.,-0.939692620786,0.342020143326));
#954 = ORIENTED_EDGE('',*,*,#955,.F.);
#955 = EDGE_CURVE('',#915,#948,#956,.T.);
#956 = B_SPLINE_CURVE_WITH_KNOTS('',2,(#957,#958,#959),.UNSPECIFIED.,.F.
  ,.F.,(3,3),(0.,1.),.PIECEWISE_BEZIER_KNOTS.);
#957 = CARTESIAN_POINT('',(24.532866242038,2.10038813015,5.186008079645)
  );
#958 = CARTESIAN_POINT('',(24.532866242038,2.277454354669,5.67249353326)
  );
#959 = CARTESIAN_POINT('',(24.30152866242,2.365987466929,5.915736260067)
  );
#960 = SURFACE_OF_LINEAR_EXTRUSION('',#961,#965);
#961 = B_SPLINE_CURVE_WITH_KNOTS('',2,(#962,#963,#964),.UNSPECIFIED.,.F.
  ,.F.,(3,3),(0.,1.),.PIECEWISE_BEZIER_KNOTS.);
#962 = CARTESIAN_POINT('',(24.532866242038,2.10038813015,5.186008079645)
  );
#963 = CARTESIAN_POINT('',(24.532866242038,2.277454354669,5.67249353326)
  );
#964 = CARTESIAN_POINT('',(24.30152866242,2.365987466929,5.915736260067)
  );
#965 = VECTOR('',#966,1.);
#966 = DIRECTION('',(-0.,0.939692620786,-0.342020143326));
#967 = ADVANCED_FACE('',(#968),#993,.T.);
#968 = FACE_BOUND('',#969,.T.);
#969 = EDGE_LOOP('',(#970,#971,#979,#987));
#970 = ORIENTED_EDGE('',*,*,#947,.T.);
#971 = ORIENTED_EDGE('',*,*,#972,.T.);
#972 = EDGE_CURVE('',#940,#973,#975,.T.);
#973 = VERTEX_POINT('',#974);
#974 = CARTESIAN_POINT('',(23.69974522293,1.70276648256,6.432595101535)
  );
#975 = B_SPLINE_CURVE_WITH_KNOTS('',2,(#976,#977,#978),.UNSPECIFIED.,.F.
  ,.F.,(3,3),(0.,1.),.PIECEWISE_BEZIER_KNOTS.);
#976 = CARTESIAN_POINT('',(24.30152866242,1.6142333703,6.189352374728));
#977 = CARTESIAN_POINT('',(24.070445859873,1.70276648256,6.432595101535)
  );
#978 = CARTESIAN_POINT('',(23.69974522293,1.70276648256,6.432595101535)
  );
#979 = ORIENTED_EDGE('',*,*,#980,.F.);
#980 = EDGE_CURVE('',#981,#973,#983,.T.);
#981 = VERTEX_POINT('',#982);
#982 = CARTESIAN_POINT('',(23.69974522293,2.454520579189,6.158978986875)
  );
#983 = LINE('',#984,#985);
#984 = CARTESIAN_POINT('',(23.69974522293,2.454520579189,6.158978986875)
  );
#985 = VECTOR('',#986,1.);
#986 = DIRECTION('',(0.,-0.939692620786,0.342020143326));
#987 = ORIENTED_EDGE('',*,*,#988,.F.);
#988 = EDGE_CURVE('',#948,#981,#989,.T.);
#989 = B_SPLINE_CURVE_WITH_KNOTS('',2,(#990,#991,#992),.UNSPECIFIED.,.F.
  ,.F.,(3,3),(0.,1.),.PIECEWISE_BEZIER_KNOTS.);
#990 = CARTESIAN_POINT('',(24.30152866242,2.365987466929,5.915736260067)
  );
#991 = CARTESIAN_POINT('',(24.070445859873,2.454520579189,6.158978986875
    ));
#992 = CARTESIAN_POINT('',(23.69974522293,2.454520579189,6.158978986875)
  );
#993 = SURFACE_OF_LINEAR_EXTRUSION('',#994,#998);
#994 = B_SPLINE_CURVE_WITH_KNOTS('',2,(#995,#996,#997),.UNSPECIFIED.,.F.
  ,.F.,(3,3),(0.,1.),.PIECEWISE_BEZIER_KNOTS.);
#995 = CARTESIAN_POINT('',(24.30152866242,2.365987466929,5.915736260067)
  );
#996 = CARTESIAN_POINT('',(24.070445859873,2.454520579189,6.158978986875
    ));
#997 = CARTESIAN_POINT('',(23.69974522293,2.454520579189,6.158978986875)
  );
#998 = VECTOR('',#999,1.);
#999 = DIRECTION('',(-0.,0.939692620786,-0.342020143326));
#1000 = ADVANCED_FACE('',(#1001),#1026,.T.);
#1001 = FACE_BOUND('',#1002,.T.);
#1002 = EDGE_LOOP('',(#1003,#1004,#1012,#1020));
#1003 = ORIENTED_EDGE('',*,*,#980,.T.);
#1004 = ORIENTED_EDGE('',*,*,#1005,.T.);
#1005 = EDGE_CURVE('',#973,#1006,#1008,.T.);
#1006 = VERTEX_POINT('',#1007);
#1007 = CARTESIAN_POINT('',(22.870445859873,1.563344258529,6.04953568924
    ));
#1008 = B_SPLINE_CURVE_WITH_KNOTS('',2,(#1009,#1010,#1011),
  .UNSPECIFIED.,.F.,.F.,(3,3),(0.,1.),.PIECEWISE_BEZIER_KNOTS.);
#1009 = CARTESIAN_POINT('',(23.69974522293,1.70276648256,6.432595101535)
  );
#1010 = CARTESIAN_POINT('',(23.237324840764,1.70276648256,6.432595101535
    ));
#1011 = CARTESIAN_POINT('',(22.870445859873,1.563344258529,6.04953568924
    ));
#1012 = ORIENTED_EDGE('',*,*,#1013,.F.);
#1013 = EDGE_CURVE('',#1014,#1006,#1016,.T.);
#1014 = VERTEX_POINT('',#1015);
#1015 = CARTESIAN_POINT('',(22.870445859873,2.315098355158,5.77591957458
    ));
#1016 = LINE('',#1017,#1018);
#1017 = CARTESIAN_POINT('',(22.870445859873,2.315098355158,5.77591957458
    ));
#1018 = VECTOR('',#1019,1.);
#1019 = DIRECTION('',(0.,-0.939692620786,0.342020143326));
#1020 = ORIENTED_EDGE('',*,*,#1021,.F.);
#1021 = EDGE_CURVE('',#981,#1014,#1022,.T.);
#1022 = B_SPLINE_CURVE_WITH_KNOTS('',2,(#1023,#1024,#1025),
  .UNSPECIFIED.,.F.,.F.,(3,3),(0.,1.),.PIECEWISE_BEZIER_KNOTS.);
#1023 = CARTESIAN_POINT('',(23.69974522293,2.454520579189,6.158978986875
    ));
#1024 = CARTESIAN_POINT('',(23.237324840764,2.454520579189,
    6.158978986875));
#1025 = CARTESIAN_POINT('',(22.870445859873,2.315098355158,5.77591957458
    ));
#1026 = SURFACE_OF_LINEAR_EXTRUSION('',#1027,#1031);
#1027 = B_SPLINE_CURVE_WITH_KNOTS('',2,(#1028,#1029,#1030),
  .UNSPECIFIED.,.F.,.F.,(3,3),(0.,1.),.PIECEWISE_BEZIER_KNOTS.);
#1028 = CARTESIAN_POINT('',(23.69974522293,2.454520579189,6.158978986875
    ));
#1029 = CARTESIAN_POINT('',(23.237324840764,2.454520579189,
    6.158978986875));
#1030 = CARTESIAN_POINT('',(22.870445859873,2.315098355158,5.77591957458
    ));
#1031 = VECTOR('',#1032,1.);
#1032 = DIRECTION('',(-0.,0.939692620786,-0.342020143326));
#1033 = ADVANCED_FACE('',(#1034),#1059,.T.);
#1034 = FACE_BOUND('',#1035,.T.);
#1035 = EDGE_LOOP('',(#1036,#1037,#1045,#1053));
#1036 = ORIENTED_EDGE('',*,*,#1013,.T.);
#1037 = ORIENTED_EDGE('',*,*,#1038,.T.);
#1038 = EDGE_CURVE('',#1006,#1039,#1041,.T.);
#1039 = VERTEX_POINT('',#1040);
#1040 = CARTESIAN_POINT('',(21.999108280255,1.606303731308,
    6.167565870654));
#1041 = LINE('',#1042,#1043);
#1042 = CARTESIAN_POINT('',(22.870445859873,1.563344258529,6.04953568924
    ));
#1043 = VECTOR('',#1044,1.);
#1044 = DIRECTION('',(-0.989769265001,4.879849875915E-02,0.134072773444)
  );
#1045 = ORIENTED_EDGE('',*,*,#1046,.F.);
#1046 = EDGE_CURVE('',#1047,#1039,#1049,.T.);
#1047 = VERTEX_POINT('',#1048);
#1048 = CARTESIAN_POINT('',(21.999108280255,2.358057827937,
    5.893949755993));
#1049 = LINE('',#1050,#1051);
#1050 = CARTESIAN_POINT('',(21.999108280255,2.358057827937,
    5.893949755993));
#1051 = VECTOR('',#1052,1.);
#1052 = DIRECTION('',(0.,-0.939692620786,0.342020143326));
#1053 = ORIENTED_EDGE('',*,*,#1054,.F.);
#1054 = EDGE_CURVE('',#1014,#1047,#1055,.T.);
#1055 = LINE('',#1056,#1057);
#1056 = CARTESIAN_POINT('',(22.870445859873,2.315098355158,5.77591957458
    ));
#1057 = VECTOR('',#1058,1.);
#1058 = DIRECTION('',(-0.989769265001,4.879849875915E-02,0.134072773444)
  );
#1059 = PLANE('',#1060);
#1060 = AXIS2_PLACEMENT_3D('',#1061,#1062,#1063);
#1061 = CARTESIAN_POINT('',(22.870445859873,2.315098355158,5.77591957458
    ));
#1062 = DIRECTION('',(-0.142677265393,-0.338521025875,-0.930078874602));
#1063 = DIRECTION('',(-0.989769265001,4.879849875915E-02,0.134072773444)
  );
#1064 = ADVANCED_FACE('',(#1065),#1090,.T.);
#1065 = FACE_BOUND('',#1066,.T.);
#1066 = EDGE_LOOP('',(#1067,#1068,#1076,#1084));
#1067 = ORIENTED_EDGE('',*,*,#1046,.T.);
#1068 = ORIENTED_EDGE('',*,*,#1069,.T.);
#1069 = EDGE_CURVE('',#1039,#1070,#1072,.T.);
#1070 = VERTEX_POINT('',#1071);
#1071 = CARTESIAN_POINT('',(22.549426751592,2.60622249428,8.914820093206
    ));
#1072 = LINE('',#1073,#1074);
#1073 = CARTESIAN_POINT('',(21.999108280255,1.606303731308,
    6.167565870654));
#1074 = VECTOR('',#1075,1.);
#1075 = DIRECTION('',(0.184986551027,0.336117235571,0.92347451502));
#1076 = ORIENTED_EDGE('',*,*,#1077,.F.);
#1077 = EDGE_CURVE('',#1078,#1070,#1080,.T.);
#1078 = VERTEX_POINT('',#1079);
#1079 = CARTESIAN_POINT('',(22.549426751592,3.357976590908,
    8.641203978545));
#1080 = LINE('',#1081,#1082);
#1081 = CARTESIAN_POINT('',(22.549426751592,3.357976590908,
    8.641203978545));
#1082 = VECTOR('',#1083,1.);
#1083 = DIRECTION('',(0.,-0.939692620786,0.342020143326));
#1084 = ORIENTED_EDGE('',*,*,#1085,.F.);
#1085 = EDGE_CURVE('',#1047,#1078,#1086,.T.);
#1086 = LINE('',#1087,#1088);
#1087 = CARTESIAN_POINT('',(21.999108280255,2.358057827937,
    5.893949755993));
#1088 = VECTOR('',#1089,1.);
#1089 = DIRECTION('',(0.184986551027,0.336117235571,0.92347451502));
#1090 = PLANE('',#1091);
#1091 = AXIS2_PLACEMENT_3D('',#1092,#1093,#1094);
#1092 = CARTESIAN_POINT('',(21.999108280255,2.358057827937,
    5.893949755993));
#1093 = DIRECTION('',(-0.982741052332,6.326912669566E-02,0.173830496945)
  );
#1094 = DIRECTION('',(0.184986551027,0.336117235571,0.92347451502));
#1095 = ADVANCED_FACE('',(#1096),#1121,.T.);
#1096 = FACE_BOUND('',#1097,.T.);
#1097 = EDGE_LOOP('',(#1098,#1099,#1107,#1115));
#1098 = ORIENTED_EDGE('',*,*,#1077,.T.);
#1099 = ORIENTED_EDGE('',*,*,#1100,.T.);
#1100 = EDGE_CURVE('',#1070,#1101,#1103,.T.);
#1101 = VERTEX_POINT('',#1102);
#1102 = CARTESIAN_POINT('',(25.388917197452,2.60622249428,8.914820093206
    ));
#1103 = LINE('',#1104,#1105);
#1104 = CARTESIAN_POINT('',(22.549426751592,2.60622249428,8.914820093206
    ));
#1105 = VECTOR('',#1106,1.);
#1106 = DIRECTION('',(1.,0.,0.));
#1107 = ORIENTED_EDGE('',*,*,#1108,.F.);
#1108 = EDGE_CURVE('',#1109,#1101,#1111,.T.);
#1109 = VERTEX_POINT('',#1110);
#1110 = CARTESIAN_POINT('',(25.388917197452,3.357976590908,
    8.641203978545));
#1111 = LINE('',#1112,#1113);
#1112 = CARTESIAN_POINT('',(25.388917197452,3.357976590908,
    8.641203978545));
#1113 = VECTOR('',#1114,1.);
#1114 = DIRECTION('',(0.,-0.939692620786,0.342020143326));
#1115 = ORIENTED_EDGE('',*,*,#1116,.F.);
#1116 = EDGE_CURVE('',#1078,#1109,#1117,.T.);
#1117 = LINE('',#1118,#1119);
#1118 = CARTESIAN_POINT('',(22.549426751592,3.357976590908,
    8.641203978545));
#1119 = VECTOR('',#1120,1.);
#1120 = DIRECTION('',(1.,0.,0.));
#1121 = PLANE('',#1122);
#1122 = AXIS2_PLACEMENT_3D('',#1123,#1124,#1125);
#1123 = CARTESIAN_POINT('',(22.549426751592,3.357976590908,
    8.641203978545));
#1124 = DIRECTION('',(0.,0.342020143326,0.939692620786));
#1125 = DIRECTION('',(1.,0.,0.));
#1126 = ADVANCED_FACE('',(#1127),#1152,.T.);
#1127 = FACE_BOUND('',#1128,.T.);
#1128 = EDGE_LOOP('',(#1129,#1130,#1138,#1146));
#1129 = ORIENTED_EDGE('',*,*,#1108,.T.);
#1130 = ORIENTED_EDGE('',*,*,#1131,.T.);
#1131 = EDGE_CURVE('',#1101,#1132,#1134,.T.);
#1132 = VERTEX_POINT('',#1133);
#1133 = CARTESIAN_POINT('',(25.388917197452,2.260455378683,
    7.964832750715));
#1134 = LINE('',#1135,#1136);
#1135 = CARTESIAN_POINT('',(25.388917197452,2.60622249428,8.914820093206
    ));
#1136 = VECTOR('',#1137,1.);
#1137 = DIRECTION('',(0.,-0.342020143326,-0.939692620786));
#1138 = ORIENTED_EDGE('',*,*,#1139,.F.);
#1139 = EDGE_CURVE('',#1140,#1132,#1142,.T.);
#1140 = VERTEX_POINT('',#1141);
#1141 = CARTESIAN_POINT('',(25.388917197452,3.012209475312,
    7.691216636054));
#1142 = LINE('',#1143,#1144);
#1143 = CARTESIAN_POINT('',(25.388917197452,3.012209475312,
    7.691216636054));
#1144 = VECTOR('',#1145,1.);
#1145 = DIRECTION('',(0.,-0.939692620786,0.342020143326));
#1146 = ORIENTED_EDGE('',*,*,#1147,.F.);
#1147 = EDGE_CURVE('',#1109,#1140,#1148,.T.);
#1148 = LINE('',#1149,#1150);
#1149 = CARTESIAN_POINT('',(25.388917197452,3.357976590908,
    8.641203978545));
#1150 = VECTOR('',#1151,1.);
#1151 = DIRECTION('',(0.,-0.342020143326,-0.939692620786));
#1152 = PLANE('',#1153);
#1153 = AXIS2_PLACEMENT_3D('',#1154,#1155,#1156);
#1154 = CARTESIAN_POINT('',(25.388917197452,3.357976590908,
    8.641203978545));
#1155 = DIRECTION('',(1.,0.,0.));
#1156 = DIRECTION('',(0.,-0.342020143326,-0.939692620786));
#1157 = ADVANCED_FACE('',(#1158),#1183,.T.);
#1158 = FACE_BOUND('',#1159,.T.);
#1159 = EDGE_LOOP('',(#1160,#1161,#1169,#1177));
#1160 = ORIENTED_EDGE('',*,*,#1139,.T.);
#1161 = ORIENTED_EDGE('',*,*,#1162,.T.);
#1162 = EDGE_CURVE('',#1132,#1163,#1165,.T.);
#1163 = VERTEX_POINT('',#1164);
#1164 = CARTESIAN_POINT('',(23.363439490446,2.260455378683,
    7.964832750715));
#1165 = LINE('',#1166,#1167);
#1166 = CARTESIAN_POINT('',(25.388917197452,2.260455378683,
    7.964832750715));
#1167 = VECTOR('',#1168,1.);
#1168 = DIRECTION('',(-1.,0.,0.));
#1169 = ORIENTED_EDGE('',*,*,#1170,.F.);
#1170 = EDGE_CURVE('',#1171,#1163,#1173,.T.);
#1171 = VERTEX_POINT('',#1172);
#1172 = CARTESIAN_POINT('',(23.363439490446,3.012209475312,
    7.691216636054));
#1173 = LINE('',#1174,#1175);
#1174 = CARTESIAN_POINT('',(23.363439490446,3.012209475312,
    7.691216636054));
#1175 = VECTOR('',#1176,1.);
#1176 = DIRECTION('',(0.,-0.939692620786,0.342020143326));
#1177 = ORIENTED_EDGE('',*,*,#1178,.F.);
#1178 = EDGE_CURVE('',#1140,#1171,#1179,.T.);
#1179 = LINE('',#1180,#1181);
#1180 = CARTESIAN_POINT('',(25.388917197452,3.012209475312,
    7.691216636054));
#1181 = VECTOR('',#1182,1.);
#1182 = DIRECTION('',(-1.,0.,0.));
#1183 = PLANE('',#1184);
#1184 = AXIS2_PLACEMENT_3D('',#1185,#1186,#1187);
#1185 = CARTESIAN_POINT('',(25.388917197452,3.012209475312,
    7.691216636054));
#1186 = DIRECTION('',(0.,-0.342020143326,-0.939692620786));
#1187 = DIRECTION('',(-1.,0.,0.));
#1188 = ADVANCED_FACE('',(#1189),#1214,.T.);
#1189 = FACE_BOUND('',#1190,.T.);
#1190 = EDGE_LOOP('',(#1191,#1192,#1200,#1208));
#1191 = ORIENTED_EDGE('',*,*,#1170,.T.);
#1192 = ORIENTED_EDGE('',*,*,#1193,.T.);
#1193 = EDGE_CURVE('',#1163,#1194,#1196,.T.);
#1194 = VERTEX_POINT('',#1195);
#1195 = CARTESIAN_POINT('',(23.195286624204,1.936908680042,
    7.075895502058));
#1196 = LINE('',#1197,#1198);
#1197 = CARTESIAN_POINT('',(23.363439490446,2.260455378683,
    7.964832750715));
#1198 = VECTOR('',#1199,1.);
#1199 = DIRECTION('',(-0.175010486354,-0.336741599195,-0.925189939979));
#1200 = ORIENTED_EDGE('',*,*,#1201,.F.);
#1201 = EDGE_CURVE('',#1202,#1194,#1204,.T.);
#1202 = VERTEX_POINT('',#1203);
#1203 = CARTESIAN_POINT('',(23.195286624204,2.68866277667,6.802279387397
    ));
#1204 = LINE('',#1205,#1206);
#1205 = CARTESIAN_POINT('',(23.195286624204,2.68866277667,6.802279387397
    ));
#1206 = VECTOR('',#1207,1.);
#1207 = DIRECTION('',(0.,-0.939692620786,0.342020143326));
#1208 = ORIENTED_EDGE('',*,*,#1209,.F.);
#1209 = EDGE_CURVE('',#1171,#1202,#1210,.T.);
#1210 = LINE('',#1211,#1212);
#1211 = CARTESIAN_POINT('',(23.363439490446,3.012209475312,
    7.691216636054));
#1212 = VECTOR('',#1213,1.);
#1213 = DIRECTION('',(-0.175010486354,-0.336741599195,-0.925189939979));
#1214 = PLANE('',#1215);
#1215 = AXIS2_PLACEMENT_3D('',#1216,#1217,#1218);
#1216 = CARTESIAN_POINT('',(23.363439490446,3.012209475312,
    7.691216636054));
#1217 = DIRECTION('',(0.984566569444,-5.985711162633E-02,-0.164456062587
    ));
#1218 = DIRECTION('',(-0.175010486354,-0.336741599195,-0.925189939979));
#1219 = ADVANCED_FACE('',(#1220),#1245,.T.);
#1220 = FACE_BOUND('',#1221,.T.);
#1221 = EDGE_LOOP('',(#1222,#1223,#1231,#1239));
#1222 = ORIENTED_EDGE('',*,*,#1201,.T.);
#1223 = ORIENTED_EDGE('',*,*,#1224,.T.);
#1224 = EDGE_CURVE('',#1194,#1225,#1227,.T.);
#1225 = VERTEX_POINT('',#1226);
#1226 = CARTESIAN_POINT('',(23.929044585987,1.998341597505,7.2446810556)
  );
#1227 = B_SPLINE_CURVE_WITH_KNOTS('',2,(#1228,#1229,#1230),
  .UNSPECIFIED.,.F.,.F.,(3,3),(0.,1.),.PIECEWISE_BEZIER_KNOTS.);
#1228 = CARTESIAN_POINT('',(23.195286624204,1.936908680042,
    7.075895502058));
#1229 = CARTESIAN_POINT('',(23.554522292994,1.998341597505,7.2446810556)
  );
#1230 = CARTESIAN_POINT('',(23.929044585987,1.998341597505,7.2446810556)
  );
#1231 = ORIENTED_EDGE('',*,*,#1232,.F.);
#1232 = EDGE_CURVE('',#1233,#1225,#1235,.T.);
#1233 = VERTEX_POINT('',#1234);
#1234 = CARTESIAN_POINT('',(23.929044585987,2.750095694134,6.97106494094
    ));
#1235 = LINE('',#1236,#1237);
#1236 = CARTESIAN_POINT('',(23.929044585987,2.750095694134,6.97106494094
    ));
#1237 = VECTOR('',#1238,1.);
#1238 = DIRECTION('',(0.,-0.939692620786,0.342020143326));
#1239 = ORIENTED_EDGE('',*,*,#1240,.F.);
#1240 = EDGE_CURVE('',#1202,#1233,#1241,.T.);
#1241 = B_SPLINE_CURVE_WITH_KNOTS('',2,(#1242,#1243,#1244),
  .UNSPECIFIED.,.F.,.F.,(3,3),(0.,1.),.PIECEWISE_BEZIER_KNOTS.);
#1242 = CARTESIAN_POINT('',(23.195286624204,2.68866277667,6.802279387397
    ));
#1243 = CARTESIAN_POINT('',(23.554522292994,2.750095694134,6.97106494094
    ));
#1244 = CARTESIAN_POINT('',(23.929044585987,2.750095694134,6.97106494094
    ));
#1245 = SURFACE_OF_LINEAR_EXTRUSION('',#1246,#1250);
#1246 = B_SPLINE_CURVE_WITH_KNOTS('',2,(#1247,#1248,#1249),
  .UNSPECIFIED.,.F.,.F.,(3,3),(0.,1.),.PIECEWISE_BEZIER_KNOTS.);
#1247 = CARTESIAN_POINT('',(23.195286624204,2.68866277667,6.802279387397
    ));
#1248 = CARTESIAN_POINT('',(23.554522292994,2.750095694134,6.97106494094
    ));
#1249 = CARTESIAN_POINT('',(23.929044585987,2.750095694134,6.97106494094
    ));
#1250 = VECTOR('',#1251,1.);
#1251 = DIRECTION('',(-0.,0.939692620786,-0.342020143326));
#1252 = ADVANCED_FACE('',(#1253),#1278,.T.);
#1253 = FACE_BOUND('',#1254,.T.);
#1254 = EDGE_LOOP('',(#1255,#1256,#1264,#1272));
#1255 = ORIENTED_EDGE('',*,*,#1232,.T.);
#1256 = ORIENTED_EDGE('',*,*,#1257,.T.);
#1257 = EDGE_CURVE('',#1225,#1258,#1260,.T.);
#1258 = VERTEX_POINT('',#1259);
#1259 = CARTESIAN_POINT('',(25.14050955414,1.819619734076,6.753646771465
    ));
#1260 = B_SPLINE_CURVE_WITH_KNOTS('',2,(#1261,#1262,#1263),
  .UNSPECIFIED.,.F.,.F.,(3,3),(0.,1.),.PIECEWISE_BEZIER_KNOTS.);
#1261 = CARTESIAN_POINT('',(23.929044585987,1.998341597505,7.2446810556)
  );
#1262 = CARTESIAN_POINT('',(24.643694267516,1.998341597505,7.2446810556)
  );
#1263 = CARTESIAN_POINT('',(25.14050955414,1.819619734076,6.753646771465
    ));
#1264 = ORIENTED_EDGE('',*,*,#1265,.F.);
#1265 = EDGE_CURVE('',#1266,#1258,#1268,.T.);
#1266 = VERTEX_POINT('',#1267);
#1267 = CARTESIAN_POINT('',(25.14050955414,2.571373830704,6.480030656804
    ));
#1268 = LINE('',#1269,#1270);
#1269 = CARTESIAN_POINT('',(25.14050955414,2.571373830704,6.480030656804
    ));
#1270 = VECTOR('',#1271,1.);
#1271 = DIRECTION('',(0.,-0.939692620786,0.342020143326));
#1272 = ORIENTED_EDGE('',*,*,#1273,.F.);
#1273 = EDGE_CURVE('',#1233,#1266,#1274,.T.);
#1274 = B_SPLINE_CURVE_WITH_KNOTS('',2,(#1275,#1276,#1277),
  .UNSPECIFIED.,.F.,.F.,(3,3),(0.,1.),.PIECEWISE_BEZIER_KNOTS.);
#1275 = CARTESIAN_POINT('',(23.929044585987,2.750095694134,6.97106494094
    ));
#1276 = CARTESIAN_POINT('',(24.643694267516,2.750095694134,6.97106494094
    ));
#1277 = CARTESIAN_POINT('',(25.14050955414,2.571373830704,6.480030656804
    ));
#1278 = SURFACE_OF_LINEAR_EXTRUSION('',#1279,#1283);
#1279 = B_SPLINE_CURVE_WITH_KNOTS('',2,(#1280,#1281,#1282),
  .UNSPECIFIED.,.F.,.F.,(3,3),(0.,1.),.PIECEWISE_BEZIER_KNOTS.);
#1280 = CARTESIAN_POINT('',(23.929044585987,2.750095694134,6.97106494094
    ));
#1281 = CARTESIAN_POINT('',(24.643694267516,2.750095694134,6.97106494094
    ));
#1282 = CARTESIAN_POINT('',(25.14050955414,2.571373830704,6.480030656804
    ));
#1283 = VECTOR('',#1284,1.);
#1284 = DIRECTION('',(-0.,0.939692620786,-0.342020143326));
#1285 = ADVANCED_FACE('',(#1286),#1311,.T.);
#1286 = FACE_BOUND('',#1287,.T.);
#1287 = EDGE_LOOP('',(#1288,#1289,#1297,#1305));
#1288 = ORIENTED_EDGE('',*,*,#1265,.T.);
#1289 = ORIENTED_EDGE('',*,*,#1290,.T.);
#1290 = EDGE_CURVE('',#1258,#1291,#1293,.T.);
#1291 = VERTEX_POINT('',#1292);
#1292 = CARTESIAN_POINT('',(25.637324840764,1.355866561393,
    5.479495401319));
#1293 = B_SPLINE_CURVE_WITH_KNOTS('',2,(#1294,#1295,#1296),
  .UNSPECIFIED.,.F.,.F.,(3,3),(0.,1.),.PIECEWISE_BEZIER_KNOTS.);
#1294 = CARTESIAN_POINT('',(25.14050955414,1.819619734076,6.753646771465
    ));
#1295 = CARTESIAN_POINT('',(25.637324840764,1.640985009536,
    6.262851899462));
#1296 = CARTESIAN_POINT('',(25.637324840764,1.355866561393,
    5.479495401319));
#1297 = ORIENTED_EDGE('',*,*,#1298,.F.);
#1298 = EDGE_CURVE('',#1299,#1291,#1301,.T.);
#1299 = VERTEX_POINT('',#1300);
#1300 = CARTESIAN_POINT('',(25.637324840764,2.107620658022,
    5.205879286658));
#1301 = LINE('',#1302,#1303);
#1302 = CARTESIAN_POINT('',(25.637324840764,2.107620658022,
    5.205879286658));
#1303 = VECTOR('',#1304,1.);
#1304 = DIRECTION('',(0.,-0.939692620786,0.342020143326));
#1305 = ORIENTED_EDGE('',*,*,#1306,.F.);
#1306 = EDGE_CURVE('',#1266,#1299,#1307,.T.);
#1307 = B_SPLINE_CURVE_WITH_KNOTS('',2,(#1308,#1309,#1310),
  .UNSPECIFIED.,.F.,.F.,(3,3),(0.,1.),.PIECEWISE_BEZIER_KNOTS.);
#1308 = CARTESIAN_POINT('',(25.14050955414,2.571373830704,6.480030656804
    ));
#1309 = CARTESIAN_POINT('',(25.637324840764,2.392739106165,
    5.989235784801));
#1310 = CARTESIAN_POINT('',(25.637324840764,2.107620658022,
    5.205879286658));
#1311 = SURFACE_OF_LINEAR_EXTRUSION('',#1312,#1316);
#1312 = B_SPLINE_CURVE_WITH_KNOTS('',2,(#1313,#1314,#1315),
  .UNSPECIFIED.,.F.,.F.,(3,3),(0.,1.),.PIECEWISE_BEZIER_KNOTS.);
#1313 = CARTESIAN_POINT('',(25.14050955414,2.571373830704,6.480030656804
    ));
#1314 = CARTESIAN_POINT('',(25.637324840764,2.392739106165,
    5.989235784801));
#1315 = CARTESIAN_POINT('',(25.637324840764,2.107620658022,
    5.205879286658));
#1316 = VECTOR('',#1317,1.);
#1317 = DIRECTION('',(-0.,0.939692620786,-0.342020143326));
#1318 = ADVANCED_FACE('',(#1319),#1344,.T.);
#1319 = FACE_BOUND('',#1320,.T.);
#1320 = EDGE_LOOP('',(#1321,#1322,#1330,#1338));
#1321 = ORIENTED_EDGE('',*,*,#1298,.T.);
#1322 = ORIENTED_EDGE('',*,*,#1323,.T.);
#1323 = EDGE_CURVE('',#1291,#1324,#1326,.T.);
#1324 = VERTEX_POINT('',#1325);
#1325 = CARTESIAN_POINT('',(25.236050955414,0.931500166999,
    4.313558315146));
#1326 = B_SPLINE_CURVE_WITH_KNOTS('',2,(#1327,#1328,#1329),
  .UNSPECIFIED.,.F.,.F.,(3,3),(0.,1.),.PIECEWISE_BEZIER_KNOTS.);
#1327 = CARTESIAN_POINT('',(25.637324840764,1.355866561393,
    5.479495401319));
#1328 = CARTESIAN_POINT('',(25.637324840764,1.11806453053,4.826139691223
    ));
#1329 = CARTESIAN_POINT('',(25.236050955414,0.931500166999,
    4.313558315146));
#1330 = ORIENTED_EDGE('',*,*,#1331,.F.);
#1331 = EDGE_CURVE('',#1332,#1324,#1334,.T.);
#1332 = VERTEX_POINT('',#1333);
#1333 = CARTESIAN_POINT('',(25.236050955414,1.683254263628,
    4.039942200486));
#1334 = LINE('',#1335,#1336);
#1335 = CARTESIAN_POINT('',(25.236050955414,1.683254263628,
    4.039942200486));
#1336 = VECTOR('',#1337,1.);
#1337 = DIRECTION('',(0.,-0.939692620786,0.342020143326));
#1338 = ORIENTED_EDGE('',*,*,#1339,.F.);
#1339 = EDGE_CURVE('',#1299,#1332,#1340,.T.);
#1340 = B_SPLINE_CURVE_WITH_KNOTS('',2,(#1341,#1342,#1343),
  .UNSPECIFIED.,.F.,.F.,(3,3),(0.,1.),.PIECEWISE_BEZIER_KNOTS.);
#1341 = CARTESIAN_POINT('',(25.637324840764,2.107620658022,
    5.205879286658));
#1342 = CARTESIAN_POINT('',(25.637324840764,1.869818627159,
    4.552523576563));
#1343 = CARTESIAN_POINT('',(25.236050955414,1.683254263628,
    4.039942200486));
#1344 = SURFACE_OF_LINEAR_EXTRUSION('',#1345,#1349);
#1345 = B_SPLINE_CURVE_WITH_KNOTS('',2,(#1346,#1347,#1348),
  .UNSPECIFIED.,.F.,.F.,(3,3),(0.,1.),.PIECEWISE_BEZIER_KNOTS.);
#1346 = CARTESIAN_POINT('',(25.637324840764,2.107620658022,
    5.205879286658));
#1347 = CARTESIAN_POINT('',(25.637324840764,1.869818627159,
    4.552523576563));
#1348 = CARTESIAN_POINT('',(25.236050955414,1.683254263628,
    4.039942200486));
#1349 = VECTOR('',#1350,1.);
#1350 = DIRECTION('',(-0.,0.939692620786,-0.342020143326));
#1351 = ADVANCED_FACE('',(#1352),#1377,.T.);
#1352 = FACE_BOUND('',#1353,.T.);
#1353 = EDGE_LOOP('',(#1354,#1355,#1363,#1371));
#1354 = ORIENTED_EDGE('',*,*,#1331,.T.);
#1355 = ORIENTED_EDGE('',*,*,#1356,.T.);
#1356 = EDGE_CURVE('',#1324,#1357,#1359,.T.);
#1357 = VERTEX_POINT('',#1358);
#1358 = CARTESIAN_POINT('',(23.718853503185,0.676618913693,
    3.613277827045));
#1359 = B_SPLINE_CURVE_WITH_KNOTS('',2,(#1360,#1361,#1362),
  .UNSPECIFIED.,.F.,.F.,(3,3),(0.,1.),.PIECEWISE_BEZIER_KNOTS.);
#1360 = CARTESIAN_POINT('',(25.236050955414,0.931500166999,
    4.313558315146));
#1361 = CARTESIAN_POINT('',(24.689554140127,0.676618913693,
    3.613277827045));
#1362 = CARTESIAN_POINT('',(23.718853503185,0.676618913693,
    3.613277827045));
#1363 = ORIENTED_EDGE('',*,*,#1364,.F.);
#1364 = EDGE_CURVE('',#1365,#1357,#1367,.T.);
#1365 = VERTEX_POINT('',#1366);
#1366 = CARTESIAN_POINT('',(23.718853503185,1.428373010321,
    3.339661712384));
#1367 = LINE('',#1368,#1369);
#1368 = CARTESIAN_POINT('',(23.718853503185,1.428373010321,
    3.339661712384));
#1369 = VECTOR('',#1370,1.);
#1370 = DIRECTION('',(0.,-0.939692620786,0.342020143326));
#1371 = ORIENTED_EDGE('',*,*,#1372,.F.);
#1372 = EDGE_CURVE('',#1332,#1365,#1373,.T.);
#1373 = B_SPLINE_CURVE_WITH_KNOTS('',2,(#1374,#1375,#1376),
  .UNSPECIFIED.,.F.,.F.,(3,3),(0.,1.),.PIECEWISE_BEZIER_KNOTS.);
#1374 = CARTESIAN_POINT('',(25.236050955414,1.683254263628,
    4.039942200486));
#1375 = CARTESIAN_POINT('',(24.689554140127,1.428373010321,
    3.339661712384));
#1376 = CARTESIAN_POINT('',(23.718853503185,1.428373010321,
    3.339661712384));
#1377 = SURFACE_OF_LINEAR_EXTRUSION('',#1378,#1382);
#1378 = B_SPLINE_CURVE_WITH_KNOTS('',2,(#1379,#1380,#1381),
  .UNSPECIFIED.,.F.,.F.,(3,3),(0.,1.),.PIECEWISE_BEZIER_KNOTS.);
#1379 = CARTESIAN_POINT('',(25.236050955414,1.683254263628,
    4.039942200486));
#1380 = CARTESIAN_POINT('',(24.689554140127,1.428373010321,
    3.339661712384));
#1381 = CARTESIAN_POINT('',(23.718853503185,1.428373010321,
    3.339661712384));
#1382 = VECTOR('',#1383,1.);
#1383 = DIRECTION('',(-0.,0.939692620786,-0.342020143326));
#1384 = ADVANCED_FACE('',(#1385),#1410,.T.);
#1385 = FACE_BOUND('',#1386,.T.);
#1386 = EDGE_LOOP('',(#1387,#1388,#1396,#1404));
#1387 = ORIENTED_EDGE('',*,*,#1364,.T.);
#1388 = ORIENTED_EDGE('',*,*,#1389,.T.);
#1389 = EDGE_CURVE('',#1357,#1390,#1392,.T.);
#1390 = VERTEX_POINT('',#1391);
#1391 = CARTESIAN_POINT('',(22.453885350318,0.819090998874,
    4.004716663983));
#1392 = B_SPLINE_CURVE_WITH_KNOTS('',2,(#1393,#1394,#1395),
  .UNSPECIFIED.,.F.,.F.,(3,3),(0.,1.),.PIECEWISE_BEZIER_KNOTS.);
#1393 = CARTESIAN_POINT('',(23.718853503185,0.676618913693,
    3.613277827045));
#1394 = CARTESIAN_POINT('',(22.943057324841,0.676618913693,
    3.613277827045));
#1395 = CARTESIAN_POINT('',(22.453885350318,0.819090998874,
    4.004716663983));
#1396 = ORIENTED_EDGE('',*,*,#1397,.F.);
#1397 = EDGE_CURVE('',#1398,#1390,#1400,.T.);
#1398 = VERTEX_POINT('',#1399);
#1399 = CARTESIAN_POINT('',(22.453885350318,1.570845095503,
    3.731100549323));
#1400 = LINE('',#1401,#1402);
#1401 = CARTESIAN_POINT('',(22.453885350318,1.570845095503,
    3.731100549323));
#1402 = VECTOR('',#1403,1.);
#1403 = DIRECTION('',(0.,-0.939692620786,0.342020143326));
#1404 = ORIENTED_EDGE('',*,*,#1405,.F.);
#1405 = EDGE_CURVE('',#1365,#1398,#1406,.T.);
#1406 = B_SPLINE_CURVE_WITH_KNOTS('',2,(#1407,#1408,#1409),
  .UNSPECIFIED.,.F.,.F.,(3,3),(0.,1.),.PIECEWISE_BEZIER_KNOTS.);
#1407 = CARTESIAN_POINT('',(23.718853503185,1.428373010321,
    3.339661712384));
#1408 = CARTESIAN_POINT('',(22.943057324841,1.428373010321,
    3.339661712384));
#1409 = CARTESIAN_POINT('',(22.453885350318,1.570845095503,
    3.731100549323));
#1410 = SURFACE_OF_LINEAR_EXTRUSION('',#1411,#1415);
#1411 = B_SPLINE_CURVE_WITH_KNOTS('',2,(#1412,#1413,#1414),
  .UNSPECIFIED.,.F.,.F.,(3,3),(0.,1.),.PIECEWISE_BEZIER_KNOTS.);
#1412 = CARTESIAN_POINT('',(23.718853503185,1.428373010321,
    3.339661712384));
#1413 = CARTESIAN_POINT('',(22.943057324841,1.428373010321,
    3.339661712384));
#1414 = CARTESIAN_POINT('',(22.453885350318,1.570845095503,
    3.731100549323));
#1415 = VECTOR('',#1416,1.);
#1416 = DIRECTION('',(-0.,0.939692620786,-0.342020143326));
#1417 = ADVANCED_FACE('',(#1418),#1434,.T.);
#1418 = FACE_BOUND('',#1419,.T.);
#1419 = EDGE_LOOP('',(#1420,#1421,#1427,#1428));
#1420 = ORIENTED_EDGE('',*,*,#1397,.T.);
#1421 = ORIENTED_EDGE('',*,*,#1422,.T.);
#1422 = EDGE_CURVE('',#1390,#769,#1423,.T.);
#1423 = B_SPLINE_CURVE_WITH_KNOTS('',2,(#1424,#1425,#1426),
  .UNSPECIFIED.,.F.,.F.,(3,3),(0.,1.),.PIECEWISE_BEZIER_KNOTS.);
#1424 = CARTESIAN_POINT('',(22.453885350318,0.819090998874,
    4.004716663983));
#1425 = CARTESIAN_POINT('',(21.964713375796,0.961650222946,
    4.396394913055));
#1426 = CARTESIAN_POINT('',(21.869171974522,1.202240698289,
    5.057411811396));
#1427 = ORIENTED_EDGE('',*,*,#766,.F.);
#1428 = ORIENTED_EDGE('',*,*,#1429,.F.);
#1429 = EDGE_CURVE('',#1398,#767,#1430,.T.);
#1430 = B_SPLINE_CURVE_WITH_KNOTS('',2,(#1431,#1432,#1433),
  .UNSPECIFIED.,.F.,.F.,(3,3),(0.,1.),.PIECEWISE_BEZIER_KNOTS.);
#1431 = CARTESIAN_POINT('',(22.453885350318,1.570845095503,
    3.731100549323));
#1432 = CARTESIAN_POINT('',(21.964713375796,1.713404319575,
    4.122778798394));
#1433 = CARTESIAN_POINT('',(21.869171974522,1.953994794918,
    4.783795696736));
#1434 = SURFACE_OF_LINEAR_EXTRUSION('',#1435,#1439);
#1435 = B_SPLINE_CURVE_WITH_KNOTS('',2,(#1436,#1437,#1438),
  .UNSPECIFIED.,.F.,.F.,(3,3),(0.,1.),.PIECEWISE_BEZIER_KNOTS.);
#1436 = CARTESIAN_POINT('',(22.453885350318,1.570845095503,
    3.731100549323));
#1437 = CARTESIAN_POINT('',(21.964713375796,1.713404319575,
    4.122778798394));
#1438 = CARTESIAN_POINT('',(21.869171974522,1.953994794918,
    4.783795696736));
#1439 = VECTOR('',#1440,1.);
#1440 = DIRECTION('',(-0.,0.939692620786,-0.342020143326));
#1441 = ADVANCED_FACE('',(#1442),#1465,.F.);
#1442 = FACE_BOUND('',#1443,.T.);
#1443 = EDGE_LOOP('',(#1444,#1445,#1446,#1447,#1448,#1449,#1450,#1451,
    #1452,#1453,#1454,#1455,#1456,#1457,#1458,#1459,#1460,#1461,#1462,
    #1463,#1464));
#1444 = ORIENTED_EDGE('',*,*,#792,.T.);
#1445 = ORIENTED_EDGE('',*,*,#823,.T.);
#1446 = ORIENTED_EDGE('',*,*,#856,.T.);
#1447 = ORIENTED_EDGE('',*,*,#889,.T.);
#1448 = ORIENTED_EDGE('',*,*,#922,.T.);
#1449 = ORIENTED_EDGE('',*,*,#955,.T.);
#1450 = ORIENTED_EDGE('',*,*,#988,.T.);
#1451 = ORIENTED_EDGE('',*,*,#1021,.T.);
#1452 = ORIENTED_EDGE('',*,*,#1054,.T.);
#1453 = ORIENTED_EDGE('',*,*,#1085,.T.);
#1454 = ORIENTED_EDGE('',*,*,#1116,.T.);
#1455 = ORIENTED_EDGE('',*,*,#1147,.T.);
#1456 = ORIENTED_EDGE('',*,*,#1178,.T.);
#1457 = ORIENTED_EDGE('',*,*,#1209,.T.);
#1458 = ORIENTED_EDGE('',*,*,#1240,.T.);
#1459 = ORIENTED_EDGE('',*,*,#1273,.T.);
#1460 = ORIENTED_EDGE('',*,*,#1306,.T.);
#1461 = ORIENTED_EDGE('',*,*,#1339,.T.);
#1462 = ORIENTED_EDGE('',*,*,#1372,.T.);
#1463 = ORIENTED_EDGE('',*,*,#1405,.T.);
#1464 = ORIENTED_EDGE('',*,*,#1429,.T.);
#1465 = PLANE('',#1466);
#1466 = AXIS2_PLACEMENT_3D('',#1467,#1468,#1469);
#1467 = CARTESIAN_POINT('',(23.774625207188,2.426112564577,
    6.080928608198));
#1468 = DIRECTION('',(0.,-0.939692620786,0.342020143326));
#1469 = DIRECTION('',(1.,0.,0.));
#1470 = ADVANCED_FACE('',(#1471),#1494,.T.);
#1471 = FACE_BOUND('',#1472,.F.);
#1472 = EDGE_LOOP('',(#1473,#1474,#1475,#1476,#1477,#1478,#1479,#1480,
    #1481,#1482,#1483,#1484,#1485,#1486,#1487,#1488,#1489,#1490,#1491,
    #1492,#1493));
#1473 = ORIENTED_EDGE('',*,*,#776,.T.);
#1474 = ORIENTED_EDGE('',*,*,#807,.T.);
#1475 = ORIENTED_EDGE('',*,*,#840,.T.);
#1476 = ORIENTED_EDGE('',*,*,#873,.T.);
#1477 = ORIENTED_EDGE('',*,*,#906,.T.);
#1478 = ORIENTED_EDGE('',*,*,#939,.T.);
#1479 = ORIENTED_EDGE('',*,*,#972,.T.);
#1480 = ORIENTED_EDGE('',*,*,#1005,.T.);
#1481 = ORIENTED_EDGE('',*,*,#1038,.T.);
#1482 = ORIENTED_EDGE('',*,*,#1069,.T.);
#1483 = ORIENTED_EDGE('',*,*,#1100,.T.);
#1484 = ORIENTED_EDGE('',*,*,#1131,.T.);
#1485 = ORIENTED_EDGE('',*,*,#1162,.T.);
#1486 = ORIENTED_EDGE('',*,*,#1193,.T.);
#1487 = ORIENTED_EDGE('',*,*,#1224,.T.);
#1488 = ORIENTED_EDGE('',*,*,#1257,.T.);
#1489 = ORIENTED_EDGE('',*,*,#1290,.T.);
#1490 = ORIENTED_EDGE('',*,*,#1323,.T.);
#1491 = ORIENTED_EDGE('',*,*,#1356,.T.);
#1492 = ORIENTED_EDGE('',*,*,#1389,.T.);
#1493 = ORIENTED_EDGE('',*,*,#1422,.T.);
#1494 = PLANE('',#1495);
#1495 = AXIS2_PLACEMENT_3D('',#1496,#1497,#1498);
#1496 = CARTESIAN_POINT('',(23.774625207188,1.674358467948,
    6.354544722858));
#1497 = DIRECTION('',(0.,-0.939692620786,0.342020143326));
#1498 = DIRECTION('',(1.,0.,0.));
#1499 = ( GEOMETRIC_REPRESENTATION_CONTEXT(3) 
GLOBAL_UNCERTAINTY_ASSIGNED_CONTEXT((#1503)) 
GLOBAL_UNIT_ASSIGNED_CONTEXT((#1500,#1501,#1502)) REPRESENTATION_CONTEXT
('Context #1','3D Context with UNIT and UNCERTAINTY') );
#1500 = ( LENGTH_UNIT() NAMED_UNIT(*) SI_UNIT(.MILLI.,.METRE.) );
#1501 = ( NAMED_UNIT(*) PLANE_ANGLE_UNIT() SI_UNIT($,.RADIAN.) );
#1502 = ( NAMED_UNIT(*) SI_UNIT($,.STERADIAN.) SOLID_ANGLE_UNIT() );
#1503 = UNCERTAINTY_MEASURE_WITH_UNIT(LENGTH_MEASURE(1.E-07),#1500,
  'distance_accuracy_value','confusion accuracy');
#1504 = PRODUCT_RELATED_PRODUCT_CATEGORY('part',$,(#7));
ENDSEC;
END-ISO-10303-21;
