ISO-10303-21;
HEADER;
FILE_DESCRIPTION(('FreeCAD Model'),'2;1');
FILE_NAME('Open CASCADE Shape Model','2026-08-30T15:43:47',('FreeCAD'),(
    'FreeCAD'),'Open CASCADE STEP processor 7.8','FreeCAD','Unknown');
FILE_SCHEMA(('AUTOMOTIVE_DESIGN { 1 0 10303 214 1 1 1 1 }'));
ENDSEC;
DATA;
#1 = APPLICATION_PROTOCOL_DEFINITION('international standard',
  'automotive_design',2000,#2);
#2 = APPLICATION_CONTEXT(
  'core data for automotive mechanical design processes');
#3 = SHAPE_DEFINITION_REPRESENTATION(#4,#10);
#4 = PRODUCT_DEFINITION_SHAPE('','',#5);
#5 = PRODUCT_DEFINITION('design','',#6,#9);
#6 = PRODUCT_DEFINITION_FORMATION('','',#7);
#7 = PRODUCT('Open CASCADE STEP translator 7.8 31',
  'Open CASCADE STEP translator 7.8 31','',(#8));
#8 = PRODUCT_CONTEXT('',#2,'mechanical');
#9 = PRODUCT_DEFINITION_CONTEXT('part definition',#2,'design');
#10 = ADVANCED_BREP_SHAPE_REPRESENTATION('',(#11,#15),#1388);
#11 = AXIS2_PLACEMENT_3D('',#12,#13,#14);
#12 = CARTESIAN_POINT('',(0.,0.,0.));
#13 = DIRECTION('',(0.,0.,1.));
#14 = DIRECTION('',(1.,0.,-0.));
#15 = MANIFOLD_SOLID_BREP('',#16);
#16 = CLOSED_SHELL('',(#17,#57,#222,#246,#334,#468,#485,#502,#519,#536,
    #553,#570,#587,#619,#643,#667,#692,#717,#741,#765,#783,#800,#831,
    #855,#881,#907,#931,#957,#983,#1009,#1033,#1050,#1081,#1105,#1129,
    #1161,#1185,#1209,#1234,#1259,#1283,#1307,#1325,#1342,#1360,#1372));
#17 = ADVANCED_FACE('',(#18),#52,.F.);
#18 = FACE_BOUND('',#19,.F.);
#19 = EDGE_LOOP('',(#20,#30,#38,#46));
#20 = ORIENTED_EDGE('',*,*,#21,.F.);
#21 = EDGE_CURVE('',#22,#24,#26,.T.);
#22 = VERTEX_POINT('',#23);
#23 = CARTESIAN_POINT('',(0.,3.639702342662,10.));
#24 = VERTEX_POINT('',#25);
#25 = CARTESIAN_POINT('',(0.,13.75,10.));
#26 = LINE('',#27,#28);
#27 = CARTESIAN_POINT('',(0.,0.,10.));
#28 = VECTOR('',#29,1.);
#29 = DIRECTION('',(0.,1.,0.));
#30 = ORIENTED_EDGE('',*,*,#31,.T.);
#31 = EDGE_CURVE('',#22,#32,#34,.T.);
#32 = VERTEX_POINT('',#33);
#33 = CARTESIAN_POINT('',(0.,0.,0.));
#34 = LINE('',#35,#36);
#35 = CARTESIAN_POINT('',(0.,0.,0.));
#36 = VECTOR('',#37,1.);
#37 = DIRECTION('',(0.,-0.342020143326,-0.939692620786));
#38 = ORIENTED_EDGE('',*,*,#39,.T.);
#39 = EDGE_CURVE('',#32,#40,#42,.T.);
#40 = VERTEX_POINT('',#41);
#41 = CARTESIAN_POINT('',(0.,13.75,0.));
#42 = LINE('',#43,#44);
#43 = CARTESIAN_POINT('',(0.,0.,0.));
#44 = VECTOR('',#45,1.);
#45 = DIRECTION('',(0.,1.,0.));
#46 = ORIENTED_EDGE('',*,*,#47,.T.);
#47 = EDGE_CURVE('',#40,#24,#48,.T.);
#48 = LINE('',#49,#50);
#49 = CARTESIAN_POINT('',(0.,13.75,-1.));
#50 = VECTOR('',#51,1.);
#51 = DIRECTION('',(0.,0.,1.));
#52 = PLANE('',#53);
#53 = AXIS2_PLACEMENT_3D('',#54,#55,#56);
#54 = CARTESIAN_POINT('',(0.,0.,0.));
#55 = DIRECTION('',(1.,0.,0.));
#56 = DIRECTION('',(0.,0.,1.));
#57 = ADVANCED_FACE('',(#58,#147),#217,.T.);
#58 = FACE_BOUND('',#59,.T.);
#59 = EDGE_LOOP('',(#60,#61,#69,#77,#85,#93,#101,#109,#117,#125,#133,
    #141));
#60 = ORIENTED_EDGE('',*,*,#21,.F.);
#61 = ORIENTED_EDGE('',*,*,#62,.T.);
#62 = EDGE_CURVE('',#22,#63,#65,.T.);
#63 = VERTEX_POINT('',#64);
#64 = CARTESIAN_POINT('',(43.,3.639702342662,10.));
#65 = LINE('',#66,#67);
#66 = CARTESIAN_POINT('',(-1.,3.639702342662,10.));
#67 = VECTOR('',#68,1.);
#68 = DIRECTION('',(1.,0.,0.));
#69 = ORIENTED_EDGE('',*,*,#70,.T.);
#70 = EDGE_CURVE('',#63,#71,#73,.T.);
#71 = VERTEX_POINT('',#72);
#72 = CARTESIAN_POINT('',(43.,13.875609756098,10.));
#73 = LINE('',#74,#75);
#74 = CARTESIAN_POINT('',(43.,0.,10.));
#75 = VECTOR('',#76,1.);
#76 = DIRECTION('',(0.,1.,0.));
#77 = ORIENTED_EDGE('',*,*,#78,.F.);
#78 = EDGE_CURVE('',#79,#71,#81,.T.);
#79 = VERTEX_POINT('',#80);
#80 = CARTESIAN_POINT('',(42.9,13.9,10.));
#81 = LINE('',#82,#83);
#82 = CARTESIAN_POINT('',(42.9,13.9,10.));
#83 = VECTOR('',#84,1.);
#84 = DIRECTION('',(0.971520338783,-0.236956180191,0.));
#85 = ORIENTED_EDGE('',*,*,#86,.F.);
#86 = EDGE_CURVE('',#87,#79,#89,.T.);
#87 = VERTEX_POINT('',#88);
#88 = CARTESIAN_POINT('',(42.9,17.9,10.));
#89 = LINE('',#90,#91);
#90 = CARTESIAN_POINT('',(42.9,17.9,10.));
#91 = VECTOR('',#92,1.);
#92 = DIRECTION('',(0.,-1.,0.));
#93 = ORIENTED_EDGE('',*,*,#94,.F.);
#94 = EDGE_CURVE('',#95,#87,#97,.T.);
#95 = VERTEX_POINT('',#96);
#96 = CARTESIAN_POINT('',(43.,17.924390243902,10.));
#97 = LINE('',#98,#99);
#98 = CARTESIAN_POINT('',(47.,18.9,10.));
#99 = VECTOR('',#100,1.);
#100 = DIRECTION('',(-0.971520338783,-0.236956180191,0.));
#101 = ORIENTED_EDGE('',*,*,#102,.T.);
#102 = EDGE_CURVE('',#95,#103,#105,.T.);
#103 = VERTEX_POINT('',#104);
#104 = CARTESIAN_POINT('',(43.,53.,10.));
#105 = LINE('',#106,#107);
#106 = CARTESIAN_POINT('',(43.,0.,10.));
#107 = VECTOR('',#108,1.);
#108 = DIRECTION('',(0.,1.,0.));
#109 = ORIENTED_EDGE('',*,*,#110,.F.);
#110 = EDGE_CURVE('',#111,#103,#113,.T.);
#111 = VERTEX_POINT('',#112);
#112 = CARTESIAN_POINT('',(0.,53.,10.));
#113 = LINE('',#114,#115);
#114 = CARTESIAN_POINT('',(0.,53.,10.));
#115 = VECTOR('',#116,1.);
#116 = DIRECTION('',(1.,0.,0.));
#117 = ORIENTED_EDGE('',*,*,#118,.F.);
#118 = EDGE_CURVE('',#119,#111,#121,.T.);
#119 = VERTEX_POINT('',#120);
#120 = CARTESIAN_POINT('',(0.,18.05,10.));
#121 = LINE('',#122,#123);
#122 = CARTESIAN_POINT('',(0.,0.,10.));
#123 = VECTOR('',#124,1.);
#124 = DIRECTION('',(0.,1.,0.));
#125 = ORIENTED_EDGE('',*,*,#126,.T.);
#126 = EDGE_CURVE('',#119,#127,#129,.T.);
#127 = VERTEX_POINT('',#128);
#128 = CARTESIAN_POINT('',(4.,19.05,10.));
#129 = LINE('',#130,#131);
#130 = CARTESIAN_POINT('',(-0.123529411765,18.019117647059,10.));
#131 = VECTOR('',#132,1.);
#132 = DIRECTION('',(0.970142500145,0.242535625036,0.));
#133 = ORIENTED_EDGE('',*,*,#134,.T.);
#134 = EDGE_CURVE('',#127,#135,#137,.T.);
#135 = VERTEX_POINT('',#136);
#136 = CARTESIAN_POINT('',(4.,12.75,10.));
#137 = LINE('',#138,#139);
#138 = CARTESIAN_POINT('',(4.,6.375,10.));
#139 = VECTOR('',#140,1.);
#140 = DIRECTION('',(0.,-1.,0.));
#141 = ORIENTED_EDGE('',*,*,#142,.T.);
#142 = EDGE_CURVE('',#135,#24,#143,.T.);
#143 = LINE('',#144,#145);
#144 = CARTESIAN_POINT('',(1.617647058824,13.345588235294,10.));
#145 = VECTOR('',#146,1.);
#146 = DIRECTION('',(-0.970142500145,0.242535625036,0.));
#147 = FACE_BOUND('',#148,.T.);
#148 = EDGE_LOOP('',(#149,#160,#168,#177,#185,#194,#202,#211));
#149 = ORIENTED_EDGE('',*,*,#150,.F.);
#150 = EDGE_CURVE('',#151,#153,#155,.T.);
#151 = VERTEX_POINT('',#152);
#152 = CARTESIAN_POINT('',(18.185,36.775,10.));
#153 = VERTEX_POINT('',#154);
#154 = CARTESIAN_POINT('',(17.585,36.175,10.));
#155 = CIRCLE('',#156,0.6);
#156 = AXIS2_PLACEMENT_3D('',#157,#158,#159);
#157 = CARTESIAN_POINT('',(18.185,36.175,10.));
#158 = DIRECTION('',(0.,-0.,1.));
#159 = DIRECTION('',(0.,1.,0.));
#160 = ORIENTED_EDGE('',*,*,#161,.T.);
#161 = EDGE_CURVE('',#151,#162,#164,.T.);
#162 = VERTEX_POINT('',#163);
#163 = CARTESIAN_POINT('',(24.815,36.775,10.));
#164 = LINE('',#165,#166);
#165 = CARTESIAN_POINT('',(12.7075,36.775,10.));
#166 = VECTOR('',#167,1.);
#167 = DIRECTION('',(1.,0.,0.));
#168 = ORIENTED_EDGE('',*,*,#169,.F.);
#169 = EDGE_CURVE('',#170,#162,#172,.T.);
#170 = VERTEX_POINT('',#171);
#171 = CARTESIAN_POINT('',(25.415,36.175,10.));
#172 = CIRCLE('',#173,0.6);
#173 = AXIS2_PLACEMENT_3D('',#174,#175,#176);
#174 = CARTESIAN_POINT('',(24.815,36.175,10.));
#175 = DIRECTION('',(0.,-0.,1.));
#176 = DIRECTION('',(0.,1.,0.));
#177 = ORIENTED_EDGE('',*,*,#178,.T.);
#178 = EDGE_CURVE('',#170,#179,#181,.T.);
#179 = VERTEX_POINT('',#180);
#180 = CARTESIAN_POINT('',(25.415,29.545,10.));
#181 = LINE('',#182,#183);
#182 = CARTESIAN_POINT('',(25.415,14.4725,10.));
#183 = VECTOR('',#184,1.);
#184 = DIRECTION('',(0.,-1.,0.));
#185 = ORIENTED_EDGE('',*,*,#186,.F.);
#186 = EDGE_CURVE('',#187,#179,#189,.T.);
#187 = VERTEX_POINT('',#188);
#188 = CARTESIAN_POINT('',(24.815,28.945,10.));
#189 = CIRCLE('',#190,0.6);
#190 = AXIS2_PLACEMENT_3D('',#191,#192,#193);
#191 = CARTESIAN_POINT('',(24.815,29.545,10.));
#192 = DIRECTION('',(-0.,0.,1.));
#193 = DIRECTION('',(0.,-1.,0.));
#194 = ORIENTED_EDGE('',*,*,#195,.T.);
#195 = EDGE_CURVE('',#187,#196,#198,.T.);
#196 = VERTEX_POINT('',#197);
#197 = CARTESIAN_POINT('',(18.185,28.945,10.));
#198 = LINE('',#199,#200);
#199 = CARTESIAN_POINT('',(8.7925,28.945,10.));
#200 = VECTOR('',#201,1.);
#201 = DIRECTION('',(-1.,0.,0.));
#202 = ORIENTED_EDGE('',*,*,#203,.F.);
#203 = EDGE_CURVE('',#204,#196,#206,.T.);
#204 = VERTEX_POINT('',#205);
#205 = CARTESIAN_POINT('',(17.585,29.545,10.));
#206 = CIRCLE('',#207,0.6);
#207 = AXIS2_PLACEMENT_3D('',#208,#209,#210);
#208 = CARTESIAN_POINT('',(18.185,29.545,10.));
#209 = DIRECTION('',(0.,0.,1.));
#210 = DIRECTION('',(-1.,0.,0.));
#211 = ORIENTED_EDGE('',*,*,#212,.T.);
#212 = EDGE_CURVE('',#204,#153,#213,.T.);
#213 = LINE('',#214,#215);
#214 = CARTESIAN_POINT('',(17.585,18.3875,10.));
#215 = VECTOR('',#216,1.);
#216 = DIRECTION('',(0.,1.,0.));
#217 = PLANE('',#218);
#218 = AXIS2_PLACEMENT_3D('',#219,#220,#221);
#219 = CARTESIAN_POINT('',(0.,0.,10.));
#220 = DIRECTION('',(0.,0.,1.));
#221 = DIRECTION('',(1.,0.,0.));
#222 = ADVANCED_FACE('',(#223),#241,.T.);
#223 = FACE_BOUND('',#224,.T.);
#224 = EDGE_LOOP('',(#225,#233,#234,#235));
#225 = ORIENTED_EDGE('',*,*,#226,.T.);
#226 = EDGE_CURVE('',#227,#40,#229,.T.);
#227 = VERTEX_POINT('',#228);
#228 = CARTESIAN_POINT('',(4.,12.75,0.));
#229 = LINE('',#230,#231);
#230 = CARTESIAN_POINT('',(1.617647058824,13.345588235294,0.));
#231 = VECTOR('',#232,1.);
#232 = DIRECTION('',(-0.970142500145,0.242535625036,0.));
#233 = ORIENTED_EDGE('',*,*,#47,.T.);
#234 = ORIENTED_EDGE('',*,*,#142,.F.);
#235 = ORIENTED_EDGE('',*,*,#236,.F.);
#236 = EDGE_CURVE('',#227,#135,#237,.T.);
#237 = LINE('',#238,#239);
#238 = CARTESIAN_POINT('',(4.,12.75,-1.));
#239 = VECTOR('',#240,1.);
#240 = DIRECTION('',(0.,0.,1.));
#241 = PLANE('',#242);
#242 = AXIS2_PLACEMENT_3D('',#243,#244,#245);
#243 = CARTESIAN_POINT('',(0.,13.75,-1.));
#244 = DIRECTION('',(0.242535625036,0.970142500145,0.));
#245 = DIRECTION('',(0.970142500145,-0.242535625036,0.));
#246 = ADVANCED_FACE('',(#247),#329,.F.);
#247 = FACE_BOUND('',#248,.F.);
#248 = EDGE_LOOP('',(#249,#250,#258,#266,#274,#282,#290,#298,#306,#314,
    #322,#328));
#249 = ORIENTED_EDGE('',*,*,#39,.F.);
#250 = ORIENTED_EDGE('',*,*,#251,.T.);
#251 = EDGE_CURVE('',#32,#252,#254,.T.);
#252 = VERTEX_POINT('',#253);
#253 = CARTESIAN_POINT('',(43.,0.,0.));
#254 = LINE('',#255,#256);
#255 = CARTESIAN_POINT('',(0.,0.,0.));
#256 = VECTOR('',#257,1.);
#257 = DIRECTION('',(1.,0.,0.));
#258 = ORIENTED_EDGE('',*,*,#259,.T.);
#259 = EDGE_CURVE('',#252,#260,#262,.T.);
#260 = VERTEX_POINT('',#261);
#261 = CARTESIAN_POINT('',(43.,13.875609756098,0.));
#262 = LINE('',#263,#264);
#263 = CARTESIAN_POINT('',(43.,0.,0.));
#264 = VECTOR('',#265,1.);
#265 = DIRECTION('',(0.,1.,0.));
#266 = ORIENTED_EDGE('',*,*,#267,.F.);
#267 = EDGE_CURVE('',#268,#260,#270,.T.);
#268 = VERTEX_POINT('',#269);
#269 = CARTESIAN_POINT('',(42.9,13.9,0.));
#270 = LINE('',#271,#272);
#271 = CARTESIAN_POINT('',(42.9,13.9,0.));
#272 = VECTOR('',#273,1.);
#273 = DIRECTION('',(0.971520338783,-0.236956180191,0.));
#274 = ORIENTED_EDGE('',*,*,#275,.F.);
#275 = EDGE_CURVE('',#276,#268,#278,.T.);
#276 = VERTEX_POINT('',#277);
#277 = CARTESIAN_POINT('',(42.9,17.9,0.));
#278 = LINE('',#279,#280);
#279 = CARTESIAN_POINT('',(42.9,17.9,0.));
#280 = VECTOR('',#281,1.);
#281 = DIRECTION('',(0.,-1.,0.));
#282 = ORIENTED_EDGE('',*,*,#283,.F.);
#283 = EDGE_CURVE('',#284,#276,#286,.T.);
#284 = VERTEX_POINT('',#285);
#285 = CARTESIAN_POINT('',(43.,17.924390243902,0.));
#286 = LINE('',#287,#288);
#287 = CARTESIAN_POINT('',(47.,18.9,0.));
#288 = VECTOR('',#289,1.);
#289 = DIRECTION('',(-0.971520338783,-0.236956180191,0.));
#290 = ORIENTED_EDGE('',*,*,#291,.T.);
#291 = EDGE_CURVE('',#284,#292,#294,.T.);
#292 = VERTEX_POINT('',#293);
#293 = CARTESIAN_POINT('',(43.,53.,0.));
#294 = LINE('',#295,#296);
#295 = CARTESIAN_POINT('',(43.,0.,0.));
#296 = VECTOR('',#297,1.);
#297 = DIRECTION('',(0.,1.,0.));
#298 = ORIENTED_EDGE('',*,*,#299,.F.);
#299 = EDGE_CURVE('',#300,#292,#302,.T.);
#300 = VERTEX_POINT('',#301);
#301 = CARTESIAN_POINT('',(0.,53.,0.));
#302 = LINE('',#303,#304);
#303 = CARTESIAN_POINT('',(0.,53.,0.));
#304 = VECTOR('',#305,1.);
#305 = DIRECTION('',(1.,0.,0.));
#306 = ORIENTED_EDGE('',*,*,#307,.F.);
#307 = EDGE_CURVE('',#308,#300,#310,.T.);
#308 = VERTEX_POINT('',#309);
#309 = CARTESIAN_POINT('',(0.,18.05,0.));
#310 = LINE('',#311,#312);
#311 = CARTESIAN_POINT('',(0.,0.,0.));
#312 = VECTOR('',#313,1.);
#313 = DIRECTION('',(0.,1.,0.));
#314 = ORIENTED_EDGE('',*,*,#315,.T.);
#315 = EDGE_CURVE('',#308,#316,#318,.T.);
#316 = VERTEX_POINT('',#317);
#317 = CARTESIAN_POINT('',(4.,19.05,0.));
#318 = LINE('',#319,#320);
#319 = CARTESIAN_POINT('',(-0.123529411765,18.019117647059,0.));
#320 = VECTOR('',#321,1.);
#321 = DIRECTION('',(0.970142500145,0.242535625036,0.));
#322 = ORIENTED_EDGE('',*,*,#323,.T.);
#323 = EDGE_CURVE('',#316,#227,#324,.T.);
#324 = LINE('',#325,#326);
#325 = CARTESIAN_POINT('',(4.,6.375,0.));
#326 = VECTOR('',#327,1.);
#327 = DIRECTION('',(0.,-1.,0.));
#328 = ORIENTED_EDGE('',*,*,#226,.T.);
#329 = PLANE('',#330);
#330 = AXIS2_PLACEMENT_3D('',#331,#332,#333);
#331 = CARTESIAN_POINT('',(0.,0.,0.));
#332 = DIRECTION('',(0.,0.,1.));
#333 = DIRECTION('',(1.,0.,0.));
#334 = ADVANCED_FACE('',(#335,#346),#463,.T.);
#335 = FACE_BOUND('',#336,.T.);
#336 = EDGE_LOOP('',(#337,#338,#339,#345));
#337 = ORIENTED_EDGE('',*,*,#31,.T.);
#338 = ORIENTED_EDGE('',*,*,#251,.T.);
#339 = ORIENTED_EDGE('',*,*,#340,.F.);
#340 = EDGE_CURVE('',#63,#252,#341,.T.);
#341 = LINE('',#342,#343);
#342 = CARTESIAN_POINT('',(43.,0.,0.));
#343 = VECTOR('',#344,1.);
#344 = DIRECTION('',(0.,-0.342020143326,-0.939692620786));
#345 = ORIENTED_EDGE('',*,*,#62,.F.);
#346 = FACE_BOUND('',#347,.T.);
#347 = EDGE_LOOP('',(#348,#358,#366,#374,#389,#404,#419,#427,#442,#457)
  );
#348 = ORIENTED_EDGE('',*,*,#349,.F.);
#349 = EDGE_CURVE('',#350,#352,#354,.T.);
#350 = VERTEX_POINT('',#351);
#351 = CARTESIAN_POINT('',(19.663694267516,3.170038066751,8.709608007211
    ));
#352 = VERTEX_POINT('',#353);
#353 = CARTESIAN_POINT('',(19.663694267516,2.829847840116,7.774943041211
    ));
#354 = LINE('',#355,#356);
#355 = CARTESIAN_POINT('',(19.663694267516,1.414923920058,3.887471520606
    ));
#356 = VECTOR('',#357,1.);
#357 = DIRECTION('',(-0.,-0.342020143326,-0.939692620786));
#358 = ORIENTED_EDGE('',*,*,#359,.F.);
#359 = EDGE_CURVE('',#360,#350,#362,.T.);
#360 = VERTEX_POINT('',#361);
#361 = CARTESIAN_POINT('',(23.336305732484,3.170038066751,8.709608007211
    ));
#362 = LINE('',#363,#364);
#363 = CARTESIAN_POINT('',(9.331847133758,3.170038066751,8.709608007211)
  );
#364 = VECTOR('',#365,1.);
#365 = DIRECTION('',(-1.,0.,0.));
#366 = ORIENTED_EDGE('',*,*,#367,.F.);
#367 = EDGE_CURVE('',#368,#360,#370,.T.);
#368 = VERTEX_POINT('',#369);
#369 = CARTESIAN_POINT('',(23.336305732484,2.902347396612,7.974133935604
    ));
#370 = LINE('',#371,#372);
#371 = CARTESIAN_POINT('',(23.336305732484,1.585019033376,4.354804003605
    ));
#372 = VECTOR('',#373,1.);
#373 = DIRECTION('',(0.,0.342020143326,0.939692620786));
#374 = ORIENTED_EDGE('',*,*,#375,.F.);
#375 = EDGE_CURVE('',#376,#368,#378,.T.);
#376 = VERTEX_POINT('',#377);
#377 = CARTESIAN_POINT('',(22.411464968153,2.461773168675,6.763666192752
    ));
#378 = B_SPLINE_CURVE_WITH_KNOTS('',5,(#379,#380,#381,#382,#383,#384,
    #385,#386,#387,#388),.UNSPECIFIED.,.F.,.F.,(6,4,6),(0.,0.53652263867
    ,1.),.UNSPECIFIED.);
#379 = CARTESIAN_POINT('',(22.411464968153,2.461773168675,6.763666192752
    ));
#380 = CARTESIAN_POINT('',(22.498982980861,2.515246835358,6.910583884502
    ));
#381 = CARTESIAN_POINT('',(22.589069971334,2.567593086098,7.054404026402
    ));
#382 = CARTESIAN_POINT('',(22.682011261724,2.61862647929,7.194617121836)
  );
#383 = CARTESIAN_POINT('',(22.778099493009,2.668070741635,7.330464116151
    ));
#384 = CARTESIAN_POINT('',(22.963753380061,2.756512256224,7.573455180426
    ));
#385 = CARTESIAN_POINT('',(23.052409327525,2.796007086745,7.681966335466
    ));
#386 = CARTESIAN_POINT('',(23.143926634313,2.833751872901,7.785669283133
    ));
#387 = CARTESIAN_POINT('',(23.23850773886,2.869366984577,7.883520998255)
  );
#388 = CARTESIAN_POINT('',(23.336305732484,2.902347396612,7.974133935604
    ));
#389 = ORIENTED_EDGE('',*,*,#390,.F.);
#390 = EDGE_CURVE('',#391,#376,#393,.T.);
#391 = VERTEX_POINT('',#392);
#392 = CARTESIAN_POINT('',(21.694777070064,1.851452382979,5.086823615432
    ));
#393 = B_SPLINE_CURVE_WITH_KNOTS('',5,(#394,#395,#396,#397,#398,#399,
    #400,#401,#402,#403),.UNSPECIFIED.,.F.,.F.,(6,4,6),(0.,
    0.730780123927,1.),.UNSPECIFIED.);
#394 = CARTESIAN_POINT('',(21.694777070064,1.851452382979,5.086823615432
    ));
#395 = CARTESIAN_POINT('',(21.76613851188,1.944970720293,5.343763135507)
  );
#396 = CARTESIAN_POINT('',(21.849672066001,2.037230266001,5.597244154067
    ));
#397 = CARTESIAN_POINT('',(21.945545861634,2.127988107752,5.846599274916
    ));
#398 = CARTESIAN_POINT('',(22.053725756428,2.217013873978,6.091195557373
    ));
#399 = CARTESIAN_POINT('',(22.218198696699,2.336178532197,6.418597765026
    ));
#400 = CARTESIAN_POINT('',(22.264109050589,2.36799672122,6.506017520894)
  );
#401 = CARTESIAN_POINT('',(22.311636237088,2.399541383909,6.592685769338
    ));
#402 = CARTESIAN_POINT('',(22.360762200907,2.430803083775,6.678576583813
    ));
#403 = CARTESIAN_POINT('',(22.411464968153,2.461773168675,6.763666192752
    ));
#404 = ORIENTED_EDGE('',*,*,#405,.F.);
#405 = EDGE_CURVE('',#406,#391,#408,.T.);
#406 = VERTEX_POINT('',#407);
#407 = CARTESIAN_POINT('',(21.452229299363,1.273895819932,3.5));
#408 = B_SPLINE_CURVE_WITH_KNOTS('',5,(#409,#410,#411,#412,#413,#414,
    #415,#416,#417,#418),.UNSPECIFIED.,.F.,.F.,(6,4,6),(0.,
    0.476555297456,1.),.UNSPECIFIED.);
#409 = CARTESIAN_POINT('',(21.452229299363,1.273895819932,3.5));
#410 = CARTESIAN_POINT('',(21.451423404884,1.32753383539,3.647369236296)
  );
#411 = CARTESIAN_POINT('',(21.457590896725,1.381773758835,3.796392201194
    ));
#412 = CARTESIAN_POINT('',(21.470050462989,1.436445639815,3.946601959666
    ));
#413 = CARTESIAN_POINT('',(21.488176363462,1.491421754254,4.097647592697
    ));
#414 = CARTESIAN_POINT('',(21.536995770109,1.607248406905,4.415878705426
    ));
#415 = CARTESIAN_POINT('',(21.568748386766,1.668140557502,4.583178514212
    ));
#416 = CARTESIAN_POINT('',(21.605997753295,1.72918514035,4.750897127169)
  );
#417 = CARTESIAN_POINT('',(21.648164680483,1.790304220418,4.918820419554
    ));
#418 = CARTESIAN_POINT('',(21.694777070064,1.851452382979,5.086823615432
    ));
#419 = ORIENTED_EDGE('',*,*,#420,.F.);
#420 = EDGE_CURVE('',#421,#406,#423,.T.);
#421 = VERTEX_POINT('',#422);
#422 = CARTESIAN_POINT('',(20.416560509554,1.273895819932,3.5));
#423 = LINE('',#424,#425);
#424 = CARTESIAN_POINT('',(10.226114649682,1.273895819932,3.5));
#425 = VECTOR('',#426,1.);
#426 = DIRECTION('',(1.,0.,0.));
#427 = ORIENTED_EDGE('',*,*,#428,.F.);
#428 = EDGE_CURVE('',#429,#421,#431,.T.);
#429 = VERTEX_POINT('',#430);
#430 = CARTESIAN_POINT('',(20.896050955414,2.087947330492,5.736588143537
    ));
#431 = B_SPLINE_CURVE_WITH_KNOTS('',5,(#432,#433,#434,#435,#436,#437,
    #438,#439,#440,#441),.UNSPECIFIED.,.F.,.F.,(6,4,6),(0.,
    0.511250671703,1.),.UNSPECIFIED.);
#432 = CARTESIAN_POINT('',(20.896050955414,2.087947330492,5.736588143537
    ));
#433 = CARTESIAN_POINT('',(20.808112556985,2.0073647835,5.515189415275)
  );
#434 = CARTESIAN_POINT('',(20.728841606361,1.925889812661,5.291338772645
    ));
#435 = CARTESIAN_POINT('',(20.658916131283,1.843591446234,5.065225869227
    ));
#436 = CARTESIAN_POINT('',(20.599036944911,1.760576860769,4.837145170177
    ));
#437 = CARTESIAN_POINT('',(20.50274753066,1.597102189274,4.388002201593)
  );
#438 = CARTESIAN_POINT('',(20.465419254325,1.516688783534,4.167068185099
    ));
#439 = CARTESIAN_POINT('',(20.438354249005,1.435899301712,3.945100908064
    ));
#440 = CARTESIAN_POINT('',(20.421989189661,1.354901771564,3.722562022951
    ));
#441 = CARTESIAN_POINT('',(20.416560509554,1.273895819932,3.5));
#442 = ORIENTED_EDGE('',*,*,#443,.F.);
#443 = EDGE_CURVE('',#444,#429,#446,.T.);
#444 = VERTEX_POINT('',#445);
#445 = CARTESIAN_POINT('',(22.105732484076,2.829847840116,7.774943041211
    ));
#446 = B_SPLINE_CURVE_WITH_KNOTS('',5,(#447,#448,#449,#450,#451,#452,
    #453,#454,#455,#456),.UNSPECIFIED.,.F.,.F.,(6,4,6),(0.,
    0.495396503647,1.),.UNSPECIFIED.);
#447 = CARTESIAN_POINT('',(22.105732484076,2.829847840116,7.774943041211
    ));
#448 = CARTESIAN_POINT('',(21.952856924545,2.763794296017,7.593462420325
    ));
#449 = CARTESIAN_POINT('',(21.807905971505,2.695572093458,7.406023459288
    ));
#450 = CARTESIAN_POINT('',(21.671147646558,2.625322930596,7.213015470588
    ));
#451 = CARTESIAN_POINT('',(21.542696639633,2.553211285302,7.014890353463
    ));
#452 = CARTESIAN_POINT('',(21.300170432519,2.404249226052,6.60562045932)
  );
#453 = CARTESIAN_POINT('',(21.186403491378,2.327333575362,6.394296445846
    ));
#454 = CARTESIAN_POINT('',(21.081243000629,2.248855709349,6.178680281048
    ));
#455 = CARTESIAN_POINT('',(20.984535936037,2.169002156748,5.959284448415
    ));
#456 = CARTESIAN_POINT('',(20.896050955414,2.087947330492,5.736588143537
    ));
#457 = ORIENTED_EDGE('',*,*,#458,.F.);
#458 = EDGE_CURVE('',#352,#444,#459,.T.);
#459 = LINE('',#460,#461);
#460 = CARTESIAN_POINT('',(10.552866242038,2.829847840116,7.774943041211
    ));
#461 = VECTOR('',#462,1.);
#462 = DIRECTION('',(1.,0.,0.));
#463 = PLANE('',#464);
#464 = AXIS2_PLACEMENT_3D('',#465,#466,#467);
#465 = CARTESIAN_POINT('',(-1.,0.,0.));
#466 = DIRECTION('',(0.,-0.939692620786,0.342020143326));
#467 = DIRECTION('',(0.,0.342020143326,0.939692620786));
#468 = ADVANCED_FACE('',(#469),#480,.T.);
#469 = FACE_BOUND('',#470,.T.);
#470 = EDGE_LOOP('',(#471,#472,#473,#474));
#471 = ORIENTED_EDGE('',*,*,#323,.T.);
#472 = ORIENTED_EDGE('',*,*,#236,.T.);
#473 = ORIENTED_EDGE('',*,*,#134,.F.);
#474 = ORIENTED_EDGE('',*,*,#475,.F.);
#475 = EDGE_CURVE('',#316,#127,#476,.T.);
#476 = LINE('',#477,#478);
#477 = CARTESIAN_POINT('',(4.,19.05,-1.));
#478 = VECTOR('',#479,1.);
#479 = DIRECTION('',(0.,0.,1.));
#480 = PLANE('',#481);
#481 = AXIS2_PLACEMENT_3D('',#482,#483,#484);
#482 = CARTESIAN_POINT('',(4.,12.75,-1.));
#483 = DIRECTION('',(-1.,0.,0.));
#484 = DIRECTION('',(0.,1.,0.));
#485 = ADVANCED_FACE('',(#486),#497,.T.);
#486 = FACE_BOUND('',#487,.T.);
#487 = EDGE_LOOP('',(#488,#489,#490,#491));
#488 = ORIENTED_EDGE('',*,*,#315,.T.);
#489 = ORIENTED_EDGE('',*,*,#475,.T.);
#490 = ORIENTED_EDGE('',*,*,#126,.F.);
#491 = ORIENTED_EDGE('',*,*,#492,.F.);
#492 = EDGE_CURVE('',#308,#119,#493,.T.);
#493 = LINE('',#494,#495);
#494 = CARTESIAN_POINT('',(0.,18.05,-1.));
#495 = VECTOR('',#496,1.);
#496 = DIRECTION('',(0.,0.,1.));
#497 = PLANE('',#498);
#498 = AXIS2_PLACEMENT_3D('',#499,#500,#501);
#499 = CARTESIAN_POINT('',(4.,19.05,-1.));
#500 = DIRECTION('',(0.242535625036,-0.970142500145,0.));
#501 = DIRECTION('',(-0.970142500145,-0.242535625036,0.));
#502 = ADVANCED_FACE('',(#503),#514,.F.);
#503 = FACE_BOUND('',#504,.F.);
#504 = EDGE_LOOP('',(#505,#506,#507,#508));
#505 = ORIENTED_EDGE('',*,*,#118,.F.);
#506 = ORIENTED_EDGE('',*,*,#492,.F.);
#507 = ORIENTED_EDGE('',*,*,#307,.T.);
#508 = ORIENTED_EDGE('',*,*,#509,.T.);
#509 = EDGE_CURVE('',#300,#111,#510,.T.);
#510 = LINE('',#511,#512);
#511 = CARTESIAN_POINT('',(0.,53.,0.));
#512 = VECTOR('',#513,1.);
#513 = DIRECTION('',(0.,0.,1.));
#514 = PLANE('',#515);
#515 = AXIS2_PLACEMENT_3D('',#516,#517,#518);
#516 = CARTESIAN_POINT('',(0.,0.,0.));
#517 = DIRECTION('',(1.,0.,0.));
#518 = DIRECTION('',(0.,0.,1.));
#519 = ADVANCED_FACE('',(#520),#531,.T.);
#520 = FACE_BOUND('',#521,.T.);
#521 = EDGE_LOOP('',(#522,#523,#524,#525));
#522 = ORIENTED_EDGE('',*,*,#299,.F.);
#523 = ORIENTED_EDGE('',*,*,#509,.T.);
#524 = ORIENTED_EDGE('',*,*,#110,.T.);
#525 = ORIENTED_EDGE('',*,*,#526,.F.);
#526 = EDGE_CURVE('',#292,#103,#527,.T.);
#527 = LINE('',#528,#529);
#528 = CARTESIAN_POINT('',(43.,53.,0.));
#529 = VECTOR('',#530,1.);
#530 = DIRECTION('',(0.,0.,1.));
#531 = PLANE('',#532);
#532 = AXIS2_PLACEMENT_3D('',#533,#534,#535);
#533 = CARTESIAN_POINT('',(0.,53.,0.));
#534 = DIRECTION('',(0.,1.,0.));
#535 = DIRECTION('',(0.,0.,1.));
#536 = ADVANCED_FACE('',(#537),#548,.T.);
#537 = FACE_BOUND('',#538,.T.);
#538 = EDGE_LOOP('',(#539,#540,#546,#547));
#539 = ORIENTED_EDGE('',*,*,#102,.F.);
#540 = ORIENTED_EDGE('',*,*,#541,.T.);
#541 = EDGE_CURVE('',#95,#284,#542,.T.);
#542 = LINE('',#543,#544);
#543 = CARTESIAN_POINT('',(43.,17.924390243902,0.));
#544 = VECTOR('',#545,1.);
#545 = DIRECTION('',(0.,0.,-1.));
#546 = ORIENTED_EDGE('',*,*,#291,.T.);
#547 = ORIENTED_EDGE('',*,*,#526,.T.);
#548 = PLANE('',#549);
#549 = AXIS2_PLACEMENT_3D('',#550,#551,#552);
#550 = CARTESIAN_POINT('',(43.,0.,0.));
#551 = DIRECTION('',(1.,0.,0.));
#552 = DIRECTION('',(0.,0.,1.));
#553 = ADVANCED_FACE('',(#554),#565,.T.);
#554 = FACE_BOUND('',#555,.T.);
#555 = EDGE_LOOP('',(#556,#557,#563,#564));
#556 = ORIENTED_EDGE('',*,*,#78,.T.);
#557 = ORIENTED_EDGE('',*,*,#558,.T.);
#558 = EDGE_CURVE('',#71,#95,#559,.T.);
#559 = LINE('',#560,#561);
#560 = CARTESIAN_POINT('',(43.,0.,10.));
#561 = VECTOR('',#562,1.);
#562 = DIRECTION('',(0.,1.,0.));
#563 = ORIENTED_EDGE('',*,*,#94,.T.);
#564 = ORIENTED_EDGE('',*,*,#86,.T.);
#565 = PLANE('',#566);
#566 = AXIS2_PLACEMENT_3D('',#567,#568,#569);
#567 = CARTESIAN_POINT('',(0.,0.,10.));
#568 = DIRECTION('',(0.,0.,1.));
#569 = DIRECTION('',(1.,0.,0.));
#570 = ADVANCED_FACE('',(#571),#582,.T.);
#571 = FACE_BOUND('',#572,.T.);
#572 = EDGE_LOOP('',(#573,#574,#575,#576));
#573 = ORIENTED_EDGE('',*,*,#70,.F.);
#574 = ORIENTED_EDGE('',*,*,#340,.T.);
#575 = ORIENTED_EDGE('',*,*,#259,.T.);
#576 = ORIENTED_EDGE('',*,*,#577,.T.);
#577 = EDGE_CURVE('',#260,#71,#578,.T.);
#578 = LINE('',#579,#580);
#579 = CARTESIAN_POINT('',(43.,13.875609756098,0.));
#580 = VECTOR('',#581,1.);
#581 = DIRECTION('',(0.,0.,1.));
#582 = PLANE('',#583);
#583 = AXIS2_PLACEMENT_3D('',#584,#585,#586);
#584 = CARTESIAN_POINT('',(43.,0.,0.));
#585 = DIRECTION('',(1.,0.,0.));
#586 = DIRECTION('',(0.,0.,1.));
#587 = ADVANCED_FACE('',(#588),#614,.T.);
#588 = FACE_BOUND('',#589,.T.);
#589 = EDGE_LOOP('',(#590,#598,#599,#607));
#590 = ORIENTED_EDGE('',*,*,#591,.F.);
#591 = EDGE_CURVE('',#151,#592,#594,.T.);
#592 = VERTEX_POINT('',#593);
#593 = CARTESIAN_POINT('',(18.185,36.775,20.5));
#594 = LINE('',#595,#596);
#595 = CARTESIAN_POINT('',(18.185,36.775,9.9));
#596 = VECTOR('',#597,1.);
#597 = DIRECTION('',(0.,0.,1.));
#598 = ORIENTED_EDGE('',*,*,#150,.T.);
#599 = ORIENTED_EDGE('',*,*,#600,.T.);
#600 = EDGE_CURVE('',#153,#601,#603,.T.);
#601 = VERTEX_POINT('',#602);
#602 = CARTESIAN_POINT('',(17.585,36.175,20.5));
#603 = LINE('',#604,#605);
#604 = CARTESIAN_POINT('',(17.585,36.175,9.9));
#605 = VECTOR('',#606,1.);
#606 = DIRECTION('',(0.,0.,1.));
#607 = ORIENTED_EDGE('',*,*,#608,.F.);
#608 = EDGE_CURVE('',#592,#601,#609,.T.);
#609 = CIRCLE('',#610,0.6);
#610 = AXIS2_PLACEMENT_3D('',#611,#612,#613);
#611 = CARTESIAN_POINT('',(18.185,36.175,20.5));
#612 = DIRECTION('',(0.,-0.,1.));
#613 = DIRECTION('',(0.,1.,0.));
#614 = CYLINDRICAL_SURFACE('',#615,0.6);
#615 = AXIS2_PLACEMENT_3D('',#616,#617,#618);
#616 = CARTESIAN_POINT('',(18.185,36.175,9.9));
#617 = DIRECTION('',(0.,0.,1.));
#618 = DIRECTION('',(0.,1.,0.));
#619 = ADVANCED_FACE('',(#620),#638,.F.);
#620 = FACE_BOUND('',#621,.F.);
#621 = EDGE_LOOP('',(#622,#623,#631,#637));
#622 = ORIENTED_EDGE('',*,*,#161,.T.);
#623 = ORIENTED_EDGE('',*,*,#624,.T.);
#624 = EDGE_CURVE('',#162,#625,#627,.T.);
#625 = VERTEX_POINT('',#626);
#626 = CARTESIAN_POINT('',(24.815,36.775,20.5));
#627 = LINE('',#628,#629);
#628 = CARTESIAN_POINT('',(24.815,36.775,9.9));
#629 = VECTOR('',#630,1.);
#630 = DIRECTION('',(0.,0.,1.));
#631 = ORIENTED_EDGE('',*,*,#632,.T.);
#632 = EDGE_CURVE('',#625,#592,#633,.T.);
#633 = LINE('',#634,#635);
#634 = CARTESIAN_POINT('',(24.815,36.775,20.5));
#635 = VECTOR('',#636,1.);
#636 = DIRECTION('',(-1.,0.,0.));
#637 = ORIENTED_EDGE('',*,*,#591,.F.);
#638 = PLANE('',#639);
#639 = AXIS2_PLACEMENT_3D('',#640,#641,#642);
#640 = CARTESIAN_POINT('',(25.415,36.775,9.9));
#641 = DIRECTION('',(0.,-1.,0.));
#642 = DIRECTION('',(-1.,0.,0.));
#643 = ADVANCED_FACE('',(#644),#662,.F.);
#644 = FACE_BOUND('',#645,.F.);
#645 = EDGE_LOOP('',(#646,#647,#648,#656));
#646 = ORIENTED_EDGE('',*,*,#212,.T.);
#647 = ORIENTED_EDGE('',*,*,#600,.T.);
#648 = ORIENTED_EDGE('',*,*,#649,.T.);
#649 = EDGE_CURVE('',#601,#650,#652,.T.);
#650 = VERTEX_POINT('',#651);
#651 = CARTESIAN_POINT('',(17.585,29.545,20.5));
#652 = LINE('',#653,#654);
#653 = CARTESIAN_POINT('',(17.585,36.175,20.5));
#654 = VECTOR('',#655,1.);
#655 = DIRECTION('',(0.,-1.,0.));
#656 = ORIENTED_EDGE('',*,*,#657,.F.);
#657 = EDGE_CURVE('',#204,#650,#658,.T.);
#658 = LINE('',#659,#660);
#659 = CARTESIAN_POINT('',(17.585,29.545,9.9));
#660 = VECTOR('',#661,1.);
#661 = DIRECTION('',(0.,0.,1.));
#662 = PLANE('',#663);
#663 = AXIS2_PLACEMENT_3D('',#664,#665,#666);
#664 = CARTESIAN_POINT('',(17.585,36.775,9.9));
#665 = DIRECTION('',(1.,0.,0.));
#666 = DIRECTION('',(0.,-1.,0.));
#667 = ADVANCED_FACE('',(#668),#687,.T.);
#668 = FACE_BOUND('',#669,.F.);
#669 = EDGE_LOOP('',(#670,#671,#672,#680));
#670 = ORIENTED_EDGE('',*,*,#624,.F.);
#671 = ORIENTED_EDGE('',*,*,#169,.F.);
#672 = ORIENTED_EDGE('',*,*,#673,.T.);
#673 = EDGE_CURVE('',#170,#674,#676,.T.);
#674 = VERTEX_POINT('',#675);
#675 = CARTESIAN_POINT('',(25.415,36.175,20.5));
#676 = LINE('',#677,#678);
#677 = CARTESIAN_POINT('',(25.415,36.175,9.9));
#678 = VECTOR('',#679,1.);
#679 = DIRECTION('',(0.,0.,1.));
#680 = ORIENTED_EDGE('',*,*,#681,.T.);
#681 = EDGE_CURVE('',#674,#625,#682,.T.);
#682 = CIRCLE('',#683,0.6);
#683 = AXIS2_PLACEMENT_3D('',#684,#685,#686);
#684 = CARTESIAN_POINT('',(24.815,36.175,20.5));
#685 = DIRECTION('',(0.,0.,1.));
#686 = DIRECTION('',(1.,0.,0.));
#687 = CYLINDRICAL_SURFACE('',#688,0.6);
#688 = AXIS2_PLACEMENT_3D('',#689,#690,#691);
#689 = CARTESIAN_POINT('',(24.815,36.175,9.9));
#690 = DIRECTION('',(0.,0.,1.));
#691 = DIRECTION('',(0.,1.,0.));
#692 = ADVANCED_FACE('',(#693),#712,.T.);
#693 = FACE_BOUND('',#694,.T.);
#694 = EDGE_LOOP('',(#695,#696,#697,#705));
#695 = ORIENTED_EDGE('',*,*,#657,.F.);
#696 = ORIENTED_EDGE('',*,*,#203,.T.);
#697 = ORIENTED_EDGE('',*,*,#698,.T.);
#698 = EDGE_CURVE('',#196,#699,#701,.T.);
#699 = VERTEX_POINT('',#700);
#700 = CARTESIAN_POINT('',(18.185,28.945,20.5));
#701 = LINE('',#702,#703);
#702 = CARTESIAN_POINT('',(18.185,28.945,9.9));
#703 = VECTOR('',#704,1.);
#704 = DIRECTION('',(0.,0.,1.));
#705 = ORIENTED_EDGE('',*,*,#706,.F.);
#706 = EDGE_CURVE('',#650,#699,#707,.T.);
#707 = CIRCLE('',#708,0.6);
#708 = AXIS2_PLACEMENT_3D('',#709,#710,#711);
#709 = CARTESIAN_POINT('',(18.185,29.545,20.5));
#710 = DIRECTION('',(0.,0.,1.));
#711 = DIRECTION('',(-1.,0.,0.));
#712 = CYLINDRICAL_SURFACE('',#713,0.6);
#713 = AXIS2_PLACEMENT_3D('',#714,#715,#716);
#714 = CARTESIAN_POINT('',(18.185,29.545,9.9));
#715 = DIRECTION('',(0.,0.,1.));
#716 = DIRECTION('',(-1.,0.,0.));
#717 = ADVANCED_FACE('',(#718),#736,.F.);
#718 = FACE_BOUND('',#719,.F.);
#719 = EDGE_LOOP('',(#720,#721,#729,#735));
#720 = ORIENTED_EDGE('',*,*,#178,.T.);
#721 = ORIENTED_EDGE('',*,*,#722,.T.);
#722 = EDGE_CURVE('',#179,#723,#725,.T.);
#723 = VERTEX_POINT('',#724);
#724 = CARTESIAN_POINT('',(25.415,29.545,20.5));
#725 = LINE('',#726,#727);
#726 = CARTESIAN_POINT('',(25.415,29.545,9.9));
#727 = VECTOR('',#728,1.);
#728 = DIRECTION('',(0.,0.,1.));
#729 = ORIENTED_EDGE('',*,*,#730,.T.);
#730 = EDGE_CURVE('',#723,#674,#731,.T.);
#731 = LINE('',#732,#733);
#732 = CARTESIAN_POINT('',(25.415,29.545,20.5));
#733 = VECTOR('',#734,1.);
#734 = DIRECTION('',(0.,1.,0.));
#735 = ORIENTED_EDGE('',*,*,#673,.F.);
#736 = PLANE('',#737);
#737 = AXIS2_PLACEMENT_3D('',#738,#739,#740);
#738 = CARTESIAN_POINT('',(25.415,28.945,9.9));
#739 = DIRECTION('',(-1.,0.,0.));
#740 = DIRECTION('',(0.,1.,0.));
#741 = ADVANCED_FACE('',(#742),#760,.F.);
#742 = FACE_BOUND('',#743,.F.);
#743 = EDGE_LOOP('',(#744,#745,#746,#754));
#744 = ORIENTED_EDGE('',*,*,#195,.T.);
#745 = ORIENTED_EDGE('',*,*,#698,.T.);
#746 = ORIENTED_EDGE('',*,*,#747,.T.);
#747 = EDGE_CURVE('',#699,#748,#750,.T.);
#748 = VERTEX_POINT('',#749);
#749 = CARTESIAN_POINT('',(24.815,28.945,20.5));
#750 = LINE('',#751,#752);
#751 = CARTESIAN_POINT('',(18.185,28.945,20.5));
#752 = VECTOR('',#753,1.);
#753 = DIRECTION('',(1.,0.,0.));
#754 = ORIENTED_EDGE('',*,*,#755,.F.);
#755 = EDGE_CURVE('',#187,#748,#756,.T.);
#756 = LINE('',#757,#758);
#757 = CARTESIAN_POINT('',(24.815,28.945,9.9));
#758 = VECTOR('',#759,1.);
#759 = DIRECTION('',(0.,0.,1.));
#760 = PLANE('',#761);
#761 = AXIS2_PLACEMENT_3D('',#762,#763,#764);
#762 = CARTESIAN_POINT('',(17.585,28.945,9.9));
#763 = DIRECTION('',(0.,1.,0.));
#764 = DIRECTION('',(1.,0.,0.));
#765 = ADVANCED_FACE('',(#766),#778,.T.);
#766 = FACE_BOUND('',#767,.T.);
#767 = EDGE_LOOP('',(#768,#769,#770,#771));
#768 = ORIENTED_EDGE('',*,*,#755,.F.);
#769 = ORIENTED_EDGE('',*,*,#186,.T.);
#770 = ORIENTED_EDGE('',*,*,#722,.T.);
#771 = ORIENTED_EDGE('',*,*,#772,.F.);
#772 = EDGE_CURVE('',#748,#723,#773,.T.);
#773 = CIRCLE('',#774,0.6);
#774 = AXIS2_PLACEMENT_3D('',#775,#776,#777);
#775 = CARTESIAN_POINT('',(24.815,29.545,20.5));
#776 = DIRECTION('',(-0.,0.,1.));
#777 = DIRECTION('',(0.,-1.,0.));
#778 = CYLINDRICAL_SURFACE('',#779,0.6);
#779 = AXIS2_PLACEMENT_3D('',#780,#781,#782);
#780 = CARTESIAN_POINT('',(24.815,29.545,9.9));
#781 = DIRECTION('',(0.,0.,1.));
#782 = DIRECTION('',(0.,-1.,0.));
#783 = ADVANCED_FACE('',(#784),#795,.F.);
#784 = FACE_BOUND('',#785,.F.);
#785 = EDGE_LOOP('',(#786,#787,#793,#794));
#786 = ORIENTED_EDGE('',*,*,#267,.T.);
#787 = ORIENTED_EDGE('',*,*,#788,.T.);
#788 = EDGE_CURVE('',#260,#284,#789,.T.);
#789 = LINE('',#790,#791);
#790 = CARTESIAN_POINT('',(43.,0.,0.));
#791 = VECTOR('',#792,1.);
#792 = DIRECTION('',(0.,1.,0.));
#793 = ORIENTED_EDGE('',*,*,#283,.T.);
#794 = ORIENTED_EDGE('',*,*,#275,.T.);
#795 = PLANE('',#796);
#796 = AXIS2_PLACEMENT_3D('',#797,#798,#799);
#797 = CARTESIAN_POINT('',(0.,0.,0.));
#798 = DIRECTION('',(0.,0.,1.));
#799 = DIRECTION('',(1.,0.,0.));
#800 = ADVANCED_FACE('',(#801),#826,.T.);
#801 = FACE_BOUND('',#802,.T.);
#802 = EDGE_LOOP('',(#803,#804,#812,#820));
#803 = ORIENTED_EDGE('',*,*,#349,.T.);
#804 = ORIENTED_EDGE('',*,*,#805,.T.);
#805 = EDGE_CURVE('',#352,#806,#808,.T.);
#806 = VERTEX_POINT('',#807);
#807 = CARTESIAN_POINT('',(19.663694267516,2.266032267644,7.980155127206
    ));
#808 = LINE('',#809,#810);
#809 = CARTESIAN_POINT('',(19.663694267516,3.017786364273,7.706539012546
    ));
#810 = VECTOR('',#811,1.);
#811 = DIRECTION('',(0.,-0.939692620786,0.342020143326));
#812 = ORIENTED_EDGE('',*,*,#813,.T.);
#813 = EDGE_CURVE('',#806,#814,#816,.T.);
#814 = VERTEX_POINT('',#815);
#815 = CARTESIAN_POINT('',(19.663694267516,2.60622249428,8.914820093206)
  );
#816 = LINE('',#817,#818);
#817 = CARTESIAN_POINT('',(19.663694267516,2.266032267644,7.980155127206
    ));
#818 = VECTOR('',#819,1.);
#819 = DIRECTION('',(0.,0.342020143326,0.939692620786));
#820 = ORIENTED_EDGE('',*,*,#821,.F.);
#821 = EDGE_CURVE('',#350,#814,#822,.T.);
#822 = LINE('',#823,#824);
#823 = CARTESIAN_POINT('',(19.663694267516,3.357976590908,8.641203978545
    ));
#824 = VECTOR('',#825,1.);
#825 = DIRECTION('',(0.,-0.939692620786,0.342020143326));
#826 = PLANE('',#827);
#827 = AXIS2_PLACEMENT_3D('',#828,#829,#830);
#828 = CARTESIAN_POINT('',(19.663694267516,3.017786364273,7.706539012546
    ));
#829 = DIRECTION('',(-1.,0.,0.));
#830 = DIRECTION('',(0.,0.342020143326,0.939692620786));
#831 = ADVANCED_FACE('',(#832),#850,.T.);
#832 = FACE_BOUND('',#833,.T.);
#833 = EDGE_LOOP('',(#834,#835,#843,#849));
#834 = ORIENTED_EDGE('',*,*,#458,.T.);
#835 = ORIENTED_EDGE('',*,*,#836,.T.);
#836 = EDGE_CURVE('',#444,#837,#839,.T.);
#837 = VERTEX_POINT('',#838);
#838 = CARTESIAN_POINT('',(22.105732484076,2.266032267644,7.980155127206
    ));
#839 = LINE('',#840,#841);
#840 = CARTESIAN_POINT('',(22.105732484076,3.017786364273,7.706539012546
    ));
#841 = VECTOR('',#842,1.);
#842 = DIRECTION('',(0.,-0.939692620786,0.342020143326));
#843 = ORIENTED_EDGE('',*,*,#844,.T.);
#844 = EDGE_CURVE('',#837,#806,#845,.T.);
#845 = LINE('',#846,#847);
#846 = CARTESIAN_POINT('',(22.105732484076,2.266032267644,7.980155127206
    ));
#847 = VECTOR('',#848,1.);
#848 = DIRECTION('',(-1.,0.,0.));
#849 = ORIENTED_EDGE('',*,*,#805,.F.);
#850 = PLANE('',#851);
#851 = AXIS2_PLACEMENT_3D('',#852,#853,#854);
#852 = CARTESIAN_POINT('',(22.105732484076,3.017786364273,7.706539012546
    ));
#853 = DIRECTION('',(0.,-0.342020143326,-0.939692620786));
#854 = DIRECTION('',(-1.,0.,0.));
#855 = ADVANCED_FACE('',(#856),#874,.T.);
#856 = FACE_BOUND('',#857,.T.);
#857 = EDGE_LOOP('',(#858,#859,#867,#873));
#858 = ORIENTED_EDGE('',*,*,#443,.T.);
#859 = ORIENTED_EDGE('',*,*,#860,.T.);
#860 = EDGE_CURVE('',#429,#861,#863,.T.);
#861 = VERTEX_POINT('',#862);
#862 = CARTESIAN_POINT('',(20.896050955414,1.52413175802,5.941800229532)
  );
#863 = LINE('',#864,#865);
#864 = CARTESIAN_POINT('',(20.896050955414,2.275885854649,5.668184114872
    ));
#865 = VECTOR('',#866,1.);
#866 = DIRECTION('',(0.,-0.939692620786,0.342020143326));
#867 = ORIENTED_EDGE('',*,*,#868,.T.);
#868 = EDGE_CURVE('',#861,#837,#869,.T.);
#869 = B_SPLINE_CURVE_WITH_KNOTS('',2,(#870,#871,#872),.UNSPECIFIED.,.F.
  ,.F.,(3,3),(0.,1.),.PIECEWISE_BEZIER_KNOTS.);
#870 = CARTESIAN_POINT('',(20.896050955414,1.52413175802,5.941800229532)
  );
#871 = CARTESIAN_POINT('',(21.349044585987,1.939087152292,7.081880805375
    ));
#872 = CARTESIAN_POINT('',(22.105732484076,2.266032267644,7.980155127206
    ));
#873 = ORIENTED_EDGE('',*,*,#836,.F.);
#874 = SURFACE_OF_LINEAR_EXTRUSION('',#875,#879);
#875 = B_SPLINE_CURVE_WITH_KNOTS('',2,(#876,#877,#878),.UNSPECIFIED.,.F.
  ,.F.,(3,3),(0.,1.),.PIECEWISE_BEZIER_KNOTS.);
#876 = CARTESIAN_POINT('',(20.896050955414,2.275885854649,5.668184114872
    ));
#877 = CARTESIAN_POINT('',(21.349044585987,2.690841248921,6.808264690714
    ));
#878 = CARTESIAN_POINT('',(22.105732484076,3.017786364273,7.706539012546
    ));
#879 = VECTOR('',#880,1.);
#880 = DIRECTION('',(-0.,0.939692620786,-0.342020143326));
#881 = ADVANCED_FACE('',(#882),#900,.T.);
#882 = FACE_BOUND('',#883,.T.);
#883 = EDGE_LOOP('',(#884,#885,#893,#899));
#884 = ORIENTED_EDGE('',*,*,#428,.T.);
#885 = ORIENTED_EDGE('',*,*,#886,.T.);
#886 = EDGE_CURVE('',#421,#887,#889,.T.);
#887 = VERTEX_POINT('',#888);
#888 = CARTESIAN_POINT('',(20.416560509554,0.71008024746,3.705212085995)
  );
#889 = LINE('',#890,#891);
#890 = CARTESIAN_POINT('',(20.416560509554,1.461834344089,3.431595971335
    ));
#891 = VECTOR('',#892,1.);
#892 = DIRECTION('',(0.,-0.939692620786,0.342020143326));
#893 = ORIENTED_EDGE('',*,*,#894,.T.);
#894 = EDGE_CURVE('',#887,#861,#895,.T.);
#895 = B_SPLINE_CURVE_WITH_KNOTS('',2,(#896,#897,#898),.UNSPECIFIED.,.F.
  ,.F.,(3,3),(0.,1.),.PIECEWISE_BEZIER_KNOTS.);
#896 = CARTESIAN_POINT('',(20.416560509554,0.71008024746,3.705212085995)
  );
#897 = CARTESIAN_POINT('',(20.443312101911,1.109263502638,4.801959065822
    ));
#898 = CARTESIAN_POINT('',(20.896050955414,1.52413175802,5.941800229532)
  );
#899 = ORIENTED_EDGE('',*,*,#860,.F.);
#900 = SURFACE_OF_LINEAR_EXTRUSION('',#901,#905);
#901 = B_SPLINE_CURVE_WITH_KNOTS('',2,(#902,#903,#904),.UNSPECIFIED.,.F.
  ,.F.,(3,3),(0.,1.),.PIECEWISE_BEZIER_KNOTS.);
#902 = CARTESIAN_POINT('',(20.416560509554,1.461834344089,3.431595971335
    ));
#903 = CARTESIAN_POINT('',(20.443312101911,1.861017599267,4.528342951162
    ));
#904 = CARTESIAN_POINT('',(20.896050955414,2.275885854649,5.668184114872
    ));
#905 = VECTOR('',#906,1.);
#906 = DIRECTION('',(-0.,0.939692620786,-0.342020143326));
#907 = ADVANCED_FACE('',(#908),#926,.T.);
#908 = FACE_BOUND('',#909,.T.);
#909 = EDGE_LOOP('',(#910,#911,#919,#925));
#910 = ORIENTED_EDGE('',*,*,#420,.T.);
#911 = ORIENTED_EDGE('',*,*,#912,.T.);
#912 = EDGE_CURVE('',#406,#913,#915,.T.);
#913 = VERTEX_POINT('',#914);
#914 = CARTESIAN_POINT('',(21.452229299363,0.71008024746,3.705212085995)
  );
#915 = LINE('',#916,#917);
#916 = CARTESIAN_POINT('',(21.452229299363,1.461834344089,3.431595971335
    ));
#917 = VECTOR('',#918,1.);
#918 = DIRECTION('',(0.,-0.939692620786,0.342020143326));
#919 = ORIENTED_EDGE('',*,*,#920,.T.);
#920 = EDGE_CURVE('',#913,#887,#921,.T.);
#921 = LINE('',#922,#923);
#922 = CARTESIAN_POINT('',(21.452229299363,0.71008024746,3.705212085995)
  );
#923 = VECTOR('',#924,1.);
#924 = DIRECTION('',(-1.,0.,0.));
#925 = ORIENTED_EDGE('',*,*,#886,.F.);
#926 = PLANE('',#927);
#927 = AXIS2_PLACEMENT_3D('',#928,#929,#930);
#928 = CARTESIAN_POINT('',(21.452229299363,1.461834344089,3.431595971335
    ));
#929 = DIRECTION('',(0.,-0.342020143326,-0.939692620786));
#930 = DIRECTION('',(-1.,0.,0.));
#931 = ADVANCED_FACE('',(#932),#950,.T.);
#932 = FACE_BOUND('',#933,.T.);
#933 = EDGE_LOOP('',(#934,#935,#943,#949));
#934 = ORIENTED_EDGE('',*,*,#405,.T.);
#935 = ORIENTED_EDGE('',*,*,#936,.T.);
#936 = EDGE_CURVE('',#391,#937,#939,.T.);
#937 = VERTEX_POINT('',#938);
#938 = CARTESIAN_POINT('',(21.694777070064,1.287636810508,5.292035701427
    ));
#939 = LINE('',#940,#941);
#940 = CARTESIAN_POINT('',(21.694777070064,2.039390907137,5.018419586766
    ));
#941 = VECTOR('',#942,1.);
#942 = DIRECTION('',(0.,-0.939692620786,0.342020143326));
#943 = ORIENTED_EDGE('',*,*,#944,.T.);
#944 = EDGE_CURVE('',#937,#913,#945,.T.);
#945 = B_SPLINE_CURVE_WITH_KNOTS('',2,(#946,#947,#948),.UNSPECIFIED.,.F.
  ,.F.,(3,3),(0.,1.),.PIECEWISE_BEZIER_KNOTS.);
#946 = CARTESIAN_POINT('',(21.694777070064,1.287636810508,5.292035701427
    ));
#947 = CARTESIAN_POINT('',(21.448407643312,0.964438667426,4.404056101301
    ));
#948 = CARTESIAN_POINT('',(21.452229299363,0.71008024746,3.705212085995)
  );
#949 = ORIENTED_EDGE('',*,*,#912,.F.);
#950 = SURFACE_OF_LINEAR_EXTRUSION('',#951,#955);
#951 = B_SPLINE_CURVE_WITH_KNOTS('',2,(#952,#953,#954),.UNSPECIFIED.,.F.
  ,.F.,(3,3),(0.,1.),.PIECEWISE_BEZIER_KNOTS.);
#952 = CARTESIAN_POINT('',(21.694777070064,2.039390907137,5.018419586766
    ));
#953 = CARTESIAN_POINT('',(21.448407643312,1.716192764055,4.13043998664)
  );
#954 = CARTESIAN_POINT('',(21.452229299363,1.461834344089,3.431595971335
    ));
#955 = VECTOR('',#956,1.);
#956 = DIRECTION('',(-0.,0.939692620786,-0.342020143326));
#957 = ADVANCED_FACE('',(#958),#976,.T.);
#958 = FACE_BOUND('',#959,.T.);
#959 = EDGE_LOOP('',(#960,#961,#969,#975));
#960 = ORIENTED_EDGE('',*,*,#390,.T.);
#961 = ORIENTED_EDGE('',*,*,#962,.T.);
#962 = EDGE_CURVE('',#376,#963,#965,.T.);
#963 = VERTEX_POINT('',#964);
#964 = CARTESIAN_POINT('',(22.411464968153,1.897957596203,6.968878278748
    ));
#965 = LINE('',#966,#967);
#966 = CARTESIAN_POINT('',(22.411464968153,2.649711692832,6.695262164087
    ));
#967 = VECTOR('',#968,1.);
#968 = DIRECTION('',(0.,-0.939692620786,0.342020143326));
#969 = ORIENTED_EDGE('',*,*,#970,.T.);
#970 = EDGE_CURVE('',#963,#937,#971,.T.);
#971 = B_SPLINE_CURVE_WITH_KNOTS('',2,(#972,#973,#974),.UNSPECIFIED.,.F.
  ,.F.,(3,3),(0.,1.),.PIECEWISE_BEZIER_KNOTS.);
#972 = CARTESIAN_POINT('',(22.411464968153,1.897957596203,6.968878278748
    ));
#973 = CARTESIAN_POINT('',(21.941401273885,1.610834953589,6.180015301553
    ));
#974 = CARTESIAN_POINT('',(21.694777070064,1.287636810508,5.292035701427
    ));
#975 = ORIENTED_EDGE('',*,*,#936,.F.);
#976 = SURFACE_OF_LINEAR_EXTRUSION('',#977,#981);
#977 = B_SPLINE_CURVE_WITH_KNOTS('',2,(#978,#979,#980),.UNSPECIFIED.,.F.
  ,.F.,(3,3),(0.,1.),.PIECEWISE_BEZIER_KNOTS.);
#978 = CARTESIAN_POINT('',(22.411464968153,2.649711692832,6.695262164087
    ));
#979 = CARTESIAN_POINT('',(21.941401273885,2.362589050218,5.906399186893
    ));
#980 = CARTESIAN_POINT('',(21.694777070064,2.039390907137,5.018419586766
    ));
#981 = VECTOR('',#982,1.);
#982 = DIRECTION('',(-0.,0.939692620786,-0.342020143326));
#983 = ADVANCED_FACE('',(#984),#1002,.T.);
#984 = FACE_BOUND('',#985,.T.);
#985 = EDGE_LOOP('',(#986,#987,#995,#1001));
#986 = ORIENTED_EDGE('',*,*,#375,.T.);
#987 = ORIENTED_EDGE('',*,*,#988,.T.);
#988 = EDGE_CURVE('',#368,#989,#991,.T.);
#989 = VERTEX_POINT('',#990);
#990 = CARTESIAN_POINT('',(23.336305732484,2.33853182414,8.1793460216));
#991 = LINE('',#992,#993);
#992 = CARTESIAN_POINT('',(23.336305732484,3.090285920769,7.905729906939
    ));
#993 = VECTOR('',#994,1.);
#994 = DIRECTION('',(0.,-0.939692620786,0.342020143326));
#995 = ORIENTED_EDGE('',*,*,#996,.T.);
#996 = EDGE_CURVE('',#989,#963,#997,.T.);
#997 = B_SPLINE_CURVE_WITH_KNOTS('',2,(#998,#999,#1000),.UNSPECIFIED.,
  .F.,.F.,(3,3),(0.,1.),.PIECEWISE_BEZIER_KNOTS.);
#998 = CARTESIAN_POINT('',(23.336305732484,2.33853182414,8.1793460216));
#999 = CARTESIAN_POINT('',(22.88152866242,2.185167377707,7.757980668075)
  );
#1000 = CARTESIAN_POINT('',(22.411464968153,1.897957596203,
    6.968878278748));
#1001 = ORIENTED_EDGE('',*,*,#962,.F.);
#1002 = SURFACE_OF_LINEAR_EXTRUSION('',#1003,#1007);
#1003 = B_SPLINE_CURVE_WITH_KNOTS('',2,(#1004,#1005,#1006),
  .UNSPECIFIED.,.F.,.F.,(3,3),(0.,1.),.PIECEWISE_BEZIER_KNOTS.);
#1004 = CARTESIAN_POINT('',(23.336305732484,3.090285920769,
    7.905729906939));
#1005 = CARTESIAN_POINT('',(22.88152866242,2.936921474335,7.484364553415
    ));
#1006 = CARTESIAN_POINT('',(22.411464968153,2.649711692832,
    6.695262164087));
#1007 = VECTOR('',#1008,1.);
#1008 = DIRECTION('',(-0.,0.939692620786,-0.342020143326));
#1009 = ADVANCED_FACE('',(#1010),#1028,.T.);
#1010 = FACE_BOUND('',#1011,.T.);
#1011 = EDGE_LOOP('',(#1012,#1013,#1021,#1027));
#1012 = ORIENTED_EDGE('',*,*,#367,.T.);
#1013 = ORIENTED_EDGE('',*,*,#1014,.T.);
#1014 = EDGE_CURVE('',#360,#1015,#1017,.T.);
#1015 = VERTEX_POINT('',#1016);
#1016 = CARTESIAN_POINT('',(23.336305732484,2.60622249428,8.914820093206
    ));
#1017 = LINE('',#1018,#1019);
#1018 = CARTESIAN_POINT('',(23.336305732484,3.357976590908,
    8.641203978545));
#1019 = VECTOR('',#1020,1.);
#1020 = DIRECTION('',(0.,-0.939692620786,0.342020143326));
#1021 = ORIENTED_EDGE('',*,*,#1022,.T.);
#1022 = EDGE_CURVE('',#1015,#989,#1023,.T.);
#1023 = LINE('',#1024,#1025);
#1024 = CARTESIAN_POINT('',(23.336305732484,2.60622249428,8.914820093206
    ));
#1025 = VECTOR('',#1026,1.);
#1026 = DIRECTION('',(0.,-0.342020143326,-0.939692620786));
#1027 = ORIENTED_EDGE('',*,*,#988,.F.);
#1028 = PLANE('',#1029);
#1029 = AXIS2_PLACEMENT_3D('',#1030,#1031,#1032);
#1030 = CARTESIAN_POINT('',(23.336305732484,3.357976590908,
    8.641203978545));
#1031 = DIRECTION('',(1.,0.,0.));
#1032 = DIRECTION('',(0.,-0.342020143326,-0.939692620786));
#1033 = ADVANCED_FACE('',(#1034),#1045,.T.);
#1034 = FACE_BOUND('',#1035,.T.);
#1035 = EDGE_LOOP('',(#1036,#1037,#1038,#1044));
#1036 = ORIENTED_EDGE('',*,*,#359,.T.);
#1037 = ORIENTED_EDGE('',*,*,#821,.T.);
#1038 = ORIENTED_EDGE('',*,*,#1039,.T.);
#1039 = EDGE_CURVE('',#814,#1015,#1040,.T.);
#1040 = LINE('',#1041,#1042);
#1041 = CARTESIAN_POINT('',(19.663694267516,2.60622249428,8.914820093206
    ));
#1042 = VECTOR('',#1043,1.);
#1043 = DIRECTION('',(1.,0.,0.));
#1044 = ORIENTED_EDGE('',*,*,#1014,.F.);
#1045 = PLANE('',#1046);
#1046 = AXIS2_PLACEMENT_3D('',#1047,#1048,#1049);
#1047 = CARTESIAN_POINT('',(19.663694267516,3.357976590908,
    8.641203978545));
#1048 = DIRECTION('',(0.,0.342020143326,0.939692620786));
#1049 = DIRECTION('',(1.,0.,0.));
#1050 = ADVANCED_FACE('',(#1051),#1076,.F.);
#1051 = FACE_BOUND('',#1052,.F.);
#1052 = EDGE_LOOP('',(#1053,#1061,#1069,#1075));
#1053 = ORIENTED_EDGE('',*,*,#1054,.F.);
#1054 = EDGE_CURVE('',#1055,#284,#1057,.T.);
#1055 = VERTEX_POINT('',#1056);
#1056 = CARTESIAN_POINT('',(47.,18.9,0.));
#1057 = LINE('',#1058,#1059);
#1058 = CARTESIAN_POINT('',(47.,18.9,0.));
#1059 = VECTOR('',#1060,1.);
#1060 = DIRECTION('',(-0.971520338783,-0.236956180191,0.));
#1061 = ORIENTED_EDGE('',*,*,#1062,.T.);
#1062 = EDGE_CURVE('',#1055,#1063,#1065,.T.);
#1063 = VERTEX_POINT('',#1064);
#1064 = CARTESIAN_POINT('',(47.,18.9,10.));
#1065 = LINE('',#1066,#1067);
#1066 = CARTESIAN_POINT('',(47.,18.9,0.));
#1067 = VECTOR('',#1068,1.);
#1068 = DIRECTION('',(0.,0.,1.));
#1069 = ORIENTED_EDGE('',*,*,#1070,.T.);
#1070 = EDGE_CURVE('',#1063,#95,#1071,.T.);
#1071 = LINE('',#1072,#1073);
#1072 = CARTESIAN_POINT('',(47.,18.9,10.));
#1073 = VECTOR('',#1074,1.);
#1074 = DIRECTION('',(-0.971520338783,-0.236956180191,0.));
#1075 = ORIENTED_EDGE('',*,*,#541,.T.);
#1076 = PLANE('',#1077);
#1077 = AXIS2_PLACEMENT_3D('',#1078,#1079,#1080);
#1078 = CARTESIAN_POINT('',(47.,18.9,0.));
#1079 = DIRECTION('',(0.236956180191,-0.971520338783,0.));
#1080 = DIRECTION('',(-0.971520338783,-0.236956180191,0.));
#1081 = ADVANCED_FACE('',(#1082),#1100,.T.);
#1082 = FACE_BOUND('',#1083,.T.);
#1083 = EDGE_LOOP('',(#1084,#1085,#1093,#1099));
#1084 = ORIENTED_EDGE('',*,*,#558,.F.);
#1085 = ORIENTED_EDGE('',*,*,#1086,.T.);
#1086 = EDGE_CURVE('',#71,#1087,#1089,.T.);
#1087 = VERTEX_POINT('',#1088);
#1088 = CARTESIAN_POINT('',(47.,12.9,10.));
#1089 = LINE('',#1090,#1091);
#1090 = CARTESIAN_POINT('',(42.9,13.9,10.));
#1091 = VECTOR('',#1092,1.);
#1092 = DIRECTION('',(0.971520338783,-0.236956180191,0.));
#1093 = ORIENTED_EDGE('',*,*,#1094,.T.);
#1094 = EDGE_CURVE('',#1087,#1063,#1095,.T.);
#1095 = LINE('',#1096,#1097);
#1096 = CARTESIAN_POINT('',(47.,12.9,10.));
#1097 = VECTOR('',#1098,1.);
#1098 = DIRECTION('',(0.,1.,0.));
#1099 = ORIENTED_EDGE('',*,*,#1070,.T.);
#1100 = PLANE('',#1101);
#1101 = AXIS2_PLACEMENT_3D('',#1102,#1103,#1104);
#1102 = CARTESIAN_POINT('',(45.172338161771,15.9,10.));
#1103 = DIRECTION('',(0.,0.,1.));
#1104 = DIRECTION('',(1.,0.,0.));
#1105 = ADVANCED_FACE('',(#1106),#1124,.F.);
#1106 = FACE_BOUND('',#1107,.F.);
#1107 = EDGE_LOOP('',(#1108,#1116,#1117,#1118));
#1108 = ORIENTED_EDGE('',*,*,#1109,.F.);
#1109 = EDGE_CURVE('',#260,#1110,#1112,.T.);
#1110 = VERTEX_POINT('',#1111);
#1111 = CARTESIAN_POINT('',(47.,12.9,0.));
#1112 = LINE('',#1113,#1114);
#1113 = CARTESIAN_POINT('',(42.9,13.9,0.));
#1114 = VECTOR('',#1115,1.);
#1115 = DIRECTION('',(0.971520338783,-0.236956180191,0.));
#1116 = ORIENTED_EDGE('',*,*,#577,.T.);
#1117 = ORIENTED_EDGE('',*,*,#1086,.T.);
#1118 = ORIENTED_EDGE('',*,*,#1119,.F.);
#1119 = EDGE_CURVE('',#1110,#1087,#1120,.T.);
#1120 = LINE('',#1121,#1122);
#1121 = CARTESIAN_POINT('',(47.,12.9,0.));
#1122 = VECTOR('',#1123,1.);
#1123 = DIRECTION('',(0.,0.,1.));
#1124 = PLANE('',#1125);
#1125 = AXIS2_PLACEMENT_3D('',#1126,#1127,#1128);
#1126 = CARTESIAN_POINT('',(42.9,13.9,0.));
#1127 = DIRECTION('',(0.236956180191,0.971520338783,0.));
#1128 = DIRECTION('',(0.971520338783,-0.236956180191,0.));
#1129 = ADVANCED_FACE('',(#1130),#1156,.T.);
#1130 = FACE_BOUND('',#1131,.T.);
#1131 = EDGE_LOOP('',(#1132,#1140,#1141,#1149));
#1132 = ORIENTED_EDGE('',*,*,#1133,.F.);
#1133 = EDGE_CURVE('',#592,#1134,#1136,.T.);
#1134 = VERTEX_POINT('',#1135);
#1135 = CARTESIAN_POINT('',(18.185,36.275,21.));
#1136 = LINE('',#1137,#1138);
#1137 = CARTESIAN_POINT('',(18.185,36.525,20.75));
#1138 = VECTOR('',#1139,1.);
#1139 = DIRECTION('',(-2.90882763039E-35,-0.707106781187,0.707106781187)
  );
#1140 = ORIENTED_EDGE('',*,*,#608,.T.);
#1141 = ORIENTED_EDGE('',*,*,#1142,.T.);
#1142 = EDGE_CURVE('',#601,#1143,#1145,.T.);
#1143 = VERTEX_POINT('',#1144);
#1144 = CARTESIAN_POINT('',(18.085,36.175,21.));
#1145 = LINE('',#1146,#1147);
#1146 = CARTESIAN_POINT('',(17.585,36.175,20.5));
#1147 = VECTOR('',#1148,1.);
#1148 = DIRECTION('',(0.707106781187,-4.329780281177E-17,0.707106781187)
  );
#1149 = ORIENTED_EDGE('',*,*,#1150,.F.);
#1150 = EDGE_CURVE('',#1134,#1143,#1151,.T.);
#1151 = CIRCLE('',#1152,1.E-01);
#1152 = AXIS2_PLACEMENT_3D('',#1153,#1154,#1155);
#1153 = CARTESIAN_POINT('',(18.185,36.175,21.));
#1154 = DIRECTION('',(0.,-0.,1.));
#1155 = DIRECTION('',(0.,1.,0.));
#1156 = CONICAL_SURFACE('',#1157,0.6,0.785398163397);
#1157 = AXIS2_PLACEMENT_3D('',#1158,#1159,#1160);
#1158 = CARTESIAN_POINT('',(18.185,36.175,20.5));
#1159 = DIRECTION('',(-0.,-0.,-1.));
#1160 = DIRECTION('',(0.,1.,0.));
#1161 = ADVANCED_FACE('',(#1162),#1180,.F.);
#1162 = FACE_BOUND('',#1163,.T.);
#1163 = EDGE_LOOP('',(#1164,#1172,#1173,#1174));
#1164 = ORIENTED_EDGE('',*,*,#1165,.F.);
#1165 = EDGE_CURVE('',#625,#1166,#1168,.T.);
#1166 = VERTEX_POINT('',#1167);
#1167 = CARTESIAN_POINT('',(24.815,36.275,21.));
#1168 = LINE('',#1169,#1170);
#1169 = CARTESIAN_POINT('',(24.815,36.525,20.75));
#1170 = VECTOR('',#1171,1.);
#1171 = DIRECTION('',(-2.90882763039E-35,-0.707106781187,0.707106781187)
  );
#1172 = ORIENTED_EDGE('',*,*,#632,.T.);
#1173 = ORIENTED_EDGE('',*,*,#1133,.T.);
#1174 = ORIENTED_EDGE('',*,*,#1175,.F.);
#1175 = EDGE_CURVE('',#1166,#1134,#1176,.T.);
#1176 = LINE('',#1177,#1178);
#1177 = CARTESIAN_POINT('',(24.815,36.275,21.));
#1178 = VECTOR('',#1179,1.);
#1179 = DIRECTION('',(-1.,0.,0.));
#1180 = PLANE('',#1181);
#1181 = AXIS2_PLACEMENT_3D('',#1182,#1183,#1184);
#1182 = CARTESIAN_POINT('',(24.815,36.525,20.75));
#1183 = DIRECTION('',(-1.889513820523E-18,-0.707106781187,
    -0.707106781187));
#1184 = DIRECTION('',(1.,-1.336088035637E-18,-1.336088035637E-18));
#1185 = ADVANCED_FACE('',(#1186),#1204,.F.);
#1186 = FACE_BOUND('',#1187,.T.);
#1187 = EDGE_LOOP('',(#1188,#1189,#1190,#1198));
#1188 = ORIENTED_EDGE('',*,*,#1142,.F.);
#1189 = ORIENTED_EDGE('',*,*,#649,.T.);
#1190 = ORIENTED_EDGE('',*,*,#1191,.T.);
#1191 = EDGE_CURVE('',#650,#1192,#1194,.T.);
#1192 = VERTEX_POINT('',#1193);
#1193 = CARTESIAN_POINT('',(18.085,29.545,21.));
#1194 = LINE('',#1195,#1196);
#1195 = CARTESIAN_POINT('',(17.835,29.545,20.75));
#1196 = VECTOR('',#1197,1.);
#1197 = DIRECTION('',(0.707106781187,-2.90882763039E-35,0.707106781187)
  );
#1198 = ORIENTED_EDGE('',*,*,#1199,.F.);
#1199 = EDGE_CURVE('',#1143,#1192,#1200,.T.);
#1200 = LINE('',#1201,#1202);
#1201 = CARTESIAN_POINT('',(18.085,36.175,21.));
#1202 = VECTOR('',#1203,1.);
#1203 = DIRECTION('',(0.,-1.,0.));
#1204 = PLANE('',#1205);
#1205 = AXIS2_PLACEMENT_3D('',#1206,#1207,#1208);
#1206 = CARTESIAN_POINT('',(17.835,36.175,20.75));
#1207 = DIRECTION('',(0.707106781187,1.889513820523E-18,-0.707106781187)
  );
#1208 = DIRECTION('',(-1.336088035637E-18,1.,1.336088035637E-18));
#1209 = ADVANCED_FACE('',(#1210),#1229,.T.);
#1210 = FACE_BOUND('',#1211,.T.);
#1211 = EDGE_LOOP('',(#1212,#1220,#1221,#1222));
#1212 = ORIENTED_EDGE('',*,*,#1213,.F.);
#1213 = EDGE_CURVE('',#674,#1214,#1216,.T.);
#1214 = VERTEX_POINT('',#1215);
#1215 = CARTESIAN_POINT('',(24.915,36.175,21.));
#1216 = LINE('',#1217,#1218);
#1217 = CARTESIAN_POINT('',(25.165,36.175,20.75));
#1218 = VECTOR('',#1219,1.);
#1219 = DIRECTION('',(-0.707106781187,2.90882763039E-35,0.707106781187)
  );
#1220 = ORIENTED_EDGE('',*,*,#681,.T.);
#1221 = ORIENTED_EDGE('',*,*,#1165,.T.);
#1222 = ORIENTED_EDGE('',*,*,#1223,.F.);
#1223 = EDGE_CURVE('',#1214,#1166,#1224,.T.);
#1224 = CIRCLE('',#1225,1.E-01);
#1225 = AXIS2_PLACEMENT_3D('',#1226,#1227,#1228);
#1226 = CARTESIAN_POINT('',(24.815,36.175,21.));
#1227 = DIRECTION('',(0.,0.,1.));
#1228 = DIRECTION('',(1.,0.,0.));
#1229 = CONICAL_SURFACE('',#1230,0.6,0.785398163397);
#1230 = AXIS2_PLACEMENT_3D('',#1231,#1232,#1233);
#1231 = CARTESIAN_POINT('',(24.815,36.175,20.5));
#1232 = DIRECTION('',(-0.,-0.,-1.));
#1233 = DIRECTION('',(1.,0.,0.));
#1234 = ADVANCED_FACE('',(#1235),#1254,.T.);
#1235 = FACE_BOUND('',#1236,.T.);
#1236 = EDGE_LOOP('',(#1237,#1238,#1239,#1247));
#1237 = ORIENTED_EDGE('',*,*,#1191,.F.);
#1238 = ORIENTED_EDGE('',*,*,#706,.T.);
#1239 = ORIENTED_EDGE('',*,*,#1240,.T.);
#1240 = EDGE_CURVE('',#699,#1241,#1243,.T.);
#1241 = VERTEX_POINT('',#1242);
#1242 = CARTESIAN_POINT('',(18.185,29.445,21.));
#1243 = LINE('',#1244,#1245);
#1244 = CARTESIAN_POINT('',(18.185,28.945,20.5));
#1245 = VECTOR('',#1246,1.);
#1246 = DIRECTION('',(4.329780281177E-17,0.707106781187,0.707106781187)
  );
#1247 = ORIENTED_EDGE('',*,*,#1248,.F.);
#1248 = EDGE_CURVE('',#1192,#1241,#1249,.T.);
#1249 = CIRCLE('',#1250,1.E-01);
#1250 = AXIS2_PLACEMENT_3D('',#1251,#1252,#1253);
#1251 = CARTESIAN_POINT('',(18.185,29.545,21.));
#1252 = DIRECTION('',(0.,0.,1.));
#1253 = DIRECTION('',(-1.,0.,0.));
#1254 = CONICAL_SURFACE('',#1255,0.6,0.785398163397);
#1255 = AXIS2_PLACEMENT_3D('',#1256,#1257,#1258);
#1256 = CARTESIAN_POINT('',(18.185,29.545,20.5));
#1257 = DIRECTION('',(-0.,-0.,-1.));
#1258 = DIRECTION('',(-1.,0.,0.));
#1259 = ADVANCED_FACE('',(#1260),#1278,.F.);
#1260 = FACE_BOUND('',#1261,.T.);
#1261 = EDGE_LOOP('',(#1262,#1270,#1271,#1272));
#1262 = ORIENTED_EDGE('',*,*,#1263,.F.);
#1263 = EDGE_CURVE('',#723,#1264,#1266,.T.);
#1264 = VERTEX_POINT('',#1265);
#1265 = CARTESIAN_POINT('',(24.915,29.545,21.));
#1266 = LINE('',#1267,#1268);
#1267 = CARTESIAN_POINT('',(25.415,29.545,20.5));
#1268 = VECTOR('',#1269,1.);
#1269 = DIRECTION('',(-0.707106781187,4.329780281177E-17,0.707106781187)
  );
#1270 = ORIENTED_EDGE('',*,*,#730,.T.);
#1271 = ORIENTED_EDGE('',*,*,#1213,.T.);
#1272 = ORIENTED_EDGE('',*,*,#1273,.F.);
#1273 = EDGE_CURVE('',#1264,#1214,#1274,.T.);
#1274 = LINE('',#1275,#1276);
#1275 = CARTESIAN_POINT('',(24.915,29.545,21.));
#1276 = VECTOR('',#1277,1.);
#1277 = DIRECTION('',(0.,1.,0.));
#1278 = PLANE('',#1279);
#1279 = AXIS2_PLACEMENT_3D('',#1280,#1281,#1282);
#1280 = CARTESIAN_POINT('',(25.165,29.545,20.75));
#1281 = DIRECTION('',(-0.707106781187,-1.889513820523E-18,
    -0.707106781187));
#1282 = DIRECTION('',(1.336088035637E-18,-1.,1.336088035637E-18));
#1283 = ADVANCED_FACE('',(#1284),#1302,.F.);
#1284 = FACE_BOUND('',#1285,.T.);
#1285 = EDGE_LOOP('',(#1286,#1287,#1288,#1296));
#1286 = ORIENTED_EDGE('',*,*,#1240,.F.);
#1287 = ORIENTED_EDGE('',*,*,#747,.T.);
#1288 = ORIENTED_EDGE('',*,*,#1289,.T.);
#1289 = EDGE_CURVE('',#748,#1290,#1292,.T.);
#1290 = VERTEX_POINT('',#1291);
#1291 = CARTESIAN_POINT('',(24.815,29.445,21.));
#1292 = LINE('',#1293,#1294);
#1293 = CARTESIAN_POINT('',(24.815,29.195,20.75));
#1294 = VECTOR('',#1295,1.);
#1295 = DIRECTION('',(2.90882763039E-35,0.707106781187,0.707106781187));
#1296 = ORIENTED_EDGE('',*,*,#1297,.F.);
#1297 = EDGE_CURVE('',#1241,#1290,#1298,.T.);
#1298 = LINE('',#1299,#1300);
#1299 = CARTESIAN_POINT('',(18.185,29.445,21.));
#1300 = VECTOR('',#1301,1.);
#1301 = DIRECTION('',(1.,0.,0.));
#1302 = PLANE('',#1303);
#1303 = AXIS2_PLACEMENT_3D('',#1304,#1305,#1306);
#1304 = CARTESIAN_POINT('',(18.185,29.195,20.75));
#1305 = DIRECTION('',(1.889513820523E-18,0.707106781187,-0.707106781187)
  );
#1306 = DIRECTION('',(-1.,1.336088035637E-18,-1.336088035637E-18));
#1307 = ADVANCED_FACE('',(#1308),#1320,.T.);
#1308 = FACE_BOUND('',#1309,.T.);
#1309 = EDGE_LOOP('',(#1310,#1311,#1312,#1313));
#1310 = ORIENTED_EDGE('',*,*,#1289,.F.);
#1311 = ORIENTED_EDGE('',*,*,#772,.T.);
#1312 = ORIENTED_EDGE('',*,*,#1263,.T.);
#1313 = ORIENTED_EDGE('',*,*,#1314,.F.);
#1314 = EDGE_CURVE('',#1290,#1264,#1315,.T.);
#1315 = CIRCLE('',#1316,1.E-01);
#1316 = AXIS2_PLACEMENT_3D('',#1317,#1318,#1319);
#1317 = CARTESIAN_POINT('',(24.815,29.545,21.));
#1318 = DIRECTION('',(-0.,0.,1.));
#1319 = DIRECTION('',(0.,-1.,0.));
#1320 = CONICAL_SURFACE('',#1321,0.6,0.785398163397);
#1321 = AXIS2_PLACEMENT_3D('',#1322,#1323,#1324);
#1322 = CARTESIAN_POINT('',(24.815,29.545,20.5));
#1323 = DIRECTION('',(-0.,-0.,-1.));
#1324 = DIRECTION('',(0.,-1.,0.));
#1325 = ADVANCED_FACE('',(#1326),#1337,.F.);
#1326 = FACE_BOUND('',#1327,.F.);
#1327 = EDGE_LOOP('',(#1328,#1329,#1330,#1336));
#1328 = ORIENTED_EDGE('',*,*,#788,.F.);
#1329 = ORIENTED_EDGE('',*,*,#1109,.T.);
#1330 = ORIENTED_EDGE('',*,*,#1331,.T.);
#1331 = EDGE_CURVE('',#1110,#1055,#1332,.T.);
#1332 = LINE('',#1333,#1334);
#1333 = CARTESIAN_POINT('',(47.,12.9,0.));
#1334 = VECTOR('',#1335,1.);
#1335 = DIRECTION('',(0.,1.,0.));
#1336 = ORIENTED_EDGE('',*,*,#1054,.T.);
#1337 = PLANE('',#1338);
#1338 = AXIS2_PLACEMENT_3D('',#1339,#1340,#1341);
#1339 = CARTESIAN_POINT('',(45.172338161771,15.9,0.));
#1340 = DIRECTION('',(0.,0.,1.));
#1341 = DIRECTION('',(1.,0.,0.));
#1342 = ADVANCED_FACE('',(#1343),#1355,.T.);
#1343 = FACE_BOUND('',#1344,.F.);
#1344 = EDGE_LOOP('',(#1345,#1346,#1347,#1348,#1349,#1350,#1351,#1352,
    #1353,#1354));
#1345 = ORIENTED_EDGE('',*,*,#813,.T.);
#1346 = ORIENTED_EDGE('',*,*,#1039,.T.);
#1347 = ORIENTED_EDGE('',*,*,#1022,.T.);
#1348 = ORIENTED_EDGE('',*,*,#996,.T.);
#1349 = ORIENTED_EDGE('',*,*,#970,.T.);
#1350 = ORIENTED_EDGE('',*,*,#944,.T.);
#1351 = ORIENTED_EDGE('',*,*,#920,.T.);
#1352 = ORIENTED_EDGE('',*,*,#894,.T.);
#1353 = ORIENTED_EDGE('',*,*,#868,.T.);
#1354 = ORIENTED_EDGE('',*,*,#844,.T.);
#1355 = PLANE('',#1356);
#1356 = AXIS2_PLACEMENT_3D('',#1357,#1358,#1359);
#1357 = CARTESIAN_POINT('',(21.42033507134,1.877888413251,6.913738651761
    ));
#1358 = DIRECTION('',(0.,-0.939692620786,0.342020143326));
#1359 = DIRECTION('',(1.,0.,0.));
#1360 = ADVANCED_FACE('',(#1361),#1367,.F.);
#1361 = FACE_BOUND('',#1362,.F.);
#1362 = EDGE_LOOP('',(#1363,#1364,#1365,#1366));
#1363 = ORIENTED_EDGE('',*,*,#1119,.T.);
#1364 = ORIENTED_EDGE('',*,*,#1094,.T.);
#1365 = ORIENTED_EDGE('',*,*,#1062,.F.);
#1366 = ORIENTED_EDGE('',*,*,#1331,.F.);
#1367 = PLANE('',#1368);
#1368 = AXIS2_PLACEMENT_3D('',#1369,#1370,#1371);
#1369 = CARTESIAN_POINT('',(47.,12.9,0.));
#1370 = DIRECTION('',(-1.,0.,0.));
#1371 = DIRECTION('',(0.,1.,0.));
#1372 = ADVANCED_FACE('',(#1373),#1383,.T.);
#1373 = FACE_BOUND('',#1374,.T.);
#1374 = EDGE_LOOP('',(#1375,#1376,#1377,#1378,#1379,#1380,#1381,#1382));
#1375 = ORIENTED_EDGE('',*,*,#1175,.T.);
#1376 = ORIENTED_EDGE('',*,*,#1150,.T.);
#1377 = ORIENTED_EDGE('',*,*,#1199,.T.);
#1378 = ORIENTED_EDGE('',*,*,#1248,.T.);
#1379 = ORIENTED_EDGE('',*,*,#1297,.T.);
#1380 = ORIENTED_EDGE('',*,*,#1314,.T.);
#1381 = ORIENTED_EDGE('',*,*,#1273,.T.);
#1382 = ORIENTED_EDGE('',*,*,#1223,.T.);
#1383 = PLANE('',#1384);
#1384 = AXIS2_PLACEMENT_3D('',#1385,#1386,#1387);
#1385 = CARTESIAN_POINT('',(21.5,32.86,21.));
#1386 = DIRECTION('',(0.,0.,1.));
#1387 = DIRECTION('',(1.,0.,0.));
#1388 = ( GEOMETRIC_REPRESENTATION_CONTEXT(3) 
GLOBAL_UNCERTAINTY_ASSIGNED_CONTEXT((#1392)) 
GLOBAL_UNIT_ASSIGNED_CONTEXT((#1389,#1390,#1391)) REPRESENTATION_CONTEXT
('Context #1','3D Context with UNIT and UNCERTAINTY') );
#1389 = ( LENGTH_UNIT() NAMED_UNIT(*) SI_UNIT(.MILLI.,.METRE.) );
#1390 = ( NAMED_UNIT(*) PLANE_ANGLE_UNIT() SI_UNIT($,.RADIAN.) );
#1391 = ( NAMED_UNIT(*) SI_UNIT($,.STERADIAN.) SOLID_ANGLE_UNIT() );
#1392 = UNCERTAINTY_MEASURE_WITH_UNIT(LENGTH_MEASURE(5.E-07),#1389,
  'distance_accuracy_value','confusion accuracy');
#1393 = PRODUCT_RELATED_PRODUCT_CATEGORY('part',$,(#7));
ENDSEC;
END-ISO-10303-21;
