ISO-10303-21;
HEADER;
FILE_DESCRIPTION(('FreeCAD Model'),'2;1');
FILE_NAME('Open CASCADE Shape Model','2026-09-01T18:47:20',('FreeCAD'),(
    'FreeCAD'),'Open CASCADE STEP processor 7.8','FreeCAD','Unknown');
FILE_SCHEMA(('AUTOMOTIVE_DESIGN { 1 0 10303 214 1 1 1 1 }'));
ENDSEC;
DATA;
#1 = APPLICATION_PROTOCOL_DEFINITION('international standard',
  'automotive_design',2000,#2);
#2 = APPLICATION_CONTEXT(
  'core data for automotive mechanical design processes');
#3 = SHAPE_DEFINITION_REPRESENTATION(#4,#10);
#4 = PRODUCT_DEFINITION_SHAPE('','',#5);
#5 = PRODUCT_DEFINITION('design','',#6,#9);
#6 = PRODUCT_DEFINITION_FORMATION('','',#7);
#7 = PRODUCT('Open CASCADE STEP translator 7.8 9',
  'Open CASCADE STEP translator 7.8 9','',(#8));
#8 = PRODUCT_CONTEXT('',#2,'mechanical');
#9 = PRODUCT_DEFINITION_CONTEXT('part definition',#2,'design');
#10 = ADVANCED_BREP_SHAPE_REPRESENTATION('',(#11,#15),#1135);
#11 = AXIS2_PLACEMENT_3D('',#12,#13,#14);
#12 = CARTESIAN_POINT('',(0.,0.,0.));
#13 = DIRECTION('',(0.,0.,1.));
#14 = DIRECTION('',(1.,0.,-0.));
#15 = MANIFOLD_SOLID_BREP('',#16);
#16 = CLOSED_SHELL('',(#17,#57,#254,#278,#366,#406,#423,#440,#457,#474,
    #491,#508,#525,#549,#573,#590,#622,#646,#670,#695,#720,#744,#768,
    #786,#803,#815,#846,#870,#894,#926,#950,#974,#999,#1024,#1048,#1072,
    #1090,#1107,#1119));
#17 = ADVANCED_FACE('',(#18),#52,.F.);
#18 = FACE_BOUND('',#19,.F.);
#19 = EDGE_LOOP('',(#20,#30,#38,#46));
#20 = ORIENTED_EDGE('',*,*,#21,.F.);
#21 = EDGE_CURVE('',#22,#24,#26,.T.);
#22 = VERTEX_POINT('',#23);
#23 = CARTESIAN_POINT('',(0.,3.639702342662,10.));
#24 = VERTEX_POINT('',#25);
#25 = CARTESIAN_POINT('',(0.,13.75,10.));
#26 = LINE('',#27,#28);
#27 = CARTESIAN_POINT('',(0.,0.,10.));
#28 = VECTOR('',#29,1.);
#29 = DIRECTION('',(0.,1.,0.));
#30 = ORIENTED_EDGE('',*,*,#31,.T.);
#31 = EDGE_CURVE('',#22,#32,#34,.T.);
#32 = VERTEX_POINT('',#33);
#33 = CARTESIAN_POINT('',(0.,0.,0.));
#34 = LINE('',#35,#36);
#35 = CARTESIAN_POINT('',(0.,0.,0.));
#36 = VECTOR('',#37,1.);
#37 = DIRECTION('',(0.,-0.342020143326,-0.939692620786));
#38 = ORIENTED_EDGE('',*,*,#39,.T.);
#39 = EDGE_CURVE('',#32,#40,#42,.T.);
#40 = VERTEX_POINT('',#41);
#41 = CARTESIAN_POINT('',(0.,13.75,0.));
#42 = LINE('',#43,#44);
#43 = CARTESIAN_POINT('',(0.,0.,0.));
#44 = VECTOR('',#45,1.);
#45 = DIRECTION('',(0.,1.,0.));
#46 = ORIENTED_EDGE('',*,*,#47,.T.);
#47 = EDGE_CURVE('',#40,#24,#48,.T.);
#48 = LINE('',#49,#50);
#49 = CARTESIAN_POINT('',(0.,13.75,-1.));
#50 = VECTOR('',#51,1.);
#51 = DIRECTION('',(0.,0.,1.));
#52 = PLANE('',#53);
#53 = AXIS2_PLACEMENT_3D('',#54,#55,#56);
#54 = CARTESIAN_POINT('',(0.,0.,0.));
#55 = DIRECTION('',(1.,0.,0.));
#56 = DIRECTION('',(0.,0.,1.));
#57 = ADVANCED_FACE('',(#58,#179),#249,.T.);
#58 = FACE_BOUND('',#59,.T.);
#59 = EDGE_LOOP('',(#60,#61,#69,#77,#85,#93,#101,#109,#117,#125,#133,
    #141,#149,#157,#165,#173));
#60 = ORIENTED_EDGE('',*,*,#21,.F.);
#61 = ORIENTED_EDGE('',*,*,#62,.T.);
#62 = EDGE_CURVE('',#22,#63,#65,.T.);
#63 = VERTEX_POINT('',#64);
#64 = CARTESIAN_POINT('',(19.85,3.639702342662,10.));
#65 = LINE('',#66,#67);
#66 = CARTESIAN_POINT('',(-1.,3.639702342662,10.));
#67 = VECTOR('',#68,1.);
#68 = DIRECTION('',(1.,0.,0.));
#69 = ORIENTED_EDGE('',*,*,#70,.F.);
#70 = EDGE_CURVE('',#71,#63,#73,.T.);
#71 = VERTEX_POINT('',#72);
#72 = CARTESIAN_POINT('',(19.1,5.768057887614,10.));
#73 = LINE('',#74,#75);
#74 = CARTESIAN_POINT('',(19.837555217401,3.67501823873,10.));
#75 = VECTOR('',#76,1.);
#76 = DIRECTION('',(0.33235339747,-0.943154928519,0.));
#77 = ORIENTED_EDGE('',*,*,#78,.F.);
#78 = EDGE_CURVE('',#79,#71,#81,.T.);
#79 = VERTEX_POINT('',#80);
#80 = CARTESIAN_POINT('',(23.9,5.768057887614,10.));
#81 = LINE('',#82,#83);
#82 = CARTESIAN_POINT('',(9.55,5.768057887614,10.));
#83 = VECTOR('',#84,1.);
#84 = DIRECTION('',(-1.,0.,0.));
#85 = ORIENTED_EDGE('',*,*,#86,.F.);
#86 = EDGE_CURVE('',#87,#79,#89,.T.);
#87 = VERTEX_POINT('',#88);
#88 = CARTESIAN_POINT('',(23.15,3.639702342662,10.));
#89 = LINE('',#90,#91);
#90 = CARTESIAN_POINT('',(21.123559786814,-2.110944676334,10.));
#91 = VECTOR('',#92,1.);
#92 = DIRECTION('',(0.33235339747,0.943154928519,0.));
#93 = ORIENTED_EDGE('',*,*,#94,.T.);
#94 = EDGE_CURVE('',#87,#95,#97,.T.);
#95 = VERTEX_POINT('',#96);
#96 = CARTESIAN_POINT('',(43.,3.639702342662,10.));
#97 = LINE('',#98,#99);
#98 = CARTESIAN_POINT('',(-1.,3.639702342662,10.));
#99 = VECTOR('',#100,1.);
#100 = DIRECTION('',(1.,0.,0.));
#101 = ORIENTED_EDGE('',*,*,#102,.T.);
#102 = EDGE_CURVE('',#95,#103,#105,.T.);
#103 = VERTEX_POINT('',#104);
#104 = CARTESIAN_POINT('',(43.,13.875609756098,10.));
#105 = LINE('',#106,#107);
#106 = CARTESIAN_POINT('',(43.,0.,10.));
#107 = VECTOR('',#108,1.);
#108 = DIRECTION('',(0.,1.,0.));
#109 = ORIENTED_EDGE('',*,*,#110,.F.);
#110 = EDGE_CURVE('',#111,#103,#113,.T.);
#111 = VERTEX_POINT('',#112);
#112 = CARTESIAN_POINT('',(42.9,13.9,10.));
#113 = LINE('',#114,#115);
#114 = CARTESIAN_POINT('',(42.9,13.9,10.));
#115 = VECTOR('',#116,1.);
#116 = DIRECTION('',(0.971520338783,-0.236956180191,0.));
#117 = ORIENTED_EDGE('',*,*,#118,.F.);
#118 = EDGE_CURVE('',#119,#111,#121,.T.);
#119 = VERTEX_POINT('',#120);
#120 = CARTESIAN_POINT('',(42.9,17.9,10.));
#121 = LINE('',#122,#123);
#122 = CARTESIAN_POINT('',(42.9,17.9,10.));
#123 = VECTOR('',#124,1.);
#124 = DIRECTION('',(0.,-1.,0.));
#125 = ORIENTED_EDGE('',*,*,#126,.F.);
#126 = EDGE_CURVE('',#127,#119,#129,.T.);
#127 = VERTEX_POINT('',#128);
#128 = CARTESIAN_POINT('',(43.,17.924390243902,10.));
#129 = LINE('',#130,#131);
#130 = CARTESIAN_POINT('',(47.,18.9,10.));
#131 = VECTOR('',#132,1.);
#132 = DIRECTION('',(-0.971520338783,-0.236956180191,0.));
#133 = ORIENTED_EDGE('',*,*,#134,.T.);
#134 = EDGE_CURVE('',#127,#135,#137,.T.);
#135 = VERTEX_POINT('',#136);
#136 = CARTESIAN_POINT('',(43.,53.,10.));
#137 = LINE('',#138,#139);
#138 = CARTESIAN_POINT('',(43.,0.,10.));
#139 = VECTOR('',#140,1.);
#140 = DIRECTION('',(0.,1.,0.));
#141 = ORIENTED_EDGE('',*,*,#142,.F.);
#142 = EDGE_CURVE('',#143,#135,#145,.T.);
#143 = VERTEX_POINT('',#144);
#144 = CARTESIAN_POINT('',(0.,53.,10.));
#145 = LINE('',#146,#147);
#146 = CARTESIAN_POINT('',(0.,53.,10.));
#147 = VECTOR('',#148,1.);
#148 = DIRECTION('',(1.,0.,0.));
#149 = ORIENTED_EDGE('',*,*,#150,.F.);
#150 = EDGE_CURVE('',#151,#143,#153,.T.);
#151 = VERTEX_POINT('',#152);
#152 = CARTESIAN_POINT('',(0.,18.05,10.));
#153 = LINE('',#154,#155);
#154 = CARTESIAN_POINT('',(0.,0.,10.));
#155 = VECTOR('',#156,1.);
#156 = DIRECTION('',(0.,1.,0.));
#157 = ORIENTED_EDGE('',*,*,#158,.T.);
#158 = EDGE_CURVE('',#151,#159,#161,.T.);
#159 = VERTEX_POINT('',#160);
#160 = CARTESIAN_POINT('',(4.,19.05,10.));
#161 = LINE('',#162,#163);
#162 = CARTESIAN_POINT('',(-0.123529411765,18.019117647059,10.));
#163 = VECTOR('',#164,1.);
#164 = DIRECTION('',(0.970142500145,0.242535625036,0.));
#165 = ORIENTED_EDGE('',*,*,#166,.T.);
#166 = EDGE_CURVE('',#159,#167,#169,.T.);
#167 = VERTEX_POINT('',#168);
#168 = CARTESIAN_POINT('',(4.,12.75,10.));
#169 = LINE('',#170,#171);
#170 = CARTESIAN_POINT('',(4.,6.375,10.));
#171 = VECTOR('',#172,1.);
#172 = DIRECTION('',(0.,-1.,0.));
#173 = ORIENTED_EDGE('',*,*,#174,.T.);
#174 = EDGE_CURVE('',#167,#24,#175,.T.);
#175 = LINE('',#176,#177);
#176 = CARTESIAN_POINT('',(1.617647058824,13.345588235294,10.));
#177 = VECTOR('',#178,1.);
#178 = DIRECTION('',(-0.970142500145,0.242535625036,0.));
#179 = FACE_BOUND('',#180,.T.);
#180 = EDGE_LOOP('',(#181,#192,#200,#209,#217,#226,#234,#243));
#181 = ORIENTED_EDGE('',*,*,#182,.F.);
#182 = EDGE_CURVE('',#183,#185,#187,.T.);
#183 = VERTEX_POINT('',#184);
#184 = CARTESIAN_POINT('',(18.185,36.775,10.));
#185 = VERTEX_POINT('',#186);
#186 = CARTESIAN_POINT('',(17.585,36.175,10.));
#187 = CIRCLE('',#188,0.6);
#188 = AXIS2_PLACEMENT_3D('',#189,#190,#191);
#189 = CARTESIAN_POINT('',(18.185,36.175,10.));
#190 = DIRECTION('',(0.,-0.,1.));
#191 = DIRECTION('',(0.,1.,0.));
#192 = ORIENTED_EDGE('',*,*,#193,.T.);
#193 = EDGE_CURVE('',#183,#194,#196,.T.);
#194 = VERTEX_POINT('',#195);
#195 = CARTESIAN_POINT('',(24.815,36.775,10.));
#196 = LINE('',#197,#198);
#197 = CARTESIAN_POINT('',(12.7075,36.775,10.));
#198 = VECTOR('',#199,1.);
#199 = DIRECTION('',(1.,0.,0.));
#200 = ORIENTED_EDGE('',*,*,#201,.F.);
#201 = EDGE_CURVE('',#202,#194,#204,.T.);
#202 = VERTEX_POINT('',#203);
#203 = CARTESIAN_POINT('',(25.415,36.175,10.));
#204 = CIRCLE('',#205,0.6);
#205 = AXIS2_PLACEMENT_3D('',#206,#207,#208);
#206 = CARTESIAN_POINT('',(24.815,36.175,10.));
#207 = DIRECTION('',(0.,-0.,1.));
#208 = DIRECTION('',(0.,1.,0.));
#209 = ORIENTED_EDGE('',*,*,#210,.T.);
#210 = EDGE_CURVE('',#202,#211,#213,.T.);
#211 = VERTEX_POINT('',#212);
#212 = CARTESIAN_POINT('',(25.415,29.545,10.));
#213 = LINE('',#214,#215);
#214 = CARTESIAN_POINT('',(25.415,14.4725,10.));
#215 = VECTOR('',#216,1.);
#216 = DIRECTION('',(0.,-1.,0.));
#217 = ORIENTED_EDGE('',*,*,#218,.F.);
#218 = EDGE_CURVE('',#219,#211,#221,.T.);
#219 = VERTEX_POINT('',#220);
#220 = CARTESIAN_POINT('',(24.815,28.945,10.));
#221 = CIRCLE('',#222,0.6);
#222 = AXIS2_PLACEMENT_3D('',#223,#224,#225);
#223 = CARTESIAN_POINT('',(24.815,29.545,10.));
#224 = DIRECTION('',(-0.,0.,1.));
#225 = DIRECTION('',(0.,-1.,0.));
#226 = ORIENTED_EDGE('',*,*,#227,.T.);
#227 = EDGE_CURVE('',#219,#228,#230,.T.);
#228 = VERTEX_POINT('',#229);
#229 = CARTESIAN_POINT('',(18.185,28.945,10.));
#230 = LINE('',#231,#232);
#231 = CARTESIAN_POINT('',(8.7925,28.945,10.));
#232 = VECTOR('',#233,1.);
#233 = DIRECTION('',(-1.,0.,0.));
#234 = ORIENTED_EDGE('',*,*,#235,.F.);
#235 = EDGE_CURVE('',#236,#228,#238,.T.);
#236 = VERTEX_POINT('',#237);
#237 = CARTESIAN_POINT('',(17.585,29.545,10.));
#238 = CIRCLE('',#239,0.6);
#239 = AXIS2_PLACEMENT_3D('',#240,#241,#242);
#240 = CARTESIAN_POINT('',(18.185,29.545,10.));
#241 = DIRECTION('',(0.,0.,1.));
#242 = DIRECTION('',(-1.,0.,0.));
#243 = ORIENTED_EDGE('',*,*,#244,.T.);
#244 = EDGE_CURVE('',#236,#185,#245,.T.);
#245 = LINE('',#246,#247);
#246 = CARTESIAN_POINT('',(17.585,18.3875,10.));
#247 = VECTOR('',#248,1.);
#248 = DIRECTION('',(0.,1.,0.));
#249 = PLANE('',#250);
#250 = AXIS2_PLACEMENT_3D('',#251,#252,#253);
#251 = CARTESIAN_POINT('',(0.,0.,10.));
#252 = DIRECTION('',(0.,0.,1.));
#253 = DIRECTION('',(1.,0.,0.));
#254 = ADVANCED_FACE('',(#255),#273,.T.);
#255 = FACE_BOUND('',#256,.T.);
#256 = EDGE_LOOP('',(#257,#265,#266,#267));
#257 = ORIENTED_EDGE('',*,*,#258,.T.);
#258 = EDGE_CURVE('',#259,#40,#261,.T.);
#259 = VERTEX_POINT('',#260);
#260 = CARTESIAN_POINT('',(4.,12.75,0.));
#261 = LINE('',#262,#263);
#262 = CARTESIAN_POINT('',(1.617647058824,13.345588235294,0.));
#263 = VECTOR('',#264,1.);
#264 = DIRECTION('',(-0.970142500145,0.242535625036,0.));
#265 = ORIENTED_EDGE('',*,*,#47,.T.);
#266 = ORIENTED_EDGE('',*,*,#174,.F.);
#267 = ORIENTED_EDGE('',*,*,#268,.F.);
#268 = EDGE_CURVE('',#259,#167,#269,.T.);
#269 = LINE('',#270,#271);
#270 = CARTESIAN_POINT('',(4.,12.75,-1.));
#271 = VECTOR('',#272,1.);
#272 = DIRECTION('',(0.,0.,1.));
#273 = PLANE('',#274);
#274 = AXIS2_PLACEMENT_3D('',#275,#276,#277);
#275 = CARTESIAN_POINT('',(0.,13.75,-1.));
#276 = DIRECTION('',(0.242535625036,0.970142500145,0.));
#277 = DIRECTION('',(0.970142500145,-0.242535625036,0.));
#278 = ADVANCED_FACE('',(#279),#361,.F.);
#279 = FACE_BOUND('',#280,.F.);
#280 = EDGE_LOOP('',(#281,#282,#290,#298,#306,#314,#322,#330,#338,#346,
    #354,#360));
#281 = ORIENTED_EDGE('',*,*,#39,.F.);
#282 = ORIENTED_EDGE('',*,*,#283,.T.);
#283 = EDGE_CURVE('',#32,#284,#286,.T.);
#284 = VERTEX_POINT('',#285);
#285 = CARTESIAN_POINT('',(43.,0.,0.));
#286 = LINE('',#287,#288);
#287 = CARTESIAN_POINT('',(0.,0.,0.));
#288 = VECTOR('',#289,1.);
#289 = DIRECTION('',(1.,0.,0.));
#290 = ORIENTED_EDGE('',*,*,#291,.T.);
#291 = EDGE_CURVE('',#284,#292,#294,.T.);
#292 = VERTEX_POINT('',#293);
#293 = CARTESIAN_POINT('',(43.,13.875609756098,0.));
#294 = LINE('',#295,#296);
#295 = CARTESIAN_POINT('',(43.,0.,0.));
#296 = VECTOR('',#297,1.);
#297 = DIRECTION('',(0.,1.,0.));
#298 = ORIENTED_EDGE('',*,*,#299,.F.);
#299 = EDGE_CURVE('',#300,#292,#302,.T.);
#300 = VERTEX_POINT('',#301);
#301 = CARTESIAN_POINT('',(42.9,13.9,0.));
#302 = LINE('',#303,#304);
#303 = CARTESIAN_POINT('',(42.9,13.9,0.));
#304 = VECTOR('',#305,1.);
#305 = DIRECTION('',(0.971520338783,-0.236956180191,0.));
#306 = ORIENTED_EDGE('',*,*,#307,.F.);
#307 = EDGE_CURVE('',#308,#300,#310,.T.);
#308 = VERTEX_POINT('',#309);
#309 = CARTESIAN_POINT('',(42.9,17.9,0.));
#310 = LINE('',#311,#312);
#311 = CARTESIAN_POINT('',(42.9,17.9,0.));
#312 = VECTOR('',#313,1.);
#313 = DIRECTION('',(0.,-1.,0.));
#314 = ORIENTED_EDGE('',*,*,#315,.F.);
#315 = EDGE_CURVE('',#316,#308,#318,.T.);
#316 = VERTEX_POINT('',#317);
#317 = CARTESIAN_POINT('',(43.,17.924390243902,0.));
#318 = LINE('',#319,#320);
#319 = CARTESIAN_POINT('',(47.,18.9,0.));
#320 = VECTOR('',#321,1.);
#321 = DIRECTION('',(-0.971520338783,-0.236956180191,0.));
#322 = ORIENTED_EDGE('',*,*,#323,.T.);
#323 = EDGE_CURVE('',#316,#324,#326,.T.);
#324 = VERTEX_POINT('',#325);
#325 = CARTESIAN_POINT('',(43.,53.,0.));
#326 = LINE('',#327,#328);
#327 = CARTESIAN_POINT('',(43.,0.,0.));
#328 = VECTOR('',#329,1.);
#329 = DIRECTION('',(0.,1.,0.));
#330 = ORIENTED_EDGE('',*,*,#331,.F.);
#331 = EDGE_CURVE('',#332,#324,#334,.T.);
#332 = VERTEX_POINT('',#333);
#333 = CARTESIAN_POINT('',(0.,53.,0.));
#334 = LINE('',#335,#336);
#335 = CARTESIAN_POINT('',(0.,53.,0.));
#336 = VECTOR('',#337,1.);
#337 = DIRECTION('',(1.,0.,0.));
#338 = ORIENTED_EDGE('',*,*,#339,.F.);
#339 = EDGE_CURVE('',#340,#332,#342,.T.);
#340 = VERTEX_POINT('',#341);
#341 = CARTESIAN_POINT('',(0.,18.05,0.));
#342 = LINE('',#343,#344);
#343 = CARTESIAN_POINT('',(0.,0.,0.));
#344 = VECTOR('',#345,1.);
#345 = DIRECTION('',(0.,1.,0.));
#346 = ORIENTED_EDGE('',*,*,#347,.T.);
#347 = EDGE_CURVE('',#340,#348,#350,.T.);
#348 = VERTEX_POINT('',#349);
#349 = CARTESIAN_POINT('',(4.,19.05,0.));
#350 = LINE('',#351,#352);
#351 = CARTESIAN_POINT('',(-0.123529411765,18.019117647059,0.));
#352 = VECTOR('',#353,1.);
#353 = DIRECTION('',(0.970142500145,0.242535625036,0.));
#354 = ORIENTED_EDGE('',*,*,#355,.T.);
#355 = EDGE_CURVE('',#348,#259,#356,.T.);
#356 = LINE('',#357,#358);
#357 = CARTESIAN_POINT('',(4.,6.375,0.));
#358 = VECTOR('',#359,1.);
#359 = DIRECTION('',(0.,-1.,0.));
#360 = ORIENTED_EDGE('',*,*,#258,.T.);
#361 = PLANE('',#362);
#362 = AXIS2_PLACEMENT_3D('',#363,#364,#365);
#363 = CARTESIAN_POINT('',(0.,0.,0.));
#364 = DIRECTION('',(0.,0.,1.));
#365 = DIRECTION('',(1.,0.,0.));
#366 = ADVANCED_FACE('',(#367),#401,.T.);
#367 = FACE_BOUND('',#368,.T.);
#368 = EDGE_LOOP('',(#369,#370,#371,#372,#378,#379,#387,#395));
#369 = ORIENTED_EDGE('',*,*,#62,.F.);
#370 = ORIENTED_EDGE('',*,*,#31,.T.);
#371 = ORIENTED_EDGE('',*,*,#283,.T.);
#372 = ORIENTED_EDGE('',*,*,#373,.F.);
#373 = EDGE_CURVE('',#95,#284,#374,.T.);
#374 = LINE('',#375,#376);
#375 = CARTESIAN_POINT('',(43.,0.,0.));
#376 = VECTOR('',#377,1.);
#377 = DIRECTION('',(0.,-0.342020143326,-0.939692620786));
#378 = ORIENTED_EDGE('',*,*,#94,.F.);
#379 = ORIENTED_EDGE('',*,*,#380,.F.);
#380 = EDGE_CURVE('',#381,#87,#383,.T.);
#381 = VERTEX_POINT('',#382);
#382 = CARTESIAN_POINT('',(23.15,0.363970234266,1.));
#383 = LINE('',#384,#385);
#384 = CARTESIAN_POINT('',(23.15,0.363970234266,1.));
#385 = VECTOR('',#386,1.);
#386 = DIRECTION('',(0.,0.342020143326,0.939692620786));
#387 = ORIENTED_EDGE('',*,*,#388,.T.);
#388 = EDGE_CURVE('',#381,#389,#391,.T.);
#389 = VERTEX_POINT('',#390);
#390 = CARTESIAN_POINT('',(19.85,0.363970234266,1.));
#391 = LINE('',#392,#393);
#392 = CARTESIAN_POINT('',(23.15,0.363970234266,1.));
#393 = VECTOR('',#394,1.);
#394 = DIRECTION('',(-1.,0.,0.));
#395 = ORIENTED_EDGE('',*,*,#396,.T.);
#396 = EDGE_CURVE('',#389,#63,#397,.T.);
#397 = LINE('',#398,#399);
#398 = CARTESIAN_POINT('',(19.85,0.363970234266,1.));
#399 = VECTOR('',#400,1.);
#400 = DIRECTION('',(0.,0.342020143326,0.939692620786));
#401 = PLANE('',#402);
#402 = AXIS2_PLACEMENT_3D('',#403,#404,#405);
#403 = CARTESIAN_POINT('',(-1.,0.,0.));
#404 = DIRECTION('',(0.,-0.939692620786,0.342020143326));
#405 = DIRECTION('',(0.,0.342020143326,0.939692620786));
#406 = ADVANCED_FACE('',(#407),#418,.T.);
#407 = FACE_BOUND('',#408,.T.);
#408 = EDGE_LOOP('',(#409,#410,#411,#412));
#409 = ORIENTED_EDGE('',*,*,#355,.T.);
#410 = ORIENTED_EDGE('',*,*,#268,.T.);
#411 = ORIENTED_EDGE('',*,*,#166,.F.);
#412 = ORIENTED_EDGE('',*,*,#413,.F.);
#413 = EDGE_CURVE('',#348,#159,#414,.T.);
#414 = LINE('',#415,#416);
#415 = CARTESIAN_POINT('',(4.,19.05,-1.));
#416 = VECTOR('',#417,1.);
#417 = DIRECTION('',(0.,0.,1.));
#418 = PLANE('',#419);
#419 = AXIS2_PLACEMENT_3D('',#420,#421,#422);
#420 = CARTESIAN_POINT('',(4.,12.75,-1.));
#421 = DIRECTION('',(-1.,0.,0.));
#422 = DIRECTION('',(0.,1.,0.));
#423 = ADVANCED_FACE('',(#424),#435,.T.);
#424 = FACE_BOUND('',#425,.T.);
#425 = EDGE_LOOP('',(#426,#427,#428,#429));
#426 = ORIENTED_EDGE('',*,*,#347,.T.);
#427 = ORIENTED_EDGE('',*,*,#413,.T.);
#428 = ORIENTED_EDGE('',*,*,#158,.F.);
#429 = ORIENTED_EDGE('',*,*,#430,.F.);
#430 = EDGE_CURVE('',#340,#151,#431,.T.);
#431 = LINE('',#432,#433);
#432 = CARTESIAN_POINT('',(0.,18.05,-1.));
#433 = VECTOR('',#434,1.);
#434 = DIRECTION('',(0.,0.,1.));
#435 = PLANE('',#436);
#436 = AXIS2_PLACEMENT_3D('',#437,#438,#439);
#437 = CARTESIAN_POINT('',(4.,19.05,-1.));
#438 = DIRECTION('',(0.242535625036,-0.970142500145,0.));
#439 = DIRECTION('',(-0.970142500145,-0.242535625036,0.));
#440 = ADVANCED_FACE('',(#441),#452,.F.);
#441 = FACE_BOUND('',#442,.F.);
#442 = EDGE_LOOP('',(#443,#444,#445,#446));
#443 = ORIENTED_EDGE('',*,*,#150,.F.);
#444 = ORIENTED_EDGE('',*,*,#430,.F.);
#445 = ORIENTED_EDGE('',*,*,#339,.T.);
#446 = ORIENTED_EDGE('',*,*,#447,.T.);
#447 = EDGE_CURVE('',#332,#143,#448,.T.);
#448 = LINE('',#449,#450);
#449 = CARTESIAN_POINT('',(0.,53.,0.));
#450 = VECTOR('',#451,1.);
#451 = DIRECTION('',(0.,0.,1.));
#452 = PLANE('',#453);
#453 = AXIS2_PLACEMENT_3D('',#454,#455,#456);
#454 = CARTESIAN_POINT('',(0.,0.,0.));
#455 = DIRECTION('',(1.,0.,0.));
#456 = DIRECTION('',(0.,0.,1.));
#457 = ADVANCED_FACE('',(#458),#469,.T.);
#458 = FACE_BOUND('',#459,.T.);
#459 = EDGE_LOOP('',(#460,#461,#462,#463));
#460 = ORIENTED_EDGE('',*,*,#331,.F.);
#461 = ORIENTED_EDGE('',*,*,#447,.T.);
#462 = ORIENTED_EDGE('',*,*,#142,.T.);
#463 = ORIENTED_EDGE('',*,*,#464,.F.);
#464 = EDGE_CURVE('',#324,#135,#465,.T.);
#465 = LINE('',#466,#467);
#466 = CARTESIAN_POINT('',(43.,53.,0.));
#467 = VECTOR('',#468,1.);
#468 = DIRECTION('',(0.,0.,1.));
#469 = PLANE('',#470);
#470 = AXIS2_PLACEMENT_3D('',#471,#472,#473);
#471 = CARTESIAN_POINT('',(0.,53.,0.));
#472 = DIRECTION('',(0.,1.,0.));
#473 = DIRECTION('',(0.,0.,1.));
#474 = ADVANCED_FACE('',(#475),#486,.T.);
#475 = FACE_BOUND('',#476,.T.);
#476 = EDGE_LOOP('',(#477,#478,#484,#485));
#477 = ORIENTED_EDGE('',*,*,#134,.F.);
#478 = ORIENTED_EDGE('',*,*,#479,.T.);
#479 = EDGE_CURVE('',#127,#316,#480,.T.);
#480 = LINE('',#481,#482);
#481 = CARTESIAN_POINT('',(43.,17.924390243902,0.));
#482 = VECTOR('',#483,1.);
#483 = DIRECTION('',(0.,0.,-1.));
#484 = ORIENTED_EDGE('',*,*,#323,.T.);
#485 = ORIENTED_EDGE('',*,*,#464,.T.);
#486 = PLANE('',#487);
#487 = AXIS2_PLACEMENT_3D('',#488,#489,#490);
#488 = CARTESIAN_POINT('',(43.,0.,0.));
#489 = DIRECTION('',(1.,0.,0.));
#490 = DIRECTION('',(0.,0.,1.));
#491 = ADVANCED_FACE('',(#492),#503,.T.);
#492 = FACE_BOUND('',#493,.T.);
#493 = EDGE_LOOP('',(#494,#495,#501,#502));
#494 = ORIENTED_EDGE('',*,*,#110,.T.);
#495 = ORIENTED_EDGE('',*,*,#496,.T.);
#496 = EDGE_CURVE('',#103,#127,#497,.T.);
#497 = LINE('',#498,#499);
#498 = CARTESIAN_POINT('',(43.,0.,10.));
#499 = VECTOR('',#500,1.);
#500 = DIRECTION('',(0.,1.,0.));
#501 = ORIENTED_EDGE('',*,*,#126,.T.);
#502 = ORIENTED_EDGE('',*,*,#118,.T.);
#503 = PLANE('',#504);
#504 = AXIS2_PLACEMENT_3D('',#505,#506,#507);
#505 = CARTESIAN_POINT('',(0.,0.,10.));
#506 = DIRECTION('',(0.,0.,1.));
#507 = DIRECTION('',(1.,0.,0.));
#508 = ADVANCED_FACE('',(#509),#520,.T.);
#509 = FACE_BOUND('',#510,.T.);
#510 = EDGE_LOOP('',(#511,#512,#513,#514));
#511 = ORIENTED_EDGE('',*,*,#102,.F.);
#512 = ORIENTED_EDGE('',*,*,#373,.T.);
#513 = ORIENTED_EDGE('',*,*,#291,.T.);
#514 = ORIENTED_EDGE('',*,*,#515,.T.);
#515 = EDGE_CURVE('',#292,#103,#516,.T.);
#516 = LINE('',#517,#518);
#517 = CARTESIAN_POINT('',(43.,13.875609756098,0.));
#518 = VECTOR('',#519,1.);
#519 = DIRECTION('',(0.,0.,1.));
#520 = PLANE('',#521);
#521 = AXIS2_PLACEMENT_3D('',#522,#523,#524);
#522 = CARTESIAN_POINT('',(43.,0.,0.));
#523 = DIRECTION('',(1.,0.,0.));
#524 = DIRECTION('',(0.,0.,1.));
#525 = ADVANCED_FACE('',(#526),#544,.F.);
#526 = FACE_BOUND('',#527,.F.);
#527 = EDGE_LOOP('',(#528,#536,#542,#543));
#528 = ORIENTED_EDGE('',*,*,#529,.F.);
#529 = EDGE_CURVE('',#530,#381,#532,.T.);
#530 = VERTEX_POINT('',#531);
#531 = CARTESIAN_POINT('',(23.9,2.243355475838,0.315959713349));
#532 = LINE('',#533,#534);
#533 = CARTESIAN_POINT('',(23.9,2.243355475838,0.315959713349));
#534 = VECTOR('',#535,1.);
#535 = DIRECTION('',(-0.351123441588,-0.879861618788,0.320243439512));
#536 = ORIENTED_EDGE('',*,*,#537,.T.);
#537 = EDGE_CURVE('',#530,#79,#538,.T.);
#538 = LINE('',#539,#540);
#539 = CARTESIAN_POINT('',(23.9,2.243355475838,0.315959713349));
#540 = VECTOR('',#541,1.);
#541 = DIRECTION('',(0.,0.342020143326,0.939692620786));
#542 = ORIENTED_EDGE('',*,*,#86,.F.);
#543 = ORIENTED_EDGE('',*,*,#380,.F.);
#544 = PLANE('',#545);
#545 = AXIS2_PLACEMENT_3D('',#546,#547,#548);
#546 = CARTESIAN_POINT('',(23.9,2.243355475838,0.315959713349));
#547 = DIRECTION('',(0.936329177569,-0.329948107046,0.120091289817));
#548 = DIRECTION('',(-0.351123441588,-0.879861618788,0.320243439512));
#549 = ADVANCED_FACE('',(#550),#568,.F.);
#550 = FACE_BOUND('',#551,.F.);
#551 = EDGE_LOOP('',(#552,#560,#566,#567));
#552 = ORIENTED_EDGE('',*,*,#553,.F.);
#553 = EDGE_CURVE('',#554,#530,#556,.T.);
#554 = VERTEX_POINT('',#555);
#555 = CARTESIAN_POINT('',(19.1,2.243355475838,0.315959713349));
#556 = LINE('',#557,#558);
#557 = CARTESIAN_POINT('',(19.1,2.243355475838,0.315959713349));
#558 = VECTOR('',#559,1.);
#559 = DIRECTION('',(1.,0.,0.));
#560 = ORIENTED_EDGE('',*,*,#561,.T.);
#561 = EDGE_CURVE('',#554,#71,#562,.T.);
#562 = LINE('',#563,#564);
#563 = CARTESIAN_POINT('',(19.1,2.243355475838,0.315959713349));
#564 = VECTOR('',#565,1.);
#565 = DIRECTION('',(0.,0.342020143326,0.939692620786));
#566 = ORIENTED_EDGE('',*,*,#78,.F.);
#567 = ORIENTED_EDGE('',*,*,#537,.F.);
#568 = PLANE('',#569);
#569 = AXIS2_PLACEMENT_3D('',#570,#571,#572);
#570 = CARTESIAN_POINT('',(19.1,2.243355475838,0.315959713349));
#571 = DIRECTION('',(0.,0.939692620786,-0.342020143326));
#572 = DIRECTION('',(1.,0.,0.));
#573 = ADVANCED_FACE('',(#574),#585,.F.);
#574 = FACE_BOUND('',#575,.F.);
#575 = EDGE_LOOP('',(#576,#582,#583,#584));
#576 = ORIENTED_EDGE('',*,*,#577,.F.);
#577 = EDGE_CURVE('',#389,#554,#578,.T.);
#578 = LINE('',#579,#580);
#579 = CARTESIAN_POINT('',(19.85,0.363970234266,1.));
#580 = VECTOR('',#581,1.);
#581 = DIRECTION('',(-0.351123441588,0.879861618788,-0.320243439512));
#582 = ORIENTED_EDGE('',*,*,#396,.T.);
#583 = ORIENTED_EDGE('',*,*,#70,.F.);
#584 = ORIENTED_EDGE('',*,*,#561,.F.);
#585 = PLANE('',#586);
#586 = AXIS2_PLACEMENT_3D('',#587,#588,#589);
#587 = CARTESIAN_POINT('',(19.85,0.363970234266,1.));
#588 = DIRECTION('',(-0.936329177569,-0.329948107046,0.120091289817));
#589 = DIRECTION('',(-0.351123441588,0.879861618788,-0.320243439512));
#590 = ADVANCED_FACE('',(#591),#617,.T.);
#591 = FACE_BOUND('',#592,.T.);
#592 = EDGE_LOOP('',(#593,#601,#602,#610));
#593 = ORIENTED_EDGE('',*,*,#594,.F.);
#594 = EDGE_CURVE('',#183,#595,#597,.T.);
#595 = VERTEX_POINT('',#596);
#596 = CARTESIAN_POINT('',(18.185,36.775,20.5));
#597 = LINE('',#598,#599);
#598 = CARTESIAN_POINT('',(18.185,36.775,9.9));
#599 = VECTOR('',#600,1.);
#600 = DIRECTION('',(0.,0.,1.));
#601 = ORIENTED_EDGE('',*,*,#182,.T.);
#602 = ORIENTED_EDGE('',*,*,#603,.T.);
#603 = EDGE_CURVE('',#185,#604,#606,.T.);
#604 = VERTEX_POINT('',#605);
#605 = CARTESIAN_POINT('',(17.585,36.175,20.5));
#606 = LINE('',#607,#608);
#607 = CARTESIAN_POINT('',(17.585,36.175,9.9));
#608 = VECTOR('',#609,1.);
#609 = DIRECTION('',(0.,0.,1.));
#610 = ORIENTED_EDGE('',*,*,#611,.F.);
#611 = EDGE_CURVE('',#595,#604,#612,.T.);
#612 = CIRCLE('',#613,0.6);
#613 = AXIS2_PLACEMENT_3D('',#614,#615,#616);
#614 = CARTESIAN_POINT('',(18.185,36.175,20.5));
#615 = DIRECTION('',(0.,-0.,1.));
#616 = DIRECTION('',(0.,1.,0.));
#617 = CYLINDRICAL_SURFACE('',#618,0.6);
#618 = AXIS2_PLACEMENT_3D('',#619,#620,#621);
#619 = CARTESIAN_POINT('',(18.185,36.175,9.9));
#620 = DIRECTION('',(0.,0.,1.));
#621 = DIRECTION('',(0.,1.,0.));
#622 = ADVANCED_FACE('',(#623),#641,.F.);
#623 = FACE_BOUND('',#624,.F.);
#624 = EDGE_LOOP('',(#625,#626,#634,#640));
#625 = ORIENTED_EDGE('',*,*,#193,.T.);
#626 = ORIENTED_EDGE('',*,*,#627,.T.);
#627 = EDGE_CURVE('',#194,#628,#630,.T.);
#628 = VERTEX_POINT('',#629);
#629 = CARTESIAN_POINT('',(24.815,36.775,20.5));
#630 = LINE('',#631,#632);
#631 = CARTESIAN_POINT('',(24.815,36.775,9.9));
#632 = VECTOR('',#633,1.);
#633 = DIRECTION('',(0.,0.,1.));
#634 = ORIENTED_EDGE('',*,*,#635,.T.);
#635 = EDGE_CURVE('',#628,#595,#636,.T.);
#636 = LINE('',#637,#638);
#637 = CARTESIAN_POINT('',(24.815,36.775,20.5));
#638 = VECTOR('',#639,1.);
#639 = DIRECTION('',(-1.,0.,0.));
#640 = ORIENTED_EDGE('',*,*,#594,.F.);
#641 = PLANE('',#642);
#642 = AXIS2_PLACEMENT_3D('',#643,#644,#645);
#643 = CARTESIAN_POINT('',(25.415,36.775,9.9));
#644 = DIRECTION('',(0.,-1.,0.));
#645 = DIRECTION('',(-1.,0.,0.));
#646 = ADVANCED_FACE('',(#647),#665,.F.);
#647 = FACE_BOUND('',#648,.F.);
#648 = EDGE_LOOP('',(#649,#650,#651,#659));
#649 = ORIENTED_EDGE('',*,*,#244,.T.);
#650 = ORIENTED_EDGE('',*,*,#603,.T.);
#651 = ORIENTED_EDGE('',*,*,#652,.T.);
#652 = EDGE_CURVE('',#604,#653,#655,.T.);
#653 = VERTEX_POINT('',#654);
#654 = CARTESIAN_POINT('',(17.585,29.545,20.5));
#655 = LINE('',#656,#657);
#656 = CARTESIAN_POINT('',(17.585,36.175,20.5));
#657 = VECTOR('',#658,1.);
#658 = DIRECTION('',(0.,-1.,0.));
#659 = ORIENTED_EDGE('',*,*,#660,.F.);
#660 = EDGE_CURVE('',#236,#653,#661,.T.);
#661 = LINE('',#662,#663);
#662 = CARTESIAN_POINT('',(17.585,29.545,9.9));
#663 = VECTOR('',#664,1.);
#664 = DIRECTION('',(0.,0.,1.));
#665 = PLANE('',#666);
#666 = AXIS2_PLACEMENT_3D('',#667,#668,#669);
#667 = CARTESIAN_POINT('',(17.585,36.775,9.9));
#668 = DIRECTION('',(1.,0.,0.));
#669 = DIRECTION('',(0.,-1.,0.));
#670 = ADVANCED_FACE('',(#671),#690,.T.);
#671 = FACE_BOUND('',#672,.F.);
#672 = EDGE_LOOP('',(#673,#674,#675,#683));
#673 = ORIENTED_EDGE('',*,*,#627,.F.);
#674 = ORIENTED_EDGE('',*,*,#201,.F.);
#675 = ORIENTED_EDGE('',*,*,#676,.T.);
#676 = EDGE_CURVE('',#202,#677,#679,.T.);
#677 = VERTEX_POINT('',#678);
#678 = CARTESIAN_POINT('',(25.415,36.175,20.5));
#679 = LINE('',#680,#681);
#680 = CARTESIAN_POINT('',(25.415,36.175,9.9));
#681 = VECTOR('',#682,1.);
#682 = DIRECTION('',(0.,0.,1.));
#683 = ORIENTED_EDGE('',*,*,#684,.T.);
#684 = EDGE_CURVE('',#677,#628,#685,.T.);
#685 = CIRCLE('',#686,0.6);
#686 = AXIS2_PLACEMENT_3D('',#687,#688,#689);
#687 = CARTESIAN_POINT('',(24.815,36.175,20.5));
#688 = DIRECTION('',(0.,0.,1.));
#689 = DIRECTION('',(1.,0.,0.));
#690 = CYLINDRICAL_SURFACE('',#691,0.6);
#691 = AXIS2_PLACEMENT_3D('',#692,#693,#694);
#692 = CARTESIAN_POINT('',(24.815,36.175,9.9));
#693 = DIRECTION('',(0.,0.,1.));
#694 = DIRECTION('',(0.,1.,0.));
#695 = ADVANCED_FACE('',(#696),#715,.T.);
#696 = FACE_BOUND('',#697,.T.);
#697 = EDGE_LOOP('',(#698,#699,#700,#708));
#698 = ORIENTED_EDGE('',*,*,#660,.F.);
#699 = ORIENTED_EDGE('',*,*,#235,.T.);
#700 = ORIENTED_EDGE('',*,*,#701,.T.);
#701 = EDGE_CURVE('',#228,#702,#704,.T.);
#702 = VERTEX_POINT('',#703);
#703 = CARTESIAN_POINT('',(18.185,28.945,20.5));
#704 = LINE('',#705,#706);
#705 = CARTESIAN_POINT('',(18.185,28.945,9.9));
#706 = VECTOR('',#707,1.);
#707 = DIRECTION('',(0.,0.,1.));
#708 = ORIENTED_EDGE('',*,*,#709,.F.);
#709 = EDGE_CURVE('',#653,#702,#710,.T.);
#710 = CIRCLE('',#711,0.6);
#711 = AXIS2_PLACEMENT_3D('',#712,#713,#714);
#712 = CARTESIAN_POINT('',(18.185,29.545,20.5));
#713 = DIRECTION('',(0.,0.,1.));
#714 = DIRECTION('',(-1.,0.,0.));
#715 = CYLINDRICAL_SURFACE('',#716,0.6);
#716 = AXIS2_PLACEMENT_3D('',#717,#718,#719);
#717 = CARTESIAN_POINT('',(18.185,29.545,9.9));
#718 = DIRECTION('',(0.,0.,1.));
#719 = DIRECTION('',(-1.,0.,0.));
#720 = ADVANCED_FACE('',(#721),#739,.F.);
#721 = FACE_BOUND('',#722,.F.);
#722 = EDGE_LOOP('',(#723,#724,#732,#738));
#723 = ORIENTED_EDGE('',*,*,#210,.T.);
#724 = ORIENTED_EDGE('',*,*,#725,.T.);
#725 = EDGE_CURVE('',#211,#726,#728,.T.);
#726 = VERTEX_POINT('',#727);
#727 = CARTESIAN_POINT('',(25.415,29.545,20.5));
#728 = LINE('',#729,#730);
#729 = CARTESIAN_POINT('',(25.415,29.545,9.9));
#730 = VECTOR('',#731,1.);
#731 = DIRECTION('',(0.,0.,1.));
#732 = ORIENTED_EDGE('',*,*,#733,.T.);
#733 = EDGE_CURVE('',#726,#677,#734,.T.);
#734 = LINE('',#735,#736);
#735 = CARTESIAN_POINT('',(25.415,29.545,20.5));
#736 = VECTOR('',#737,1.);
#737 = DIRECTION('',(0.,1.,0.));
#738 = ORIENTED_EDGE('',*,*,#676,.F.);
#739 = PLANE('',#740);
#740 = AXIS2_PLACEMENT_3D('',#741,#742,#743);
#741 = CARTESIAN_POINT('',(25.415,28.945,9.9));
#742 = DIRECTION('',(-1.,0.,0.));
#743 = DIRECTION('',(0.,1.,0.));
#744 = ADVANCED_FACE('',(#745),#763,.F.);
#745 = FACE_BOUND('',#746,.F.);
#746 = EDGE_LOOP('',(#747,#748,#749,#757));
#747 = ORIENTED_EDGE('',*,*,#227,.T.);
#748 = ORIENTED_EDGE('',*,*,#701,.T.);
#749 = ORIENTED_EDGE('',*,*,#750,.T.);
#750 = EDGE_CURVE('',#702,#751,#753,.T.);
#751 = VERTEX_POINT('',#752);
#752 = CARTESIAN_POINT('',(24.815,28.945,20.5));
#753 = LINE('',#754,#755);
#754 = CARTESIAN_POINT('',(18.185,28.945,20.5));
#755 = VECTOR('',#756,1.);
#756 = DIRECTION('',(1.,0.,0.));
#757 = ORIENTED_EDGE('',*,*,#758,.F.);
#758 = EDGE_CURVE('',#219,#751,#759,.T.);
#759 = LINE('',#760,#761);
#760 = CARTESIAN_POINT('',(24.815,28.945,9.9));
#761 = VECTOR('',#762,1.);
#762 = DIRECTION('',(0.,0.,1.));
#763 = PLANE('',#764);
#764 = AXIS2_PLACEMENT_3D('',#765,#766,#767);
#765 = CARTESIAN_POINT('',(17.585,28.945,9.9));
#766 = DIRECTION('',(0.,1.,0.));
#767 = DIRECTION('',(1.,0.,0.));
#768 = ADVANCED_FACE('',(#769),#781,.T.);
#769 = FACE_BOUND('',#770,.T.);
#770 = EDGE_LOOP('',(#771,#772,#773,#774));
#771 = ORIENTED_EDGE('',*,*,#758,.F.);
#772 = ORIENTED_EDGE('',*,*,#218,.T.);
#773 = ORIENTED_EDGE('',*,*,#725,.T.);
#774 = ORIENTED_EDGE('',*,*,#775,.F.);
#775 = EDGE_CURVE('',#751,#726,#776,.T.);
#776 = CIRCLE('',#777,0.6);
#777 = AXIS2_PLACEMENT_3D('',#778,#779,#780);
#778 = CARTESIAN_POINT('',(24.815,29.545,20.5));
#779 = DIRECTION('',(-0.,0.,1.));
#780 = DIRECTION('',(0.,-1.,0.));
#781 = CYLINDRICAL_SURFACE('',#782,0.6);
#782 = AXIS2_PLACEMENT_3D('',#783,#784,#785);
#783 = CARTESIAN_POINT('',(24.815,29.545,9.9));
#784 = DIRECTION('',(0.,0.,1.));
#785 = DIRECTION('',(0.,-1.,0.));
#786 = ADVANCED_FACE('',(#787),#798,.F.);
#787 = FACE_BOUND('',#788,.F.);
#788 = EDGE_LOOP('',(#789,#790,#796,#797));
#789 = ORIENTED_EDGE('',*,*,#299,.T.);
#790 = ORIENTED_EDGE('',*,*,#791,.T.);
#791 = EDGE_CURVE('',#292,#316,#792,.T.);
#792 = LINE('',#793,#794);
#793 = CARTESIAN_POINT('',(43.,0.,0.));
#794 = VECTOR('',#795,1.);
#795 = DIRECTION('',(0.,1.,0.));
#796 = ORIENTED_EDGE('',*,*,#315,.T.);
#797 = ORIENTED_EDGE('',*,*,#307,.T.);
#798 = PLANE('',#799);
#799 = AXIS2_PLACEMENT_3D('',#800,#801,#802);
#800 = CARTESIAN_POINT('',(0.,0.,0.));
#801 = DIRECTION('',(0.,0.,1.));
#802 = DIRECTION('',(1.,0.,0.));
#803 = ADVANCED_FACE('',(#804),#810,.F.);
#804 = FACE_BOUND('',#805,.F.);
#805 = EDGE_LOOP('',(#806,#807,#808,#809));
#806 = ORIENTED_EDGE('',*,*,#577,.T.);
#807 = ORIENTED_EDGE('',*,*,#553,.T.);
#808 = ORIENTED_EDGE('',*,*,#529,.T.);
#809 = ORIENTED_EDGE('',*,*,#388,.T.);
#810 = PLANE('',#811);
#811 = AXIS2_PLACEMENT_3D('',#812,#813,#814);
#812 = CARTESIAN_POINT('',(21.5,1.417592592995,0.616512823265));
#813 = DIRECTION('',(-0.,-0.342020143326,-0.939692620786));
#814 = DIRECTION('',(0.,0.939692620786,-0.342020143326));
#815 = ADVANCED_FACE('',(#816),#841,.F.);
#816 = FACE_BOUND('',#817,.F.);
#817 = EDGE_LOOP('',(#818,#826,#834,#840));
#818 = ORIENTED_EDGE('',*,*,#819,.F.);
#819 = EDGE_CURVE('',#820,#316,#822,.T.);
#820 = VERTEX_POINT('',#821);
#821 = CARTESIAN_POINT('',(47.,18.9,0.));
#822 = LINE('',#823,#824);
#823 = CARTESIAN_POINT('',(47.,18.9,0.));
#824 = VECTOR('',#825,1.);
#825 = DIRECTION('',(-0.971520338783,-0.236956180191,0.));
#826 = ORIENTED_EDGE('',*,*,#827,.T.);
#827 = EDGE_CURVE('',#820,#828,#830,.T.);
#828 = VERTEX_POINT('',#829);
#829 = CARTESIAN_POINT('',(47.,18.9,10.));
#830 = LINE('',#831,#832);
#831 = CARTESIAN_POINT('',(47.,18.9,0.));
#832 = VECTOR('',#833,1.);
#833 = DIRECTION('',(0.,0.,1.));
#834 = ORIENTED_EDGE('',*,*,#835,.T.);
#835 = EDGE_CURVE('',#828,#127,#836,.T.);
#836 = LINE('',#837,#838);
#837 = CARTESIAN_POINT('',(47.,18.9,10.));
#838 = VECTOR('',#839,1.);
#839 = DIRECTION('',(-0.971520338783,-0.236956180191,0.));
#840 = ORIENTED_EDGE('',*,*,#479,.T.);
#841 = PLANE('',#842);
#842 = AXIS2_PLACEMENT_3D('',#843,#844,#845);
#843 = CARTESIAN_POINT('',(47.,18.9,0.));
#844 = DIRECTION('',(0.236956180191,-0.971520338783,0.));
#845 = DIRECTION('',(-0.971520338783,-0.236956180191,0.));
#846 = ADVANCED_FACE('',(#847),#865,.T.);
#847 = FACE_BOUND('',#848,.T.);
#848 = EDGE_LOOP('',(#849,#850,#858,#864));
#849 = ORIENTED_EDGE('',*,*,#496,.F.);
#850 = ORIENTED_EDGE('',*,*,#851,.T.);
#851 = EDGE_CURVE('',#103,#852,#854,.T.);
#852 = VERTEX_POINT('',#853);
#853 = CARTESIAN_POINT('',(47.,12.9,10.));
#854 = LINE('',#855,#856);
#855 = CARTESIAN_POINT('',(42.9,13.9,10.));
#856 = VECTOR('',#857,1.);
#857 = DIRECTION('',(0.971520338783,-0.236956180191,0.));
#858 = ORIENTED_EDGE('',*,*,#859,.T.);
#859 = EDGE_CURVE('',#852,#828,#860,.T.);
#860 = LINE('',#861,#862);
#861 = CARTESIAN_POINT('',(47.,12.9,10.));
#862 = VECTOR('',#863,1.);
#863 = DIRECTION('',(0.,1.,0.));
#864 = ORIENTED_EDGE('',*,*,#835,.T.);
#865 = PLANE('',#866);
#866 = AXIS2_PLACEMENT_3D('',#867,#868,#869);
#867 = CARTESIAN_POINT('',(45.172338161771,15.9,10.));
#868 = DIRECTION('',(0.,0.,1.));
#869 = DIRECTION('',(1.,0.,0.));
#870 = ADVANCED_FACE('',(#871),#889,.F.);
#871 = FACE_BOUND('',#872,.F.);
#872 = EDGE_LOOP('',(#873,#881,#882,#883));
#873 = ORIENTED_EDGE('',*,*,#874,.F.);
#874 = EDGE_CURVE('',#292,#875,#877,.T.);
#875 = VERTEX_POINT('',#876);
#876 = CARTESIAN_POINT('',(47.,12.9,0.));
#877 = LINE('',#878,#879);
#878 = CARTESIAN_POINT('',(42.9,13.9,0.));
#879 = VECTOR('',#880,1.);
#880 = DIRECTION('',(0.971520338783,-0.236956180191,0.));
#881 = ORIENTED_EDGE('',*,*,#515,.T.);
#882 = ORIENTED_EDGE('',*,*,#851,.T.);
#883 = ORIENTED_EDGE('',*,*,#884,.F.);
#884 = EDGE_CURVE('',#875,#852,#885,.T.);
#885 = LINE('',#886,#887);
#886 = CARTESIAN_POINT('',(47.,12.9,0.));
#887 = VECTOR('',#888,1.);
#888 = DIRECTION('',(0.,0.,1.));
#889 = PLANE('',#890);
#890 = AXIS2_PLACEMENT_3D('',#891,#892,#893);
#891 = CARTESIAN_POINT('',(42.9,13.9,0.));
#892 = DIRECTION('',(0.236956180191,0.971520338783,0.));
#893 = DIRECTION('',(0.971520338783,-0.236956180191,0.));
#894 = ADVANCED_FACE('',(#895),#921,.T.);
#895 = FACE_BOUND('',#896,.T.);
#896 = EDGE_LOOP('',(#897,#905,#906,#914));
#897 = ORIENTED_EDGE('',*,*,#898,.F.);
#898 = EDGE_CURVE('',#595,#899,#901,.T.);
#899 = VERTEX_POINT('',#900);
#900 = CARTESIAN_POINT('',(18.185,36.275,21.));
#901 = LINE('',#902,#903);
#902 = CARTESIAN_POINT('',(18.185,36.525,20.75));
#903 = VECTOR('',#904,1.);
#904 = DIRECTION('',(-2.90882763039E-35,-0.707106781187,0.707106781187)
  );
#905 = ORIENTED_EDGE('',*,*,#611,.T.);
#906 = ORIENTED_EDGE('',*,*,#907,.T.);
#907 = EDGE_CURVE('',#604,#908,#910,.T.);
#908 = VERTEX_POINT('',#909);
#909 = CARTESIAN_POINT('',(18.085,36.175,21.));
#910 = LINE('',#911,#912);
#911 = CARTESIAN_POINT('',(17.585,36.175,20.5));
#912 = VECTOR('',#913,1.);
#913 = DIRECTION('',(0.707106781187,-4.329780281177E-17,0.707106781187)
  );
#914 = ORIENTED_EDGE('',*,*,#915,.F.);
#915 = EDGE_CURVE('',#899,#908,#916,.T.);
#916 = CIRCLE('',#917,1.E-01);
#917 = AXIS2_PLACEMENT_3D('',#918,#919,#920);
#918 = CARTESIAN_POINT('',(18.185,36.175,21.));
#919 = DIRECTION('',(0.,-0.,1.));
#920 = DIRECTION('',(0.,1.,0.));
#921 = CONICAL_SURFACE('',#922,0.6,0.785398163397);
#922 = AXIS2_PLACEMENT_3D('',#923,#924,#925);
#923 = CARTESIAN_POINT('',(18.185,36.175,20.5));
#924 = DIRECTION('',(-0.,-0.,-1.));
#925 = DIRECTION('',(0.,1.,0.));
#926 = ADVANCED_FACE('',(#927),#945,.F.);
#927 = FACE_BOUND('',#928,.T.);
#928 = EDGE_LOOP('',(#929,#937,#938,#939));
#929 = ORIENTED_EDGE('',*,*,#930,.F.);
#930 = EDGE_CURVE('',#628,#931,#933,.T.);
#931 = VERTEX_POINT('',#932);
#932 = CARTESIAN_POINT('',(24.815,36.275,21.));
#933 = LINE('',#934,#935);
#934 = CARTESIAN_POINT('',(24.815,36.525,20.75));
#935 = VECTOR('',#936,1.);
#936 = DIRECTION('',(-2.90882763039E-35,-0.707106781187,0.707106781187)
  );
#937 = ORIENTED_EDGE('',*,*,#635,.T.);
#938 = ORIENTED_EDGE('',*,*,#898,.T.);
#939 = ORIENTED_EDGE('',*,*,#940,.F.);
#940 = EDGE_CURVE('',#931,#899,#941,.T.);
#941 = LINE('',#942,#943);
#942 = CARTESIAN_POINT('',(24.815,36.275,21.));
#943 = VECTOR('',#944,1.);
#944 = DIRECTION('',(-1.,0.,0.));
#945 = PLANE('',#946);
#946 = AXIS2_PLACEMENT_3D('',#947,#948,#949);
#947 = CARTESIAN_POINT('',(24.815,36.525,20.75));
#948 = DIRECTION('',(-1.889513820523E-18,-0.707106781187,-0.707106781187
    ));
#949 = DIRECTION('',(1.,-1.336088035637E-18,-1.336088035637E-18));
#950 = ADVANCED_FACE('',(#951),#969,.F.);
#951 = FACE_BOUND('',#952,.T.);
#952 = EDGE_LOOP('',(#953,#954,#955,#963));
#953 = ORIENTED_EDGE('',*,*,#907,.F.);
#954 = ORIENTED_EDGE('',*,*,#652,.T.);
#955 = ORIENTED_EDGE('',*,*,#956,.T.);
#956 = EDGE_CURVE('',#653,#957,#959,.T.);
#957 = VERTEX_POINT('',#958);
#958 = CARTESIAN_POINT('',(18.085,29.545,21.));
#959 = LINE('',#960,#961);
#960 = CARTESIAN_POINT('',(17.835,29.545,20.75));
#961 = VECTOR('',#962,1.);
#962 = DIRECTION('',(0.707106781187,-2.90882763039E-35,0.707106781187));
#963 = ORIENTED_EDGE('',*,*,#964,.F.);
#964 = EDGE_CURVE('',#908,#957,#965,.T.);
#965 = LINE('',#966,#967);
#966 = CARTESIAN_POINT('',(18.085,36.175,21.));
#967 = VECTOR('',#968,1.);
#968 = DIRECTION('',(0.,-1.,0.));
#969 = PLANE('',#970);
#970 = AXIS2_PLACEMENT_3D('',#971,#972,#973);
#971 = CARTESIAN_POINT('',(17.835,36.175,20.75));
#972 = DIRECTION('',(0.707106781187,1.889513820523E-18,-0.707106781187)
  );
#973 = DIRECTION('',(-1.336088035637E-18,1.,1.336088035637E-18));
#974 = ADVANCED_FACE('',(#975),#994,.T.);
#975 = FACE_BOUND('',#976,.T.);
#976 = EDGE_LOOP('',(#977,#985,#986,#987));
#977 = ORIENTED_EDGE('',*,*,#978,.F.);
#978 = EDGE_CURVE('',#677,#979,#981,.T.);
#979 = VERTEX_POINT('',#980);
#980 = CARTESIAN_POINT('',(24.915,36.175,21.));
#981 = LINE('',#982,#983);
#982 = CARTESIAN_POINT('',(25.165,36.175,20.75));
#983 = VECTOR('',#984,1.);
#984 = DIRECTION('',(-0.707106781187,2.90882763039E-35,0.707106781187));
#985 = ORIENTED_EDGE('',*,*,#684,.T.);
#986 = ORIENTED_EDGE('',*,*,#930,.T.);
#987 = ORIENTED_EDGE('',*,*,#988,.F.);
#988 = EDGE_CURVE('',#979,#931,#989,.T.);
#989 = CIRCLE('',#990,1.E-01);
#990 = AXIS2_PLACEMENT_3D('',#991,#992,#993);
#991 = CARTESIAN_POINT('',(24.815,36.175,21.));
#992 = DIRECTION('',(0.,0.,1.));
#993 = DIRECTION('',(1.,0.,0.));
#994 = CONICAL_SURFACE('',#995,0.6,0.785398163397);
#995 = AXIS2_PLACEMENT_3D('',#996,#997,#998);
#996 = CARTESIAN_POINT('',(24.815,36.175,20.5));
#997 = DIRECTION('',(-0.,-0.,-1.));
#998 = DIRECTION('',(1.,0.,0.));
#999 = ADVANCED_FACE('',(#1000),#1019,.T.);
#1000 = FACE_BOUND('',#1001,.T.);
#1001 = EDGE_LOOP('',(#1002,#1003,#1004,#1012));
#1002 = ORIENTED_EDGE('',*,*,#956,.F.);
#1003 = ORIENTED_EDGE('',*,*,#709,.T.);
#1004 = ORIENTED_EDGE('',*,*,#1005,.T.);
#1005 = EDGE_CURVE('',#702,#1006,#1008,.T.);
#1006 = VERTEX_POINT('',#1007);
#1007 = CARTESIAN_POINT('',(18.185,29.445,21.));
#1008 = LINE('',#1009,#1010);
#1009 = CARTESIAN_POINT('',(18.185,28.945,20.5));
#1010 = VECTOR('',#1011,1.);
#1011 = DIRECTION('',(4.329780281177E-17,0.707106781187,0.707106781187)
  );
#1012 = ORIENTED_EDGE('',*,*,#1013,.F.);
#1013 = EDGE_CURVE('',#957,#1006,#1014,.T.);
#1014 = CIRCLE('',#1015,1.E-01);
#1015 = AXIS2_PLACEMENT_3D('',#1016,#1017,#1018);
#1016 = CARTESIAN_POINT('',(18.185,29.545,21.));
#1017 = DIRECTION('',(0.,0.,1.));
#1018 = DIRECTION('',(-1.,0.,0.));
#1019 = CONICAL_SURFACE('',#1020,0.6,0.785398163397);
#1020 = AXIS2_PLACEMENT_3D('',#1021,#1022,#1023);
#1021 = CARTESIAN_POINT('',(18.185,29.545,20.5));
#1022 = DIRECTION('',(-0.,-0.,-1.));
#1023 = DIRECTION('',(-1.,0.,0.));
#1024 = ADVANCED_FACE('',(#1025),#1043,.F.);
#1025 = FACE_BOUND('',#1026,.T.);
#1026 = EDGE_LOOP('',(#1027,#1035,#1036,#1037));
#1027 = ORIENTED_EDGE('',*,*,#1028,.F.);
#1028 = EDGE_CURVE('',#726,#1029,#1031,.T.);
#1029 = VERTEX_POINT('',#1030);
#1030 = CARTESIAN_POINT('',(24.915,29.545,21.));
#1031 = LINE('',#1032,#1033);
#1032 = CARTESIAN_POINT('',(25.415,29.545,20.5));
#1033 = VECTOR('',#1034,1.);
#1034 = DIRECTION('',(-0.707106781187,4.329780281177E-17,0.707106781187)
  );
#1035 = ORIENTED_EDGE('',*,*,#733,.T.);
#1036 = ORIENTED_EDGE('',*,*,#978,.T.);
#1037 = ORIENTED_EDGE('',*,*,#1038,.F.);
#1038 = EDGE_CURVE('',#1029,#979,#1039,.T.);
#1039 = LINE('',#1040,#1041);
#1040 = CARTESIAN_POINT('',(24.915,29.545,21.));
#1041 = VECTOR('',#1042,1.);
#1042 = DIRECTION('',(0.,1.,0.));
#1043 = PLANE('',#1044);
#1044 = AXIS2_PLACEMENT_3D('',#1045,#1046,#1047);
#1045 = CARTESIAN_POINT('',(25.165,29.545,20.75));
#1046 = DIRECTION('',(-0.707106781187,-1.889513820523E-18,
    -0.707106781187));
#1047 = DIRECTION('',(1.336088035637E-18,-1.,1.336088035637E-18));
#1048 = ADVANCED_FACE('',(#1049),#1067,.F.);
#1049 = FACE_BOUND('',#1050,.T.);
#1050 = EDGE_LOOP('',(#1051,#1052,#1053,#1061));
#1051 = ORIENTED_EDGE('',*,*,#1005,.F.);
#1052 = ORIENTED_EDGE('',*,*,#750,.T.);
#1053 = ORIENTED_EDGE('',*,*,#1054,.T.);
#1054 = EDGE_CURVE('',#751,#1055,#1057,.T.);
#1055 = VERTEX_POINT('',#1056);
#1056 = CARTESIAN_POINT('',(24.815,29.445,21.));
#1057 = LINE('',#1058,#1059);
#1058 = CARTESIAN_POINT('',(24.815,29.195,20.75));
#1059 = VECTOR('',#1060,1.);
#1060 = DIRECTION('',(2.90882763039E-35,0.707106781187,0.707106781187));
#1061 = ORIENTED_EDGE('',*,*,#1062,.F.);
#1062 = EDGE_CURVE('',#1006,#1055,#1063,.T.);
#1063 = LINE('',#1064,#1065);
#1064 = CARTESIAN_POINT('',(18.185,29.445,21.));
#1065 = VECTOR('',#1066,1.);
#1066 = DIRECTION('',(1.,0.,0.));
#1067 = PLANE('',#1068);
#1068 = AXIS2_PLACEMENT_3D('',#1069,#1070,#1071);
#1069 = CARTESIAN_POINT('',(18.185,29.195,20.75));
#1070 = DIRECTION('',(1.889513820523E-18,0.707106781187,-0.707106781187)
  );
#1071 = DIRECTION('',(-1.,1.336088035637E-18,-1.336088035637E-18));
#1072 = ADVANCED_FACE('',(#1073),#1085,.T.);
#1073 = FACE_BOUND('',#1074,.T.);
#1074 = EDGE_LOOP('',(#1075,#1076,#1077,#1078));
#1075 = ORIENTED_EDGE('',*,*,#1054,.F.);
#1076 = ORIENTED_EDGE('',*,*,#775,.T.);
#1077 = ORIENTED_EDGE('',*,*,#1028,.T.);
#1078 = ORIENTED_EDGE('',*,*,#1079,.F.);
#1079 = EDGE_CURVE('',#1055,#1029,#1080,.T.);
#1080 = CIRCLE('',#1081,1.E-01);
#1081 = AXIS2_PLACEMENT_3D('',#1082,#1083,#1084);
#1082 = CARTESIAN_POINT('',(24.815,29.545,21.));
#1083 = DIRECTION('',(-0.,0.,1.));
#1084 = DIRECTION('',(0.,-1.,0.));
#1085 = CONICAL_SURFACE('',#1086,0.6,0.785398163397);
#1086 = AXIS2_PLACEMENT_3D('',#1087,#1088,#1089);
#1087 = CARTESIAN_POINT('',(24.815,29.545,20.5));
#1088 = DIRECTION('',(-0.,-0.,-1.));
#1089 = DIRECTION('',(0.,-1.,0.));
#1090 = ADVANCED_FACE('',(#1091),#1102,.F.);
#1091 = FACE_BOUND('',#1092,.F.);
#1092 = EDGE_LOOP('',(#1093,#1094,#1095,#1101));
#1093 = ORIENTED_EDGE('',*,*,#791,.F.);
#1094 = ORIENTED_EDGE('',*,*,#874,.T.);
#1095 = ORIENTED_EDGE('',*,*,#1096,.T.);
#1096 = EDGE_CURVE('',#875,#820,#1097,.T.);
#1097 = LINE('',#1098,#1099);
#1098 = CARTESIAN_POINT('',(47.,12.9,0.));
#1099 = VECTOR('',#1100,1.);
#1100 = DIRECTION('',(0.,1.,0.));
#1101 = ORIENTED_EDGE('',*,*,#819,.T.);
#1102 = PLANE('',#1103);
#1103 = AXIS2_PLACEMENT_3D('',#1104,#1105,#1106);
#1104 = CARTESIAN_POINT('',(45.172338161771,15.9,0.));
#1105 = DIRECTION('',(0.,0.,1.));
#1106 = DIRECTION('',(1.,0.,0.));
#1107 = ADVANCED_FACE('',(#1108),#1114,.F.);
#1108 = FACE_BOUND('',#1109,.F.);
#1109 = EDGE_LOOP('',(#1110,#1111,#1112,#1113));
#1110 = ORIENTED_EDGE('',*,*,#884,.T.);
#1111 = ORIENTED_EDGE('',*,*,#859,.T.);
#1112 = ORIENTED_EDGE('',*,*,#827,.F.);
#1113 = ORIENTED_EDGE('',*,*,#1096,.F.);
#1114 = PLANE('',#1115);
#1115 = AXIS2_PLACEMENT_3D('',#1116,#1117,#1118);
#1116 = CARTESIAN_POINT('',(47.,12.9,0.));
#1117 = DIRECTION('',(-1.,0.,0.));
#1118 = DIRECTION('',(0.,1.,0.));
#1119 = ADVANCED_FACE('',(#1120),#1130,.T.);
#1120 = FACE_BOUND('',#1121,.T.);
#1121 = EDGE_LOOP('',(#1122,#1123,#1124,#1125,#1126,#1127,#1128,#1129));
#1122 = ORIENTED_EDGE('',*,*,#940,.T.);
#1123 = ORIENTED_EDGE('',*,*,#915,.T.);
#1124 = ORIENTED_EDGE('',*,*,#964,.T.);
#1125 = ORIENTED_EDGE('',*,*,#1013,.T.);
#1126 = ORIENTED_EDGE('',*,*,#1062,.T.);
#1127 = ORIENTED_EDGE('',*,*,#1079,.T.);
#1128 = ORIENTED_EDGE('',*,*,#1038,.T.);
#1129 = ORIENTED_EDGE('',*,*,#988,.T.);
#1130 = PLANE('',#1131);
#1131 = AXIS2_PLACEMENT_3D('',#1132,#1133,#1134);
#1132 = CARTESIAN_POINT('',(21.5,32.86,21.));
#1133 = DIRECTION('',(0.,0.,1.));
#1134 = DIRECTION('',(1.,0.,0.));
#1135 = ( GEOMETRIC_REPRESENTATION_CONTEXT(3) 
GLOBAL_UNCERTAINTY_ASSIGNED_CONTEXT((#1139)) 
GLOBAL_UNIT_ASSIGNED_CONTEXT((#1136,#1137,#1138)) REPRESENTATION_CONTEXT
('Context #1','3D Context with UNIT and UNCERTAINTY') );
#1136 = ( LENGTH_UNIT() NAMED_UNIT(*) SI_UNIT(.MILLI.,.METRE.) );
#1137 = ( NAMED_UNIT(*) PLANE_ANGLE_UNIT() SI_UNIT($,.RADIAN.) );
#1138 = ( NAMED_UNIT(*) SI_UNIT($,.STERADIAN.) SOLID_ANGLE_UNIT() );
#1139 = UNCERTAINTY_MEASURE_WITH_UNIT(LENGTH_MEASURE(1.E-07),#1136,
  'distance_accuracy_value','confusion accuracy');
#1140 = PRODUCT_RELATED_PRODUCT_CATEGORY('part',$,(#7));
ENDSEC;
END-ISO-10303-21;
