ISO-10303-21;
HEADER;
FILE_DESCRIPTION(('FreeCAD Model'),'2;1');
FILE_NAME('Open CASCADE Shape Model','2026-08-29T15:58:20',('FreeCAD'),(
    'FreeCAD'),'Open CASCADE STEP processor 7.8','FreeCAD','Unknown');
FILE_SCHEMA(('AUTOMOTIVE_DESIGN { 1 0 10303 214 1 1 1 1 }'));
ENDSEC;
DATA;
#1 = APPLICATION_PROTOCOL_DEFINITION('international standard',
  'automotive_design',2000,#2);
#2 = APPLICATION_CONTEXT(
  'core data for automotive mechanical design processes');
#3 = SHAPE_DEFINITION_REPRESENTATION(#4,#10);
#4 = PRODUCT_DEFINITION_SHAPE('','',#5);
#5 = PRODUCT_DEFINITION('design','',#6,#9);
#6 = PRODUCT_DEFINITION_FORMATION('','',#7);
#7 = PRODUCT('Open CASCADE STEP translator 7.8 100',
  'Open CASCADE STEP translator 7.8 100','',(#8));
#8 = PRODUCT_CONTEXT('',#2,'mechanical');
#9 = PRODUCT_DEFINITION_CONTEXT('part definition',#2,'design');
#10 = SHAPE_REPRESENTATION('',(#11,#15,#1007,#1157,#1538),#1655);
#11 = AXIS2_PLACEMENT_3D('',#12,#13,#14);
#12 = CARTESIAN_POINT('',(0.,0.,0.));
#13 = DIRECTION('',(0.,0.,1.));
#14 = DIRECTION('',(1.,0.,-0.));
#15 = MANIFOLD_SOLID_BREP('',#16);
#16 = CLOSED_SHELL('',(#17,#57,#90,#123,#156,#189,#222,#255,#288,#319,
    #352,#385,#418,#451,#484,#517,#548,#581,#614,#647,#680,#713,#746,
    #779,#812,#845,#878,#911,#935,#971));
#17 = ADVANCED_FACE('',(#18),#52,.T.);
#18 = FACE_BOUND('',#19,.T.);
#19 = EDGE_LOOP('',(#20,#30,#38,#46));
#20 = ORIENTED_EDGE('',*,*,#21,.T.);
#21 = EDGE_CURVE('',#22,#24,#26,.T.);
#22 = VERTEX_POINT('',#23);
#23 = CARTESIAN_POINT('',(9.532908704883,1.983254484144,4.864186032184)
  );
#24 = VERTEX_POINT('',#25);
#25 = CARTESIAN_POINT('',(9.532908704883,1.231500387515,5.137802146845)
  );
#26 = LINE('',#27,#28);
#27 = CARTESIAN_POINT('',(9.532908704883,1.983254484144,4.864186032184)
  );
#28 = VECTOR('',#29,1.);
#29 = DIRECTION('',(0.,-0.939692620786,0.342020143326));
#30 = ORIENTED_EDGE('',*,*,#31,.T.);
#31 = EDGE_CURVE('',#24,#32,#34,.T.);
#32 = VERTEX_POINT('',#33);
#33 = CARTESIAN_POINT('',(10.225902335456,1.260140036035,5.216488934454)
  );
#34 = LINE('',#35,#36);
#35 = CARTESIAN_POINT('',(9.532908704883,1.231500387515,5.137802146845)
  );
#36 = VECTOR('',#37,1.);
#37 = DIRECTION('',(0.992778634966,4.102899349847E-02,0.11272623318));
#38 = ORIENTED_EDGE('',*,*,#39,.F.);
#39 = EDGE_CURVE('',#40,#32,#42,.T.);
#40 = VERTEX_POINT('',#41);
#41 = CARTESIAN_POINT('',(10.225902335456,2.011894132663,4.942872819793)
  );
#42 = LINE('',#43,#44);
#43 = CARTESIAN_POINT('',(10.225902335456,2.011894132663,4.942872819793)
  );
#44 = VECTOR('',#45,1.);
#45 = DIRECTION('',(0.,-0.939692620786,0.342020143326));
#46 = ORIENTED_EDGE('',*,*,#47,.F.);
#47 = EDGE_CURVE('',#22,#40,#48,.T.);
#48 = LINE('',#49,#50);
#49 = CARTESIAN_POINT('',(9.532908704883,1.983254484144,4.864186032184)
  );
#50 = VECTOR('',#51,1.);
#51 = DIRECTION('',(0.992778634966,4.102899349847E-02,0.11272623318));
#52 = PLANE('',#53);
#53 = AXIS2_PLACEMENT_3D('',#54,#55,#56);
#54 = CARTESIAN_POINT('',(9.532908704883,1.983254484144,4.864186032184)
  );
#55 = DIRECTION('',(-0.119960751725,0.339550291022,0.932906757352));
#56 = DIRECTION('',(0.992778634966,4.102899349847E-02,0.11272623318));
#57 = ADVANCED_FACE('',(#58),#83,.T.);
#58 = FACE_BOUND('',#59,.T.);
#59 = EDGE_LOOP('',(#60,#61,#69,#77));
#60 = ORIENTED_EDGE('',*,*,#39,.T.);
#61 = ORIENTED_EDGE('',*,*,#62,.T.);
#62 = EDGE_CURVE('',#32,#63,#65,.T.);
#63 = VERTEX_POINT('',#64);
#64 = CARTESIAN_POINT('',(10.404246284501,1.121995849057,4.836940900105)
  );
#65 = B_SPLINE_CURVE_WITH_KNOTS('',2,(#66,#67,#68),.UNSPECIFIED.,.F.,.F.
  ,(3,3),(0.,1.),.PIECEWISE_BEZIER_KNOTS.);
#66 = CARTESIAN_POINT('',(10.225902335456,1.260140036035,5.216488934454)
  );
#67 = CARTESIAN_POINT('',(10.259023354565,1.169806053381,4.968298356905)
  );
#68 = CARTESIAN_POINT('',(10.404246284501,1.121995849057,4.836940900105)
  );
#69 = ORIENTED_EDGE('',*,*,#70,.F.);
#70 = EDGE_CURVE('',#71,#63,#73,.T.);
#71 = VERTEX_POINT('',#72);
#72 = CARTESIAN_POINT('',(10.404246284501,1.873749945686,4.563324785445)
  );
#73 = LINE('',#74,#75);
#74 = CARTESIAN_POINT('',(10.404246284501,1.873749945686,4.563324785445)
  );
#75 = VECTOR('',#76,1.);
#76 = DIRECTION('',(0.,-0.939692620786,0.342020143326));
#77 = ORIENTED_EDGE('',*,*,#78,.F.);
#78 = EDGE_CURVE('',#40,#71,#79,.T.);
#79 = B_SPLINE_CURVE_WITH_KNOTS('',2,(#80,#81,#82),.UNSPECIFIED.,.F.,.F.
  ,(3,3),(0.,1.),.PIECEWISE_BEZIER_KNOTS.);
#80 = CARTESIAN_POINT('',(10.225902335456,2.011894132663,4.942872819793)
  );
#81 = CARTESIAN_POINT('',(10.259023354565,1.92156015001,4.694682242244)
  );
#82 = CARTESIAN_POINT('',(10.404246284501,1.873749945686,4.563324785445)
  );
#83 = SURFACE_OF_LINEAR_EXTRUSION('',#84,#88);
#84 = B_SPLINE_CURVE_WITH_KNOTS('',2,(#85,#86,#87),.UNSPECIFIED.,.F.,.F.
  ,(3,3),(0.,1.),.PIECEWISE_BEZIER_KNOTS.);
#85 = CARTESIAN_POINT('',(10.225902335456,2.011894132663,4.942872819793)
  );
#86 = CARTESIAN_POINT('',(10.259023354565,1.92156015001,4.694682242244)
  );
#87 = CARTESIAN_POINT('',(10.404246284501,1.873749945686,4.563324785445)
  );
#88 = VECTOR('',#89,1.);
#89 = DIRECTION('',(-0.,0.939692620786,-0.342020143326));
#90 = ADVANCED_FACE('',(#91),#116,.T.);
#91 = FACE_BOUND('',#92,.T.);
#92 = EDGE_LOOP('',(#93,#94,#102,#110));
#93 = ORIENTED_EDGE('',*,*,#70,.T.);
#94 = ORIENTED_EDGE('',*,*,#95,.T.);
#95 = EDGE_CURVE('',#63,#96,#98,.T.);
#96 = VERTEX_POINT('',#97);
#97 = CARTESIAN_POINT('',(10.755838641189,1.074243737327,4.705743051394)
  );
#98 = B_SPLINE_CURVE_WITH_KNOTS('',2,(#99,#100,#101),.UNSPECIFIED.,.F.,
  .F.,(3,3),(0.,1.),.PIECEWISE_BEZIER_KNOTS.);
#99 = CARTESIAN_POINT('',(10.404246284501,1.121995849057,4.836940900105)
  );
#100 = CARTESIAN_POINT('',(10.549469214437,1.074243737327,4.705743051394
    ));
#101 = CARTESIAN_POINT('',(10.755838641189,1.074243737327,4.705743051394
    ));
#102 = ORIENTED_EDGE('',*,*,#103,.F.);
#103 = EDGE_CURVE('',#104,#96,#106,.T.);
#104 = VERTEX_POINT('',#105);
#105 = CARTESIAN_POINT('',(10.755838641189,1.825997833956,4.432126936734
    ));
#106 = LINE('',#107,#108);
#107 = CARTESIAN_POINT('',(10.755838641189,1.825997833956,4.432126936734
    ));
#108 = VECTOR('',#109,1.);
#109 = DIRECTION('',(0.,-0.939692620786,0.342020143326));
#110 = ORIENTED_EDGE('',*,*,#111,.F.);
#111 = EDGE_CURVE('',#71,#104,#112,.T.);
#112 = B_SPLINE_CURVE_WITH_KNOTS('',2,(#113,#114,#115),.UNSPECIFIED.,.F.
  ,.F.,(3,3),(0.,1.),.PIECEWISE_BEZIER_KNOTS.);
#113 = CARTESIAN_POINT('',(10.404246284501,1.873749945686,4.563324785445
    ));
#114 = CARTESIAN_POINT('',(10.549469214437,1.825997833956,4.432126936734
    ));
#115 = CARTESIAN_POINT('',(10.755838641189,1.825997833956,4.432126936734
    ));
#116 = SURFACE_OF_LINEAR_EXTRUSION('',#117,#121);
#117 = B_SPLINE_CURVE_WITH_KNOTS('',2,(#118,#119,#120),.UNSPECIFIED.,.F.
  ,.F.,(3,3),(0.,1.),.PIECEWISE_BEZIER_KNOTS.);
#118 = CARTESIAN_POINT('',(10.404246284501,1.873749945686,4.563324785445
    ));
#119 = CARTESIAN_POINT('',(10.549469214437,1.825997833956,4.432126936734
    ));
#120 = CARTESIAN_POINT('',(10.755838641189,1.825997833956,4.432126936734
    ));
#121 = VECTOR('',#122,1.);
#122 = DIRECTION('',(-0.,0.939692620786,-0.342020143326));
#123 = ADVANCED_FACE('',(#124),#149,.T.);
#124 = FACE_BOUND('',#125,.T.);
#125 = EDGE_LOOP('',(#126,#127,#135,#143));
#126 = ORIENTED_EDGE('',*,*,#103,.T.);
#127 = ORIENTED_EDGE('',*,*,#128,.T.);
#128 = EDGE_CURVE('',#96,#129,#131,.T.);
#129 = VERTEX_POINT('',#130);
#130 = CARTESIAN_POINT('',(11.129002123142,1.132220145486,4.865031923673
    ));
#131 = B_SPLINE_CURVE_WITH_KNOTS('',2,(#132,#133,#134),.UNSPECIFIED.,.F.
  ,.F.,(3,3),(0.,1.),.PIECEWISE_BEZIER_KNOTS.);
#132 = CARTESIAN_POINT('',(10.755838641189,1.074243737327,4.705743051394
    ));
#133 = CARTESIAN_POINT('',(10.977494692144,1.074243737327,4.705743051394
    ));
#134 = CARTESIAN_POINT('',(11.129002123142,1.132220145486,4.865031923673
    ));
#135 = ORIENTED_EDGE('',*,*,#136,.F.);
#136 = EDGE_CURVE('',#137,#129,#139,.T.);
#137 = VERTEX_POINT('',#138);
#138 = CARTESIAN_POINT('',(11.129002123142,1.883974242115,4.591415809013
    ));
#139 = LINE('',#140,#141);
#140 = CARTESIAN_POINT('',(11.129002123142,1.883974242115,4.591415809013
    ));
#141 = VECTOR('',#142,1.);
#142 = DIRECTION('',(0.,-0.939692620786,0.342020143326));
#143 = ORIENTED_EDGE('',*,*,#144,.F.);
#144 = EDGE_CURVE('',#104,#137,#145,.T.);
#145 = B_SPLINE_CURVE_WITH_KNOTS('',2,(#146,#147,#148),.UNSPECIFIED.,.F.
  ,.F.,(3,3),(0.,1.),.PIECEWISE_BEZIER_KNOTS.);
#146 = CARTESIAN_POINT('',(10.755838641189,1.825997833956,4.432126936734
    ));
#147 = CARTESIAN_POINT('',(10.977494692144,1.825997833956,4.432126936734
    ));
#148 = CARTESIAN_POINT('',(11.129002123142,1.883974242115,4.591415809013
    ));
#149 = SURFACE_OF_LINEAR_EXTRUSION('',#150,#154);
#150 = B_SPLINE_CURVE_WITH_KNOTS('',2,(#151,#152,#153),.UNSPECIFIED.,.F.
  ,.F.,(3,3),(0.,1.),.PIECEWISE_BEZIER_KNOTS.);
#151 = CARTESIAN_POINT('',(10.755838641189,1.825997833956,4.432126936734
    ));
#152 = CARTESIAN_POINT('',(10.977494692144,1.825997833956,4.432126936734
    ));
#153 = CARTESIAN_POINT('',(11.129002123142,1.883974242115,4.591415809013
    ));
#154 = VECTOR('',#155,1.);
#155 = DIRECTION('',(-0.,0.939692620786,-0.342020143326));
#156 = ADVANCED_FACE('',(#157),#182,.T.);
#157 = FACE_BOUND('',#158,.T.);
#158 = EDGE_LOOP('',(#159,#160,#168,#176));
#159 = ORIENTED_EDGE('',*,*,#136,.T.);
#160 = ORIENTED_EDGE('',*,*,#161,.T.);
#161 = EDGE_CURVE('',#129,#162,#164,.T.);
#162 = VERTEX_POINT('',#163);
#163 = CARTESIAN_POINT('',(11.28067940552,1.288605406774,5.294696897797)
  );
#164 = B_SPLINE_CURVE_WITH_KNOTS('',2,(#165,#166,#167),.UNSPECIFIED.,.F.
  ,.F.,(3,3),(0.,1.),.PIECEWISE_BEZIER_KNOTS.);
#165 = CARTESIAN_POINT('',(11.129002123142,1.132220145486,4.865031923673
    ));
#166 = CARTESIAN_POINT('',(11.28067940552,1.190196553646,5.024320795953)
  );
#167 = CARTESIAN_POINT('',(11.28067940552,1.288605406774,5.294696897797)
  );
#168 = ORIENTED_EDGE('',*,*,#169,.F.);
#169 = EDGE_CURVE('',#170,#162,#172,.T.);
#170 = VERTEX_POINT('',#171);
#171 = CARTESIAN_POINT('',(11.28067940552,2.040359503403,5.021080783137)
  );
#172 = LINE('',#173,#174);
#173 = CARTESIAN_POINT('',(11.28067940552,2.040359503403,5.021080783137)
  );
#174 = VECTOR('',#175,1.);
#175 = DIRECTION('',(0.,-0.939692620786,0.342020143326));
#176 = ORIENTED_EDGE('',*,*,#177,.F.);
#177 = EDGE_CURVE('',#137,#170,#178,.T.);
#178 = B_SPLINE_CURVE_WITH_KNOTS('',2,(#179,#180,#181),.UNSPECIFIED.,.F.
  ,.F.,(3,3),(0.,1.),.PIECEWISE_BEZIER_KNOTS.);
#179 = CARTESIAN_POINT('',(11.129002123142,1.883974242115,4.591415809013
    ));
#180 = CARTESIAN_POINT('',(11.28067940552,1.941950650275,4.750704681292)
  );
#181 = CARTESIAN_POINT('',(11.28067940552,2.040359503403,5.021080783137)
  );
#182 = SURFACE_OF_LINEAR_EXTRUSION('',#183,#187);
#183 = B_SPLINE_CURVE_WITH_KNOTS('',2,(#184,#185,#186),.UNSPECIFIED.,.F.
  ,.F.,(3,3),(0.,1.),.PIECEWISE_BEZIER_KNOTS.);
#184 = CARTESIAN_POINT('',(11.129002123142,1.883974242115,4.591415809013
    ));
#185 = CARTESIAN_POINT('',(11.28067940552,1.941950650275,4.750704681292)
  );
#186 = CARTESIAN_POINT('',(11.28067940552,2.040359503403,5.021080783137)
  );
#187 = VECTOR('',#188,1.);
#188 = DIRECTION('',(-0.,0.939692620786,-0.342020143326));
#189 = ADVANCED_FACE('',(#190),#215,.T.);
#190 = FACE_BOUND('',#191,.T.);
#191 = EDGE_LOOP('',(#192,#193,#201,#209));
#192 = ORIENTED_EDGE('',*,*,#169,.T.);
#193 = ORIENTED_EDGE('',*,*,#194,.T.);
#194 = EDGE_CURVE('',#162,#195,#197,.T.);
#195 = VERTEX_POINT('',#196);
#196 = CARTESIAN_POINT('',(11.135456475584,1.436160593874,5.700101442476
    ));
#197 = B_SPLINE_CURVE_WITH_KNOTS('',2,(#198,#199,#200),.UNSPECIFIED.,.F.
  ,.F.,(3,3),(0.,1.),.PIECEWISE_BEZIER_KNOTS.);
#198 = CARTESIAN_POINT('',(11.28067940552,1.288605406774,5.294696897797)
  );
#199 = CARTESIAN_POINT('',(11.28067940552,1.381727833908,5.550548663593)
  );
#200 = CARTESIAN_POINT('',(11.135456475584,1.436160593874,5.700101442476
    ));
#201 = ORIENTED_EDGE('',*,*,#202,.F.);
#202 = EDGE_CURVE('',#203,#195,#205,.T.);
#203 = VERTEX_POINT('',#204);
#204 = CARTESIAN_POINT('',(11.135456475584,2.187914690502,5.426485327816
    ));
#205 = LINE('',#206,#207);
#206 = CARTESIAN_POINT('',(11.135456475584,2.187914690502,5.426485327816
    ));
#207 = VECTOR('',#208,1.);
#208 = DIRECTION('',(0.,-0.939692620786,0.342020143326));
#209 = ORIENTED_EDGE('',*,*,#210,.F.);
#210 = EDGE_CURVE('',#170,#203,#211,.T.);
#211 = B_SPLINE_CURVE_WITH_KNOTS('',2,(#212,#213,#214),.UNSPECIFIED.,.F.
  ,.F.,(3,3),(0.,1.),.PIECEWISE_BEZIER_KNOTS.);
#212 = CARTESIAN_POINT('',(11.28067940552,2.040359503403,5.021080783137)
  );
#213 = CARTESIAN_POINT('',(11.28067940552,2.133481930537,5.276932548932)
  );
#214 = CARTESIAN_POINT('',(11.135456475584,2.187914690502,5.426485327816
    ));
#215 = SURFACE_OF_LINEAR_EXTRUSION('',#216,#220);
#216 = B_SPLINE_CURVE_WITH_KNOTS('',2,(#217,#218,#219),.UNSPECIFIED.,.F.
  ,.F.,(3,3),(0.,1.),.PIECEWISE_BEZIER_KNOTS.);
#217 = CARTESIAN_POINT('',(11.28067940552,2.040359503403,5.021080783137)
  );
#218 = CARTESIAN_POINT('',(11.28067940552,2.133481930537,5.276932548932)
  );
#219 = CARTESIAN_POINT('',(11.135456475584,2.187914690502,5.426485327816
    ));
#220 = VECTOR('',#221,1.);
#221 = DIRECTION('',(-0.,0.939692620786,-0.342020143326));
#222 = ADVANCED_FACE('',(#223),#248,.T.);
#223 = FACE_BOUND('',#224,.T.);
#224 = EDGE_LOOP('',(#225,#226,#234,#242));
#225 = ORIENTED_EDGE('',*,*,#202,.T.);
#226 = ORIENTED_EDGE('',*,*,#227,.T.);
#227 = EDGE_CURVE('',#195,#228,#230,.T.);
#228 = VERTEX_POINT('',#229);
#229 = CARTESIAN_POINT('',(10.781316348195,1.490651446432,5.849813829448
    ));
#230 = B_SPLINE_CURVE_WITH_KNOTS('',2,(#231,#232,#233),.UNSPECIFIED.,.F.
  ,.F.,(3,3),(0.,1.),.PIECEWISE_BEZIER_KNOTS.);
#231 = CARTESIAN_POINT('',(11.135456475584,1.436160593874,5.700101442476
    ));
#232 = CARTESIAN_POINT('',(10.990233545648,1.490651446432,5.849813829448
    ));
#233 = CARTESIAN_POINT('',(10.781316348195,1.490651446432,5.849813829448
    ));
#234 = ORIENTED_EDGE('',*,*,#235,.F.);
#235 = EDGE_CURVE('',#236,#228,#238,.T.);
#236 = VERTEX_POINT('',#237);
#237 = CARTESIAN_POINT('',(10.781316348195,2.242405543061,5.576197714788
    ));
#238 = LINE('',#239,#240);
#239 = CARTESIAN_POINT('',(10.781316348195,2.242405543061,5.576197714788
    ));
#240 = VECTOR('',#241,1.);
#241 = DIRECTION('',(0.,-0.939692620786,0.342020143326));
#242 = ORIENTED_EDGE('',*,*,#243,.F.);
#243 = EDGE_CURVE('',#203,#236,#244,.T.);
#244 = B_SPLINE_CURVE_WITH_KNOTS('',2,(#245,#246,#247),.UNSPECIFIED.,.F.
  ,.F.,(3,3),(0.,1.),.PIECEWISE_BEZIER_KNOTS.);
#245 = CARTESIAN_POINT('',(11.135456475584,2.187914690502,5.426485327816
    ));
#246 = CARTESIAN_POINT('',(10.990233545648,2.242405543061,5.576197714788
    ));
#247 = CARTESIAN_POINT('',(10.781316348195,2.242405543061,5.576197714788
    ));
#248 = SURFACE_OF_LINEAR_EXTRUSION('',#249,#253);
#249 = B_SPLINE_CURVE_WITH_KNOTS('',2,(#250,#251,#252),.UNSPECIFIED.,.F.
  ,.F.,(3,3),(0.,1.),.PIECEWISE_BEZIER_KNOTS.);
#250 = CARTESIAN_POINT('',(11.135456475584,2.187914690502,5.426485327816
    ));
#251 = CARTESIAN_POINT('',(10.990233545648,2.242405543061,5.576197714788
    ));
#252 = CARTESIAN_POINT('',(10.781316348195,2.242405543061,5.576197714788
    ));
#253 = VECTOR('',#254,1.);
#254 = DIRECTION('',(-0.,0.939692620786,-0.342020143326));
#255 = ADVANCED_FACE('',(#256),#281,.T.);
#256 = FACE_BOUND('',#257,.T.);
#257 = EDGE_LOOP('',(#258,#259,#267,#275));
#258 = ORIENTED_EDGE('',*,*,#235,.T.);
#259 = ORIENTED_EDGE('',*,*,#260,.T.);
#260 = EDGE_CURVE('',#228,#261,#263,.T.);
#261 = VERTEX_POINT('',#262);
#262 = CARTESIAN_POINT('',(10.452653927813,1.472352279528,5.799537281584
    ));
#263 = B_SPLINE_CURVE_WITH_KNOTS('',2,(#264,#265,#266),.UNSPECIFIED.,.F.
  ,.F.,(3,3),(0.,1.),.PIECEWISE_BEZIER_KNOTS.);
#264 = CARTESIAN_POINT('',(10.781316348195,1.490651446432,5.849813829448
    ));
#265 = CARTESIAN_POINT('',(10.643736730361,1.490651446432,5.849813829448
    ));
#266 = CARTESIAN_POINT('',(10.452653927813,1.472352279528,5.799537281584
    ));
#267 = ORIENTED_EDGE('',*,*,#268,.F.);
#268 = EDGE_CURVE('',#269,#261,#271,.T.);
#269 = VERTEX_POINT('',#270);
#270 = CARTESIAN_POINT('',(10.452653927813,2.224106376157,5.525921166924
    ));
#271 = LINE('',#272,#273);
#272 = CARTESIAN_POINT('',(10.452653927813,2.224106376157,5.525921166924
    ));
#273 = VECTOR('',#274,1.);
#274 = DIRECTION('',(0.,-0.939692620786,0.342020143326));
#275 = ORIENTED_EDGE('',*,*,#276,.F.);
#276 = EDGE_CURVE('',#236,#269,#277,.T.);
#277 = B_SPLINE_CURVE_WITH_KNOTS('',2,(#278,#279,#280),.UNSPECIFIED.,.F.
  ,.F.,(3,3),(0.,1.),.PIECEWISE_BEZIER_KNOTS.);
#278 = CARTESIAN_POINT('',(10.781316348195,2.242405543061,5.576197714788
    ));
#279 = CARTESIAN_POINT('',(10.643736730361,2.242405543061,5.576197714788
    ));
#280 = CARTESIAN_POINT('',(10.452653927813,2.224106376157,5.525921166924
    ));
#281 = SURFACE_OF_LINEAR_EXTRUSION('',#282,#286);
#282 = B_SPLINE_CURVE_WITH_KNOTS('',2,(#283,#284,#285),.UNSPECIFIED.,.F.
  ,.F.,(3,3),(0.,1.),.PIECEWISE_BEZIER_KNOTS.);
#283 = CARTESIAN_POINT('',(10.781316348195,2.242405543061,5.576197714788
    ));
#284 = CARTESIAN_POINT('',(10.643736730361,2.242405543061,5.576197714788
    ));
#285 = CARTESIAN_POINT('',(10.452653927813,2.224106376157,5.525921166924
    ));
#286 = VECTOR('',#287,1.);
#287 = DIRECTION('',(-0.,0.939692620786,-0.342020143326));
#288 = ADVANCED_FACE('',(#289),#314,.T.);
#289 = FACE_BOUND('',#290,.T.);
#290 = EDGE_LOOP('',(#291,#292,#300,#308));
#291 = ORIENTED_EDGE('',*,*,#268,.T.);
#292 = ORIENTED_EDGE('',*,*,#293,.T.);
#293 = EDGE_CURVE('',#261,#294,#296,.T.);
#294 = VERTEX_POINT('',#295);
#295 = CARTESIAN_POINT('',(10.531634819533,1.669111893192,6.340129877186
    ));
#296 = LINE('',#297,#298);
#297 = CARTESIAN_POINT('',(10.452653927813,1.472352279528,5.799537281584
    ));
#298 = VECTOR('',#299,1.);
#299 = DIRECTION('',(0.136013796445,0.338841730685,0.930960003826));
#300 = ORIENTED_EDGE('',*,*,#301,.F.);
#301 = EDGE_CURVE('',#302,#294,#304,.T.);
#302 = VERTEX_POINT('',#303);
#303 = CARTESIAN_POINT('',(10.531634819533,2.420865989821,6.066513762525
    ));
#304 = LINE('',#305,#306);
#305 = CARTESIAN_POINT('',(10.531634819533,2.420865989821,6.066513762525
    ));
#306 = VECTOR('',#307,1.);
#307 = DIRECTION('',(0.,-0.939692620786,0.342020143326));
#308 = ORIENTED_EDGE('',*,*,#309,.F.);
#309 = EDGE_CURVE('',#269,#302,#310,.T.);
#310 = LINE('',#311,#312);
#311 = CARTESIAN_POINT('',(10.452653927813,2.224106376157,5.525921166924
    ));
#312 = VECTOR('',#313,1.);
#313 = DIRECTION('',(0.136013796445,0.338841730685,0.930960003826));
#314 = PLANE('',#315);
#315 = AXIS2_PLACEMENT_3D('',#316,#317,#318);
#316 = CARTESIAN_POINT('',(10.452653927813,2.224106376157,5.525921166924
    ));
#317 = DIRECTION('',(-0.990706943135,4.651945815426E-02,0.127811160844)
  );
#318 = DIRECTION('',(0.136013796445,0.338841730685,0.930960003826));
#319 = ADVANCED_FACE('',(#320),#345,.T.);
#320 = FACE_BOUND('',#321,.T.);
#321 = EDGE_LOOP('',(#322,#323,#331,#339));
#322 = ORIENTED_EDGE('',*,*,#301,.T.);
#323 = ORIENTED_EDGE('',*,*,#324,.T.);
#324 = EDGE_CURVE('',#294,#325,#327,.T.);
#325 = VERTEX_POINT('',#326);
#326 = CARTESIAN_POINT('',(10.974946921444,1.712100412268,6.458239862643
    ));
#327 = B_SPLINE_CURVE_WITH_KNOTS('',2,(#328,#329,#330),.UNSPECIFIED.,.F.
  ,.F.,(3,3),(0.,1.),.PIECEWISE_BEZIER_KNOTS.);
#328 = CARTESIAN_POINT('',(10.531634819533,1.669111893192,6.340129877186
    ));
#329 = CARTESIAN_POINT('',(10.822080679406,1.666497726491,6.332947513205
    ));
#330 = CARTESIAN_POINT('',(10.974946921444,1.712100412268,6.458239862643
    ));
#331 = ORIENTED_EDGE('',*,*,#332,.F.);
#332 = EDGE_CURVE('',#333,#325,#335,.T.);
#333 = VERTEX_POINT('',#334);
#334 = CARTESIAN_POINT('',(10.974946921444,2.463854508897,6.184623747983
    ));
#335 = LINE('',#336,#337);
#336 = CARTESIAN_POINT('',(10.974946921444,2.463854508897,6.184623747983
    ));
#337 = VECTOR('',#338,1.);
#338 = DIRECTION('',(0.,-0.939692620786,0.342020143326));
#339 = ORIENTED_EDGE('',*,*,#340,.F.);
#340 = EDGE_CURVE('',#302,#333,#341,.T.);
#341 = B_SPLINE_CURVE_WITH_KNOTS('',2,(#342,#343,#344),.UNSPECIFIED.,.F.
  ,.F.,(3,3),(0.,1.),.PIECEWISE_BEZIER_KNOTS.);
#342 = CARTESIAN_POINT('',(10.531634819533,2.420865989821,6.066513762525
    ));
#343 = CARTESIAN_POINT('',(10.822080679406,2.41825182312,6.059331398545)
  );
#344 = CARTESIAN_POINT('',(10.974946921444,2.463854508897,6.184623747983
    ));
#345 = SURFACE_OF_LINEAR_EXTRUSION('',#346,#350);
#346 = B_SPLINE_CURVE_WITH_KNOTS('',2,(#347,#348,#349),.UNSPECIFIED.,.F.
  ,.F.,(3,3),(0.,1.),.PIECEWISE_BEZIER_KNOTS.);
#347 = CARTESIAN_POINT('',(10.531634819533,2.420865989821,6.066513762525
    ));
#348 = CARTESIAN_POINT('',(10.822080679406,2.41825182312,6.059331398545)
  );
#349 = CARTESIAN_POINT('',(10.974946921444,2.463854508897,6.184623747983
    ));
#350 = VECTOR('',#351,1.);
#351 = DIRECTION('',(-0.,0.939692620786,-0.342020143326));
#352 = ADVANCED_FACE('',(#353),#378,.T.);
#353 = FACE_BOUND('',#354,.T.);
#354 = EDGE_LOOP('',(#355,#356,#364,#372));
#355 = ORIENTED_EDGE('',*,*,#332,.T.);
#356 = ORIENTED_EDGE('',*,*,#357,.T.);
#357 = EDGE_CURVE('',#325,#358,#360,.T.);
#358 = VERTEX_POINT('',#359);
#359 = CARTESIAN_POINT('',(11.127813163482,1.833281561988,6.791182335163
    ));
#360 = B_SPLINE_CURVE_WITH_KNOTS('',2,(#361,#362,#363),.UNSPECIFIED.,.F.
  ,.F.,(3,3),(0.,1.),.PIECEWISE_BEZIER_KNOTS.);
#361 = CARTESIAN_POINT('',(10.974946921444,1.712100412268,6.458239862643
    ));
#362 = CARTESIAN_POINT('',(11.127813163482,1.757703098045,6.583532212081
    ));
#363 = CARTESIAN_POINT('',(11.127813163482,1.833281561988,6.791182335163
    ));
#364 = ORIENTED_EDGE('',*,*,#365,.F.);
#365 = EDGE_CURVE('',#366,#358,#368,.T.);
#366 = VERTEX_POINT('',#367);
#367 = CARTESIAN_POINT('',(11.127813163482,2.585035658617,6.517566220502
    ));
#368 = LINE('',#369,#370);
#369 = CARTESIAN_POINT('',(11.127813163482,2.585035658617,6.517566220502
    ));
#370 = VECTOR('',#371,1.);
#371 = DIRECTION('',(0.,-0.939692620786,0.342020143326));
#372 = ORIENTED_EDGE('',*,*,#373,.F.);
#373 = EDGE_CURVE('',#333,#366,#374,.T.);
#374 = B_SPLINE_CURVE_WITH_KNOTS('',2,(#375,#376,#377),.UNSPECIFIED.,.F.
  ,.F.,(3,3),(0.,1.),.PIECEWISE_BEZIER_KNOTS.);
#375 = CARTESIAN_POINT('',(10.974946921444,2.463854508897,6.184623747983
    ));
#376 = CARTESIAN_POINT('',(11.127813163482,2.509457194674,6.309916097421
    ));
#377 = CARTESIAN_POINT('',(11.127813163482,2.585035658617,6.517566220502
    ));
#378 = SURFACE_OF_LINEAR_EXTRUSION('',#379,#383);
#379 = B_SPLINE_CURVE_WITH_KNOTS('',2,(#380,#381,#382),.UNSPECIFIED.,.F.
  ,.F.,(3,3),(0.,1.),.PIECEWISE_BEZIER_KNOTS.);
#380 = CARTESIAN_POINT('',(10.974946921444,2.463854508897,6.184623747983
    ));
#381 = CARTESIAN_POINT('',(11.127813163482,2.509457194674,6.309916097421
    ));
#382 = CARTESIAN_POINT('',(11.127813163482,2.585035658617,6.517566220502
    ));
#383 = VECTOR('',#384,1.);
#384 = DIRECTION('',(-0.,0.939692620786,-0.342020143326));
#385 = ADVANCED_FACE('',(#386),#411,.T.);
#386 = FACE_BOUND('',#387,.T.);
#387 = EDGE_LOOP('',(#388,#389,#397,#405));
#388 = ORIENTED_EDGE('',*,*,#365,.T.);
#389 = ORIENTED_EDGE('',*,*,#390,.T.);
#390 = EDGE_CURVE('',#358,#391,#393,.T.);
#391 = VERTEX_POINT('',#392);
#392 = CARTESIAN_POINT('',(11.015711252654,1.935756896651,7.0727310032)
  );
#393 = B_SPLINE_CURVE_WITH_KNOTS('',2,(#394,#395,#396),.UNSPECIFIED.,.F.
  ,.F.,(3,3),(0.,1.),.PIECEWISE_BEZIER_KNOTS.);
#394 = CARTESIAN_POINT('',(11.127813163482,1.833281561988,6.791182335163
    ));
#395 = CARTESIAN_POINT('',(11.127813163482,1.897531970229,6.967708880995
    ));
#396 = CARTESIAN_POINT('',(11.015711252654,1.935756896651,7.0727310032)
  );
#397 = ORIENTED_EDGE('',*,*,#398,.F.);
#398 = EDGE_CURVE('',#399,#391,#401,.T.);
#399 = VERTEX_POINT('',#400);
#400 = CARTESIAN_POINT('',(11.015711252654,2.68751099328,6.799114888539)
  );
#401 = LINE('',#402,#403);
#402 = CARTESIAN_POINT('',(11.015711252654,2.68751099328,6.799114888539)
  );
#403 = VECTOR('',#404,1.);
#404 = DIRECTION('',(0.,-0.939692620786,0.342020143326));
#405 = ORIENTED_EDGE('',*,*,#406,.F.);
#406 = EDGE_CURVE('',#366,#399,#407,.T.);
#407 = B_SPLINE_CURVE_WITH_KNOTS('',2,(#408,#409,#410),.UNSPECIFIED.,.F.
  ,.F.,(3,3),(0.,1.),.PIECEWISE_BEZIER_KNOTS.);
#408 = CARTESIAN_POINT('',(11.127813163482,2.585035658617,6.517566220502
    ));
#409 = CARTESIAN_POINT('',(11.127813163482,2.649286066858,6.694092766335
    ));
#410 = CARTESIAN_POINT('',(11.015711252654,2.68751099328,6.799114888539)
  );
#411 = SURFACE_OF_LINEAR_EXTRUSION('',#412,#416);
#412 = B_SPLINE_CURVE_WITH_KNOTS('',2,(#413,#414,#415),.UNSPECIFIED.,.F.
  ,.F.,(3,3),(0.,1.),.PIECEWISE_BEZIER_KNOTS.);
#413 = CARTESIAN_POINT('',(11.127813163482,2.585035658617,6.517566220502
    ));
#414 = CARTESIAN_POINT('',(11.127813163482,2.649286066858,6.694092766335
    ));
#415 = CARTESIAN_POINT('',(11.015711252654,2.68751099328,6.799114888539)
  );
#416 = VECTOR('',#417,1.);
#417 = DIRECTION('',(-0.,0.939692620786,-0.342020143326));
#418 = ADVANCED_FACE('',(#419),#444,.T.);
#419 = FACE_BOUND('',#420,.T.);
#420 = EDGE_LOOP('',(#421,#422,#430,#438));
#421 = ORIENTED_EDGE('',*,*,#398,.T.);
#422 = ORIENTED_EDGE('',*,*,#423,.T.);
#423 = EDGE_CURVE('',#391,#424,#426,.T.);
#424 = VERTEX_POINT('',#425);
#425 = CARTESIAN_POINT('',(10.717622080679,1.973981823073,7.177753125404
    ));
#426 = B_SPLINE_CURVE_WITH_KNOTS('',2,(#427,#428,#429),.UNSPECIFIED.,.F.
  ,.F.,(3,3),(0.,1.),.PIECEWISE_BEZIER_KNOTS.);
#427 = CARTESIAN_POINT('',(11.015711252654,1.935756896651,7.0727310032)
  );
#428 = CARTESIAN_POINT('',(10.903609341826,1.973981823073,7.177753125404
    ));
#429 = CARTESIAN_POINT('',(10.717622080679,1.973981823073,7.177753125404
    ));
#430 = ORIENTED_EDGE('',*,*,#431,.F.);
#431 = EDGE_CURVE('',#432,#424,#434,.T.);
#432 = VERTEX_POINT('',#433);
#433 = CARTESIAN_POINT('',(10.717622080679,2.725735919701,6.904137010743
    ));
#434 = LINE('',#435,#436);
#435 = CARTESIAN_POINT('',(10.717622080679,2.725735919701,6.904137010743
    ));
#436 = VECTOR('',#437,1.);
#437 = DIRECTION('',(0.,-0.939692620786,0.342020143326));
#438 = ORIENTED_EDGE('',*,*,#439,.F.);
#439 = EDGE_CURVE('',#399,#432,#440,.T.);
#440 = B_SPLINE_CURVE_WITH_KNOTS('',2,(#441,#442,#443),.UNSPECIFIED.,.F.
  ,.F.,(3,3),(0.,1.),.PIECEWISE_BEZIER_KNOTS.);
#441 = CARTESIAN_POINT('',(11.015711252654,2.68751099328,6.799114888539)
  );
#442 = CARTESIAN_POINT('',(10.903609341826,2.725735919701,6.904137010743
    ));
#443 = CARTESIAN_POINT('',(10.717622080679,2.725735919701,6.904137010743
    ));
#444 = SURFACE_OF_LINEAR_EXTRUSION('',#445,#449);
#445 = B_SPLINE_CURVE_WITH_KNOTS('',2,(#446,#447,#448),.UNSPECIFIED.,.F.
  ,.F.,(3,3),(0.,1.),.PIECEWISE_BEZIER_KNOTS.);
#446 = CARTESIAN_POINT('',(11.015711252654,2.68751099328,6.799114888539)
  );
#447 = CARTESIAN_POINT('',(10.903609341826,2.725735919701,6.904137010743
    ));
#448 = CARTESIAN_POINT('',(10.717622080679,2.725735919701,6.904137010743
    ));
#449 = VECTOR('',#450,1.);
#450 = DIRECTION('',(-0.,0.939692620786,-0.342020143326));
#451 = ADVANCED_FACE('',(#452),#477,.T.);
#452 = FACE_BOUND('',#453,.T.);
#453 = EDGE_LOOP('',(#454,#455,#463,#471));
#454 = ORIENTED_EDGE('',*,*,#431,.T.);
#455 = ORIENTED_EDGE('',*,*,#456,.T.);
#456 = EDGE_CURVE('',#424,#457,#459,.T.);
#457 = VERTEX_POINT('',#458);
#458 = CARTESIAN_POINT('',(10.404246284501,1.93035428547,7.057887450973)
  );
#459 = B_SPLINE_CURVE_WITH_KNOTS('',2,(#460,#461,#462),.UNSPECIFIED.,.F.
  ,.F.,(3,3),(0.,1.),.PIECEWISE_BEZIER_KNOTS.);
#460 = CARTESIAN_POINT('',(10.717622080679,1.973981823073,7.177753125404
    ));
#461 = CARTESIAN_POINT('',(10.534182590234,1.973981823073,7.177753125404
    ));
#462 = CARTESIAN_POINT('',(10.404246284501,1.93035428547,7.057887450973)
  );
#463 = ORIENTED_EDGE('',*,*,#464,.F.);
#464 = EDGE_CURVE('',#465,#457,#467,.T.);
#465 = VERTEX_POINT('',#466);
#466 = CARTESIAN_POINT('',(10.404246284501,2.682108382098,6.784271336313
    ));
#467 = LINE('',#468,#469);
#468 = CARTESIAN_POINT('',(10.404246284501,2.682108382098,6.784271336313
    ));
#469 = VECTOR('',#470,1.);
#470 = DIRECTION('',(0.,-0.939692620786,0.342020143326));
#471 = ORIENTED_EDGE('',*,*,#472,.F.);
#472 = EDGE_CURVE('',#432,#465,#473,.T.);
#473 = B_SPLINE_CURVE_WITH_KNOTS('',2,(#474,#475,#476),.UNSPECIFIED.,.F.
  ,.F.,(3,3),(0.,1.),.PIECEWISE_BEZIER_KNOTS.);
#474 = CARTESIAN_POINT('',(10.717622080679,2.725735919701,6.904137010743
    ));
#475 = CARTESIAN_POINT('',(10.534182590234,2.725735919701,6.904137010743
    ));
#476 = CARTESIAN_POINT('',(10.404246284501,2.682108382098,6.784271336313
    ));
#477 = SURFACE_OF_LINEAR_EXTRUSION('',#478,#482);
#478 = B_SPLINE_CURVE_WITH_KNOTS('',2,(#479,#480,#481),.UNSPECIFIED.,.F.
  ,.F.,(3,3),(0.,1.),.PIECEWISE_BEZIER_KNOTS.);
#479 = CARTESIAN_POINT('',(10.717622080679,2.725735919701,6.904137010743
    ));
#480 = CARTESIAN_POINT('',(10.534182590234,2.725735919701,6.904137010743
    ));
#481 = CARTESIAN_POINT('',(10.404246284501,2.682108382098,6.784271336313
    ));
#482 = VECTOR('',#483,1.);
#483 = DIRECTION('',(-0.,0.939692620786,-0.342020143326));
#484 = ADVANCED_FACE('',(#485),#510,.T.);
#485 = FACE_BOUND('',#486,.T.);
#486 = EDGE_LOOP('',(#487,#488,#496,#504));
#487 = ORIENTED_EDGE('',*,*,#464,.T.);
#488 = ORIENTED_EDGE('',*,*,#489,.T.);
#489 = EDGE_CURVE('',#457,#490,#492,.T.);
#490 = VERTEX_POINT('',#491);
#491 = CARTESIAN_POINT('',(10.246284501062,1.802957228261,6.707866912989
    ));
#492 = B_SPLINE_CURVE_WITH_KNOTS('',2,(#493,#494,#495),.UNSPECIFIED.,.F.
  ,.F.,(3,3),(0.,1.),.PIECEWISE_BEZIER_KNOTS.);
#493 = CARTESIAN_POINT('',(10.404246284501,1.93035428547,7.057887450973)
  );
#494 = CARTESIAN_POINT('',(10.274309978769,1.886726747867,6.938021776543
    ));
#495 = CARTESIAN_POINT('',(10.246284501062,1.802957228261,6.707866912989
    ));
#496 = ORIENTED_EDGE('',*,*,#497,.F.);
#497 = EDGE_CURVE('',#498,#490,#500,.T.);
#498 = VERTEX_POINT('',#499);
#499 = CARTESIAN_POINT('',(10.246284501062,2.55471132489,6.434250798328)
  );
#500 = LINE('',#501,#502);
#501 = CARTESIAN_POINT('',(10.246284501062,2.55471132489,6.434250798328)
  );
#502 = VECTOR('',#503,1.);
#503 = DIRECTION('',(0.,-0.939692620786,0.342020143326));
#504 = ORIENTED_EDGE('',*,*,#505,.F.);
#505 = EDGE_CURVE('',#465,#498,#506,.T.);
#506 = B_SPLINE_CURVE_WITH_KNOTS('',2,(#507,#508,#509),.UNSPECIFIED.,.F.
  ,.F.,(3,3),(0.,1.),.PIECEWISE_BEZIER_KNOTS.);
#507 = CARTESIAN_POINT('',(10.404246284501,2.682108382098,6.784271336313
    ));
#508 = CARTESIAN_POINT('',(10.274309978769,2.638480844495,6.664405661882
    ));
#509 = CARTESIAN_POINT('',(10.246284501062,2.55471132489,6.434250798328)
  );
#510 = SURFACE_OF_LINEAR_EXTRUSION('',#511,#515);
#511 = B_SPLINE_CURVE_WITH_KNOTS('',2,(#512,#513,#514),.UNSPECIFIED.,.F.
  ,.F.,(3,3),(0.,1.),.PIECEWISE_BEZIER_KNOTS.);
#512 = CARTESIAN_POINT('',(10.404246284501,2.682108382098,6.784271336313
    ));
#513 = CARTESIAN_POINT('',(10.274309978769,2.638480844495,6.664405661882
    ));
#514 = CARTESIAN_POINT('',(10.246284501062,2.55471132489,6.434250798328)
  );
#515 = VECTOR('',#516,1.);
#516 = DIRECTION('',(-0.,0.939692620786,-0.342020143326));
#517 = ADVANCED_FACE('',(#518),#543,.T.);
#518 = FACE_BOUND('',#519,.T.);
#519 = EDGE_LOOP('',(#520,#521,#529,#537));
#520 = ORIENTED_EDGE('',*,*,#497,.T.);
#521 = ORIENTED_EDGE('',*,*,#522,.T.);
#522 = EDGE_CURVE('',#490,#523,#525,.T.);
#523 = VERTEX_POINT('',#524);
#524 = CARTESIAN_POINT('',(9.586411889597,1.841356432463,6.813367859458)
  );
#525 = LINE('',#526,#527);
#526 = CARTESIAN_POINT('',(10.246284501062,1.802957228261,6.707866912989
    ));
#527 = VECTOR('',#528,1.);
#528 = DIRECTION('',(-0.985832777796,5.736742741817E-02,0.157615711444)
  );
#529 = ORIENTED_EDGE('',*,*,#530,.F.);
#530 = EDGE_CURVE('',#531,#523,#533,.T.);
#531 = VERTEX_POINT('',#532);
#532 = CARTESIAN_POINT('',(9.586411889597,2.593110529092,6.539751744798)
  );
#533 = LINE('',#534,#535);
#534 = CARTESIAN_POINT('',(9.586411889597,2.593110529092,6.539751744798)
  );
#535 = VECTOR('',#536,1.);
#536 = DIRECTION('',(0.,-0.939692620786,0.342020143326));
#537 = ORIENTED_EDGE('',*,*,#538,.F.);
#538 = EDGE_CURVE('',#498,#531,#539,.T.);
#539 = LINE('',#540,#541);
#540 = CARTESIAN_POINT('',(10.246284501062,2.55471132489,6.434250798328)
  );
#541 = VECTOR('',#542,1.);
#542 = DIRECTION('',(-0.985832777796,5.736742741817E-02,0.157615711444)
  );
#543 = PLANE('',#544);
#544 = AXIS2_PLACEMENT_3D('',#545,#546,#547);
#545 = CARTESIAN_POINT('',(10.246284501062,2.55471132489,6.434250798328)
  );
#546 = DIRECTION('',(-0.167731136711,-0.337174667957,-0.926379786624));
#547 = DIRECTION('',(-0.985832777796,5.736742741817E-02,0.157615711444)
  );
#548 = ADVANCED_FACE('',(#549),#574,.T.);
#549 = FACE_BOUND('',#550,.T.);
#550 = EDGE_LOOP('',(#551,#552,#560,#568));
#551 = ORIENTED_EDGE('',*,*,#530,.T.);
#552 = ORIENTED_EDGE('',*,*,#553,.T.);
#553 = EDGE_CURVE('',#523,#554,#556,.T.);
#554 = VERTEX_POINT('',#555);
#555 = CARTESIAN_POINT('',(9.793970276008,2.028356490445,7.327146296199)
  );
#556 = B_SPLINE_CURVE_WITH_KNOTS('',2,(#557,#558,#559),.UNSPECIFIED.,.F.
  ,.F.,(3,3),(0.,1.),.PIECEWISE_BEZIER_KNOTS.);
#557 = CARTESIAN_POINT('',(9.586411889597,1.841356432463,6.813367859458)
  );
#558 = CARTESIAN_POINT('',(9.655201698514,1.958413008056,7.134978157698)
  );
#559 = CARTESIAN_POINT('',(9.793970276008,2.028356490445,7.327146296199)
  );
#560 = ORIENTED_EDGE('',*,*,#561,.F.);
#561 = EDGE_CURVE('',#562,#554,#564,.T.);
#562 = VERTEX_POINT('',#563);
#563 = CARTESIAN_POINT('',(9.793970276008,2.780110587073,7.053530181538)
  );
#564 = LINE('',#565,#566);
#565 = CARTESIAN_POINT('',(9.793970276008,2.780110587073,7.053530181538)
  );
#566 = VECTOR('',#567,1.);
#567 = DIRECTION('',(0.,-0.939692620786,0.342020143326));
#568 = ORIENTED_EDGE('',*,*,#569,.F.);
#569 = EDGE_CURVE('',#531,#562,#570,.T.);
#570 = B_SPLINE_CURVE_WITH_KNOTS('',2,(#571,#572,#573),.UNSPECIFIED.,.F.
  ,.F.,(3,3),(0.,1.),.PIECEWISE_BEZIER_KNOTS.);
#571 = CARTESIAN_POINT('',(9.586411889597,2.593110529092,6.539751744798)
  );
#572 = CARTESIAN_POINT('',(9.655201698514,2.710167104685,6.861362043037)
  );
#573 = CARTESIAN_POINT('',(9.793970276008,2.780110587073,7.053530181538)
  );
#574 = SURFACE_OF_LINEAR_EXTRUSION('',#575,#579);
#575 = B_SPLINE_CURVE_WITH_KNOTS('',2,(#576,#577,#578),.UNSPECIFIED.,.F.
  ,.F.,(3,3),(0.,1.),.PIECEWISE_BEZIER_KNOTS.);
#576 = CARTESIAN_POINT('',(9.586411889597,2.593110529092,6.539751744798)
  );
#577 = CARTESIAN_POINT('',(9.655201698514,2.710167104685,6.861362043037)
  );
#578 = CARTESIAN_POINT('',(9.793970276008,2.780110587073,7.053530181538)
  );
#579 = VECTOR('',#580,1.);
#580 = DIRECTION('',(-0.,0.939692620786,-0.342020143326));
#581 = ADVANCED_FACE('',(#582),#607,.T.);
#582 = FACE_BOUND('',#583,.T.);
#583 = EDGE_LOOP('',(#584,#585,#593,#601));
#584 = ORIENTED_EDGE('',*,*,#561,.T.);
#585 = ORIENTED_EDGE('',*,*,#586,.T.);
#586 = EDGE_CURVE('',#554,#587,#589,.T.);
#587 = VERTEX_POINT('',#588);
#588 = CARTESIAN_POINT('',(10.181231422505,2.138383862242,7.629444015735
    ));
#589 = B_SPLINE_CURVE_WITH_KNOTS('',2,(#590,#591,#592),.UNSPECIFIED.,.F.
  ,.F.,(3,3),(0.,1.),.PIECEWISE_BEZIER_KNOTS.);
#590 = CARTESIAN_POINT('',(9.793970276008,2.028356490445,7.327146296199)
  );
#591 = CARTESIAN_POINT('',(9.932908704883,2.098358065427,7.519474042789)
  );
#592 = CARTESIAN_POINT('',(10.181231422505,2.138383862242,7.629444015735
    ));
#593 = ORIENTED_EDGE('',*,*,#594,.F.);
#594 = EDGE_CURVE('',#595,#587,#597,.T.);
#595 = VERTEX_POINT('',#596);
#596 = CARTESIAN_POINT('',(10.181231422505,2.890137958871,7.355827901074
    ));
#597 = LINE('',#598,#599);
#598 = CARTESIAN_POINT('',(10.181231422505,2.890137958871,7.355827901074
    ));
#599 = VECTOR('',#600,1.);
#600 = DIRECTION('',(0.,-0.939692620786,0.342020143326));
#601 = ORIENTED_EDGE('',*,*,#602,.F.);
#602 = EDGE_CURVE('',#562,#595,#603,.T.);
#603 = B_SPLINE_CURVE_WITH_KNOTS('',2,(#604,#605,#606),.UNSPECIFIED.,.F.
  ,.F.,(3,3),(0.,1.),.PIECEWISE_BEZIER_KNOTS.);
#604 = CARTESIAN_POINT('',(9.793970276008,2.780110587073,7.053530181538)
  );
#605 = CARTESIAN_POINT('',(9.932908704883,2.850112162056,7.245857928128)
  );
#606 = CARTESIAN_POINT('',(10.181231422505,2.890137958871,7.355827901074
    ));
#607 = SURFACE_OF_LINEAR_EXTRUSION('',#608,#612);
#608 = B_SPLINE_CURVE_WITH_KNOTS('',2,(#609,#610,#611),.UNSPECIFIED.,.F.
  ,.F.,(3,3),(0.,1.),.PIECEWISE_BEZIER_KNOTS.);
#609 = CARTESIAN_POINT('',(9.793970276008,2.780110587073,7.053530181538)
  );
#610 = CARTESIAN_POINT('',(9.932908704883,2.850112162056,7.245857928128)
  );
#611 = CARTESIAN_POINT('',(10.181231422505,2.890137958871,7.355827901074
    ));
#612 = VECTOR('',#613,1.);
#613 = DIRECTION('',(-0.,0.939692620786,-0.342020143326));
#614 = ADVANCED_FACE('',(#615),#640,.T.);
#615 = FACE_BOUND('',#616,.T.);
#616 = EDGE_LOOP('',(#617,#618,#626,#634));
#617 = ORIENTED_EDGE('',*,*,#594,.T.);
#618 = ORIENTED_EDGE('',*,*,#619,.T.);
#619 = EDGE_CURVE('',#587,#620,#622,.T.);
#620 = VERTEX_POINT('',#621);
#621 = CARTESIAN_POINT('',(10.738004246285,2.178467751651,7.73957359677)
  );
#622 = B_SPLINE_CURVE_WITH_KNOTS('',2,(#623,#624,#625),.UNSPECIFIED.,.F.
  ,.F.,(3,3),(0.,1.),.PIECEWISE_BEZIER_KNOTS.);
#623 = CARTESIAN_POINT('',(10.181231422505,2.138383862242,7.629444015735
    ));
#624 = CARTESIAN_POINT('',(10.429723991507,2.178467751651,7.73957359677)
  );
#625 = CARTESIAN_POINT('',(10.738004246285,2.178467751651,7.73957359677)
  );
#626 = ORIENTED_EDGE('',*,*,#627,.F.);
#627 = EDGE_CURVE('',#628,#620,#630,.T.);
#628 = VERTEX_POINT('',#629);
#629 = CARTESIAN_POINT('',(10.738004246285,2.93022184828,7.465957482109)
  );
#630 = LINE('',#631,#632);
#631 = CARTESIAN_POINT('',(10.738004246285,2.93022184828,7.465957482109)
  );
#632 = VECTOR('',#633,1.);
#633 = DIRECTION('',(0.,-0.939692620786,0.342020143326));
#634 = ORIENTED_EDGE('',*,*,#635,.F.);
#635 = EDGE_CURVE('',#595,#628,#636,.T.);
#636 = B_SPLINE_CURVE_WITH_KNOTS('',2,(#637,#638,#639),.UNSPECIFIED.,.F.
  ,.F.,(3,3),(0.,1.),.PIECEWISE_BEZIER_KNOTS.);
#637 = CARTESIAN_POINT('',(10.181231422505,2.890137958871,7.355827901074
    ));
#638 = CARTESIAN_POINT('',(10.429723991507,2.93022184828,7.465957482109)
  );
#639 = CARTESIAN_POINT('',(10.738004246285,2.93022184828,7.465957482109)
  );
#640 = SURFACE_OF_LINEAR_EXTRUSION('',#641,#645);
#641 = B_SPLINE_CURVE_WITH_KNOTS('',2,(#642,#643,#644),.UNSPECIFIED.,.F.
  ,.F.,(3,3),(0.,1.),.PIECEWISE_BEZIER_KNOTS.);
#642 = CARTESIAN_POINT('',(10.181231422505,2.890137958871,7.355827901074
    ));
#643 = CARTESIAN_POINT('',(10.429723991507,2.93022184828,7.465957482109)
  );
#644 = CARTESIAN_POINT('',(10.738004246285,2.93022184828,7.465957482109)
  );
#645 = VECTOR('',#646,1.);
#646 = DIRECTION('',(-0.,0.939692620786,-0.342020143326));
#647 = ADVANCED_FACE('',(#648),#673,.T.);
#648 = FACE_BOUND('',#649,.T.);
#649 = EDGE_LOOP('',(#650,#651,#659,#667));
#650 = ORIENTED_EDGE('',*,*,#627,.T.);
#651 = ORIENTED_EDGE('',*,*,#652,.T.);
#652 = EDGE_CURVE('',#620,#653,#655,.T.);
#653 = VERTEX_POINT('',#654);
#654 = CARTESIAN_POINT('',(11.583864118896,2.063270139046,7.423070757361
    ));
#655 = B_SPLINE_CURVE_WITH_KNOTS('',2,(#656,#657,#658),.UNSPECIFIED.,.F.
  ,.F.,(3,3),(0.,1.),.PIECEWISE_BEZIER_KNOTS.);
#656 = CARTESIAN_POINT('',(10.738004246285,2.178467751651,7.73957359677)
  );
#657 = CARTESIAN_POINT('',(11.265392781316,2.178467751651,7.73957359677)
  );
#658 = CARTESIAN_POINT('',(11.583864118896,2.063270139046,7.423070757361
    ));
#659 = ORIENTED_EDGE('',*,*,#660,.F.);
#660 = EDGE_CURVE('',#661,#653,#663,.T.);
#661 = VERTEX_POINT('',#662);
#662 = CARTESIAN_POINT('',(11.583864118896,2.815024235674,7.1494546427)
  );
#663 = LINE('',#664,#665);
#664 = CARTESIAN_POINT('',(11.583864118896,2.815024235674,7.1494546427)
  );
#665 = VECTOR('',#666,1.);
#666 = DIRECTION('',(0.,-0.939692620786,0.342020143326));
#667 = ORIENTED_EDGE('',*,*,#668,.F.);
#668 = EDGE_CURVE('',#628,#661,#669,.T.);
#669 = B_SPLINE_CURVE_WITH_KNOTS('',2,(#670,#671,#672),.UNSPECIFIED.,.F.
  ,.F.,(3,3),(0.,1.),.PIECEWISE_BEZIER_KNOTS.);
#670 = CARTESIAN_POINT('',(10.738004246285,2.93022184828,7.465957482109)
  );
#671 = CARTESIAN_POINT('',(11.265392781316,2.93022184828,7.465957482109)
  );
#672 = CARTESIAN_POINT('',(11.583864118896,2.815024235674,7.1494546427)
  );
#673 = SURFACE_OF_LINEAR_EXTRUSION('',#674,#678);
#674 = B_SPLINE_CURVE_WITH_KNOTS('',2,(#675,#676,#677),.UNSPECIFIED.,.F.
  ,.F.,(3,3),(0.,1.),.PIECEWISE_BEZIER_KNOTS.);
#675 = CARTESIAN_POINT('',(10.738004246285,2.93022184828,7.465957482109)
  );
#676 = CARTESIAN_POINT('',(11.265392781316,2.93022184828,7.465957482109)
  );
#677 = CARTESIAN_POINT('',(11.583864118896,2.815024235674,7.1494546427)
  );
#678 = VECTOR('',#679,1.);
#679 = DIRECTION('',(-0.,0.939692620786,-0.342020143326));
#680 = ADVANCED_FACE('',(#681),#706,.T.);
#681 = FACE_BOUND('',#682,.T.);
#682 = EDGE_LOOP('',(#683,#684,#692,#700));
#683 = ORIENTED_EDGE('',*,*,#660,.T.);
#684 = ORIENTED_EDGE('',*,*,#685,.T.);
#685 = EDGE_CURVE('',#653,#686,#688,.T.);
#686 = VERTEX_POINT('',#687);
#687 = CARTESIAN_POINT('',(11.846284501062,1.850360784432,6.838107113169
    ));
#688 = B_SPLINE_CURVE_WITH_KNOTS('',2,(#689,#690,#691),.UNSPECIFIED.,.F.
  ,.F.,(3,3),(0.,1.),.PIECEWISE_BEZIER_KNOTS.);
#689 = CARTESIAN_POINT('',(11.583864118896,2.063270139046,7.423070757361
    ));
#690 = CARTESIAN_POINT('',(11.846284501062,1.969043952638,7.164186437885
    ));
#691 = CARTESIAN_POINT('',(11.846284501062,1.850360784432,6.838107113169
    ));
#692 = ORIENTED_EDGE('',*,*,#693,.F.);
#693 = EDGE_CURVE('',#694,#686,#696,.T.);
#694 = VERTEX_POINT('',#695);
#695 = CARTESIAN_POINT('',(11.846284501062,2.602114881061,6.564490998508
    ));
#696 = LINE('',#697,#698);
#697 = CARTESIAN_POINT('',(11.846284501062,2.602114881061,6.564490998508
    ));
#698 = VECTOR('',#699,1.);
#699 = DIRECTION('',(0.,-0.939692620786,0.342020143326));
#700 = ORIENTED_EDGE('',*,*,#701,.F.);
#701 = EDGE_CURVE('',#661,#694,#702,.T.);
#702 = B_SPLINE_CURVE_WITH_KNOTS('',2,(#703,#704,#705),.UNSPECIFIED.,.F.
  ,.F.,(3,3),(0.,1.),.PIECEWISE_BEZIER_KNOTS.);
#703 = CARTESIAN_POINT('',(11.583864118896,2.815024235674,7.1494546427)
  );
#704 = CARTESIAN_POINT('',(11.846284501062,2.720798049267,6.890570323224
    ));
#705 = CARTESIAN_POINT('',(11.846284501062,2.602114881061,6.564490998508
    ));
#706 = SURFACE_OF_LINEAR_EXTRUSION('',#707,#711);
#707 = B_SPLINE_CURVE_WITH_KNOTS('',2,(#708,#709,#710),.UNSPECIFIED.,.F.
  ,.F.,(3,3),(0.,1.),.PIECEWISE_BEZIER_KNOTS.);
#708 = CARTESIAN_POINT('',(11.583864118896,2.815024235674,7.1494546427)
  );
#709 = CARTESIAN_POINT('',(11.846284501062,2.720798049267,6.890570323224
    ));
#710 = CARTESIAN_POINT('',(11.846284501062,2.602114881061,6.564490998508
    ));
#711 = VECTOR('',#712,1.);
#712 = DIRECTION('',(-0.,0.939692620786,-0.342020143326));
#713 = ADVANCED_FACE('',(#714),#739,.T.);
#714 = FACE_BOUND('',#715,.T.);
#715 = EDGE_LOOP('',(#716,#717,#725,#733));
#716 = ORIENTED_EDGE('',*,*,#693,.T.);
#717 = ORIENTED_EDGE('',*,*,#718,.T.);
#718 = EDGE_CURVE('',#686,#719,#721,.T.);
#719 = VERTEX_POINT('',#720);
#720 = CARTESIAN_POINT('',(11.308704883227,1.581624447612,6.099760095971
    ));
#721 = B_SPLINE_CURVE_WITH_KNOTS('',2,(#722,#723,#724),.UNSPECIFIED.,.F.
  ,.F.,(3,3),(0.,1.),.PIECEWISE_BEZIER_KNOTS.);
#722 = CARTESIAN_POINT('',(11.846284501062,1.850360784432,6.838107113169
    ));
#723 = CARTESIAN_POINT('',(11.846284501062,1.681950356321,6.375403264734
    ));
#724 = CARTESIAN_POINT('',(11.308704883227,1.581624447612,6.099760095971
    ));
#725 = ORIENTED_EDGE('',*,*,#726,.F.);
#726 = EDGE_CURVE('',#727,#719,#729,.T.);
#727 = VERTEX_POINT('',#728);
#728 = CARTESIAN_POINT('',(11.308704883227,2.333378544241,5.82614398131)
  );
#729 = LINE('',#730,#731);
#730 = CARTESIAN_POINT('',(11.308704883227,2.333378544241,5.82614398131)
  );
#731 = VECTOR('',#732,1.);
#732 = DIRECTION('',(0.,-0.939692620786,0.342020143326));
#733 = ORIENTED_EDGE('',*,*,#734,.F.);
#734 = EDGE_CURVE('',#694,#727,#735,.T.);
#735 = B_SPLINE_CURVE_WITH_KNOTS('',2,(#736,#737,#738),.UNSPECIFIED.,.F.
  ,.F.,(3,3),(0.,1.),.PIECEWISE_BEZIER_KNOTS.);
#736 = CARTESIAN_POINT('',(11.846284501062,2.602114881061,6.564490998508
    ));
#737 = CARTESIAN_POINT('',(11.846284501062,2.43370445295,6.101787150074)
  );
#738 = CARTESIAN_POINT('',(11.308704883227,2.333378544241,5.82614398131)
  );
#739 = SURFACE_OF_LINEAR_EXTRUSION('',#740,#744);
#740 = B_SPLINE_CURVE_WITH_KNOTS('',2,(#741,#742,#743),.UNSPECIFIED.,.F.
  ,.F.,(3,3),(0.,1.),.PIECEWISE_BEZIER_KNOTS.);
#741 = CARTESIAN_POINT('',(11.846284501062,2.602114881061,6.564490998508
    ));
#742 = CARTESIAN_POINT('',(11.846284501062,2.43370445295,6.101787150074)
  );
#743 = CARTESIAN_POINT('',(11.308704883227,2.333378544241,5.82614398131)
  );
#744 = VECTOR('',#745,1.);
#745 = DIRECTION('',(-0.,0.939692620786,-0.342020143326));
#746 = ADVANCED_FACE('',(#747),#772,.T.);
#747 = FACE_BOUND('',#748,.T.);
#748 = EDGE_LOOP('',(#749,#750,#758,#766));
#749 = ORIENTED_EDGE('',*,*,#726,.T.);
#750 = ORIENTED_EDGE('',*,*,#751,.T.);
#751 = EDGE_CURVE('',#719,#752,#754,.T.);
#752 = VERTEX_POINT('',#753);
#753 = CARTESIAN_POINT('',(11.821995753716,1.475663557349,5.808634942626
    ));
#754 = B_SPLINE_CURVE_WITH_KNOTS('',2,(#755,#756,#757),.UNSPECIFIED.,.F.
  ,.F.,(3,3),(0.,1.),.PIECEWISE_BEZIER_KNOTS.);
#755 = CARTESIAN_POINT('',(11.308704883227,1.581624447612,6.099760095971
    ));
#756 = CARTESIAN_POINT('',(11.629723991507,1.557980762121,6.034799603969
    ));
#757 = CARTESIAN_POINT('',(11.821995753716,1.475663557349,5.808634942626
    ));
#758 = ORIENTED_EDGE('',*,*,#759,.F.);
#759 = EDGE_CURVE('',#760,#752,#762,.T.);
#760 = VERTEX_POINT('',#761);
#761 = CARTESIAN_POINT('',(11.821995753716,2.227417653978,5.535018827966
    ));
#762 = LINE('',#763,#764);
#763 = CARTESIAN_POINT('',(11.821995753716,2.227417653978,5.535018827966
    ));
#764 = VECTOR('',#765,1.);
#765 = DIRECTION('',(0.,-0.939692620786,0.342020143326));
#766 = ORIENTED_EDGE('',*,*,#767,.F.);
#767 = EDGE_CURVE('',#727,#760,#768,.T.);
#768 = B_SPLINE_CURVE_WITH_KNOTS('',2,(#769,#770,#771),.UNSPECIFIED.,.F.
  ,.F.,(3,3),(0.,1.),.PIECEWISE_BEZIER_KNOTS.);
#769 = CARTESIAN_POINT('',(11.308704883227,2.333378544241,5.82614398131)
  );
#770 = CARTESIAN_POINT('',(11.629723991507,2.309734858749,5.761183489308
    ));
#771 = CARTESIAN_POINT('',(11.821995753716,2.227417653978,5.535018827966
    ));
#772 = SURFACE_OF_LINEAR_EXTRUSION('',#773,#777);
#773 = B_SPLINE_CURVE_WITH_KNOTS('',2,(#774,#775,#776),.UNSPECIFIED.,.F.
  ,.F.,(3,3),(0.,1.),.PIECEWISE_BEZIER_KNOTS.);
#774 = CARTESIAN_POINT('',(11.308704883227,2.333378544241,5.82614398131)
  );
#775 = CARTESIAN_POINT('',(11.629723991507,2.309734858749,5.761183489308
    ));
#776 = CARTESIAN_POINT('',(11.821995753716,2.227417653978,5.535018827966
    ));
#777 = VECTOR('',#778,1.);
#778 = DIRECTION('',(-0.,0.939692620786,-0.342020143326));
#779 = ADVANCED_FACE('',(#780),#805,.T.);
#780 = FACE_BOUND('',#781,.T.);
#781 = EDGE_LOOP('',(#782,#783,#791,#799));
#782 = ORIENTED_EDGE('',*,*,#759,.T.);
#783 = ORIENTED_EDGE('',*,*,#784,.T.);
#784 = EDGE_CURVE('',#752,#785,#787,.T.);
#785 = VERTEX_POINT('',#786);
#786 = CARTESIAN_POINT('',(12.014437367304,1.276928795512,5.262615672018
    ));
#787 = B_SPLINE_CURVE_WITH_KNOTS('',2,(#788,#789,#790),.UNSPECIFIED.,.F.
  ,.F.,(3,3),(0.,1.),.PIECEWISE_BEZIER_KNOTS.);
#788 = CARTESIAN_POINT('',(11.821995753716,1.475663557349,5.808634942626
    ));
#789 = CARTESIAN_POINT('',(12.014437367304,1.393346352578,5.582470281284
    ));
#790 = CARTESIAN_POINT('',(12.014437367304,1.276928795512,5.262615672018
    ));
#791 = ORIENTED_EDGE('',*,*,#792,.F.);
#792 = EDGE_CURVE('',#793,#785,#795,.T.);
#793 = VERTEX_POINT('',#794);
#794 = CARTESIAN_POINT('',(12.014437367304,2.02868289214,4.988999557357)
  );
#795 = LINE('',#796,#797);
#796 = CARTESIAN_POINT('',(12.014437367304,2.02868289214,4.988999557357)
  );
#797 = VECTOR('',#798,1.);
#798 = DIRECTION('',(0.,-0.939692620786,0.342020143326));
#799 = ORIENTED_EDGE('',*,*,#800,.F.);
#800 = EDGE_CURVE('',#760,#793,#801,.T.);
#801 = B_SPLINE_CURVE_WITH_KNOTS('',2,(#802,#803,#804),.UNSPECIFIED.,.F.
  ,.F.,(3,3),(0.,1.),.PIECEWISE_BEZIER_KNOTS.);
#802 = CARTESIAN_POINT('',(11.821995753716,2.227417653978,5.535018827966
    ));
#803 = CARTESIAN_POINT('',(12.014437367304,2.145100449206,5.308854166623
    ));
#804 = CARTESIAN_POINT('',(12.014437367304,2.02868289214,4.988999557357)
  );
#805 = SURFACE_OF_LINEAR_EXTRUSION('',#806,#810);
#806 = B_SPLINE_CURVE_WITH_KNOTS('',2,(#807,#808,#809),.UNSPECIFIED.,.F.
  ,.F.,(3,3),(0.,1.),.PIECEWISE_BEZIER_KNOTS.);
#807 = CARTESIAN_POINT('',(11.821995753716,2.227417653978,5.535018827966
    ));
#808 = CARTESIAN_POINT('',(12.014437367304,2.145100449206,5.308854166623
    ));
#809 = CARTESIAN_POINT('',(12.014437367304,2.02868289214,4.988999557357)
  );
#810 = VECTOR('',#811,1.);
#811 = DIRECTION('',(-0.,0.939692620786,-0.342020143326));
#812 = ADVANCED_FACE('',(#813),#838,.T.);
#813 = FACE_BOUND('',#814,.T.);
#814 = EDGE_LOOP('',(#815,#816,#824,#832));
#815 = ORIENTED_EDGE('',*,*,#792,.T.);
#816 = ORIENTED_EDGE('',*,*,#817,.T.);
#817 = EDGE_CURVE('',#785,#818,#820,.T.);
#818 = VERTEX_POINT('',#819);
#819 = CARTESIAN_POINT('',(11.655201698514,0.988847625108,4.471119161363
    ));
#820 = B_SPLINE_CURVE_WITH_KNOTS('',2,(#821,#822,#823),.UNSPECIFIED.,.F.
  ,.F.,(3,3),(0.,1.),.PIECEWISE_BEZIER_KNOTS.);
#821 = CARTESIAN_POINT('',(12.014437367304,1.276928795512,5.262615672018
    ));
#822 = CARTESIAN_POINT('',(12.014437367304,1.107937441468,4.798315742699
    ));
#823 = CARTESIAN_POINT('',(11.655201698514,0.988847625108,4.471119161363
    ));
#824 = ORIENTED_EDGE('',*,*,#825,.F.);
#825 = EDGE_CURVE('',#826,#818,#828,.T.);
#826 = VERTEX_POINT('',#827);
#827 = CARTESIAN_POINT('',(11.655201698514,1.740601721737,4.197503046703
    ));
#828 = LINE('',#829,#830);
#829 = CARTESIAN_POINT('',(11.655201698514,1.740601721737,4.197503046703
    ));
#830 = VECTOR('',#831,1.);
#831 = DIRECTION('',(0.,-0.939692620786,0.342020143326));
#832 = ORIENTED_EDGE('',*,*,#833,.F.);
#833 = EDGE_CURVE('',#793,#826,#834,.T.);
#834 = B_SPLINE_CURVE_WITH_KNOTS('',2,(#835,#836,#837),.UNSPECIFIED.,.F.
  ,.F.,(3,3),(0.,1.),.PIECEWISE_BEZIER_KNOTS.);
#835 = CARTESIAN_POINT('',(12.014437367304,2.02868289214,4.988999557357)
  );
#836 = CARTESIAN_POINT('',(12.014437367304,1.859691538096,4.524699628038
    ));
#837 = CARTESIAN_POINT('',(11.655201698514,1.740601721737,4.197503046703
    ));
#838 = SURFACE_OF_LINEAR_EXTRUSION('',#839,#843);
#839 = B_SPLINE_CURVE_WITH_KNOTS('',2,(#840,#841,#842),.UNSPECIFIED.,.F.
  ,.F.,(3,3),(0.,1.),.PIECEWISE_BEZIER_KNOTS.);
#840 = CARTESIAN_POINT('',(12.014437367304,2.02868289214,4.988999557357)
  );
#841 = CARTESIAN_POINT('',(12.014437367304,1.859691538096,4.524699628038
    ));
#842 = CARTESIAN_POINT('',(11.655201698514,1.740601721737,4.197503046703
    ));
#843 = VECTOR('',#844,1.);
#844 = DIRECTION('',(-0.,0.939692620786,-0.342020143326));
#845 = ADVANCED_FACE('',(#846),#871,.T.);
#846 = FACE_BOUND('',#847,.T.);
#847 = EDGE_LOOP('',(#848,#849,#857,#865));
#848 = ORIENTED_EDGE('',*,*,#825,.T.);
#849 = ORIENTED_EDGE('',*,*,#850,.T.);
#850 = EDGE_CURVE('',#818,#851,#853,.T.);
#851 = VERTEX_POINT('',#852);
#852 = CARTESIAN_POINT('',(10.76093418259,0.869757808748,4.143922580028)
  );
#853 = B_SPLINE_CURVE_WITH_KNOTS('',2,(#854,#855,#856),.UNSPECIFIED.,.F.
  ,.F.,(3,3),(0.,1.),.PIECEWISE_BEZIER_KNOTS.);
#854 = CARTESIAN_POINT('',(11.655201698514,0.988847625108,4.471119161363
    ));
#855 = CARTESIAN_POINT('',(11.295966029724,0.869757808748,4.143922580028
    ));
#856 = CARTESIAN_POINT('',(10.76093418259,0.869757808748,4.143922580028)
  );
#857 = ORIENTED_EDGE('',*,*,#858,.F.);
#858 = EDGE_CURVE('',#859,#851,#861,.T.);
#859 = VERTEX_POINT('',#860);
#860 = CARTESIAN_POINT('',(10.76093418259,1.621511905377,3.870306465368)
  );
#861 = LINE('',#862,#863);
#862 = CARTESIAN_POINT('',(10.76093418259,1.621511905377,3.870306465368)
  );
#863 = VECTOR('',#864,1.);
#864 = DIRECTION('',(0.,-0.939692620786,0.342020143326));
#865 = ORIENTED_EDGE('',*,*,#866,.F.);
#866 = EDGE_CURVE('',#826,#859,#867,.T.);
#867 = B_SPLINE_CURVE_WITH_KNOTS('',2,(#868,#869,#870),.UNSPECIFIED.,.F.
  ,.F.,(3,3),(0.,1.),.PIECEWISE_BEZIER_KNOTS.);
#868 = CARTESIAN_POINT('',(11.655201698514,1.740601721737,4.197503046703
    ));
#869 = CARTESIAN_POINT('',(11.295966029724,1.621511905377,3.870306465368
    ));
#870 = CARTESIAN_POINT('',(10.76093418259,1.621511905377,3.870306465368)
  );
#871 = SURFACE_OF_LINEAR_EXTRUSION('',#872,#876);
#872 = B_SPLINE_CURVE_WITH_KNOTS('',2,(#873,#874,#875),.UNSPECIFIED.,.F.
  ,.F.,(3,3),(0.,1.),.PIECEWISE_BEZIER_KNOTS.);
#873 = CARTESIAN_POINT('',(11.655201698514,1.740601721737,4.197503046703
    ));
#874 = CARTESIAN_POINT('',(11.295966029724,1.621511905377,3.870306465368
    ));
#875 = CARTESIAN_POINT('',(10.76093418259,1.621511905377,3.870306465368)
  );
#876 = VECTOR('',#877,1.);
#877 = DIRECTION('',(-0.,0.939692620786,-0.342020143326));
#878 = ADVANCED_FACE('',(#879),#904,.T.);
#879 = FACE_BOUND('',#880,.T.);
#880 = EDGE_LOOP('',(#881,#882,#890,#898));
#881 = ORIENTED_EDGE('',*,*,#858,.T.);
#882 = ORIENTED_EDGE('',*,*,#883,.T.);
#883 = EDGE_CURVE('',#851,#884,#886,.T.);
#884 = VERTEX_POINT('',#885);
#885 = CARTESIAN_POINT('',(9.92016985138,0.96979325449,4.41876770835));
#886 = B_SPLINE_CURVE_WITH_KNOTS('',2,(#887,#888,#889),.UNSPECIFIED.,.F.
  ,.F.,(3,3),(0.,1.),.PIECEWISE_BEZIER_KNOTS.);
#887 = CARTESIAN_POINT('',(10.76093418259,0.869757808748,4.143922580028)
  );
#888 = CARTESIAN_POINT('',(10.253927813163,0.869757808748,4.143922580028
    ));
#889 = CARTESIAN_POINT('',(9.92016985138,0.96979325449,4.41876770835));
#890 = ORIENTED_EDGE('',*,*,#891,.F.);
#891 = EDGE_CURVE('',#892,#884,#894,.T.);
#892 = VERTEX_POINT('',#893);
#893 = CARTESIAN_POINT('',(9.92016985138,1.721547351119,4.145151593689)
  );
#894 = LINE('',#895,#896);
#895 = CARTESIAN_POINT('',(9.92016985138,1.721547351119,4.145151593689)
  );
#896 = VECTOR('',#897,1.);
#897 = DIRECTION('',(0.,-0.939692620786,0.342020143326));
#898 = ORIENTED_EDGE('',*,*,#899,.F.);
#899 = EDGE_CURVE('',#859,#892,#900,.T.);
#900 = B_SPLINE_CURVE_WITH_KNOTS('',2,(#901,#902,#903),.UNSPECIFIED.,.F.
  ,.F.,(3,3),(0.,1.),.PIECEWISE_BEZIER_KNOTS.);
#901 = CARTESIAN_POINT('',(10.76093418259,1.621511905377,3.870306465368)
  );
#902 = CARTESIAN_POINT('',(10.253927813163,1.621511905377,3.870306465368
    ));
#903 = CARTESIAN_POINT('',(9.92016985138,1.721547351119,4.145151593689)
  );
#904 = SURFACE_OF_LINEAR_EXTRUSION('',#905,#909);
#905 = B_SPLINE_CURVE_WITH_KNOTS('',2,(#906,#907,#908),.UNSPECIFIED.,.F.
  ,.F.,(3,3),(0.,1.),.PIECEWISE_BEZIER_KNOTS.);
#906 = CARTESIAN_POINT('',(10.76093418259,1.621511905377,3.870306465368)
  );
#907 = CARTESIAN_POINT('',(10.253927813163,1.621511905377,3.870306465368
    ));
#908 = CARTESIAN_POINT('',(9.92016985138,1.721547351119,4.145151593689)
  );
#909 = VECTOR('',#910,1.);
#910 = DIRECTION('',(-0.,0.939692620786,-0.342020143326));
#911 = ADVANCED_FACE('',(#912),#928,.T.);
#912 = FACE_BOUND('',#913,.T.);
#913 = EDGE_LOOP('',(#914,#915,#921,#922));
#914 = ORIENTED_EDGE('',*,*,#891,.T.);
#915 = ORIENTED_EDGE('',*,*,#916,.T.);
#916 = EDGE_CURVE('',#884,#24,#917,.T.);
#917 = B_SPLINE_CURVE_WITH_KNOTS('',2,(#918,#919,#920),.UNSPECIFIED.,.F.
  ,.F.,(3,3),(0.,1.),.PIECEWISE_BEZIER_KNOTS.);
#918 = CARTESIAN_POINT('',(9.92016985138,0.96979325449,4.41876770835));
#919 = CARTESIAN_POINT('',(9.586411889597,1.069828700233,4.693612836671)
  );
#920 = CARTESIAN_POINT('',(9.532908704883,1.231500387515,5.137802146845)
  );
#921 = ORIENTED_EDGE('',*,*,#21,.F.);
#922 = ORIENTED_EDGE('',*,*,#923,.F.);
#923 = EDGE_CURVE('',#892,#22,#924,.T.);
#924 = B_SPLINE_CURVE_WITH_KNOTS('',2,(#925,#926,#927),.UNSPECIFIED.,.F.
  ,.F.,(3,3),(0.,1.),.PIECEWISE_BEZIER_KNOTS.);
#925 = CARTESIAN_POINT('',(9.92016985138,1.721547351119,4.145151593689)
  );
#926 = CARTESIAN_POINT('',(9.586411889597,1.821582796861,4.419996722011)
  );
#927 = CARTESIAN_POINT('',(9.532908704883,1.983254484144,4.864186032184)
  );
#928 = SURFACE_OF_LINEAR_EXTRUSION('',#929,#933);
#929 = B_SPLINE_CURVE_WITH_KNOTS('',2,(#930,#931,#932),.UNSPECIFIED.,.F.
  ,.F.,(3,3),(0.,1.),.PIECEWISE_BEZIER_KNOTS.);
#930 = CARTESIAN_POINT('',(9.92016985138,1.721547351119,4.145151593689)
  );
#931 = CARTESIAN_POINT('',(9.586411889597,1.821582796861,4.419996722011)
  );
#932 = CARTESIAN_POINT('',(9.532908704883,1.983254484144,4.864186032184)
  );
#933 = VECTOR('',#934,1.);
#934 = DIRECTION('',(-0.,0.939692620786,-0.342020143326));
#935 = ADVANCED_FACE('',(#936),#966,.F.);
#936 = FACE_BOUND('',#937,.T.);
#937 = EDGE_LOOP('',(#938,#939,#940,#941,#942,#943,#944,#945,#946,#947,
    #948,#949,#950,#951,#952,#953,#954,#955,#956,#957,#958,#959,#960,
    #961,#962,#963,#964,#965));
#938 = ORIENTED_EDGE('',*,*,#47,.T.);
#939 = ORIENTED_EDGE('',*,*,#78,.T.);
#940 = ORIENTED_EDGE('',*,*,#111,.T.);
#941 = ORIENTED_EDGE('',*,*,#144,.T.);
#942 = ORIENTED_EDGE('',*,*,#177,.T.);
#943 = ORIENTED_EDGE('',*,*,#210,.T.);
#944 = ORIENTED_EDGE('',*,*,#243,.T.);
#945 = ORIENTED_EDGE('',*,*,#276,.T.);
#946 = ORIENTED_EDGE('',*,*,#309,.T.);
#947 = ORIENTED_EDGE('',*,*,#340,.T.);
#948 = ORIENTED_EDGE('',*,*,#373,.T.);
#949 = ORIENTED_EDGE('',*,*,#406,.T.);
#950 = ORIENTED_EDGE('',*,*,#439,.T.);
#951 = ORIENTED_EDGE('',*,*,#472,.T.);
#952 = ORIENTED_EDGE('',*,*,#505,.T.);
#953 = ORIENTED_EDGE('',*,*,#538,.T.);
#954 = ORIENTED_EDGE('',*,*,#569,.T.);
#955 = ORIENTED_EDGE('',*,*,#602,.T.);
#956 = ORIENTED_EDGE('',*,*,#635,.T.);
#957 = ORIENTED_EDGE('',*,*,#668,.T.);
#958 = ORIENTED_EDGE('',*,*,#701,.T.);
#959 = ORIENTED_EDGE('',*,*,#734,.T.);
#960 = ORIENTED_EDGE('',*,*,#767,.T.);
#961 = ORIENTED_EDGE('',*,*,#800,.T.);
#962 = ORIENTED_EDGE('',*,*,#833,.T.);
#963 = ORIENTED_EDGE('',*,*,#866,.T.);
#964 = ORIENTED_EDGE('',*,*,#899,.T.);
#965 = ORIENTED_EDGE('',*,*,#923,.T.);
#966 = PLANE('',#967);
#967 = AXIS2_PLACEMENT_3D('',#968,#969,#970);
#968 = CARTESIAN_POINT('',(10.827073970967,2.272881700845,5.65993027013)
  );
#969 = DIRECTION('',(0.,-0.939692620786,0.342020143326));
#970 = DIRECTION('',(1.,0.,0.));
#971 = ADVANCED_FACE('',(#972),#1002,.T.);
#972 = FACE_BOUND('',#973,.F.);
#973 = EDGE_LOOP('',(#974,#975,#976,#977,#978,#979,#980,#981,#982,#983,
    #984,#985,#986,#987,#988,#989,#990,#991,#992,#993,#994,#995,#996,
    #997,#998,#999,#1000,#1001));
#974 = ORIENTED_EDGE('',*,*,#31,.T.);
#975 = ORIENTED_EDGE('',*,*,#62,.T.);
#976 = ORIENTED_EDGE('',*,*,#95,.T.);
#977 = ORIENTED_EDGE('',*,*,#128,.T.);
#978 = ORIENTED_EDGE('',*,*,#161,.T.);
#979 = ORIENTED_EDGE('',*,*,#194,.T.);
#980 = ORIENTED_EDGE('',*,*,#227,.T.);
#981 = ORIENTED_EDGE('',*,*,#260,.T.);
#982 = ORIENTED_EDGE('',*,*,#293,.T.);
#983 = ORIENTED_EDGE('',*,*,#324,.T.);
#984 = ORIENTED_EDGE('',*,*,#357,.T.);
#985 = ORIENTED_EDGE('',*,*,#390,.T.);
#986 = ORIENTED_EDGE('',*,*,#423,.T.);
#987 = ORIENTED_EDGE('',*,*,#456,.T.);
#988 = ORIENTED_EDGE('',*,*,#489,.T.);
#989 = ORIENTED_EDGE('',*,*,#522,.T.);
#990 = ORIENTED_EDGE('',*,*,#553,.T.);
#991 = ORIENTED_EDGE('',*,*,#586,.T.);
#992 = ORIENTED_EDGE('',*,*,#619,.T.);
#993 = ORIENTED_EDGE('',*,*,#652,.T.);
#994 = ORIENTED_EDGE('',*,*,#685,.T.);
#995 = ORIENTED_EDGE('',*,*,#718,.T.);
#996 = ORIENTED_EDGE('',*,*,#751,.T.);
#997 = ORIENTED_EDGE('',*,*,#784,.T.);
#998 = ORIENTED_EDGE('',*,*,#817,.T.);
#999 = ORIENTED_EDGE('',*,*,#850,.T.);
#1000 = ORIENTED_EDGE('',*,*,#883,.T.);
#1001 = ORIENTED_EDGE('',*,*,#916,.T.);
#1002 = PLANE('',#1003);
#1003 = AXIS2_PLACEMENT_3D('',#1004,#1005,#1006);
#1004 = CARTESIAN_POINT('',(10.827073970967,1.521127604216,
    5.933546384791));
#1005 = DIRECTION('',(0.,-0.939692620786,0.342020143326));
#1006 = DIRECTION('',(1.,0.,0.));
#1007 = MANIFOLD_SOLID_BREP('',#1008);
#1008 = CLOSED_SHELL('',(#1009,#1049,#1080,#1111,#1133,#1145));
#1009 = ADVANCED_FACE('',(#1010),#1044,.T.);
#1010 = FACE_BOUND('',#1011,.T.);
#1011 = EDGE_LOOP('',(#1012,#1022,#1030,#1038));
#1012 = ORIENTED_EDGE('',*,*,#1013,.T.);
#1013 = EDGE_CURVE('',#1014,#1016,#1018,.T.);
#1014 = VERTEX_POINT('',#1015);
#1015 = CARTESIAN_POINT('',(12.231507430998,1.621511905377,
    3.870306465368));
#1016 = VERTEX_POINT('',#1017);
#1017 = CARTESIAN_POINT('',(12.231507430998,0.869757808748,
    4.143922580028));
#1018 = LINE('',#1019,#1020);
#1019 = CARTESIAN_POINT('',(12.231507430998,1.621511905377,
    3.870306465368));
#1020 = VECTOR('',#1021,1.);
#1021 = DIRECTION('',(0.,-0.939692620786,0.342020143326));
#1022 = ORIENTED_EDGE('',*,*,#1023,.T.);
#1023 = EDGE_CURVE('',#1016,#1024,#1026,.T.);
#1024 = VERTEX_POINT('',#1025);
#1025 = CARTESIAN_POINT('',(13.156348195329,2.189621529574,
    7.770218349753));
#1026 = LINE('',#1027,#1028);
#1027 = CARTESIAN_POINT('',(12.231507430998,0.869757808748,
    4.143922580028));
#1028 = VECTOR('',#1029,1.);
#1029 = DIRECTION('',(0.233057266823,0.332601938861,0.913816316689));
#1030 = ORIENTED_EDGE('',*,*,#1031,.F.);
#1031 = EDGE_CURVE('',#1032,#1024,#1034,.T.);
#1032 = VERTEX_POINT('',#1033);
#1033 = CARTESIAN_POINT('',(13.156348195329,2.941375626202,
    7.496602235093));
#1034 = LINE('',#1035,#1036);
#1035 = CARTESIAN_POINT('',(13.156348195329,2.941375626202,
    7.496602235093));
#1036 = VECTOR('',#1037,1.);
#1037 = DIRECTION('',(0.,-0.939692620786,0.342020143326));
#1038 = ORIENTED_EDGE('',*,*,#1039,.F.);
#1039 = EDGE_CURVE('',#1014,#1032,#1040,.T.);
#1040 = LINE('',#1041,#1042);
#1041 = CARTESIAN_POINT('',(12.231507430998,1.621511905377,
    3.870306465368));
#1042 = VECTOR('',#1043,1.);
#1043 = DIRECTION('',(0.233057266823,0.332601938861,0.913816316689));
#1044 = PLANE('',#1045);
#1045 = AXIS2_PLACEMENT_3D('',#1046,#1047,#1048);
#1046 = CARTESIAN_POINT('',(12.231507430998,1.621511905377,
    3.870306465368));
#1047 = DIRECTION('',(-0.972463012346,7.971027980197E-02,0.219002193854)
  );
#1048 = DIRECTION('',(0.233057266823,0.332601938861,0.913816316689));
#1049 = ADVANCED_FACE('',(#1050),#1075,.T.);
#1050 = FACE_BOUND('',#1051,.T.);
#1051 = EDGE_LOOP('',(#1052,#1053,#1061,#1069));
#1052 = ORIENTED_EDGE('',*,*,#1031,.T.);
#1053 = ORIENTED_EDGE('',*,*,#1054,.T.);
#1054 = EDGE_CURVE('',#1024,#1055,#1057,.T.);
#1055 = VERTEX_POINT('',#1056);
#1056 = CARTESIAN_POINT('',(13.693927813163,2.189621529574,
    7.770218349753));
#1057 = LINE('',#1058,#1059);
#1058 = CARTESIAN_POINT('',(13.156348195329,2.189621529574,
    7.770218349753));
#1059 = VECTOR('',#1060,1.);
#1060 = DIRECTION('',(1.,0.,0.));
#1061 = ORIENTED_EDGE('',*,*,#1062,.F.);
#1062 = EDGE_CURVE('',#1063,#1055,#1065,.T.);
#1063 = VERTEX_POINT('',#1064);
#1064 = CARTESIAN_POINT('',(13.693927813163,2.941375626202,
    7.496602235093));
#1065 = LINE('',#1066,#1067);
#1066 = CARTESIAN_POINT('',(13.693927813163,2.941375626202,
    7.496602235093));
#1067 = VECTOR('',#1068,1.);
#1068 = DIRECTION('',(0.,-0.939692620786,0.342020143326));
#1069 = ORIENTED_EDGE('',*,*,#1070,.F.);
#1070 = EDGE_CURVE('',#1032,#1063,#1071,.T.);
#1071 = LINE('',#1072,#1073);
#1072 = CARTESIAN_POINT('',(13.156348195329,2.941375626202,
    7.496602235093));
#1073 = VECTOR('',#1074,1.);
#1074 = DIRECTION('',(1.,0.,0.));
#1075 = PLANE('',#1076);
#1076 = AXIS2_PLACEMENT_3D('',#1077,#1078,#1079);
#1077 = CARTESIAN_POINT('',(13.156348195329,2.941375626202,
    7.496602235093));
#1078 = DIRECTION('',(0.,0.342020143326,0.939692620786));
#1079 = DIRECTION('',(1.,0.,0.));
#1080 = ADVANCED_FACE('',(#1081),#1106,.T.);
#1081 = FACE_BOUND('',#1082,.T.);
#1082 = EDGE_LOOP('',(#1083,#1084,#1092,#1100));
#1083 = ORIENTED_EDGE('',*,*,#1062,.T.);
#1084 = ORIENTED_EDGE('',*,*,#1085,.T.);
#1085 = EDGE_CURVE('',#1055,#1086,#1088,.T.);
#1086 = VERTEX_POINT('',#1087);
#1087 = CARTESIAN_POINT('',(12.75889596603,0.869757808748,4.143922580028
    ));
#1088 = LINE('',#1089,#1090);
#1089 = CARTESIAN_POINT('',(13.693927813163,2.189621529574,
    7.770218349753));
#1090 = VECTOR('',#1091,1.);
#1091 = DIRECTION('',(-0.235483715343,-0.332401953666,-0.913266861879));
#1092 = ORIENTED_EDGE('',*,*,#1093,.F.);
#1093 = EDGE_CURVE('',#1094,#1086,#1096,.T.);
#1094 = VERTEX_POINT('',#1095);
#1095 = CARTESIAN_POINT('',(12.75889596603,1.621511905377,3.870306465368
    ));
#1096 = LINE('',#1097,#1098);
#1097 = CARTESIAN_POINT('',(12.75889596603,1.621511905377,3.870306465368
    ));
#1098 = VECTOR('',#1099,1.);
#1099 = DIRECTION('',(0.,-0.939692620786,0.342020143326));
#1100 = ORIENTED_EDGE('',*,*,#1101,.F.);
#1101 = EDGE_CURVE('',#1063,#1094,#1102,.T.);
#1102 = LINE('',#1103,#1104);
#1103 = CARTESIAN_POINT('',(13.693927813163,2.941375626202,
    7.496602235093));
#1104 = VECTOR('',#1105,1.);
#1105 = DIRECTION('',(-0.235483715343,-0.332401953666,-0.913266861879));
#1106 = PLANE('',#1107);
#1107 = AXIS2_PLACEMENT_3D('',#1108,#1109,#1110);
#1108 = CARTESIAN_POINT('',(13.693927813163,2.941375626202,
    7.496602235093));
#1109 = DIRECTION('',(0.971878294751,-8.054017407264E-02,-0.221282309624
    ));
#1110 = DIRECTION('',(-0.235483715343,-0.332401953666,-0.913266861879));
#1111 = ADVANCED_FACE('',(#1112),#1128,.T.);
#1112 = FACE_BOUND('',#1113,.T.);
#1113 = EDGE_LOOP('',(#1114,#1115,#1121,#1122));
#1114 = ORIENTED_EDGE('',*,*,#1093,.T.);
#1115 = ORIENTED_EDGE('',*,*,#1116,.T.);
#1116 = EDGE_CURVE('',#1086,#1016,#1117,.T.);
#1117 = LINE('',#1118,#1119);
#1118 = CARTESIAN_POINT('',(12.75889596603,0.869757808748,4.143922580028
    ));
#1119 = VECTOR('',#1120,1.);
#1120 = DIRECTION('',(-1.,0.,0.));
#1121 = ORIENTED_EDGE('',*,*,#1013,.F.);
#1122 = ORIENTED_EDGE('',*,*,#1123,.F.);
#1123 = EDGE_CURVE('',#1094,#1014,#1124,.T.);
#1124 = LINE('',#1125,#1126);
#1125 = CARTESIAN_POINT('',(12.75889596603,1.621511905377,3.870306465368
    ));
#1126 = VECTOR('',#1127,1.);
#1127 = DIRECTION('',(-1.,0.,0.));
#1128 = PLANE('',#1129);
#1129 = AXIS2_PLACEMENT_3D('',#1130,#1131,#1132);
#1130 = CARTESIAN_POINT('',(12.75889596603,1.621511905377,3.870306465368
    ));
#1131 = DIRECTION('',(0.,-0.342020143326,-0.939692620786));
#1132 = DIRECTION('',(-1.,0.,0.));
#1133 = ADVANCED_FACE('',(#1134),#1140,.F.);
#1134 = FACE_BOUND('',#1135,.T.);
#1135 = EDGE_LOOP('',(#1136,#1137,#1138,#1139));
#1136 = ORIENTED_EDGE('',*,*,#1039,.T.);
#1137 = ORIENTED_EDGE('',*,*,#1070,.T.);
#1138 = ORIENTED_EDGE('',*,*,#1101,.T.);
#1139 = ORIENTED_EDGE('',*,*,#1123,.T.);
#1140 = PLANE('',#1141);
#1141 = AXIS2_PLACEMENT_3D('',#1142,#1143,#1144);
#1142 = CARTESIAN_POINT('',(12.960766719803,2.28219070669,5.685506553486
    ));
#1143 = DIRECTION('',(0.,-0.939692620786,0.342020143326));
#1144 = DIRECTION('',(1.,0.,0.));
#1145 = ADVANCED_FACE('',(#1146),#1152,.T.);
#1146 = FACE_BOUND('',#1147,.F.);
#1147 = EDGE_LOOP('',(#1148,#1149,#1150,#1151));
#1148 = ORIENTED_EDGE('',*,*,#1023,.T.);
#1149 = ORIENTED_EDGE('',*,*,#1054,.T.);
#1150 = ORIENTED_EDGE('',*,*,#1085,.T.);
#1151 = ORIENTED_EDGE('',*,*,#1116,.T.);
#1152 = PLANE('',#1153);
#1153 = AXIS2_PLACEMENT_3D('',#1154,#1155,#1156);
#1154 = CARTESIAN_POINT('',(12.960766719803,1.530436610061,
    5.959122668147));
#1155 = DIRECTION('',(0.,-0.939692620786,0.342020143326));
#1156 = DIRECTION('',(1.,0.,0.));
#1157 = MANIFOLD_SOLID_BREP('',#1158);
#1158 = CLOSED_SHELL('',(#1159,#1199,#1230,#1261,#1292,#1323,#1354,#1385
    ,#1416,#1447,#1478,#1500,#1519));
#1159 = ADVANCED_FACE('',(#1160),#1194,.T.);
#1160 = FACE_BOUND('',#1161,.T.);
#1161 = EDGE_LOOP('',(#1162,#1172,#1180,#1188));
#1162 = ORIENTED_EDGE('',*,*,#1163,.T.);
#1163 = EDGE_CURVE('',#1164,#1166,#1168,.T.);
#1164 = VERTEX_POINT('',#1165);
#1165 = CARTESIAN_POINT('',(15.310403397028,1.643819461222,
    3.931595971335));
#1166 = VERTEX_POINT('',#1167);
#1167 = CARTESIAN_POINT('',(15.310403397028,0.892065364593,
    4.205212085995));
#1168 = LINE('',#1169,#1170);
#1169 = CARTESIAN_POINT('',(15.310403397028,1.643819461222,
    3.931595971335));
#1170 = VECTOR('',#1171,1.);
#1171 = DIRECTION('',(0.,-0.939692620786,0.342020143326));
#1172 = ORIENTED_EDGE('',*,*,#1173,.T.);
#1173 = EDGE_CURVE('',#1166,#1174,#1176,.T.);
#1174 = VERTEX_POINT('',#1175);
#1175 = CARTESIAN_POINT('',(15.310403397028,1.14860225681,4.910041404618
    ));
#1176 = LINE('',#1177,#1178);
#1177 = CARTESIAN_POINT('',(15.310403397028,0.892065364593,
    4.205212085995));
#1178 = VECTOR('',#1179,1.);
#1179 = DIRECTION('',(0.,0.342020143326,0.939692620786));
#1180 = ORIENTED_EDGE('',*,*,#1181,.F.);
#1181 = EDGE_CURVE('',#1182,#1174,#1184,.T.);
#1182 = VERTEX_POINT('',#1183);
#1183 = CARTESIAN_POINT('',(15.310403397028,1.900356353439,
    4.636425289957));
#1184 = LINE('',#1185,#1186);
#1185 = CARTESIAN_POINT('',(15.310403397028,1.900356353439,
    4.636425289957));
#1186 = VECTOR('',#1187,1.);
#1187 = DIRECTION('',(0.,-0.939692620786,0.342020143326));
#1188 = ORIENTED_EDGE('',*,*,#1189,.F.);
#1189 = EDGE_CURVE('',#1164,#1182,#1190,.T.);
#1190 = LINE('',#1191,#1192);
#1191 = CARTESIAN_POINT('',(15.310403397028,1.643819461222,
    3.931595971335));
#1192 = VECTOR('',#1193,1.);
#1193 = DIRECTION('',(0.,0.342020143326,0.939692620786));
#1194 = PLANE('',#1195);
#1195 = AXIS2_PLACEMENT_3D('',#1196,#1197,#1198);
#1196 = CARTESIAN_POINT('',(15.310403397028,1.643819461222,
    3.931595971335));
#1197 = DIRECTION('',(-1.,0.,0.));
#1198 = DIRECTION('',(0.,0.342020143326,0.939692620786));
#1199 = ADVANCED_FACE('',(#1200),#1225,.T.);
#1200 = FACE_BOUND('',#1201,.T.);
#1201 = EDGE_LOOP('',(#1202,#1203,#1211,#1219));
#1202 = ORIENTED_EDGE('',*,*,#1181,.T.);
#1203 = ORIENTED_EDGE('',*,*,#1204,.T.);
#1204 = EDGE_CURVE('',#1174,#1205,#1207,.T.);
#1205 = VERTEX_POINT('',#1206);
#1206 = CARTESIAN_POINT('',(13.781740976645,1.14860225681,4.910041404618
    ));
#1207 = LINE('',#1208,#1209);
#1208 = CARTESIAN_POINT('',(15.310403397028,1.14860225681,4.910041404618
    ));
#1209 = VECTOR('',#1210,1.);
#1210 = DIRECTION('',(-1.,0.,0.));
#1211 = ORIENTED_EDGE('',*,*,#1212,.F.);
#1212 = EDGE_CURVE('',#1213,#1205,#1215,.T.);
#1213 = VERTEX_POINT('',#1214);
#1214 = CARTESIAN_POINT('',(13.781740976645,1.900356353439,
    4.636425289957));
#1215 = LINE('',#1216,#1217);
#1216 = CARTESIAN_POINT('',(13.781740976645,1.900356353439,
    4.636425289957));
#1217 = VECTOR('',#1218,1.);
#1218 = DIRECTION('',(0.,-0.939692620786,0.342020143326));
#1219 = ORIENTED_EDGE('',*,*,#1220,.F.);
#1220 = EDGE_CURVE('',#1182,#1213,#1221,.T.);
#1221 = LINE('',#1222,#1223);
#1222 = CARTESIAN_POINT('',(15.310403397028,1.900356353439,
    4.636425289957));
#1223 = VECTOR('',#1224,1.);
#1224 = DIRECTION('',(-1.,0.,0.));
#1225 = PLANE('',#1226);
#1226 = AXIS2_PLACEMENT_3D('',#1227,#1228,#1229);
#1227 = CARTESIAN_POINT('',(15.310403397028,1.900356353439,
    4.636425289957));
#1228 = DIRECTION('',(0.,-0.342020143326,-0.939692620786));
#1229 = DIRECTION('',(-1.,0.,0.));
#1230 = ADVANCED_FACE('',(#1231),#1256,.T.);
#1231 = FACE_BOUND('',#1232,.T.);
#1232 = EDGE_LOOP('',(#1233,#1234,#1242,#1250));
#1233 = ORIENTED_EDGE('',*,*,#1212,.T.);
#1234 = ORIENTED_EDGE('',*,*,#1235,.T.);
#1235 = EDGE_CURVE('',#1205,#1236,#1238,.T.);
#1236 = VERTEX_POINT('',#1237);
#1237 = CARTESIAN_POINT('',(13.781740976645,1.363370574411,
    5.500112507641));
#1238 = LINE('',#1239,#1240);
#1239 = CARTESIAN_POINT('',(13.781740976645,1.14860225681,4.910041404618
    ));
#1240 = VECTOR('',#1241,1.);
#1241 = DIRECTION('',(0.,0.342020143326,0.939692620786));
#1242 = ORIENTED_EDGE('',*,*,#1243,.F.);
#1243 = EDGE_CURVE('',#1244,#1236,#1246,.T.);
#1244 = VERTEX_POINT('',#1245);
#1245 = CARTESIAN_POINT('',(13.781740976645,2.11512467104,5.22649639298)
  );
#1246 = LINE('',#1247,#1248);
#1247 = CARTESIAN_POINT('',(13.781740976645,2.11512467104,5.22649639298)
  );
#1248 = VECTOR('',#1249,1.);
#1249 = DIRECTION('',(0.,-0.939692620786,0.342020143326));
#1250 = ORIENTED_EDGE('',*,*,#1251,.F.);
#1251 = EDGE_CURVE('',#1213,#1244,#1252,.T.);
#1252 = LINE('',#1253,#1254);
#1253 = CARTESIAN_POINT('',(13.781740976645,1.900356353439,
    4.636425289957));
#1254 = VECTOR('',#1255,1.);
#1255 = DIRECTION('',(0.,0.342020143326,0.939692620786));
#1256 = PLANE('',#1257);
#1257 = AXIS2_PLACEMENT_3D('',#1258,#1259,#1260);
#1258 = CARTESIAN_POINT('',(13.781740976645,1.900356353439,
    4.636425289957));
#1259 = DIRECTION('',(-1.,0.,0.));
#1260 = DIRECTION('',(0.,0.342020143326,0.939692620786));
#1261 = ADVANCED_FACE('',(#1262),#1287,.T.);
#1262 = FACE_BOUND('',#1263,.T.);
#1263 = EDGE_LOOP('',(#1264,#1265,#1273,#1281));
#1264 = ORIENTED_EDGE('',*,*,#1243,.T.);
#1265 = ORIENTED_EDGE('',*,*,#1266,.T.);
#1266 = EDGE_CURVE('',#1236,#1267,#1269,.T.);
#1267 = VERTEX_POINT('',#1268);
#1268 = CARTESIAN_POINT('',(15.402123142251,2.174749825677,
    7.729358679108));
#1269 = LINE('',#1270,#1271);
#1270 = CARTESIAN_POINT('',(13.781740976645,1.363370574411,
    5.500112507641));
#1271 = VECTOR('',#1272,1.);
#1272 = DIRECTION('',(0.564024580147,0.282425869186,0.77595869826));
#1273 = ORIENTED_EDGE('',*,*,#1274,.F.);
#1274 = EDGE_CURVE('',#1275,#1267,#1277,.T.);
#1275 = VERTEX_POINT('',#1276);
#1276 = CARTESIAN_POINT('',(15.402123142251,2.926503922306,
    7.455742564448));
#1277 = LINE('',#1278,#1279);
#1278 = CARTESIAN_POINT('',(15.402123142251,2.926503922306,
    7.455742564448));
#1279 = VECTOR('',#1280,1.);
#1280 = DIRECTION('',(0.,-0.939692620786,0.342020143326));
#1281 = ORIENTED_EDGE('',*,*,#1282,.F.);
#1282 = EDGE_CURVE('',#1244,#1275,#1283,.T.);
#1283 = LINE('',#1284,#1285);
#1284 = CARTESIAN_POINT('',(13.781740976645,2.11512467104,5.22649639298)
  );
#1285 = VECTOR('',#1286,1.);
#1286 = DIRECTION('',(0.564024580147,0.282425869186,0.77595869826));
#1287 = PLANE('',#1288);
#1288 = AXIS2_PLACEMENT_3D('',#1289,#1290,#1291);
#1289 = CARTESIAN_POINT('',(13.781740976645,2.11512467104,5.22649639298)
  );
#1290 = DIRECTION('',(-0.825757999047,0.192907767741,0.530009735906));
#1291 = DIRECTION('',(0.564024580147,0.282425869186,0.77595869826));
#1292 = ADVANCED_FACE('',(#1293),#1318,.T.);
#1293 = FACE_BOUND('',#1294,.T.);
#1294 = EDGE_LOOP('',(#1295,#1296,#1304,#1312));
#1295 = ORIENTED_EDGE('',*,*,#1274,.T.);
#1296 = ORIENTED_EDGE('',*,*,#1297,.T.);
#1297 = EDGE_CURVE('',#1267,#1298,#1300,.T.);
#1298 = VERTEX_POINT('',#1299);
#1299 = CARTESIAN_POINT('',(16.003397027601,2.174749825677,
    7.729358679108));
#1300 = LINE('',#1301,#1302);
#1301 = CARTESIAN_POINT('',(15.402123142251,2.174749825677,
    7.729358679108));
#1302 = VECTOR('',#1303,1.);
#1303 = DIRECTION('',(1.,0.,0.));
#1304 = ORIENTED_EDGE('',*,*,#1305,.F.);
#1305 = EDGE_CURVE('',#1306,#1298,#1308,.T.);
#1306 = VERTEX_POINT('',#1307);
#1307 = CARTESIAN_POINT('',(16.003397027601,2.926503922306,
    7.455742564448));
#1308 = LINE('',#1309,#1310);
#1309 = CARTESIAN_POINT('',(16.003397027601,2.926503922306,
    7.455742564448));
#1310 = VECTOR('',#1311,1.);
#1311 = DIRECTION('',(0.,-0.939692620786,0.342020143326));
#1312 = ORIENTED_EDGE('',*,*,#1313,.F.);
#1313 = EDGE_CURVE('',#1275,#1306,#1314,.T.);
#1314 = LINE('',#1315,#1316);
#1315 = CARTESIAN_POINT('',(15.402123142251,2.926503922306,
    7.455742564448));
#1316 = VECTOR('',#1317,1.);
#1317 = DIRECTION('',(1.,0.,0.));
#1318 = PLANE('',#1319);
#1319 = AXIS2_PLACEMENT_3D('',#1320,#1321,#1322);
#1320 = CARTESIAN_POINT('',(15.402123142251,2.926503922306,
    7.455742564448));
#1321 = DIRECTION('',(0.,0.342020143326,0.939692620786));
#1322 = DIRECTION('',(1.,0.,0.));
#1323 = ADVANCED_FACE('',(#1324),#1349,.T.);
#1324 = FACE_BOUND('',#1325,.T.);
#1325 = EDGE_LOOP('',(#1326,#1327,#1335,#1343));
#1326 = ORIENTED_EDGE('',*,*,#1305,.T.);
#1327 = ORIENTED_EDGE('',*,*,#1328,.T.);
#1328 = EDGE_CURVE('',#1298,#1329,#1331,.T.);
#1329 = VERTEX_POINT('',#1330);
#1330 = CARTESIAN_POINT('',(16.003397027601,1.364241963311,
    5.502506628967));
#1331 = LINE('',#1332,#1333);
#1332 = CARTESIAN_POINT('',(16.003397027601,2.174749825677,
    7.729358679108));
#1333 = VECTOR('',#1334,1.);
#1334 = DIRECTION('',(0.,-0.342020143326,-0.939692620786));
#1335 = ORIENTED_EDGE('',*,*,#1336,.F.);
#1336 = EDGE_CURVE('',#1337,#1329,#1339,.T.);
#1337 = VERTEX_POINT('',#1338);
#1338 = CARTESIAN_POINT('',(16.003397027601,2.11599605994,5.228890514307
    ));
#1339 = LINE('',#1340,#1341);
#1340 = CARTESIAN_POINT('',(16.003397027601,2.11599605994,5.228890514307
    ));
#1341 = VECTOR('',#1342,1.);
#1342 = DIRECTION('',(0.,-0.939692620786,0.342020143326));
#1343 = ORIENTED_EDGE('',*,*,#1344,.F.);
#1344 = EDGE_CURVE('',#1306,#1337,#1345,.T.);
#1345 = LINE('',#1346,#1347);
#1346 = CARTESIAN_POINT('',(16.003397027601,2.926503922306,
    7.455742564448));
#1347 = VECTOR('',#1348,1.);
#1348 = DIRECTION('',(0.,-0.342020143326,-0.939692620786));
#1349 = PLANE('',#1350);
#1350 = AXIS2_PLACEMENT_3D('',#1351,#1352,#1353);
#1351 = CARTESIAN_POINT('',(16.003397027601,2.926503922306,
    7.455742564448));
#1352 = DIRECTION('',(1.,0.,0.));
#1353 = DIRECTION('',(0.,-0.342020143326,-0.939692620786));
#1354 = ADVANCED_FACE('',(#1355),#1380,.T.);
#1355 = FACE_BOUND('',#1356,.T.);
#1356 = EDGE_LOOP('',(#1357,#1358,#1366,#1374));
#1357 = ORIENTED_EDGE('',*,*,#1336,.T.);
#1358 = ORIENTED_EDGE('',*,*,#1359,.T.);
#1359 = EDGE_CURVE('',#1329,#1360,#1362,.T.);
#1360 = VERTEX_POINT('',#1361);
#1361 = CARTESIAN_POINT('',(16.467091295117,1.364241963311,
    5.502506628967));
#1362 = LINE('',#1363,#1364);
#1363 = CARTESIAN_POINT('',(16.003397027601,1.364241963311,
    5.502506628967));
#1364 = VECTOR('',#1365,1.);
#1365 = DIRECTION('',(1.,0.,0.));
#1366 = ORIENTED_EDGE('',*,*,#1367,.F.);
#1367 = EDGE_CURVE('',#1368,#1360,#1370,.T.);
#1368 = VERTEX_POINT('',#1369);
#1369 = CARTESIAN_POINT('',(16.467091295117,2.11599605994,5.228890514307
    ));
#1370 = LINE('',#1371,#1372);
#1371 = CARTESIAN_POINT('',(16.467091295117,2.11599605994,5.228890514307
    ));
#1372 = VECTOR('',#1373,1.);
#1373 = DIRECTION('',(0.,-0.939692620786,0.342020143326));
#1374 = ORIENTED_EDGE('',*,*,#1375,.F.);
#1375 = EDGE_CURVE('',#1337,#1368,#1376,.T.);
#1376 = LINE('',#1377,#1378);
#1377 = CARTESIAN_POINT('',(16.003397027601,2.11599605994,5.228890514307
    ));
#1378 = VECTOR('',#1379,1.);
#1379 = DIRECTION('',(1.,0.,0.));
#1380 = PLANE('',#1381);
#1381 = AXIS2_PLACEMENT_3D('',#1382,#1383,#1384);
#1382 = CARTESIAN_POINT('',(16.003397027601,2.11599605994,5.228890514307
    ));
#1383 = DIRECTION('',(0.,0.342020143326,0.939692620786));
#1384 = DIRECTION('',(1.,0.,0.));
#1385 = ADVANCED_FACE('',(#1386),#1411,.T.);
#1386 = FACE_BOUND('',#1387,.T.);
#1387 = EDGE_LOOP('',(#1388,#1389,#1397,#1405));
#1388 = ORIENTED_EDGE('',*,*,#1367,.T.);
#1389 = ORIENTED_EDGE('',*,*,#1390,.T.);
#1390 = EDGE_CURVE('',#1360,#1391,#1393,.T.);
#1391 = VERTEX_POINT('',#1392);
#1392 = CARTESIAN_POINT('',(16.467091295117,1.14860225681,4.910041404618
    ));
#1393 = LINE('',#1394,#1395);
#1394 = CARTESIAN_POINT('',(16.467091295117,1.364241963311,
    5.502506628967));
#1395 = VECTOR('',#1396,1.);
#1396 = DIRECTION('',(0.,-0.342020143326,-0.939692620786));
#1397 = ORIENTED_EDGE('',*,*,#1398,.F.);
#1398 = EDGE_CURVE('',#1399,#1391,#1401,.T.);
#1399 = VERTEX_POINT('',#1400);
#1400 = CARTESIAN_POINT('',(16.467091295117,1.900356353439,
    4.636425289957));
#1401 = LINE('',#1402,#1403);
#1402 = CARTESIAN_POINT('',(16.467091295117,1.900356353439,
    4.636425289957));
#1403 = VECTOR('',#1404,1.);
#1404 = DIRECTION('',(0.,-0.939692620786,0.342020143326));
#1405 = ORIENTED_EDGE('',*,*,#1406,.F.);
#1406 = EDGE_CURVE('',#1368,#1399,#1407,.T.);
#1407 = LINE('',#1408,#1409);
#1408 = CARTESIAN_POINT('',(16.467091295117,2.11599605994,5.228890514307
    ));
#1409 = VECTOR('',#1410,1.);
#1410 = DIRECTION('',(0.,-0.342020143326,-0.939692620786));
#1411 = PLANE('',#1412);
#1412 = AXIS2_PLACEMENT_3D('',#1413,#1414,#1415);
#1413 = CARTESIAN_POINT('',(16.467091295117,2.11599605994,5.228890514307
    ));
#1414 = DIRECTION('',(1.,0.,0.));
#1415 = DIRECTION('',(0.,-0.342020143326,-0.939692620786));
#1416 = ADVANCED_FACE('',(#1417),#1442,.T.);
#1417 = FACE_BOUND('',#1418,.T.);
#1418 = EDGE_LOOP('',(#1419,#1420,#1428,#1436));
#1419 = ORIENTED_EDGE('',*,*,#1398,.T.);
#1420 = ORIENTED_EDGE('',*,*,#1421,.T.);
#1421 = EDGE_CURVE('',#1391,#1422,#1424,.T.);
#1422 = VERTEX_POINT('',#1423);
#1423 = CARTESIAN_POINT('',(16.003397027601,1.14860225681,4.910041404618
    ));
#1424 = LINE('',#1425,#1426);
#1425 = CARTESIAN_POINT('',(16.467091295117,1.14860225681,4.910041404618
    ));
#1426 = VECTOR('',#1427,1.);
#1427 = DIRECTION('',(-1.,0.,0.));
#1428 = ORIENTED_EDGE('',*,*,#1429,.F.);
#1429 = EDGE_CURVE('',#1430,#1422,#1432,.T.);
#1430 = VERTEX_POINT('',#1431);
#1431 = CARTESIAN_POINT('',(16.003397027601,1.900356353439,
    4.636425289957));
#1432 = LINE('',#1433,#1434);
#1433 = CARTESIAN_POINT('',(16.003397027601,1.900356353439,
    4.636425289957));
#1434 = VECTOR('',#1435,1.);
#1435 = DIRECTION('',(0.,-0.939692620786,0.342020143326));
#1436 = ORIENTED_EDGE('',*,*,#1437,.F.);
#1437 = EDGE_CURVE('',#1399,#1430,#1438,.T.);
#1438 = LINE('',#1439,#1440);
#1439 = CARTESIAN_POINT('',(16.467091295117,1.900356353439,
    4.636425289957));
#1440 = VECTOR('',#1441,1.);
#1441 = DIRECTION('',(-1.,0.,0.));
#1442 = PLANE('',#1443);
#1443 = AXIS2_PLACEMENT_3D('',#1444,#1445,#1446);
#1444 = CARTESIAN_POINT('',(16.467091295117,1.900356353439,
    4.636425289957));
#1445 = DIRECTION('',(0.,-0.342020143326,-0.939692620786));
#1446 = DIRECTION('',(-1.,0.,0.));
#1447 = ADVANCED_FACE('',(#1448),#1473,.T.);
#1448 = FACE_BOUND('',#1449,.T.);
#1449 = EDGE_LOOP('',(#1450,#1451,#1459,#1467));
#1450 = ORIENTED_EDGE('',*,*,#1429,.T.);
#1451 = ORIENTED_EDGE('',*,*,#1452,.T.);
#1452 = EDGE_CURVE('',#1422,#1453,#1455,.T.);
#1453 = VERTEX_POINT('',#1454);
#1454 = CARTESIAN_POINT('',(16.003397027601,0.892065364593,
    4.205212085995));
#1455 = LINE('',#1456,#1457);
#1456 = CARTESIAN_POINT('',(16.003397027601,1.14860225681,4.910041404618
    ));
#1457 = VECTOR('',#1458,1.);
#1458 = DIRECTION('',(0.,-0.342020143326,-0.939692620786));
#1459 = ORIENTED_EDGE('',*,*,#1460,.F.);
#1460 = EDGE_CURVE('',#1461,#1453,#1463,.T.);
#1461 = VERTEX_POINT('',#1462);
#1462 = CARTESIAN_POINT('',(16.003397027601,1.643819461222,
    3.931595971335));
#1463 = LINE('',#1464,#1465);
#1464 = CARTESIAN_POINT('',(16.003397027601,1.643819461222,
    3.931595971335));
#1465 = VECTOR('',#1466,1.);
#1466 = DIRECTION('',(0.,-0.939692620786,0.342020143326));
#1467 = ORIENTED_EDGE('',*,*,#1468,.F.);
#1468 = EDGE_CURVE('',#1430,#1461,#1469,.T.);
#1469 = LINE('',#1470,#1471);
#1470 = CARTESIAN_POINT('',(16.003397027601,1.900356353439,
    4.636425289957));
#1471 = VECTOR('',#1472,1.);
#1472 = DIRECTION('',(0.,-0.342020143326,-0.939692620786));
#1473 = PLANE('',#1474);
#1474 = AXIS2_PLACEMENT_3D('',#1475,#1476,#1477);
#1475 = CARTESIAN_POINT('',(16.003397027601,1.900356353439,
    4.636425289957));
#1476 = DIRECTION('',(1.,0.,0.));
#1477 = DIRECTION('',(0.,-0.342020143326,-0.939692620786));
#1478 = ADVANCED_FACE('',(#1479),#1495,.T.);
#1479 = FACE_BOUND('',#1480,.T.);
#1480 = EDGE_LOOP('',(#1481,#1482,#1488,#1489));
#1481 = ORIENTED_EDGE('',*,*,#1460,.T.);
#1482 = ORIENTED_EDGE('',*,*,#1483,.T.);
#1483 = EDGE_CURVE('',#1453,#1166,#1484,.T.);
#1484 = LINE('',#1485,#1486);
#1485 = CARTESIAN_POINT('',(16.003397027601,0.892065364593,
    4.205212085995));
#1486 = VECTOR('',#1487,1.);
#1487 = DIRECTION('',(-1.,0.,0.));
#1488 = ORIENTED_EDGE('',*,*,#1163,.F.);
#1489 = ORIENTED_EDGE('',*,*,#1490,.F.);
#1490 = EDGE_CURVE('',#1461,#1164,#1491,.T.);
#1491 = LINE('',#1492,#1493);
#1492 = CARTESIAN_POINT('',(16.003397027601,1.643819461222,
    3.931595971335));
#1493 = VECTOR('',#1494,1.);
#1494 = DIRECTION('',(-1.,0.,0.));
#1495 = PLANE('',#1496);
#1496 = AXIS2_PLACEMENT_3D('',#1497,#1498,#1499);
#1497 = CARTESIAN_POINT('',(16.003397027601,1.643819461222,
    3.931595971335));
#1498 = DIRECTION('',(0.,-0.342020143326,-0.939692620786));
#1499 = DIRECTION('',(-1.,0.,0.));
#1500 = ADVANCED_FACE('',(#1501),#1514,.F.);
#1501 = FACE_BOUND('',#1502,.T.);
#1502 = EDGE_LOOP('',(#1503,#1504,#1505,#1506,#1507,#1508,#1509,#1510,
    #1511,#1512,#1513));
#1503 = ORIENTED_EDGE('',*,*,#1189,.T.);
#1504 = ORIENTED_EDGE('',*,*,#1220,.T.);
#1505 = ORIENTED_EDGE('',*,*,#1251,.T.);
#1506 = ORIENTED_EDGE('',*,*,#1282,.T.);
#1507 = ORIENTED_EDGE('',*,*,#1313,.T.);
#1508 = ORIENTED_EDGE('',*,*,#1344,.T.);
#1509 = ORIENTED_EDGE('',*,*,#1375,.T.);
#1510 = ORIENTED_EDGE('',*,*,#1406,.T.);
#1511 = ORIENTED_EDGE('',*,*,#1437,.T.);
#1512 = ORIENTED_EDGE('',*,*,#1468,.T.);
#1513 = ORIENTED_EDGE('',*,*,#1490,.T.);
#1514 = PLANE('',#1515);
#1515 = AXIS2_PLACEMENT_3D('',#1516,#1517,#1518);
#1516 = CARTESIAN_POINT('',(15.313178915891,2.218279213344,
    5.509911168676));
#1517 = DIRECTION('',(0.,-0.939692620786,0.342020143326));
#1518 = DIRECTION('',(1.,0.,0.));
#1519 = ADVANCED_FACE('',(#1520),#1533,.T.);
#1520 = FACE_BOUND('',#1521,.F.);
#1521 = EDGE_LOOP('',(#1522,#1523,#1524,#1525,#1526,#1527,#1528,#1529,
    #1530,#1531,#1532));
#1522 = ORIENTED_EDGE('',*,*,#1173,.T.);
#1523 = ORIENTED_EDGE('',*,*,#1204,.T.);
#1524 = ORIENTED_EDGE('',*,*,#1235,.T.);
#1525 = ORIENTED_EDGE('',*,*,#1266,.T.);
#1526 = ORIENTED_EDGE('',*,*,#1297,.T.);
#1527 = ORIENTED_EDGE('',*,*,#1328,.T.);
#1528 = ORIENTED_EDGE('',*,*,#1359,.T.);
#1529 = ORIENTED_EDGE('',*,*,#1390,.T.);
#1530 = ORIENTED_EDGE('',*,*,#1421,.T.);
#1531 = ORIENTED_EDGE('',*,*,#1452,.T.);
#1532 = ORIENTED_EDGE('',*,*,#1483,.T.);
#1533 = PLANE('',#1534);
#1534 = AXIS2_PLACEMENT_3D('',#1535,#1536,#1537);
#1535 = CARTESIAN_POINT('',(15.313178915891,1.466525116716,
    5.783527283337));
#1536 = DIRECTION('',(0.,-0.939692620786,0.342020143326));
#1537 = DIRECTION('',(1.,0.,0.));
#1538 = MANIFOLD_SOLID_BREP('',#1539);
#1539 = CLOSED_SHELL('',(#1540,#1580,#1611,#1633,#1644));
#1540 = ADVANCED_FACE('',(#1541),#1575,.F.);
#1541 = FACE_BOUND('',#1542,.F.);
#1542 = EDGE_LOOP('',(#1543,#1553,#1561,#1569));
#1543 = ORIENTED_EDGE('',*,*,#1544,.T.);
#1544 = EDGE_CURVE('',#1545,#1547,#1549,.T.);
#1545 = VERTEX_POINT('',#1546);
#1546 = CARTESIAN_POINT('',(15.310403397028,2.11599605994,5.228890514307
    ));
#1547 = VERTEX_POINT('',#1548);
#1548 = CARTESIAN_POINT('',(15.310403397028,1.364241963311,
    5.502506628967));
#1549 = LINE('',#1550,#1551);
#1550 = CARTESIAN_POINT('',(15.310403397028,2.11599605994,5.228890514307
    ));
#1551 = VECTOR('',#1552,1.);
#1552 = DIRECTION('',(0.,-0.939692620786,0.342020143326));
#1553 = ORIENTED_EDGE('',*,*,#1554,.T.);
#1554 = EDGE_CURVE('',#1547,#1555,#1557,.T.);
#1555 = VERTEX_POINT('',#1556);
#1556 = CARTESIAN_POINT('',(15.310403397028,1.794185246666,
    6.683766091632));
#1557 = LINE('',#1558,#1559);
#1558 = CARTESIAN_POINT('',(15.310403397028,1.364241963311,
    5.502506628967));
#1559 = VECTOR('',#1560,1.);
#1560 = DIRECTION('',(0.,0.342020143326,0.939692620786));
#1561 = ORIENTED_EDGE('',*,*,#1562,.F.);
#1562 = EDGE_CURVE('',#1563,#1555,#1565,.T.);
#1563 = VERTEX_POINT('',#1564);
#1564 = CARTESIAN_POINT('',(15.310403397028,2.545939343295,
    6.410149976971));
#1565 = LINE('',#1566,#1567);
#1566 = CARTESIAN_POINT('',(15.310403397028,2.545939343295,
    6.410149976971));
#1567 = VECTOR('',#1568,1.);
#1568 = DIRECTION('',(0.,-0.939692620786,0.342020143326));
#1569 = ORIENTED_EDGE('',*,*,#1570,.F.);
#1570 = EDGE_CURVE('',#1545,#1563,#1571,.T.);
#1571 = LINE('',#1572,#1573);
#1572 = CARTESIAN_POINT('',(15.310403397028,2.11599605994,5.228890514307
    ));
#1573 = VECTOR('',#1574,1.);
#1574 = DIRECTION('',(0.,0.342020143326,0.939692620786));
#1575 = PLANE('',#1576);
#1576 = AXIS2_PLACEMENT_3D('',#1577,#1578,#1579);
#1577 = CARTESIAN_POINT('',(15.310403397028,2.11599605994,5.228890514307
    ));
#1578 = DIRECTION('',(-1.,0.,0.));
#1579 = DIRECTION('',(0.,0.342020143326,0.939692620786));
#1580 = ADVANCED_FACE('',(#1581),#1606,.F.);
#1581 = FACE_BOUND('',#1582,.F.);
#1582 = EDGE_LOOP('',(#1583,#1584,#1592,#1600));
#1583 = ORIENTED_EDGE('',*,*,#1562,.T.);
#1584 = ORIENTED_EDGE('',*,*,#1585,.T.);
#1585 = EDGE_CURVE('',#1555,#1586,#1588,.T.);
#1586 = VERTEX_POINT('',#1587);
#1587 = CARTESIAN_POINT('',(14.451804670913,1.364241963311,
    5.502506628967));
#1588 = LINE('',#1589,#1590);
#1589 = CARTESIAN_POINT('',(15.310403397028,1.794185246666,
    6.683766091632));
#1590 = VECTOR('',#1591,1.);
#1591 = DIRECTION('',(-0.564011752037,-0.282428865949,-0.775966931797));
#1592 = ORIENTED_EDGE('',*,*,#1593,.F.);
#1593 = EDGE_CURVE('',#1594,#1586,#1596,.T.);
#1594 = VERTEX_POINT('',#1595);
#1595 = CARTESIAN_POINT('',(14.451804670913,2.11599605994,5.228890514307
    ));
#1596 = LINE('',#1597,#1598);
#1597 = CARTESIAN_POINT('',(14.451804670913,2.11599605994,5.228890514307
    ));
#1598 = VECTOR('',#1599,1.);
#1599 = DIRECTION('',(0.,-0.939692620786,0.342020143326));
#1600 = ORIENTED_EDGE('',*,*,#1601,.F.);
#1601 = EDGE_CURVE('',#1563,#1594,#1602,.T.);
#1602 = LINE('',#1603,#1604);
#1603 = CARTESIAN_POINT('',(15.310403397028,2.545939343295,
    6.410149976971));
#1604 = VECTOR('',#1605,1.);
#1605 = DIRECTION('',(-0.564011752037,-0.282428865949,-0.775966931797));
#1606 = PLANE('',#1607);
#1607 = AXIS2_PLACEMENT_3D('',#1608,#1609,#1610);
#1608 = CARTESIAN_POINT('',(15.310403397028,2.545939343295,
    6.410149976971));
#1609 = DIRECTION('',(0.825766760995,-0.192903380269,-0.529997681426));
#1610 = DIRECTION('',(-0.564011752037,-0.282428865949,-0.775966931797));
#1611 = ADVANCED_FACE('',(#1612),#1628,.F.);
#1612 = FACE_BOUND('',#1613,.F.);
#1613 = EDGE_LOOP('',(#1614,#1615,#1621,#1622));
#1614 = ORIENTED_EDGE('',*,*,#1593,.T.);
#1615 = ORIENTED_EDGE('',*,*,#1616,.T.);
#1616 = EDGE_CURVE('',#1586,#1547,#1617,.T.);
#1617 = LINE('',#1618,#1619);
#1618 = CARTESIAN_POINT('',(14.451804670913,1.364241963311,
    5.502506628967));
#1619 = VECTOR('',#1620,1.);
#1620 = DIRECTION('',(1.,0.,0.));
#1621 = ORIENTED_EDGE('',*,*,#1544,.F.);
#1622 = ORIENTED_EDGE('',*,*,#1623,.F.);
#1623 = EDGE_CURVE('',#1594,#1545,#1624,.T.);
#1624 = LINE('',#1625,#1626);
#1625 = CARTESIAN_POINT('',(14.451804670913,2.11599605994,5.228890514307
    ));
#1626 = VECTOR('',#1627,1.);
#1627 = DIRECTION('',(1.,0.,0.));
#1628 = PLANE('',#1629);
#1629 = AXIS2_PLACEMENT_3D('',#1630,#1631,#1632);
#1630 = CARTESIAN_POINT('',(14.451804670913,2.11599605994,5.228890514307
    ));
#1631 = DIRECTION('',(0.,0.342020143326,0.939692620786));
#1632 = DIRECTION('',(1.,0.,0.));
#1633 = ADVANCED_FACE('',(#1634),#1639,.T.);
#1634 = FACE_BOUND('',#1635,.F.);
#1635 = EDGE_LOOP('',(#1636,#1637,#1638));
#1636 = ORIENTED_EDGE('',*,*,#1570,.T.);
#1637 = ORIENTED_EDGE('',*,*,#1601,.T.);
#1638 = ORIENTED_EDGE('',*,*,#1623,.T.);
#1639 = PLANE('',#1640);
#1640 = AXIS2_PLACEMENT_3D('',#1641,#1642,#1643);
#1641 = CARTESIAN_POINT('',(15.029444619759,2.280232233205,5.68012569181
    ));
#1642 = DIRECTION('',(-0.,0.939692620786,-0.342020143326));
#1643 = DIRECTION('',(-1.,0.,0.));
#1644 = ADVANCED_FACE('',(#1645),#1650,.F.);
#1645 = FACE_BOUND('',#1646,.T.);
#1646 = EDGE_LOOP('',(#1647,#1648,#1649));
#1647 = ORIENTED_EDGE('',*,*,#1554,.T.);
#1648 = ORIENTED_EDGE('',*,*,#1585,.T.);
#1649 = ORIENTED_EDGE('',*,*,#1616,.T.);
#1650 = PLANE('',#1651);
#1651 = AXIS2_PLACEMENT_3D('',#1652,#1653,#1654);
#1652 = CARTESIAN_POINT('',(15.029444619759,1.528478136576,
    5.953741806471));
#1653 = DIRECTION('',(-0.,0.939692620786,-0.342020143326));
#1654 = DIRECTION('',(-1.,0.,0.));
#1655 = ( GEOMETRIC_REPRESENTATION_CONTEXT(3) 
GLOBAL_UNCERTAINTY_ASSIGNED_CONTEXT((#1659)) 
GLOBAL_UNIT_ASSIGNED_CONTEXT((#1656,#1657,#1658)) REPRESENTATION_CONTEXT
('Context #1','3D Context with UNIT and UNCERTAINTY') );
#1656 = ( LENGTH_UNIT() NAMED_UNIT(*) SI_UNIT(.MILLI.,.METRE.) );
#1657 = ( NAMED_UNIT(*) PLANE_ANGLE_UNIT() SI_UNIT($,.RADIAN.) );
#1658 = ( NAMED_UNIT(*) SI_UNIT($,.STERADIAN.) SOLID_ANGLE_UNIT() );
#1659 = UNCERTAINTY_MEASURE_WITH_UNIT(LENGTH_MEASURE(1.E-07),#1656,
  'distance_accuracy_value','confusion accuracy');
#1660 = PRODUCT_RELATED_PRODUCT_CATEGORY('part',$,(#7));
ENDSEC;
END-ISO-10303-21;
