ISO-10303-21;
HEADER;
FILE_DESCRIPTION(('FreeCAD Model'),'2;1');
FILE_NAME('Open CASCADE Shape Model','2026-08-29T16:41:03',('FreeCAD'),(
    'FreeCAD'),'Open CASCADE STEP processor 7.8','FreeCAD','Unknown');
FILE_SCHEMA(('AUTOMOTIVE_DESIGN { 1 0 10303 214 1 1 1 1 }'));
ENDSEC;
DATA;
#1 = APPLICATION_PROTOCOL_DEFINITION('international standard',
  'automotive_design',2000,#2);
#2 = APPLICATION_CONTEXT(
  'core data for automotive mechanical design processes');
#3 = SHAPE_DEFINITION_REPRESENTATION(#4,#10);
#4 = PRODUCT_DEFINITION_SHAPE('','',#5);
#5 = PRODUCT_DEFINITION('design','',#6,#9);
#6 = PRODUCT_DEFINITION_FORMATION('','',#7);
#7 = PRODUCT('Open CASCADE STEP translator 7.8 92',
  'Open CASCADE STEP translator 7.8 92','',(#8));
#8 = PRODUCT_CONTEXT('',#2,'mechanical');
#9 = PRODUCT_DEFINITION_CONTEXT('part definition',#2,'design');
#10 = SHAPE_REPRESENTATION('',(#11,#15,#303,#453),#1198);
#11 = AXIS2_PLACEMENT_3D('',#12,#13,#14);
#12 = CARTESIAN_POINT('',(0.,0.,0.));
#13 = DIRECTION('',(0.,0.,1.));
#14 = DIRECTION('',(1.,0.,-0.));
#15 = MANIFOLD_SOLID_BREP('',#16);
#16 = CLOSED_SHELL('',(#17,#57,#88,#121,#152,#185,#218,#249,#271,#287));
#17 = ADVANCED_FACE('',(#18),#52,.T.);
#18 = FACE_BOUND('',#19,.T.);
#19 = EDGE_LOOP('',(#20,#30,#38,#46));
#20 = ORIENTED_EDGE('',*,*,#21,.T.);
#21 = EDGE_CURVE('',#22,#24,#26,.T.);
#22 = VERTEX_POINT('',#23);
#23 = CARTESIAN_POINT('',(11.353290870488,1.643819461222,3.931595971335)
  );
#24 = VERTEX_POINT('',#25);
#25 = CARTESIAN_POINT('',(11.353290870488,0.892065364593,4.205212085995)
  );
#26 = LINE('',#27,#28);
#27 = CARTESIAN_POINT('',(11.353290870488,1.643819461222,3.931595971335)
  );
#28 = VECTOR('',#29,1.);
#29 = DIRECTION('',(0.,-0.939692620786,0.342020143326));
#30 = ORIENTED_EDGE('',*,*,#31,.T.);
#31 = EDGE_CURVE('',#24,#32,#34,.T.);
#32 = VERTEX_POINT('',#33);
#33 = CARTESIAN_POINT('',(10.637367303609,0.892065364593,4.205212085995)
  );
#34 = LINE('',#35,#36);
#35 = CARTESIAN_POINT('',(11.353290870488,0.892065364593,4.205212085995)
  );
#36 = VECTOR('',#37,1.);
#37 = DIRECTION('',(-1.,0.,0.));
#38 = ORIENTED_EDGE('',*,*,#39,.F.);
#39 = EDGE_CURVE('',#40,#32,#42,.T.);
#40 = VERTEX_POINT('',#41);
#41 = CARTESIAN_POINT('',(10.637367303609,1.643819461222,3.931595971335)
  );
#42 = LINE('',#43,#44);
#43 = CARTESIAN_POINT('',(10.637367303609,1.643819461222,3.931595971335)
  );
#44 = VECTOR('',#45,1.);
#45 = DIRECTION('',(0.,-0.939692620786,0.342020143326));
#46 = ORIENTED_EDGE('',*,*,#47,.F.);
#47 = EDGE_CURVE('',#22,#40,#48,.T.);
#48 = LINE('',#49,#50);
#49 = CARTESIAN_POINT('',(11.353290870488,1.643819461222,3.931595971335)
  );
#50 = VECTOR('',#51,1.);
#51 = DIRECTION('',(-1.,0.,0.));
#52 = PLANE('',#53);
#53 = AXIS2_PLACEMENT_3D('',#54,#55,#56);
#54 = CARTESIAN_POINT('',(11.353290870488,1.643819461222,3.931595971335)
  );
#55 = DIRECTION('',(0.,-0.342020143326,-0.939692620786));
#56 = DIRECTION('',(-1.,0.,0.));
#57 = ADVANCED_FACE('',(#58),#83,.T.);
#58 = FACE_BOUND('',#59,.T.);
#59 = EDGE_LOOP('',(#60,#61,#69,#77));
#60 = ORIENTED_EDGE('',*,*,#39,.T.);
#61 = ORIENTED_EDGE('',*,*,#62,.T.);
#62 = EDGE_CURVE('',#32,#63,#65,.T.);
#63 = VERTEX_POINT('',#64);
#64 = CARTESIAN_POINT('',(10.637367303609,1.818293672905,6.750003448341)
  );
#65 = LINE('',#66,#67);
#66 = CARTESIAN_POINT('',(10.637367303609,0.892065364593,4.205212085995)
  );
#67 = VECTOR('',#68,1.);
#68 = DIRECTION('',(0.,0.342020143326,0.939692620786));
#69 = ORIENTED_EDGE('',*,*,#70,.F.);
#70 = EDGE_CURVE('',#71,#63,#73,.T.);
#71 = VERTEX_POINT('',#72);
#72 = CARTESIAN_POINT('',(10.637367303609,2.570047769534,6.476387333681)
  );
#73 = LINE('',#74,#75);
#74 = CARTESIAN_POINT('',(10.637367303609,2.570047769534,6.476387333681)
  );
#75 = VECTOR('',#76,1.);
#76 = DIRECTION('',(0.,-0.939692620786,0.342020143326));
#77 = ORIENTED_EDGE('',*,*,#78,.F.);
#78 = EDGE_CURVE('',#40,#71,#79,.T.);
#79 = LINE('',#80,#81);
#80 = CARTESIAN_POINT('',(10.637367303609,1.643819461222,3.931595971335)
  );
#81 = VECTOR('',#82,1.);
#82 = DIRECTION('',(0.,0.342020143326,0.939692620786));
#83 = PLANE('',#84);
#84 = AXIS2_PLACEMENT_3D('',#85,#86,#87);
#85 = CARTESIAN_POINT('',(10.637367303609,1.643819461222,3.931595971335)
  );
#86 = DIRECTION('',(-1.,0.,0.));
#87 = DIRECTION('',(0.,0.342020143326,0.939692620786));
#88 = ADVANCED_FACE('',(#89),#114,.T.);
#89 = FACE_BOUND('',#90,.T.);
#90 = EDGE_LOOP('',(#91,#92,#100,#108));
#91 = ORIENTED_EDGE('',*,*,#70,.T.);
#92 = ORIENTED_EDGE('',*,*,#93,.T.);
#93 = EDGE_CURVE('',#63,#94,#96,.T.);
#94 = VERTEX_POINT('',#95);
#95 = CARTESIAN_POINT('',(9.712526539278,1.63193263345,6.237980700574));
#96 = B_SPLINE_CURVE_WITH_KNOTS('',2,(#97,#98,#99),.UNSPECIFIED.,.F.,.F.
  ,(3,3),(0.,1.),.PIECEWISE_BEZIER_KNOTS.);
#97 = CARTESIAN_POINT('',(10.637367303609,1.818293672905,6.750003448341)
  );
#98 = CARTESIAN_POINT('',(10.245010615711,1.692290837937,6.40381350448)
  );
#99 = CARTESIAN_POINT('',(9.712526539278,1.63193263345,6.237980700574));
#100 = ORIENTED_EDGE('',*,*,#101,.F.);
#101 = EDGE_CURVE('',#102,#94,#104,.T.);
#102 = VERTEX_POINT('',#103);
#103 = CARTESIAN_POINT('',(9.712526539278,2.383686730079,5.964364585913)
  );
#104 = LINE('',#105,#106);
#105 = CARTESIAN_POINT('',(9.712526539278,2.383686730079,5.964364585913)
  );
#106 = VECTOR('',#107,1.);
#107 = DIRECTION('',(0.,-0.939692620786,0.342020143326));
#108 = ORIENTED_EDGE('',*,*,#109,.F.);
#109 = EDGE_CURVE('',#71,#102,#110,.T.);
#110 = B_SPLINE_CURVE_WITH_KNOTS('',2,(#111,#112,#113),.UNSPECIFIED.,.F.
  ,.F.,(3,3),(0.,1.),.PIECEWISE_BEZIER_KNOTS.);
#111 = CARTESIAN_POINT('',(10.637367303609,2.570047769534,6.476387333681
    ));
#112 = CARTESIAN_POINT('',(10.245010615711,2.444044934566,6.130197389819
    ));
#113 = CARTESIAN_POINT('',(9.712526539278,2.383686730079,5.964364585913)
  );
#114 = SURFACE_OF_LINEAR_EXTRUSION('',#115,#119);
#115 = B_SPLINE_CURVE_WITH_KNOTS('',2,(#116,#117,#118),.UNSPECIFIED.,.F.
  ,.F.,(3,3),(0.,1.),.PIECEWISE_BEZIER_KNOTS.);
#116 = CARTESIAN_POINT('',(10.637367303609,2.570047769534,6.476387333681
    ));
#117 = CARTESIAN_POINT('',(10.245010615711,2.444044934566,6.130197389819
    ));
#118 = CARTESIAN_POINT('',(9.712526539278,2.383686730079,5.964364585913)
  );
#119 = VECTOR('',#120,1.);
#120 = DIRECTION('',(-0.,0.939692620786,-0.342020143326));
#121 = ADVANCED_FACE('',(#122),#147,.T.);
#122 = FACE_BOUND('',#123,.T.);
#123 = EDGE_LOOP('',(#124,#125,#133,#141));
#124 = ORIENTED_EDGE('',*,*,#101,.T.);
#125 = ORIENTED_EDGE('',*,*,#126,.T.);
#126 = EDGE_CURVE('',#94,#127,#129,.T.);
#127 = VERTEX_POINT('',#128);
#128 = CARTESIAN_POINT('',(9.712526539278,1.8550081919,6.850875760245));
#129 = LINE('',#130,#131);
#130 = CARTESIAN_POINT('',(9.712526539278,1.63193263345,6.237980700574)
  );
#131 = VECTOR('',#132,1.);
#132 = DIRECTION('',(0.,0.342020143326,0.939692620786));
#133 = ORIENTED_EDGE('',*,*,#134,.F.);
#134 = EDGE_CURVE('',#135,#127,#137,.T.);
#135 = VERTEX_POINT('',#136);
#136 = CARTESIAN_POINT('',(9.712526539278,2.606762288528,6.577259645585)
  );
#137 = LINE('',#138,#139);
#138 = CARTESIAN_POINT('',(9.712526539278,2.606762288528,6.577259645585)
  );
#139 = VECTOR('',#140,1.);
#140 = DIRECTION('',(0.,-0.939692620786,0.342020143326));
#141 = ORIENTED_EDGE('',*,*,#142,.F.);
#142 = EDGE_CURVE('',#102,#135,#143,.T.);
#143 = LINE('',#144,#145);
#144 = CARTESIAN_POINT('',(9.712526539278,2.383686730079,5.964364585913)
  );
#145 = VECTOR('',#146,1.);
#146 = DIRECTION('',(0.,0.342020143326,0.939692620786));
#147 = PLANE('',#148);
#148 = AXIS2_PLACEMENT_3D('',#149,#150,#151);
#149 = CARTESIAN_POINT('',(9.712526539278,2.383686730079,5.964364585913)
  );
#150 = DIRECTION('',(-1.,0.,0.));
#151 = DIRECTION('',(0.,0.342020143326,0.939692620786));
#152 = ADVANCED_FACE('',(#153),#178,.T.);
#153 = FACE_BOUND('',#154,.T.);
#154 = EDGE_LOOP('',(#155,#156,#164,#172));
#155 = ORIENTED_EDGE('',*,*,#134,.T.);
#156 = ORIENTED_EDGE('',*,*,#157,.T.);
#157 = EDGE_CURVE('',#127,#158,#160,.T.);
#158 = VERTEX_POINT('',#159);
#159 = CARTESIAN_POINT('',(10.32144373673,1.973981823073,7.177753125404)
  );
#160 = B_SPLINE_CURVE_WITH_KNOTS('',2,(#161,#162,#163),.UNSPECIFIED.,.F.
  ,.F.,(3,3),(0.,1.),.PIECEWISE_BEZIER_KNOTS.);
#161 = CARTESIAN_POINT('',(9.712526539278,1.8550081919,6.850875760245));
#162 = CARTESIAN_POINT('',(9.992781316348,1.886378192307,6.937064128012)
  );
#163 = CARTESIAN_POINT('',(10.32144373673,1.973981823073,7.177753125404)
  );
#164 = ORIENTED_EDGE('',*,*,#165,.F.);
#165 = EDGE_CURVE('',#166,#158,#168,.T.);
#166 = VERTEX_POINT('',#167);
#167 = CARTESIAN_POINT('',(10.32144373673,2.725735919701,6.904137010743)
  );
#168 = LINE('',#169,#170);
#169 = CARTESIAN_POINT('',(10.32144373673,2.725735919701,6.904137010743)
  );
#170 = VECTOR('',#171,1.);
#171 = DIRECTION('',(0.,-0.939692620786,0.342020143326));
#172 = ORIENTED_EDGE('',*,*,#173,.F.);
#173 = EDGE_CURVE('',#135,#166,#174,.T.);
#174 = B_SPLINE_CURVE_WITH_KNOTS('',2,(#175,#176,#177),.UNSPECIFIED.,.F.
  ,.F.,(3,3),(0.,1.),.PIECEWISE_BEZIER_KNOTS.);
#175 = CARTESIAN_POINT('',(9.712526539278,2.606762288528,6.577259645585)
  );
#176 = CARTESIAN_POINT('',(9.992781316348,2.638132288935,6.663448013351)
  );
#177 = CARTESIAN_POINT('',(10.32144373673,2.725735919701,6.904137010743)
  );
#178 = SURFACE_OF_LINEAR_EXTRUSION('',#179,#183);
#179 = B_SPLINE_CURVE_WITH_KNOTS('',2,(#180,#181,#182),.UNSPECIFIED.,.F.
  ,.F.,(3,3),(0.,1.),.PIECEWISE_BEZIER_KNOTS.);
#180 = CARTESIAN_POINT('',(9.712526539278,2.606762288528,6.577259645585)
  );
#181 = CARTESIAN_POINT('',(9.992781316348,2.638132288935,6.663448013351)
  );
#182 = CARTESIAN_POINT('',(10.32144373673,2.725735919701,6.904137010743)
  );
#183 = VECTOR('',#184,1.);
#184 = DIRECTION('',(-0.,0.939692620786,-0.342020143326));
#185 = ADVANCED_FACE('',(#186),#211,.T.);
#186 = FACE_BOUND('',#187,.T.);
#187 = EDGE_LOOP('',(#188,#189,#197,#205));
#188 = ORIENTED_EDGE('',*,*,#165,.T.);
#189 = ORIENTED_EDGE('',*,*,#190,.T.);
#190 = EDGE_CURVE('',#158,#191,#193,.T.);
#191 = VERTEX_POINT('',#192);
#192 = CARTESIAN_POINT('',(10.772399150743,2.178467751651,7.73957359677)
  );
#193 = B_SPLINE_CURVE_WITH_KNOTS('',2,(#194,#195,#196),.UNSPECIFIED.,.F.
  ,.F.,(3,3),(0.,1.),.PIECEWISE_BEZIER_KNOTS.);
#194 = CARTESIAN_POINT('',(10.32144373673,1.973981823073,7.177753125404)
  );
#195 = CARTESIAN_POINT('',(10.650106157113,2.061643546432,7.418601730884
    ));
#196 = CARTESIAN_POINT('',(10.772399150743,2.178467751651,7.73957359677)
  );
#197 = ORIENTED_EDGE('',*,*,#198,.F.);
#198 = EDGE_CURVE('',#199,#191,#201,.T.);
#199 = VERTEX_POINT('',#200);
#200 = CARTESIAN_POINT('',(10.772399150743,2.93022184828,7.465957482109)
  );
#201 = LINE('',#202,#203);
#202 = CARTESIAN_POINT('',(10.772399150743,2.93022184828,7.465957482109)
  );
#203 = VECTOR('',#204,1.);
#204 = DIRECTION('',(0.,-0.939692620786,0.342020143326));
#205 = ORIENTED_EDGE('',*,*,#206,.F.);
#206 = EDGE_CURVE('',#166,#199,#207,.T.);
#207 = B_SPLINE_CURVE_WITH_KNOTS('',2,(#208,#209,#210),.UNSPECIFIED.,.F.
  ,.F.,(3,3),(0.,1.),.PIECEWISE_BEZIER_KNOTS.);
#208 = CARTESIAN_POINT('',(10.32144373673,2.725735919701,6.904137010743)
  );
#209 = CARTESIAN_POINT('',(10.650106157113,2.813397643061,7.144985616224
    ));
#210 = CARTESIAN_POINT('',(10.772399150743,2.93022184828,7.465957482109)
  );
#211 = SURFACE_OF_LINEAR_EXTRUSION('',#212,#216);
#212 = B_SPLINE_CURVE_WITH_KNOTS('',2,(#213,#214,#215),.UNSPECIFIED.,.F.
  ,.F.,(3,3),(0.,1.),.PIECEWISE_BEZIER_KNOTS.);
#213 = CARTESIAN_POINT('',(10.32144373673,2.725735919701,6.904137010743)
  );
#214 = CARTESIAN_POINT('',(10.650106157113,2.813397643061,7.144985616224
    ));
#215 = CARTESIAN_POINT('',(10.772399150743,2.93022184828,7.465957482109)
  );
#216 = VECTOR('',#217,1.);
#217 = DIRECTION('',(-0.,0.939692620786,-0.342020143326));
#218 = ADVANCED_FACE('',(#219),#244,.T.);
#219 = FACE_BOUND('',#220,.T.);
#220 = EDGE_LOOP('',(#221,#222,#230,#238));
#221 = ORIENTED_EDGE('',*,*,#198,.T.);
#222 = ORIENTED_EDGE('',*,*,#223,.T.);
#223 = EDGE_CURVE('',#191,#224,#226,.T.);
#224 = VERTEX_POINT('',#225);
#225 = CARTESIAN_POINT('',(11.353290870488,2.178467751651,7.73957359677)
  );
#226 = LINE('',#227,#228);
#227 = CARTESIAN_POINT('',(10.772399150743,2.178467751651,7.73957359677)
  );
#228 = VECTOR('',#229,1.);
#229 = DIRECTION('',(1.,0.,0.));
#230 = ORIENTED_EDGE('',*,*,#231,.F.);
#231 = EDGE_CURVE('',#232,#224,#234,.T.);
#232 = VERTEX_POINT('',#233);
#233 = CARTESIAN_POINT('',(11.353290870488,2.93022184828,7.465957482109)
  );
#234 = LINE('',#235,#236);
#235 = CARTESIAN_POINT('',(11.353290870488,2.93022184828,7.465957482109)
  );
#236 = VECTOR('',#237,1.);
#237 = DIRECTION('',(0.,-0.939692620786,0.342020143326));
#238 = ORIENTED_EDGE('',*,*,#239,.F.);
#239 = EDGE_CURVE('',#199,#232,#240,.T.);
#240 = LINE('',#241,#242);
#241 = CARTESIAN_POINT('',(10.772399150743,2.93022184828,7.465957482109)
  );
#242 = VECTOR('',#243,1.);
#243 = DIRECTION('',(1.,0.,0.));
#244 = PLANE('',#245);
#245 = AXIS2_PLACEMENT_3D('',#246,#247,#248);
#246 = CARTESIAN_POINT('',(10.772399150743,2.93022184828,7.465957482109)
  );
#247 = DIRECTION('',(0.,0.342020143326,0.939692620786));
#248 = DIRECTION('',(1.,0.,0.));
#249 = ADVANCED_FACE('',(#250),#266,.T.);
#250 = FACE_BOUND('',#251,.T.);
#251 = EDGE_LOOP('',(#252,#253,#259,#260));
#252 = ORIENTED_EDGE('',*,*,#231,.T.);
#253 = ORIENTED_EDGE('',*,*,#254,.T.);
#254 = EDGE_CURVE('',#224,#24,#255,.T.);
#255 = LINE('',#256,#257);
#256 = CARTESIAN_POINT('',(11.353290870488,2.178467751651,7.73957359677)
  );
#257 = VECTOR('',#258,1.);
#258 = DIRECTION('',(0.,-0.342020143326,-0.939692620786));
#259 = ORIENTED_EDGE('',*,*,#21,.F.);
#260 = ORIENTED_EDGE('',*,*,#261,.F.);
#261 = EDGE_CURVE('',#232,#22,#262,.T.);
#262 = LINE('',#263,#264);
#263 = CARTESIAN_POINT('',(11.353290870488,2.93022184828,7.465957482109)
  );
#264 = VECTOR('',#265,1.);
#265 = DIRECTION('',(0.,-0.342020143326,-0.939692620786));
#266 = PLANE('',#267);
#267 = AXIS2_PLACEMENT_3D('',#268,#269,#270);
#268 = CARTESIAN_POINT('',(11.353290870488,2.93022184828,7.465957482109)
  );
#269 = DIRECTION('',(1.,0.,0.));
#270 = DIRECTION('',(0.,-0.342020143326,-0.939692620786));
#271 = ADVANCED_FACE('',(#272),#282,.F.);
#272 = FACE_BOUND('',#273,.T.);
#273 = EDGE_LOOP('',(#274,#275,#276,#277,#278,#279,#280,#281));
#274 = ORIENTED_EDGE('',*,*,#47,.T.);
#275 = ORIENTED_EDGE('',*,*,#78,.T.);
#276 = ORIENTED_EDGE('',*,*,#109,.T.);
#277 = ORIENTED_EDGE('',*,*,#142,.T.);
#278 = ORIENTED_EDGE('',*,*,#173,.T.);
#279 = ORIENTED_EDGE('',*,*,#206,.T.);
#280 = ORIENTED_EDGE('',*,*,#239,.T.);
#281 = ORIENTED_EDGE('',*,*,#261,.T.);
#282 = PLANE('',#283);
#283 = AXIS2_PLACEMENT_3D('',#284,#285,#286);
#284 = CARTESIAN_POINT('',(10.785764971799,2.325874114842,5.805525730989
    ));
#285 = DIRECTION('',(0.,-0.939692620786,0.342020143326));
#286 = DIRECTION('',(1.,0.,0.));
#287 = ADVANCED_FACE('',(#288),#298,.T.);
#288 = FACE_BOUND('',#289,.F.);
#289 = EDGE_LOOP('',(#290,#291,#292,#293,#294,#295,#296,#297));
#290 = ORIENTED_EDGE('',*,*,#31,.T.);
#291 = ORIENTED_EDGE('',*,*,#62,.T.);
#292 = ORIENTED_EDGE('',*,*,#93,.T.);
#293 = ORIENTED_EDGE('',*,*,#126,.T.);
#294 = ORIENTED_EDGE('',*,*,#157,.T.);
#295 = ORIENTED_EDGE('',*,*,#190,.T.);
#296 = ORIENTED_EDGE('',*,*,#223,.T.);
#297 = ORIENTED_EDGE('',*,*,#254,.T.);
#298 = PLANE('',#299);
#299 = AXIS2_PLACEMENT_3D('',#300,#301,#302);
#300 = CARTESIAN_POINT('',(10.785764971799,1.574120018213,6.07914184565)
  );
#301 = DIRECTION('',(0.,-0.939692620786,0.342020143326));
#302 = DIRECTION('',(1.,0.,0.));
#303 = MANIFOLD_SOLID_BREP('',#304);
#304 = CLOSED_SHELL('',(#305,#345,#376,#407,#429,#441));
#305 = ADVANCED_FACE('',(#306),#340,.T.);
#306 = FACE_BOUND('',#307,.T.);
#307 = EDGE_LOOP('',(#308,#318,#326,#334));
#308 = ORIENTED_EDGE('',*,*,#309,.T.);
#309 = EDGE_CURVE('',#310,#312,#314,.T.);
#310 = VERTEX_POINT('',#311);
#311 = CARTESIAN_POINT('',(12.194564755839,1.621511905377,3.870306465368
    ));
#312 = VERTEX_POINT('',#313);
#313 = CARTESIAN_POINT('',(12.194564755839,0.869757808748,4.143922580028
    ));
#314 = LINE('',#315,#316);
#315 = CARTESIAN_POINT('',(12.194564755839,1.621511905377,3.870306465368
    ));
#316 = VECTOR('',#317,1.);
#317 = DIRECTION('',(0.,-0.939692620786,0.342020143326));
#318 = ORIENTED_EDGE('',*,*,#319,.T.);
#319 = EDGE_CURVE('',#312,#320,#322,.T.);
#320 = VERTEX_POINT('',#321);
#321 = CARTESIAN_POINT('',(13.11940552017,2.189621529574,7.770218349753)
  );
#322 = LINE('',#323,#324);
#323 = CARTESIAN_POINT('',(12.194564755839,0.869757808748,4.143922580028
    ));
#324 = VECTOR('',#325,1.);
#325 = DIRECTION('',(0.233057266823,0.332601938861,0.913816316689));
#326 = ORIENTED_EDGE('',*,*,#327,.F.);
#327 = EDGE_CURVE('',#328,#320,#330,.T.);
#328 = VERTEX_POINT('',#329);
#329 = CARTESIAN_POINT('',(13.11940552017,2.941375626202,7.496602235093)
  );
#330 = LINE('',#331,#332);
#331 = CARTESIAN_POINT('',(13.11940552017,2.941375626202,7.496602235093)
  );
#332 = VECTOR('',#333,1.);
#333 = DIRECTION('',(0.,-0.939692620786,0.342020143326));
#334 = ORIENTED_EDGE('',*,*,#335,.F.);
#335 = EDGE_CURVE('',#310,#328,#336,.T.);
#336 = LINE('',#337,#338);
#337 = CARTESIAN_POINT('',(12.194564755839,1.621511905377,3.870306465368
    ));
#338 = VECTOR('',#339,1.);
#339 = DIRECTION('',(0.233057266823,0.332601938861,0.913816316689));
#340 = PLANE('',#341);
#341 = AXIS2_PLACEMENT_3D('',#342,#343,#344);
#342 = CARTESIAN_POINT('',(12.194564755839,1.621511905377,3.870306465368
    ));
#343 = DIRECTION('',(-0.972463012346,7.971027980197E-02,0.219002193854)
  );
#344 = DIRECTION('',(0.233057266823,0.332601938861,0.913816316689));
#345 = ADVANCED_FACE('',(#346),#371,.T.);
#346 = FACE_BOUND('',#347,.T.);
#347 = EDGE_LOOP('',(#348,#349,#357,#365));
#348 = ORIENTED_EDGE('',*,*,#327,.T.);
#349 = ORIENTED_EDGE('',*,*,#350,.T.);
#350 = EDGE_CURVE('',#320,#351,#353,.T.);
#351 = VERTEX_POINT('',#352);
#352 = CARTESIAN_POINT('',(13.656985138004,2.189621529574,7.770218349753
    ));
#353 = LINE('',#354,#355);
#354 = CARTESIAN_POINT('',(13.11940552017,2.189621529574,7.770218349753)
  );
#355 = VECTOR('',#356,1.);
#356 = DIRECTION('',(1.,0.,0.));
#357 = ORIENTED_EDGE('',*,*,#358,.F.);
#358 = EDGE_CURVE('',#359,#351,#361,.T.);
#359 = VERTEX_POINT('',#360);
#360 = CARTESIAN_POINT('',(13.656985138004,2.941375626202,7.496602235093
    ));
#361 = LINE('',#362,#363);
#362 = CARTESIAN_POINT('',(13.656985138004,2.941375626202,7.496602235093
    ));
#363 = VECTOR('',#364,1.);
#364 = DIRECTION('',(0.,-0.939692620786,0.342020143326));
#365 = ORIENTED_EDGE('',*,*,#366,.F.);
#366 = EDGE_CURVE('',#328,#359,#367,.T.);
#367 = LINE('',#368,#369);
#368 = CARTESIAN_POINT('',(13.11940552017,2.941375626202,7.496602235093)
  );
#369 = VECTOR('',#370,1.);
#370 = DIRECTION('',(1.,0.,0.));
#371 = PLANE('',#372);
#372 = AXIS2_PLACEMENT_3D('',#373,#374,#375);
#373 = CARTESIAN_POINT('',(13.11940552017,2.941375626202,7.496602235093)
  );
#374 = DIRECTION('',(0.,0.342020143326,0.939692620786));
#375 = DIRECTION('',(1.,0.,0.));
#376 = ADVANCED_FACE('',(#377),#402,.T.);
#377 = FACE_BOUND('',#378,.T.);
#378 = EDGE_LOOP('',(#379,#380,#388,#396));
#379 = ORIENTED_EDGE('',*,*,#358,.T.);
#380 = ORIENTED_EDGE('',*,*,#381,.T.);
#381 = EDGE_CURVE('',#351,#382,#384,.T.);
#382 = VERTEX_POINT('',#383);
#383 = CARTESIAN_POINT('',(12.72195329087,0.869757808748,4.143922580028)
  );
#384 = LINE('',#385,#386);
#385 = CARTESIAN_POINT('',(13.656985138004,2.189621529574,7.770218349753
    ));
#386 = VECTOR('',#387,1.);
#387 = DIRECTION('',(-0.235483715343,-0.332401953666,-0.913266861879));
#388 = ORIENTED_EDGE('',*,*,#389,.F.);
#389 = EDGE_CURVE('',#390,#382,#392,.T.);
#390 = VERTEX_POINT('',#391);
#391 = CARTESIAN_POINT('',(12.72195329087,1.621511905377,3.870306465368)
  );
#392 = LINE('',#393,#394);
#393 = CARTESIAN_POINT('',(12.72195329087,1.621511905377,3.870306465368)
  );
#394 = VECTOR('',#395,1.);
#395 = DIRECTION('',(0.,-0.939692620786,0.342020143326));
#396 = ORIENTED_EDGE('',*,*,#397,.F.);
#397 = EDGE_CURVE('',#359,#390,#398,.T.);
#398 = LINE('',#399,#400);
#399 = CARTESIAN_POINT('',(13.656985138004,2.941375626202,7.496602235093
    ));
#400 = VECTOR('',#401,1.);
#401 = DIRECTION('',(-0.235483715343,-0.332401953666,-0.913266861879));
#402 = PLANE('',#403);
#403 = AXIS2_PLACEMENT_3D('',#404,#405,#406);
#404 = CARTESIAN_POINT('',(13.656985138004,2.941375626202,7.496602235093
    ));
#405 = DIRECTION('',(0.971878294751,-8.054017407264E-02,-0.221282309624)
  );
#406 = DIRECTION('',(-0.235483715343,-0.332401953666,-0.913266861879));
#407 = ADVANCED_FACE('',(#408),#424,.T.);
#408 = FACE_BOUND('',#409,.T.);
#409 = EDGE_LOOP('',(#410,#411,#417,#418));
#410 = ORIENTED_EDGE('',*,*,#389,.T.);
#411 = ORIENTED_EDGE('',*,*,#412,.T.);
#412 = EDGE_CURVE('',#382,#312,#413,.T.);
#413 = LINE('',#414,#415);
#414 = CARTESIAN_POINT('',(12.72195329087,0.869757808748,4.143922580028)
  );
#415 = VECTOR('',#416,1.);
#416 = DIRECTION('',(-1.,0.,0.));
#417 = ORIENTED_EDGE('',*,*,#309,.F.);
#418 = ORIENTED_EDGE('',*,*,#419,.F.);
#419 = EDGE_CURVE('',#390,#310,#420,.T.);
#420 = LINE('',#421,#422);
#421 = CARTESIAN_POINT('',(12.72195329087,1.621511905377,3.870306465368)
  );
#422 = VECTOR('',#423,1.);
#423 = DIRECTION('',(-1.,0.,0.));
#424 = PLANE('',#425);
#425 = AXIS2_PLACEMENT_3D('',#426,#427,#428);
#426 = CARTESIAN_POINT('',(12.72195329087,1.621511905377,3.870306465368)
  );
#427 = DIRECTION('',(0.,-0.342020143326,-0.939692620786));
#428 = DIRECTION('',(-1.,0.,0.));
#429 = ADVANCED_FACE('',(#430),#436,.F.);
#430 = FACE_BOUND('',#431,.T.);
#431 = EDGE_LOOP('',(#432,#433,#434,#435));
#432 = ORIENTED_EDGE('',*,*,#335,.T.);
#433 = ORIENTED_EDGE('',*,*,#366,.T.);
#434 = ORIENTED_EDGE('',*,*,#397,.T.);
#435 = ORIENTED_EDGE('',*,*,#419,.T.);
#436 = PLANE('',#437);
#437 = AXIS2_PLACEMENT_3D('',#438,#439,#440);
#438 = CARTESIAN_POINT('',(12.923824044644,2.28219070669,5.685506553486)
  );
#439 = DIRECTION('',(0.,-0.939692620786,0.342020143326));
#440 = DIRECTION('',(1.,0.,0.));
#441 = ADVANCED_FACE('',(#442),#448,.T.);
#442 = FACE_BOUND('',#443,.F.);
#443 = EDGE_LOOP('',(#444,#445,#446,#447));
#444 = ORIENTED_EDGE('',*,*,#319,.T.);
#445 = ORIENTED_EDGE('',*,*,#350,.T.);
#446 = ORIENTED_EDGE('',*,*,#381,.T.);
#447 = ORIENTED_EDGE('',*,*,#412,.T.);
#448 = PLANE('',#449);
#449 = AXIS2_PLACEMENT_3D('',#450,#451,#452);
#450 = CARTESIAN_POINT('',(12.923824044644,1.530436610061,5.959122668147
    ));
#451 = DIRECTION('',(0.,-0.939692620786,0.342020143326));
#452 = DIRECTION('',(1.,0.,0.));
#453 = MANIFOLD_SOLID_BREP('',#454);
#454 = CLOSED_SHELL('',(#455,#495,#526,#559,#592,#625,#658,#691,#724,
    #757,#790,#821,#854,#887,#920,#953,#986,#1019,#1052,#1085,#1118,
    #1140,#1169));
#455 = ADVANCED_FACE('',(#456),#490,.T.);
#456 = FACE_BOUND('',#457,.T.);
#457 = EDGE_LOOP('',(#458,#468,#476,#484));
#458 = ORIENTED_EDGE('',*,*,#459,.T.);
#459 = EDGE_CURVE('',#460,#462,#464,.T.);
#460 = VERTEX_POINT('',#461);
#461 = CARTESIAN_POINT('',(16.287473460722,1.870612945646,4.554705948668
    ));
#462 = VERTEX_POINT('',#463);
#463 = CARTESIAN_POINT('',(16.287473460722,1.118858849017,4.828322063328
    ));
#464 = LINE('',#465,#466);
#465 = CARTESIAN_POINT('',(16.287473460722,1.870612945646,4.554705948668
    ));
#466 = VECTOR('',#467,1.);
#467 = DIRECTION('',(0.,-0.939692620786,0.342020143326));
#468 = ORIENTED_EDGE('',*,*,#469,.T.);
#469 = EDGE_CURVE('',#462,#470,#472,.T.);
#470 = VERTEX_POINT('',#471);
#471 = CARTESIAN_POINT('',(16.287473460722,0.892065364593,4.205212085995
    ));
#472 = LINE('',#473,#474);
#473 = CARTESIAN_POINT('',(16.287473460722,1.118858849017,4.828322063328
    ));
#474 = VECTOR('',#475,1.);
#475 = DIRECTION('',(0.,-0.342020143326,-0.939692620786));
#476 = ORIENTED_EDGE('',*,*,#477,.F.);
#477 = EDGE_CURVE('',#478,#470,#480,.T.);
#478 = VERTEX_POINT('',#479);
#479 = CARTESIAN_POINT('',(16.287473460722,1.643819461222,3.931595971335
    ));
#480 = LINE('',#481,#482);
#481 = CARTESIAN_POINT('',(16.287473460722,1.643819461222,3.931595971335
    ));
#482 = VECTOR('',#483,1.);
#483 = DIRECTION('',(0.,-0.939692620786,0.342020143326));
#484 = ORIENTED_EDGE('',*,*,#485,.F.);
#485 = EDGE_CURVE('',#460,#478,#486,.T.);
#486 = LINE('',#487,#488);
#487 = CARTESIAN_POINT('',(16.287473460722,1.870612945646,4.554705948668
    ));
#488 = VECTOR('',#489,1.);
#489 = DIRECTION('',(0.,-0.342020143326,-0.939692620786));
#490 = PLANE('',#491);
#491 = AXIS2_PLACEMENT_3D('',#492,#493,#494);
#492 = CARTESIAN_POINT('',(16.287473460722,1.870612945646,4.554705948668
    ));
#493 = DIRECTION('',(1.,0.,0.));
#494 = DIRECTION('',(0.,-0.342020143326,-0.939692620786));
#495 = ADVANCED_FACE('',(#496),#521,.T.);
#496 = FACE_BOUND('',#497,.T.);
#497 = EDGE_LOOP('',(#498,#499,#507,#515));
#498 = ORIENTED_EDGE('',*,*,#477,.T.);
#499 = ORIENTED_EDGE('',*,*,#500,.T.);
#500 = EDGE_CURVE('',#470,#501,#503,.T.);
#501 = VERTEX_POINT('',#502);
#502 = CARTESIAN_POINT('',(13.777919320594,0.892065364593,4.205212085995
    ));
#503 = LINE('',#504,#505);
#504 = CARTESIAN_POINT('',(16.287473460722,0.892065364593,4.205212085995
    ));
#505 = VECTOR('',#506,1.);
#506 = DIRECTION('',(-1.,0.,0.));
#507 = ORIENTED_EDGE('',*,*,#508,.F.);
#508 = EDGE_CURVE('',#509,#501,#511,.T.);
#509 = VERTEX_POINT('',#510);
#510 = CARTESIAN_POINT('',(13.777919320594,1.643819461222,3.931595971335
    ));
#511 = LINE('',#512,#513);
#512 = CARTESIAN_POINT('',(13.777919320594,1.643819461222,3.931595971335
    ));
#513 = VECTOR('',#514,1.);
#514 = DIRECTION('',(0.,-0.939692620786,0.342020143326));
#515 = ORIENTED_EDGE('',*,*,#516,.F.);
#516 = EDGE_CURVE('',#478,#509,#517,.T.);
#517 = LINE('',#518,#519);
#518 = CARTESIAN_POINT('',(16.287473460722,1.643819461222,3.931595971335
    ));
#519 = VECTOR('',#520,1.);
#520 = DIRECTION('',(-1.,0.,0.));
#521 = PLANE('',#522);
#522 = AXIS2_PLACEMENT_3D('',#523,#524,#525);
#523 = CARTESIAN_POINT('',(16.287473460722,1.643819461222,3.931595971335
    ));
#524 = DIRECTION('',(0.,-0.342020143326,-0.939692620786));
#525 = DIRECTION('',(-1.,0.,0.));
#526 = ADVANCED_FACE('',(#527),#552,.T.);
#527 = FACE_BOUND('',#528,.T.);
#528 = EDGE_LOOP('',(#529,#530,#538,#546));
#529 = ORIENTED_EDGE('',*,*,#508,.T.);
#530 = ORIENTED_EDGE('',*,*,#531,.T.);
#531 = EDGE_CURVE('',#501,#532,#534,.T.);
#532 = VERTEX_POINT('',#533);
#533 = CARTESIAN_POINT('',(14.022505307856,1.136983738141,4.878119786927
    ));
#534 = B_SPLINE_CURVE_WITH_KNOTS('',2,(#535,#536,#537),.UNSPECIFIED.,.F.
  ,.F.,(3,3),(0.,1.),.PIECEWISE_BEZIER_KNOTS.);
#535 = CARTESIAN_POINT('',(13.777919320594,0.892065364593,4.205212085995
    ));
#536 = CARTESIAN_POINT('',(13.818683651805,1.021321384789,4.56034008281)
  );
#537 = CARTESIAN_POINT('',(14.022505307856,1.136983738141,4.878119786927
    ));
#538 = ORIENTED_EDGE('',*,*,#539,.F.);
#539 = EDGE_CURVE('',#540,#532,#542,.T.);
#540 = VERTEX_POINT('',#541);
#541 = CARTESIAN_POINT('',(14.022505307856,1.88873783477,4.604503672266)
  );
#542 = LINE('',#543,#544);
#543 = CARTESIAN_POINT('',(14.022505307856,1.88873783477,4.604503672266)
  );
#544 = VECTOR('',#545,1.);
#545 = DIRECTION('',(0.,-0.939692620786,0.342020143326));
#546 = ORIENTED_EDGE('',*,*,#547,.F.);
#547 = EDGE_CURVE('',#509,#540,#548,.T.);
#548 = B_SPLINE_CURVE_WITH_KNOTS('',2,(#549,#550,#551),.UNSPECIFIED.,.F.
  ,.F.,(3,3),(0.,1.),.PIECEWISE_BEZIER_KNOTS.);
#549 = CARTESIAN_POINT('',(13.777919320594,1.643819461222,3.931595971335
    ));
#550 = CARTESIAN_POINT('',(13.818683651805,1.773075481417,4.28672396815)
  );
#551 = CARTESIAN_POINT('',(14.022505307856,1.88873783477,4.604503672266)
  );
#552 = SURFACE_OF_LINEAR_EXTRUSION('',#553,#557);
#553 = B_SPLINE_CURVE_WITH_KNOTS('',2,(#554,#555,#556),.UNSPECIFIED.,.F.
  ,.F.,(3,3),(0.,1.),.PIECEWISE_BEZIER_KNOTS.);
#554 = CARTESIAN_POINT('',(13.777919320594,1.643819461222,3.931595971335
    ));
#555 = CARTESIAN_POINT('',(13.818683651805,1.773075481417,4.28672396815)
  );
#556 = CARTESIAN_POINT('',(14.022505307856,1.88873783477,4.604503672266)
  );
#557 = VECTOR('',#558,1.);
#558 = DIRECTION('',(-0.,0.939692620786,-0.342020143326));
#559 = ADVANCED_FACE('',(#560),#585,.T.);
#560 = FACE_BOUND('',#561,.T.);
#561 = EDGE_LOOP('',(#562,#563,#571,#579));
#562 = ORIENTED_EDGE('',*,*,#539,.T.);
#563 = ORIENTED_EDGE('',*,*,#564,.T.);
#564 = EDGE_CURVE('',#532,#565,#567,.T.);
#565 = VERTEX_POINT('',#566);
#566 = CARTESIAN_POINT('',(14.827600849257,1.443945001382,5.721488926329
    ));
#567 = B_SPLINE_CURVE_WITH_KNOTS('',2,(#568,#569,#570),.UNSPECIFIED.,.F.
  ,.F.,(3,3),(0.,1.),.PIECEWISE_BEZIER_KNOTS.);
#568 = CARTESIAN_POINT('',(14.022505307856,1.136983738141,4.878119786927
    ));
#569 = CARTESIAN_POINT('',(14.226326963907,1.252704184086,5.196059099132
    ));
#570 = CARTESIAN_POINT('',(14.827600849257,1.443945001382,5.721488926329
    ));
#571 = ORIENTED_EDGE('',*,*,#572,.F.);
#572 = EDGE_CURVE('',#573,#565,#575,.T.);
#573 = VERTEX_POINT('',#574);
#574 = CARTESIAN_POINT('',(14.827600849257,2.195699098011,5.447872811669
    ));
#575 = LINE('',#576,#577);
#576 = CARTESIAN_POINT('',(14.827600849257,2.195699098011,5.447872811669
    ));
#577 = VECTOR('',#578,1.);
#578 = DIRECTION('',(0.,-0.939692620786,0.342020143326));
#579 = ORIENTED_EDGE('',*,*,#580,.F.);
#580 = EDGE_CURVE('',#540,#573,#581,.T.);
#581 = B_SPLINE_CURVE_WITH_KNOTS('',2,(#582,#583,#584),.UNSPECIFIED.,.F.
  ,.F.,(3,3),(0.,1.),.PIECEWISE_BEZIER_KNOTS.);
#582 = CARTESIAN_POINT('',(14.022505307856,1.88873783477,4.604503672266)
  );
#583 = CARTESIAN_POINT('',(14.226326963907,2.004458280715,4.922442984471
    ));
#584 = CARTESIAN_POINT('',(14.827600849257,2.195699098011,5.447872811669
    ));
#585 = SURFACE_OF_LINEAR_EXTRUSION('',#586,#590);
#586 = B_SPLINE_CURVE_WITH_KNOTS('',2,(#587,#588,#589),.UNSPECIFIED.,.F.
  ,.F.,(3,3),(0.,1.),.PIECEWISE_BEZIER_KNOTS.);
#587 = CARTESIAN_POINT('',(14.022505307856,1.88873783477,4.604503672266)
  );
#588 = CARTESIAN_POINT('',(14.226326963907,2.004458280715,4.922442984471
    ));
#589 = CARTESIAN_POINT('',(14.827600849257,2.195699098011,5.447872811669
    ));
#590 = VECTOR('',#591,1.);
#591 = DIRECTION('',(-0.,0.939692620786,-0.342020143326));
#592 = ADVANCED_FACE('',(#593),#618,.T.);
#593 = FACE_BOUND('',#594,.T.);
#594 = EDGE_LOOP('',(#595,#596,#604,#612));
#595 = ORIENTED_EDGE('',*,*,#572,.T.);
#596 = ORIENTED_EDGE('',*,*,#597,.T.);
#597 = EDGE_CURVE('',#565,#598,#600,.T.);
#598 = VERTEX_POINT('',#599);
#599 = CARTESIAN_POINT('',(15.421231422505,1.653484985582,6.297195301391
    ));
#600 = B_SPLINE_CURVE_WITH_KNOTS('',2,(#601,#602,#603),.UNSPECIFIED.,.F.
  ,.F.,(3,3),(0.,1.),.PIECEWISE_BEZIER_KNOTS.);
#601 = CARTESIAN_POINT('',(14.827600849257,1.443945001382,5.721488926329
    ));
#602 = CARTESIAN_POINT('',(15.311677282378,1.598471299683,6.146046441623
    ));
#603 = CARTESIAN_POINT('',(15.421231422505,1.653484985582,6.297195301391
    ));
#604 = ORIENTED_EDGE('',*,*,#605,.F.);
#605 = EDGE_CURVE('',#606,#598,#608,.T.);
#606 = VERTEX_POINT('',#607);
#607 = CARTESIAN_POINT('',(15.421231422505,2.40523908221,6.02357918673)
  );
#608 = LINE('',#609,#610);
#609 = CARTESIAN_POINT('',(15.421231422505,2.40523908221,6.02357918673)
  );
#610 = VECTOR('',#611,1.);
#611 = DIRECTION('',(0.,-0.939692620786,0.342020143326));
#612 = ORIENTED_EDGE('',*,*,#613,.F.);
#613 = EDGE_CURVE('',#573,#606,#614,.T.);
#614 = B_SPLINE_CURVE_WITH_KNOTS('',2,(#615,#616,#617),.UNSPECIFIED.,.F.
  ,.F.,(3,3),(0.,1.),.PIECEWISE_BEZIER_KNOTS.);
#615 = CARTESIAN_POINT('',(14.827600849257,2.195699098011,5.447872811669
    ));
#616 = CARTESIAN_POINT('',(15.311677282378,2.350225396312,5.872430326962
    ));
#617 = CARTESIAN_POINT('',(15.421231422505,2.40523908221,6.02357918673)
  );
#618 = SURFACE_OF_LINEAR_EXTRUSION('',#619,#623);
#619 = B_SPLINE_CURVE_WITH_KNOTS('',2,(#620,#621,#622),.UNSPECIFIED.,.F.
  ,.F.,(3,3),(0.,1.),.PIECEWISE_BEZIER_KNOTS.);
#620 = CARTESIAN_POINT('',(14.827600849257,2.195699098011,5.447872811669
    ));
#621 = CARTESIAN_POINT('',(15.311677282378,2.350225396312,5.872430326962
    ));
#622 = CARTESIAN_POINT('',(15.421231422505,2.40523908221,6.02357918673)
  );
#623 = VECTOR('',#624,1.);
#624 = DIRECTION('',(-0.,0.939692620786,-0.342020143326));
#625 = ADVANCED_FACE('',(#626),#651,.T.);
#626 = FACE_BOUND('',#627,.T.);
#627 = EDGE_LOOP('',(#628,#629,#637,#645));
#628 = ORIENTED_EDGE('',*,*,#605,.T.);
#629 = ORIENTED_EDGE('',*,*,#630,.T.);
#630 = EDGE_CURVE('',#598,#631,#633,.T.);
#631 = VERTEX_POINT('',#632);
#632 = CARTESIAN_POINT('',(15.569002123142,1.803712431975,6.709941818139
    ));
#633 = B_SPLINE_CURVE_WITH_KNOTS('',2,(#634,#635,#636),.UNSPECIFIED.,.F.
  ,.F.,(3,3),(0.,1.),.PIECEWISE_BEZIER_KNOTS.);
#634 = CARTESIAN_POINT('',(15.421231422505,1.653484985582,6.297195301391
    ));
#635 = CARTESIAN_POINT('',(15.569002123142,1.729470097679,6.505962681092
    ));
#636 = CARTESIAN_POINT('',(15.569002123142,1.803712431975,6.709941818139
    ));
#637 = ORIENTED_EDGE('',*,*,#638,.F.);
#638 = EDGE_CURVE('',#639,#631,#641,.T.);
#639 = VERTEX_POINT('',#640);
#640 = CARTESIAN_POINT('',(15.569002123142,2.555466528604,6.436325703478
    ));
#641 = LINE('',#642,#643);
#642 = CARTESIAN_POINT('',(15.569002123142,2.555466528604,6.436325703478
    ));
#643 = VECTOR('',#644,1.);
#644 = DIRECTION('',(0.,-0.939692620786,0.342020143326));
#645 = ORIENTED_EDGE('',*,*,#646,.F.);
#646 = EDGE_CURVE('',#606,#639,#647,.T.);
#647 = B_SPLINE_CURVE_WITH_KNOTS('',2,(#648,#649,#650),.UNSPECIFIED.,.F.
  ,.F.,(3,3),(0.,1.),.PIECEWISE_BEZIER_KNOTS.);
#648 = CARTESIAN_POINT('',(15.421231422505,2.40523908221,6.02357918673)
  );
#649 = CARTESIAN_POINT('',(15.569002123142,2.481224194307,6.232346566431
    ));
#650 = CARTESIAN_POINT('',(15.569002123142,2.555466528604,6.436325703478
    ));
#651 = SURFACE_OF_LINEAR_EXTRUSION('',#652,#656);
#652 = B_SPLINE_CURVE_WITH_KNOTS('',2,(#653,#654,#655),.UNSPECIFIED.,.F.
  ,.F.,(3,3),(0.,1.),.PIECEWISE_BEZIER_KNOTS.);
#653 = CARTESIAN_POINT('',(15.421231422505,2.40523908221,6.02357918673)
  );
#654 = CARTESIAN_POINT('',(15.569002123142,2.481224194307,6.232346566431
    ));
#655 = CARTESIAN_POINT('',(15.569002123142,2.555466528604,6.436325703478
    ));
#656 = VECTOR('',#657,1.);
#657 = DIRECTION('',(-0.,0.939692620786,-0.342020143326));
#658 = ADVANCED_FACE('',(#659),#684,.T.);
#659 = FACE_BOUND('',#660,.T.);
#660 = EDGE_LOOP('',(#661,#662,#670,#678));
#661 = ORIENTED_EDGE('',*,*,#638,.T.);
#662 = ORIENTED_EDGE('',*,*,#663,.T.);
#663 = EDGE_CURVE('',#631,#664,#666,.T.);
#664 = VERTEX_POINT('',#665);
#665 = CARTESIAN_POINT('',(15.44025477707,1.929889544723,7.056610586266)
  );
#666 = B_SPLINE_CURVE_WITH_KNOTS('',2,(#667,#668,#669),.UNSPECIFIED.,.F.
  ,.F.,(3,3),(0.,1.),.PIECEWISE_BEZIER_KNOTS.);
#667 = CARTESIAN_POINT('',(15.569002123142,1.803712431975,6.709941818139
    ));
#668 = CARTESIAN_POINT('',(15.569002123142,1.885797266373,6.935468047127
    ));
#669 = CARTESIAN_POINT('',(15.44025477707,1.929889544723,7.056610586266)
  );
#670 = ORIENTED_EDGE('',*,*,#671,.F.);
#671 = EDGE_CURVE('',#672,#664,#674,.T.);
#672 = VERTEX_POINT('',#673);
#673 = CARTESIAN_POINT('',(15.44025477707,2.681643641352,6.782994471605)
  );
#674 = LINE('',#675,#676);
#675 = CARTESIAN_POINT('',(15.44025477707,2.681643641352,6.782994471605)
  );
#676 = VECTOR('',#677,1.);
#677 = DIRECTION('',(0.,-0.939692620786,0.342020143326));
#678 = ORIENTED_EDGE('',*,*,#679,.F.);
#679 = EDGE_CURVE('',#639,#672,#680,.T.);
#680 = B_SPLINE_CURVE_WITH_KNOTS('',2,(#681,#682,#683),.UNSPECIFIED.,.F.
  ,.F.,(3,3),(0.,1.),.PIECEWISE_BEZIER_KNOTS.);
#681 = CARTESIAN_POINT('',(15.569002123142,2.555466528604,6.436325703478
    ));
#682 = CARTESIAN_POINT('',(15.569002123142,2.637551363002,6.661851932467
    ));
#683 = CARTESIAN_POINT('',(15.44025477707,2.681643641352,6.782994471605)
  );
#684 = SURFACE_OF_LINEAR_EXTRUSION('',#685,#689);
#685 = B_SPLINE_CURVE_WITH_KNOTS('',2,(#686,#687,#688),.UNSPECIFIED.,.F.
  ,.F.,(3,3),(0.,1.),.PIECEWISE_BEZIER_KNOTS.);
#686 = CARTESIAN_POINT('',(15.569002123142,2.555466528604,6.436325703478
    ));
#687 = CARTESIAN_POINT('',(15.569002123142,2.637551363002,6.661851932467
    ));
#688 = CARTESIAN_POINT('',(15.44025477707,2.681643641352,6.782994471605)
  );
#689 = VECTOR('',#690,1.);
#690 = DIRECTION('',(-0.,0.939692620786,-0.342020143326));
#691 = ADVANCED_FACE('',(#692),#717,.T.);
#692 = FACE_BOUND('',#693,.T.);
#693 = EDGE_LOOP('',(#694,#695,#703,#711));
#694 = ORIENTED_EDGE('',*,*,#671,.T.);
#695 = ORIENTED_EDGE('',*,*,#696,.T.);
#696 = EDGE_CURVE('',#664,#697,#699,.T.);
#697 = VERTEX_POINT('',#698);
#698 = CARTESIAN_POINT('',(15.084925690021,1.973981823073,7.177753125404
    ));
#699 = B_SPLINE_CURVE_WITH_KNOTS('',2,(#700,#701,#702),.UNSPECIFIED.,.F.
  ,.F.,(3,3),(0.,1.),.PIECEWISE_BEZIER_KNOTS.);
#700 = CARTESIAN_POINT('',(15.44025477707,1.929889544723,7.056610586266)
  );
#701 = CARTESIAN_POINT('',(15.311677282378,1.973981823073,7.177753125404
    ));
#702 = CARTESIAN_POINT('',(15.084925690021,1.973981823073,7.177753125404
    ));
#703 = ORIENTED_EDGE('',*,*,#704,.F.);
#704 = EDGE_CURVE('',#705,#697,#707,.T.);
#705 = VERTEX_POINT('',#706);
#706 = CARTESIAN_POINT('',(15.084925690021,2.725735919701,6.904137010743
    ));
#707 = LINE('',#708,#709);
#708 = CARTESIAN_POINT('',(15.084925690021,2.725735919701,6.904137010743
    ));
#709 = VECTOR('',#710,1.);
#710 = DIRECTION('',(0.,-0.939692620786,0.342020143326));
#711 = ORIENTED_EDGE('',*,*,#712,.F.);
#712 = EDGE_CURVE('',#672,#705,#713,.T.);
#713 = B_SPLINE_CURVE_WITH_KNOTS('',2,(#714,#715,#716),.UNSPECIFIED.,.F.
  ,.F.,(3,3),(0.,1.),.PIECEWISE_BEZIER_KNOTS.);
#714 = CARTESIAN_POINT('',(15.44025477707,2.681643641352,6.782994471605)
  );
#715 = CARTESIAN_POINT('',(15.311677282378,2.725735919701,6.904137010743
    ));
#716 = CARTESIAN_POINT('',(15.084925690021,2.725735919701,6.904137010743
    ));
#717 = SURFACE_OF_LINEAR_EXTRUSION('',#718,#722);
#718 = B_SPLINE_CURVE_WITH_KNOTS('',2,(#719,#720,#721),.UNSPECIFIED.,.F.
  ,.F.,(3,3),(0.,1.),.PIECEWISE_BEZIER_KNOTS.);
#719 = CARTESIAN_POINT('',(15.44025477707,2.681643641352,6.782994471605)
  );
#720 = CARTESIAN_POINT('',(15.311677282378,2.725735919701,6.904137010743
    ));
#721 = CARTESIAN_POINT('',(15.084925690021,2.725735919701,6.904137010743
    ));
#722 = VECTOR('',#723,1.);
#723 = DIRECTION('',(-0.,0.939692620786,-0.342020143326));
#724 = ADVANCED_FACE('',(#725),#750,.T.);
#725 = FACE_BOUND('',#726,.T.);
#726 = EDGE_LOOP('',(#727,#728,#736,#744));
#727 = ORIENTED_EDGE('',*,*,#704,.T.);
#728 = ORIENTED_EDGE('',*,*,#729,.T.);
#729 = EDGE_CURVE('',#697,#730,#732,.T.);
#730 = VERTEX_POINT('',#731);
#731 = CARTESIAN_POINT('',(14.728237791932,1.927507748396,7.050066654639
    ));
#732 = B_SPLINE_CURVE_WITH_KNOTS('',2,(#733,#734,#735),.UNSPECIFIED.,.F.
  ,.F.,(3,3),(0.,1.),.PIECEWISE_BEZIER_KNOTS.);
#733 = CARTESIAN_POINT('',(15.084925690021,1.973981823073,7.177753125404
    ));
#734 = CARTESIAN_POINT('',(14.860721868365,1.973981823073,7.177753125404
    ));
#735 = CARTESIAN_POINT('',(14.728237791932,1.927507748396,7.050066654639
    ));
#736 = ORIENTED_EDGE('',*,*,#737,.F.);
#737 = EDGE_CURVE('',#738,#730,#740,.T.);
#738 = VERTEX_POINT('',#739);
#739 = CARTESIAN_POINT('',(14.728237791932,2.679261845024,6.776450539978
    ));
#740 = LINE('',#741,#742);
#741 = CARTESIAN_POINT('',(14.728237791932,2.679261845024,6.776450539978
    ));
#742 = VECTOR('',#743,1.);
#743 = DIRECTION('',(0.,-0.939692620786,0.342020143326));
#744 = ORIENTED_EDGE('',*,*,#745,.F.);
#745 = EDGE_CURVE('',#705,#738,#746,.T.);
#746 = B_SPLINE_CURVE_WITH_KNOTS('',2,(#747,#748,#749),.UNSPECIFIED.,.F.
  ,.F.,(3,3),(0.,1.),.PIECEWISE_BEZIER_KNOTS.);
#747 = CARTESIAN_POINT('',(15.084925690021,2.725735919701,6.904137010743
    ));
#748 = CARTESIAN_POINT('',(14.860721868365,2.725735919701,6.904137010743
    ));
#749 = CARTESIAN_POINT('',(14.728237791932,2.679261845024,6.776450539978
    ));
#750 = SURFACE_OF_LINEAR_EXTRUSION('',#751,#755);
#751 = B_SPLINE_CURVE_WITH_KNOTS('',2,(#752,#753,#754),.UNSPECIFIED.,.F.
  ,.F.,(3,3),(0.,1.),.PIECEWISE_BEZIER_KNOTS.);
#752 = CARTESIAN_POINT('',(15.084925690021,2.725735919701,6.904137010743
    ));
#753 = CARTESIAN_POINT('',(14.860721868365,2.725735919701,6.904137010743
    ));
#754 = CARTESIAN_POINT('',(14.728237791932,2.679261845024,6.776450539978
    ));
#755 = VECTOR('',#756,1.);
#756 = DIRECTION('',(-0.,0.939692620786,-0.342020143326));
#757 = ADVANCED_FACE('',(#758),#783,.T.);
#758 = FACE_BOUND('',#759,.T.);
#759 = EDGE_LOOP('',(#760,#761,#769,#777));
#760 = ORIENTED_EDGE('',*,*,#737,.T.);
#761 = ORIENTED_EDGE('',*,*,#762,.T.);
#762 = EDGE_CURVE('',#730,#763,#765,.T.);
#763 = VERTEX_POINT('',#764);
#764 = CARTESIAN_POINT('',(14.575371549894,1.773213820468,6.626147571699
    ));
#765 = B_SPLINE_CURVE_WITH_KNOTS('',2,(#766,#767,#768),.UNSPECIFIED.,.F.
  ,.F.,(3,3),(0.,1.),.PIECEWISE_BEZIER_KNOTS.);
#766 = CARTESIAN_POINT('',(14.728237791932,1.927507748396,7.050066654639
    ));
#767 = CARTESIAN_POINT('',(14.595753715499,1.881033673719,6.922380183874
    ));
#768 = CARTESIAN_POINT('',(14.575371549894,1.773213820468,6.626147571699
    ));
#769 = ORIENTED_EDGE('',*,*,#770,.F.);
#770 = EDGE_CURVE('',#771,#763,#773,.T.);
#771 = VERTEX_POINT('',#772);
#772 = CARTESIAN_POINT('',(14.575371549894,2.524967917097,6.352531457039
    ));
#773 = LINE('',#774,#775);
#774 = CARTESIAN_POINT('',(14.575371549894,2.524967917097,6.352531457039
    ));
#775 = VECTOR('',#776,1.);
#776 = DIRECTION('',(0.,-0.939692620786,0.342020143326));
#777 = ORIENTED_EDGE('',*,*,#778,.F.);
#778 = EDGE_CURVE('',#738,#771,#779,.T.);
#779 = B_SPLINE_CURVE_WITH_KNOTS('',2,(#780,#781,#782),.UNSPECIFIED.,.F.
  ,.F.,(3,3),(0.,1.),.PIECEWISE_BEZIER_KNOTS.);
#780 = CARTESIAN_POINT('',(14.728237791932,2.679261845024,6.776450539978
    ));
#781 = CARTESIAN_POINT('',(14.595753715499,2.632787770347,6.648764069213
    ));
#782 = CARTESIAN_POINT('',(14.575371549894,2.524967917097,6.352531457039
    ));
#783 = SURFACE_OF_LINEAR_EXTRUSION('',#784,#788);
#784 = B_SPLINE_CURVE_WITH_KNOTS('',2,(#785,#786,#787),.UNSPECIFIED.,.F.
  ,.F.,(3,3),(0.,1.),.PIECEWISE_BEZIER_KNOTS.);
#785 = CARTESIAN_POINT('',(14.728237791932,2.679261845024,6.776450539978
    ));
#786 = CARTESIAN_POINT('',(14.595753715499,2.632787770347,6.648764069213
    ));
#787 = CARTESIAN_POINT('',(14.575371549894,2.524967917097,6.352531457039
    ));
#788 = VECTOR('',#789,1.);
#789 = DIRECTION('',(-0.,0.939692620786,-0.342020143326));
#790 = ADVANCED_FACE('',(#791),#816,.T.);
#791 = FACE_BOUND('',#792,.T.);
#792 = EDGE_LOOP('',(#793,#794,#802,#810));
#793 = ORIENTED_EDGE('',*,*,#770,.T.);
#794 = ORIENTED_EDGE('',*,*,#795,.T.);
#795 = EDGE_CURVE('',#763,#796,#798,.T.);
#796 = VERTEX_POINT('',#797);
#797 = CARTESIAN_POINT('',(13.861995753715,1.797786987454,6.693661793116
    ));
#798 = LINE('',#799,#800);
#799 = CARTESIAN_POINT('',(14.575371549894,1.773213820468,6.626147571699
    ));
#800 = VECTOR('',#801,1.);
#801 = DIRECTION('',(-0.994966576024,3.427293152997E-02,
    9.416410547709E-02));
#802 = ORIENTED_EDGE('',*,*,#803,.F.);
#803 = EDGE_CURVE('',#804,#796,#806,.T.);
#804 = VERTEX_POINT('',#805);
#805 = CARTESIAN_POINT('',(13.861995753715,2.549541084082,6.420045678456
    ));
#806 = LINE('',#807,#808);
#807 = CARTESIAN_POINT('',(13.861995753715,2.549541084082,6.420045678456
    ));
#808 = VECTOR('',#809,1.);
#809 = DIRECTION('',(0.,-0.939692620786,0.342020143326));
#810 = ORIENTED_EDGE('',*,*,#811,.F.);
#811 = EDGE_CURVE('',#771,#804,#812,.T.);
#812 = LINE('',#813,#814);
#813 = CARTESIAN_POINT('',(14.575371549894,2.524967917097,6.352531457039
    ));
#814 = VECTOR('',#815,1.);
#815 = DIRECTION('',(-0.994966576024,3.427293152997E-02,
    9.416410547709E-02));
#816 = PLANE('',#817);
#817 = AXIS2_PLACEMENT_3D('',#818,#819,#820);
#818 = CARTESIAN_POINT('',(14.575371549894,2.524967917097,6.352531457039
    ));
#819 = DIRECTION('',(-0.100207348014,-0.340298610936,-0.934962749418));
#820 = DIRECTION('',(-0.994966576024,3.427293152997E-02,
    9.416410547709E-02));
#821 = ADVANCED_FACE('',(#822),#847,.T.);
#822 = FACE_BOUND('',#823,.T.);
#823 = EDGE_LOOP('',(#824,#825,#833,#841));
#824 = ORIENTED_EDGE('',*,*,#803,.T.);
#825 = ORIENTED_EDGE('',*,*,#826,.T.);
#826 = EDGE_CURVE('',#796,#827,#829,.T.);
#827 = VERTEX_POINT('',#828);
#828 = CARTESIAN_POINT('',(14.261995753715,2.089876546798,7.496171261874
    ));
#829 = B_SPLINE_CURVE_WITH_KNOTS('',2,(#830,#831,#832),.UNSPECIFIED.,.F.
  ,.F.,(3,3),(0.,1.),.PIECEWISE_BEZIER_KNOTS.);
#830 = CARTESIAN_POINT('',(13.861995753715,1.797786987454,6.693661793116
    ));
#831 = CARTESIAN_POINT('',(13.925690021231,2.001285341945,7.252768926978
    ));
#832 = CARTESIAN_POINT('',(14.261995753715,2.089876546798,7.496171261874
    ));
#833 = ORIENTED_EDGE('',*,*,#834,.F.);
#834 = EDGE_CURVE('',#835,#827,#837,.T.);
#835 = VERTEX_POINT('',#836);
#836 = CARTESIAN_POINT('',(14.261995753715,2.841630643427,7.222555147213
    ));
#837 = LINE('',#838,#839);
#838 = CARTESIAN_POINT('',(14.261995753715,2.841630643427,7.222555147213
    ));
#839 = VECTOR('',#840,1.);
#840 = DIRECTION('',(0.,-0.939692620786,0.342020143326));
#841 = ORIENTED_EDGE('',*,*,#842,.F.);
#842 = EDGE_CURVE('',#804,#835,#843,.T.);
#843 = B_SPLINE_CURVE_WITH_KNOTS('',2,(#844,#845,#846),.UNSPECIFIED.,.F.
  ,.F.,(3,3),(0.,1.),.PIECEWISE_BEZIER_KNOTS.);
#844 = CARTESIAN_POINT('',(13.861995753715,2.549541084082,6.420045678456
    ));
#845 = CARTESIAN_POINT('',(13.925690021231,2.753039438574,6.979152812318
    ));
#846 = CARTESIAN_POINT('',(14.261995753715,2.841630643427,7.222555147213
    ));
#847 = SURFACE_OF_LINEAR_EXTRUSION('',#848,#852);
#848 = B_SPLINE_CURVE_WITH_KNOTS('',2,(#849,#850,#851),.UNSPECIFIED.,.F.
  ,.F.,(3,3),(0.,1.),.PIECEWISE_BEZIER_KNOTS.);
#849 = CARTESIAN_POINT('',(13.861995753715,2.549541084082,6.420045678456
    ));
#850 = CARTESIAN_POINT('',(13.925690021231,2.753039438574,6.979152812318
    ));
#851 = CARTESIAN_POINT('',(14.261995753715,2.841630643427,7.222555147213
    ));
#852 = VECTOR('',#853,1.);
#853 = DIRECTION('',(-0.,0.939692620786,-0.342020143326));
#854 = ADVANCED_FACE('',(#855),#880,.T.);
#855 = FACE_BOUND('',#856,.T.);
#856 = EDGE_LOOP('',(#857,#858,#866,#874));
#857 = ORIENTED_EDGE('',*,*,#834,.T.);
#858 = ORIENTED_EDGE('',*,*,#859,.T.);
#859 = EDGE_CURVE('',#827,#860,#862,.T.);
#860 = VERTEX_POINT('',#861);
#861 = CARTESIAN_POINT('',(15.102760084926,2.178467751651,7.73957359677)
  );
#862 = B_SPLINE_CURVE_WITH_KNOTS('',2,(#863,#864,#865),.UNSPECIFIED.,.F.
  ,.F.,(3,3),(0.,1.),.PIECEWISE_BEZIER_KNOTS.);
#863 = CARTESIAN_POINT('',(14.261995753715,2.089876546798,7.496171261874
    ));
#864 = CARTESIAN_POINT('',(14.5983014862,2.178467751651,7.73957359677));
#865 = CARTESIAN_POINT('',(15.102760084926,2.178467751651,7.73957359677)
  );
#866 = ORIENTED_EDGE('',*,*,#867,.F.);
#867 = EDGE_CURVE('',#868,#860,#870,.T.);
#868 = VERTEX_POINT('',#869);
#869 = CARTESIAN_POINT('',(15.102760084926,2.93022184828,7.465957482109)
  );
#870 = LINE('',#871,#872);
#871 = CARTESIAN_POINT('',(15.102760084926,2.93022184828,7.465957482109)
  );
#872 = VECTOR('',#873,1.);
#873 = DIRECTION('',(0.,-0.939692620786,0.342020143326));
#874 = ORIENTED_EDGE('',*,*,#875,.F.);
#875 = EDGE_CURVE('',#835,#868,#876,.T.);
#876 = B_SPLINE_CURVE_WITH_KNOTS('',2,(#877,#878,#879),.UNSPECIFIED.,.F.
  ,.F.,(3,3),(0.,1.),.PIECEWISE_BEZIER_KNOTS.);
#877 = CARTESIAN_POINT('',(14.261995753715,2.841630643427,7.222555147213
    ));
#878 = CARTESIAN_POINT('',(14.5983014862,2.93022184828,7.465957482109));
#879 = CARTESIAN_POINT('',(15.102760084926,2.93022184828,7.465957482109)
  );
#880 = SURFACE_OF_LINEAR_EXTRUSION('',#881,#885);
#881 = B_SPLINE_CURVE_WITH_KNOTS('',2,(#882,#883,#884),.UNSPECIFIED.,.F.
  ,.F.,(3,3),(0.,1.),.PIECEWISE_BEZIER_KNOTS.);
#882 = CARTESIAN_POINT('',(14.261995753715,2.841630643427,7.222555147213
    ));
#883 = CARTESIAN_POINT('',(14.5983014862,2.93022184828,7.465957482109));
#884 = CARTESIAN_POINT('',(15.102760084926,2.93022184828,7.465957482109)
  );
#885 = VECTOR('',#886,1.);
#886 = DIRECTION('',(-0.,0.939692620786,-0.342020143326));
#887 = ADVANCED_FACE('',(#888),#913,.T.);
#888 = FACE_BOUND('',#889,.T.);
#889 = EDGE_LOOP('',(#890,#891,#899,#907));
#890 = ORIENTED_EDGE('',*,*,#867,.T.);
#891 = ORIENTED_EDGE('',*,*,#892,.T.);
#892 = EDGE_CURVE('',#860,#893,#895,.T.);
#893 = VERTEX_POINT('',#894);
#894 = CARTESIAN_POINT('',(15.971549893843,2.076108602175,7.45834414491)
  );
#895 = B_SPLINE_CURVE_WITH_KNOTS('',2,(#896,#897,#898),.UNSPECIFIED.,.F.
  ,.F.,(3,3),(0.,1.),.PIECEWISE_BEZIER_KNOTS.);
#896 = CARTESIAN_POINT('',(15.102760084926,2.178467751651,7.73957359677)
  );
#897 = CARTESIAN_POINT('',(15.655626326964,2.178467751651,7.73957359677)
  );
#898 = CARTESIAN_POINT('',(15.971549893843,2.076108602175,7.45834414491)
  );
#899 = ORIENTED_EDGE('',*,*,#900,.F.);
#900 = EDGE_CURVE('',#901,#893,#903,.T.);
#901 = VERTEX_POINT('',#902);
#902 = CARTESIAN_POINT('',(15.971549893843,2.827862698804,7.184728030249
    ));
#903 = LINE('',#904,#905);
#904 = CARTESIAN_POINT('',(15.971549893843,2.827862698804,7.184728030249
    ));
#905 = VECTOR('',#906,1.);
#906 = DIRECTION('',(0.,-0.939692620786,0.342020143326));
#907 = ORIENTED_EDGE('',*,*,#908,.F.);
#908 = EDGE_CURVE('',#868,#901,#909,.T.);
#909 = B_SPLINE_CURVE_WITH_KNOTS('',2,(#910,#911,#912),.UNSPECIFIED.,.F.
  ,.F.,(3,3),(0.,1.),.PIECEWISE_BEZIER_KNOTS.);
#910 = CARTESIAN_POINT('',(15.102760084926,2.93022184828,7.465957482109)
  );
#911 = CARTESIAN_POINT('',(15.655626326964,2.93022184828,7.465957482109)
  );
#912 = CARTESIAN_POINT('',(15.971549893843,2.827862698804,7.184728030249
    ));
#913 = SURFACE_OF_LINEAR_EXTRUSION('',#914,#918);
#914 = B_SPLINE_CURVE_WITH_KNOTS('',2,(#915,#916,#917),.UNSPECIFIED.,.F.
  ,.F.,(3,3),(0.,1.),.PIECEWISE_BEZIER_KNOTS.);
#915 = CARTESIAN_POINT('',(15.102760084926,2.93022184828,7.465957482109)
  );
#916 = CARTESIAN_POINT('',(15.655626326964,2.93022184828,7.465957482109)
  );
#917 = CARTESIAN_POINT('',(15.971549893843,2.827862698804,7.184728030249
    ));
#918 = VECTOR('',#919,1.);
#919 = DIRECTION('',(-0.,0.939692620786,-0.342020143326));
#920 = ADVANCED_FACE('',(#921),#946,.T.);
#921 = FACE_BOUND('',#922,.T.);
#922 = EDGE_LOOP('',(#923,#924,#932,#940));
#923 = ORIENTED_EDGE('',*,*,#900,.T.);
#924 = ORIENTED_EDGE('',*,*,#925,.T.);
#925 = EDGE_CURVE('',#893,#926,#928,.T.);
#926 = VERTEX_POINT('',#927);
#927 = CARTESIAN_POINT('',(16.287473460722,1.821488765539,6.758781893206
    ));
#928 = B_SPLINE_CURVE_WITH_KNOTS('',2,(#929,#930,#931),.UNSPECIFIED.,.F.
  ,.F.,(3,3),(0.,1.),.PIECEWISE_BEZIER_KNOTS.);
#929 = CARTESIAN_POINT('',(15.971549893843,2.076108602175,7.45834414491)
  );
#930 = CARTESIAN_POINT('',(16.287473460722,1.973749452699,7.17711469305)
  );
#931 = CARTESIAN_POINT('',(16.287473460722,1.821488765539,6.758781893206
    ));
#932 = ORIENTED_EDGE('',*,*,#933,.F.);
#933 = EDGE_CURVE('',#934,#926,#936,.T.);
#934 = VERTEX_POINT('',#935);
#935 = CARTESIAN_POINT('',(16.287473460722,2.573242862168,6.485165778546
    ));
#936 = LINE('',#937,#938);
#937 = CARTESIAN_POINT('',(16.287473460722,2.573242862168,6.485165778546
    ));
#938 = VECTOR('',#939,1.);
#939 = DIRECTION('',(0.,-0.939692620786,0.342020143326));
#940 = ORIENTED_EDGE('',*,*,#941,.F.);
#941 = EDGE_CURVE('',#901,#934,#942,.T.);
#942 = B_SPLINE_CURVE_WITH_KNOTS('',2,(#943,#944,#945),.UNSPECIFIED.,.F.
  ,.F.,(3,3),(0.,1.),.PIECEWISE_BEZIER_KNOTS.);
#943 = CARTESIAN_POINT('',(15.971549893843,2.827862698804,7.184728030249
    ));
#944 = CARTESIAN_POINT('',(16.287473460722,2.725503549328,6.903498578389
    ));
#945 = CARTESIAN_POINT('',(16.287473460722,2.573242862168,6.485165778546
    ));
#946 = SURFACE_OF_LINEAR_EXTRUSION('',#947,#951);
#947 = B_SPLINE_CURVE_WITH_KNOTS('',2,(#948,#949,#950),.UNSPECIFIED.,.F.
  ,.F.,(3,3),(0.,1.),.PIECEWISE_BEZIER_KNOTS.);
#948 = CARTESIAN_POINT('',(15.971549893843,2.827862698804,7.184728030249
    ));
#949 = CARTESIAN_POINT('',(16.287473460722,2.725503549328,6.903498578389
    ));
#950 = CARTESIAN_POINT('',(16.287473460722,2.573242862168,6.485165778546
    ));
#951 = VECTOR('',#952,1.);
#952 = DIRECTION('',(-0.,0.939692620786,-0.342020143326));
#953 = ADVANCED_FACE('',(#954),#979,.T.);
#954 = FACE_BOUND('',#955,.T.);
#955 = EDGE_LOOP('',(#956,#957,#965,#973));
#956 = ORIENTED_EDGE('',*,*,#933,.T.);
#957 = ORIENTED_EDGE('',*,*,#958,.T.);
#958 = EDGE_CURVE('',#926,#959,#961,.T.);
#959 = VERTEX_POINT('',#960);
#960 = CARTESIAN_POINT('',(16.196942675159,1.656563893029,6.305654530079
    ));
#961 = B_SPLINE_CURVE_WITH_KNOTS('',2,(#962,#963,#964),.UNSPECIFIED.,.F.
  ,.F.,(3,3),(0.,1.),.PIECEWISE_BEZIER_KNOTS.);
#962 = CARTESIAN_POINT('',(16.287473460722,1.821488765539,6.758781893206
    ));
#963 = CARTESIAN_POINT('',(16.287473460722,1.73487270886,6.520806233318)
  );
#964 = CARTESIAN_POINT('',(16.196942675159,1.656563893029,6.305654530079
    ));
#965 = ORIENTED_EDGE('',*,*,#966,.F.);
#966 = EDGE_CURVE('',#967,#959,#969,.T.);
#967 = VERTEX_POINT('',#968);
#968 = CARTESIAN_POINT('',(16.196942675159,2.408317989658,6.032038415419
    ));
#969 = LINE('',#970,#971);
#970 = CARTESIAN_POINT('',(16.196942675159,2.408317989658,6.032038415419
    ));
#971 = VECTOR('',#972,1.);
#972 = DIRECTION('',(0.,-0.939692620786,0.342020143326));
#973 = ORIENTED_EDGE('',*,*,#974,.F.);
#974 = EDGE_CURVE('',#934,#967,#975,.T.);
#975 = B_SPLINE_CURVE_WITH_KNOTS('',2,(#976,#977,#978),.UNSPECIFIED.,.F.
  ,.F.,(3,3),(0.,1.),.PIECEWISE_BEZIER_KNOTS.);
#976 = CARTESIAN_POINT('',(16.287473460722,2.573242862168,6.485165778546
    ));
#977 = CARTESIAN_POINT('',(16.287473460722,2.486626805488,6.247190118657
    ));
#978 = CARTESIAN_POINT('',(16.196942675159,2.408317989658,6.032038415419
    ));
#979 = SURFACE_OF_LINEAR_EXTRUSION('',#980,#984);
#980 = B_SPLINE_CURVE_WITH_KNOTS('',2,(#981,#982,#983),.UNSPECIFIED.,.F.
  ,.F.,(3,3),(0.,1.),.PIECEWISE_BEZIER_KNOTS.);
#981 = CARTESIAN_POINT('',(16.287473460722,2.573242862168,6.485165778546
    ));
#982 = CARTESIAN_POINT('',(16.287473460722,2.486626805488,6.247190118657
    ));
#983 = CARTESIAN_POINT('',(16.196942675159,2.408317989658,6.032038415419
    ));
#984 = VECTOR('',#985,1.);
#985 = DIRECTION('',(-0.,0.939692620786,-0.342020143326));
#986 = ADVANCED_FACE('',(#987),#1012,.T.);
#987 = FACE_BOUND('',#988,.T.);
#988 = EDGE_LOOP('',(#989,#990,#998,#1006));
#989 = ORIENTED_EDGE('',*,*,#966,.T.);
#990 = ORIENTED_EDGE('',*,*,#991,.T.);
#991 = EDGE_CURVE('',#959,#992,#994,.T.);
#992 = VERTEX_POINT('',#993);
#993 = CARTESIAN_POINT('',(15.910403397028,1.492452316826,5.85476168019)
  );
#994 = B_SPLINE_CURVE_WITH_KNOTS('',2,(#995,#996,#997),.UNSPECIFIED.,.F.
  ,.F.,(3,3),(0.,1.),.PIECEWISE_BEZIER_KNOTS.);
#995 = CARTESIAN_POINT('',(16.196942675159,1.656563893029,6.305654530079
    ));
#996 = CARTESIAN_POINT('',(16.106581740977,1.578255077198,6.09050282684)
  );
#997 = CARTESIAN_POINT('',(15.910403397028,1.492452316826,5.85476168019)
  );
#998 = ORIENTED_EDGE('',*,*,#999,.F.);
#999 = EDGE_CURVE('',#1000,#992,#1002,.T.);
#1000 = VERTEX_POINT('',#1001);
#1001 = CARTESIAN_POINT('',(15.910403397028,2.244206413455,5.58114556553
    ));
#1002 = LINE('',#1003,#1004);
#1003 = CARTESIAN_POINT('',(15.910403397028,2.244206413455,5.58114556553
    ));
#1004 = VECTOR('',#1005,1.);
#1005 = DIRECTION('',(0.,-0.939692620786,0.342020143326));
#1006 = ORIENTED_EDGE('',*,*,#1007,.F.);
#1007 = EDGE_CURVE('',#967,#1000,#1008,.T.);
#1008 = B_SPLINE_CURVE_WITH_KNOTS('',2,(#1009,#1010,#1011),
  .UNSPECIFIED.,.F.,.F.,(3,3),(0.,1.),.PIECEWISE_BEZIER_KNOTS.);
#1009 = CARTESIAN_POINT('',(16.196942675159,2.408317989658,
    6.032038415419));
#1010 = CARTESIAN_POINT('',(16.106581740977,2.330009173827,5.81688671218
    ));
#1011 = CARTESIAN_POINT('',(15.910403397028,2.244206413455,5.58114556553
    ));
#1012 = SURFACE_OF_LINEAR_EXTRUSION('',#1013,#1017);
#1013 = B_SPLINE_CURVE_WITH_KNOTS('',2,(#1014,#1015,#1016),
  .UNSPECIFIED.,.F.,.F.,(3,3),(0.,1.),.PIECEWISE_BEZIER_KNOTS.);
#1014 = CARTESIAN_POINT('',(16.196942675159,2.408317989658,
    6.032038415419));
#1015 = CARTESIAN_POINT('',(16.106581740977,2.330009173827,5.81688671218
    ));
#1016 = CARTESIAN_POINT('',(15.910403397028,2.244206413455,5.58114556553
    ));
#1017 = VECTOR('',#1018,1.);
#1018 = DIRECTION('',(-0.,0.939692620786,-0.342020143326));
#1019 = ADVANCED_FACE('',(#1020),#1045,.T.);
#1020 = FACE_BOUND('',#1021,.T.);
#1021 = EDGE_LOOP('',(#1022,#1023,#1031,#1039));
#1022 = ORIENTED_EDGE('',*,*,#999,.T.);
#1023 = ORIENTED_EDGE('',*,*,#1024,.T.);
#1024 = EDGE_CURVE('',#992,#1025,#1027,.T.);
#1025 = VERTEX_POINT('',#1026);
#1026 = CARTESIAN_POINT('',(15.44161358811,1.32880548137,5.405145695009)
  );
#1027 = B_SPLINE_CURVE_WITH_KNOTS('',2,(#1028,#1029,#1030),
  .UNSPECIFIED.,.F.,.F.,(3,3),(0.,1.),.PIECEWISE_BEZIER_KNOTS.);
#1028 = CARTESIAN_POINT('',(15.910403397028,1.492452316826,5.85476168019
    ));
#1029 = CARTESIAN_POINT('',(15.780467091295,1.43557966794,5.698505361592
    ));
#1030 = CARTESIAN_POINT('',(15.44161358811,1.32880548137,5.405145695009)
  );
#1031 = ORIENTED_EDGE('',*,*,#1032,.F.);
#1032 = EDGE_CURVE('',#1033,#1025,#1035,.T.);
#1033 = VERTEX_POINT('',#1034);
#1034 = CARTESIAN_POINT('',(15.44161358811,2.080559577999,5.131529580349
    ));
#1035 = LINE('',#1036,#1037);
#1036 = CARTESIAN_POINT('',(15.44161358811,2.080559577999,5.131529580349
    ));
#1037 = VECTOR('',#1038,1.);
#1038 = DIRECTION('',(0.,-0.939692620786,0.342020143326));
#1039 = ORIENTED_EDGE('',*,*,#1040,.F.);
#1040 = EDGE_CURVE('',#1000,#1033,#1041,.T.);
#1041 = B_SPLINE_CURVE_WITH_KNOTS('',2,(#1042,#1043,#1044),
  .UNSPECIFIED.,.F.,.F.,(3,3),(0.,1.),.PIECEWISE_BEZIER_KNOTS.);
#1042 = CARTESIAN_POINT('',(15.910403397028,2.244206413455,5.58114556553
    ));
#1043 = CARTESIAN_POINT('',(15.780467091295,2.187333764569,
    5.424889246931));
#1044 = CARTESIAN_POINT('',(15.44161358811,2.080559577999,5.131529580349
    ));
#1045 = SURFACE_OF_LINEAR_EXTRUSION('',#1046,#1050);
#1046 = B_SPLINE_CURVE_WITH_KNOTS('',2,(#1047,#1048,#1049),
  .UNSPECIFIED.,.F.,.F.,(3,3),(0.,1.),.PIECEWISE_BEZIER_KNOTS.);
#1047 = CARTESIAN_POINT('',(15.910403397028,2.244206413455,5.58114556553
    ));
#1048 = CARTESIAN_POINT('',(15.780467091295,2.187333764569,
    5.424889246931));
#1049 = CARTESIAN_POINT('',(15.44161358811,2.080559577999,5.131529580349
    ));
#1050 = VECTOR('',#1051,1.);
#1051 = DIRECTION('',(-0.,0.939692620786,-0.342020143326));
#1052 = ADVANCED_FACE('',(#1053),#1078,.T.);
#1053 = FACE_BOUND('',#1054,.T.);
#1054 = EDGE_LOOP('',(#1055,#1056,#1064,#1072));
#1055 = ORIENTED_EDGE('',*,*,#1032,.T.);
#1056 = ORIENTED_EDGE('',*,*,#1057,.T.);
#1057 = EDGE_CURVE('',#1025,#1058,#1060,.T.);
#1058 = VERTEX_POINT('',#1059);
#1059 = CARTESIAN_POINT('',(15.012229299363,1.187059553605,
    5.015701959176));
#1060 = B_SPLINE_CURVE_WITH_KNOTS('',2,(#1061,#1062,#1063),
  .UNSPECIFIED.,.F.,.F.,(3,3),(0.,1.),.PIECEWISE_BEZIER_KNOTS.);
#1061 = CARTESIAN_POINT('',(15.44161358811,1.32880548137,5.405145695009)
  );
#1062 = CARTESIAN_POINT('',(15.102760084926,1.222089387393,
    5.111945636515));
#1063 = CARTESIAN_POINT('',(15.012229299363,1.187059553605,
    5.015701959176));
#1064 = ORIENTED_EDGE('',*,*,#1065,.F.);
#1065 = EDGE_CURVE('',#1066,#1058,#1068,.T.);
#1066 = VERTEX_POINT('',#1067);
#1067 = CARTESIAN_POINT('',(15.012229299363,1.938813650234,
    4.742085844515));
#1068 = LINE('',#1069,#1070);
#1069 = CARTESIAN_POINT('',(15.012229299363,1.938813650234,
    4.742085844515));
#1070 = VECTOR('',#1071,1.);
#1071 = DIRECTION('',(0.,-0.939692620786,0.342020143326));
#1072 = ORIENTED_EDGE('',*,*,#1073,.F.);
#1073 = EDGE_CURVE('',#1033,#1066,#1074,.T.);
#1074 = B_SPLINE_CURVE_WITH_KNOTS('',2,(#1075,#1076,#1077),
  .UNSPECIFIED.,.F.,.F.,(3,3),(0.,1.),.PIECEWISE_BEZIER_KNOTS.);
#1075 = CARTESIAN_POINT('',(15.44161358811,2.080559577999,5.131529580349
    ));
#1076 = CARTESIAN_POINT('',(15.102760084926,1.973843484022,
    4.838329521855));
#1077 = CARTESIAN_POINT('',(15.012229299363,1.938813650234,
    4.742085844515));
#1078 = SURFACE_OF_LINEAR_EXTRUSION('',#1079,#1083);
#1079 = B_SPLINE_CURVE_WITH_KNOTS('',2,(#1080,#1081,#1082),
  .UNSPECIFIED.,.F.,.F.,(3,3),(0.,1.),.PIECEWISE_BEZIER_KNOTS.);
#1080 = CARTESIAN_POINT('',(15.44161358811,2.080559577999,5.131529580349
    ));
#1081 = CARTESIAN_POINT('',(15.102760084926,1.973843484022,
    4.838329521855));
#1082 = CARTESIAN_POINT('',(15.012229299363,1.938813650234,
    4.742085844515));
#1083 = VECTOR('',#1084,1.);
#1084 = DIRECTION('',(-0.,0.939692620786,-0.342020143326));
#1085 = ADVANCED_FACE('',(#1086),#1111,.T.);
#1086 = FACE_BOUND('',#1087,.T.);
#1087 = EDGE_LOOP('',(#1088,#1089,#1097,#1105));
#1088 = ORIENTED_EDGE('',*,*,#1065,.T.);
#1089 = ORIENTED_EDGE('',*,*,#1090,.T.);
#1090 = EDGE_CURVE('',#1058,#1091,#1093,.T.);
#1091 = VERTEX_POINT('',#1092);
#1092 = CARTESIAN_POINT('',(14.865817409766,1.118858849017,
    4.828322063328));
#1093 = B_SPLINE_CURVE_WITH_KNOTS('',2,(#1094,#1095,#1096),
  .UNSPECIFIED.,.F.,.F.,(3,3),(0.,1.),.PIECEWISE_BEZIER_KNOTS.);
#1094 = CARTESIAN_POINT('',(15.012229299363,1.187059553605,
    5.015701959176));
#1095 = CARTESIAN_POINT('',(14.92186836518,1.152087812411,4.919617889925
    ));
#1096 = CARTESIAN_POINT('',(14.865817409766,1.118858849017,
    4.828322063328));
#1097 = ORIENTED_EDGE('',*,*,#1098,.F.);
#1098 = EDGE_CURVE('',#1099,#1091,#1101,.T.);
#1099 = VERTEX_POINT('',#1100);
#1100 = CARTESIAN_POINT('',(14.865817409766,1.870612945646,
    4.554705948668));
#1101 = LINE('',#1102,#1103);
#1102 = CARTESIAN_POINT('',(14.865817409766,1.870612945646,
    4.554705948668));
#1103 = VECTOR('',#1104,1.);
#1104 = DIRECTION('',(0.,-0.939692620786,0.342020143326));
#1105 = ORIENTED_EDGE('',*,*,#1106,.F.);
#1106 = EDGE_CURVE('',#1066,#1099,#1107,.T.);
#1107 = B_SPLINE_CURVE_WITH_KNOTS('',2,(#1108,#1109,#1110),
  .UNSPECIFIED.,.F.,.F.,(3,3),(0.,1.),.PIECEWISE_BEZIER_KNOTS.);
#1108 = CARTESIAN_POINT('',(15.012229299363,1.938813650234,
    4.742085844515));
#1109 = CARTESIAN_POINT('',(14.92186836518,1.90384190904,4.646001775265)
  );
#1110 = CARTESIAN_POINT('',(14.865817409766,1.870612945646,
    4.554705948668));
#1111 = SURFACE_OF_LINEAR_EXTRUSION('',#1112,#1116);
#1112 = B_SPLINE_CURVE_WITH_KNOTS('',2,(#1113,#1114,#1115),
  .UNSPECIFIED.,.F.,.F.,(3,3),(0.,1.),.PIECEWISE_BEZIER_KNOTS.);
#1113 = CARTESIAN_POINT('',(15.012229299363,1.938813650234,
    4.742085844515));
#1114 = CARTESIAN_POINT('',(14.92186836518,1.90384190904,4.646001775265)
  );
#1115 = CARTESIAN_POINT('',(14.865817409766,1.870612945646,
    4.554705948668));
#1116 = VECTOR('',#1117,1.);
#1117 = DIRECTION('',(-0.,0.939692620786,-0.342020143326));
#1118 = ADVANCED_FACE('',(#1119),#1135,.T.);
#1119 = FACE_BOUND('',#1120,.T.);
#1120 = EDGE_LOOP('',(#1121,#1122,#1128,#1129));
#1121 = ORIENTED_EDGE('',*,*,#1098,.T.);
#1122 = ORIENTED_EDGE('',*,*,#1123,.T.);
#1123 = EDGE_CURVE('',#1091,#462,#1124,.T.);
#1124 = LINE('',#1125,#1126);
#1125 = CARTESIAN_POINT('',(14.865817409766,1.118858849017,
    4.828322063328));
#1126 = VECTOR('',#1127,1.);
#1127 = DIRECTION('',(1.,0.,0.));
#1128 = ORIENTED_EDGE('',*,*,#459,.F.);
#1129 = ORIENTED_EDGE('',*,*,#1130,.F.);
#1130 = EDGE_CURVE('',#1099,#460,#1131,.T.);
#1131 = LINE('',#1132,#1133);
#1132 = CARTESIAN_POINT('',(14.865817409766,1.870612945646,
    4.554705948668));
#1133 = VECTOR('',#1134,1.);
#1134 = DIRECTION('',(1.,0.,0.));
#1135 = PLANE('',#1136);
#1136 = AXIS2_PLACEMENT_3D('',#1137,#1138,#1139);
#1137 = CARTESIAN_POINT('',(14.865817409766,1.870612945646,
    4.554705948668));
#1138 = DIRECTION('',(0.,0.342020143326,0.939692620786));
#1139 = DIRECTION('',(1.,0.,0.));
#1140 = ADVANCED_FACE('',(#1141),#1164,.F.);
#1141 = FACE_BOUND('',#1142,.T.);
#1142 = EDGE_LOOP('',(#1143,#1144,#1145,#1146,#1147,#1148,#1149,#1150,
    #1151,#1152,#1153,#1154,#1155,#1156,#1157,#1158,#1159,#1160,#1161,
    #1162,#1163));
#1143 = ORIENTED_EDGE('',*,*,#485,.T.);
#1144 = ORIENTED_EDGE('',*,*,#516,.T.);
#1145 = ORIENTED_EDGE('',*,*,#547,.T.);
#1146 = ORIENTED_EDGE('',*,*,#580,.T.);
#1147 = ORIENTED_EDGE('',*,*,#613,.T.);
#1148 = ORIENTED_EDGE('',*,*,#646,.T.);
#1149 = ORIENTED_EDGE('',*,*,#679,.T.);
#1150 = ORIENTED_EDGE('',*,*,#712,.T.);
#1151 = ORIENTED_EDGE('',*,*,#745,.T.);
#1152 = ORIENTED_EDGE('',*,*,#778,.T.);
#1153 = ORIENTED_EDGE('',*,*,#811,.T.);
#1154 = ORIENTED_EDGE('',*,*,#842,.T.);
#1155 = ORIENTED_EDGE('',*,*,#875,.T.);
#1156 = ORIENTED_EDGE('',*,*,#908,.T.);
#1157 = ORIENTED_EDGE('',*,*,#941,.T.);
#1158 = ORIENTED_EDGE('',*,*,#974,.T.);
#1159 = ORIENTED_EDGE('',*,*,#1007,.T.);
#1160 = ORIENTED_EDGE('',*,*,#1040,.T.);
#1161 = ORIENTED_EDGE('',*,*,#1073,.T.);
#1162 = ORIENTED_EDGE('',*,*,#1106,.T.);
#1163 = ORIENTED_EDGE('',*,*,#1130,.T.);
#1164 = PLANE('',#1165);
#1165 = AXIS2_PLACEMENT_3D('',#1166,#1167,#1168);
#1166 = CARTESIAN_POINT('',(15.128392618642,2.243729224005,
    5.579834498291));
#1167 = DIRECTION('',(0.,-0.939692620786,0.342020143326));
#1168 = DIRECTION('',(1.,0.,0.));
#1169 = ADVANCED_FACE('',(#1170),#1193,.T.);
#1170 = FACE_BOUND('',#1171,.F.);
#1171 = EDGE_LOOP('',(#1172,#1173,#1174,#1175,#1176,#1177,#1178,#1179,
    #1180,#1181,#1182,#1183,#1184,#1185,#1186,#1187,#1188,#1189,#1190,
    #1191,#1192));
#1172 = ORIENTED_EDGE('',*,*,#469,.T.);
#1173 = ORIENTED_EDGE('',*,*,#500,.T.);
#1174 = ORIENTED_EDGE('',*,*,#531,.T.);
#1175 = ORIENTED_EDGE('',*,*,#564,.T.);
#1176 = ORIENTED_EDGE('',*,*,#597,.T.);
#1177 = ORIENTED_EDGE('',*,*,#630,.T.);
#1178 = ORIENTED_EDGE('',*,*,#663,.T.);
#1179 = ORIENTED_EDGE('',*,*,#696,.T.);
#1180 = ORIENTED_EDGE('',*,*,#729,.T.);
#1181 = ORIENTED_EDGE('',*,*,#762,.T.);
#1182 = ORIENTED_EDGE('',*,*,#795,.T.);
#1183 = ORIENTED_EDGE('',*,*,#826,.T.);
#1184 = ORIENTED_EDGE('',*,*,#859,.T.);
#1185 = ORIENTED_EDGE('',*,*,#892,.T.);
#1186 = ORIENTED_EDGE('',*,*,#925,.T.);
#1187 = ORIENTED_EDGE('',*,*,#958,.T.);
#1188 = ORIENTED_EDGE('',*,*,#991,.T.);
#1189 = ORIENTED_EDGE('',*,*,#1024,.T.);
#1190 = ORIENTED_EDGE('',*,*,#1057,.T.);
#1191 = ORIENTED_EDGE('',*,*,#1090,.T.);
#1192 = ORIENTED_EDGE('',*,*,#1123,.T.);
#1193 = PLANE('',#1194);
#1194 = AXIS2_PLACEMENT_3D('',#1195,#1196,#1197);
#1195 = CARTESIAN_POINT('',(15.128392618642,1.491975127376,
    5.853450612952));
#1196 = DIRECTION('',(0.,-0.939692620786,0.342020143326));
#1197 = DIRECTION('',(1.,0.,0.));
#1198 = ( GEOMETRIC_REPRESENTATION_CONTEXT(3) 
GLOBAL_UNCERTAINTY_ASSIGNED_CONTEXT((#1202)) 
GLOBAL_UNIT_ASSIGNED_CONTEXT((#1199,#1200,#1201)) REPRESENTATION_CONTEXT
('Context #1','3D Context with UNIT and UNCERTAINTY') );
#1199 = ( LENGTH_UNIT() NAMED_UNIT(*) SI_UNIT(.MILLI.,.METRE.) );
#1200 = ( NAMED_UNIT(*) PLANE_ANGLE_UNIT() SI_UNIT($,.RADIAN.) );
#1201 = ( NAMED_UNIT(*) SI_UNIT($,.STERADIAN.) SOLID_ANGLE_UNIT() );
#1202 = UNCERTAINTY_MEASURE_WITH_UNIT(LENGTH_MEASURE(1.E-07),#1199,
  'distance_accuracy_value','confusion accuracy');
#1203 = PRODUCT_RELATED_PRODUCT_CATEGORY('part',$,(#7));
ENDSEC;
END-ISO-10303-21;
