ISO-10303-21;
HEADER;
FILE_DESCRIPTION(('FreeCAD Model'),'2;1');
FILE_NAME('Open CASCADE Shape Model','2026-08-30T15:30:46',('FreeCAD'),(
    'FreeCAD'),'Open CASCADE STEP processor 7.8','FreeCAD','Unknown');
FILE_SCHEMA(('AUTOMOTIVE_DESIGN { 1 0 10303 214 1 1 1 1 }'));
ENDSEC;
DATA;
#1 = APPLICATION_PROTOCOL_DEFINITION('international standard',
  'automotive_design',2000,#2);
#2 = APPLICATION_CONTEXT(
  'core data for automotive mechanical design processes');
#3 = SHAPE_DEFINITION_REPRESENTATION(#4,#10);
#4 = PRODUCT_DEFINITION_SHAPE('','',#5);
#5 = PRODUCT_DEFINITION('design','',#6,#9);
#6 = PRODUCT_DEFINITION_FORMATION('','',#7);
#7 = PRODUCT('Open CASCADE STEP translator 7.8 173',
  'Open CASCADE STEP translator 7.8 173','',(#8));
#8 = PRODUCT_CONTEXT('',#2,'mechanical');
#9 = PRODUCT_DEFINITION_CONTEXT('part definition',#2,'design');
#10 = SHAPE_REPRESENTATION('',(#11,#15,#373,#523,#1101,#1399),#1697);
#11 = AXIS2_PLACEMENT_3D('',#12,#13,#14);
#12 = CARTESIAN_POINT('',(0.,0.,0.));
#13 = DIRECTION('',(0.,0.,1.));
#14 = DIRECTION('',(1.,0.,-0.));
#15 = MANIFOLD_SOLID_BREP('',#16);
#16 = CLOSED_SHELL('',(#17,#57,#88,#119,#152,#185,#218,#249,#282,#315,
    #337,#355));
#17 = ADVANCED_FACE('',(#18),#52,.T.);
#18 = FACE_BOUND('',#19,.T.);
#19 = EDGE_LOOP('',(#20,#30,#38,#46));
#20 = ORIENTED_EDGE('',*,*,#21,.T.);
#21 = EDGE_CURVE('',#22,#24,#26,.T.);
#22 = VERTEX_POINT('',#23);
#23 = CARTESIAN_POINT('',(16.404458598726,3.017786364273,7.706539012546)
  );
#24 = VERTEX_POINT('',#25);
#25 = CARTESIAN_POINT('',(16.404458598726,2.266032267644,7.980155127206)
  );
#26 = LINE('',#27,#28);
#27 = CARTESIAN_POINT('',(16.404458598726,3.017786364273,7.706539012546)
  );
#28 = VECTOR('',#29,1.);
#29 = DIRECTION('',(0.,-0.939692620786,0.342020143326));
#30 = ORIENTED_EDGE('',*,*,#31,.T.);
#31 = EDGE_CURVE('',#24,#32,#34,.T.);
#32 = VERTEX_POINT('',#33);
#33 = CARTESIAN_POINT('',(16.404458598726,2.60622249428,8.914820093206)
  );
#34 = LINE('',#35,#36);
#35 = CARTESIAN_POINT('',(16.404458598726,2.266032267644,7.980155127206)
  );
#36 = VECTOR('',#37,1.);
#37 = DIRECTION('',(0.,0.342020143326,0.939692620786));
#38 = ORIENTED_EDGE('',*,*,#39,.F.);
#39 = EDGE_CURVE('',#40,#32,#42,.T.);
#40 = VERTEX_POINT('',#41);
#41 = CARTESIAN_POINT('',(16.404458598726,3.357976590908,8.641203978545)
  );
#42 = LINE('',#43,#44);
#43 = CARTESIAN_POINT('',(16.404458598726,3.357976590908,8.641203978545)
  );
#44 = VECTOR('',#45,1.);
#45 = DIRECTION('',(0.,-0.939692620786,0.342020143326));
#46 = ORIENTED_EDGE('',*,*,#47,.F.);
#47 = EDGE_CURVE('',#22,#40,#48,.T.);
#48 = LINE('',#49,#50);
#49 = CARTESIAN_POINT('',(16.404458598726,3.017786364273,7.706539012546)
  );
#50 = VECTOR('',#51,1.);
#51 = DIRECTION('',(0.,0.342020143326,0.939692620786));
#52 = PLANE('',#53);
#53 = AXIS2_PLACEMENT_3D('',#54,#55,#56);
#54 = CARTESIAN_POINT('',(16.404458598726,3.017786364273,7.706539012546)
  );
#55 = DIRECTION('',(-1.,0.,0.));
#56 = DIRECTION('',(0.,0.342020143326,0.939692620786));
#57 = ADVANCED_FACE('',(#58),#83,.T.);
#58 = FACE_BOUND('',#59,.T.);
#59 = EDGE_LOOP('',(#60,#61,#69,#77));
#60 = ORIENTED_EDGE('',*,*,#39,.T.);
#61 = ORIENTED_EDGE('',*,*,#62,.T.);
#62 = EDGE_CURVE('',#32,#63,#65,.T.);
#63 = VERTEX_POINT('',#64);
#64 = CARTESIAN_POINT('',(20.077070063694,2.60622249428,8.914820093206)
  );
#65 = LINE('',#66,#67);
#66 = CARTESIAN_POINT('',(16.404458598726,2.60622249428,8.914820093206)
  );
#67 = VECTOR('',#68,1.);
#68 = DIRECTION('',(1.,0.,0.));
#69 = ORIENTED_EDGE('',*,*,#70,.F.);
#70 = EDGE_CURVE('',#71,#63,#73,.T.);
#71 = VERTEX_POINT('',#72);
#72 = CARTESIAN_POINT('',(20.077070063694,3.357976590908,8.641203978545)
  );
#73 = LINE('',#74,#75);
#74 = CARTESIAN_POINT('',(20.077070063694,3.357976590908,8.641203978545)
  );
#75 = VECTOR('',#76,1.);
#76 = DIRECTION('',(0.,-0.939692620786,0.342020143326));
#77 = ORIENTED_EDGE('',*,*,#78,.F.);
#78 = EDGE_CURVE('',#40,#71,#79,.T.);
#79 = LINE('',#80,#81);
#80 = CARTESIAN_POINT('',(16.404458598726,3.357976590908,8.641203978545)
  );
#81 = VECTOR('',#82,1.);
#82 = DIRECTION('',(1.,0.,0.));
#83 = PLANE('',#84);
#84 = AXIS2_PLACEMENT_3D('',#85,#86,#87);
#85 = CARTESIAN_POINT('',(16.404458598726,3.357976590908,8.641203978545)
  );
#86 = DIRECTION('',(0.,0.342020143326,0.939692620786));
#87 = DIRECTION('',(1.,0.,0.));
#88 = ADVANCED_FACE('',(#89),#114,.T.);
#89 = FACE_BOUND('',#90,.T.);
#90 = EDGE_LOOP('',(#91,#92,#100,#108));
#91 = ORIENTED_EDGE('',*,*,#70,.T.);
#92 = ORIENTED_EDGE('',*,*,#93,.T.);
#93 = EDGE_CURVE('',#63,#94,#96,.T.);
#94 = VERTEX_POINT('',#95);
#95 = CARTESIAN_POINT('',(20.077070063694,2.33853182414,8.1793460216));
#96 = LINE('',#97,#98);
#97 = CARTESIAN_POINT('',(20.077070063694,2.60622249428,8.914820093206)
  );
#98 = VECTOR('',#99,1.);
#99 = DIRECTION('',(0.,-0.342020143326,-0.939692620786));
#100 = ORIENTED_EDGE('',*,*,#101,.F.);
#101 = EDGE_CURVE('',#102,#94,#104,.T.);
#102 = VERTEX_POINT('',#103);
#103 = CARTESIAN_POINT('',(20.077070063694,3.090285920769,7.905729906939
    ));
#104 = LINE('',#105,#106);
#105 = CARTESIAN_POINT('',(20.077070063694,3.090285920769,7.905729906939
    ));
#106 = VECTOR('',#107,1.);
#107 = DIRECTION('',(0.,-0.939692620786,0.342020143326));
#108 = ORIENTED_EDGE('',*,*,#109,.F.);
#109 = EDGE_CURVE('',#71,#102,#110,.T.);
#110 = LINE('',#111,#112);
#111 = CARTESIAN_POINT('',(20.077070063694,3.357976590908,8.641203978545
    ));
#112 = VECTOR('',#113,1.);
#113 = DIRECTION('',(0.,-0.342020143326,-0.939692620786));
#114 = PLANE('',#115);
#115 = AXIS2_PLACEMENT_3D('',#116,#117,#118);
#116 = CARTESIAN_POINT('',(20.077070063694,3.357976590908,8.641203978545
    ));
#117 = DIRECTION('',(1.,0.,0.));
#118 = DIRECTION('',(0.,-0.342020143326,-0.939692620786));
#119 = ADVANCED_FACE('',(#120),#145,.T.);
#120 = FACE_BOUND('',#121,.T.);
#121 = EDGE_LOOP('',(#122,#123,#131,#139));
#122 = ORIENTED_EDGE('',*,*,#101,.T.);
#123 = ORIENTED_EDGE('',*,*,#124,.T.);
#124 = EDGE_CURVE('',#94,#125,#127,.T.);
#125 = VERTEX_POINT('',#126);
#126 = CARTESIAN_POINT('',(19.152229299363,1.897957596203,6.968878278748
    ));
#127 = B_SPLINE_CURVE_WITH_KNOTS('',2,(#128,#129,#130),.UNSPECIFIED.,.F.
  ,.F.,(3,3),(0.,1.),.PIECEWISE_BEZIER_KNOTS.);
#128 = CARTESIAN_POINT('',(20.077070063694,2.33853182414,8.1793460216));
#129 = CARTESIAN_POINT('',(19.622292993631,2.185167377707,7.757980668075
    ));
#130 = CARTESIAN_POINT('',(19.152229299363,1.897957596203,6.968878278748
    ));
#131 = ORIENTED_EDGE('',*,*,#132,.F.);
#132 = EDGE_CURVE('',#133,#125,#135,.T.);
#133 = VERTEX_POINT('',#134);
#134 = CARTESIAN_POINT('',(19.152229299363,2.649711692832,6.695262164087
    ));
#135 = LINE('',#136,#137);
#136 = CARTESIAN_POINT('',(19.152229299363,2.649711692832,6.695262164087
    ));
#137 = VECTOR('',#138,1.);
#138 = DIRECTION('',(0.,-0.939692620786,0.342020143326));
#139 = ORIENTED_EDGE('',*,*,#140,.F.);
#140 = EDGE_CURVE('',#102,#133,#141,.T.);
#141 = B_SPLINE_CURVE_WITH_KNOTS('',2,(#142,#143,#144),.UNSPECIFIED.,.F.
  ,.F.,(3,3),(0.,1.),.PIECEWISE_BEZIER_KNOTS.);
#142 = CARTESIAN_POINT('',(20.077070063694,3.090285920769,7.905729906939
    ));
#143 = CARTESIAN_POINT('',(19.622292993631,2.936921474335,7.484364553415
    ));
#144 = CARTESIAN_POINT('',(19.152229299363,2.649711692832,6.695262164087
    ));
#145 = SURFACE_OF_LINEAR_EXTRUSION('',#146,#150);
#146 = B_SPLINE_CURVE_WITH_KNOTS('',2,(#147,#148,#149),.UNSPECIFIED.,.F.
  ,.F.,(3,3),(0.,1.),.PIECEWISE_BEZIER_KNOTS.);
#147 = CARTESIAN_POINT('',(20.077070063694,3.090285920769,7.905729906939
    ));
#148 = CARTESIAN_POINT('',(19.622292993631,2.936921474335,7.484364553415
    ));
#149 = CARTESIAN_POINT('',(19.152229299363,2.649711692832,6.695262164087
    ));
#150 = VECTOR('',#151,1.);
#151 = DIRECTION('',(-0.,0.939692620786,-0.342020143326));
#152 = ADVANCED_FACE('',(#153),#178,.T.);
#153 = FACE_BOUND('',#154,.T.);
#154 = EDGE_LOOP('',(#155,#156,#164,#172));
#155 = ORIENTED_EDGE('',*,*,#132,.T.);
#156 = ORIENTED_EDGE('',*,*,#157,.T.);
#157 = EDGE_CURVE('',#125,#158,#160,.T.);
#158 = VERTEX_POINT('',#159);
#159 = CARTESIAN_POINT('',(18.435541401274,1.287636810508,5.292035701427
    ));
#160 = B_SPLINE_CURVE_WITH_KNOTS('',2,(#161,#162,#163),.UNSPECIFIED.,.F.
  ,.F.,(3,3),(0.,1.),.PIECEWISE_BEZIER_KNOTS.);
#161 = CARTESIAN_POINT('',(19.152229299363,1.897957596203,6.968878278748
    ));
#162 = CARTESIAN_POINT('',(18.682165605096,1.610834953589,6.180015301553
    ));
#163 = CARTESIAN_POINT('',(18.435541401274,1.287636810508,5.292035701427
    ));
#164 = ORIENTED_EDGE('',*,*,#165,.F.);
#165 = EDGE_CURVE('',#166,#158,#168,.T.);
#166 = VERTEX_POINT('',#167);
#167 = CARTESIAN_POINT('',(18.435541401274,2.039390907137,5.018419586766
    ));
#168 = LINE('',#169,#170);
#169 = CARTESIAN_POINT('',(18.435541401274,2.039390907137,5.018419586766
    ));
#170 = VECTOR('',#171,1.);
#171 = DIRECTION('',(0.,-0.939692620786,0.342020143326));
#172 = ORIENTED_EDGE('',*,*,#173,.F.);
#173 = EDGE_CURVE('',#133,#166,#174,.T.);
#174 = B_SPLINE_CURVE_WITH_KNOTS('',2,(#175,#176,#177),.UNSPECIFIED.,.F.
  ,.F.,(3,3),(0.,1.),.PIECEWISE_BEZIER_KNOTS.);
#175 = CARTESIAN_POINT('',(19.152229299363,2.649711692832,6.695262164087
    ));
#176 = CARTESIAN_POINT('',(18.682165605096,2.362589050218,5.906399186893
    ));
#177 = CARTESIAN_POINT('',(18.435541401274,2.039390907137,5.018419586766
    ));
#178 = SURFACE_OF_LINEAR_EXTRUSION('',#179,#183);
#179 = B_SPLINE_CURVE_WITH_KNOTS('',2,(#180,#181,#182),.UNSPECIFIED.,.F.
  ,.F.,(3,3),(0.,1.),.PIECEWISE_BEZIER_KNOTS.);
#180 = CARTESIAN_POINT('',(19.152229299363,2.649711692832,6.695262164087
    ));
#181 = CARTESIAN_POINT('',(18.682165605096,2.362589050218,5.906399186893
    ));
#182 = CARTESIAN_POINT('',(18.435541401274,2.039390907137,5.018419586766
    ));
#183 = VECTOR('',#184,1.);
#184 = DIRECTION('',(-0.,0.939692620786,-0.342020143326));
#185 = ADVANCED_FACE('',(#186),#211,.T.);
#186 = FACE_BOUND('',#187,.T.);
#187 = EDGE_LOOP('',(#188,#189,#197,#205));
#188 = ORIENTED_EDGE('',*,*,#165,.T.);
#189 = ORIENTED_EDGE('',*,*,#190,.T.);
#190 = EDGE_CURVE('',#158,#191,#193,.T.);
#191 = VERTEX_POINT('',#192);
#192 = CARTESIAN_POINT('',(18.192993630573,0.71008024746,3.705212085995)
  );
#193 = B_SPLINE_CURVE_WITH_KNOTS('',2,(#194,#195,#196),.UNSPECIFIED.,.F.
  ,.F.,(3,3),(0.,1.),.PIECEWISE_BEZIER_KNOTS.);
#194 = CARTESIAN_POINT('',(18.435541401274,1.287636810508,5.292035701427
    ));
#195 = CARTESIAN_POINT('',(18.189171974522,0.964438667426,4.404056101301
    ));
#196 = CARTESIAN_POINT('',(18.192993630573,0.71008024746,3.705212085995)
  );
#197 = ORIENTED_EDGE('',*,*,#198,.F.);
#198 = EDGE_CURVE('',#199,#191,#201,.T.);
#199 = VERTEX_POINT('',#200);
#200 = CARTESIAN_POINT('',(18.192993630573,1.461834344089,3.431595971335
    ));
#201 = LINE('',#202,#203);
#202 = CARTESIAN_POINT('',(18.192993630573,1.461834344089,3.431595971335
    ));
#203 = VECTOR('',#204,1.);
#204 = DIRECTION('',(0.,-0.939692620786,0.342020143326));
#205 = ORIENTED_EDGE('',*,*,#206,.F.);
#206 = EDGE_CURVE('',#166,#199,#207,.T.);
#207 = B_SPLINE_CURVE_WITH_KNOTS('',2,(#208,#209,#210),.UNSPECIFIED.,.F.
  ,.F.,(3,3),(0.,1.),.PIECEWISE_BEZIER_KNOTS.);
#208 = CARTESIAN_POINT('',(18.435541401274,2.039390907137,5.018419586766
    ));
#209 = CARTESIAN_POINT('',(18.189171974522,1.716192764055,4.13043998664)
  );
#210 = CARTESIAN_POINT('',(18.192993630573,1.461834344089,3.431595971335
    ));
#211 = SURFACE_OF_LINEAR_EXTRUSION('',#212,#216);
#212 = B_SPLINE_CURVE_WITH_KNOTS('',2,(#213,#214,#215),.UNSPECIFIED.,.F.
  ,.F.,(3,3),(0.,1.),.PIECEWISE_BEZIER_KNOTS.);
#213 = CARTESIAN_POINT('',(18.435541401274,2.039390907137,5.018419586766
    ));
#214 = CARTESIAN_POINT('',(18.189171974522,1.716192764055,4.13043998664)
  );
#215 = CARTESIAN_POINT('',(18.192993630573,1.461834344089,3.431595971335
    ));
#216 = VECTOR('',#217,1.);
#217 = DIRECTION('',(-0.,0.939692620786,-0.342020143326));
#218 = ADVANCED_FACE('',(#219),#244,.T.);
#219 = FACE_BOUND('',#220,.T.);
#220 = EDGE_LOOP('',(#221,#222,#230,#238));
#221 = ORIENTED_EDGE('',*,*,#198,.T.);
#222 = ORIENTED_EDGE('',*,*,#223,.T.);
#223 = EDGE_CURVE('',#191,#224,#226,.T.);
#224 = VERTEX_POINT('',#225);
#225 = CARTESIAN_POINT('',(17.157324840764,0.71008024746,3.705212085995)
  );
#226 = LINE('',#227,#228);
#227 = CARTESIAN_POINT('',(18.192993630573,0.71008024746,3.705212085995)
  );
#228 = VECTOR('',#229,1.);
#229 = DIRECTION('',(-1.,0.,0.));
#230 = ORIENTED_EDGE('',*,*,#231,.F.);
#231 = EDGE_CURVE('',#232,#224,#234,.T.);
#232 = VERTEX_POINT('',#233);
#233 = CARTESIAN_POINT('',(17.157324840764,1.461834344089,3.431595971335
    ));
#234 = LINE('',#235,#236);
#235 = CARTESIAN_POINT('',(17.157324840764,1.461834344089,3.431595971335
    ));
#236 = VECTOR('',#237,1.);
#237 = DIRECTION('',(0.,-0.939692620786,0.342020143326));
#238 = ORIENTED_EDGE('',*,*,#239,.F.);
#239 = EDGE_CURVE('',#199,#232,#240,.T.);
#240 = LINE('',#241,#242);
#241 = CARTESIAN_POINT('',(18.192993630573,1.461834344089,3.431595971335
    ));
#242 = VECTOR('',#243,1.);
#243 = DIRECTION('',(-1.,0.,0.));
#244 = PLANE('',#245);
#245 = AXIS2_PLACEMENT_3D('',#246,#247,#248);
#246 = CARTESIAN_POINT('',(18.192993630573,1.461834344089,3.431595971335
    ));
#247 = DIRECTION('',(0.,-0.342020143326,-0.939692620786));
#248 = DIRECTION('',(-1.,0.,0.));
#249 = ADVANCED_FACE('',(#250),#275,.T.);
#250 = FACE_BOUND('',#251,.T.);
#251 = EDGE_LOOP('',(#252,#253,#261,#269));
#252 = ORIENTED_EDGE('',*,*,#231,.T.);
#253 = ORIENTED_EDGE('',*,*,#254,.T.);
#254 = EDGE_CURVE('',#224,#255,#257,.T.);
#255 = VERTEX_POINT('',#256);
#256 = CARTESIAN_POINT('',(17.636815286624,1.52413175802,5.941800229532)
  );
#257 = B_SPLINE_CURVE_WITH_KNOTS('',2,(#258,#259,#260),.UNSPECIFIED.,.F.
  ,.F.,(3,3),(0.,1.),.PIECEWISE_BEZIER_KNOTS.);
#258 = CARTESIAN_POINT('',(17.157324840764,0.71008024746,3.705212085995)
  );
#259 = CARTESIAN_POINT('',(17.184076433121,1.109263502638,4.801959065822
    ));
#260 = CARTESIAN_POINT('',(17.636815286624,1.52413175802,5.941800229532)
  );
#261 = ORIENTED_EDGE('',*,*,#262,.F.);
#262 = EDGE_CURVE('',#263,#255,#265,.T.);
#263 = VERTEX_POINT('',#264);
#264 = CARTESIAN_POINT('',(17.636815286624,2.275885854649,5.668184114872
    ));
#265 = LINE('',#266,#267);
#266 = CARTESIAN_POINT('',(17.636815286624,2.275885854649,5.668184114872
    ));
#267 = VECTOR('',#268,1.);
#268 = DIRECTION('',(0.,-0.939692620786,0.342020143326));
#269 = ORIENTED_EDGE('',*,*,#270,.F.);
#270 = EDGE_CURVE('',#232,#263,#271,.T.);
#271 = B_SPLINE_CURVE_WITH_KNOTS('',2,(#272,#273,#274),.UNSPECIFIED.,.F.
  ,.F.,(3,3),(0.,1.),.PIECEWISE_BEZIER_KNOTS.);
#272 = CARTESIAN_POINT('',(17.157324840764,1.461834344089,3.431595971335
    ));
#273 = CARTESIAN_POINT('',(17.184076433121,1.861017599267,4.528342951162
    ));
#274 = CARTESIAN_POINT('',(17.636815286624,2.275885854649,5.668184114872
    ));
#275 = SURFACE_OF_LINEAR_EXTRUSION('',#276,#280);
#276 = B_SPLINE_CURVE_WITH_KNOTS('',2,(#277,#278,#279),.UNSPECIFIED.,.F.
  ,.F.,(3,3),(0.,1.),.PIECEWISE_BEZIER_KNOTS.);
#277 = CARTESIAN_POINT('',(17.157324840764,1.461834344089,3.431595971335
    ));
#278 = CARTESIAN_POINT('',(17.184076433121,1.861017599267,4.528342951162
    ));
#279 = CARTESIAN_POINT('',(17.636815286624,2.275885854649,5.668184114872
    ));
#280 = VECTOR('',#281,1.);
#281 = DIRECTION('',(-0.,0.939692620786,-0.342020143326));
#282 = ADVANCED_FACE('',(#283),#308,.T.);
#283 = FACE_BOUND('',#284,.T.);
#284 = EDGE_LOOP('',(#285,#286,#294,#302));
#285 = ORIENTED_EDGE('',*,*,#262,.T.);
#286 = ORIENTED_EDGE('',*,*,#287,.T.);
#287 = EDGE_CURVE('',#255,#288,#290,.T.);
#288 = VERTEX_POINT('',#289);
#289 = CARTESIAN_POINT('',(18.846496815287,2.266032267644,7.980155127206
    ));
#290 = B_SPLINE_CURVE_WITH_KNOTS('',2,(#291,#292,#293),.UNSPECIFIED.,.F.
  ,.F.,(3,3),(0.,1.),.PIECEWISE_BEZIER_KNOTS.);
#291 = CARTESIAN_POINT('',(17.636815286624,1.52413175802,5.941800229532)
  );
#292 = CARTESIAN_POINT('',(18.089808917197,1.939087152292,7.081880805375
    ));
#293 = CARTESIAN_POINT('',(18.846496815287,2.266032267644,7.980155127206
    ));
#294 = ORIENTED_EDGE('',*,*,#295,.F.);
#295 = EDGE_CURVE('',#296,#288,#298,.T.);
#296 = VERTEX_POINT('',#297);
#297 = CARTESIAN_POINT('',(18.846496815287,3.017786364273,7.706539012546
    ));
#298 = LINE('',#299,#300);
#299 = CARTESIAN_POINT('',(18.846496815287,3.017786364273,7.706539012546
    ));
#300 = VECTOR('',#301,1.);
#301 = DIRECTION('',(0.,-0.939692620786,0.342020143326));
#302 = ORIENTED_EDGE('',*,*,#303,.F.);
#303 = EDGE_CURVE('',#263,#296,#304,.T.);
#304 = B_SPLINE_CURVE_WITH_KNOTS('',2,(#305,#306,#307),.UNSPECIFIED.,.F.
  ,.F.,(3,3),(0.,1.),.PIECEWISE_BEZIER_KNOTS.);
#305 = CARTESIAN_POINT('',(17.636815286624,2.275885854649,5.668184114872
    ));
#306 = CARTESIAN_POINT('',(18.089808917197,2.690841248921,6.808264690714
    ));
#307 = CARTESIAN_POINT('',(18.846496815287,3.017786364273,7.706539012546
    ));
#308 = SURFACE_OF_LINEAR_EXTRUSION('',#309,#313);
#309 = B_SPLINE_CURVE_WITH_KNOTS('',2,(#310,#311,#312),.UNSPECIFIED.,.F.
  ,.F.,(3,3),(0.,1.),.PIECEWISE_BEZIER_KNOTS.);
#310 = CARTESIAN_POINT('',(17.636815286624,2.275885854649,5.668184114872
    ));
#311 = CARTESIAN_POINT('',(18.089808917197,2.690841248921,6.808264690714
    ));
#312 = CARTESIAN_POINT('',(18.846496815287,3.017786364273,7.706539012546
    ));
#313 = VECTOR('',#314,1.);
#314 = DIRECTION('',(-0.,0.939692620786,-0.342020143326));
#315 = ADVANCED_FACE('',(#316),#332,.T.);
#316 = FACE_BOUND('',#317,.T.);
#317 = EDGE_LOOP('',(#318,#319,#325,#326));
#318 = ORIENTED_EDGE('',*,*,#295,.T.);
#319 = ORIENTED_EDGE('',*,*,#320,.T.);
#320 = EDGE_CURVE('',#288,#24,#321,.T.);
#321 = LINE('',#322,#323);
#322 = CARTESIAN_POINT('',(18.846496815287,2.266032267644,7.980155127206
    ));
#323 = VECTOR('',#324,1.);
#324 = DIRECTION('',(-1.,0.,0.));
#325 = ORIENTED_EDGE('',*,*,#21,.F.);
#326 = ORIENTED_EDGE('',*,*,#327,.F.);
#327 = EDGE_CURVE('',#296,#22,#328,.T.);
#328 = LINE('',#329,#330);
#329 = CARTESIAN_POINT('',(18.846496815287,3.017786364273,7.706539012546
    ));
#330 = VECTOR('',#331,1.);
#331 = DIRECTION('',(-1.,0.,0.));
#332 = PLANE('',#333);
#333 = AXIS2_PLACEMENT_3D('',#334,#335,#336);
#334 = CARTESIAN_POINT('',(18.846496815287,3.017786364273,7.706539012546
    ));
#335 = DIRECTION('',(0.,-0.342020143326,-0.939692620786));
#336 = DIRECTION('',(-1.,0.,0.));
#337 = ADVANCED_FACE('',(#338),#350,.F.);
#338 = FACE_BOUND('',#339,.T.);
#339 = EDGE_LOOP('',(#340,#341,#342,#343,#344,#345,#346,#347,#348,#349)
  );
#340 = ORIENTED_EDGE('',*,*,#47,.T.);
#341 = ORIENTED_EDGE('',*,*,#78,.T.);
#342 = ORIENTED_EDGE('',*,*,#109,.T.);
#343 = ORIENTED_EDGE('',*,*,#140,.T.);
#344 = ORIENTED_EDGE('',*,*,#173,.T.);
#345 = ORIENTED_EDGE('',*,*,#206,.T.);
#346 = ORIENTED_EDGE('',*,*,#239,.T.);
#347 = ORIENTED_EDGE('',*,*,#270,.T.);
#348 = ORIENTED_EDGE('',*,*,#303,.T.);
#349 = ORIENTED_EDGE('',*,*,#327,.T.);
#350 = PLANE('',#351);
#351 = AXIS2_PLACEMENT_3D('',#352,#353,#354);
#352 = CARTESIAN_POINT('',(18.16109940255,2.62964250988,6.6401225371));
#353 = DIRECTION('',(0.,-0.939692620786,0.342020143326));
#354 = DIRECTION('',(1.,0.,0.));
#355 = ADVANCED_FACE('',(#356),#368,.T.);
#356 = FACE_BOUND('',#357,.F.);
#357 = EDGE_LOOP('',(#358,#359,#360,#361,#362,#363,#364,#365,#366,#367)
  );
#358 = ORIENTED_EDGE('',*,*,#31,.T.);
#359 = ORIENTED_EDGE('',*,*,#62,.T.);
#360 = ORIENTED_EDGE('',*,*,#93,.T.);
#361 = ORIENTED_EDGE('',*,*,#124,.T.);
#362 = ORIENTED_EDGE('',*,*,#157,.T.);
#363 = ORIENTED_EDGE('',*,*,#190,.T.);
#364 = ORIENTED_EDGE('',*,*,#223,.T.);
#365 = ORIENTED_EDGE('',*,*,#254,.T.);
#366 = ORIENTED_EDGE('',*,*,#287,.T.);
#367 = ORIENTED_EDGE('',*,*,#320,.T.);
#368 = PLANE('',#369);
#369 = AXIS2_PLACEMENT_3D('',#370,#371,#372);
#370 = CARTESIAN_POINT('',(18.16109940255,1.877888413251,6.913738651761)
  );
#371 = DIRECTION('',(0.,-0.939692620786,0.342020143326));
#372 = DIRECTION('',(1.,0.,0.));
#373 = MANIFOLD_SOLID_BREP('',#374);
#374 = CLOSED_SHELL('',(#375,#415,#446,#477,#499,#511));
#375 = ADVANCED_FACE('',(#376),#410,.T.);
#376 = FACE_BOUND('',#377,.T.);
#377 = EDGE_LOOP('',(#378,#388,#396,#404));
#378 = ORIENTED_EDGE('',*,*,#379,.T.);
#379 = EDGE_CURVE('',#380,#382,#384,.T.);
#380 = VERTEX_POINT('',#381);
#381 = CARTESIAN_POINT('',(20.414140127389,1.428373010321,3.339661712384
    ));
#382 = VERTEX_POINT('',#383);
#383 = CARTESIAN_POINT('',(20.414140127389,0.676618913693,3.613277827045
    ));
#384 = LINE('',#385,#386);
#385 = CARTESIAN_POINT('',(20.414140127389,1.428373010321,3.339661712384
    ));
#386 = VECTOR('',#387,1.);
#387 = DIRECTION('',(0.,-0.939692620786,0.342020143326));
#388 = ORIENTED_EDGE('',*,*,#389,.T.);
#389 = EDGE_CURVE('',#382,#390,#392,.T.);
#390 = VERTEX_POINT('',#391);
#391 = CARTESIAN_POINT('',(21.801401273885,2.656414494931,9.052721481632
    ));
#392 = LINE('',#393,#394);
#393 = CARTESIAN_POINT('',(20.414140127389,0.676618913693,3.613277827045
    ));
#394 = VECTOR('',#395,1.);
#395 = DIRECTION('',(0.233057266823,0.332601938861,0.913816316689));
#396 = ORIENTED_EDGE('',*,*,#397,.F.);
#397 = EDGE_CURVE('',#398,#390,#400,.T.);
#398 = VERTEX_POINT('',#399);
#399 = CARTESIAN_POINT('',(21.801401273885,3.408168591559,8.779105366972
    ));
#400 = LINE('',#401,#402);
#401 = CARTESIAN_POINT('',(21.801401273885,3.408168591559,8.779105366972
    ));
#402 = VECTOR('',#403,1.);
#403 = DIRECTION('',(0.,-0.939692620786,0.342020143326));
#404 = ORIENTED_EDGE('',*,*,#405,.F.);
#405 = EDGE_CURVE('',#380,#398,#406,.T.);
#406 = LINE('',#407,#408);
#407 = CARTESIAN_POINT('',(20.414140127389,1.428373010321,3.339661712384
    ));
#408 = VECTOR('',#409,1.);
#409 = DIRECTION('',(0.233057266823,0.332601938861,0.913816316689));
#410 = PLANE('',#411);
#411 = AXIS2_PLACEMENT_3D('',#412,#413,#414);
#412 = CARTESIAN_POINT('',(20.414140127389,1.428373010321,3.339661712384
    ));
#413 = DIRECTION('',(-0.972463012346,7.971027980197E-02,0.219002193854)
  );
#414 = DIRECTION('',(0.233057266823,0.332601938861,0.913816316689));
#415 = ADVANCED_FACE('',(#416),#441,.T.);
#416 = FACE_BOUND('',#417,.T.);
#417 = EDGE_LOOP('',(#418,#419,#427,#435));
#418 = ORIENTED_EDGE('',*,*,#397,.T.);
#419 = ORIENTED_EDGE('',*,*,#420,.T.);
#420 = EDGE_CURVE('',#390,#421,#423,.T.);
#421 = VERTEX_POINT('',#422);
#422 = CARTESIAN_POINT('',(22.607770700637,2.656414494931,9.052721481632
    ));
#423 = LINE('',#424,#425);
#424 = CARTESIAN_POINT('',(21.801401273885,2.656414494931,9.052721481632
    ));
#425 = VECTOR('',#426,1.);
#426 = DIRECTION('',(1.,0.,0.));
#427 = ORIENTED_EDGE('',*,*,#428,.F.);
#428 = EDGE_CURVE('',#429,#421,#431,.T.);
#429 = VERTEX_POINT('',#430);
#430 = CARTESIAN_POINT('',(22.607770700637,3.408168591559,8.779105366972
    ));
#431 = LINE('',#432,#433);
#432 = CARTESIAN_POINT('',(22.607770700637,3.408168591559,8.779105366972
    ));
#433 = VECTOR('',#434,1.);
#434 = DIRECTION('',(0.,-0.939692620786,0.342020143326));
#435 = ORIENTED_EDGE('',*,*,#436,.F.);
#436 = EDGE_CURVE('',#398,#429,#437,.T.);
#437 = LINE('',#438,#439);
#438 = CARTESIAN_POINT('',(21.801401273885,3.408168591559,8.779105366972
    ));
#439 = VECTOR('',#440,1.);
#440 = DIRECTION('',(1.,0.,0.));
#441 = PLANE('',#442);
#442 = AXIS2_PLACEMENT_3D('',#443,#444,#445);
#443 = CARTESIAN_POINT('',(21.801401273885,3.408168591559,8.779105366972
    ));
#444 = DIRECTION('',(0.,0.342020143326,0.939692620786));
#445 = DIRECTION('',(1.,0.,0.));
#446 = ADVANCED_FACE('',(#447),#472,.T.);
#447 = FACE_BOUND('',#448,.T.);
#448 = EDGE_LOOP('',(#449,#450,#458,#466));
#449 = ORIENTED_EDGE('',*,*,#428,.T.);
#450 = ORIENTED_EDGE('',*,*,#451,.T.);
#451 = EDGE_CURVE('',#421,#452,#454,.T.);
#452 = VERTEX_POINT('',#453);
#453 = CARTESIAN_POINT('',(21.205222929936,0.676618913693,3.613277827045
    ));
#454 = LINE('',#455,#456);
#455 = CARTESIAN_POINT('',(22.607770700637,2.656414494931,9.052721481632
    ));
#456 = VECTOR('',#457,1.);
#457 = DIRECTION('',(-0.235483715343,-0.332401953666,-0.913266861879));
#458 = ORIENTED_EDGE('',*,*,#459,.F.);
#459 = EDGE_CURVE('',#460,#452,#462,.T.);
#460 = VERTEX_POINT('',#461);
#461 = CARTESIAN_POINT('',(21.205222929936,1.428373010321,3.339661712384
    ));
#462 = LINE('',#463,#464);
#463 = CARTESIAN_POINT('',(21.205222929936,1.428373010321,3.339661712384
    ));
#464 = VECTOR('',#465,1.);
#465 = DIRECTION('',(0.,-0.939692620786,0.342020143326));
#466 = ORIENTED_EDGE('',*,*,#467,.F.);
#467 = EDGE_CURVE('',#429,#460,#468,.T.);
#468 = LINE('',#469,#470);
#469 = CARTESIAN_POINT('',(22.607770700637,3.408168591559,8.779105366972
    ));
#470 = VECTOR('',#471,1.);
#471 = DIRECTION('',(-0.235483715343,-0.332401953666,-0.913266861879));
#472 = PLANE('',#473);
#473 = AXIS2_PLACEMENT_3D('',#474,#475,#476);
#474 = CARTESIAN_POINT('',(22.607770700637,3.408168591559,8.779105366972
    ));
#475 = DIRECTION('',(0.971878294751,-8.054017407264E-02,-0.221282309624)
  );
#476 = DIRECTION('',(-0.235483715343,-0.332401953666,-0.913266861879));
#477 = ADVANCED_FACE('',(#478),#494,.T.);
#478 = FACE_BOUND('',#479,.T.);
#479 = EDGE_LOOP('',(#480,#481,#487,#488));
#480 = ORIENTED_EDGE('',*,*,#459,.T.);
#481 = ORIENTED_EDGE('',*,*,#482,.T.);
#482 = EDGE_CURVE('',#452,#382,#483,.T.);
#483 = LINE('',#484,#485);
#484 = CARTESIAN_POINT('',(21.205222929936,0.676618913693,3.613277827045
    ));
#485 = VECTOR('',#486,1.);
#486 = DIRECTION('',(-1.,0.,0.));
#487 = ORIENTED_EDGE('',*,*,#379,.F.);
#488 = ORIENTED_EDGE('',*,*,#489,.F.);
#489 = EDGE_CURVE('',#460,#380,#490,.T.);
#490 = LINE('',#491,#492);
#491 = CARTESIAN_POINT('',(21.205222929936,1.428373010321,3.339661712384
    ));
#492 = VECTOR('',#493,1.);
#493 = DIRECTION('',(-1.,0.,0.));
#494 = PLANE('',#495);
#495 = AXIS2_PLACEMENT_3D('',#496,#497,#498);
#496 = CARTESIAN_POINT('',(21.205222929936,1.428373010321,3.339661712384
    ));
#497 = DIRECTION('',(0.,-0.342020143326,-0.939692620786));
#498 = DIRECTION('',(-1.,0.,0.));
#499 = ADVANCED_FACE('',(#500),#506,.F.);
#500 = FACE_BOUND('',#501,.T.);
#501 = EDGE_LOOP('',(#502,#503,#504,#505));
#502 = ORIENTED_EDGE('',*,*,#405,.T.);
#503 = ORIENTED_EDGE('',*,*,#436,.T.);
#504 = ORIENTED_EDGE('',*,*,#467,.T.);
#505 = ORIENTED_EDGE('',*,*,#489,.T.);
#506 = PLANE('',#507);
#507 = AXIS2_PLACEMENT_3D('',#508,#509,#510);
#508 = CARTESIAN_POINT('',(21.508029060596,2.41939121229,6.062461844562)
  );
#509 = DIRECTION('',(0.,-0.939692620786,0.342020143326));
#510 = DIRECTION('',(1.,0.,0.));
#511 = ADVANCED_FACE('',(#512),#518,.T.);
#512 = FACE_BOUND('',#513,.F.);
#513 = EDGE_LOOP('',(#514,#515,#516,#517));
#514 = ORIENTED_EDGE('',*,*,#389,.T.);
#515 = ORIENTED_EDGE('',*,*,#420,.T.);
#516 = ORIENTED_EDGE('',*,*,#451,.T.);
#517 = ORIENTED_EDGE('',*,*,#482,.T.);
#518 = PLANE('',#519);
#519 = AXIS2_PLACEMENT_3D('',#520,#521,#522);
#520 = CARTESIAN_POINT('',(21.508029060596,1.667637115662,6.336077959222
    ));
#521 = DIRECTION('',(0.,-0.939692620786,0.342020143326));
#522 = DIRECTION('',(1.,0.,0.));
#523 = MANIFOLD_SOLID_BREP('',#524);
#524 = CLOSED_SHELL('',(#525,#567,#600,#633,#666,#699,#732,#765,#798,
    #831,#864,#897,#930,#963,#996,#1029,#1053,#1077));
#525 = ADVANCED_FACE('',(#526),#560,.T.);
#526 = FACE_BOUND('',#527,.T.);
#527 = EDGE_LOOP('',(#528,#538,#546,#554));
#528 = ORIENTED_EDGE('',*,*,#529,.T.);
#529 = EDGE_CURVE('',#530,#532,#534,.T.);
#530 = VERTEX_POINT('',#531);
#531 = CARTESIAN_POINT('',(23.847770700637,2.497654329748,6.277487992553
    ));
#532 = VERTEX_POINT('',#533);
#533 = CARTESIAN_POINT('',(23.847770700637,1.745900233119,6.551104107214
    ));
#534 = LINE('',#535,#536);
#535 = CARTESIAN_POINT('',(23.847770700637,2.497654329748,6.277487992553
    ));
#536 = VECTOR('',#537,1.);
#537 = DIRECTION('',(0.,-0.939692620786,0.342020143326));
#538 = ORIENTED_EDGE('',*,*,#539,.T.);
#539 = EDGE_CURVE('',#532,#540,#542,.T.);
#540 = VERTEX_POINT('',#541);
#541 = CARTESIAN_POINT('',(23.241910828025,1.911899818606,7.007184219977
    ));
#542 = B_SPLINE_CURVE_WITH_KNOTS('',2,(#543,#544,#545),.UNSPECIFIED.,.F.
  ,.F.,(3,3),(0.,1.),.PIECEWISE_BEZIER_KNOTS.);
#543 = CARTESIAN_POINT('',(23.847770700637,1.745900233119,6.551104107214
    ));
#544 = CARTESIAN_POINT('',(23.431210191083,1.806287483903,6.717016715164
    ));
#545 = CARTESIAN_POINT('',(23.241910828025,1.911899818606,7.007184219977
    ));
#546 = ORIENTED_EDGE('',*,*,#547,.F.);
#547 = EDGE_CURVE('',#548,#540,#550,.T.);
#548 = VERTEX_POINT('',#549);
#549 = CARTESIAN_POINT('',(23.241910828025,2.663653915235,6.733568105317
    ));
#550 = LINE('',#551,#552);
#551 = CARTESIAN_POINT('',(23.241910828025,2.663653915235,6.733568105317
    ));
#552 = VECTOR('',#553,1.);
#553 = DIRECTION('',(0.,-0.939692620786,0.342020143326));
#554 = ORIENTED_EDGE('',*,*,#555,.F.);
#555 = EDGE_CURVE('',#530,#548,#556,.T.);
#556 = B_SPLINE_CURVE_WITH_KNOTS('',2,(#557,#558,#559),.UNSPECIFIED.,.F.
  ,.F.,(3,3),(0.,1.),.PIECEWISE_BEZIER_KNOTS.);
#557 = CARTESIAN_POINT('',(23.847770700637,2.497654329748,6.277487992553
    ));
#558 = CARTESIAN_POINT('',(23.431210191083,2.558041580531,6.443400600503
    ));
#559 = CARTESIAN_POINT('',(23.241910828025,2.663653915235,6.733568105317
    ));
#560 = SURFACE_OF_LINEAR_EXTRUSION('',#561,#565);
#561 = B_SPLINE_CURVE_WITH_KNOTS('',2,(#562,#563,#564),.UNSPECIFIED.,.F.
  ,.F.,(3,3),(0.,1.),.PIECEWISE_BEZIER_KNOTS.);
#562 = CARTESIAN_POINT('',(23.847770700637,2.497654329748,6.277487992553
    ));
#563 = CARTESIAN_POINT('',(23.431210191083,2.558041580531,6.443400600503
    ));
#564 = CARTESIAN_POINT('',(23.241910828025,2.663653915235,6.733568105317
    ));
#565 = VECTOR('',#566,1.);
#566 = DIRECTION('',(-0.,0.939692620786,-0.342020143326));
#567 = ADVANCED_FACE('',(#568),#593,.T.);
#568 = FACE_BOUND('',#569,.T.);
#569 = EDGE_LOOP('',(#570,#571,#579,#587));
#570 = ORIENTED_EDGE('',*,*,#547,.T.);
#571 = ORIENTED_EDGE('',*,*,#572,.T.);
#572 = EDGE_CURVE('',#540,#573,#575,.T.);
#573 = VERTEX_POINT('',#574);
#574 = CARTESIAN_POINT('',(23.052866242038,2.143602127167,7.643781080785
    ));
#575 = B_SPLINE_CURVE_WITH_KNOTS('',2,(#576,#577,#578),.UNSPECIFIED.,.F.
  ,.F.,(3,3),(0.,1.),.PIECEWISE_BEZIER_KNOTS.);
#576 = CARTESIAN_POINT('',(23.241910828025,1.911899818606,7.007184219977
    ));
#577 = CARTESIAN_POINT('',(23.052866242038,2.017599292199,7.297591136923
    ));
#578 = CARTESIAN_POINT('',(23.052866242038,2.143602127167,7.643781080785
    ));
#579 = ORIENTED_EDGE('',*,*,#580,.F.);
#580 = EDGE_CURVE('',#581,#573,#583,.T.);
#581 = VERTEX_POINT('',#582);
#582 = CARTESIAN_POINT('',(23.052866242038,2.895356223796,7.370164966124
    ));
#583 = LINE('',#584,#585);
#584 = CARTESIAN_POINT('',(23.052866242038,2.895356223796,7.370164966124
    ));
#585 = VECTOR('',#586,1.);
#586 = DIRECTION('',(0.,-0.939692620786,0.342020143326));
#587 = ORIENTED_EDGE('',*,*,#588,.F.);
#588 = EDGE_CURVE('',#548,#581,#589,.T.);
#589 = B_SPLINE_CURVE_WITH_KNOTS('',2,(#590,#591,#592),.UNSPECIFIED.,.F.
  ,.F.,(3,3),(0.,1.),.PIECEWISE_BEZIER_KNOTS.);
#590 = CARTESIAN_POINT('',(23.241910828025,2.663653915235,6.733568105317
    ));
#591 = CARTESIAN_POINT('',(23.052866242038,2.769353388828,7.023975022263
    ));
#592 = CARTESIAN_POINT('',(23.052866242038,2.895356223796,7.370164966124
    ));
#593 = SURFACE_OF_LINEAR_EXTRUSION('',#594,#598);
#594 = B_SPLINE_CURVE_WITH_KNOTS('',2,(#595,#596,#597),.UNSPECIFIED.,.F.
  ,.F.,(3,3),(0.,1.),.PIECEWISE_BEZIER_KNOTS.);
#595 = CARTESIAN_POINT('',(23.241910828025,2.663653915235,6.733568105317
    ));
#596 = CARTESIAN_POINT('',(23.052866242038,2.769353388828,7.023975022263
    ));
#597 = CARTESIAN_POINT('',(23.052866242038,2.895356223796,7.370164966124
    ));
#598 = VECTOR('',#599,1.);
#599 = DIRECTION('',(-0.,0.939692620786,-0.342020143326));
#600 = ADVANCED_FACE('',(#601),#626,.T.);
#601 = FACE_BOUND('',#602,.T.);
#602 = EDGE_LOOP('',(#603,#604,#612,#620));
#603 = ORIENTED_EDGE('',*,*,#580,.T.);
#604 = ORIENTED_EDGE('',*,*,#605,.T.);
#605 = EDGE_CURVE('',#573,#606,#608,.T.);
#606 = VERTEX_POINT('',#607);
#607 = CARTESIAN_POINT('',(23.490318471338,2.499215937336,8.62082199427)
  );
#608 = B_SPLINE_CURVE_WITH_KNOTS('',2,(#609,#610,#611),.UNSPECIFIED.,.F.
  ,.F.,(3,3),(0.,1.),.PIECEWISE_BEZIER_KNOTS.);
#609 = CARTESIAN_POINT('',(23.052866242038,2.143602127167,7.643781080785
    ));
#610 = CARTESIAN_POINT('',(23.052866242038,2.358835185515,8.235129048515
    ));
#611 = CARTESIAN_POINT('',(23.490318471338,2.499215937336,8.62082199427)
  );
#612 = ORIENTED_EDGE('',*,*,#613,.F.);
#613 = EDGE_CURVE('',#614,#606,#616,.T.);
#614 = VERTEX_POINT('',#615);
#615 = CARTESIAN_POINT('',(23.490318471338,3.250970033965,8.347205879609
    ));
#616 = LINE('',#617,#618);
#617 = CARTESIAN_POINT('',(23.490318471338,3.250970033965,8.347205879609
    ));
#618 = VECTOR('',#619,1.);
#619 = DIRECTION('',(0.,-0.939692620786,0.342020143326));
#620 = ORIENTED_EDGE('',*,*,#621,.F.);
#621 = EDGE_CURVE('',#581,#614,#622,.T.);
#622 = B_SPLINE_CURVE_WITH_KNOTS('',2,(#623,#624,#625),.UNSPECIFIED.,.F.
  ,.F.,(3,3),(0.,1.),.PIECEWISE_BEZIER_KNOTS.);
#623 = CARTESIAN_POINT('',(23.052866242038,2.895356223796,7.370164966124
    ));
#624 = CARTESIAN_POINT('',(23.052866242038,3.110589282144,7.961512933855
    ));
#625 = CARTESIAN_POINT('',(23.490318471338,3.250970033965,8.347205879609
    ));
#626 = SURFACE_OF_LINEAR_EXTRUSION('',#627,#631);
#627 = B_SPLINE_CURVE_WITH_KNOTS('',2,(#628,#629,#630),.UNSPECIFIED.,.F.
  ,.F.,(3,3),(0.,1.),.PIECEWISE_BEZIER_KNOTS.);
#628 = CARTESIAN_POINT('',(23.052866242038,2.895356223796,7.370164966124
    ));
#629 = CARTESIAN_POINT('',(23.052866242038,3.110589282144,7.961512933855
    ));
#630 = CARTESIAN_POINT('',(23.490318471338,3.250970033965,8.347205879609
    ));
#631 = VECTOR('',#632,1.);
#632 = DIRECTION('',(-0.,0.939692620786,-0.342020143326));
#633 = ADVANCED_FACE('',(#634),#659,.T.);
#634 = FACE_BOUND('',#635,.T.);
#635 = EDGE_LOOP('',(#636,#637,#645,#653));
#636 = ORIENTED_EDGE('',*,*,#613,.T.);
#637 = ORIENTED_EDGE('',*,*,#638,.T.);
#638 = EDGE_CURVE('',#606,#639,#641,.T.);
#639 = VERTEX_POINT('',#640);
#640 = CARTESIAN_POINT('',(24.734394904459,2.639683828047,9.006754352157
    ));
#641 = B_SPLINE_CURVE_WITH_KNOTS('',2,(#642,#643,#644),.UNSPECIFIED.,.F.
  ,.F.,(3,3),(0.,1.),.PIECEWISE_BEZIER_KNOTS.);
#642 = CARTESIAN_POINT('',(23.490318471338,2.499215937336,8.62082199427)
  );
#643 = CARTESIAN_POINT('',(23.928025477707,2.639683828047,9.006754352157
    ));
#644 = CARTESIAN_POINT('',(24.734394904459,2.639683828047,9.006754352157
    ));
#645 = ORIENTED_EDGE('',*,*,#646,.F.);
#646 = EDGE_CURVE('',#647,#639,#649,.T.);
#647 = VERTEX_POINT('',#648);
#648 = CARTESIAN_POINT('',(24.734394904459,3.391437924676,8.733138237496
    ));
#649 = LINE('',#650,#651);
#650 = CARTESIAN_POINT('',(24.734394904459,3.391437924676,8.733138237496
    ));
#651 = VECTOR('',#652,1.);
#652 = DIRECTION('',(0.,-0.939692620786,0.342020143326));
#653 = ORIENTED_EDGE('',*,*,#654,.F.);
#654 = EDGE_CURVE('',#614,#647,#655,.T.);
#655 = B_SPLINE_CURVE_WITH_KNOTS('',2,(#656,#657,#658),.UNSPECIFIED.,.F.
  ,.F.,(3,3),(0.,1.),.PIECEWISE_BEZIER_KNOTS.);
#656 = CARTESIAN_POINT('',(23.490318471338,3.250970033965,8.347205879609
    ));
#657 = CARTESIAN_POINT('',(23.928025477707,3.391437924676,8.733138237496
    ));
#658 = CARTESIAN_POINT('',(24.734394904459,3.391437924676,8.733138237496
    ));
#659 = SURFACE_OF_LINEAR_EXTRUSION('',#660,#664);
#660 = B_SPLINE_CURVE_WITH_KNOTS('',2,(#661,#662,#663),.UNSPECIFIED.,.F.
  ,.F.,(3,3),(0.,1.),.PIECEWISE_BEZIER_KNOTS.);
#661 = CARTESIAN_POINT('',(23.490318471338,3.250970033965,8.347205879609
    ));
#662 = CARTESIAN_POINT('',(23.928025477707,3.391437924676,8.733138237496
    ));
#663 = CARTESIAN_POINT('',(24.734394904459,3.391437924676,8.733138237496
    ));
#664 = VECTOR('',#665,1.);
#665 = DIRECTION('',(-0.,0.939692620786,-0.342020143326));
#666 = ADVANCED_FACE('',(#667),#692,.T.);
#667 = FACE_BOUND('',#668,.T.);
#668 = EDGE_LOOP('',(#669,#670,#678,#686));
#669 = ORIENTED_EDGE('',*,*,#646,.T.);
#670 = ORIENTED_EDGE('',*,*,#671,.T.);
#671 = EDGE_CURVE('',#639,#672,#674,.T.);
#672 = VERTEX_POINT('',#673);
#673 = CARTESIAN_POINT('',(25.974394904459,2.499215937336,8.62082199427)
  );
#674 = B_SPLINE_CURVE_WITH_KNOTS('',2,(#675,#676,#677),.UNSPECIFIED.,.F.
  ,.F.,(3,3),(0.,1.),.PIECEWISE_BEZIER_KNOTS.);
#675 = CARTESIAN_POINT('',(24.734394904459,2.639683828047,9.006754352157
    ));
#676 = CARTESIAN_POINT('',(25.533121019108,2.639683828047,9.006754352157
    ));
#677 = CARTESIAN_POINT('',(25.974394904459,2.499215937336,8.62082199427)
  );
#678 = ORIENTED_EDGE('',*,*,#679,.F.);
#679 = EDGE_CURVE('',#680,#672,#682,.T.);
#680 = VERTEX_POINT('',#681);
#681 = CARTESIAN_POINT('',(25.974394904459,3.250970033965,8.347205879609
    ));
#682 = LINE('',#683,#684);
#683 = CARTESIAN_POINT('',(25.974394904459,3.250970033965,8.347205879609
    ));
#684 = VECTOR('',#685,1.);
#685 = DIRECTION('',(0.,-0.939692620786,0.342020143326));
#686 = ORIENTED_EDGE('',*,*,#687,.F.);
#687 = EDGE_CURVE('',#647,#680,#688,.T.);
#688 = B_SPLINE_CURVE_WITH_KNOTS('',2,(#689,#690,#691),.UNSPECIFIED.,.F.
  ,.F.,(3,3),(0.,1.),.PIECEWISE_BEZIER_KNOTS.);
#689 = CARTESIAN_POINT('',(24.734394904459,3.391437924676,8.733138237496
    ));
#690 = CARTESIAN_POINT('',(25.533121019108,3.391437924676,8.733138237496
    ));
#691 = CARTESIAN_POINT('',(25.974394904459,3.250970033965,8.347205879609
    ));
#692 = SURFACE_OF_LINEAR_EXTRUSION('',#693,#697);
#693 = B_SPLINE_CURVE_WITH_KNOTS('',2,(#694,#695,#696),.UNSPECIFIED.,.F.
  ,.F.,(3,3),(0.,1.),.PIECEWISE_BEZIER_KNOTS.);
#694 = CARTESIAN_POINT('',(24.734394904459,3.391437924676,8.733138237496
    ));
#695 = CARTESIAN_POINT('',(25.533121019108,3.391437924676,8.733138237496
    ));
#696 = CARTESIAN_POINT('',(25.974394904459,3.250970033965,8.347205879609
    ));
#697 = VECTOR('',#698,1.);
#698 = DIRECTION('',(-0.,0.939692620786,-0.342020143326));
#699 = ADVANCED_FACE('',(#700),#725,.T.);
#700 = FACE_BOUND('',#701,.T.);
#701 = EDGE_LOOP('',(#702,#703,#711,#719));
#702 = ORIENTED_EDGE('',*,*,#679,.T.);
#703 = ORIENTED_EDGE('',*,*,#704,.T.);
#704 = EDGE_CURVE('',#672,#705,#707,.T.);
#705 = VERTEX_POINT('',#706);
#706 = CARTESIAN_POINT('',(26.415923566879,2.143602127167,7.643781080785
    ));
#707 = B_SPLINE_CURVE_WITH_KNOTS('',2,(#708,#709,#710),.UNSPECIFIED.,.F.
  ,.F.,(3,3),(0.,1.),.PIECEWISE_BEZIER_KNOTS.);
#708 = CARTESIAN_POINT('',(25.974394904459,2.499215937336,8.62082199427)
  );
#709 = CARTESIAN_POINT('',(26.415923566879,2.358835185515,8.235129048515
    ));
#710 = CARTESIAN_POINT('',(26.415923566879,2.143602127167,7.643781080785
    ));
#711 = ORIENTED_EDGE('',*,*,#712,.F.);
#712 = EDGE_CURVE('',#713,#705,#715,.T.);
#713 = VERTEX_POINT('',#714);
#714 = CARTESIAN_POINT('',(26.415923566879,2.895356223796,7.370164966124
    ));
#715 = LINE('',#716,#717);
#716 = CARTESIAN_POINT('',(26.415923566879,2.895356223796,7.370164966124
    ));
#717 = VECTOR('',#718,1.);
#718 = DIRECTION('',(0.,-0.939692620786,0.342020143326));
#719 = ORIENTED_EDGE('',*,*,#720,.F.);
#720 = EDGE_CURVE('',#680,#713,#721,.T.);
#721 = B_SPLINE_CURVE_WITH_KNOTS('',2,(#722,#723,#724),.UNSPECIFIED.,.F.
  ,.F.,(3,3),(0.,1.),.PIECEWISE_BEZIER_KNOTS.);
#722 = CARTESIAN_POINT('',(25.974394904459,3.250970033965,8.347205879609
    ));
#723 = CARTESIAN_POINT('',(26.415923566879,3.110589282144,7.961512933855
    ));
#724 = CARTESIAN_POINT('',(26.415923566879,2.895356223796,7.370164966124
    ));
#725 = SURFACE_OF_LINEAR_EXTRUSION('',#726,#730);
#726 = B_SPLINE_CURVE_WITH_KNOTS('',2,(#727,#728,#729),.UNSPECIFIED.,.F.
  ,.F.,(3,3),(0.,1.),.PIECEWISE_BEZIER_KNOTS.);
#727 = CARTESIAN_POINT('',(25.974394904459,3.250970033965,8.347205879609
    ));
#728 = CARTESIAN_POINT('',(26.415923566879,3.110589282144,7.961512933855
    ));
#729 = CARTESIAN_POINT('',(26.415923566879,2.895356223796,7.370164966124
    ));
#730 = VECTOR('',#731,1.);
#731 = DIRECTION('',(-0.,0.939692620786,-0.342020143326));
#732 = ADVANCED_FACE('',(#733),#758,.T.);
#733 = FACE_BOUND('',#734,.T.);
#734 = EDGE_LOOP('',(#735,#736,#744,#752));
#735 = ORIENTED_EDGE('',*,*,#712,.T.);
#736 = ORIENTED_EDGE('',*,*,#737,.T.);
#737 = EDGE_CURVE('',#705,#738,#740,.T.);
#738 = VERTEX_POINT('',#739);
#739 = CARTESIAN_POINT('',(26.213375796178,1.905364401855,6.989228310026
    ));
#740 = B_SPLINE_CURVE_WITH_KNOTS('',2,(#741,#742,#743),.UNSPECIFIED.,.F.
  ,.F.,(3,3),(0.,1.),.PIECEWISE_BEZIER_KNOTS.);
#741 = CARTESIAN_POINT('',(26.415923566879,2.143602127167,7.643781080785
    ));
#742 = CARTESIAN_POINT('',(26.415923566879,2.009669653208,7.275804632849
    ));
#743 = CARTESIAN_POINT('',(26.213375796178,1.905364401855,6.989228310026
    ));
#744 = ORIENTED_EDGE('',*,*,#745,.F.);
#745 = EDGE_CURVE('',#746,#738,#748,.T.);
#746 = VERTEX_POINT('',#747);
#747 = CARTESIAN_POINT('',(26.213375796178,2.657118498483,6.715612195366
    ));
#748 = LINE('',#749,#750);
#749 = CARTESIAN_POINT('',(26.213375796178,2.657118498483,6.715612195366
    ));
#750 = VECTOR('',#751,1.);
#751 = DIRECTION('',(0.,-0.939692620786,0.342020143326));
#752 = ORIENTED_EDGE('',*,*,#753,.F.);
#753 = EDGE_CURVE('',#713,#746,#754,.T.);
#754 = B_SPLINE_CURVE_WITH_KNOTS('',2,(#755,#756,#757),.UNSPECIFIED.,.F.
  ,.F.,(3,3),(0.,1.),.PIECEWISE_BEZIER_KNOTS.);
#755 = CARTESIAN_POINT('',(26.415923566879,2.895356223796,7.370164966124
    ));
#756 = CARTESIAN_POINT('',(26.415923566879,2.761423749836,7.002188518189
    ));
#757 = CARTESIAN_POINT('',(26.213375796178,2.657118498483,6.715612195366
    ));
#758 = SURFACE_OF_LINEAR_EXTRUSION('',#759,#763);
#759 = B_SPLINE_CURVE_WITH_KNOTS('',2,(#760,#761,#762),.UNSPECIFIED.,.F.
  ,.F.,(3,3),(0.,1.),.PIECEWISE_BEZIER_KNOTS.);
#760 = CARTESIAN_POINT('',(26.415923566879,2.895356223796,7.370164966124
    ));
#761 = CARTESIAN_POINT('',(26.415923566879,2.761423749836,7.002188518189
    ));
#762 = CARTESIAN_POINT('',(26.213375796178,2.657118498483,6.715612195366
    ));
#763 = VECTOR('',#764,1.);
#764 = DIRECTION('',(-0.,0.939692620786,-0.342020143326));
#765 = ADVANCED_FACE('',(#766),#791,.T.);
#766 = FACE_BOUND('',#767,.T.);
#767 = EDGE_LOOP('',(#768,#769,#777,#785));
#768 = ORIENTED_EDGE('',*,*,#745,.T.);
#769 = ORIENTED_EDGE('',*,*,#770,.T.);
#770 = EDGE_CURVE('',#738,#771,#773,.T.);
#771 = VERTEX_POINT('',#772);
#772 = CARTESIAN_POINT('',(25.643949044586,1.745900233119,6.551104107214
    ));
#773 = B_SPLINE_CURVE_WITH_KNOTS('',2,(#774,#775,#776),.UNSPECIFIED.,.F.
  ,.F.,(3,3),(0.,1.),.PIECEWISE_BEZIER_KNOTS.);
#774 = CARTESIAN_POINT('',(26.213375796178,1.905364401855,6.989228310026
    ));
#775 = CARTESIAN_POINT('',(26.010828025478,1.801059150502,6.702651987203
    ));
#776 = CARTESIAN_POINT('',(25.643949044586,1.745900233119,6.551104107214
    ));
#777 = ORIENTED_EDGE('',*,*,#778,.F.);
#778 = EDGE_CURVE('',#779,#771,#781,.T.);
#779 = VERTEX_POINT('',#780);
#780 = CARTESIAN_POINT('',(25.643949044586,2.497654329748,6.277487992553
    ));
#781 = LINE('',#782,#783);
#782 = CARTESIAN_POINT('',(25.643949044586,2.497654329748,6.277487992553
    ));
#783 = VECTOR('',#784,1.);
#784 = DIRECTION('',(0.,-0.939692620786,0.342020143326));
#785 = ORIENTED_EDGE('',*,*,#786,.F.);
#786 = EDGE_CURVE('',#746,#779,#787,.T.);
#787 = B_SPLINE_CURVE_WITH_KNOTS('',2,(#788,#789,#790),.UNSPECIFIED.,.F.
  ,.F.,(3,3),(0.,1.),.PIECEWISE_BEZIER_KNOTS.);
#788 = CARTESIAN_POINT('',(26.213375796178,2.657118498483,6.715612195366
    ));
#789 = CARTESIAN_POINT('',(26.010828025478,2.55281324713,6.429035872542)
  );
#790 = CARTESIAN_POINT('',(25.643949044586,2.497654329748,6.277487992553
    ));
#791 = SURFACE_OF_LINEAR_EXTRUSION('',#792,#796);
#792 = B_SPLINE_CURVE_WITH_KNOTS('',2,(#793,#794,#795),.UNSPECIFIED.,.F.
  ,.F.,(3,3),(0.,1.),.PIECEWISE_BEZIER_KNOTS.);
#793 = CARTESIAN_POINT('',(26.213375796178,2.657118498483,6.715612195366
    ));
#794 = CARTESIAN_POINT('',(26.010828025478,2.55281324713,6.429035872542)
  );
#795 = CARTESIAN_POINT('',(25.643949044586,2.497654329748,6.277487992553
    ));
#796 = VECTOR('',#797,1.);
#797 = DIRECTION('',(-0.,0.939692620786,-0.342020143326));
#798 = ADVANCED_FACE('',(#799),#824,.T.);
#799 = FACE_BOUND('',#800,.T.);
#800 = EDGE_LOOP('',(#801,#802,#810,#818));
#801 = ORIENTED_EDGE('',*,*,#778,.T.);
#802 = ORIENTED_EDGE('',*,*,#803,.T.);
#803 = EDGE_CURVE('',#771,#804,#806,.T.);
#804 = VERTEX_POINT('',#805);
#805 = CARTESIAN_POINT('',(26.352738853503,1.558725897358,6.036846846208
    ));
#806 = B_SPLINE_CURVE_WITH_KNOTS('',2,(#807,#808,#809),.UNSPECIFIED.,.F.
  ,.F.,(3,3),(0.,1.),.PIECEWISE_BEZIER_KNOTS.);
#807 = CARTESIAN_POINT('',(25.643949044586,1.745900233119,6.551104107214
    ));
#808 = CARTESIAN_POINT('',(26.110191082803,1.681766010065,6.374896777558
    ));
#809 = CARTESIAN_POINT('',(26.352738853503,1.558725897358,6.036846846208
    ));
#810 = ORIENTED_EDGE('',*,*,#811,.F.);
#811 = EDGE_CURVE('',#812,#804,#814,.T.);
#812 = VERTEX_POINT('',#813);
#813 = CARTESIAN_POINT('',(26.352738853503,2.310479993987,5.763230731547
    ));
#814 = LINE('',#815,#816);
#815 = CARTESIAN_POINT('',(26.352738853503,2.310479993987,5.763230731547
    ));
#816 = VECTOR('',#817,1.);
#817 = DIRECTION('',(0.,-0.939692620786,0.342020143326));
#818 = ORIENTED_EDGE('',*,*,#819,.F.);
#819 = EDGE_CURVE('',#779,#812,#820,.T.);
#820 = B_SPLINE_CURVE_WITH_KNOTS('',2,(#821,#822,#823),.UNSPECIFIED.,.F.
  ,.F.,(3,3),(0.,1.),.PIECEWISE_BEZIER_KNOTS.);
#821 = CARTESIAN_POINT('',(25.643949044586,2.497654329748,6.277487992553
    ));
#822 = CARTESIAN_POINT('',(26.110191082803,2.433520106694,6.101280662898
    ));
#823 = CARTESIAN_POINT('',(26.352738853503,2.310479993987,5.763230731547
    ));
#824 = SURFACE_OF_LINEAR_EXTRUSION('',#825,#829);
#825 = B_SPLINE_CURVE_WITH_KNOTS('',2,(#826,#827,#828),.UNSPECIFIED.,.F.
  ,.F.,(3,3),(0.,1.),.PIECEWISE_BEZIER_KNOTS.);
#826 = CARTESIAN_POINT('',(25.643949044586,2.497654329748,6.277487992553
    ));
#827 = CARTESIAN_POINT('',(26.110191082803,2.433520106694,6.101280662898
    ));
#828 = CARTESIAN_POINT('',(26.352738853503,2.310479993987,5.763230731547
    ));
#829 = VECTOR('',#830,1.);
#830 = DIRECTION('',(-0.,0.939692620786,-0.342020143326));
#831 = ADVANCED_FACE('',(#832),#857,.T.);
#832 = FACE_BOUND('',#833,.T.);
#833 = EDGE_LOOP('',(#834,#835,#843,#851));
#834 = ORIENTED_EDGE('',*,*,#811,.T.);
#835 = ORIENTED_EDGE('',*,*,#836,.T.);
#836 = EDGE_CURVE('',#804,#837,#839,.T.);
#837 = VERTEX_POINT('',#838);
#838 = CARTESIAN_POINT('',(26.595541401274,1.274740254785,5.25660270579)
  );
#839 = B_SPLINE_CURVE_WITH_KNOTS('',2,(#840,#841,#842),.UNSPECIFIED.,.F.
  ,.F.,(3,3),(0.,1.),.PIECEWISE_BEZIER_KNOTS.);
#840 = CARTESIAN_POINT('',(26.352738853503,1.558725897358,6.036846846208
    ));
#841 = CARTESIAN_POINT('',(26.595541401274,1.435685784651,5.698796914858
    ));
#842 = CARTESIAN_POINT('',(26.595541401274,1.274740254785,5.25660270579)
  );
#843 = ORIENTED_EDGE('',*,*,#844,.F.);
#844 = EDGE_CURVE('',#845,#837,#847,.T.);
#845 = VERTEX_POINT('',#846);
#846 = CARTESIAN_POINT('',(26.595541401274,2.026494351414,4.982986591129
    ));
#847 = LINE('',#848,#849);
#848 = CARTESIAN_POINT('',(26.595541401274,2.026494351414,4.982986591129
    ));
#849 = VECTOR('',#850,1.);
#850 = DIRECTION('',(0.,-0.939692620786,0.342020143326));
#851 = ORIENTED_EDGE('',*,*,#852,.F.);
#852 = EDGE_CURVE('',#812,#845,#853,.T.);
#853 = B_SPLINE_CURVE_WITH_KNOTS('',2,(#854,#855,#856),.UNSPECIFIED.,.F.
  ,.F.,(3,3),(0.,1.),.PIECEWISE_BEZIER_KNOTS.);
#854 = CARTESIAN_POINT('',(26.352738853503,2.310479993987,5.763230731547
    ));
#855 = CARTESIAN_POINT('',(26.595541401274,2.187439881279,5.425180800197
    ));
#856 = CARTESIAN_POINT('',(26.595541401274,2.026494351414,4.982986591129
    ));
#857 = SURFACE_OF_LINEAR_EXTRUSION('',#858,#862);
#858 = B_SPLINE_CURVE_WITH_KNOTS('',2,(#859,#860,#861),.UNSPECIFIED.,.F.
  ,.F.,(3,3),(0.,1.),.PIECEWISE_BEZIER_KNOTS.);
#859 = CARTESIAN_POINT('',(26.352738853503,2.310479993987,5.763230731547
    ));
#860 = CARTESIAN_POINT('',(26.595541401274,2.187439881279,5.425180800197
    ));
#861 = CARTESIAN_POINT('',(26.595541401274,2.026494351414,4.982986591129
    ));
#862 = VECTOR('',#863,1.);
#863 = DIRECTION('',(-0.,0.939692620786,-0.342020143326));
#864 = ADVANCED_FACE('',(#865),#890,.T.);
#865 = FACE_BOUND('',#866,.T.);
#866 = EDGE_LOOP('',(#867,#868,#876,#884));
#867 = ORIENTED_EDGE('',*,*,#844,.T.);
#868 = ORIENTED_EDGE('',*,*,#869,.T.);
#869 = EDGE_CURVE('',#837,#870,#872,.T.);
#870 = VERTEX_POINT('',#871);
#871 = CARTESIAN_POINT('',(26.10050955414,0.84279277696,4.069836764074)
  );
#872 = B_SPLINE_CURVE_WITH_KNOTS('',2,(#873,#874,#875),.UNSPECIFIED.,.F.
  ,.F.,(3,3),(0.,1.),.PIECEWISE_BEZIER_KNOTS.);
#873 = CARTESIAN_POINT('',(26.595541401274,1.274740254785,5.25660270579)
  );
#874 = CARTESIAN_POINT('',(26.595541401274,1.009053779116,4.526635113235
    ));
#875 = CARTESIAN_POINT('',(26.10050955414,0.84279277696,4.069836764074)
  );
#876 = ORIENTED_EDGE('',*,*,#877,.F.);
#877 = EDGE_CURVE('',#878,#870,#880,.T.);
#878 = VERTEX_POINT('',#879);
#879 = CARTESIAN_POINT('',(26.10050955414,1.594546873588,3.796220649413)
  );
#880 = LINE('',#881,#882);
#881 = CARTESIAN_POINT('',(26.10050955414,1.594546873588,3.796220649413)
  );
#882 = VECTOR('',#883,1.);
#883 = DIRECTION('',(0.,-0.939692620786,0.342020143326));
#884 = ORIENTED_EDGE('',*,*,#885,.F.);
#885 = EDGE_CURVE('',#845,#878,#886,.T.);
#886 = B_SPLINE_CURVE_WITH_KNOTS('',2,(#887,#888,#889),.UNSPECIFIED.,.F.
  ,.F.,(3,3),(0.,1.),.PIECEWISE_BEZIER_KNOTS.);
#887 = CARTESIAN_POINT('',(26.595541401274,2.026494351414,4.982986591129
    ));
#888 = CARTESIAN_POINT('',(26.595541401274,1.760807875745,4.253018998575
    ));
#889 = CARTESIAN_POINT('',(26.10050955414,1.594546873588,3.796220649413)
  );
#890 = SURFACE_OF_LINEAR_EXTRUSION('',#891,#895);
#891 = B_SPLINE_CURVE_WITH_KNOTS('',2,(#892,#893,#894),.UNSPECIFIED.,.F.
  ,.F.,(3,3),(0.,1.),.PIECEWISE_BEZIER_KNOTS.);
#892 = CARTESIAN_POINT('',(26.595541401274,2.026494351414,4.982986591129
    ));
#893 = CARTESIAN_POINT('',(26.595541401274,1.760807875745,4.253018998575
    ));
#894 = CARTESIAN_POINT('',(26.10050955414,1.594546873588,3.796220649413)
  );
#895 = VECTOR('',#896,1.);
#896 = DIRECTION('',(-0.,0.939692620786,-0.342020143326));
#897 = ADVANCED_FACE('',(#898),#923,.T.);
#898 = FACE_BOUND('',#899,.T.);
#899 = EDGE_LOOP('',(#900,#901,#909,#917));
#900 = ORIENTED_EDGE('',*,*,#877,.T.);
#901 = ORIENTED_EDGE('',*,*,#902,.T.);
#902 = EDGE_CURVE('',#870,#903,#905,.T.);
#903 = VERTEX_POINT('',#904);
#904 = CARTESIAN_POINT('',(24.784076433121,0.676618913693,3.613277827045
    ));
#905 = B_SPLINE_CURVE_WITH_KNOTS('',2,(#906,#907,#908),.UNSPECIFIED.,.F.
  ,.F.,(3,3),(0.,1.),.PIECEWISE_BEZIER_KNOTS.);
#906 = CARTESIAN_POINT('',(26.10050955414,0.84279277696,4.069836764074)
  );
#907 = CARTESIAN_POINT('',(25.605732484076,0.676618913693,3.613277827045
    ));
#908 = CARTESIAN_POINT('',(24.784076433121,0.676618913693,3.613277827045
    ));
#909 = ORIENTED_EDGE('',*,*,#910,.F.);
#910 = EDGE_CURVE('',#911,#903,#913,.T.);
#911 = VERTEX_POINT('',#912);
#912 = CARTESIAN_POINT('',(24.784076433121,1.428373010321,3.339661712384
    ));
#913 = LINE('',#914,#915);
#914 = CARTESIAN_POINT('',(24.784076433121,1.428373010321,3.339661712384
    ));
#915 = VECTOR('',#916,1.);
#916 = DIRECTION('',(0.,-0.939692620786,0.342020143326));
#917 = ORIENTED_EDGE('',*,*,#918,.F.);
#918 = EDGE_CURVE('',#878,#911,#919,.T.);
#919 = B_SPLINE_CURVE_WITH_KNOTS('',2,(#920,#921,#922),.UNSPECIFIED.,.F.
  ,.F.,(3,3),(0.,1.),.PIECEWISE_BEZIER_KNOTS.);
#920 = CARTESIAN_POINT('',(26.10050955414,1.594546873588,3.796220649413)
  );
#921 = CARTESIAN_POINT('',(25.605732484076,1.428373010321,3.339661712384
    ));
#922 = CARTESIAN_POINT('',(24.784076433121,1.428373010321,3.339661712384
    ));
#923 = SURFACE_OF_LINEAR_EXTRUSION('',#924,#928);
#924 = B_SPLINE_CURVE_WITH_KNOTS('',2,(#925,#926,#927),.UNSPECIFIED.,.F.
  ,.F.,(3,3),(0.,1.),.PIECEWISE_BEZIER_KNOTS.);
#925 = CARTESIAN_POINT('',(26.10050955414,1.594546873588,3.796220649413)
  );
#926 = CARTESIAN_POINT('',(25.605732484076,1.428373010321,3.339661712384
    ));
#927 = CARTESIAN_POINT('',(24.784076433121,1.428373010321,3.339661712384
    ));
#928 = VECTOR('',#929,1.);
#929 = DIRECTION('',(-0.,0.939692620786,-0.342020143326));
#930 = ADVANCED_FACE('',(#931),#956,.T.);
#931 = FACE_BOUND('',#932,.T.);
#932 = EDGE_LOOP('',(#933,#934,#942,#950));
#933 = ORIENTED_EDGE('',*,*,#910,.T.);
#934 = ORIENTED_EDGE('',*,*,#935,.T.);
#935 = EDGE_CURVE('',#903,#936,#938,.T.);
#936 = VERTEX_POINT('',#937);
#937 = CARTESIAN_POINT('',(23.511464968153,0.814036943253,3.990830760288
    ));
#938 = B_SPLINE_CURVE_WITH_KNOTS('',2,(#939,#940,#941),.UNSPECIFIED.,.F.
  ,.F.,(3,3),(0.,1.),.PIECEWISE_BEZIER_KNOTS.);
#939 = CARTESIAN_POINT('',(24.784076433121,0.676618913693,3.613277827045
    ));
#940 = CARTESIAN_POINT('',(24.01974522293,0.676618913693,3.613277827045)
  );
#941 = CARTESIAN_POINT('',(23.511464968153,0.814036943253,3.990830760288
    ));
#942 = ORIENTED_EDGE('',*,*,#943,.F.);
#943 = EDGE_CURVE('',#944,#936,#946,.T.);
#944 = VERTEX_POINT('',#945);
#945 = CARTESIAN_POINT('',(23.511464968153,1.565791039882,3.717214645627
    ));
#946 = LINE('',#947,#948);
#947 = CARTESIAN_POINT('',(23.511464968153,1.565791039882,3.717214645627
    ));
#948 = VECTOR('',#949,1.);
#949 = DIRECTION('',(0.,-0.939692620786,0.342020143326));
#950 = ORIENTED_EDGE('',*,*,#951,.F.);
#951 = EDGE_CURVE('',#911,#944,#952,.T.);
#952 = B_SPLINE_CURVE_WITH_KNOTS('',2,(#953,#954,#955),.UNSPECIFIED.,.F.
  ,.F.,(3,3),(0.,1.),.PIECEWISE_BEZIER_KNOTS.);
#953 = CARTESIAN_POINT('',(24.784076433121,1.428373010321,3.339661712384
    ));
#954 = CARTESIAN_POINT('',(24.01974522293,1.428373010321,3.339661712384)
  );
#955 = CARTESIAN_POINT('',(23.511464968153,1.565791039882,3.717214645627
    ));
#956 = SURFACE_OF_LINEAR_EXTRUSION('',#957,#961);
#957 = B_SPLINE_CURVE_WITH_KNOTS('',2,(#958,#959,#960),.UNSPECIFIED.,.F.
  ,.F.,(3,3),(0.,1.),.PIECEWISE_BEZIER_KNOTS.);
#958 = CARTESIAN_POINT('',(24.784076433121,1.428373010321,3.339661712384
    ));
#959 = CARTESIAN_POINT('',(24.01974522293,1.428373010321,3.339661712384)
  );
#960 = CARTESIAN_POINT('',(23.511464968153,1.565791039882,3.717214645627
    ));
#961 = VECTOR('',#962,1.);
#962 = DIRECTION('',(-0.,0.939692620786,-0.342020143326));
#963 = ADVANCED_FACE('',(#964),#989,.T.);
#964 = FACE_BOUND('',#965,.T.);
#965 = EDGE_LOOP('',(#966,#967,#975,#983));
#966 = ORIENTED_EDGE('',*,*,#943,.T.);
#967 = ORIENTED_EDGE('',*,*,#968,.T.);
#968 = EDGE_CURVE('',#936,#969,#971,.T.);
#969 = VERTEX_POINT('',#970);
#970 = CARTESIAN_POINT('',(22.911464968153,1.259055254582,5.213508521907
    ));
#971 = B_SPLINE_CURVE_WITH_KNOTS('',2,(#972,#973,#974),.UNSPECIFIED.,.F.
  ,.F.,(3,3),(0.,1.),.PIECEWISE_BEZIER_KNOTS.);
#972 = CARTESIAN_POINT('',(23.511464968153,0.814036943253,3.990830760288
    ));
#973 = CARTESIAN_POINT('',(22.911464968153,0.976289556469,4.436616151346
    ));
#974 = CARTESIAN_POINT('',(22.911464968153,1.259055254582,5.213508521907
    ));
#975 = ORIENTED_EDGE('',*,*,#976,.F.);
#976 = EDGE_CURVE('',#977,#969,#979,.T.);
#977 = VERTEX_POINT('',#978);
#978 = CARTESIAN_POINT('',(22.911464968153,2.01080935121,4.939892407246)
  );
#979 = LINE('',#980,#981);
#980 = CARTESIAN_POINT('',(22.911464968153,2.01080935121,4.939892407246)
  );
#981 = VECTOR('',#982,1.);
#982 = DIRECTION('',(0.,-0.939692620786,0.342020143326));
#983 = ORIENTED_EDGE('',*,*,#984,.F.);
#984 = EDGE_CURVE('',#944,#977,#985,.T.);
#985 = B_SPLINE_CURVE_WITH_KNOTS('',2,(#986,#987,#988),.UNSPECIFIED.,.F.
  ,.F.,(3,3),(0.,1.),.PIECEWISE_BEZIER_KNOTS.);
#986 = CARTESIAN_POINT('',(23.511464968153,1.565791039882,3.717214645627
    ));
#987 = CARTESIAN_POINT('',(22.911464968153,1.728043653098,4.163000036685
    ));
#988 = CARTESIAN_POINT('',(22.911464968153,2.01080935121,4.939892407246)
  );
#989 = SURFACE_OF_LINEAR_EXTRUSION('',#990,#994);
#990 = B_SPLINE_CURVE_WITH_KNOTS('',2,(#991,#992,#993),.UNSPECIFIED.,.F.
  ,.F.,(3,3),(0.,1.),.PIECEWISE_BEZIER_KNOTS.);
#991 = CARTESIAN_POINT('',(23.511464968153,1.565791039882,3.717214645627
    ));
#992 = CARTESIAN_POINT('',(22.911464968153,1.728043653098,4.163000036685
    ));
#993 = CARTESIAN_POINT('',(22.911464968153,2.01080935121,4.939892407246)
  );
#994 = VECTOR('',#995,1.);
#995 = DIRECTION('',(-0.,0.939692620786,-0.342020143326));
#996 = ADVANCED_FACE('',(#997),#1022,.T.);
#997 = FACE_BOUND('',#998,.T.);
#998 = EDGE_LOOP('',(#999,#1000,#1008,#1016));
#999 = ORIENTED_EDGE('',*,*,#976,.T.);
#1000 = ORIENTED_EDGE('',*,*,#1001,.T.);
#1001 = EDGE_CURVE('',#969,#1002,#1004,.T.);
#1002 = VERTEX_POINT('',#1003);
#1003 = CARTESIAN_POINT('',(23.136942675159,1.544957952735,
    5.999019729244));
#1004 = B_SPLINE_CURVE_WITH_KNOTS('',2,(#1005,#1006,#1007),
  .UNSPECIFIED.,.F.,.F.,(3,3),(0.,1.),.PIECEWISE_BEZIER_KNOTS.);
#1005 = CARTESIAN_POINT('',(22.911464968153,1.259055254582,
    5.213508521907));
#1006 = CARTESIAN_POINT('',(22.911464968153,1.414772451046,
    5.641338003013));
#1007 = CARTESIAN_POINT('',(23.136942675159,1.544957952735,
    5.999019729244));
#1008 = ORIENTED_EDGE('',*,*,#1009,.F.);
#1009 = EDGE_CURVE('',#1010,#1002,#1012,.T.);
#1010 = VERTEX_POINT('',#1011);
#1011 = CARTESIAN_POINT('',(23.136942675159,2.296712049364,
    5.725403614583));
#1012 = LINE('',#1013,#1014);
#1013 = CARTESIAN_POINT('',(23.136942675159,2.296712049364,
    5.725403614583));
#1014 = VECTOR('',#1015,1.);
#1015 = DIRECTION('',(0.,-0.939692620786,0.342020143326));
#1016 = ORIENTED_EDGE('',*,*,#1017,.F.);
#1017 = EDGE_CURVE('',#977,#1010,#1018,.T.);
#1018 = B_SPLINE_CURVE_WITH_KNOTS('',2,(#1019,#1020,#1021),
  .UNSPECIFIED.,.F.,.F.,(3,3),(0.,1.),.PIECEWISE_BEZIER_KNOTS.);
#1019 = CARTESIAN_POINT('',(22.911464968153,2.01080935121,4.939892407246
    ));
#1020 = CARTESIAN_POINT('',(22.911464968153,2.166526547675,
    5.367721888353));
#1021 = CARTESIAN_POINT('',(23.136942675159,2.296712049364,
    5.725403614583));
#1022 = SURFACE_OF_LINEAR_EXTRUSION('',#1023,#1027);
#1023 = B_SPLINE_CURVE_WITH_KNOTS('',2,(#1024,#1025,#1026),
  .UNSPECIFIED.,.F.,.F.,(3,3),(0.,1.),.PIECEWISE_BEZIER_KNOTS.);
#1024 = CARTESIAN_POINT('',(22.911464968153,2.01080935121,4.939892407246
    ));
#1025 = CARTESIAN_POINT('',(22.911464968153,2.166526547675,
    5.367721888353));
#1026 = CARTESIAN_POINT('',(23.136942675159,2.296712049364,
    5.725403614583));
#1027 = VECTOR('',#1028,1.);
#1028 = DIRECTION('',(-0.,0.939692620786,-0.342020143326));
#1029 = ADVANCED_FACE('',(#1030),#1046,.T.);
#1030 = FACE_BOUND('',#1031,.T.);
#1031 = EDGE_LOOP('',(#1032,#1033,#1039,#1040));
#1032 = ORIENTED_EDGE('',*,*,#1009,.T.);
#1033 = ORIENTED_EDGE('',*,*,#1034,.T.);
#1034 = EDGE_CURVE('',#1002,#532,#1035,.T.);
#1035 = B_SPLINE_CURVE_WITH_KNOTS('',2,(#1036,#1037,#1038),
  .UNSPECIFIED.,.F.,.F.,(3,3),(0.,1.),.PIECEWISE_BEZIER_KNOTS.);
#1036 = CARTESIAN_POINT('',(23.136942675159,1.544957952735,
    5.999019729244));
#1037 = CARTESIAN_POINT('',(23.362420382166,1.675230593314,
    6.356940867607));
#1038 = CARTESIAN_POINT('',(23.847770700637,1.745900233119,
    6.551104107214));
#1039 = ORIENTED_EDGE('',*,*,#529,.F.);
#1040 = ORIENTED_EDGE('',*,*,#1041,.F.);
#1041 = EDGE_CURVE('',#1010,#530,#1042,.T.);
#1042 = B_SPLINE_CURVE_WITH_KNOTS('',2,(#1043,#1044,#1045),
  .UNSPECIFIED.,.F.,.F.,(3,3),(0.,1.),.PIECEWISE_BEZIER_KNOTS.);
#1043 = CARTESIAN_POINT('',(23.136942675159,2.296712049364,
    5.725403614583));
#1044 = CARTESIAN_POINT('',(23.362420382166,2.426984689942,
    6.083324752946));
#1045 = CARTESIAN_POINT('',(23.847770700637,2.497654329748,
    6.277487992553));
#1046 = SURFACE_OF_LINEAR_EXTRUSION('',#1047,#1051);
#1047 = B_SPLINE_CURVE_WITH_KNOTS('',2,(#1048,#1049,#1050),
  .UNSPECIFIED.,.F.,.F.,(3,3),(0.,1.),.PIECEWISE_BEZIER_KNOTS.);
#1048 = CARTESIAN_POINT('',(23.136942675159,2.296712049364,
    5.725403614583));
#1049 = CARTESIAN_POINT('',(23.362420382166,2.426984689942,
    6.083324752946));
#1050 = CARTESIAN_POINT('',(23.847770700637,2.497654329748,
    6.277487992553));
#1051 = VECTOR('',#1052,1.);
#1052 = DIRECTION('',(-0.,0.939692620786,-0.342020143326));
#1053 = ADVANCED_FACE('',(#1054),#1072,.F.);
#1054 = FACE_BOUND('',#1055,.T.);
#1055 = EDGE_LOOP('',(#1056,#1057,#1058,#1059,#1060,#1061,#1062,#1063,
    #1064,#1065,#1066,#1067,#1068,#1069,#1070,#1071));
#1056 = ORIENTED_EDGE('',*,*,#555,.T.);
#1057 = ORIENTED_EDGE('',*,*,#588,.T.);
#1058 = ORIENTED_EDGE('',*,*,#621,.T.);
#1059 = ORIENTED_EDGE('',*,*,#654,.T.);
#1060 = ORIENTED_EDGE('',*,*,#687,.T.);
#1061 = ORIENTED_EDGE('',*,*,#720,.T.);
#1062 = ORIENTED_EDGE('',*,*,#753,.T.);
#1063 = ORIENTED_EDGE('',*,*,#786,.T.);
#1064 = ORIENTED_EDGE('',*,*,#819,.T.);
#1065 = ORIENTED_EDGE('',*,*,#852,.T.);
#1066 = ORIENTED_EDGE('',*,*,#885,.T.);
#1067 = ORIENTED_EDGE('',*,*,#918,.T.);
#1068 = ORIENTED_EDGE('',*,*,#951,.T.);
#1069 = ORIENTED_EDGE('',*,*,#984,.T.);
#1070 = ORIENTED_EDGE('',*,*,#1017,.T.);
#1071 = ORIENTED_EDGE('',*,*,#1041,.T.);
#1072 = PLANE('',#1073);
#1073 = AXIS2_PLACEMENT_3D('',#1074,#1075,#1076);
#1074 = CARTESIAN_POINT('',(24.745488323563,2.411102359939,
    6.039688409893));
#1075 = DIRECTION('',(0.,-0.939692620786,0.342020143326));
#1076 = DIRECTION('',(1.,0.,0.));
#1077 = ADVANCED_FACE('',(#1078),#1096,.T.);
#1078 = FACE_BOUND('',#1079,.F.);
#1079 = EDGE_LOOP('',(#1080,#1081,#1082,#1083,#1084,#1085,#1086,#1087,
    #1088,#1089,#1090,#1091,#1092,#1093,#1094,#1095));
#1080 = ORIENTED_EDGE('',*,*,#539,.T.);
#1081 = ORIENTED_EDGE('',*,*,#572,.T.);
#1082 = ORIENTED_EDGE('',*,*,#605,.T.);
#1083 = ORIENTED_EDGE('',*,*,#638,.T.);
#1084 = ORIENTED_EDGE('',*,*,#671,.T.);
#1085 = ORIENTED_EDGE('',*,*,#704,.T.);
#1086 = ORIENTED_EDGE('',*,*,#737,.T.);
#1087 = ORIENTED_EDGE('',*,*,#770,.T.);
#1088 = ORIENTED_EDGE('',*,*,#803,.T.);
#1089 = ORIENTED_EDGE('',*,*,#836,.T.);
#1090 = ORIENTED_EDGE('',*,*,#869,.T.);
#1091 = ORIENTED_EDGE('',*,*,#902,.T.);
#1092 = ORIENTED_EDGE('',*,*,#935,.T.);
#1093 = ORIENTED_EDGE('',*,*,#968,.T.);
#1094 = ORIENTED_EDGE('',*,*,#1001,.T.);
#1095 = ORIENTED_EDGE('',*,*,#1034,.T.);
#1096 = PLANE('',#1097);
#1097 = AXIS2_PLACEMENT_3D('',#1098,#1099,#1100);
#1098 = CARTESIAN_POINT('',(24.745488323563,1.65934826331,6.313304524554
    ));
#1099 = DIRECTION('',(0.,-0.939692620786,0.342020143326));
#1100 = DIRECTION('',(1.,0.,0.));
#1101 = MANIFOLD_SOLID_BREP('',#1102);
#1102 = CLOSED_SHELL('',(#1103,#1145,#1178,#1211,#1244,#1277,#1310,#1343
    ,#1367,#1383));
#1103 = ADVANCED_FACE('',(#1104),#1138,.F.);
#1104 = FACE_BOUND('',#1105,.F.);
#1105 = EDGE_LOOP('',(#1106,#1116,#1124,#1132));
#1106 = ORIENTED_EDGE('',*,*,#1107,.T.);
#1107 = EDGE_CURVE('',#1108,#1110,#1112,.T.);
#1108 = VERTEX_POINT('',#1109);
#1109 = CARTESIAN_POINT('',(24.069426751592,2.86921455679,7.298341326319
    ));
#1110 = VERTEX_POINT('',#1111);
#1111 = CARTESIAN_POINT('',(24.069426751592,2.117460460162,7.57195744098
    ));
#1112 = LINE('',#1113,#1114);
#1113 = CARTESIAN_POINT('',(24.069426751592,2.86921455679,7.298341326319
    ));
#1114 = VECTOR('',#1115,1.);
#1115 = DIRECTION('',(0.,-0.939692620786,0.342020143326));
#1116 = ORIENTED_EDGE('',*,*,#1117,.T.);
#1117 = EDGE_CURVE('',#1110,#1118,#1120,.T.);
#1118 = VERTEX_POINT('',#1119);
#1119 = CARTESIAN_POINT('',(24.250828025478,1.943618374573,
    7.094330236274));
#1120 = B_SPLINE_CURVE_WITH_KNOTS('',2,(#1121,#1122,#1123),
  .UNSPECIFIED.,.F.,.F.,(3,3),(0.,1.),.PIECEWISE_BEZIER_KNOTS.);
#1121 = CARTESIAN_POINT('',(24.069426751592,2.117460460162,7.57195744098
    ));
#1122 = CARTESIAN_POINT('',(24.069426751592,2.006009819827,
    7.265749323276));
#1123 = CARTESIAN_POINT('',(24.250828025478,1.943618374573,
    7.094330236274));
#1124 = ORIENTED_EDGE('',*,*,#1125,.F.);
#1125 = EDGE_CURVE('',#1126,#1118,#1128,.T.);
#1126 = VERTEX_POINT('',#1127);
#1127 = CARTESIAN_POINT('',(24.250828025478,2.695372471202,
    6.820714121614));
#1128 = LINE('',#1129,#1130);
#1129 = CARTESIAN_POINT('',(24.250828025478,2.695372471202,
    6.820714121614));
#1130 = VECTOR('',#1131,1.);
#1131 = DIRECTION('',(0.,-0.939692620786,0.342020143326));
#1132 = ORIENTED_EDGE('',*,*,#1133,.F.);
#1133 = EDGE_CURVE('',#1108,#1126,#1134,.T.);
#1134 = B_SPLINE_CURVE_WITH_KNOTS('',2,(#1135,#1136,#1137),
  .UNSPECIFIED.,.F.,.F.,(3,3),(0.,1.),.PIECEWISE_BEZIER_KNOTS.);
#1135 = CARTESIAN_POINT('',(24.069426751592,2.86921455679,7.298341326319
    ));
#1136 = CARTESIAN_POINT('',(24.069426751592,2.757763916456,
    6.992133208616));
#1137 = CARTESIAN_POINT('',(24.250828025478,2.695372471202,
    6.820714121614));
#1138 = SURFACE_OF_LINEAR_EXTRUSION('',#1139,#1143);
#1139 = B_SPLINE_CURVE_WITH_KNOTS('',2,(#1140,#1141,#1142),
  .UNSPECIFIED.,.F.,.F.,(3,3),(0.,1.),.PIECEWISE_BEZIER_KNOTS.);
#1140 = CARTESIAN_POINT('',(24.069426751592,2.86921455679,7.298341326319
    ));
#1141 = CARTESIAN_POINT('',(24.069426751592,2.757763916456,
    6.992133208616));
#1142 = CARTESIAN_POINT('',(24.250828025478,2.695372471202,
    6.820714121614));
#1143 = VECTOR('',#1144,1.);
#1144 = DIRECTION('',(-0.,0.939692620786,-0.342020143326));
#1145 = ADVANCED_FACE('',(#1146),#1171,.F.);
#1146 = FACE_BOUND('',#1147,.F.);
#1147 = EDGE_LOOP('',(#1148,#1149,#1157,#1165));
#1148 = ORIENTED_EDGE('',*,*,#1125,.T.);
#1149 = ORIENTED_EDGE('',*,*,#1150,.T.);
#1150 = EDGE_CURVE('',#1118,#1151,#1153,.T.);
#1151 = VERTEX_POINT('',#1152);
#1152 = CARTESIAN_POINT('',(24.734394904459,1.881226929319,
    6.922911149272));
#1153 = B_SPLINE_CURVE_WITH_KNOTS('',2,(#1154,#1155,#1156),
  .UNSPECIFIED.,.F.,.F.,(3,3),(0.,1.),.PIECEWISE_BEZIER_KNOTS.);
#1154 = CARTESIAN_POINT('',(24.250828025478,1.943618374573,
    7.094330236274));
#1155 = CARTESIAN_POINT('',(24.432484076433,1.881226929319,
    6.922911149272));
#1156 = CARTESIAN_POINT('',(24.734394904459,1.881226929319,
    6.922911149272));
#1157 = ORIENTED_EDGE('',*,*,#1158,.F.);
#1158 = EDGE_CURVE('',#1159,#1151,#1161,.T.);
#1159 = VERTEX_POINT('',#1160);
#1160 = CARTESIAN_POINT('',(24.734394904459,2.632981025948,
    6.649295034612));
#1161 = LINE('',#1162,#1163);
#1162 = CARTESIAN_POINT('',(24.734394904459,2.632981025948,
    6.649295034612));
#1163 = VECTOR('',#1164,1.);
#1164 = DIRECTION('',(0.,-0.939692620786,0.342020143326));
#1165 = ORIENTED_EDGE('',*,*,#1166,.F.);
#1166 = EDGE_CURVE('',#1126,#1159,#1167,.T.);
#1167 = B_SPLINE_CURVE_WITH_KNOTS('',2,(#1168,#1169,#1170),
  .UNSPECIFIED.,.F.,.F.,(3,3),(0.,1.),.PIECEWISE_BEZIER_KNOTS.);
#1168 = CARTESIAN_POINT('',(24.250828025478,2.695372471202,
    6.820714121614));
#1169 = CARTESIAN_POINT('',(24.432484076433,2.632981025948,
    6.649295034612));
#1170 = CARTESIAN_POINT('',(24.734394904459,2.632981025948,
    6.649295034612));
#1171 = SURFACE_OF_LINEAR_EXTRUSION('',#1172,#1176);
#1172 = B_SPLINE_CURVE_WITH_KNOTS('',2,(#1173,#1174,#1175),
  .UNSPECIFIED.,.F.,.F.,(3,3),(0.,1.),.PIECEWISE_BEZIER_KNOTS.);
#1173 = CARTESIAN_POINT('',(24.250828025478,2.695372471202,
    6.820714121614));
#1174 = CARTESIAN_POINT('',(24.432484076433,2.632981025948,
    6.649295034612));
#1175 = CARTESIAN_POINT('',(24.734394904459,2.632981025948,
    6.649295034612));
#1176 = VECTOR('',#1177,1.);
#1177 = DIRECTION('',(-0.,0.939692620786,-0.342020143326));
#1178 = ADVANCED_FACE('',(#1179),#1204,.F.);
#1179 = FACE_BOUND('',#1180,.F.);
#1180 = EDGE_LOOP('',(#1181,#1182,#1190,#1198));
#1181 = ORIENTED_EDGE('',*,*,#1158,.T.);
#1182 = ORIENTED_EDGE('',*,*,#1183,.T.);
#1183 = EDGE_CURVE('',#1151,#1184,#1186,.T.);
#1184 = VERTEX_POINT('',#1185);
#1185 = CARTESIAN_POINT('',(25.223566878981,1.944228346803,
    7.096006121203));
#1186 = B_SPLINE_CURVE_WITH_KNOTS('',2,(#1187,#1188,#1189),
  .UNSPECIFIED.,.F.,.F.,(3,3),(0.,1.),.PIECEWISE_BEZIER_KNOTS.);
#1187 = CARTESIAN_POINT('',(24.734394904459,1.881226929319,
    6.922911149272));
#1188 = CARTESIAN_POINT('',(25.040127388535,1.881226929319,
    6.922911149272));
#1189 = CARTESIAN_POINT('',(25.223566878981,1.944228346803,
    7.096006121203));
#1190 = ORIENTED_EDGE('',*,*,#1191,.F.);
#1191 = EDGE_CURVE('',#1192,#1184,#1194,.T.);
#1192 = VERTEX_POINT('',#1193);
#1193 = CARTESIAN_POINT('',(25.223566878981,2.695982443432,
    6.822390006543));
#1194 = LINE('',#1195,#1196);
#1195 = CARTESIAN_POINT('',(25.223566878981,2.695982443432,
    6.822390006543));
#1196 = VECTOR('',#1197,1.);
#1197 = DIRECTION('',(0.,-0.939692620786,0.342020143326));
#1198 = ORIENTED_EDGE('',*,*,#1199,.F.);
#1199 = EDGE_CURVE('',#1159,#1192,#1200,.T.);
#1200 = B_SPLINE_CURVE_WITH_KNOTS('',2,(#1201,#1202,#1203),
  .UNSPECIFIED.,.F.,.F.,(3,3),(0.,1.),.PIECEWISE_BEZIER_KNOTS.);
#1201 = CARTESIAN_POINT('',(24.734394904459,2.632981025948,
    6.649295034612));
#1202 = CARTESIAN_POINT('',(25.040127388535,2.632981025948,
    6.649295034612));
#1203 = CARTESIAN_POINT('',(25.223566878981,2.695982443432,
    6.822390006543));
#1204 = SURFACE_OF_LINEAR_EXTRUSION('',#1205,#1209);
#1205 = B_SPLINE_CURVE_WITH_KNOTS('',2,(#1206,#1207,#1208),
  .UNSPECIFIED.,.F.,.F.,(3,3),(0.,1.),.PIECEWISE_BEZIER_KNOTS.);
#1206 = CARTESIAN_POINT('',(24.734394904459,2.632981025948,
    6.649295034612));
#1207 = CARTESIAN_POINT('',(25.040127388535,2.632981025948,
    6.649295034612));
#1208 = CARTESIAN_POINT('',(25.223566878981,2.695982443432,
    6.822390006543));
#1209 = VECTOR('',#1210,1.);
#1210 = DIRECTION('',(-0.,0.939692620786,-0.342020143326));
#1211 = ADVANCED_FACE('',(#1212),#1237,.F.);
#1212 = FACE_BOUND('',#1213,.F.);
#1213 = EDGE_LOOP('',(#1214,#1215,#1223,#1231));
#1214 = ORIENTED_EDGE('',*,*,#1191,.T.);
#1215 = ORIENTED_EDGE('',*,*,#1216,.T.);
#1216 = EDGE_CURVE('',#1184,#1217,#1219,.T.);
#1217 = VERTEX_POINT('',#1218);
#1218 = CARTESIAN_POINT('',(25.407006369427,2.118767543512,7.57554862297
    ));
#1219 = B_SPLINE_CURVE_WITH_KNOTS('',2,(#1220,#1221,#1222),
  .UNSPECIFIED.,.F.,.F.,(3,3),(0.,1.),.PIECEWISE_BEZIER_KNOTS.);
#1220 = CARTESIAN_POINT('',(25.223566878981,1.944228346803,
    7.096006121203));
#1221 = CARTESIAN_POINT('',(25.407006369427,2.007316903177,
    7.269340505267));
#1222 = CARTESIAN_POINT('',(25.407006369427,2.118767543512,7.57554862297
    ));
#1223 = ORIENTED_EDGE('',*,*,#1224,.F.);
#1224 = EDGE_CURVE('',#1225,#1217,#1227,.T.);
#1225 = VERTEX_POINT('',#1226);
#1226 = CARTESIAN_POINT('',(25.407006369427,2.870521640141,
    7.301932508309));
#1227 = LINE('',#1228,#1229);
#1228 = CARTESIAN_POINT('',(25.407006369427,2.870521640141,
    7.301932508309));
#1229 = VECTOR('',#1230,1.);
#1230 = DIRECTION('',(0.,-0.939692620786,0.342020143326));
#1231 = ORIENTED_EDGE('',*,*,#1232,.F.);
#1232 = EDGE_CURVE('',#1192,#1225,#1233,.T.);
#1233 = B_SPLINE_CURVE_WITH_KNOTS('',2,(#1234,#1235,#1236),
  .UNSPECIFIED.,.F.,.F.,(3,3),(0.,1.),.PIECEWISE_BEZIER_KNOTS.);
#1234 = CARTESIAN_POINT('',(25.223566878981,2.695982443432,
    6.822390006543));
#1235 = CARTESIAN_POINT('',(25.407006369427,2.759070999806,
    6.995724390606));
#1236 = CARTESIAN_POINT('',(25.407006369427,2.870521640141,
    7.301932508309));
#1237 = SURFACE_OF_LINEAR_EXTRUSION('',#1238,#1242);
#1238 = B_SPLINE_CURVE_WITH_KNOTS('',2,(#1239,#1240,#1241),
  .UNSPECIFIED.,.F.,.F.,(3,3),(0.,1.),.PIECEWISE_BEZIER_KNOTS.);
#1239 = CARTESIAN_POINT('',(25.223566878981,2.695982443432,
    6.822390006543));
#1240 = CARTESIAN_POINT('',(25.407006369427,2.759070999806,
    6.995724390606));
#1241 = CARTESIAN_POINT('',(25.407006369427,2.870521640141,
    7.301932508309));
#1242 = VECTOR('',#1243,1.);
#1243 = DIRECTION('',(-0.,0.939692620786,-0.342020143326));
#1244 = ADVANCED_FACE('',(#1245),#1270,.F.);
#1245 = FACE_BOUND('',#1246,.F.);
#1246 = EDGE_LOOP('',(#1247,#1248,#1256,#1264));
#1247 = ORIENTED_EDGE('',*,*,#1224,.T.);
#1248 = ORIENTED_EDGE('',*,*,#1249,.T.);
#1249 = EDGE_CURVE('',#1217,#1250,#1252,.T.);
#1250 = VERTEX_POINT('',#1251);
#1251 = CARTESIAN_POINT('',(25.225350318471,2.286597045689,8.03665639052
    ));
#1252 = B_SPLINE_CURVE_WITH_KNOTS('',2,(#1253,#1254,#1255),
  .UNSPECIFIED.,.F.,.F.,(3,3),(0.,1.),.PIECEWISE_BEZIER_KNOTS.);
#1253 = CARTESIAN_POINT('',(25.407006369427,2.118767543512,7.57554862297
    ));
#1254 = CARTESIAN_POINT('',(25.407006369427,2.223595628205,
    7.863561418589));
#1255 = CARTESIAN_POINT('',(25.225350318471,2.286597045689,8.03665639052
    ));
#1256 = ORIENTED_EDGE('',*,*,#1257,.F.);
#1257 = EDGE_CURVE('',#1258,#1250,#1260,.T.);
#1258 = VERTEX_POINT('',#1259);
#1259 = CARTESIAN_POINT('',(25.225350318471,3.038351142318,
    7.763040275859));
#1260 = LINE('',#1261,#1262);
#1261 = CARTESIAN_POINT('',(25.225350318471,3.038351142318,
    7.763040275859));
#1262 = VECTOR('',#1263,1.);
#1263 = DIRECTION('',(0.,-0.939692620786,0.342020143326));
#1264 = ORIENTED_EDGE('',*,*,#1265,.F.);
#1265 = EDGE_CURVE('',#1225,#1258,#1266,.T.);
#1266 = B_SPLINE_CURVE_WITH_KNOTS('',2,(#1267,#1268,#1269),
  .UNSPECIFIED.,.F.,.F.,(3,3),(0.,1.),.PIECEWISE_BEZIER_KNOTS.);
#1267 = CARTESIAN_POINT('',(25.407006369427,2.870521640141,
    7.301932508309));
#1268 = CARTESIAN_POINT('',(25.407006369427,2.975349724834,
    7.589945303929));
#1269 = CARTESIAN_POINT('',(25.225350318471,3.038351142318,
    7.763040275859));
#1270 = SURFACE_OF_LINEAR_EXTRUSION('',#1271,#1275);
#1271 = B_SPLINE_CURVE_WITH_KNOTS('',2,(#1272,#1273,#1274),
  .UNSPECIFIED.,.F.,.F.,(3,3),(0.,1.),.PIECEWISE_BEZIER_KNOTS.);
#1272 = CARTESIAN_POINT('',(25.407006369427,2.870521640141,
    7.301932508309));
#1273 = CARTESIAN_POINT('',(25.407006369427,2.975349724834,
    7.589945303929));
#1274 = CARTESIAN_POINT('',(25.225350318471,3.038351142318,
    7.763040275859));
#1275 = VECTOR('',#1276,1.);
#1276 = DIRECTION('',(-0.,0.939692620786,-0.342020143326));
#1277 = ADVANCED_FACE('',(#1278),#1303,.F.);
#1278 = FACE_BOUND('',#1279,.F.);
#1279 = EDGE_LOOP('',(#1280,#1281,#1289,#1297));
#1280 = ORIENTED_EDGE('',*,*,#1257,.T.);
#1281 = ORIENTED_EDGE('',*,*,#1282,.T.);
#1282 = EDGE_CURVE('',#1250,#1283,#1285,.T.);
#1283 = VERTEX_POINT('',#1284);
#1284 = CARTESIAN_POINT('',(24.745859872611,2.349685602063,
    8.209990774583));
#1285 = B_SPLINE_CURVE_WITH_KNOTS('',2,(#1286,#1287,#1288),
  .UNSPECIFIED.,.F.,.F.,(3,3),(0.,1.),.PIECEWISE_BEZIER_KNOTS.);
#1286 = CARTESIAN_POINT('',(25.225350318471,2.286597045689,8.03665639052
    ));
#1287 = CARTESIAN_POINT('',(25.043949044586,2.349685602063,
    8.209990774583));
#1288 = CARTESIAN_POINT('',(24.745859872611,2.349685602063,
    8.209990774583));
#1289 = ORIENTED_EDGE('',*,*,#1290,.F.);
#1290 = EDGE_CURVE('',#1291,#1283,#1293,.T.);
#1291 = VERTEX_POINT('',#1292);
#1292 = CARTESIAN_POINT('',(24.745859872611,3.101439698692,
    7.936374659923));
#1293 = LINE('',#1294,#1295);
#1294 = CARTESIAN_POINT('',(24.745859872611,3.101439698692,
    7.936374659923));
#1295 = VECTOR('',#1296,1.);
#1296 = DIRECTION('',(0.,-0.939692620786,0.342020143326));
#1297 = ORIENTED_EDGE('',*,*,#1298,.F.);
#1298 = EDGE_CURVE('',#1258,#1291,#1299,.T.);
#1299 = B_SPLINE_CURVE_WITH_KNOTS('',2,(#1300,#1301,#1302),
  .UNSPECIFIED.,.F.,.F.,(3,3),(0.,1.),.PIECEWISE_BEZIER_KNOTS.);
#1300 = CARTESIAN_POINT('',(25.225350318471,3.038351142318,
    7.763040275859));
#1301 = CARTESIAN_POINT('',(25.043949044586,3.101439698692,
    7.936374659923));
#1302 = CARTESIAN_POINT('',(24.745859872611,3.101439698692,
    7.936374659923));
#1303 = SURFACE_OF_LINEAR_EXTRUSION('',#1304,#1308);
#1304 = B_SPLINE_CURVE_WITH_KNOTS('',2,(#1305,#1306,#1307),
  .UNSPECIFIED.,.F.,.F.,(3,3),(0.,1.),.PIECEWISE_BEZIER_KNOTS.);
#1305 = CARTESIAN_POINT('',(25.225350318471,3.038351142318,
    7.763040275859));
#1306 = CARTESIAN_POINT('',(25.043949044586,3.101439698692,
    7.936374659923));
#1307 = CARTESIAN_POINT('',(24.745859872611,3.101439698692,
    7.936374659923));
#1308 = VECTOR('',#1309,1.);
#1309 = DIRECTION('',(-0.,0.939692620786,-0.342020143326));
#1310 = ADVANCED_FACE('',(#1311),#1336,.F.);
#1311 = FACE_BOUND('',#1312,.F.);
#1312 = EDGE_LOOP('',(#1313,#1314,#1322,#1330));
#1313 = ORIENTED_EDGE('',*,*,#1290,.T.);
#1314 = ORIENTED_EDGE('',*,*,#1315,.T.);
#1315 = EDGE_CURVE('',#1283,#1316,#1318,.T.);
#1316 = VERTEX_POINT('',#1317);
#1317 = CARTESIAN_POINT('',(24.252866242038,2.285987073459,
    8.034980505591));
#1318 = B_SPLINE_CURVE_WITH_KNOTS('',2,(#1319,#1320,#1321),
  .UNSPECIFIED.,.F.,.F.,(3,3),(0.,1.),.PIECEWISE_BEZIER_KNOTS.);
#1319 = CARTESIAN_POINT('',(24.745859872611,2.349685602063,
    8.209990774583));
#1320 = CARTESIAN_POINT('',(24.436305732484,2.349685602063,
    8.209990774583));
#1321 = CARTESIAN_POINT('',(24.252866242038,2.285987073459,
    8.034980505591));
#1322 = ORIENTED_EDGE('',*,*,#1323,.F.);
#1323 = EDGE_CURVE('',#1324,#1316,#1326,.T.);
#1324 = VERTEX_POINT('',#1325);
#1325 = CARTESIAN_POINT('',(24.252866242038,3.037741170088,
    7.761364390931));
#1326 = LINE('',#1327,#1328);
#1327 = CARTESIAN_POINT('',(24.252866242038,3.037741170088,
    7.761364390931));
#1328 = VECTOR('',#1329,1.);
#1329 = DIRECTION('',(0.,-0.939692620786,0.342020143326));
#1330 = ORIENTED_EDGE('',*,*,#1331,.F.);
#1331 = EDGE_CURVE('',#1291,#1324,#1332,.T.);
#1332 = B_SPLINE_CURVE_WITH_KNOTS('',2,(#1333,#1334,#1335),
  .UNSPECIFIED.,.F.,.F.,(3,3),(0.,1.),.PIECEWISE_BEZIER_KNOTS.);
#1333 = CARTESIAN_POINT('',(24.745859872611,3.101439698692,
    7.936374659923));
#1334 = CARTESIAN_POINT('',(24.436305732484,3.101439698692,
    7.936374659923));
#1335 = CARTESIAN_POINT('',(24.252866242038,3.037741170088,
    7.761364390931));
#1336 = SURFACE_OF_LINEAR_EXTRUSION('',#1337,#1341);
#1337 = B_SPLINE_CURVE_WITH_KNOTS('',2,(#1338,#1339,#1340),
  .UNSPECIFIED.,.F.,.F.,(3,3),(0.,1.),.PIECEWISE_BEZIER_KNOTS.);
#1338 = CARTESIAN_POINT('',(24.745859872611,3.101439698692,
    7.936374659923));
#1339 = CARTESIAN_POINT('',(24.436305732484,3.101439698692,
    7.936374659923));
#1340 = CARTESIAN_POINT('',(24.252866242038,3.037741170088,
    7.761364390931));
#1341 = VECTOR('',#1342,1.);
#1342 = DIRECTION('',(-0.,0.939692620786,-0.342020143326));
#1343 = ADVANCED_FACE('',(#1344),#1360,.F.);
#1344 = FACE_BOUND('',#1345,.F.);
#1345 = EDGE_LOOP('',(#1346,#1347,#1353,#1354));
#1346 = ORIENTED_EDGE('',*,*,#1323,.T.);
#1347 = ORIENTED_EDGE('',*,*,#1348,.T.);
#1348 = EDGE_CURVE('',#1316,#1110,#1349,.T.);
#1349 = B_SPLINE_CURVE_WITH_KNOTS('',2,(#1350,#1351,#1352),
  .UNSPECIFIED.,.F.,.F.,(3,3),(0.,1.),.PIECEWISE_BEZIER_KNOTS.);
#1350 = CARTESIAN_POINT('',(24.252866242038,2.285987073459,
    8.034980505591));
#1351 = CARTESIAN_POINT('',(24.069426751592,2.222288544855,
    7.859970236599));
#1352 = CARTESIAN_POINT('',(24.069426751592,2.117460460162,7.57195744098
    ));
#1353 = ORIENTED_EDGE('',*,*,#1107,.F.);
#1354 = ORIENTED_EDGE('',*,*,#1355,.F.);
#1355 = EDGE_CURVE('',#1324,#1108,#1356,.T.);
#1356 = B_SPLINE_CURVE_WITH_KNOTS('',2,(#1357,#1358,#1359),
  .UNSPECIFIED.,.F.,.F.,(3,3),(0.,1.),.PIECEWISE_BEZIER_KNOTS.);
#1357 = CARTESIAN_POINT('',(24.252866242038,3.037741170088,
    7.761364390931));
#1358 = CARTESIAN_POINT('',(24.069426751592,2.974042641483,
    7.586354121938));
#1359 = CARTESIAN_POINT('',(24.069426751592,2.86921455679,7.298341326319
    ));
#1360 = SURFACE_OF_LINEAR_EXTRUSION('',#1361,#1365);
#1361 = B_SPLINE_CURVE_WITH_KNOTS('',2,(#1362,#1363,#1364),
  .UNSPECIFIED.,.F.,.F.,(3,3),(0.,1.),.PIECEWISE_BEZIER_KNOTS.);
#1362 = CARTESIAN_POINT('',(24.252866242038,3.037741170088,
    7.761364390931));
#1363 = CARTESIAN_POINT('',(24.069426751592,2.974042641483,
    7.586354121938));
#1364 = CARTESIAN_POINT('',(24.069426751592,2.86921455679,7.298341326319
    ));
#1365 = VECTOR('',#1366,1.);
#1366 = DIRECTION('',(-0.,0.939692620786,-0.342020143326));
#1367 = ADVANCED_FACE('',(#1368),#1378,.T.);
#1368 = FACE_BOUND('',#1369,.F.);
#1369 = EDGE_LOOP('',(#1370,#1371,#1372,#1373,#1374,#1375,#1376,#1377));
#1370 = ORIENTED_EDGE('',*,*,#1133,.T.);
#1371 = ORIENTED_EDGE('',*,*,#1166,.T.);
#1372 = ORIENTED_EDGE('',*,*,#1199,.T.);
#1373 = ORIENTED_EDGE('',*,*,#1232,.T.);
#1374 = ORIENTED_EDGE('',*,*,#1265,.T.);
#1375 = ORIENTED_EDGE('',*,*,#1298,.T.);
#1376 = ORIENTED_EDGE('',*,*,#1331,.T.);
#1377 = ORIENTED_EDGE('',*,*,#1355,.T.);
#1378 = PLANE('',#1379);
#1379 = AXIS2_PLACEMENT_3D('',#1380,#1381,#1382);
#1380 = CARTESIAN_POINT('',(24.738233938723,2.867103268434,
    7.292540609235));
#1381 = DIRECTION('',(-0.,0.939692620786,-0.342020143326));
#1382 = DIRECTION('',(-1.,0.,0.));
#1383 = ADVANCED_FACE('',(#1384),#1394,.F.);
#1384 = FACE_BOUND('',#1385,.T.);
#1385 = EDGE_LOOP('',(#1386,#1387,#1388,#1389,#1390,#1391,#1392,#1393));
#1386 = ORIENTED_EDGE('',*,*,#1117,.T.);
#1387 = ORIENTED_EDGE('',*,*,#1150,.T.);
#1388 = ORIENTED_EDGE('',*,*,#1183,.T.);
#1389 = ORIENTED_EDGE('',*,*,#1216,.T.);
#1390 = ORIENTED_EDGE('',*,*,#1249,.T.);
#1391 = ORIENTED_EDGE('',*,*,#1282,.T.);
#1392 = ORIENTED_EDGE('',*,*,#1315,.T.);
#1393 = ORIENTED_EDGE('',*,*,#1348,.T.);
#1394 = PLANE('',#1395);
#1395 = AXIS2_PLACEMENT_3D('',#1396,#1397,#1398);
#1396 = CARTESIAN_POINT('',(24.738233938723,2.115349171805,
    7.566156723895));
#1397 = DIRECTION('',(-0.,0.939692620786,-0.342020143326));
#1398 = DIRECTION('',(-1.,0.,0.));
#1399 = MANIFOLD_SOLID_BREP('',#1400);
#1400 = CLOSED_SHELL('',(#1401,#1443,#1476,#1509,#1542,#1575,#1608,#1641
    ,#1665,#1681));
#1401 = ADVANCED_FACE('',(#1402),#1436,.F.);
#1402 = FACE_BOUND('',#1403,.F.);
#1403 = EDGE_LOOP('',(#1404,#1414,#1422,#1430));
#1404 = ORIENTED_EDGE('',*,*,#1405,.T.);
#1405 = EDGE_CURVE('',#1406,#1408,#1410,.T.);
#1406 = VERTEX_POINT('',#1407);
#1407 = CARTESIAN_POINT('',(23.970063694268,2.044619240538,
    5.032784314728));
#1408 = VERTEX_POINT('',#1409);
#1409 = CARTESIAN_POINT('',(23.970063694268,1.292865143909,
    5.306400429388));
#1410 = LINE('',#1411,#1412);
#1411 = CARTESIAN_POINT('',(23.970063694268,2.044619240538,
    5.032784314728));
#1412 = VECTOR('',#1413,1.);
#1413 = DIRECTION('',(0.,-0.939692620786,0.342020143326));
#1414 = ORIENTED_EDGE('',*,*,#1415,.T.);
#1415 = EDGE_CURVE('',#1408,#1416,#1418,.T.);
#1416 = VERTEX_POINT('',#1417);
#1417 = CARTESIAN_POINT('',(24.197324840764,1.052797501906,
    4.646820003843));
#1418 = B_SPLINE_CURVE_WITH_KNOTS('',2,(#1419,#1420,#1421),
  .UNSPECIFIED.,.F.,.F.,(3,3),(0.,1.),.PIECEWISE_BEZIER_KNOTS.);
#1419 = CARTESIAN_POINT('',(23.970063694268,1.292865143909,
    5.306400429388));
#1420 = CARTESIAN_POINT('',(23.970063694268,1.138977864135,
    4.883598603068));
#1421 = CARTESIAN_POINT('',(24.197324840764,1.052797501906,
    4.646820003843));
#1422 = ORIENTED_EDGE('',*,*,#1423,.F.);
#1423 = EDGE_CURVE('',#1424,#1416,#1426,.T.);
#1424 = VERTEX_POINT('',#1425);
#1425 = CARTESIAN_POINT('',(24.197324840764,1.804551598535,
    4.373203889182));
#1426 = LINE('',#1427,#1428);
#1427 = CARTESIAN_POINT('',(24.197324840764,1.804551598535,
    4.373203889182));
#1428 = VECTOR('',#1429,1.);
#1429 = DIRECTION('',(0.,-0.939692620786,0.342020143326));
#1430 = ORIENTED_EDGE('',*,*,#1431,.F.);
#1431 = EDGE_CURVE('',#1406,#1424,#1432,.T.);
#1432 = B_SPLINE_CURVE_WITH_KNOTS('',2,(#1433,#1434,#1435),
  .UNSPECIFIED.,.F.,.F.,(3,3),(0.,1.),.PIECEWISE_BEZIER_KNOTS.);
#1433 = CARTESIAN_POINT('',(23.970063694268,2.044619240538,
    5.032784314728));
#1434 = CARTESIAN_POINT('',(23.970063694268,1.890731960764,
    4.609982488407));
#1435 = CARTESIAN_POINT('',(24.197324840764,1.804551598535,
    4.373203889182));
#1436 = SURFACE_OF_LINEAR_EXTRUSION('',#1437,#1441);
#1437 = B_SPLINE_CURVE_WITH_KNOTS('',2,(#1438,#1439,#1440),
  .UNSPECIFIED.,.F.,.F.,(3,3),(0.,1.),.PIECEWISE_BEZIER_KNOTS.);
#1438 = CARTESIAN_POINT('',(23.970063694268,2.044619240538,
    5.032784314728));
#1439 = CARTESIAN_POINT('',(23.970063694268,1.890731960764,
    4.609982488407));
#1440 = CARTESIAN_POINT('',(24.197324840764,1.804551598535,
    4.373203889182));
#1441 = VECTOR('',#1442,1.);
#1442 = DIRECTION('',(-0.,0.939692620786,-0.342020143326));
#1443 = ADVANCED_FACE('',(#1444),#1469,.F.);
#1444 = FACE_BOUND('',#1445,.F.);
#1445 = EDGE_LOOP('',(#1446,#1447,#1455,#1463));
#1446 = ORIENTED_EDGE('',*,*,#1423,.T.);
#1447 = ORIENTED_EDGE('',*,*,#1448,.T.);
#1448 = EDGE_CURVE('',#1416,#1449,#1451,.T.);
#1449 = VERTEX_POINT('',#1450);
#1450 = CARTESIAN_POINT('',(24.764968152866,0.966617139677,
    4.410041404618));
#1451 = B_SPLINE_CURVE_WITH_KNOTS('',2,(#1452,#1453,#1454),
  .UNSPECIFIED.,.F.,.F.,(3,3),(0.,1.),.PIECEWISE_BEZIER_KNOTS.);
#1452 = CARTESIAN_POINT('',(24.197324840764,1.052797501906,
    4.646820003843));
#1453 = CARTESIAN_POINT('',(24.424840764331,0.966617139677,
    4.410041404618));
#1454 = CARTESIAN_POINT('',(24.764968152866,0.966617139677,
    4.410041404618));
#1455 = ORIENTED_EDGE('',*,*,#1456,.F.);
#1456 = EDGE_CURVE('',#1457,#1449,#1459,.T.);
#1457 = VERTEX_POINT('',#1458);
#1458 = CARTESIAN_POINT('',(24.764968152866,1.718371236306,
    4.136425289957));
#1459 = LINE('',#1460,#1461);
#1460 = CARTESIAN_POINT('',(24.764968152866,1.718371236306,
    4.136425289957));
#1461 = VECTOR('',#1462,1.);
#1462 = DIRECTION('',(0.,-0.939692620786,0.342020143326));
#1463 = ORIENTED_EDGE('',*,*,#1464,.F.);
#1464 = EDGE_CURVE('',#1424,#1457,#1465,.T.);
#1465 = B_SPLINE_CURVE_WITH_KNOTS('',2,(#1466,#1467,#1468),
  .UNSPECIFIED.,.F.,.F.,(3,3),(0.,1.),.PIECEWISE_BEZIER_KNOTS.);
#1466 = CARTESIAN_POINT('',(24.197324840764,1.804551598535,
    4.373203889182));
#1467 = CARTESIAN_POINT('',(24.424840764331,1.718371236306,
    4.136425289957));
#1468 = CARTESIAN_POINT('',(24.764968152866,1.718371236306,
    4.136425289957));
#1469 = SURFACE_OF_LINEAR_EXTRUSION('',#1470,#1474);
#1470 = B_SPLINE_CURVE_WITH_KNOTS('',2,(#1471,#1472,#1473),
  .UNSPECIFIED.,.F.,.F.,(3,3),(0.,1.),.PIECEWISE_BEZIER_KNOTS.);
#1471 = CARTESIAN_POINT('',(24.197324840764,1.804551598535,
    4.373203889182));
#1472 = CARTESIAN_POINT('',(24.424840764331,1.718371236306,
    4.136425289957));
#1473 = CARTESIAN_POINT('',(24.764968152866,1.718371236306,
    4.136425289957));
#1474 = VECTOR('',#1475,1.);
#1475 = DIRECTION('',(-0.,0.939692620786,-0.342020143326));
#1476 = ADVANCED_FACE('',(#1477),#1502,.F.);
#1477 = FACE_BOUND('',#1478,.F.);
#1478 = EDGE_LOOP('',(#1479,#1480,#1488,#1496));
#1479 = ORIENTED_EDGE('',*,*,#1456,.T.);
#1480 = ORIENTED_EDGE('',*,*,#1481,.T.);
#1481 = EDGE_CURVE('',#1449,#1482,#1484,.T.);
#1482 = VERTEX_POINT('',#1483);
#1483 = CARTESIAN_POINT('',(25.315286624204,1.049486224085,
    4.637722342801));
#1484 = B_SPLINE_CURVE_WITH_KNOTS('',2,(#1485,#1486,#1487),
  .UNSPECIFIED.,.F.,.F.,(3,3),(0.,1.),.PIECEWISE_BEZIER_KNOTS.);
#1485 = CARTESIAN_POINT('',(24.764968152866,0.966617139677,
    4.410041404618));
#1486 = CARTESIAN_POINT('',(25.097452229299,0.966617139677,
    4.410041404618));
#1487 = CARTESIAN_POINT('',(25.315286624204,1.049486224085,
    4.637722342801));
#1488 = ORIENTED_EDGE('',*,*,#1489,.F.);
#1489 = EDGE_CURVE('',#1490,#1482,#1492,.T.);
#1490 = VERTEX_POINT('',#1491);
#1491 = CARTESIAN_POINT('',(25.315286624204,1.801240320714,4.36410622814
    ));
#1492 = LINE('',#1493,#1494);
#1493 = CARTESIAN_POINT('',(25.315286624204,1.801240320714,4.36410622814
    ));
#1494 = VECTOR('',#1495,1.);
#1495 = DIRECTION('',(0.,-0.939692620786,0.342020143326));
#1496 = ORIENTED_EDGE('',*,*,#1497,.F.);
#1497 = EDGE_CURVE('',#1457,#1490,#1498,.T.);
#1498 = B_SPLINE_CURVE_WITH_KNOTS('',2,(#1499,#1500,#1501),
  .UNSPECIFIED.,.F.,.F.,(3,3),(0.,1.),.PIECEWISE_BEZIER_KNOTS.);
#1499 = CARTESIAN_POINT('',(24.764968152866,1.718371236306,
    4.136425289957));
#1500 = CARTESIAN_POINT('',(25.097452229299,1.718371236306,
    4.136425289957));
#1501 = CARTESIAN_POINT('',(25.315286624204,1.801240320714,4.36410622814
    ));
#1502 = SURFACE_OF_LINEAR_EXTRUSION('',#1503,#1507);
#1503 = B_SPLINE_CURVE_WITH_KNOTS('',2,(#1504,#1505,#1506),
  .UNSPECIFIED.,.F.,.F.,(3,3),(0.,1.),.PIECEWISE_BEZIER_KNOTS.);
#1504 = CARTESIAN_POINT('',(24.764968152866,1.718371236306,
    4.136425289957));
#1505 = CARTESIAN_POINT('',(25.097452229299,1.718371236306,
    4.136425289957));
#1506 = CARTESIAN_POINT('',(25.315286624204,1.801240320714,4.36410622814
    ));
#1507 = VECTOR('',#1508,1.);
#1508 = DIRECTION('',(-0.,0.939692620786,-0.342020143326));
#1509 = ADVANCED_FACE('',(#1510),#1535,.F.);
#1510 = FACE_BOUND('',#1511,.F.);
#1511 = EDGE_LOOP('',(#1512,#1513,#1521,#1529));
#1512 = ORIENTED_EDGE('',*,*,#1489,.T.);
#1513 = ORIENTED_EDGE('',*,*,#1514,.T.);
#1514 = EDGE_CURVE('',#1482,#1515,#1517,.T.);
#1515 = VERTEX_POINT('',#1516);
#1516 = CARTESIAN_POINT('',(25.533121019108,1.288856754968,
    5.295387471285));
#1517 = B_SPLINE_CURVE_WITH_KNOTS('',2,(#1518,#1519,#1520),
  .UNSPECIFIED.,.F.,.F.,(3,3),(0.,1.),.PIECEWISE_BEZIER_KNOTS.);
#1518 = CARTESIAN_POINT('',(25.315286624204,1.049486224085,
    4.637722342801));
#1519 = CARTESIAN_POINT('',(25.533121019108,1.132355308494,
    4.865403280984));
#1520 = CARTESIAN_POINT('',(25.533121019108,1.288856754968,
    5.295387471285));
#1521 = ORIENTED_EDGE('',*,*,#1522,.F.);
#1522 = EDGE_CURVE('',#1523,#1515,#1525,.T.);
#1523 = VERTEX_POINT('',#1524);
#1524 = CARTESIAN_POINT('',(25.533121019108,2.040610851597,
    5.021771356624));
#1525 = LINE('',#1526,#1527);
#1526 = CARTESIAN_POINT('',(25.533121019108,2.040610851597,
    5.021771356624));
#1527 = VECTOR('',#1528,1.);
#1528 = DIRECTION('',(0.,-0.939692620786,0.342020143326));
#1529 = ORIENTED_EDGE('',*,*,#1530,.F.);
#1530 = EDGE_CURVE('',#1490,#1523,#1531,.T.);
#1531 = B_SPLINE_CURVE_WITH_KNOTS('',2,(#1532,#1533,#1534),
  .UNSPECIFIED.,.F.,.F.,(3,3),(0.,1.),.PIECEWISE_BEZIER_KNOTS.);
#1532 = CARTESIAN_POINT('',(25.315286624204,1.801240320714,4.36410622814
    ));
#1533 = CARTESIAN_POINT('',(25.533121019108,1.884109405122,
    4.591787166323));
#1534 = CARTESIAN_POINT('',(25.533121019108,2.040610851597,
    5.021771356624));
#1535 = SURFACE_OF_LINEAR_EXTRUSION('',#1536,#1540);
#1536 = B_SPLINE_CURVE_WITH_KNOTS('',2,(#1537,#1538,#1539),
  .UNSPECIFIED.,.F.,.F.,(3,3),(0.,1.),.PIECEWISE_BEZIER_KNOTS.);
#1537 = CARTESIAN_POINT('',(25.315286624204,1.801240320714,4.36410622814
    ));
#1538 = CARTESIAN_POINT('',(25.533121019108,1.884109405122,
    4.591787166323));
#1539 = CARTESIAN_POINT('',(25.533121019108,2.040610851597,
    5.021771356624));
#1540 = VECTOR('',#1541,1.);
#1541 = DIRECTION('',(-0.,0.939692620786,-0.342020143326));
#1542 = ADVANCED_FACE('',(#1543),#1568,.F.);
#1543 = FACE_BOUND('',#1544,.F.);
#1544 = EDGE_LOOP('',(#1545,#1546,#1554,#1562));
#1545 = ORIENTED_EDGE('',*,*,#1522,.T.);
#1546 = ORIENTED_EDGE('',*,*,#1547,.T.);
#1547 = EDGE_CURVE('',#1515,#1548,#1550,.T.);
#1548 = VERTEX_POINT('',#1549);
#1549 = CARTESIAN_POINT('',(25.311464968153,1.508359618927,
    5.898466633516));
#1550 = B_SPLINE_CURVE_WITH_KNOTS('',2,(#1551,#1552,#1553),
  .UNSPECIFIED.,.F.,.F.,(3,3),(0.,1.),.PIECEWISE_BEZIER_KNOTS.);
#1551 = CARTESIAN_POINT('',(25.533121019108,1.288856754968,
    5.295387471285));
#1552 = CARTESIAN_POINT('',(25.533121019108,1.425490534518,
    5.670785695334));
#1553 = CARTESIAN_POINT('',(25.311464968153,1.508359618927,
    5.898466633516));
#1554 = ORIENTED_EDGE('',*,*,#1555,.F.);
#1555 = EDGE_CURVE('',#1556,#1548,#1558,.T.);
#1556 = VERTEX_POINT('',#1557);
#1557 = CARTESIAN_POINT('',(25.311464968153,2.260113715556,
    5.624850518856));
#1558 = LINE('',#1559,#1560);
#1559 = CARTESIAN_POINT('',(25.311464968153,2.260113715556,
    5.624850518856));
#1560 = VECTOR('',#1561,1.);
#1561 = DIRECTION('',(0.,-0.939692620786,0.342020143326));
#1562 = ORIENTED_EDGE('',*,*,#1563,.F.);
#1563 = EDGE_CURVE('',#1523,#1556,#1564,.T.);
#1564 = B_SPLINE_CURVE_WITH_KNOTS('',2,(#1565,#1566,#1567),
  .UNSPECIFIED.,.F.,.F.,(3,3),(0.,1.),.PIECEWISE_BEZIER_KNOTS.);
#1565 = CARTESIAN_POINT('',(25.533121019108,2.040610851597,
    5.021771356624));
#1566 = CARTESIAN_POINT('',(25.533121019108,2.177244631147,
    5.397169580673));
#1567 = CARTESIAN_POINT('',(25.311464968153,2.260113715556,
    5.624850518856));
#1568 = SURFACE_OF_LINEAR_EXTRUSION('',#1569,#1573);
#1569 = B_SPLINE_CURVE_WITH_KNOTS('',2,(#1570,#1571,#1572),
  .UNSPECIFIED.,.F.,.F.,(3,3),(0.,1.),.PIECEWISE_BEZIER_KNOTS.);
#1570 = CARTESIAN_POINT('',(25.533121019108,2.040610851597,
    5.021771356624));
#1571 = CARTESIAN_POINT('',(25.533121019108,2.177244631147,
    5.397169580673));
#1572 = CARTESIAN_POINT('',(25.311464968153,2.260113715556,
    5.624850518856));
#1573 = VECTOR('',#1574,1.);
#1574 = DIRECTION('',(-0.,0.939692620786,-0.342020143326));
#1575 = ADVANCED_FACE('',(#1576),#1601,.F.);
#1576 = FACE_BOUND('',#1577,.F.);
#1577 = EDGE_LOOP('',(#1578,#1579,#1587,#1595));
#1578 = ORIENTED_EDGE('',*,*,#1555,.T.);
#1579 = ORIENTED_EDGE('',*,*,#1580,.T.);
#1580 = EDGE_CURVE('',#1548,#1581,#1583,.T.);
#1581 = VERTEX_POINT('',#1582);
#1582 = CARTESIAN_POINT('',(24.749681528662,1.591228703335,
    6.126147571699));
#1583 = B_SPLINE_CURVE_WITH_KNOTS('',2,(#1584,#1585,#1586),
  .UNSPECIFIED.,.F.,.F.,(3,3),(0.,1.),.PIECEWISE_BEZIER_KNOTS.);
#1584 = CARTESIAN_POINT('',(25.311464968153,1.508359618927,
    5.898466633516));
#1585 = CARTESIAN_POINT('',(25.089808917197,1.591228703335,
    6.126147571699));
#1586 = CARTESIAN_POINT('',(24.749681528662,1.591228703335,
    6.126147571699));
#1587 = ORIENTED_EDGE('',*,*,#1588,.F.);
#1588 = EDGE_CURVE('',#1589,#1581,#1591,.T.);
#1589 = VERTEX_POINT('',#1590);
#1590 = CARTESIAN_POINT('',(24.749681528662,2.342982799964,
    5.852531457039));
#1591 = LINE('',#1592,#1593);
#1592 = CARTESIAN_POINT('',(24.749681528662,2.342982799964,
    5.852531457039));
#1593 = VECTOR('',#1594,1.);
#1594 = DIRECTION('',(0.,-0.939692620786,0.342020143326));
#1595 = ORIENTED_EDGE('',*,*,#1596,.F.);
#1596 = EDGE_CURVE('',#1556,#1589,#1597,.T.);
#1597 = B_SPLINE_CURVE_WITH_KNOTS('',2,(#1598,#1599,#1600),
  .UNSPECIFIED.,.F.,.F.,(3,3),(0.,1.),.PIECEWISE_BEZIER_KNOTS.);
#1598 = CARTESIAN_POINT('',(25.311464968153,2.260113715556,
    5.624850518856));
#1599 = CARTESIAN_POINT('',(25.089808917197,2.342982799964,
    5.852531457039));
#1600 = CARTESIAN_POINT('',(24.749681528662,2.342982799964,
    5.852531457039));
#1601 = SURFACE_OF_LINEAR_EXTRUSION('',#1602,#1606);
#1602 = B_SPLINE_CURVE_WITH_KNOTS('',2,(#1603,#1604,#1605),
  .UNSPECIFIED.,.F.,.F.,(3,3),(0.,1.),.PIECEWISE_BEZIER_KNOTS.);
#1603 = CARTESIAN_POINT('',(25.311464968153,2.260113715556,
    5.624850518856));
#1604 = CARTESIAN_POINT('',(25.089808917197,2.342982799964,
    5.852531457039));
#1605 = CARTESIAN_POINT('',(24.749681528662,2.342982799964,
    5.852531457039));
#1606 = VECTOR('',#1607,1.);
#1607 = DIRECTION('',(-0.,0.939692620786,-0.342020143326));
#1608 = ADVANCED_FACE('',(#1609),#1634,.F.);
#1609 = FACE_BOUND('',#1610,.F.);
#1610 = EDGE_LOOP('',(#1611,#1612,#1620,#1628));
#1611 = ORIENTED_EDGE('',*,*,#1588,.T.);
#1612 = ORIENTED_EDGE('',*,*,#1613,.T.);
#1613 = EDGE_CURVE('',#1581,#1614,#1616,.T.);
#1614 = VERTEX_POINT('',#1615);
#1615 = CARTESIAN_POINT('',(24.162929936306,1.497031563224,
    5.867343056267));
#1616 = B_SPLINE_CURVE_WITH_KNOTS('',2,(#1617,#1618,#1619),
  .UNSPECIFIED.,.F.,.F.,(3,3),(0.,1.),.PIECEWISE_BEZIER_KNOTS.);
#1617 = CARTESIAN_POINT('',(24.749681528662,1.591228703335,
    6.126147571699));
#1618 = CARTESIAN_POINT('',(24.356050955414,1.591228703335,
    6.126147571699));
#1619 = CARTESIAN_POINT('',(24.162929936306,1.497031563224,
    5.867343056267));
#1620 = ORIENTED_EDGE('',*,*,#1621,.F.);
#1621 = EDGE_CURVE('',#1622,#1614,#1624,.T.);
#1622 = VERTEX_POINT('',#1623);
#1623 = CARTESIAN_POINT('',(24.162929936306,2.248785659853,
    5.593726941607));
#1624 = LINE('',#1625,#1626);
#1625 = CARTESIAN_POINT('',(24.162929936306,2.248785659853,
    5.593726941607));
#1626 = VECTOR('',#1627,1.);
#1627 = DIRECTION('',(0.,-0.939692620786,0.342020143326));
#1628 = ORIENTED_EDGE('',*,*,#1629,.F.);
#1629 = EDGE_CURVE('',#1589,#1622,#1630,.T.);
#1630 = B_SPLINE_CURVE_WITH_KNOTS('',2,(#1631,#1632,#1633),
  .UNSPECIFIED.,.F.,.F.,(3,3),(0.,1.),.PIECEWISE_BEZIER_KNOTS.);
#1631 = CARTESIAN_POINT('',(24.749681528662,2.342982799964,
    5.852531457039));
#1632 = CARTESIAN_POINT('',(24.356050955414,2.342982799964,
    5.852531457039));
#1633 = CARTESIAN_POINT('',(24.162929936306,2.248785659853,
    5.593726941607));
#1634 = SURFACE_OF_LINEAR_EXTRUSION('',#1635,#1639);
#1635 = B_SPLINE_CURVE_WITH_KNOTS('',2,(#1636,#1637,#1638),
  .UNSPECIFIED.,.F.,.F.,(3,3),(0.,1.),.PIECEWISE_BEZIER_KNOTS.);
#1636 = CARTESIAN_POINT('',(24.749681528662,2.342982799964,
    5.852531457039));
#1637 = CARTESIAN_POINT('',(24.356050955414,2.342982799964,
    5.852531457039));
#1638 = CARTESIAN_POINT('',(24.162929936306,2.248785659853,
    5.593726941607));
#1639 = VECTOR('',#1640,1.);
#1640 = DIRECTION('',(-0.,0.939692620786,-0.342020143326));
#1641 = ADVANCED_FACE('',(#1642),#1658,.F.);
#1642 = FACE_BOUND('',#1643,.F.);
#1643 = EDGE_LOOP('',(#1644,#1645,#1651,#1652));
#1644 = ORIENTED_EDGE('',*,*,#1621,.T.);
#1645 = ORIENTED_EDGE('',*,*,#1646,.T.);
#1646 = EDGE_CURVE('',#1614,#1408,#1647,.T.);
#1647 = B_SPLINE_CURVE_WITH_KNOTS('',2,(#1648,#1649,#1650),
  .UNSPECIFIED.,.F.,.F.,(3,3),(0.,1.),.PIECEWISE_BEZIER_KNOTS.);
#1648 = CARTESIAN_POINT('',(24.162929936306,1.497031563224,
    5.867343056267));
#1649 = CARTESIAN_POINT('',(23.970063694268,1.402921562003,
    5.608777952968));
#1650 = CARTESIAN_POINT('',(23.970063694268,1.292865143909,
    5.306400429388));
#1651 = ORIENTED_EDGE('',*,*,#1405,.F.);
#1652 = ORIENTED_EDGE('',*,*,#1653,.F.);
#1653 = EDGE_CURVE('',#1622,#1406,#1654,.T.);
#1654 = B_SPLINE_CURVE_WITH_KNOTS('',2,(#1655,#1656,#1657),
  .UNSPECIFIED.,.F.,.F.,(3,3),(0.,1.),.PIECEWISE_BEZIER_KNOTS.);
#1655 = CARTESIAN_POINT('',(24.162929936306,2.248785659853,
    5.593726941607));
#1656 = CARTESIAN_POINT('',(23.970063694268,2.154675658632,
    5.335161838308));
#1657 = CARTESIAN_POINT('',(23.970063694268,2.044619240538,
    5.032784314728));
#1658 = SURFACE_OF_LINEAR_EXTRUSION('',#1659,#1663);
#1659 = B_SPLINE_CURVE_WITH_KNOTS('',2,(#1660,#1661,#1662),
  .UNSPECIFIED.,.F.,.F.,(3,3),(0.,1.),.PIECEWISE_BEZIER_KNOTS.);
#1660 = CARTESIAN_POINT('',(24.162929936306,2.248785659853,
    5.593726941607));
#1661 = CARTESIAN_POINT('',(23.970063694268,2.154675658632,
    5.335161838308));
#1662 = CARTESIAN_POINT('',(23.970063694268,2.044619240538,
    5.032784314728));
#1663 = VECTOR('',#1664,1.);
#1664 = DIRECTION('',(-0.,0.939692620786,-0.342020143326));
#1665 = ADVANCED_FACE('',(#1666),#1676,.T.);
#1666 = FACE_BOUND('',#1667,.F.);
#1667 = EDGE_LOOP('',(#1668,#1669,#1670,#1671,#1672,#1673,#1674,#1675));
#1668 = ORIENTED_EDGE('',*,*,#1431,.T.);
#1669 = ORIENTED_EDGE('',*,*,#1464,.T.);
#1670 = ORIENTED_EDGE('',*,*,#1497,.T.);
#1671 = ORIENTED_EDGE('',*,*,#1530,.T.);
#1672 = ORIENTED_EDGE('',*,*,#1563,.T.);
#1673 = ORIENTED_EDGE('',*,*,#1596,.T.);
#1674 = ORIENTED_EDGE('',*,*,#1629,.T.);
#1675 = ORIENTED_EDGE('',*,*,#1653,.T.);
#1676 = PLANE('',#1677);
#1677 = AXIS2_PLACEMENT_3D('',#1678,#1679,#1680);
#1678 = CARTESIAN_POINT('',(24.753984243351,2.031537196912,
    4.996841695265));
#1679 = DIRECTION('',(-0.,0.939692620786,-0.342020143326));
#1680 = DIRECTION('',(-1.,0.,0.));
#1681 = ADVANCED_FACE('',(#1682),#1692,.F.);
#1682 = FACE_BOUND('',#1683,.T.);
#1683 = EDGE_LOOP('',(#1684,#1685,#1686,#1687,#1688,#1689,#1690,#1691));
#1684 = ORIENTED_EDGE('',*,*,#1415,.T.);
#1685 = ORIENTED_EDGE('',*,*,#1448,.T.);
#1686 = ORIENTED_EDGE('',*,*,#1481,.T.);
#1687 = ORIENTED_EDGE('',*,*,#1514,.T.);
#1688 = ORIENTED_EDGE('',*,*,#1547,.T.);
#1689 = ORIENTED_EDGE('',*,*,#1580,.T.);
#1690 = ORIENTED_EDGE('',*,*,#1613,.T.);
#1691 = ORIENTED_EDGE('',*,*,#1646,.T.);
#1692 = PLANE('',#1693);
#1693 = AXIS2_PLACEMENT_3D('',#1694,#1695,#1696);
#1694 = CARTESIAN_POINT('',(24.753984243351,1.279783100283,
    5.270457809926));
#1695 = DIRECTION('',(-0.,0.939692620786,-0.342020143326));
#1696 = DIRECTION('',(-1.,0.,0.));
#1697 = ( GEOMETRIC_REPRESENTATION_CONTEXT(3) 
GLOBAL_UNCERTAINTY_ASSIGNED_CONTEXT((#1701)) 
GLOBAL_UNIT_ASSIGNED_CONTEXT((#1698,#1699,#1700)) REPRESENTATION_CONTEXT
('Context #1','3D Context with UNIT and UNCERTAINTY') );
#1698 = ( LENGTH_UNIT() NAMED_UNIT(*) SI_UNIT(.MILLI.,.METRE.) );
#1699 = ( NAMED_UNIT(*) PLANE_ANGLE_UNIT() SI_UNIT($,.RADIAN.) );
#1700 = ( NAMED_UNIT(*) SI_UNIT($,.STERADIAN.) SOLID_ANGLE_UNIT() );
#1701 = UNCERTAINTY_MEASURE_WITH_UNIT(LENGTH_MEASURE(1.E-07),#1698,
  'distance_accuracy_value','confusion accuracy');
#1702 = PRODUCT_RELATED_PRODUCT_CATEGORY('part',$,(#7));
ENDSEC;
END-ISO-10303-21;
