ISO-10303-21;
HEADER;
FILE_DESCRIPTION(('FreeCAD Model'),'2;1');
FILE_NAME('Open CASCADE Shape Model','2026-08-31T21:38:36',('FreeCAD'),(
    'FreeCAD'),'Open CASCADE STEP processor 7.8','FreeCAD','Unknown');
FILE_SCHEMA(('AUTOMOTIVE_DESIGN { 1 0 10303 214 1 1 1 1 }'));
ENDSEC;
DATA;
#1 = APPLICATION_PROTOCOL_DEFINITION('international standard',
  'automotive_design',2000,#2);
#2 = APPLICATION_CONTEXT(
  'core data for automotive mechanical design processes');
#3 = SHAPE_DEFINITION_REPRESENTATION(#4,#10);
#4 = PRODUCT_DEFINITION_SHAPE('','',#5);
#5 = PRODUCT_DEFINITION('design','',#6,#9);
#6 = PRODUCT_DEFINITION_FORMATION('','',#7);
#7 = PRODUCT('Open CASCADE STEP translator 7.8 44',
  'Open CASCADE STEP translator 7.8 44','',(#8));
#8 = PRODUCT_CONTEXT('',#2,'mechanical');
#9 = PRODUCT_DEFINITION_CONTEXT('part definition',#2,'design');
#10 = ADVANCED_BREP_SHAPE_REPRESENTATION('',(#11,#15),#1305);
#11 = AXIS2_PLACEMENT_3D('',#12,#13,#14);
#12 = CARTESIAN_POINT('',(0.,0.,0.));
#13 = DIRECTION('',(0.,0.,1.));
#14 = DIRECTION('',(1.,0.,-0.));
#15 = MANIFOLD_SOLID_BREP('',#16);
#16 = CLOSED_SHELL('',(#17,#57,#222,#246,#334,#439,#456,#473,#490,#507,
    #524,#541,#558,#590,#614,#638,#663,#688,#712,#736,#754,#771,#802,
    #826,#850,#876,#902,#926,#952,#969,#1000,#1024,#1048,#1080,#1104,
    #1128,#1153,#1178,#1202,#1226,#1244,#1261,#1277,#1289));
#17 = ADVANCED_FACE('',(#18),#52,.F.);
#18 = FACE_BOUND('',#19,.F.);
#19 = EDGE_LOOP('',(#20,#30,#38,#46));
#20 = ORIENTED_EDGE('',*,*,#21,.F.);
#21 = EDGE_CURVE('',#22,#24,#26,.T.);
#22 = VERTEX_POINT('',#23);
#23 = CARTESIAN_POINT('',(0.,3.639702342662,10.));
#24 = VERTEX_POINT('',#25);
#25 = CARTESIAN_POINT('',(0.,13.75,10.));
#26 = LINE('',#27,#28);
#27 = CARTESIAN_POINT('',(0.,0.,10.));
#28 = VECTOR('',#29,1.);
#29 = DIRECTION('',(0.,1.,0.));
#30 = ORIENTED_EDGE('',*,*,#31,.T.);
#31 = EDGE_CURVE('',#22,#32,#34,.T.);
#32 = VERTEX_POINT('',#33);
#33 = CARTESIAN_POINT('',(0.,0.,0.));
#34 = LINE('',#35,#36);
#35 = CARTESIAN_POINT('',(0.,0.,0.));
#36 = VECTOR('',#37,1.);
#37 = DIRECTION('',(0.,-0.342020143326,-0.939692620786));
#38 = ORIENTED_EDGE('',*,*,#39,.T.);
#39 = EDGE_CURVE('',#32,#40,#42,.T.);
#40 = VERTEX_POINT('',#41);
#41 = CARTESIAN_POINT('',(0.,13.75,0.));
#42 = LINE('',#43,#44);
#43 = CARTESIAN_POINT('',(0.,0.,0.));
#44 = VECTOR('',#45,1.);
#45 = DIRECTION('',(0.,1.,0.));
#46 = ORIENTED_EDGE('',*,*,#47,.T.);
#47 = EDGE_CURVE('',#40,#24,#48,.T.);
#48 = LINE('',#49,#50);
#49 = CARTESIAN_POINT('',(0.,13.75,-1.));
#50 = VECTOR('',#51,1.);
#51 = DIRECTION('',(0.,0.,1.));
#52 = PLANE('',#53);
#53 = AXIS2_PLACEMENT_3D('',#54,#55,#56);
#54 = CARTESIAN_POINT('',(0.,0.,0.));
#55 = DIRECTION('',(1.,0.,0.));
#56 = DIRECTION('',(0.,0.,1.));
#57 = ADVANCED_FACE('',(#58,#147),#217,.T.);
#58 = FACE_BOUND('',#59,.T.);
#59 = EDGE_LOOP('',(#60,#61,#69,#77,#85,#93,#101,#109,#117,#125,#133,
    #141));
#60 = ORIENTED_EDGE('',*,*,#21,.F.);
#61 = ORIENTED_EDGE('',*,*,#62,.T.);
#62 = EDGE_CURVE('',#22,#63,#65,.T.);
#63 = VERTEX_POINT('',#64);
#64 = CARTESIAN_POINT('',(43.,3.639702342662,10.));
#65 = LINE('',#66,#67);
#66 = CARTESIAN_POINT('',(-1.,3.639702342662,10.));
#67 = VECTOR('',#68,1.);
#68 = DIRECTION('',(1.,0.,0.));
#69 = ORIENTED_EDGE('',*,*,#70,.T.);
#70 = EDGE_CURVE('',#63,#71,#73,.T.);
#71 = VERTEX_POINT('',#72);
#72 = CARTESIAN_POINT('',(43.,13.875609756098,10.));
#73 = LINE('',#74,#75);
#74 = CARTESIAN_POINT('',(43.,0.,10.));
#75 = VECTOR('',#76,1.);
#76 = DIRECTION('',(0.,1.,0.));
#77 = ORIENTED_EDGE('',*,*,#78,.F.);
#78 = EDGE_CURVE('',#79,#71,#81,.T.);
#79 = VERTEX_POINT('',#80);
#80 = CARTESIAN_POINT('',(42.9,13.9,10.));
#81 = LINE('',#82,#83);
#82 = CARTESIAN_POINT('',(42.9,13.9,10.));
#83 = VECTOR('',#84,1.);
#84 = DIRECTION('',(0.971520338783,-0.236956180191,0.));
#85 = ORIENTED_EDGE('',*,*,#86,.F.);
#86 = EDGE_CURVE('',#87,#79,#89,.T.);
#87 = VERTEX_POINT('',#88);
#88 = CARTESIAN_POINT('',(42.9,17.9,10.));
#89 = LINE('',#90,#91);
#90 = CARTESIAN_POINT('',(42.9,17.9,10.));
#91 = VECTOR('',#92,1.);
#92 = DIRECTION('',(0.,-1.,0.));
#93 = ORIENTED_EDGE('',*,*,#94,.F.);
#94 = EDGE_CURVE('',#95,#87,#97,.T.);
#95 = VERTEX_POINT('',#96);
#96 = CARTESIAN_POINT('',(43.,17.924390243902,10.));
#97 = LINE('',#98,#99);
#98 = CARTESIAN_POINT('',(47.,18.9,10.));
#99 = VECTOR('',#100,1.);
#100 = DIRECTION('',(-0.971520338783,-0.236956180191,0.));
#101 = ORIENTED_EDGE('',*,*,#102,.T.);
#102 = EDGE_CURVE('',#95,#103,#105,.T.);
#103 = VERTEX_POINT('',#104);
#104 = CARTESIAN_POINT('',(43.,53.,10.));
#105 = LINE('',#106,#107);
#106 = CARTESIAN_POINT('',(43.,0.,10.));
#107 = VECTOR('',#108,1.);
#108 = DIRECTION('',(0.,1.,0.));
#109 = ORIENTED_EDGE('',*,*,#110,.F.);
#110 = EDGE_CURVE('',#111,#103,#113,.T.);
#111 = VERTEX_POINT('',#112);
#112 = CARTESIAN_POINT('',(0.,53.,10.));
#113 = LINE('',#114,#115);
#114 = CARTESIAN_POINT('',(0.,53.,10.));
#115 = VECTOR('',#116,1.);
#116 = DIRECTION('',(1.,0.,0.));
#117 = ORIENTED_EDGE('',*,*,#118,.F.);
#118 = EDGE_CURVE('',#119,#111,#121,.T.);
#119 = VERTEX_POINT('',#120);
#120 = CARTESIAN_POINT('',(0.,18.05,10.));
#121 = LINE('',#122,#123);
#122 = CARTESIAN_POINT('',(0.,0.,10.));
#123 = VECTOR('',#124,1.);
#124 = DIRECTION('',(0.,1.,0.));
#125 = ORIENTED_EDGE('',*,*,#126,.T.);
#126 = EDGE_CURVE('',#119,#127,#129,.T.);
#127 = VERTEX_POINT('',#128);
#128 = CARTESIAN_POINT('',(4.,19.05,10.));
#129 = LINE('',#130,#131);
#130 = CARTESIAN_POINT('',(-0.123529411765,18.019117647059,10.));
#131 = VECTOR('',#132,1.);
#132 = DIRECTION('',(0.970142500145,0.242535625036,0.));
#133 = ORIENTED_EDGE('',*,*,#134,.T.);
#134 = EDGE_CURVE('',#127,#135,#137,.T.);
#135 = VERTEX_POINT('',#136);
#136 = CARTESIAN_POINT('',(4.,12.75,10.));
#137 = LINE('',#138,#139);
#138 = CARTESIAN_POINT('',(4.,6.375,10.));
#139 = VECTOR('',#140,1.);
#140 = DIRECTION('',(0.,-1.,0.));
#141 = ORIENTED_EDGE('',*,*,#142,.T.);
#142 = EDGE_CURVE('',#135,#24,#143,.T.);
#143 = LINE('',#144,#145);
#144 = CARTESIAN_POINT('',(1.617647058824,13.345588235294,10.));
#145 = VECTOR('',#146,1.);
#146 = DIRECTION('',(-0.970142500145,0.242535625036,0.));
#147 = FACE_BOUND('',#148,.T.);
#148 = EDGE_LOOP('',(#149,#160,#168,#177,#185,#194,#202,#211));
#149 = ORIENTED_EDGE('',*,*,#150,.F.);
#150 = EDGE_CURVE('',#151,#153,#155,.T.);
#151 = VERTEX_POINT('',#152);
#152 = CARTESIAN_POINT('',(16.6,38.36,10.));
#153 = VERTEX_POINT('',#154);
#154 = CARTESIAN_POINT('',(16.,37.76,10.));
#155 = CIRCLE('',#156,0.6);
#156 = AXIS2_PLACEMENT_3D('',#157,#158,#159);
#157 = CARTESIAN_POINT('',(16.6,37.76,10.));
#158 = DIRECTION('',(0.,-0.,1.));
#159 = DIRECTION('',(0.,1.,0.));
#160 = ORIENTED_EDGE('',*,*,#161,.T.);
#161 = EDGE_CURVE('',#151,#162,#164,.T.);
#162 = VERTEX_POINT('',#163);
#163 = CARTESIAN_POINT('',(26.4,38.36,10.));
#164 = LINE('',#165,#166);
#165 = CARTESIAN_POINT('',(13.5,38.36,10.));
#166 = VECTOR('',#167,1.);
#167 = DIRECTION('',(1.,0.,0.));
#168 = ORIENTED_EDGE('',*,*,#169,.F.);
#169 = EDGE_CURVE('',#170,#162,#172,.T.);
#170 = VERTEX_POINT('',#171);
#171 = CARTESIAN_POINT('',(27.,37.76,10.));
#172 = CIRCLE('',#173,0.6);
#173 = AXIS2_PLACEMENT_3D('',#174,#175,#176);
#174 = CARTESIAN_POINT('',(26.4,37.76,10.));
#175 = DIRECTION('',(0.,-0.,1.));
#176 = DIRECTION('',(0.,1.,0.));
#177 = ORIENTED_EDGE('',*,*,#178,.T.);
#178 = EDGE_CURVE('',#170,#179,#181,.T.);
#179 = VERTEX_POINT('',#180);
#180 = CARTESIAN_POINT('',(27.,27.96,10.));
#181 = LINE('',#182,#183);
#182 = CARTESIAN_POINT('',(27.,13.68,10.));
#183 = VECTOR('',#184,1.);
#184 = DIRECTION('',(0.,-1.,0.));
#185 = ORIENTED_EDGE('',*,*,#186,.F.);
#186 = EDGE_CURVE('',#187,#179,#189,.T.);
#187 = VERTEX_POINT('',#188);
#188 = CARTESIAN_POINT('',(26.4,27.36,10.));
#189 = CIRCLE('',#190,0.6);
#190 = AXIS2_PLACEMENT_3D('',#191,#192,#193);
#191 = CARTESIAN_POINT('',(26.4,27.96,10.));
#192 = DIRECTION('',(-0.,0.,1.));
#193 = DIRECTION('',(0.,-1.,0.));
#194 = ORIENTED_EDGE('',*,*,#195,.T.);
#195 = EDGE_CURVE('',#187,#196,#198,.T.);
#196 = VERTEX_POINT('',#197);
#197 = CARTESIAN_POINT('',(16.6,27.36,10.));
#198 = LINE('',#199,#200);
#199 = CARTESIAN_POINT('',(8.,27.36,10.));
#200 = VECTOR('',#201,1.);
#201 = DIRECTION('',(-1.,0.,0.));
#202 = ORIENTED_EDGE('',*,*,#203,.F.);
#203 = EDGE_CURVE('',#204,#196,#206,.T.);
#204 = VERTEX_POINT('',#205);
#205 = CARTESIAN_POINT('',(16.,27.96,10.));
#206 = CIRCLE('',#207,0.6);
#207 = AXIS2_PLACEMENT_3D('',#208,#209,#210);
#208 = CARTESIAN_POINT('',(16.6,27.96,10.));
#209 = DIRECTION('',(0.,0.,1.));
#210 = DIRECTION('',(-1.,0.,0.));
#211 = ORIENTED_EDGE('',*,*,#212,.T.);
#212 = EDGE_CURVE('',#204,#153,#213,.T.);
#213 = LINE('',#214,#215);
#214 = CARTESIAN_POINT('',(16.,19.18,10.));
#215 = VECTOR('',#216,1.);
#216 = DIRECTION('',(0.,1.,0.));
#217 = PLANE('',#218);
#218 = AXIS2_PLACEMENT_3D('',#219,#220,#221);
#219 = CARTESIAN_POINT('',(0.,0.,10.));
#220 = DIRECTION('',(0.,0.,1.));
#221 = DIRECTION('',(1.,0.,0.));
#222 = ADVANCED_FACE('',(#223),#241,.T.);
#223 = FACE_BOUND('',#224,.T.);
#224 = EDGE_LOOP('',(#225,#233,#234,#235));
#225 = ORIENTED_EDGE('',*,*,#226,.T.);
#226 = EDGE_CURVE('',#227,#40,#229,.T.);
#227 = VERTEX_POINT('',#228);
#228 = CARTESIAN_POINT('',(4.,12.75,0.));
#229 = LINE('',#230,#231);
#230 = CARTESIAN_POINT('',(1.617647058824,13.345588235294,0.));
#231 = VECTOR('',#232,1.);
#232 = DIRECTION('',(-0.970142500145,0.242535625036,0.));
#233 = ORIENTED_EDGE('',*,*,#47,.T.);
#234 = ORIENTED_EDGE('',*,*,#142,.F.);
#235 = ORIENTED_EDGE('',*,*,#236,.F.);
#236 = EDGE_CURVE('',#227,#135,#237,.T.);
#237 = LINE('',#238,#239);
#238 = CARTESIAN_POINT('',(4.,12.75,-1.));
#239 = VECTOR('',#240,1.);
#240 = DIRECTION('',(0.,0.,1.));
#241 = PLANE('',#242);
#242 = AXIS2_PLACEMENT_3D('',#243,#244,#245);
#243 = CARTESIAN_POINT('',(0.,13.75,-1.));
#244 = DIRECTION('',(0.242535625036,0.970142500145,0.));
#245 = DIRECTION('',(0.970142500145,-0.242535625036,0.));
#246 = ADVANCED_FACE('',(#247),#329,.F.);
#247 = FACE_BOUND('',#248,.F.);
#248 = EDGE_LOOP('',(#249,#250,#258,#266,#274,#282,#290,#298,#306,#314,
    #322,#328));
#249 = ORIENTED_EDGE('',*,*,#39,.F.);
#250 = ORIENTED_EDGE('',*,*,#251,.T.);
#251 = EDGE_CURVE('',#32,#252,#254,.T.);
#252 = VERTEX_POINT('',#253);
#253 = CARTESIAN_POINT('',(43.,0.,0.));
#254 = LINE('',#255,#256);
#255 = CARTESIAN_POINT('',(0.,0.,0.));
#256 = VECTOR('',#257,1.);
#257 = DIRECTION('',(1.,0.,0.));
#258 = ORIENTED_EDGE('',*,*,#259,.T.);
#259 = EDGE_CURVE('',#252,#260,#262,.T.);
#260 = VERTEX_POINT('',#261);
#261 = CARTESIAN_POINT('',(43.,13.875609756098,0.));
#262 = LINE('',#263,#264);
#263 = CARTESIAN_POINT('',(43.,0.,0.));
#264 = VECTOR('',#265,1.);
#265 = DIRECTION('',(0.,1.,0.));
#266 = ORIENTED_EDGE('',*,*,#267,.F.);
#267 = EDGE_CURVE('',#268,#260,#270,.T.);
#268 = VERTEX_POINT('',#269);
#269 = CARTESIAN_POINT('',(42.9,13.9,0.));
#270 = LINE('',#271,#272);
#271 = CARTESIAN_POINT('',(42.9,13.9,0.));
#272 = VECTOR('',#273,1.);
#273 = DIRECTION('',(0.971520338783,-0.236956180191,0.));
#274 = ORIENTED_EDGE('',*,*,#275,.F.);
#275 = EDGE_CURVE('',#276,#268,#278,.T.);
#276 = VERTEX_POINT('',#277);
#277 = CARTESIAN_POINT('',(42.9,17.9,0.));
#278 = LINE('',#279,#280);
#279 = CARTESIAN_POINT('',(42.9,17.9,0.));
#280 = VECTOR('',#281,1.);
#281 = DIRECTION('',(0.,-1.,0.));
#282 = ORIENTED_EDGE('',*,*,#283,.F.);
#283 = EDGE_CURVE('',#284,#276,#286,.T.);
#284 = VERTEX_POINT('',#285);
#285 = CARTESIAN_POINT('',(43.,17.924390243902,0.));
#286 = LINE('',#287,#288);
#287 = CARTESIAN_POINT('',(47.,18.9,0.));
#288 = VECTOR('',#289,1.);
#289 = DIRECTION('',(-0.971520338783,-0.236956180191,0.));
#290 = ORIENTED_EDGE('',*,*,#291,.T.);
#291 = EDGE_CURVE('',#284,#292,#294,.T.);
#292 = VERTEX_POINT('',#293);
#293 = CARTESIAN_POINT('',(43.,53.,0.));
#294 = LINE('',#295,#296);
#295 = CARTESIAN_POINT('',(43.,0.,0.));
#296 = VECTOR('',#297,1.);
#297 = DIRECTION('',(0.,1.,0.));
#298 = ORIENTED_EDGE('',*,*,#299,.F.);
#299 = EDGE_CURVE('',#300,#292,#302,.T.);
#300 = VERTEX_POINT('',#301);
#301 = CARTESIAN_POINT('',(0.,53.,0.));
#302 = LINE('',#303,#304);
#303 = CARTESIAN_POINT('',(0.,53.,0.));
#304 = VECTOR('',#305,1.);
#305 = DIRECTION('',(1.,0.,0.));
#306 = ORIENTED_EDGE('',*,*,#307,.F.);
#307 = EDGE_CURVE('',#308,#300,#310,.T.);
#308 = VERTEX_POINT('',#309);
#309 = CARTESIAN_POINT('',(0.,18.05,0.));
#310 = LINE('',#311,#312);
#311 = CARTESIAN_POINT('',(0.,0.,0.));
#312 = VECTOR('',#313,1.);
#313 = DIRECTION('',(0.,1.,0.));
#314 = ORIENTED_EDGE('',*,*,#315,.T.);
#315 = EDGE_CURVE('',#308,#316,#318,.T.);
#316 = VERTEX_POINT('',#317);
#317 = CARTESIAN_POINT('',(4.,19.05,0.));
#318 = LINE('',#319,#320);
#319 = CARTESIAN_POINT('',(-0.123529411765,18.019117647059,0.));
#320 = VECTOR('',#321,1.);
#321 = DIRECTION('',(0.970142500145,0.242535625036,0.));
#322 = ORIENTED_EDGE('',*,*,#323,.T.);
#323 = EDGE_CURVE('',#316,#227,#324,.T.);
#324 = LINE('',#325,#326);
#325 = CARTESIAN_POINT('',(4.,6.375,0.));
#326 = VECTOR('',#327,1.);
#327 = DIRECTION('',(0.,-1.,0.));
#328 = ORIENTED_EDGE('',*,*,#226,.T.);
#329 = PLANE('',#330);
#330 = AXIS2_PLACEMENT_3D('',#331,#332,#333);
#331 = CARTESIAN_POINT('',(0.,0.,0.));
#332 = DIRECTION('',(0.,0.,1.));
#333 = DIRECTION('',(1.,0.,0.));
#334 = ADVANCED_FACE('',(#335,#346),#434,.T.);
#335 = FACE_BOUND('',#336,.T.);
#336 = EDGE_LOOP('',(#337,#338,#339,#345));
#337 = ORIENTED_EDGE('',*,*,#31,.T.);
#338 = ORIENTED_EDGE('',*,*,#251,.T.);
#339 = ORIENTED_EDGE('',*,*,#340,.F.);
#340 = EDGE_CURVE('',#63,#252,#341,.T.);
#341 = LINE('',#342,#343);
#342 = CARTESIAN_POINT('',(43.,0.,0.));
#343 = VECTOR('',#344,1.);
#344 = DIRECTION('',(0.,-0.342020143326,-0.939692620786));
#345 = ORIENTED_EDGE('',*,*,#62,.F.);
#346 = FACE_BOUND('',#347,.T.);
#347 = EDGE_LOOP('',(#348,#358,#366,#381,#389,#401,#420,#428));
#348 = ORIENTED_EDGE('',*,*,#349,.F.);
#349 = EDGE_CURVE('',#350,#352,#354,.T.);
#350 = VERTEX_POINT('',#351);
#351 = CARTESIAN_POINT('',(21.656687898089,1.273895819932,3.5));
#352 = VERTEX_POINT('',#353);
#353 = CARTESIAN_POINT('',(22.730573248408,1.273895819932,3.5));
#354 = LINE('',#355,#356);
#355 = CARTESIAN_POINT('',(10.865286624204,1.273895819932,3.5));
#356 = VECTOR('',#357,1.);
#357 = DIRECTION('',(1.,0.,0.));
#358 = ORIENTED_EDGE('',*,*,#359,.F.);
#359 = EDGE_CURVE('',#360,#350,#362,.T.);
#360 = VERTEX_POINT('',#361);
#361 = CARTESIAN_POINT('',(21.656687898089,2.663238282399,7.317187043519
    ));
#362 = LINE('',#363,#364);
#363 = CARTESIAN_POINT('',(21.656687898089,0.636947909966,1.75));
#364 = VECTOR('',#365,1.);
#365 = DIRECTION('',(-0.,-0.342020143326,-0.939692620786));
#366 = ORIENTED_EDGE('',*,*,#367,.F.);
#367 = EDGE_CURVE('',#368,#360,#370,.T.);
#368 = VERTEX_POINT('',#369);
#369 = CARTESIAN_POINT('',(20.269426751592,2.383696723217,6.549152921867
    ));
#370 = B_SPLINE_CURVE_WITH_KNOTS('',5,(#371,#372,#373,#374,#375,#376,
    #377,#378,#379,#380),.UNSPECIFIED.,.F.,.F.,(6,4,6),(0.,
    0.724057549441,1.),.UNSPECIFIED.);
#371 = CARTESIAN_POINT('',(20.269426751592,2.383696723217,6.549152921867
    ));
#372 = CARTESIAN_POINT('',(20.494701325853,2.409232076143,6.619310727428
    ));
#373 = CARTESIAN_POINT('',(20.713371082243,2.440098888708,6.704116597962
    ));
#374 = CARTESIAN_POINT('',(20.923716643096,2.476516992288,6.804174515207
    ));
#375 = CARTESIAN_POINT('',(21.124096355333,2.518514045045,6.91956046934)
  );
#376 = CARTESIAN_POINT('',(21.385293352108,2.583768239909,7.098844896254
    ));
#377 = CARTESIAN_POINT('',(21.455738148534,2.602538453325,7.150415633773
    ));
#378 = CARTESIAN_POINT('',(21.524485304944,2.62205554452,7.204038401124)
  );
#379 = CARTESIAN_POINT('',(21.591481641998,2.642297711285,7.259653297232
    ));
#380 = CARTESIAN_POINT('',(21.656687898089,2.663238282399,7.317187043519
    ));
#381 = ORIENTED_EDGE('',*,*,#382,.F.);
#382 = EDGE_CURVE('',#383,#368,#385,.T.);
#383 = VERTEX_POINT('',#384);
#384 = CARTESIAN_POINT('',(20.269426751592,2.718310060891,7.468495511375
    ));
#385 = LINE('',#386,#387);
#386 = CARTESIAN_POINT('',(20.269426751592,1.191848361609,3.274576460934
    ));
#387 = VECTOR('',#388,1.);
#388 = DIRECTION('',(-0.,-0.342020143326,-0.939692620786));
#389 = ORIENTED_EDGE('',*,*,#390,.F.);
#390 = EDGE_CURVE('',#391,#383,#393,.T.);
#391 = VERTEX_POINT('',#392);
#392 = CARTESIAN_POINT('',(21.182802547771,2.896770507651,7.958811559113
    ));
#393 = B_SPLINE_CURVE_WITH_KNOTS('',6,(#394,#395,#396,#397,#398,#399,
    #400),.UNSPECIFIED.,.F.,.F.,(7,7),(0.,1.),.PIECEWISE_BEZIER_KNOTS.);
#394 = CARTESIAN_POINT('',(21.182802547771,2.896770507651,7.958811559113
    ));
#395 = CARTESIAN_POINT('',(21.033235318784,2.856903971381,7.849279150918
    ));
#396 = CARTESIAN_POINT('',(20.882173278011,2.820228173284,7.748513223807
    ));
#397 = CARTESIAN_POINT('',(20.729676931733,2.787256522549,7.657924357932
    ));
#398 = CARTESIAN_POINT('',(20.576152580048,2.75869595565,7.579454845289)
  );
#399 = CARTESIAN_POINT('',(20.422358389487,2.735428290215,7.515527459903
    ));
#400 = CARTESIAN_POINT('',(20.269426751592,2.718310060891,7.468495511375
    ));
#401 = ORIENTED_EDGE('',*,*,#402,.F.);
#402 = EDGE_CURVE('',#403,#391,#405,.T.);
#403 = VERTEX_POINT('',#404);
#404 = CARTESIAN_POINT('',(21.85923566879,3.203499400519,8.801542266161)
  );
#405 = B_SPLINE_CURVE_WITH_KNOTS('',5,(#406,#407,#408,#409,#410,#411,
    #412,#413,#414,#415,#416,#417,#418,#419),.UNSPECIFIED.,.F.,.F.,(6,4,
    4,6),(0.,7.602305458109E-02,0.52948728546,1.),.UNSPECIFIED.);
#406 = CARTESIAN_POINT('',(21.85923566879,3.203499400519,8.801542266161)
  );
#407 = CARTESIAN_POINT('',(21.85351473931,3.198034303789,8.786527036301)
  );
#408 = CARTESIAN_POINT('',(21.847603848093,3.192594092569,8.771580178816
    ));
#409 = CARTESIAN_POINT('',(21.84150335314,3.187179366928,8.756703342387)
  );
#410 = CARTESIAN_POINT('',(21.835213771825,3.181790707066,8.741898121094
    ));
#411 = CARTESIAN_POINT('',(21.790095697401,3.144445079278,8.639291852031
    ));
#412 = CARTESIAN_POINT('',(21.744749705082,3.11340676027,8.55401477142)
  );
#413 = CARTESIAN_POINT('',(21.692847157376,3.083439125643,8.471679371968
    ));
#414 = CARTESIAN_POINT('',(21.634728461781,3.054621608759,8.392503895043
    ));
#415 = CARTESIAN_POINT('',(21.504580210464,2.998339636559,8.237870447301
    ));
#416 = CARTESIAN_POINT('',(21.432103943951,2.970964399538,8.162657601734
    ));
#417 = CARTESIAN_POINT('',(21.353930526065,2.944920801976,8.091103405511
    ));
#418 = CARTESIAN_POINT('',(21.270647348879,2.920200708902,8.023185507984
    ));
#419 = CARTESIAN_POINT('',(21.182802547771,2.896770507651,7.958811559113
    ));
#420 = ORIENTED_EDGE('',*,*,#421,.F.);
#421 = EDGE_CURVE('',#422,#403,#424,.T.);
#422 = VERTEX_POINT('',#423);
#423 = CARTESIAN_POINT('',(22.730573248408,3.203499400519,8.801542266161
    ));
#424 = LINE('',#425,#426);
#425 = CARTESIAN_POINT('',(10.429617834395,3.203499400519,8.801542266161
    ));
#426 = VECTOR('',#427,1.);
#427 = DIRECTION('',(-1.,0.,0.));
#428 = ORIENTED_EDGE('',*,*,#429,.F.);
#429 = EDGE_CURVE('',#352,#422,#430,.T.);
#430 = LINE('',#431,#432);
#431 = CARTESIAN_POINT('',(22.730573248408,1.601749700259,4.400771133081
    ));
#432 = VECTOR('',#433,1.);
#433 = DIRECTION('',(0.,0.342020143326,0.939692620786));
#434 = PLANE('',#435);
#435 = AXIS2_PLACEMENT_3D('',#436,#437,#438);
#436 = CARTESIAN_POINT('',(-1.,0.,0.));
#437 = DIRECTION('',(0.,-0.939692620786,0.342020143326));
#438 = DIRECTION('',(0.,0.342020143326,0.939692620786));
#439 = ADVANCED_FACE('',(#440),#451,.T.);
#440 = FACE_BOUND('',#441,.T.);
#441 = EDGE_LOOP('',(#442,#443,#444,#445));
#442 = ORIENTED_EDGE('',*,*,#323,.T.);
#443 = ORIENTED_EDGE('',*,*,#236,.T.);
#444 = ORIENTED_EDGE('',*,*,#134,.F.);
#445 = ORIENTED_EDGE('',*,*,#446,.F.);
#446 = EDGE_CURVE('',#316,#127,#447,.T.);
#447 = LINE('',#448,#449);
#448 = CARTESIAN_POINT('',(4.,19.05,-1.));
#449 = VECTOR('',#450,1.);
#450 = DIRECTION('',(0.,0.,1.));
#451 = PLANE('',#452);
#452 = AXIS2_PLACEMENT_3D('',#453,#454,#455);
#453 = CARTESIAN_POINT('',(4.,12.75,-1.));
#454 = DIRECTION('',(-1.,0.,0.));
#455 = DIRECTION('',(0.,1.,0.));
#456 = ADVANCED_FACE('',(#457),#468,.T.);
#457 = FACE_BOUND('',#458,.T.);
#458 = EDGE_LOOP('',(#459,#460,#461,#462));
#459 = ORIENTED_EDGE('',*,*,#315,.T.);
#460 = ORIENTED_EDGE('',*,*,#446,.T.);
#461 = ORIENTED_EDGE('',*,*,#126,.F.);
#462 = ORIENTED_EDGE('',*,*,#463,.F.);
#463 = EDGE_CURVE('',#308,#119,#464,.T.);
#464 = LINE('',#465,#466);
#465 = CARTESIAN_POINT('',(0.,18.05,-1.));
#466 = VECTOR('',#467,1.);
#467 = DIRECTION('',(0.,0.,1.));
#468 = PLANE('',#469);
#469 = AXIS2_PLACEMENT_3D('',#470,#471,#472);
#470 = CARTESIAN_POINT('',(4.,19.05,-1.));
#471 = DIRECTION('',(0.242535625036,-0.970142500145,0.));
#472 = DIRECTION('',(-0.970142500145,-0.242535625036,0.));
#473 = ADVANCED_FACE('',(#474),#485,.F.);
#474 = FACE_BOUND('',#475,.F.);
#475 = EDGE_LOOP('',(#476,#477,#478,#479));
#476 = ORIENTED_EDGE('',*,*,#118,.F.);
#477 = ORIENTED_EDGE('',*,*,#463,.F.);
#478 = ORIENTED_EDGE('',*,*,#307,.T.);
#479 = ORIENTED_EDGE('',*,*,#480,.T.);
#480 = EDGE_CURVE('',#300,#111,#481,.T.);
#481 = LINE('',#482,#483);
#482 = CARTESIAN_POINT('',(0.,53.,0.));
#483 = VECTOR('',#484,1.);
#484 = DIRECTION('',(0.,0.,1.));
#485 = PLANE('',#486);
#486 = AXIS2_PLACEMENT_3D('',#487,#488,#489);
#487 = CARTESIAN_POINT('',(0.,0.,0.));
#488 = DIRECTION('',(1.,0.,0.));
#489 = DIRECTION('',(0.,0.,1.));
#490 = ADVANCED_FACE('',(#491),#502,.T.);
#491 = FACE_BOUND('',#492,.T.);
#492 = EDGE_LOOP('',(#493,#494,#495,#496));
#493 = ORIENTED_EDGE('',*,*,#299,.F.);
#494 = ORIENTED_EDGE('',*,*,#480,.T.);
#495 = ORIENTED_EDGE('',*,*,#110,.T.);
#496 = ORIENTED_EDGE('',*,*,#497,.F.);
#497 = EDGE_CURVE('',#292,#103,#498,.T.);
#498 = LINE('',#499,#500);
#499 = CARTESIAN_POINT('',(43.,53.,0.));
#500 = VECTOR('',#501,1.);
#501 = DIRECTION('',(0.,0.,1.));
#502 = PLANE('',#503);
#503 = AXIS2_PLACEMENT_3D('',#504,#505,#506);
#504 = CARTESIAN_POINT('',(0.,53.,0.));
#505 = DIRECTION('',(0.,1.,0.));
#506 = DIRECTION('',(0.,0.,1.));
#507 = ADVANCED_FACE('',(#508),#519,.T.);
#508 = FACE_BOUND('',#509,.T.);
#509 = EDGE_LOOP('',(#510,#511,#517,#518));
#510 = ORIENTED_EDGE('',*,*,#102,.F.);
#511 = ORIENTED_EDGE('',*,*,#512,.T.);
#512 = EDGE_CURVE('',#95,#284,#513,.T.);
#513 = LINE('',#514,#515);
#514 = CARTESIAN_POINT('',(43.,17.924390243902,0.));
#515 = VECTOR('',#516,1.);
#516 = DIRECTION('',(0.,0.,-1.));
#517 = ORIENTED_EDGE('',*,*,#291,.T.);
#518 = ORIENTED_EDGE('',*,*,#497,.T.);
#519 = PLANE('',#520);
#520 = AXIS2_PLACEMENT_3D('',#521,#522,#523);
#521 = CARTESIAN_POINT('',(43.,0.,0.));
#522 = DIRECTION('',(1.,0.,0.));
#523 = DIRECTION('',(0.,0.,1.));
#524 = ADVANCED_FACE('',(#525),#536,.T.);
#525 = FACE_BOUND('',#526,.T.);
#526 = EDGE_LOOP('',(#527,#528,#534,#535));
#527 = ORIENTED_EDGE('',*,*,#78,.T.);
#528 = ORIENTED_EDGE('',*,*,#529,.T.);
#529 = EDGE_CURVE('',#71,#95,#530,.T.);
#530 = LINE('',#531,#532);
#531 = CARTESIAN_POINT('',(43.,0.,10.));
#532 = VECTOR('',#533,1.);
#533 = DIRECTION('',(0.,1.,0.));
#534 = ORIENTED_EDGE('',*,*,#94,.T.);
#535 = ORIENTED_EDGE('',*,*,#86,.T.);
#536 = PLANE('',#537);
#537 = AXIS2_PLACEMENT_3D('',#538,#539,#540);
#538 = CARTESIAN_POINT('',(0.,0.,10.));
#539 = DIRECTION('',(0.,0.,1.));
#540 = DIRECTION('',(1.,0.,0.));
#541 = ADVANCED_FACE('',(#542),#553,.T.);
#542 = FACE_BOUND('',#543,.T.);
#543 = EDGE_LOOP('',(#544,#545,#546,#547));
#544 = ORIENTED_EDGE('',*,*,#70,.F.);
#545 = ORIENTED_EDGE('',*,*,#340,.T.);
#546 = ORIENTED_EDGE('',*,*,#259,.T.);
#547 = ORIENTED_EDGE('',*,*,#548,.T.);
#548 = EDGE_CURVE('',#260,#71,#549,.T.);
#549 = LINE('',#550,#551);
#550 = CARTESIAN_POINT('',(43.,13.875609756098,0.));
#551 = VECTOR('',#552,1.);
#552 = DIRECTION('',(0.,0.,1.));
#553 = PLANE('',#554);
#554 = AXIS2_PLACEMENT_3D('',#555,#556,#557);
#555 = CARTESIAN_POINT('',(43.,0.,0.));
#556 = DIRECTION('',(1.,0.,0.));
#557 = DIRECTION('',(0.,0.,1.));
#558 = ADVANCED_FACE('',(#559),#585,.T.);
#559 = FACE_BOUND('',#560,.T.);
#560 = EDGE_LOOP('',(#561,#569,#570,#578));
#561 = ORIENTED_EDGE('',*,*,#562,.F.);
#562 = EDGE_CURVE('',#151,#563,#565,.T.);
#563 = VERTEX_POINT('',#564);
#564 = CARTESIAN_POINT('',(16.6,38.36,20.5));
#565 = LINE('',#566,#567);
#566 = CARTESIAN_POINT('',(16.6,38.36,9.9));
#567 = VECTOR('',#568,1.);
#568 = DIRECTION('',(0.,0.,1.));
#569 = ORIENTED_EDGE('',*,*,#150,.T.);
#570 = ORIENTED_EDGE('',*,*,#571,.T.);
#571 = EDGE_CURVE('',#153,#572,#574,.T.);
#572 = VERTEX_POINT('',#573);
#573 = CARTESIAN_POINT('',(16.,37.76,20.5));
#574 = LINE('',#575,#576);
#575 = CARTESIAN_POINT('',(16.,37.76,9.9));
#576 = VECTOR('',#577,1.);
#577 = DIRECTION('',(0.,0.,1.));
#578 = ORIENTED_EDGE('',*,*,#579,.F.);
#579 = EDGE_CURVE('',#563,#572,#580,.T.);
#580 = CIRCLE('',#581,0.6);
#581 = AXIS2_PLACEMENT_3D('',#582,#583,#584);
#582 = CARTESIAN_POINT('',(16.6,37.76,20.5));
#583 = DIRECTION('',(0.,-0.,1.));
#584 = DIRECTION('',(0.,1.,0.));
#585 = CYLINDRICAL_SURFACE('',#586,0.6);
#586 = AXIS2_PLACEMENT_3D('',#587,#588,#589);
#587 = CARTESIAN_POINT('',(16.6,37.76,9.9));
#588 = DIRECTION('',(0.,0.,1.));
#589 = DIRECTION('',(0.,1.,0.));
#590 = ADVANCED_FACE('',(#591),#609,.F.);
#591 = FACE_BOUND('',#592,.F.);
#592 = EDGE_LOOP('',(#593,#594,#602,#608));
#593 = ORIENTED_EDGE('',*,*,#161,.T.);
#594 = ORIENTED_EDGE('',*,*,#595,.T.);
#595 = EDGE_CURVE('',#162,#596,#598,.T.);
#596 = VERTEX_POINT('',#597);
#597 = CARTESIAN_POINT('',(26.4,38.36,20.5));
#598 = LINE('',#599,#600);
#599 = CARTESIAN_POINT('',(26.4,38.36,9.9));
#600 = VECTOR('',#601,1.);
#601 = DIRECTION('',(0.,0.,1.));
#602 = ORIENTED_EDGE('',*,*,#603,.T.);
#603 = EDGE_CURVE('',#596,#563,#604,.T.);
#604 = LINE('',#605,#606);
#605 = CARTESIAN_POINT('',(26.4,38.36,20.5));
#606 = VECTOR('',#607,1.);
#607 = DIRECTION('',(-1.,0.,0.));
#608 = ORIENTED_EDGE('',*,*,#562,.F.);
#609 = PLANE('',#610);
#610 = AXIS2_PLACEMENT_3D('',#611,#612,#613);
#611 = CARTESIAN_POINT('',(27.,38.36,9.9));
#612 = DIRECTION('',(0.,-1.,0.));
#613 = DIRECTION('',(-1.,0.,0.));
#614 = ADVANCED_FACE('',(#615),#633,.F.);
#615 = FACE_BOUND('',#616,.F.);
#616 = EDGE_LOOP('',(#617,#618,#619,#627));
#617 = ORIENTED_EDGE('',*,*,#212,.T.);
#618 = ORIENTED_EDGE('',*,*,#571,.T.);
#619 = ORIENTED_EDGE('',*,*,#620,.T.);
#620 = EDGE_CURVE('',#572,#621,#623,.T.);
#621 = VERTEX_POINT('',#622);
#622 = CARTESIAN_POINT('',(16.,27.96,20.5));
#623 = LINE('',#624,#625);
#624 = CARTESIAN_POINT('',(16.,37.76,20.5));
#625 = VECTOR('',#626,1.);
#626 = DIRECTION('',(0.,-1.,0.));
#627 = ORIENTED_EDGE('',*,*,#628,.F.);
#628 = EDGE_CURVE('',#204,#621,#629,.T.);
#629 = LINE('',#630,#631);
#630 = CARTESIAN_POINT('',(16.,27.96,9.9));
#631 = VECTOR('',#632,1.);
#632 = DIRECTION('',(0.,0.,1.));
#633 = PLANE('',#634);
#634 = AXIS2_PLACEMENT_3D('',#635,#636,#637);
#635 = CARTESIAN_POINT('',(16.,38.36,9.9));
#636 = DIRECTION('',(1.,0.,0.));
#637 = DIRECTION('',(0.,-1.,0.));
#638 = ADVANCED_FACE('',(#639),#658,.T.);
#639 = FACE_BOUND('',#640,.F.);
#640 = EDGE_LOOP('',(#641,#642,#643,#651));
#641 = ORIENTED_EDGE('',*,*,#595,.F.);
#642 = ORIENTED_EDGE('',*,*,#169,.F.);
#643 = ORIENTED_EDGE('',*,*,#644,.T.);
#644 = EDGE_CURVE('',#170,#645,#647,.T.);
#645 = VERTEX_POINT('',#646);
#646 = CARTESIAN_POINT('',(27.,37.76,20.5));
#647 = LINE('',#648,#649);
#648 = CARTESIAN_POINT('',(27.,37.76,9.9));
#649 = VECTOR('',#650,1.);
#650 = DIRECTION('',(0.,0.,1.));
#651 = ORIENTED_EDGE('',*,*,#652,.T.);
#652 = EDGE_CURVE('',#645,#596,#653,.T.);
#653 = CIRCLE('',#654,0.6);
#654 = AXIS2_PLACEMENT_3D('',#655,#656,#657);
#655 = CARTESIAN_POINT('',(26.4,37.76,20.5));
#656 = DIRECTION('',(0.,0.,1.));
#657 = DIRECTION('',(1.,0.,0.));
#658 = CYLINDRICAL_SURFACE('',#659,0.6);
#659 = AXIS2_PLACEMENT_3D('',#660,#661,#662);
#660 = CARTESIAN_POINT('',(26.4,37.76,9.9));
#661 = DIRECTION('',(0.,0.,1.));
#662 = DIRECTION('',(0.,1.,0.));
#663 = ADVANCED_FACE('',(#664),#683,.T.);
#664 = FACE_BOUND('',#665,.T.);
#665 = EDGE_LOOP('',(#666,#667,#668,#676));
#666 = ORIENTED_EDGE('',*,*,#628,.F.);
#667 = ORIENTED_EDGE('',*,*,#203,.T.);
#668 = ORIENTED_EDGE('',*,*,#669,.T.);
#669 = EDGE_CURVE('',#196,#670,#672,.T.);
#670 = VERTEX_POINT('',#671);
#671 = CARTESIAN_POINT('',(16.6,27.36,20.5));
#672 = LINE('',#673,#674);
#673 = CARTESIAN_POINT('',(16.6,27.36,9.9));
#674 = VECTOR('',#675,1.);
#675 = DIRECTION('',(0.,0.,1.));
#676 = ORIENTED_EDGE('',*,*,#677,.F.);
#677 = EDGE_CURVE('',#621,#670,#678,.T.);
#678 = CIRCLE('',#679,0.6);
#679 = AXIS2_PLACEMENT_3D('',#680,#681,#682);
#680 = CARTESIAN_POINT('',(16.6,27.96,20.5));
#681 = DIRECTION('',(0.,0.,1.));
#682 = DIRECTION('',(-1.,0.,0.));
#683 = CYLINDRICAL_SURFACE('',#684,0.6);
#684 = AXIS2_PLACEMENT_3D('',#685,#686,#687);
#685 = CARTESIAN_POINT('',(16.6,27.96,9.9));
#686 = DIRECTION('',(0.,0.,1.));
#687 = DIRECTION('',(-1.,0.,0.));
#688 = ADVANCED_FACE('',(#689),#707,.F.);
#689 = FACE_BOUND('',#690,.F.);
#690 = EDGE_LOOP('',(#691,#692,#700,#706));
#691 = ORIENTED_EDGE('',*,*,#178,.T.);
#692 = ORIENTED_EDGE('',*,*,#693,.T.);
#693 = EDGE_CURVE('',#179,#694,#696,.T.);
#694 = VERTEX_POINT('',#695);
#695 = CARTESIAN_POINT('',(27.,27.96,20.5));
#696 = LINE('',#697,#698);
#697 = CARTESIAN_POINT('',(27.,27.96,9.9));
#698 = VECTOR('',#699,1.);
#699 = DIRECTION('',(0.,0.,1.));
#700 = ORIENTED_EDGE('',*,*,#701,.T.);
#701 = EDGE_CURVE('',#694,#645,#702,.T.);
#702 = LINE('',#703,#704);
#703 = CARTESIAN_POINT('',(27.,27.96,20.5));
#704 = VECTOR('',#705,1.);
#705 = DIRECTION('',(0.,1.,0.));
#706 = ORIENTED_EDGE('',*,*,#644,.F.);
#707 = PLANE('',#708);
#708 = AXIS2_PLACEMENT_3D('',#709,#710,#711);
#709 = CARTESIAN_POINT('',(27.,27.36,9.9));
#710 = DIRECTION('',(-1.,0.,0.));
#711 = DIRECTION('',(0.,1.,0.));
#712 = ADVANCED_FACE('',(#713),#731,.F.);
#713 = FACE_BOUND('',#714,.F.);
#714 = EDGE_LOOP('',(#715,#716,#717,#725));
#715 = ORIENTED_EDGE('',*,*,#195,.T.);
#716 = ORIENTED_EDGE('',*,*,#669,.T.);
#717 = ORIENTED_EDGE('',*,*,#718,.T.);
#718 = EDGE_CURVE('',#670,#719,#721,.T.);
#719 = VERTEX_POINT('',#720);
#720 = CARTESIAN_POINT('',(26.4,27.36,20.5));
#721 = LINE('',#722,#723);
#722 = CARTESIAN_POINT('',(16.6,27.36,20.5));
#723 = VECTOR('',#724,1.);
#724 = DIRECTION('',(1.,0.,0.));
#725 = ORIENTED_EDGE('',*,*,#726,.F.);
#726 = EDGE_CURVE('',#187,#719,#727,.T.);
#727 = LINE('',#728,#729);
#728 = CARTESIAN_POINT('',(26.4,27.36,9.9));
#729 = VECTOR('',#730,1.);
#730 = DIRECTION('',(0.,0.,1.));
#731 = PLANE('',#732);
#732 = AXIS2_PLACEMENT_3D('',#733,#734,#735);
#733 = CARTESIAN_POINT('',(16.,27.36,9.9));
#734 = DIRECTION('',(0.,1.,0.));
#735 = DIRECTION('',(1.,0.,0.));
#736 = ADVANCED_FACE('',(#737),#749,.T.);
#737 = FACE_BOUND('',#738,.T.);
#738 = EDGE_LOOP('',(#739,#740,#741,#742));
#739 = ORIENTED_EDGE('',*,*,#726,.F.);
#740 = ORIENTED_EDGE('',*,*,#186,.T.);
#741 = ORIENTED_EDGE('',*,*,#693,.T.);
#742 = ORIENTED_EDGE('',*,*,#743,.F.);
#743 = EDGE_CURVE('',#719,#694,#744,.T.);
#744 = CIRCLE('',#745,0.6);
#745 = AXIS2_PLACEMENT_3D('',#746,#747,#748);
#746 = CARTESIAN_POINT('',(26.4,27.96,20.5));
#747 = DIRECTION('',(-0.,0.,1.));
#748 = DIRECTION('',(0.,-1.,0.));
#749 = CYLINDRICAL_SURFACE('',#750,0.6);
#750 = AXIS2_PLACEMENT_3D('',#751,#752,#753);
#751 = CARTESIAN_POINT('',(26.4,27.96,9.9));
#752 = DIRECTION('',(0.,0.,1.));
#753 = DIRECTION('',(0.,-1.,0.));
#754 = ADVANCED_FACE('',(#755),#766,.F.);
#755 = FACE_BOUND('',#756,.F.);
#756 = EDGE_LOOP('',(#757,#758,#764,#765));
#757 = ORIENTED_EDGE('',*,*,#267,.T.);
#758 = ORIENTED_EDGE('',*,*,#759,.T.);
#759 = EDGE_CURVE('',#260,#284,#760,.T.);
#760 = LINE('',#761,#762);
#761 = CARTESIAN_POINT('',(43.,0.,0.));
#762 = VECTOR('',#763,1.);
#763 = DIRECTION('',(0.,1.,0.));
#764 = ORIENTED_EDGE('',*,*,#283,.T.);
#765 = ORIENTED_EDGE('',*,*,#275,.T.);
#766 = PLANE('',#767);
#767 = AXIS2_PLACEMENT_3D('',#768,#769,#770);
#768 = CARTESIAN_POINT('',(0.,0.,0.));
#769 = DIRECTION('',(0.,0.,1.));
#770 = DIRECTION('',(1.,0.,0.));
#771 = ADVANCED_FACE('',(#772),#797,.T.);
#772 = FACE_BOUND('',#773,.T.);
#773 = EDGE_LOOP('',(#774,#775,#783,#791));
#774 = ORIENTED_EDGE('',*,*,#349,.T.);
#775 = ORIENTED_EDGE('',*,*,#776,.T.);
#776 = EDGE_CURVE('',#352,#777,#779,.T.);
#777 = VERTEX_POINT('',#778);
#778 = CARTESIAN_POINT('',(22.730573248408,0.71008024746,3.705212085995)
  );
#779 = LINE('',#780,#781);
#780 = CARTESIAN_POINT('',(22.730573248408,1.461834344089,3.431595971335
    ));
#781 = VECTOR('',#782,1.);
#782 = DIRECTION('',(0.,-0.939692620786,0.342020143326));
#783 = ORIENTED_EDGE('',*,*,#784,.T.);
#784 = EDGE_CURVE('',#777,#785,#787,.T.);
#785 = VERTEX_POINT('',#786);
#786 = CARTESIAN_POINT('',(21.656687898089,0.71008024746,3.705212085995)
  );
#787 = LINE('',#788,#789);
#788 = CARTESIAN_POINT('',(22.730573248408,0.71008024746,3.705212085995)
  );
#789 = VECTOR('',#790,1.);
#790 = DIRECTION('',(-1.,0.,0.));
#791 = ORIENTED_EDGE('',*,*,#792,.F.);
#792 = EDGE_CURVE('',#350,#785,#793,.T.);
#793 = LINE('',#794,#795);
#794 = CARTESIAN_POINT('',(21.656687898089,1.461834344089,3.431595971335
    ));
#795 = VECTOR('',#796,1.);
#796 = DIRECTION('',(0.,-0.939692620786,0.342020143326));
#797 = PLANE('',#798);
#798 = AXIS2_PLACEMENT_3D('',#799,#800,#801);
#799 = CARTESIAN_POINT('',(22.730573248408,1.461834344089,3.431595971335
    ));
#800 = DIRECTION('',(0.,-0.342020143326,-0.939692620786));
#801 = DIRECTION('',(-1.,0.,0.));
#802 = ADVANCED_FACE('',(#803),#821,.T.);
#803 = FACE_BOUND('',#804,.T.);
#804 = EDGE_LOOP('',(#805,#806,#814,#820));
#805 = ORIENTED_EDGE('',*,*,#429,.T.);
#806 = ORIENTED_EDGE('',*,*,#807,.T.);
#807 = EDGE_CURVE('',#422,#808,#810,.T.);
#808 = VERTEX_POINT('',#809);
#809 = CARTESIAN_POINT('',(22.730573248408,2.639683828047,9.006754352157
    ));
#810 = LINE('',#811,#812);
#811 = CARTESIAN_POINT('',(22.730573248408,3.391437924676,8.733138237496
    ));
#812 = VECTOR('',#813,1.);
#813 = DIRECTION('',(0.,-0.939692620786,0.342020143326));
#814 = ORIENTED_EDGE('',*,*,#815,.T.);
#815 = EDGE_CURVE('',#808,#777,#816,.T.);
#816 = LINE('',#817,#818);
#817 = CARTESIAN_POINT('',(22.730573248408,2.639683828047,9.006754352157
    ));
#818 = VECTOR('',#819,1.);
#819 = DIRECTION('',(0.,-0.342020143326,-0.939692620786));
#820 = ORIENTED_EDGE('',*,*,#776,.F.);
#821 = PLANE('',#822);
#822 = AXIS2_PLACEMENT_3D('',#823,#824,#825);
#823 = CARTESIAN_POINT('',(22.730573248408,3.391437924676,8.733138237496
    ));
#824 = DIRECTION('',(1.,0.,0.));
#825 = DIRECTION('',(0.,-0.342020143326,-0.939692620786));
#826 = ADVANCED_FACE('',(#827),#845,.T.);
#827 = FACE_BOUND('',#828,.T.);
#828 = EDGE_LOOP('',(#829,#830,#838,#844));
#829 = ORIENTED_EDGE('',*,*,#421,.T.);
#830 = ORIENTED_EDGE('',*,*,#831,.T.);
#831 = EDGE_CURVE('',#403,#832,#834,.T.);
#832 = VERTEX_POINT('',#833);
#833 = CARTESIAN_POINT('',(21.85923566879,2.639683828047,9.006754352157)
  );
#834 = LINE('',#835,#836);
#835 = CARTESIAN_POINT('',(21.85923566879,3.391437924676,8.733138237496)
  );
#836 = VECTOR('',#837,1.);
#837 = DIRECTION('',(0.,-0.939692620786,0.342020143326));
#838 = ORIENTED_EDGE('',*,*,#839,.T.);
#839 = EDGE_CURVE('',#832,#808,#840,.T.);
#840 = LINE('',#841,#842);
#841 = CARTESIAN_POINT('',(21.85923566879,2.639683828047,9.006754352157)
  );
#842 = VECTOR('',#843,1.);
#843 = DIRECTION('',(1.,0.,0.));
#844 = ORIENTED_EDGE('',*,*,#807,.F.);
#845 = PLANE('',#846);
#846 = AXIS2_PLACEMENT_3D('',#847,#848,#849);
#847 = CARTESIAN_POINT('',(21.85923566879,3.391437924676,8.733138237496)
  );
#848 = DIRECTION('',(0.,0.342020143326,0.939692620786));
#849 = DIRECTION('',(1.,0.,0.));
#850 = ADVANCED_FACE('',(#851),#869,.T.);
#851 = FACE_BOUND('',#852,.T.);
#852 = EDGE_LOOP('',(#853,#854,#862,#868));
#853 = ORIENTED_EDGE('',*,*,#402,.T.);
#854 = ORIENTED_EDGE('',*,*,#855,.T.);
#855 = EDGE_CURVE('',#391,#856,#858,.T.);
#856 = VERTEX_POINT('',#857);
#857 = CARTESIAN_POINT('',(21.182802547771,2.332954935179,8.164023645108
    ));
#858 = LINE('',#859,#860);
#859 = CARTESIAN_POINT('',(21.182802547771,3.084709031808,7.890407530447
    ));
#860 = VECTOR('',#861,1.);
#861 = DIRECTION('',(0.,-0.939692620786,0.342020143326));
#862 = ORIENTED_EDGE('',*,*,#863,.T.);
#863 = EDGE_CURVE('',#856,#832,#864,.T.);
#864 = B_SPLINE_CURVE_WITH_KNOTS('',2,(#865,#866,#867),.UNSPECIFIED.,.F.
  ,.F.,(3,3),(0.,1.),.PIECEWISE_BEZIER_KNOTS.);
#865 = CARTESIAN_POINT('',(21.182802547771,2.332954935179,8.164023645108
    ));
#866 = CARTESIAN_POINT('',(21.675796178344,2.464447520218,8.525296553329
    ));
#867 = CARTESIAN_POINT('',(21.85923566879,2.639683828047,9.006754352157)
  );
#868 = ORIENTED_EDGE('',*,*,#831,.F.);
#869 = SURFACE_OF_LINEAR_EXTRUSION('',#870,#874);
#870 = B_SPLINE_CURVE_WITH_KNOTS('',2,(#871,#872,#873),.UNSPECIFIED.,.F.
  ,.F.,(3,3),(0.,1.),.PIECEWISE_BEZIER_KNOTS.);
#871 = CARTESIAN_POINT('',(21.182802547771,3.084709031808,7.890407530447
    ));
#872 = CARTESIAN_POINT('',(21.675796178344,3.216201616847,8.251680438668
    ));
#873 = CARTESIAN_POINT('',(21.85923566879,3.391437924676,8.733138237496)
  );
#874 = VECTOR('',#875,1.);
#875 = DIRECTION('',(-0.,0.939692620786,-0.342020143326));
#876 = ADVANCED_FACE('',(#877),#895,.T.);
#877 = FACE_BOUND('',#878,.T.);
#878 = EDGE_LOOP('',(#879,#880,#888,#894));
#879 = ORIENTED_EDGE('',*,*,#390,.T.);
#880 = ORIENTED_EDGE('',*,*,#881,.T.);
#881 = EDGE_CURVE('',#383,#882,#884,.T.);
#882 = VERTEX_POINT('',#883);
#883 = CARTESIAN_POINT('',(20.269426751592,2.15449448842,7.67370759737)
  );
#884 = LINE('',#885,#886);
#885 = CARTESIAN_POINT('',(20.269426751592,2.906248585048,7.40009148271)
  );
#886 = VECTOR('',#887,1.);
#887 = DIRECTION('',(0.,-0.939692620786,0.342020143326));
#888 = ORIENTED_EDGE('',*,*,#889,.T.);
#889 = EDGE_CURVE('',#882,#856,#890,.T.);
#890 = B_SPLINE_CURVE_WITH_KNOTS('',2,(#891,#892,#893),.UNSPECIFIED.,.F.
  ,.F.,(3,3),(0.,1.),.PIECEWISE_BEZIER_KNOTS.);
#891 = CARTESIAN_POINT('',(20.269426751592,2.15449448842,7.67370759737)
  );
#892 = CARTESIAN_POINT('',(20.689808917197,2.20154948903,7.80299014902)
  );
#893 = CARTESIAN_POINT('',(21.182802547771,2.332954935179,8.164023645108
    ));
#894 = ORIENTED_EDGE('',*,*,#855,.F.);
#895 = SURFACE_OF_LINEAR_EXTRUSION('',#896,#900);
#896 = B_SPLINE_CURVE_WITH_KNOTS('',2,(#897,#898,#899),.UNSPECIFIED.,.F.
  ,.F.,(3,3),(0.,1.),.PIECEWISE_BEZIER_KNOTS.);
#897 = CARTESIAN_POINT('',(20.269426751592,2.906248585048,7.40009148271)
  );
#898 = CARTESIAN_POINT('',(20.689808917197,2.953303585659,7.529374034359
    ));
#899 = CARTESIAN_POINT('',(21.182802547771,3.084709031808,7.890407530447
    ));
#900 = VECTOR('',#901,1.);
#901 = DIRECTION('',(-0.,0.939692620786,-0.342020143326));
#902 = ADVANCED_FACE('',(#903),#921,.T.);
#903 = FACE_BOUND('',#904,.T.);
#904 = EDGE_LOOP('',(#905,#906,#914,#920));
#905 = ORIENTED_EDGE('',*,*,#382,.T.);
#906 = ORIENTED_EDGE('',*,*,#907,.T.);
#907 = EDGE_CURVE('',#368,#908,#910,.T.);
#908 = VERTEX_POINT('',#909);
#909 = CARTESIAN_POINT('',(20.269426751592,1.819881150746,6.754365007863
    ));
#910 = LINE('',#911,#912);
#911 = CARTESIAN_POINT('',(20.269426751592,2.571635247374,6.480748893202
    ));
#912 = VECTOR('',#913,1.);
#913 = DIRECTION('',(0.,-0.939692620786,0.342020143326));
#914 = ORIENTED_EDGE('',*,*,#915,.T.);
#915 = EDGE_CURVE('',#908,#882,#916,.T.);
#916 = LINE('',#917,#918);
#917 = CARTESIAN_POINT('',(20.269426751592,1.819881150746,6.754365007863
    ));
#918 = VECTOR('',#919,1.);
#919 = DIRECTION('',(0.,0.342020143326,0.939692620786));
#920 = ORIENTED_EDGE('',*,*,#881,.F.);
#921 = PLANE('',#922);
#922 = AXIS2_PLACEMENT_3D('',#923,#924,#925);
#923 = CARTESIAN_POINT('',(20.269426751592,2.571635247374,6.480748893202
    ));
#924 = DIRECTION('',(-1.,0.,0.));
#925 = DIRECTION('',(0.,0.342020143326,0.939692620786));
#926 = ADVANCED_FACE('',(#927),#945,.T.);
#927 = FACE_BOUND('',#928,.T.);
#928 = EDGE_LOOP('',(#929,#930,#938,#944));
#929 = ORIENTED_EDGE('',*,*,#367,.T.);
#930 = ORIENTED_EDGE('',*,*,#931,.T.);
#931 = EDGE_CURVE('',#360,#932,#934,.T.);
#932 = VERTEX_POINT('',#933);
#933 = CARTESIAN_POINT('',(21.656687898089,2.099422709928,7.522399129514
    ));
#934 = LINE('',#935,#936);
#935 = CARTESIAN_POINT('',(21.656687898089,2.851176806556,7.248783014853
    ));
#936 = VECTOR('',#937,1.);
#937 = DIRECTION('',(0.,-0.939692620786,0.342020143326));
#938 = ORIENTED_EDGE('',*,*,#939,.T.);
#939 = EDGE_CURVE('',#932,#908,#940,.T.);
#940 = B_SPLINE_CURVE_WITH_KNOTS('',2,(#941,#942,#943),.UNSPECIFIED.,.F.
  ,.F.,(3,3),(0.,1.),.PIECEWISE_BEZIER_KNOTS.);
#941 = CARTESIAN_POINT('',(21.656687898089,2.099422709928,7.522399129514
    ));
#942 = CARTESIAN_POINT('',(21.068152866242,1.910418457476,7.003114213722
    ));
#943 = CARTESIAN_POINT('',(20.269426751592,1.819881150746,6.754365007863
    ));
#944 = ORIENTED_EDGE('',*,*,#907,.F.);
#945 = SURFACE_OF_LINEAR_EXTRUSION('',#946,#950);
#946 = B_SPLINE_CURVE_WITH_KNOTS('',2,(#947,#948,#949),.UNSPECIFIED.,.F.
  ,.F.,(3,3),(0.,1.),.PIECEWISE_BEZIER_KNOTS.);
#947 = CARTESIAN_POINT('',(21.656687898089,2.851176806556,7.248783014853
    ));
#948 = CARTESIAN_POINT('',(21.068152866242,2.662172554104,6.729498099061
    ));
#949 = CARTESIAN_POINT('',(20.269426751592,2.571635247374,6.480748893202
    ));
#950 = VECTOR('',#951,1.);
#951 = DIRECTION('',(-0.,0.939692620786,-0.342020143326));
#952 = ADVANCED_FACE('',(#953),#964,.T.);
#953 = FACE_BOUND('',#954,.T.);
#954 = EDGE_LOOP('',(#955,#956,#957,#963));
#955 = ORIENTED_EDGE('',*,*,#359,.T.);
#956 = ORIENTED_EDGE('',*,*,#792,.T.);
#957 = ORIENTED_EDGE('',*,*,#958,.T.);
#958 = EDGE_CURVE('',#785,#932,#959,.T.);
#959 = LINE('',#960,#961);
#960 = CARTESIAN_POINT('',(21.656687898089,0.71008024746,3.705212085995)
  );
#961 = VECTOR('',#962,1.);
#962 = DIRECTION('',(0.,0.342020143326,0.939692620786));
#963 = ORIENTED_EDGE('',*,*,#931,.F.);
#964 = PLANE('',#965);
#965 = AXIS2_PLACEMENT_3D('',#966,#967,#968);
#966 = CARTESIAN_POINT('',(21.656687898089,1.461834344089,3.431595971335
    ));
#967 = DIRECTION('',(-1.,0.,0.));
#968 = DIRECTION('',(0.,0.342020143326,0.939692620786));
#969 = ADVANCED_FACE('',(#970),#995,.F.);
#970 = FACE_BOUND('',#971,.F.);
#971 = EDGE_LOOP('',(#972,#980,#988,#994));
#972 = ORIENTED_EDGE('',*,*,#973,.F.);
#973 = EDGE_CURVE('',#974,#284,#976,.T.);
#974 = VERTEX_POINT('',#975);
#975 = CARTESIAN_POINT('',(47.,18.9,0.));
#976 = LINE('',#977,#978);
#977 = CARTESIAN_POINT('',(47.,18.9,0.));
#978 = VECTOR('',#979,1.);
#979 = DIRECTION('',(-0.971520338783,-0.236956180191,0.));
#980 = ORIENTED_EDGE('',*,*,#981,.T.);
#981 = EDGE_CURVE('',#974,#982,#984,.T.);
#982 = VERTEX_POINT('',#983);
#983 = CARTESIAN_POINT('',(47.,18.9,10.));
#984 = LINE('',#985,#986);
#985 = CARTESIAN_POINT('',(47.,18.9,0.));
#986 = VECTOR('',#987,1.);
#987 = DIRECTION('',(0.,0.,1.));
#988 = ORIENTED_EDGE('',*,*,#989,.T.);
#989 = EDGE_CURVE('',#982,#95,#990,.T.);
#990 = LINE('',#991,#992);
#991 = CARTESIAN_POINT('',(47.,18.9,10.));
#992 = VECTOR('',#993,1.);
#993 = DIRECTION('',(-0.971520338783,-0.236956180191,0.));
#994 = ORIENTED_EDGE('',*,*,#512,.T.);
#995 = PLANE('',#996);
#996 = AXIS2_PLACEMENT_3D('',#997,#998,#999);
#997 = CARTESIAN_POINT('',(47.,18.9,0.));
#998 = DIRECTION('',(0.236956180191,-0.971520338783,0.));
#999 = DIRECTION('',(-0.971520338783,-0.236956180191,0.));
#1000 = ADVANCED_FACE('',(#1001),#1019,.T.);
#1001 = FACE_BOUND('',#1002,.T.);
#1002 = EDGE_LOOP('',(#1003,#1004,#1012,#1018));
#1003 = ORIENTED_EDGE('',*,*,#529,.F.);
#1004 = ORIENTED_EDGE('',*,*,#1005,.T.);
#1005 = EDGE_CURVE('',#71,#1006,#1008,.T.);
#1006 = VERTEX_POINT('',#1007);
#1007 = CARTESIAN_POINT('',(47.,12.9,10.));
#1008 = LINE('',#1009,#1010);
#1009 = CARTESIAN_POINT('',(42.9,13.9,10.));
#1010 = VECTOR('',#1011,1.);
#1011 = DIRECTION('',(0.971520338783,-0.236956180191,0.));
#1012 = ORIENTED_EDGE('',*,*,#1013,.T.);
#1013 = EDGE_CURVE('',#1006,#982,#1014,.T.);
#1014 = LINE('',#1015,#1016);
#1015 = CARTESIAN_POINT('',(47.,12.9,10.));
#1016 = VECTOR('',#1017,1.);
#1017 = DIRECTION('',(0.,1.,0.));
#1018 = ORIENTED_EDGE('',*,*,#989,.T.);
#1019 = PLANE('',#1020);
#1020 = AXIS2_PLACEMENT_3D('',#1021,#1022,#1023);
#1021 = CARTESIAN_POINT('',(45.172338161771,15.9,10.));
#1022 = DIRECTION('',(0.,0.,1.));
#1023 = DIRECTION('',(1.,0.,0.));
#1024 = ADVANCED_FACE('',(#1025),#1043,.F.);
#1025 = FACE_BOUND('',#1026,.F.);
#1026 = EDGE_LOOP('',(#1027,#1035,#1036,#1037));
#1027 = ORIENTED_EDGE('',*,*,#1028,.F.);
#1028 = EDGE_CURVE('',#260,#1029,#1031,.T.);
#1029 = VERTEX_POINT('',#1030);
#1030 = CARTESIAN_POINT('',(47.,12.9,0.));
#1031 = LINE('',#1032,#1033);
#1032 = CARTESIAN_POINT('',(42.9,13.9,0.));
#1033 = VECTOR('',#1034,1.);
#1034 = DIRECTION('',(0.971520338783,-0.236956180191,0.));
#1035 = ORIENTED_EDGE('',*,*,#548,.T.);
#1036 = ORIENTED_EDGE('',*,*,#1005,.T.);
#1037 = ORIENTED_EDGE('',*,*,#1038,.F.);
#1038 = EDGE_CURVE('',#1029,#1006,#1039,.T.);
#1039 = LINE('',#1040,#1041);
#1040 = CARTESIAN_POINT('',(47.,12.9,0.));
#1041 = VECTOR('',#1042,1.);
#1042 = DIRECTION('',(0.,0.,1.));
#1043 = PLANE('',#1044);
#1044 = AXIS2_PLACEMENT_3D('',#1045,#1046,#1047);
#1045 = CARTESIAN_POINT('',(42.9,13.9,0.));
#1046 = DIRECTION('',(0.236956180191,0.971520338783,0.));
#1047 = DIRECTION('',(0.971520338783,-0.236956180191,0.));
#1048 = ADVANCED_FACE('',(#1049),#1075,.T.);
#1049 = FACE_BOUND('',#1050,.T.);
#1050 = EDGE_LOOP('',(#1051,#1059,#1060,#1068));
#1051 = ORIENTED_EDGE('',*,*,#1052,.F.);
#1052 = EDGE_CURVE('',#563,#1053,#1055,.T.);
#1053 = VERTEX_POINT('',#1054);
#1054 = CARTESIAN_POINT('',(16.6,37.86,21.));
#1055 = LINE('',#1056,#1057);
#1056 = CARTESIAN_POINT('',(16.6,38.11,20.75));
#1057 = VECTOR('',#1058,1.);
#1058 = DIRECTION('',(-2.90882763039E-35,-0.707106781187,0.707106781187)
  );
#1059 = ORIENTED_EDGE('',*,*,#579,.T.);
#1060 = ORIENTED_EDGE('',*,*,#1061,.T.);
#1061 = EDGE_CURVE('',#572,#1062,#1064,.T.);
#1062 = VERTEX_POINT('',#1063);
#1063 = CARTESIAN_POINT('',(16.5,37.76,21.));
#1064 = LINE('',#1065,#1066);
#1065 = CARTESIAN_POINT('',(16.,37.76,20.5));
#1066 = VECTOR('',#1067,1.);
#1067 = DIRECTION('',(0.707106781187,-4.329780281177E-17,0.707106781187)
  );
#1068 = ORIENTED_EDGE('',*,*,#1069,.F.);
#1069 = EDGE_CURVE('',#1053,#1062,#1070,.T.);
#1070 = CIRCLE('',#1071,1.E-01);
#1071 = AXIS2_PLACEMENT_3D('',#1072,#1073,#1074);
#1072 = CARTESIAN_POINT('',(16.6,37.76,21.));
#1073 = DIRECTION('',(0.,-0.,1.));
#1074 = DIRECTION('',(0.,1.,0.));
#1075 = CONICAL_SURFACE('',#1076,0.6,0.785398163397);
#1076 = AXIS2_PLACEMENT_3D('',#1077,#1078,#1079);
#1077 = CARTESIAN_POINT('',(16.6,37.76,20.5));
#1078 = DIRECTION('',(-0.,-0.,-1.));
#1079 = DIRECTION('',(0.,1.,0.));
#1080 = ADVANCED_FACE('',(#1081),#1099,.F.);
#1081 = FACE_BOUND('',#1082,.T.);
#1082 = EDGE_LOOP('',(#1083,#1091,#1092,#1093));
#1083 = ORIENTED_EDGE('',*,*,#1084,.F.);
#1084 = EDGE_CURVE('',#596,#1085,#1087,.T.);
#1085 = VERTEX_POINT('',#1086);
#1086 = CARTESIAN_POINT('',(26.4,37.86,21.));
#1087 = LINE('',#1088,#1089);
#1088 = CARTESIAN_POINT('',(26.4,38.11,20.75));
#1089 = VECTOR('',#1090,1.);
#1090 = DIRECTION('',(-2.90882763039E-35,-0.707106781187,0.707106781187)
  );
#1091 = ORIENTED_EDGE('',*,*,#603,.T.);
#1092 = ORIENTED_EDGE('',*,*,#1052,.T.);
#1093 = ORIENTED_EDGE('',*,*,#1094,.F.);
#1094 = EDGE_CURVE('',#1085,#1053,#1095,.T.);
#1095 = LINE('',#1096,#1097);
#1096 = CARTESIAN_POINT('',(26.4,37.86,21.));
#1097 = VECTOR('',#1098,1.);
#1098 = DIRECTION('',(-1.,0.,0.));
#1099 = PLANE('',#1100);
#1100 = AXIS2_PLACEMENT_3D('',#1101,#1102,#1103);
#1101 = CARTESIAN_POINT('',(26.4,38.11,20.75));
#1102 = DIRECTION('',(-1.889513820523E-18,-0.707106781187,
    -0.707106781187));
#1103 = DIRECTION('',(1.,-1.336088035637E-18,-1.336088035637E-18));
#1104 = ADVANCED_FACE('',(#1105),#1123,.F.);
#1105 = FACE_BOUND('',#1106,.T.);
#1106 = EDGE_LOOP('',(#1107,#1108,#1109,#1117));
#1107 = ORIENTED_EDGE('',*,*,#1061,.F.);
#1108 = ORIENTED_EDGE('',*,*,#620,.T.);
#1109 = ORIENTED_EDGE('',*,*,#1110,.T.);
#1110 = EDGE_CURVE('',#621,#1111,#1113,.T.);
#1111 = VERTEX_POINT('',#1112);
#1112 = CARTESIAN_POINT('',(16.5,27.96,21.));
#1113 = LINE('',#1114,#1115);
#1114 = CARTESIAN_POINT('',(16.25,27.96,20.75));
#1115 = VECTOR('',#1116,1.);
#1116 = DIRECTION('',(0.707106781187,-2.90882763039E-35,0.707106781187)
  );
#1117 = ORIENTED_EDGE('',*,*,#1118,.F.);
#1118 = EDGE_CURVE('',#1062,#1111,#1119,.T.);
#1119 = LINE('',#1120,#1121);
#1120 = CARTESIAN_POINT('',(16.5,37.76,21.));
#1121 = VECTOR('',#1122,1.);
#1122 = DIRECTION('',(0.,-1.,0.));
#1123 = PLANE('',#1124);
#1124 = AXIS2_PLACEMENT_3D('',#1125,#1126,#1127);
#1125 = CARTESIAN_POINT('',(16.25,37.76,20.75));
#1126 = DIRECTION('',(0.707106781187,1.889513820523E-18,-0.707106781187)
  );
#1127 = DIRECTION('',(-1.336088035637E-18,1.,1.336088035637E-18));
#1128 = ADVANCED_FACE('',(#1129),#1148,.T.);
#1129 = FACE_BOUND('',#1130,.T.);
#1130 = EDGE_LOOP('',(#1131,#1139,#1140,#1141));
#1131 = ORIENTED_EDGE('',*,*,#1132,.F.);
#1132 = EDGE_CURVE('',#645,#1133,#1135,.T.);
#1133 = VERTEX_POINT('',#1134);
#1134 = CARTESIAN_POINT('',(26.5,37.76,21.));
#1135 = LINE('',#1136,#1137);
#1136 = CARTESIAN_POINT('',(26.75,37.76,20.75));
#1137 = VECTOR('',#1138,1.);
#1138 = DIRECTION('',(-0.707106781187,2.90882763039E-35,0.707106781187)
  );
#1139 = ORIENTED_EDGE('',*,*,#652,.T.);
#1140 = ORIENTED_EDGE('',*,*,#1084,.T.);
#1141 = ORIENTED_EDGE('',*,*,#1142,.F.);
#1142 = EDGE_CURVE('',#1133,#1085,#1143,.T.);
#1143 = CIRCLE('',#1144,1.E-01);
#1144 = AXIS2_PLACEMENT_3D('',#1145,#1146,#1147);
#1145 = CARTESIAN_POINT('',(26.4,37.76,21.));
#1146 = DIRECTION('',(0.,0.,1.));
#1147 = DIRECTION('',(1.,0.,0.));
#1148 = CONICAL_SURFACE('',#1149,0.6,0.785398163397);
#1149 = AXIS2_PLACEMENT_3D('',#1150,#1151,#1152);
#1150 = CARTESIAN_POINT('',(26.4,37.76,20.5));
#1151 = DIRECTION('',(-0.,-0.,-1.));
#1152 = DIRECTION('',(1.,0.,0.));
#1153 = ADVANCED_FACE('',(#1154),#1173,.T.);
#1154 = FACE_BOUND('',#1155,.T.);
#1155 = EDGE_LOOP('',(#1156,#1157,#1158,#1166));
#1156 = ORIENTED_EDGE('',*,*,#1110,.F.);
#1157 = ORIENTED_EDGE('',*,*,#677,.T.);
#1158 = ORIENTED_EDGE('',*,*,#1159,.T.);
#1159 = EDGE_CURVE('',#670,#1160,#1162,.T.);
#1160 = VERTEX_POINT('',#1161);
#1161 = CARTESIAN_POINT('',(16.6,27.86,21.));
#1162 = LINE('',#1163,#1164);
#1163 = CARTESIAN_POINT('',(16.6,27.36,20.5));
#1164 = VECTOR('',#1165,1.);
#1165 = DIRECTION('',(4.329780281177E-17,0.707106781187,0.707106781187)
  );
#1166 = ORIENTED_EDGE('',*,*,#1167,.F.);
#1167 = EDGE_CURVE('',#1111,#1160,#1168,.T.);
#1168 = CIRCLE('',#1169,1.E-01);
#1169 = AXIS2_PLACEMENT_3D('',#1170,#1171,#1172);
#1170 = CARTESIAN_POINT('',(16.6,27.96,21.));
#1171 = DIRECTION('',(0.,0.,1.));
#1172 = DIRECTION('',(-1.,0.,0.));
#1173 = CONICAL_SURFACE('',#1174,0.6,0.785398163397);
#1174 = AXIS2_PLACEMENT_3D('',#1175,#1176,#1177);
#1175 = CARTESIAN_POINT('',(16.6,27.96,20.5));
#1176 = DIRECTION('',(-0.,-0.,-1.));
#1177 = DIRECTION('',(-1.,0.,0.));
#1178 = ADVANCED_FACE('',(#1179),#1197,.F.);
#1179 = FACE_BOUND('',#1180,.T.);
#1180 = EDGE_LOOP('',(#1181,#1189,#1190,#1191));
#1181 = ORIENTED_EDGE('',*,*,#1182,.F.);
#1182 = EDGE_CURVE('',#694,#1183,#1185,.T.);
#1183 = VERTEX_POINT('',#1184);
#1184 = CARTESIAN_POINT('',(26.5,27.96,21.));
#1185 = LINE('',#1186,#1187);
#1186 = CARTESIAN_POINT('',(27.,27.96,20.5));
#1187 = VECTOR('',#1188,1.);
#1188 = DIRECTION('',(-0.707106781187,4.329780281177E-17,0.707106781187)
  );
#1189 = ORIENTED_EDGE('',*,*,#701,.T.);
#1190 = ORIENTED_EDGE('',*,*,#1132,.T.);
#1191 = ORIENTED_EDGE('',*,*,#1192,.F.);
#1192 = EDGE_CURVE('',#1183,#1133,#1193,.T.);
#1193 = LINE('',#1194,#1195);
#1194 = CARTESIAN_POINT('',(26.5,27.96,21.));
#1195 = VECTOR('',#1196,1.);
#1196 = DIRECTION('',(0.,1.,0.));
#1197 = PLANE('',#1198);
#1198 = AXIS2_PLACEMENT_3D('',#1199,#1200,#1201);
#1199 = CARTESIAN_POINT('',(26.75,27.96,20.75));
#1200 = DIRECTION('',(-0.707106781187,-1.889513820523E-18,
    -0.707106781187));
#1201 = DIRECTION('',(1.336088035637E-18,-1.,1.336088035637E-18));
#1202 = ADVANCED_FACE('',(#1203),#1221,.F.);
#1203 = FACE_BOUND('',#1204,.T.);
#1204 = EDGE_LOOP('',(#1205,#1206,#1207,#1215));
#1205 = ORIENTED_EDGE('',*,*,#1159,.F.);
#1206 = ORIENTED_EDGE('',*,*,#718,.T.);
#1207 = ORIENTED_EDGE('',*,*,#1208,.T.);
#1208 = EDGE_CURVE('',#719,#1209,#1211,.T.);
#1209 = VERTEX_POINT('',#1210);
#1210 = CARTESIAN_POINT('',(26.4,27.86,21.));
#1211 = LINE('',#1212,#1213);
#1212 = CARTESIAN_POINT('',(26.4,27.61,20.75));
#1213 = VECTOR('',#1214,1.);
#1214 = DIRECTION('',(2.90882763039E-35,0.707106781187,0.707106781187));
#1215 = ORIENTED_EDGE('',*,*,#1216,.F.);
#1216 = EDGE_CURVE('',#1160,#1209,#1217,.T.);
#1217 = LINE('',#1218,#1219);
#1218 = CARTESIAN_POINT('',(16.6,27.86,21.));
#1219 = VECTOR('',#1220,1.);
#1220 = DIRECTION('',(1.,0.,0.));
#1221 = PLANE('',#1222);
#1222 = AXIS2_PLACEMENT_3D('',#1223,#1224,#1225);
#1223 = CARTESIAN_POINT('',(16.6,27.61,20.75));
#1224 = DIRECTION('',(1.889513820523E-18,0.707106781187,-0.707106781187)
  );
#1225 = DIRECTION('',(-1.,1.336088035637E-18,-1.336088035637E-18));
#1226 = ADVANCED_FACE('',(#1227),#1239,.T.);
#1227 = FACE_BOUND('',#1228,.T.);
#1228 = EDGE_LOOP('',(#1229,#1230,#1231,#1232));
#1229 = ORIENTED_EDGE('',*,*,#1208,.F.);
#1230 = ORIENTED_EDGE('',*,*,#743,.T.);
#1231 = ORIENTED_EDGE('',*,*,#1182,.T.);
#1232 = ORIENTED_EDGE('',*,*,#1233,.F.);
#1233 = EDGE_CURVE('',#1209,#1183,#1234,.T.);
#1234 = CIRCLE('',#1235,1.E-01);
#1235 = AXIS2_PLACEMENT_3D('',#1236,#1237,#1238);
#1236 = CARTESIAN_POINT('',(26.4,27.96,21.));
#1237 = DIRECTION('',(-0.,0.,1.));
#1238 = DIRECTION('',(0.,-1.,0.));
#1239 = CONICAL_SURFACE('',#1240,0.6,0.785398163397);
#1240 = AXIS2_PLACEMENT_3D('',#1241,#1242,#1243);
#1241 = CARTESIAN_POINT('',(26.4,27.96,20.5));
#1242 = DIRECTION('',(-0.,-0.,-1.));
#1243 = DIRECTION('',(0.,-1.,0.));
#1244 = ADVANCED_FACE('',(#1245),#1256,.F.);
#1245 = FACE_BOUND('',#1246,.F.);
#1246 = EDGE_LOOP('',(#1247,#1248,#1249,#1255));
#1247 = ORIENTED_EDGE('',*,*,#759,.F.);
#1248 = ORIENTED_EDGE('',*,*,#1028,.T.);
#1249 = ORIENTED_EDGE('',*,*,#1250,.T.);
#1250 = EDGE_CURVE('',#1029,#974,#1251,.T.);
#1251 = LINE('',#1252,#1253);
#1252 = CARTESIAN_POINT('',(47.,12.9,0.));
#1253 = VECTOR('',#1254,1.);
#1254 = DIRECTION('',(0.,1.,0.));
#1255 = ORIENTED_EDGE('',*,*,#973,.T.);
#1256 = PLANE('',#1257);
#1257 = AXIS2_PLACEMENT_3D('',#1258,#1259,#1260);
#1258 = CARTESIAN_POINT('',(45.172338161771,15.9,0.));
#1259 = DIRECTION('',(0.,0.,1.));
#1260 = DIRECTION('',(1.,0.,0.));
#1261 = ADVANCED_FACE('',(#1262),#1272,.T.);
#1262 = FACE_BOUND('',#1263,.F.);
#1263 = EDGE_LOOP('',(#1264,#1265,#1266,#1267,#1268,#1269,#1270,#1271));
#1264 = ORIENTED_EDGE('',*,*,#784,.T.);
#1265 = ORIENTED_EDGE('',*,*,#958,.T.);
#1266 = ORIENTED_EDGE('',*,*,#939,.T.);
#1267 = ORIENTED_EDGE('',*,*,#915,.T.);
#1268 = ORIENTED_EDGE('',*,*,#889,.T.);
#1269 = ORIENTED_EDGE('',*,*,#863,.T.);
#1270 = ORIENTED_EDGE('',*,*,#839,.T.);
#1271 = ORIENTED_EDGE('',*,*,#815,.T.);
#1272 = PLANE('',#1273);
#1273 = AXIS2_PLACEMENT_3D('',#1274,#1275,#1276);
#1274 = CARTESIAN_POINT('',(21.879284400374,1.73316222789,6.516106725477
    ));
#1275 = DIRECTION('',(0.,-0.939692620786,0.342020143326));
#1276 = DIRECTION('',(1.,0.,0.));
#1277 = ADVANCED_FACE('',(#1278),#1284,.F.);
#1278 = FACE_BOUND('',#1279,.F.);
#1279 = EDGE_LOOP('',(#1280,#1281,#1282,#1283));
#1280 = ORIENTED_EDGE('',*,*,#1038,.T.);
#1281 = ORIENTED_EDGE('',*,*,#1013,.T.);
#1282 = ORIENTED_EDGE('',*,*,#981,.F.);
#1283 = ORIENTED_EDGE('',*,*,#1250,.F.);
#1284 = PLANE('',#1285);
#1285 = AXIS2_PLACEMENT_3D('',#1286,#1287,#1288);
#1286 = CARTESIAN_POINT('',(47.,12.9,0.));
#1287 = DIRECTION('',(-1.,0.,0.));
#1288 = DIRECTION('',(0.,1.,0.));
#1289 = ADVANCED_FACE('',(#1290),#1300,.T.);
#1290 = FACE_BOUND('',#1291,.T.);
#1291 = EDGE_LOOP('',(#1292,#1293,#1294,#1295,#1296,#1297,#1298,#1299));
#1292 = ORIENTED_EDGE('',*,*,#1094,.T.);
#1293 = ORIENTED_EDGE('',*,*,#1069,.T.);
#1294 = ORIENTED_EDGE('',*,*,#1118,.T.);
#1295 = ORIENTED_EDGE('',*,*,#1167,.T.);
#1296 = ORIENTED_EDGE('',*,*,#1216,.T.);
#1297 = ORIENTED_EDGE('',*,*,#1233,.T.);
#1298 = ORIENTED_EDGE('',*,*,#1192,.T.);
#1299 = ORIENTED_EDGE('',*,*,#1142,.T.);
#1300 = PLANE('',#1301);
#1301 = AXIS2_PLACEMENT_3D('',#1302,#1303,#1304);
#1302 = CARTESIAN_POINT('',(21.5,32.86,21.));
#1303 = DIRECTION('',(0.,0.,1.));
#1304 = DIRECTION('',(1.,0.,0.));
#1305 = ( GEOMETRIC_REPRESENTATION_CONTEXT(3) 
GLOBAL_UNCERTAINTY_ASSIGNED_CONTEXT((#1309)) 
GLOBAL_UNIT_ASSIGNED_CONTEXT((#1306,#1307,#1308)) REPRESENTATION_CONTEXT
('Context #1','3D Context with UNIT and UNCERTAINTY') );
#1306 = ( LENGTH_UNIT() NAMED_UNIT(*) SI_UNIT(.MILLI.,.METRE.) );
#1307 = ( NAMED_UNIT(*) PLANE_ANGLE_UNIT() SI_UNIT($,.RADIAN.) );
#1308 = ( NAMED_UNIT(*) SI_UNIT($,.STERADIAN.) SOLID_ANGLE_UNIT() );
#1309 = UNCERTAINTY_MEASURE_WITH_UNIT(LENGTH_MEASURE(5.E-07),#1306,
  'distance_accuracy_value','confusion accuracy');
#1310 = PRODUCT_RELATED_PRODUCT_CATEGORY('part',$,(#7));
ENDSEC;
END-ISO-10303-21;
