ISO-10303-21;
HEADER;
FILE_DESCRIPTION(('FreeCAD Model'),'2;1');
FILE_NAME('Open CASCADE Shape Model','2026-08-29T16:41:04',('FreeCAD'),(
    'FreeCAD'),'Open CASCADE STEP processor 7.8','FreeCAD','Unknown');
FILE_SCHEMA(('AUTOMOTIVE_DESIGN { 1 0 10303 214 1 1 1 1 }'));
ENDSEC;
DATA;
#1 = APPLICATION_PROTOCOL_DEFINITION('international standard',
  'automotive_design',2000,#2);
#2 = APPLICATION_CONTEXT(
  'core data for automotive mechanical design processes');
#3 = SHAPE_DEFINITION_REPRESENTATION(#4,#10);
#4 = PRODUCT_DEFINITION_SHAPE('','',#5);
#5 = PRODUCT_DEFINITION('design','',#6,#9);
#6 = PRODUCT_DEFINITION_FORMATION('','',#7);
#7 = PRODUCT('Open CASCADE STEP translator 7.8 118',
  'Open CASCADE STEP translator 7.8 118','',(#8));
#8 = PRODUCT_CONTEXT('',#2,'mechanical');
#9 = PRODUCT_DEFINITION_CONTEXT('part definition',#2,'design');
#10 = SHAPE_REPRESENTATION('',(#11,#15,#373,#523,#811,#1387),#1685);
#11 = AXIS2_PLACEMENT_3D('',#12,#13,#14);
#12 = CARTESIAN_POINT('',(0.,0.,0.));
#13 = DIRECTION('',(0.,0.,1.));
#14 = DIRECTION('',(1.,0.,-0.));
#15 = MANIFOLD_SOLID_BREP('',#16);
#16 = CLOSED_SHELL('',(#17,#57,#88,#119,#152,#185,#218,#249,#282,#315,
    #337,#355));
#17 = ADVANCED_FACE('',(#18),#52,.T.);
#18 = FACE_BOUND('',#19,.T.);
#19 = EDGE_LOOP('',(#20,#30,#38,#46));
#20 = ORIENTED_EDGE('',*,*,#21,.T.);
#21 = EDGE_CURVE('',#22,#24,#26,.T.);
#22 = VERTEX_POINT('',#23);
#23 = CARTESIAN_POINT('',(8.127558386412,2.681120808011,6.781557998809)
  );
#24 = VERTEX_POINT('',#25);
#25 = CARTESIAN_POINT('',(8.127558386412,1.929366711383,7.055174113469)
  );
#26 = LINE('',#27,#28);
#27 = CARTESIAN_POINT('',(8.127558386412,2.681120808011,6.781557998809)
  );
#28 = VECTOR('',#29,1.);
#29 = DIRECTION('',(0.,-0.939692620786,0.342020143326));
#30 = ORIENTED_EDGE('',*,*,#31,.T.);
#31 = EDGE_CURVE('',#24,#32,#34,.T.);
#32 = VERTEX_POINT('',#33);
#33 = CARTESIAN_POINT('',(8.127558386412,2.156160195806,7.678284090802)
  );
#34 = LINE('',#35,#36);
#35 = CARTESIAN_POINT('',(8.127558386412,1.929366711383,7.055174113469)
  );
#36 = VECTOR('',#37,1.);
#37 = DIRECTION('',(0.,0.342020143326,0.939692620786));
#38 = ORIENTED_EDGE('',*,*,#39,.F.);
#39 = EDGE_CURVE('',#40,#32,#42,.T.);
#40 = VERTEX_POINT('',#41);
#41 = CARTESIAN_POINT('',(8.127558386412,2.907914292435,7.404667976142)
  );
#42 = LINE('',#43,#44);
#43 = CARTESIAN_POINT('',(8.127558386412,2.907914292435,7.404667976142)
  );
#44 = VECTOR('',#45,1.);
#45 = DIRECTION('',(0.,-0.939692620786,0.342020143326));
#46 = ORIENTED_EDGE('',*,*,#47,.F.);
#47 = EDGE_CURVE('',#22,#40,#48,.T.);
#48 = LINE('',#49,#50);
#49 = CARTESIAN_POINT('',(8.127558386412,2.681120808011,6.781557998809)
  );
#50 = VECTOR('',#51,1.);
#51 = DIRECTION('',(0.,0.342020143326,0.939692620786));
#52 = PLANE('',#53);
#53 = AXIS2_PLACEMENT_3D('',#54,#55,#56);
#54 = CARTESIAN_POINT('',(8.127558386412,2.681120808011,6.781557998809)
  );
#55 = DIRECTION('',(-1.,0.,0.));
#56 = DIRECTION('',(0.,0.342020143326,0.939692620786));
#57 = ADVANCED_FACE('',(#58),#83,.T.);
#58 = FACE_BOUND('',#59,.T.);
#59 = EDGE_LOOP('',(#60,#61,#69,#77));
#60 = ORIENTED_EDGE('',*,*,#39,.T.);
#61 = ORIENTED_EDGE('',*,*,#62,.T.);
#62 = EDGE_CURVE('',#32,#63,#65,.T.);
#63 = VERTEX_POINT('',#64);
#64 = CARTESIAN_POINT('',(10.575966029724,2.156160195806,7.678284090802)
  );
#65 = LINE('',#66,#67);
#66 = CARTESIAN_POINT('',(8.127558386412,2.156160195806,7.678284090802)
  );
#67 = VECTOR('',#68,1.);
#68 = DIRECTION('',(1.,0.,0.));
#69 = ORIENTED_EDGE('',*,*,#70,.F.);
#70 = EDGE_CURVE('',#71,#63,#73,.T.);
#71 = VERTEX_POINT('',#72);
#72 = CARTESIAN_POINT('',(10.575966029724,2.907914292435,7.404667976142)
  );
#73 = LINE('',#74,#75);
#74 = CARTESIAN_POINT('',(10.575966029724,2.907914292435,7.404667976142)
  );
#75 = VECTOR('',#76,1.);
#76 = DIRECTION('',(0.,-0.939692620786,0.342020143326));
#77 = ORIENTED_EDGE('',*,*,#78,.F.);
#78 = EDGE_CURVE('',#40,#71,#79,.T.);
#79 = LINE('',#80,#81);
#80 = CARTESIAN_POINT('',(8.127558386412,2.907914292435,7.404667976142)
  );
#81 = VECTOR('',#82,1.);
#82 = DIRECTION('',(1.,0.,0.));
#83 = PLANE('',#84);
#84 = AXIS2_PLACEMENT_3D('',#85,#86,#87);
#85 = CARTESIAN_POINT('',(8.127558386412,2.907914292435,7.404667976142)
  );
#86 = DIRECTION('',(0.,0.342020143326,0.939692620786));
#87 = DIRECTION('',(1.,0.,0.));
#88 = ADVANCED_FACE('',(#89),#114,.T.);
#89 = FACE_BOUND('',#90,.T.);
#90 = EDGE_LOOP('',(#91,#92,#100,#108));
#91 = ORIENTED_EDGE('',*,*,#70,.T.);
#92 = ORIENTED_EDGE('',*,*,#93,.T.);
#93 = EDGE_CURVE('',#63,#94,#96,.T.);
#94 = VERTEX_POINT('',#95);
#95 = CARTESIAN_POINT('',(10.575966029724,1.977699749047,7.187968043065)
  );
#96 = LINE('',#97,#98);
#97 = CARTESIAN_POINT('',(10.575966029724,2.156160195806,7.678284090802)
  );
#98 = VECTOR('',#99,1.);
#99 = DIRECTION('',(0.,-0.342020143326,-0.939692620786));
#100 = ORIENTED_EDGE('',*,*,#101,.F.);
#101 = EDGE_CURVE('',#102,#94,#104,.T.);
#102 = VERTEX_POINT('',#103);
#103 = CARTESIAN_POINT('',(10.575966029724,2.729453845676,6.914351928404
    ));
#104 = LINE('',#105,#106);
#105 = CARTESIAN_POINT('',(10.575966029724,2.729453845676,6.914351928404
    ));
#106 = VECTOR('',#107,1.);
#107 = DIRECTION('',(0.,-0.939692620786,0.342020143326));
#108 = ORIENTED_EDGE('',*,*,#109,.F.);
#109 = EDGE_CURVE('',#71,#102,#110,.T.);
#110 = LINE('',#111,#112);
#111 = CARTESIAN_POINT('',(10.575966029724,2.907914292435,7.404667976142
    ));
#112 = VECTOR('',#113,1.);
#113 = DIRECTION('',(0.,-0.342020143326,-0.939692620786));
#114 = PLANE('',#115);
#115 = AXIS2_PLACEMENT_3D('',#116,#117,#118);
#116 = CARTESIAN_POINT('',(10.575966029724,2.907914292435,7.404667976142
    ));
#117 = DIRECTION('',(1.,0.,0.));
#118 = DIRECTION('',(0.,-0.342020143326,-0.939692620786));
#119 = ADVANCED_FACE('',(#120),#145,.T.);
#120 = FACE_BOUND('',#121,.T.);
#121 = EDGE_LOOP('',(#122,#123,#131,#139));
#122 = ORIENTED_EDGE('',*,*,#101,.T.);
#123 = ORIENTED_EDGE('',*,*,#124,.T.);
#124 = EDGE_CURVE('',#94,#125,#127,.T.);
#125 = VERTEX_POINT('',#126);
#126 = CARTESIAN_POINT('',(9.95940552017,1.683983597088,6.38098954783));
#127 = B_SPLINE_CURVE_WITH_KNOTS('',2,(#128,#129,#130),.UNSPECIFIED.,.F.
  ,.F.,(3,3),(0.,1.),.PIECEWISE_BEZIER_KNOTS.);
#128 = CARTESIAN_POINT('',(10.575966029724,1.977699749047,7.187968043065
    ));
#129 = CARTESIAN_POINT('',(10.272781316348,1.875456784757,6.907057807382
    ));
#130 = CARTESIAN_POINT('',(9.95940552017,1.683983597088,6.38098954783));
#131 = ORIENTED_EDGE('',*,*,#132,.F.);
#132 = EDGE_CURVE('',#133,#125,#135,.T.);
#133 = VERTEX_POINT('',#134);
#134 = CARTESIAN_POINT('',(9.95940552017,2.435737693717,6.10737343317));
#135 = LINE('',#136,#137);
#136 = CARTESIAN_POINT('',(9.95940552017,2.435737693717,6.10737343317));
#137 = VECTOR('',#138,1.);
#138 = DIRECTION('',(0.,-0.939692620786,0.342020143326));
#139 = ORIENTED_EDGE('',*,*,#140,.F.);
#140 = EDGE_CURVE('',#102,#133,#141,.T.);
#141 = B_SPLINE_CURVE_WITH_KNOTS('',2,(#142,#143,#144),.UNSPECIFIED.,.F.
  ,.F.,(3,3),(0.,1.),.PIECEWISE_BEZIER_KNOTS.);
#142 = CARTESIAN_POINT('',(10.575966029724,2.729453845676,6.914351928404
    ));
#143 = CARTESIAN_POINT('',(10.272781316348,2.627210881386,6.633441692722
    ));
#144 = CARTESIAN_POINT('',(9.95940552017,2.435737693717,6.10737343317));
#145 = SURFACE_OF_LINEAR_EXTRUSION('',#146,#150);
#146 = B_SPLINE_CURVE_WITH_KNOTS('',2,(#147,#148,#149),.UNSPECIFIED.,.F.
  ,.F.,(3,3),(0.,1.),.PIECEWISE_BEZIER_KNOTS.);
#147 = CARTESIAN_POINT('',(10.575966029724,2.729453845676,6.914351928404
    ));
#148 = CARTESIAN_POINT('',(10.272781316348,2.627210881386,6.633441692722
    ));
#149 = CARTESIAN_POINT('',(9.95940552017,2.435737693717,6.10737343317));
#150 = VECTOR('',#151,1.);
#151 = DIRECTION('',(-0.,0.939692620786,-0.342020143326));
#152 = ADVANCED_FACE('',(#153),#178,.T.);
#153 = FACE_BOUND('',#154,.T.);
#154 = EDGE_LOOP('',(#155,#156,#164,#172));
#155 = ORIENTED_EDGE('',*,*,#132,.T.);
#156 = ORIENTED_EDGE('',*,*,#157,.T.);
#157 = EDGE_CURVE('',#125,#158,#160,.T.);
#158 = VERTEX_POINT('',#159);
#159 = CARTESIAN_POINT('',(9.48161358811,1.277103073292,5.263094496283)
  );
#160 = B_SPLINE_CURVE_WITH_KNOTS('',2,(#161,#162,#163),.UNSPECIFIED.,.F.
  ,.F.,(3,3),(0.,1.),.PIECEWISE_BEZIER_KNOTS.);
#161 = CARTESIAN_POINT('',(9.95940552017,1.683983597088,6.38098954783));
#162 = CARTESIAN_POINT('',(9.646029723992,1.492568502013,5.855080896367)
  );
#163 = CARTESIAN_POINT('',(9.48161358811,1.277103073292,5.263094496283)
  );
#164 = ORIENTED_EDGE('',*,*,#165,.F.);
#165 = EDGE_CURVE('',#166,#158,#168,.T.);
#166 = VERTEX_POINT('',#167);
#167 = CARTESIAN_POINT('',(9.48161358811,2.028857169921,4.989478381623)
  );
#168 = LINE('',#169,#170);
#169 = CARTESIAN_POINT('',(9.48161358811,2.028857169921,4.989478381623)
  );
#170 = VECTOR('',#171,1.);
#171 = DIRECTION('',(0.,-0.939692620786,0.342020143326));
#172 = ORIENTED_EDGE('',*,*,#173,.F.);
#173 = EDGE_CURVE('',#133,#166,#174,.T.);
#174 = B_SPLINE_CURVE_WITH_KNOTS('',2,(#175,#176,#177),.UNSPECIFIED.,.F.
  ,.F.,(3,3),(0.,1.),.PIECEWISE_BEZIER_KNOTS.);
#175 = CARTESIAN_POINT('',(9.95940552017,2.435737693717,6.10737343317));
#176 = CARTESIAN_POINT('',(9.646029723992,2.244322598642,5.581464781707)
  );
#177 = CARTESIAN_POINT('',(9.48161358811,2.028857169921,4.989478381623)
  );
#178 = SURFACE_OF_LINEAR_EXTRUSION('',#179,#183);
#179 = B_SPLINE_CURVE_WITH_KNOTS('',2,(#180,#181,#182),.UNSPECIFIED.,.F.
  ,.F.,(3,3),(0.,1.),.PIECEWISE_BEZIER_KNOTS.);
#180 = CARTESIAN_POINT('',(9.95940552017,2.435737693717,6.10737343317));
#181 = CARTESIAN_POINT('',(9.646029723992,2.244322598642,5.581464781707)
  );
#182 = CARTESIAN_POINT('',(9.48161358811,2.028857169921,4.989478381623)
  );
#183 = VECTOR('',#184,1.);
#184 = DIRECTION('',(-0.,0.939692620786,-0.342020143326));
#185 = ADVANCED_FACE('',(#186),#211,.T.);
#186 = FACE_BOUND('',#187,.T.);
#187 = EDGE_LOOP('',(#188,#189,#197,#205));
#188 = ORIENTED_EDGE('',*,*,#165,.T.);
#189 = ORIENTED_EDGE('',*,*,#190,.T.);
#190 = EDGE_CURVE('',#158,#191,#193,.T.);
#191 = VERTEX_POINT('',#192);
#192 = CARTESIAN_POINT('',(9.31991507431,0.892065364593,4.205212085995)
  );
#193 = B_SPLINE_CURVE_WITH_KNOTS('',2,(#194,#195,#196),.UNSPECIFIED.,.F.
  ,.F.,(3,3),(0.,1.),.PIECEWISE_BEZIER_KNOTS.);
#194 = CARTESIAN_POINT('',(9.48161358811,1.277103073292,5.263094496283)
  );
#195 = CARTESIAN_POINT('',(9.317367303609,1.061637644571,4.671108096199)
  );
#196 = CARTESIAN_POINT('',(9.31991507431,0.892065364593,4.205212085995)
  );
#197 = ORIENTED_EDGE('',*,*,#198,.F.);
#198 = EDGE_CURVE('',#199,#191,#201,.T.);
#199 = VERTEX_POINT('',#200);
#200 = CARTESIAN_POINT('',(9.31991507431,1.643819461222,3.931595971335)
  );
#201 = LINE('',#202,#203);
#202 = CARTESIAN_POINT('',(9.31991507431,1.643819461222,3.931595971335)
  );
#203 = VECTOR('',#204,1.);
#204 = DIRECTION('',(0.,-0.939692620786,0.342020143326));
#205 = ORIENTED_EDGE('',*,*,#206,.F.);
#206 = EDGE_CURVE('',#166,#199,#207,.T.);
#207 = B_SPLINE_CURVE_WITH_KNOTS('',2,(#208,#209,#210),.UNSPECIFIED.,.F.
  ,.F.,(3,3),(0.,1.),.PIECEWISE_BEZIER_KNOTS.);
#208 = CARTESIAN_POINT('',(9.48161358811,2.028857169921,4.989478381623)
  );
#209 = CARTESIAN_POINT('',(9.317367303609,1.8133917412,4.397491981539));
#210 = CARTESIAN_POINT('',(9.31991507431,1.643819461222,3.931595971335)
  );
#211 = SURFACE_OF_LINEAR_EXTRUSION('',#212,#216);
#212 = B_SPLINE_CURVE_WITH_KNOTS('',2,(#213,#214,#215),.UNSPECIFIED.,.F.
  ,.F.,(3,3),(0.,1.),.PIECEWISE_BEZIER_KNOTS.);
#213 = CARTESIAN_POINT('',(9.48161358811,2.028857169921,4.989478381623)
  );
#214 = CARTESIAN_POINT('',(9.317367303609,1.8133917412,4.397491981539));
#215 = CARTESIAN_POINT('',(9.31991507431,1.643819461222,3.931595971335)
  );
#216 = VECTOR('',#217,1.);
#217 = DIRECTION('',(-0.,0.939692620786,-0.342020143326));
#218 = ADVANCED_FACE('',(#219),#244,.T.);
#219 = FACE_BOUND('',#220,.T.);
#220 = EDGE_LOOP('',(#221,#222,#230,#238));
#221 = ORIENTED_EDGE('',*,*,#198,.T.);
#222 = ORIENTED_EDGE('',*,*,#223,.T.);
#223 = EDGE_CURVE('',#191,#224,#226,.T.);
#224 = VERTEX_POINT('',#225);
#225 = CARTESIAN_POINT('',(8.629469214437,0.892065364593,4.205212085995)
  );
#226 = LINE('',#227,#228);
#227 = CARTESIAN_POINT('',(9.31991507431,0.892065364593,4.205212085995)
  );
#228 = VECTOR('',#229,1.);
#229 = DIRECTION('',(-1.,0.,0.));
#230 = ORIENTED_EDGE('',*,*,#231,.F.);
#231 = EDGE_CURVE('',#232,#224,#234,.T.);
#232 = VERTEX_POINT('',#233);
#233 = CARTESIAN_POINT('',(8.629469214437,1.643819461222,3.931595971335)
  );
#234 = LINE('',#235,#236);
#235 = CARTESIAN_POINT('',(8.629469214437,1.643819461222,3.931595971335)
  );
#236 = VECTOR('',#237,1.);
#237 = DIRECTION('',(0.,-0.939692620786,0.342020143326));
#238 = ORIENTED_EDGE('',*,*,#239,.F.);
#239 = EDGE_CURVE('',#199,#232,#240,.T.);
#240 = LINE('',#241,#242);
#241 = CARTESIAN_POINT('',(9.31991507431,1.643819461222,3.931595971335)
  );
#242 = VECTOR('',#243,1.);
#243 = DIRECTION('',(-1.,0.,0.));
#244 = PLANE('',#245);
#245 = AXIS2_PLACEMENT_3D('',#246,#247,#248);
#246 = CARTESIAN_POINT('',(9.31991507431,1.643819461222,3.931595971335)
  );
#247 = DIRECTION('',(0.,-0.342020143326,-0.939692620786));
#248 = DIRECTION('',(-1.,0.,0.));
#249 = ADVANCED_FACE('',(#250),#275,.T.);
#250 = FACE_BOUND('',#251,.T.);
#251 = EDGE_LOOP('',(#252,#253,#261,#269));
#252 = ORIENTED_EDGE('',*,*,#231,.T.);
#253 = ORIENTED_EDGE('',*,*,#254,.T.);
#254 = EDGE_CURVE('',#224,#255,#257,.T.);
#255 = VERTEX_POINT('',#256);
#256 = CARTESIAN_POINT('',(8.949129511677,1.434766371633,5.696270848353)
  );
#257 = B_SPLINE_CURVE_WITH_KNOTS('',2,(#258,#259,#260),.UNSPECIFIED.,.F.
  ,.F.,(3,3),(0.,1.),.PIECEWISE_BEZIER_KNOTS.);
#258 = CARTESIAN_POINT('',(8.629469214437,0.892065364593,4.205212085995)
  );
#259 = CARTESIAN_POINT('',(8.647303609342,1.158187534712,4.936376739213)
  );
#260 = CARTESIAN_POINT('',(8.949129511677,1.434766371633,5.696270848353)
  );
#261 = ORIENTED_EDGE('',*,*,#262,.F.);
#262 = EDGE_CURVE('',#263,#255,#265,.T.);
#263 = VERTEX_POINT('',#264);
#264 = CARTESIAN_POINT('',(8.949129511677,2.186520468262,5.422654733693)
  );
#265 = LINE('',#266,#267);
#266 = CARTESIAN_POINT('',(8.949129511677,2.186520468262,5.422654733693)
  );
#267 = VECTOR('',#268,1.);
#268 = DIRECTION('',(0.,-0.939692620786,0.342020143326));
#269 = ORIENTED_EDGE('',*,*,#270,.F.);
#270 = EDGE_CURVE('',#232,#263,#271,.T.);
#271 = B_SPLINE_CURVE_WITH_KNOTS('',2,(#272,#273,#274),.UNSPECIFIED.,.F.
  ,.F.,(3,3),(0.,1.),.PIECEWISE_BEZIER_KNOTS.);
#272 = CARTESIAN_POINT('',(8.629469214437,1.643819461222,3.931595971335)
  );
#273 = CARTESIAN_POINT('',(8.647303609342,1.909941631341,4.662760624553)
  );
#274 = CARTESIAN_POINT('',(8.949129511677,2.186520468262,5.422654733693)
  );
#275 = SURFACE_OF_LINEAR_EXTRUSION('',#276,#280);
#276 = B_SPLINE_CURVE_WITH_KNOTS('',2,(#277,#278,#279),.UNSPECIFIED.,.F.
  ,.F.,(3,3),(0.,1.),.PIECEWISE_BEZIER_KNOTS.);
#277 = CARTESIAN_POINT('',(8.629469214437,1.643819461222,3.931595971335)
  );
#278 = CARTESIAN_POINT('',(8.647303609342,1.909941631341,4.662760624553)
  );
#279 = CARTESIAN_POINT('',(8.949129511677,2.186520468262,5.422654733693)
  );
#280 = VECTOR('',#281,1.);
#281 = DIRECTION('',(-0.,0.939692620786,-0.342020143326));
#282 = ADVANCED_FACE('',(#283),#308,.T.);
#283 = FACE_BOUND('',#284,.T.);
#284 = EDGE_LOOP('',(#285,#286,#294,#302));
#285 = ORIENTED_EDGE('',*,*,#262,.T.);
#286 = ORIENTED_EDGE('',*,*,#287,.T.);
#287 = EDGE_CURVE('',#255,#288,#290,.T.);
#288 = VERTEX_POINT('',#289);
#289 = CARTESIAN_POINT('',(9.755583864119,1.929366711383,7.055174113469)
  );
#290 = B_SPLINE_CURVE_WITH_KNOTS('',2,(#291,#292,#293),.UNSPECIFIED.,.F.
  ,.F.,(3,3),(0.,1.),.PIECEWISE_BEZIER_KNOTS.);
#291 = CARTESIAN_POINT('',(8.949129511677,1.434766371633,5.696270848353)
  );
#292 = CARTESIAN_POINT('',(9.251125265393,1.711403301148,6.456324565582)
  );
#293 = CARTESIAN_POINT('',(9.755583864119,1.929366711383,7.055174113469)
  );
#294 = ORIENTED_EDGE('',*,*,#295,.F.);
#295 = EDGE_CURVE('',#296,#288,#298,.T.);
#296 = VERTEX_POINT('',#297);
#297 = CARTESIAN_POINT('',(9.755583864119,2.681120808011,6.781557998809)
  );
#298 = LINE('',#299,#300);
#299 = CARTESIAN_POINT('',(9.755583864119,2.681120808011,6.781557998809)
  );
#300 = VECTOR('',#301,1.);
#301 = DIRECTION('',(0.,-0.939692620786,0.342020143326));
#302 = ORIENTED_EDGE('',*,*,#303,.F.);
#303 = EDGE_CURVE('',#263,#296,#304,.T.);
#304 = B_SPLINE_CURVE_WITH_KNOTS('',2,(#305,#306,#307),.UNSPECIFIED.,.F.
  ,.F.,(3,3),(0.,1.),.PIECEWISE_BEZIER_KNOTS.);
#305 = CARTESIAN_POINT('',(8.949129511677,2.186520468262,5.422654733693)
  );
#306 = CARTESIAN_POINT('',(9.251125265393,2.463157397777,6.182708450921)
  );
#307 = CARTESIAN_POINT('',(9.755583864119,2.681120808011,6.781557998809)
  );
#308 = SURFACE_OF_LINEAR_EXTRUSION('',#309,#313);
#309 = B_SPLINE_CURVE_WITH_KNOTS('',2,(#310,#311,#312),.UNSPECIFIED.,.F.
  ,.F.,(3,3),(0.,1.),.PIECEWISE_BEZIER_KNOTS.);
#310 = CARTESIAN_POINT('',(8.949129511677,2.186520468262,5.422654733693)
  );
#311 = CARTESIAN_POINT('',(9.251125265393,2.463157397777,6.182708450921)
  );
#312 = CARTESIAN_POINT('',(9.755583864119,2.681120808011,6.781557998809)
  );
#313 = VECTOR('',#314,1.);
#314 = DIRECTION('',(-0.,0.939692620786,-0.342020143326));
#315 = ADVANCED_FACE('',(#316),#332,.T.);
#316 = FACE_BOUND('',#317,.T.);
#317 = EDGE_LOOP('',(#318,#319,#325,#326));
#318 = ORIENTED_EDGE('',*,*,#295,.T.);
#319 = ORIENTED_EDGE('',*,*,#320,.T.);
#320 = EDGE_CURVE('',#288,#24,#321,.T.);
#321 = LINE('',#322,#323);
#322 = CARTESIAN_POINT('',(9.755583864119,1.929366711383,7.055174113469)
  );
#323 = VECTOR('',#324,1.);
#324 = DIRECTION('',(-1.,0.,0.));
#325 = ORIENTED_EDGE('',*,*,#21,.F.);
#326 = ORIENTED_EDGE('',*,*,#327,.F.);
#327 = EDGE_CURVE('',#296,#22,#328,.T.);
#328 = LINE('',#329,#330);
#329 = CARTESIAN_POINT('',(9.755583864119,2.681120808011,6.781557998809)
  );
#330 = VECTOR('',#331,1.);
#331 = DIRECTION('',(-1.,0.,0.));
#332 = PLANE('',#333);
#333 = AXIS2_PLACEMENT_3D('',#334,#335,#336);
#334 = CARTESIAN_POINT('',(9.755583864119,2.681120808011,6.781557998809)
  );
#335 = DIRECTION('',(0.,-0.342020143326,-0.939692620786));
#336 = DIRECTION('',(-1.,0.,0.));
#337 = ADVANCED_FACE('',(#338),#350,.F.);
#338 = FACE_BOUND('',#339,.T.);
#339 = EDGE_LOOP('',(#340,#341,#342,#343,#344,#345,#346,#347,#348,#349)
  );
#340 = ORIENTED_EDGE('',*,*,#47,.T.);
#341 = ORIENTED_EDGE('',*,*,#78,.T.);
#342 = ORIENTED_EDGE('',*,*,#109,.T.);
#343 = ORIENTED_EDGE('',*,*,#140,.T.);
#344 = ORIENTED_EDGE('',*,*,#173,.T.);
#345 = ORIENTED_EDGE('',*,*,#206,.T.);
#346 = ORIENTED_EDGE('',*,*,#239,.T.);
#347 = ORIENTED_EDGE('',*,*,#270,.T.);
#348 = ORIENTED_EDGE('',*,*,#303,.T.);
#349 = ORIENTED_EDGE('',*,*,#327,.T.);
#350 = PLANE('',#351);
#351 = AXIS2_PLACEMENT_3D('',#352,#353,#354);
#352 = CARTESIAN_POINT('',(9.298652255628,2.422358238416,6.070613681845)
  );
#353 = DIRECTION('',(0.,-0.939692620786,0.342020143326));
#354 = DIRECTION('',(1.,0.,0.));
#355 = ADVANCED_FACE('',(#356),#368,.T.);
#356 = FACE_BOUND('',#357,.F.);
#357 = EDGE_LOOP('',(#358,#359,#360,#361,#362,#363,#364,#365,#366,#367)
  );
#358 = ORIENTED_EDGE('',*,*,#31,.T.);
#359 = ORIENTED_EDGE('',*,*,#62,.T.);
#360 = ORIENTED_EDGE('',*,*,#93,.T.);
#361 = ORIENTED_EDGE('',*,*,#124,.T.);
#362 = ORIENTED_EDGE('',*,*,#157,.T.);
#363 = ORIENTED_EDGE('',*,*,#190,.T.);
#364 = ORIENTED_EDGE('',*,*,#223,.T.);
#365 = ORIENTED_EDGE('',*,*,#254,.T.);
#366 = ORIENTED_EDGE('',*,*,#287,.T.);
#367 = ORIENTED_EDGE('',*,*,#320,.T.);
#368 = PLANE('',#369);
#369 = AXIS2_PLACEMENT_3D('',#370,#371,#372);
#370 = CARTESIAN_POINT('',(9.298652255628,1.670604141787,6.344229796506)
  );
#371 = DIRECTION('',(0.,-0.939692620786,0.342020143326));
#372 = DIRECTION('',(1.,0.,0.));
#373 = MANIFOLD_SOLID_BREP('',#374);
#374 = CLOSED_SHELL('',(#375,#415,#446,#477,#499,#511));
#375 = ADVANCED_FACE('',(#376),#410,.T.);
#376 = FACE_BOUND('',#377,.T.);
#377 = EDGE_LOOP('',(#378,#388,#396,#404));
#378 = ORIENTED_EDGE('',*,*,#379,.T.);
#379 = EDGE_CURVE('',#380,#382,#384,.T.);
#380 = VERTEX_POINT('',#381);
#381 = CARTESIAN_POINT('',(10.80067940552,1.621511905377,3.870306465368)
  );
#382 = VERTEX_POINT('',#383);
#383 = CARTESIAN_POINT('',(10.80067940552,0.869757808748,4.143922580028)
  );
#384 = LINE('',#385,#386);
#385 = CARTESIAN_POINT('',(10.80067940552,1.621511905377,3.870306465368)
  );
#386 = VECTOR('',#387,1.);
#387 = DIRECTION('',(0.,-0.939692620786,0.342020143326));
#388 = ORIENTED_EDGE('',*,*,#389,.T.);
#389 = EDGE_CURVE('',#382,#390,#392,.T.);
#390 = VERTEX_POINT('',#391);
#391 = CARTESIAN_POINT('',(11.725520169851,2.189621529574,7.770218349753
    ));
#392 = LINE('',#393,#394);
#393 = CARTESIAN_POINT('',(10.80067940552,0.869757808748,4.143922580028)
  );
#394 = VECTOR('',#395,1.);
#395 = DIRECTION('',(0.233057266823,0.332601938861,0.913816316689));
#396 = ORIENTED_EDGE('',*,*,#397,.F.);
#397 = EDGE_CURVE('',#398,#390,#400,.T.);
#398 = VERTEX_POINT('',#399);
#399 = CARTESIAN_POINT('',(11.725520169851,2.941375626202,7.496602235093
    ));
#400 = LINE('',#401,#402);
#401 = CARTESIAN_POINT('',(11.725520169851,2.941375626202,7.496602235093
    ));
#402 = VECTOR('',#403,1.);
#403 = DIRECTION('',(0.,-0.939692620786,0.342020143326));
#404 = ORIENTED_EDGE('',*,*,#405,.F.);
#405 = EDGE_CURVE('',#380,#398,#406,.T.);
#406 = LINE('',#407,#408);
#407 = CARTESIAN_POINT('',(10.80067940552,1.621511905377,3.870306465368)
  );
#408 = VECTOR('',#409,1.);
#409 = DIRECTION('',(0.233057266823,0.332601938861,0.913816316689));
#410 = PLANE('',#411);
#411 = AXIS2_PLACEMENT_3D('',#412,#413,#414);
#412 = CARTESIAN_POINT('',(10.80067940552,1.621511905377,3.870306465368)
  );
#413 = DIRECTION('',(-0.972463012346,7.971027980197E-02,0.219002193854)
  );
#414 = DIRECTION('',(0.233057266823,0.332601938861,0.913816316689));
#415 = ADVANCED_FACE('',(#416),#441,.T.);
#416 = FACE_BOUND('',#417,.T.);
#417 = EDGE_LOOP('',(#418,#419,#427,#435));
#418 = ORIENTED_EDGE('',*,*,#397,.T.);
#419 = ORIENTED_EDGE('',*,*,#420,.T.);
#420 = EDGE_CURVE('',#390,#421,#423,.T.);
#421 = VERTEX_POINT('',#422);
#422 = CARTESIAN_POINT('',(12.263099787686,2.189621529574,7.770218349753
    ));
#423 = LINE('',#424,#425);
#424 = CARTESIAN_POINT('',(11.725520169851,2.189621529574,7.770218349753
    ));
#425 = VECTOR('',#426,1.);
#426 = DIRECTION('',(1.,0.,0.));
#427 = ORIENTED_EDGE('',*,*,#428,.F.);
#428 = EDGE_CURVE('',#429,#421,#431,.T.);
#429 = VERTEX_POINT('',#430);
#430 = CARTESIAN_POINT('',(12.263099787686,2.941375626202,7.496602235093
    ));
#431 = LINE('',#432,#433);
#432 = CARTESIAN_POINT('',(12.263099787686,2.941375626202,7.496602235093
    ));
#433 = VECTOR('',#434,1.);
#434 = DIRECTION('',(0.,-0.939692620786,0.342020143326));
#435 = ORIENTED_EDGE('',*,*,#436,.F.);
#436 = EDGE_CURVE('',#398,#429,#437,.T.);
#437 = LINE('',#438,#439);
#438 = CARTESIAN_POINT('',(11.725520169851,2.941375626202,7.496602235093
    ));
#439 = VECTOR('',#440,1.);
#440 = DIRECTION('',(1.,0.,0.));
#441 = PLANE('',#442);
#442 = AXIS2_PLACEMENT_3D('',#443,#444,#445);
#443 = CARTESIAN_POINT('',(11.725520169851,2.941375626202,7.496602235093
    ));
#444 = DIRECTION('',(0.,0.342020143326,0.939692620786));
#445 = DIRECTION('',(1.,0.,0.));
#446 = ADVANCED_FACE('',(#447),#472,.T.);
#447 = FACE_BOUND('',#448,.T.);
#448 = EDGE_LOOP('',(#449,#450,#458,#466));
#449 = ORIENTED_EDGE('',*,*,#428,.T.);
#450 = ORIENTED_EDGE('',*,*,#451,.T.);
#451 = EDGE_CURVE('',#421,#452,#454,.T.);
#452 = VERTEX_POINT('',#453);
#453 = CARTESIAN_POINT('',(11.328067940552,0.869757808748,4.143922580028
    ));
#454 = LINE('',#455,#456);
#455 = CARTESIAN_POINT('',(12.263099787686,2.189621529574,7.770218349753
    ));
#456 = VECTOR('',#457,1.);
#457 = DIRECTION('',(-0.235483715343,-0.332401953666,-0.913266861879));
#458 = ORIENTED_EDGE('',*,*,#459,.F.);
#459 = EDGE_CURVE('',#460,#452,#462,.T.);
#460 = VERTEX_POINT('',#461);
#461 = CARTESIAN_POINT('',(11.328067940552,1.621511905377,3.870306465368
    ));
#462 = LINE('',#463,#464);
#463 = CARTESIAN_POINT('',(11.328067940552,1.621511905377,3.870306465368
    ));
#464 = VECTOR('',#465,1.);
#465 = DIRECTION('',(0.,-0.939692620786,0.342020143326));
#466 = ORIENTED_EDGE('',*,*,#467,.F.);
#467 = EDGE_CURVE('',#429,#460,#468,.T.);
#468 = LINE('',#469,#470);
#469 = CARTESIAN_POINT('',(12.263099787686,2.941375626202,7.496602235093
    ));
#470 = VECTOR('',#471,1.);
#471 = DIRECTION('',(-0.235483715343,-0.332401953666,-0.913266861879));
#472 = PLANE('',#473);
#473 = AXIS2_PLACEMENT_3D('',#474,#475,#476);
#474 = CARTESIAN_POINT('',(12.263099787686,2.941375626202,7.496602235093
    ));
#475 = DIRECTION('',(0.971878294751,-8.054017407264E-02,-0.221282309624)
  );
#476 = DIRECTION('',(-0.235483715343,-0.332401953666,-0.913266861879));
#477 = ADVANCED_FACE('',(#478),#494,.T.);
#478 = FACE_BOUND('',#479,.T.);
#479 = EDGE_LOOP('',(#480,#481,#487,#488));
#480 = ORIENTED_EDGE('',*,*,#459,.T.);
#481 = ORIENTED_EDGE('',*,*,#482,.T.);
#482 = EDGE_CURVE('',#452,#382,#483,.T.);
#483 = LINE('',#484,#485);
#484 = CARTESIAN_POINT('',(11.328067940552,0.869757808748,4.143922580028
    ));
#485 = VECTOR('',#486,1.);
#486 = DIRECTION('',(-1.,0.,0.));
#487 = ORIENTED_EDGE('',*,*,#379,.F.);
#488 = ORIENTED_EDGE('',*,*,#489,.F.);
#489 = EDGE_CURVE('',#460,#380,#490,.T.);
#490 = LINE('',#491,#492);
#491 = CARTESIAN_POINT('',(11.328067940552,1.621511905377,3.870306465368
    ));
#492 = VECTOR('',#493,1.);
#493 = DIRECTION('',(-1.,0.,0.));
#494 = PLANE('',#495);
#495 = AXIS2_PLACEMENT_3D('',#496,#497,#498);
#496 = CARTESIAN_POINT('',(11.328067940552,1.621511905377,3.870306465368
    ));
#497 = DIRECTION('',(0.,-0.342020143326,-0.939692620786));
#498 = DIRECTION('',(-1.,0.,0.));
#499 = ADVANCED_FACE('',(#500),#506,.F.);
#500 = FACE_BOUND('',#501,.T.);
#501 = EDGE_LOOP('',(#502,#503,#504,#505));
#502 = ORIENTED_EDGE('',*,*,#405,.T.);
#503 = ORIENTED_EDGE('',*,*,#436,.T.);
#504 = ORIENTED_EDGE('',*,*,#467,.T.);
#505 = ORIENTED_EDGE('',*,*,#489,.T.);
#506 = PLANE('',#507);
#507 = AXIS2_PLACEMENT_3D('',#508,#509,#510);
#508 = CARTESIAN_POINT('',(11.529938694325,2.28219070669,5.685506553486)
  );
#509 = DIRECTION('',(0.,-0.939692620786,0.342020143326));
#510 = DIRECTION('',(1.,0.,0.));
#511 = ADVANCED_FACE('',(#512),#518,.T.);
#512 = FACE_BOUND('',#513,.F.);
#513 = EDGE_LOOP('',(#514,#515,#516,#517));
#514 = ORIENTED_EDGE('',*,*,#389,.T.);
#515 = ORIENTED_EDGE('',*,*,#420,.T.);
#516 = ORIENTED_EDGE('',*,*,#451,.T.);
#517 = ORIENTED_EDGE('',*,*,#482,.T.);
#518 = PLANE('',#519);
#519 = AXIS2_PLACEMENT_3D('',#520,#521,#522);
#520 = CARTESIAN_POINT('',(11.529938694325,1.530436610061,5.959122668147
    ));
#521 = DIRECTION('',(0.,-0.939692620786,0.342020143326));
#522 = DIRECTION('',(1.,0.,0.));
#523 = MANIFOLD_SOLID_BREP('',#524);
#524 = CLOSED_SHELL('',(#525,#565,#596,#629,#660,#693,#726,#757,#779,
    #795));
#525 = ADVANCED_FACE('',(#526),#560,.T.);
#526 = FACE_BOUND('',#527,.T.);
#527 = EDGE_LOOP('',(#528,#538,#546,#554));
#528 = ORIENTED_EDGE('',*,*,#529,.T.);
#529 = EDGE_CURVE('',#530,#532,#534,.T.);
#530 = VERTEX_POINT('',#531);
#531 = CARTESIAN_POINT('',(14.307600849257,1.643819461222,3.931595971335
    ));
#532 = VERTEX_POINT('',#533);
#533 = CARTESIAN_POINT('',(14.307600849257,0.892065364593,4.205212085995
    ));
#534 = LINE('',#535,#536);
#535 = CARTESIAN_POINT('',(14.307600849257,1.643819461222,3.931595971335
    ));
#536 = VECTOR('',#537,1.);
#537 = DIRECTION('',(0.,-0.939692620786,0.342020143326));
#538 = ORIENTED_EDGE('',*,*,#539,.T.);
#539 = EDGE_CURVE('',#532,#540,#542,.T.);
#540 = VERTEX_POINT('',#541);
#541 = CARTESIAN_POINT('',(13.591677282378,0.892065364593,4.205212085995
    ));
#542 = LINE('',#543,#544);
#543 = CARTESIAN_POINT('',(14.307600849257,0.892065364593,4.205212085995
    ));
#544 = VECTOR('',#545,1.);
#545 = DIRECTION('',(-1.,0.,0.));
#546 = ORIENTED_EDGE('',*,*,#547,.F.);
#547 = EDGE_CURVE('',#548,#540,#550,.T.);
#548 = VERTEX_POINT('',#549);
#549 = CARTESIAN_POINT('',(13.591677282378,1.643819461222,3.931595971335
    ));
#550 = LINE('',#551,#552);
#551 = CARTESIAN_POINT('',(13.591677282378,1.643819461222,3.931595971335
    ));
#552 = VECTOR('',#553,1.);
#553 = DIRECTION('',(0.,-0.939692620786,0.342020143326));
#554 = ORIENTED_EDGE('',*,*,#555,.F.);
#555 = EDGE_CURVE('',#530,#548,#556,.T.);
#556 = LINE('',#557,#558);
#557 = CARTESIAN_POINT('',(14.307600849257,1.643819461222,3.931595971335
    ));
#558 = VECTOR('',#559,1.);
#559 = DIRECTION('',(-1.,0.,0.));
#560 = PLANE('',#561);
#561 = AXIS2_PLACEMENT_3D('',#562,#563,#564);
#562 = CARTESIAN_POINT('',(14.307600849257,1.643819461222,3.931595971335
    ));
#563 = DIRECTION('',(0.,-0.342020143326,-0.939692620786));
#564 = DIRECTION('',(-1.,0.,0.));
#565 = ADVANCED_FACE('',(#566),#591,.T.);
#566 = FACE_BOUND('',#567,.T.);
#567 = EDGE_LOOP('',(#568,#569,#577,#585));
#568 = ORIENTED_EDGE('',*,*,#547,.T.);
#569 = ORIENTED_EDGE('',*,*,#570,.T.);
#570 = EDGE_CURVE('',#540,#571,#573,.T.);
#571 = VERTEX_POINT('',#572);
#572 = CARTESIAN_POINT('',(13.591677282378,1.818293672905,6.750003448341
    ));
#573 = LINE('',#574,#575);
#574 = CARTESIAN_POINT('',(13.591677282378,0.892065364593,4.205212085995
    ));
#575 = VECTOR('',#576,1.);
#576 = DIRECTION('',(0.,0.342020143326,0.939692620786));
#577 = ORIENTED_EDGE('',*,*,#578,.F.);
#578 = EDGE_CURVE('',#579,#571,#581,.T.);
#579 = VERTEX_POINT('',#580);
#580 = CARTESIAN_POINT('',(13.591677282378,2.570047769534,6.476387333681
    ));
#581 = LINE('',#582,#583);
#582 = CARTESIAN_POINT('',(13.591677282378,2.570047769534,6.476387333681
    ));
#583 = VECTOR('',#584,1.);
#584 = DIRECTION('',(0.,-0.939692620786,0.342020143326));
#585 = ORIENTED_EDGE('',*,*,#586,.F.);
#586 = EDGE_CURVE('',#548,#579,#587,.T.);
#587 = LINE('',#588,#589);
#588 = CARTESIAN_POINT('',(13.591677282378,1.643819461222,3.931595971335
    ));
#589 = VECTOR('',#590,1.);
#590 = DIRECTION('',(0.,0.342020143326,0.939692620786));
#591 = PLANE('',#592);
#592 = AXIS2_PLACEMENT_3D('',#593,#594,#595);
#593 = CARTESIAN_POINT('',(13.591677282378,1.643819461222,3.931595971335
    ));
#594 = DIRECTION('',(-1.,0.,0.));
#595 = DIRECTION('',(0.,0.342020143326,0.939692620786));
#596 = ADVANCED_FACE('',(#597),#622,.T.);
#597 = FACE_BOUND('',#598,.T.);
#598 = EDGE_LOOP('',(#599,#600,#608,#616));
#599 = ORIENTED_EDGE('',*,*,#578,.T.);
#600 = ORIENTED_EDGE('',*,*,#601,.T.);
#601 = EDGE_CURVE('',#571,#602,#604,.T.);
#602 = VERTEX_POINT('',#603);
#603 = CARTESIAN_POINT('',(12.666836518047,1.63193263345,6.237980700574)
  );
#604 = B_SPLINE_CURVE_WITH_KNOTS('',2,(#605,#606,#607),.UNSPECIFIED.,.F.
  ,.F.,(3,3),(0.,1.),.PIECEWISE_BEZIER_KNOTS.);
#605 = CARTESIAN_POINT('',(13.591677282378,1.818293672905,6.750003448341
    ));
#606 = CARTESIAN_POINT('',(13.19932059448,1.692290837937,6.40381350448)
  );
#607 = CARTESIAN_POINT('',(12.666836518047,1.63193263345,6.237980700574)
  );
#608 = ORIENTED_EDGE('',*,*,#609,.F.);
#609 = EDGE_CURVE('',#610,#602,#612,.T.);
#610 = VERTEX_POINT('',#611);
#611 = CARTESIAN_POINT('',(12.666836518047,2.383686730079,5.964364585913
    ));
#612 = LINE('',#613,#614);
#613 = CARTESIAN_POINT('',(12.666836518047,2.383686730079,5.964364585913
    ));
#614 = VECTOR('',#615,1.);
#615 = DIRECTION('',(0.,-0.939692620786,0.342020143326));
#616 = ORIENTED_EDGE('',*,*,#617,.F.);
#617 = EDGE_CURVE('',#579,#610,#618,.T.);
#618 = B_SPLINE_CURVE_WITH_KNOTS('',2,(#619,#620,#621),.UNSPECIFIED.,.F.
  ,.F.,(3,3),(0.,1.),.PIECEWISE_BEZIER_KNOTS.);
#619 = CARTESIAN_POINT('',(13.591677282378,2.570047769534,6.476387333681
    ));
#620 = CARTESIAN_POINT('',(13.19932059448,2.444044934566,6.130197389819)
  );
#621 = CARTESIAN_POINT('',(12.666836518047,2.383686730079,5.964364585913
    ));
#622 = SURFACE_OF_LINEAR_EXTRUSION('',#623,#627);
#623 = B_SPLINE_CURVE_WITH_KNOTS('',2,(#624,#625,#626),.UNSPECIFIED.,.F.
  ,.F.,(3,3),(0.,1.),.PIECEWISE_BEZIER_KNOTS.);
#624 = CARTESIAN_POINT('',(13.591677282378,2.570047769534,6.476387333681
    ));
#625 = CARTESIAN_POINT('',(13.19932059448,2.444044934566,6.130197389819)
  );
#626 = CARTESIAN_POINT('',(12.666836518047,2.383686730079,5.964364585913
    ));
#627 = VECTOR('',#628,1.);
#628 = DIRECTION('',(-0.,0.939692620786,-0.342020143326));
#629 = ADVANCED_FACE('',(#630),#655,.T.);
#630 = FACE_BOUND('',#631,.T.);
#631 = EDGE_LOOP('',(#632,#633,#641,#649));
#632 = ORIENTED_EDGE('',*,*,#609,.T.);
#633 = ORIENTED_EDGE('',*,*,#634,.T.);
#634 = EDGE_CURVE('',#602,#635,#637,.T.);
#635 = VERTEX_POINT('',#636);
#636 = CARTESIAN_POINT('',(12.666836518047,1.8550081919,6.850875760245)
  );
#637 = LINE('',#638,#639);
#638 = CARTESIAN_POINT('',(12.666836518047,1.63193263345,6.237980700574)
  );
#639 = VECTOR('',#640,1.);
#640 = DIRECTION('',(0.,0.342020143326,0.939692620786));
#641 = ORIENTED_EDGE('',*,*,#642,.F.);
#642 = EDGE_CURVE('',#643,#635,#645,.T.);
#643 = VERTEX_POINT('',#644);
#644 = CARTESIAN_POINT('',(12.666836518047,2.606762288528,6.577259645585
    ));
#645 = LINE('',#646,#647);
#646 = CARTESIAN_POINT('',(12.666836518047,2.606762288528,6.577259645585
    ));
#647 = VECTOR('',#648,1.);
#648 = DIRECTION('',(0.,-0.939692620786,0.342020143326));
#649 = ORIENTED_EDGE('',*,*,#650,.F.);
#650 = EDGE_CURVE('',#610,#643,#651,.T.);
#651 = LINE('',#652,#653);
#652 = CARTESIAN_POINT('',(12.666836518047,2.383686730079,5.964364585913
    ));
#653 = VECTOR('',#654,1.);
#654 = DIRECTION('',(0.,0.342020143326,0.939692620786));
#655 = PLANE('',#656);
#656 = AXIS2_PLACEMENT_3D('',#657,#658,#659);
#657 = CARTESIAN_POINT('',(12.666836518047,2.383686730079,5.964364585913
    ));
#658 = DIRECTION('',(-1.,0.,0.));
#659 = DIRECTION('',(0.,0.342020143326,0.939692620786));
#660 = ADVANCED_FACE('',(#661),#686,.T.);
#661 = FACE_BOUND('',#662,.T.);
#662 = EDGE_LOOP('',(#663,#664,#672,#680));
#663 = ORIENTED_EDGE('',*,*,#642,.T.);
#664 = ORIENTED_EDGE('',*,*,#665,.T.);
#665 = EDGE_CURVE('',#635,#666,#668,.T.);
#666 = VERTEX_POINT('',#667);
#667 = CARTESIAN_POINT('',(13.275753715499,1.973981823073,7.177753125404
    ));
#668 = B_SPLINE_CURVE_WITH_KNOTS('',2,(#669,#670,#671),.UNSPECIFIED.,.F.
  ,.F.,(3,3),(0.,1.),.PIECEWISE_BEZIER_KNOTS.);
#669 = CARTESIAN_POINT('',(12.666836518047,1.8550081919,6.850875760245)
  );
#670 = CARTESIAN_POINT('',(12.947091295117,1.886378192307,6.937064128012
    ));
#671 = CARTESIAN_POINT('',(13.275753715499,1.973981823073,7.177753125404
    ));
#672 = ORIENTED_EDGE('',*,*,#673,.F.);
#673 = EDGE_CURVE('',#674,#666,#676,.T.);
#674 = VERTEX_POINT('',#675);
#675 = CARTESIAN_POINT('',(13.275753715499,2.725735919701,6.904137010743
    ));
#676 = LINE('',#677,#678);
#677 = CARTESIAN_POINT('',(13.275753715499,2.725735919701,6.904137010743
    ));
#678 = VECTOR('',#679,1.);
#679 = DIRECTION('',(0.,-0.939692620786,0.342020143326));
#680 = ORIENTED_EDGE('',*,*,#681,.F.);
#681 = EDGE_CURVE('',#643,#674,#682,.T.);
#682 = B_SPLINE_CURVE_WITH_KNOTS('',2,(#683,#684,#685),.UNSPECIFIED.,.F.
  ,.F.,(3,3),(0.,1.),.PIECEWISE_BEZIER_KNOTS.);
#683 = CARTESIAN_POINT('',(12.666836518047,2.606762288528,6.577259645585
    ));
#684 = CARTESIAN_POINT('',(12.947091295117,2.638132288935,6.663448013351
    ));
#685 = CARTESIAN_POINT('',(13.275753715499,2.725735919701,6.904137010743
    ));
#686 = SURFACE_OF_LINEAR_EXTRUSION('',#687,#691);
#687 = B_SPLINE_CURVE_WITH_KNOTS('',2,(#688,#689,#690),.UNSPECIFIED.,.F.
  ,.F.,(3,3),(0.,1.),.PIECEWISE_BEZIER_KNOTS.);
#688 = CARTESIAN_POINT('',(12.666836518047,2.606762288528,6.577259645585
    ));
#689 = CARTESIAN_POINT('',(12.947091295117,2.638132288935,6.663448013351
    ));
#690 = CARTESIAN_POINT('',(13.275753715499,2.725735919701,6.904137010743
    ));
#691 = VECTOR('',#692,1.);
#692 = DIRECTION('',(-0.,0.939692620786,-0.342020143326));
#693 = ADVANCED_FACE('',(#694),#719,.T.);
#694 = FACE_BOUND('',#695,.T.);
#695 = EDGE_LOOP('',(#696,#697,#705,#713));
#696 = ORIENTED_EDGE('',*,*,#673,.T.);
#697 = ORIENTED_EDGE('',*,*,#698,.T.);
#698 = EDGE_CURVE('',#666,#699,#701,.T.);
#699 = VERTEX_POINT('',#700);
#700 = CARTESIAN_POINT('',(13.726709129512,2.178467751651,7.73957359677)
  );
#701 = B_SPLINE_CURVE_WITH_KNOTS('',2,(#702,#703,#704),.UNSPECIFIED.,.F.
  ,.F.,(3,3),(0.,1.),.PIECEWISE_BEZIER_KNOTS.);
#702 = CARTESIAN_POINT('',(13.275753715499,1.973981823073,7.177753125404
    ));
#703 = CARTESIAN_POINT('',(13.604416135881,2.061643546432,7.418601730884
    ));
#704 = CARTESIAN_POINT('',(13.726709129512,2.178467751651,7.73957359677)
  );
#705 = ORIENTED_EDGE('',*,*,#706,.F.);
#706 = EDGE_CURVE('',#707,#699,#709,.T.);
#707 = VERTEX_POINT('',#708);
#708 = CARTESIAN_POINT('',(13.726709129512,2.93022184828,7.465957482109)
  );
#709 = LINE('',#710,#711);
#710 = CARTESIAN_POINT('',(13.726709129512,2.93022184828,7.465957482109)
  );
#711 = VECTOR('',#712,1.);
#712 = DIRECTION('',(0.,-0.939692620786,0.342020143326));
#713 = ORIENTED_EDGE('',*,*,#714,.F.);
#714 = EDGE_CURVE('',#674,#707,#715,.T.);
#715 = B_SPLINE_CURVE_WITH_KNOTS('',2,(#716,#717,#718),.UNSPECIFIED.,.F.
  ,.F.,(3,3),(0.,1.),.PIECEWISE_BEZIER_KNOTS.);
#716 = CARTESIAN_POINT('',(13.275753715499,2.725735919701,6.904137010743
    ));
#717 = CARTESIAN_POINT('',(13.604416135881,2.813397643061,7.144985616224
    ));
#718 = CARTESIAN_POINT('',(13.726709129512,2.93022184828,7.465957482109)
  );
#719 = SURFACE_OF_LINEAR_EXTRUSION('',#720,#724);
#720 = B_SPLINE_CURVE_WITH_KNOTS('',2,(#721,#722,#723),.UNSPECIFIED.,.F.
  ,.F.,(3,3),(0.,1.),.PIECEWISE_BEZIER_KNOTS.);
#721 = CARTESIAN_POINT('',(13.275753715499,2.725735919701,6.904137010743
    ));
#722 = CARTESIAN_POINT('',(13.604416135881,2.813397643061,7.144985616224
    ));
#723 = CARTESIAN_POINT('',(13.726709129512,2.93022184828,7.465957482109)
  );
#724 = VECTOR('',#725,1.);
#725 = DIRECTION('',(-0.,0.939692620786,-0.342020143326));
#726 = ADVANCED_FACE('',(#727),#752,.T.);
#727 = FACE_BOUND('',#728,.T.);
#728 = EDGE_LOOP('',(#729,#730,#738,#746));
#729 = ORIENTED_EDGE('',*,*,#706,.T.);
#730 = ORIENTED_EDGE('',*,*,#731,.T.);
#731 = EDGE_CURVE('',#699,#732,#734,.T.);
#732 = VERTEX_POINT('',#733);
#733 = CARTESIAN_POINT('',(14.307600849257,2.178467751651,7.73957359677)
  );
#734 = LINE('',#735,#736);
#735 = CARTESIAN_POINT('',(13.726709129512,2.178467751651,7.73957359677)
  );
#736 = VECTOR('',#737,1.);
#737 = DIRECTION('',(1.,0.,0.));
#738 = ORIENTED_EDGE('',*,*,#739,.F.);
#739 = EDGE_CURVE('',#740,#732,#742,.T.);
#740 = VERTEX_POINT('',#741);
#741 = CARTESIAN_POINT('',(14.307600849257,2.93022184828,7.465957482109)
  );
#742 = LINE('',#743,#744);
#743 = CARTESIAN_POINT('',(14.307600849257,2.93022184828,7.465957482109)
  );
#744 = VECTOR('',#745,1.);
#745 = DIRECTION('',(0.,-0.939692620786,0.342020143326));
#746 = ORIENTED_EDGE('',*,*,#747,.F.);
#747 = EDGE_CURVE('',#707,#740,#748,.T.);
#748 = LINE('',#749,#750);
#749 = CARTESIAN_POINT('',(13.726709129512,2.93022184828,7.465957482109)
  );
#750 = VECTOR('',#751,1.);
#751 = DIRECTION('',(1.,0.,0.));
#752 = PLANE('',#753);
#753 = AXIS2_PLACEMENT_3D('',#754,#755,#756);
#754 = CARTESIAN_POINT('',(13.726709129512,2.93022184828,7.465957482109)
  );
#755 = DIRECTION('',(0.,0.342020143326,0.939692620786));
#756 = DIRECTION('',(1.,0.,0.));
#757 = ADVANCED_FACE('',(#758),#774,.T.);
#758 = FACE_BOUND('',#759,.T.);
#759 = EDGE_LOOP('',(#760,#761,#767,#768));
#760 = ORIENTED_EDGE('',*,*,#739,.T.);
#761 = ORIENTED_EDGE('',*,*,#762,.T.);
#762 = EDGE_CURVE('',#732,#532,#763,.T.);
#763 = LINE('',#764,#765);
#764 = CARTESIAN_POINT('',(14.307600849257,2.178467751651,7.73957359677)
  );
#765 = VECTOR('',#766,1.);
#766 = DIRECTION('',(0.,-0.342020143326,-0.939692620786));
#767 = ORIENTED_EDGE('',*,*,#529,.F.);
#768 = ORIENTED_EDGE('',*,*,#769,.F.);
#769 = EDGE_CURVE('',#740,#530,#770,.T.);
#770 = LINE('',#771,#772);
#771 = CARTESIAN_POINT('',(14.307600849257,2.93022184828,7.465957482109)
  );
#772 = VECTOR('',#773,1.);
#773 = DIRECTION('',(0.,-0.342020143326,-0.939692620786));
#774 = PLANE('',#775);
#775 = AXIS2_PLACEMENT_3D('',#776,#777,#778);
#776 = CARTESIAN_POINT('',(14.307600849257,2.93022184828,7.465957482109)
  );
#777 = DIRECTION('',(1.,0.,0.));
#778 = DIRECTION('',(0.,-0.342020143326,-0.939692620786));
#779 = ADVANCED_FACE('',(#780),#790,.F.);
#780 = FACE_BOUND('',#781,.T.);
#781 = EDGE_LOOP('',(#782,#783,#784,#785,#786,#787,#788,#789));
#782 = ORIENTED_EDGE('',*,*,#555,.T.);
#783 = ORIENTED_EDGE('',*,*,#586,.T.);
#784 = ORIENTED_EDGE('',*,*,#617,.T.);
#785 = ORIENTED_EDGE('',*,*,#650,.T.);
#786 = ORIENTED_EDGE('',*,*,#681,.T.);
#787 = ORIENTED_EDGE('',*,*,#714,.T.);
#788 = ORIENTED_EDGE('',*,*,#747,.T.);
#789 = ORIENTED_EDGE('',*,*,#769,.T.);
#790 = PLANE('',#791);
#791 = AXIS2_PLACEMENT_3D('',#792,#793,#794);
#792 = CARTESIAN_POINT('',(13.740074950568,2.325874114842,5.805525730989
    ));
#793 = DIRECTION('',(0.,-0.939692620786,0.342020143326));
#794 = DIRECTION('',(1.,0.,0.));
#795 = ADVANCED_FACE('',(#796),#806,.T.);
#796 = FACE_BOUND('',#797,.F.);
#797 = EDGE_LOOP('',(#798,#799,#800,#801,#802,#803,#804,#805));
#798 = ORIENTED_EDGE('',*,*,#539,.T.);
#799 = ORIENTED_EDGE('',*,*,#570,.T.);
#800 = ORIENTED_EDGE('',*,*,#601,.T.);
#801 = ORIENTED_EDGE('',*,*,#634,.T.);
#802 = ORIENTED_EDGE('',*,*,#665,.T.);
#803 = ORIENTED_EDGE('',*,*,#698,.T.);
#804 = ORIENTED_EDGE('',*,*,#731,.T.);
#805 = ORIENTED_EDGE('',*,*,#762,.T.);
#806 = PLANE('',#807);
#807 = AXIS2_PLACEMENT_3D('',#808,#809,#810);
#808 = CARTESIAN_POINT('',(13.740074950568,1.574120018213,6.07914184565)
  );
#809 = DIRECTION('',(0.,-0.939692620786,0.342020143326));
#810 = DIRECTION('',(1.,0.,0.));
#811 = MANIFOLD_SOLID_BREP('',#812);
#812 = CLOSED_SHELL('',(#813,#853,#886,#919,#952,#985,#1018,#1051,#1084,
    #1117,#1150,#1183,#1216,#1249,#1282,#1315,#1339,#1363));
#813 = ADVANCED_FACE('',(#814),#848,.T.);
#814 = FACE_BOUND('',#815,.T.);
#815 = EDGE_LOOP('',(#816,#826,#834,#842));
#816 = ORIENTED_EDGE('',*,*,#817,.T.);
#817 = EDGE_CURVE('',#818,#820,#822,.T.);
#818 = VERTEX_POINT('',#819);
#819 = CARTESIAN_POINT('',(17.803651804671,2.610305936722,6.586995738981
    ));
#820 = VERTEX_POINT('',#821);
#821 = CARTESIAN_POINT('',(17.803651804671,1.858551840094,6.860611853641
    ));
#822 = LINE('',#823,#824);
#823 = CARTESIAN_POINT('',(17.803651804671,2.610305936722,6.586995738981
    ));
#824 = VECTOR('',#825,1.);
#825 = DIRECTION('',(0.,-0.939692620786,0.342020143326));
#826 = ORIENTED_EDGE('',*,*,#827,.T.);
#827 = EDGE_CURVE('',#820,#828,#830,.T.);
#828 = VERTEX_POINT('',#829);
#829 = CARTESIAN_POINT('',(17.110658174098,1.832700636055,6.789586254278
    ));
#830 = LINE('',#831,#832);
#831 = CARTESIAN_POINT('',(17.803651804671,1.858551840094,6.860611853641
    ));
#832 = VECTOR('',#833,1.);
#833 = DIRECTION('',(-0.994104564342,-3.708374622103E-02,-0.101886755371
    ));
#834 = ORIENTED_EDGE('',*,*,#835,.F.);
#835 = EDGE_CURVE('',#836,#828,#838,.T.);
#836 = VERTEX_POINT('',#837);
#837 = CARTESIAN_POINT('',(17.110658174098,2.584454732683,6.515970139618
    ));
#838 = LINE('',#839,#840);
#839 = CARTESIAN_POINT('',(17.110658174098,2.584454732683,6.515970139618
    ));
#840 = VECTOR('',#841,1.);
#841 = DIRECTION('',(0.,-0.939692620786,0.342020143326));
#842 = ORIENTED_EDGE('',*,*,#843,.F.);
#843 = EDGE_CURVE('',#818,#836,#844,.T.);
#844 = LINE('',#845,#846);
#845 = CARTESIAN_POINT('',(17.803651804671,2.610305936722,6.586995738981
    ));
#846 = VECTOR('',#847,1.);
#847 = DIRECTION('',(-0.994104564342,-3.708374622103E-02,-0.101886755371
    ));
#848 = PLANE('',#849);
#849 = AXIS2_PLACEMENT_3D('',#850,#851,#852);
#850 = CARTESIAN_POINT('',(17.803651804671,2.610305936722,6.586995738981
    ));
#851 = DIRECTION('',(0.108425620376,-0.340003785577,-0.934152723402));
#852 = DIRECTION('',(-0.994104564342,-3.708374622103E-02,-0.101886755371
    ));
#853 = ADVANCED_FACE('',(#854),#879,.T.);
#854 = FACE_BOUND('',#855,.T.);
#855 = EDGE_LOOP('',(#856,#857,#865,#873));
#856 = ORIENTED_EDGE('',*,*,#835,.T.);
#857 = ORIENTED_EDGE('',*,*,#858,.T.);
#858 = EDGE_CURVE('',#828,#859,#861,.T.);
#859 = VERTEX_POINT('',#860);
#860 = CARTESIAN_POINT('',(16.978174097665,1.939532915218,7.083105528949
    ));
#861 = B_SPLINE_CURVE_WITH_KNOTS('',2,(#862,#863,#864),.UNSPECIFIED.,.F.
  ,.F.,(3,3),(0.,1.),.PIECEWISE_BEZIER_KNOTS.);
#862 = CARTESIAN_POINT('',(17.110658174098,1.832700636055,6.789586254278
    ));
#863 = CARTESIAN_POINT('',(17.085180467091,1.905084007364,6.988457932495
    ));
#864 = CARTESIAN_POINT('',(16.978174097665,1.939532915218,7.083105528949
    ));
#865 = ORIENTED_EDGE('',*,*,#866,.F.);
#866 = EDGE_CURVE('',#867,#859,#869,.T.);
#867 = VERTEX_POINT('',#868);
#868 = CARTESIAN_POINT('',(16.978174097665,2.691287011847,6.809489414289
    ));
#869 = LINE('',#870,#871);
#870 = CARTESIAN_POINT('',(16.978174097665,2.691287011847,6.809489414289
    ));
#871 = VECTOR('',#872,1.);
#872 = DIRECTION('',(0.,-0.939692620786,0.342020143326));
#873 = ORIENTED_EDGE('',*,*,#874,.F.);
#874 = EDGE_CURVE('',#836,#867,#875,.T.);
#875 = B_SPLINE_CURVE_WITH_KNOTS('',2,(#876,#877,#878),.UNSPECIFIED.,.F.
  ,.F.,(3,3),(0.,1.),.PIECEWISE_BEZIER_KNOTS.);
#876 = CARTESIAN_POINT('',(17.110658174098,2.584454732683,6.515970139618
    ));
#877 = CARTESIAN_POINT('',(17.085180467091,2.656838103993,6.714841817834
    ));
#878 = CARTESIAN_POINT('',(16.978174097665,2.691287011847,6.809489414289
    ));
#879 = SURFACE_OF_LINEAR_EXTRUSION('',#880,#884);
#880 = B_SPLINE_CURVE_WITH_KNOTS('',2,(#881,#882,#883),.UNSPECIFIED.,.F.
  ,.F.,(3,3),(0.,1.),.PIECEWISE_BEZIER_KNOTS.);
#881 = CARTESIAN_POINT('',(17.110658174098,2.584454732683,6.515970139618
    ));
#882 = CARTESIAN_POINT('',(17.085180467091,2.656838103993,6.714841817834
    ));
#883 = CARTESIAN_POINT('',(16.978174097665,2.691287011847,6.809489414289
    ));
#884 = VECTOR('',#885,1.);
#885 = DIRECTION('',(-0.,0.939692620786,-0.342020143326));
#886 = ADVANCED_FACE('',(#887),#912,.T.);
#887 = FACE_BOUND('',#888,.T.);
#888 = EDGE_LOOP('',(#889,#890,#898,#906));
#889 = ORIENTED_EDGE('',*,*,#866,.T.);
#890 = ORIENTED_EDGE('',*,*,#891,.T.);
#891 = EDGE_CURVE('',#859,#892,#894,.T.);
#892 = VERTEX_POINT('',#893);
#893 = CARTESIAN_POINT('',(16.700467091295,1.973981823073,7.177753125404
    ));
#894 = B_SPLINE_CURVE_WITH_KNOTS('',2,(#895,#896,#897),.UNSPECIFIED.,.F.
  ,.F.,(3,3),(0.,1.),.PIECEWISE_BEZIER_KNOTS.);
#895 = CARTESIAN_POINT('',(16.978174097665,1.939532915218,7.083105528949
    ));
#896 = CARTESIAN_POINT('',(16.871167728238,1.973981823073,7.177753125404
    ));
#897 = CARTESIAN_POINT('',(16.700467091295,1.973981823073,7.177753125404
    ));
#898 = ORIENTED_EDGE('',*,*,#899,.F.);
#899 = EDGE_CURVE('',#900,#892,#902,.T.);
#900 = VERTEX_POINT('',#901);
#901 = CARTESIAN_POINT('',(16.700467091295,2.725735919701,6.904137010743
    ));
#902 = LINE('',#903,#904);
#903 = CARTESIAN_POINT('',(16.700467091295,2.725735919701,6.904137010743
    ));
#904 = VECTOR('',#905,1.);
#905 = DIRECTION('',(0.,-0.939692620786,0.342020143326));
#906 = ORIENTED_EDGE('',*,*,#907,.F.);
#907 = EDGE_CURVE('',#867,#900,#908,.T.);
#908 = B_SPLINE_CURVE_WITH_KNOTS('',2,(#909,#910,#911),.UNSPECIFIED.,.F.
  ,.F.,(3,3),(0.,1.),.PIECEWISE_BEZIER_KNOTS.);
#909 = CARTESIAN_POINT('',(16.978174097665,2.691287011847,6.809489414289
    ));
#910 = CARTESIAN_POINT('',(16.871167728238,2.725735919701,6.904137010743
    ));
#911 = CARTESIAN_POINT('',(16.700467091295,2.725735919701,6.904137010743
    ));
#912 = SURFACE_OF_LINEAR_EXTRUSION('',#913,#917);
#913 = B_SPLINE_CURVE_WITH_KNOTS('',2,(#914,#915,#916),.UNSPECIFIED.,.F.
  ,.F.,(3,3),(0.,1.),.PIECEWISE_BEZIER_KNOTS.);
#914 = CARTESIAN_POINT('',(16.978174097665,2.691287011847,6.809489414289
    ));
#915 = CARTESIAN_POINT('',(16.871167728238,2.725735919701,6.904137010743
    ));
#916 = CARTESIAN_POINT('',(16.700467091295,2.725735919701,6.904137010743
    ));
#917 = VECTOR('',#918,1.);
#918 = DIRECTION('',(-0.,0.939692620786,-0.342020143326));
#919 = ADVANCED_FACE('',(#920),#945,.T.);
#920 = FACE_BOUND('',#921,.T.);
#921 = EDGE_LOOP('',(#922,#923,#931,#939));
#922 = ORIENTED_EDGE('',*,*,#899,.T.);
#923 = ORIENTED_EDGE('',*,*,#924,.T.);
#924 = EDGE_CURVE('',#892,#925,#927,.T.);
#925 = VERTEX_POINT('',#926);
#926 = CARTESIAN_POINT('',(16.316942675159,1.90398024809,6.985425378814)
  );
#927 = B_SPLINE_CURVE_WITH_KNOTS('',2,(#928,#929,#930),.UNSPECIFIED.,.F.
  ,.F.,(3,3),(0.,1.),.PIECEWISE_BEZIER_KNOTS.);
#928 = CARTESIAN_POINT('',(16.700467091295,1.973981823073,7.177753125404
    ));
#929 = CARTESIAN_POINT('',(16.473715498938,1.973981823073,7.177753125404
    ));
#930 = CARTESIAN_POINT('',(16.316942675159,1.90398024809,6.985425378814)
  );
#931 = ORIENTED_EDGE('',*,*,#932,.F.);
#932 = EDGE_CURVE('',#933,#925,#935,.T.);
#933 = VERTEX_POINT('',#934);
#934 = CARTESIAN_POINT('',(16.316942675159,2.655734344719,6.711809264154
    ));
#935 = LINE('',#936,#937);
#936 = CARTESIAN_POINT('',(16.316942675159,2.655734344719,6.711809264154
    ));
#937 = VECTOR('',#938,1.);
#938 = DIRECTION('',(0.,-0.939692620786,0.342020143326));
#939 = ORIENTED_EDGE('',*,*,#940,.F.);
#940 = EDGE_CURVE('',#900,#933,#941,.T.);
#941 = B_SPLINE_CURVE_WITH_KNOTS('',2,(#942,#943,#944),.UNSPECIFIED.,.F.
  ,.F.,(3,3),(0.,1.),.PIECEWISE_BEZIER_KNOTS.);
#942 = CARTESIAN_POINT('',(16.700467091295,2.725735919701,6.904137010743
    ));
#943 = CARTESIAN_POINT('',(16.473715498938,2.725735919701,6.904137010743
    ));
#944 = CARTESIAN_POINT('',(16.316942675159,2.655734344719,6.711809264154
    ));
#945 = SURFACE_OF_LINEAR_EXTRUSION('',#946,#950);
#946 = B_SPLINE_CURVE_WITH_KNOTS('',2,(#947,#948,#949),.UNSPECIFIED.,.F.
  ,.F.,(3,3),(0.,1.),.PIECEWISE_BEZIER_KNOTS.);
#947 = CARTESIAN_POINT('',(16.700467091295,2.725735919701,6.904137010743
    ));
#948 = CARTESIAN_POINT('',(16.473715498938,2.725735919701,6.904137010743
    ));
#949 = CARTESIAN_POINT('',(16.316942675159,2.655734344719,6.711809264154
    ));
#950 = VECTOR('',#951,1.);
#951 = DIRECTION('',(-0.,0.939692620786,-0.342020143326));
#952 = ADVANCED_FACE('',(#953),#978,.T.);
#953 = FACE_BOUND('',#954,.T.);
#954 = EDGE_LOOP('',(#955,#956,#964,#972));
#955 = ORIENTED_EDGE('',*,*,#932,.T.);
#956 = ORIENTED_EDGE('',*,*,#957,.T.);
#957 = EDGE_CURVE('',#925,#958,#960,.T.);
#958 = VERTEX_POINT('',#959);
#959 = CARTESIAN_POINT('',(16.11957537155,1.613110633206,6.186267679914)
  );
#960 = B_SPLINE_CURVE_WITH_KNOTS('',2,(#961,#962,#963),.UNSPECIFIED.,.F.
  ,.F.,(3,3),(0.,1.),.PIECEWISE_BEZIER_KNOTS.);
#961 = CARTESIAN_POINT('',(16.316942675159,1.90398024809,6.985425378814)
  );
#962 = CARTESIAN_POINT('',(16.16033970276,1.834036765702,6.793257240313)
  );
#963 = CARTESIAN_POINT('',(16.11957537155,1.613110633206,6.186267679914)
  );
#964 = ORIENTED_EDGE('',*,*,#965,.F.);
#965 = EDGE_CURVE('',#966,#958,#968,.T.);
#966 = VERTEX_POINT('',#967);
#967 = CARTESIAN_POINT('',(16.11957537155,2.364864729835,5.912651565253)
  );
#968 = LINE('',#969,#970);
#969 = CARTESIAN_POINT('',(16.11957537155,2.364864729835,5.912651565253)
  );
#970 = VECTOR('',#971,1.);
#971 = DIRECTION('',(0.,-0.939692620786,0.342020143326));
#972 = ORIENTED_EDGE('',*,*,#973,.F.);
#973 = EDGE_CURVE('',#933,#966,#974,.T.);
#974 = B_SPLINE_CURVE_WITH_KNOTS('',2,(#975,#976,#977),.UNSPECIFIED.,.F.
  ,.F.,(3,3),(0.,1.),.PIECEWISE_BEZIER_KNOTS.);
#975 = CARTESIAN_POINT('',(16.316942675159,2.655734344719,6.711809264154
    ));
#976 = CARTESIAN_POINT('',(16.16033970276,2.58579086233,6.519641125652)
  );
#977 = CARTESIAN_POINT('',(16.11957537155,2.364864729835,5.912651565253)
  );
#978 = SURFACE_OF_LINEAR_EXTRUSION('',#979,#983);
#979 = B_SPLINE_CURVE_WITH_KNOTS('',2,(#980,#981,#982),.UNSPECIFIED.,.F.
  ,.F.,(3,3),(0.,1.),.PIECEWISE_BEZIER_KNOTS.);
#980 = CARTESIAN_POINT('',(16.316942675159,2.655734344719,6.711809264154
    ));
#981 = CARTESIAN_POINT('',(16.16033970276,2.58579086233,6.519641125652)
  );
#982 = CARTESIAN_POINT('',(16.11957537155,2.364864729835,5.912651565253)
  );
#983 = VECTOR('',#984,1.);
#984 = DIRECTION('',(-0.,0.939692620786,-0.342020143326));
#985 = ADVANCED_FACE('',(#986),#1011,.T.);
#986 = FACE_BOUND('',#987,.T.);
#987 = EDGE_LOOP('',(#988,#989,#997,#1005));
#988 = ORIENTED_EDGE('',*,*,#965,.T.);
#989 = ORIENTED_EDGE('',*,*,#990,.T.);
#990 = EDGE_CURVE('',#958,#991,#993,.T.);
#991 = VERTEX_POINT('',#992);
#992 = CARTESIAN_POINT('',(16.784543524416,1.72116285683,6.483138724442)
  );
#993 = B_SPLINE_CURVE_WITH_KNOTS('',2,(#994,#995,#996),.UNSPECIFIED.,.F.
  ,.F.,(3,3),(0.,1.),.PIECEWISE_BEZIER_KNOTS.);
#994 = CARTESIAN_POINT('',(16.11957537155,1.613110633206,6.186267679914)
  );
#995 = CARTESIAN_POINT('',(16.387091295117,1.72116285683,6.483138724442)
  );
#996 = CARTESIAN_POINT('',(16.784543524416,1.72116285683,6.483138724442)
  );
#997 = ORIENTED_EDGE('',*,*,#998,.F.);
#998 = EDGE_CURVE('',#999,#991,#1001,.T.);
#999 = VERTEX_POINT('',#1000);
#1000 = CARTESIAN_POINT('',(16.784543524416,2.472916953459,
    6.209522609782));
#1001 = LINE('',#1002,#1003);
#1002 = CARTESIAN_POINT('',(16.784543524416,2.472916953459,
    6.209522609782));
#1003 = VECTOR('',#1004,1.);
#1004 = DIRECTION('',(0.,-0.939692620786,0.342020143326));
#1005 = ORIENTED_EDGE('',*,*,#1006,.F.);
#1006 = EDGE_CURVE('',#966,#999,#1007,.T.);
#1007 = B_SPLINE_CURVE_WITH_KNOTS('',2,(#1008,#1009,#1010),
  .UNSPECIFIED.,.F.,.F.,(3,3),(0.,1.),.PIECEWISE_BEZIER_KNOTS.);
#1008 = CARTESIAN_POINT('',(16.11957537155,2.364864729835,5.912651565253
    ));
#1009 = CARTESIAN_POINT('',(16.387091295117,2.472916953459,
    6.209522609782));
#1010 = CARTESIAN_POINT('',(16.784543524416,2.472916953459,
    6.209522609782));
#1011 = SURFACE_OF_LINEAR_EXTRUSION('',#1012,#1016);
#1012 = B_SPLINE_CURVE_WITH_KNOTS('',2,(#1013,#1014,#1015),
  .UNSPECIFIED.,.F.,.F.,(3,3),(0.,1.),.PIECEWISE_BEZIER_KNOTS.);
#1013 = CARTESIAN_POINT('',(16.11957537155,2.364864729835,5.912651565253
    ));
#1014 = CARTESIAN_POINT('',(16.387091295117,2.472916953459,
    6.209522609782));
#1015 = CARTESIAN_POINT('',(16.784543524416,2.472916953459,
    6.209522609782));
#1016 = VECTOR('',#1017,1.);
#1017 = DIRECTION('',(-0.,0.939692620786,-0.342020143326));
#1018 = ADVANCED_FACE('',(#1019),#1044,.T.);
#1019 = FACE_BOUND('',#1020,.T.);
#1020 = EDGE_LOOP('',(#1021,#1022,#1030,#1038));
#1021 = ORIENTED_EDGE('',*,*,#998,.T.);
#1022 = ORIENTED_EDGE('',*,*,#1023,.T.);
#1023 = EDGE_CURVE('',#991,#1024,#1026,.T.);
#1024 = VERTEX_POINT('',#1025);
#1025 = CARTESIAN_POINT('',(17.552611464968,1.604396744204,
    6.162326466645));
#1026 = B_SPLINE_CURVE_WITH_KNOTS('',2,(#1027,#1028,#1029),
  .UNSPECIFIED.,.F.,.F.,(3,3),(0.,1.),.PIECEWISE_BEZIER_KNOTS.);
#1027 = CARTESIAN_POINT('',(16.784543524416,1.72116285683,6.483138724442
    ));
#1028 = CARTESIAN_POINT('',(17.232951167728,1.72116285683,6.483138724442
    ));
#1029 = CARTESIAN_POINT('',(17.552611464968,1.604396744204,
    6.162326466645));
#1030 = ORIENTED_EDGE('',*,*,#1031,.F.);
#1031 = EDGE_CURVE('',#1032,#1024,#1034,.T.);
#1032 = VERTEX_POINT('',#1033);
#1033 = CARTESIAN_POINT('',(17.552611464968,2.356150840833,
    5.888710351985));
#1034 = LINE('',#1035,#1036);
#1035 = CARTESIAN_POINT('',(17.552611464968,2.356150840833,
    5.888710351985));
#1036 = VECTOR('',#1037,1.);
#1037 = DIRECTION('',(0.,-0.939692620786,0.342020143326));
#1038 = ORIENTED_EDGE('',*,*,#1039,.F.);
#1039 = EDGE_CURVE('',#999,#1032,#1040,.T.);
#1040 = B_SPLINE_CURVE_WITH_KNOTS('',2,(#1041,#1042,#1043),
  .UNSPECIFIED.,.F.,.F.,(3,3),(0.,1.),.PIECEWISE_BEZIER_KNOTS.);
#1041 = CARTESIAN_POINT('',(16.784543524416,2.472916953459,
    6.209522609782));
#1042 = CARTESIAN_POINT('',(17.232951167728,2.472916953459,
    6.209522609782));
#1043 = CARTESIAN_POINT('',(17.552611464968,2.356150840833,
    5.888710351985));
#1044 = SURFACE_OF_LINEAR_EXTRUSION('',#1045,#1049);
#1045 = B_SPLINE_CURVE_WITH_KNOTS('',2,(#1046,#1047,#1048),
  .UNSPECIFIED.,.F.,.F.,(3,3),(0.,1.),.PIECEWISE_BEZIER_KNOTS.);
#1046 = CARTESIAN_POINT('',(16.784543524416,2.472916953459,
    6.209522609782));
#1047 = CARTESIAN_POINT('',(17.232951167728,2.472916953459,
    6.209522609782));
#1048 = CARTESIAN_POINT('',(17.552611464968,2.356150840833,
    5.888710351985));
#1049 = VECTOR('',#1050,1.);
#1050 = DIRECTION('',(-0.,0.939692620786,-0.342020143326));
#1051 = ADVANCED_FACE('',(#1052),#1077,.T.);
#1052 = FACE_BOUND('',#1053,.T.);
#1053 = EDGE_LOOP('',(#1054,#1055,#1063,#1071));
#1054 = ORIENTED_EDGE('',*,*,#1031,.T.);
#1055 = ORIENTED_EDGE('',*,*,#1056,.T.);
#1056 = EDGE_CURVE('',#1024,#1057,#1059,.T.);
#1057 = VERTEX_POINT('',#1058);
#1058 = CARTESIAN_POINT('',(17.872441613588,1.302896184737,
    5.333960487558));
#1059 = B_SPLINE_CURVE_WITH_KNOTS('',2,(#1060,#1061,#1062),
  .UNSPECIFIED.,.F.,.F.,(3,3),(0.,1.),.PIECEWISE_BEZIER_KNOTS.);
#1060 = CARTESIAN_POINT('',(17.552611464968,1.604396744204,
    6.162326466645));
#1061 = CARTESIAN_POINT('',(17.872441613588,1.487630631578,
    5.841514208848));
#1062 = CARTESIAN_POINT('',(17.872441613588,1.302896184737,
    5.333960487558));
#1063 = ORIENTED_EDGE('',*,*,#1064,.F.);
#1064 = EDGE_CURVE('',#1065,#1057,#1067,.T.);
#1065 = VERTEX_POINT('',#1066);
#1066 = CARTESIAN_POINT('',(17.872441613588,2.054650281366,
    5.060344372897));
#1067 = LINE('',#1068,#1069);
#1068 = CARTESIAN_POINT('',(17.872441613588,2.054650281366,
    5.060344372897));
#1069 = VECTOR('',#1070,1.);
#1070 = DIRECTION('',(0.,-0.939692620786,0.342020143326));
#1071 = ORIENTED_EDGE('',*,*,#1072,.F.);
#1072 = EDGE_CURVE('',#1032,#1065,#1073,.T.);
#1073 = B_SPLINE_CURVE_WITH_KNOTS('',2,(#1074,#1075,#1076),
  .UNSPECIFIED.,.F.,.F.,(3,3),(0.,1.),.PIECEWISE_BEZIER_KNOTS.);
#1074 = CARTESIAN_POINT('',(17.552611464968,2.356150840833,
    5.888710351985));
#1075 = CARTESIAN_POINT('',(17.872441613588,2.239384728207,
    5.567898094188));
#1076 = CARTESIAN_POINT('',(17.872441613588,2.054650281366,
    5.060344372897));
#1077 = SURFACE_OF_LINEAR_EXTRUSION('',#1078,#1082);
#1078 = B_SPLINE_CURVE_WITH_KNOTS('',2,(#1079,#1080,#1081),
  .UNSPECIFIED.,.F.,.F.,(3,3),(0.,1.),.PIECEWISE_BEZIER_KNOTS.);
#1079 = CARTESIAN_POINT('',(17.552611464968,2.356150840833,
    5.888710351985));
#1080 = CARTESIAN_POINT('',(17.872441613588,2.239384728207,
    5.567898094188));
#1081 = CARTESIAN_POINT('',(17.872441613588,2.054650281366,
    5.060344372897));
#1082 = VECTOR('',#1083,1.);
#1083 = DIRECTION('',(-0.,0.939692620786,-0.342020143326));
#1084 = ADVANCED_FACE('',(#1085),#1110,.T.);
#1085 = FACE_BOUND('',#1086,.T.);
#1086 = EDGE_LOOP('',(#1087,#1088,#1096,#1104));
#1087 = ORIENTED_EDGE('',*,*,#1064,.T.);
#1088 = ORIENTED_EDGE('',*,*,#1089,.T.);
#1089 = EDGE_CURVE('',#1057,#1090,#1092,.T.);
#1090 = VERTEX_POINT('',#1091);
#1091 = CARTESIAN_POINT('',(17.536135881104,0.988266699175,
    4.469523080479));
#1092 = B_SPLINE_CURVE_WITH_KNOTS('',2,(#1093,#1094,#1095),
  .UNSPECIFIED.,.F.,.F.,(3,3),(0.,1.),.PIECEWISE_BEZIER_KNOTS.);
#1093 = CARTESIAN_POINT('',(17.872441613588,1.302896184737,
    5.333960487558));
#1094 = CARTESIAN_POINT('',(17.872441613588,1.106775589601,4.79512358093
    ));
#1095 = CARTESIAN_POINT('',(17.536135881104,0.988266699175,
    4.469523080479));
#1096 = ORIENTED_EDGE('',*,*,#1097,.F.);
#1097 = EDGE_CURVE('',#1098,#1090,#1100,.T.);
#1098 = VERTEX_POINT('',#1099);
#1099 = CARTESIAN_POINT('',(17.536135881104,1.740020795803,
    4.195906965818));
#1100 = LINE('',#1101,#1102);
#1101 = CARTESIAN_POINT('',(17.536135881104,1.740020795803,
    4.195906965818));
#1102 = VECTOR('',#1103,1.);
#1103 = DIRECTION('',(0.,-0.939692620786,0.342020143326));
#1104 = ORIENTED_EDGE('',*,*,#1105,.F.);
#1105 = EDGE_CURVE('',#1065,#1098,#1106,.T.);
#1106 = B_SPLINE_CURVE_WITH_KNOTS('',2,(#1107,#1108,#1109),
  .UNSPECIFIED.,.F.,.F.,(3,3),(0.,1.),.PIECEWISE_BEZIER_KNOTS.);
#1107 = CARTESIAN_POINT('',(17.872441613588,2.054650281366,
    5.060344372897));
#1108 = CARTESIAN_POINT('',(17.872441613588,1.858529686229,
    4.521507466269));
#1109 = CARTESIAN_POINT('',(17.536135881104,1.740020795803,
    4.195906965818));
#1110 = SURFACE_OF_LINEAR_EXTRUSION('',#1111,#1115);
#1111 = B_SPLINE_CURVE_WITH_KNOTS('',2,(#1112,#1113,#1114),
  .UNSPECIFIED.,.F.,.F.,(3,3),(0.,1.),.PIECEWISE_BEZIER_KNOTS.);
#1112 = CARTESIAN_POINT('',(17.872441613588,2.054650281366,
    5.060344372897));
#1113 = CARTESIAN_POINT('',(17.872441613588,1.858529686229,
    4.521507466269));
#1114 = CARTESIAN_POINT('',(17.536135881104,1.740020795803,
    4.195906965818));
#1115 = VECTOR('',#1116,1.);
#1116 = DIRECTION('',(-0.,0.939692620786,-0.342020143326));
#1117 = ADVANCED_FACE('',(#1118),#1143,.T.);
#1118 = FACE_BOUND('',#1119,.T.);
#1119 = EDGE_LOOP('',(#1120,#1121,#1129,#1137));
#1120 = ORIENTED_EDGE('',*,*,#1097,.T.);
#1121 = ORIENTED_EDGE('',*,*,#1122,.T.);
#1122 = EDGE_CURVE('',#1090,#1123,#1125,.T.);
#1123 = VERTEX_POINT('',#1124);
#1124 = CARTESIAN_POINT('',(16.672441613588,0.869757808748,
    4.143922580028));
#1125 = B_SPLINE_CURVE_WITH_KNOTS('',2,(#1126,#1127,#1128),
  .UNSPECIFIED.,.F.,.F.,(3,3),(0.,1.),.PIECEWISE_BEZIER_KNOTS.);
#1126 = CARTESIAN_POINT('',(17.536135881104,0.988266699175,
    4.469523080479));
#1127 = CARTESIAN_POINT('',(17.19983014862,0.869757808748,4.143922580028
    ));
#1128 = CARTESIAN_POINT('',(16.672441613588,0.869757808748,
    4.143922580028));
#1129 = ORIENTED_EDGE('',*,*,#1130,.F.);
#1130 = EDGE_CURVE('',#1131,#1123,#1133,.T.);
#1131 = VERTEX_POINT('',#1132);
#1132 = CARTESIAN_POINT('',(16.672441613588,1.621511905377,
    3.870306465368));
#1133 = LINE('',#1134,#1135);
#1134 = CARTESIAN_POINT('',(16.672441613588,1.621511905377,
    3.870306465368));
#1135 = VECTOR('',#1136,1.);
#1136 = DIRECTION('',(0.,-0.939692620786,0.342020143326));
#1137 = ORIENTED_EDGE('',*,*,#1138,.F.);
#1138 = EDGE_CURVE('',#1098,#1131,#1139,.T.);
#1139 = B_SPLINE_CURVE_WITH_KNOTS('',2,(#1140,#1141,#1142),
  .UNSPECIFIED.,.F.,.F.,(3,3),(0.,1.),.PIECEWISE_BEZIER_KNOTS.);
#1140 = CARTESIAN_POINT('',(17.536135881104,1.740020795803,
    4.195906965818));
#1141 = CARTESIAN_POINT('',(17.19983014862,1.621511905377,3.870306465368
    ));
#1142 = CARTESIAN_POINT('',(16.672441613588,1.621511905377,
    3.870306465368));
#1143 = SURFACE_OF_LINEAR_EXTRUSION('',#1144,#1148);
#1144 = B_SPLINE_CURVE_WITH_KNOTS('',2,(#1145,#1146,#1147),
  .UNSPECIFIED.,.F.,.F.,(3,3),(0.,1.),.PIECEWISE_BEZIER_KNOTS.);
#1145 = CARTESIAN_POINT('',(17.536135881104,1.740020795803,
    4.195906965818));
#1146 = CARTESIAN_POINT('',(17.19983014862,1.621511905377,3.870306465368
    ));
#1147 = CARTESIAN_POINT('',(16.672441613588,1.621511905377,
    3.870306465368));
#1148 = VECTOR('',#1149,1.);
#1149 = DIRECTION('',(-0.,0.939692620786,-0.342020143326));
#1150 = ADVANCED_FACE('',(#1151),#1176,.T.);
#1151 = FACE_BOUND('',#1152,.T.);
#1152 = EDGE_LOOP('',(#1153,#1154,#1162,#1170));
#1153 = ORIENTED_EDGE('',*,*,#1130,.T.);
#1154 = ORIENTED_EDGE('',*,*,#1155,.T.);
#1155 = EDGE_CURVE('',#1123,#1156,#1158,.T.);
#1156 = VERTEX_POINT('',#1157);
#1157 = CARTESIAN_POINT('',(15.742505307856,1.020566181075,
    4.558265177661));
#1158 = B_SPLINE_CURVE_WITH_KNOTS('',2,(#1159,#1160,#1161),
  .UNSPECIFIED.,.F.,.F.,(3,3),(0.,1.),.PIECEWISE_BEZIER_KNOTS.);
#1159 = CARTESIAN_POINT('',(16.672441613588,0.869757808748,
    4.143922580028));
#1160 = CARTESIAN_POINT('',(16.106836518047,0.869757808748,
    4.143922580028));
#1161 = CARTESIAN_POINT('',(15.742505307856,1.020566181075,
    4.558265177661));
#1162 = ORIENTED_EDGE('',*,*,#1163,.F.);
#1163 = EDGE_CURVE('',#1164,#1156,#1166,.T.);
#1164 = VERTEX_POINT('',#1165);
#1165 = CARTESIAN_POINT('',(15.742505307856,1.772320277704,4.284649063)
  );
#1166 = LINE('',#1167,#1168);
#1167 = CARTESIAN_POINT('',(15.742505307856,1.772320277704,4.284649063)
  );
#1168 = VECTOR('',#1169,1.);
#1169 = DIRECTION('',(0.,-0.939692620786,0.342020143326));
#1170 = ORIENTED_EDGE('',*,*,#1171,.F.);
#1171 = EDGE_CURVE('',#1131,#1164,#1172,.T.);
#1172 = B_SPLINE_CURVE_WITH_KNOTS('',2,(#1173,#1174,#1175),
  .UNSPECIFIED.,.F.,.F.,(3,3),(0.,1.),.PIECEWISE_BEZIER_KNOTS.);
#1173 = CARTESIAN_POINT('',(16.672441613588,1.621511905377,
    3.870306465368));
#1174 = CARTESIAN_POINT('',(16.106836518047,1.621511905377,
    3.870306465368));
#1175 = CARTESIAN_POINT('',(15.742505307856,1.772320277704,4.284649063)
  );
#1176 = SURFACE_OF_LINEAR_EXTRUSION('',#1177,#1181);
#1177 = B_SPLINE_CURVE_WITH_KNOTS('',2,(#1178,#1179,#1180),
  .UNSPECIFIED.,.F.,.F.,(3,3),(0.,1.),.PIECEWISE_BEZIER_KNOTS.);
#1178 = CARTESIAN_POINT('',(16.672441613588,1.621511905377,
    3.870306465368));
#1179 = CARTESIAN_POINT('',(16.106836518047,1.621511905377,
    3.870306465368));
#1180 = CARTESIAN_POINT('',(15.742505307856,1.772320277704,4.284649063)
  );
#1181 = VECTOR('',#1182,1.);
#1182 = DIRECTION('',(-0.,0.939692620786,-0.342020143326));
#1183 = ADVANCED_FACE('',(#1184),#1209,.T.);
#1184 = FACE_BOUND('',#1185,.T.);
#1185 = EDGE_LOOP('',(#1186,#1187,#1195,#1203));
#1186 = ORIENTED_EDGE('',*,*,#1163,.T.);
#1187 = ORIENTED_EDGE('',*,*,#1188,.T.);
#1188 = EDGE_CURVE('',#1156,#1189,#1191,.T.);
#1189 = VERTEX_POINT('',#1190);
#1190 = CARTESIAN_POINT('',(15.378174097665,1.514934150451,
    5.916530010423));
#1191 = B_SPLINE_CURVE_WITH_KNOTS('',2,(#1192,#1193,#1194),
  .UNSPECIFIED.,.F.,.F.,(3,3),(0.,1.),.PIECEWISE_BEZIER_KNOTS.);
#1192 = CARTESIAN_POINT('',(15.742505307856,1.020566181075,
    4.558265177661));
#1193 = CARTESIAN_POINT('',(15.378174097665,1.171374553402,
    4.972607775293));
#1194 = CARTESIAN_POINT('',(15.378174097665,1.514934150451,
    5.916530010423));
#1195 = ORIENTED_EDGE('',*,*,#1196,.F.);
#1196 = EDGE_CURVE('',#1197,#1189,#1199,.T.);
#1197 = VERTEX_POINT('',#1198);
#1198 = CARTESIAN_POINT('',(15.378174097665,2.26668824708,5.642913895762
    ));
#1199 = LINE('',#1200,#1201);
#1200 = CARTESIAN_POINT('',(15.378174097665,2.26668824708,5.642913895762
    ));
#1201 = VECTOR('',#1202,1.);
#1202 = DIRECTION('',(0.,-0.939692620786,0.342020143326));
#1203 = ORIENTED_EDGE('',*,*,#1204,.F.);
#1204 = EDGE_CURVE('',#1164,#1197,#1205,.T.);
#1205 = B_SPLINE_CURVE_WITH_KNOTS('',2,(#1206,#1207,#1208),
  .UNSPECIFIED.,.F.,.F.,(3,3),(0.,1.),.PIECEWISE_BEZIER_KNOTS.);
#1206 = CARTESIAN_POINT('',(15.742505307856,1.772320277704,4.284649063)
  );
#1207 = CARTESIAN_POINT('',(15.378174097665,1.92312865003,4.698991660632
    ));
#1208 = CARTESIAN_POINT('',(15.378174097665,2.26668824708,5.642913895762
    ));
#1209 = SURFACE_OF_LINEAR_EXTRUSION('',#1210,#1214);
#1210 = B_SPLINE_CURVE_WITH_KNOTS('',2,(#1211,#1212,#1213),
  .UNSPECIFIED.,.F.,.F.,(3,3),(0.,1.),.PIECEWISE_BEZIER_KNOTS.);
#1211 = CARTESIAN_POINT('',(15.742505307856,1.772320277704,4.284649063)
  );
#1212 = CARTESIAN_POINT('',(15.378174097665,1.92312865003,4.698991660632
    ));
#1213 = CARTESIAN_POINT('',(15.378174097665,2.26668824708,5.642913895762
    ));
#1214 = VECTOR('',#1215,1.);
#1215 = DIRECTION('',(-0.,0.939692620786,-0.342020143326));
#1216 = ADVANCED_FACE('',(#1217),#1242,.T.);
#1217 = FACE_BOUND('',#1218,.T.);
#1218 = EDGE_LOOP('',(#1219,#1220,#1228,#1236));
#1219 = ORIENTED_EDGE('',*,*,#1196,.T.);
#1220 = ORIENTED_EDGE('',*,*,#1221,.T.);
#1221 = EDGE_CURVE('',#1189,#1222,#1224,.T.);
#1222 = VERTEX_POINT('',#1223);
#1223 = CARTESIAN_POINT('',(15.757791932059,2.022837694077,
    7.311983527795));
#1224 = B_SPLINE_CURVE_WITH_KNOTS('',2,(#1225,#1226,#1227),
  .UNSPECIFIED.,.F.,.F.,(3,3),(0.,1.),.PIECEWISE_BEZIER_KNOTS.);
#1225 = CARTESIAN_POINT('',(15.378174097665,1.514934150451,
    5.916530010423));
#1226 = CARTESIAN_POINT('',(15.378174097665,1.867265729096,6.88455306691
    ));
#1227 = CARTESIAN_POINT('',(15.757791932059,2.022837694077,
    7.311983527795));
#1228 = ORIENTED_EDGE('',*,*,#1229,.F.);
#1229 = EDGE_CURVE('',#1230,#1222,#1232,.T.);
#1230 = VERTEX_POINT('',#1231);
#1231 = CARTESIAN_POINT('',(15.757791932059,2.774591790705,
    7.038367413135));
#1232 = LINE('',#1233,#1234);
#1233 = CARTESIAN_POINT('',(15.757791932059,2.774591790705,
    7.038367413135));
#1234 = VECTOR('',#1235,1.);
#1235 = DIRECTION('',(0.,-0.939692620786,0.342020143326));
#1236 = ORIENTED_EDGE('',*,*,#1237,.F.);
#1237 = EDGE_CURVE('',#1197,#1230,#1238,.T.);
#1238 = B_SPLINE_CURVE_WITH_KNOTS('',2,(#1239,#1240,#1241),
  .UNSPECIFIED.,.F.,.F.,(3,3),(0.,1.),.PIECEWISE_BEZIER_KNOTS.);
#1239 = CARTESIAN_POINT('',(15.378174097665,2.26668824708,5.642913895762
    ));
#1240 = CARTESIAN_POINT('',(15.378174097665,2.619019825724,
    6.610936952249));
#1241 = CARTESIAN_POINT('',(15.757791932059,2.774591790705,
    7.038367413135));
#1242 = SURFACE_OF_LINEAR_EXTRUSION('',#1243,#1247);
#1243 = B_SPLINE_CURVE_WITH_KNOTS('',2,(#1244,#1245,#1246),
  .UNSPECIFIED.,.F.,.F.,(3,3),(0.,1.),.PIECEWISE_BEZIER_KNOTS.);
#1244 = CARTESIAN_POINT('',(15.378174097665,2.26668824708,5.642913895762
    ));
#1245 = CARTESIAN_POINT('',(15.378174097665,2.619019825724,
    6.610936952249));
#1246 = CARTESIAN_POINT('',(15.757791932059,2.774591790705,
    7.038367413135));
#1247 = VECTOR('',#1248,1.);
#1248 = DIRECTION('',(-0.,0.939692620786,-0.342020143326));
#1249 = ADVANCED_FACE('',(#1250),#1275,.T.);
#1250 = FACE_BOUND('',#1251,.T.);
#1251 = EDGE_LOOP('',(#1252,#1253,#1261,#1269));
#1252 = ORIENTED_EDGE('',*,*,#1229,.T.);
#1253 = ORIENTED_EDGE('',*,*,#1254,.T.);
#1254 = EDGE_CURVE('',#1222,#1255,#1257,.T.);
#1255 = VERTEX_POINT('',#1256);
#1256 = CARTESIAN_POINT('',(16.743779193206,2.178467751651,7.73957359677
    ));
#1257 = B_SPLINE_CURVE_WITH_KNOTS('',2,(#1258,#1259,#1260),
  .UNSPECIFIED.,.F.,.F.,(3,3),(0.,1.),.PIECEWISE_BEZIER_KNOTS.);
#1258 = CARTESIAN_POINT('',(15.757791932059,2.022837694077,
    7.311983527795));
#1259 = CARTESIAN_POINT('',(16.137409766454,2.178467751651,7.73957359677
    ));
#1260 = CARTESIAN_POINT('',(16.743779193206,2.178467751651,7.73957359677
    ));
#1261 = ORIENTED_EDGE('',*,*,#1262,.F.);
#1262 = EDGE_CURVE('',#1263,#1255,#1265,.T.);
#1263 = VERTEX_POINT('',#1264);
#1264 = CARTESIAN_POINT('',(16.743779193206,2.93022184828,7.465957482109
    ));
#1265 = LINE('',#1266,#1267);
#1266 = CARTESIAN_POINT('',(16.743779193206,2.93022184828,7.465957482109
    ));
#1267 = VECTOR('',#1268,1.);
#1268 = DIRECTION('',(0.,-0.939692620786,0.342020143326));
#1269 = ORIENTED_EDGE('',*,*,#1270,.F.);
#1270 = EDGE_CURVE('',#1230,#1263,#1271,.T.);
#1271 = B_SPLINE_CURVE_WITH_KNOTS('',2,(#1272,#1273,#1274),
  .UNSPECIFIED.,.F.,.F.,(3,3),(0.,1.),.PIECEWISE_BEZIER_KNOTS.);
#1272 = CARTESIAN_POINT('',(15.757791932059,2.774591790705,
    7.038367413135));
#1273 = CARTESIAN_POINT('',(16.137409766454,2.93022184828,7.465957482109
    ));
#1274 = CARTESIAN_POINT('',(16.743779193206,2.93022184828,7.465957482109
    ));
#1275 = SURFACE_OF_LINEAR_EXTRUSION('',#1276,#1280);
#1276 = B_SPLINE_CURVE_WITH_KNOTS('',2,(#1277,#1278,#1279),
  .UNSPECIFIED.,.F.,.F.,(3,3),(0.,1.),.PIECEWISE_BEZIER_KNOTS.);
#1277 = CARTESIAN_POINT('',(15.757791932059,2.774591790705,
    7.038367413135));
#1278 = CARTESIAN_POINT('',(16.137409766454,2.93022184828,7.465957482109
    ));
#1279 = CARTESIAN_POINT('',(16.743779193206,2.93022184828,7.465957482109
    ));
#1280 = VECTOR('',#1281,1.);
#1281 = DIRECTION('',(-0.,0.939692620786,-0.342020143326));
#1282 = ADVANCED_FACE('',(#1283),#1308,.T.);
#1283 = FACE_BOUND('',#1284,.T.);
#1284 = EDGE_LOOP('',(#1285,#1286,#1294,#1302));
#1285 = ORIENTED_EDGE('',*,*,#1262,.T.);
#1286 = ORIENTED_EDGE('',*,*,#1287,.T.);
#1287 = EDGE_CURVE('',#1255,#1288,#1290,.T.);
#1288 = VERTEX_POINT('',#1289);
#1289 = CARTESIAN_POINT('',(17.448152866242,2.09649910244,7.514366583958
    ));
#1290 = B_SPLINE_CURVE_WITH_KNOTS('',2,(#1291,#1292,#1293),
  .UNSPECIFIED.,.F.,.F.,(3,3),(0.,1.),.PIECEWISE_BEZIER_KNOTS.);
#1291 = CARTESIAN_POINT('',(16.743779193206,2.178467751651,7.73957359677
    ));
#1292 = CARTESIAN_POINT('',(17.169256900212,2.178467751651,7.73957359677
    ));
#1293 = CARTESIAN_POINT('',(17.448152866242,2.09649910244,7.514366583958
    ));
#1294 = ORIENTED_EDGE('',*,*,#1295,.F.);
#1295 = EDGE_CURVE('',#1296,#1288,#1298,.T.);
#1296 = VERTEX_POINT('',#1297);
#1297 = CARTESIAN_POINT('',(17.448152866242,2.848253199068,
    7.240750469297));
#1298 = LINE('',#1299,#1300);
#1299 = CARTESIAN_POINT('',(17.448152866242,2.848253199068,
    7.240750469297));
#1300 = VECTOR('',#1301,1.);
#1301 = DIRECTION('',(0.,-0.939692620786,0.342020143326));
#1302 = ORIENTED_EDGE('',*,*,#1303,.F.);
#1303 = EDGE_CURVE('',#1263,#1296,#1304,.T.);
#1304 = B_SPLINE_CURVE_WITH_KNOTS('',2,(#1305,#1306,#1307),
  .UNSPECIFIED.,.F.,.F.,(3,3),(0.,1.),.PIECEWISE_BEZIER_KNOTS.);
#1305 = CARTESIAN_POINT('',(16.743779193206,2.93022184828,7.465957482109
    ));
#1306 = CARTESIAN_POINT('',(17.169256900212,2.93022184828,7.465957482109
    ));
#1307 = CARTESIAN_POINT('',(17.448152866242,2.848253199068,
    7.240750469297));
#1308 = SURFACE_OF_LINEAR_EXTRUSION('',#1309,#1313);
#1309 = B_SPLINE_CURVE_WITH_KNOTS('',2,(#1310,#1311,#1312),
  .UNSPECIFIED.,.F.,.F.,(3,3),(0.,1.),.PIECEWISE_BEZIER_KNOTS.);
#1310 = CARTESIAN_POINT('',(16.743779193206,2.93022184828,7.465957482109
    ));
#1311 = CARTESIAN_POINT('',(17.169256900212,2.93022184828,7.465957482109
    ));
#1312 = CARTESIAN_POINT('',(17.448152866242,2.848253199068,
    7.240750469297));
#1313 = VECTOR('',#1314,1.);
#1314 = DIRECTION('',(-0.,0.939692620786,-0.342020143326));
#1315 = ADVANCED_FACE('',(#1316),#1332,.T.);
#1316 = FACE_BOUND('',#1317,.T.);
#1317 = EDGE_LOOP('',(#1318,#1319,#1325,#1326));
#1318 = ORIENTED_EDGE('',*,*,#1295,.T.);
#1319 = ORIENTED_EDGE('',*,*,#1320,.T.);
#1320 = EDGE_CURVE('',#1288,#820,#1321,.T.);
#1321 = B_SPLINE_CURVE_WITH_KNOTS('',2,(#1322,#1323,#1324),
  .UNSPECIFIED.,.F.,.F.,(3,3),(0.,1.),.PIECEWISE_BEZIER_KNOTS.);
#1322 = CARTESIAN_POINT('',(17.448152866242,2.09649910244,7.514366583958
    ));
#1323 = CARTESIAN_POINT('',(17.727218683652,2.014588545822,
    7.289319179235));
#1324 = CARTESIAN_POINT('',(17.803651804671,1.858551840094,
    6.860611853641));
#1325 = ORIENTED_EDGE('',*,*,#817,.F.);
#1326 = ORIENTED_EDGE('',*,*,#1327,.F.);
#1327 = EDGE_CURVE('',#1296,#818,#1328,.T.);
#1328 = B_SPLINE_CURVE_WITH_KNOTS('',2,(#1329,#1330,#1331),
  .UNSPECIFIED.,.F.,.F.,(3,3),(0.,1.),.PIECEWISE_BEZIER_KNOTS.);
#1329 = CARTESIAN_POINT('',(17.448152866242,2.848253199068,
    7.240750469297));
#1330 = CARTESIAN_POINT('',(17.727218683652,2.76634264245,7.015703064574
    ));
#1331 = CARTESIAN_POINT('',(17.803651804671,2.610305936722,
    6.586995738981));
#1332 = SURFACE_OF_LINEAR_EXTRUSION('',#1333,#1337);
#1333 = B_SPLINE_CURVE_WITH_KNOTS('',2,(#1334,#1335,#1336),
  .UNSPECIFIED.,.F.,.F.,(3,3),(0.,1.),.PIECEWISE_BEZIER_KNOTS.);
#1334 = CARTESIAN_POINT('',(17.448152866242,2.848253199068,
    7.240750469297));
#1335 = CARTESIAN_POINT('',(17.727218683652,2.76634264245,7.015703064574
    ));
#1336 = CARTESIAN_POINT('',(17.803651804671,2.610305936722,
    6.586995738981));
#1337 = VECTOR('',#1338,1.);
#1338 = DIRECTION('',(-0.,0.939692620786,-0.342020143326));
#1339 = ADVANCED_FACE('',(#1340),#1358,.F.);
#1340 = FACE_BOUND('',#1341,.T.);
#1341 = EDGE_LOOP('',(#1342,#1343,#1344,#1345,#1346,#1347,#1348,#1349,
    #1350,#1351,#1352,#1353,#1354,#1355,#1356,#1357));
#1342 = ORIENTED_EDGE('',*,*,#843,.T.);
#1343 = ORIENTED_EDGE('',*,*,#874,.T.);
#1344 = ORIENTED_EDGE('',*,*,#907,.T.);
#1345 = ORIENTED_EDGE('',*,*,#940,.T.);
#1346 = ORIENTED_EDGE('',*,*,#973,.T.);
#1347 = ORIENTED_EDGE('',*,*,#1006,.T.);
#1348 = ORIENTED_EDGE('',*,*,#1039,.T.);
#1349 = ORIENTED_EDGE('',*,*,#1072,.T.);
#1350 = ORIENTED_EDGE('',*,*,#1105,.T.);
#1351 = ORIENTED_EDGE('',*,*,#1138,.T.);
#1352 = ORIENTED_EDGE('',*,*,#1171,.T.);
#1353 = ORIENTED_EDGE('',*,*,#1204,.T.);
#1354 = ORIENTED_EDGE('',*,*,#1237,.T.);
#1355 = ORIENTED_EDGE('',*,*,#1270,.T.);
#1356 = ORIENTED_EDGE('',*,*,#1303,.T.);
#1357 = ORIENTED_EDGE('',*,*,#1327,.T.);
#1358 = PLANE('',#1359);
#1359 = AXIS2_PLACEMENT_3D('',#1360,#1361,#1362);
#1360 = CARTESIAN_POINT('',(16.639706974806,2.34488372055,5.857754193424
    ));
#1361 = DIRECTION('',(0.,-0.939692620786,0.342020143326));
#1362 = DIRECTION('',(1.,0.,0.));
#1363 = ADVANCED_FACE('',(#1364),#1382,.T.);
#1364 = FACE_BOUND('',#1365,.F.);
#1365 = EDGE_LOOP('',(#1366,#1367,#1368,#1369,#1370,#1371,#1372,#1373,
    #1374,#1375,#1376,#1377,#1378,#1379,#1380,#1381));
#1366 = ORIENTED_EDGE('',*,*,#827,.T.);
#1367 = ORIENTED_EDGE('',*,*,#858,.T.);
#1368 = ORIENTED_EDGE('',*,*,#891,.T.);
#1369 = ORIENTED_EDGE('',*,*,#924,.T.);
#1370 = ORIENTED_EDGE('',*,*,#957,.T.);
#1371 = ORIENTED_EDGE('',*,*,#990,.T.);
#1372 = ORIENTED_EDGE('',*,*,#1023,.T.);
#1373 = ORIENTED_EDGE('',*,*,#1056,.T.);
#1374 = ORIENTED_EDGE('',*,*,#1089,.T.);
#1375 = ORIENTED_EDGE('',*,*,#1122,.T.);
#1376 = ORIENTED_EDGE('',*,*,#1155,.T.);
#1377 = ORIENTED_EDGE('',*,*,#1188,.T.);
#1378 = ORIENTED_EDGE('',*,*,#1221,.T.);
#1379 = ORIENTED_EDGE('',*,*,#1254,.T.);
#1380 = ORIENTED_EDGE('',*,*,#1287,.T.);
#1381 = ORIENTED_EDGE('',*,*,#1320,.T.);
#1382 = PLANE('',#1383);
#1383 = AXIS2_PLACEMENT_3D('',#1384,#1385,#1386);
#1384 = CARTESIAN_POINT('',(16.639706974806,1.593129623921,
    6.131370308085));
#1385 = DIRECTION('',(0.,-0.939692620786,0.342020143326));
#1386 = DIRECTION('',(1.,0.,0.));
#1387 = MANIFOLD_SOLID_BREP('',#1388);
#1388 = CLOSED_SHELL('',(#1389,#1431,#1464,#1497,#1530,#1563,#1596,#1629
    ,#1653,#1669));
#1389 = ADVANCED_FACE('',(#1390),#1424,.F.);
#1390 = FACE_BOUND('',#1391,.F.);
#1391 = EDGE_LOOP('',(#1392,#1402,#1410,#1418));
#1392 = ORIENTED_EDGE('',*,*,#1393,.T.);
#1393 = EDGE_CURVE('',#1394,#1396,#1398,.T.);
#1394 = VERTEX_POINT('',#1395);
#1395 = CARTESIAN_POINT('',(16.180721868365,2.073530374204,
    5.112217001645));
#1396 = VERTEX_POINT('',#1397);
#1397 = CARTESIAN_POINT('',(16.180721868365,1.321776277575,
    5.385833116306));
#1398 = LINE('',#1399,#1400);
#1399 = CARTESIAN_POINT('',(16.180721868365,2.073530374204,
    5.112217001645));
#1400 = VECTOR('',#1401,1.);
#1401 = DIRECTION('',(0.,-0.939692620786,0.342020143326));
#1402 = ORIENTED_EDGE('',*,*,#1403,.T.);
#1403 = EDGE_CURVE('',#1396,#1404,#1406,.T.);
#1404 = VERTEX_POINT('',#1405);
#1405 = CARTESIAN_POINT('',(16.341231422505,1.138726515941,4.88290802958
    ));
#1406 = B_SPLINE_CURVE_WITH_KNOTS('',2,(#1407,#1408,#1409),
  .UNSPECIFIED.,.F.,.F.,(3,3),(0.,1.),.PIECEWISE_BEZIER_KNOTS.);
#1407 = CARTESIAN_POINT('',(16.180721868365,1.321776277575,
    5.385833116306));
#1408 = CARTESIAN_POINT('',(16.180721868365,1.203209294555,
    5.060073007767));
#1409 = CARTESIAN_POINT('',(16.341231422505,1.138726515941,4.88290802958
    ));
#1410 = ORIENTED_EDGE('',*,*,#1411,.F.);
#1411 = EDGE_CURVE('',#1412,#1404,#1414,.T.);
#1412 = VERTEX_POINT('',#1413);
#1413 = CARTESIAN_POINT('',(16.341231422505,1.89048061257,4.60929191492)
  );
#1414 = LINE('',#1415,#1416);
#1415 = CARTESIAN_POINT('',(16.341231422505,1.89048061257,4.60929191492)
  );
#1416 = VECTOR('',#1417,1.);
#1417 = DIRECTION('',(0.,-0.939692620786,0.342020143326));
#1418 = ORIENTED_EDGE('',*,*,#1419,.F.);
#1419 = EDGE_CURVE('',#1394,#1412,#1420,.T.);
#1420 = B_SPLINE_CURVE_WITH_KNOTS('',2,(#1421,#1422,#1423),
  .UNSPECIFIED.,.F.,.F.,(3,3),(0.,1.),.PIECEWISE_BEZIER_KNOTS.);
#1421 = CARTESIAN_POINT('',(16.180721868365,2.073530374204,
    5.112217001645));
#1422 = CARTESIAN_POINT('',(16.180721868365,1.954963391184,
    4.786456893106));
#1423 = CARTESIAN_POINT('',(16.341231422505,1.89048061257,4.60929191492)
  );
#1424 = SURFACE_OF_LINEAR_EXTRUSION('',#1425,#1429);
#1425 = B_SPLINE_CURVE_WITH_KNOTS('',2,(#1426,#1427,#1428),
  .UNSPECIFIED.,.F.,.F.,(3,3),(0.,1.),.PIECEWISE_BEZIER_KNOTS.);
#1426 = CARTESIAN_POINT('',(16.180721868365,2.073530374204,
    5.112217001645));
#1427 = CARTESIAN_POINT('',(16.180721868365,1.954963391184,
    4.786456893106));
#1428 = CARTESIAN_POINT('',(16.341231422505,1.89048061257,4.60929191492)
  );
#1429 = VECTOR('',#1430,1.);
#1430 = DIRECTION('',(-0.,0.939692620786,-0.342020143326));
#1431 = ADVANCED_FACE('',(#1432),#1457,.F.);
#1432 = FACE_BOUND('',#1433,.F.);
#1433 = EDGE_LOOP('',(#1434,#1435,#1443,#1451));
#1434 = ORIENTED_EDGE('',*,*,#1411,.T.);
#1435 = ORIENTED_EDGE('',*,*,#1436,.T.);
#1436 = EDGE_CURVE('',#1404,#1437,#1439,.T.);
#1437 = VERTEX_POINT('',#1438);
#1438 = CARTESIAN_POINT('',(16.708110403397,1.074243737327,
    4.705743051394));
#1439 = B_SPLINE_CURVE_WITH_KNOTS('',2,(#1440,#1441,#1442),
  .UNSPECIFIED.,.F.,.F.,(3,3),(0.,1.),.PIECEWISE_BEZIER_KNOTS.);
#1440 = CARTESIAN_POINT('',(16.341231422505,1.138726515941,4.88290802958
    ));
#1441 = CARTESIAN_POINT('',(16.501740976645,1.074243737327,
    4.705743051394));
#1442 = CARTESIAN_POINT('',(16.708110403397,1.074243737327,
    4.705743051394));
#1443 = ORIENTED_EDGE('',*,*,#1444,.F.);
#1444 = EDGE_CURVE('',#1445,#1437,#1447,.T.);
#1445 = VERTEX_POINT('',#1446);
#1446 = CARTESIAN_POINT('',(16.708110403397,1.825997833956,
    4.432126936734));
#1447 = LINE('',#1448,#1449);
#1448 = CARTESIAN_POINT('',(16.708110403397,1.825997833956,
    4.432126936734));
#1449 = VECTOR('',#1450,1.);
#1450 = DIRECTION('',(0.,-0.939692620786,0.342020143326));
#1451 = ORIENTED_EDGE('',*,*,#1452,.F.);
#1452 = EDGE_CURVE('',#1412,#1445,#1453,.T.);
#1453 = B_SPLINE_CURVE_WITH_KNOTS('',2,(#1454,#1455,#1456),
  .UNSPECIFIED.,.F.,.F.,(3,3),(0.,1.),.PIECEWISE_BEZIER_KNOTS.);
#1454 = CARTESIAN_POINT('',(16.341231422505,1.89048061257,4.60929191492)
  );
#1455 = CARTESIAN_POINT('',(16.501740976645,1.825997833956,
    4.432126936734));
#1456 = CARTESIAN_POINT('',(16.708110403397,1.825997833956,
    4.432126936734));
#1457 = SURFACE_OF_LINEAR_EXTRUSION('',#1458,#1462);
#1458 = B_SPLINE_CURVE_WITH_KNOTS('',2,(#1459,#1460,#1461),
  .UNSPECIFIED.,.F.,.F.,(3,3),(0.,1.),.PIECEWISE_BEZIER_KNOTS.);
#1459 = CARTESIAN_POINT('',(16.341231422505,1.89048061257,4.60929191492)
  );
#1460 = CARTESIAN_POINT('',(16.501740976645,1.825997833956,
    4.432126936734));
#1461 = CARTESIAN_POINT('',(16.708110403397,1.825997833956,
    4.432126936734));
#1462 = VECTOR('',#1463,1.);
#1463 = DIRECTION('',(-0.,0.939692620786,-0.342020143326));
#1464 = ADVANCED_FACE('',(#1465),#1490,.F.);
#1465 = FACE_BOUND('',#1466,.F.);
#1466 = EDGE_LOOP('',(#1467,#1468,#1476,#1484));
#1467 = ORIENTED_EDGE('',*,*,#1444,.T.);
#1468 = ORIENTED_EDGE('',*,*,#1469,.T.);
#1469 = EDGE_CURVE('',#1437,#1470,#1472,.T.);
#1470 = VERTEX_POINT('',#1471);
#1471 = CARTESIAN_POINT('',(17.03932059448,1.127049904679,4.850826803801
    ));
#1472 = B_SPLINE_CURVE_WITH_KNOTS('',2,(#1473,#1474,#1475),
  .UNSPECIFIED.,.F.,.F.,(3,3),(0.,1.),.PIECEWISE_BEZIER_KNOTS.);
#1473 = CARTESIAN_POINT('',(16.708110403397,1.074243737327,
    4.705743051394));
#1474 = CARTESIAN_POINT('',(16.906836518047,1.074243737327,
    4.705743051394));
#1475 = CARTESIAN_POINT('',(17.03932059448,1.127049904679,4.850826803801
    ));
#1476 = ORIENTED_EDGE('',*,*,#1477,.F.);
#1477 = EDGE_CURVE('',#1478,#1470,#1480,.T.);
#1478 = VERTEX_POINT('',#1479);
#1479 = CARTESIAN_POINT('',(17.03932059448,1.878804001307,4.57721068914)
  );
#1480 = LINE('',#1481,#1482);
#1481 = CARTESIAN_POINT('',(17.03932059448,1.878804001307,4.57721068914)
  );
#1482 = VECTOR('',#1483,1.);
#1483 = DIRECTION('',(0.,-0.939692620786,0.342020143326));
#1484 = ORIENTED_EDGE('',*,*,#1485,.F.);
#1485 = EDGE_CURVE('',#1445,#1478,#1486,.T.);
#1486 = B_SPLINE_CURVE_WITH_KNOTS('',2,(#1487,#1488,#1489),
  .UNSPECIFIED.,.F.,.F.,(3,3),(0.,1.),.PIECEWISE_BEZIER_KNOTS.);
#1487 = CARTESIAN_POINT('',(16.708110403397,1.825997833956,
    4.432126936734));
#1488 = CARTESIAN_POINT('',(16.906836518047,1.825997833956,
    4.432126936734));
#1489 = CARTESIAN_POINT('',(17.03932059448,1.878804001307,4.57721068914)
  );
#1490 = SURFACE_OF_LINEAR_EXTRUSION('',#1491,#1495);
#1491 = B_SPLINE_CURVE_WITH_KNOTS('',2,(#1492,#1493,#1494),
  .UNSPECIFIED.,.F.,.F.,(3,3),(0.,1.),.PIECEWISE_BEZIER_KNOTS.);
#1492 = CARTESIAN_POINT('',(16.708110403397,1.825997833956,
    4.432126936734));
#1493 = CARTESIAN_POINT('',(16.906836518047,1.825997833956,
    4.432126936734));
#1494 = CARTESIAN_POINT('',(17.03932059448,1.878804001307,4.57721068914)
  );
#1495 = VECTOR('',#1496,1.);
#1496 = DIRECTION('',(-0.,0.939692620786,-0.342020143326));
#1497 = ADVANCED_FACE('',(#1498),#1523,.F.);
#1498 = FACE_BOUND('',#1499,.F.);
#1499 = EDGE_LOOP('',(#1500,#1501,#1509,#1517));
#1500 = ORIENTED_EDGE('',*,*,#1477,.T.);
#1501 = ORIENTED_EDGE('',*,*,#1502,.T.);
#1502 = EDGE_CURVE('',#1470,#1503,#1505,.T.);
#1503 = VERTEX_POINT('',#1504);
#1504 = CARTESIAN_POINT('',(17.171804670913,1.300107740257,
    5.326299299312));
#1505 = B_SPLINE_CURVE_WITH_KNOTS('',2,(#1506,#1507,#1508),
  .UNSPECIFIED.,.F.,.F.,(3,3),(0.,1.),.PIECEWISE_BEZIER_KNOTS.);
#1506 = CARTESIAN_POINT('',(17.03932059448,1.127049904679,4.850826803801
    ));
#1507 = CARTESIAN_POINT('',(17.171804670913,1.17985607203,4.995910556207
    ));
#1508 = CARTESIAN_POINT('',(17.171804670913,1.300107740257,
    5.326299299312));
#1509 = ORIENTED_EDGE('',*,*,#1510,.F.);
#1510 = EDGE_CURVE('',#1511,#1503,#1513,.T.);
#1511 = VERTEX_POINT('',#1512);
#1512 = CARTESIAN_POINT('',(17.171804670913,2.051861836886,
    5.052683184651));
#1513 = LINE('',#1514,#1515);
#1514 = CARTESIAN_POINT('',(17.171804670913,2.051861836886,
    5.052683184651));
#1515 = VECTOR('',#1516,1.);
#1516 = DIRECTION('',(0.,-0.939692620786,0.342020143326));
#1517 = ORIENTED_EDGE('',*,*,#1518,.F.);
#1518 = EDGE_CURVE('',#1478,#1511,#1519,.T.);
#1519 = B_SPLINE_CURVE_WITH_KNOTS('',2,(#1520,#1521,#1522),
  .UNSPECIFIED.,.F.,.F.,(3,3),(0.,1.),.PIECEWISE_BEZIER_KNOTS.);
#1520 = CARTESIAN_POINT('',(17.03932059448,1.878804001307,4.57721068914)
  );
#1521 = CARTESIAN_POINT('',(17.171804670913,1.931610168659,
    4.722294441547));
#1522 = CARTESIAN_POINT('',(17.171804670913,2.051861836886,
    5.052683184651));
#1523 = SURFACE_OF_LINEAR_EXTRUSION('',#1524,#1528);
#1524 = B_SPLINE_CURVE_WITH_KNOTS('',2,(#1525,#1526,#1527),
  .UNSPECIFIED.,.F.,.F.,(3,3),(0.,1.),.PIECEWISE_BEZIER_KNOTS.);
#1525 = CARTESIAN_POINT('',(17.03932059448,1.878804001307,4.57721068914)
  );
#1526 = CARTESIAN_POINT('',(17.171804670913,1.931610168659,
    4.722294441547));
#1527 = CARTESIAN_POINT('',(17.171804670913,2.051861836886,
    5.052683184651));
#1528 = VECTOR('',#1529,1.);
#1529 = DIRECTION('',(-0.,0.939692620786,-0.342020143326));
#1530 = ADVANCED_FACE('',(#1531),#1556,.F.);
#1531 = FACE_BOUND('',#1532,.F.);
#1532 = EDGE_LOOP('',(#1533,#1534,#1542,#1550));
#1533 = ORIENTED_EDGE('',*,*,#1510,.T.);
#1534 = ORIENTED_EDGE('',*,*,#1535,.T.);
#1535 = EDGE_CURVE('',#1503,#1536,#1538,.T.);
#1536 = VERTEX_POINT('',#1537);
#1537 = CARTESIAN_POINT('',(17.029129511677,1.48141472409,5.824436143384
    ));
#1538 = B_SPLINE_CURVE_WITH_KNOTS('',2,(#1539,#1540,#1541),
  .UNSPECIFIED.,.F.,.F.,(3,3),(0.,1.),.PIECEWISE_BEZIER_KNOTS.);
#1539 = CARTESIAN_POINT('',(17.171804670913,1.300107740257,
    5.326299299312));
#1540 = CARTESIAN_POINT('',(17.171804670913,1.423903056678,
    5.666424135812));
#1541 = CARTESIAN_POINT('',(17.029129511677,1.48141472409,5.824436143384
    ));
#1542 = ORIENTED_EDGE('',*,*,#1543,.F.);
#1543 = EDGE_CURVE('',#1544,#1536,#1546,.T.);
#1544 = VERTEX_POINT('',#1545);
#1545 = CARTESIAN_POINT('',(17.029129511677,2.233168820719,
    5.550820028723));
#1546 = LINE('',#1547,#1548);
#1547 = CARTESIAN_POINT('',(17.029129511677,2.233168820719,
    5.550820028723));
#1548 = VECTOR('',#1549,1.);
#1549 = DIRECTION('',(0.,-0.939692620786,0.342020143326));
#1550 = ORIENTED_EDGE('',*,*,#1551,.F.);
#1551 = EDGE_CURVE('',#1511,#1544,#1552,.T.);
#1552 = B_SPLINE_CURVE_WITH_KNOTS('',2,(#1553,#1554,#1555),
  .UNSPECIFIED.,.F.,.F.,(3,3),(0.,1.),.PIECEWISE_BEZIER_KNOTS.);
#1553 = CARTESIAN_POINT('',(17.171804670913,2.051861836886,
    5.052683184651));
#1554 = CARTESIAN_POINT('',(17.171804670913,2.175657153306,
    5.392808021151));
#1555 = CARTESIAN_POINT('',(17.029129511677,2.233168820719,
    5.550820028723));
#1556 = SURFACE_OF_LINEAR_EXTRUSION('',#1557,#1561);
#1557 = B_SPLINE_CURVE_WITH_KNOTS('',2,(#1558,#1559,#1560),
  .UNSPECIFIED.,.F.,.F.,(3,3),(0.,1.),.PIECEWISE_BEZIER_KNOTS.);
#1558 = CARTESIAN_POINT('',(17.171804670913,2.051861836886,
    5.052683184651));
#1559 = CARTESIAN_POINT('',(17.171804670913,2.175657153306,
    5.392808021151));
#1560 = CARTESIAN_POINT('',(17.029129511677,2.233168820719,
    5.550820028723));
#1561 = VECTOR('',#1562,1.);
#1562 = DIRECTION('',(-0.,0.939692620786,-0.342020143326));
#1563 = ADVANCED_FACE('',(#1564),#1589,.F.);
#1564 = FACE_BOUND('',#1565,.F.);
#1565 = EDGE_LOOP('',(#1566,#1567,#1575,#1583));
#1566 = ORIENTED_EDGE('',*,*,#1543,.T.);
#1567 = ORIENTED_EDGE('',*,*,#1568,.T.);
#1568 = EDGE_CURVE('',#1536,#1569,#1571,.T.);
#1569 = VERTEX_POINT('',#1570);
#1570 = CARTESIAN_POINT('',(16.672441613588,1.538984484096,
    5.982607759044));
#1571 = B_SPLINE_CURVE_WITH_KNOTS('',2,(#1572,#1573,#1574),
  .UNSPECIFIED.,.F.,.F.,(3,3),(0.,1.),.PIECEWISE_BEZIER_KNOTS.);
#1572 = CARTESIAN_POINT('',(17.029129511677,1.48141472409,5.824436143384
    ));
#1573 = CARTESIAN_POINT('',(16.886454352442,1.538984484096,
    5.982607759044));
#1574 = CARTESIAN_POINT('',(16.672441613588,1.538984484096,
    5.982607759044));
#1575 = ORIENTED_EDGE('',*,*,#1576,.F.);
#1576 = EDGE_CURVE('',#1577,#1569,#1579,.T.);
#1577 = VERTEX_POINT('',#1578);
#1578 = CARTESIAN_POINT('',(16.672441613588,2.290738580725,
    5.708991644383));
#1579 = LINE('',#1580,#1581);
#1580 = CARTESIAN_POINT('',(16.672441613588,2.290738580725,
    5.708991644383));
#1581 = VECTOR('',#1582,1.);
#1582 = DIRECTION('',(0.,-0.939692620786,0.342020143326));
#1583 = ORIENTED_EDGE('',*,*,#1584,.F.);
#1584 = EDGE_CURVE('',#1544,#1577,#1585,.T.);
#1585 = B_SPLINE_CURVE_WITH_KNOTS('',2,(#1586,#1587,#1588),
  .UNSPECIFIED.,.F.,.F.,(3,3),(0.,1.),.PIECEWISE_BEZIER_KNOTS.);
#1586 = CARTESIAN_POINT('',(17.029129511677,2.233168820719,
    5.550820028723));
#1587 = CARTESIAN_POINT('',(16.886454352442,2.290738580725,
    5.708991644383));
#1588 = CARTESIAN_POINT('',(16.672441613588,2.290738580725,
    5.708991644383));
#1589 = SURFACE_OF_LINEAR_EXTRUSION('',#1590,#1594);
#1590 = B_SPLINE_CURVE_WITH_KNOTS('',2,(#1591,#1592,#1593),
  .UNSPECIFIED.,.F.,.F.,(3,3),(0.,1.),.PIECEWISE_BEZIER_KNOTS.);
#1591 = CARTESIAN_POINT('',(17.029129511677,2.233168820719,
    5.550820028723));
#1592 = CARTESIAN_POINT('',(16.886454352442,2.290738580725,
    5.708991644383));
#1593 = CARTESIAN_POINT('',(16.672441613588,2.290738580725,
    5.708991644383));
#1594 = VECTOR('',#1595,1.);
#1595 = DIRECTION('',(-0.,0.939692620786,-0.342020143326));
#1596 = ADVANCED_FACE('',(#1597),#1622,.F.);
#1597 = FACE_BOUND('',#1598,.F.);
#1598 = EDGE_LOOP('',(#1599,#1600,#1608,#1616));
#1599 = ORIENTED_EDGE('',*,*,#1576,.T.);
#1600 = ORIENTED_EDGE('',*,*,#1601,.T.);
#1601 = EDGE_CURVE('',#1569,#1602,#1604,.T.);
#1602 = VERTEX_POINT('',#1603);
#1603 = CARTESIAN_POINT('',(16.323397027601,1.484028890791,
    5.831618507364));
#1604 = B_SPLINE_CURVE_WITH_KNOTS('',2,(#1605,#1606,#1607),
  .UNSPECIFIED.,.F.,.F.,(3,3),(0.,1.),.PIECEWISE_BEZIER_KNOTS.);
#1605 = CARTESIAN_POINT('',(16.672441613588,1.538984484096,
    5.982607759044));
#1606 = CARTESIAN_POINT('',(16.466072186837,1.538984484096,
    5.982607759044));
#1607 = CARTESIAN_POINT('',(16.323397027601,1.484028890791,
    5.831618507364));
#1608 = ORIENTED_EDGE('',*,*,#1609,.F.);
#1609 = EDGE_CURVE('',#1610,#1602,#1612,.T.);
#1610 = VERTEX_POINT('',#1611);
#1611 = CARTESIAN_POINT('',(16.323397027601,2.23578298742,5.558002392704
    ));
#1612 = LINE('',#1613,#1614);
#1613 = CARTESIAN_POINT('',(16.323397027601,2.23578298742,5.558002392704
    ));
#1614 = VECTOR('',#1615,1.);
#1615 = DIRECTION('',(0.,-0.939692620786,0.342020143326));
#1616 = ORIENTED_EDGE('',*,*,#1617,.F.);
#1617 = EDGE_CURVE('',#1577,#1610,#1618,.T.);
#1618 = B_SPLINE_CURVE_WITH_KNOTS('',2,(#1619,#1620,#1621),
  .UNSPECIFIED.,.F.,.F.,(3,3),(0.,1.),.PIECEWISE_BEZIER_KNOTS.);
#1619 = CARTESIAN_POINT('',(16.672441613588,2.290738580725,
    5.708991644383));
#1620 = CARTESIAN_POINT('',(16.466072186837,2.290738580725,
    5.708991644383));
#1621 = CARTESIAN_POINT('',(16.323397027601,2.23578298742,5.558002392704
    ));
#1622 = SURFACE_OF_LINEAR_EXTRUSION('',#1623,#1627);
#1623 = B_SPLINE_CURVE_WITH_KNOTS('',2,(#1624,#1625,#1626),
  .UNSPECIFIED.,.F.,.F.,(3,3),(0.,1.),.PIECEWISE_BEZIER_KNOTS.);
#1624 = CARTESIAN_POINT('',(16.672441613588,2.290738580725,
    5.708991644383));
#1625 = CARTESIAN_POINT('',(16.466072186837,2.290738580725,
    5.708991644383));
#1626 = CARTESIAN_POINT('',(16.323397027601,2.23578298742,5.558002392704
    ));
#1627 = VECTOR('',#1628,1.);
#1628 = DIRECTION('',(-0.,0.939692620786,-0.342020143326));
#1629 = ADVANCED_FACE('',(#1630),#1646,.F.);
#1630 = FACE_BOUND('',#1631,.F.);
#1631 = EDGE_LOOP('',(#1632,#1633,#1639,#1640));
#1632 = ORIENTED_EDGE('',*,*,#1609,.T.);
#1633 = ORIENTED_EDGE('',*,*,#1634,.T.);
#1634 = EDGE_CURVE('',#1602,#1396,#1635,.T.);
#1635 = B_SPLINE_CURVE_WITH_KNOTS('',2,(#1636,#1637,#1638),
  .UNSPECIFIED.,.F.,.F.,(3,3),(0.,1.),.PIECEWISE_BEZIER_KNOTS.);
#1636 = CARTESIAN_POINT('',(16.323397027601,1.484028890791,
    5.831618507364));
#1637 = CARTESIAN_POINT('',(16.180721868365,1.429073297485,
    5.680629255685));
#1638 = CARTESIAN_POINT('',(16.180721868365,1.321776277575,
    5.385833116306));
#1639 = ORIENTED_EDGE('',*,*,#1393,.F.);
#1640 = ORIENTED_EDGE('',*,*,#1641,.F.);
#1641 = EDGE_CURVE('',#1610,#1394,#1642,.T.);
#1642 = B_SPLINE_CURVE_WITH_KNOTS('',2,(#1643,#1644,#1645),
  .UNSPECIFIED.,.F.,.F.,(3,3),(0.,1.),.PIECEWISE_BEZIER_KNOTS.);
#1643 = CARTESIAN_POINT('',(16.323397027601,2.23578298742,5.558002392704
    ));
#1644 = CARTESIAN_POINT('',(16.180721868365,2.180827394114,
    5.407013141024));
#1645 = CARTESIAN_POINT('',(16.180721868365,2.073530374204,
    5.112217001645));
#1646 = SURFACE_OF_LINEAR_EXTRUSION('',#1647,#1651);
#1647 = B_SPLINE_CURVE_WITH_KNOTS('',2,(#1648,#1649,#1650),
  .UNSPECIFIED.,.F.,.F.,(3,3),(0.,1.),.PIECEWISE_BEZIER_KNOTS.);
#1648 = CARTESIAN_POINT('',(16.323397027601,2.23578298742,5.558002392704
    ));
#1649 = CARTESIAN_POINT('',(16.180721868365,2.180827394114,
    5.407013141024));
#1650 = CARTESIAN_POINT('',(16.180721868365,2.073530374204,
    5.112217001645));
#1651 = VECTOR('',#1652,1.);
#1652 = DIRECTION('',(-0.,0.939692620786,-0.342020143326));
#1653 = ADVANCED_FACE('',(#1654),#1664,.T.);
#1654 = FACE_BOUND('',#1655,.F.);
#1655 = EDGE_LOOP('',(#1656,#1657,#1658,#1659,#1660,#1661,#1662,#1663));
#1656 = ORIENTED_EDGE('',*,*,#1419,.T.);
#1657 = ORIENTED_EDGE('',*,*,#1452,.T.);
#1658 = ORIENTED_EDGE('',*,*,#1485,.T.);
#1659 = ORIENTED_EDGE('',*,*,#1518,.T.);
#1660 = ORIENTED_EDGE('',*,*,#1551,.T.);
#1661 = ORIENTED_EDGE('',*,*,#1584,.T.);
#1662 = ORIENTED_EDGE('',*,*,#1617,.T.);
#1663 = ORIENTED_EDGE('',*,*,#1641,.T.);
#1664 = PLANE('',#1665);
#1665 = AXIS2_PLACEMENT_3D('',#1666,#1667,#1668);
#1666 = CARTESIAN_POINT('',(16.682648978427,2.059360612521,
    5.073285901382));
#1667 = DIRECTION('',(-0.,0.939692620786,-0.342020143326));
#1668 = DIRECTION('',(-1.,0.,0.));
#1669 = ADVANCED_FACE('',(#1670),#1680,.F.);
#1670 = FACE_BOUND('',#1671,.T.);
#1671 = EDGE_LOOP('',(#1672,#1673,#1674,#1675,#1676,#1677,#1678,#1679));
#1672 = ORIENTED_EDGE('',*,*,#1403,.T.);
#1673 = ORIENTED_EDGE('',*,*,#1436,.T.);
#1674 = ORIENTED_EDGE('',*,*,#1469,.T.);
#1675 = ORIENTED_EDGE('',*,*,#1502,.T.);
#1676 = ORIENTED_EDGE('',*,*,#1535,.T.);
#1677 = ORIENTED_EDGE('',*,*,#1568,.T.);
#1678 = ORIENTED_EDGE('',*,*,#1601,.T.);
#1679 = ORIENTED_EDGE('',*,*,#1634,.T.);
#1680 = PLANE('',#1681);
#1681 = AXIS2_PLACEMENT_3D('',#1682,#1683,#1684);
#1682 = CARTESIAN_POINT('',(16.682648978427,1.307606515892,
    5.346902016042));
#1683 = DIRECTION('',(-0.,0.939692620786,-0.342020143326));
#1684 = DIRECTION('',(-1.,0.,0.));
#1685 = ( GEOMETRIC_REPRESENTATION_CONTEXT(3) 
GLOBAL_UNCERTAINTY_ASSIGNED_CONTEXT((#1689)) 
GLOBAL_UNIT_ASSIGNED_CONTEXT((#1686,#1687,#1688)) REPRESENTATION_CONTEXT
('Context #1','3D Context with UNIT and UNCERTAINTY') );
#1686 = ( LENGTH_UNIT() NAMED_UNIT(*) SI_UNIT(.MILLI.,.METRE.) );
#1687 = ( NAMED_UNIT(*) PLANE_ANGLE_UNIT() SI_UNIT($,.RADIAN.) );
#1688 = ( NAMED_UNIT(*) SI_UNIT($,.STERADIAN.) SOLID_ANGLE_UNIT() );
#1689 = UNCERTAINTY_MEASURE_WITH_UNIT(LENGTH_MEASURE(1.E-07),#1686,
  'distance_accuracy_value','confusion accuracy');
#1690 = PRODUCT_RELATED_PRODUCT_CATEGORY('part',$,(#7));
ENDSEC;
END-ISO-10303-21;
