ISO-10303-21;
HEADER;
FILE_DESCRIPTION(('FreeCAD Model'),'2;1');
FILE_NAME('Open CASCADE Shape Model','2026-08-30T14:33:03',('FreeCAD'),(
    'FreeCAD'),'Open CASCADE STEP processor 7.8','FreeCAD','Unknown');
FILE_SCHEMA(('AUTOMOTIVE_DESIGN { 1 0 10303 214 1 1 1 1 }'));
ENDSEC;
DATA;
#1 = APPLICATION_PROTOCOL_DEFINITION('international standard',
  'automotive_design',2000,#2);
#2 = APPLICATION_CONTEXT(
  'core data for automotive mechanical design processes');
#3 = SHAPE_DEFINITION_REPRESENTATION(#4,#10);
#4 = PRODUCT_DEFINITION_SHAPE('','',#5);
#5 = PRODUCT_DEFINITION('design','',#6,#9);
#6 = PRODUCT_DEFINITION_FORMATION('','',#7);
#7 = PRODUCT('Open CASCADE STEP translator 7.8 114',
  'Open CASCADE STEP translator 7.8 114','',(#8));
#8 = PRODUCT_CONTEXT('',#2,'mechanical');
#9 = PRODUCT_DEFINITION_CONTEXT('part definition',#2,'design');
#10 = SHAPE_REPRESENTATION('',(#11,#15,#303,#453),#741);
#11 = AXIS2_PLACEMENT_3D('',#12,#13,#14);
#12 = CARTESIAN_POINT('',(0.,0.,0.));
#13 = DIRECTION('',(0.,0.,1.));
#14 = DIRECTION('',(1.,0.,-0.));
#15 = MANIFOLD_SOLID_BREP('',#16);
#16 = CLOSED_SHELL('',(#17,#57,#88,#121,#152,#185,#218,#249,#271,#287));
#17 = ADVANCED_FACE('',(#18),#52,.T.);
#18 = FACE_BOUND('',#19,.T.);
#19 = EDGE_LOOP('',(#20,#30,#38,#46));
#20 = ORIENTED_EDGE('',*,*,#21,.T.);
#21 = EDGE_CURVE('',#22,#24,#26,.T.);
#22 = VERTEX_POINT('',#23);
#23 = CARTESIAN_POINT('',(19.469426751592,1.461834344089,3.431595971335)
  );
#24 = VERTEX_POINT('',#25);
#25 = CARTESIAN_POINT('',(19.469426751592,0.71008024746,3.705212085995)
  );
#26 = LINE('',#27,#28);
#27 = CARTESIAN_POINT('',(19.469426751592,1.461834344089,3.431595971335)
  );
#28 = VECTOR('',#29,1.);
#29 = DIRECTION('',(0.,-0.939692620786,0.342020143326));
#30 = ORIENTED_EDGE('',*,*,#31,.T.);
#31 = EDGE_CURVE('',#24,#32,#34,.T.);
#32 = VERTEX_POINT('',#33);
#33 = CARTESIAN_POINT('',(18.395541401274,0.71008024746,3.705212085995)
  );
#34 = LINE('',#35,#36);
#35 = CARTESIAN_POINT('',(19.469426751592,0.71008024746,3.705212085995)
  );
#36 = VECTOR('',#37,1.);
#37 = DIRECTION('',(-1.,0.,0.));
#38 = ORIENTED_EDGE('',*,*,#39,.F.);
#39 = EDGE_CURVE('',#40,#32,#42,.T.);
#40 = VERTEX_POINT('',#41);
#41 = CARTESIAN_POINT('',(18.395541401274,1.461834344089,3.431595971335)
  );
#42 = LINE('',#43,#44);
#43 = CARTESIAN_POINT('',(18.395541401274,1.461834344089,3.431595971335)
  );
#44 = VECTOR('',#45,1.);
#45 = DIRECTION('',(0.,-0.939692620786,0.342020143326));
#46 = ORIENTED_EDGE('',*,*,#47,.F.);
#47 = EDGE_CURVE('',#22,#40,#48,.T.);
#48 = LINE('',#49,#50);
#49 = CARTESIAN_POINT('',(19.469426751592,1.461834344089,3.431595971335)
  );
#50 = VECTOR('',#51,1.);
#51 = DIRECTION('',(-1.,0.,0.));
#52 = PLANE('',#53);
#53 = AXIS2_PLACEMENT_3D('',#54,#55,#56);
#54 = CARTESIAN_POINT('',(19.469426751592,1.461834344089,3.431595971335)
  );
#55 = DIRECTION('',(0.,-0.342020143326,-0.939692620786));
#56 = DIRECTION('',(-1.,0.,0.));
#57 = ADVANCED_FACE('',(#58),#83,.T.);
#58 = FACE_BOUND('',#59,.T.);
#59 = EDGE_LOOP('',(#60,#61,#69,#77));
#60 = ORIENTED_EDGE('',*,*,#39,.T.);
#61 = ORIENTED_EDGE('',*,*,#62,.T.);
#62 = EDGE_CURVE('',#32,#63,#65,.T.);
#63 = VERTEX_POINT('',#64);
#64 = CARTESIAN_POINT('',(18.395541401274,2.099422709928,7.522399129514)
  );
#65 = LINE('',#66,#67);
#66 = CARTESIAN_POINT('',(18.395541401274,0.71008024746,3.705212085995)
  );
#67 = VECTOR('',#68,1.);
#68 = DIRECTION('',(0.,0.342020143326,0.939692620786));
#69 = ORIENTED_EDGE('',*,*,#70,.F.);
#70 = EDGE_CURVE('',#71,#63,#73,.T.);
#71 = VERTEX_POINT('',#72);
#72 = CARTESIAN_POINT('',(18.395541401274,2.851176806556,7.248783014853)
  );
#73 = LINE('',#74,#75);
#74 = CARTESIAN_POINT('',(18.395541401274,2.851176806556,7.248783014853)
  );
#75 = VECTOR('',#76,1.);
#76 = DIRECTION('',(0.,-0.939692620786,0.342020143326));
#77 = ORIENTED_EDGE('',*,*,#78,.F.);
#78 = EDGE_CURVE('',#40,#71,#79,.T.);
#79 = LINE('',#80,#81);
#80 = CARTESIAN_POINT('',(18.395541401274,1.461834344089,3.431595971335)
  );
#81 = VECTOR('',#82,1.);
#82 = DIRECTION('',(0.,0.342020143326,0.939692620786));
#83 = PLANE('',#84);
#84 = AXIS2_PLACEMENT_3D('',#85,#86,#87);
#85 = CARTESIAN_POINT('',(18.395541401274,1.461834344089,3.431595971335)
  );
#86 = DIRECTION('',(-1.,0.,0.));
#87 = DIRECTION('',(0.,0.342020143326,0.939692620786));
#88 = ADVANCED_FACE('',(#89),#114,.T.);
#89 = FACE_BOUND('',#90,.T.);
#90 = EDGE_LOOP('',(#91,#92,#100,#108));
#91 = ORIENTED_EDGE('',*,*,#70,.T.);
#92 = ORIENTED_EDGE('',*,*,#93,.T.);
#93 = EDGE_CURVE('',#63,#94,#96,.T.);
#94 = VERTEX_POINT('',#95);
#95 = CARTESIAN_POINT('',(17.008280254777,1.819881150746,6.754365007863)
  );
#96 = B_SPLINE_CURVE_WITH_KNOTS('',2,(#97,#98,#99),.UNSPECIFIED.,.F.,.F.
  ,(3,3),(0.,1.),.PIECEWISE_BEZIER_KNOTS.);
#97 = CARTESIAN_POINT('',(18.395541401274,2.099422709928,7.522399129514)
  );
#98 = CARTESIAN_POINT('',(17.807006369427,1.910418457476,7.003114213722)
  );
#99 = CARTESIAN_POINT('',(17.008280254777,1.819881150746,6.754365007863)
  );
#100 = ORIENTED_EDGE('',*,*,#101,.F.);
#101 = EDGE_CURVE('',#102,#94,#104,.T.);
#102 = VERTEX_POINT('',#103);
#103 = CARTESIAN_POINT('',(17.008280254777,2.571635247374,6.480748893202
    ));
#104 = LINE('',#105,#106);
#105 = CARTESIAN_POINT('',(17.008280254777,2.571635247374,6.480748893202
    ));
#106 = VECTOR('',#107,1.);
#107 = DIRECTION('',(0.,-0.939692620786,0.342020143326));
#108 = ORIENTED_EDGE('',*,*,#109,.F.);
#109 = EDGE_CURVE('',#71,#102,#110,.T.);
#110 = B_SPLINE_CURVE_WITH_KNOTS('',2,(#111,#112,#113),.UNSPECIFIED.,.F.
  ,.F.,(3,3),(0.,1.),.PIECEWISE_BEZIER_KNOTS.);
#111 = CARTESIAN_POINT('',(18.395541401274,2.851176806556,7.248783014853
    ));
#112 = CARTESIAN_POINT('',(17.807006369427,2.662172554104,6.729498099061
    ));
#113 = CARTESIAN_POINT('',(17.008280254777,2.571635247374,6.480748893202
    ));
#114 = SURFACE_OF_LINEAR_EXTRUSION('',#115,#119);
#115 = B_SPLINE_CURVE_WITH_KNOTS('',2,(#116,#117,#118),.UNSPECIFIED.,.F.
  ,.F.,(3,3),(0.,1.),.PIECEWISE_BEZIER_KNOTS.);
#116 = CARTESIAN_POINT('',(18.395541401274,2.851176806556,7.248783014853
    ));
#117 = CARTESIAN_POINT('',(17.807006369427,2.662172554104,6.729498099061
    ));
#118 = CARTESIAN_POINT('',(17.008280254777,2.571635247374,6.480748893202
    ));
#119 = VECTOR('',#120,1.);
#120 = DIRECTION('',(-0.,0.939692620786,-0.342020143326));
#121 = ADVANCED_FACE('',(#122),#147,.T.);
#122 = FACE_BOUND('',#123,.T.);
#123 = EDGE_LOOP('',(#124,#125,#133,#141));
#124 = ORIENTED_EDGE('',*,*,#101,.T.);
#125 = ORIENTED_EDGE('',*,*,#126,.T.);
#126 = EDGE_CURVE('',#94,#127,#129,.T.);
#127 = VERTEX_POINT('',#128);
#128 = CARTESIAN_POINT('',(17.008280254777,2.15449448842,7.67370759737)
  );
#129 = LINE('',#130,#131);
#130 = CARTESIAN_POINT('',(17.008280254777,1.819881150746,6.754365007863
    ));
#131 = VECTOR('',#132,1.);
#132 = DIRECTION('',(0.,0.342020143326,0.939692620786));
#133 = ORIENTED_EDGE('',*,*,#134,.F.);
#134 = EDGE_CURVE('',#135,#127,#137,.T.);
#135 = VERTEX_POINT('',#136);
#136 = CARTESIAN_POINT('',(17.008280254777,2.906248585048,7.40009148271)
  );
#137 = LINE('',#138,#139);
#138 = CARTESIAN_POINT('',(17.008280254777,2.906248585048,7.40009148271)
  );
#139 = VECTOR('',#140,1.);
#140 = DIRECTION('',(0.,-0.939692620786,0.342020143326));
#141 = ORIENTED_EDGE('',*,*,#142,.F.);
#142 = EDGE_CURVE('',#102,#135,#143,.T.);
#143 = LINE('',#144,#145);
#144 = CARTESIAN_POINT('',(17.008280254777,2.571635247374,6.480748893202
    ));
#145 = VECTOR('',#146,1.);
#146 = DIRECTION('',(0.,0.342020143326,0.939692620786));
#147 = PLANE('',#148);
#148 = AXIS2_PLACEMENT_3D('',#149,#150,#151);
#149 = CARTESIAN_POINT('',(17.008280254777,2.571635247374,6.480748893202
    ));
#150 = DIRECTION('',(-1.,0.,0.));
#151 = DIRECTION('',(0.,0.342020143326,0.939692620786));
#152 = ADVANCED_FACE('',(#153),#178,.T.);
#153 = FACE_BOUND('',#154,.T.);
#154 = EDGE_LOOP('',(#155,#156,#164,#172));
#155 = ORIENTED_EDGE('',*,*,#134,.T.);
#156 = ORIENTED_EDGE('',*,*,#157,.T.);
#157 = EDGE_CURVE('',#127,#158,#160,.T.);
#158 = VERTEX_POINT('',#159);
#159 = CARTESIAN_POINT('',(17.921656050955,2.332954935179,8.164023645108
    ));
#160 = B_SPLINE_CURVE_WITH_KNOTS('',2,(#161,#162,#163),.UNSPECIFIED.,.F.
  ,.F.,(3,3),(0.,1.),.PIECEWISE_BEZIER_KNOTS.);
#161 = CARTESIAN_POINT('',(17.008280254777,2.15449448842,7.67370759737)
  );
#162 = CARTESIAN_POINT('',(17.428662420382,2.20154948903,7.80299014902)
  );
#163 = CARTESIAN_POINT('',(17.921656050955,2.332954935179,8.164023645108
    ));
#164 = ORIENTED_EDGE('',*,*,#165,.F.);
#165 = EDGE_CURVE('',#166,#158,#168,.T.);
#166 = VERTEX_POINT('',#167);
#167 = CARTESIAN_POINT('',(17.921656050955,3.084709031808,7.890407530447
    ));
#168 = LINE('',#169,#170);
#169 = CARTESIAN_POINT('',(17.921656050955,3.084709031808,7.890407530447
    ));
#170 = VECTOR('',#171,1.);
#171 = DIRECTION('',(0.,-0.939692620786,0.342020143326));
#172 = ORIENTED_EDGE('',*,*,#173,.F.);
#173 = EDGE_CURVE('',#135,#166,#174,.T.);
#174 = B_SPLINE_CURVE_WITH_KNOTS('',2,(#175,#176,#177),.UNSPECIFIED.,.F.
  ,.F.,(3,3),(0.,1.),.PIECEWISE_BEZIER_KNOTS.);
#175 = CARTESIAN_POINT('',(17.008280254777,2.906248585048,7.40009148271)
  );
#176 = CARTESIAN_POINT('',(17.428662420382,2.953303585659,7.529374034359
    ));
#177 = CARTESIAN_POINT('',(17.921656050955,3.084709031808,7.890407530447
    ));
#178 = SURFACE_OF_LINEAR_EXTRUSION('',#179,#183);
#179 = B_SPLINE_CURVE_WITH_KNOTS('',2,(#180,#181,#182),.UNSPECIFIED.,.F.
  ,.F.,(3,3),(0.,1.),.PIECEWISE_BEZIER_KNOTS.);
#180 = CARTESIAN_POINT('',(17.008280254777,2.906248585048,7.40009148271)
  );
#181 = CARTESIAN_POINT('',(17.428662420382,2.953303585659,7.529374034359
    ));
#182 = CARTESIAN_POINT('',(17.921656050955,3.084709031808,7.890407530447
    ));
#183 = VECTOR('',#184,1.);
#184 = DIRECTION('',(-0.,0.939692620786,-0.342020143326));
#185 = ADVANCED_FACE('',(#186),#211,.T.);
#186 = FACE_BOUND('',#187,.T.);
#187 = EDGE_LOOP('',(#188,#189,#197,#205));
#188 = ORIENTED_EDGE('',*,*,#165,.T.);
#189 = ORIENTED_EDGE('',*,*,#190,.T.);
#190 = EDGE_CURVE('',#158,#191,#193,.T.);
#191 = VERTEX_POINT('',#192);
#192 = CARTESIAN_POINT('',(18.598089171975,2.639683828047,9.006754352157
    ));
#193 = B_SPLINE_CURVE_WITH_KNOTS('',2,(#194,#195,#196),.UNSPECIFIED.,.F.
  ,.F.,(3,3),(0.,1.),.PIECEWISE_BEZIER_KNOTS.);
#194 = CARTESIAN_POINT('',(17.921656050955,2.332954935179,8.164023645108
    ));
#195 = CARTESIAN_POINT('',(18.414649681529,2.464447520218,8.525296553329
    ));
#196 = CARTESIAN_POINT('',(18.598089171975,2.639683828047,9.006754352157
    ));
#197 = ORIENTED_EDGE('',*,*,#198,.F.);
#198 = EDGE_CURVE('',#199,#191,#201,.T.);
#199 = VERTEX_POINT('',#200);
#200 = CARTESIAN_POINT('',(18.598089171975,3.391437924676,8.733138237496
    ));
#201 = LINE('',#202,#203);
#202 = CARTESIAN_POINT('',(18.598089171975,3.391437924676,8.733138237496
    ));
#203 = VECTOR('',#204,1.);
#204 = DIRECTION('',(0.,-0.939692620786,0.342020143326));
#205 = ORIENTED_EDGE('',*,*,#206,.F.);
#206 = EDGE_CURVE('',#166,#199,#207,.T.);
#207 = B_SPLINE_CURVE_WITH_KNOTS('',2,(#208,#209,#210),.UNSPECIFIED.,.F.
  ,.F.,(3,3),(0.,1.),.PIECEWISE_BEZIER_KNOTS.);
#208 = CARTESIAN_POINT('',(17.921656050955,3.084709031808,7.890407530447
    ));
#209 = CARTESIAN_POINT('',(18.414649681529,3.216201616847,8.251680438668
    ));
#210 = CARTESIAN_POINT('',(18.598089171975,3.391437924676,8.733138237496
    ));
#211 = SURFACE_OF_LINEAR_EXTRUSION('',#212,#216);
#212 = B_SPLINE_CURVE_WITH_KNOTS('',2,(#213,#214,#215),.UNSPECIFIED.,.F.
  ,.F.,(3,3),(0.,1.),.PIECEWISE_BEZIER_KNOTS.);
#213 = CARTESIAN_POINT('',(17.921656050955,3.084709031808,7.890407530447
    ));
#214 = CARTESIAN_POINT('',(18.414649681529,3.216201616847,8.251680438668
    ));
#215 = CARTESIAN_POINT('',(18.598089171975,3.391437924676,8.733138237496
    ));
#216 = VECTOR('',#217,1.);
#217 = DIRECTION('',(-0.,0.939692620786,-0.342020143326));
#218 = ADVANCED_FACE('',(#219),#244,.T.);
#219 = FACE_BOUND('',#220,.T.);
#220 = EDGE_LOOP('',(#221,#222,#230,#238));
#221 = ORIENTED_EDGE('',*,*,#198,.T.);
#222 = ORIENTED_EDGE('',*,*,#223,.T.);
#223 = EDGE_CURVE('',#191,#224,#226,.T.);
#224 = VERTEX_POINT('',#225);
#225 = CARTESIAN_POINT('',(19.469426751592,2.639683828047,9.006754352157
    ));
#226 = LINE('',#227,#228);
#227 = CARTESIAN_POINT('',(18.598089171975,2.639683828047,9.006754352157
    ));
#228 = VECTOR('',#229,1.);
#229 = DIRECTION('',(1.,0.,0.));
#230 = ORIENTED_EDGE('',*,*,#231,.F.);
#231 = EDGE_CURVE('',#232,#224,#234,.T.);
#232 = VERTEX_POINT('',#233);
#233 = CARTESIAN_POINT('',(19.469426751592,3.391437924676,8.733138237496
    ));
#234 = LINE('',#235,#236);
#235 = CARTESIAN_POINT('',(19.469426751592,3.391437924676,8.733138237496
    ));
#236 = VECTOR('',#237,1.);
#237 = DIRECTION('',(0.,-0.939692620786,0.342020143326));
#238 = ORIENTED_EDGE('',*,*,#239,.F.);
#239 = EDGE_CURVE('',#199,#232,#240,.T.);
#240 = LINE('',#241,#242);
#241 = CARTESIAN_POINT('',(18.598089171975,3.391437924676,8.733138237496
    ));
#242 = VECTOR('',#243,1.);
#243 = DIRECTION('',(1.,0.,0.));
#244 = PLANE('',#245);
#245 = AXIS2_PLACEMENT_3D('',#246,#247,#248);
#246 = CARTESIAN_POINT('',(18.598089171975,3.391437924676,8.733138237496
    ));
#247 = DIRECTION('',(0.,0.342020143326,0.939692620786));
#248 = DIRECTION('',(1.,0.,0.));
#249 = ADVANCED_FACE('',(#250),#266,.T.);
#250 = FACE_BOUND('',#251,.T.);
#251 = EDGE_LOOP('',(#252,#253,#259,#260));
#252 = ORIENTED_EDGE('',*,*,#231,.T.);
#253 = ORIENTED_EDGE('',*,*,#254,.T.);
#254 = EDGE_CURVE('',#224,#24,#255,.T.);
#255 = LINE('',#256,#257);
#256 = CARTESIAN_POINT('',(19.469426751592,2.639683828047,9.006754352157
    ));
#257 = VECTOR('',#258,1.);
#258 = DIRECTION('',(0.,-0.342020143326,-0.939692620786));
#259 = ORIENTED_EDGE('',*,*,#21,.F.);
#260 = ORIENTED_EDGE('',*,*,#261,.F.);
#261 = EDGE_CURVE('',#232,#22,#262,.T.);
#262 = LINE('',#263,#264);
#263 = CARTESIAN_POINT('',(19.469426751592,3.391437924676,8.733138237496
    ));
#264 = VECTOR('',#265,1.);
#265 = DIRECTION('',(0.,-0.342020143326,-0.939692620786));
#266 = PLANE('',#267);
#267 = AXIS2_PLACEMENT_3D('',#268,#269,#270);
#268 = CARTESIAN_POINT('',(19.469426751592,3.391437924676,8.733138237496
    ));
#269 = DIRECTION('',(1.,0.,0.));
#270 = DIRECTION('',(0.,-0.342020143326,-0.939692620786));
#271 = ADVANCED_FACE('',(#272),#282,.F.);
#272 = FACE_BOUND('',#273,.T.);
#273 = EDGE_LOOP('',(#274,#275,#276,#277,#278,#279,#280,#281));
#274 = ORIENTED_EDGE('',*,*,#47,.T.);
#275 = ORIENTED_EDGE('',*,*,#78,.T.);
#276 = ORIENTED_EDGE('',*,*,#109,.T.);
#277 = ORIENTED_EDGE('',*,*,#142,.T.);
#278 = ORIENTED_EDGE('',*,*,#173,.T.);
#279 = ORIENTED_EDGE('',*,*,#206,.T.);
#280 = ORIENTED_EDGE('',*,*,#239,.T.);
#281 = ORIENTED_EDGE('',*,*,#261,.T.);
#282 = PLANE('',#283);
#283 = AXIS2_PLACEMENT_3D('',#284,#285,#286);
#284 = CARTESIAN_POINT('',(18.618137903558,2.484916324519,6.242490610816
    ));
#285 = DIRECTION('',(0.,-0.939692620786,0.342020143326));
#286 = DIRECTION('',(1.,0.,0.));
#287 = ADVANCED_FACE('',(#288),#298,.T.);
#288 = FACE_BOUND('',#289,.F.);
#289 = EDGE_LOOP('',(#290,#291,#292,#293,#294,#295,#296,#297));
#290 = ORIENTED_EDGE('',*,*,#31,.T.);
#291 = ORIENTED_EDGE('',*,*,#62,.T.);
#292 = ORIENTED_EDGE('',*,*,#93,.T.);
#293 = ORIENTED_EDGE('',*,*,#126,.T.);
#294 = ORIENTED_EDGE('',*,*,#157,.T.);
#295 = ORIENTED_EDGE('',*,*,#190,.T.);
#296 = ORIENTED_EDGE('',*,*,#223,.T.);
#297 = ORIENTED_EDGE('',*,*,#254,.T.);
#298 = PLANE('',#299);
#299 = AXIS2_PLACEMENT_3D('',#300,#301,#302);
#300 = CARTESIAN_POINT('',(18.618137903558,1.73316222789,6.516106725477)
  );
#301 = DIRECTION('',(0.,-0.939692620786,0.342020143326));
#302 = DIRECTION('',(1.,0.,0.));
#303 = MANIFOLD_SOLID_BREP('',#304);
#304 = CLOSED_SHELL('',(#305,#345,#376,#407,#429,#441));
#305 = ADVANCED_FACE('',(#306),#340,.T.);
#306 = FACE_BOUND('',#307,.T.);
#307 = EDGE_LOOP('',(#308,#318,#326,#334));
#308 = ORIENTED_EDGE('',*,*,#309,.T.);
#309 = EDGE_CURVE('',#310,#312,#314,.T.);
#310 = VERTEX_POINT('',#311);
#311 = CARTESIAN_POINT('',(20.731337579618,1.428373010321,3.339661712384
    ));
#312 = VERTEX_POINT('',#313);
#313 = CARTESIAN_POINT('',(20.731337579618,0.676618913693,3.613277827045
    ));
#314 = LINE('',#315,#316);
#315 = CARTESIAN_POINT('',(20.731337579618,1.428373010321,3.339661712384
    ));
#316 = VECTOR('',#317,1.);
#317 = DIRECTION('',(0.,-0.939692620786,0.342020143326));
#318 = ORIENTED_EDGE('',*,*,#319,.T.);
#319 = EDGE_CURVE('',#312,#320,#322,.T.);
#320 = VERTEX_POINT('',#321);
#321 = CARTESIAN_POINT('',(22.118598726115,2.656414494931,9.052721481632
    ));
#322 = LINE('',#323,#324);
#323 = CARTESIAN_POINT('',(20.731337579618,0.676618913693,3.613277827045
    ));
#324 = VECTOR('',#325,1.);
#325 = DIRECTION('',(0.233057266823,0.332601938861,0.913816316689));
#326 = ORIENTED_EDGE('',*,*,#327,.F.);
#327 = EDGE_CURVE('',#328,#320,#330,.T.);
#328 = VERTEX_POINT('',#329);
#329 = CARTESIAN_POINT('',(22.118598726115,3.408168591559,8.779105366972
    ));
#330 = LINE('',#331,#332);
#331 = CARTESIAN_POINT('',(22.118598726115,3.408168591559,8.779105366972
    ));
#332 = VECTOR('',#333,1.);
#333 = DIRECTION('',(0.,-0.939692620786,0.342020143326));
#334 = ORIENTED_EDGE('',*,*,#335,.F.);
#335 = EDGE_CURVE('',#310,#328,#336,.T.);
#336 = LINE('',#337,#338);
#337 = CARTESIAN_POINT('',(20.731337579618,1.428373010321,3.339661712384
    ));
#338 = VECTOR('',#339,1.);
#339 = DIRECTION('',(0.233057266823,0.332601938861,0.913816316689));
#340 = PLANE('',#341);
#341 = AXIS2_PLACEMENT_3D('',#342,#343,#344);
#342 = CARTESIAN_POINT('',(20.731337579618,1.428373010321,3.339661712384
    ));
#343 = DIRECTION('',(-0.972463012346,7.971027980197E-02,0.219002193854)
  );
#344 = DIRECTION('',(0.233057266823,0.332601938861,0.913816316689));
#345 = ADVANCED_FACE('',(#346),#371,.T.);
#346 = FACE_BOUND('',#347,.T.);
#347 = EDGE_LOOP('',(#348,#349,#357,#365));
#348 = ORIENTED_EDGE('',*,*,#327,.T.);
#349 = ORIENTED_EDGE('',*,*,#350,.T.);
#350 = EDGE_CURVE('',#320,#351,#353,.T.);
#351 = VERTEX_POINT('',#352);
#352 = CARTESIAN_POINT('',(22.924968152866,2.656414494931,9.052721481632
    ));
#353 = LINE('',#354,#355);
#354 = CARTESIAN_POINT('',(22.118598726115,2.656414494931,9.052721481632
    ));
#355 = VECTOR('',#356,1.);
#356 = DIRECTION('',(1.,0.,0.));
#357 = ORIENTED_EDGE('',*,*,#358,.F.);
#358 = EDGE_CURVE('',#359,#351,#361,.T.);
#359 = VERTEX_POINT('',#360);
#360 = CARTESIAN_POINT('',(22.924968152866,3.408168591559,8.779105366972
    ));
#361 = LINE('',#362,#363);
#362 = CARTESIAN_POINT('',(22.924968152866,3.408168591559,8.779105366972
    ));
#363 = VECTOR('',#364,1.);
#364 = DIRECTION('',(0.,-0.939692620786,0.342020143326));
#365 = ORIENTED_EDGE('',*,*,#366,.F.);
#366 = EDGE_CURVE('',#328,#359,#367,.T.);
#367 = LINE('',#368,#369);
#368 = CARTESIAN_POINT('',(22.118598726115,3.408168591559,8.779105366972
    ));
#369 = VECTOR('',#370,1.);
#370 = DIRECTION('',(1.,0.,0.));
#371 = PLANE('',#372);
#372 = AXIS2_PLACEMENT_3D('',#373,#374,#375);
#373 = CARTESIAN_POINT('',(22.118598726115,3.408168591559,8.779105366972
    ));
#374 = DIRECTION('',(0.,0.342020143326,0.939692620786));
#375 = DIRECTION('',(1.,0.,0.));
#376 = ADVANCED_FACE('',(#377),#402,.T.);
#377 = FACE_BOUND('',#378,.T.);
#378 = EDGE_LOOP('',(#379,#380,#388,#396));
#379 = ORIENTED_EDGE('',*,*,#358,.T.);
#380 = ORIENTED_EDGE('',*,*,#381,.T.);
#381 = EDGE_CURVE('',#351,#382,#384,.T.);
#382 = VERTEX_POINT('',#383);
#383 = CARTESIAN_POINT('',(21.522420382166,0.676618913693,3.613277827045
    ));
#384 = LINE('',#385,#386);
#385 = CARTESIAN_POINT('',(22.924968152866,2.656414494931,9.052721481632
    ));
#386 = VECTOR('',#387,1.);
#387 = DIRECTION('',(-0.235483715343,-0.332401953666,-0.913266861879));
#388 = ORIENTED_EDGE('',*,*,#389,.F.);
#389 = EDGE_CURVE('',#390,#382,#392,.T.);
#390 = VERTEX_POINT('',#391);
#391 = CARTESIAN_POINT('',(21.522420382166,1.428373010321,3.339661712384
    ));
#392 = LINE('',#393,#394);
#393 = CARTESIAN_POINT('',(21.522420382166,1.428373010321,3.339661712384
    ));
#394 = VECTOR('',#395,1.);
#395 = DIRECTION('',(0.,-0.939692620786,0.342020143326));
#396 = ORIENTED_EDGE('',*,*,#397,.F.);
#397 = EDGE_CURVE('',#359,#390,#398,.T.);
#398 = LINE('',#399,#400);
#399 = CARTESIAN_POINT('',(22.924968152866,3.408168591559,8.779105366972
    ));
#400 = VECTOR('',#401,1.);
#401 = DIRECTION('',(-0.235483715343,-0.332401953666,-0.913266861879));
#402 = PLANE('',#403);
#403 = AXIS2_PLACEMENT_3D('',#404,#405,#406);
#404 = CARTESIAN_POINT('',(22.924968152866,3.408168591559,8.779105366972
    ));
#405 = DIRECTION('',(0.971878294751,-8.054017407264E-02,-0.221282309624)
  );
#406 = DIRECTION('',(-0.235483715343,-0.332401953666,-0.913266861879));
#407 = ADVANCED_FACE('',(#408),#424,.T.);
#408 = FACE_BOUND('',#409,.T.);
#409 = EDGE_LOOP('',(#410,#411,#417,#418));
#410 = ORIENTED_EDGE('',*,*,#389,.T.);
#411 = ORIENTED_EDGE('',*,*,#412,.T.);
#412 = EDGE_CURVE('',#382,#312,#413,.T.);
#413 = LINE('',#414,#415);
#414 = CARTESIAN_POINT('',(21.522420382166,0.676618913693,3.613277827045
    ));
#415 = VECTOR('',#416,1.);
#416 = DIRECTION('',(-1.,0.,0.));
#417 = ORIENTED_EDGE('',*,*,#309,.F.);
#418 = ORIENTED_EDGE('',*,*,#419,.F.);
#419 = EDGE_CURVE('',#390,#310,#420,.T.);
#420 = LINE('',#421,#422);
#421 = CARTESIAN_POINT('',(21.522420382166,1.428373010321,3.339661712384
    ));
#422 = VECTOR('',#423,1.);
#423 = DIRECTION('',(-1.,0.,0.));
#424 = PLANE('',#425);
#425 = AXIS2_PLACEMENT_3D('',#426,#427,#428);
#426 = CARTESIAN_POINT('',(21.522420382166,1.428373010321,3.339661712384
    ));
#427 = DIRECTION('',(0.,-0.342020143326,-0.939692620786));
#428 = DIRECTION('',(-1.,0.,0.));
#429 = ADVANCED_FACE('',(#430),#436,.F.);
#430 = FACE_BOUND('',#431,.T.);
#431 = EDGE_LOOP('',(#432,#433,#434,#435));
#432 = ORIENTED_EDGE('',*,*,#335,.T.);
#433 = ORIENTED_EDGE('',*,*,#366,.T.);
#434 = ORIENTED_EDGE('',*,*,#397,.T.);
#435 = ORIENTED_EDGE('',*,*,#419,.T.);
#436 = PLANE('',#437);
#437 = AXIS2_PLACEMENT_3D('',#438,#439,#440);
#438 = CARTESIAN_POINT('',(21.825226512825,2.41939121229,6.062461844562)
  );
#439 = DIRECTION('',(0.,-0.939692620786,0.342020143326));
#440 = DIRECTION('',(1.,0.,0.));
#441 = ADVANCED_FACE('',(#442),#448,.T.);
#442 = FACE_BOUND('',#443,.F.);
#443 = EDGE_LOOP('',(#444,#445,#446,#447));
#444 = ORIENTED_EDGE('',*,*,#319,.T.);
#445 = ORIENTED_EDGE('',*,*,#350,.T.);
#446 = ORIENTED_EDGE('',*,*,#381,.T.);
#447 = ORIENTED_EDGE('',*,*,#412,.T.);
#448 = PLANE('',#449);
#449 = AXIS2_PLACEMENT_3D('',#450,#451,#452);
#450 = CARTESIAN_POINT('',(21.825226512825,1.667637115662,6.336077959222
    ));
#451 = DIRECTION('',(0.,-0.939692620786,0.342020143326));
#452 = DIRECTION('',(1.,0.,0.));
#453 = MANIFOLD_SOLID_BREP('',#454);
#454 = CLOSED_SHELL('',(#455,#495,#526,#559,#590,#623,#656,#687,#709,
    #725));
#455 = ADVANCED_FACE('',(#456),#490,.T.);
#456 = FACE_BOUND('',#457,.T.);
#457 = EDGE_LOOP('',(#458,#468,#476,#484));
#458 = ORIENTED_EDGE('',*,*,#459,.T.);
#459 = EDGE_CURVE('',#460,#462,#464,.T.);
#460 = VERTEX_POINT('',#461);
#461 = CARTESIAN_POINT('',(25.991719745223,1.461834344089,3.431595971335
    ));
#462 = VERTEX_POINT('',#463);
#463 = CARTESIAN_POINT('',(25.991719745223,0.71008024746,3.705212085995)
  );
#464 = LINE('',#465,#466);
#465 = CARTESIAN_POINT('',(25.991719745223,1.461834344089,3.431595971335
    ));
#466 = VECTOR('',#467,1.);
#467 = DIRECTION('',(0.,-0.939692620786,0.342020143326));
#468 = ORIENTED_EDGE('',*,*,#469,.T.);
#469 = EDGE_CURVE('',#462,#470,#472,.T.);
#470 = VERTEX_POINT('',#471);
#471 = CARTESIAN_POINT('',(24.917834394904,0.71008024746,3.705212085995)
  );
#472 = LINE('',#473,#474);
#473 = CARTESIAN_POINT('',(25.991719745223,0.71008024746,3.705212085995)
  );
#474 = VECTOR('',#475,1.);
#475 = DIRECTION('',(-1.,0.,0.));
#476 = ORIENTED_EDGE('',*,*,#477,.F.);
#477 = EDGE_CURVE('',#478,#470,#480,.T.);
#478 = VERTEX_POINT('',#479);
#479 = CARTESIAN_POINT('',(24.917834394904,1.461834344089,3.431595971335
    ));
#480 = LINE('',#481,#482);
#481 = CARTESIAN_POINT('',(24.917834394904,1.461834344089,3.431595971335
    ));
#482 = VECTOR('',#483,1.);
#483 = DIRECTION('',(0.,-0.939692620786,0.342020143326));
#484 = ORIENTED_EDGE('',*,*,#485,.F.);
#485 = EDGE_CURVE('',#460,#478,#486,.T.);
#486 = LINE('',#487,#488);
#487 = CARTESIAN_POINT('',(25.991719745223,1.461834344089,3.431595971335
    ));
#488 = VECTOR('',#489,1.);
#489 = DIRECTION('',(-1.,0.,0.));
#490 = PLANE('',#491);
#491 = AXIS2_PLACEMENT_3D('',#492,#493,#494);
#492 = CARTESIAN_POINT('',(25.991719745223,1.461834344089,3.431595971335
    ));
#493 = DIRECTION('',(0.,-0.342020143326,-0.939692620786));
#494 = DIRECTION('',(-1.,0.,0.));
#495 = ADVANCED_FACE('',(#496),#521,.T.);
#496 = FACE_BOUND('',#497,.T.);
#497 = EDGE_LOOP('',(#498,#499,#507,#515));
#498 = ORIENTED_EDGE('',*,*,#477,.T.);
#499 = ORIENTED_EDGE('',*,*,#500,.T.);
#500 = EDGE_CURVE('',#470,#501,#503,.T.);
#501 = VERTEX_POINT('',#502);
#502 = CARTESIAN_POINT('',(24.917834394904,2.099422709928,7.522399129514
    ));
#503 = LINE('',#504,#505);
#504 = CARTESIAN_POINT('',(24.917834394904,0.71008024746,3.705212085995)
  );
#505 = VECTOR('',#506,1.);
#506 = DIRECTION('',(0.,0.342020143326,0.939692620786));
#507 = ORIENTED_EDGE('',*,*,#508,.F.);
#508 = EDGE_CURVE('',#509,#501,#511,.T.);
#509 = VERTEX_POINT('',#510);
#510 = CARTESIAN_POINT('',(24.917834394904,2.851176806556,7.248783014853
    ));
#511 = LINE('',#512,#513);
#512 = CARTESIAN_POINT('',(24.917834394904,2.851176806556,7.248783014853
    ));
#513 = VECTOR('',#514,1.);
#514 = DIRECTION('',(0.,-0.939692620786,0.342020143326));
#515 = ORIENTED_EDGE('',*,*,#516,.F.);
#516 = EDGE_CURVE('',#478,#509,#517,.T.);
#517 = LINE('',#518,#519);
#518 = CARTESIAN_POINT('',(24.917834394904,1.461834344089,3.431595971335
    ));
#519 = VECTOR('',#520,1.);
#520 = DIRECTION('',(0.,0.342020143326,0.939692620786));
#521 = PLANE('',#522);
#522 = AXIS2_PLACEMENT_3D('',#523,#524,#525);
#523 = CARTESIAN_POINT('',(24.917834394904,1.461834344089,3.431595971335
    ));
#524 = DIRECTION('',(-1.,0.,0.));
#525 = DIRECTION('',(0.,0.342020143326,0.939692620786));
#526 = ADVANCED_FACE('',(#527),#552,.T.);
#527 = FACE_BOUND('',#528,.T.);
#528 = EDGE_LOOP('',(#529,#530,#538,#546));
#529 = ORIENTED_EDGE('',*,*,#508,.T.);
#530 = ORIENTED_EDGE('',*,*,#531,.T.);
#531 = EDGE_CURVE('',#501,#532,#534,.T.);
#532 = VERTEX_POINT('',#533);
#533 = CARTESIAN_POINT('',(23.530573248408,1.819881150746,6.754365007863
    ));
#534 = B_SPLINE_CURVE_WITH_KNOTS('',2,(#535,#536,#537),.UNSPECIFIED.,.F.
  ,.F.,(3,3),(0.,1.),.PIECEWISE_BEZIER_KNOTS.);
#535 = CARTESIAN_POINT('',(24.917834394904,2.099422709928,7.522399129514
    ));
#536 = CARTESIAN_POINT('',(24.329299363057,1.910418457476,7.003114213722
    ));
#537 = CARTESIAN_POINT('',(23.530573248408,1.819881150746,6.754365007863
    ));
#538 = ORIENTED_EDGE('',*,*,#539,.F.);
#539 = EDGE_CURVE('',#540,#532,#542,.T.);
#540 = VERTEX_POINT('',#541);
#541 = CARTESIAN_POINT('',(23.530573248408,2.571635247374,6.480748893202
    ));
#542 = LINE('',#543,#544);
#543 = CARTESIAN_POINT('',(23.530573248408,2.571635247374,6.480748893202
    ));
#544 = VECTOR('',#545,1.);
#545 = DIRECTION('',(0.,-0.939692620786,0.342020143326));
#546 = ORIENTED_EDGE('',*,*,#547,.F.);
#547 = EDGE_CURVE('',#509,#540,#548,.T.);
#548 = B_SPLINE_CURVE_WITH_KNOTS('',2,(#549,#550,#551),.UNSPECIFIED.,.F.
  ,.F.,(3,3),(0.,1.),.PIECEWISE_BEZIER_KNOTS.);
#549 = CARTESIAN_POINT('',(24.917834394904,2.851176806556,7.248783014853
    ));
#550 = CARTESIAN_POINT('',(24.329299363057,2.662172554104,6.729498099061
    ));
#551 = CARTESIAN_POINT('',(23.530573248408,2.571635247374,6.480748893202
    ));
#552 = SURFACE_OF_LINEAR_EXTRUSION('',#553,#557);
#553 = B_SPLINE_CURVE_WITH_KNOTS('',2,(#554,#555,#556),.UNSPECIFIED.,.F.
  ,.F.,(3,3),(0.,1.),.PIECEWISE_BEZIER_KNOTS.);
#554 = CARTESIAN_POINT('',(24.917834394904,2.851176806556,7.248783014853
    ));
#555 = CARTESIAN_POINT('',(24.329299363057,2.662172554104,6.729498099061
    ));
#556 = CARTESIAN_POINT('',(23.530573248408,2.571635247374,6.480748893202
    ));
#557 = VECTOR('',#558,1.);
#558 = DIRECTION('',(-0.,0.939692620786,-0.342020143326));
#559 = ADVANCED_FACE('',(#560),#585,.T.);
#560 = FACE_BOUND('',#561,.T.);
#561 = EDGE_LOOP('',(#562,#563,#571,#579));
#562 = ORIENTED_EDGE('',*,*,#539,.T.);
#563 = ORIENTED_EDGE('',*,*,#564,.T.);
#564 = EDGE_CURVE('',#532,#565,#567,.T.);
#565 = VERTEX_POINT('',#566);
#566 = CARTESIAN_POINT('',(23.530573248408,2.15449448842,7.67370759737)
  );
#567 = LINE('',#568,#569);
#568 = CARTESIAN_POINT('',(23.530573248408,1.819881150746,6.754365007863
    ));
#569 = VECTOR('',#570,1.);
#570 = DIRECTION('',(0.,0.342020143326,0.939692620786));
#571 = ORIENTED_EDGE('',*,*,#572,.F.);
#572 = EDGE_CURVE('',#573,#565,#575,.T.);
#573 = VERTEX_POINT('',#574);
#574 = CARTESIAN_POINT('',(23.530573248408,2.906248585048,7.40009148271)
  );
#575 = LINE('',#576,#577);
#576 = CARTESIAN_POINT('',(23.530573248408,2.906248585048,7.40009148271)
  );
#577 = VECTOR('',#578,1.);
#578 = DIRECTION('',(0.,-0.939692620786,0.342020143326));
#579 = ORIENTED_EDGE('',*,*,#580,.F.);
#580 = EDGE_CURVE('',#540,#573,#581,.T.);
#581 = LINE('',#582,#583);
#582 = CARTESIAN_POINT('',(23.530573248408,2.571635247374,6.480748893202
    ));
#583 = VECTOR('',#584,1.);
#584 = DIRECTION('',(0.,0.342020143326,0.939692620786));
#585 = PLANE('',#586);
#586 = AXIS2_PLACEMENT_3D('',#587,#588,#589);
#587 = CARTESIAN_POINT('',(23.530573248408,2.571635247374,6.480748893202
    ));
#588 = DIRECTION('',(-1.,0.,0.));
#589 = DIRECTION('',(0.,0.342020143326,0.939692620786));
#590 = ADVANCED_FACE('',(#591),#616,.T.);
#591 = FACE_BOUND('',#592,.T.);
#592 = EDGE_LOOP('',(#593,#594,#602,#610));
#593 = ORIENTED_EDGE('',*,*,#572,.T.);
#594 = ORIENTED_EDGE('',*,*,#595,.T.);
#595 = EDGE_CURVE('',#565,#596,#598,.T.);
#596 = VERTEX_POINT('',#597);
#597 = CARTESIAN_POINT('',(24.443949044586,2.332954935179,8.164023645108
    ));
#598 = B_SPLINE_CURVE_WITH_KNOTS('',2,(#599,#600,#601),.UNSPECIFIED.,.F.
  ,.F.,(3,3),(0.,1.),.PIECEWISE_BEZIER_KNOTS.);
#599 = CARTESIAN_POINT('',(23.530573248408,2.15449448842,7.67370759737)
  );
#600 = CARTESIAN_POINT('',(23.950955414013,2.20154948903,7.80299014902)
  );
#601 = CARTESIAN_POINT('',(24.443949044586,2.332954935179,8.164023645108
    ));
#602 = ORIENTED_EDGE('',*,*,#603,.F.);
#603 = EDGE_CURVE('',#604,#596,#606,.T.);
#604 = VERTEX_POINT('',#605);
#605 = CARTESIAN_POINT('',(24.443949044586,3.084709031808,7.890407530447
    ));
#606 = LINE('',#607,#608);
#607 = CARTESIAN_POINT('',(24.443949044586,3.084709031808,7.890407530447
    ));
#608 = VECTOR('',#609,1.);
#609 = DIRECTION('',(0.,-0.939692620786,0.342020143326));
#610 = ORIENTED_EDGE('',*,*,#611,.F.);
#611 = EDGE_CURVE('',#573,#604,#612,.T.);
#612 = B_SPLINE_CURVE_WITH_KNOTS('',2,(#613,#614,#615),.UNSPECIFIED.,.F.
  ,.F.,(3,3),(0.,1.),.PIECEWISE_BEZIER_KNOTS.);
#613 = CARTESIAN_POINT('',(23.530573248408,2.906248585048,7.40009148271)
  );
#614 = CARTESIAN_POINT('',(23.950955414013,2.953303585659,7.529374034359
    ));
#615 = CARTESIAN_POINT('',(24.443949044586,3.084709031808,7.890407530447
    ));
#616 = SURFACE_OF_LINEAR_EXTRUSION('',#617,#621);
#617 = B_SPLINE_CURVE_WITH_KNOTS('',2,(#618,#619,#620),.UNSPECIFIED.,.F.
  ,.F.,(3,3),(0.,1.),.PIECEWISE_BEZIER_KNOTS.);
#618 = CARTESIAN_POINT('',(23.530573248408,2.906248585048,7.40009148271)
  );
#619 = CARTESIAN_POINT('',(23.950955414013,2.953303585659,7.529374034359
    ));
#620 = CARTESIAN_POINT('',(24.443949044586,3.084709031808,7.890407530447
    ));
#621 = VECTOR('',#622,1.);
#622 = DIRECTION('',(-0.,0.939692620786,-0.342020143326));
#623 = ADVANCED_FACE('',(#624),#649,.T.);
#624 = FACE_BOUND('',#625,.T.);
#625 = EDGE_LOOP('',(#626,#627,#635,#643));
#626 = ORIENTED_EDGE('',*,*,#603,.T.);
#627 = ORIENTED_EDGE('',*,*,#628,.T.);
#628 = EDGE_CURVE('',#596,#629,#631,.T.);
#629 = VERTEX_POINT('',#630);
#630 = CARTESIAN_POINT('',(25.120382165605,2.639683828047,9.006754352157
    ));
#631 = B_SPLINE_CURVE_WITH_KNOTS('',2,(#632,#633,#634),.UNSPECIFIED.,.F.
  ,.F.,(3,3),(0.,1.),.PIECEWISE_BEZIER_KNOTS.);
#632 = CARTESIAN_POINT('',(24.443949044586,2.332954935179,8.164023645108
    ));
#633 = CARTESIAN_POINT('',(24.936942675159,2.464447520218,8.525296553329
    ));
#634 = CARTESIAN_POINT('',(25.120382165605,2.639683828047,9.006754352157
    ));
#635 = ORIENTED_EDGE('',*,*,#636,.F.);
#636 = EDGE_CURVE('',#637,#629,#639,.T.);
#637 = VERTEX_POINT('',#638);
#638 = CARTESIAN_POINT('',(25.120382165605,3.391437924676,8.733138237496
    ));
#639 = LINE('',#640,#641);
#640 = CARTESIAN_POINT('',(25.120382165605,3.391437924676,8.733138237496
    ));
#641 = VECTOR('',#642,1.);
#642 = DIRECTION('',(0.,-0.939692620786,0.342020143326));
#643 = ORIENTED_EDGE('',*,*,#644,.F.);
#644 = EDGE_CURVE('',#604,#637,#645,.T.);
#645 = B_SPLINE_CURVE_WITH_KNOTS('',2,(#646,#647,#648),.UNSPECIFIED.,.F.
  ,.F.,(3,3),(0.,1.),.PIECEWISE_BEZIER_KNOTS.);
#646 = CARTESIAN_POINT('',(24.443949044586,3.084709031808,7.890407530447
    ));
#647 = CARTESIAN_POINT('',(24.936942675159,3.216201616847,8.251680438668
    ));
#648 = CARTESIAN_POINT('',(25.120382165605,3.391437924676,8.733138237496
    ));
#649 = SURFACE_OF_LINEAR_EXTRUSION('',#650,#654);
#650 = B_SPLINE_CURVE_WITH_KNOTS('',2,(#651,#652,#653),.UNSPECIFIED.,.F.
  ,.F.,(3,3),(0.,1.),.PIECEWISE_BEZIER_KNOTS.);
#651 = CARTESIAN_POINT('',(24.443949044586,3.084709031808,7.890407530447
    ));
#652 = CARTESIAN_POINT('',(24.936942675159,3.216201616847,8.251680438668
    ));
#653 = CARTESIAN_POINT('',(25.120382165605,3.391437924676,8.733138237496
    ));
#654 = VECTOR('',#655,1.);
#655 = DIRECTION('',(-0.,0.939692620786,-0.342020143326));
#656 = ADVANCED_FACE('',(#657),#682,.T.);
#657 = FACE_BOUND('',#658,.T.);
#658 = EDGE_LOOP('',(#659,#660,#668,#676));
#659 = ORIENTED_EDGE('',*,*,#636,.T.);
#660 = ORIENTED_EDGE('',*,*,#661,.T.);
#661 = EDGE_CURVE('',#629,#662,#664,.T.);
#662 = VERTEX_POINT('',#663);
#663 = CARTESIAN_POINT('',(25.991719745223,2.639683828047,9.006754352157
    ));
#664 = LINE('',#665,#666);
#665 = CARTESIAN_POINT('',(25.120382165605,2.639683828047,9.006754352157
    ));
#666 = VECTOR('',#667,1.);
#667 = DIRECTION('',(1.,0.,0.));
#668 = ORIENTED_EDGE('',*,*,#669,.F.);
#669 = EDGE_CURVE('',#670,#662,#672,.T.);
#670 = VERTEX_POINT('',#671);
#671 = CARTESIAN_POINT('',(25.991719745223,3.391437924676,8.733138237496
    ));
#672 = LINE('',#673,#674);
#673 = CARTESIAN_POINT('',(25.991719745223,3.391437924676,8.733138237496
    ));
#674 = VECTOR('',#675,1.);
#675 = DIRECTION('',(0.,-0.939692620786,0.342020143326));
#676 = ORIENTED_EDGE('',*,*,#677,.F.);
#677 = EDGE_CURVE('',#637,#670,#678,.T.);
#678 = LINE('',#679,#680);
#679 = CARTESIAN_POINT('',(25.120382165605,3.391437924676,8.733138237496
    ));
#680 = VECTOR('',#681,1.);
#681 = DIRECTION('',(1.,0.,0.));
#682 = PLANE('',#683);
#683 = AXIS2_PLACEMENT_3D('',#684,#685,#686);
#684 = CARTESIAN_POINT('',(25.120382165605,3.391437924676,8.733138237496
    ));
#685 = DIRECTION('',(0.,0.342020143326,0.939692620786));
#686 = DIRECTION('',(1.,0.,0.));
#687 = ADVANCED_FACE('',(#688),#704,.T.);
#688 = FACE_BOUND('',#689,.T.);
#689 = EDGE_LOOP('',(#690,#691,#697,#698));
#690 = ORIENTED_EDGE('',*,*,#669,.T.);
#691 = ORIENTED_EDGE('',*,*,#692,.T.);
#692 = EDGE_CURVE('',#662,#462,#693,.T.);
#693 = LINE('',#694,#695);
#694 = CARTESIAN_POINT('',(25.991719745223,2.639683828047,9.006754352157
    ));
#695 = VECTOR('',#696,1.);
#696 = DIRECTION('',(0.,-0.342020143326,-0.939692620786));
#697 = ORIENTED_EDGE('',*,*,#459,.F.);
#698 = ORIENTED_EDGE('',*,*,#699,.F.);
#699 = EDGE_CURVE('',#670,#460,#700,.T.);
#700 = LINE('',#701,#702);
#701 = CARTESIAN_POINT('',(25.991719745223,3.391437924676,8.733138237496
    ));
#702 = VECTOR('',#703,1.);
#703 = DIRECTION('',(0.,-0.342020143326,-0.939692620786));
#704 = PLANE('',#705);
#705 = AXIS2_PLACEMENT_3D('',#706,#707,#708);
#706 = CARTESIAN_POINT('',(25.991719745223,3.391437924676,8.733138237496
    ));
#707 = DIRECTION('',(1.,0.,0.));
#708 = DIRECTION('',(0.,-0.342020143326,-0.939692620786));
#709 = ADVANCED_FACE('',(#710),#720,.F.);
#710 = FACE_BOUND('',#711,.T.);
#711 = EDGE_LOOP('',(#712,#713,#714,#715,#716,#717,#718,#719));
#712 = ORIENTED_EDGE('',*,*,#485,.T.);
#713 = ORIENTED_EDGE('',*,*,#516,.T.);
#714 = ORIENTED_EDGE('',*,*,#547,.T.);
#715 = ORIENTED_EDGE('',*,*,#580,.T.);
#716 = ORIENTED_EDGE('',*,*,#611,.T.);
#717 = ORIENTED_EDGE('',*,*,#644,.T.);
#718 = ORIENTED_EDGE('',*,*,#677,.T.);
#719 = ORIENTED_EDGE('',*,*,#699,.T.);
#720 = PLANE('',#721);
#721 = AXIS2_PLACEMENT_3D('',#722,#723,#724);
#722 = CARTESIAN_POINT('',(25.140430897189,2.484916324519,6.242490610816
    ));
#723 = DIRECTION('',(0.,-0.939692620786,0.342020143326));
#724 = DIRECTION('',(1.,0.,0.));
#725 = ADVANCED_FACE('',(#726),#736,.T.);
#726 = FACE_BOUND('',#727,.F.);
#727 = EDGE_LOOP('',(#728,#729,#730,#731,#732,#733,#734,#735));
#728 = ORIENTED_EDGE('',*,*,#469,.T.);
#729 = ORIENTED_EDGE('',*,*,#500,.T.);
#730 = ORIENTED_EDGE('',*,*,#531,.T.);
#731 = ORIENTED_EDGE('',*,*,#564,.T.);
#732 = ORIENTED_EDGE('',*,*,#595,.T.);
#733 = ORIENTED_EDGE('',*,*,#628,.T.);
#734 = ORIENTED_EDGE('',*,*,#661,.T.);
#735 = ORIENTED_EDGE('',*,*,#692,.T.);
#736 = PLANE('',#737);
#737 = AXIS2_PLACEMENT_3D('',#738,#739,#740);
#738 = CARTESIAN_POINT('',(25.140430897189,1.73316222789,6.516106725477)
  );
#739 = DIRECTION('',(0.,-0.939692620786,0.342020143326));
#740 = DIRECTION('',(1.,0.,0.));
#741 = ( GEOMETRIC_REPRESENTATION_CONTEXT(3) 
GLOBAL_UNCERTAINTY_ASSIGNED_CONTEXT((#745)) GLOBAL_UNIT_ASSIGNED_CONTEXT
((#742,#743,#744)) REPRESENTATION_CONTEXT('Context #1',
  '3D Context with UNIT and UNCERTAINTY') );
#742 = ( LENGTH_UNIT() NAMED_UNIT(*) SI_UNIT(.MILLI.,.METRE.) );
#743 = ( NAMED_UNIT(*) PLANE_ANGLE_UNIT() SI_UNIT($,.RADIAN.) );
#744 = ( NAMED_UNIT(*) SI_UNIT($,.STERADIAN.) SOLID_ANGLE_UNIT() );
#745 = UNCERTAINTY_MEASURE_WITH_UNIT(LENGTH_MEASURE(1.E-07),#742,
  'distance_accuracy_value','confusion accuracy');
#746 = PRODUCT_RELATED_PRODUCT_CATEGORY('part',$,(#7));
ENDSEC;
END-ISO-10303-21;
