ISO-10303-21;
HEADER;
FILE_DESCRIPTION(('FreeCAD Model'),'2;1');
FILE_NAME('Open CASCADE Shape Model','2026-09-04T10:53:08',('FreeCAD'),(
    'FreeCAD'),'Open CASCADE STEP processor 7.8','FreeCAD','Unknown');
FILE_SCHEMA(('AUTOMOTIVE_DESIGN { 1 0 10303 214 1 1 1 1 }'));
ENDSEC;
DATA;
#1 = APPLICATION_PROTOCOL_DEFINITION('international standard',
  'automotive_design',2000,#2);
#2 = APPLICATION_CONTEXT(
  'core data for automotive mechanical design processes');
#3 = SHAPE_DEFINITION_REPRESENTATION(#4,#10);
#4 = PRODUCT_DEFINITION_SHAPE('','',#5);
#5 = PRODUCT_DEFINITION('design','',#6,#9);
#6 = PRODUCT_DEFINITION_FORMATION('','',#7);
#7 = PRODUCT('Open CASCADE STEP translator 7.8 5',
  'Open CASCADE STEP translator 7.8 5','',(#8));
#8 = PRODUCT_CONTEXT('',#2,'mechanical');
#9 = PRODUCT_DEFINITION_CONTEXT('part definition',#2,'design');
#10 = ADVANCED_BREP_SHAPE_REPRESENTATION('',(#11,#15),#1145);
#11 = AXIS2_PLACEMENT_3D('',#12,#13,#14);
#12 = CARTESIAN_POINT('',(0.,0.,0.));
#13 = DIRECTION('',(0.,0.,1.));
#14 = DIRECTION('',(1.,0.,-0.));
#15 = MANIFOLD_SOLID_BREP('',#16);
#16 = CLOSED_SHELL('',(#17,#57,#256,#280,#368,#385,#407,#424,#441,#458,
    #475,#492,#504,#535,#559,#583,#600,#632,#656,#680,#705,#730,#754,
    #778,#796,#813,#844,#868,#892,#904,#936,#960,#984,#1009,#1034,#1058,
    #1082,#1100,#1117,#1129));
#17 = ADVANCED_FACE('',(#18),#52,.F.);
#18 = FACE_BOUND('',#19,.F.);
#19 = EDGE_LOOP('',(#20,#30,#38,#46));
#20 = ORIENTED_EDGE('',*,*,#21,.F.);
#21 = EDGE_CURVE('',#22,#24,#26,.T.);
#22 = VERTEX_POINT('',#23);
#23 = CARTESIAN_POINT('',(0.,0.,8.));
#24 = VERTEX_POINT('',#25);
#25 = CARTESIAN_POINT('',(0.,42.996211251235,8.));
#26 = LINE('',#27,#28);
#27 = CARTESIAN_POINT('',(0.,0.,8.));
#28 = VECTOR('',#29,1.);
#29 = DIRECTION('',(0.,1.,0.));
#30 = ORIENTED_EDGE('',*,*,#31,.F.);
#31 = EDGE_CURVE('',#32,#22,#34,.T.);
#32 = VERTEX_POINT('',#33);
#33 = CARTESIAN_POINT('',(0.,0.,0.));
#34 = LINE('',#35,#36);
#35 = CARTESIAN_POINT('',(0.,0.,0.));
#36 = VECTOR('',#37,1.);
#37 = DIRECTION('',(0.,0.,1.));
#38 = ORIENTED_EDGE('',*,*,#39,.T.);
#39 = EDGE_CURVE('',#32,#40,#42,.T.);
#40 = VERTEX_POINT('',#41);
#41 = CARTESIAN_POINT('',(0.,42.996211251235,0.));
#42 = LINE('',#43,#44);
#43 = CARTESIAN_POINT('',(0.,0.,0.));
#44 = VECTOR('',#45,1.);
#45 = DIRECTION('',(0.,1.,0.));
#46 = ORIENTED_EDGE('',*,*,#47,.T.);
#47 = EDGE_CURVE('',#40,#24,#48,.T.);
#48 = LINE('',#49,#50);
#49 = CARTESIAN_POINT('',(0.,42.996211251235,-1.));
#50 = VECTOR('',#51,1.);
#51 = DIRECTION('',(0.,0.,1.));
#52 = PLANE('',#53);
#53 = AXIS2_PLACEMENT_3D('',#54,#55,#56);
#54 = CARTESIAN_POINT('',(0.,0.,0.));
#55 = DIRECTION('',(1.,0.,0.));
#56 = DIRECTION('',(0.,0.,1.));
#57 = ADVANCED_FACE('',(#58,#147,#181),#251,.T.);
#58 = FACE_BOUND('',#59,.T.);
#59 = EDGE_LOOP('',(#60,#70,#78,#86,#94,#102,#108,#109,#117,#125,#133,
    #141));
#60 = ORIENTED_EDGE('',*,*,#61,.T.);
#61 = EDGE_CURVE('',#62,#64,#66,.T.);
#62 = VERTEX_POINT('',#63);
#63 = CARTESIAN_POINT('',(40.,47.170601495138,8.));
#64 = VERTEX_POINT('',#65);
#65 = CARTESIAN_POINT('',(40.,51.,8.));
#66 = LINE('',#67,#68);
#67 = CARTESIAN_POINT('',(40.,0.,8.));
#68 = VECTOR('',#69,1.);
#69 = DIRECTION('',(0.,1.,0.));
#70 = ORIENTED_EDGE('',*,*,#71,.F.);
#71 = EDGE_CURVE('',#72,#64,#74,.T.);
#72 = VERTEX_POINT('',#73);
#73 = CARTESIAN_POINT('',(0.,51.,8.));
#74 = LINE('',#75,#76);
#75 = CARTESIAN_POINT('',(0.,51.,8.));
#76 = VECTOR('',#77,1.);
#77 = DIRECTION('',(1.,0.,0.));
#78 = ORIENTED_EDGE('',*,*,#79,.F.);
#79 = EDGE_CURVE('',#80,#72,#82,.T.);
#80 = VERTEX_POINT('',#81);
#81 = CARTESIAN_POINT('',(0.,47.296211251235,8.));
#82 = LINE('',#83,#84);
#83 = CARTESIAN_POINT('',(0.,0.,8.));
#84 = VECTOR('',#85,1.);
#85 = DIRECTION('',(0.,1.,0.));
#86 = ORIENTED_EDGE('',*,*,#87,.T.);
#87 = EDGE_CURVE('',#80,#88,#90,.T.);
#88 = VERTEX_POINT('',#89);
#89 = CARTESIAN_POINT('',(4.,48.296211251235,8.));
#90 = LINE('',#91,#92);
#91 = CARTESIAN_POINT('',(-3.564260147204,46.405146214434,8.));
#92 = VECTOR('',#93,1.);
#93 = DIRECTION('',(0.970142500145,0.242535625036,0.));
#94 = ORIENTED_EDGE('',*,*,#95,.T.);
#95 = EDGE_CURVE('',#88,#96,#98,.T.);
#96 = VERTEX_POINT('',#97);
#97 = CARTESIAN_POINT('',(4.,41.996211251235,8.));
#98 = LINE('',#99,#100);
#99 = CARTESIAN_POINT('',(4.,20.998105625618,8.));
#100 = VECTOR('',#101,1.);
#101 = DIRECTION('',(0.,-1.,0.));
#102 = ORIENTED_EDGE('',*,*,#103,.T.);
#103 = EDGE_CURVE('',#96,#24,#104,.T.);
#104 = LINE('',#105,#106);
#105 = CARTESIAN_POINT('',(5.058377794263,41.73161680267,8.));
#106 = VECTOR('',#107,1.);
#107 = DIRECTION('',(-0.970142500145,0.242535625036,0.));
#108 = ORIENTED_EDGE('',*,*,#21,.F.);
#109 = ORIENTED_EDGE('',*,*,#110,.T.);
#110 = EDGE_CURVE('',#22,#111,#113,.T.);
#111 = VERTEX_POINT('',#112);
#112 = CARTESIAN_POINT('',(40.,0.,8.));
#113 = LINE('',#114,#115);
#114 = CARTESIAN_POINT('',(0.,0.,8.));
#115 = VECTOR('',#116,1.);
#116 = DIRECTION('',(1.,0.,0.));
#117 = ORIENTED_EDGE('',*,*,#118,.T.);
#118 = EDGE_CURVE('',#111,#119,#121,.T.);
#119 = VERTEX_POINT('',#120);
#120 = CARTESIAN_POINT('',(40.,43.121821007333,8.));
#121 = LINE('',#122,#123);
#122 = CARTESIAN_POINT('',(40.,0.,8.));
#123 = VECTOR('',#124,1.);
#124 = DIRECTION('',(0.,1.,0.));
#125 = ORIENTED_EDGE('',*,*,#126,.F.);
#126 = EDGE_CURVE('',#127,#119,#129,.T.);
#127 = VERTEX_POINT('',#128);
#128 = CARTESIAN_POINT('',(39.9,43.146211251235,8.));
#129 = LINE('',#130,#131);
#130 = CARTESIAN_POINT('',(39.9,43.146211251235,8.));
#131 = VECTOR('',#132,1.);
#132 = DIRECTION('',(0.971520338783,-0.236956180191,0.));
#133 = ORIENTED_EDGE('',*,*,#134,.F.);
#134 = EDGE_CURVE('',#135,#127,#137,.T.);
#135 = VERTEX_POINT('',#136);
#136 = CARTESIAN_POINT('',(39.9,47.146211251235,8.));
#137 = LINE('',#138,#139);
#138 = CARTESIAN_POINT('',(39.9,47.146211251235,8.));
#139 = VECTOR('',#140,1.);
#140 = DIRECTION('',(0.,-1.,0.));
#141 = ORIENTED_EDGE('',*,*,#142,.F.);
#142 = EDGE_CURVE('',#62,#135,#143,.T.);
#143 = LINE('',#144,#145);
#144 = CARTESIAN_POINT('',(44.,48.146211251235,8.));
#145 = VECTOR('',#146,1.);
#146 = DIRECTION('',(-0.971520338783,-0.236956180191,0.));
#147 = FACE_BOUND('',#148,.T.);
#148 = EDGE_LOOP('',(#149,#159,#167,#175));
#149 = ORIENTED_EDGE('',*,*,#150,.T.);
#150 = EDGE_CURVE('',#151,#153,#155,.T.);
#151 = VERTEX_POINT('',#152);
#152 = CARTESIAN_POINT('',(32.125,2.25,8.));
#153 = VERTEX_POINT('',#154);
#154 = CARTESIAN_POINT('',(7.875,2.25,8.));
#155 = LINE('',#156,#157);
#156 = CARTESIAN_POINT('',(3.9375,2.25,8.));
#157 = VECTOR('',#158,1.);
#158 = DIRECTION('',(-1.,0.,0.));
#159 = ORIENTED_EDGE('',*,*,#160,.T.);
#160 = EDGE_CURVE('',#153,#161,#163,.T.);
#161 = VERTEX_POINT('',#162);
#162 = CARTESIAN_POINT('',(7.875,10.5,8.));
#163 = LINE('',#164,#165);
#164 = CARTESIAN_POINT('',(7.875,1.125,8.));
#165 = VECTOR('',#166,1.);
#166 = DIRECTION('',(0.,1.,0.));
#167 = ORIENTED_EDGE('',*,*,#168,.F.);
#168 = EDGE_CURVE('',#169,#161,#171,.T.);
#169 = VERTEX_POINT('',#170);
#170 = CARTESIAN_POINT('',(32.125,10.5,8.));
#171 = LINE('',#172,#173);
#172 = CARTESIAN_POINT('',(3.9375,10.5,8.));
#173 = VECTOR('',#174,1.);
#174 = DIRECTION('',(-1.,0.,0.));
#175 = ORIENTED_EDGE('',*,*,#176,.F.);
#176 = EDGE_CURVE('',#151,#169,#177,.T.);
#177 = LINE('',#178,#179);
#178 = CARTESIAN_POINT('',(32.125,1.125,8.));
#179 = VECTOR('',#180,1.);
#180 = DIRECTION('',(0.,1.,0.));
#181 = FACE_BOUND('',#182,.T.);
#182 = EDGE_LOOP('',(#183,#194,#202,#211,#219,#228,#236,#245));
#183 = ORIENTED_EDGE('',*,*,#184,.F.);
#184 = EDGE_CURVE('',#185,#187,#189,.T.);
#185 = VERTEX_POINT('',#186);
#186 = CARTESIAN_POINT('',(16.685,34.665,8.));
#187 = VERTEX_POINT('',#188);
#188 = CARTESIAN_POINT('',(16.085,34.065,8.));
#189 = CIRCLE('',#190,0.6);
#190 = AXIS2_PLACEMENT_3D('',#191,#192,#193);
#191 = CARTESIAN_POINT('',(16.685,34.065,8.));
#192 = DIRECTION('',(0.,-0.,1.));
#193 = DIRECTION('',(0.,1.,0.));
#194 = ORIENTED_EDGE('',*,*,#195,.T.);
#195 = EDGE_CURVE('',#185,#196,#198,.T.);
#196 = VERTEX_POINT('',#197);
#197 = CARTESIAN_POINT('',(23.315,34.665,8.));
#198 = LINE('',#199,#200);
#199 = CARTESIAN_POINT('',(11.9575,34.665,8.));
#200 = VECTOR('',#201,1.);
#201 = DIRECTION('',(1.,0.,0.));
#202 = ORIENTED_EDGE('',*,*,#203,.F.);
#203 = EDGE_CURVE('',#204,#196,#206,.T.);
#204 = VERTEX_POINT('',#205);
#205 = CARTESIAN_POINT('',(23.915,34.065,8.));
#206 = CIRCLE('',#207,0.6);
#207 = AXIS2_PLACEMENT_3D('',#208,#209,#210);
#208 = CARTESIAN_POINT('',(23.315,34.065,8.));
#209 = DIRECTION('',(0.,-0.,1.));
#210 = DIRECTION('',(0.,1.,0.));
#211 = ORIENTED_EDGE('',*,*,#212,.T.);
#212 = EDGE_CURVE('',#204,#213,#215,.T.);
#213 = VERTEX_POINT('',#214);
#214 = CARTESIAN_POINT('',(23.915,27.435,8.));
#215 = LINE('',#216,#217);
#216 = CARTESIAN_POINT('',(23.915,13.4175,8.));
#217 = VECTOR('',#218,1.);
#218 = DIRECTION('',(0.,-1.,0.));
#219 = ORIENTED_EDGE('',*,*,#220,.F.);
#220 = EDGE_CURVE('',#221,#213,#223,.T.);
#221 = VERTEX_POINT('',#222);
#222 = CARTESIAN_POINT('',(23.315,26.835,8.));
#223 = CIRCLE('',#224,0.6);
#224 = AXIS2_PLACEMENT_3D('',#225,#226,#227);
#225 = CARTESIAN_POINT('',(23.315,27.435,8.));
#226 = DIRECTION('',(-0.,0.,1.));
#227 = DIRECTION('',(0.,-1.,0.));
#228 = ORIENTED_EDGE('',*,*,#229,.T.);
#229 = EDGE_CURVE('',#221,#230,#232,.T.);
#230 = VERTEX_POINT('',#231);
#231 = CARTESIAN_POINT('',(16.685,26.835,8.));
#232 = LINE('',#233,#234);
#233 = CARTESIAN_POINT('',(8.0425,26.835,8.));
#234 = VECTOR('',#235,1.);
#235 = DIRECTION('',(-1.,0.,0.));
#236 = ORIENTED_EDGE('',*,*,#237,.F.);
#237 = EDGE_CURVE('',#238,#230,#240,.T.);
#238 = VERTEX_POINT('',#239);
#239 = CARTESIAN_POINT('',(16.085,27.435,8.));
#240 = CIRCLE('',#241,0.6);
#241 = AXIS2_PLACEMENT_3D('',#242,#243,#244);
#242 = CARTESIAN_POINT('',(16.685,27.435,8.));
#243 = DIRECTION('',(0.,0.,1.));
#244 = DIRECTION('',(-1.,0.,0.));
#245 = ORIENTED_EDGE('',*,*,#246,.T.);
#246 = EDGE_CURVE('',#238,#187,#247,.T.);
#247 = LINE('',#248,#249);
#248 = CARTESIAN_POINT('',(16.085,17.3325,8.));
#249 = VECTOR('',#250,1.);
#250 = DIRECTION('',(0.,1.,0.));
#251 = PLANE('',#252);
#252 = AXIS2_PLACEMENT_3D('',#253,#254,#255);
#253 = CARTESIAN_POINT('',(0.,0.,8.));
#254 = DIRECTION('',(0.,0.,1.));
#255 = DIRECTION('',(1.,0.,0.));
#256 = ADVANCED_FACE('',(#257),#275,.T.);
#257 = FACE_BOUND('',#258,.T.);
#258 = EDGE_LOOP('',(#259,#267,#268,#269));
#259 = ORIENTED_EDGE('',*,*,#260,.T.);
#260 = EDGE_CURVE('',#261,#40,#263,.T.);
#261 = VERTEX_POINT('',#262);
#262 = CARTESIAN_POINT('',(4.,41.996211251235,0.));
#263 = LINE('',#264,#265);
#264 = CARTESIAN_POINT('',(5.058377794263,41.73161680267,0.));
#265 = VECTOR('',#266,1.);
#266 = DIRECTION('',(-0.970142500145,0.242535625036,0.));
#267 = ORIENTED_EDGE('',*,*,#47,.T.);
#268 = ORIENTED_EDGE('',*,*,#103,.F.);
#269 = ORIENTED_EDGE('',*,*,#270,.F.);
#270 = EDGE_CURVE('',#261,#96,#271,.T.);
#271 = LINE('',#272,#273);
#272 = CARTESIAN_POINT('',(4.,41.996211251235,-1.));
#273 = VECTOR('',#274,1.);
#274 = DIRECTION('',(0.,0.,1.));
#275 = PLANE('',#276);
#276 = AXIS2_PLACEMENT_3D('',#277,#278,#279);
#277 = CARTESIAN_POINT('',(0.,42.996211251235,-1.));
#278 = DIRECTION('',(0.242535625036,0.970142500145,0.));
#279 = DIRECTION('',(0.970142500145,-0.242535625036,0.));
#280 = ADVANCED_FACE('',(#281),#363,.F.);
#281 = FACE_BOUND('',#282,.F.);
#282 = EDGE_LOOP('',(#283,#293,#301,#309,#317,#323,#324,#325,#333,#341,
    #349,#357));
#283 = ORIENTED_EDGE('',*,*,#284,.T.);
#284 = EDGE_CURVE('',#285,#287,#289,.T.);
#285 = VERTEX_POINT('',#286);
#286 = CARTESIAN_POINT('',(40.,47.170601495138,0.));
#287 = VERTEX_POINT('',#288);
#288 = CARTESIAN_POINT('',(40.,51.,0.));
#289 = LINE('',#290,#291);
#290 = CARTESIAN_POINT('',(40.,0.,0.));
#291 = VECTOR('',#292,1.);
#292 = DIRECTION('',(0.,1.,0.));
#293 = ORIENTED_EDGE('',*,*,#294,.F.);
#294 = EDGE_CURVE('',#295,#287,#297,.T.);
#295 = VERTEX_POINT('',#296);
#296 = CARTESIAN_POINT('',(0.,51.,0.));
#297 = LINE('',#298,#299);
#298 = CARTESIAN_POINT('',(0.,51.,0.));
#299 = VECTOR('',#300,1.);
#300 = DIRECTION('',(1.,0.,0.));
#301 = ORIENTED_EDGE('',*,*,#302,.F.);
#302 = EDGE_CURVE('',#303,#295,#305,.T.);
#303 = VERTEX_POINT('',#304);
#304 = CARTESIAN_POINT('',(0.,47.296211251235,0.));
#305 = LINE('',#306,#307);
#306 = CARTESIAN_POINT('',(0.,0.,0.));
#307 = VECTOR('',#308,1.);
#308 = DIRECTION('',(0.,1.,0.));
#309 = ORIENTED_EDGE('',*,*,#310,.T.);
#310 = EDGE_CURVE('',#303,#311,#313,.T.);
#311 = VERTEX_POINT('',#312);
#312 = CARTESIAN_POINT('',(4.,48.296211251235,0.));
#313 = LINE('',#314,#315);
#314 = CARTESIAN_POINT('',(-3.564260147204,46.405146214434,0.));
#315 = VECTOR('',#316,1.);
#316 = DIRECTION('',(0.970142500145,0.242535625036,0.));
#317 = ORIENTED_EDGE('',*,*,#318,.T.);
#318 = EDGE_CURVE('',#311,#261,#319,.T.);
#319 = LINE('',#320,#321);
#320 = CARTESIAN_POINT('',(4.,20.998105625618,0.));
#321 = VECTOR('',#322,1.);
#322 = DIRECTION('',(0.,-1.,0.));
#323 = ORIENTED_EDGE('',*,*,#260,.T.);
#324 = ORIENTED_EDGE('',*,*,#39,.F.);
#325 = ORIENTED_EDGE('',*,*,#326,.T.);
#326 = EDGE_CURVE('',#32,#327,#329,.T.);
#327 = VERTEX_POINT('',#328);
#328 = CARTESIAN_POINT('',(40.,0.,0.));
#329 = LINE('',#330,#331);
#330 = CARTESIAN_POINT('',(0.,0.,0.));
#331 = VECTOR('',#332,1.);
#332 = DIRECTION('',(1.,0.,0.));
#333 = ORIENTED_EDGE('',*,*,#334,.T.);
#334 = EDGE_CURVE('',#327,#335,#337,.T.);
#335 = VERTEX_POINT('',#336);
#336 = CARTESIAN_POINT('',(40.,43.121821007333,0.));
#337 = LINE('',#338,#339);
#338 = CARTESIAN_POINT('',(40.,0.,0.));
#339 = VECTOR('',#340,1.);
#340 = DIRECTION('',(0.,1.,0.));
#341 = ORIENTED_EDGE('',*,*,#342,.F.);
#342 = EDGE_CURVE('',#343,#335,#345,.T.);
#343 = VERTEX_POINT('',#344);
#344 = CARTESIAN_POINT('',(39.9,43.146211251235,0.));
#345 = LINE('',#346,#347);
#346 = CARTESIAN_POINT('',(39.9,43.146211251235,0.));
#347 = VECTOR('',#348,1.);
#348 = DIRECTION('',(0.971520338783,-0.236956180191,0.));
#349 = ORIENTED_EDGE('',*,*,#350,.F.);
#350 = EDGE_CURVE('',#351,#343,#353,.T.);
#351 = VERTEX_POINT('',#352);
#352 = CARTESIAN_POINT('',(39.9,47.146211251235,0.));
#353 = LINE('',#354,#355);
#354 = CARTESIAN_POINT('',(39.9,47.146211251235,0.));
#355 = VECTOR('',#356,1.);
#356 = DIRECTION('',(0.,-1.,0.));
#357 = ORIENTED_EDGE('',*,*,#358,.F.);
#358 = EDGE_CURVE('',#285,#351,#359,.T.);
#359 = LINE('',#360,#361);
#360 = CARTESIAN_POINT('',(44.,48.146211251235,0.));
#361 = VECTOR('',#362,1.);
#362 = DIRECTION('',(-0.971520338783,-0.236956180191,0.));
#363 = PLANE('',#364);
#364 = AXIS2_PLACEMENT_3D('',#365,#366,#367);
#365 = CARTESIAN_POINT('',(0.,0.,0.));
#366 = DIRECTION('',(0.,0.,1.));
#367 = DIRECTION('',(1.,0.,0.));
#368 = ADVANCED_FACE('',(#369),#380,.F.);
#369 = FACE_BOUND('',#370,.F.);
#370 = EDGE_LOOP('',(#371,#372,#373,#374));
#371 = ORIENTED_EDGE('',*,*,#326,.F.);
#372 = ORIENTED_EDGE('',*,*,#31,.T.);
#373 = ORIENTED_EDGE('',*,*,#110,.T.);
#374 = ORIENTED_EDGE('',*,*,#375,.F.);
#375 = EDGE_CURVE('',#327,#111,#376,.T.);
#376 = LINE('',#377,#378);
#377 = CARTESIAN_POINT('',(40.,0.,0.));
#378 = VECTOR('',#379,1.);
#379 = DIRECTION('',(0.,0.,1.));
#380 = PLANE('',#381);
#381 = AXIS2_PLACEMENT_3D('',#382,#383,#384);
#382 = CARTESIAN_POINT('',(0.,0.,0.));
#383 = DIRECTION('',(0.,1.,0.));
#384 = DIRECTION('',(0.,0.,1.));
#385 = ADVANCED_FACE('',(#386),#402,.T.);
#386 = FACE_BOUND('',#387,.T.);
#387 = EDGE_LOOP('',(#388,#389,#395,#396));
#388 = ORIENTED_EDGE('',*,*,#61,.F.);
#389 = ORIENTED_EDGE('',*,*,#390,.T.);
#390 = EDGE_CURVE('',#62,#285,#391,.T.);
#391 = LINE('',#392,#393);
#392 = CARTESIAN_POINT('',(40.,47.170601495138,0.));
#393 = VECTOR('',#394,1.);
#394 = DIRECTION('',(0.,0.,-1.));
#395 = ORIENTED_EDGE('',*,*,#284,.T.);
#396 = ORIENTED_EDGE('',*,*,#397,.T.);
#397 = EDGE_CURVE('',#287,#64,#398,.T.);
#398 = LINE('',#399,#400);
#399 = CARTESIAN_POINT('',(40.,51.,0.));
#400 = VECTOR('',#401,1.);
#401 = DIRECTION('',(0.,0.,1.));
#402 = PLANE('',#403);
#403 = AXIS2_PLACEMENT_3D('',#404,#405,#406);
#404 = CARTESIAN_POINT('',(40.,0.,0.));
#405 = DIRECTION('',(1.,0.,0.));
#406 = DIRECTION('',(0.,0.,1.));
#407 = ADVANCED_FACE('',(#408),#419,.T.);
#408 = FACE_BOUND('',#409,.T.);
#409 = EDGE_LOOP('',(#410,#416,#417,#418));
#410 = ORIENTED_EDGE('',*,*,#411,.T.);
#411 = EDGE_CURVE('',#119,#62,#412,.T.);
#412 = LINE('',#413,#414);
#413 = CARTESIAN_POINT('',(40.,0.,8.));
#414 = VECTOR('',#415,1.);
#415 = DIRECTION('',(0.,1.,0.));
#416 = ORIENTED_EDGE('',*,*,#142,.T.);
#417 = ORIENTED_EDGE('',*,*,#134,.T.);
#418 = ORIENTED_EDGE('',*,*,#126,.T.);
#419 = PLANE('',#420);
#420 = AXIS2_PLACEMENT_3D('',#421,#422,#423);
#421 = CARTESIAN_POINT('',(0.,0.,8.));
#422 = DIRECTION('',(0.,0.,1.));
#423 = DIRECTION('',(1.,0.,0.));
#424 = ADVANCED_FACE('',(#425),#436,.T.);
#425 = FACE_BOUND('',#426,.T.);
#426 = EDGE_LOOP('',(#427,#428,#434,#435));
#427 = ORIENTED_EDGE('',*,*,#294,.F.);
#428 = ORIENTED_EDGE('',*,*,#429,.T.);
#429 = EDGE_CURVE('',#295,#72,#430,.T.);
#430 = LINE('',#431,#432);
#431 = CARTESIAN_POINT('',(0.,51.,0.));
#432 = VECTOR('',#433,1.);
#433 = DIRECTION('',(0.,0.,1.));
#434 = ORIENTED_EDGE('',*,*,#71,.T.);
#435 = ORIENTED_EDGE('',*,*,#397,.F.);
#436 = PLANE('',#437);
#437 = AXIS2_PLACEMENT_3D('',#438,#439,#440);
#438 = CARTESIAN_POINT('',(0.,51.,0.));
#439 = DIRECTION('',(0.,1.,0.));
#440 = DIRECTION('',(0.,0.,1.));
#441 = ADVANCED_FACE('',(#442),#453,.F.);
#442 = FACE_BOUND('',#443,.F.);
#443 = EDGE_LOOP('',(#444,#445,#451,#452));
#444 = ORIENTED_EDGE('',*,*,#79,.F.);
#445 = ORIENTED_EDGE('',*,*,#446,.F.);
#446 = EDGE_CURVE('',#303,#80,#447,.T.);
#447 = LINE('',#448,#449);
#448 = CARTESIAN_POINT('',(0.,47.296211251235,-1.));
#449 = VECTOR('',#450,1.);
#450 = DIRECTION('',(0.,0.,1.));
#451 = ORIENTED_EDGE('',*,*,#302,.T.);
#452 = ORIENTED_EDGE('',*,*,#429,.T.);
#453 = PLANE('',#454);
#454 = AXIS2_PLACEMENT_3D('',#455,#456,#457);
#455 = CARTESIAN_POINT('',(0.,0.,0.));
#456 = DIRECTION('',(1.,0.,0.));
#457 = DIRECTION('',(0.,0.,1.));
#458 = ADVANCED_FACE('',(#459),#470,.T.);
#459 = FACE_BOUND('',#460,.T.);
#460 = EDGE_LOOP('',(#461,#462,#468,#469));
#461 = ORIENTED_EDGE('',*,*,#310,.T.);
#462 = ORIENTED_EDGE('',*,*,#463,.T.);
#463 = EDGE_CURVE('',#311,#88,#464,.T.);
#464 = LINE('',#465,#466);
#465 = CARTESIAN_POINT('',(4.,48.296211251235,-1.));
#466 = VECTOR('',#467,1.);
#467 = DIRECTION('',(0.,0.,1.));
#468 = ORIENTED_EDGE('',*,*,#87,.F.);
#469 = ORIENTED_EDGE('',*,*,#446,.F.);
#470 = PLANE('',#471);
#471 = AXIS2_PLACEMENT_3D('',#472,#473,#474);
#472 = CARTESIAN_POINT('',(4.,48.296211251235,-1.));
#473 = DIRECTION('',(0.242535625036,-0.970142500145,0.));
#474 = DIRECTION('',(-0.970142500145,-0.242535625036,0.));
#475 = ADVANCED_FACE('',(#476),#487,.T.);
#476 = FACE_BOUND('',#477,.T.);
#477 = EDGE_LOOP('',(#478,#479,#480,#481));
#478 = ORIENTED_EDGE('',*,*,#118,.F.);
#479 = ORIENTED_EDGE('',*,*,#375,.F.);
#480 = ORIENTED_EDGE('',*,*,#334,.T.);
#481 = ORIENTED_EDGE('',*,*,#482,.T.);
#482 = EDGE_CURVE('',#335,#119,#483,.T.);
#483 = LINE('',#484,#485);
#484 = CARTESIAN_POINT('',(40.,43.121821007333,0.));
#485 = VECTOR('',#486,1.);
#486 = DIRECTION('',(0.,0.,1.));
#487 = PLANE('',#488);
#488 = AXIS2_PLACEMENT_3D('',#489,#490,#491);
#489 = CARTESIAN_POINT('',(40.,0.,0.));
#490 = DIRECTION('',(1.,0.,0.));
#491 = DIRECTION('',(0.,0.,1.));
#492 = ADVANCED_FACE('',(#493),#499,.T.);
#493 = FACE_BOUND('',#494,.T.);
#494 = EDGE_LOOP('',(#495,#496,#497,#498));
#495 = ORIENTED_EDGE('',*,*,#318,.T.);
#496 = ORIENTED_EDGE('',*,*,#270,.T.);
#497 = ORIENTED_EDGE('',*,*,#95,.F.);
#498 = ORIENTED_EDGE('',*,*,#463,.F.);
#499 = PLANE('',#500);
#500 = AXIS2_PLACEMENT_3D('',#501,#502,#503);
#501 = CARTESIAN_POINT('',(4.,41.996211251235,-1.));
#502 = DIRECTION('',(-1.,0.,0.));
#503 = DIRECTION('',(0.,1.,0.));
#504 = ADVANCED_FACE('',(#505),#530,.T.);
#505 = FACE_BOUND('',#506,.T.);
#506 = EDGE_LOOP('',(#507,#515,#523,#529));
#507 = ORIENTED_EDGE('',*,*,#508,.F.);
#508 = EDGE_CURVE('',#509,#151,#511,.T.);
#509 = VERTEX_POINT('',#510);
#510 = CARTESIAN_POINT('',(32.125,2.25,4.));
#511 = LINE('',#512,#513);
#512 = CARTESIAN_POINT('',(32.125,2.25,4.));
#513 = VECTOR('',#514,1.);
#514 = DIRECTION('',(0.,0.,1.));
#515 = ORIENTED_EDGE('',*,*,#516,.F.);
#516 = EDGE_CURVE('',#517,#509,#519,.T.);
#517 = VERTEX_POINT('',#518);
#518 = CARTESIAN_POINT('',(7.875,2.25,4.));
#519 = LINE('',#520,#521);
#520 = CARTESIAN_POINT('',(7.875,2.25,4.));
#521 = VECTOR('',#522,1.);
#522 = DIRECTION('',(1.,0.,0.));
#523 = ORIENTED_EDGE('',*,*,#524,.T.);
#524 = EDGE_CURVE('',#517,#153,#525,.T.);
#525 = LINE('',#526,#527);
#526 = CARTESIAN_POINT('',(7.875,2.25,4.));
#527 = VECTOR('',#528,1.);
#528 = DIRECTION('',(0.,0.,1.));
#529 = ORIENTED_EDGE('',*,*,#150,.F.);
#530 = PLANE('',#531);
#531 = AXIS2_PLACEMENT_3D('',#532,#533,#534);
#532 = CARTESIAN_POINT('',(7.875,2.25,4.));
#533 = DIRECTION('',(0.,1.,0.));
#534 = DIRECTION('',(0.,0.,1.));
#535 = ADVANCED_FACE('',(#536),#554,.F.);
#536 = FACE_BOUND('',#537,.F.);
#537 = EDGE_LOOP('',(#538,#539,#547,#553));
#538 = ORIENTED_EDGE('',*,*,#508,.F.);
#539 = ORIENTED_EDGE('',*,*,#540,.T.);
#540 = EDGE_CURVE('',#509,#541,#543,.T.);
#541 = VERTEX_POINT('',#542);
#542 = CARTESIAN_POINT('',(32.125,10.5,4.));
#543 = LINE('',#544,#545);
#544 = CARTESIAN_POINT('',(32.125,2.25,4.));
#545 = VECTOR('',#546,1.);
#546 = DIRECTION('',(0.,1.,0.));
#547 = ORIENTED_EDGE('',*,*,#548,.T.);
#548 = EDGE_CURVE('',#541,#169,#549,.T.);
#549 = LINE('',#550,#551);
#550 = CARTESIAN_POINT('',(32.125,10.5,4.));
#551 = VECTOR('',#552,1.);
#552 = DIRECTION('',(0.,0.,1.));
#553 = ORIENTED_EDGE('',*,*,#176,.F.);
#554 = PLANE('',#555);
#555 = AXIS2_PLACEMENT_3D('',#556,#557,#558);
#556 = CARTESIAN_POINT('',(32.125,2.25,4.));
#557 = DIRECTION('',(1.,0.,0.));
#558 = DIRECTION('',(0.,0.,1.));
#559 = ADVANCED_FACE('',(#560),#578,.F.);
#560 = FACE_BOUND('',#561,.F.);
#561 = EDGE_LOOP('',(#562,#563,#571,#577));
#562 = ORIENTED_EDGE('',*,*,#548,.F.);
#563 = ORIENTED_EDGE('',*,*,#564,.F.);
#564 = EDGE_CURVE('',#565,#541,#567,.T.);
#565 = VERTEX_POINT('',#566);
#566 = CARTESIAN_POINT('',(7.875,10.5,4.));
#567 = LINE('',#568,#569);
#568 = CARTESIAN_POINT('',(7.875,10.5,4.));
#569 = VECTOR('',#570,1.);
#570 = DIRECTION('',(1.,0.,0.));
#571 = ORIENTED_EDGE('',*,*,#572,.T.);
#572 = EDGE_CURVE('',#565,#161,#573,.T.);
#573 = LINE('',#574,#575);
#574 = CARTESIAN_POINT('',(7.875,10.5,4.));
#575 = VECTOR('',#576,1.);
#576 = DIRECTION('',(0.,0.,1.));
#577 = ORIENTED_EDGE('',*,*,#168,.F.);
#578 = PLANE('',#579);
#579 = AXIS2_PLACEMENT_3D('',#580,#581,#582);
#580 = CARTESIAN_POINT('',(7.875,10.5,4.));
#581 = DIRECTION('',(0.,1.,0.));
#582 = DIRECTION('',(0.,0.,1.));
#583 = ADVANCED_FACE('',(#584),#595,.T.);
#584 = FACE_BOUND('',#585,.T.);
#585 = EDGE_LOOP('',(#586,#587,#593,#594));
#586 = ORIENTED_EDGE('',*,*,#524,.F.);
#587 = ORIENTED_EDGE('',*,*,#588,.T.);
#588 = EDGE_CURVE('',#517,#565,#589,.T.);
#589 = LINE('',#590,#591);
#590 = CARTESIAN_POINT('',(7.875,2.25,4.));
#591 = VECTOR('',#592,1.);
#592 = DIRECTION('',(0.,1.,0.));
#593 = ORIENTED_EDGE('',*,*,#572,.T.);
#594 = ORIENTED_EDGE('',*,*,#160,.F.);
#595 = PLANE('',#596);
#596 = AXIS2_PLACEMENT_3D('',#597,#598,#599);
#597 = CARTESIAN_POINT('',(7.875,2.25,4.));
#598 = DIRECTION('',(1.,0.,0.));
#599 = DIRECTION('',(0.,0.,1.));
#600 = ADVANCED_FACE('',(#601),#627,.T.);
#601 = FACE_BOUND('',#602,.T.);
#602 = EDGE_LOOP('',(#603,#611,#612,#620));
#603 = ORIENTED_EDGE('',*,*,#604,.F.);
#604 = EDGE_CURVE('',#185,#605,#607,.T.);
#605 = VERTEX_POINT('',#606);
#606 = CARTESIAN_POINT('',(16.685,34.665,18.5));
#607 = LINE('',#608,#609);
#608 = CARTESIAN_POINT('',(16.685,34.665,7.9));
#609 = VECTOR('',#610,1.);
#610 = DIRECTION('',(0.,0.,1.));
#611 = ORIENTED_EDGE('',*,*,#184,.T.);
#612 = ORIENTED_EDGE('',*,*,#613,.T.);
#613 = EDGE_CURVE('',#187,#614,#616,.T.);
#614 = VERTEX_POINT('',#615);
#615 = CARTESIAN_POINT('',(16.085,34.065,18.5));
#616 = LINE('',#617,#618);
#617 = CARTESIAN_POINT('',(16.085,34.065,7.9));
#618 = VECTOR('',#619,1.);
#619 = DIRECTION('',(0.,0.,1.));
#620 = ORIENTED_EDGE('',*,*,#621,.F.);
#621 = EDGE_CURVE('',#605,#614,#622,.T.);
#622 = CIRCLE('',#623,0.6);
#623 = AXIS2_PLACEMENT_3D('',#624,#625,#626);
#624 = CARTESIAN_POINT('',(16.685,34.065,18.5));
#625 = DIRECTION('',(0.,-0.,1.));
#626 = DIRECTION('',(0.,1.,0.));
#627 = CYLINDRICAL_SURFACE('',#628,0.6);
#628 = AXIS2_PLACEMENT_3D('',#629,#630,#631);
#629 = CARTESIAN_POINT('',(16.685,34.065,7.9));
#630 = DIRECTION('',(0.,0.,1.));
#631 = DIRECTION('',(0.,1.,0.));
#632 = ADVANCED_FACE('',(#633),#651,.F.);
#633 = FACE_BOUND('',#634,.F.);
#634 = EDGE_LOOP('',(#635,#636,#644,#650));
#635 = ORIENTED_EDGE('',*,*,#195,.T.);
#636 = ORIENTED_EDGE('',*,*,#637,.T.);
#637 = EDGE_CURVE('',#196,#638,#640,.T.);
#638 = VERTEX_POINT('',#639);
#639 = CARTESIAN_POINT('',(23.315,34.665,18.5));
#640 = LINE('',#641,#642);
#641 = CARTESIAN_POINT('',(23.315,34.665,7.9));
#642 = VECTOR('',#643,1.);
#643 = DIRECTION('',(0.,0.,1.));
#644 = ORIENTED_EDGE('',*,*,#645,.T.);
#645 = EDGE_CURVE('',#638,#605,#646,.T.);
#646 = LINE('',#647,#648);
#647 = CARTESIAN_POINT('',(23.315,34.665,18.5));
#648 = VECTOR('',#649,1.);
#649 = DIRECTION('',(-1.,0.,0.));
#650 = ORIENTED_EDGE('',*,*,#604,.F.);
#651 = PLANE('',#652);
#652 = AXIS2_PLACEMENT_3D('',#653,#654,#655);
#653 = CARTESIAN_POINT('',(23.915,34.665,7.9));
#654 = DIRECTION('',(0.,-1.,0.));
#655 = DIRECTION('',(-1.,0.,0.));
#656 = ADVANCED_FACE('',(#657),#675,.F.);
#657 = FACE_BOUND('',#658,.F.);
#658 = EDGE_LOOP('',(#659,#660,#661,#669));
#659 = ORIENTED_EDGE('',*,*,#246,.T.);
#660 = ORIENTED_EDGE('',*,*,#613,.T.);
#661 = ORIENTED_EDGE('',*,*,#662,.T.);
#662 = EDGE_CURVE('',#614,#663,#665,.T.);
#663 = VERTEX_POINT('',#664);
#664 = CARTESIAN_POINT('',(16.085,27.435,18.5));
#665 = LINE('',#666,#667);
#666 = CARTESIAN_POINT('',(16.085,34.065,18.5));
#667 = VECTOR('',#668,1.);
#668 = DIRECTION('',(0.,-1.,0.));
#669 = ORIENTED_EDGE('',*,*,#670,.F.);
#670 = EDGE_CURVE('',#238,#663,#671,.T.);
#671 = LINE('',#672,#673);
#672 = CARTESIAN_POINT('',(16.085,27.435,7.9));
#673 = VECTOR('',#674,1.);
#674 = DIRECTION('',(0.,0.,1.));
#675 = PLANE('',#676);
#676 = AXIS2_PLACEMENT_3D('',#677,#678,#679);
#677 = CARTESIAN_POINT('',(16.085,34.665,7.9));
#678 = DIRECTION('',(1.,0.,0.));
#679 = DIRECTION('',(0.,-1.,0.));
#680 = ADVANCED_FACE('',(#681),#700,.T.);
#681 = FACE_BOUND('',#682,.F.);
#682 = EDGE_LOOP('',(#683,#684,#685,#693));
#683 = ORIENTED_EDGE('',*,*,#637,.F.);
#684 = ORIENTED_EDGE('',*,*,#203,.F.);
#685 = ORIENTED_EDGE('',*,*,#686,.T.);
#686 = EDGE_CURVE('',#204,#687,#689,.T.);
#687 = VERTEX_POINT('',#688);
#688 = CARTESIAN_POINT('',(23.915,34.065,18.5));
#689 = LINE('',#690,#691);
#690 = CARTESIAN_POINT('',(23.915,34.065,7.9));
#691 = VECTOR('',#692,1.);
#692 = DIRECTION('',(0.,0.,1.));
#693 = ORIENTED_EDGE('',*,*,#694,.T.);
#694 = EDGE_CURVE('',#687,#638,#695,.T.);
#695 = CIRCLE('',#696,0.6);
#696 = AXIS2_PLACEMENT_3D('',#697,#698,#699);
#697 = CARTESIAN_POINT('',(23.315,34.065,18.5));
#698 = DIRECTION('',(0.,0.,1.));
#699 = DIRECTION('',(1.,0.,0.));
#700 = CYLINDRICAL_SURFACE('',#701,0.6);
#701 = AXIS2_PLACEMENT_3D('',#702,#703,#704);
#702 = CARTESIAN_POINT('',(23.315,34.065,7.9));
#703 = DIRECTION('',(0.,0.,1.));
#704 = DIRECTION('',(0.,1.,0.));
#705 = ADVANCED_FACE('',(#706),#725,.T.);
#706 = FACE_BOUND('',#707,.T.);
#707 = EDGE_LOOP('',(#708,#709,#710,#718));
#708 = ORIENTED_EDGE('',*,*,#670,.F.);
#709 = ORIENTED_EDGE('',*,*,#237,.T.);
#710 = ORIENTED_EDGE('',*,*,#711,.T.);
#711 = EDGE_CURVE('',#230,#712,#714,.T.);
#712 = VERTEX_POINT('',#713);
#713 = CARTESIAN_POINT('',(16.685,26.835,18.5));
#714 = LINE('',#715,#716);
#715 = CARTESIAN_POINT('',(16.685,26.835,7.9));
#716 = VECTOR('',#717,1.);
#717 = DIRECTION('',(0.,0.,1.));
#718 = ORIENTED_EDGE('',*,*,#719,.F.);
#719 = EDGE_CURVE('',#663,#712,#720,.T.);
#720 = CIRCLE('',#721,0.6);
#721 = AXIS2_PLACEMENT_3D('',#722,#723,#724);
#722 = CARTESIAN_POINT('',(16.685,27.435,18.5));
#723 = DIRECTION('',(0.,0.,1.));
#724 = DIRECTION('',(-1.,0.,0.));
#725 = CYLINDRICAL_SURFACE('',#726,0.6);
#726 = AXIS2_PLACEMENT_3D('',#727,#728,#729);
#727 = CARTESIAN_POINT('',(16.685,27.435,7.9));
#728 = DIRECTION('',(0.,0.,1.));
#729 = DIRECTION('',(-1.,0.,0.));
#730 = ADVANCED_FACE('',(#731),#749,.F.);
#731 = FACE_BOUND('',#732,.F.);
#732 = EDGE_LOOP('',(#733,#734,#742,#748));
#733 = ORIENTED_EDGE('',*,*,#212,.T.);
#734 = ORIENTED_EDGE('',*,*,#735,.T.);
#735 = EDGE_CURVE('',#213,#736,#738,.T.);
#736 = VERTEX_POINT('',#737);
#737 = CARTESIAN_POINT('',(23.915,27.435,18.5));
#738 = LINE('',#739,#740);
#739 = CARTESIAN_POINT('',(23.915,27.435,7.9));
#740 = VECTOR('',#741,1.);
#741 = DIRECTION('',(0.,0.,1.));
#742 = ORIENTED_EDGE('',*,*,#743,.T.);
#743 = EDGE_CURVE('',#736,#687,#744,.T.);
#744 = LINE('',#745,#746);
#745 = CARTESIAN_POINT('',(23.915,27.435,18.5));
#746 = VECTOR('',#747,1.);
#747 = DIRECTION('',(0.,1.,0.));
#748 = ORIENTED_EDGE('',*,*,#686,.F.);
#749 = PLANE('',#750);
#750 = AXIS2_PLACEMENT_3D('',#751,#752,#753);
#751 = CARTESIAN_POINT('',(23.915,26.835,7.9));
#752 = DIRECTION('',(-1.,0.,0.));
#753 = DIRECTION('',(0.,1.,0.));
#754 = ADVANCED_FACE('',(#755),#773,.F.);
#755 = FACE_BOUND('',#756,.F.);
#756 = EDGE_LOOP('',(#757,#758,#759,#767));
#757 = ORIENTED_EDGE('',*,*,#229,.T.);
#758 = ORIENTED_EDGE('',*,*,#711,.T.);
#759 = ORIENTED_EDGE('',*,*,#760,.T.);
#760 = EDGE_CURVE('',#712,#761,#763,.T.);
#761 = VERTEX_POINT('',#762);
#762 = CARTESIAN_POINT('',(23.315,26.835,18.5));
#763 = LINE('',#764,#765);
#764 = CARTESIAN_POINT('',(16.685,26.835,18.5));
#765 = VECTOR('',#766,1.);
#766 = DIRECTION('',(1.,0.,0.));
#767 = ORIENTED_EDGE('',*,*,#768,.F.);
#768 = EDGE_CURVE('',#221,#761,#769,.T.);
#769 = LINE('',#770,#771);
#770 = CARTESIAN_POINT('',(23.315,26.835,7.9));
#771 = VECTOR('',#772,1.);
#772 = DIRECTION('',(0.,0.,1.));
#773 = PLANE('',#774);
#774 = AXIS2_PLACEMENT_3D('',#775,#776,#777);
#775 = CARTESIAN_POINT('',(16.085,26.835,7.9));
#776 = DIRECTION('',(0.,1.,0.));
#777 = DIRECTION('',(1.,0.,0.));
#778 = ADVANCED_FACE('',(#779),#791,.T.);
#779 = FACE_BOUND('',#780,.T.);
#780 = EDGE_LOOP('',(#781,#782,#783,#784));
#781 = ORIENTED_EDGE('',*,*,#768,.F.);
#782 = ORIENTED_EDGE('',*,*,#220,.T.);
#783 = ORIENTED_EDGE('',*,*,#735,.T.);
#784 = ORIENTED_EDGE('',*,*,#785,.F.);
#785 = EDGE_CURVE('',#761,#736,#786,.T.);
#786 = CIRCLE('',#787,0.6);
#787 = AXIS2_PLACEMENT_3D('',#788,#789,#790);
#788 = CARTESIAN_POINT('',(23.315,27.435,18.5));
#789 = DIRECTION('',(-0.,0.,1.));
#790 = DIRECTION('',(0.,-1.,0.));
#791 = CYLINDRICAL_SURFACE('',#792,0.6);
#792 = AXIS2_PLACEMENT_3D('',#793,#794,#795);
#793 = CARTESIAN_POINT('',(23.315,27.435,7.9));
#794 = DIRECTION('',(0.,0.,1.));
#795 = DIRECTION('',(0.,-1.,0.));
#796 = ADVANCED_FACE('',(#797),#808,.F.);
#797 = FACE_BOUND('',#798,.F.);
#798 = EDGE_LOOP('',(#799,#805,#806,#807));
#799 = ORIENTED_EDGE('',*,*,#800,.T.);
#800 = EDGE_CURVE('',#335,#285,#801,.T.);
#801 = LINE('',#802,#803);
#802 = CARTESIAN_POINT('',(40.,0.,0.));
#803 = VECTOR('',#804,1.);
#804 = DIRECTION('',(0.,1.,0.));
#805 = ORIENTED_EDGE('',*,*,#358,.T.);
#806 = ORIENTED_EDGE('',*,*,#350,.T.);
#807 = ORIENTED_EDGE('',*,*,#342,.T.);
#808 = PLANE('',#809);
#809 = AXIS2_PLACEMENT_3D('',#810,#811,#812);
#810 = CARTESIAN_POINT('',(0.,0.,0.));
#811 = DIRECTION('',(0.,0.,1.));
#812 = DIRECTION('',(1.,0.,0.));
#813 = ADVANCED_FACE('',(#814),#839,.F.);
#814 = FACE_BOUND('',#815,.F.);
#815 = EDGE_LOOP('',(#816,#824,#832,#838));
#816 = ORIENTED_EDGE('',*,*,#817,.F.);
#817 = EDGE_CURVE('',#818,#285,#820,.T.);
#818 = VERTEX_POINT('',#819);
#819 = CARTESIAN_POINT('',(44.,48.146211251235,0.));
#820 = LINE('',#821,#822);
#821 = CARTESIAN_POINT('',(44.,48.146211251235,0.));
#822 = VECTOR('',#823,1.);
#823 = DIRECTION('',(-0.971520338783,-0.236956180191,0.));
#824 = ORIENTED_EDGE('',*,*,#825,.T.);
#825 = EDGE_CURVE('',#818,#826,#828,.T.);
#826 = VERTEX_POINT('',#827);
#827 = CARTESIAN_POINT('',(44.,48.146211251235,8.));
#828 = LINE('',#829,#830);
#829 = CARTESIAN_POINT('',(44.,48.146211251235,0.));
#830 = VECTOR('',#831,1.);
#831 = DIRECTION('',(0.,0.,1.));
#832 = ORIENTED_EDGE('',*,*,#833,.T.);
#833 = EDGE_CURVE('',#826,#62,#834,.T.);
#834 = LINE('',#835,#836);
#835 = CARTESIAN_POINT('',(44.,48.146211251235,8.));
#836 = VECTOR('',#837,1.);
#837 = DIRECTION('',(-0.971520338783,-0.236956180191,0.));
#838 = ORIENTED_EDGE('',*,*,#390,.T.);
#839 = PLANE('',#840);
#840 = AXIS2_PLACEMENT_3D('',#841,#842,#843);
#841 = CARTESIAN_POINT('',(44.,48.146211251235,0.));
#842 = DIRECTION('',(0.236956180191,-0.971520338783,0.));
#843 = DIRECTION('',(-0.971520338783,-0.236956180191,0.));
#844 = ADVANCED_FACE('',(#845),#863,.T.);
#845 = FACE_BOUND('',#846,.T.);
#846 = EDGE_LOOP('',(#847,#848,#856,#862));
#847 = ORIENTED_EDGE('',*,*,#411,.F.);
#848 = ORIENTED_EDGE('',*,*,#849,.T.);
#849 = EDGE_CURVE('',#119,#850,#852,.T.);
#850 = VERTEX_POINT('',#851);
#851 = CARTESIAN_POINT('',(44.,42.146211251235,8.));
#852 = LINE('',#853,#854);
#853 = CARTESIAN_POINT('',(39.9,43.146211251235,8.));
#854 = VECTOR('',#855,1.);
#855 = DIRECTION('',(0.971520338783,-0.236956180191,0.));
#856 = ORIENTED_EDGE('',*,*,#857,.T.);
#857 = EDGE_CURVE('',#850,#826,#858,.T.);
#858 = LINE('',#859,#860);
#859 = CARTESIAN_POINT('',(44.,42.146211251235,8.));
#860 = VECTOR('',#861,1.);
#861 = DIRECTION('',(0.,1.,0.));
#862 = ORIENTED_EDGE('',*,*,#833,.T.);
#863 = PLANE('',#864);
#864 = AXIS2_PLACEMENT_3D('',#865,#866,#867);
#865 = CARTESIAN_POINT('',(42.172338161771,45.146211251235,8.));
#866 = DIRECTION('',(0.,0.,1.));
#867 = DIRECTION('',(1.,0.,0.));
#868 = ADVANCED_FACE('',(#869),#887,.F.);
#869 = FACE_BOUND('',#870,.F.);
#870 = EDGE_LOOP('',(#871,#879,#880,#881));
#871 = ORIENTED_EDGE('',*,*,#872,.F.);
#872 = EDGE_CURVE('',#335,#873,#875,.T.);
#873 = VERTEX_POINT('',#874);
#874 = CARTESIAN_POINT('',(44.,42.146211251235,0.));
#875 = LINE('',#876,#877);
#876 = CARTESIAN_POINT('',(39.9,43.146211251235,0.));
#877 = VECTOR('',#878,1.);
#878 = DIRECTION('',(0.971520338783,-0.236956180191,0.));
#879 = ORIENTED_EDGE('',*,*,#482,.T.);
#880 = ORIENTED_EDGE('',*,*,#849,.T.);
#881 = ORIENTED_EDGE('',*,*,#882,.F.);
#882 = EDGE_CURVE('',#873,#850,#883,.T.);
#883 = LINE('',#884,#885);
#884 = CARTESIAN_POINT('',(44.,42.146211251235,0.));
#885 = VECTOR('',#886,1.);
#886 = DIRECTION('',(0.,0.,1.));
#887 = PLANE('',#888);
#888 = AXIS2_PLACEMENT_3D('',#889,#890,#891);
#889 = CARTESIAN_POINT('',(39.9,43.146211251235,0.));
#890 = DIRECTION('',(0.236956180191,0.971520338783,0.));
#891 = DIRECTION('',(0.971520338783,-0.236956180191,0.));
#892 = ADVANCED_FACE('',(#893),#899,.T.);
#893 = FACE_BOUND('',#894,.T.);
#894 = EDGE_LOOP('',(#895,#896,#897,#898));
#895 = ORIENTED_EDGE('',*,*,#588,.F.);
#896 = ORIENTED_EDGE('',*,*,#516,.T.);
#897 = ORIENTED_EDGE('',*,*,#540,.T.);
#898 = ORIENTED_EDGE('',*,*,#564,.F.);
#899 = PLANE('',#900);
#900 = AXIS2_PLACEMENT_3D('',#901,#902,#903);
#901 = CARTESIAN_POINT('',(7.875,2.25,4.));
#902 = DIRECTION('',(0.,0.,1.));
#903 = DIRECTION('',(1.,0.,0.));
#904 = ADVANCED_FACE('',(#905),#931,.T.);
#905 = FACE_BOUND('',#906,.T.);
#906 = EDGE_LOOP('',(#907,#915,#916,#924));
#907 = ORIENTED_EDGE('',*,*,#908,.F.);
#908 = EDGE_CURVE('',#605,#909,#911,.T.);
#909 = VERTEX_POINT('',#910);
#910 = CARTESIAN_POINT('',(16.685,34.165,19.));
#911 = LINE('',#912,#913);
#912 = CARTESIAN_POINT('',(16.685,34.415,18.75));
#913 = VECTOR('',#914,1.);
#914 = DIRECTION('',(-2.90882763039E-35,-0.707106781187,0.707106781187)
  );
#915 = ORIENTED_EDGE('',*,*,#621,.T.);
#916 = ORIENTED_EDGE('',*,*,#917,.T.);
#917 = EDGE_CURVE('',#614,#918,#920,.T.);
#918 = VERTEX_POINT('',#919);
#919 = CARTESIAN_POINT('',(16.585,34.065,19.));
#920 = LINE('',#921,#922);
#921 = CARTESIAN_POINT('',(16.085,34.065,18.5));
#922 = VECTOR('',#923,1.);
#923 = DIRECTION('',(0.707106781187,-4.329780281177E-17,0.707106781187)
  );
#924 = ORIENTED_EDGE('',*,*,#925,.F.);
#925 = EDGE_CURVE('',#909,#918,#926,.T.);
#926 = CIRCLE('',#927,1.E-01);
#927 = AXIS2_PLACEMENT_3D('',#928,#929,#930);
#928 = CARTESIAN_POINT('',(16.685,34.065,19.));
#929 = DIRECTION('',(0.,-0.,1.));
#930 = DIRECTION('',(0.,1.,0.));
#931 = CONICAL_SURFACE('',#932,0.6,0.785398163397);
#932 = AXIS2_PLACEMENT_3D('',#933,#934,#935);
#933 = CARTESIAN_POINT('',(16.685,34.065,18.5));
#934 = DIRECTION('',(-0.,-0.,-1.));
#935 = DIRECTION('',(0.,1.,0.));
#936 = ADVANCED_FACE('',(#937),#955,.F.);
#937 = FACE_BOUND('',#938,.T.);
#938 = EDGE_LOOP('',(#939,#947,#948,#949));
#939 = ORIENTED_EDGE('',*,*,#940,.F.);
#940 = EDGE_CURVE('',#638,#941,#943,.T.);
#941 = VERTEX_POINT('',#942);
#942 = CARTESIAN_POINT('',(23.315,34.165,19.));
#943 = LINE('',#944,#945);
#944 = CARTESIAN_POINT('',(23.315,34.415,18.75));
#945 = VECTOR('',#946,1.);
#946 = DIRECTION('',(-2.90882763039E-35,-0.707106781187,0.707106781187)
  );
#947 = ORIENTED_EDGE('',*,*,#645,.T.);
#948 = ORIENTED_EDGE('',*,*,#908,.T.);
#949 = ORIENTED_EDGE('',*,*,#950,.F.);
#950 = EDGE_CURVE('',#941,#909,#951,.T.);
#951 = LINE('',#952,#953);
#952 = CARTESIAN_POINT('',(23.315,34.165,19.));
#953 = VECTOR('',#954,1.);
#954 = DIRECTION('',(-1.,0.,0.));
#955 = PLANE('',#956);
#956 = AXIS2_PLACEMENT_3D('',#957,#958,#959);
#957 = CARTESIAN_POINT('',(23.315,34.415,18.75));
#958 = DIRECTION('',(-1.889513820523E-18,-0.707106781187,-0.707106781187
    ));
#959 = DIRECTION('',(1.,-1.336088035637E-18,-1.336088035637E-18));
#960 = ADVANCED_FACE('',(#961),#979,.F.);
#961 = FACE_BOUND('',#962,.T.);
#962 = EDGE_LOOP('',(#963,#964,#965,#973));
#963 = ORIENTED_EDGE('',*,*,#917,.F.);
#964 = ORIENTED_EDGE('',*,*,#662,.T.);
#965 = ORIENTED_EDGE('',*,*,#966,.T.);
#966 = EDGE_CURVE('',#663,#967,#969,.T.);
#967 = VERTEX_POINT('',#968);
#968 = CARTESIAN_POINT('',(16.585,27.435,19.));
#969 = LINE('',#970,#971);
#970 = CARTESIAN_POINT('',(16.335,27.435,18.75));
#971 = VECTOR('',#972,1.);
#972 = DIRECTION('',(0.707106781187,-2.90882763039E-35,0.707106781187));
#973 = ORIENTED_EDGE('',*,*,#974,.F.);
#974 = EDGE_CURVE('',#918,#967,#975,.T.);
#975 = LINE('',#976,#977);
#976 = CARTESIAN_POINT('',(16.585,34.065,19.));
#977 = VECTOR('',#978,1.);
#978 = DIRECTION('',(0.,-1.,0.));
#979 = PLANE('',#980);
#980 = AXIS2_PLACEMENT_3D('',#981,#982,#983);
#981 = CARTESIAN_POINT('',(16.335,34.065,18.75));
#982 = DIRECTION('',(0.707106781187,1.889513820523E-18,-0.707106781187)
  );
#983 = DIRECTION('',(-1.336088035637E-18,1.,1.336088035637E-18));
#984 = ADVANCED_FACE('',(#985),#1004,.T.);
#985 = FACE_BOUND('',#986,.T.);
#986 = EDGE_LOOP('',(#987,#995,#996,#997));
#987 = ORIENTED_EDGE('',*,*,#988,.F.);
#988 = EDGE_CURVE('',#687,#989,#991,.T.);
#989 = VERTEX_POINT('',#990);
#990 = CARTESIAN_POINT('',(23.415,34.065,19.));
#991 = LINE('',#992,#993);
#992 = CARTESIAN_POINT('',(23.665,34.065,18.75));
#993 = VECTOR('',#994,1.);
#994 = DIRECTION('',(-0.707106781187,2.90882763039E-35,0.707106781187));
#995 = ORIENTED_EDGE('',*,*,#694,.T.);
#996 = ORIENTED_EDGE('',*,*,#940,.T.);
#997 = ORIENTED_EDGE('',*,*,#998,.F.);
#998 = EDGE_CURVE('',#989,#941,#999,.T.);
#999 = CIRCLE('',#1000,1.E-01);
#1000 = AXIS2_PLACEMENT_3D('',#1001,#1002,#1003);
#1001 = CARTESIAN_POINT('',(23.315,34.065,19.));
#1002 = DIRECTION('',(0.,0.,1.));
#1003 = DIRECTION('',(1.,0.,0.));
#1004 = CONICAL_SURFACE('',#1005,0.6,0.785398163397);
#1005 = AXIS2_PLACEMENT_3D('',#1006,#1007,#1008);
#1006 = CARTESIAN_POINT('',(23.315,34.065,18.5));
#1007 = DIRECTION('',(-0.,-0.,-1.));
#1008 = DIRECTION('',(1.,0.,0.));
#1009 = ADVANCED_FACE('',(#1010),#1029,.T.);
#1010 = FACE_BOUND('',#1011,.T.);
#1011 = EDGE_LOOP('',(#1012,#1013,#1014,#1022));
#1012 = ORIENTED_EDGE('',*,*,#966,.F.);
#1013 = ORIENTED_EDGE('',*,*,#719,.T.);
#1014 = ORIENTED_EDGE('',*,*,#1015,.T.);
#1015 = EDGE_CURVE('',#712,#1016,#1018,.T.);
#1016 = VERTEX_POINT('',#1017);
#1017 = CARTESIAN_POINT('',(16.685,27.335,19.));
#1018 = LINE('',#1019,#1020);
#1019 = CARTESIAN_POINT('',(16.685,26.835,18.5));
#1020 = VECTOR('',#1021,1.);
#1021 = DIRECTION('',(4.329780281177E-17,0.707106781187,0.707106781187)
  );
#1022 = ORIENTED_EDGE('',*,*,#1023,.F.);
#1023 = EDGE_CURVE('',#967,#1016,#1024,.T.);
#1024 = CIRCLE('',#1025,1.E-01);
#1025 = AXIS2_PLACEMENT_3D('',#1026,#1027,#1028);
#1026 = CARTESIAN_POINT('',(16.685,27.435,19.));
#1027 = DIRECTION('',(0.,0.,1.));
#1028 = DIRECTION('',(-1.,0.,0.));
#1029 = CONICAL_SURFACE('',#1030,0.6,0.785398163397);
#1030 = AXIS2_PLACEMENT_3D('',#1031,#1032,#1033);
#1031 = CARTESIAN_POINT('',(16.685,27.435,18.5));
#1032 = DIRECTION('',(-0.,-0.,-1.));
#1033 = DIRECTION('',(-1.,0.,0.));
#1034 = ADVANCED_FACE('',(#1035),#1053,.F.);
#1035 = FACE_BOUND('',#1036,.T.);
#1036 = EDGE_LOOP('',(#1037,#1045,#1046,#1047));
#1037 = ORIENTED_EDGE('',*,*,#1038,.F.);
#1038 = EDGE_CURVE('',#736,#1039,#1041,.T.);
#1039 = VERTEX_POINT('',#1040);
#1040 = CARTESIAN_POINT('',(23.415,27.435,19.));
#1041 = LINE('',#1042,#1043);
#1042 = CARTESIAN_POINT('',(23.915,27.435,18.5));
#1043 = VECTOR('',#1044,1.);
#1044 = DIRECTION('',(-0.707106781187,4.329780281177E-17,0.707106781187)
  );
#1045 = ORIENTED_EDGE('',*,*,#743,.T.);
#1046 = ORIENTED_EDGE('',*,*,#988,.T.);
#1047 = ORIENTED_EDGE('',*,*,#1048,.F.);
#1048 = EDGE_CURVE('',#1039,#989,#1049,.T.);
#1049 = LINE('',#1050,#1051);
#1050 = CARTESIAN_POINT('',(23.415,27.435,19.));
#1051 = VECTOR('',#1052,1.);
#1052 = DIRECTION('',(0.,1.,0.));
#1053 = PLANE('',#1054);
#1054 = AXIS2_PLACEMENT_3D('',#1055,#1056,#1057);
#1055 = CARTESIAN_POINT('',(23.665,27.435,18.75));
#1056 = DIRECTION('',(-0.707106781187,-1.889513820523E-18,
    -0.707106781187));
#1057 = DIRECTION('',(1.336088035637E-18,-1.,1.336088035637E-18));
#1058 = ADVANCED_FACE('',(#1059),#1077,.F.);
#1059 = FACE_BOUND('',#1060,.T.);
#1060 = EDGE_LOOP('',(#1061,#1062,#1063,#1071));
#1061 = ORIENTED_EDGE('',*,*,#1015,.F.);
#1062 = ORIENTED_EDGE('',*,*,#760,.T.);
#1063 = ORIENTED_EDGE('',*,*,#1064,.T.);
#1064 = EDGE_CURVE('',#761,#1065,#1067,.T.);
#1065 = VERTEX_POINT('',#1066);
#1066 = CARTESIAN_POINT('',(23.315,27.335,19.));
#1067 = LINE('',#1068,#1069);
#1068 = CARTESIAN_POINT('',(23.315,27.085,18.75));
#1069 = VECTOR('',#1070,1.);
#1070 = DIRECTION('',(2.90882763039E-35,0.707106781187,0.707106781187));
#1071 = ORIENTED_EDGE('',*,*,#1072,.F.);
#1072 = EDGE_CURVE('',#1016,#1065,#1073,.T.);
#1073 = LINE('',#1074,#1075);
#1074 = CARTESIAN_POINT('',(16.685,27.335,19.));
#1075 = VECTOR('',#1076,1.);
#1076 = DIRECTION('',(1.,0.,0.));
#1077 = PLANE('',#1078);
#1078 = AXIS2_PLACEMENT_3D('',#1079,#1080,#1081);
#1079 = CARTESIAN_POINT('',(16.685,27.085,18.75));
#1080 = DIRECTION('',(1.889513820523E-18,0.707106781187,-0.707106781187)
  );
#1081 = DIRECTION('',(-1.,1.336088035637E-18,-1.336088035637E-18));
#1082 = ADVANCED_FACE('',(#1083),#1095,.T.);
#1083 = FACE_BOUND('',#1084,.T.);
#1084 = EDGE_LOOP('',(#1085,#1086,#1087,#1088));
#1085 = ORIENTED_EDGE('',*,*,#1064,.F.);
#1086 = ORIENTED_EDGE('',*,*,#785,.T.);
#1087 = ORIENTED_EDGE('',*,*,#1038,.T.);
#1088 = ORIENTED_EDGE('',*,*,#1089,.F.);
#1089 = EDGE_CURVE('',#1065,#1039,#1090,.T.);
#1090 = CIRCLE('',#1091,1.E-01);
#1091 = AXIS2_PLACEMENT_3D('',#1092,#1093,#1094);
#1092 = CARTESIAN_POINT('',(23.315,27.435,19.));
#1093 = DIRECTION('',(-0.,0.,1.));
#1094 = DIRECTION('',(0.,-1.,0.));
#1095 = CONICAL_SURFACE('',#1096,0.6,0.785398163397);
#1096 = AXIS2_PLACEMENT_3D('',#1097,#1098,#1099);
#1097 = CARTESIAN_POINT('',(23.315,27.435,18.5));
#1098 = DIRECTION('',(-0.,-0.,-1.));
#1099 = DIRECTION('',(0.,-1.,0.));
#1100 = ADVANCED_FACE('',(#1101),#1112,.F.);
#1101 = FACE_BOUND('',#1102,.F.);
#1102 = EDGE_LOOP('',(#1103,#1104,#1105,#1111));
#1103 = ORIENTED_EDGE('',*,*,#800,.F.);
#1104 = ORIENTED_EDGE('',*,*,#872,.T.);
#1105 = ORIENTED_EDGE('',*,*,#1106,.T.);
#1106 = EDGE_CURVE('',#873,#818,#1107,.T.);
#1107 = LINE('',#1108,#1109);
#1108 = CARTESIAN_POINT('',(44.,42.146211251235,0.));
#1109 = VECTOR('',#1110,1.);
#1110 = DIRECTION('',(0.,1.,0.));
#1111 = ORIENTED_EDGE('',*,*,#817,.T.);
#1112 = PLANE('',#1113);
#1113 = AXIS2_PLACEMENT_3D('',#1114,#1115,#1116);
#1114 = CARTESIAN_POINT('',(42.172338161771,45.146211251235,0.));
#1115 = DIRECTION('',(0.,0.,1.));
#1116 = DIRECTION('',(1.,0.,0.));
#1117 = ADVANCED_FACE('',(#1118),#1124,.F.);
#1118 = FACE_BOUND('',#1119,.F.);
#1119 = EDGE_LOOP('',(#1120,#1121,#1122,#1123));
#1120 = ORIENTED_EDGE('',*,*,#882,.T.);
#1121 = ORIENTED_EDGE('',*,*,#857,.T.);
#1122 = ORIENTED_EDGE('',*,*,#825,.F.);
#1123 = ORIENTED_EDGE('',*,*,#1106,.F.);
#1124 = PLANE('',#1125);
#1125 = AXIS2_PLACEMENT_3D('',#1126,#1127,#1128);
#1126 = CARTESIAN_POINT('',(44.,42.146211251235,0.));
#1127 = DIRECTION('',(-1.,0.,0.));
#1128 = DIRECTION('',(0.,1.,0.));
#1129 = ADVANCED_FACE('',(#1130),#1140,.T.);
#1130 = FACE_BOUND('',#1131,.T.);
#1131 = EDGE_LOOP('',(#1132,#1133,#1134,#1135,#1136,#1137,#1138,#1139));
#1132 = ORIENTED_EDGE('',*,*,#950,.T.);
#1133 = ORIENTED_EDGE('',*,*,#925,.T.);
#1134 = ORIENTED_EDGE('',*,*,#974,.T.);
#1135 = ORIENTED_EDGE('',*,*,#1023,.T.);
#1136 = ORIENTED_EDGE('',*,*,#1072,.T.);
#1137 = ORIENTED_EDGE('',*,*,#1089,.T.);
#1138 = ORIENTED_EDGE('',*,*,#1048,.T.);
#1139 = ORIENTED_EDGE('',*,*,#998,.T.);
#1140 = PLANE('',#1141);
#1141 = AXIS2_PLACEMENT_3D('',#1142,#1143,#1144);
#1142 = CARTESIAN_POINT('',(20.,30.75,19.));
#1143 = DIRECTION('',(0.,0.,1.));
#1144 = DIRECTION('',(1.,0.,0.));
#1145 = ( GEOMETRIC_REPRESENTATION_CONTEXT(3) 
GLOBAL_UNCERTAINTY_ASSIGNED_CONTEXT((#1149)) 
GLOBAL_UNIT_ASSIGNED_CONTEXT((#1146,#1147,#1148)) REPRESENTATION_CONTEXT
('Context #1','3D Context with UNIT and UNCERTAINTY') );
#1146 = ( LENGTH_UNIT() NAMED_UNIT(*) SI_UNIT(.MILLI.,.METRE.) );
#1147 = ( NAMED_UNIT(*) PLANE_ANGLE_UNIT() SI_UNIT($,.RADIAN.) );
#1148 = ( NAMED_UNIT(*) SI_UNIT($,.STERADIAN.) SOLID_ANGLE_UNIT() );
#1149 = UNCERTAINTY_MEASURE_WITH_UNIT(LENGTH_MEASURE(1.E-07),#1146,
  'distance_accuracy_value','confusion accuracy');
#1150 = PRODUCT_RELATED_PRODUCT_CATEGORY('part',$,(#7));
ENDSEC;
END-ISO-10303-21;
