ISO-10303-21;
HEADER;
FILE_DESCRIPTION(('FreeCAD Model'),'2;1');
FILE_NAME('Open CASCADE Shape Model','2026-09-27T12:54:20',('Author'),(
    ''),'Open CASCADE STEP processor 7.8','FreeCAD','Unknown');
FILE_SCHEMA(('AUTOMOTIVE_DESIGN { 1 0 10303 214 1 1 1 1 }'));
ENDSEC;
DATA;
#1 = APPLICATION_PROTOCOL_DEFINITION('international standard',
  'automotive_design',2000,#2);
#2 = APPLICATION_CONTEXT(
  'core data for automotive mechanical design processes');
#3 = SHAPE_DEFINITION_REPRESENTATION(#4,#10);
#4 = PRODUCT_DEFINITION_SHAPE('','',#5);
#5 = PRODUCT_DEFINITION('design','',#6,#9);
#6 = PRODUCT_DEFINITION_FORMATION('','',#7);
#7 = PRODUCT('Rail','Rail','',(#8));
#8 = PRODUCT_CONTEXT('',#2,'mechanical');
#9 = PRODUCT_DEFINITION_CONTEXT('part definition',#2,'design');
#10 = ADVANCED_BREP_SHAPE_REPRESENTATION('',(#11,#15),#1466);
#11 = AXIS2_PLACEMENT_3D('',#12,#13,#14);
#12 = CARTESIAN_POINT('',(0.,0.,0.));
#13 = DIRECTION('',(0.,0.,1.));
#14 = DIRECTION('',(1.,0.,-0.));
#15 = MANIFOLD_SOLID_BREP('',#16);
#16 = CLOSED_SHELL('',(#17,#57,#88,#119,#144,#169,#186,#330,#359,#382,
    #405,#428,#451,#474,#497,#514,#543,#566,#589,#612,#635,#658,#681,
    #698,#727,#750,#773,#796,#819,#842,#865,#882,#911,#934,#957,#980,
    #1003,#1026,#1049,#1066,#1095,#1118,#1141,#1164,#1187,#1210,#1233,
    #1250,#1279,#1302,#1325,#1348,#1371,#1394,#1417,#1434,#1450));
#17 = ADVANCED_FACE('',(#18),#52,.F.);
#18 = FACE_BOUND('',#19,.F.);
#19 = EDGE_LOOP('',(#20,#30,#38,#46));
#20 = ORIENTED_EDGE('',*,*,#21,.T.);
#21 = EDGE_CURVE('',#22,#24,#26,.T.);
#22 = VERTEX_POINT('',#23);
#23 = CARTESIAN_POINT('',(-37.5,0.,42.8));
#24 = VERTEX_POINT('',#25);
#25 = CARTESIAN_POINT('',(37.5,0.,42.8));
#26 = LINE('',#27,#28);
#27 = CARTESIAN_POINT('',(-37.5,0.,42.8));
#28 = VECTOR('',#29,1.);
#29 = DIRECTION('',(1.,0.,0.));
#30 = ORIENTED_EDGE('',*,*,#31,.T.);
#31 = EDGE_CURVE('',#24,#32,#34,.T.);
#32 = VERTEX_POINT('',#33);
#33 = CARTESIAN_POINT('',(37.5,-1.818900152513,42.8));
#34 = LINE('',#35,#36);
#35 = CARTESIAN_POINT('',(37.5,0.,42.8));
#36 = VECTOR('',#37,1.);
#37 = DIRECTION('',(0.,-1.,0.));
#38 = ORIENTED_EDGE('',*,*,#39,.F.);
#39 = EDGE_CURVE('',#40,#32,#42,.T.);
#40 = VERTEX_POINT('',#41);
#41 = CARTESIAN_POINT('',(-37.5,-1.818900152513,42.8));
#42 = LINE('',#43,#44);
#43 = CARTESIAN_POINT('',(-37.5,-1.818900152513,42.8));
#44 = VECTOR('',#45,1.);
#45 = DIRECTION('',(1.,0.,0.));
#46 = ORIENTED_EDGE('',*,*,#47,.F.);
#47 = EDGE_CURVE('',#22,#40,#48,.T.);
#48 = LINE('',#49,#50);
#49 = CARTESIAN_POINT('',(-37.5,0.,42.8));
#50 = VECTOR('',#51,1.);
#51 = DIRECTION('',(0.,-1.,0.));
#52 = PLANE('',#53);
#53 = AXIS2_PLACEMENT_3D('',#54,#55,#56);
#54 = CARTESIAN_POINT('',(-37.5,0.,42.8));
#55 = DIRECTION('',(0.,0.,-1.));
#56 = DIRECTION('',(0.,-1.,0.));
#57 = ADVANCED_FACE('',(#58),#83,.F.);
#58 = FACE_BOUND('',#59,.F.);
#59 = EDGE_LOOP('',(#60,#70,#76,#77));
#60 = ORIENTED_EDGE('',*,*,#61,.T.);
#61 = EDGE_CURVE('',#62,#64,#66,.T.);
#62 = VERTEX_POINT('',#63);
#63 = CARTESIAN_POINT('',(-37.5,0.,0.));
#64 = VERTEX_POINT('',#65);
#65 = CARTESIAN_POINT('',(37.5,0.,0.));
#66 = LINE('',#67,#68);
#67 = CARTESIAN_POINT('',(-37.5,0.,0.));
#68 = VECTOR('',#69,1.);
#69 = DIRECTION('',(1.,0.,0.));
#70 = ORIENTED_EDGE('',*,*,#71,.T.);
#71 = EDGE_CURVE('',#64,#24,#72,.T.);
#72 = LINE('',#73,#74);
#73 = CARTESIAN_POINT('',(37.5,0.,0.));
#74 = VECTOR('',#75,1.);
#75 = DIRECTION('',(0.,0.,1.));
#76 = ORIENTED_EDGE('',*,*,#21,.F.);
#77 = ORIENTED_EDGE('',*,*,#78,.F.);
#78 = EDGE_CURVE('',#62,#22,#79,.T.);
#79 = LINE('',#80,#81);
#80 = CARTESIAN_POINT('',(-37.5,0.,0.));
#81 = VECTOR('',#82,1.);
#82 = DIRECTION('',(0.,0.,1.));
#83 = PLANE('',#84);
#84 = AXIS2_PLACEMENT_3D('',#85,#86,#87);
#85 = CARTESIAN_POINT('',(-37.5,0.,0.));
#86 = DIRECTION('',(0.,-1.,0.));
#87 = DIRECTION('',(0.,0.,1.));
#88 = ADVANCED_FACE('',(#89),#114,.F.);
#89 = FACE_BOUND('',#90,.F.);
#90 = EDGE_LOOP('',(#91,#92,#100,#108));
#91 = ORIENTED_EDGE('',*,*,#39,.T.);
#92 = ORIENTED_EDGE('',*,*,#93,.T.);
#93 = EDGE_CURVE('',#32,#94,#96,.T.);
#94 = VERTEX_POINT('',#95);
#95 = CARTESIAN_POINT('',(37.5,-5.,34.06));
#96 = LINE('',#97,#98);
#97 = CARTESIAN_POINT('',(37.5,-1.818900152513,42.8));
#98 = VECTOR('',#99,1.);
#99 = DIRECTION('',(0.,-0.342020143326,-0.939692620786));
#100 = ORIENTED_EDGE('',*,*,#101,.F.);
#101 = EDGE_CURVE('',#102,#94,#104,.T.);
#102 = VERTEX_POINT('',#103);
#103 = CARTESIAN_POINT('',(-37.5,-5.,34.06));
#104 = LINE('',#105,#106);
#105 = CARTESIAN_POINT('',(-37.5,-5.,34.06));
#106 = VECTOR('',#107,1.);
#107 = DIRECTION('',(1.,0.,0.));
#108 = ORIENTED_EDGE('',*,*,#109,.F.);
#109 = EDGE_CURVE('',#40,#102,#110,.T.);
#110 = LINE('',#111,#112);
#111 = CARTESIAN_POINT('',(-37.5,-1.818900152513,42.8));
#112 = VECTOR('',#113,1.);
#113 = DIRECTION('',(0.,-0.342020143326,-0.939692620786));
#114 = PLANE('',#115);
#115 = AXIS2_PLACEMENT_3D('',#116,#117,#118);
#116 = CARTESIAN_POINT('',(-37.5,-1.818900152513,42.8));
#117 = DIRECTION('',(0.,0.939692620786,-0.342020143326));
#118 = DIRECTION('',(0.,-0.342020143326,-0.939692620786));
#119 = ADVANCED_FACE('',(#120),#139,.F.);
#120 = FACE_BOUND('',#121,.F.);
#121 = EDGE_LOOP('',(#122,#123,#124,#132,#138));
#122 = ORIENTED_EDGE('',*,*,#47,.T.);
#123 = ORIENTED_EDGE('',*,*,#109,.T.);
#124 = ORIENTED_EDGE('',*,*,#125,.T.);
#125 = EDGE_CURVE('',#102,#126,#128,.T.);
#126 = VERTEX_POINT('',#127);
#127 = CARTESIAN_POINT('',(-37.5,-5.,0.));
#128 = LINE('',#129,#130);
#129 = CARTESIAN_POINT('',(-37.5,-5.,34.06));
#130 = VECTOR('',#131,1.);
#131 = DIRECTION('',(0.,0.,-1.));
#132 = ORIENTED_EDGE('',*,*,#133,.T.);
#133 = EDGE_CURVE('',#126,#62,#134,.T.);
#134 = LINE('',#135,#136);
#135 = CARTESIAN_POINT('',(-37.5,-5.,0.));
#136 = VECTOR('',#137,1.);
#137 = DIRECTION('',(0.,1.,0.));
#138 = ORIENTED_EDGE('',*,*,#78,.T.);
#139 = PLANE('',#140);
#140 = AXIS2_PLACEMENT_3D('',#141,#142,#143);
#141 = CARTESIAN_POINT('',(-37.5,-2.324861611178,20.770581920471));
#142 = DIRECTION('',(1.,0.,0.));
#143 = DIRECTION('',(-0.,0.,1.));
#144 = ADVANCED_FACE('',(#145),#164,.T.);
#145 = FACE_BOUND('',#146,.T.);
#146 = EDGE_LOOP('',(#147,#148,#149,#157,#163));
#147 = ORIENTED_EDGE('',*,*,#31,.T.);
#148 = ORIENTED_EDGE('',*,*,#93,.T.);
#149 = ORIENTED_EDGE('',*,*,#150,.T.);
#150 = EDGE_CURVE('',#94,#151,#153,.T.);
#151 = VERTEX_POINT('',#152);
#152 = CARTESIAN_POINT('',(37.5,-5.,0.));
#153 = LINE('',#154,#155);
#154 = CARTESIAN_POINT('',(37.5,-5.,34.06));
#155 = VECTOR('',#156,1.);
#156 = DIRECTION('',(0.,0.,-1.));
#157 = ORIENTED_EDGE('',*,*,#158,.T.);
#158 = EDGE_CURVE('',#151,#64,#159,.T.);
#159 = LINE('',#160,#161);
#160 = CARTESIAN_POINT('',(37.5,-5.,0.));
#161 = VECTOR('',#162,1.);
#162 = DIRECTION('',(0.,1.,0.));
#163 = ORIENTED_EDGE('',*,*,#71,.T.);
#164 = PLANE('',#165);
#165 = AXIS2_PLACEMENT_3D('',#166,#167,#168);
#166 = CARTESIAN_POINT('',(37.5,-2.324861611178,20.770581920471));
#167 = DIRECTION('',(1.,0.,0.));
#168 = DIRECTION('',(-0.,0.,1.));
#169 = ADVANCED_FACE('',(#170),#181,.F.);
#170 = FACE_BOUND('',#171,.F.);
#171 = EDGE_LOOP('',(#172,#178,#179,#180));
#172 = ORIENTED_EDGE('',*,*,#173,.T.);
#173 = EDGE_CURVE('',#126,#151,#174,.T.);
#174 = LINE('',#175,#176);
#175 = CARTESIAN_POINT('',(-37.5,-5.,0.));
#176 = VECTOR('',#177,1.);
#177 = DIRECTION('',(1.,0.,0.));
#178 = ORIENTED_EDGE('',*,*,#158,.T.);
#179 = ORIENTED_EDGE('',*,*,#61,.F.);
#180 = ORIENTED_EDGE('',*,*,#133,.F.);
#181 = PLANE('',#182);
#182 = AXIS2_PLACEMENT_3D('',#183,#184,#185);
#183 = CARTESIAN_POINT('',(-37.5,-5.,0.));
#184 = DIRECTION('',(0.,0.,1.));
#185 = DIRECTION('',(0.,1.,0.));
#186 = ADVANCED_FACE('',(#187,#193,#259),#325,.F.);
#187 = FACE_BOUND('',#188,.F.);
#188 = EDGE_LOOP('',(#189,#190,#191,#192));
#189 = ORIENTED_EDGE('',*,*,#101,.T.);
#190 = ORIENTED_EDGE('',*,*,#150,.T.);
#191 = ORIENTED_EDGE('',*,*,#173,.F.);
#192 = ORIENTED_EDGE('',*,*,#125,.F.);
#193 = FACE_BOUND('',#194,.F.);
#194 = EDGE_LOOP('',(#195,#205,#213,#221,#229,#237,#245,#253));
#195 = ORIENTED_EDGE('',*,*,#196,.F.);
#196 = EDGE_CURVE('',#197,#199,#201,.T.);
#197 = VERTEX_POINT('',#198);
#198 = CARTESIAN_POINT('',(27.795941546018,-5.,19.25));
#199 = VERTEX_POINT('',#200);
#200 = CARTESIAN_POINT('',(31.75,-5.,15.295941546018));
#201 = LINE('',#202,#203);
#202 = CARTESIAN_POINT('',(9.746485386505,-5.,37.299456159514));
#203 = VECTOR('',#204,1.);
#204 = DIRECTION('',(0.707106781187,0.,-0.707106781187));
#205 = ORIENTED_EDGE('',*,*,#206,.F.);
#206 = EDGE_CURVE('',#207,#197,#209,.T.);
#207 = VERTEX_POINT('',#208);
#208 = CARTESIAN_POINT('',(22.204058453982,-5.,19.25));
#209 = LINE('',#210,#211);
#210 = CARTESIAN_POINT('',(-4.852029226991,-5.,19.25));
#211 = VECTOR('',#212,1.);
#212 = DIRECTION('',(1.,0.,-0.));
#213 = ORIENTED_EDGE('',*,*,#214,.F.);
#214 = EDGE_CURVE('',#215,#207,#217,.T.);
#215 = VERTEX_POINT('',#216);
#216 = CARTESIAN_POINT('',(18.25,-5.,15.295941546018));
#217 = LINE('',#218,#219);
#218 = CARTESIAN_POINT('',(10.980543840486,-5.,8.026485386505));
#219 = VECTOR('',#220,1.);
#220 = DIRECTION('',(0.707106781187,0.,0.707106781187));
#221 = ORIENTED_EDGE('',*,*,#222,.F.);
#222 = EDGE_CURVE('',#223,#215,#225,.T.);
#223 = VERTEX_POINT('',#224);
#224 = CARTESIAN_POINT('',(18.25,-5.,9.704058453982));
#225 = LINE('',#226,#227);
#226 = CARTESIAN_POINT('',(18.25,-5.,24.677970773009));
#227 = VECTOR('',#228,1.);
#228 = DIRECTION('',(0.,-0.,1.));
#229 = ORIENTED_EDGE('',*,*,#230,.F.);
#230 = EDGE_CURVE('',#231,#223,#233,.T.);
#231 = VERTEX_POINT('',#232);
#232 = CARTESIAN_POINT('',(22.204058453982,-5.,5.75));
#233 = LINE('',#234,#235);
#234 = CARTESIAN_POINT('',(-1.776485386505,-5.,29.730543840486));
#235 = VECTOR('',#236,1.);
#236 = DIRECTION('',(-0.707106781187,-0.,0.707106781187));
#237 = ORIENTED_EDGE('',*,*,#238,.F.);
#238 = EDGE_CURVE('',#239,#231,#241,.T.);
#239 = VERTEX_POINT('',#240);
#240 = CARTESIAN_POINT('',(27.795941546018,-5.,5.75));
#241 = LINE('',#242,#243);
#242 = CARTESIAN_POINT('',(-7.647970773009,-5.,5.75));
#243 = VECTOR('',#244,1.);
#244 = DIRECTION('',(-1.,0.,-0.));
#245 = ORIENTED_EDGE('',*,*,#246,.F.);
#246 = EDGE_CURVE('',#247,#239,#249,.T.);
#247 = VERTEX_POINT('',#248);
#248 = CARTESIAN_POINT('',(31.75,-5.,9.704058453982));
#249 = LINE('',#250,#251);
#250 = CARTESIAN_POINT('',(18.549456159514,-5.,-3.496485386505));
#251 = VECTOR('',#252,1.);
#252 = DIRECTION('',(-0.707106781187,0.,-0.707106781187));
#253 = ORIENTED_EDGE('',*,*,#254,.F.);
#254 = EDGE_CURVE('',#199,#247,#255,.T.);
#255 = LINE('',#256,#257);
#256 = CARTESIAN_POINT('',(31.75,-5.,21.882029226991));
#257 = VECTOR('',#258,1.);
#258 = DIRECTION('',(-0.,0.,-1.));
#259 = FACE_BOUND('',#260,.F.);
#260 = EDGE_LOOP('',(#261,#271,#279,#287,#295,#303,#311,#319));
#261 = ORIENTED_EDGE('',*,*,#262,.F.);
#262 = EDGE_CURVE('',#263,#265,#267,.T.);
#263 = VERTEX_POINT('',#264);
#264 = CARTESIAN_POINT('',(-22.20405845398,-5.,19.25));
#265 = VERTEX_POINT('',#266);
#266 = CARTESIAN_POINT('',(-18.25,-5.,15.295941546018));
#267 = LINE('',#268,#269);
#268 = CARTESIAN_POINT('',(-27.75351461349,-5.,24.799456159514));
#269 = VECTOR('',#270,1.);
#270 = DIRECTION('',(0.707106781187,0.,-0.707106781187));
#271 = ORIENTED_EDGE('',*,*,#272,.F.);
#272 = EDGE_CURVE('',#273,#263,#275,.T.);
#273 = VERTEX_POINT('',#274);
#274 = CARTESIAN_POINT('',(-27.79594154601,-5.,19.25));
#275 = LINE('',#276,#277);
#276 = CARTESIAN_POINT('',(-29.85202922699,-5.,19.25));
#277 = VECTOR('',#278,1.);
#278 = DIRECTION('',(1.,0.,-0.));
#279 = ORIENTED_EDGE('',*,*,#280,.F.);
#280 = EDGE_CURVE('',#281,#273,#283,.T.);
#281 = VERTEX_POINT('',#282);
#282 = CARTESIAN_POINT('',(-31.75,-5.,15.295941546018));
#283 = LINE('',#284,#285);
#284 = CARTESIAN_POINT('',(-26.51945615951,-5.,20.526485386505));
#285 = VECTOR('',#286,1.);
#286 = DIRECTION('',(0.707106781187,0.,0.707106781187));
#287 = ORIENTED_EDGE('',*,*,#288,.F.);
#288 = EDGE_CURVE('',#289,#281,#291,.T.);
#289 = VERTEX_POINT('',#290);
#290 = CARTESIAN_POINT('',(-31.75,-5.,9.704058453982));
#291 = LINE('',#292,#293);
#292 = CARTESIAN_POINT('',(-31.75,-5.,24.677970773009));
#293 = VECTOR('',#294,1.);
#294 = DIRECTION('',(0.,-0.,1.));
#295 = ORIENTED_EDGE('',*,*,#296,.F.);
#296 = EDGE_CURVE('',#297,#289,#299,.T.);
#297 = VERTEX_POINT('',#298);
#298 = CARTESIAN_POINT('',(-27.79594154601,-5.,5.75));
#299 = LINE('',#300,#301);
#300 = CARTESIAN_POINT('',(-39.2764853865,-5.,17.230543840486));
#301 = VECTOR('',#302,1.);
#302 = DIRECTION('',(-0.707106781187,-0.,0.707106781187));
#303 = ORIENTED_EDGE('',*,*,#304,.F.);
#304 = EDGE_CURVE('',#305,#297,#307,.T.);
#305 = VERTEX_POINT('',#306);
#306 = CARTESIAN_POINT('',(-22.20405845398,-5.,5.75));
#307 = LINE('',#308,#309);
#308 = CARTESIAN_POINT('',(-32.647970773,-5.,5.75));
#309 = VECTOR('',#310,1.);
#310 = DIRECTION('',(-1.,0.,-0.));
#311 = ORIENTED_EDGE('',*,*,#312,.F.);
#312 = EDGE_CURVE('',#313,#305,#315,.T.);
#313 = VERTEX_POINT('',#314);
#314 = CARTESIAN_POINT('',(-18.25,-5.,9.704058453982));
#315 = LINE('',#316,#317);
#316 = CARTESIAN_POINT('',(-18.95054384048,-5.,9.003514613495));
#317 = VECTOR('',#318,1.);
#318 = DIRECTION('',(-0.707106781187,0.,-0.707106781187));
#319 = ORIENTED_EDGE('',*,*,#320,.F.);
#320 = EDGE_CURVE('',#265,#313,#321,.T.);
#321 = LINE('',#322,#323);
#322 = CARTESIAN_POINT('',(-18.25,-5.,21.882029226991));
#323 = VECTOR('',#324,1.);
#324 = DIRECTION('',(-0.,0.,-1.));
#325 = PLANE('',#326);
#326 = AXIS2_PLACEMENT_3D('',#327,#328,#329);
#327 = CARTESIAN_POINT('',(-37.5,-5.,34.06));
#328 = DIRECTION('',(-0.,1.,0.));
#329 = DIRECTION('',(0.,0.,-1.));
#330 = ADVANCED_FACE('',(#331),#354,.T.);
#331 = FACE_BOUND('',#332,.T.);
#332 = EDGE_LOOP('',(#333,#340,#341,#348));
#333 = ORIENTED_EDGE('',*,*,#334,.F.);
#334 = EDGE_CURVE('',#199,#335,#337,.T.);
#335 = VERTEX_POINT('',#336);
#336 = CARTESIAN_POINT('',(31.75,-6.,15.295941546018));
#337 = B_SPLINE_CURVE_WITH_KNOTS('',1,(#338,#339),.UNSPECIFIED.,.F.,.F.,
  (2,2),(0.,1.),.PIECEWISE_BEZIER_KNOTS.);
#338 = CARTESIAN_POINT('',(31.75,-4.,15.295941546018));
#339 = CARTESIAN_POINT('',(31.75,-6.,15.295941546018));
#340 = ORIENTED_EDGE('',*,*,#196,.F.);
#341 = ORIENTED_EDGE('',*,*,#342,.T.);
#342 = EDGE_CURVE('',#197,#343,#345,.T.);
#343 = VERTEX_POINT('',#344);
#344 = CARTESIAN_POINT('',(27.795941546018,-6.,19.25));
#345 = B_SPLINE_CURVE_WITH_KNOTS('',1,(#346,#347),.UNSPECIFIED.,.F.,.F.,
  (2,2),(0.,1.),.PIECEWISE_BEZIER_KNOTS.);
#346 = CARTESIAN_POINT('',(27.795941546018,-4.,19.25));
#347 = CARTESIAN_POINT('',(27.795941546018,-6.,19.25));
#348 = ORIENTED_EDGE('',*,*,#349,.F.);
#349 = EDGE_CURVE('',#335,#343,#350,.T.);
#350 = LINE('',#351,#352);
#351 = CARTESIAN_POINT('',(31.75,-6.,15.295941546018));
#352 = VECTOR('',#353,1.);
#353 = DIRECTION('',(-0.707106781187,0.,0.707106781187));
#354 = PLANE('',#355);
#355 = AXIS2_PLACEMENT_3D('',#356,#357,#358);
#356 = CARTESIAN_POINT('',(31.75,-6.,15.295941546018));
#357 = DIRECTION('',(0.707106781187,0.,0.707106781187));
#358 = DIRECTION('',(-0.707106781187,0.,0.707106781187));
#359 = ADVANCED_FACE('',(#360),#377,.T.);
#360 = FACE_BOUND('',#361,.T.);
#361 = EDGE_LOOP('',(#362,#369,#370,#371));
#362 = ORIENTED_EDGE('',*,*,#363,.F.);
#363 = EDGE_CURVE('',#247,#364,#366,.T.);
#364 = VERTEX_POINT('',#365);
#365 = CARTESIAN_POINT('',(31.75,-6.,9.704058453982));
#366 = B_SPLINE_CURVE_WITH_KNOTS('',1,(#367,#368),.UNSPECIFIED.,.F.,.F.,
  (2,2),(0.,1.),.PIECEWISE_BEZIER_KNOTS.);
#367 = CARTESIAN_POINT('',(31.75,-4.,9.704058453982));
#368 = CARTESIAN_POINT('',(31.75,-6.,9.704058453982));
#369 = ORIENTED_EDGE('',*,*,#254,.F.);
#370 = ORIENTED_EDGE('',*,*,#334,.T.);
#371 = ORIENTED_EDGE('',*,*,#372,.F.);
#372 = EDGE_CURVE('',#364,#335,#373,.T.);
#373 = LINE('',#374,#375);
#374 = CARTESIAN_POINT('',(31.75,-6.,9.704058453982));
#375 = VECTOR('',#376,1.);
#376 = DIRECTION('',(0.,0.,1.));
#377 = PLANE('',#378);
#378 = AXIS2_PLACEMENT_3D('',#379,#380,#381);
#379 = CARTESIAN_POINT('',(31.75,-6.,9.704058453982));
#380 = DIRECTION('',(1.,0.,-0.));
#381 = DIRECTION('',(0.,0.,1.));
#382 = ADVANCED_FACE('',(#383),#400,.T.);
#383 = FACE_BOUND('',#384,.T.);
#384 = EDGE_LOOP('',(#385,#392,#393,#394));
#385 = ORIENTED_EDGE('',*,*,#386,.F.);
#386 = EDGE_CURVE('',#239,#387,#389,.T.);
#387 = VERTEX_POINT('',#388);
#388 = CARTESIAN_POINT('',(27.795941546018,-6.,5.75));
#389 = B_SPLINE_CURVE_WITH_KNOTS('',1,(#390,#391),.UNSPECIFIED.,.F.,.F.,
  (2,2),(0.,1.),.PIECEWISE_BEZIER_KNOTS.);
#390 = CARTESIAN_POINT('',(27.795941546018,-4.,5.75));
#391 = CARTESIAN_POINT('',(27.795941546018,-6.,5.75));
#392 = ORIENTED_EDGE('',*,*,#246,.F.);
#393 = ORIENTED_EDGE('',*,*,#363,.T.);
#394 = ORIENTED_EDGE('',*,*,#395,.F.);
#395 = EDGE_CURVE('',#387,#364,#396,.T.);
#396 = LINE('',#397,#398);
#397 = CARTESIAN_POINT('',(27.795941546018,-6.,5.75));
#398 = VECTOR('',#399,1.);
#399 = DIRECTION('',(0.707106781187,0.,0.707106781187));
#400 = PLANE('',#401);
#401 = AXIS2_PLACEMENT_3D('',#402,#403,#404);
#402 = CARTESIAN_POINT('',(27.795941546018,-6.,5.75));
#403 = DIRECTION('',(0.707106781187,0.,-0.707106781187));
#404 = DIRECTION('',(0.707106781187,0.,0.707106781187));
#405 = ADVANCED_FACE('',(#406),#423,.T.);
#406 = FACE_BOUND('',#407,.T.);
#407 = EDGE_LOOP('',(#408,#415,#416,#417));
#408 = ORIENTED_EDGE('',*,*,#409,.F.);
#409 = EDGE_CURVE('',#231,#410,#412,.T.);
#410 = VERTEX_POINT('',#411);
#411 = CARTESIAN_POINT('',(22.204058453982,-6.,5.75));
#412 = B_SPLINE_CURVE_WITH_KNOTS('',1,(#413,#414),.UNSPECIFIED.,.F.,.F.,
  (2,2),(0.,1.),.PIECEWISE_BEZIER_KNOTS.);
#413 = CARTESIAN_POINT('',(22.204058453982,-4.,5.75));
#414 = CARTESIAN_POINT('',(22.204058453982,-6.,5.75));
#415 = ORIENTED_EDGE('',*,*,#238,.F.);
#416 = ORIENTED_EDGE('',*,*,#386,.T.);
#417 = ORIENTED_EDGE('',*,*,#418,.F.);
#418 = EDGE_CURVE('',#410,#387,#419,.T.);
#419 = LINE('',#420,#421);
#420 = CARTESIAN_POINT('',(22.204058453982,-6.,5.75));
#421 = VECTOR('',#422,1.);
#422 = DIRECTION('',(1.,0.,0.));
#423 = PLANE('',#424);
#424 = AXIS2_PLACEMENT_3D('',#425,#426,#427);
#425 = CARTESIAN_POINT('',(22.204058453982,-6.,5.75));
#426 = DIRECTION('',(0.,0.,-1.));
#427 = DIRECTION('',(1.,0.,0.));
#428 = ADVANCED_FACE('',(#429),#446,.T.);
#429 = FACE_BOUND('',#430,.T.);
#430 = EDGE_LOOP('',(#431,#438,#439,#440));
#431 = ORIENTED_EDGE('',*,*,#432,.F.);
#432 = EDGE_CURVE('',#223,#433,#435,.T.);
#433 = VERTEX_POINT('',#434);
#434 = CARTESIAN_POINT('',(18.25,-6.,9.704058453982));
#435 = B_SPLINE_CURVE_WITH_KNOTS('',1,(#436,#437),.UNSPECIFIED.,.F.,.F.,
  (2,2),(0.,1.),.PIECEWISE_BEZIER_KNOTS.);
#436 = CARTESIAN_POINT('',(18.25,-4.,9.704058453982));
#437 = CARTESIAN_POINT('',(18.25,-6.,9.704058453982));
#438 = ORIENTED_EDGE('',*,*,#230,.F.);
#439 = ORIENTED_EDGE('',*,*,#409,.T.);
#440 = ORIENTED_EDGE('',*,*,#441,.F.);
#441 = EDGE_CURVE('',#433,#410,#442,.T.);
#442 = LINE('',#443,#444);
#443 = CARTESIAN_POINT('',(18.25,-6.,9.704058453982));
#444 = VECTOR('',#445,1.);
#445 = DIRECTION('',(0.707106781187,0.,-0.707106781187));
#446 = PLANE('',#447);
#447 = AXIS2_PLACEMENT_3D('',#448,#449,#450);
#448 = CARTESIAN_POINT('',(18.25,-6.,9.704058453982));
#449 = DIRECTION('',(-0.707106781187,-0.,-0.707106781187));
#450 = DIRECTION('',(0.707106781187,0.,-0.707106781187));
#451 = ADVANCED_FACE('',(#452),#469,.T.);
#452 = FACE_BOUND('',#453,.T.);
#453 = EDGE_LOOP('',(#454,#461,#462,#463));
#454 = ORIENTED_EDGE('',*,*,#455,.F.);
#455 = EDGE_CURVE('',#215,#456,#458,.T.);
#456 = VERTEX_POINT('',#457);
#457 = CARTESIAN_POINT('',(18.25,-6.,15.295941546018));
#458 = B_SPLINE_CURVE_WITH_KNOTS('',1,(#459,#460),.UNSPECIFIED.,.F.,.F.,
  (2,2),(0.,1.),.PIECEWISE_BEZIER_KNOTS.);
#459 = CARTESIAN_POINT('',(18.25,-4.,15.295941546018));
#460 = CARTESIAN_POINT('',(18.25,-6.,15.295941546018));
#461 = ORIENTED_EDGE('',*,*,#222,.F.);
#462 = ORIENTED_EDGE('',*,*,#432,.T.);
#463 = ORIENTED_EDGE('',*,*,#464,.F.);
#464 = EDGE_CURVE('',#456,#433,#465,.T.);
#465 = LINE('',#466,#467);
#466 = CARTESIAN_POINT('',(18.25,-6.,15.295941546018));
#467 = VECTOR('',#468,1.);
#468 = DIRECTION('',(0.,0.,-1.));
#469 = PLANE('',#470);
#470 = AXIS2_PLACEMENT_3D('',#471,#472,#473);
#471 = CARTESIAN_POINT('',(18.25,-6.,15.295941546018));
#472 = DIRECTION('',(-1.,-0.,-0.));
#473 = DIRECTION('',(0.,0.,-1.));
#474 = ADVANCED_FACE('',(#475),#492,.T.);
#475 = FACE_BOUND('',#476,.T.);
#476 = EDGE_LOOP('',(#477,#484,#485,#486));
#477 = ORIENTED_EDGE('',*,*,#478,.F.);
#478 = EDGE_CURVE('',#207,#479,#481,.T.);
#479 = VERTEX_POINT('',#480);
#480 = CARTESIAN_POINT('',(22.204058453982,-6.,19.25));
#481 = B_SPLINE_CURVE_WITH_KNOTS('',1,(#482,#483),.UNSPECIFIED.,.F.,.F.,
  (2,2),(0.,1.),.PIECEWISE_BEZIER_KNOTS.);
#482 = CARTESIAN_POINT('',(22.204058453982,-4.,19.25));
#483 = CARTESIAN_POINT('',(22.204058453982,-6.,19.25));
#484 = ORIENTED_EDGE('',*,*,#214,.F.);
#485 = ORIENTED_EDGE('',*,*,#455,.T.);
#486 = ORIENTED_EDGE('',*,*,#487,.F.);
#487 = EDGE_CURVE('',#479,#456,#488,.T.);
#488 = LINE('',#489,#490);
#489 = CARTESIAN_POINT('',(22.204058453982,-6.,19.25));
#490 = VECTOR('',#491,1.);
#491 = DIRECTION('',(-0.707106781187,0.,-0.707106781187));
#492 = PLANE('',#493);
#493 = AXIS2_PLACEMENT_3D('',#494,#495,#496);
#494 = CARTESIAN_POINT('',(22.204058453982,-6.,19.25));
#495 = DIRECTION('',(-0.707106781187,0.,0.707106781187));
#496 = DIRECTION('',(-0.707106781187,0.,-0.707106781187));
#497 = ADVANCED_FACE('',(#498),#509,.T.);
#498 = FACE_BOUND('',#499,.T.);
#499 = EDGE_LOOP('',(#500,#501,#502,#503));
#500 = ORIENTED_EDGE('',*,*,#342,.F.);
#501 = ORIENTED_EDGE('',*,*,#206,.F.);
#502 = ORIENTED_EDGE('',*,*,#478,.T.);
#503 = ORIENTED_EDGE('',*,*,#504,.F.);
#504 = EDGE_CURVE('',#343,#479,#505,.T.);
#505 = LINE('',#506,#507);
#506 = CARTESIAN_POINT('',(27.795941546018,-6.,19.25));
#507 = VECTOR('',#508,1.);
#508 = DIRECTION('',(-1.,0.,0.));
#509 = PLANE('',#510);
#510 = AXIS2_PLACEMENT_3D('',#511,#512,#513);
#511 = CARTESIAN_POINT('',(27.795941546018,-6.,19.25));
#512 = DIRECTION('',(0.,0.,1.));
#513 = DIRECTION('',(-1.,0.,0.));
#514 = ADVANCED_FACE('',(#515),#538,.T.);
#515 = FACE_BOUND('',#516,.T.);
#516 = EDGE_LOOP('',(#517,#524,#525,#532));
#517 = ORIENTED_EDGE('',*,*,#518,.F.);
#518 = EDGE_CURVE('',#265,#519,#521,.T.);
#519 = VERTEX_POINT('',#520);
#520 = CARTESIAN_POINT('',(-18.25,-6.,15.295941546018));
#521 = B_SPLINE_CURVE_WITH_KNOTS('',1,(#522,#523),.UNSPECIFIED.,.F.,.F.,
  (2,2),(0.,1.),.PIECEWISE_BEZIER_KNOTS.);
#522 = CARTESIAN_POINT('',(-18.25,-4.,15.295941546018));
#523 = CARTESIAN_POINT('',(-18.25,-6.,15.295941546018));
#524 = ORIENTED_EDGE('',*,*,#262,.F.);
#525 = ORIENTED_EDGE('',*,*,#526,.T.);
#526 = EDGE_CURVE('',#263,#527,#529,.T.);
#527 = VERTEX_POINT('',#528);
#528 = CARTESIAN_POINT('',(-22.20405845398,-6.,19.25));
#529 = B_SPLINE_CURVE_WITH_KNOTS('',1,(#530,#531),.UNSPECIFIED.,.F.,.F.,
  (2,2),(0.,1.),.PIECEWISE_BEZIER_KNOTS.);
#530 = CARTESIAN_POINT('',(-22.20405845398,-4.,19.25));
#531 = CARTESIAN_POINT('',(-22.20405845398,-6.,19.25));
#532 = ORIENTED_EDGE('',*,*,#533,.F.);
#533 = EDGE_CURVE('',#519,#527,#534,.T.);
#534 = LINE('',#535,#536);
#535 = CARTESIAN_POINT('',(-18.25,-6.,15.295941546018));
#536 = VECTOR('',#537,1.);
#537 = DIRECTION('',(-0.707106781187,0.,0.707106781187));
#538 = PLANE('',#539);
#539 = AXIS2_PLACEMENT_3D('',#540,#541,#542);
#540 = CARTESIAN_POINT('',(-18.25,-6.,15.295941546018));
#541 = DIRECTION('',(0.707106781187,0.,0.707106781187));
#542 = DIRECTION('',(-0.707106781187,0.,0.707106781187));
#543 = ADVANCED_FACE('',(#544),#561,.T.);
#544 = FACE_BOUND('',#545,.T.);
#545 = EDGE_LOOP('',(#546,#547,#548,#555));
#546 = ORIENTED_EDGE('',*,*,#526,.F.);
#547 = ORIENTED_EDGE('',*,*,#272,.F.);
#548 = ORIENTED_EDGE('',*,*,#549,.T.);
#549 = EDGE_CURVE('',#273,#550,#552,.T.);
#550 = VERTEX_POINT('',#551);
#551 = CARTESIAN_POINT('',(-27.79594154601,-6.,19.25));
#552 = B_SPLINE_CURVE_WITH_KNOTS('',1,(#553,#554),.UNSPECIFIED.,.F.,.F.,
  (2,2),(0.,1.),.PIECEWISE_BEZIER_KNOTS.);
#553 = CARTESIAN_POINT('',(-27.79594154601,-4.,19.25));
#554 = CARTESIAN_POINT('',(-27.79594154601,-6.,19.25));
#555 = ORIENTED_EDGE('',*,*,#556,.F.);
#556 = EDGE_CURVE('',#527,#550,#557,.T.);
#557 = LINE('',#558,#559);
#558 = CARTESIAN_POINT('',(-22.20405845398,-6.,19.25));
#559 = VECTOR('',#560,1.);
#560 = DIRECTION('',(-1.,0.,0.));
#561 = PLANE('',#562);
#562 = AXIS2_PLACEMENT_3D('',#563,#564,#565);
#563 = CARTESIAN_POINT('',(-22.20405845398,-6.,19.25));
#564 = DIRECTION('',(0.,0.,1.));
#565 = DIRECTION('',(-1.,0.,0.));
#566 = ADVANCED_FACE('',(#567),#584,.T.);
#567 = FACE_BOUND('',#568,.T.);
#568 = EDGE_LOOP('',(#569,#576,#577,#578));
#569 = ORIENTED_EDGE('',*,*,#570,.F.);
#570 = EDGE_CURVE('',#313,#571,#573,.T.);
#571 = VERTEX_POINT('',#572);
#572 = CARTESIAN_POINT('',(-18.25,-6.,9.704058453982));
#573 = B_SPLINE_CURVE_WITH_KNOTS('',1,(#574,#575),.UNSPECIFIED.,.F.,.F.,
  (2,2),(0.,1.),.PIECEWISE_BEZIER_KNOTS.);
#574 = CARTESIAN_POINT('',(-18.25,-4.,9.704058453982));
#575 = CARTESIAN_POINT('',(-18.25,-6.,9.704058453982));
#576 = ORIENTED_EDGE('',*,*,#320,.F.);
#577 = ORIENTED_EDGE('',*,*,#518,.T.);
#578 = ORIENTED_EDGE('',*,*,#579,.F.);
#579 = EDGE_CURVE('',#571,#519,#580,.T.);
#580 = LINE('',#581,#582);
#581 = CARTESIAN_POINT('',(-18.25,-6.,9.704058453982));
#582 = VECTOR('',#583,1.);
#583 = DIRECTION('',(0.,0.,1.));
#584 = PLANE('',#585);
#585 = AXIS2_PLACEMENT_3D('',#586,#587,#588);
#586 = CARTESIAN_POINT('',(-18.25,-6.,9.704058453982));
#587 = DIRECTION('',(1.,0.,-0.));
#588 = DIRECTION('',(0.,0.,1.));
#589 = ADVANCED_FACE('',(#590),#607,.T.);
#590 = FACE_BOUND('',#591,.T.);
#591 = EDGE_LOOP('',(#592,#593,#594,#601));
#592 = ORIENTED_EDGE('',*,*,#549,.F.);
#593 = ORIENTED_EDGE('',*,*,#280,.F.);
#594 = ORIENTED_EDGE('',*,*,#595,.T.);
#595 = EDGE_CURVE('',#281,#596,#598,.T.);
#596 = VERTEX_POINT('',#597);
#597 = CARTESIAN_POINT('',(-31.75,-6.,15.295941546018));
#598 = B_SPLINE_CURVE_WITH_KNOTS('',1,(#599,#600),.UNSPECIFIED.,.F.,.F.,
  (2,2),(0.,1.),.PIECEWISE_BEZIER_KNOTS.);
#599 = CARTESIAN_POINT('',(-31.75,-4.,15.295941546018));
#600 = CARTESIAN_POINT('',(-31.75,-6.,15.295941546018));
#601 = ORIENTED_EDGE('',*,*,#602,.F.);
#602 = EDGE_CURVE('',#550,#596,#603,.T.);
#603 = LINE('',#604,#605);
#604 = CARTESIAN_POINT('',(-27.79594154601,-6.,19.25));
#605 = VECTOR('',#606,1.);
#606 = DIRECTION('',(-0.707106781187,0.,-0.707106781187));
#607 = PLANE('',#608);
#608 = AXIS2_PLACEMENT_3D('',#609,#610,#611);
#609 = CARTESIAN_POINT('',(-27.79594154601,-6.,19.25));
#610 = DIRECTION('',(-0.707106781187,0.,0.707106781187));
#611 = DIRECTION('',(-0.707106781187,0.,-0.707106781187));
#612 = ADVANCED_FACE('',(#613),#630,.T.);
#613 = FACE_BOUND('',#614,.T.);
#614 = EDGE_LOOP('',(#615,#622,#623,#624));
#615 = ORIENTED_EDGE('',*,*,#616,.F.);
#616 = EDGE_CURVE('',#305,#617,#619,.T.);
#617 = VERTEX_POINT('',#618);
#618 = CARTESIAN_POINT('',(-22.20405845398,-6.,5.75));
#619 = B_SPLINE_CURVE_WITH_KNOTS('',1,(#620,#621),.UNSPECIFIED.,.F.,.F.,
  (2,2),(0.,1.),.PIECEWISE_BEZIER_KNOTS.);
#620 = CARTESIAN_POINT('',(-22.20405845398,-4.,5.75));
#621 = CARTESIAN_POINT('',(-22.20405845398,-6.,5.75));
#622 = ORIENTED_EDGE('',*,*,#312,.F.);
#623 = ORIENTED_EDGE('',*,*,#570,.T.);
#624 = ORIENTED_EDGE('',*,*,#625,.F.);
#625 = EDGE_CURVE('',#617,#571,#626,.T.);
#626 = LINE('',#627,#628);
#627 = CARTESIAN_POINT('',(-22.20405845398,-6.,5.75));
#628 = VECTOR('',#629,1.);
#629 = DIRECTION('',(0.707106781187,0.,0.707106781187));
#630 = PLANE('',#631);
#631 = AXIS2_PLACEMENT_3D('',#632,#633,#634);
#632 = CARTESIAN_POINT('',(-22.20405845398,-6.,5.75));
#633 = DIRECTION('',(0.707106781187,0.,-0.707106781187));
#634 = DIRECTION('',(0.707106781187,0.,0.707106781187));
#635 = ADVANCED_FACE('',(#636),#653,.T.);
#636 = FACE_BOUND('',#637,.T.);
#637 = EDGE_LOOP('',(#638,#639,#640,#647));
#638 = ORIENTED_EDGE('',*,*,#595,.F.);
#639 = ORIENTED_EDGE('',*,*,#288,.F.);
#640 = ORIENTED_EDGE('',*,*,#641,.T.);
#641 = EDGE_CURVE('',#289,#642,#644,.T.);
#642 = VERTEX_POINT('',#643);
#643 = CARTESIAN_POINT('',(-31.75,-6.,9.704058453982));
#644 = B_SPLINE_CURVE_WITH_KNOTS('',1,(#645,#646),.UNSPECIFIED.,.F.,.F.,
  (2,2),(0.,1.),.PIECEWISE_BEZIER_KNOTS.);
#645 = CARTESIAN_POINT('',(-31.75,-4.,9.704058453982));
#646 = CARTESIAN_POINT('',(-31.75,-6.,9.704058453982));
#647 = ORIENTED_EDGE('',*,*,#648,.F.);
#648 = EDGE_CURVE('',#596,#642,#649,.T.);
#649 = LINE('',#650,#651);
#650 = CARTESIAN_POINT('',(-31.75,-6.,15.295941546018));
#651 = VECTOR('',#652,1.);
#652 = DIRECTION('',(0.,0.,-1.));
#653 = PLANE('',#654);
#654 = AXIS2_PLACEMENT_3D('',#655,#656,#657);
#655 = CARTESIAN_POINT('',(-31.75,-6.,15.295941546018));
#656 = DIRECTION('',(-1.,-0.,-0.));
#657 = DIRECTION('',(0.,0.,-1.));
#658 = ADVANCED_FACE('',(#659),#676,.T.);
#659 = FACE_BOUND('',#660,.T.);
#660 = EDGE_LOOP('',(#661,#668,#669,#670));
#661 = ORIENTED_EDGE('',*,*,#662,.F.);
#662 = EDGE_CURVE('',#297,#663,#665,.T.);
#663 = VERTEX_POINT('',#664);
#664 = CARTESIAN_POINT('',(-27.79594154601,-6.,5.75));
#665 = B_SPLINE_CURVE_WITH_KNOTS('',1,(#666,#667),.UNSPECIFIED.,.F.,.F.,
  (2,2),(0.,1.),.PIECEWISE_BEZIER_KNOTS.);
#666 = CARTESIAN_POINT('',(-27.79594154601,-4.,5.75));
#667 = CARTESIAN_POINT('',(-27.79594154601,-6.,5.75));
#668 = ORIENTED_EDGE('',*,*,#304,.F.);
#669 = ORIENTED_EDGE('',*,*,#616,.T.);
#670 = ORIENTED_EDGE('',*,*,#671,.F.);
#671 = EDGE_CURVE('',#663,#617,#672,.T.);
#672 = LINE('',#673,#674);
#673 = CARTESIAN_POINT('',(-27.79594154601,-6.,5.75));
#674 = VECTOR('',#675,1.);
#675 = DIRECTION('',(1.,0.,0.));
#676 = PLANE('',#677);
#677 = AXIS2_PLACEMENT_3D('',#678,#679,#680);
#678 = CARTESIAN_POINT('',(-27.79594154601,-6.,5.75));
#679 = DIRECTION('',(0.,0.,-1.));
#680 = DIRECTION('',(1.,0.,0.));
#681 = ADVANCED_FACE('',(#682),#693,.T.);
#682 = FACE_BOUND('',#683,.T.);
#683 = EDGE_LOOP('',(#684,#685,#686,#687));
#684 = ORIENTED_EDGE('',*,*,#641,.F.);
#685 = ORIENTED_EDGE('',*,*,#296,.F.);
#686 = ORIENTED_EDGE('',*,*,#662,.T.);
#687 = ORIENTED_EDGE('',*,*,#688,.F.);
#688 = EDGE_CURVE('',#642,#663,#689,.T.);
#689 = LINE('',#690,#691);
#690 = CARTESIAN_POINT('',(-31.75,-6.,9.704058453982));
#691 = VECTOR('',#692,1.);
#692 = DIRECTION('',(0.707106781187,0.,-0.707106781187));
#693 = PLANE('',#694);
#694 = AXIS2_PLACEMENT_3D('',#695,#696,#697);
#695 = CARTESIAN_POINT('',(-31.75,-6.,9.704058453982));
#696 = DIRECTION('',(-0.707106781187,-0.,-0.707106781187));
#697 = DIRECTION('',(0.707106781187,0.,-0.707106781187));
#698 = ADVANCED_FACE('',(#699),#722,.T.);
#699 = FACE_BOUND('',#700,.T.);
#700 = EDGE_LOOP('',(#701,#702,#709,#717));
#701 = ORIENTED_EDGE('',*,*,#349,.T.);
#702 = ORIENTED_EDGE('',*,*,#703,.T.);
#703 = EDGE_CURVE('',#343,#704,#706,.T.);
#704 = VERTEX_POINT('',#705);
#705 = CARTESIAN_POINT('',(27.737951647286,-12.9,19.11));
#706 = B_SPLINE_CURVE_WITH_KNOTS('',1,(#707,#708),.UNSPECIFIED.,.F.,.F.,
  (2,2),(0.,1.),.PIECEWISE_BEZIER_KNOTS.);
#707 = CARTESIAN_POINT('',(27.795941546018,-6.,19.25));
#708 = CARTESIAN_POINT('',(27.737951647286,-12.9,19.11));
#709 = ORIENTED_EDGE('',*,*,#710,.F.);
#710 = EDGE_CURVE('',#711,#704,#713,.T.);
#711 = VERTEX_POINT('',#712);
#712 = CARTESIAN_POINT('',(31.61,-12.9,15.237951647286));
#713 = LINE('',#714,#715);
#714 = CARTESIAN_POINT('',(31.61,-12.9,15.237951647286));
#715 = VECTOR('',#716,1.);
#716 = DIRECTION('',(-0.707106781187,0.,0.707106781187));
#717 = ORIENTED_EDGE('',*,*,#718,.F.);
#718 = EDGE_CURVE('',#335,#711,#719,.T.);
#719 = B_SPLINE_CURVE_WITH_KNOTS('',1,(#720,#721),.UNSPECIFIED.,.F.,.F.,
  (2,2),(0.,1.),.PIECEWISE_BEZIER_KNOTS.);
#720 = CARTESIAN_POINT('',(31.75,-6.,15.295941546018));
#721 = CARTESIAN_POINT('',(31.61,-12.9,15.237951647286));
#722 = B_SPLINE_SURFACE_WITH_KNOTS('',1,1,(
    (#723,#724)
    ,(#725,#726
    )),.UNSPECIFIED.,.F.,.F.,.F.,(2,2),(2,2),(0.,5.591883092037),(0.,1.)
  ,.PIECEWISE_BEZIER_KNOTS.);
#723 = CARTESIAN_POINT('',(31.75,-6.,15.295941546018));
#724 = CARTESIAN_POINT('',(31.61,-12.9,15.237951647286));
#725 = CARTESIAN_POINT('',(27.795941546018,-6.,19.25));
#726 = CARTESIAN_POINT('',(27.737951647286,-12.9,19.11));
#727 = ADVANCED_FACE('',(#728),#745,.T.);
#728 = FACE_BOUND('',#729,.T.);
#729 = EDGE_LOOP('',(#730,#731,#732,#740));
#730 = ORIENTED_EDGE('',*,*,#372,.T.);
#731 = ORIENTED_EDGE('',*,*,#718,.T.);
#732 = ORIENTED_EDGE('',*,*,#733,.F.);
#733 = EDGE_CURVE('',#734,#711,#736,.T.);
#734 = VERTEX_POINT('',#735);
#735 = CARTESIAN_POINT('',(31.61,-12.9,9.762048352714));
#736 = LINE('',#737,#738);
#737 = CARTESIAN_POINT('',(31.61,-12.9,9.762048352714));
#738 = VECTOR('',#739,1.);
#739 = DIRECTION('',(0.,0.,1.));
#740 = ORIENTED_EDGE('',*,*,#741,.F.);
#741 = EDGE_CURVE('',#364,#734,#742,.T.);
#742 = B_SPLINE_CURVE_WITH_KNOTS('',1,(#743,#744),.UNSPECIFIED.,.F.,.F.,
  (2,2),(0.,1.),.PIECEWISE_BEZIER_KNOTS.);
#743 = CARTESIAN_POINT('',(31.75,-6.,9.704058453982));
#744 = CARTESIAN_POINT('',(31.61,-12.9,9.762048352714));
#745 = B_SPLINE_SURFACE_WITH_KNOTS('',1,1,(
    (#746,#747)
    ,(#748,#749
    )),.UNSPECIFIED.,.F.,.F.,.F.,(2,2),(2,2),(0.,5.591883092037),(0.,1.)
  ,.PIECEWISE_BEZIER_KNOTS.);
#746 = CARTESIAN_POINT('',(31.75,-6.,9.704058453982));
#747 = CARTESIAN_POINT('',(31.61,-12.9,9.762048352714));
#748 = CARTESIAN_POINT('',(31.75,-6.,15.295941546018));
#749 = CARTESIAN_POINT('',(31.61,-12.9,15.237951647286));
#750 = ADVANCED_FACE('',(#751),#768,.T.);
#751 = FACE_BOUND('',#752,.T.);
#752 = EDGE_LOOP('',(#753,#754,#755,#763));
#753 = ORIENTED_EDGE('',*,*,#395,.T.);
#754 = ORIENTED_EDGE('',*,*,#741,.T.);
#755 = ORIENTED_EDGE('',*,*,#756,.F.);
#756 = EDGE_CURVE('',#757,#734,#759,.T.);
#757 = VERTEX_POINT('',#758);
#758 = CARTESIAN_POINT('',(27.737951647286,-12.9,5.89));
#759 = LINE('',#760,#761);
#760 = CARTESIAN_POINT('',(27.737951647286,-12.9,5.89));
#761 = VECTOR('',#762,1.);
#762 = DIRECTION('',(0.707106781187,0.,0.707106781187));
#763 = ORIENTED_EDGE('',*,*,#764,.F.);
#764 = EDGE_CURVE('',#387,#757,#765,.T.);
#765 = B_SPLINE_CURVE_WITH_KNOTS('',1,(#766,#767),.UNSPECIFIED.,.F.,.F.,
  (2,2),(0.,1.),.PIECEWISE_BEZIER_KNOTS.);
#766 = CARTESIAN_POINT('',(27.795941546018,-6.,5.75));
#767 = CARTESIAN_POINT('',(27.737951647286,-12.9,5.89));
#768 = B_SPLINE_SURFACE_WITH_KNOTS('',1,1,(
    (#769,#770)
    ,(#771,#772
    )),.UNSPECIFIED.,.F.,.F.,.F.,(2,2),(2,2),(0.,5.591883092037),(0.,1.)
  ,.PIECEWISE_BEZIER_KNOTS.);
#769 = CARTESIAN_POINT('',(27.795941546018,-6.,5.75));
#770 = CARTESIAN_POINT('',(27.737951647286,-12.9,5.89));
#771 = CARTESIAN_POINT('',(31.75,-6.,9.704058453982));
#772 = CARTESIAN_POINT('',(31.61,-12.9,9.762048352714));
#773 = ADVANCED_FACE('',(#774),#791,.T.);
#774 = FACE_BOUND('',#775,.T.);
#775 = EDGE_LOOP('',(#776,#777,#778,#786));
#776 = ORIENTED_EDGE('',*,*,#418,.T.);
#777 = ORIENTED_EDGE('',*,*,#764,.T.);
#778 = ORIENTED_EDGE('',*,*,#779,.F.);
#779 = EDGE_CURVE('',#780,#757,#782,.T.);
#780 = VERTEX_POINT('',#781);
#781 = CARTESIAN_POINT('',(22.262048352714,-12.9,5.89));
#782 = LINE('',#783,#784);
#783 = CARTESIAN_POINT('',(22.262048352714,-12.9,5.89));
#784 = VECTOR('',#785,1.);
#785 = DIRECTION('',(1.,0.,0.));
#786 = ORIENTED_EDGE('',*,*,#787,.F.);
#787 = EDGE_CURVE('',#410,#780,#788,.T.);
#788 = B_SPLINE_CURVE_WITH_KNOTS('',1,(#789,#790),.UNSPECIFIED.,.F.,.F.,
  (2,2),(0.,1.),.PIECEWISE_BEZIER_KNOTS.);
#789 = CARTESIAN_POINT('',(22.204058453982,-6.,5.75));
#790 = CARTESIAN_POINT('',(22.262048352714,-12.9,5.89));
#791 = B_SPLINE_SURFACE_WITH_KNOTS('',1,1,(
    (#792,#793)
    ,(#794,#795
    )),.UNSPECIFIED.,.F.,.F.,.F.,(2,2),(2,2),(0.,5.591883092037),(0.,1.)
  ,.PIECEWISE_BEZIER_KNOTS.);
#792 = CARTESIAN_POINT('',(22.204058453982,-6.,5.75));
#793 = CARTESIAN_POINT('',(22.262048352714,-12.9,5.89));
#794 = CARTESIAN_POINT('',(27.795941546018,-6.,5.75));
#795 = CARTESIAN_POINT('',(27.737951647286,-12.9,5.89));
#796 = ADVANCED_FACE('',(#797),#814,.T.);
#797 = FACE_BOUND('',#798,.T.);
#798 = EDGE_LOOP('',(#799,#800,#801,#809));
#799 = ORIENTED_EDGE('',*,*,#441,.T.);
#800 = ORIENTED_EDGE('',*,*,#787,.T.);
#801 = ORIENTED_EDGE('',*,*,#802,.F.);
#802 = EDGE_CURVE('',#803,#780,#805,.T.);
#803 = VERTEX_POINT('',#804);
#804 = CARTESIAN_POINT('',(18.39,-12.9,9.762048352714));
#805 = LINE('',#806,#807);
#806 = CARTESIAN_POINT('',(18.39,-12.9,9.762048352714));
#807 = VECTOR('',#808,1.);
#808 = DIRECTION('',(0.707106781187,0.,-0.707106781187));
#809 = ORIENTED_EDGE('',*,*,#810,.F.);
#810 = EDGE_CURVE('',#433,#803,#811,.T.);
#811 = B_SPLINE_CURVE_WITH_KNOTS('',1,(#812,#813),.UNSPECIFIED.,.F.,.F.,
  (2,2),(0.,1.),.PIECEWISE_BEZIER_KNOTS.);
#812 = CARTESIAN_POINT('',(18.25,-6.,9.704058453982));
#813 = CARTESIAN_POINT('',(18.39,-12.9,9.762048352714));
#814 = B_SPLINE_SURFACE_WITH_KNOTS('',1,1,(
    (#815,#816)
    ,(#817,#818
    )),.UNSPECIFIED.,.F.,.F.,.F.,(2,2),(2,2),(0.,5.591883092037),(0.,1.)
  ,.PIECEWISE_BEZIER_KNOTS.);
#815 = CARTESIAN_POINT('',(18.25,-6.,9.704058453982));
#816 = CARTESIAN_POINT('',(18.39,-12.9,9.762048352714));
#817 = CARTESIAN_POINT('',(22.204058453982,-6.,5.75));
#818 = CARTESIAN_POINT('',(22.262048352714,-12.9,5.89));
#819 = ADVANCED_FACE('',(#820),#837,.T.);
#820 = FACE_BOUND('',#821,.T.);
#821 = EDGE_LOOP('',(#822,#823,#824,#832));
#822 = ORIENTED_EDGE('',*,*,#464,.T.);
#823 = ORIENTED_EDGE('',*,*,#810,.T.);
#824 = ORIENTED_EDGE('',*,*,#825,.F.);
#825 = EDGE_CURVE('',#826,#803,#828,.T.);
#826 = VERTEX_POINT('',#827);
#827 = CARTESIAN_POINT('',(18.39,-12.9,15.237951647286));
#828 = LINE('',#829,#830);
#829 = CARTESIAN_POINT('',(18.39,-12.9,15.237951647286));
#830 = VECTOR('',#831,1.);
#831 = DIRECTION('',(0.,0.,-1.));
#832 = ORIENTED_EDGE('',*,*,#833,.F.);
#833 = EDGE_CURVE('',#456,#826,#834,.T.);
#834 = B_SPLINE_CURVE_WITH_KNOTS('',1,(#835,#836),.UNSPECIFIED.,.F.,.F.,
  (2,2),(0.,1.),.PIECEWISE_BEZIER_KNOTS.);
#835 = CARTESIAN_POINT('',(18.25,-6.,15.295941546018));
#836 = CARTESIAN_POINT('',(18.39,-12.9,15.237951647286));
#837 = B_SPLINE_SURFACE_WITH_KNOTS('',1,1,(
    (#838,#839)
    ,(#840,#841
    )),.UNSPECIFIED.,.F.,.F.,.F.,(2,2),(2,2),(0.,5.591883092037),(0.,1.)
  ,.PIECEWISE_BEZIER_KNOTS.);
#838 = CARTESIAN_POINT('',(18.25,-6.,15.295941546018));
#839 = CARTESIAN_POINT('',(18.39,-12.9,15.237951647286));
#840 = CARTESIAN_POINT('',(18.25,-6.,9.704058453982));
#841 = CARTESIAN_POINT('',(18.39,-12.9,9.762048352714));
#842 = ADVANCED_FACE('',(#843),#860,.T.);
#843 = FACE_BOUND('',#844,.T.);
#844 = EDGE_LOOP('',(#845,#846,#847,#855));
#845 = ORIENTED_EDGE('',*,*,#487,.T.);
#846 = ORIENTED_EDGE('',*,*,#833,.T.);
#847 = ORIENTED_EDGE('',*,*,#848,.F.);
#848 = EDGE_CURVE('',#849,#826,#851,.T.);
#849 = VERTEX_POINT('',#850);
#850 = CARTESIAN_POINT('',(22.262048352714,-12.9,19.11));
#851 = LINE('',#852,#853);
#852 = CARTESIAN_POINT('',(22.262048352714,-12.9,19.11));
#853 = VECTOR('',#854,1.);
#854 = DIRECTION('',(-0.707106781187,0.,-0.707106781187));
#855 = ORIENTED_EDGE('',*,*,#856,.F.);
#856 = EDGE_CURVE('',#479,#849,#857,.T.);
#857 = B_SPLINE_CURVE_WITH_KNOTS('',1,(#858,#859),.UNSPECIFIED.,.F.,.F.,
  (2,2),(0.,1.),.PIECEWISE_BEZIER_KNOTS.);
#858 = CARTESIAN_POINT('',(22.204058453982,-6.,19.25));
#859 = CARTESIAN_POINT('',(22.262048352714,-12.9,19.11));
#860 = B_SPLINE_SURFACE_WITH_KNOTS('',1,1,(
    (#861,#862)
    ,(#863,#864
    )),.UNSPECIFIED.,.F.,.F.,.F.,(2,2),(2,2),(0.,5.591883092037),(0.,1.)
  ,.PIECEWISE_BEZIER_KNOTS.);
#861 = CARTESIAN_POINT('',(22.204058453982,-6.,19.25));
#862 = CARTESIAN_POINT('',(22.262048352714,-12.9,19.11));
#863 = CARTESIAN_POINT('',(18.25,-6.,15.295941546018));
#864 = CARTESIAN_POINT('',(18.39,-12.9,15.237951647286));
#865 = ADVANCED_FACE('',(#866),#877,.T.);
#866 = FACE_BOUND('',#867,.T.);
#867 = EDGE_LOOP('',(#868,#869,#870,#876));
#868 = ORIENTED_EDGE('',*,*,#504,.T.);
#869 = ORIENTED_EDGE('',*,*,#856,.T.);
#870 = ORIENTED_EDGE('',*,*,#871,.F.);
#871 = EDGE_CURVE('',#704,#849,#872,.T.);
#872 = LINE('',#873,#874);
#873 = CARTESIAN_POINT('',(27.737951647286,-12.9,19.11));
#874 = VECTOR('',#875,1.);
#875 = DIRECTION('',(-1.,0.,0.));
#876 = ORIENTED_EDGE('',*,*,#703,.F.);
#877 = B_SPLINE_SURFACE_WITH_KNOTS('',1,1,(
    (#878,#879)
    ,(#880,#881
    )),.UNSPECIFIED.,.F.,.F.,.F.,(2,2),(2,2),(0.,5.591883092037),(0.,1.)
  ,.PIECEWISE_BEZIER_KNOTS.);
#878 = CARTESIAN_POINT('',(27.795941546018,-6.,19.25));
#879 = CARTESIAN_POINT('',(27.737951647286,-12.9,19.11));
#880 = CARTESIAN_POINT('',(22.204058453982,-6.,19.25));
#881 = CARTESIAN_POINT('',(22.262048352714,-12.9,19.11));
#882 = ADVANCED_FACE('',(#883),#906,.T.);
#883 = FACE_BOUND('',#884,.T.);
#884 = EDGE_LOOP('',(#885,#886,#893,#901));
#885 = ORIENTED_EDGE('',*,*,#533,.T.);
#886 = ORIENTED_EDGE('',*,*,#887,.T.);
#887 = EDGE_CURVE('',#527,#888,#890,.T.);
#888 = VERTEX_POINT('',#889);
#889 = CARTESIAN_POINT('',(-22.26204835271,-12.9,19.11));
#890 = B_SPLINE_CURVE_WITH_KNOTS('',1,(#891,#892),.UNSPECIFIED.,.F.,.F.,
  (2,2),(0.,1.),.PIECEWISE_BEZIER_KNOTS.);
#891 = CARTESIAN_POINT('',(-22.20405845398,-6.,19.25));
#892 = CARTESIAN_POINT('',(-22.26204835271,-12.9,19.11));
#893 = ORIENTED_EDGE('',*,*,#894,.F.);
#894 = EDGE_CURVE('',#895,#888,#897,.T.);
#895 = VERTEX_POINT('',#896);
#896 = CARTESIAN_POINT('',(-18.39,-12.9,15.237951647286));
#897 = LINE('',#898,#899);
#898 = CARTESIAN_POINT('',(-18.39,-12.9,15.237951647286));
#899 = VECTOR('',#900,1.);
#900 = DIRECTION('',(-0.707106781187,0.,0.707106781187));
#901 = ORIENTED_EDGE('',*,*,#902,.F.);
#902 = EDGE_CURVE('',#519,#895,#903,.T.);
#903 = B_SPLINE_CURVE_WITH_KNOTS('',1,(#904,#905),.UNSPECIFIED.,.F.,.F.,
  (2,2),(0.,1.),.PIECEWISE_BEZIER_KNOTS.);
#904 = CARTESIAN_POINT('',(-18.25,-6.,15.295941546018));
#905 = CARTESIAN_POINT('',(-18.39,-12.9,15.237951647286));
#906 = B_SPLINE_SURFACE_WITH_KNOTS('',1,1,(
    (#907,#908)
    ,(#909,#910
    )),.UNSPECIFIED.,.F.,.F.,.F.,(2,2),(2,2),(0.,5.591883092037),(0.,1.)
  ,.PIECEWISE_BEZIER_KNOTS.);
#907 = CARTESIAN_POINT('',(-18.25,-6.,15.295941546018));
#908 = CARTESIAN_POINT('',(-18.39,-12.9,15.237951647286));
#909 = CARTESIAN_POINT('',(-22.20405845398,-6.,19.25));
#910 = CARTESIAN_POINT('',(-22.26204835271,-12.9,19.11));
#911 = ADVANCED_FACE('',(#912),#929,.T.);
#912 = FACE_BOUND('',#913,.T.);
#913 = EDGE_LOOP('',(#914,#915,#922,#928));
#914 = ORIENTED_EDGE('',*,*,#556,.T.);
#915 = ORIENTED_EDGE('',*,*,#916,.T.);
#916 = EDGE_CURVE('',#550,#917,#919,.T.);
#917 = VERTEX_POINT('',#918);
#918 = CARTESIAN_POINT('',(-27.73795164728,-12.9,19.11));
#919 = B_SPLINE_CURVE_WITH_KNOTS('',1,(#920,#921),.UNSPECIFIED.,.F.,.F.,
  (2,2),(0.,1.),.PIECEWISE_BEZIER_KNOTS.);
#920 = CARTESIAN_POINT('',(-27.79594154601,-6.,19.25));
#921 = CARTESIAN_POINT('',(-27.73795164728,-12.9,19.11));
#922 = ORIENTED_EDGE('',*,*,#923,.F.);
#923 = EDGE_CURVE('',#888,#917,#924,.T.);
#924 = LINE('',#925,#926);
#925 = CARTESIAN_POINT('',(-22.26204835271,-12.9,19.11));
#926 = VECTOR('',#927,1.);
#927 = DIRECTION('',(-1.,0.,0.));
#928 = ORIENTED_EDGE('',*,*,#887,.F.);
#929 = B_SPLINE_SURFACE_WITH_KNOTS('',1,1,(
    (#930,#931)
    ,(#932,#933
    )),.UNSPECIFIED.,.F.,.F.,.F.,(2,2),(2,2),(0.,5.591883092037),(0.,1.)
  ,.PIECEWISE_BEZIER_KNOTS.);
#930 = CARTESIAN_POINT('',(-22.20405845398,-6.,19.25));
#931 = CARTESIAN_POINT('',(-22.26204835271,-12.9,19.11));
#932 = CARTESIAN_POINT('',(-27.79594154601,-6.,19.25));
#933 = CARTESIAN_POINT('',(-27.73795164728,-12.9,19.11));
#934 = ADVANCED_FACE('',(#935),#952,.T.);
#935 = FACE_BOUND('',#936,.T.);
#936 = EDGE_LOOP('',(#937,#938,#939,#947));
#937 = ORIENTED_EDGE('',*,*,#579,.T.);
#938 = ORIENTED_EDGE('',*,*,#902,.T.);
#939 = ORIENTED_EDGE('',*,*,#940,.F.);
#940 = EDGE_CURVE('',#941,#895,#943,.T.);
#941 = VERTEX_POINT('',#942);
#942 = CARTESIAN_POINT('',(-18.39,-12.9,9.762048352714));
#943 = LINE('',#944,#945);
#944 = CARTESIAN_POINT('',(-18.39,-12.9,9.762048352714));
#945 = VECTOR('',#946,1.);
#946 = DIRECTION('',(0.,0.,1.));
#947 = ORIENTED_EDGE('',*,*,#948,.F.);
#948 = EDGE_CURVE('',#571,#941,#949,.T.);
#949 = B_SPLINE_CURVE_WITH_KNOTS('',1,(#950,#951),.UNSPECIFIED.,.F.,.F.,
  (2,2),(0.,1.),.PIECEWISE_BEZIER_KNOTS.);
#950 = CARTESIAN_POINT('',(-18.25,-6.,9.704058453982));
#951 = CARTESIAN_POINT('',(-18.39,-12.9,9.762048352714));
#952 = B_SPLINE_SURFACE_WITH_KNOTS('',1,1,(
    (#953,#954)
    ,(#955,#956
    )),.UNSPECIFIED.,.F.,.F.,.F.,(2,2),(2,2),(0.,5.591883092037),(0.,1.)
  ,.PIECEWISE_BEZIER_KNOTS.);
#953 = CARTESIAN_POINT('',(-18.25,-6.,9.704058453982));
#954 = CARTESIAN_POINT('',(-18.39,-12.9,9.762048352714));
#955 = CARTESIAN_POINT('',(-18.25,-6.,15.295941546018));
#956 = CARTESIAN_POINT('',(-18.39,-12.9,15.237951647286));
#957 = ADVANCED_FACE('',(#958),#975,.T.);
#958 = FACE_BOUND('',#959,.T.);
#959 = EDGE_LOOP('',(#960,#961,#968,#974));
#960 = ORIENTED_EDGE('',*,*,#602,.T.);
#961 = ORIENTED_EDGE('',*,*,#962,.T.);
#962 = EDGE_CURVE('',#596,#963,#965,.T.);
#963 = VERTEX_POINT('',#964);
#964 = CARTESIAN_POINT('',(-31.61,-12.9,15.237951647286));
#965 = B_SPLINE_CURVE_WITH_KNOTS('',1,(#966,#967),.UNSPECIFIED.,.F.,.F.,
  (2,2),(0.,1.),.PIECEWISE_BEZIER_KNOTS.);
#966 = CARTESIAN_POINT('',(-31.75,-6.,15.295941546018));
#967 = CARTESIAN_POINT('',(-31.61,-12.9,15.237951647286));
#968 = ORIENTED_EDGE('',*,*,#969,.F.);
#969 = EDGE_CURVE('',#917,#963,#970,.T.);
#970 = LINE('',#971,#972);
#971 = CARTESIAN_POINT('',(-27.73795164728,-12.9,19.11));
#972 = VECTOR('',#973,1.);
#973 = DIRECTION('',(-0.707106781187,0.,-0.707106781187));
#974 = ORIENTED_EDGE('',*,*,#916,.F.);
#975 = B_SPLINE_SURFACE_WITH_KNOTS('',1,1,(
    (#976,#977)
    ,(#978,#979
    )),.UNSPECIFIED.,.F.,.F.,.F.,(2,2),(2,2),(0.,5.591883092037),(0.,1.)
  ,.PIECEWISE_BEZIER_KNOTS.);
#976 = CARTESIAN_POINT('',(-27.79594154601,-6.,19.25));
#977 = CARTESIAN_POINT('',(-27.73795164728,-12.9,19.11));
#978 = CARTESIAN_POINT('',(-31.75,-6.,15.295941546018));
#979 = CARTESIAN_POINT('',(-31.61,-12.9,15.237951647286));
#980 = ADVANCED_FACE('',(#981),#998,.T.);
#981 = FACE_BOUND('',#982,.T.);
#982 = EDGE_LOOP('',(#983,#984,#985,#993));
#983 = ORIENTED_EDGE('',*,*,#625,.T.);
#984 = ORIENTED_EDGE('',*,*,#948,.T.);
#985 = ORIENTED_EDGE('',*,*,#986,.F.);
#986 = EDGE_CURVE('',#987,#941,#989,.T.);
#987 = VERTEX_POINT('',#988);
#988 = CARTESIAN_POINT('',(-22.26204835271,-12.9,5.89));
#989 = LINE('',#990,#991);
#990 = CARTESIAN_POINT('',(-22.26204835271,-12.9,5.89));
#991 = VECTOR('',#992,1.);
#992 = DIRECTION('',(0.707106781187,0.,0.707106781187));
#993 = ORIENTED_EDGE('',*,*,#994,.F.);
#994 = EDGE_CURVE('',#617,#987,#995,.T.);
#995 = B_SPLINE_CURVE_WITH_KNOTS('',1,(#996,#997),.UNSPECIFIED.,.F.,.F.,
  (2,2),(0.,1.),.PIECEWISE_BEZIER_KNOTS.);
#996 = CARTESIAN_POINT('',(-22.20405845398,-6.,5.75));
#997 = CARTESIAN_POINT('',(-22.26204835271,-12.9,5.89));
#998 = B_SPLINE_SURFACE_WITH_KNOTS('',1,1,(
    (#999,#1000)
    ,(#1001,#1002
    )),.UNSPECIFIED.,.F.,.F.,.F.,(2,2),(2,2),(0.,5.591883092037),(0.,1.)
  ,.PIECEWISE_BEZIER_KNOTS.);
#999 = CARTESIAN_POINT('',(-22.20405845398,-6.,5.75));
#1000 = CARTESIAN_POINT('',(-22.26204835271,-12.9,5.89));
#1001 = CARTESIAN_POINT('',(-18.25,-6.,9.704058453982));
#1002 = CARTESIAN_POINT('',(-18.39,-12.9,9.762048352714));
#1003 = ADVANCED_FACE('',(#1004),#1021,.T.);
#1004 = FACE_BOUND('',#1005,.T.);
#1005 = EDGE_LOOP('',(#1006,#1007,#1014,#1020));
#1006 = ORIENTED_EDGE('',*,*,#648,.T.);
#1007 = ORIENTED_EDGE('',*,*,#1008,.T.);
#1008 = EDGE_CURVE('',#642,#1009,#1011,.T.);
#1009 = VERTEX_POINT('',#1010);
#1010 = CARTESIAN_POINT('',(-31.61,-12.9,9.762048352714));
#1011 = B_SPLINE_CURVE_WITH_KNOTS('',1,(#1012,#1013),.UNSPECIFIED.,.F.,
  .F.,(2,2),(0.,1.),.PIECEWISE_BEZIER_KNOTS.);
#1012 = CARTESIAN_POINT('',(-31.75,-6.,9.704058453982));
#1013 = CARTESIAN_POINT('',(-31.61,-12.9,9.762048352714));
#1014 = ORIENTED_EDGE('',*,*,#1015,.F.);
#1015 = EDGE_CURVE('',#963,#1009,#1016,.T.);
#1016 = LINE('',#1017,#1018);
#1017 = CARTESIAN_POINT('',(-31.61,-12.9,15.237951647286));
#1018 = VECTOR('',#1019,1.);
#1019 = DIRECTION('',(0.,0.,-1.));
#1020 = ORIENTED_EDGE('',*,*,#962,.F.);
#1021 = B_SPLINE_SURFACE_WITH_KNOTS('',1,1,(
    (#1022,#1023)
    ,(#1024,#1025
    )),.UNSPECIFIED.,.F.,.F.,.F.,(2,2),(2,2),(0.,5.591883092037),(0.,1.)
  ,.PIECEWISE_BEZIER_KNOTS.);
#1022 = CARTESIAN_POINT('',(-31.75,-6.,15.295941546018));
#1023 = CARTESIAN_POINT('',(-31.61,-12.9,15.237951647286));
#1024 = CARTESIAN_POINT('',(-31.75,-6.,9.704058453982));
#1025 = CARTESIAN_POINT('',(-31.61,-12.9,9.762048352714));
#1026 = ADVANCED_FACE('',(#1027),#1044,.T.);
#1027 = FACE_BOUND('',#1028,.T.);
#1028 = EDGE_LOOP('',(#1029,#1030,#1031,#1039));
#1029 = ORIENTED_EDGE('',*,*,#671,.T.);
#1030 = ORIENTED_EDGE('',*,*,#994,.T.);
#1031 = ORIENTED_EDGE('',*,*,#1032,.F.);
#1032 = EDGE_CURVE('',#1033,#987,#1035,.T.);
#1033 = VERTEX_POINT('',#1034);
#1034 = CARTESIAN_POINT('',(-27.73795164728,-12.9,5.89));
#1035 = LINE('',#1036,#1037);
#1036 = CARTESIAN_POINT('',(-27.73795164728,-12.9,5.89));
#1037 = VECTOR('',#1038,1.);
#1038 = DIRECTION('',(1.,0.,0.));
#1039 = ORIENTED_EDGE('',*,*,#1040,.F.);
#1040 = EDGE_CURVE('',#663,#1033,#1041,.T.);
#1041 = B_SPLINE_CURVE_WITH_KNOTS('',1,(#1042,#1043),.UNSPECIFIED.,.F.,
  .F.,(2,2),(0.,1.),.PIECEWISE_BEZIER_KNOTS.);
#1042 = CARTESIAN_POINT('',(-27.79594154601,-6.,5.75));
#1043 = CARTESIAN_POINT('',(-27.73795164728,-12.9,5.89));
#1044 = B_SPLINE_SURFACE_WITH_KNOTS('',1,1,(
    (#1045,#1046)
    ,(#1047,#1048
    )),.UNSPECIFIED.,.F.,.F.,.F.,(2,2),(2,2),(0.,5.591883092037),(0.,1.)
  ,.PIECEWISE_BEZIER_KNOTS.);
#1045 = CARTESIAN_POINT('',(-27.79594154601,-6.,5.75));
#1046 = CARTESIAN_POINT('',(-27.73795164728,-12.9,5.89));
#1047 = CARTESIAN_POINT('',(-22.20405845398,-6.,5.75));
#1048 = CARTESIAN_POINT('',(-22.26204835271,-12.9,5.89));
#1049 = ADVANCED_FACE('',(#1050),#1061,.T.);
#1050 = FACE_BOUND('',#1051,.T.);
#1051 = EDGE_LOOP('',(#1052,#1053,#1054,#1060));
#1052 = ORIENTED_EDGE('',*,*,#688,.T.);
#1053 = ORIENTED_EDGE('',*,*,#1040,.T.);
#1054 = ORIENTED_EDGE('',*,*,#1055,.F.);
#1055 = EDGE_CURVE('',#1009,#1033,#1056,.T.);
#1056 = LINE('',#1057,#1058);
#1057 = CARTESIAN_POINT('',(-31.61,-12.9,9.762048352714));
#1058 = VECTOR('',#1059,1.);
#1059 = DIRECTION('',(0.707106781187,0.,-0.707106781187));
#1060 = ORIENTED_EDGE('',*,*,#1008,.F.);
#1061 = B_SPLINE_SURFACE_WITH_KNOTS('',1,1,(
    (#1062,#1063)
    ,(#1064,#1065
    )),.UNSPECIFIED.,.F.,.F.,.F.,(2,2),(2,2),(0.,5.591883092037),(0.,1.)
  ,.PIECEWISE_BEZIER_KNOTS.);
#1062 = CARTESIAN_POINT('',(-31.75,-6.,9.704058453982));
#1063 = CARTESIAN_POINT('',(-31.61,-12.9,9.762048352714));
#1064 = CARTESIAN_POINT('',(-27.79594154601,-6.,5.75));
#1065 = CARTESIAN_POINT('',(-27.73795164728,-12.9,5.89));
#1066 = ADVANCED_FACE('',(#1067),#1090,.T.);
#1067 = FACE_BOUND('',#1068,.T.);
#1068 = EDGE_LOOP('',(#1069,#1070,#1077,#1085));
#1069 = ORIENTED_EDGE('',*,*,#710,.T.);
#1070 = ORIENTED_EDGE('',*,*,#1071,.T.);
#1071 = EDGE_CURVE('',#704,#1072,#1074,.T.);
#1072 = VERTEX_POINT('',#1073);
#1073 = CARTESIAN_POINT('',(27.526702730476,-13.4,18.6));
#1074 = B_SPLINE_CURVE_WITH_KNOTS('',1,(#1075,#1076),.UNSPECIFIED.,.F.,
  .F.,(2,2),(0.,1.),.PIECEWISE_BEZIER_KNOTS.);
#1075 = CARTESIAN_POINT('',(27.737951647286,-12.9,19.11));
#1076 = CARTESIAN_POINT('',(27.526702730476,-13.4,18.6));
#1077 = ORIENTED_EDGE('',*,*,#1078,.F.);
#1078 = EDGE_CURVE('',#1079,#1072,#1081,.T.);
#1079 = VERTEX_POINT('',#1080);
#1080 = CARTESIAN_POINT('',(31.1,-13.4,15.026702730476));
#1081 = LINE('',#1082,#1083);
#1082 = CARTESIAN_POINT('',(31.1,-13.4,15.026702730476));
#1083 = VECTOR('',#1084,1.);
#1084 = DIRECTION('',(-0.707106781187,0.,0.707106781187));
#1085 = ORIENTED_EDGE('',*,*,#1086,.F.);
#1086 = EDGE_CURVE('',#711,#1079,#1087,.T.);
#1087 = B_SPLINE_CURVE_WITH_KNOTS('',1,(#1088,#1089),.UNSPECIFIED.,.F.,
  .F.,(2,2),(0.,1.),.PIECEWISE_BEZIER_KNOTS.);
#1088 = CARTESIAN_POINT('',(31.61,-12.9,15.237951647286));
#1089 = CARTESIAN_POINT('',(31.1,-13.4,15.026702730476));
#1090 = B_SPLINE_SURFACE_WITH_KNOTS('',1,1,(
    (#1091,#1092)
    ,(#1093,#1094
    )),.UNSPECIFIED.,.F.,.F.,.F.,(2,2),(2,2),(0.,5.475903294572),(0.,1.)
  ,.PIECEWISE_BEZIER_KNOTS.);
#1091 = CARTESIAN_POINT('',(31.61,-12.9,15.237951647286));
#1092 = CARTESIAN_POINT('',(31.1,-13.4,15.026702730476));
#1093 = CARTESIAN_POINT('',(27.737951647286,-12.9,19.11));
#1094 = CARTESIAN_POINT('',(27.526702730476,-13.4,18.6));
#1095 = ADVANCED_FACE('',(#1096),#1113,.T.);
#1096 = FACE_BOUND('',#1097,.T.);
#1097 = EDGE_LOOP('',(#1098,#1099,#1100,#1108));
#1098 = ORIENTED_EDGE('',*,*,#733,.T.);
#1099 = ORIENTED_EDGE('',*,*,#1086,.T.);
#1100 = ORIENTED_EDGE('',*,*,#1101,.F.);
#1101 = EDGE_CURVE('',#1102,#1079,#1104,.T.);
#1102 = VERTEX_POINT('',#1103);
#1103 = CARTESIAN_POINT('',(31.1,-13.4,9.973297269524));
#1104 = LINE('',#1105,#1106);
#1105 = CARTESIAN_POINT('',(31.1,-13.4,9.973297269524));
#1106 = VECTOR('',#1107,1.);
#1107 = DIRECTION('',(0.,0.,1.));
#1108 = ORIENTED_EDGE('',*,*,#1109,.F.);
#1109 = EDGE_CURVE('',#734,#1102,#1110,.T.);
#1110 = B_SPLINE_CURVE_WITH_KNOTS('',1,(#1111,#1112),.UNSPECIFIED.,.F.,
  .F.,(2,2),(0.,1.),.PIECEWISE_BEZIER_KNOTS.);
#1111 = CARTESIAN_POINT('',(31.61,-12.9,9.762048352714));
#1112 = CARTESIAN_POINT('',(31.1,-13.4,9.973297269524));
#1113 = B_SPLINE_SURFACE_WITH_KNOTS('',1,1,(
    (#1114,#1115)
    ,(#1116,#1117
    )),.UNSPECIFIED.,.F.,.F.,.F.,(2,2),(2,2),(0.,5.475903294572),(0.,1.)
  ,.PIECEWISE_BEZIER_KNOTS.);
#1114 = CARTESIAN_POINT('',(31.61,-12.9,9.762048352714));
#1115 = CARTESIAN_POINT('',(31.1,-13.4,9.973297269524));
#1116 = CARTESIAN_POINT('',(31.61,-12.9,15.237951647286));
#1117 = CARTESIAN_POINT('',(31.1,-13.4,15.026702730476));
#1118 = ADVANCED_FACE('',(#1119),#1136,.T.);
#1119 = FACE_BOUND('',#1120,.T.);
#1120 = EDGE_LOOP('',(#1121,#1122,#1123,#1131));
#1121 = ORIENTED_EDGE('',*,*,#756,.T.);
#1122 = ORIENTED_EDGE('',*,*,#1109,.T.);
#1123 = ORIENTED_EDGE('',*,*,#1124,.F.);
#1124 = EDGE_CURVE('',#1125,#1102,#1127,.T.);
#1125 = VERTEX_POINT('',#1126);
#1126 = CARTESIAN_POINT('',(27.526702730476,-13.4,6.4));
#1127 = LINE('',#1128,#1129);
#1128 = CARTESIAN_POINT('',(27.526702730476,-13.4,6.4));
#1129 = VECTOR('',#1130,1.);
#1130 = DIRECTION('',(0.707106781187,0.,0.707106781187));
#1131 = ORIENTED_EDGE('',*,*,#1132,.F.);
#1132 = EDGE_CURVE('',#757,#1125,#1133,.T.);
#1133 = B_SPLINE_CURVE_WITH_KNOTS('',1,(#1134,#1135),.UNSPECIFIED.,.F.,
  .F.,(2,2),(0.,1.),.PIECEWISE_BEZIER_KNOTS.);
#1134 = CARTESIAN_POINT('',(27.737951647286,-12.9,5.89));
#1135 = CARTESIAN_POINT('',(27.526702730476,-13.4,6.4));
#1136 = B_SPLINE_SURFACE_WITH_KNOTS('',1,1,(
    (#1137,#1138)
    ,(#1139,#1140
    )),.UNSPECIFIED.,.F.,.F.,.F.,(2,2),(2,2),(0.,5.475903294572),(0.,1.)
  ,.PIECEWISE_BEZIER_KNOTS.);
#1137 = CARTESIAN_POINT('',(27.737951647286,-12.9,5.89));
#1138 = CARTESIAN_POINT('',(27.526702730476,-13.4,6.4));
#1139 = CARTESIAN_POINT('',(31.61,-12.9,9.762048352714));
#1140 = CARTESIAN_POINT('',(31.1,-13.4,9.973297269524));
#1141 = ADVANCED_FACE('',(#1142),#1159,.T.);
#1142 = FACE_BOUND('',#1143,.T.);
#1143 = EDGE_LOOP('',(#1144,#1145,#1146,#1154));
#1144 = ORIENTED_EDGE('',*,*,#779,.T.);
#1145 = ORIENTED_EDGE('',*,*,#1132,.T.);
#1146 = ORIENTED_EDGE('',*,*,#1147,.F.);
#1147 = EDGE_CURVE('',#1148,#1125,#1150,.T.);
#1148 = VERTEX_POINT('',#1149);
#1149 = CARTESIAN_POINT('',(22.473297269524,-13.4,6.4));
#1150 = LINE('',#1151,#1152);
#1151 = CARTESIAN_POINT('',(22.473297269524,-13.4,6.4));
#1152 = VECTOR('',#1153,1.);
#1153 = DIRECTION('',(1.,0.,0.));
#1154 = ORIENTED_EDGE('',*,*,#1155,.F.);
#1155 = EDGE_CURVE('',#780,#1148,#1156,.T.);
#1156 = B_SPLINE_CURVE_WITH_KNOTS('',1,(#1157,#1158),.UNSPECIFIED.,.F.,
  .F.,(2,2),(0.,1.),.PIECEWISE_BEZIER_KNOTS.);
#1157 = CARTESIAN_POINT('',(22.262048352714,-12.9,5.89));
#1158 = CARTESIAN_POINT('',(22.473297269524,-13.4,6.4));
#1159 = B_SPLINE_SURFACE_WITH_KNOTS('',1,1,(
    (#1160,#1161)
    ,(#1162,#1163
    )),.UNSPECIFIED.,.F.,.F.,.F.,(2,2),(2,2),(0.,5.475903294572),(0.,1.)
  ,.PIECEWISE_BEZIER_KNOTS.);
#1160 = CARTESIAN_POINT('',(22.262048352714,-12.9,5.89));
#1161 = CARTESIAN_POINT('',(22.473297269524,-13.4,6.4));
#1162 = CARTESIAN_POINT('',(27.737951647286,-12.9,5.89));
#1163 = CARTESIAN_POINT('',(27.526702730476,-13.4,6.4));
#1164 = ADVANCED_FACE('',(#1165),#1182,.T.);
#1165 = FACE_BOUND('',#1166,.T.);
#1166 = EDGE_LOOP('',(#1167,#1168,#1169,#1177));
#1167 = ORIENTED_EDGE('',*,*,#802,.T.);
#1168 = ORIENTED_EDGE('',*,*,#1155,.T.);
#1169 = ORIENTED_EDGE('',*,*,#1170,.F.);
#1170 = EDGE_CURVE('',#1171,#1148,#1173,.T.);
#1171 = VERTEX_POINT('',#1172);
#1172 = CARTESIAN_POINT('',(18.9,-13.4,9.973297269524));
#1173 = LINE('',#1174,#1175);
#1174 = CARTESIAN_POINT('',(18.9,-13.4,9.973297269524));
#1175 = VECTOR('',#1176,1.);
#1176 = DIRECTION('',(0.707106781187,0.,-0.707106781187));
#1177 = ORIENTED_EDGE('',*,*,#1178,.F.);
#1178 = EDGE_CURVE('',#803,#1171,#1179,.T.);
#1179 = B_SPLINE_CURVE_WITH_KNOTS('',1,(#1180,#1181),.UNSPECIFIED.,.F.,
  .F.,(2,2),(0.,1.),.PIECEWISE_BEZIER_KNOTS.);
#1180 = CARTESIAN_POINT('',(18.39,-12.9,9.762048352714));
#1181 = CARTESIAN_POINT('',(18.9,-13.4,9.973297269524));
#1182 = B_SPLINE_SURFACE_WITH_KNOTS('',1,1,(
    (#1183,#1184)
    ,(#1185,#1186
    )),.UNSPECIFIED.,.F.,.F.,.F.,(2,2),(2,2),(0.,5.475903294572),(0.,1.)
  ,.PIECEWISE_BEZIER_KNOTS.);
#1183 = CARTESIAN_POINT('',(18.39,-12.9,9.762048352714));
#1184 = CARTESIAN_POINT('',(18.9,-13.4,9.973297269524));
#1185 = CARTESIAN_POINT('',(22.262048352714,-12.9,5.89));
#1186 = CARTESIAN_POINT('',(22.473297269524,-13.4,6.4));
#1187 = ADVANCED_FACE('',(#1188),#1205,.T.);
#1188 = FACE_BOUND('',#1189,.T.);
#1189 = EDGE_LOOP('',(#1190,#1191,#1192,#1200));
#1190 = ORIENTED_EDGE('',*,*,#825,.T.);
#1191 = ORIENTED_EDGE('',*,*,#1178,.T.);
#1192 = ORIENTED_EDGE('',*,*,#1193,.F.);
#1193 = EDGE_CURVE('',#1194,#1171,#1196,.T.);
#1194 = VERTEX_POINT('',#1195);
#1195 = CARTESIAN_POINT('',(18.9,-13.4,15.026702730476));
#1196 = LINE('',#1197,#1198);
#1197 = CARTESIAN_POINT('',(18.9,-13.4,15.026702730476));
#1198 = VECTOR('',#1199,1.);
#1199 = DIRECTION('',(0.,0.,-1.));
#1200 = ORIENTED_EDGE('',*,*,#1201,.F.);
#1201 = EDGE_CURVE('',#826,#1194,#1202,.T.);
#1202 = B_SPLINE_CURVE_WITH_KNOTS('',1,(#1203,#1204),.UNSPECIFIED.,.F.,
  .F.,(2,2),(0.,1.),.PIECEWISE_BEZIER_KNOTS.);
#1203 = CARTESIAN_POINT('',(18.39,-12.9,15.237951647286));
#1204 = CARTESIAN_POINT('',(18.9,-13.4,15.026702730476));
#1205 = B_SPLINE_SURFACE_WITH_KNOTS('',1,1,(
    (#1206,#1207)
    ,(#1208,#1209
    )),.UNSPECIFIED.,.F.,.F.,.F.,(2,2),(2,2),(0.,5.475903294572),(0.,1.)
  ,.PIECEWISE_BEZIER_KNOTS.);
#1206 = CARTESIAN_POINT('',(18.39,-12.9,15.237951647286));
#1207 = CARTESIAN_POINT('',(18.9,-13.4,15.026702730476));
#1208 = CARTESIAN_POINT('',(18.39,-12.9,9.762048352714));
#1209 = CARTESIAN_POINT('',(18.9,-13.4,9.973297269524));
#1210 = ADVANCED_FACE('',(#1211),#1228,.T.);
#1211 = FACE_BOUND('',#1212,.T.);
#1212 = EDGE_LOOP('',(#1213,#1214,#1215,#1223));
#1213 = ORIENTED_EDGE('',*,*,#848,.T.);
#1214 = ORIENTED_EDGE('',*,*,#1201,.T.);
#1215 = ORIENTED_EDGE('',*,*,#1216,.F.);
#1216 = EDGE_CURVE('',#1217,#1194,#1219,.T.);
#1217 = VERTEX_POINT('',#1218);
#1218 = CARTESIAN_POINT('',(22.473297269524,-13.4,18.6));
#1219 = LINE('',#1220,#1221);
#1220 = CARTESIAN_POINT('',(22.473297269524,-13.4,18.6));
#1221 = VECTOR('',#1222,1.);
#1222 = DIRECTION('',(-0.707106781187,0.,-0.707106781187));
#1223 = ORIENTED_EDGE('',*,*,#1224,.F.);
#1224 = EDGE_CURVE('',#849,#1217,#1225,.T.);
#1225 = B_SPLINE_CURVE_WITH_KNOTS('',1,(#1226,#1227),.UNSPECIFIED.,.F.,
  .F.,(2,2),(0.,1.),.PIECEWISE_BEZIER_KNOTS.);
#1226 = CARTESIAN_POINT('',(22.262048352714,-12.9,19.11));
#1227 = CARTESIAN_POINT('',(22.473297269524,-13.4,18.6));
#1228 = B_SPLINE_SURFACE_WITH_KNOTS('',1,1,(
    (#1229,#1230)
    ,(#1231,#1232
    )),.UNSPECIFIED.,.F.,.F.,.F.,(2,2),(2,2),(0.,5.475903294572),(0.,1.)
  ,.PIECEWISE_BEZIER_KNOTS.);
#1229 = CARTESIAN_POINT('',(22.262048352714,-12.9,19.11));
#1230 = CARTESIAN_POINT('',(22.473297269524,-13.4,18.6));
#1231 = CARTESIAN_POINT('',(18.39,-12.9,15.237951647286));
#1232 = CARTESIAN_POINT('',(18.9,-13.4,15.026702730476));
#1233 = ADVANCED_FACE('',(#1234),#1245,.T.);
#1234 = FACE_BOUND('',#1235,.T.);
#1235 = EDGE_LOOP('',(#1236,#1237,#1238,#1244));
#1236 = ORIENTED_EDGE('',*,*,#871,.T.);
#1237 = ORIENTED_EDGE('',*,*,#1224,.T.);
#1238 = ORIENTED_EDGE('',*,*,#1239,.F.);
#1239 = EDGE_CURVE('',#1072,#1217,#1240,.T.);
#1240 = LINE('',#1241,#1242);
#1241 = CARTESIAN_POINT('',(27.526702730476,-13.4,18.6));
#1242 = VECTOR('',#1243,1.);
#1243 = DIRECTION('',(-1.,0.,0.));
#1244 = ORIENTED_EDGE('',*,*,#1071,.F.);
#1245 = B_SPLINE_SURFACE_WITH_KNOTS('',1,1,(
    (#1246,#1247)
    ,(#1248,#1249
    )),.UNSPECIFIED.,.F.,.F.,.F.,(2,2),(2,2),(0.,5.475903294572),(0.,1.)
  ,.PIECEWISE_BEZIER_KNOTS.);
#1246 = CARTESIAN_POINT('',(27.737951647286,-12.9,19.11));
#1247 = CARTESIAN_POINT('',(27.526702730476,-13.4,18.6));
#1248 = CARTESIAN_POINT('',(22.262048352714,-12.9,19.11));
#1249 = CARTESIAN_POINT('',(22.473297269524,-13.4,18.6));
#1250 = ADVANCED_FACE('',(#1251),#1274,.T.);
#1251 = FACE_BOUND('',#1252,.T.);
#1252 = EDGE_LOOP('',(#1253,#1254,#1261,#1269));
#1253 = ORIENTED_EDGE('',*,*,#894,.T.);
#1254 = ORIENTED_EDGE('',*,*,#1255,.T.);
#1255 = EDGE_CURVE('',#888,#1256,#1258,.T.);
#1256 = VERTEX_POINT('',#1257);
#1257 = CARTESIAN_POINT('',(-22.47329726952,-13.4,18.6));
#1258 = B_SPLINE_CURVE_WITH_KNOTS('',1,(#1259,#1260),.UNSPECIFIED.,.F.,
  .F.,(2,2),(0.,1.),.PIECEWISE_BEZIER_KNOTS.);
#1259 = CARTESIAN_POINT('',(-22.26204835271,-12.9,19.11));
#1260 = CARTESIAN_POINT('',(-22.47329726952,-13.4,18.6));
#1261 = ORIENTED_EDGE('',*,*,#1262,.F.);
#1262 = EDGE_CURVE('',#1263,#1256,#1265,.T.);
#1263 = VERTEX_POINT('',#1264);
#1264 = CARTESIAN_POINT('',(-18.9,-13.4,15.026702730476));
#1265 = LINE('',#1266,#1267);
#1266 = CARTESIAN_POINT('',(-18.9,-13.4,15.026702730476));
#1267 = VECTOR('',#1268,1.);
#1268 = DIRECTION('',(-0.707106781187,0.,0.707106781187));
#1269 = ORIENTED_EDGE('',*,*,#1270,.F.);
#1270 = EDGE_CURVE('',#895,#1263,#1271,.T.);
#1271 = B_SPLINE_CURVE_WITH_KNOTS('',1,(#1272,#1273),.UNSPECIFIED.,.F.,
  .F.,(2,2),(0.,1.),.PIECEWISE_BEZIER_KNOTS.);
#1272 = CARTESIAN_POINT('',(-18.39,-12.9,15.237951647286));
#1273 = CARTESIAN_POINT('',(-18.9,-13.4,15.026702730476));
#1274 = B_SPLINE_SURFACE_WITH_KNOTS('',1,1,(
    (#1275,#1276)
    ,(#1277,#1278
    )),.UNSPECIFIED.,.F.,.F.,.F.,(2,2),(2,2),(0.,5.475903294572),(0.,1.)
  ,.PIECEWISE_BEZIER_KNOTS.);
#1275 = CARTESIAN_POINT('',(-18.39,-12.9,15.237951647286));
#1276 = CARTESIAN_POINT('',(-18.9,-13.4,15.026702730476));
#1277 = CARTESIAN_POINT('',(-22.26204835271,-12.9,19.11));
#1278 = CARTESIAN_POINT('',(-22.47329726952,-13.4,18.6));
#1279 = ADVANCED_FACE('',(#1280),#1297,.T.);
#1280 = FACE_BOUND('',#1281,.T.);
#1281 = EDGE_LOOP('',(#1282,#1283,#1290,#1296));
#1282 = ORIENTED_EDGE('',*,*,#923,.T.);
#1283 = ORIENTED_EDGE('',*,*,#1284,.T.);
#1284 = EDGE_CURVE('',#917,#1285,#1287,.T.);
#1285 = VERTEX_POINT('',#1286);
#1286 = CARTESIAN_POINT('',(-27.52670273047,-13.4,18.6));
#1287 = B_SPLINE_CURVE_WITH_KNOTS('',1,(#1288,#1289),.UNSPECIFIED.,.F.,
  .F.,(2,2),(0.,1.),.PIECEWISE_BEZIER_KNOTS.);
#1288 = CARTESIAN_POINT('',(-27.73795164728,-12.9,19.11));
#1289 = CARTESIAN_POINT('',(-27.52670273047,-13.4,18.6));
#1290 = ORIENTED_EDGE('',*,*,#1291,.F.);
#1291 = EDGE_CURVE('',#1256,#1285,#1292,.T.);
#1292 = LINE('',#1293,#1294);
#1293 = CARTESIAN_POINT('',(-22.47329726952,-13.4,18.6));
#1294 = VECTOR('',#1295,1.);
#1295 = DIRECTION('',(-1.,0.,0.));
#1296 = ORIENTED_EDGE('',*,*,#1255,.F.);
#1297 = B_SPLINE_SURFACE_WITH_KNOTS('',1,1,(
    (#1298,#1299)
    ,(#1300,#1301
    )),.UNSPECIFIED.,.F.,.F.,.F.,(2,2),(2,2),(0.,5.475903294572),(0.,1.)
  ,.PIECEWISE_BEZIER_KNOTS.);
#1298 = CARTESIAN_POINT('',(-22.26204835271,-12.9,19.11));
#1299 = CARTESIAN_POINT('',(-22.47329726952,-13.4,18.6));
#1300 = CARTESIAN_POINT('',(-27.73795164728,-12.9,19.11));
#1301 = CARTESIAN_POINT('',(-27.52670273047,-13.4,18.6));
#1302 = ADVANCED_FACE('',(#1303),#1320,.T.);
#1303 = FACE_BOUND('',#1304,.T.);
#1304 = EDGE_LOOP('',(#1305,#1306,#1307,#1315));
#1305 = ORIENTED_EDGE('',*,*,#940,.T.);
#1306 = ORIENTED_EDGE('',*,*,#1270,.T.);
#1307 = ORIENTED_EDGE('',*,*,#1308,.F.);
#1308 = EDGE_CURVE('',#1309,#1263,#1311,.T.);
#1309 = VERTEX_POINT('',#1310);
#1310 = CARTESIAN_POINT('',(-18.9,-13.4,9.973297269524));
#1311 = LINE('',#1312,#1313);
#1312 = CARTESIAN_POINT('',(-18.9,-13.4,9.973297269524));
#1313 = VECTOR('',#1314,1.);
#1314 = DIRECTION('',(0.,0.,1.));
#1315 = ORIENTED_EDGE('',*,*,#1316,.F.);
#1316 = EDGE_CURVE('',#941,#1309,#1317,.T.);
#1317 = B_SPLINE_CURVE_WITH_KNOTS('',1,(#1318,#1319),.UNSPECIFIED.,.F.,
  .F.,(2,2),(0.,1.),.PIECEWISE_BEZIER_KNOTS.);
#1318 = CARTESIAN_POINT('',(-18.39,-12.9,9.762048352714));
#1319 = CARTESIAN_POINT('',(-18.9,-13.4,9.973297269524));
#1320 = B_SPLINE_SURFACE_WITH_KNOTS('',1,1,(
    (#1321,#1322)
    ,(#1323,#1324
    )),.UNSPECIFIED.,.F.,.F.,.F.,(2,2),(2,2),(0.,5.475903294572),(0.,1.)
  ,.PIECEWISE_BEZIER_KNOTS.);
#1321 = CARTESIAN_POINT('',(-18.39,-12.9,9.762048352714));
#1322 = CARTESIAN_POINT('',(-18.9,-13.4,9.973297269524));
#1323 = CARTESIAN_POINT('',(-18.39,-12.9,15.237951647286));
#1324 = CARTESIAN_POINT('',(-18.9,-13.4,15.026702730476));
#1325 = ADVANCED_FACE('',(#1326),#1343,.T.);
#1326 = FACE_BOUND('',#1327,.T.);
#1327 = EDGE_LOOP('',(#1328,#1329,#1336,#1342));
#1328 = ORIENTED_EDGE('',*,*,#969,.T.);
#1329 = ORIENTED_EDGE('',*,*,#1330,.T.);
#1330 = EDGE_CURVE('',#963,#1331,#1333,.T.);
#1331 = VERTEX_POINT('',#1332);
#1332 = CARTESIAN_POINT('',(-31.1,-13.4,15.026702730476));
#1333 = B_SPLINE_CURVE_WITH_KNOTS('',1,(#1334,#1335),.UNSPECIFIED.,.F.,
  .F.,(2,2),(0.,1.),.PIECEWISE_BEZIER_KNOTS.);
#1334 = CARTESIAN_POINT('',(-31.61,-12.9,15.237951647286));
#1335 = CARTESIAN_POINT('',(-31.1,-13.4,15.026702730476));
#1336 = ORIENTED_EDGE('',*,*,#1337,.F.);
#1337 = EDGE_CURVE('',#1285,#1331,#1338,.T.);
#1338 = LINE('',#1339,#1340);
#1339 = CARTESIAN_POINT('',(-27.52670273047,-13.4,18.6));
#1340 = VECTOR('',#1341,1.);
#1341 = DIRECTION('',(-0.707106781187,0.,-0.707106781187));
#1342 = ORIENTED_EDGE('',*,*,#1284,.F.);
#1343 = B_SPLINE_SURFACE_WITH_KNOTS('',1,1,(
    (#1344,#1345)
    ,(#1346,#1347
    )),.UNSPECIFIED.,.F.,.F.,.F.,(2,2),(2,2),(0.,5.475903294572),(0.,1.)
  ,.PIECEWISE_BEZIER_KNOTS.);
#1344 = CARTESIAN_POINT('',(-27.73795164728,-12.9,19.11));
#1345 = CARTESIAN_POINT('',(-27.52670273047,-13.4,18.6));
#1346 = CARTESIAN_POINT('',(-31.61,-12.9,15.237951647286));
#1347 = CARTESIAN_POINT('',(-31.1,-13.4,15.026702730476));
#1348 = ADVANCED_FACE('',(#1349),#1366,.T.);
#1349 = FACE_BOUND('',#1350,.T.);
#1350 = EDGE_LOOP('',(#1351,#1352,#1353,#1361));
#1351 = ORIENTED_EDGE('',*,*,#986,.T.);
#1352 = ORIENTED_EDGE('',*,*,#1316,.T.);
#1353 = ORIENTED_EDGE('',*,*,#1354,.F.);
#1354 = EDGE_CURVE('',#1355,#1309,#1357,.T.);
#1355 = VERTEX_POINT('',#1356);
#1356 = CARTESIAN_POINT('',(-22.47329726952,-13.4,6.4));
#1357 = LINE('',#1358,#1359);
#1358 = CARTESIAN_POINT('',(-22.47329726952,-13.4,6.4));
#1359 = VECTOR('',#1360,1.);
#1360 = DIRECTION('',(0.707106781187,0.,0.707106781187));
#1361 = ORIENTED_EDGE('',*,*,#1362,.F.);
#1362 = EDGE_CURVE('',#987,#1355,#1363,.T.);
#1363 = B_SPLINE_CURVE_WITH_KNOTS('',1,(#1364,#1365),.UNSPECIFIED.,.F.,
  .F.,(2,2),(0.,1.),.PIECEWISE_BEZIER_KNOTS.);
#1364 = CARTESIAN_POINT('',(-22.26204835271,-12.9,5.89));
#1365 = CARTESIAN_POINT('',(-22.47329726952,-13.4,6.4));
#1366 = B_SPLINE_SURFACE_WITH_KNOTS('',1,1,(
    (#1367,#1368)
    ,(#1369,#1370
    )),.UNSPECIFIED.,.F.,.F.,.F.,(2,2),(2,2),(0.,5.475903294572),(0.,1.)
  ,.PIECEWISE_BEZIER_KNOTS.);
#1367 = CARTESIAN_POINT('',(-22.26204835271,-12.9,5.89));
#1368 = CARTESIAN_POINT('',(-22.47329726952,-13.4,6.4));
#1369 = CARTESIAN_POINT('',(-18.39,-12.9,9.762048352714));
#1370 = CARTESIAN_POINT('',(-18.9,-13.4,9.973297269524));
#1371 = ADVANCED_FACE('',(#1372),#1389,.T.);
#1372 = FACE_BOUND('',#1373,.T.);
#1373 = EDGE_LOOP('',(#1374,#1375,#1382,#1388));
#1374 = ORIENTED_EDGE('',*,*,#1015,.T.);
#1375 = ORIENTED_EDGE('',*,*,#1376,.T.);
#1376 = EDGE_CURVE('',#1009,#1377,#1379,.T.);
#1377 = VERTEX_POINT('',#1378);
#1378 = CARTESIAN_POINT('',(-31.1,-13.4,9.973297269524));
#1379 = B_SPLINE_CURVE_WITH_KNOTS('',1,(#1380,#1381),.UNSPECIFIED.,.F.,
  .F.,(2,2),(0.,1.),.PIECEWISE_BEZIER_KNOTS.);
#1380 = CARTESIAN_POINT('',(-31.61,-12.9,9.762048352714));
#1381 = CARTESIAN_POINT('',(-31.1,-13.4,9.973297269524));
#1382 = ORIENTED_EDGE('',*,*,#1383,.F.);
#1383 = EDGE_CURVE('',#1331,#1377,#1384,.T.);
#1384 = LINE('',#1385,#1386);
#1385 = CARTESIAN_POINT('',(-31.1,-13.4,15.026702730476));
#1386 = VECTOR('',#1387,1.);
#1387 = DIRECTION('',(0.,0.,-1.));
#1388 = ORIENTED_EDGE('',*,*,#1330,.F.);
#1389 = B_SPLINE_SURFACE_WITH_KNOTS('',1,1,(
    (#1390,#1391)
    ,(#1392,#1393
    )),.UNSPECIFIED.,.F.,.F.,.F.,(2,2),(2,2),(0.,5.475903294572),(0.,1.)
  ,.PIECEWISE_BEZIER_KNOTS.);
#1390 = CARTESIAN_POINT('',(-31.61,-12.9,15.237951647286));
#1391 = CARTESIAN_POINT('',(-31.1,-13.4,15.026702730476));
#1392 = CARTESIAN_POINT('',(-31.61,-12.9,9.762048352714));
#1393 = CARTESIAN_POINT('',(-31.1,-13.4,9.973297269524));
#1394 = ADVANCED_FACE('',(#1395),#1412,.T.);
#1395 = FACE_BOUND('',#1396,.T.);
#1396 = EDGE_LOOP('',(#1397,#1398,#1399,#1407));
#1397 = ORIENTED_EDGE('',*,*,#1032,.T.);
#1398 = ORIENTED_EDGE('',*,*,#1362,.T.);
#1399 = ORIENTED_EDGE('',*,*,#1400,.F.);
#1400 = EDGE_CURVE('',#1401,#1355,#1403,.T.);
#1401 = VERTEX_POINT('',#1402);
#1402 = CARTESIAN_POINT('',(-27.52670273047,-13.4,6.4));
#1403 = LINE('',#1404,#1405);
#1404 = CARTESIAN_POINT('',(-27.52670273047,-13.4,6.4));
#1405 = VECTOR('',#1406,1.);
#1406 = DIRECTION('',(1.,0.,0.));
#1407 = ORIENTED_EDGE('',*,*,#1408,.F.);
#1408 = EDGE_CURVE('',#1033,#1401,#1409,.T.);
#1409 = B_SPLINE_CURVE_WITH_KNOTS('',1,(#1410,#1411),.UNSPECIFIED.,.F.,
  .F.,(2,2),(0.,1.),.PIECEWISE_BEZIER_KNOTS.);
#1410 = CARTESIAN_POINT('',(-27.73795164728,-12.9,5.89));
#1411 = CARTESIAN_POINT('',(-27.52670273047,-13.4,6.4));
#1412 = B_SPLINE_SURFACE_WITH_KNOTS('',1,1,(
    (#1413,#1414)
    ,(#1415,#1416
    )),.UNSPECIFIED.,.F.,.F.,.F.,(2,2),(2,2),(0.,5.475903294572),(0.,1.)
  ,.PIECEWISE_BEZIER_KNOTS.);
#1413 = CARTESIAN_POINT('',(-27.73795164728,-12.9,5.89));
#1414 = CARTESIAN_POINT('',(-27.52670273047,-13.4,6.4));
#1415 = CARTESIAN_POINT('',(-22.26204835271,-12.9,5.89));
#1416 = CARTESIAN_POINT('',(-22.47329726952,-13.4,6.4));
#1417 = ADVANCED_FACE('',(#1418),#1429,.T.);
#1418 = FACE_BOUND('',#1419,.T.);
#1419 = EDGE_LOOP('',(#1420,#1421,#1422,#1428));
#1420 = ORIENTED_EDGE('',*,*,#1055,.T.);
#1421 = ORIENTED_EDGE('',*,*,#1408,.T.);
#1422 = ORIENTED_EDGE('',*,*,#1423,.F.);
#1423 = EDGE_CURVE('',#1377,#1401,#1424,.T.);
#1424 = LINE('',#1425,#1426);
#1425 = CARTESIAN_POINT('',(-31.1,-13.4,9.973297269524));
#1426 = VECTOR('',#1427,1.);
#1427 = DIRECTION('',(0.707106781187,0.,-0.707106781187));
#1428 = ORIENTED_EDGE('',*,*,#1376,.F.);
#1429 = B_SPLINE_SURFACE_WITH_KNOTS('',1,1,(
    (#1430,#1431)
    ,(#1432,#1433
    )),.UNSPECIFIED.,.F.,.F.,.F.,(2,2),(2,2),(0.,5.475903294572),(0.,1.)
  ,.PIECEWISE_BEZIER_KNOTS.);
#1430 = CARTESIAN_POINT('',(-31.61,-12.9,9.762048352714));
#1431 = CARTESIAN_POINT('',(-31.1,-13.4,9.973297269524));
#1432 = CARTESIAN_POINT('',(-27.73795164728,-12.9,5.89));
#1433 = CARTESIAN_POINT('',(-27.52670273047,-13.4,6.4));
#1434 = ADVANCED_FACE('',(#1435),#1445,.F.);
#1435 = FACE_BOUND('',#1436,.T.);
#1436 = EDGE_LOOP('',(#1437,#1438,#1439,#1440,#1441,#1442,#1443,#1444));
#1437 = ORIENTED_EDGE('',*,*,#1078,.T.);
#1438 = ORIENTED_EDGE('',*,*,#1239,.T.);
#1439 = ORIENTED_EDGE('',*,*,#1216,.T.);
#1440 = ORIENTED_EDGE('',*,*,#1193,.T.);
#1441 = ORIENTED_EDGE('',*,*,#1170,.T.);
#1442 = ORIENTED_EDGE('',*,*,#1147,.T.);
#1443 = ORIENTED_EDGE('',*,*,#1124,.T.);
#1444 = ORIENTED_EDGE('',*,*,#1101,.T.);
#1445 = PLANE('',#1446);
#1446 = AXIS2_PLACEMENT_3D('',#1447,#1448,#1449);
#1447 = CARTESIAN_POINT('',(31.1,-13.4,15.026702730476));
#1448 = DIRECTION('',(0.,1.,0.));
#1449 = DIRECTION('',(-0.923879532511,0.,-0.382683432365));
#1450 = ADVANCED_FACE('',(#1451),#1461,.F.);
#1451 = FACE_BOUND('',#1452,.T.);
#1452 = EDGE_LOOP('',(#1453,#1454,#1455,#1456,#1457,#1458,#1459,#1460));
#1453 = ORIENTED_EDGE('',*,*,#1262,.T.);
#1454 = ORIENTED_EDGE('',*,*,#1291,.T.);
#1455 = ORIENTED_EDGE('',*,*,#1337,.T.);
#1456 = ORIENTED_EDGE('',*,*,#1383,.T.);
#1457 = ORIENTED_EDGE('',*,*,#1423,.T.);
#1458 = ORIENTED_EDGE('',*,*,#1400,.T.);
#1459 = ORIENTED_EDGE('',*,*,#1354,.T.);
#1460 = ORIENTED_EDGE('',*,*,#1308,.T.);
#1461 = PLANE('',#1462);
#1462 = AXIS2_PLACEMENT_3D('',#1463,#1464,#1465);
#1463 = CARTESIAN_POINT('',(-18.9,-13.4,15.026702730476));
#1464 = DIRECTION('',(0.,1.,0.));
#1465 = DIRECTION('',(-0.923879532511,0.,-0.382683432365));
#1466 = ( GEOMETRIC_REPRESENTATION_CONTEXT(3) 
GLOBAL_UNCERTAINTY_ASSIGNED_CONTEXT((#1470)) 
GLOBAL_UNIT_ASSIGNED_CONTEXT((#1467,#1468,#1469)) REPRESENTATION_CONTEXT
('Context #1','3D Context with UNIT and UNCERTAINTY') );
#1467 = ( LENGTH_UNIT() NAMED_UNIT(*) SI_UNIT(.MILLI.,.METRE.) );
#1468 = ( NAMED_UNIT(*) PLANE_ANGLE_UNIT() SI_UNIT($,.RADIAN.) );
#1469 = ( NAMED_UNIT(*) SI_UNIT($,.STERADIAN.) SOLID_ANGLE_UNIT() );
#1470 = UNCERTAINTY_MEASURE_WITH_UNIT(LENGTH_MEASURE(1.E-07),#1467,
  'distance_accuracy_value','confusion accuracy');
#1471 = PRODUCT_RELATED_PRODUCT_CATEGORY('part',$,(#7));
ENDSEC;
END-ISO-10303-21;
