ISO-10303-21;
HEADER;
FILE_DESCRIPTION(('FreeCAD Model'),'2;1');
FILE_NAME('Open CASCADE Shape Model','2026-09-27T12:54:20',('Author'),(
    ''),'Open CASCADE STEP processor 7.8','FreeCAD','Unknown');
FILE_SCHEMA(('AUTOMOTIVE_DESIGN { 1 0 10303 214 1 1 1 1 }'));
ENDSEC;
DATA;
#1 = APPLICATION_PROTOCOL_DEFINITION('international standard',
  'automotive_design',2000,#2);
#2 = APPLICATION_CONTEXT(
  'core data for automotive mechanical design processes');
#3 = SHAPE_DEFINITION_REPRESENTATION(#4,#10);
#4 = PRODUCT_DEFINITION_SHAPE('','',#5);
#5 = PRODUCT_DEFINITION('design','',#6,#9);
#6 = PRODUCT_DEFINITION_FORMATION('','',#7);
#7 = PRODUCT('fit_coupon','fit_coupon','',(#8));
#8 = PRODUCT_CONTEXT('',#2,'mechanical');
#9 = PRODUCT_DEFINITION_CONTEXT('part definition',#2,'design');
#10 = SHAPE_REPRESENTATION('',(#11,#15,#19,#23),#27);
#11 = AXIS2_PLACEMENT_3D('',#12,#13,#14);
#12 = CARTESIAN_POINT('',(0.,0.,0.));
#13 = DIRECTION('',(0.,0.,1.));
#14 = DIRECTION('',(1.,0.,-0.));
#15 = AXIS2_PLACEMENT_3D('',#16,#17,#18);
#16 = CARTESIAN_POINT('',(12.5,65.2,0.));
#17 = DIRECTION('',(-0.,1.,2.22044604925E-16));
#18 = DIRECTION('',(1.,0.,0.));
#19 = AXIS2_PLACEMENT_3D('',#20,#21,#22);
#20 = CARTESIAN_POINT('',(70.,10.2,-3.663735981263E-15));
#21 = DIRECTION('',(-1.,0.,2.22044604925E-16));
#22 = DIRECTION('',(2.22044604925E-16,0.,1.));
#23 = AXIS2_PLACEMENT_3D('',#24,#25,#26);
#24 = CARTESIAN_POINT('',(45.,0.,0.));
#25 = DIRECTION('',(0.,0.,1.));
#26 = DIRECTION('',(1.,0.,0.));
#27 = ( GEOMETRIC_REPRESENTATION_CONTEXT(3) 
GLOBAL_UNCERTAINTY_ASSIGNED_CONTEXT((#31)) GLOBAL_UNIT_ASSIGNED_CONTEXT(
(#28,#29,#30)) REPRESENTATION_CONTEXT('Context #1',
  '3D Context with UNIT and UNCERTAINTY') );
#28 = ( LENGTH_UNIT() NAMED_UNIT(*) SI_UNIT(.MILLI.,.METRE.) );
#29 = ( NAMED_UNIT(*) PLANE_ANGLE_UNIT() SI_UNIT($,.RADIAN.) );
#30 = ( NAMED_UNIT(*) SI_UNIT($,.STERADIAN.) SOLID_ANGLE_UNIT() );
#31 = UNCERTAINTY_MEASURE_WITH_UNIT(LENGTH_MEASURE(1.E-07),#28,
  'distance_accuracy_value','confusion accuracy');
#32 = PRODUCT_RELATED_PRODUCT_CATEGORY('part',$,(#7));
#33 = SHAPE_DEFINITION_REPRESENTATION(#34,#40);
#34 = PRODUCT_DEFINITION_SHAPE('','',#35);
#35 = PRODUCT_DEFINITION('design','',#36,#39);
#36 = PRODUCT_DEFINITION_FORMATION('','',#37);
#37 = PRODUCT('CouponRail','CouponRail','',(#38));
#38 = PRODUCT_CONTEXT('',#2,'mechanical');
#39 = PRODUCT_DEFINITION_CONTEXT('part definition',#2,'design');
#40 = ADVANCED_BREP_SHAPE_REPRESENTATION('',(#11,#41),#858);
#41 = MANIFOLD_SOLID_BREP('',#42);
#42 = CLOSED_SHELL('',(#43,#83,#114,#145,#170,#195,#212,#290,#319,#342,
    #365,#388,#411,#434,#457,#474,#503,#526,#549,#572,#595,#618,#641,
    #658,#687,#710,#733,#756,#779,#802,#825,#842));
#43 = ADVANCED_FACE('',(#44),#78,.F.);
#44 = FACE_BOUND('',#45,.F.);
#45 = EDGE_LOOP('',(#46,#56,#64,#72));
#46 = ORIENTED_EDGE('',*,*,#47,.T.);
#47 = EDGE_CURVE('',#48,#50,#52,.T.);
#48 = VERTEX_POINT('',#49);
#49 = CARTESIAN_POINT('',(-12.5,0.,42.8));
#50 = VERTEX_POINT('',#51);
#51 = CARTESIAN_POINT('',(12.5,0.,42.8));
#52 = LINE('',#53,#54);
#53 = CARTESIAN_POINT('',(-12.5,0.,42.8));
#54 = VECTOR('',#55,1.);
#55 = DIRECTION('',(1.,0.,0.));
#56 = ORIENTED_EDGE('',*,*,#57,.T.);
#57 = EDGE_CURVE('',#50,#58,#60,.T.);
#58 = VERTEX_POINT('',#59);
#59 = CARTESIAN_POINT('',(12.5,-1.818900152513,42.8));
#60 = LINE('',#61,#62);
#61 = CARTESIAN_POINT('',(12.5,0.,42.8));
#62 = VECTOR('',#63,1.);
#63 = DIRECTION('',(0.,-1.,0.));
#64 = ORIENTED_EDGE('',*,*,#65,.F.);
#65 = EDGE_CURVE('',#66,#58,#68,.T.);
#66 = VERTEX_POINT('',#67);
#67 = CARTESIAN_POINT('',(-12.5,-1.818900152513,42.8));
#68 = LINE('',#69,#70);
#69 = CARTESIAN_POINT('',(-12.5,-1.818900152513,42.8));
#70 = VECTOR('',#71,1.);
#71 = DIRECTION('',(1.,0.,0.));
#72 = ORIENTED_EDGE('',*,*,#73,.F.);
#73 = EDGE_CURVE('',#48,#66,#74,.T.);
#74 = LINE('',#75,#76);
#75 = CARTESIAN_POINT('',(-12.5,0.,42.8));
#76 = VECTOR('',#77,1.);
#77 = DIRECTION('',(0.,-1.,0.));
#78 = PLANE('',#79);
#79 = AXIS2_PLACEMENT_3D('',#80,#81,#82);
#80 = CARTESIAN_POINT('',(-12.5,0.,42.8));
#81 = DIRECTION('',(0.,0.,-1.));
#82 = DIRECTION('',(0.,-1.,0.));
#83 = ADVANCED_FACE('',(#84),#109,.F.);
#84 = FACE_BOUND('',#85,.F.);
#85 = EDGE_LOOP('',(#86,#96,#102,#103));
#86 = ORIENTED_EDGE('',*,*,#87,.T.);
#87 = EDGE_CURVE('',#88,#90,#92,.T.);
#88 = VERTEX_POINT('',#89);
#89 = CARTESIAN_POINT('',(-12.5,0.,0.));
#90 = VERTEX_POINT('',#91);
#91 = CARTESIAN_POINT('',(12.5,0.,0.));
#92 = LINE('',#93,#94);
#93 = CARTESIAN_POINT('',(-12.5,0.,0.));
#94 = VECTOR('',#95,1.);
#95 = DIRECTION('',(1.,0.,0.));
#96 = ORIENTED_EDGE('',*,*,#97,.T.);
#97 = EDGE_CURVE('',#90,#50,#98,.T.);
#98 = LINE('',#99,#100);
#99 = CARTESIAN_POINT('',(12.5,0.,0.));
#100 = VECTOR('',#101,1.);
#101 = DIRECTION('',(0.,0.,1.));
#102 = ORIENTED_EDGE('',*,*,#47,.F.);
#103 = ORIENTED_EDGE('',*,*,#104,.F.);
#104 = EDGE_CURVE('',#88,#48,#105,.T.);
#105 = LINE('',#106,#107);
#106 = CARTESIAN_POINT('',(-12.5,0.,0.));
#107 = VECTOR('',#108,1.);
#108 = DIRECTION('',(0.,0.,1.));
#109 = PLANE('',#110);
#110 = AXIS2_PLACEMENT_3D('',#111,#112,#113);
#111 = CARTESIAN_POINT('',(-12.5,0.,0.));
#112 = DIRECTION('',(0.,-1.,0.));
#113 = DIRECTION('',(0.,0.,1.));
#114 = ADVANCED_FACE('',(#115),#140,.F.);
#115 = FACE_BOUND('',#116,.F.);
#116 = EDGE_LOOP('',(#117,#118,#126,#134));
#117 = ORIENTED_EDGE('',*,*,#65,.T.);
#118 = ORIENTED_EDGE('',*,*,#119,.T.);
#119 = EDGE_CURVE('',#58,#120,#122,.T.);
#120 = VERTEX_POINT('',#121);
#121 = CARTESIAN_POINT('',(12.5,-5.,34.06));
#122 = LINE('',#123,#124);
#123 = CARTESIAN_POINT('',(12.5,-1.818900152513,42.8));
#124 = VECTOR('',#125,1.);
#125 = DIRECTION('',(0.,-0.342020143326,-0.939692620786));
#126 = ORIENTED_EDGE('',*,*,#127,.F.);
#127 = EDGE_CURVE('',#128,#120,#130,.T.);
#128 = VERTEX_POINT('',#129);
#129 = CARTESIAN_POINT('',(-12.5,-5.,34.06));
#130 = LINE('',#131,#132);
#131 = CARTESIAN_POINT('',(-12.5,-5.,34.06));
#132 = VECTOR('',#133,1.);
#133 = DIRECTION('',(1.,0.,0.));
#134 = ORIENTED_EDGE('',*,*,#135,.F.);
#135 = EDGE_CURVE('',#66,#128,#136,.T.);
#136 = LINE('',#137,#138);
#137 = CARTESIAN_POINT('',(-12.5,-1.818900152513,42.8));
#138 = VECTOR('',#139,1.);
#139 = DIRECTION('',(0.,-0.342020143326,-0.939692620786));
#140 = PLANE('',#141);
#141 = AXIS2_PLACEMENT_3D('',#142,#143,#144);
#142 = CARTESIAN_POINT('',(-12.5,-1.818900152513,42.8));
#143 = DIRECTION('',(0.,0.939692620786,-0.342020143326));
#144 = DIRECTION('',(0.,-0.342020143326,-0.939692620786));
#145 = ADVANCED_FACE('',(#146),#165,.F.);
#146 = FACE_BOUND('',#147,.F.);
#147 = EDGE_LOOP('',(#148,#149,#150,#158,#164));
#148 = ORIENTED_EDGE('',*,*,#73,.T.);
#149 = ORIENTED_EDGE('',*,*,#135,.T.);
#150 = ORIENTED_EDGE('',*,*,#151,.T.);
#151 = EDGE_CURVE('',#128,#152,#154,.T.);
#152 = VERTEX_POINT('',#153);
#153 = CARTESIAN_POINT('',(-12.5,-5.,0.));
#154 = LINE('',#155,#156);
#155 = CARTESIAN_POINT('',(-12.5,-5.,34.06));
#156 = VECTOR('',#157,1.);
#157 = DIRECTION('',(0.,0.,-1.));
#158 = ORIENTED_EDGE('',*,*,#159,.T.);
#159 = EDGE_CURVE('',#152,#88,#160,.T.);
#160 = LINE('',#161,#162);
#161 = CARTESIAN_POINT('',(-12.5,-5.,0.));
#162 = VECTOR('',#163,1.);
#163 = DIRECTION('',(0.,1.,0.));
#164 = ORIENTED_EDGE('',*,*,#104,.T.);
#165 = PLANE('',#166);
#166 = AXIS2_PLACEMENT_3D('',#167,#168,#169);
#167 = CARTESIAN_POINT('',(-12.5,-2.324861611178,20.770581920471));
#168 = DIRECTION('',(1.,0.,0.));
#169 = DIRECTION('',(-0.,0.,1.));
#170 = ADVANCED_FACE('',(#171),#190,.T.);
#171 = FACE_BOUND('',#172,.T.);
#172 = EDGE_LOOP('',(#173,#174,#175,#183,#189));
#173 = ORIENTED_EDGE('',*,*,#57,.T.);
#174 = ORIENTED_EDGE('',*,*,#119,.T.);
#175 = ORIENTED_EDGE('',*,*,#176,.T.);
#176 = EDGE_CURVE('',#120,#177,#179,.T.);
#177 = VERTEX_POINT('',#178);
#178 = CARTESIAN_POINT('',(12.5,-5.,0.));
#179 = LINE('',#180,#181);
#180 = CARTESIAN_POINT('',(12.5,-5.,34.06));
#181 = VECTOR('',#182,1.);
#182 = DIRECTION('',(0.,0.,-1.));
#183 = ORIENTED_EDGE('',*,*,#184,.T.);
#184 = EDGE_CURVE('',#177,#90,#185,.T.);
#185 = LINE('',#186,#187);
#186 = CARTESIAN_POINT('',(12.5,-5.,0.));
#187 = VECTOR('',#188,1.);
#188 = DIRECTION('',(0.,1.,0.));
#189 = ORIENTED_EDGE('',*,*,#97,.T.);
#190 = PLANE('',#191);
#191 = AXIS2_PLACEMENT_3D('',#192,#193,#194);
#192 = CARTESIAN_POINT('',(12.5,-2.324861611178,20.770581920471));
#193 = DIRECTION('',(1.,0.,0.));
#194 = DIRECTION('',(-0.,0.,1.));
#195 = ADVANCED_FACE('',(#196),#207,.F.);
#196 = FACE_BOUND('',#197,.F.);
#197 = EDGE_LOOP('',(#198,#204,#205,#206));
#198 = ORIENTED_EDGE('',*,*,#199,.T.);
#199 = EDGE_CURVE('',#152,#177,#200,.T.);
#200 = LINE('',#201,#202);
#201 = CARTESIAN_POINT('',(-12.5,-5.,0.));
#202 = VECTOR('',#203,1.);
#203 = DIRECTION('',(1.,0.,0.));
#204 = ORIENTED_EDGE('',*,*,#184,.T.);
#205 = ORIENTED_EDGE('',*,*,#87,.F.);
#206 = ORIENTED_EDGE('',*,*,#159,.F.);
#207 = PLANE('',#208);
#208 = AXIS2_PLACEMENT_3D('',#209,#210,#211);
#209 = CARTESIAN_POINT('',(-12.5,-5.,0.));
#210 = DIRECTION('',(0.,0.,1.));
#211 = DIRECTION('',(0.,1.,0.));
#212 = ADVANCED_FACE('',(#213,#219),#285,.F.);
#213 = FACE_BOUND('',#214,.F.);
#214 = EDGE_LOOP('',(#215,#216,#217,#218));
#215 = ORIENTED_EDGE('',*,*,#127,.T.);
#216 = ORIENTED_EDGE('',*,*,#176,.T.);
#217 = ORIENTED_EDGE('',*,*,#199,.F.);
#218 = ORIENTED_EDGE('',*,*,#151,.F.);
#219 = FACE_BOUND('',#220,.F.);
#220 = EDGE_LOOP('',(#221,#231,#239,#247,#255,#263,#271,#279));
#221 = ORIENTED_EDGE('',*,*,#222,.F.);
#222 = EDGE_CURVE('',#223,#225,#227,.T.);
#223 = VERTEX_POINT('',#224);
#224 = CARTESIAN_POINT('',(2.795941546018,-5.,19.25));
#225 = VERTEX_POINT('',#226);
#226 = CARTESIAN_POINT('',(6.75,-5.,15.295941546018));
#227 = LINE('',#228,#229);
#228 = CARTESIAN_POINT('',(-2.753514613495,-5.,24.799456159514));
#229 = VECTOR('',#230,1.);
#230 = DIRECTION('',(0.707106781187,0.,-0.707106781187));
#231 = ORIENTED_EDGE('',*,*,#232,.F.);
#232 = EDGE_CURVE('',#233,#223,#235,.T.);
#233 = VERTEX_POINT('',#234);
#234 = CARTESIAN_POINT('',(-2.795941546018,-5.,19.25));
#235 = LINE('',#236,#237);
#236 = CARTESIAN_POINT('',(-4.852029226991,-5.,19.25));
#237 = VECTOR('',#238,1.);
#238 = DIRECTION('',(1.,0.,-0.));
#239 = ORIENTED_EDGE('',*,*,#240,.F.);
#240 = EDGE_CURVE('',#241,#233,#243,.T.);
#241 = VERTEX_POINT('',#242);
#242 = CARTESIAN_POINT('',(-6.75,-5.,15.295941546018));
#243 = LINE('',#244,#245);
#244 = CARTESIAN_POINT('',(-1.519456159514,-5.,20.526485386505));
#245 = VECTOR('',#246,1.);
#246 = DIRECTION('',(0.707106781187,0.,0.707106781187));
#247 = ORIENTED_EDGE('',*,*,#248,.F.);
#248 = EDGE_CURVE('',#249,#241,#251,.T.);
#249 = VERTEX_POINT('',#250);
#250 = CARTESIAN_POINT('',(-6.75,-5.,9.704058453982));
#251 = LINE('',#252,#253);
#252 = CARTESIAN_POINT('',(-6.75,-5.,24.677970773009));
#253 = VECTOR('',#254,1.);
#254 = DIRECTION('',(0.,-0.,1.));
#255 = ORIENTED_EDGE('',*,*,#256,.F.);
#256 = EDGE_CURVE('',#257,#249,#259,.T.);
#257 = VERTEX_POINT('',#258);
#258 = CARTESIAN_POINT('',(-2.795941546018,-5.,5.75));
#259 = LINE('',#260,#261);
#260 = CARTESIAN_POINT('',(-14.2764853865,-5.,17.230543840486));
#261 = VECTOR('',#262,1.);
#262 = DIRECTION('',(-0.707106781187,-0.,0.707106781187));
#263 = ORIENTED_EDGE('',*,*,#264,.F.);
#264 = EDGE_CURVE('',#265,#257,#267,.T.);
#265 = VERTEX_POINT('',#266);
#266 = CARTESIAN_POINT('',(2.795941546018,-5.,5.75));
#267 = LINE('',#268,#269);
#268 = CARTESIAN_POINT('',(-7.647970773009,-5.,5.75));
#269 = VECTOR('',#270,1.);
#270 = DIRECTION('',(-1.,0.,-0.));
#271 = ORIENTED_EDGE('',*,*,#272,.F.);
#272 = EDGE_CURVE('',#273,#265,#275,.T.);
#273 = VERTEX_POINT('',#274);
#274 = CARTESIAN_POINT('',(6.75,-5.,9.704058453982));
#275 = LINE('',#276,#277);
#276 = CARTESIAN_POINT('',(6.049456159514,-5.,9.003514613495));
#277 = VECTOR('',#278,1.);
#278 = DIRECTION('',(-0.707106781187,0.,-0.707106781187));
#279 = ORIENTED_EDGE('',*,*,#280,.F.);
#280 = EDGE_CURVE('',#225,#273,#281,.T.);
#281 = LINE('',#282,#283);
#282 = CARTESIAN_POINT('',(6.75,-5.,21.882029226991));
#283 = VECTOR('',#284,1.);
#284 = DIRECTION('',(-0.,0.,-1.));
#285 = PLANE('',#286);
#286 = AXIS2_PLACEMENT_3D('',#287,#288,#289);
#287 = CARTESIAN_POINT('',(-12.5,-5.,34.06));
#288 = DIRECTION('',(-0.,1.,0.));
#289 = DIRECTION('',(0.,0.,-1.));
#290 = ADVANCED_FACE('',(#291),#314,.T.);
#291 = FACE_BOUND('',#292,.T.);
#292 = EDGE_LOOP('',(#293,#300,#301,#308));
#293 = ORIENTED_EDGE('',*,*,#294,.F.);
#294 = EDGE_CURVE('',#225,#295,#297,.T.);
#295 = VERTEX_POINT('',#296);
#296 = CARTESIAN_POINT('',(6.75,-6.,15.295941546018));
#297 = B_SPLINE_CURVE_WITH_KNOTS('',1,(#298,#299),.UNSPECIFIED.,.F.,.F.,
  (2,2),(0.,1.),.PIECEWISE_BEZIER_KNOTS.);
#298 = CARTESIAN_POINT('',(6.75,-4.,15.295941546018));
#299 = CARTESIAN_POINT('',(6.75,-6.,15.295941546018));
#300 = ORIENTED_EDGE('',*,*,#222,.F.);
#301 = ORIENTED_EDGE('',*,*,#302,.T.);
#302 = EDGE_CURVE('',#223,#303,#305,.T.);
#303 = VERTEX_POINT('',#304);
#304 = CARTESIAN_POINT('',(2.795941546018,-6.,19.25));
#305 = B_SPLINE_CURVE_WITH_KNOTS('',1,(#306,#307),.UNSPECIFIED.,.F.,.F.,
  (2,2),(0.,1.),.PIECEWISE_BEZIER_KNOTS.);
#306 = CARTESIAN_POINT('',(2.795941546018,-4.,19.25));
#307 = CARTESIAN_POINT('',(2.795941546018,-6.,19.25));
#308 = ORIENTED_EDGE('',*,*,#309,.F.);
#309 = EDGE_CURVE('',#295,#303,#310,.T.);
#310 = LINE('',#311,#312);
#311 = CARTESIAN_POINT('',(6.75,-6.,15.295941546018));
#312 = VECTOR('',#313,1.);
#313 = DIRECTION('',(-0.707106781187,0.,0.707106781187));
#314 = PLANE('',#315);
#315 = AXIS2_PLACEMENT_3D('',#316,#317,#318);
#316 = CARTESIAN_POINT('',(6.75,-6.,15.295941546018));
#317 = DIRECTION('',(0.707106781187,0.,0.707106781187));
#318 = DIRECTION('',(-0.707106781187,0.,0.707106781187));
#319 = ADVANCED_FACE('',(#320),#337,.T.);
#320 = FACE_BOUND('',#321,.T.);
#321 = EDGE_LOOP('',(#322,#329,#330,#331));
#322 = ORIENTED_EDGE('',*,*,#323,.F.);
#323 = EDGE_CURVE('',#273,#324,#326,.T.);
#324 = VERTEX_POINT('',#325);
#325 = CARTESIAN_POINT('',(6.75,-6.,9.704058453982));
#326 = B_SPLINE_CURVE_WITH_KNOTS('',1,(#327,#328),.UNSPECIFIED.,.F.,.F.,
  (2,2),(0.,1.),.PIECEWISE_BEZIER_KNOTS.);
#327 = CARTESIAN_POINT('',(6.75,-4.,9.704058453982));
#328 = CARTESIAN_POINT('',(6.75,-6.,9.704058453982));
#329 = ORIENTED_EDGE('',*,*,#280,.F.);
#330 = ORIENTED_EDGE('',*,*,#294,.T.);
#331 = ORIENTED_EDGE('',*,*,#332,.F.);
#332 = EDGE_CURVE('',#324,#295,#333,.T.);
#333 = LINE('',#334,#335);
#334 = CARTESIAN_POINT('',(6.75,-6.,9.704058453982));
#335 = VECTOR('',#336,1.);
#336 = DIRECTION('',(0.,0.,1.));
#337 = PLANE('',#338);
#338 = AXIS2_PLACEMENT_3D('',#339,#340,#341);
#339 = CARTESIAN_POINT('',(6.75,-6.,9.704058453982));
#340 = DIRECTION('',(1.,0.,-0.));
#341 = DIRECTION('',(0.,0.,1.));
#342 = ADVANCED_FACE('',(#343),#360,.T.);
#343 = FACE_BOUND('',#344,.T.);
#344 = EDGE_LOOP('',(#345,#352,#353,#354));
#345 = ORIENTED_EDGE('',*,*,#346,.F.);
#346 = EDGE_CURVE('',#265,#347,#349,.T.);
#347 = VERTEX_POINT('',#348);
#348 = CARTESIAN_POINT('',(2.795941546018,-6.,5.75));
#349 = B_SPLINE_CURVE_WITH_KNOTS('',1,(#350,#351),.UNSPECIFIED.,.F.,.F.,
  (2,2),(0.,1.),.PIECEWISE_BEZIER_KNOTS.);
#350 = CARTESIAN_POINT('',(2.795941546018,-4.,5.75));
#351 = CARTESIAN_POINT('',(2.795941546018,-6.,5.75));
#352 = ORIENTED_EDGE('',*,*,#272,.F.);
#353 = ORIENTED_EDGE('',*,*,#323,.T.);
#354 = ORIENTED_EDGE('',*,*,#355,.F.);
#355 = EDGE_CURVE('',#347,#324,#356,.T.);
#356 = LINE('',#357,#358);
#357 = CARTESIAN_POINT('',(2.795941546018,-6.,5.75));
#358 = VECTOR('',#359,1.);
#359 = DIRECTION('',(0.707106781187,0.,0.707106781187));
#360 = PLANE('',#361);
#361 = AXIS2_PLACEMENT_3D('',#362,#363,#364);
#362 = CARTESIAN_POINT('',(2.795941546018,-6.,5.75));
#363 = DIRECTION('',(0.707106781187,0.,-0.707106781187));
#364 = DIRECTION('',(0.707106781187,0.,0.707106781187));
#365 = ADVANCED_FACE('',(#366),#383,.T.);
#366 = FACE_BOUND('',#367,.T.);
#367 = EDGE_LOOP('',(#368,#375,#376,#377));
#368 = ORIENTED_EDGE('',*,*,#369,.F.);
#369 = EDGE_CURVE('',#257,#370,#372,.T.);
#370 = VERTEX_POINT('',#371);
#371 = CARTESIAN_POINT('',(-2.795941546018,-6.,5.75));
#372 = B_SPLINE_CURVE_WITH_KNOTS('',1,(#373,#374),.UNSPECIFIED.,.F.,.F.,
  (2,2),(0.,1.),.PIECEWISE_BEZIER_KNOTS.);
#373 = CARTESIAN_POINT('',(-2.795941546018,-4.,5.75));
#374 = CARTESIAN_POINT('',(-2.795941546018,-6.,5.75));
#375 = ORIENTED_EDGE('',*,*,#264,.F.);
#376 = ORIENTED_EDGE('',*,*,#346,.T.);
#377 = ORIENTED_EDGE('',*,*,#378,.F.);
#378 = EDGE_CURVE('',#370,#347,#379,.T.);
#379 = LINE('',#380,#381);
#380 = CARTESIAN_POINT('',(-2.795941546018,-6.,5.75));
#381 = VECTOR('',#382,1.);
#382 = DIRECTION('',(1.,0.,0.));
#383 = PLANE('',#384);
#384 = AXIS2_PLACEMENT_3D('',#385,#386,#387);
#385 = CARTESIAN_POINT('',(-2.795941546018,-6.,5.75));
#386 = DIRECTION('',(0.,0.,-1.));
#387 = DIRECTION('',(1.,0.,0.));
#388 = ADVANCED_FACE('',(#389),#406,.T.);
#389 = FACE_BOUND('',#390,.T.);
#390 = EDGE_LOOP('',(#391,#398,#399,#400));
#391 = ORIENTED_EDGE('',*,*,#392,.F.);
#392 = EDGE_CURVE('',#249,#393,#395,.T.);
#393 = VERTEX_POINT('',#394);
#394 = CARTESIAN_POINT('',(-6.75,-6.,9.704058453982));
#395 = B_SPLINE_CURVE_WITH_KNOTS('',1,(#396,#397),.UNSPECIFIED.,.F.,.F.,
  (2,2),(0.,1.),.PIECEWISE_BEZIER_KNOTS.);
#396 = CARTESIAN_POINT('',(-6.75,-4.,9.704058453982));
#397 = CARTESIAN_POINT('',(-6.75,-6.,9.704058453982));
#398 = ORIENTED_EDGE('',*,*,#256,.F.);
#399 = ORIENTED_EDGE('',*,*,#369,.T.);
#400 = ORIENTED_EDGE('',*,*,#401,.F.);
#401 = EDGE_CURVE('',#393,#370,#402,.T.);
#402 = LINE('',#403,#404);
#403 = CARTESIAN_POINT('',(-6.75,-6.,9.704058453982));
#404 = VECTOR('',#405,1.);
#405 = DIRECTION('',(0.707106781187,0.,-0.707106781187));
#406 = PLANE('',#407);
#407 = AXIS2_PLACEMENT_3D('',#408,#409,#410);
#408 = CARTESIAN_POINT('',(-6.75,-6.,9.704058453982));
#409 = DIRECTION('',(-0.707106781187,-0.,-0.707106781187));
#410 = DIRECTION('',(0.707106781187,0.,-0.707106781187));
#411 = ADVANCED_FACE('',(#412),#429,.T.);
#412 = FACE_BOUND('',#413,.T.);
#413 = EDGE_LOOP('',(#414,#421,#422,#423));
#414 = ORIENTED_EDGE('',*,*,#415,.F.);
#415 = EDGE_CURVE('',#241,#416,#418,.T.);
#416 = VERTEX_POINT('',#417);
#417 = CARTESIAN_POINT('',(-6.75,-6.,15.295941546018));
#418 = B_SPLINE_CURVE_WITH_KNOTS('',1,(#419,#420),.UNSPECIFIED.,.F.,.F.,
  (2,2),(0.,1.),.PIECEWISE_BEZIER_KNOTS.);
#419 = CARTESIAN_POINT('',(-6.75,-4.,15.295941546018));
#420 = CARTESIAN_POINT('',(-6.75,-6.,15.295941546018));
#421 = ORIENTED_EDGE('',*,*,#248,.F.);
#422 = ORIENTED_EDGE('',*,*,#392,.T.);
#423 = ORIENTED_EDGE('',*,*,#424,.F.);
#424 = EDGE_CURVE('',#416,#393,#425,.T.);
#425 = LINE('',#426,#427);
#426 = CARTESIAN_POINT('',(-6.75,-6.,15.295941546018));
#427 = VECTOR('',#428,1.);
#428 = DIRECTION('',(0.,0.,-1.));
#429 = PLANE('',#430);
#430 = AXIS2_PLACEMENT_3D('',#431,#432,#433);
#431 = CARTESIAN_POINT('',(-6.75,-6.,15.295941546018));
#432 = DIRECTION('',(-1.,-0.,-0.));
#433 = DIRECTION('',(0.,0.,-1.));
#434 = ADVANCED_FACE('',(#435),#452,.T.);
#435 = FACE_BOUND('',#436,.T.);
#436 = EDGE_LOOP('',(#437,#444,#445,#446));
#437 = ORIENTED_EDGE('',*,*,#438,.F.);
#438 = EDGE_CURVE('',#233,#439,#441,.T.);
#439 = VERTEX_POINT('',#440);
#440 = CARTESIAN_POINT('',(-2.795941546018,-6.,19.25));
#441 = B_SPLINE_CURVE_WITH_KNOTS('',1,(#442,#443),.UNSPECIFIED.,.F.,.F.,
  (2,2),(0.,1.),.PIECEWISE_BEZIER_KNOTS.);
#442 = CARTESIAN_POINT('',(-2.795941546018,-4.,19.25));
#443 = CARTESIAN_POINT('',(-2.795941546018,-6.,19.25));
#444 = ORIENTED_EDGE('',*,*,#240,.F.);
#445 = ORIENTED_EDGE('',*,*,#415,.T.);
#446 = ORIENTED_EDGE('',*,*,#447,.F.);
#447 = EDGE_CURVE('',#439,#416,#448,.T.);
#448 = LINE('',#449,#450);
#449 = CARTESIAN_POINT('',(-2.795941546018,-6.,19.25));
#450 = VECTOR('',#451,1.);
#451 = DIRECTION('',(-0.707106781187,0.,-0.707106781187));
#452 = PLANE('',#453);
#453 = AXIS2_PLACEMENT_3D('',#454,#455,#456);
#454 = CARTESIAN_POINT('',(-2.795941546018,-6.,19.25));
#455 = DIRECTION('',(-0.707106781187,0.,0.707106781187));
#456 = DIRECTION('',(-0.707106781187,0.,-0.707106781187));
#457 = ADVANCED_FACE('',(#458),#469,.T.);
#458 = FACE_BOUND('',#459,.T.);
#459 = EDGE_LOOP('',(#460,#461,#462,#463));
#460 = ORIENTED_EDGE('',*,*,#302,.F.);
#461 = ORIENTED_EDGE('',*,*,#232,.F.);
#462 = ORIENTED_EDGE('',*,*,#438,.T.);
#463 = ORIENTED_EDGE('',*,*,#464,.F.);
#464 = EDGE_CURVE('',#303,#439,#465,.T.);
#465 = LINE('',#466,#467);
#466 = CARTESIAN_POINT('',(2.795941546018,-6.,19.25));
#467 = VECTOR('',#468,1.);
#468 = DIRECTION('',(-1.,0.,0.));
#469 = PLANE('',#470);
#470 = AXIS2_PLACEMENT_3D('',#471,#472,#473);
#471 = CARTESIAN_POINT('',(2.795941546018,-6.,19.25));
#472 = DIRECTION('',(0.,0.,1.));
#473 = DIRECTION('',(-1.,0.,0.));
#474 = ADVANCED_FACE('',(#475),#498,.T.);
#475 = FACE_BOUND('',#476,.T.);
#476 = EDGE_LOOP('',(#477,#478,#485,#493));
#477 = ORIENTED_EDGE('',*,*,#309,.T.);
#478 = ORIENTED_EDGE('',*,*,#479,.T.);
#479 = EDGE_CURVE('',#303,#480,#482,.T.);
#480 = VERTEX_POINT('',#481);
#481 = CARTESIAN_POINT('',(2.737951647286,-12.9,19.11));
#482 = B_SPLINE_CURVE_WITH_KNOTS('',1,(#483,#484),.UNSPECIFIED.,.F.,.F.,
  (2,2),(0.,1.),.PIECEWISE_BEZIER_KNOTS.);
#483 = CARTESIAN_POINT('',(2.795941546018,-6.,19.25));
#484 = CARTESIAN_POINT('',(2.737951647286,-12.9,19.11));
#485 = ORIENTED_EDGE('',*,*,#486,.F.);
#486 = EDGE_CURVE('',#487,#480,#489,.T.);
#487 = VERTEX_POINT('',#488);
#488 = CARTESIAN_POINT('',(6.61,-12.9,15.237951647286));
#489 = LINE('',#490,#491);
#490 = CARTESIAN_POINT('',(6.61,-12.9,15.237951647286));
#491 = VECTOR('',#492,1.);
#492 = DIRECTION('',(-0.707106781187,0.,0.707106781187));
#493 = ORIENTED_EDGE('',*,*,#494,.F.);
#494 = EDGE_CURVE('',#295,#487,#495,.T.);
#495 = B_SPLINE_CURVE_WITH_KNOTS('',1,(#496,#497),.UNSPECIFIED.,.F.,.F.,
  (2,2),(0.,1.),.PIECEWISE_BEZIER_KNOTS.);
#496 = CARTESIAN_POINT('',(6.75,-6.,15.295941546018));
#497 = CARTESIAN_POINT('',(6.61,-12.9,15.237951647286));
#498 = B_SPLINE_SURFACE_WITH_KNOTS('',1,1,(
    (#499,#500)
    ,(#501,#502
    )),.UNSPECIFIED.,.F.,.F.,.F.,(2,2),(2,2),(0.,5.591883092037),(0.,1.)
  ,.PIECEWISE_BEZIER_KNOTS.);
#499 = CARTESIAN_POINT('',(6.75,-6.,15.295941546018));
#500 = CARTESIAN_POINT('',(6.61,-12.9,15.237951647286));
#501 = CARTESIAN_POINT('',(2.795941546018,-6.,19.25));
#502 = CARTESIAN_POINT('',(2.737951647286,-12.9,19.11));
#503 = ADVANCED_FACE('',(#504),#521,.T.);
#504 = FACE_BOUND('',#505,.T.);
#505 = EDGE_LOOP('',(#506,#507,#508,#516));
#506 = ORIENTED_EDGE('',*,*,#332,.T.);
#507 = ORIENTED_EDGE('',*,*,#494,.T.);
#508 = ORIENTED_EDGE('',*,*,#509,.F.);
#509 = EDGE_CURVE('',#510,#487,#512,.T.);
#510 = VERTEX_POINT('',#511);
#511 = CARTESIAN_POINT('',(6.61,-12.9,9.762048352714));
#512 = LINE('',#513,#514);
#513 = CARTESIAN_POINT('',(6.61,-12.9,9.762048352714));
#514 = VECTOR('',#515,1.);
#515 = DIRECTION('',(0.,0.,1.));
#516 = ORIENTED_EDGE('',*,*,#517,.F.);
#517 = EDGE_CURVE('',#324,#510,#518,.T.);
#518 = B_SPLINE_CURVE_WITH_KNOTS('',1,(#519,#520),.UNSPECIFIED.,.F.,.F.,
  (2,2),(0.,1.),.PIECEWISE_BEZIER_KNOTS.);
#519 = CARTESIAN_POINT('',(6.75,-6.,9.704058453982));
#520 = CARTESIAN_POINT('',(6.61,-12.9,9.762048352714));
#521 = B_SPLINE_SURFACE_WITH_KNOTS('',1,1,(
    (#522,#523)
    ,(#524,#525
    )),.UNSPECIFIED.,.F.,.F.,.F.,(2,2),(2,2),(0.,5.591883092037),(0.,1.)
  ,.PIECEWISE_BEZIER_KNOTS.);
#522 = CARTESIAN_POINT('',(6.75,-6.,9.704058453982));
#523 = CARTESIAN_POINT('',(6.61,-12.9,9.762048352714));
#524 = CARTESIAN_POINT('',(6.75,-6.,15.295941546018));
#525 = CARTESIAN_POINT('',(6.61,-12.9,15.237951647286));
#526 = ADVANCED_FACE('',(#527),#544,.T.);
#527 = FACE_BOUND('',#528,.T.);
#528 = EDGE_LOOP('',(#529,#530,#531,#539));
#529 = ORIENTED_EDGE('',*,*,#355,.T.);
#530 = ORIENTED_EDGE('',*,*,#517,.T.);
#531 = ORIENTED_EDGE('',*,*,#532,.F.);
#532 = EDGE_CURVE('',#533,#510,#535,.T.);
#533 = VERTEX_POINT('',#534);
#534 = CARTESIAN_POINT('',(2.737951647286,-12.9,5.89));
#535 = LINE('',#536,#537);
#536 = CARTESIAN_POINT('',(2.737951647286,-12.9,5.89));
#537 = VECTOR('',#538,1.);
#538 = DIRECTION('',(0.707106781187,0.,0.707106781187));
#539 = ORIENTED_EDGE('',*,*,#540,.F.);
#540 = EDGE_CURVE('',#347,#533,#541,.T.);
#541 = B_SPLINE_CURVE_WITH_KNOTS('',1,(#542,#543),.UNSPECIFIED.,.F.,.F.,
  (2,2),(0.,1.),.PIECEWISE_BEZIER_KNOTS.);
#542 = CARTESIAN_POINT('',(2.795941546018,-6.,5.75));
#543 = CARTESIAN_POINT('',(2.737951647286,-12.9,5.89));
#544 = B_SPLINE_SURFACE_WITH_KNOTS('',1,1,(
    (#545,#546)
    ,(#547,#548
    )),.UNSPECIFIED.,.F.,.F.,.F.,(2,2),(2,2),(0.,5.591883092037),(0.,1.)
  ,.PIECEWISE_BEZIER_KNOTS.);
#545 = CARTESIAN_POINT('',(2.795941546018,-6.,5.75));
#546 = CARTESIAN_POINT('',(2.737951647286,-12.9,5.89));
#547 = CARTESIAN_POINT('',(6.75,-6.,9.704058453982));
#548 = CARTESIAN_POINT('',(6.61,-12.9,9.762048352714));
#549 = ADVANCED_FACE('',(#550),#567,.T.);
#550 = FACE_BOUND('',#551,.T.);
#551 = EDGE_LOOP('',(#552,#553,#554,#562));
#552 = ORIENTED_EDGE('',*,*,#378,.T.);
#553 = ORIENTED_EDGE('',*,*,#540,.T.);
#554 = ORIENTED_EDGE('',*,*,#555,.F.);
#555 = EDGE_CURVE('',#556,#533,#558,.T.);
#556 = VERTEX_POINT('',#557);
#557 = CARTESIAN_POINT('',(-2.737951647286,-12.9,5.89));
#558 = LINE('',#559,#560);
#559 = CARTESIAN_POINT('',(-2.737951647286,-12.9,5.89));
#560 = VECTOR('',#561,1.);
#561 = DIRECTION('',(1.,0.,0.));
#562 = ORIENTED_EDGE('',*,*,#563,.F.);
#563 = EDGE_CURVE('',#370,#556,#564,.T.);
#564 = B_SPLINE_CURVE_WITH_KNOTS('',1,(#565,#566),.UNSPECIFIED.,.F.,.F.,
  (2,2),(0.,1.),.PIECEWISE_BEZIER_KNOTS.);
#565 = CARTESIAN_POINT('',(-2.795941546018,-6.,5.75));
#566 = CARTESIAN_POINT('',(-2.737951647286,-12.9,5.89));
#567 = B_SPLINE_SURFACE_WITH_KNOTS('',1,1,(
    (#568,#569)
    ,(#570,#571
    )),.UNSPECIFIED.,.F.,.F.,.F.,(2,2),(2,2),(0.,5.591883092037),(0.,1.)
  ,.PIECEWISE_BEZIER_KNOTS.);
#568 = CARTESIAN_POINT('',(-2.795941546018,-6.,5.75));
#569 = CARTESIAN_POINT('',(-2.737951647286,-12.9,5.89));
#570 = CARTESIAN_POINT('',(2.795941546018,-6.,5.75));
#571 = CARTESIAN_POINT('',(2.737951647286,-12.9,5.89));
#572 = ADVANCED_FACE('',(#573),#590,.T.);
#573 = FACE_BOUND('',#574,.T.);
#574 = EDGE_LOOP('',(#575,#576,#577,#585));
#575 = ORIENTED_EDGE('',*,*,#401,.T.);
#576 = ORIENTED_EDGE('',*,*,#563,.T.);
#577 = ORIENTED_EDGE('',*,*,#578,.F.);
#578 = EDGE_CURVE('',#579,#556,#581,.T.);
#579 = VERTEX_POINT('',#580);
#580 = CARTESIAN_POINT('',(-6.61,-12.9,9.762048352714));
#581 = LINE('',#582,#583);
#582 = CARTESIAN_POINT('',(-6.61,-12.9,9.762048352714));
#583 = VECTOR('',#584,1.);
#584 = DIRECTION('',(0.707106781187,0.,-0.707106781187));
#585 = ORIENTED_EDGE('',*,*,#586,.F.);
#586 = EDGE_CURVE('',#393,#579,#587,.T.);
#587 = B_SPLINE_CURVE_WITH_KNOTS('',1,(#588,#589),.UNSPECIFIED.,.F.,.F.,
  (2,2),(0.,1.),.PIECEWISE_BEZIER_KNOTS.);
#588 = CARTESIAN_POINT('',(-6.75,-6.,9.704058453982));
#589 = CARTESIAN_POINT('',(-6.61,-12.9,9.762048352714));
#590 = B_SPLINE_SURFACE_WITH_KNOTS('',1,1,(
    (#591,#592)
    ,(#593,#594
    )),.UNSPECIFIED.,.F.,.F.,.F.,(2,2),(2,2),(0.,5.591883092037),(0.,1.)
  ,.PIECEWISE_BEZIER_KNOTS.);
#591 = CARTESIAN_POINT('',(-6.75,-6.,9.704058453982));
#592 = CARTESIAN_POINT('',(-6.61,-12.9,9.762048352714));
#593 = CARTESIAN_POINT('',(-2.795941546018,-6.,5.75));
#594 = CARTESIAN_POINT('',(-2.737951647286,-12.9,5.89));
#595 = ADVANCED_FACE('',(#596),#613,.T.);
#596 = FACE_BOUND('',#597,.T.);
#597 = EDGE_LOOP('',(#598,#599,#600,#608));
#598 = ORIENTED_EDGE('',*,*,#424,.T.);
#599 = ORIENTED_EDGE('',*,*,#586,.T.);
#600 = ORIENTED_EDGE('',*,*,#601,.F.);
#601 = EDGE_CURVE('',#602,#579,#604,.T.);
#602 = VERTEX_POINT('',#603);
#603 = CARTESIAN_POINT('',(-6.61,-12.9,15.237951647286));
#604 = LINE('',#605,#606);
#605 = CARTESIAN_POINT('',(-6.61,-12.9,15.237951647286));
#606 = VECTOR('',#607,1.);
#607 = DIRECTION('',(0.,0.,-1.));
#608 = ORIENTED_EDGE('',*,*,#609,.F.);
#609 = EDGE_CURVE('',#416,#602,#610,.T.);
#610 = B_SPLINE_CURVE_WITH_KNOTS('',1,(#611,#612),.UNSPECIFIED.,.F.,.F.,
  (2,2),(0.,1.),.PIECEWISE_BEZIER_KNOTS.);
#611 = CARTESIAN_POINT('',(-6.75,-6.,15.295941546018));
#612 = CARTESIAN_POINT('',(-6.61,-12.9,15.237951647286));
#613 = B_SPLINE_SURFACE_WITH_KNOTS('',1,1,(
    (#614,#615)
    ,(#616,#617
    )),.UNSPECIFIED.,.F.,.F.,.F.,(2,2),(2,2),(0.,5.591883092037),(0.,1.)
  ,.PIECEWISE_BEZIER_KNOTS.);
#614 = CARTESIAN_POINT('',(-6.75,-6.,15.295941546018));
#615 = CARTESIAN_POINT('',(-6.61,-12.9,15.237951647286));
#616 = CARTESIAN_POINT('',(-6.75,-6.,9.704058453982));
#617 = CARTESIAN_POINT('',(-6.61,-12.9,9.762048352714));
#618 = ADVANCED_FACE('',(#619),#636,.T.);
#619 = FACE_BOUND('',#620,.T.);
#620 = EDGE_LOOP('',(#621,#622,#623,#631));
#621 = ORIENTED_EDGE('',*,*,#447,.T.);
#622 = ORIENTED_EDGE('',*,*,#609,.T.);
#623 = ORIENTED_EDGE('',*,*,#624,.F.);
#624 = EDGE_CURVE('',#625,#602,#627,.T.);
#625 = VERTEX_POINT('',#626);
#626 = CARTESIAN_POINT('',(-2.737951647286,-12.9,19.11));
#627 = LINE('',#628,#629);
#628 = CARTESIAN_POINT('',(-2.737951647286,-12.9,19.11));
#629 = VECTOR('',#630,1.);
#630 = DIRECTION('',(-0.707106781187,0.,-0.707106781187));
#631 = ORIENTED_EDGE('',*,*,#632,.F.);
#632 = EDGE_CURVE('',#439,#625,#633,.T.);
#633 = B_SPLINE_CURVE_WITH_KNOTS('',1,(#634,#635),.UNSPECIFIED.,.F.,.F.,
  (2,2),(0.,1.),.PIECEWISE_BEZIER_KNOTS.);
#634 = CARTESIAN_POINT('',(-2.795941546018,-6.,19.25));
#635 = CARTESIAN_POINT('',(-2.737951647286,-12.9,19.11));
#636 = B_SPLINE_SURFACE_WITH_KNOTS('',1,1,(
    (#637,#638)
    ,(#639,#640
    )),.UNSPECIFIED.,.F.,.F.,.F.,(2,2),(2,2),(0.,5.591883092037),(0.,1.)
  ,.PIECEWISE_BEZIER_KNOTS.);
#637 = CARTESIAN_POINT('',(-2.795941546018,-6.,19.25));
#638 = CARTESIAN_POINT('',(-2.737951647286,-12.9,19.11));
#639 = CARTESIAN_POINT('',(-6.75,-6.,15.295941546018));
#640 = CARTESIAN_POINT('',(-6.61,-12.9,15.237951647286));
#641 = ADVANCED_FACE('',(#642),#653,.T.);
#642 = FACE_BOUND('',#643,.T.);
#643 = EDGE_LOOP('',(#644,#645,#646,#652));
#644 = ORIENTED_EDGE('',*,*,#464,.T.);
#645 = ORIENTED_EDGE('',*,*,#632,.T.);
#646 = ORIENTED_EDGE('',*,*,#647,.F.);
#647 = EDGE_CURVE('',#480,#625,#648,.T.);
#648 = LINE('',#649,#650);
#649 = CARTESIAN_POINT('',(2.737951647286,-12.9,19.11));
#650 = VECTOR('',#651,1.);
#651 = DIRECTION('',(-1.,0.,0.));
#652 = ORIENTED_EDGE('',*,*,#479,.F.);
#653 = B_SPLINE_SURFACE_WITH_KNOTS('',1,1,(
    (#654,#655)
    ,(#656,#657
    )),.UNSPECIFIED.,.F.,.F.,.F.,(2,2),(2,2),(0.,5.591883092037),(0.,1.)
  ,.PIECEWISE_BEZIER_KNOTS.);
#654 = CARTESIAN_POINT('',(2.795941546018,-6.,19.25));
#655 = CARTESIAN_POINT('',(2.737951647286,-12.9,19.11));
#656 = CARTESIAN_POINT('',(-2.795941546018,-6.,19.25));
#657 = CARTESIAN_POINT('',(-2.737951647286,-12.9,19.11));
#658 = ADVANCED_FACE('',(#659),#682,.T.);
#659 = FACE_BOUND('',#660,.T.);
#660 = EDGE_LOOP('',(#661,#662,#669,#677));
#661 = ORIENTED_EDGE('',*,*,#486,.T.);
#662 = ORIENTED_EDGE('',*,*,#663,.T.);
#663 = EDGE_CURVE('',#480,#664,#666,.T.);
#664 = VERTEX_POINT('',#665);
#665 = CARTESIAN_POINT('',(2.526702730476,-13.4,18.6));
#666 = B_SPLINE_CURVE_WITH_KNOTS('',1,(#667,#668),.UNSPECIFIED.,.F.,.F.,
  (2,2),(0.,1.),.PIECEWISE_BEZIER_KNOTS.);
#667 = CARTESIAN_POINT('',(2.737951647286,-12.9,19.11));
#668 = CARTESIAN_POINT('',(2.526702730476,-13.4,18.6));
#669 = ORIENTED_EDGE('',*,*,#670,.F.);
#670 = EDGE_CURVE('',#671,#664,#673,.T.);
#671 = VERTEX_POINT('',#672);
#672 = CARTESIAN_POINT('',(6.1,-13.4,15.026702730476));
#673 = LINE('',#674,#675);
#674 = CARTESIAN_POINT('',(6.1,-13.4,15.026702730476));
#675 = VECTOR('',#676,1.);
#676 = DIRECTION('',(-0.707106781187,0.,0.707106781187));
#677 = ORIENTED_EDGE('',*,*,#678,.F.);
#678 = EDGE_CURVE('',#487,#671,#679,.T.);
#679 = B_SPLINE_CURVE_WITH_KNOTS('',1,(#680,#681),.UNSPECIFIED.,.F.,.F.,
  (2,2),(0.,1.),.PIECEWISE_BEZIER_KNOTS.);
#680 = CARTESIAN_POINT('',(6.61,-12.9,15.237951647286));
#681 = CARTESIAN_POINT('',(6.1,-13.4,15.026702730476));
#682 = B_SPLINE_SURFACE_WITH_KNOTS('',1,1,(
    (#683,#684)
    ,(#685,#686
    )),.UNSPECIFIED.,.F.,.F.,.F.,(2,2),(2,2),(0.,5.475903294572),(0.,1.)
  ,.PIECEWISE_BEZIER_KNOTS.);
#683 = CARTESIAN_POINT('',(6.61,-12.9,15.237951647286));
#684 = CARTESIAN_POINT('',(6.1,-13.4,15.026702730476));
#685 = CARTESIAN_POINT('',(2.737951647286,-12.9,19.11));
#686 = CARTESIAN_POINT('',(2.526702730476,-13.4,18.6));
#687 = ADVANCED_FACE('',(#688),#705,.T.);
#688 = FACE_BOUND('',#689,.T.);
#689 = EDGE_LOOP('',(#690,#691,#692,#700));
#690 = ORIENTED_EDGE('',*,*,#509,.T.);
#691 = ORIENTED_EDGE('',*,*,#678,.T.);
#692 = ORIENTED_EDGE('',*,*,#693,.F.);
#693 = EDGE_CURVE('',#694,#671,#696,.T.);
#694 = VERTEX_POINT('',#695);
#695 = CARTESIAN_POINT('',(6.1,-13.4,9.973297269524));
#696 = LINE('',#697,#698);
#697 = CARTESIAN_POINT('',(6.1,-13.4,9.973297269524));
#698 = VECTOR('',#699,1.);
#699 = DIRECTION('',(0.,0.,1.));
#700 = ORIENTED_EDGE('',*,*,#701,.F.);
#701 = EDGE_CURVE('',#510,#694,#702,.T.);
#702 = B_SPLINE_CURVE_WITH_KNOTS('',1,(#703,#704),.UNSPECIFIED.,.F.,.F.,
  (2,2),(0.,1.),.PIECEWISE_BEZIER_KNOTS.);
#703 = CARTESIAN_POINT('',(6.61,-12.9,9.762048352714));
#704 = CARTESIAN_POINT('',(6.1,-13.4,9.973297269524));
#705 = B_SPLINE_SURFACE_WITH_KNOTS('',1,1,(
    (#706,#707)
    ,(#708,#709
    )),.UNSPECIFIED.,.F.,.F.,.F.,(2,2),(2,2),(0.,5.475903294572),(0.,1.)
  ,.PIECEWISE_BEZIER_KNOTS.);
#706 = CARTESIAN_POINT('',(6.61,-12.9,9.762048352714));
#707 = CARTESIAN_POINT('',(6.1,-13.4,9.973297269524));
#708 = CARTESIAN_POINT('',(6.61,-12.9,15.237951647286));
#709 = CARTESIAN_POINT('',(6.1,-13.4,15.026702730476));
#710 = ADVANCED_FACE('',(#711),#728,.T.);
#711 = FACE_BOUND('',#712,.T.);
#712 = EDGE_LOOP('',(#713,#714,#715,#723));
#713 = ORIENTED_EDGE('',*,*,#532,.T.);
#714 = ORIENTED_EDGE('',*,*,#701,.T.);
#715 = ORIENTED_EDGE('',*,*,#716,.F.);
#716 = EDGE_CURVE('',#717,#694,#719,.T.);
#717 = VERTEX_POINT('',#718);
#718 = CARTESIAN_POINT('',(2.526702730476,-13.4,6.4));
#719 = LINE('',#720,#721);
#720 = CARTESIAN_POINT('',(2.526702730476,-13.4,6.4));
#721 = VECTOR('',#722,1.);
#722 = DIRECTION('',(0.707106781187,0.,0.707106781187));
#723 = ORIENTED_EDGE('',*,*,#724,.F.);
#724 = EDGE_CURVE('',#533,#717,#725,.T.);
#725 = B_SPLINE_CURVE_WITH_KNOTS('',1,(#726,#727),.UNSPECIFIED.,.F.,.F.,
  (2,2),(0.,1.),.PIECEWISE_BEZIER_KNOTS.);
#726 = CARTESIAN_POINT('',(2.737951647286,-12.9,5.89));
#727 = CARTESIAN_POINT('',(2.526702730476,-13.4,6.4));
#728 = B_SPLINE_SURFACE_WITH_KNOTS('',1,1,(
    (#729,#730)
    ,(#731,#732
    )),.UNSPECIFIED.,.F.,.F.,.F.,(2,2),(2,2),(0.,5.475903294572),(0.,1.)
  ,.PIECEWISE_BEZIER_KNOTS.);
#729 = CARTESIAN_POINT('',(2.737951647286,-12.9,5.89));
#730 = CARTESIAN_POINT('',(2.526702730476,-13.4,6.4));
#731 = CARTESIAN_POINT('',(6.61,-12.9,9.762048352714));
#732 = CARTESIAN_POINT('',(6.1,-13.4,9.973297269524));
#733 = ADVANCED_FACE('',(#734),#751,.T.);
#734 = FACE_BOUND('',#735,.T.);
#735 = EDGE_LOOP('',(#736,#737,#738,#746));
#736 = ORIENTED_EDGE('',*,*,#555,.T.);
#737 = ORIENTED_EDGE('',*,*,#724,.T.);
#738 = ORIENTED_EDGE('',*,*,#739,.F.);
#739 = EDGE_CURVE('',#740,#717,#742,.T.);
#740 = VERTEX_POINT('',#741);
#741 = CARTESIAN_POINT('',(-2.526702730476,-13.4,6.4));
#742 = LINE('',#743,#744);
#743 = CARTESIAN_POINT('',(-2.526702730476,-13.4,6.4));
#744 = VECTOR('',#745,1.);
#745 = DIRECTION('',(1.,0.,0.));
#746 = ORIENTED_EDGE('',*,*,#747,.F.);
#747 = EDGE_CURVE('',#556,#740,#748,.T.);
#748 = B_SPLINE_CURVE_WITH_KNOTS('',1,(#749,#750),.UNSPECIFIED.,.F.,.F.,
  (2,2),(0.,1.),.PIECEWISE_BEZIER_KNOTS.);
#749 = CARTESIAN_POINT('',(-2.737951647286,-12.9,5.89));
#750 = CARTESIAN_POINT('',(-2.526702730476,-13.4,6.4));
#751 = B_SPLINE_SURFACE_WITH_KNOTS('',1,1,(
    (#752,#753)
    ,(#754,#755
    )),.UNSPECIFIED.,.F.,.F.,.F.,(2,2),(2,2),(0.,5.475903294572),(0.,1.)
  ,.PIECEWISE_BEZIER_KNOTS.);
#752 = CARTESIAN_POINT('',(-2.737951647286,-12.9,5.89));
#753 = CARTESIAN_POINT('',(-2.526702730476,-13.4,6.4));
#754 = CARTESIAN_POINT('',(2.737951647286,-12.9,5.89));
#755 = CARTESIAN_POINT('',(2.526702730476,-13.4,6.4));
#756 = ADVANCED_FACE('',(#757),#774,.T.);
#757 = FACE_BOUND('',#758,.T.);
#758 = EDGE_LOOP('',(#759,#760,#761,#769));
#759 = ORIENTED_EDGE('',*,*,#578,.T.);
#760 = ORIENTED_EDGE('',*,*,#747,.T.);
#761 = ORIENTED_EDGE('',*,*,#762,.F.);
#762 = EDGE_CURVE('',#763,#740,#765,.T.);
#763 = VERTEX_POINT('',#764);
#764 = CARTESIAN_POINT('',(-6.1,-13.4,9.973297269524));
#765 = LINE('',#766,#767);
#766 = CARTESIAN_POINT('',(-6.1,-13.4,9.973297269524));
#767 = VECTOR('',#768,1.);
#768 = DIRECTION('',(0.707106781187,0.,-0.707106781187));
#769 = ORIENTED_EDGE('',*,*,#770,.F.);
#770 = EDGE_CURVE('',#579,#763,#771,.T.);
#771 = B_SPLINE_CURVE_WITH_KNOTS('',1,(#772,#773),.UNSPECIFIED.,.F.,.F.,
  (2,2),(0.,1.),.PIECEWISE_BEZIER_KNOTS.);
#772 = CARTESIAN_POINT('',(-6.61,-12.9,9.762048352714));
#773 = CARTESIAN_POINT('',(-6.1,-13.4,9.973297269524));
#774 = B_SPLINE_SURFACE_WITH_KNOTS('',1,1,(
    (#775,#776)
    ,(#777,#778
    )),.UNSPECIFIED.,.F.,.F.,.F.,(2,2),(2,2),(0.,5.475903294572),(0.,1.)
  ,.PIECEWISE_BEZIER_KNOTS.);
#775 = CARTESIAN_POINT('',(-6.61,-12.9,9.762048352714));
#776 = CARTESIAN_POINT('',(-6.1,-13.4,9.973297269524));
#777 = CARTESIAN_POINT('',(-2.737951647286,-12.9,5.89));
#778 = CARTESIAN_POINT('',(-2.526702730476,-13.4,6.4));
#779 = ADVANCED_FACE('',(#780),#797,.T.);
#780 = FACE_BOUND('',#781,.T.);
#781 = EDGE_LOOP('',(#782,#783,#784,#792));
#782 = ORIENTED_EDGE('',*,*,#601,.T.);
#783 = ORIENTED_EDGE('',*,*,#770,.T.);
#784 = ORIENTED_EDGE('',*,*,#785,.F.);
#785 = EDGE_CURVE('',#786,#763,#788,.T.);
#786 = VERTEX_POINT('',#787);
#787 = CARTESIAN_POINT('',(-6.1,-13.4,15.026702730476));
#788 = LINE('',#789,#790);
#789 = CARTESIAN_POINT('',(-6.1,-13.4,15.026702730476));
#790 = VECTOR('',#791,1.);
#791 = DIRECTION('',(0.,0.,-1.));
#792 = ORIENTED_EDGE('',*,*,#793,.F.);
#793 = EDGE_CURVE('',#602,#786,#794,.T.);
#794 = B_SPLINE_CURVE_WITH_KNOTS('',1,(#795,#796),.UNSPECIFIED.,.F.,.F.,
  (2,2),(0.,1.),.PIECEWISE_BEZIER_KNOTS.);
#795 = CARTESIAN_POINT('',(-6.61,-12.9,15.237951647286));
#796 = CARTESIAN_POINT('',(-6.1,-13.4,15.026702730476));
#797 = B_SPLINE_SURFACE_WITH_KNOTS('',1,1,(
    (#798,#799)
    ,(#800,#801
    )),.UNSPECIFIED.,.F.,.F.,.F.,(2,2),(2,2),(0.,5.475903294572),(0.,1.)
  ,.PIECEWISE_BEZIER_KNOTS.);
#798 = CARTESIAN_POINT('',(-6.61,-12.9,15.237951647286));
#799 = CARTESIAN_POINT('',(-6.1,-13.4,15.026702730476));
#800 = CARTESIAN_POINT('',(-6.61,-12.9,9.762048352714));
#801 = CARTESIAN_POINT('',(-6.1,-13.4,9.973297269524));
#802 = ADVANCED_FACE('',(#803),#820,.T.);
#803 = FACE_BOUND('',#804,.T.);
#804 = EDGE_LOOP('',(#805,#806,#807,#815));
#805 = ORIENTED_EDGE('',*,*,#624,.T.);
#806 = ORIENTED_EDGE('',*,*,#793,.T.);
#807 = ORIENTED_EDGE('',*,*,#808,.F.);
#808 = EDGE_CURVE('',#809,#786,#811,.T.);
#809 = VERTEX_POINT('',#810);
#810 = CARTESIAN_POINT('',(-2.526702730476,-13.4,18.6));
#811 = LINE('',#812,#813);
#812 = CARTESIAN_POINT('',(-2.526702730476,-13.4,18.6));
#813 = VECTOR('',#814,1.);
#814 = DIRECTION('',(-0.707106781187,0.,-0.707106781187));
#815 = ORIENTED_EDGE('',*,*,#816,.F.);
#816 = EDGE_CURVE('',#625,#809,#817,.T.);
#817 = B_SPLINE_CURVE_WITH_KNOTS('',1,(#818,#819),.UNSPECIFIED.,.F.,.F.,
  (2,2),(0.,1.),.PIECEWISE_BEZIER_KNOTS.);
#818 = CARTESIAN_POINT('',(-2.737951647286,-12.9,19.11));
#819 = CARTESIAN_POINT('',(-2.526702730476,-13.4,18.6));
#820 = B_SPLINE_SURFACE_WITH_KNOTS('',1,1,(
    (#821,#822)
    ,(#823,#824
    )),.UNSPECIFIED.,.F.,.F.,.F.,(2,2),(2,2),(0.,5.475903294572),(0.,1.)
  ,.PIECEWISE_BEZIER_KNOTS.);
#821 = CARTESIAN_POINT('',(-2.737951647286,-12.9,19.11));
#822 = CARTESIAN_POINT('',(-2.526702730476,-13.4,18.6));
#823 = CARTESIAN_POINT('',(-6.61,-12.9,15.237951647286));
#824 = CARTESIAN_POINT('',(-6.1,-13.4,15.026702730476));
#825 = ADVANCED_FACE('',(#826),#837,.T.);
#826 = FACE_BOUND('',#827,.T.);
#827 = EDGE_LOOP('',(#828,#829,#830,#836));
#828 = ORIENTED_EDGE('',*,*,#647,.T.);
#829 = ORIENTED_EDGE('',*,*,#816,.T.);
#830 = ORIENTED_EDGE('',*,*,#831,.F.);
#831 = EDGE_CURVE('',#664,#809,#832,.T.);
#832 = LINE('',#833,#834);
#833 = CARTESIAN_POINT('',(2.526702730476,-13.4,18.6));
#834 = VECTOR('',#835,1.);
#835 = DIRECTION('',(-1.,0.,0.));
#836 = ORIENTED_EDGE('',*,*,#663,.F.);
#837 = B_SPLINE_SURFACE_WITH_KNOTS('',1,1,(
    (#838,#839)
    ,(#840,#841
    )),.UNSPECIFIED.,.F.,.F.,.F.,(2,2),(2,2),(0.,5.475903294572),(0.,1.)
  ,.PIECEWISE_BEZIER_KNOTS.);
#838 = CARTESIAN_POINT('',(2.737951647286,-12.9,19.11));
#839 = CARTESIAN_POINT('',(2.526702730476,-13.4,18.6));
#840 = CARTESIAN_POINT('',(-2.737951647286,-12.9,19.11));
#841 = CARTESIAN_POINT('',(-2.526702730476,-13.4,18.6));
#842 = ADVANCED_FACE('',(#843),#853,.F.);
#843 = FACE_BOUND('',#844,.T.);
#844 = EDGE_LOOP('',(#845,#846,#847,#848,#849,#850,#851,#852));
#845 = ORIENTED_EDGE('',*,*,#670,.T.);
#846 = ORIENTED_EDGE('',*,*,#831,.T.);
#847 = ORIENTED_EDGE('',*,*,#808,.T.);
#848 = ORIENTED_EDGE('',*,*,#785,.T.);
#849 = ORIENTED_EDGE('',*,*,#762,.T.);
#850 = ORIENTED_EDGE('',*,*,#739,.T.);
#851 = ORIENTED_EDGE('',*,*,#716,.T.);
#852 = ORIENTED_EDGE('',*,*,#693,.T.);
#853 = PLANE('',#854);
#854 = AXIS2_PLACEMENT_3D('',#855,#856,#857);
#855 = CARTESIAN_POINT('',(6.1,-13.4,15.026702730476));
#856 = DIRECTION('',(0.,1.,0.));
#857 = DIRECTION('',(-0.923879532511,0.,-0.382683432365));
#858 = ( GEOMETRIC_REPRESENTATION_CONTEXT(3) 
GLOBAL_UNCERTAINTY_ASSIGNED_CONTEXT((#862)) GLOBAL_UNIT_ASSIGNED_CONTEXT
((#859,#860,#861)) REPRESENTATION_CONTEXT('Context #1',
  '3D Context with UNIT and UNCERTAINTY') );
#859 = ( LENGTH_UNIT() NAMED_UNIT(*) SI_UNIT(.MILLI.,.METRE.) );
#860 = ( NAMED_UNIT(*) PLANE_ANGLE_UNIT() SI_UNIT($,.RADIAN.) );
#861 = ( NAMED_UNIT(*) SI_UNIT($,.STERADIAN.) SOLID_ANGLE_UNIT() );
#862 = UNCERTAINTY_MEASURE_WITH_UNIT(LENGTH_MEASURE(1.E-07),#859,
  'distance_accuracy_value','confusion accuracy');
#863 = CONTEXT_DEPENDENT_SHAPE_REPRESENTATION(#864,#866);
#864 = ( REPRESENTATION_RELATIONSHIP('','',#40,#10) 
REPRESENTATION_RELATIONSHIP_WITH_TRANSFORMATION(#865) 
SHAPE_REPRESENTATION_RELATIONSHIP() );
#865 = ITEM_DEFINED_TRANSFORMATION('','',#11,#15);
#866 = PRODUCT_DEFINITION_SHAPE('Placement','Placement of an item',#867
  );
#867 = NEXT_ASSEMBLY_USAGE_OCCURRENCE('1','CouponRail','',#5,#35,$);
#868 = PRODUCT_RELATED_PRODUCT_CATEGORY('part',$,(#37));
#869 = SHAPE_DEFINITION_REPRESENTATION(#870,#876);
#870 = PRODUCT_DEFINITION_SHAPE('','',#871);
#871 = PRODUCT_DEFINITION('design','',#872,#875);
#872 = PRODUCT_DEFINITION_FORMATION('','',#873);
#873 = PRODUCT('CouponHook','CouponHook','',(#874));
#874 = PRODUCT_CONTEXT('',#2,'mechanical');
#875 = PRODUCT_DEFINITION_CONTEXT('part definition',#2,'design');
#876 = ADVANCED_BREP_SHAPE_REPRESENTATION('',(#11,#877),#1336);
#877 = MANIFOLD_SOLID_BREP('',#878);
#878 = CLOSED_SHELL('',(#879,#935,#966,#990,#1021,#1045,#1062,#1088,
    #1119,#1167,#1191,#1208,#1232,#1273,#1290,#1307,#1324));
#879 = ADVANCED_FACE('',(#880),#930,.F.);
#880 = FACE_BOUND('',#881,.F.);
#881 = EDGE_LOOP('',(#882,#892,#900,#908,#916,#924));
#882 = ORIENTED_EDGE('',*,*,#883,.F.);
#883 = EDGE_CURVE('',#884,#886,#888,.T.);
#884 = VERTEX_POINT('',#885);
#885 = CARTESIAN_POINT('',(0.,0.,33.));
#886 = VERTEX_POINT('',#887);
#887 = CARTESIAN_POINT('',(0.,0.,63.));
#888 = LINE('',#889,#890);
#889 = CARTESIAN_POINT('',(0.,0.,33.));
#890 = VECTOR('',#891,1.);
#891 = DIRECTION('',(0.,0.,1.));
#892 = ORIENTED_EDGE('',*,*,#893,.T.);
#893 = EDGE_CURVE('',#884,#894,#896,.T.);
#894 = VERTEX_POINT('',#895);
#895 = CARTESIAN_POINT('',(0.,2.4,33.));
#896 = LINE('',#897,#898);
#897 = CARTESIAN_POINT('',(0.,0.,33.));
#898 = VECTOR('',#899,1.);
#899 = DIRECTION('',(-0.,1.,0.));
#900 = ORIENTED_EDGE('',*,*,#901,.T.);
#901 = EDGE_CURVE('',#894,#902,#904,.T.);
#902 = VERTEX_POINT('',#903);
#903 = CARTESIAN_POINT('',(0.,2.4,70.));
#904 = LINE('',#905,#906);
#905 = CARTESIAN_POINT('',(0.,2.4,33.));
#906 = VECTOR('',#907,1.);
#907 = DIRECTION('',(0.,0.,1.));
#908 = ORIENTED_EDGE('',*,*,#909,.F.);
#909 = EDGE_CURVE('',#910,#902,#912,.T.);
#910 = VERTEX_POINT('',#911);
#911 = CARTESIAN_POINT('',(0.,1.,70.));
#912 = LINE('',#913,#914);
#913 = CARTESIAN_POINT('',(0.,0.,70.));
#914 = VECTOR('',#915,1.);
#915 = DIRECTION('',(-0.,1.,0.));
#916 = ORIENTED_EDGE('',*,*,#917,.F.);
#917 = EDGE_CURVE('',#918,#910,#920,.T.);
#918 = VERTEX_POINT('',#919);
#919 = CARTESIAN_POINT('',(0.,1.,63.));
#920 = LINE('',#921,#922);
#921 = CARTESIAN_POINT('',(0.,1.,63.));
#922 = VECTOR('',#923,1.);
#923 = DIRECTION('',(0.,0.,1.));
#924 = ORIENTED_EDGE('',*,*,#925,.F.);
#925 = EDGE_CURVE('',#886,#918,#926,.T.);
#926 = LINE('',#927,#928);
#927 = CARTESIAN_POINT('',(0.,0.,63.));
#928 = VECTOR('',#929,1.);
#929 = DIRECTION('',(0.,1.,0.));
#930 = PLANE('',#931);
#931 = AXIS2_PLACEMENT_3D('',#932,#933,#934);
#932 = CARTESIAN_POINT('',(0.,0.,33.));
#933 = DIRECTION('',(1.,0.,-0.));
#934 = DIRECTION('',(0.,0.,1.));
#935 = ADVANCED_FACE('',(#936),#961,.F.);
#936 = FACE_BOUND('',#937,.F.);
#937 = EDGE_LOOP('',(#938,#948,#954,#955));
#938 = ORIENTED_EDGE('',*,*,#939,.F.);
#939 = EDGE_CURVE('',#940,#942,#944,.T.);
#940 = VERTEX_POINT('',#941);
#941 = CARTESIAN_POINT('',(25.,0.,33.));
#942 = VERTEX_POINT('',#943);
#943 = CARTESIAN_POINT('',(25.,0.,63.));
#944 = LINE('',#945,#946);
#945 = CARTESIAN_POINT('',(25.,0.,33.));
#946 = VECTOR('',#947,1.);
#947 = DIRECTION('',(0.,0.,1.));
#948 = ORIENTED_EDGE('',*,*,#949,.F.);
#949 = EDGE_CURVE('',#884,#940,#950,.T.);
#950 = LINE('',#951,#952);
#951 = CARTESIAN_POINT('',(0.,0.,33.));
#952 = VECTOR('',#953,1.);
#953 = DIRECTION('',(1.,0.,-0.));
#954 = ORIENTED_EDGE('',*,*,#883,.T.);
#955 = ORIENTED_EDGE('',*,*,#956,.T.);
#956 = EDGE_CURVE('',#886,#942,#957,.T.);
#957 = LINE('',#958,#959);
#958 = CARTESIAN_POINT('',(0.,0.,63.));
#959 = VECTOR('',#960,1.);
#960 = DIRECTION('',(1.,0.,0.));
#961 = PLANE('',#962);
#962 = AXIS2_PLACEMENT_3D('',#963,#964,#965);
#963 = CARTESIAN_POINT('',(0.,0.,33.));
#964 = DIRECTION('',(-0.,1.,0.));
#965 = DIRECTION('',(0.,0.,1.));
#966 = ADVANCED_FACE('',(#967),#985,.F.);
#967 = FACE_BOUND('',#968,.F.);
#968 = EDGE_LOOP('',(#969,#977,#978,#979));
#969 = ORIENTED_EDGE('',*,*,#970,.F.);
#970 = EDGE_CURVE('',#886,#971,#973,.T.);
#971 = VERTEX_POINT('',#972);
#972 = CARTESIAN_POINT('',(0.,0.,70.));
#973 = LINE('',#974,#975);
#974 = CARTESIAN_POINT('',(0.,0.,33.));
#975 = VECTOR('',#976,1.);
#976 = DIRECTION('',(0.,0.,1.));
#977 = ORIENTED_EDGE('',*,*,#925,.T.);
#978 = ORIENTED_EDGE('',*,*,#917,.T.);
#979 = ORIENTED_EDGE('',*,*,#980,.F.);
#980 = EDGE_CURVE('',#971,#910,#981,.T.);
#981 = LINE('',#982,#983);
#982 = CARTESIAN_POINT('',(0.,0.,70.));
#983 = VECTOR('',#984,1.);
#984 = DIRECTION('',(-0.,1.,0.));
#985 = PLANE('',#986);
#986 = AXIS2_PLACEMENT_3D('',#987,#988,#989);
#987 = CARTESIAN_POINT('',(0.,0.,33.));
#988 = DIRECTION('',(1.,0.,-0.));
#989 = DIRECTION('',(0.,0.,1.));
#990 = ADVANCED_FACE('',(#991),#1016,.T.);
#991 = FACE_BOUND('',#992,.T.);
#992 = EDGE_LOOP('',(#993,#994,#1002,#1010));
#993 = ORIENTED_EDGE('',*,*,#909,.F.);
#994 = ORIENTED_EDGE('',*,*,#995,.T.);
#995 = EDGE_CURVE('',#910,#996,#998,.T.);
#996 = VERTEX_POINT('',#997);
#997 = CARTESIAN_POINT('',(25.,1.,70.));
#998 = LINE('',#999,#1000);
#999 = CARTESIAN_POINT('',(0.,1.,70.));
#1000 = VECTOR('',#1001,1.);
#1001 = DIRECTION('',(1.,0.,0.));
#1002 = ORIENTED_EDGE('',*,*,#1003,.T.);
#1003 = EDGE_CURVE('',#996,#1004,#1006,.T.);
#1004 = VERTEX_POINT('',#1005);
#1005 = CARTESIAN_POINT('',(25.,2.4,70.));
#1006 = LINE('',#1007,#1008);
#1007 = CARTESIAN_POINT('',(25.,0.,70.));
#1008 = VECTOR('',#1009,1.);
#1009 = DIRECTION('',(-0.,1.,0.));
#1010 = ORIENTED_EDGE('',*,*,#1011,.F.);
#1011 = EDGE_CURVE('',#902,#1004,#1012,.T.);
#1012 = LINE('',#1013,#1014);
#1013 = CARTESIAN_POINT('',(0.,2.4,70.));
#1014 = VECTOR('',#1015,1.);
#1015 = DIRECTION('',(1.,0.,-0.));
#1016 = PLANE('',#1017);
#1017 = AXIS2_PLACEMENT_3D('',#1018,#1019,#1020);
#1018 = CARTESIAN_POINT('',(0.,0.,70.));
#1019 = DIRECTION('',(0.,0.,1.));
#1020 = DIRECTION('',(1.,0.,-0.));
#1021 = ADVANCED_FACE('',(#1022),#1040,.T.);
#1022 = FACE_BOUND('',#1023,.T.);
#1023 = EDGE_LOOP('',(#1024,#1032,#1033,#1034));
#1024 = ORIENTED_EDGE('',*,*,#1025,.F.);
#1025 = EDGE_CURVE('',#894,#1026,#1028,.T.);
#1026 = VERTEX_POINT('',#1027);
#1027 = CARTESIAN_POINT('',(25.,2.4,33.));
#1028 = LINE('',#1029,#1030);
#1029 = CARTESIAN_POINT('',(0.,2.4,33.));
#1030 = VECTOR('',#1031,1.);
#1031 = DIRECTION('',(1.,0.,-0.));
#1032 = ORIENTED_EDGE('',*,*,#901,.T.);
#1033 = ORIENTED_EDGE('',*,*,#1011,.T.);
#1034 = ORIENTED_EDGE('',*,*,#1035,.F.);
#1035 = EDGE_CURVE('',#1026,#1004,#1036,.T.);
#1036 = LINE('',#1037,#1038);
#1037 = CARTESIAN_POINT('',(25.,2.4,33.));
#1038 = VECTOR('',#1039,1.);
#1039 = DIRECTION('',(0.,0.,1.));
#1040 = PLANE('',#1041);
#1041 = AXIS2_PLACEMENT_3D('',#1042,#1043,#1044);
#1042 = CARTESIAN_POINT('',(0.,2.4,33.));
#1043 = DIRECTION('',(-0.,1.,0.));
#1044 = DIRECTION('',(0.,0.,1.));
#1045 = ADVANCED_FACE('',(#1046),#1057,.F.);
#1046 = FACE_BOUND('',#1047,.F.);
#1047 = EDGE_LOOP('',(#1048,#1049,#1050,#1056));
#1048 = ORIENTED_EDGE('',*,*,#893,.F.);
#1049 = ORIENTED_EDGE('',*,*,#949,.T.);
#1050 = ORIENTED_EDGE('',*,*,#1051,.T.);
#1051 = EDGE_CURVE('',#940,#1026,#1052,.T.);
#1052 = LINE('',#1053,#1054);
#1053 = CARTESIAN_POINT('',(25.,0.,33.));
#1054 = VECTOR('',#1055,1.);
#1055 = DIRECTION('',(-0.,1.,0.));
#1056 = ORIENTED_EDGE('',*,*,#1025,.F.);
#1057 = PLANE('',#1058);
#1058 = AXIS2_PLACEMENT_3D('',#1059,#1060,#1061);
#1059 = CARTESIAN_POINT('',(0.,0.,33.));
#1060 = DIRECTION('',(0.,0.,1.));
#1061 = DIRECTION('',(1.,0.,-0.));
#1062 = ADVANCED_FACE('',(#1063),#1083,.T.);
#1063 = FACE_BOUND('',#1064,.T.);
#1064 = EDGE_LOOP('',(#1065,#1066,#1067,#1068,#1069,#1077));
#1065 = ORIENTED_EDGE('',*,*,#939,.F.);
#1066 = ORIENTED_EDGE('',*,*,#1051,.T.);
#1067 = ORIENTED_EDGE('',*,*,#1035,.T.);
#1068 = ORIENTED_EDGE('',*,*,#1003,.F.);
#1069 = ORIENTED_EDGE('',*,*,#1070,.F.);
#1070 = EDGE_CURVE('',#1071,#996,#1073,.T.);
#1071 = VERTEX_POINT('',#1072);
#1072 = CARTESIAN_POINT('',(25.,1.,63.));
#1073 = LINE('',#1074,#1075);
#1074 = CARTESIAN_POINT('',(25.,1.,63.));
#1075 = VECTOR('',#1076,1.);
#1076 = DIRECTION('',(0.,0.,1.));
#1077 = ORIENTED_EDGE('',*,*,#1078,.F.);
#1078 = EDGE_CURVE('',#942,#1071,#1079,.T.);
#1079 = LINE('',#1080,#1081);
#1080 = CARTESIAN_POINT('',(25.,0.,63.));
#1081 = VECTOR('',#1082,1.);
#1082 = DIRECTION('',(0.,1.,0.));
#1083 = PLANE('',#1084);
#1084 = AXIS2_PLACEMENT_3D('',#1085,#1086,#1087);
#1085 = CARTESIAN_POINT('',(25.,0.,33.));
#1086 = DIRECTION('',(1.,0.,-0.));
#1087 = DIRECTION('',(0.,0.,1.));
#1088 = ADVANCED_FACE('',(#1089),#1114,.F.);
#1089 = FACE_BOUND('',#1090,.F.);
#1090 = EDGE_LOOP('',(#1091,#1101,#1107,#1108));
#1091 = ORIENTED_EDGE('',*,*,#1092,.T.);
#1092 = EDGE_CURVE('',#1093,#1095,#1097,.T.);
#1093 = VERTEX_POINT('',#1094);
#1094 = CARTESIAN_POINT('',(0.,-0.914267891604,64.371401837406));
#1095 = VERTEX_POINT('',#1096);
#1096 = CARTESIAN_POINT('',(25.,-0.914267891604,64.371401837406));
#1097 = LINE('',#1098,#1099);
#1098 = CARTESIAN_POINT('',(0.,-0.914267891604,64.371401837406));
#1099 = VECTOR('',#1100,1.);
#1100 = DIRECTION('',(1.,0.,0.));
#1101 = ORIENTED_EDGE('',*,*,#1102,.T.);
#1102 = EDGE_CURVE('',#1095,#942,#1103,.T.);
#1103 = LINE('',#1104,#1105);
#1104 = CARTESIAN_POINT('',(25.,-0.914267891604,64.371401837406));
#1105 = VECTOR('',#1106,1.);
#1106 = DIRECTION('',(0.,0.554700196225,-0.832050294338));
#1107 = ORIENTED_EDGE('',*,*,#956,.F.);
#1108 = ORIENTED_EDGE('',*,*,#1109,.F.);
#1109 = EDGE_CURVE('',#1093,#886,#1110,.T.);
#1110 = LINE('',#1111,#1112);
#1111 = CARTESIAN_POINT('',(0.,-0.914267891604,64.371401837406));
#1112 = VECTOR('',#1113,1.);
#1113 = DIRECTION('',(0.,0.554700196225,-0.832050294338));
#1114 = PLANE('',#1115);
#1115 = AXIS2_PLACEMENT_3D('',#1116,#1117,#1118);
#1116 = CARTESIAN_POINT('',(0.,-0.914267891604,64.371401837406));
#1117 = DIRECTION('',(-0.,0.832050294338,0.554700196225));
#1118 = DIRECTION('',(0.,0.554700196225,-0.832050294338));
#1119 = ADVANCED_FACE('',(#1120),#1162,.F.);
#1120 = FACE_BOUND('',#1121,.F.);
#1121 = EDGE_LOOP('',(#1122,#1123,#1131,#1139,#1147,#1155,#1161));
#1122 = ORIENTED_EDGE('',*,*,#970,.T.);
#1123 = ORIENTED_EDGE('',*,*,#1124,.T.);
#1124 = EDGE_CURVE('',#971,#1125,#1127,.T.);
#1125 = VERTEX_POINT('',#1126);
#1126 = CARTESIAN_POINT('',(0.,-10.2,70.));
#1127 = LINE('',#1128,#1129);
#1128 = CARTESIAN_POINT('',(0.,1.,70.));
#1129 = VECTOR('',#1130,1.);
#1130 = DIRECTION('',(0.,-1.,0.));
#1131 = ORIENTED_EDGE('',*,*,#1132,.T.);
#1132 = EDGE_CURVE('',#1125,#1133,#1135,.T.);
#1133 = VERTEX_POINT('',#1134);
#1134 = CARTESIAN_POINT('',(0.,-10.2,45.));
#1135 = LINE('',#1136,#1137);
#1136 = CARTESIAN_POINT('',(0.,-10.2,70.));
#1137 = VECTOR('',#1138,1.);
#1138 = DIRECTION('',(0.,0.,-1.));
#1139 = ORIENTED_EDGE('',*,*,#1140,.T.);
#1140 = EDGE_CURVE('',#1133,#1141,#1143,.T.);
#1141 = VERTEX_POINT('',#1142);
#1142 = CARTESIAN_POINT('',(0.,-8.38,45.));
#1143 = LINE('',#1144,#1145);
#1144 = CARTESIAN_POINT('',(0.,-10.2,45.));
#1145 = VECTOR('',#1146,1.);
#1146 = DIRECTION('',(0.,1.,0.));
#1147 = ORIENTED_EDGE('',*,*,#1148,.T.);
#1148 = EDGE_CURVE('',#1141,#1149,#1151,.T.);
#1149 = VERTEX_POINT('',#1150);
#1150 = CARTESIAN_POINT('',(0.,-1.828535783208,63.));
#1151 = LINE('',#1152,#1153);
#1152 = CARTESIAN_POINT('',(0.,-8.38,45.));
#1153 = VECTOR('',#1154,1.);
#1154 = DIRECTION('',(0.,0.342020143326,0.939692620786));
#1155 = ORIENTED_EDGE('',*,*,#1156,.T.);
#1156 = EDGE_CURVE('',#1149,#1093,#1157,.T.);
#1157 = LINE('',#1158,#1159);
#1158 = CARTESIAN_POINT('',(0.,-1.828535783208,63.));
#1159 = VECTOR('',#1160,1.);
#1160 = DIRECTION('',(0.,0.554700196225,0.832050294338));
#1161 = ORIENTED_EDGE('',*,*,#1109,.T.);
#1162 = PLANE('',#1163);
#1163 = AXIS2_PLACEMENT_3D('',#1164,#1165,#1166);
#1164 = CARTESIAN_POINT('',(0.,-6.085948910919,59.531462828676));
#1165 = DIRECTION('',(1.,0.,0.));
#1166 = DIRECTION('',(-0.,0.,1.));
#1167 = ADVANCED_FACE('',(#1168),#1186,.T.);
#1168 = FACE_BOUND('',#1169,.T.);
#1169 = EDGE_LOOP('',(#1170,#1171,#1179,#1185));
#1170 = ORIENTED_EDGE('',*,*,#980,.F.);
#1171 = ORIENTED_EDGE('',*,*,#1172,.T.);
#1172 = EDGE_CURVE('',#971,#1173,#1175,.T.);
#1173 = VERTEX_POINT('',#1174);
#1174 = CARTESIAN_POINT('',(25.,0.,70.));
#1175 = LINE('',#1176,#1177);
#1176 = CARTESIAN_POINT('',(0.,0.,70.));
#1177 = VECTOR('',#1178,1.);
#1178 = DIRECTION('',(1.,0.,-0.));
#1179 = ORIENTED_EDGE('',*,*,#1180,.T.);
#1180 = EDGE_CURVE('',#1173,#996,#1181,.T.);
#1181 = LINE('',#1182,#1183);
#1182 = CARTESIAN_POINT('',(25.,0.,70.));
#1183 = VECTOR('',#1184,1.);
#1184 = DIRECTION('',(-0.,1.,0.));
#1185 = ORIENTED_EDGE('',*,*,#995,.F.);
#1186 = PLANE('',#1187);
#1187 = AXIS2_PLACEMENT_3D('',#1188,#1189,#1190);
#1188 = CARTESIAN_POINT('',(0.,0.,70.));
#1189 = DIRECTION('',(0.,0.,1.));
#1190 = DIRECTION('',(1.,0.,-0.));
#1191 = ADVANCED_FACE('',(#1192),#1203,.T.);
#1192 = FACE_BOUND('',#1193,.T.);
#1193 = EDGE_LOOP('',(#1194,#1200,#1201,#1202));
#1194 = ORIENTED_EDGE('',*,*,#1195,.F.);
#1195 = EDGE_CURVE('',#942,#1173,#1196,.T.);
#1196 = LINE('',#1197,#1198);
#1197 = CARTESIAN_POINT('',(25.,0.,33.));
#1198 = VECTOR('',#1199,1.);
#1199 = DIRECTION('',(0.,0.,1.));
#1200 = ORIENTED_EDGE('',*,*,#1078,.T.);
#1201 = ORIENTED_EDGE('',*,*,#1070,.T.);
#1202 = ORIENTED_EDGE('',*,*,#1180,.F.);
#1203 = PLANE('',#1204);
#1204 = AXIS2_PLACEMENT_3D('',#1205,#1206,#1207);
#1205 = CARTESIAN_POINT('',(25.,0.,33.));
#1206 = DIRECTION('',(1.,0.,-0.));
#1207 = DIRECTION('',(0.,0.,1.));
#1208 = ADVANCED_FACE('',(#1209),#1227,.F.);
#1209 = FACE_BOUND('',#1210,.F.);
#1210 = EDGE_LOOP('',(#1211,#1219,#1225,#1226));
#1211 = ORIENTED_EDGE('',*,*,#1212,.T.);
#1212 = EDGE_CURVE('',#1149,#1213,#1215,.T.);
#1213 = VERTEX_POINT('',#1214);
#1214 = CARTESIAN_POINT('',(25.,-1.828535783208,63.));
#1215 = LINE('',#1216,#1217);
#1216 = CARTESIAN_POINT('',(0.,-1.828535783208,63.));
#1217 = VECTOR('',#1218,1.);
#1218 = DIRECTION('',(1.,0.,0.));
#1219 = ORIENTED_EDGE('',*,*,#1220,.T.);
#1220 = EDGE_CURVE('',#1213,#1095,#1221,.T.);
#1221 = LINE('',#1222,#1223);
#1222 = CARTESIAN_POINT('',(25.,-1.828535783208,63.));
#1223 = VECTOR('',#1224,1.);
#1224 = DIRECTION('',(0.,0.554700196225,0.832050294338));
#1225 = ORIENTED_EDGE('',*,*,#1092,.F.);
#1226 = ORIENTED_EDGE('',*,*,#1156,.F.);
#1227 = PLANE('',#1228);
#1228 = AXIS2_PLACEMENT_3D('',#1229,#1230,#1231);
#1229 = CARTESIAN_POINT('',(0.,-1.828535783208,63.));
#1230 = DIRECTION('',(0.,-0.832050294338,0.554700196225));
#1231 = DIRECTION('',(0.,0.554700196225,0.832050294338));
#1232 = ADVANCED_FACE('',(#1233),#1268,.T.);
#1233 = FACE_BOUND('',#1234,.T.);
#1234 = EDGE_LOOP('',(#1235,#1236,#1244,#1252,#1260,#1266,#1267));
#1235 = ORIENTED_EDGE('',*,*,#1195,.T.);
#1236 = ORIENTED_EDGE('',*,*,#1237,.T.);
#1237 = EDGE_CURVE('',#1173,#1238,#1240,.T.);
#1238 = VERTEX_POINT('',#1239);
#1239 = CARTESIAN_POINT('',(25.,-10.2,70.));
#1240 = LINE('',#1241,#1242);
#1241 = CARTESIAN_POINT('',(25.,1.,70.));
#1242 = VECTOR('',#1243,1.);
#1243 = DIRECTION('',(0.,-1.,0.));
#1244 = ORIENTED_EDGE('',*,*,#1245,.T.);
#1245 = EDGE_CURVE('',#1238,#1246,#1248,.T.);
#1246 = VERTEX_POINT('',#1247);
#1247 = CARTESIAN_POINT('',(25.,-10.2,45.));
#1248 = LINE('',#1249,#1250);
#1249 = CARTESIAN_POINT('',(25.,-10.2,70.));
#1250 = VECTOR('',#1251,1.);
#1251 = DIRECTION('',(0.,0.,-1.));
#1252 = ORIENTED_EDGE('',*,*,#1253,.T.);
#1253 = EDGE_CURVE('',#1246,#1254,#1256,.T.);
#1254 = VERTEX_POINT('',#1255);
#1255 = CARTESIAN_POINT('',(25.,-8.38,45.));
#1256 = LINE('',#1257,#1258);
#1257 = CARTESIAN_POINT('',(25.,-10.2,45.));
#1258 = VECTOR('',#1259,1.);
#1259 = DIRECTION('',(0.,1.,0.));
#1260 = ORIENTED_EDGE('',*,*,#1261,.T.);
#1261 = EDGE_CURVE('',#1254,#1213,#1262,.T.);
#1262 = LINE('',#1263,#1264);
#1263 = CARTESIAN_POINT('',(25.,-8.38,45.));
#1264 = VECTOR('',#1265,1.);
#1265 = DIRECTION('',(0.,0.342020143326,0.939692620786));
#1266 = ORIENTED_EDGE('',*,*,#1220,.T.);
#1267 = ORIENTED_EDGE('',*,*,#1102,.T.);
#1268 = PLANE('',#1269);
#1269 = AXIS2_PLACEMENT_3D('',#1270,#1271,#1272);
#1270 = CARTESIAN_POINT('',(25.,-6.085948910919,59.531462828676));
#1271 = DIRECTION('',(1.,0.,0.));
#1272 = DIRECTION('',(-0.,0.,1.));
#1273 = ADVANCED_FACE('',(#1274),#1285,.F.);
#1274 = FACE_BOUND('',#1275,.F.);
#1275 = EDGE_LOOP('',(#1276,#1282,#1283,#1284));
#1276 = ORIENTED_EDGE('',*,*,#1277,.T.);
#1277 = EDGE_CURVE('',#1141,#1254,#1278,.T.);
#1278 = LINE('',#1279,#1280);
#1279 = CARTESIAN_POINT('',(0.,-8.38,45.));
#1280 = VECTOR('',#1281,1.);
#1281 = DIRECTION('',(1.,0.,0.));
#1282 = ORIENTED_EDGE('',*,*,#1261,.T.);
#1283 = ORIENTED_EDGE('',*,*,#1212,.F.);
#1284 = ORIENTED_EDGE('',*,*,#1148,.F.);
#1285 = PLANE('',#1286);
#1286 = AXIS2_PLACEMENT_3D('',#1287,#1288,#1289);
#1287 = CARTESIAN_POINT('',(0.,-8.38,45.));
#1288 = DIRECTION('',(0.,-0.939692620786,0.342020143326));
#1289 = DIRECTION('',(0.,0.342020143326,0.939692620786));
#1290 = ADVANCED_FACE('',(#1291),#1302,.F.);
#1291 = FACE_BOUND('',#1292,.F.);
#1292 = EDGE_LOOP('',(#1293,#1299,#1300,#1301));
#1293 = ORIENTED_EDGE('',*,*,#1294,.T.);
#1294 = EDGE_CURVE('',#1133,#1246,#1295,.T.);
#1295 = LINE('',#1296,#1297);
#1296 = CARTESIAN_POINT('',(0.,-10.2,45.));
#1297 = VECTOR('',#1298,1.);
#1298 = DIRECTION('',(1.,0.,0.));
#1299 = ORIENTED_EDGE('',*,*,#1253,.T.);
#1300 = ORIENTED_EDGE('',*,*,#1277,.F.);
#1301 = ORIENTED_EDGE('',*,*,#1140,.F.);
#1302 = PLANE('',#1303);
#1303 = AXIS2_PLACEMENT_3D('',#1304,#1305,#1306);
#1304 = CARTESIAN_POINT('',(0.,-10.2,45.));
#1305 = DIRECTION('',(0.,0.,1.));
#1306 = DIRECTION('',(0.,1.,0.));
#1307 = ADVANCED_FACE('',(#1308),#1319,.F.);
#1308 = FACE_BOUND('',#1309,.F.);
#1309 = EDGE_LOOP('',(#1310,#1316,#1317,#1318));
#1310 = ORIENTED_EDGE('',*,*,#1311,.T.);
#1311 = EDGE_CURVE('',#1125,#1238,#1312,.T.);
#1312 = LINE('',#1313,#1314);
#1313 = CARTESIAN_POINT('',(0.,-10.2,70.));
#1314 = VECTOR('',#1315,1.);
#1315 = DIRECTION('',(1.,0.,0.));
#1316 = ORIENTED_EDGE('',*,*,#1245,.T.);
#1317 = ORIENTED_EDGE('',*,*,#1294,.F.);
#1318 = ORIENTED_EDGE('',*,*,#1132,.F.);
#1319 = PLANE('',#1320);
#1320 = AXIS2_PLACEMENT_3D('',#1321,#1322,#1323);
#1321 = CARTESIAN_POINT('',(0.,-10.2,70.));
#1322 = DIRECTION('',(-0.,1.,0.));
#1323 = DIRECTION('',(0.,0.,-1.));
#1324 = ADVANCED_FACE('',(#1325),#1331,.F.);
#1325 = FACE_BOUND('',#1326,.F.);
#1326 = EDGE_LOOP('',(#1327,#1328,#1329,#1330));
#1327 = ORIENTED_EDGE('',*,*,#1124,.F.);
#1328 = ORIENTED_EDGE('',*,*,#1172,.T.);
#1329 = ORIENTED_EDGE('',*,*,#1237,.T.);
#1330 = ORIENTED_EDGE('',*,*,#1311,.F.);
#1331 = PLANE('',#1332);
#1332 = AXIS2_PLACEMENT_3D('',#1333,#1334,#1335);
#1333 = CARTESIAN_POINT('',(0.,1.,70.));
#1334 = DIRECTION('',(0.,0.,-1.));
#1335 = DIRECTION('',(0.,-1.,0.));
#1336 = ( GEOMETRIC_REPRESENTATION_CONTEXT(3) 
GLOBAL_UNCERTAINTY_ASSIGNED_CONTEXT((#1340)) 
GLOBAL_UNIT_ASSIGNED_CONTEXT((#1337,#1338,#1339)) REPRESENTATION_CONTEXT
('Context #1','3D Context with UNIT and UNCERTAINTY') );
#1337 = ( LENGTH_UNIT() NAMED_UNIT(*) SI_UNIT(.MILLI.,.METRE.) );
#1338 = ( NAMED_UNIT(*) PLANE_ANGLE_UNIT() SI_UNIT($,.RADIAN.) );
#1339 = ( NAMED_UNIT(*) SI_UNIT($,.STERADIAN.) SOLID_ANGLE_UNIT() );
#1340 = UNCERTAINTY_MEASURE_WITH_UNIT(LENGTH_MEASURE(1.E-07),#1337,
  'distance_accuracy_value','confusion accuracy');
#1341 = CONTEXT_DEPENDENT_SHAPE_REPRESENTATION(#1342,#1344);
#1342 = ( REPRESENTATION_RELATIONSHIP('','',#876,#10) 
REPRESENTATION_RELATIONSHIP_WITH_TRANSFORMATION(#1343) 
SHAPE_REPRESENTATION_RELATIONSHIP() );
#1343 = ITEM_DEFINED_TRANSFORMATION('','',#11,#19);
#1344 = PRODUCT_DEFINITION_SHAPE('Placement','Placement of an item',
  #1345);
#1345 = NEXT_ASSEMBLY_USAGE_OCCURRENCE('2','CouponHook','',#5,#871,$);
#1346 = PRODUCT_RELATED_PRODUCT_CATEGORY('part',$,(#873));
#1347 = SHAPE_DEFINITION_REPRESENTATION(#1348,#1354);
#1348 = PRODUCT_DEFINITION_SHAPE('','',#1349);
#1349 = PRODUCT_DEFINITION('design','',#1350,#1353);
#1350 = PRODUCT_DEFINITION_FORMATION('','',#1351);
#1351 = PRODUCT('CouponFrame','CouponFrame','',(#1352));
#1352 = PRODUCT_CONTEXT('',#2,'mechanical');
#1353 = PRODUCT_DEFINITION_CONTEXT('part definition',#2,'design');
#1354 = ADVANCED_BREP_SHAPE_REPRESENTATION('',(#11,#1355),#1641);
#1355 = MANIFOLD_SOLID_BREP('',#1356);
#1356 = CLOSED_SHELL('',(#1357,#1397,#1428,#1486,#1510,#1561,#1573,#1595
    ,#1612,#1629));
#1357 = ADVANCED_FACE('',(#1358),#1392,.F.);
#1358 = FACE_BOUND('',#1359,.F.);
#1359 = EDGE_LOOP('',(#1360,#1370,#1378,#1386));
#1360 = ORIENTED_EDGE('',*,*,#1361,.F.);
#1361 = EDGE_CURVE('',#1362,#1364,#1366,.T.);
#1362 = VERTEX_POINT('',#1363);
#1363 = CARTESIAN_POINT('',(0.,0.,0.));
#1364 = VERTEX_POINT('',#1365);
#1365 = CARTESIAN_POINT('',(0.,0.,10.));
#1366 = LINE('',#1367,#1368);
#1367 = CARTESIAN_POINT('',(0.,0.,0.));
#1368 = VECTOR('',#1369,1.);
#1369 = DIRECTION('',(0.,0.,1.));
#1370 = ORIENTED_EDGE('',*,*,#1371,.T.);
#1371 = EDGE_CURVE('',#1362,#1372,#1374,.T.);
#1372 = VERTEX_POINT('',#1373);
#1373 = CARTESIAN_POINT('',(0.,57.2,0.));
#1374 = LINE('',#1375,#1376);
#1375 = CARTESIAN_POINT('',(0.,0.,0.));
#1376 = VECTOR('',#1377,1.);
#1377 = DIRECTION('',(-0.,1.,0.));
#1378 = ORIENTED_EDGE('',*,*,#1379,.T.);
#1379 = EDGE_CURVE('',#1372,#1380,#1382,.T.);
#1380 = VERTEX_POINT('',#1381);
#1381 = CARTESIAN_POINT('',(0.,57.2,10.));
#1382 = LINE('',#1383,#1384);
#1383 = CARTESIAN_POINT('',(0.,57.2,0.));
#1384 = VECTOR('',#1385,1.);
#1385 = DIRECTION('',(0.,0.,1.));
#1386 = ORIENTED_EDGE('',*,*,#1387,.F.);
#1387 = EDGE_CURVE('',#1364,#1380,#1388,.T.);
#1388 = LINE('',#1389,#1390);
#1389 = CARTESIAN_POINT('',(0.,0.,10.));
#1390 = VECTOR('',#1391,1.);
#1391 = DIRECTION('',(-0.,1.,0.));
#1392 = PLANE('',#1393);
#1393 = AXIS2_PLACEMENT_3D('',#1394,#1395,#1396);
#1394 = CARTESIAN_POINT('',(0.,0.,0.));
#1395 = DIRECTION('',(1.,0.,-0.));
#1396 = DIRECTION('',(0.,0.,1.));
#1397 = ADVANCED_FACE('',(#1398),#1423,.F.);
#1398 = FACE_BOUND('',#1399,.F.);
#1399 = EDGE_LOOP('',(#1400,#1408,#1409,#1417));
#1400 = ORIENTED_EDGE('',*,*,#1401,.F.);
#1401 = EDGE_CURVE('',#1362,#1402,#1404,.T.);
#1402 = VERTEX_POINT('',#1403);
#1403 = CARTESIAN_POINT('',(95.2,0.,0.));
#1404 = LINE('',#1405,#1406);
#1405 = CARTESIAN_POINT('',(0.,0.,0.));
#1406 = VECTOR('',#1407,1.);
#1407 = DIRECTION('',(1.,0.,-0.));
#1408 = ORIENTED_EDGE('',*,*,#1361,.T.);
#1409 = ORIENTED_EDGE('',*,*,#1410,.T.);
#1410 = EDGE_CURVE('',#1364,#1411,#1413,.T.);
#1411 = VERTEX_POINT('',#1412);
#1412 = CARTESIAN_POINT('',(95.2,0.,10.));
#1413 = LINE('',#1414,#1415);
#1414 = CARTESIAN_POINT('',(0.,0.,10.));
#1415 = VECTOR('',#1416,1.);
#1416 = DIRECTION('',(1.,0.,-0.));
#1417 = ORIENTED_EDGE('',*,*,#1418,.F.);
#1418 = EDGE_CURVE('',#1402,#1411,#1419,.T.);
#1419 = LINE('',#1420,#1421);
#1420 = CARTESIAN_POINT('',(95.2,0.,0.));
#1421 = VECTOR('',#1422,1.);
#1422 = DIRECTION('',(0.,0.,1.));
#1423 = PLANE('',#1424);
#1424 = AXIS2_PLACEMENT_3D('',#1425,#1426,#1427);
#1425 = CARTESIAN_POINT('',(0.,0.,0.));
#1426 = DIRECTION('',(-0.,1.,0.));
#1427 = DIRECTION('',(0.,0.,1.));
#1428 = ADVANCED_FACE('',(#1429,#1447),#1481,.T.);
#1429 = FACE_BOUND('',#1430,.T.);
#1430 = EDGE_LOOP('',(#1431,#1432,#1433,#1441));
#1431 = ORIENTED_EDGE('',*,*,#1387,.F.);
#1432 = ORIENTED_EDGE('',*,*,#1410,.T.);
#1433 = ORIENTED_EDGE('',*,*,#1434,.T.);
#1434 = EDGE_CURVE('',#1411,#1435,#1437,.T.);
#1435 = VERTEX_POINT('',#1436);
#1436 = CARTESIAN_POINT('',(95.2,57.2,10.));
#1437 = LINE('',#1438,#1439);
#1438 = CARTESIAN_POINT('',(95.2,0.,10.));
#1439 = VECTOR('',#1440,1.);
#1440 = DIRECTION('',(-0.,1.,0.));
#1441 = ORIENTED_EDGE('',*,*,#1442,.F.);
#1442 = EDGE_CURVE('',#1380,#1435,#1443,.T.);
#1443 = LINE('',#1444,#1445);
#1444 = CARTESIAN_POINT('',(0.,57.2,10.));
#1445 = VECTOR('',#1446,1.);
#1446 = DIRECTION('',(1.,0.,-0.));
#1447 = FACE_BOUND('',#1448,.T.);
#1448 = EDGE_LOOP('',(#1449,#1459,#1467,#1475));
#1449 = ORIENTED_EDGE('',*,*,#1450,.T.);
#1450 = EDGE_CURVE('',#1451,#1453,#1455,.T.);
#1451 = VERTEX_POINT('',#1452);
#1452 = CARTESIAN_POINT('',(93.6,1.6,10.));
#1453 = VERTEX_POINT('',#1454);
#1454 = CARTESIAN_POINT('',(1.6,1.6,10.));
#1455 = LINE('',#1456,#1457);
#1456 = CARTESIAN_POINT('',(0.8,1.6,10.));
#1457 = VECTOR('',#1458,1.);
#1458 = DIRECTION('',(-1.,-0.,0.));
#1459 = ORIENTED_EDGE('',*,*,#1460,.T.);
#1460 = EDGE_CURVE('',#1453,#1461,#1463,.T.);
#1461 = VERTEX_POINT('',#1462);
#1462 = CARTESIAN_POINT('',(1.6,55.6,10.));
#1463 = LINE('',#1464,#1465);
#1464 = CARTESIAN_POINT('',(1.6,0.8,10.));
#1465 = VECTOR('',#1466,1.);
#1466 = DIRECTION('',(-0.,1.,0.));
#1467 = ORIENTED_EDGE('',*,*,#1468,.F.);
#1468 = EDGE_CURVE('',#1469,#1461,#1471,.T.);
#1469 = VERTEX_POINT('',#1470);
#1470 = CARTESIAN_POINT('',(93.6,55.6,10.));
#1471 = LINE('',#1472,#1473);
#1472 = CARTESIAN_POINT('',(0.8,55.6,10.));
#1473 = VECTOR('',#1474,1.);
#1474 = DIRECTION('',(-1.,-0.,0.));
#1475 = ORIENTED_EDGE('',*,*,#1476,.F.);
#1476 = EDGE_CURVE('',#1451,#1469,#1477,.T.);
#1477 = LINE('',#1478,#1479);
#1478 = CARTESIAN_POINT('',(93.6,0.8,10.));
#1479 = VECTOR('',#1480,1.);
#1480 = DIRECTION('',(-0.,1.,0.));
#1481 = PLANE('',#1482);
#1482 = AXIS2_PLACEMENT_3D('',#1483,#1484,#1485);
#1483 = CARTESIAN_POINT('',(0.,0.,10.));
#1484 = DIRECTION('',(0.,0.,1.));
#1485 = DIRECTION('',(1.,0.,-0.));
#1486 = ADVANCED_FACE('',(#1487),#1505,.T.);
#1487 = FACE_BOUND('',#1488,.T.);
#1488 = EDGE_LOOP('',(#1489,#1497,#1498,#1499));
#1489 = ORIENTED_EDGE('',*,*,#1490,.F.);
#1490 = EDGE_CURVE('',#1372,#1491,#1493,.T.);
#1491 = VERTEX_POINT('',#1492);
#1492 = CARTESIAN_POINT('',(95.2,57.2,0.));
#1493 = LINE('',#1494,#1495);
#1494 = CARTESIAN_POINT('',(0.,57.2,0.));
#1495 = VECTOR('',#1496,1.);
#1496 = DIRECTION('',(1.,0.,-0.));
#1497 = ORIENTED_EDGE('',*,*,#1379,.T.);
#1498 = ORIENTED_EDGE('',*,*,#1442,.T.);
#1499 = ORIENTED_EDGE('',*,*,#1500,.F.);
#1500 = EDGE_CURVE('',#1491,#1435,#1501,.T.);
#1501 = LINE('',#1502,#1503);
#1502 = CARTESIAN_POINT('',(95.2,57.2,0.));
#1503 = VECTOR('',#1504,1.);
#1504 = DIRECTION('',(0.,0.,1.));
#1505 = PLANE('',#1506);
#1506 = AXIS2_PLACEMENT_3D('',#1507,#1508,#1509);
#1507 = CARTESIAN_POINT('',(0.,57.2,0.));
#1508 = DIRECTION('',(-0.,1.,0.));
#1509 = DIRECTION('',(0.,0.,1.));
#1510 = ADVANCED_FACE('',(#1511,#1522),#1556,.F.);
#1511 = FACE_BOUND('',#1512,.F.);
#1512 = EDGE_LOOP('',(#1513,#1514,#1515,#1521));
#1513 = ORIENTED_EDGE('',*,*,#1371,.F.);
#1514 = ORIENTED_EDGE('',*,*,#1401,.T.);
#1515 = ORIENTED_EDGE('',*,*,#1516,.T.);
#1516 = EDGE_CURVE('',#1402,#1491,#1517,.T.);
#1517 = LINE('',#1518,#1519);
#1518 = CARTESIAN_POINT('',(95.2,0.,0.));
#1519 = VECTOR('',#1520,1.);
#1520 = DIRECTION('',(-0.,1.,0.));
#1521 = ORIENTED_EDGE('',*,*,#1490,.F.);
#1522 = FACE_BOUND('',#1523,.F.);
#1523 = EDGE_LOOP('',(#1524,#1534,#1542,#1550));
#1524 = ORIENTED_EDGE('',*,*,#1525,.T.);
#1525 = EDGE_CURVE('',#1526,#1528,#1530,.T.);
#1526 = VERTEX_POINT('',#1527);
#1527 = CARTESIAN_POINT('',(93.6,1.6,0.));
#1528 = VERTEX_POINT('',#1529);
#1529 = CARTESIAN_POINT('',(1.6,1.6,0.));
#1530 = LINE('',#1531,#1532);
#1531 = CARTESIAN_POINT('',(0.8,1.6,0.));
#1532 = VECTOR('',#1533,1.);
#1533 = DIRECTION('',(-1.,-0.,0.));
#1534 = ORIENTED_EDGE('',*,*,#1535,.T.);
#1535 = EDGE_CURVE('',#1528,#1536,#1538,.T.);
#1536 = VERTEX_POINT('',#1537);
#1537 = CARTESIAN_POINT('',(1.6,55.6,0.));
#1538 = LINE('',#1539,#1540);
#1539 = CARTESIAN_POINT('',(1.6,0.8,0.));
#1540 = VECTOR('',#1541,1.);
#1541 = DIRECTION('',(-0.,1.,0.));
#1542 = ORIENTED_EDGE('',*,*,#1543,.F.);
#1543 = EDGE_CURVE('',#1544,#1536,#1546,.T.);
#1544 = VERTEX_POINT('',#1545);
#1545 = CARTESIAN_POINT('',(93.6,55.6,0.));
#1546 = LINE('',#1547,#1548);
#1547 = CARTESIAN_POINT('',(0.8,55.6,0.));
#1548 = VECTOR('',#1549,1.);
#1549 = DIRECTION('',(-1.,-0.,0.));
#1550 = ORIENTED_EDGE('',*,*,#1551,.F.);
#1551 = EDGE_CURVE('',#1526,#1544,#1552,.T.);
#1552 = LINE('',#1553,#1554);
#1553 = CARTESIAN_POINT('',(93.6,0.8,0.));
#1554 = VECTOR('',#1555,1.);
#1555 = DIRECTION('',(-0.,1.,0.));
#1556 = PLANE('',#1557);
#1557 = AXIS2_PLACEMENT_3D('',#1558,#1559,#1560);
#1558 = CARTESIAN_POINT('',(0.,0.,0.));
#1559 = DIRECTION('',(0.,0.,1.));
#1560 = DIRECTION('',(1.,0.,-0.));
#1561 = ADVANCED_FACE('',(#1562),#1568,.T.);
#1562 = FACE_BOUND('',#1563,.T.);
#1563 = EDGE_LOOP('',(#1564,#1565,#1566,#1567));
#1564 = ORIENTED_EDGE('',*,*,#1418,.F.);
#1565 = ORIENTED_EDGE('',*,*,#1516,.T.);
#1566 = ORIENTED_EDGE('',*,*,#1500,.T.);
#1567 = ORIENTED_EDGE('',*,*,#1434,.F.);
#1568 = PLANE('',#1569);
#1569 = AXIS2_PLACEMENT_3D('',#1570,#1571,#1572);
#1570 = CARTESIAN_POINT('',(95.2,0.,0.));
#1571 = DIRECTION('',(1.,0.,-0.));
#1572 = DIRECTION('',(0.,0.,1.));
#1573 = ADVANCED_FACE('',(#1574),#1590,.T.);
#1574 = FACE_BOUND('',#1575,.T.);
#1575 = EDGE_LOOP('',(#1576,#1582,#1583,#1589));
#1576 = ORIENTED_EDGE('',*,*,#1577,.F.);
#1577 = EDGE_CURVE('',#1526,#1451,#1578,.T.);
#1578 = LINE('',#1579,#1580);
#1579 = CARTESIAN_POINT('',(93.6,1.6,-1.));
#1580 = VECTOR('',#1581,1.);
#1581 = DIRECTION('',(0.,0.,1.));
#1582 = ORIENTED_EDGE('',*,*,#1525,.T.);
#1583 = ORIENTED_EDGE('',*,*,#1584,.T.);
#1584 = EDGE_CURVE('',#1528,#1453,#1585,.T.);
#1585 = LINE('',#1586,#1587);
#1586 = CARTESIAN_POINT('',(1.6,1.6,-1.));
#1587 = VECTOR('',#1588,1.);
#1588 = DIRECTION('',(0.,0.,1.));
#1589 = ORIENTED_EDGE('',*,*,#1450,.F.);
#1590 = PLANE('',#1591);
#1591 = AXIS2_PLACEMENT_3D('',#1592,#1593,#1594);
#1592 = CARTESIAN_POINT('',(1.6,1.6,-1.));
#1593 = DIRECTION('',(-0.,1.,0.));
#1594 = DIRECTION('',(0.,0.,1.));
#1595 = ADVANCED_FACE('',(#1596),#1607,.F.);
#1596 = FACE_BOUND('',#1597,.F.);
#1597 = EDGE_LOOP('',(#1598,#1599,#1600,#1606));
#1598 = ORIENTED_EDGE('',*,*,#1577,.F.);
#1599 = ORIENTED_EDGE('',*,*,#1551,.T.);
#1600 = ORIENTED_EDGE('',*,*,#1601,.T.);
#1601 = EDGE_CURVE('',#1544,#1469,#1602,.T.);
#1602 = LINE('',#1603,#1604);
#1603 = CARTESIAN_POINT('',(93.6,55.6,-1.));
#1604 = VECTOR('',#1605,1.);
#1605 = DIRECTION('',(0.,0.,1.));
#1606 = ORIENTED_EDGE('',*,*,#1476,.F.);
#1607 = PLANE('',#1608);
#1608 = AXIS2_PLACEMENT_3D('',#1609,#1610,#1611);
#1609 = CARTESIAN_POINT('',(93.6,1.6,-1.));
#1610 = DIRECTION('',(1.,0.,-0.));
#1611 = DIRECTION('',(0.,0.,1.));
#1612 = ADVANCED_FACE('',(#1613),#1624,.F.);
#1613 = FACE_BOUND('',#1614,.F.);
#1614 = EDGE_LOOP('',(#1615,#1616,#1617,#1623));
#1615 = ORIENTED_EDGE('',*,*,#1601,.F.);
#1616 = ORIENTED_EDGE('',*,*,#1543,.T.);
#1617 = ORIENTED_EDGE('',*,*,#1618,.T.);
#1618 = EDGE_CURVE('',#1536,#1461,#1619,.T.);
#1619 = LINE('',#1620,#1621);
#1620 = CARTESIAN_POINT('',(1.6,55.6,-1.));
#1621 = VECTOR('',#1622,1.);
#1622 = DIRECTION('',(0.,0.,1.));
#1623 = ORIENTED_EDGE('',*,*,#1468,.F.);
#1624 = PLANE('',#1625);
#1625 = AXIS2_PLACEMENT_3D('',#1626,#1627,#1628);
#1626 = CARTESIAN_POINT('',(1.6,55.6,-1.));
#1627 = DIRECTION('',(-0.,1.,0.));
#1628 = DIRECTION('',(0.,0.,1.));
#1629 = ADVANCED_FACE('',(#1630),#1636,.T.);
#1630 = FACE_BOUND('',#1631,.T.);
#1631 = EDGE_LOOP('',(#1632,#1633,#1634,#1635));
#1632 = ORIENTED_EDGE('',*,*,#1584,.F.);
#1633 = ORIENTED_EDGE('',*,*,#1535,.T.);
#1634 = ORIENTED_EDGE('',*,*,#1618,.T.);
#1635 = ORIENTED_EDGE('',*,*,#1460,.F.);
#1636 = PLANE('',#1637);
#1637 = AXIS2_PLACEMENT_3D('',#1638,#1639,#1640);
#1638 = CARTESIAN_POINT('',(1.6,1.6,-1.));
#1639 = DIRECTION('',(1.,0.,-0.));
#1640 = DIRECTION('',(0.,0.,1.));
#1641 = ( GEOMETRIC_REPRESENTATION_CONTEXT(3) 
GLOBAL_UNCERTAINTY_ASSIGNED_CONTEXT((#1645)) 
GLOBAL_UNIT_ASSIGNED_CONTEXT((#1642,#1643,#1644)) REPRESENTATION_CONTEXT
('Context #1','3D Context with UNIT and UNCERTAINTY') );
#1642 = ( LENGTH_UNIT() NAMED_UNIT(*) SI_UNIT(.MILLI.,.METRE.) );
#1643 = ( NAMED_UNIT(*) PLANE_ANGLE_UNIT() SI_UNIT($,.RADIAN.) );
#1644 = ( NAMED_UNIT(*) SI_UNIT($,.STERADIAN.) SOLID_ANGLE_UNIT() );
#1645 = UNCERTAINTY_MEASURE_WITH_UNIT(LENGTH_MEASURE(1.E-07),#1642,
  'distance_accuracy_value','confusion accuracy');
#1646 = CONTEXT_DEPENDENT_SHAPE_REPRESENTATION(#1647,#1649);
#1647 = ( REPRESENTATION_RELATIONSHIP('','',#1354,#10) 
REPRESENTATION_RELATIONSHIP_WITH_TRANSFORMATION(#1648) 
SHAPE_REPRESENTATION_RELATIONSHIP() );
#1648 = ITEM_DEFINED_TRANSFORMATION('','',#11,#23);
#1649 = PRODUCT_DEFINITION_SHAPE('Placement','Placement of an item',
  #1650);
#1650 = NEXT_ASSEMBLY_USAGE_OCCURRENCE('3','CouponFrame','',#5,#1349,$);
#1651 = PRODUCT_RELATED_PRODUCT_CATEGORY('part',$,(#1351));
ENDSEC;
END-ISO-10303-21;
