ISO-10303-21;
HEADER;
FILE_DESCRIPTION(('FreeCAD Model'),'2;1');
FILE_NAME('Open CASCADE Shape Model','2026-09-27T12:54:19',('Author'),(
    ''),'Open CASCADE STEP processor 7.8','FreeCAD','Unknown');
FILE_SCHEMA(('AUTOMOTIVE_DESIGN { 1 0 10303 214 1 1 1 1 }'));
ENDSEC;
DATA;
#1 = APPLICATION_PROTOCOL_DEFINITION('international standard',
  'automotive_design',2000,#2);
#2 = APPLICATION_CONTEXT(
  'core data for automotive mechanical design processes');
#3 = SHAPE_DEFINITION_REPRESENTATION(#4,#10);
#4 = PRODUCT_DEFINITION_SHAPE('','',#5);
#5 = PRODUCT_DEFINITION('design','',#6,#9);
#6 = PRODUCT_DEFINITION_FORMATION('','',#7);
#7 = PRODUCT('Bin','Bin','',(#8));
#8 = PRODUCT_CONTEXT('',#2,'mechanical');
#9 = PRODUCT_DEFINITION_CONTEXT('part definition',#2,'design');
#10 = ADVANCED_BREP_SHAPE_REPRESENTATION('',(#11,#15),#702);
#11 = AXIS2_PLACEMENT_3D('',#12,#13,#14);
#12 = CARTESIAN_POINT('',(0.,0.,0.));
#13 = DIRECTION('',(0.,0.,1.));
#14 = DIRECTION('',(1.,0.,-0.));
#15 = MANIFOLD_SOLID_BREP('',#16);
#16 = CLOSED_SHELL('',(#17,#57,#88,#119,#168,#217,#248,#281,#305,#343,
    #360,#384,#401,#432,#473,#514,#545,#562,#593,#610,#627,#644,#661,
    #678,#690));
#17 = ADVANCED_FACE('',(#18),#52,.F.);
#18 = FACE_BOUND('',#19,.F.);
#19 = EDGE_LOOP('',(#20,#30,#38,#46));
#20 = ORIENTED_EDGE('',*,*,#21,.T.);
#21 = EDGE_CURVE('',#22,#24,#26,.T.);
#22 = VERTEX_POINT('',#23);
#23 = CARTESIAN_POINT('',(-94.6,0.,0.));
#24 = VERTEX_POINT('',#25);
#25 = CARTESIAN_POINT('',(94.6,0.,0.));
#26 = LINE('',#27,#28);
#27 = CARTESIAN_POINT('',(-94.6,0.,0.));
#28 = VECTOR('',#29,1.);
#29 = DIRECTION('',(1.,0.,0.));
#30 = ORIENTED_EDGE('',*,*,#31,.T.);
#31 = EDGE_CURVE('',#24,#32,#34,.T.);
#32 = VERTEX_POINT('',#33);
#33 = CARTESIAN_POINT('',(94.6,114.,0.));
#34 = LINE('',#35,#36);
#35 = CARTESIAN_POINT('',(94.6,0.,0.));
#36 = VECTOR('',#37,1.);
#37 = DIRECTION('',(0.,1.,0.));
#38 = ORIENTED_EDGE('',*,*,#39,.F.);
#39 = EDGE_CURVE('',#40,#32,#42,.T.);
#40 = VERTEX_POINT('',#41);
#41 = CARTESIAN_POINT('',(-94.6,114.,0.));
#42 = LINE('',#43,#44);
#43 = CARTESIAN_POINT('',(-94.6,114.,0.));
#44 = VECTOR('',#45,1.);
#45 = DIRECTION('',(1.,0.,0.));
#46 = ORIENTED_EDGE('',*,*,#47,.F.);
#47 = EDGE_CURVE('',#22,#40,#48,.T.);
#48 = LINE('',#49,#50);
#49 = CARTESIAN_POINT('',(-94.6,0.,0.));
#50 = VECTOR('',#51,1.);
#51 = DIRECTION('',(0.,1.,0.));
#52 = PLANE('',#53);
#53 = AXIS2_PLACEMENT_3D('',#54,#55,#56);
#54 = CARTESIAN_POINT('',(-94.6,0.,0.));
#55 = DIRECTION('',(0.,0.,1.));
#56 = DIRECTION('',(0.,1.,0.));
#57 = ADVANCED_FACE('',(#58),#83,.F.);
#58 = FACE_BOUND('',#59,.F.);
#59 = EDGE_LOOP('',(#60,#68,#76,#82));
#60 = ORIENTED_EDGE('',*,*,#61,.F.);
#61 = EDGE_CURVE('',#62,#22,#64,.T.);
#62 = VERTEX_POINT('',#63);
#63 = CARTESIAN_POINT('',(-94.6,0.,43.));
#64 = LINE('',#65,#66);
#65 = CARTESIAN_POINT('',(-94.6,0.,50.));
#66 = VECTOR('',#67,1.);
#67 = DIRECTION('',(0.,0.,-1.));
#68 = ORIENTED_EDGE('',*,*,#69,.T.);
#69 = EDGE_CURVE('',#62,#70,#72,.T.);
#70 = VERTEX_POINT('',#71);
#71 = CARTESIAN_POINT('',(94.6,0.,43.));
#72 = LINE('',#73,#74);
#73 = CARTESIAN_POINT('',(-94.6,0.,43.));
#74 = VECTOR('',#75,1.);
#75 = DIRECTION('',(1.,0.,0.));
#76 = ORIENTED_EDGE('',*,*,#77,.T.);
#77 = EDGE_CURVE('',#70,#24,#78,.T.);
#78 = LINE('',#79,#80);
#79 = CARTESIAN_POINT('',(94.6,0.,50.));
#80 = VECTOR('',#81,1.);
#81 = DIRECTION('',(0.,0.,-1.));
#82 = ORIENTED_EDGE('',*,*,#21,.F.);
#83 = PLANE('',#84);
#84 = AXIS2_PLACEMENT_3D('',#85,#86,#87);
#85 = CARTESIAN_POINT('',(-94.6,0.,50.));
#86 = DIRECTION('',(-0.,1.,0.));
#87 = DIRECTION('',(0.,0.,-1.));
#88 = ADVANCED_FACE('',(#89),#114,.F.);
#89 = FACE_BOUND('',#90,.F.);
#90 = EDGE_LOOP('',(#91,#92,#100,#108));
#91 = ORIENTED_EDGE('',*,*,#39,.T.);
#92 = ORIENTED_EDGE('',*,*,#93,.T.);
#93 = EDGE_CURVE('',#32,#94,#96,.T.);
#94 = VERTEX_POINT('',#95);
#95 = CARTESIAN_POINT('',(94.6,114.,30.));
#96 = LINE('',#97,#98);
#97 = CARTESIAN_POINT('',(94.6,114.,0.));
#98 = VECTOR('',#99,1.);
#99 = DIRECTION('',(0.,0.,1.));
#100 = ORIENTED_EDGE('',*,*,#101,.F.);
#101 = EDGE_CURVE('',#102,#94,#104,.T.);
#102 = VERTEX_POINT('',#103);
#103 = CARTESIAN_POINT('',(-94.6,114.,30.));
#104 = LINE('',#105,#106);
#105 = CARTESIAN_POINT('',(-94.6,114.,30.));
#106 = VECTOR('',#107,1.);
#107 = DIRECTION('',(1.,0.,0.));
#108 = ORIENTED_EDGE('',*,*,#109,.F.);
#109 = EDGE_CURVE('',#40,#102,#110,.T.);
#110 = LINE('',#111,#112);
#111 = CARTESIAN_POINT('',(-94.6,114.,0.));
#112 = VECTOR('',#113,1.);
#113 = DIRECTION('',(0.,0.,1.));
#114 = PLANE('',#115);
#115 = AXIS2_PLACEMENT_3D('',#116,#117,#118);
#116 = CARTESIAN_POINT('',(-94.6,114.,0.));
#117 = DIRECTION('',(0.,-1.,0.));
#118 = DIRECTION('',(0.,0.,1.));
#119 = ADVANCED_FACE('',(#120),#163,.F.);
#120 = FACE_BOUND('',#121,.F.);
#121 = EDGE_LOOP('',(#122,#123,#124,#125,#133,#141,#149,#157));
#122 = ORIENTED_EDGE('',*,*,#61,.T.);
#123 = ORIENTED_EDGE('',*,*,#47,.T.);
#124 = ORIENTED_EDGE('',*,*,#109,.T.);
#125 = ORIENTED_EDGE('',*,*,#126,.T.);
#126 = EDGE_CURVE('',#102,#127,#129,.T.);
#127 = VERTEX_POINT('',#128);
#128 = CARTESIAN_POINT('',(-94.6,112.4,30.));
#129 = LINE('',#130,#131);
#130 = CARTESIAN_POINT('',(-94.6,114.,30.));
#131 = VECTOR('',#132,1.);
#132 = DIRECTION('',(0.,-1.,0.));
#133 = ORIENTED_EDGE('',*,*,#134,.T.);
#134 = EDGE_CURVE('',#127,#135,#137,.T.);
#135 = VERTEX_POINT('',#136);
#136 = CARTESIAN_POINT('',(-94.6,2.4,50.));
#137 = LINE('',#138,#139);
#138 = CARTESIAN_POINT('',(-94.6,112.4,30.));
#139 = VECTOR('',#140,1.);
#140 = DIRECTION('',(0.,-0.9838699101,0.1788854382));
#141 = ORIENTED_EDGE('',*,*,#142,.T.);
#142 = EDGE_CURVE('',#135,#143,#145,.T.);
#143 = VERTEX_POINT('',#144);
#144 = CARTESIAN_POINT('',(-94.6,1.,50.));
#145 = LINE('',#146,#147);
#146 = CARTESIAN_POINT('',(-94.6,2.4,50.));
#147 = VECTOR('',#148,1.);
#148 = DIRECTION('',(0.,-1.,0.));
#149 = ORIENTED_EDGE('',*,*,#150,.F.);
#150 = EDGE_CURVE('',#151,#143,#153,.T.);
#151 = VERTEX_POINT('',#152);
#152 = CARTESIAN_POINT('',(-94.6,1.,43.));
#153 = LINE('',#154,#155);
#154 = CARTESIAN_POINT('',(-94.6,1.,43.));
#155 = VECTOR('',#156,1.);
#156 = DIRECTION('',(0.,0.,1.));
#157 = ORIENTED_EDGE('',*,*,#158,.F.);
#158 = EDGE_CURVE('',#62,#151,#159,.T.);
#159 = LINE('',#160,#161);
#160 = CARTESIAN_POINT('',(-94.6,0.,43.));
#161 = VECTOR('',#162,1.);
#162 = DIRECTION('',(0.,1.,0.));
#163 = PLANE('',#164);
#164 = AXIS2_PLACEMENT_3D('',#165,#166,#167);
#165 = CARTESIAN_POINT('',(-94.6,53.322575399149,20.465030332214));
#166 = DIRECTION('',(1.,0.,0.));
#167 = DIRECTION('',(-0.,0.,1.));
#168 = ADVANCED_FACE('',(#169),#212,.T.);
#169 = FACE_BOUND('',#170,.T.);
#170 = EDGE_LOOP('',(#171,#172,#173,#174,#182,#190,#198,#206));
#171 = ORIENTED_EDGE('',*,*,#77,.T.);
#172 = ORIENTED_EDGE('',*,*,#31,.T.);
#173 = ORIENTED_EDGE('',*,*,#93,.T.);
#174 = ORIENTED_EDGE('',*,*,#175,.T.);
#175 = EDGE_CURVE('',#94,#176,#178,.T.);
#176 = VERTEX_POINT('',#177);
#177 = CARTESIAN_POINT('',(94.6,112.4,30.));
#178 = LINE('',#179,#180);
#179 = CARTESIAN_POINT('',(94.6,114.,30.));
#180 = VECTOR('',#181,1.);
#181 = DIRECTION('',(0.,-1.,0.));
#182 = ORIENTED_EDGE('',*,*,#183,.T.);
#183 = EDGE_CURVE('',#176,#184,#186,.T.);
#184 = VERTEX_POINT('',#185);
#185 = CARTESIAN_POINT('',(94.6,2.4,50.));
#186 = LINE('',#187,#188);
#187 = CARTESIAN_POINT('',(94.6,112.4,30.));
#188 = VECTOR('',#189,1.);
#189 = DIRECTION('',(0.,-0.9838699101,0.1788854382));
#190 = ORIENTED_EDGE('',*,*,#191,.T.);
#191 = EDGE_CURVE('',#184,#192,#194,.T.);
#192 = VERTEX_POINT('',#193);
#193 = CARTESIAN_POINT('',(94.6,1.,50.));
#194 = LINE('',#195,#196);
#195 = CARTESIAN_POINT('',(94.6,2.4,50.));
#196 = VECTOR('',#197,1.);
#197 = DIRECTION('',(0.,-1.,0.));
#198 = ORIENTED_EDGE('',*,*,#199,.F.);
#199 = EDGE_CURVE('',#200,#192,#202,.T.);
#200 = VERTEX_POINT('',#201);
#201 = CARTESIAN_POINT('',(94.6,1.,43.));
#202 = LINE('',#203,#204);
#203 = CARTESIAN_POINT('',(94.6,1.,43.));
#204 = VECTOR('',#205,1.);
#205 = DIRECTION('',(0.,0.,1.));
#206 = ORIENTED_EDGE('',*,*,#207,.F.);
#207 = EDGE_CURVE('',#70,#200,#208,.T.);
#208 = LINE('',#209,#210);
#209 = CARTESIAN_POINT('',(94.6,0.,43.));
#210 = VECTOR('',#211,1.);
#211 = DIRECTION('',(0.,1.,0.));
#212 = PLANE('',#213);
#213 = AXIS2_PLACEMENT_3D('',#214,#215,#216);
#214 = CARTESIAN_POINT('',(94.6,53.322575399149,20.465030332214));
#215 = DIRECTION('',(1.,0.,0.));
#216 = DIRECTION('',(-0.,0.,1.));
#217 = ADVANCED_FACE('',(#218),#243,.F.);
#218 = FACE_BOUND('',#219,.F.);
#219 = EDGE_LOOP('',(#220,#230,#236,#237));
#220 = ORIENTED_EDGE('',*,*,#221,.T.);
#221 = EDGE_CURVE('',#222,#224,#226,.T.);
#222 = VERTEX_POINT('',#223);
#223 = CARTESIAN_POINT('',(-94.6,-0.914267891604,44.371401837406));
#224 = VERTEX_POINT('',#225);
#225 = CARTESIAN_POINT('',(94.6,-0.914267891604,44.371401837406));
#226 = LINE('',#227,#228);
#227 = CARTESIAN_POINT('',(-94.6,-0.914267891604,44.371401837406));
#228 = VECTOR('',#229,1.);
#229 = DIRECTION('',(1.,0.,0.));
#230 = ORIENTED_EDGE('',*,*,#231,.T.);
#231 = EDGE_CURVE('',#224,#70,#232,.T.);
#232 = LINE('',#233,#234);
#233 = CARTESIAN_POINT('',(94.6,-0.914267891604,44.371401837406));
#234 = VECTOR('',#235,1.);
#235 = DIRECTION('',(0.,0.554700196225,-0.832050294338));
#236 = ORIENTED_EDGE('',*,*,#69,.F.);
#237 = ORIENTED_EDGE('',*,*,#238,.F.);
#238 = EDGE_CURVE('',#222,#62,#239,.T.);
#239 = LINE('',#240,#241);
#240 = CARTESIAN_POINT('',(-94.6,-0.914267891604,44.371401837406));
#241 = VECTOR('',#242,1.);
#242 = DIRECTION('',(0.,0.554700196225,-0.832050294338));
#243 = PLANE('',#244);
#244 = AXIS2_PLACEMENT_3D('',#245,#246,#247);
#245 = CARTESIAN_POINT('',(-94.6,-0.914267891604,44.371401837406));
#246 = DIRECTION('',(-0.,0.832050294338,0.554700196225));
#247 = DIRECTION('',(0.,0.554700196225,-0.832050294338));
#248 = ADVANCED_FACE('',(#249),#276,.F.);
#249 = FACE_BOUND('',#250,.F.);
#250 = EDGE_LOOP('',(#251,#252,#253,#261,#269,#275));
#251 = ORIENTED_EDGE('',*,*,#101,.T.);
#252 = ORIENTED_EDGE('',*,*,#175,.T.);
#253 = ORIENTED_EDGE('',*,*,#254,.F.);
#254 = EDGE_CURVE('',#255,#176,#257,.T.);
#255 = VERTEX_POINT('',#256);
#256 = CARTESIAN_POINT('',(93.,112.4,30.));
#257 = LINE('',#258,#259);
#258 = CARTESIAN_POINT('',(-94.6,112.4,30.));
#259 = VECTOR('',#260,1.);
#260 = DIRECTION('',(1.,0.,0.));
#261 = ORIENTED_EDGE('',*,*,#262,.F.);
#262 = EDGE_CURVE('',#263,#255,#265,.T.);
#263 = VERTEX_POINT('',#264);
#264 = CARTESIAN_POINT('',(-93.,112.4,30.));
#265 = LINE('',#266,#267);
#266 = CARTESIAN_POINT('',(-94.6,112.4,30.));
#267 = VECTOR('',#268,1.);
#268 = DIRECTION('',(1.,0.,0.));
#269 = ORIENTED_EDGE('',*,*,#270,.F.);
#270 = EDGE_CURVE('',#127,#263,#271,.T.);
#271 = LINE('',#272,#273);
#272 = CARTESIAN_POINT('',(-94.6,112.4,30.));
#273 = VECTOR('',#274,1.);
#274 = DIRECTION('',(1.,0.,0.));
#275 = ORIENTED_EDGE('',*,*,#126,.F.);
#276 = PLANE('',#277);
#277 = AXIS2_PLACEMENT_3D('',#278,#279,#280);
#278 = CARTESIAN_POINT('',(-94.6,114.,30.));
#279 = DIRECTION('',(0.,0.,-1.));
#280 = DIRECTION('',(0.,-1.,0.));
#281 = ADVANCED_FACE('',(#282),#300,.F.);
#282 = FACE_BOUND('',#283,.F.);
#283 = EDGE_LOOP('',(#284,#292,#293,#294));
#284 = ORIENTED_EDGE('',*,*,#285,.T.);
#285 = EDGE_CURVE('',#286,#62,#288,.T.);
#286 = VERTEX_POINT('',#287);
#287 = CARTESIAN_POINT('',(-94.6,0.,50.));
#288 = LINE('',#289,#290);
#289 = CARTESIAN_POINT('',(-94.6,0.,50.));
#290 = VECTOR('',#291,1.);
#291 = DIRECTION('',(0.,0.,-1.));
#292 = ORIENTED_EDGE('',*,*,#158,.T.);
#293 = ORIENTED_EDGE('',*,*,#150,.T.);
#294 = ORIENTED_EDGE('',*,*,#295,.T.);
#295 = EDGE_CURVE('',#143,#286,#296,.T.);
#296 = LINE('',#297,#298);
#297 = CARTESIAN_POINT('',(-94.6,2.4,50.));
#298 = VECTOR('',#299,1.);
#299 = DIRECTION('',(0.,-1.,0.));
#300 = PLANE('',#301);
#301 = AXIS2_PLACEMENT_3D('',#302,#303,#304);
#302 = CARTESIAN_POINT('',(-94.6,53.322575399149,20.465030332214));
#303 = DIRECTION('',(1.,0.,0.));
#304 = DIRECTION('',(-0.,0.,1.));
#305 = ADVANCED_FACE('',(#306),#338,.F.);
#306 = FACE_BOUND('',#307,.F.);
#307 = EDGE_LOOP('',(#308,#309,#317,#325,#331,#332));
#308 = ORIENTED_EDGE('',*,*,#142,.F.);
#309 = ORIENTED_EDGE('',*,*,#310,.T.);
#310 = EDGE_CURVE('',#135,#311,#313,.T.);
#311 = VERTEX_POINT('',#312);
#312 = CARTESIAN_POINT('',(-93.,2.4,50.));
#313 = LINE('',#314,#315);
#314 = CARTESIAN_POINT('',(-94.6,2.4,50.));
#315 = VECTOR('',#316,1.);
#316 = DIRECTION('',(1.,0.,0.));
#317 = ORIENTED_EDGE('',*,*,#318,.T.);
#318 = EDGE_CURVE('',#311,#319,#321,.T.);
#319 = VERTEX_POINT('',#320);
#320 = CARTESIAN_POINT('',(93.,2.4,50.));
#321 = LINE('',#322,#323);
#322 = CARTESIAN_POINT('',(-94.6,2.4,50.));
#323 = VECTOR('',#324,1.);
#324 = DIRECTION('',(1.,0.,0.));
#325 = ORIENTED_EDGE('',*,*,#326,.T.);
#326 = EDGE_CURVE('',#319,#184,#327,.T.);
#327 = LINE('',#328,#329);
#328 = CARTESIAN_POINT('',(-94.6,2.4,50.));
#329 = VECTOR('',#330,1.);
#330 = DIRECTION('',(1.,0.,0.));
#331 = ORIENTED_EDGE('',*,*,#191,.T.);
#332 = ORIENTED_EDGE('',*,*,#333,.F.);
#333 = EDGE_CURVE('',#143,#192,#334,.T.);
#334 = LINE('',#335,#336);
#335 = CARTESIAN_POINT('',(-94.6,1.,50.));
#336 = VECTOR('',#337,1.);
#337 = DIRECTION('',(1.,0.,0.));
#338 = PLANE('',#339);
#339 = AXIS2_PLACEMENT_3D('',#340,#341,#342);
#340 = CARTESIAN_POINT('',(-94.6,2.4,50.));
#341 = DIRECTION('',(0.,0.,-1.));
#342 = DIRECTION('',(0.,-1.,0.));
#343 = ADVANCED_FACE('',(#344),#355,.F.);
#344 = FACE_BOUND('',#345,.F.);
#345 = EDGE_LOOP('',(#346,#347,#348,#354));
#346 = ORIENTED_EDGE('',*,*,#134,.F.);
#347 = ORIENTED_EDGE('',*,*,#270,.T.);
#348 = ORIENTED_EDGE('',*,*,#349,.T.);
#349 = EDGE_CURVE('',#263,#311,#350,.T.);
#350 = LINE('',#351,#352);
#351 = CARTESIAN_POINT('',(-93.,61.624,39.232));
#352 = VECTOR('',#353,1.);
#353 = DIRECTION('',(0.,-0.9838699101,0.1788854382));
#354 = ORIENTED_EDGE('',*,*,#310,.F.);
#355 = PLANE('',#356);
#356 = AXIS2_PLACEMENT_3D('',#357,#358,#359);
#357 = CARTESIAN_POINT('',(-94.6,112.4,30.));
#358 = DIRECTION('',(0.,-0.1788854382,-0.9838699101));
#359 = DIRECTION('',(0.,-0.9838699101,0.1788854382));
#360 = ADVANCED_FACE('',(#361),#379,.T.);
#361 = FACE_BOUND('',#362,.T.);
#362 = EDGE_LOOP('',(#363,#371,#372,#373));
#363 = ORIENTED_EDGE('',*,*,#364,.T.);
#364 = EDGE_CURVE('',#365,#70,#367,.T.);
#365 = VERTEX_POINT('',#366);
#366 = CARTESIAN_POINT('',(94.6,0.,50.));
#367 = LINE('',#368,#369);
#368 = CARTESIAN_POINT('',(94.6,0.,50.));
#369 = VECTOR('',#370,1.);
#370 = DIRECTION('',(0.,0.,-1.));
#371 = ORIENTED_EDGE('',*,*,#207,.T.);
#372 = ORIENTED_EDGE('',*,*,#199,.T.);
#373 = ORIENTED_EDGE('',*,*,#374,.T.);
#374 = EDGE_CURVE('',#192,#365,#375,.T.);
#375 = LINE('',#376,#377);
#376 = CARTESIAN_POINT('',(94.6,2.4,50.));
#377 = VECTOR('',#378,1.);
#378 = DIRECTION('',(0.,-1.,0.));
#379 = PLANE('',#380);
#380 = AXIS2_PLACEMENT_3D('',#381,#382,#383);
#381 = CARTESIAN_POINT('',(94.6,53.322575399149,20.465030332214));
#382 = DIRECTION('',(1.,0.,0.));
#383 = DIRECTION('',(-0.,0.,1.));
#384 = ADVANCED_FACE('',(#385),#396,.F.);
#385 = FACE_BOUND('',#386,.F.);
#386 = EDGE_LOOP('',(#387,#393,#394,#395));
#387 = ORIENTED_EDGE('',*,*,#388,.F.);
#388 = EDGE_CURVE('',#255,#319,#389,.T.);
#389 = LINE('',#390,#391);
#390 = CARTESIAN_POINT('',(93.,61.624,39.232));
#391 = VECTOR('',#392,1.);
#392 = DIRECTION('',(0.,-0.9838699101,0.1788854382));
#393 = ORIENTED_EDGE('',*,*,#254,.T.);
#394 = ORIENTED_EDGE('',*,*,#183,.T.);
#395 = ORIENTED_EDGE('',*,*,#326,.F.);
#396 = PLANE('',#397);
#397 = AXIS2_PLACEMENT_3D('',#398,#399,#400);
#398 = CARTESIAN_POINT('',(-94.6,112.4,30.));
#399 = DIRECTION('',(0.,-0.1788854382,-0.9838699101));
#400 = DIRECTION('',(0.,-0.9838699101,0.1788854382));
#401 = ADVANCED_FACE('',(#402),#427,.F.);
#402 = FACE_BOUND('',#403,.F.);
#403 = EDGE_LOOP('',(#404,#414,#420,#421));
#404 = ORIENTED_EDGE('',*,*,#405,.T.);
#405 = EDGE_CURVE('',#406,#408,#410,.T.);
#406 = VERTEX_POINT('',#407);
#407 = CARTESIAN_POINT('',(-94.6,-1.828535783208,43.));
#408 = VERTEX_POINT('',#409);
#409 = CARTESIAN_POINT('',(94.6,-1.828535783208,43.));
#410 = LINE('',#411,#412);
#411 = CARTESIAN_POINT('',(-94.6,-1.828535783208,43.));
#412 = VECTOR('',#413,1.);
#413 = DIRECTION('',(1.,0.,0.));
#414 = ORIENTED_EDGE('',*,*,#415,.T.);
#415 = EDGE_CURVE('',#408,#224,#416,.T.);
#416 = LINE('',#417,#418);
#417 = CARTESIAN_POINT('',(94.6,-1.828535783208,43.));
#418 = VECTOR('',#419,1.);
#419 = DIRECTION('',(0.,0.554700196225,0.832050294338));
#420 = ORIENTED_EDGE('',*,*,#221,.F.);
#421 = ORIENTED_EDGE('',*,*,#422,.F.);
#422 = EDGE_CURVE('',#406,#222,#423,.T.);
#423 = LINE('',#424,#425);
#424 = CARTESIAN_POINT('',(-94.6,-1.828535783208,43.));
#425 = VECTOR('',#426,1.);
#426 = DIRECTION('',(0.,0.554700196225,0.832050294338));
#427 = PLANE('',#428);
#428 = AXIS2_PLACEMENT_3D('',#429,#430,#431);
#429 = CARTESIAN_POINT('',(-94.6,-1.828535783208,43.));
#430 = DIRECTION('',(0.,-0.832050294338,0.554700196225));
#431 = DIRECTION('',(0.,0.554700196225,0.832050294338));
#432 = ADVANCED_FACE('',(#433),#468,.F.);
#433 = FACE_BOUND('',#434,.F.);
#434 = EDGE_LOOP('',(#435,#436,#444,#452,#460,#466,#467));
#435 = ORIENTED_EDGE('',*,*,#285,.F.);
#436 = ORIENTED_EDGE('',*,*,#437,.T.);
#437 = EDGE_CURVE('',#286,#438,#440,.T.);
#438 = VERTEX_POINT('',#439);
#439 = CARTESIAN_POINT('',(-94.6,-10.2,50.));
#440 = LINE('',#441,#442);
#441 = CARTESIAN_POINT('',(-94.6,1.,50.));
#442 = VECTOR('',#443,1.);
#443 = DIRECTION('',(0.,-1.,0.));
#444 = ORIENTED_EDGE('',*,*,#445,.T.);
#445 = EDGE_CURVE('',#438,#446,#448,.T.);
#446 = VERTEX_POINT('',#447);
#447 = CARTESIAN_POINT('',(-94.6,-10.2,25.));
#448 = LINE('',#449,#450);
#449 = CARTESIAN_POINT('',(-94.6,-10.2,50.));
#450 = VECTOR('',#451,1.);
#451 = DIRECTION('',(0.,0.,-1.));
#452 = ORIENTED_EDGE('',*,*,#453,.T.);
#453 = EDGE_CURVE('',#446,#454,#456,.T.);
#454 = VERTEX_POINT('',#455);
#455 = CARTESIAN_POINT('',(-94.6,-8.38,25.));
#456 = LINE('',#457,#458);
#457 = CARTESIAN_POINT('',(-94.6,-10.2,25.));
#458 = VECTOR('',#459,1.);
#459 = DIRECTION('',(0.,1.,0.));
#460 = ORIENTED_EDGE('',*,*,#461,.T.);
#461 = EDGE_CURVE('',#454,#406,#462,.T.);
#462 = LINE('',#463,#464);
#463 = CARTESIAN_POINT('',(-94.6,-8.38,25.));
#464 = VECTOR('',#465,1.);
#465 = DIRECTION('',(0.,0.342020143326,0.939692620786));
#466 = ORIENTED_EDGE('',*,*,#422,.T.);
#467 = ORIENTED_EDGE('',*,*,#238,.T.);
#468 = PLANE('',#469);
#469 = AXIS2_PLACEMENT_3D('',#470,#471,#472);
#470 = CARTESIAN_POINT('',(-94.6,-6.085948910919,39.531462828676));
#471 = DIRECTION('',(1.,0.,0.));
#472 = DIRECTION('',(-0.,0.,1.));
#473 = ADVANCED_FACE('',(#474),#509,.T.);
#474 = FACE_BOUND('',#475,.T.);
#475 = EDGE_LOOP('',(#476,#477,#485,#493,#501,#507,#508));
#476 = ORIENTED_EDGE('',*,*,#364,.F.);
#477 = ORIENTED_EDGE('',*,*,#478,.T.);
#478 = EDGE_CURVE('',#365,#479,#481,.T.);
#479 = VERTEX_POINT('',#480);
#480 = CARTESIAN_POINT('',(94.6,-10.2,50.));
#481 = LINE('',#482,#483);
#482 = CARTESIAN_POINT('',(94.6,1.,50.));
#483 = VECTOR('',#484,1.);
#484 = DIRECTION('',(0.,-1.,0.));
#485 = ORIENTED_EDGE('',*,*,#486,.T.);
#486 = EDGE_CURVE('',#479,#487,#489,.T.);
#487 = VERTEX_POINT('',#488);
#488 = CARTESIAN_POINT('',(94.6,-10.2,25.));
#489 = LINE('',#490,#491);
#490 = CARTESIAN_POINT('',(94.6,-10.2,50.));
#491 = VECTOR('',#492,1.);
#492 = DIRECTION('',(0.,0.,-1.));
#493 = ORIENTED_EDGE('',*,*,#494,.T.);
#494 = EDGE_CURVE('',#487,#495,#497,.T.);
#495 = VERTEX_POINT('',#496);
#496 = CARTESIAN_POINT('',(94.6,-8.38,25.));
#497 = LINE('',#498,#499);
#498 = CARTESIAN_POINT('',(94.6,-10.2,25.));
#499 = VECTOR('',#500,1.);
#500 = DIRECTION('',(0.,1.,0.));
#501 = ORIENTED_EDGE('',*,*,#502,.T.);
#502 = EDGE_CURVE('',#495,#408,#503,.T.);
#503 = LINE('',#504,#505);
#504 = CARTESIAN_POINT('',(94.6,-8.38,25.));
#505 = VECTOR('',#506,1.);
#506 = DIRECTION('',(0.,0.342020143326,0.939692620786));
#507 = ORIENTED_EDGE('',*,*,#415,.T.);
#508 = ORIENTED_EDGE('',*,*,#231,.T.);
#509 = PLANE('',#510);
#510 = AXIS2_PLACEMENT_3D('',#511,#512,#513);
#511 = CARTESIAN_POINT('',(94.6,-6.085948910919,39.531462828676));
#512 = DIRECTION('',(1.,0.,0.));
#513 = DIRECTION('',(-0.,0.,1.));
#514 = ADVANCED_FACE('',(#515),#540,.F.);
#515 = FACE_BOUND('',#516,.F.);
#516 = EDGE_LOOP('',(#517,#525,#533,#539));
#517 = ORIENTED_EDGE('',*,*,#518,.F.);
#518 = EDGE_CURVE('',#519,#255,#521,.T.);
#519 = VERTEX_POINT('',#520);
#520 = CARTESIAN_POINT('',(93.,112.4,2.));
#521 = LINE('',#522,#523);
#522 = CARTESIAN_POINT('',(93.,112.4,2.));
#523 = VECTOR('',#524,1.);
#524 = DIRECTION('',(0.,0.,1.));
#525 = ORIENTED_EDGE('',*,*,#526,.F.);
#526 = EDGE_CURVE('',#527,#519,#529,.T.);
#527 = VERTEX_POINT('',#528);
#528 = CARTESIAN_POINT('',(-93.,112.4,2.));
#529 = LINE('',#530,#531);
#530 = CARTESIAN_POINT('',(-93.,112.4,2.));
#531 = VECTOR('',#532,1.);
#532 = DIRECTION('',(1.,0.,-0.));
#533 = ORIENTED_EDGE('',*,*,#534,.T.);
#534 = EDGE_CURVE('',#527,#263,#535,.T.);
#535 = LINE('',#536,#537);
#536 = CARTESIAN_POINT('',(-93.,112.4,2.));
#537 = VECTOR('',#538,1.);
#538 = DIRECTION('',(0.,0.,1.));
#539 = ORIENTED_EDGE('',*,*,#262,.T.);
#540 = PLANE('',#541);
#541 = AXIS2_PLACEMENT_3D('',#542,#543,#544);
#542 = CARTESIAN_POINT('',(-93.,112.4,2.));
#543 = DIRECTION('',(-0.,1.,0.));
#544 = DIRECTION('',(0.,0.,1.));
#545 = ADVANCED_FACE('',(#546),#557,.F.);
#546 = FACE_BOUND('',#547,.F.);
#547 = EDGE_LOOP('',(#548,#549,#550,#551));
#548 = ORIENTED_EDGE('',*,*,#295,.F.);
#549 = ORIENTED_EDGE('',*,*,#333,.T.);
#550 = ORIENTED_EDGE('',*,*,#374,.T.);
#551 = ORIENTED_EDGE('',*,*,#552,.F.);
#552 = EDGE_CURVE('',#286,#365,#553,.T.);
#553 = LINE('',#554,#555);
#554 = CARTESIAN_POINT('',(-94.6,0.,50.));
#555 = VECTOR('',#556,1.);
#556 = DIRECTION('',(1.,0.,0.));
#557 = PLANE('',#558);
#558 = AXIS2_PLACEMENT_3D('',#559,#560,#561);
#559 = CARTESIAN_POINT('',(-94.6,2.4,50.));
#560 = DIRECTION('',(0.,0.,-1.));
#561 = DIRECTION('',(0.,-1.,0.));
#562 = ADVANCED_FACE('',(#563),#588,.T.);
#563 = FACE_BOUND('',#564,.T.);
#564 = EDGE_LOOP('',(#565,#573,#581,#587));
#565 = ORIENTED_EDGE('',*,*,#566,.F.);
#566 = EDGE_CURVE('',#567,#319,#569,.T.);
#567 = VERTEX_POINT('',#568);
#568 = CARTESIAN_POINT('',(93.,2.4,2.));
#569 = LINE('',#570,#571);
#570 = CARTESIAN_POINT('',(93.,2.4,2.));
#571 = VECTOR('',#572,1.);
#572 = DIRECTION('',(0.,0.,1.));
#573 = ORIENTED_EDGE('',*,*,#574,.F.);
#574 = EDGE_CURVE('',#575,#567,#577,.T.);
#575 = VERTEX_POINT('',#576);
#576 = CARTESIAN_POINT('',(-93.,2.4,2.));
#577 = LINE('',#578,#579);
#578 = CARTESIAN_POINT('',(-93.,2.4,2.));
#579 = VECTOR('',#580,1.);
#580 = DIRECTION('',(1.,0.,-0.));
#581 = ORIENTED_EDGE('',*,*,#582,.T.);
#582 = EDGE_CURVE('',#575,#311,#583,.T.);
#583 = LINE('',#584,#585);
#584 = CARTESIAN_POINT('',(-93.,2.4,2.));
#585 = VECTOR('',#586,1.);
#586 = DIRECTION('',(0.,0.,1.));
#587 = ORIENTED_EDGE('',*,*,#318,.T.);
#588 = PLANE('',#589);
#589 = AXIS2_PLACEMENT_3D('',#590,#591,#592);
#590 = CARTESIAN_POINT('',(-93.,2.4,2.));
#591 = DIRECTION('',(-0.,1.,0.));
#592 = DIRECTION('',(0.,0.,1.));
#593 = ADVANCED_FACE('',(#594),#605,.T.);
#594 = FACE_BOUND('',#595,.T.);
#595 = EDGE_LOOP('',(#596,#597,#603,#604));
#596 = ORIENTED_EDGE('',*,*,#582,.F.);
#597 = ORIENTED_EDGE('',*,*,#598,.T.);
#598 = EDGE_CURVE('',#575,#527,#599,.T.);
#599 = LINE('',#600,#601);
#600 = CARTESIAN_POINT('',(-93.,2.4,2.));
#601 = VECTOR('',#602,1.);
#602 = DIRECTION('',(-0.,1.,0.));
#603 = ORIENTED_EDGE('',*,*,#534,.T.);
#604 = ORIENTED_EDGE('',*,*,#349,.T.);
#605 = PLANE('',#606);
#606 = AXIS2_PLACEMENT_3D('',#607,#608,#609);
#607 = CARTESIAN_POINT('',(-93.,2.4,2.));
#608 = DIRECTION('',(1.,0.,-0.));
#609 = DIRECTION('',(0.,0.,1.));
#610 = ADVANCED_FACE('',(#611),#622,.F.);
#611 = FACE_BOUND('',#612,.F.);
#612 = EDGE_LOOP('',(#613,#614,#620,#621));
#613 = ORIENTED_EDGE('',*,*,#566,.F.);
#614 = ORIENTED_EDGE('',*,*,#615,.T.);
#615 = EDGE_CURVE('',#567,#519,#616,.T.);
#616 = LINE('',#617,#618);
#617 = CARTESIAN_POINT('',(93.,2.4,2.));
#618 = VECTOR('',#619,1.);
#619 = DIRECTION('',(-0.,1.,0.));
#620 = ORIENTED_EDGE('',*,*,#518,.T.);
#621 = ORIENTED_EDGE('',*,*,#388,.T.);
#622 = PLANE('',#623);
#623 = AXIS2_PLACEMENT_3D('',#624,#625,#626);
#624 = CARTESIAN_POINT('',(93.,2.4,2.));
#625 = DIRECTION('',(1.,0.,-0.));
#626 = DIRECTION('',(0.,0.,1.));
#627 = ADVANCED_FACE('',(#628),#639,.F.);
#628 = FACE_BOUND('',#629,.F.);
#629 = EDGE_LOOP('',(#630,#636,#637,#638));
#630 = ORIENTED_EDGE('',*,*,#631,.T.);
#631 = EDGE_CURVE('',#454,#495,#632,.T.);
#632 = LINE('',#633,#634);
#633 = CARTESIAN_POINT('',(-94.6,-8.38,25.));
#634 = VECTOR('',#635,1.);
#635 = DIRECTION('',(1.,0.,0.));
#636 = ORIENTED_EDGE('',*,*,#502,.T.);
#637 = ORIENTED_EDGE('',*,*,#405,.F.);
#638 = ORIENTED_EDGE('',*,*,#461,.F.);
#639 = PLANE('',#640);
#640 = AXIS2_PLACEMENT_3D('',#641,#642,#643);
#641 = CARTESIAN_POINT('',(-94.6,-8.38,25.));
#642 = DIRECTION('',(0.,-0.939692620786,0.342020143326));
#643 = DIRECTION('',(0.,0.342020143326,0.939692620786));
#644 = ADVANCED_FACE('',(#645),#656,.F.);
#645 = FACE_BOUND('',#646,.F.);
#646 = EDGE_LOOP('',(#647,#653,#654,#655));
#647 = ORIENTED_EDGE('',*,*,#648,.T.);
#648 = EDGE_CURVE('',#446,#487,#649,.T.);
#649 = LINE('',#650,#651);
#650 = CARTESIAN_POINT('',(-94.6,-10.2,25.));
#651 = VECTOR('',#652,1.);
#652 = DIRECTION('',(1.,0.,0.));
#653 = ORIENTED_EDGE('',*,*,#494,.T.);
#654 = ORIENTED_EDGE('',*,*,#631,.F.);
#655 = ORIENTED_EDGE('',*,*,#453,.F.);
#656 = PLANE('',#657);
#657 = AXIS2_PLACEMENT_3D('',#658,#659,#660);
#658 = CARTESIAN_POINT('',(-94.6,-10.2,25.));
#659 = DIRECTION('',(0.,0.,1.));
#660 = DIRECTION('',(0.,1.,0.));
#661 = ADVANCED_FACE('',(#662),#673,.F.);
#662 = FACE_BOUND('',#663,.F.);
#663 = EDGE_LOOP('',(#664,#670,#671,#672));
#664 = ORIENTED_EDGE('',*,*,#665,.T.);
#665 = EDGE_CURVE('',#438,#479,#666,.T.);
#666 = LINE('',#667,#668);
#667 = CARTESIAN_POINT('',(-94.6,-10.2,50.));
#668 = VECTOR('',#669,1.);
#669 = DIRECTION('',(1.,0.,0.));
#670 = ORIENTED_EDGE('',*,*,#486,.T.);
#671 = ORIENTED_EDGE('',*,*,#648,.F.);
#672 = ORIENTED_EDGE('',*,*,#445,.F.);
#673 = PLANE('',#674);
#674 = AXIS2_PLACEMENT_3D('',#675,#676,#677);
#675 = CARTESIAN_POINT('',(-94.6,-10.2,50.));
#676 = DIRECTION('',(-0.,1.,0.));
#677 = DIRECTION('',(0.,0.,-1.));
#678 = ADVANCED_FACE('',(#679),#685,.F.);
#679 = FACE_BOUND('',#680,.F.);
#680 = EDGE_LOOP('',(#681,#682,#683,#684));
#681 = ORIENTED_EDGE('',*,*,#437,.F.);
#682 = ORIENTED_EDGE('',*,*,#552,.T.);
#683 = ORIENTED_EDGE('',*,*,#478,.T.);
#684 = ORIENTED_EDGE('',*,*,#665,.F.);
#685 = PLANE('',#686);
#686 = AXIS2_PLACEMENT_3D('',#687,#688,#689);
#687 = CARTESIAN_POINT('',(-94.6,1.,50.));
#688 = DIRECTION('',(0.,0.,-1.));
#689 = DIRECTION('',(0.,-1.,0.));
#690 = ADVANCED_FACE('',(#691),#697,.T.);
#691 = FACE_BOUND('',#692,.T.);
#692 = EDGE_LOOP('',(#693,#694,#695,#696));
#693 = ORIENTED_EDGE('',*,*,#598,.F.);
#694 = ORIENTED_EDGE('',*,*,#574,.T.);
#695 = ORIENTED_EDGE('',*,*,#615,.T.);
#696 = ORIENTED_EDGE('',*,*,#526,.F.);
#697 = PLANE('',#698);
#698 = AXIS2_PLACEMENT_3D('',#699,#700,#701);
#699 = CARTESIAN_POINT('',(-93.,2.4,2.));
#700 = DIRECTION('',(0.,0.,1.));
#701 = DIRECTION('',(1.,0.,-0.));
#702 = ( GEOMETRIC_REPRESENTATION_CONTEXT(3) 
GLOBAL_UNCERTAINTY_ASSIGNED_CONTEXT((#706)) GLOBAL_UNIT_ASSIGNED_CONTEXT
((#703,#704,#705)) REPRESENTATION_CONTEXT('Context #1',
  '3D Context with UNIT and UNCERTAINTY') );
#703 = ( LENGTH_UNIT() NAMED_UNIT(*) SI_UNIT(.MILLI.,.METRE.) );
#704 = ( NAMED_UNIT(*) PLANE_ANGLE_UNIT() SI_UNIT($,.RADIAN.) );
#705 = ( NAMED_UNIT(*) SI_UNIT($,.STERADIAN.) SOLID_ANGLE_UNIT() );
#706 = UNCERTAINTY_MEASURE_WITH_UNIT(LENGTH_MEASURE(1.E-07),#703,
  'distance_accuracy_value','confusion accuracy');
#707 = PRODUCT_RELATED_PRODUCT_CATEGORY('part',$,(#7));
ENDSEC;
END-ISO-10303-21;
